<svg xmlns="http://www.w3.org/2000/svg" viewBox="0 0 251 220"><defs><style>.cls-1{fill:#f7fafc;}.cls-2{fill:#303030;}.cls-3{fill:#e93a1d;}.cls-4{fill:#ffefaf;}</style></defs><title>DN_Service-Ya-Audit-img-7</title><g id="back"><path class="cls-1" d="M128.2717,218.9567a21.6925,21.6925,0,0,1-10.2812-2.6895c-.9521-.5088-2.0361-1.1484-3.41-2.0137-2.0059-1.2627-4.7061-3.0537-8.2549-5.4766-4.14-2.8252-9.4971-6.5537-15.9922-11.1309a20.0164,20.0164,0,0,1-31.6367,1.3682S45.634,183.527,32.5744,168.0035C26.0373,160.233,19.5,152.4537,14.6,146.5983c-2.4727-2.9541-4.5322-5.4229-5.9736-7.1621-3.5059-4.2324-7.48-9.0293-6.7568-17.2656a19.9972,19.9972,0,0,1,7.0371-13.543,21.0471,21.0471,0,0,1,8.8389-4.2744C10.07,92.7721,9.2824,87.3258,9.5432,82.0553A21.602,21.602,0,0,1,13.78,70.1129a19.9611,19.9611,0,0,1,2.5156-7.2813,20.635,20.635,0,0,1,1.63-4.0713,21.2009,21.2009,0,0,1,6.7119-10.1738,19.9681,19.9681,0,0,1,16.9658-4.252A19.7993,19.7993,0,0,1,38.6662,32.09a20.11,20.11,0,0,1,7.0889-13.7354c2.623-2.2,12.1484-8.7705,24.9229-1.208,1.3232.7822,2.81,1.7686,4.6074,3.06A19.9052,19.9052,0,0,1,81.7668,9.9889C83.7385,8.3336,94.24.5328,107.3508,9.4537c.6094.415,1.2627.8857,1.9834,1.4307a19.9815,19.9815,0,0,1,4.001-4.5557A20.2432,20.2432,0,0,1,136.382,4.3151c.3213.1787.6416.3662.9639.5664,4.0234-2.585,13.0371-6.4863,23.6016,1.0986.6846.4912,1.6758,1.2217,2.93,2.1582,1.6611,1.2412,3.8291,2.8789,6.3809,4.8174a20.0112,20.0112,0,0,1,31.873,9.5889c3.8086,4.67,12.8213,13.9854,19.08,20.4541,22.2715,23.0186,28.9941,29.9658,28.4023,41.3613a20.6417,20.6417,0,0,1-7.3027,14.7021c-.0205.0176-.042.0352-.0635.0527,5.0107,7.64,6.4834,12.5967,6.1533,18.2354a20.9063,20.9063,0,0,1-6.8652,14.31A19.9966,19.9966,0,0,1,234.82,151.111a20.99,20.99,0,0,1-7.2119,3.88,20.0489,20.0489,0,0,1-22.6436,25.8037,19.9983,19.9983,0,0,1-6.7578,19.2324c-7.65,6.4189-17.4033,6.92-29.0234,1.501A20.1235,20.1235,0,0,1,149.4445,217.56c-.0781,0-.1572-.001-.2363-.002a19.95,19.95,0,0,1-5.1445.48,20.0964,20.0964,0,0,1-9.7812-.01A19.9747,19.9747,0,0,1,128.2717,218.9567ZM34.676,139.2155l-.0732.0615Z"/></g><g id="Layer_2" data-name="Layer 2"><path class="cls-2" d="M62.0337,94.2638c4.95-4.8562,13.2225-3.5879,19.5279-3.6784q11.4327-.1641,22.8639-.4135c15.1426-.3145,30.2842-.6832,45.4282-.9271,6.4621-.1041,12.9073-.019,19.3418-.6481a45.599,45.599,0,0,1,7.2094-.3387,7.31,7.31,0,0,1,6.6329,4.6227c1.35,2.8365,1.3553,5.6828,1.3665,8.7529q.0213,5.8116.11,11.6228c.1026,7.33.2533,14.66.3482,21.99a492.8665,492.8665,0,0,1-1.4659,50.9848l.75-.75c-31.3.7572-62.6127,1.2955-93.9216,1.4187-10.67.042-21.3421.0365-32.01-.17l.75.75c-.103-16.2673-.272-32.5357-.3-48.8033-.0138-7.9033.0782-15.8072-.0538-23.71-.1117-6.6847-1.4907-15.2844,3.4237-20.703.6472-.7136-.41-1.7776-1.0607-1.0607-4.161,4.5878-4.1379,11.0962-3.9741,16.931.24,8.5456.1715,17.0931.164,25.6409-.015,17.2343.1923,34.471.3014,51.7049a.7627.7627,0,0,0,.75.75c38.3195.7409,76.6986-.1826,115.0107-1.0035q5.4608-.117,10.9213-.2454a.77.77,0,0,0,.75-.75,475.4014,475.4014,0,0,0,1.5-48.13c-.0856-7.9614-.2527-15.9216-.3684-23.8826q-.0879-6.0487-.1216-12.0981c-.0125-2.9516.0577-5.7551-.971-8.5655-1.7091-4.6694-4.8961-6.8037-9.7568-6.8306a85.2124,85.2124,0,0,0-8.5181.6262c-3.15.3-6.3138.2446-9.4754.2862-16.4287.2162-32.8542.6135-49.28.9618q-13.9163.2951-27.8342.5075c-6.4429.0884-14.0793-.8264-19.0973,4.0968C60.2829,93.88,61.3438,94.9407,62.0337,94.2638Z"/><path class="cls-2" d="M67.7238,106.2579q59.0044,2.646,118.0845.5713c.9625-.0339.967-1.534,0-1.5q-59.0272,2.0771-118.0845-.5713c-.9651-.0433-.963,1.4568,0,1.5Z"/><path class="cls-2" d="M79.4733,94.887c-.8781.1423-1.4246.083-1.6821,1.0457a2.8536,2.8536,0,0,0,.1876,1.8918,2.57,2.57,0,0,0,3.3624,1.3684,2.74,2.74,0,0,0,1.6364-3.3686,2.7935,2.7935,0,0,0-3.4611-1.6927.4721.4721,0,0,0,.2508.91c1.982-.3916,3.2731,2.2123,1.2472,3.1673a1.5436,1.5436,0,0,1-2.06-.716,1.913,1.913,0,0,1-.2329-1.1628c.0715-.564.48-.5145.9791-.6178.5456-.113.3064-.9114-.2274-.8249Z"/><path class="cls-2" d="M88.1721,94.5475c-2.0519,1.1009-1.4921,4.7208.8485,5.07,2.3753.3546,4.0377-3.2044,2.1127-4.7169-.4976-.391-1.1714.2287-.7126.7126.8581.9052.18,3.1126-1.2515,2.85-1.2989-.2379-1.5235-2.3711-.4677-3.0109a.5248.5248,0,0,0-.5294-.9056Z"/><circle class="cls-3" cx="71.4665" cy="96.638" r="2.9701"/><path class="cls-2" d="M70.8608,125.9332c2.1007.1429,4.194.3425,6.2932.4953a.5474.5474,0,0,0,.1449-1.07,21.8256,21.8256,0,0,0-6.438-.4386.5072.5072,0,0,0,0,1.0137Z"/><path class="cls-2" d="M81.95,125.9021a25.3018,25.3018,0,0,0,4.0788.05.5072.5072,0,0,0,0-1.0137,25.3007,25.3007,0,0,0-4.0788.05.4573.4573,0,0,0,0,.9141Z"/><path class="cls-2" d="M99.7869,125.8992a71.2272,71.2272,0,0,1,13.3751-.1365.53.53,0,0,0,.14-1.0359,34.187,34.187,0,0,0-13.6306.3206c-.4667.1069-.3772.9038.1153.8517Z"/><path class="cls-2" d="M138.32,126.8834a26.07,26.07,0,0,1,6.913.2434c.5935.094.865-.788.2539-.921a20.6771,20.6771,0,0,0-7.1669-.2248c-.5622.0747-.5835.9646,0,.9023Z"/><path class="cls-2" d="M156.8637,127.3248c1.4135-.1783,2.8346-.3326,4.2271-.64.5509-.1215.4422-1.0618-.1355-1.0013-1.42.1486-2.8166.4427-4.2162.72-.51.1012-.4028.9873.1246.9208Z"/><path class="cls-2" d="M170.9765,127.844c2.9668.0733,5.9318.0765,8.8992.0527a.598.598,0,0,0,0-1.1953c-2.9674-.0238-5.9324-.0205-8.8992.0527a.5453.5453,0,0,0,0,1.09Z"/><path class="cls-2" d="M71.0111,136.7839a1.1291,1.1291,0,0,1,1.0587.2429c.558.4,1.0306-.4224.6746-.8742a1.7486,1.7486,0,0,0-2.0339-.4591c-.6495.2712-.41,1.323.3006,1.09Z"/><path class="cls-2" d="M70.5116,141.1229c-.5543.9239.6739,2.0768,1.5082,1.3093a.502.502,0,0,0-.4846-.8324c-.1021.0244-.1775-.0229-.1455-.1067.1991-.52-.6061-.8238-.8782-.37Z"/><path class="cls-2" d="M70.519,148.0348c.1295.12.2555.2376.3936.348a.4515.4515,0,0,0,.6381-.6381c-.11-.1381-.2277-.2641-.348-.3936-.4245-.4566-1.14.259-.6836.6836Z"/><path class="cls-2" d="M70.8608,154.9738l.3708-.0117a.5951.5951,0,0,0,0-1.1895l-.3708-.0117a.6068.6068,0,0,0,0,1.2129Z"/><path class="cls-2" d="M70.8608,162.0073a.5951.5951,0,0,0,0-1.1895.5951.5951,0,0,0,0,1.1895Z"/><path class="cls-2" d="M70.3159,168.0869a4.7312,4.7312,0,0,0,.0392.881.5282.5282,0,0,0,1.0114,0,4.7257,4.7257,0,0,0,.0392-.881.5453.5453,0,0,0-1.09,0Z"/><path class="cls-2" d="M70.8608,176.889a.6449.6449,0,0,0,0-1.2891.6449.6449,0,0,0,0,1.2891Z"/><path class="cls-2" d="M82.1868,136.5774a2.1419,2.1419,0,0,1,2.1279.044c.459.2319,1.02-.38.5822-.7546a2.6393,2.6393,0,0,0-3.1833-.0989.4691.4691,0,0,0,.4732.81Z"/><path class="cls-2" d="M81.95,143.0526a21.41,21.41,0,0,0,2.2248-.0146.5365.5365,0,0,0,0-1.0723,21.41,21.41,0,0,0-2.2248-.0146.5511.5511,0,0,0,0,1.1016Z"/><path class="cls-2" d="M81.7062,150.0629a2.3053,2.3053,0,0,0,2.3848-.1031.5131.5131,0,0,0-.5175-.8854,1.7509,1.7509,0,0,1-1.4948.1049.4855.4855,0,0,0-.3725.8835Z"/><path class="cls-2" d="M82.2222,157.0572a.4576.4576,0,0,1,.5521.02c.5871.39,1.0933-.5291.5442-.9309a1.41,1.41,0,0,0-1.64-.02c-.5665.3866-.0566,1.295.5442.9309Z"/><path class="cls-2" d="M81.95,163.0436a15.6674,15.6674,0,0,0,1.854.0445.56.56,0,0,0,0-1.1191,15.6716,15.6716,0,0,0-1.854.0434.516.516,0,0,0,0,1.0313Z"/><path class="cls-2" d="M81.8022,169.5857a10.7441,10.7441,0,0,0,4.0361.132c.6308-.1141.4518-1.0626-.1464-1.0819-1.2509-.04-2.4934-.0216-3.7417-.1435-.6214-.0607-.7616.9709-.148,1.0934Z"/><path class="cls-2" d="M82.0857,178.156a5.8988,5.8988,0,0,1,2.7007-.2271c.6991.0995,1.0288-.9337.3006-1.09a5.4406,5.4406,0,0,0-3.3942.3858c-.5287.23-.1523,1.1107.3928.9317Z"/><path class="cls-3" d="M98.6623,137.5445c4.5035-.2154,9.01-.4336,13.5186-.5207s9.0339.18,13.5351.0316a.51.51,0,0,0,0-1.02c-8.852-.8553-18.2293-.22-27.0537.6942-.51.0529-.5324.84,0,.8145Z"/><path class="cls-3" d="M98.6623,143.1648c5.7966.4219,11.6069.8891,17.416,1.0926.73.0256.7148-1.0719,0-1.125-5.7916-.43-11.6131-.5993-17.416-.8114-.5468-.02-.5365.8047,0,.8438Z"/><path class="cls-3" d="M98.6623,149.8547a161.1319,161.1319,0,0,0,24.099.4538.58.58,0,0,0,0-1.16c-8.0345-.1376-16.0595.073-24.099-.2019-.59-.02-.5764.8637,0,.9082Z"/><path class="cls-3" d="M98.6623,156.877c4.45-.26,8.8951-.2464,13.3429-.4472a.58.58,0,0,0,0-1.16,71.1841,71.1841,0,0,0-13.3429.43c-.7367.0806-.7693,1.2227,0,1.1777Z"/><path class="cls-3" d="M98.6623,163.3507a100.0212,100.0212,0,0,0,15.6946-1.1627c.6556-.106.5012-1.1874-.1565-1.1567-5.1553.2407-10.4071.7706-15.538,1.3409-.61.0678-.6453.9789,0,.9785Z"/><path class="cls-3" d="M98.5229,170.0933a47.0061,47.0061,0,0,0,16.97.3273c.6239-.1014.48-1.1427-.15-1.1049a116.6392,116.6392,0,0,1-16.6812-.2525.5268.5268,0,0,0-.1394,1.03Z"/><path class="cls-3" d="M98.6623,177.2791c7.9168-.0562,15.8467-.5645,23.75-.9919.6923-.0374.7011-1.1079,0-1.084-7.9123.27-15.8575.463-23.75,1.1032a.4866.4866,0,0,0,0,.9727Z"/><path class="cls-2" d="M138.1979,137.152a36.3049,36.3049,0,0,0,4.2287.5925.5121.5121,0,0,0,.1355-1.0013,36.3036,36.3036,0,0,0-4.2419-.4947c-.5108-.0487-.6348.8208-.1223.9035Z"/><path class="cls-2" d="M138.1761,144.9891a12.2916,12.2916,0,0,0,4.7564.2155c.5864-.0928.4539-1.088-.141-1.0416a15.0107,15.0107,0,0,1-4.3272-.2191c-.6787-.1442-.9708.8867-.2882,1.0453Z"/><path class="cls-2" d="M138.32,151.5828a4.8787,4.8787,0,0,1,2.2959.7008c.6471.3962,1.2017-.5881.5885-1.0068a4.609,4.609,0,0,0-2.8844-.8249.5658.5658,0,0,0,0,1.1309Z"/><path class="cls-2" d="M138.1862,157.993c1.1668.1749,2.3356.3457,3.5111.4489.5694.05.708-.9142.1363-1.0071-1.1652-.1893-2.339-.3139-3.5134-.4316-.5593-.056-.6962.9055-.134.99Z"/><path class="cls-2" d="M138.32,163.5162a21.1854,21.1854,0,0,0,3.0984-.4848.5356.5356,0,0,0-.1417-1.0474,21.1683,21.1683,0,0,0-3.1062.4272c-.6151.1161-.4837,1.1727.15,1.1049Z"/><path class="cls-2" d="M138.4463,171.0428a22.79,22.79,0,0,1,5.4512-.1613c.6949.0554.6733-.9968,0-1.0723a18.0271,18.0271,0,0,0-5.7036.3183c-.6059.1256-.34,1.01.2523.9153Z"/><path class="cls-2" d="M138.4635,177.8257a17.1448,17.1448,0,0,1,4.6862-.2813c.5875.0387.7355-.9508.141-1.0416a12.601,12.601,0,0,0-5.1138.2833c-.6759.1737-.3886,1.1817.2866,1.04Z"/><path class="cls-2" d="M156.8637,137.8438c.9867.052,1.979.0438,2.9664.0176a.5511.5511,0,0,0,0-1.1016c-.9873-.0263-1.98-.0344-2.9664.0176a.5335.5335,0,0,0,0,1.0664Z"/><path class="cls-2" d="M156.8637,145.5163a11.6249,11.6249,0,0,0,2.3463.0218.46.46,0,0,0,0-.8814,11.6291,11.6291,0,0,0-2.3463.0218.4192.4192,0,0,0,0,.8379Z"/><path class="cls-2" d="M156.7375,152.7767a6.54,6.54,0,0,0,1.9537.2719.5122.5122,0,0,0,.1355-1.0013,6.5179,6.5179,0,0,0-1.9631-.2028.4769.4769,0,0,0-.1262.9323Z"/><path class="cls-2" d="M156.8637,159.356a8.8235,8.8235,0,0,0,1.854.0322.5717.5717,0,0,0,0-1.1426,8.8211,8.8211,0,0,0-1.854.0322.5394.5394,0,0,0,0,1.0781Z"/><path class="cls-2" d="M156.8637,163.8583a15.6433,15.6433,0,0,0,2.5956-.0322.56.56,0,0,0,0-1.1191,15.6487,15.6487,0,0,0-2.5956-.0322.5922.5922,0,0,0,0,1.1836Z"/><path class="cls-2" d="M157.1373,172.2174a4.4217,4.4217,0,0,1,2.34-.2561c.5923.0721.675-.854.1371-1.0128a4.1093,4.1093,0,0,0-3.0237.3329c-.6343.31-.0793,1.2131.5471.936Z"/><path class="cls-2" d="M156.8637,177.5427q1.2983.0239,2.5956.0176a.5746.5746,0,0,0,0-1.1484q-1.2986-.0057-2.5956.0176a.557.557,0,0,0,0,1.1133Z"/><path class="cls-2" d="M170.9765,137.7977a37.8542,37.8542,0,0,1,5.7753.8262.5835.5835,0,0,0,.31-1.1244,19.5,19.5,0,0,0-6.0852-.7155.5072.5072,0,0,0,0,1.0137Z"/><path class="cls-2" d="M170.9765,145.1807c.7438.0435,1.48.0749,2.2248.0586a.513.513,0,0,0,0-1.0254c-.7452-.0164-1.4809.0151-2.2248.0586a.4544.4544,0,0,0,0,.9082Z"/><path class="cls-2" d="M171.1183,154.4154a5.775,5.775,0,0,1,3.3973.2424.5826.5826,0,0,0,.447-1.06,5.1857,5.1857,0,0,0-4.1278-.21.5337.5337,0,0,0,.2835,1.0283Z"/><path class="cls-2" d="M171.11,160.0282a12.4,12.4,0,0,1,3.2068-.3075.5209.5209,0,0,0,.1379-1.0186,5.8216,5.8216,0,0,0-3.7307.41c-.5322.2441-.1457,1.0433.386.9157Z"/><path class="cls-2" d="M171.1261,167.0606a3.4635,3.4635,0,0,1,1.9647-.2607.56.56,0,0,0,.2975-1.0792,3.3587,3.3587,0,0,0-2.6956.3117c-.53.31-.1716,1.28.4334,1.0281Z"/><path class="cls-2" d="M170.9765,173.0521c.8654.0586,1.7286.072,2.5956.0557a.5716.5716,0,0,0,0-1.1426c-.8669-.0163-1.73-.0029-2.5956.0557a.516.516,0,0,0,0,1.0313Z"/><path class="cls-2" d="M170.9765,178.9732c.8652.0092,1.73.0213,2.5956.0176a.5218.5218,0,0,0,0-1.043c-.8653-.0038-1.73.0083-2.5956.0176a.5042.5042,0,0,0,0,1.0078Z"/><polygon class="cls-4" points="113.782 53.855 215.426 111.499 204.621 131.067 189.073 119.601 195.193 107.979 111.775 60.373 113.782 53.855"/><path class="cls-4" d="M112.1139,22.8033c-8.48-3.3618-11.7681,5.1152-15.2388,10.335,1.9663-2.9565-6.374-8.0557-8.8477-7.9561-4.0786.1631-7.6431,3.7793-9.8745,6.8574-2.6768,3.6924-4.75,8.9043-3.1,13.45,2.0864,5.7466,6.8979,5.3008,11.8838,6.0815-5.0269,6.3081-11.564,10.54-6.0454,19.499,1.5381,2.4966,4.5059,4.2539,7.7749,5.0918,3.9458,1.0112,8.33.6831,11.1685-1.3008a8.7271,8.7271,0,0,0,3.8892-6.5044c.1353-2.3818-1.6934-3.8311-1.82-5.9385-.3276-5.4487,5.6172-2.5586,7.6558-6.332,1.564-2.8945-1.1587-4.8125-.86-7.4932.3853-3.4629,2.75-2.7217,5.3018-3.9775a12.62,12.62,0,0,0,5.7778-5.8872C122.608,32.4742,118.1427,25.193,112.1139,22.8033ZM86.6266,47.82a8.5059,8.5059,0,1,1,8.5059-8.5059A8.506,8.506,0,0,1,86.6266,47.82Zm4.3481,23.36a6.0171,6.0171,0,1,1,6.0171-6.0171A6.017,6.017,0,0,1,90.9747,71.18Zm17.9414-31.7856a5.97,5.97,0,1,1,5.97-5.97A5.97,5.97,0,0,1,108.9161,39.3946Z"/><path class="cls-2" d="M111.5531,60.7528q23.7089,12.64,46.884,26.2776c6.7206,3.9626,13.5054,7.7926,20.31,11.6084,2.5432,1.4261,5.025,2.9636,7.5769,4.3717,1.5289.8436,3.086,1.6358,4.5851,2.5327a25.9682,25.9682,0,0,1,2.2255,1.4735c1.286.9609,1.2633,1.1887.5877,2.5293-.7067,1.4021-1.3881,2.8186-2.1492,4.1925-.8313,1.5006-2.0134,2.8962-2.7374,4.4352-.3762.8-.5973,1.4349.0581,2.1337,1.2156,1.296,3.8579,2.039,5.44,2.8518a.6141.6141,0,0,0,.8217-.2155l.887-1.4481c.54-.8808.53-1.3569,1.4976-1.3606,1.0809-.0042,2.8474,1.0738,3.6885,1.7055,1.2207.9167.7808,1.51.327,2.8928l-1.4447,4.4018a.6062.6062,0,0,0,.276.6782c.9.4908,2.8228,1.805,3.7955,1.8391,1.8917.0663,2.7152-3.011,3.4452-4.3327,2.8377-5.1378,5.5815-10.3251,8.3173-15.5176a.6128.6128,0,0,0-.2155-.8217c-16.7226-9.9841-33.6377-19.6359-50.637-29.14C148.105,72.343,131.24,62.5185,114.0469,53.4022a.5248.5248,0,0,0-.5294.9056c16.6635,10.042,33.9873,19.0759,50.9684,28.57,16.9992,9.504,33.9144,19.1559,50.637,29.14l-.2155-.8217c-2.6127,4.9587-5.23,9.9145-7.9345,14.8237-.4807.8724-1.4528,3.6882-2.2951,4.139-.6888.3687-1.5606-.2182-2.1705-.6146-.98-.6369-1.0084-.5046-.6607-1.85.46-1.78,1.16-3.5357,1.7337-5.2822a.6113.6113,0,0,0-.276-.6782,37.8116,37.8116,0,0,0-6.2906-3.292.6033.6033,0,0,0-.6782.276l-2.2176,3.62.8217-.2155-2.4927-1.2808c-.4011-.2061-2.2939-.8245-2.4927-1.2808-.4607-1.0571,1.5675-3.3332,2.0982-4.2387,1.3369-2.2817,2.453-4.6878,3.6593-7.0392a.6169.6169,0,0,0-.0939-.7278c-2.5239-2.4109-5.6627-3.9089-8.6876-5.5814-2.5507-1.41-5.0337-2.9455-7.5769-4.3717-6.8047-3.8158-13.5893-7.6457-20.31-11.6084-15.4427-9.1052-31.0886-17.8338-47.0466-25.9993-.5015-.2566-.9449.4917-.4436.7589Z"/><path class="cls-2" d="M114.2248,50.738a43.915,43.915,0,0,1-2.8375,6.1346c-.506.88-1.0545,1.7327-1.6351,2.5647q-.37.537-.7626,1.0573-1.2009-.3264-.23-1.2441c.319-1.7814,2.2152-4.1449,3.1234-5.6609,1.1068-1.8473,2.2855-3.65,3.42-5.48.3351-.5406-.4933-1.2174-.9019-.6959a65.5231,65.5231,0,0,0-5.82,9.06c-.7048,1.29-3.2918,4.7386-1.2464,6.1173,1.5564,1.0491,2.6976-.9773,3.4631-2.0408a33.2386,33.2386,0,0,0,4.7486-9.4481c.2685-.8568-1.0108-1.1712-1.3221-.3645Z"/><path class="cls-2" d="M108.1873,47.0294c-.15,2.0968.6428,4.8043,2.5463,5.9489a.6227.6227,0,0,0,.8458-.8458,20.9689,20.9689,0,0,1-1.4336-2.23,7.4878,7.4878,0,0,1-.6283-2.873.6655.6655,0,0,0-1.33,0Z"/><path class="cls-2" d="M107.2788,58.3154a6.5339,6.5339,0,0,0-6.005.5138c-.577.3846-.2306,1.4558.5012,1.1888a11.6685,11.6685,0,0,1,2.6644-.7988,20.1069,20.1069,0,0,1,2.588.0244.5018.5018,0,0,0,.2514-.9281Z"/><path class="cls-2" d="M108.64,45.9618c5.02.4587,10.45-1.9015,12.0863-6.9462,1.663-5.1261.5022-11.0976-3.9165-14.41a12.42,12.42,0,0,0-14.5325-.1526c-4.3836,3.0069-7.3108,8.3045-5.0007,13.41.3341.7383,1.6255.2068,1.3226-.5576a7.7542,7.7542,0,0,1,.7615-7.6322,13.2821,13.2821,0,0,1,4.2913-4.2945,10.8525,10.8525,0,0,1,12.3132.4784c3.86,2.8677,4.8341,7.918,3.5572,12.4144-1.4384,5.0653-6.2381,6.2838-10.8825,6.6471a.5218.5218,0,0,0,0,1.043Z"/><path class="cls-2" d="M99.8387,60.28c1.1531,1.89,2.5122,3.9706,2.5382,6.2636.0254,2.2434-1.2373,4.5018-2.5519,6.2569-3.2832,4.3832-9.9749,2.8247-14.1681.6368-4.2314-2.2079-7.2891-6.8115-5.3272-11.6025,1.5124-3.6933,6.3282-8.7954,10.5682-8.3526.81.0846,1.0055-1.2994.1939-1.4329-5.0267-.827-10.4448,4.8809-12.2106,9.1766-2.1716,5.2827.9086,10.7332,5.6477,13.3061,4.27,2.3184,11.596,4.1593,15.4663.206a13.463,13.463,0,0,0,3.6588-7.1961c.3684-2.9844-1.2424-5.4808-2.9249-7.7824-.3828-.5237-1.2438-.0587-.89.52Z"/><path class="cls-2" d="M97.8005,35.824c-.9557-4.9391-4.5453-9.1367-9.6812-9.9-5.1066-.7585-9.0948,2.2508-11.6684,6.4113C73.9183,36.43,71.17,42.9034,74.5971,47.1988c2.8468,3.5681,8.8291,6.9107,13.4053,5.1605a.6774.6774,0,0,0-.36-1.3052c-4.2682.8979-9.7478-1.5456-12.224-5.1985-2.4611-3.6306.2655-9.4718,2.31-12.773,2.28-3.6816,5.8317-6.4646,10.4-5.6907,4.5.7623,7.4645,4.5328,8.6826,8.7046a.5132.5132,0,0,0,.9888-.2726Z"/><path class="cls-2" d="M86.4052,46.7275c-3.6662-.32-7.2328-2.9542-7.5754-6.8155-.2974-3.3507,1.8576-7.1618,5.4018-7.499,3.6078-.3433,7.6728.8225,9.4537,4.1887,1.9367,3.66.07,7.4-3.0077,9.6276a.6069.6069,0,0,0,.6122,1.0473A8.4119,8.4119,0,0,0,95.238,36.48c-1.8841-4.3613-7.26-6.281-11.7662-5.5213-4.2638.7189-6.705,5.6215-6.0833,9.6232a8.3875,8.3875,0,0,0,9.0167,7.0073.4309.4309,0,0,0,0-.8613Z"/><path class="cls-2" d="M102.6546,35.5179a8.3612,8.3612,0,0,1,2.5554-7.0195,5.4591,5.4591,0,0,1,8.829,1.4478,8.054,8.054,0,0,1,.0767,7.7107,5.2049,5.2049,0,0,1-4.5712,2.3562c-1.874-.0221-5.005-.7828-4.8634-3.23.0472-.8148-1.1153-.8878-1.3581-.1838-1.49,4.32,5.9567,5.4523,8.7017,4.5168,3.9732-1.354,5.1171-6.1344,4.0324-9.8146-1.1868-4.0267-4.9458-6.982-9.1683-5.33a8.5616,8.5616,0,0,0-5.0974,9.6629c.091.4805.9154.378.8632-.1168Z"/><path class="cls-2" d="M90.32,57.3846c-3.7864-.5118-6.9767,2.7567-7.1777,6.44-.2223,4.074,2.8857,8.7192,7.1166,9.2335,4.0579.4932,7.4625-3.2383,7.5856-7.11a7.1124,7.1124,0,0,0-7.3693-7.2339.6156.6156,0,0,0,0,1.23c3.0618.2771,5.9584,2.3235,6.0135,5.665.0553,3.3516-3.1169,6.8139-6.6465,5.9607-6.704-1.6206-7.2395-12.52.3236-13.046.6043-.042.8429-1.0464.1542-1.1394Z"/><path class="cls-2" d="M96.1132,49.0961c.4757,1.48.9069,2.9732,1.396,4.45a.6619.6619,0,0,0,.96.3905,15.17,15.17,0,0,1,5.4988-1.9781.6784.6784,0,0,0,.4692-.8264c-.4257-1.554-.8335-3.1137-1.271-4.6644-.1731-.6135-.2892-1.34-.9562-1.6094-1.5021-.6068-4.1309,1.2812-5.0824,2.2412-.5062.5107.1642,1.4592.7917,1.0261.6471-.4466,2.9721-2.3585,3.7638-1.8759.3136.1912.5414,1.941.6494,2.3283q.4059,1.4552.809,2.9112l.4692-.8264a15.1458,15.1458,0,0,0-5.8012,2.1454l.96.3905c-.5576-1.4612-1.17-2.8987-1.7409-4.3545-.2177-.5556-1.106-.3409-.9153.2523Z"/></g></svg>