<svg xmlns="http://www.w3.org/2000/svg" viewBox="0 0 252 200"><defs><style>.cls-1{fill:#f7fafc;}.cls-2{fill:#ffefaf;stroke:#303030;stroke-miterlimit:10;stroke-width:1.5px;}.cls-3{fill:#303030;}.cls-4{fill:#172df8;}.cls-5{fill:#777;}.cls-6{fill:#e93a1d;}</style></defs><title>DN_Service-Ya-Audit-img-10</title><g id="back"><path class="cls-1" d="M154.5035,198.0405a21.0407,21.0407,0,0,1-9.8179-2.4551,31.5909,31.5909,0,0,1-3.2012-1.9648c-1.3589-.9336-3.0132-2.168-5.2065-3.8838q-.7046-.5515-1.4766-1.1636a20.1064,20.1064,0,0,1-3.8413,4.312,20.4817,20.4817,0,0,1-22.9238,2.145,20.0257,20.0257,0,0,1-17.1509-2.2974,20.035,20.035,0,0,1-15.3594-1.957,20.0131,20.0131,0,0,1-20.2881-15.4385c-6.1782-8.814-28.5161-33.603-47.5918-53.4365a19.9958,19.9958,0,0,1-4.5781-20.14A20.9006,20.9006,0,0,1,2.94,97.4766,20.0249,20.0249,0,0,1,5.4444,89.05a19.8153,19.8153,0,0,1-.4653-5.9229A20.0855,20.0855,0,0,1,9.6422,71.49a20.0021,20.0021,0,0,1,15.81-18.9214,21.58,21.58,0,0,1-.3071-5.5488,20.7478,20.7478,0,0,1,7.3037-14.4829A19.9192,19.9192,0,0,1,40.6632,28.4a20.5317,20.5317,0,0,1,6.0088-8.5376,19.9861,19.9861,0,0,1,5.1387-3.1353,19.9989,19.9989,0,0,1,24.2583.8462l6.0381,4.9526a19.9976,19.9976,0,0,1,6.9321-12.4175c6.4-5.3706,15.0444-6.35,23.1216-2.6226.8882.41,1.7837.8794,2.7085,1.4219a20.5212,20.5212,0,0,1,2.6367-2.6592,19.9979,19.9979,0,0,1,26.207.4312l.8789.7881c6.4321-4.127,15.8687-5.0044,24.31,1.9175.5269.4326,1.1406.9561,1.8955,1.6172A20.0338,20.0338,0,0,1,191.81,20.7642c4.2622,5.5693,23.8,28.5151,41.2642,48.6836a19.9857,19.9857,0,0,1,4.1572,18.4282c4.5845,6.8018,5.7021,11.3379,5.3975,16.7158a21.01,21.01,0,0,1-5.51,13.0254,21.0139,21.0139,0,0,1,1.9209,10.3286,20.5751,20.5751,0,0,1-7.2651,14.4814,22.6151,22.6151,0,0,1-4.6025,3.0122,22.1151,22.1151,0,0,1,.4736,6.1953,20.7716,20.7716,0,0,1-7.4106,14.8281,20.0008,20.0008,0,0,1-19.9111,3.395,20.007,20.007,0,0,1-15.8853,22.3794c-4.2661,2.1382-9.8574,3.1406-16.8911,1.01-.0483.0415-.0967.0825-.1455.1235A20.0032,20.0032,0,0,1,154.5035,198.0405Z"/></g><g id="Layer_2" data-name="Layer 2"><path class="cls-2" d="M94.35,98.6755c-4.2854-4.9964-1.1582-12.4929,2.4563-16.6972,2.0808-2.42,6.7734-3.6225,9.8527-3.8458a14.7462,14.7462,0,0,1,10.4734,2.8906c5.651,4.3469,4.7641,13.3634,2.1837,19.0367a10.4275,10.4275,0,0,1-4.4674,4.98c-3.9211,2.1014-6.5149,2.6692-10.8973,1.8919C99.2556,106.0985,96.221,103.0124,94.35,98.6755Z"/><path class="cls-3" d="M19.7015,38.0285c-.2544,11.3828.0992,22.7544.93,34.1087a.6127.6127,0,0,0,.5985.5985c9.9812.2663,19.96.61,29.942.864,2.4114.0613,5.1587.6692,4.8416-2.5248-.2548-2.5672-.9855-5.0617-1.1369-7.67-.1354-2.3322-.1147-4.67-.0608-7.0047a124.2474,124.2474,0,0,0-.0341-14.052c-.1185-1.3125-.0084-3.7609-1.0545-4.76-.7766-.7419-1.9429-.5647-2.9471-.5541-9.5147.1-18.957,2.4566-28.3033-.3808-.8428-.2559-1.1847,1.0332-.3614,1.3108,7.3466,2.4775,15.1511,1.3858,22.7057.7544,1.983-.1657,3.9687-.304,5.959-.3362,1.9618-.0317,2.2726.577,2.52,2.5748.1146.9254.1924,1.8559.25,2.7864.2528,4.0594.035,8.1273-.0672,12.1878a68.9176,68.9176,0,0,0,.42,11.3477c.19,1.3513,1.4128,4.1506.2625,5.0224-.4793.3632-2.84-.0758-3.4932-.0929l-3.4932-.0913c-8.6492-.2261-17.3005-.3625-25.95-.5786l.5985.5985c-.8054-11.3518-1.19-22.7294-1.2829-34.1087a.4221.4221,0,0,0-.8437,0Z"/><path class="cls-3" d="M112.3277,24.2429a53.729,53.729,0,0,1,.6676,12.958c-.1879,4.02-.8707,8.2862-.4622,12.3049.267,2.627,2.1695,1.767,4.0943,1.3929a50.583,50.583,0,0,1,12.5514-.38c3.2586.1866,7.5413,1.0893,10.7424.183,2.313-.6549,2.385-2.701,1.963-4.7285-.91-4.3705-.5146-8.4221-.2846-12.836.1021-1.9591.6916-5.3869-1.71-6.2521-1.4329-.5162-3.3667-.1169-4.8592-.1606-2.3674-.0694-4.7277-.2817-7.08-.5473-4.6183-.5214-9.2149-1.236-13.837-1.7233-.8159-.086-1.0161,1.3249-.1955,1.4444,4.0355.5878,8.0971,1.0526,12.1486,1.5168,1.8823.2156,3.767.4133,5.6573.5441,1.1012.0762,2.2035.1293,3.307.1525a15.6278,15.6278,0,0,1,3.3107-.0368q1.0414-.3025,1.34.9144a1.7234,1.7234,0,0,1,.7014,1.8505,15.9946,15.9946,0,0,1-.1168,3.2178c-.1238,1.988-.3227,3.9741-.3412,5.9674a26.13,26.13,0,0,0,.5774,5.5745c.2688,1.3153,1.06,3.0786-.9178,3.8812-.93.3772-2.5106.1184-3.509.0957-4.1351-.0944-8.2577-.5362-12.3957-.5347a42.0066,42.0066,0,0,0-5.4325.3211,24.35,24.35,0,0,1-2.845.5064c-1.3368.0007-1.2994.2059-1.6251-1.3073-.4239-1.97.0988-4.6406.2007-6.6263.0971-1.893.2087-3.7855.2709-5.68a47.4587,47.4587,0,0,0-.9607-12.2776c-.1444-.6285-1.0835-.3593-.9605.2648Z"/><path class="cls-3" d="M185.6452,65.0262a330.3458,330.3458,0,0,1-2.2386,33.1565c-.3044,2.5451-2.5113,8.909,1.02,10.23,1.5791.5909,3.7172.2656,5.3738.33q4.2641.1653,8.5148.5556a155.7272,155.7272,0,0,1,16.6826,2.4606c5.2707,1.0729,10.4377,2.6482,15.7366,3.5771,4.41.773,9.3453,1.2015,13.6594-.3037,3.86-1.3468,2.7614-5.8,2.7644-9.0711a180.0209,180.0209,0,0,1,3.96-37.326.7525.7525,0,0,0-.52-.9167q-16.6525-2.3522-33.3188-4.5989l-16.18-2.1941c-4.813-.6527-10.0443-1.9748-14.8138-.5379a.8239.8239,0,0,0,.4377,1.5877c5.2005-1.49,11.149.1853,16.3836.8931l16.1815,2.188q15.5508,2.1027,31.1115,4.126l-.7186-.9433a183.837,183.837,0,0,0-3.7252,27.6781c-.2674,4.7912-.1449,9.56-.2115,14.3506-.0261,1.8777-.34,2.7963-2.5339,3.5748a15.221,15.221,0,0,1-3.9193.6226,33.7331,33.7331,0,0,1-7.6976-.4752c-4.6874-.756-9.2543-2.1358-13.8879-3.15q-6.58-1.44-13.2654-2.3042-6.8149-.8891-13.6921-1.1533c-1.2639-.05-2.5263-.0643-3.7906-.0906-1.6721-.0348-2.9406.1547-3.0969-2.2742-.14-2.1835.5516-4.66.8-6.8351a313.5024,313.5024,0,0,0,1.9993-33.1565.5071.5071,0,0,0-1.0137,0Z"/><path class="cls-3" d="M27.6769,120.6358c-.4193,8.253-.4612,16.5351-.6315,24.7964l-.1227,5.9511c-.0212,1.0269-.3409,2.6587.3337,3.5961,1.3749,1.91,5.6315.4734,7.47.285a322.4816,322.4816,0,0,1,48.729-1.2584.8153.8153,0,0,0,.8079-.8079l-.92-36.11a.8239.8239,0,0,0-.8114-.8114c-17.7527.1741-35.5142.1743-53.2644.5243a.8149.8149,0,0,0,0,1.6289c17.7537-.0015,35.5117-.3529,53.2644-.53l-.8114-.8114.9267,36.11.8079-.8079a322.8386,322.8386,0,0,0-43.8716.8058q-2.6735.2333-5.3427.5127c-1.2417.13-3.7477.9278-4.9232.5286-1.5041-.5108-.7748-4.1359-.7523-5.3335l.1027-5.4552c.1431-7.5991.3955-15.2122.3091-22.8127a.6508.6508,0,0,0-1.3008,0Z"/><path class="cls-3" d="M135.2385,175.4238c-.077-13.8215-.4874-27.646-.7566-41.4649l-.6914.6914q18.2015.6889,36.4074,1.2674l18.4531.61,8.4784.28,4.4886.1484c1.4828.049,3.6175-.2809,5.032.2244,1.7409.622,1.3977,2.924,1.4722,4.3428l.2593,4.9394.4667,8.891c.31,5.9,1.18,12.0519.9293,17.9525-.1589,3.7407-3.2262,4.1554-6.275,4.19-3.15.0354-6.3035-.0157-9.4537-.0236q-9.2049-.0229-18.41-.0442l-40.8-.0793a.7944.7944,0,0,0,0,1.5879l40.8.0684q10.4488.0175,20.8977.0253c2.76.0031,5.57.1513,8.3261-.0262,1.8966-.1221,4.04-.501,5.3354-2.037,1.3744-1.63,1.1414-3.83,1.0428-5.8073q-.2586-5.1869-.5379-10.3728c-.3571-6.75-.6911-13.5027-1.0756-20.2517-.0974-1.71-.0724-3.6788-1.7964-4.59-1.9169-1.0136-5.15-.5054-7.2107-.5723l-20.9467-.68c-15.2936-.4964-30.5875-1.0026-45.8833-1.426a.6988.6988,0,0,0-.6914.6914c.3054,13.82.47,27.6507.9675,41.4649a.5863.5863,0,0,0,1.1719,0Z"/><path class="cls-3" d="M46.3736,115.8742c-.2571-4.2508-.69-8.4949-1.0715-12.7361-.1741-1.9355-.17-3.9724-.53-5.8782-.1254-.6645-.2057-1.3692-.9082-1.7071-.9281-.4465-2.3178.3894-3.1536.6155a26.1883,26.1883,0,0,1-5.9654.7981c-3.9153.1325-7.831-.276-11.7455-.0762a40.7368,40.7368,0,0,0-4.5525.4909c-1.41.2326-3.6206.41-4.8459,1.17-1.93,1.1978-1.17,5.6293-1.1881,7.5256a125.7716,125.7716,0,0,0,2.183,24.2692.7218.7218,0,0,0,.6877.5236,76.14,76.14,0,0,0,12.6775-.4644c.894-.11.9149-1.5256,0-1.4238a82.0771,82.0771,0,0,1-12.6775.4619l.6877.5236a124.5671,124.5671,0,0,1-2.1276-20.0157q-.0565-2.4209-.0173-4.843c.0206-1.2717-.4-4.4918.7046-5.4205.8526-.7166,3.1793-.7844,4.2849-.9687a38.37,38.37,0,0,1,5.5322-.49c5.7059-.1167,11.5771.7647,17.143-.9,1.1989-.3586,1.4251-.9207,2.0419.9111a11.4949,11.4949,0,0,1,.2244,2.4493q.2244,2.4494.451,4.8985c.321,3.43.6021,6.867,1.0169,10.2869.0866.7137,1.194.7531,1.1484,0Z"/><path class="cls-3" d="M133.1119,51.5252c-.0965,3.3145.0291,6.6407.1276,9.9542q.0739,2.4879.1806,4.9748a16.4508,16.4508,0,0,0,.2331,3.892c.5059,1.6566,2.0414,1.8228,3.5458,2.144a66.947,66.947,0,0,0,8.6023,1.2268,155.6738,155.6738,0,0,0,18.5519.0148c6.5418-.2541,13.1726-.2294,19.6906-.841a.6127.6127,0,0,0,0-1.2246c-11.0063-.16-22.0081,1.1926-33.025.9856-2.53-.0475-5.0595-.17-7.5768-.4343-2.6364-.2767-7.8522-.2243-8.6916-3.2767a21.3334,21.3334,0,0,1-.2033-4.4762q-.081-1.99-.1494-3.98c-.1024-2.9852-.1195-5.9766-.2838-8.959a.5013.5013,0,0,0-1.002,0Z"/><path class="cls-3" d="M192.2062,59.3324c.0249-2.8866-.0644-5.77-.1443-8.6552-.0331-1.1959.2652-3.1192-.8916-3.9277-1.5559-1.0876-5.0333-.1093-6.7945,0-2.987.1861-5.9722.297-8.9647.195-11.3819-.3881-22.7508-3.01-34.0758-.6013-.9186.1954-.5292,1.5983.3879,1.4069,9.9228-2.0716,19.9319-.2723,29.8986.3864a102.8561,102.8561,0,0,0,14.1668-.1974c.9395-.0669,2.8974-.581,3.7679-.2543,1.7066.6405,1.2419,2.5534,1.2948,3.9538.097,2.5671.1935,5.1313.3822,7.6935a.4866.4866,0,0,0,.9727,0Z"/><path class="cls-3" d="M23.962,45.4043c-.0025,3.1492-.0053,6.303-.0461,9.4524a.5925.5925,0,0,0,.5867.5867q2.5217-.1061,5.0434-.2122c1.4-.061,3.3658.1794,4.7174-.2558,1.6878-.5435,1.0017-2.6775.9384-4.0591-.0726-1.5821.4164-4.6387-1.1371-5.7269-.775-.5429-2.0644-.4443-2.9578-.5214-1.7588-.1519-3.5331-.3561-5.2984-.3611-.6469-.0019-.8389,1.0713-.1581,1.1682,1.805.257,3.6373.3221,5.4565.4288q.7567.0466,1.5138.0847a2.3326,2.3326,0,0,1,1.3131,2.3426,22.6012,22.6012,0,0,1,.14,2.9544c.0378.7966.41,2.0363-.26,2.593-.4147.3446-2.5339.099-3.1036.1221-2.0693.0839-4.1382.1784-6.2072.2693l.5867.5867c.0352-3.1668-.0482-6.2956-.2894-9.4524a.4192.4192,0,0,0-.8379,0Z"/><path class="cls-3" d="M24.5038,46.7224c2.02,1.7494,4.0413,3.5006,6.1368,5.1592.5191.4109,1.2622-.2841.7458-.7458-1.9922-1.781-4.0637-3.4725-6.1327-5.1633-.5205-.4254-1.2713.2983-.75.75Z"/><path class="cls-3" d="M25.5029,54.6655a10.0825,10.0825,0,0,1,4.9511-4.77c.59-.2678.078-1.1343-.5087-.87a10.6735,10.6735,0,0,0-5.262,5.1611c-.2617.5469.5481,1.0292.82.4791Z"/><path class="cls-3" d="M39.2042,45.8515c-.0183,2.0938-.048,4.19-.0207,6.2836.0114.8706-.1151,1.656.6659,2.1782,1.001.6693,2.9253.3462,4.0736.3913,2.051.08,4.1119.0539,6.1584.2124a.5033.5033,0,0,0,.5-.5c-.09-2.9271-.2625-5.8552-.4563-8.7771-.018-.2715-.2389-.5856-.5508-.5508a42.0127,42.0127,0,0,1-8.9649-.3445c-.6426-.0622-.7023.89-.1456,1.0761a20.1884,20.1884,0,0,0,9.257.35l-.6972-.5311c.1443,2.9268.31,5.8572.5587,8.7771l.5-.5a53.8784,53.8784,0,0,1-8.4678-.4136c-1.73-.303-1.3712-1.38-1.4052-2.94q-.0512-2.3568-.1253-4.7127a.44.44,0,0,0-.8789,0Z"/><path class="cls-3" d="M40.35,47.5526a63.9147,63.9147,0,0,1,7.8649,5.8758c.4782.4026,1.1456-.2353.6961-.6961a35.8942,35.8942,0,0,0-8.0849-5.9943.472.472,0,0,0-.4761.8146Z"/><path class="cls-3" d="M40.76,54.3232a32.3218,32.3218,0,0,1,7.0876-5.7622.6069.6069,0,0,0-.6122-1.0473,26.6466,26.6466,0,0,0-7.2295,6.0555c-.4315.5191.279,1.2641.7541.7541Z"/><path class="cls-3" d="M191.5938,70.6642l-.6386,9.4222c-.1029,1.5176-.8933,4.1895.8437,5.0872a7.299,7.299,0,0,0,2.7461.34l4.8332.2908q5.0748.3054,10.15.61a.5708.5708,0,0,0,.5481-.4173,77.5212,77.5212,0,0,0,1.5511-15.9205.626.626,0,0,0-.6207-.6207,131.3636,131.3636,0,0,1-19.1419-.0173c-.876-.0679-.872,1.2982,0,1.3652a111.4682,111.4682,0,0,0,19.1419-.1066l-.6207-.6207a80.3719,80.3719,0,0,1-.68,11.0878,12.9147,12.9147,0,0,1-.4836,3.15c-.4309.9905-.6561.7822-1.6278.8472a47.2225,47.2225,0,0,1-5.8-.3471l-5.3165-.3179c-2.1685-.13-4.3444.2062-4.5307-2.5262-.2494-3.6563.4581-7.6447.6775-11.3067.04-.664-.9866-.6588-1.0312,0Z"/><path class="cls-3" d="M194.1935,71.3808c4.1145,4.118,8.1045,8.4626,12.4607,12.325a.5306.5306,0,0,0,.75-.75c-3.9241-4.3007-8.3258-8.2285-12.5021-12.2836a.5013.5013,0,0,0-.7085.7085Z"/><path class="cls-3" d="M191.2045,83.15A88.8275,88.8275,0,0,1,206.5,73.68c.655-.3167.0822-1.2922-.5708-.9765A77.1971,77.1971,0,0,0,190.633,82.41c-.41.335.1452,1.0668.5716.7408Z"/><path class="cls-3" d="M220.5864,74.7356c6.0963.3483,12.189.6629,18.2813,1.0843.7755.0536.7619-1.1335,0-1.2012-6.0679-.539-12.1883-.8842-18.2813-.8909a.5042.5042,0,0,0,0,1.0078Z"/><path class="cls-3" d="M220.0491,78.7158c2.4656.4,4.9821.7794,7.4751.94.6272.0405.7827-1.0039.15-1.1107-2.4676-.4166-4.9983-.6313-7.493-.8081-.5525-.0392-.6894.8878-.1324.9783Z"/><path class="cls-3" d="M220.158,83.06c6.25.2763,12.4618.6187,18.6877,1.2627.7638.079.74-1.0887,0-1.1836a130.872,130.872,0,0,0-18.6877-1.1572.5394.5394,0,0,0,0,1.0781Z"/><path class="cls-3" d="M191.46,91.987c14.0527.79,28.1128,1.61,42.1787,2.1227.667.0243.6577-.989,0-1.0312-14.0463-.902-28.1176-1.4977-42.1787-2.1227-.6649-.03-.66.9942,0,1.0313Z"/><path class="cls-3" d="M191.346,94.9267c5.0143.9933,10.1213,1.6241,15.1812,2.3415.6978.0989,1.0063-.9645.296-1.0735-5.1-.7831-10.2184-1.662-15.3556-2.1657-.51-.05-.6256.7979-.1215.8977Z"/><path class="cls-3" d="M190.588,99.8137a195.6192,195.6192,0,0,1,21.74.9663c.7346.0785.7274-1.0689,0-1.1484a136.5315,136.5315,0,0,0-21.74-.7729.4778.4778,0,0,0,0,.9551Z"/><path class="cls-3" d="M143.6219,56.1c9.8307.6714,19.73.8516,29.58,1.0446a.6273.6273,0,0,0,0-1.2539c-9.8412-.3716-19.7307-.76-29.58-.652a.4309.4309,0,0,0,0,.8613Z"/><path class="cls-3" d="M143.629,59.7764a155.7072,155.7072,0,0,1,19.1314.9663c.5979.0663.7452-.9767.1433-1.0589a102.9559,102.9559,0,0,0-19.2747-.7922.4427.4427,0,0,0,0,.8848Z"/><path class="cls-3" d="M144.0642,63.7032c7.2576.0142,14.4918.1357,21.7429.4673.6943.0318.6815-1.02,0-1.0723a166.6862,166.6862,0,0,0-21.7429-.28.4427.4427,0,0,0,0,.8848Z"/><path class="cls-3" d="M115.6455,30.3244c5.3547.9238,10.8573,1.1324,16.2616,1.6627.856.084.8282-1.22,0-1.3242-5.3308-.6716-10.74-1.2093-16.1059-1.4894-.649-.0339-.8125,1.0376-.1558,1.1509Z"/><path class="cls-3" d="M115.8012,32.3731c5.6314.653,11.3059,1.0285,16.9585,1.4509.76.0568.7463-1.1083,0-1.1777-5.6393-.5246-11.3021-.9764-16.9585-1.2693-.6523-.0338-.6213.924,0,.9961Z"/><path class="cls-3" d="M115.8012,35.3428c4.9194.4379,9.8647.5113,14.7854.9288.56.0475.5557-.8239,0-.873-4.9195-.4346-9.8647-.4852-14.7854-.8995-.5418-.0456-.5368.796,0,.8438Z"/><path class="cls-3" d="M115.8012,38.7673A47.65,47.65,0,0,1,127.37,39.53c.75.152,1.0725-.9944.3178-1.1526a40.5826,40.5826,0,0,0-11.8866-.6943c-.6837.0613-.706,1.1153,0,1.084Z"/><path class="cls-3" d="M115.8012,42.0745c6.2595.1211,12.4534.3884,18.6948.9019.6469.0532.8069-1.047.155-1.1452a91.0862,91.0862,0,0,0-18.85-.911.5775.5775,0,0,0,0,1.1543Z"/><path class="cls-3" d="M115.8012,45.0136c5.6439.2138,11.31.1323,16.9576.123a.5863.5863,0,0,0,0-1.1719c-5.6472-.0093-11.3138-.0908-16.9576.123a.4632.4632,0,0,0,0,.9258Z"/><path class="cls-3" d="M41.6618,124.0347c-2.9378-2.7118-6.5192,1.5464-7.3578,4.24-1.2054,3.8723,1.0341,7.7716,5.1966,7.96,3.78.1713,8.01-1.0848,8.2763-5.4526a10.0176,10.0176,0,0,0-1.3523-5.6805,4.2589,4.2589,0,0,0-1.71-1.6051c-1.116-.5285-2.4544-.16-3.51-.8732-.6111-.413-1.2614.4922-.77.9985a2.4941,2.4941,0,0,0,1.3713.8147c1.5812.4192,2.6606.2549,3.6446,1.9118,1.521,2.5613,1.347,6.6591-1.67,7.8825-2.7425,1.1119-6.9943,1.0155-8.1582-2.1985-.9864-2.7239,1.7749-9.0976,5.4474-7.23.4736.2409,1.0209-.3733.5929-.7684Z"/><path class="cls-3" d="M36.6609,126.068c2.9019,2.4871,5.7861,5.0633,8.8765,7.3156.5445.3968,1.2231-.4879.7207-.9341-2.857-2.5372-5.9932-4.8-9.04-7.1039-.4142-.3131-.9528.3835-.5574.7224Z"/><path class="cls-3" d="M36.8351,134.4736q3.3558-3.48,6.5863-7.0795c.5521-.6183-.3439-1.529-.9156-.9156q-3.3,3.54-6.4537,7.2121c-.4607.5337.2825,1.3022.7831.7831Z"/><path class="cls-3" d="M34.7481,141.9709c4.3945-.5419,8.7823-1.1937,13.17-1.792.6648-.0906.5142-1.239-.16-1.18a99.2527,99.2527,0,0,0-13.146,1.97c-.5486.1242-.4418,1.0725.1355,1.0013Z"/><path class="cls-3" d="M34.7481,144.3543A70.7745,70.7745,0,0,0,49.9339,142.13c.7716-.197.4435-1.3491-.3271-1.1865-4.9388,1.0421-9.852,1.8009-14.8587,2.4385-.6007.0765-.6438.9926,0,.9727Z"/><path class="cls-3" d="M34.7481,147.534c4.56-.4759,9.1208-.9961,13.6766-1.51.8241-.093.86-1.3753,0-1.3184a114.2893,114.2893,0,0,0-13.823,1.7465c-.602.115-.474,1.1466.1464,1.0819Z"/><path class="cls-3" d="M34.7481,149.9532a24.4126,24.4126,0,0,0,6.99-.2439c.7462-.1222.4184-1.2244-.31-1.1244a51.4258,51.4258,0,0,1-6.68.3721c-.6595.0047-.6177.9183,0,.9961Z"/><path class="cls-3" d="M59.6849,126.0041a71.1286,71.1286,0,0,1,9.5749-.4775c.8343.0122.8055-1.2041,0-1.2773a30.0945,30.0945,0,0,0-9.7112.7477c-.5471.1333-.4476,1.0767.1363,1.0071Z"/><path class="cls-3" d="M59.6849,128.9647a57.67,57.67,0,0,0,6.8291.0092.5482.5482,0,0,0,0-1.0957,57.6861,57.6861,0,0,0-6.8291.0962.4954.4954,0,0,0,0,.99Z"/><path class="cls-3" d="M59.6849,132.6169a60.32,60.32,0,0,0,6.8272-.3842c.6681-.0825.7144-1.0764,0-1.0781a60.2719,60.2719,0,0,0-6.8272.4428c-.6353.0713-.6724,1.0255,0,1.02Z"/><path class="cls-3" d="M59.6849,136.706c2.16-.0033,4.3331-.1635,6.4849-.3438.76-.0636.7807-1.2369,0-1.2012-2.16.0988-4.3389.2214-6.4849.4961-.648.0829-.6963,1.05,0,1.0488Z"/><path class="cls-3" d="M59.6849,140.7353a75.7,75.7,0,0,0,9.0059-.72c.628-.1005.4773-1.1288-.15-1.1049-2.9546.1127-5.9091.4674-8.8564.706-.7083.0573-.7278,1.1475,0,1.1191Z"/><path class="cls-3" d="M59.6849,144.9273a81.775,81.775,0,0,0,8.5371-.3676.5687.5687,0,0,0,0-1.1367,81.8322,81.8322,0,0,0-8.5371.42.5424.5424,0,0,0,0,1.084Z"/><path class="cls-3" d="M59.6849,149.4826a27.09,27.09,0,0,0,5.9344-.5673c.6989-.1336.3936-1.1649-.2913-1.0566-1.876.2967-3.7589.4633-5.6431.6863a.4691.4691,0,0,0,0,.9375Z"/><path class="cls-3" d="M139.9537,147.99c9.5232.6469,19.1453.5,28.6876.6292,9.5239.1292,19.1749.6027,28.69.1584a.61.61,0,0,0,0-1.2187c-9.5169-.5487-19.1564-.2426-28.69-.3467-9.546-.1042-19.145-.5563-28.6876-.2709a.5247.5247,0,0,0,0,1.0488Z"/><path class="cls-3" d="M139.9537,151.7138c5.8039.0781,11.6169.1865,17.4205.0645a.6068.6068,0,0,0,0-1.2129c-5.8037-.122-11.6166-.0136-17.4205.0645a.5423.5423,0,0,0,0,1.084Z"/><path class="cls-3" d="M139.9537,160.8773q31.2792-.8486,62.5126.1009c.8385.0253.8346-1.2661,0-1.3008-20.8036-.8634-41.715-.8014-62.5126.1745-.6558.0308-.663,1.0434,0,1.0254Z"/><path class="cls-3" d="M139.9537,165.06c7.309-.0353,14.5929-.2429,21.9023.044,7.3041.2867,14.5617.98,21.8345,1.6786.764.0734.9523-1.2432.183-1.3524a200.2684,200.2684,0,0,0-43.92-1.5773.6039.6039,0,0,0,0,1.207Z"/><path class="cls-3" d="M139.9537,168.7986c5.2376-.0944,10.4758-.18,15.7116-.3483a.5951.5951,0,0,0,0-1.1895c-5.2384.0876-10.4751.2574-15.7116.4186a.56.56,0,0,0,0,1.1191Z"/><path class="cls-3" d="M16.3714,103.1713q.0826.8688,1.07.468l.9035.0374c.9049.0485,1.806.134,2.7077.2222,1.877.1835,3.7509.36,5.6355.449a84.34,84.34,0,0,0,11.5113-.2638c.8473-.0757.8614-1.4032,0-1.3359a95.0662,95.0662,0,0,1-13.4288.1525c-2.14-.136-4.2811-.4348-6.4257-.4682-.9378-.0146-1.9776-.1776-2.7316.4505a.5371.5371,0,0,0-.0828.6419c.1669.3306.2485.4133.6138.4714.5307.0844.7741-.6933.2274-.8249Z"/><path class="cls-3" d="M15.9593,107.5184c7.2863-.1148,14.5908-.4128,21.8636-.8644.7276-.0452.741-1.1621,0-1.1426-7.2874.1921-14.5926.5409-21.8636,1.07-.5946.0432-.61.9471,0,.9375Z"/><path class="cls-3" d="M15.9593,110.3883a53.5948,53.5948,0,0,0,5.8053-.252c.7423-.0526.7535-1.2077,0-1.166a55.0881,55.0881,0,0,0-5.93.4973c-.54.0894-.3812.9013.1246.9208Z"/><path class="cls-3" d="M15.9593,114.2924c6.8422-.3585,13.6931-1.04,20.5082-1.7377.7577-.0776.7761-1.2659,0-1.2012-6.8375.57-13.7064,1.1646-20.5082,2.0717-.5343.0712-.5728.8972,0,.8672Z"/><path class="cls-3" d="M16.0987,116.9a13.8071,13.8071,0,0,1,3.6391-.5672.5716.5716,0,0,0,0-1.1426,9.4258,9.4258,0,0,0-3.9179.6984c-.6037.25-.3894,1.2055.2788,1.0114Z"/><path class="cls-3" d="M16.0972,119.96a37.0353,37.0353,0,0,1,5.659-.3921.5072.5072,0,0,0,0-1.0137,21.9927,21.9927,0,0,0-5.9347.4057c-.6615.1279-.3724,1.1031.2757,1Z"/><path class="cls-4" d="M99.1746,75.2879a4.74,4.74,0,1,0,.3549-.3931"/><path class="cls-3" d="M98.7892,74.9025a5.4363,5.4363,0,0,0,.507,7.4577,5.4527,5.4527,0,0,0,7.36-8.0438c-1.954-1.8984-5.7751-2.07-7.56.1454-.4032.5005.1108,1.3707.742.9617,1.7619-1.1418,4.074-1.6833,5.7818-.0712a4.1853,4.1853,0,0,1,.25,5.5733,4.2444,4.2444,0,0,1-5.4268.5751c-1.896-1.353-1.9729-4.1114-.7982-5.9378.329-.5116-.4566-1.1417-.8558-.66Z"/><path class="cls-5" d="M49.548,35.5609a4.74,4.74,0,1,0,.3549-.3931"/><path class="cls-3" d="M49.1627,35.1755a5.4363,5.4363,0,0,0,.507,7.4577,5.4527,5.4527,0,0,0,7.36-8.0438c-1.954-1.8984-5.7751-2.07-7.56.1454-.4032.5005.1108,1.3707.742.9617,1.7619-1.1418,4.074-1.6833,5.7818-.0712a4.1853,4.1853,0,0,1,.25,5.5733,4.2444,4.2444,0,0,1-5.4268.5751c-1.896-1.353-1.9729-4.1114-.7982-5.9378.329-.5116-.4566-1.1417-.8558-.66Z"/><path class="cls-6" d="M109.1186,21.1352a4.74,4.74,0,1,0,6.9636-.4536,4.9209,4.9209,0,0,0-6.6087.06"/><path class="cls-3" d="M108.7333,20.75a5.4363,5.4363,0,0,0,.507,7.4577,5.6248,5.6248,0,0,0,7.6-.4083,5.6592,5.6592,0,0,0-.24-7.6355c-1.954-1.8984-5.7751-2.07-7.56.1454-.4032.5005.1108,1.3707.742.9617,1.7619-1.1418,4.074-1.6833,5.7818-.0712a4.1853,4.1853,0,0,1,.25,5.5733,4.2444,4.2444,0,0,1-5.4268.5751c-1.896-1.353-1.9729-4.1114-.7982-5.9378.329-.5116-.4566-1.1417-.8558-.66Z"/><path class="cls-4" d="M131.5714,68.0514a4.74,4.74,0,1,0,.3549-.3931"/><path class="cls-3" d="M131.1861,67.666a5.4363,5.4363,0,0,0,.507,7.4577,5.4527,5.4527,0,0,0,7.36-8.0438c-1.954-1.8984-5.7751-2.07-7.56.1454-.4032.5005.1108,1.3707.742.9617,1.7619-1.1418,4.074-1.6833,5.7818-.0712a4.1853,4.1853,0,0,1,.25,5.5733,4.2444,4.2444,0,0,1-5.4268.5751c-1.896-1.353-1.9729-4.1114-.7982-5.9378.329-.5116-.4566-1.1417-.8558-.66Z"/><path class="cls-5" d="M180.0012,104.6511a4.74,4.74,0,1,0,.3549-.3931"/><path class="cls-3" d="M179.6158,104.2658a5.4363,5.4363,0,0,0,.507,7.4577,5.4527,5.4527,0,0,0,7.36-8.0438c-1.954-1.8984-5.7751-2.07-7.56.1454-.4032.5005.1108,1.3707.742.9617,1.7619-1.1418,4.074-1.6833,5.7818-.0712a4.1853,4.1853,0,0,1,.25,5.5733,4.2444,4.2444,0,0,1-5.4268.5751c-1.896-1.353-1.9729-4.1114-.7982-5.9378.329-.5116-.4566-1.1417-.8558-.66Z"/><path class="cls-6" d="M129.9236,131.1068a4.74,4.74,0,1,0,.3549-.3931"/><path class="cls-3" d="M129.5382,130.7215a5.4363,5.4363,0,0,0,.507,7.4577,5.4527,5.4527,0,0,0,7.36-8.0438c-1.954-1.8984-5.7751-2.07-7.56.1454-.4032.5005.1108,1.3707.742.9617,1.7619-1.1418,4.074-1.6833,5.7818-.0712a4.1853,4.1853,0,0,1,.25,5.5733,4.2444,4.2444,0,0,1-5.4268.5751c-1.896-1.353-1.9729-4.1114-.7982-5.9378.329-.5116-.4566-1.1417-.8558-.66Z"/><path class="cls-4" d="M78.5073,114.1131a4.74,4.74,0,1,0,.3549-.3931"/><path class="cls-3" d="M78.122,113.7277a5.4363,5.4363,0,0,0,.507,7.4577,5.4527,5.4527,0,0,0,7.36-8.0438c-1.954-1.8984-5.7751-2.07-7.56.1454-.4032.5005.1108,1.3707.742.9617,1.7619-1.1418,4.074-1.6833,5.7818-.0712a4.1853,4.1853,0,0,1,.25,5.5733,4.2444,4.2444,0,0,1-5.4268.5751c-1.896-1.353-1.9729-4.1114-.7982-5.9378.329-.5116-.4566-1.1417-.8558-.66Z"/><path class="cls-6" d="M40.2732,93.7562a4.74,4.74,0,0,0,7.2087,6.1509,4.74,4.74,0,0,0-6.8538-6.544"/><path class="cls-3" d="M39.8879,93.3709a5.4363,5.4363,0,0,0,.507,7.4577,5.4527,5.4527,0,0,0,7.36-8.0438c-1.954-1.8984-5.7751-2.07-7.56.1454-.4032.5005.1108,1.3707.742.9617,1.7619-1.1418,4.074-1.6833,5.7818-.0712a4.1853,4.1853,0,0,1,.25,5.5733,4.2444,4.2444,0,0,1-5.4268.5751c-1.896-1.353-1.9729-4.1114-.7982-5.9378.329-.5116-.4566-1.1417-.8558-.66Z"/><path class="cls-6" d="M93.6038,101.9361a4.6591,4.6591,0,0,0,6.3294,6.405,5.7678,5.7678,0,0,0,2.672-4.4213,4.0652,4.0652,0,0,0-.4-2.4531,5.6469,5.6469,0,0,0-2.7864-2.03,6.16,6.16,0,0,0-3.2938-.7855c-1.1333.1613-2.2127,1.2477-1.9207,2.3546"/><path class="cls-3" d="M93.1358,101.6626a5.2379,5.2379,0,0,0,2.1662,7.4632,5.5479,5.5479,0,0,0,7.4071-2.8509,6.2505,6.2505,0,0,0,.4281-4.521c-.581-1.66-2.1426-2.4456-3.6594-3.0995-1.3913-.6-2.9876-1.1542-4.4323-.4147a2.595,2.595,0,0,0-1.485,2.9434c.15.7517,1.3076.56,1.3121-.1776.0183-3.0192,4.4948-1.0364,5.7456-.1119,2.0025,1.48,1.39,4.5161-.1685,6.1029a3.978,3.978,0,0,1-5.2745.351c-1.6712-1.302-1.7714-3.4228-1.0488-5.2673.2311-.59-.6777-.9186-.9906-.4176Z"/><path class="cls-5" d="M118.6494,92.9771a4.6987,4.6987,0,1,0,5.6061-.0347,8.4048,8.4048,0,0,0-5.3361-1.1476"/><path class="cls-3" d="M118.3922,92.5369a5.4409,5.4409,0,0,0-1.459,7.0644,5.5086,5.5086,0,0,0,6.9152,1.9271,5.3531,5.3531,0,0,0,2.5492-6.8514c-1.1735-3.0194-4.6957-3.9412-7.65-3.5066-.7728.1137-.497,1.2084.1721,1.2718,2.2321.2115,4.8453.045,6.02,2.4071a4.0114,4.0114,0,0,1-1.4375,5.283,4.13,4.13,0,0,1-5.3831-1.2239,4.5108,4.5108,0,0,1,.8915-5.5709c.4117-.3872-.1453-1.1511-.6177-.8006Z"/><path class="cls-6" d="M49.7664,95.75c2.9782-4.01,7.1271-6.697,12.3152-6.1859,5.1581.5082,8.35,3.9778,11.4088,7.7722,4.77,5.9163,11.3,9.7448,19.1328,8.1435.7771-.1589.4317-1.2825-.3224-1.17a17.5264,17.5264,0,0,1-14.4478-3.9877c-3.34-2.9521-5.41-7.1211-9.1617-9.6445-6.409-4.3105-16.0983-2.47-19.7749,4.5751a.4926.4926,0,0,0,.85.4968Z"/><path class="cls-6" d="M126.3464,133.0763c-7.1119,1.1251-14.4017-.4162-19.7652-5.46a23.0352,23.0352,0,0,1-6.8718-18.0322c.0322-.7534-1.0661-.7161-1.1484,0-1.7449,15.1764,13.1632,28.5132,28.0845,24.5774.7154-.1887.4-1.1954-.2991-1.0848Z"/><path class="cls-6" d="M107.147,30.4735C103.4128,42.2289,92.5788,49.49,85.1645,58.7582c-7.0614,8.8274-9.8,19.6432-5.5264,30.424a27.6363,27.6363,0,0,0,11.64,13.9612.689.689,0,0,0,.695-1.189,28.006,28.006,0,0,1-8.2847-38.78C91.0807,51.8,104.1953,44.3646,107.9211,30.6869a.4017.4017,0,0,0-.7741-.2134Z"/><path class="cls-4" d="M78.9358,111.9482c-7.7709-5.3735-9.5345-15.776-4.8349-23.7889,4.9466-8.4339,14.7237-11.8007,24.094-10.8428.86.088.8485-1.2487,0-1.3418-10.3336-1.134-21.2,3.1769-26.0013,12.8142-4.1613,8.3527-2.0016,19.1206,6.1242,24.2167.6754.4236,1.2587-.6145.6181-1.0574Z"/><path class="cls-4" d="M134.3492,76.3488c-3.59,4.2284-9.8627-.2755-13.3156-2.5909a51.2708,51.2708,0,0,1-6.14-4.8756,21.2981,21.2981,0,0,0-4.1168-3.3273c-5.2426-2.828-11.8153,2.2149-9.3074,8.0111.3.6944,1.2979.1744,1.162-.49-1.0827-5.2928,3.8249-8.7946,8.4027-5.6571,3.1584,2.1647,5.7313,5.1156,8.9364,7.2766,3.8355,2.586,11.4234,7.657,15.1339,2.2353.3052-.446-.4005-.9993-.7546-.5822Z"/><path class="cls-5" d="M56.0414,42.5806A22.2653,22.2653,0,0,0,68.87,57.8035c8.1338,3.5095,17.0469,1.1456,25.468.3414,8.9651-.8561,17.5753,1.0435,23.8071,7.9517,6.3768,7.0687,7.6646,17.3146,4.0456,25.9894-.32.768,1.0263,1.3434,1.3547.5711a25.9628,25.9628,0,0,0-9.8274-32.1716c-5.4793-3.459-11.7137-4.3429-18.0871-3.8219-7.4385.6081-15.0309,2.7779-22.4829,1.1526-7.9046-1.7241-13.7847-7.8947-16.0223-15.5347a.563.563,0,0,0-1.0848.2991Z"/><path class="cls-5" d="M177.4363,108.6262c-8.3823,4.4235-19.1176,5.235-28.3964,4.56-9.0894-.6611-20.0976-3.211-24.4393-12.1454-.3717-.7649-1.7167-.2184-1.3922.5869,3.7224,9.24,15.4863,12.163,24.3735,13.0034,9.9358.94,21.6448.1518,30.4134-5.0489a.5541.5541,0,0,0-.5589-.9562Z"/></g></svg>