<svg xmlns="http://www.w3.org/2000/svg" viewBox="0 0 227 195"><defs><style>.cls-1{fill:#f7fafc;}.cls-2{fill:#e93a1d;}.cls-3{fill:#303030;}.cls-4{fill:#ffefaf;}</style></defs><title>DN_Service-Ya-Audit-img-4</title><g id="back"><path class="cls-1" d="M137.33,193.2013q-.9185,0-1.8455-.0825a22.531,22.531,0,0,1-3.42-.5522,20.233,20.233,0,0,1-7.1309-1.1733,21.5039,21.5039,0,0,1-12.0125-3.3979,20.959,20.959,0,0,1-11.219-1.9175c-.865-.3926-1.8345-.8823-3.0513-1.54-1.71-.9248-4.0012-2.2329-7.0029-3.999-3.0918-1.8188-6.9922-4.1567-11.6536-6.9854a20.013,20.013,0,0,1-32.3281,2.4175S37.3661,163.7585,27.068,151.5173c-5.157-6.13-10.3132-12.2671-14.179-16.8857-1.9551-2.3354-3.5835-4.2876-4.7229-5.6631-2.9519-3.5625-6.9946-8.4419-6.2874-16.6479A20.0018,20.0018,0,0,1,8.9523,98.714a20.788,20.788,0,0,1,8.4985-4.2192C5.133,78.1945,4.0551,72.0334,4.3664,65.7575a21.2249,21.2249,0,0,1,6.543-14.4609,19.9137,19.9137,0,0,1,5.8792-8.314,18.7849,18.7849,0,0,1,1.7788-1.32,19.9563,19.9563,0,0,1,5.2117-4.0366,19.9973,19.9973,0,0,1,26.5142.7466c.2705.2539.5435.5093.814.7627q-.01-.9888.0752-2.0425a20.0921,20.0921,0,0,1,7.0928-13.7295c2.5085-2.1055,11.6558-8.4521,24.0081-1.7124.761.4155,1.5764.8965,2.481,1.4653a20.0019,20.0019,0,0,1,6.7585-11.4082c5.4023-4.5327,14.6587-7.2471,24.4377-1.271.43.2627.8823.5522,1.3665.876a19.9913,19.9913,0,0,1,4.2861-5.0171c5.3726-4.5073,15.1426-7.4155,24.9966-.7822.2842.1914.5813.3975.896.6216a20.0082,20.0082,0,0,1,23.4277,4.209c.4912.521,12.17,12.9185,24.0239,26.2012,25.7139,28.813,29.0083,34.9912,28.4661,44.2661a20.6166,20.6166,0,0,1-3.9651,10.9829L220.495,93.03a19.9978,19.9978,0,0,1-2.4656,28.1748,20.8439,20.8439,0,0,1-5.7129,3.35l1.08,1.2876a19.9978,19.9978,0,0,1-2.4529,28.1641,20.8222,20.8222,0,0,1-15.0811,4.5327,19.9984,19.9984,0,0,1-6.1924,21.4146c-10.0637,8.4443-21.99,5.4736-33.1846-.6294A20.1262,20.1262,0,0,1,137.33,193.2013Z"/></g><g id="Layer_2" data-name="Layer 2"><path class="cls-2" d="M68.3577,93.0505H24.481v10.7046H39.1258v19.5464l15.6686,4.6565L59.1122,114.34a3.4519,3.4519,0,0,0,.6082.06c2.7206,0,4.9261-3.1926,4.9261-7.1309a9.6539,9.6539,0,0,0-.6428-3.5142h4.354Z"/><path class="cls-3" d="M208.2908,54.6872c-25.1819-.0438-50.3647-.4154-75.5451-.664q-19.2543-.19-38.5091-.3338-3.4875-.0212-6.9751-.0334c-2.2288-.0068-3.9515-.3821-5.4641,1.5692-1.9874,2.564-1.6831,5.86-1.7021,8.9023-.0221,3.5451-.0647,7.09-.1066,10.635-.2106,17.82-.8985,35.8483.6888,53.6233a.7712.7712,0,0,0,.75.75c15.2357.7425,30.5343.68,45.7838.7966q28.9175.2208,57.837.1287c7.6307-.0285,15.2628-.061,22.8923-.21a.7586.7586,0,0,0,.7232-.5506c3.8449-24.4337-.1151-49.2911.3771-73.8632a.75.75,0,0,0-1.5,0c-.4892,24.4234,3.4977,49.1805-.3236,73.4644l.7232-.5506c-34.8669.681-69.7982.3408-104.665-.1768-7.2816-.1081-14.5734-.184-21.8481-.5385l.75.75c-1.3589-15.2165-.9431-30.631-.7782-45.888q.1153-10.6679.2083-21.3356c.0138-1.8224.3016-4.8012,2.1683-5.7589a6.6908,6.6908,0,0,1,2.9608-.2488q3.3135.009,6.627.03c26.36.1536,52.7191.481,79.0782.7342,11.9492.1148,23.8992.248,35.849.2688A.75.75,0,0,0,208.2908,54.6872Z"/><path class="cls-4" d="M71.8723,53.2642c.0156-2.0545-.1631-4.4951-1.76-5.9623a4.0477,4.0477,0,0,0,.5162-3.0479,17.04,17.04,0,0,0-.4822-1.8737,13.0852,13.0852,0,0,0,1.3363-14.27c-2.3232-4.0835-6.523-5.813-10.2531-4.7917a4.0233,4.0233,0,0,0-3.0749.2919c-.7282.3542-1.4389.7283-2.1527,1.0991-3.9539-.7009-7.6564.5459-11.3508,2.6729a3.62,3.62,0,0,0-.4669.3263c-10.459-2.1984-15.6189,13.01-6.2606,18.12a2.2777,2.2777,0,0,0,2.04.0446,9.3685,9.3685,0,0,0,.9767.2336,6.0814,6.0814,0,0,0,5.659-2.4167,9.7943,9.7943,0,0,0,1.3793-3.5913,3.2449,3.2449,0,0,0,.5338-.1168c3.9884-1.4592,8.846-1.3278,12.0127,1.1456-.0089.2079-.0208.4124-.0374.6081a3.5323,3.5323,0,0,0,1.6888,3.1921,4.4016,4.4016,0,0,0-.7458,2.6142c.0463,2.1591,2.0465,3.218,3.0643,4.43a4.2163,4.2163,0,0,0,.2454,1.95c-.0352.0509-.0645.09-.1021.1461a7.441,7.441,0,0,0-.3885,2.5054c.2237,4.66,4.1576,4.4711,2.9468,11.027a1.6739,1.6739,0,0,0,3.2254.8892,13.6388,13.6388,0,0,0,.8307-6.834c-.3707-2.0839-1.425-3.5674-1.1609-5.5011A3.23,3.23,0,0,0,71.8723,53.2642Z"/><path class="cls-3" d="M60.0157,43.8407c-.3068,5.2977-.48,10.6032-.6837,15.9057-.1755,4.5634.15,11.3633-5.3058,13.0176-4.2215,1.28-8.8346-1.1-11.1039-4.6592C40.2989,63.99,40.0975,58.8679,39.99,54.1379a.5922.5922,0,0,0-1.1836,0c-.2186,5.45.2692,11.4992,3.8073,15.9312A11.6684,11.6684,0,0,0,53.221,74.3477c4.6857-.7544,6.7118-4.8128,7.1822-9.1677.7574-7.0119.6126-14.2907.7023-21.3393a.5453.5453,0,0,0-1.09,0Z"/><path class="cls-3" d="M38.3339,47.5634a17.7156,17.7156,0,0,0,10.461-5.114c.4356-.4541-.1571-1.3214-.703-.9111a27.8625,27.8625,0,0,1-4.6961,3.1242c-1.7174.817-3.5967,1.1847-5.31,1.9836a.4956.4956,0,0,0,.2484.9172Z"/><path class="cls-3" d="M68.1787,82.93c-4.7179-3.6488.9926-10.0854,2.4352-13.8718a7.8208,7.8208,0,0,0,.1894-5.6384c-.6455-1.792-1.5369-3.2164-.8587-5.1682.5451-1.5686,2.0982-2.794,3.333-3.8247a.6359.6359,0,0,0,.0978-.758c-.7722-1.6-1.7172-3.2054-2.3477-4.8641-.4784-1.2586-1.0061-2.5322-.29-3.8812a18.1276,18.1276,0,0,1,1.1017-1.5123,16.2422,16.2422,0,0,0,2.5671-6.6971c.6452-4.3826-.4244-9.3616-3.6235-12.5854C65.23,18.5332,53.841,21.9938,49.19,27.12c-.5324.5868.3062,1.4391.8742.8742,4.3649-4.34,14.3541-7.8341,19.59-3.1077,3.2538,2.9369,4.1838,8.05,3.4182,12.19a15.1225,15.1225,0,0,1-2.3208,5.6992c-.8368,1.2431-1.9514,2.306-1.8345,3.907.1116,1.5284,1.1628,3.0358,1.8107,4.3759.3993.8259,1.3644,2.0474,1.0749,2.9767-.2015.647-1.7185,1.6235-2.1665,2.2381a5.8052,5.8052,0,0,0-1.2935,3.8593c.1516,2.0579,1.7019,3.6577,1.712,5.767C70.08,71.1366,60.94,78.9757,67.65,83.6155c.4026.2784.9224-.3814.529-.6856Z"/><path class="cls-3" d="M44.5986,26.95A11.1753,11.1753,0,0,0,32.3559,34.084a11.223,11.223,0,0,0,5.6764,13.5033c.686.3216,1.2778-.6361.6033-1.0321-4.0366-2.37-6.4779-7.1521-5.069-11.7893,1.3872-4.5659,6.3087-7.3032,10.9074-6.8952.52.0462.648-.84.1246-.9208Z"/><path class="cls-3" d="M48.6239,40.4779c-1.29-5.1456,5.345-12.8853,10.568-12.5184,3.966.2787,7.3171,3.4734,8.4122,7.1828,1.2913,4.3741-.5518,9.0267-3.3444,12.3871-.484.5824.3192,1.4212.8452.8452,3.23-3.5371,5.0451-8.4318,3.8781-13.2088a11.32,11.32,0,0,0-8.93-8.42c-3.706-.5689-6.7441,1.5918-9.05,4.3024-2.1576,2.5364-4.37,6.2486-3.3623,9.7a.51.51,0,0,0,.9831-.271Z"/><path class="cls-3" d="M48.8769,42.0392c-.21-2.9527,1.8835-4.1355,4.16-5.2371,1.2115-.5862,4.1889-2.3414,5.4935-1.3491.5007.3808,1.15-.4614.6746-.8742-1.7893-1.5541-4.8492.1878-6.5851,1.0468-2.7251,1.3485-5.1688,2.9568-4.7271,6.4136.078.61,1.03.645.9844,0Z"/><path class="cls-3" d="M37.3475,50.0989a5.524,5.524,0,0,0,.7565,8.88.5893.5893,0,0,0,.5944-1.0169,4.6579,4.6579,0,0,1-.5761-7.0885c.5162-.5112-.2347-1.1948-.7748-.7748Z"/><path class="cls-3" d="M44.7006,55.2776a22.9384,22.9384,0,0,1,4.6651-.1555.53.53,0,0,0,.14-1.0359,10.4784,10.4784,0,0,0-5.0436.3269.4486.4486,0,0,0,.2383.8645Z"/><path class="cls-3" d="M48.9284,67.8287a3.9584,3.9584,0,0,0,4.685-.4187c.5786-.5153-.2595-1.3208-.8411-.8411a3.0085,3.0085,0,0,1-3.2969.3238.5424.5424,0,0,0-.5471.936Z"/><path class="cls-3" d="M53.9551,55.1469c1.3012.2045,2.6249.3551,3.9314.53.7323.0982.79-1.01.1659-1.2258a7.7949,7.7949,0,0,0-4.0973-.248c-.4484.1029-.4846.8674,0,.9436Z"/><path class="cls-3" d="M44.147,47.4921a11.7916,11.7916,0,0,1,5.428-.5666c.5876.0688.7209-.9209.14-1.0359a9.1775,9.1775,0,0,0-5.9045.8046.4384.4384,0,0,0,.3364.7979Z"/><path class="cls-3" d="M54.0938,47.2355a5.3055,5.3055,0,0,1,4.4187.25.5747.5747,0,0,0,.58-.9916,5.3047,5.3047,0,0,0-5.3843-.1744c-.4826.2737-.161,1.1052.386.9157Z"/><path class="cls-3" d="M50.33,60.9517l1.4082.6411A.5625.5625,0,0,0,52.38,61.51a5.6221,5.6221,0,0,0,.5234-.4819c.4793-.4973-.2225-1.14-.7375-.7375a5.6372,5.6372,0,0,0-.5342.4711l.5148-.1361-1.48-.4718c-.4625-.1475-.7917.5906-.3364.7979Z"/><path class="cls-3" d="M44.04,72.6455c-.3811,2.9762-.3569,5.6845-2.4444,8.1009-1.8366,2.1259-4.4671,3.0574-7.0361,3.9646-3.8817,1.3708-7.3381,3.0807-7.87,7.5792-.0871.7368,1.11.8776,1.2833.1737,1.531-6.2342,7.89-5.75,12.3631-8.886,3.4262-2.4021,5.5985-6.8508,4.6078-11.0547-.1291-.5478-.8426-.3535-.9035.1223Z"/><path class="cls-3" d="M52.438,74.4112c-.77,3.36-1.1889,7.9507,2.7632,9.4608,2.36.9019,4.9637-.1162,7.2169,1.0946,2.7127,1.4577,3.2034,4.801,3.2273,7.6145.0066.7761,1.08.7264,1.1719,0,.4053-3.1918-.5947-7.1915-3.596-8.88-1.71-.962-3.505-.719-5.3934-.781-4.8878-.1606-5.1431-4.3978-4.548-8.2771.083-.5411-.7136-.7916-.8419-.2321Z"/><path class="cls-3" d="M25.1244,92.8335c6.8552,1.9577,14.5812,2.27,21.6711,2.172A126.9522,126.9522,0,0,0,68.504,92.5671c.7028-.132.3959-1.17-.2928-1.0622a153.2937,153.2937,0,0,1-21.8326,2.1425c-7.152.0847-14.0419-1.1961-21.1326-1.7117-.5243-.0381-.6057.7595-.1215.8977Z"/><path class="cls-3" d="M24.0261,92.9253c-.5923,3.6815-.7855,7.4561-1.0849,11.1714a.6284.6284,0,0,0,.46.604c9.3056,2.0933,18.6727.429,28.02-.6709,6.0207-.7085,12.0323-1.4964,18.0378-2.3229a.7.7,0,0,0,.4837-.8519,43.1464,43.1464,0,0,1-1.2255-8.5758.6127.6127,0,0,0-1.2246,0,30.0394,30.0394,0,0,0,1.1146,8.944l.4837-.8519c-6.9135.9482-13.8334,1.8833-20.7677,2.6662-4.9833.5626-10.0278,1.3764-15.0423,1.5206a34.8122,34.8122,0,0,1-3.9181-.1022c-1.0106-.085-4.2194-.0806-4.904-1.0128-.6377-.8685.0924-3.7641.176-4.87.139-1.8373.3087-3.68.318-5.523.0026-.5144-.84-.6637-.9265-.1254Z"/><path class="cls-3" d="M24.5575,104.873c-.2817,5.3009-.1753,10.6559-.2021,15.9641-.0119,2.3562-.6786,8.53,1.9355,9.925,1.5819.8443,4.25.3657,5.9954.4521,2.0625.1021,4.1236.244,6.1765.47,4.7143.5186,9.2845,1.6278,13.9256,2.5494.7833.1555,1.1219-1.0007.3333-1.2091a97.4168,97.4168,0,0,0-21.7193-3.1529,12.64,12.64,0,0,1-3.2109-.0743c-1.9982-.7154-1.9162-2.6411-2.0717-4.3475-.1975-2.1677-.1312-4.3539-.1177-6.5276.0289-4.6716.1965-9.3812.016-14.0492a.5306.5306,0,0,0-1.0605,0Z"/><path class="cls-3" d="M32.7423,106.266a51.1517,51.1517,0,0,0-1.5661,12.467c-.0174,1.1-.403,3.0016.3166,3.991.6983.96,2.5.8565,3.5182,1.0422,7.4923,1.3669,14.5366,4.056,21.9118,5.8092a.648.648,0,0,0,.3442-1.2487,129.803,129.803,0,0,0-17.8011-4.9929c-1.5148-.3162-3.0364-.5979-4.5623-.8549-.8024-.1352-1.99-.067-2.47-.8767a10.7549,10.7549,0,0,1-.0326-2.8692,80.2942,80.2942,0,0,1,1.3641-12.1851c.1094-.6592-.84-.9546-1.0227-.2819Z"/><path class="cls-3" d="M57.5113,129.6394a9.7738,9.7738,0,0,0,2.395-2.1918c.4675-.4791,1.0582-1.4079,1.9138-.9883.4247.2083.73.7594,1.0523,1.0914.4676.482,1.1574-.1276.8881-.6852-.514-1.0641-1.7687-2.1742-3.0318-1.7245a5.487,5.487,0,0,0-1.8581,1.5872,9.08,9.08,0,0,0-1.9686,2.302.4494.4494,0,0,0,.6093.6093Z"/><path class="cls-3" d="M52.3512,134.2392a11.2473,11.2473,0,0,0,10.0947.7268c1.0344-.4131,3.2057-1.308,3.5884-2.501.4466-1.392-1.1924-3.9416-1.8212-5.1875a.565.565,0,0,0-1.0281.4334c.3314,1.0957,1.3283,2.546,1.3937,3.6821.0861,1.4955-2.3339,2.3841-3.6192,2.7578a11.8405,11.8405,0,0,1-8.1115-.7616.4926.4926,0,0,0-.4968.85Z"/><path class="cls-3" d="M36.0428,106.1755a44.956,44.956,0,0,1,2.4678,17.1261c-.0287.6788,1.1.8572,1.2085.1636a31.4236,31.4236,0,0,0-2.5946-17.7457c-.2877-.6014-1.2979-.1784-1.0817.456Z"/><path class="cls-3" d="M63.2143,101.9647c-.0291,3.5992,2.6327,8.6175-1.6487,10.5515-6.0228,2.7206-13.1577.9147-19.512,1.3208a.5922.5922,0,0,0,0,1.1836c4.17.005,8.3561.445,12.5237.2152,2.8847-.1591,6.337-.5338,8.7418-2.2967,3.4786-2.55,1.2339-7.5063.8854-10.9744a.4954.4954,0,0,0-.99,0Z"/><path class="cls-3" d="M58.6086,114.11a55.21,55.21,0,0,0-4.433,13.677c-.1555.8016,1.0417,1.152,1.2374.3411a127.1134,127.1134,0,0,1,4.2451-13.5756.5767.5767,0,0,0-1.05-.4425Z"/><path class="cls-3" d="M66.1918,101.7492c.682,4.4175.9751,9.8093,4.0021,13.3433,2.8991,3.3848,7.2757,5.3837,10.6806,8.2093a.5511.5511,0,0,0,.7789-.7789c-2.749-3.1694-6.9469-4.6152-9.8857-7.5809a12.04,12.04,0,0,1-3.1665-6.66c-.4111-2.2885-.4712-4.8-1.6651-6.8467-.2478-.4249-.8112-.12-.7443.3138Z"/><path class="cls-3" d="M62.0928,112.9315c.713,2.2892,1.5193,4.9165,3.4248,6.5226a20.5175,20.5175,0,0,0,4.4426,2.457,84.5873,84.5873,0,0,0,10.8231,4.4972c.6834.2155.9122-.7858.2882-1.0453-3.1748-1.32-6.3752-2.5783-9.521-3.9678a37.713,37.713,0,0,1-4.5831-2.27c-2.2444-1.3837-3.1981-4.0561-4.1231-6.4-.18-.455-.9039-.2823-.7515.2072Z"/><path class="cls-3" d="M127.2169,99.6927q-16.0665,5.8307-31.6743,12.8285c-10.6,4.7394-21.35,9.5846-31.4349,15.3587-.6849.3921-.0829,1.3849.6122,1.0473,10.2136-4.9611,20.2214-10.28,30.5715-14.9722,10.5838-4.7983,21.3134-9.265,32.139-13.4882.4731-.1845.2774-.9522-.2134-.7741Z"/><path class="cls-3" d="M136.5566,54.9595c1.1164-2.8579,2.3954-5.65,3.5119-8.5075.3514-.9-1.0985-1.2895-1.4464-.3988-1.1164,2.8579-2.3954,5.65-3.5119,8.5075-.3514.9,1.0985,1.2895,1.4464.3988Z"/><path class="cls-3" d="M105.1537,136.9065c.9491-2.4242,2.06-4.7818,3.0095-7.206.3521-.8993-1.0978-1.2891-1.4464-.3988-.9491,2.4242-2.06,4.7818-3.0095,7.206-.3521.8993,1.0978,1.2891,1.4464.3988Z"/><path class="cls-3" d="M154.6615,54.7815c-.9486-2.7046-1.8569-5.4235-2.8208-8.1227-.3223-.9026-1.7722-.5136-1.4464.3988.9639,2.6993,1.8722,5.4181,2.8208,8.1227.3174.905,1.7671.5155,1.4464-.3988Z"/><path class="cls-3" d="M178.8048,137.1417c-.6279-2.5547-1.46-5.0536-2.1057-7.6034a.7506.7506,0,0,0-1.4464.3988c.6461,2.55,1.4778,5.0488,2.1057,7.6034.23.9369,1.6772.54,1.4464-.3988Z"/><path class="cls-3" d="M110.2717,129.1564c-1.0732,2.3336-2.04,4.7226-2.9824,7.1113-.2512.6363.8393,1.1029,1.1138.47,1.0215-2.3571,2.028-4.7283,2.9181-7.1384.2233-.6045-.7773-1.0344-1.05-.4425Z"/><path class="cls-3" d="M172.3222,129.0721a92.1746,92.1746,0,0,0,1.6252,9.222c.1547.67,1.31.5422,1.2258-.1659a92.1621,92.1621,0,0,0-1.5734-9.229c-.1569-.7007-1.37-.563-1.2775.1729Z"/><path class="cls-3" d="M138.7132,54.7292l.0341.2485c.0667.4853.8928.4752.97,0,.6393-3.9326.7435-7.9978,1.0313-11.97.0707-.9752.09-1.9893.2144-2.959.1968-1.5279.8924-1.0844,2.1361-1.1539q3.42-.1912,6.8412-.3687l-.6121-.6121a101.9752,101.9752,0,0,1-.835,15.74c-.0852.6963,1.0831.85,1.2258.1659a55.2827,55.2827,0,0,0,.8335-15.906.622.622,0,0,0-.6121-.6121c-2.763.15-5.5519.1936-8.3072.4392-1.0407.0928-1.484.1165-1.82,1.156-.6617,2.0493-.393,4.915-.55,7.07-.2149,2.9422-.57,5.9257-.5338,8.877l.8586-.3557-.155-.1782c-.3168-.3642-.7714.0434-.72.419Z"/><path class="cls-3" d="M109.1245,66.3746c2.3984-2.0628,6.0277-2.1432,9.0345-2.1448,3.1465-.0017,6.2782.32,9.4183.4694,8.1326.386,16.3984-.2444,24.5373-.407q6.485-.13,12.9708-.216,3.2429-.04,6.486-.061c2.33-.0146,5.468-.6793,6.8039,1.6415,1.8838,3.2727.975,8.2168,1.0255,11.8561.06,4.312.15,8.6235.2037,12.9356a283.8444,283.8444,0,0,1-.843,28.927l.75-.75c-17.8329.431-35.673.7379-53.5111.8113-6.2038.0255-12.4087.0222-18.6116-.0961l.75.75-.1812-28.617c-.0291-4.5935-.04-9.1875-.0872-13.7809-.0363-3.5435-1.37-8.43,1.2541-11.3181.648-.713-.41-1.7769-1.0607-1.0607-2.2359,2.46-2.0688,5.6236-1.8468,8.7484.341,4.8.1914,9.6479.2219,14.4582l.2,31.57a.7627.7627,0,0,0,.75.75c21.8925.4176,43.8177-.1032,65.706-.5712q3.2084-.0686,6.4167-.144a.77.77,0,0,0,.75-.75,283.8475,283.8475,0,0,0,.843-28.927c-.06-4.7952-.1643-9.59-.2229-14.3849-.0417-3.4144.5646-7.3695-.9111-10.5667a5.5687,5.5687,0,0,0-2.532-2.8972c-1.5443-.6029-4.2174-.0949-5.8671-.0846q-7.4841.0469-14.9671.1915c-9.3379.1681-18.7769.8265-28.111.5319-6.2105-.196-15.2165-2.4081-20.4294,2.0753C107.3307,65.9444,108.3957,67.0013,109.1245,66.3746Z"/><path class="cls-3" d="M112.8349,73.8943q33.7948,1.5069,67.6283.3272c.9626-.0336.9671-1.5338,0-1.5q-33.8078,1.181-67.6283-.3272c-.9651-.043-.963,1.4571,0,1.5Z"/><path class="cls-3" d="M119.5154,66.8854a1.7341,1.7341,0,0,0-.7937.1562,1.1036,1.1036,0,0,0-.3235.5631,1.8461,1.8461,0,0,0,.1183,1.2431,1.6917,1.6917,0,0,0,2.2676.8561,1.7489,1.7489,0,1,0-1.3615-3.2217c-.4095.19-.2232.9395.2381.879a1.0613,1.0613,0,0,1,.9851.276A.67.67,0,0,1,120.54,68.64c-.6705.5514-1.4679-.2794-1.124-.99l-.2822.217c.2046-.0494.4035-.1113.6094-.1575.5492-.1231.3024-.902-.2274-.8249Z"/><path class="cls-3" d="M124.4328,66.6736a1.8441,1.8441,0,0,0,.5327,3.3381,1.8069,1.8069,0,0,0,1.3267-3.1733c-.497-.3519-.9542.3828-.6106.7914.3142.3738.04,1.379-.5509,1.2248a.78.78,0,0,1-.1684-1.2755.5248.5248,0,0,0-.5294-.9056Z"/><circle class="cls-2" cx="114.9784" cy="68.0644" r="1.701"/><path class="cls-3" d="M114.6315,85.0586a34.6915,34.6915,0,0,0,3.6042.3.5475.5475,0,0,0,.1449-1.07,9.5046,9.5046,0,0,0-3.749-.2432.5072.5072,0,0,0,0,1.0137Z"/><path class="cls-3" d="M120.9825,85.02a8.8065,8.8065,0,0,0,2.4707.0317.51.51,0,0,0,0-.9775,8.8157,8.8157,0,0,0-2.4707.0317.4574.4574,0,0,0,0,.9141Z"/><path class="cls-3" d="M131.1978,85.0079a73.596,73.596,0,0,1,7.66-.0381.53.53,0,0,0,.14-1.0359,17.1152,17.1152,0,0,0-7.9155.2223c-.4593.1267-.3845.8815.1153.8517Z"/><path class="cls-3" d="M153.2662,85.579a16.6676,16.6676,0,0,1,3.9049.1434c.5882.08.87-.7731.2539-.921a11.32,11.32,0,0,0-4.2787-.1087c-.4986.0711-.3863.9353.12.8862Z"/><path class="cls-3" d="M163.8863,85.8394a15.6584,15.6584,0,0,0,2.4788-.3566c.5431-.1441.45-1.0376-.1355-1.0013a15.6219,15.6219,0,0,0-2.4679.4372c-.5057.1143-.4075.9736.1246.9208Z"/><path class="cls-3" d="M171.9689,86.1693c1.7.0733,3.3961.0765,5.0966.0527a.598.598,0,0,0,0-1.1953c-1.7006-.0238-3.3972-.0205-5.0966.0527a.5453.5453,0,0,0,0,1.09Z"/><path class="cls-3" d="M114.7818,91.2894a.5758.5758,0,0,1,.4221.1115c.4591.2363,1.0964-.2707.7616-.7616a1.1992,1.1992,0,0,0-1.4843-.44.566.566,0,0,0,.3006,1.09Z"/><path class="cls-3" d="M114.2543,93.4378a.7887.7887,0,0,0,1.1915,1.004.503.503,0,0,0-.3522-.85q-.1525.0163.0388.2165a.4827.4827,0,0,0-.8782-.37Z"/><path class="cls-3" d="M114.29,97.646c.1063.0936.2125.1762.3265.26.3568.2627.88-.26.6173-.6173-.0839-.114-.1666-.22-.26-.3265-.4124-.4684-1.1523.271-.6836.6836Z"/><path class="cls-3" d="M114.6315,101.7331l.2124-.0117a.5951.5951,0,0,0,0-1.1895l-.2124-.0117c-.78-.0431-.7817,1.256,0,1.2129Z"/><path class="cls-3" d="M114.6315,105.7562a.5951.5951,0,0,0,0-1.1895.5951.5951,0,0,0,0,1.1895Z"/><path class="cls-3" d="M114.0866,108.984a1.9064,1.9064,0,0,0,.0392.5641.5285.5285,0,0,0,1.0114,0,1.9064,1.9064,0,0,0,.0392-.5641.5453.5453,0,0,0-1.09,0Z"/><path class="cls-3" d="M114.6315,114.3a.6449.6449,0,0,0,0-1.2891.6449.6449,0,0,0,0,1.2891Z"/><path class="cls-3" d="M121.2191,91.1111a1.1457,1.1457,0,0,1,1.014.03c.456.1934,1.0291-.3563.5822-.7546a1.6585,1.6585,0,0,0-2.0694-.0844.4691.4691,0,0,0,.4732.81Z"/><path class="cls-3" d="M120.9825,94.8819a7.7213,7.7213,0,0,0,1.4167-.0338.54.54,0,0,0,0-1.034,7.7213,7.7213,0,0,0-1.4167-.0338.5511.5511,0,0,0,0,1.1016Z"/><path class="cls-3" d="M120.7385,98.84a1.4783,1.4783,0,0,0,1.5806-.0482.5131.5131,0,0,0-.5175-.8854.9372.9372,0,0,1-.6906.05.4856.4856,0,0,0-.3725.8835Z"/><path class="cls-3" d="M121.2546,102.866l.0837.0116a.54.54,0,0,0,.5442-.9309,1.04,1.04,0,0,0-1.172-.0116.54.54,0,0,0,.5442.9309Z"/><path class="cls-3" d="M120.8455,106.2975a5.7143,5.7143,0,0,0,1.1989.0627.56.56,0,0,0,0-1.1191,5.7138,5.7138,0,0,0-1.1989.062.5193.5193,0,0,0,0,.9944Z"/><path class="cls-3" d="M120.8345,110.0717a5.0322,5.0322,0,0,0,2.4373.0732c.6414-.1689.4378-1.016-.1464-1.0819-.7081-.08-1.43-.0431-2.1429-.0847a.5591.5591,0,0,0-.148,1.0934Z"/><path class="cls-3" d="M121.118,114.9607a4.1066,4.1066,0,0,1,1.5749-.0869c.6361.067.7644-.9678.15-1.1107a3.1683,3.1683,0,0,0-2.118.2659c-.5309.2471-.153,1.0841.3928.9317Z"/><path class="cls-2" d="M130.5538,91.666c5.1588-.1317,10.3428-.0483,15.494-.2363a.51.51,0,0,0,0-1.02,72.0726,72.0726,0,0,0-15.494.4414c-.5043.062-.5385.8282,0,.8145Z"/><path class="cls-2" d="M130.5538,94.8911c3.3159.2861,6.6466.588,9.9743.6858.7313.0215.713-1.068,0-1.125-3.3136-.2648-6.6519-.3281-9.9743-.4046-.55-.0127-.5332.7977,0,.8438Z"/><path class="cls-2" d="M130.5538,98.7362a85.719,85.719,0,0,0,13.8017.3137.58.58,0,0,0,0-1.16c-4.5979-.0766-9.2012.0153-13.8017-.0618-.5933-.01-.5725.8556,0,.9082Z"/><path class="cls-2" d="M130.5538,102.8155c2.5332-.1035,5.12-.0348,7.6416-.26a.58.58,0,0,0,0-1.16,31.3972,31.3972,0,0,0-7.6416.2423c-.7281.092-.7778,1.21,0,1.1777Z"/><path class="cls-2" d="M130.5538,106.4806a43.6808,43.6808,0,0,0,9.0554-.6323c.6574-.1216.4992-1.172-.1565-1.1567a77.3055,77.3055,0,0,0-9.0289.828c-.5633.081-.3987.9446.13.961Z"/><path class="cls-2" d="M130.4143,110.3491a23.9755,23.9755,0,0,0,9.8424.2032c.6262-.12.4781-1.1216-.15-1.1049-3.2223.0859-6.3374.0178-9.5535-.1283a.5268.5268,0,0,0-.1394,1.03Z"/><path class="cls-2" d="M130.5538,114.4562c4.5349.0232,9.0778-.266,13.6021-.5443.69-.0425.7029-1.1028,0-1.084-4.5332.1211-9.085.234-13.6021.6556a.4866.4866,0,0,0,0,.9727Z"/><path class="cls-3" d="M153.144,91.4567a12.1258,12.1258,0,0,0,2.474.3677.5122.5122,0,0,0,.1355-1.0013,12.1033,12.1033,0,0,0-2.4873-.27.462.462,0,0,0-.1223.9035Z"/><path class="cls-3" d="M153.1222,95.9789a6.7159,6.7159,0,0,0,2.8458.1186.5326.5326,0,0,0-.141-1.0416,9.6282,9.6282,0,0,1-2.4167-.1222c-.678-.139-.9714.8815-.2882,1.0453Z"/><path class="cls-3" d="M153.2662,99.7735a3.0467,3.0467,0,0,1,1.1892.3749.5835.5835,0,0,0,.5885-1.0068,2.7036,2.7036,0,0,0-1.7777-.4989.5658.5658,0,0,0,0,1.1309Z"/><path class="cls-3" d="M153.1323,103.4107a19.5054,19.5054,0,0,0,2.0681.2685.515.515,0,0,0,.1363-1.0071,19.49,19.49,0,0,0-2.07-.2513c-.56-.0457-.6957.8951-.134.99Z"/><path class="cls-3" d="M153.2662,106.6066a7.23,7.23,0,0,0,1.8351-.2983.5358.5358,0,0,0-.1417-1.0474,7.2164,7.2164,0,0,0-1.8429.2407.565.565,0,0,0,.15,1.1049Z"/><path class="cls-3" d="M153.3924,110.8724a14.6233,14.6233,0,0,1,3.0681-.0589c.7011.0475.667-.9895,0-1.0723a9.6457,9.6457,0,0,0-3.32.2158c-.61.1374-.3349.9991.2523.9153Z"/><path class="cls-3" d="M153.41,114.7836a11.7038,11.7038,0,0,1,2.6226-.1567c.5861.02.7367-.9309.141-1.0416a6.6986,6.6986,0,0,0-3.05.1587.54.54,0,0,0,.2866,1.04Z"/><path class="cls-3" d="M163.8863,91.8913a12.3573,12.3573,0,0,0,1.6989.0176.5511.5511,0,0,0,0-1.1016,12.362,12.362,0,0,0-1.6989.0176.5336.5336,0,0,0,0,1.0664Z"/><path class="cls-3" d="M163.8863,96.2366a5.5229,5.5229,0,0,0,1.3957.0218.46.46,0,0,0,0-.8814,5.5229,5.5229,0,0,0-1.3957.0218.4192.4192,0,0,0,0,.8379Z"/><path class="cls-3" d="M163.76,100.4112a2.675,2.675,0,0,0,1.1728.178.5125.5125,0,0,0,.1355-1.0013,2.66,2.66,0,0,0-1.1822-.1089.4772.4772,0,0,0-.1262.9323Z"/><path class="cls-3" d="M163.743,104.1948a4.2882,4.2882,0,0,0,1.357.0311.5754.5754,0,0,0,0-1.1018,4.2882,4.2882,0,0,0-1.357.0311.543.543,0,0,0,0,1.04Z"/><path class="cls-3" d="M163.8863,106.8151a5.6052,5.6052,0,0,0,1.6353-.0522.5636.5636,0,0,0,0-1.0792,5.6112,5.6112,0,0,0-1.6353-.0522.5922.5922,0,0,0,0,1.1836Z"/><path class="cls-3" d="M164.03,111.6041a3.088,3.088,0,0,1,1.3525-.181c.607.0258.6643-.83.1371-1.0128a2.4282,2.4282,0,0,0-1.9072.2032c-.5441.2645-.1545,1.2237.4176.9906Z"/><path class="cls-3" d="M163.8863,114.6373c.4962.016.99.0214,1.4865.0176a.5746.5746,0,0,0,0-1.1484c-.4964-.0038-.99.0016-1.4865.0176a.557.557,0,0,0,0,1.1133Z"/><path class="cls-3" d="M171.8342,91.8355c1.137.1587,2.2531.2528,3.3761.5149a.5835.5835,0,0,0,.31-1.1244,9.7191,9.7191,0,0,0-3.5513-.3861c-.5078.0594-.7539.9092-.1347.9956Z"/><path class="cls-3" d="M171.9689,96.0594a8.9662,8.9662,0,0,0,1.2742.0586.513.513,0,0,0,0-1.0254,8.9662,8.9662,0,0,0-1.2742.0586.4544.4544,0,0,0,0,.9082Z"/><path class="cls-3" d="M172.1106,101.3738a3.6571,3.6571,0,0,1,1.8192.1581.5826.5826,0,0,0,.447-1.06,3.0407,3.0407,0,0,0-2.6771-.0725c-.5919.25-.14,1.0747.4109.9746Z"/><path class="cls-3" d="M172.1021,104.5751a15.9529,15.9529,0,0,1,1.78-.161.5212.5212,0,0,0,.1379-1.0186,3.1319,3.1319,0,0,0-2.3035.2639c-.5349.2737-.1415,1.0136.386.9157Z"/><path class="cls-3" d="M172.1184,108.628a2.5291,2.5291,0,0,1,1.1465-.1305c.6564.0686.7158-.9091.1488-1.0992a2.0226,2.0226,0,0,0-1.7287.2016c-.5208.3257-.1937,1.2374.4334,1.0281Z"/><path class="cls-3" d="M171.9689,112.0479a10.02,10.02,0,0,0,1.4865.0557.5716.5716,0,0,0,0-1.1426,10.02,10.02,0,0,0-1.4865.0557.516.516,0,0,0,0,1.0313Z"/><path class="cls-3" d="M171.9689,115.434c.4956.0092.9909.0213,1.4865.0176a.5218.5218,0,0,0,0-1.043c-.4957-.0038-.991.0083-1.4865.0176a.5042.5042,0,0,0,0,1.0078Z"/></g></svg>