<svg xmlns="http://www.w3.org/2000/svg" viewBox="0 0 213 196"><defs><style>.cls-1{fill:#f7fafc;}.cls-2{fill:#ffefaf;}.cls-3{fill:#172df8;}.cls-4{fill:#e93a1d;}.cls-5{fill:#303030;}</style></defs><title>DN_Service-Ya-Audit-img-5</title><g id="back"><path class="cls-1" d="M117.0437,194.224a20.2408,20.2408,0,0,1-5.7358-.8364,20.4032,20.4032,0,0,1-13.8564-1.1255c-.843-.3628-1.7847-.814-2.9634-1.42-1.64-.8433-3.833-2.0352-6.7041-3.6436-2.8635-1.6045-6.4534-3.6538-10.7285-6.1245a20.0121,20.0121,0,0,1-32.51,2.72s-9.6445-11.4346-19.2866-22.896c-4.8286-5.74-9.6567-11.4863-13.2766-15.811-1.832-2.189-3.3584-4.0181-4.426-5.3066-2.9065-3.5083-6.887-8.313-6.1736-16.5239a19.9985,19.9985,0,0,1,7.042-13.5664,20.74,20.74,0,0,1,8.541-4.24C3.2122,87.7064,2.0442,81.36,2.3662,74.8681a21.68,21.68,0,0,1,2.1843-8.4653A20.0015,20.0015,0,0,1,5.95,55.6664,20.5665,20.5665,0,0,1,8.489,48.1591,21.0515,21.0515,0,0,1,14.9546,38.69a20,20,0,0,1,25.5962-.0947,21.5138,21.5138,0,0,1,.06-2.5605,20.0883,20.0883,0,0,1,7.0906-13.7275c2.4819-2.0825,11.5273-8.37,23.77-1.8433.8279.4409,1.72.9595,2.7239,1.584a19.915,19.915,0,0,1,6.7546-11.3936c5.3474-4.4883,14.5234-7.2119,24.2388-1.3965.6736.4028,1.4009.8711,2.2219,1.4307A20.05,20.05,0,0,1,134.4668,3.85a19.976,19.976,0,0,1,17.8206,6.0137c.5415.5747,13.415,14.24,26.4812,28.8809,27.8779,31.2388,31.457,37.81,30.8987,47.36a20.595,20.595,0,0,1-.9663,5.1362,19.9982,19.9982,0,0,1-4.8665,24.5884,20.8154,20.8154,0,0,1-5.7236,3.3525,19.9985,19.9985,0,0,1-2.86,27.71,20.86,20.86,0,0,1-15.0906,4.5083,19.9978,19.9978,0,0,1-6.2083,21.3643c-7.9683,6.686-17.0825,6.1787-26.0232,2.7017a20.1062,20.1062,0,0,1-20.66,18.0254,20.1417,20.1417,0,0,1-6.1885.3188A19.9712,19.9712,0,0,1,117.0437,194.224Z"/></g><g id="Layer_2" data-name="Layer 2"><path class="cls-2" d="M39.9567,59.6505c-1.3849-1.7635-1.0707-5.8207-1.2534-8.026-.3841-4.6364.0642-12.09,4.1192-15.2391,4.3772-3.398,8.7561-3.0588,13.8223-3.5371,3.8336-.3619,8.4539-2.1587,12.2744-.9922,3.63,5.0685-1.9831,7.5313-6.2741,8.4658-5.5093,1.2-5.8661,1.07-8.549,6.1111-1.378,2.5891-2.7508.7182-4.4553,1.8569-2.0217,1.3506-1.4468,3.215-2.0819,5.4028-.6872,2.3674-2.702,6.5841-5.5877,6.8046A2.1867,2.1867,0,0,1,39.9567,59.6505Z"/><path class="cls-3" d="M29.1915,149.7148c2.5582,1.0089,15.7988,7.5252,17.2859,3.3779.2252-.6279,1.59-9.2029,1.835-9.1825a25.7756,25.7756,0,0,1-5.7308-1.4316c-2.3089-.7714-4.5932-1.4007-6.9481-2.11-3.0022-.9048-12.43-4.0865-10.7329-8.7581a98.3428,98.3428,0,0,0,11.2027,5.4723,23.9941,23.9941,0,0,0,9.824,1.908,49.1269,49.1269,0,0,0,.31-5.2323c.0989-1.7666.1672-3.5359.3615-5.2955L48.12,114.6841,38.5976,79.6584l-4.1747,1.74c.2307-.0962.3933,2.8418.3387,3.1312-2.8541.1508-5.2212,1.3645-7.9347,2.3213-5.0632,1.7853-8.0747,3.1527-7.8526,9.2095a118.3858,118.3858,0,0,1-.8424,15.917c-.6636,6.5842-2.216,13.1-2.44,19.7373-.1125,3.3342-1.06,6.8876.0151,10.167.9554,2.9132,3.6677,3.5666,6.2966,4.771C24.393,147.7476,26.7813,148.7643,29.1915,149.7148Z"/><path class="cls-3" d="M60.2419,145.3407a14.6976,14.6976,0,0,1-.8959-2.3585c-1.8871-6.3548-.827-13.4464-.8356-19.9642-.0107-8.1528-2.4848-15.287-1.3545-23.585a122.5916,122.5916,0,0,1,3.162-14.29c.9073-3.4832,1.2109-6.5553,4.2476-2.8695a10.3448,10.3448,0,0,0,2.88,2.143c4.4176,2.7,8.7829,1.4982,13.3039-.2737,4.1852-1.64,7.87-2.134,11.178-5.2755,3.1895-3.0291,4.8557-7.3562,7.4054-10.8533,1.5988-2.193,2.3863-4.8731,3.9439-7.0451,2.8856,1.0657,4.4753,3.534,6.4038,5.83L96.6253,86.582l-22.07,15.7006L77.602,147.41c-.1252-1.8547-10.0266,1.1083-11.1536,1.199C63.1991,148.8706,61.4211,147.7089,60.2419,145.3407Z"/><path class="cls-2" d="M190.86,43.4313c.9308-3.9741.3185-8.646-3.4336-11.0012-3.9224-2.4619-9.9266-.9387-13.9639.3677-3.56,1.1521-6.3708,2.5767-10.1667,2.9067-2.5165.2188-4.9374.3748-7.2551,1.5-7.3407,3.5659-9.5405,14.7661-.8982,18.19a1.8807,1.8807,0,0,0,.8918.1377c.1018.0122.1975.0332.3033.04,1.8168.11,3.058-.9375,4.4052-1.9316,3.0249-2.2322,5.81-4.146,9.822-3.8994,3.7507.23,7.7227,3.2009,10.465,6.719.725,2.5205,2.6516,4.6609,1.9388,7.66-.5967,2.5107-2.35,4.1838-2.5171,6.8669-.2526,4.0615,2.93,8.2654-.5839,11.884-1.2037,1.24-.0028,3.9038,1.8319,3.147,4.7133-1.9443,5.6633-5.3074,5.0818-10.218-.223-1.8833-.886-3.3813-.3411-5.2371a22.1884,22.1884,0,0,1,1.7441-3.2913,10.7307,10.7307,0,0,0,.7385-6.8794c-.6843-3.2461-2.4419-4.7161-1.4125-8.0144C188.46,49.3383,190.13,46.55,190.86,43.4313Z"/><path class="cls-4" d="M152.8035,91.02c7.8663,12.8389,22.224,16.5051,42.4744,12.626V114.35H180.6331v19.5464l-15.6686,4.6565-4.3179-13.6177a3.4519,3.4519,0,0,1-.6082.06c-2.7206,0-4.9261-3.1926-4.9261-7.1309a36.6435,36.6435,0,0,1,1.3742-6.864c-4.8026-3.1689-8.0925-10.8113-8.7275-19.9571Z"/><path class="cls-5" d="M158.8528,54.1457c.09,7.0509-.0478,14.3247.7023,21.3393.4657,4.355,2.4968,8.4162,7.1822,9.1677a11.68,11.68,0,0,0,10.6075-4.2787c3.5457-4.4185,4.0254-10.4923,3.8073-15.9312a.5922.5922,0,0,0-1.1836,0c-.1054,4.6258-.3093,9.5527-2.7368,13.6371-2.2241,3.7422-6.9252,6.3149-11.3,4.9891-5.2938-1.6045-5.1157-8.0681-5.2872-12.5356-.21-5.4631-.3862-10.93-.7023-16.3877a.5453.5453,0,0,0-1.09,0Z"/><path class="cls-5" d="M155.0242,56.3684a17.7156,17.7156,0,0,0,10.461-5.114c.4356-.4541-.1571-1.3214-.703-.9111a27.8625,27.8625,0,0,1-4.6961,3.1242c-1.7174.817-3.5967,1.1847-5.31,1.9836a.4956.4956,0,0,0,.2484.9172Z"/><path class="cls-5" d="M184.869,91.7349c-4.7179-3.6488.9926-10.0854,2.4352-13.8718a7.8208,7.8208,0,0,0,.1894-5.6384c-.6455-1.792-1.5369-3.2164-.8587-5.1682.5451-1.5686,2.0982-2.794,3.333-3.8247a.6359.6359,0,0,0,.0978-.758c-.7722-1.6-1.7172-3.2054-2.3477-4.8641-.4784-1.2586-1.0061-2.5322-.29-3.8812a18.1276,18.1276,0,0,1,1.1017-1.5123,16.2422,16.2422,0,0,0,2.5671-6.6971c.6452-4.3826-.4244-9.3616-3.6235-12.5854-5.5527-5.5955-16.9415-2.1349-21.5927,2.9912-.5324.5868.3062,1.4391.8742.8742,4.3649-4.34,14.3541-7.8341,19.59-3.1077,3.2538,2.9369,4.1838,8.05,3.4182,12.19a15.1225,15.1225,0,0,1-2.3208,5.6992c-.8368,1.2431-1.9514,2.306-1.8345,3.907.1116,1.5284,1.1628,3.0358,1.8107,4.3759.3993.8259,1.3644,2.0474,1.0749,2.9767-.2015.647-1.7185,1.6235-2.1665,2.2381a5.8052,5.8052,0,0,0-1.2935,3.8593c.1516,2.0579,1.7019,3.6577,1.712,5.767C186.77,79.9416,177.63,87.7806,184.34,92.42c.4026.2784.9224-.3814.529-.6856Z"/><path class="cls-5" d="M161.2888,35.7548a10.92,10.92,0,0,0-6.5663,20.6374c.686.3216,1.2778-.6361.6033-1.0321-4.0366-2.37-6.4779-7.1521-5.069-11.7893,1.3872-4.5659,6.3087-7.3032,10.9074-6.8952.52.0462.648-.84.1246-.9208Z"/><path class="cls-5" d="M165.3142,49.2828c-1.29-5.1456,5.345-12.8853,10.568-12.5184,3.966.2787,7.3171,3.4734,8.4122,7.1828,1.2913,4.3741-.5518,9.0267-3.3444,12.3871-.484.5824.3192,1.4212.8452.8452,3.23-3.5371,5.0451-8.4318,3.8781-13.2088a11.32,11.32,0,0,0-8.93-8.42c-3.706-.5689-6.7441,1.5918-9.05,4.3024-2.1576,2.5364-4.37,6.2486-3.3623,9.7a.51.51,0,0,0,.9831-.271Z"/><path class="cls-5" d="M165.5672,50.8442c-.21-2.9527,1.8835-4.1355,4.16-5.2371,1.2115-.5862,4.1889-2.3414,5.4935-1.3491.5007.3808,1.15-.4614.6746-.8742-1.7893-1.5541-4.8492.1878-6.5851,1.0468-2.7251,1.3485-5.1688,2.9568-4.7271,6.4136.078.61,1.03.645.9844,0Z"/><path class="cls-5" d="M181.836,61.1787a4.6583,4.6583,0,0,1-.5761,7.0885.5893.5893,0,0,0,.5944,1.0169,5.524,5.524,0,0,0,.7565-8.88c-.54-.42-1.2914.2632-.7748.7748Z"/><path class="cls-5" d="M176.1477,56.9992a9.1786,9.1786,0,0,0-5.9045-.8046c-.5745.1137-.4539,1.1054.14,1.0359a11.7891,11.7891,0,0,1,5.428.5666.4384.4384,0,0,0,.3364-.7979Z"/><path class="cls-5" d="M166.2505,56.6248a5.3056,5.3056,0,0,0-5.3843.1744.5747.5747,0,0,0,.58.9916,5.3061,5.3061,0,0,1,4.4187-.25c.5415.1877.8737-.639.386-.9157Z"/><path class="cls-5" d="M169.2916,70.4588l-1.48.4718.5148.1361a5.6372,5.6372,0,0,0-.5342-.4711c-.5147-.4024-1.2171.24-.7375.7375a5.622,5.622,0,0,0,.5234.4819.5628.5628,0,0,0,.6412.0827l1.4082-.6411c.4505-.2051.1312-.947-.3364-.7979Z"/><path class="cls-5" d="M175.206,64.8739c-1.1591-.627-1.838-1.9244-3.0789-2.3869-1.4012-.5223-2.8675.5289-2.1866,2.0532.2056.46.87.2759,1.0013-.1309.4772-1.476,1.44-.24,2.0644.3916a2.6376,2.6376,0,0,0,1.9572.9683.4843.4843,0,0,0,.2425-.8953Z"/><path class="cls-5" d="M165.6685,64.0526a8.5692,8.5692,0,0,0-2.4487-1.5958,2.9042,2.9042,0,0,0-1.7463-.3225,1.5227,1.5227,0,0,0-1.1494,2.1285c.194.6257,1.2247.5451,1.1855-.16-.0355-.6384.0137-.9712.7786-.6709,1.01.3965,1.786,1.2466,2.8758,1.4879a.5229.5229,0,0,0,.5045-.8667Z"/><path class="cls-5" d="M169.9052,63.9665a.9859.9859,0,0,0,.4693,1.4032,1.3555,1.3555,0,0,0,1.65-.4164,1.5139,1.5139,0,0,0,.23-1.6931,1.1564,1.1564,0,0,0-1.8049-.2243.9322.9322,0,0,0,0,1.3093.9471.9471,0,0,0,1.3093,0l.07-.0572-.4085.2381h-.2076l-.3959-.2307-.0863-.27q-.0467.1094.1.025c.0872-.1127.2422.1127.0915-.0842a.6.6,0,0,0-1.0169,0Z"/><path class="cls-5" d="M160.2478,63.9208c-.2028,1.1873,1.3744,1.8134,2.2091,1.0577a1.4624,1.4624,0,0,0-.71-2.4541.8787.8787,0,0,0-1.0451.5934.8577.8577,0,0,0,.5934,1.0451c.2118.042-.0161-.0163-.055-.1239-.0454-.1256.2476-.4252.2357-.326-.0053.0448-.0129-.185.0573.0484-.0333-.1107-.198-.1836-.2828-.2486a.6851.6851,0,0,0-1.0028.408Z"/><path class="cls-5" d="M167.5312,78.38c.4261.65,1.3729.3354,1.9578.0815a3.3672,3.3672,0,0,0,1.6631-1.4467.65.65,0,0,0-1.0169-.7846,4.74,4.74,0,0,1-1.5649,1.0776c-.378.1413-1.4759.4055-1.0391,1.0723Z"/><path class="cls-5" d="M174.8157,83.1186c-.9906,4.2035,1.182,8.6528,4.6078,11.0547,4.4762,3.1383,10.8308,2.6466,12.3631,8.886.171.6964,1.3714.5709,1.2833-.1737-.5319-4.4975-3.9891-6.2088-7.87-7.5792-2.5663-.9062-5.2029-1.8379-7.0361-3.9646-2.0824-2.4158-2.063-5.1219-2.4444-8.1009-.06-.4715-.7734-.6742-.9035-.1223Z"/><path class="cls-5" d="M166.4634,85.1226c.2881,2.3927.672,4.9113-.9627,6.9214a7.6148,7.6148,0,0,1-5.092,2.54c-.7.1038-.4492,1.0928.1558,1.1509a7.26,7.26,0,0,0,6.0528-2.8308c1.8972-2.3631,1.4335-5.16.7036-7.8972-.1225-.46-.9178-.3849-.8575.116Z"/><path class="cls-5" d="M194.5129,102.5311c-7.8138.4973-15.2983,2.432-23.2,1.4536-8.2755-1.0247-14.9648-5.3574-17.77-13.4511-.23-.663-1.2749-.3906-1.0622.2928,2.4688,7.9345,8.53,12.7438,16.6414,14.198a48.9589,48.9589,0,0,0,12.5181.4132,63.5278,63.5278,0,0,0,12.9939-2.0089c.476-.1427.4108-.9316-.1215-.8977Z"/><path class="cls-5" d="M194.8063,103.646c.0208,2.1486.2311,4.3012.3948,6.4435a15.8853,15.8853,0,0,1,.256,3.2217c-.1836,1.2271-.8979,1.1272-2.0742,1.33a36.9025,36.9025,0,0,1-10.0127.1794c-6.2183-.618-12.67-.7151-18.78-2.0986-4.2874-.9708-8.3928-2.7769-11.246-6.2347-3.6141-4.38-4.7762-10.3173-5.3939-15.8072l-.5077.6669c1.8871-.3411,3.6682.0029,5.5692-.0546a.6127.6127,0,0,0,0-1.2246,24.2143,24.2143,0,0,0-5.9369-.0546.69.69,0,0,0-.5077.6669c1.0527,9.386,4.11,18.5439,13.6163,22.15,4.8747,1.8491,10.1433,2.1592,15.29,2.5158,7.14.4947,13.7917,1.6085,20.8832-.0515a.6278.6278,0,0,0,.4585-.6022c-.3194-3.7174-.5072-7.4834-1.083-11.1714-.0831-.5323-.9315-.3952-.9265.1254Z"/><path class="cls-5" d="M194.1408,115.4683c-.1742,4.5076-.0127,9.0539.0129,13.5648.0123,2.1805.0923,4.3767-.0751,6.5533-.1378,1.7916-.0081,4.0532-2.1111,4.8061a12.64,12.64,0,0,1-3.2109.0743,97.4157,97.4157,0,0,0-21.7193,3.1529c-.7872.2081-.4513,1.3649.3333,1.2091,4.52-.8976,8.9745-1.9823,13.5628-2.5079,2.0361-.2332,4.08-.3823,6.126-.49,1.847-.0969,4.7436.416,6.4087-.4739,2.5217-1.3478,1.9427-7.1793,1.9386-9.4636-.01-5.4589.0844-10.9741-.2053-16.4255a.5306.5306,0,0,0-1.0605,0Z"/><path class="cls-5" d="M185.9939,117.1432a80.3148,80.3148,0,0,1,1.3641,12.1851c.0283,2.2266.3587,3.2721-2.0473,3.671-1.6786.2783-3.352.5822-5.0177.93a129.8135,129.8135,0,0,0-17.8011,4.9929.648.648,0,0,0,.3442,1.2487c7.3753-1.7532,14.4191-4.4423,21.9118-5.8092,3.6581-.6674,3.8679-.7915,3.8386-4.5549a51.4616,51.4616,0,0,0-1.57-12.9453c-.182-.6715-1.1323-.3783-1.0227.2819Z"/><path class="cls-5" d="M162.8569,139.6255a8.3173,8.3173,0,0,0-1.8135-2.1409,6.06,6.06,0,0,0-2.0133-1.7482c-1.2654-.4506-2.5172.6593-3.0318,1.7245-.267.5527.4166,1.1712.8881.6852.3221-.332.6276-.8831,1.0523-1.0914.8556-.42,1.4463.5092,1.9138.9883a9.7738,9.7738,0,0,0,2.395,2.1918.4494.4494,0,0,0,.6093-.6093Z"/><path class="cls-5" d="M166.9108,143.9845a11.8326,11.8326,0,0,1-8.1115.7616c-.9578-.2794-3.5966-1.1643-3.7823-2.3509-.1546-.9882,1.2549-3.0908,1.5568-4.089.1817-.6007-.7374-1.0095-1.0281-.4334-.608,1.2046-2.1993,3.7448-1.8532,5.1115.3065,1.2105,2.6235,2.1787,3.62,2.577a11.2446,11.2446,0,0,0,10.0947-.7268.4926.4926,0,0,0-.4968-.85Z"/><path class="cls-5" d="M182.6344,116.3148a31.4232,31.4232,0,0,0-2.5946,17.7457c.1071.6864,1.2375.5226,1.2085-.1636a44.9563,44.9563,0,0,1,2.4678-17.1261c.2139-.6276-.7908-1.0639-1.0817-.456Z"/><path class="cls-5" d="M155.5543,112.56c-.3486,3.4692-2.5936,8.4242.8854,10.9744,2.41,1.7665,5.8508,2.1372,8.7418,2.2967,4.1675.23,8.3535-.21,12.5237-.2152a.5922.5922,0,0,0,0-1.1836c-6.355-.4062-13.4888,1.4011-19.512-1.3208-4.2814-1.9348-1.62-6.9525-1.6487-10.5515a.4954.4954,0,0,0-.99,0Z"/><path class="cls-5" d="M160.1007,125.1482a127.1134,127.1134,0,0,1,4.2451,13.5756c.1953.81,1.3931.4618,1.2374-.3411a55.2052,55.2052,0,0,0-4.433-13.677c-.2829-.578-1.2722-.1719-1.05.4425Z"/><path class="cls-5" d="M163.1286,93.6014c-2.1919-2.5174-6.0669-2.4424-9.1058-2.082-.9469.1123-.9582,1.6136,0,1.5,2.6339-.3124,6.1316-.5552,8.0452,1.6426.6351.7294,1.6923-.3353,1.0607-1.0607Z"/><path class="cls-5" d="M113.0049,52.1755c.4178,2.7955-.9125,5.5975-.2744,8.3516a37.0729,37.0729,0,0,0,2.0216,5.1324c1.7422,4.35,3.4175,8.7328,5.331,13.012A32.1747,32.1747,0,0,0,131.315,92.5649c5.9826,4.2256,12.1875,8.204,18.3524,12.1573.7975.5114,1.5036-.7343.7364-1.26-5.5714-3.8158-11.2611-7.4541-16.86-11.2291a32.509,32.509,0,0,1-8.2074-7.2033,39.9239,39.9239,0,0,1-4.3107-7.9027c-1.838-4.1764-3.4758-8.438-5.1892-12.6662-.6421-1.5843-1.7076-3.4174-1.8194-5.138-.1663-2.56.7705-4.9378.389-7.534-.1353-.9209-1.5383-.5308-1.4012.3863Z"/><path class="cls-5" d="M145.8706,90.072c-4.2835-2.5556-10.0475-4.1312-13.1026-8.2479-1.3945-1.879-2.4112-4.0058-3.81-5.8827-1.4207-1.9059-3.0606-3.6541-4.5455-5.51a35.2929,35.2929,0,0,1-6.4994-13.7072c-1.1086-4.1531-.87-8.7474-2.5693-12.7035-.2787-.6485-1.14-.3345-1.3405.1752a15.1146,15.1146,0,0,0-.7566,5.61.7211.7211,0,0,0,1.4414,0,14.2011,14.2011,0,0,1,.73-5.22l-1.3405.1752c1.0375,2.4278,1.0132,5.0859,1.3538,7.6616a47.2966,47.2966,0,0,0,1.5913,6.7059,33.6237,33.6237,0,0,0,6.34,12.3531c1.7379,2.16,3.6779,4.1881,5.2126,6.5009a59.962,59.962,0,0,0,3.5582,5.4421,15.4162,15.4162,0,0,0,5.22,3.7495c2.6249,1.3317,5.236,2.7228,7.9415,3.8846.657.2821,1.2268-.5987.5767-.9866Z"/><path class="cls-5" d="M110.8986,51.6053c-1.0805,2.1029-.6951,3.5479-.5189,5.761.1929,2.4231-2.2731,4.1877-2.8333,6.4991a.7213.7213,0,0,0,1.39.3832c.5223-2.0766,2.4113-3.4575,2.8908-5.5425.5093-2.2149-.8255-4.0364.3616-6.3467.4387-.8538-.85-1.6106-1.29-.7541Z"/><path class="cls-5" d="M105.5746,60.809c3.111-3.1544,4.2383-8.8524,5.0292-13.0418a18.2,18.2,0,0,1,.4771-2.2254c.1328-.4124-.0176-.3743,0,.1987.012.3822.0486.7629.0489,1.1469a23.4894,23.4894,0,0,1-.2326,3.0842c-.1256.95,1.3707.9418,1.4941,0,.1472-1.1236.9848-7.47-1.7856-6.2023-1.3918.6367-1.34,3.2177-1.5882,4.48a34.9037,34.9037,0,0,1-4.3406,11.8677.5737.5737,0,0,0,.8973.6923Z"/><path class="cls-5" d="M102.8079,59.4063c.2923,2.0982,1.891,3.3391,3.3407,4.7182,1.3546,1.2885,2.1831,2.4159,1.5006,4.3528a24.8643,24.8643,0,0,1-2.6027,4.7388A58.081,58.081,0,0,1,90.317,88.915a77.7483,77.7483,0,0,1-8.21,5.0308,15.945,15.945,0,0,0-5.151,4.08c-3.829,5.0609-2.8672,12.4333-2.7405,18.3424.1863,8.6888.54,17.4237,2.2548,25.9784a.615.615,0,0,0,1.2027-.1628c-.5976-8.03-2.0127-15.8555-2.026-23.9456-.0106-6.4677-1.86-15.6172,3.4267-20.6043,2.0777-1.96,4.8132-3.0623,7.2632-4.4606a54.2311,54.2311,0,0,0,8.0278-5.67,58.7136,58.7136,0,0,0,12.7335-14.9289c1.27-2.1527,3.1427-4.79,1.825-7.3085-1.2558-2.4005-4.3667-3.402-5.0357-6.1569-.1747-.7194-1.1754-.3934-1.0792.2975Z"/><path class="cls-5" d="M101.5109,60.5613c-1.3394,2.19-2.359,4.5542-3.7128,6.7381a23.66,23.66,0,0,1-5.3872,5.9136c-1.6472,1.3637-1.6531,2.0944-2.1539,3.9715-.3,1.1246-.3957-.19-.7592-.7564a2.2724,2.2724,0,0,0-.9282-.9736,1.4743,1.4743,0,0,0-1.959.737c-.3217.5953-.1083,1.415-.4206,1.978-.7069,1.2747-2.9923,1.1445-4.2416,1.447-5.4829,1.328-11.2008,6.5187-16.9338,3.2149a.7271.7271,0,0,0-.7334,1.2547c4.6978,2.6154,9.6137.196,14.052-1.767a23.1641,23.1641,0,0,1,6.3634-1.82,3.5183,3.5183,0,0,0,1.9506-.523c.6258-.5325.6258-1.2379.8654-1.9523.4266-1.2717.5746-1.3893,1.2746-.0248.3667.7148.9981,1.861,2.03,1.3425a1.6243,1.6243,0,0,0,.6655-1.1675c.3184-1.28-.2274-1.7759.8391-3.1839a9.0332,9.0332,0,0,1,1.701-1.3845c3.9844-3.1714,6.5615-7.988,8.3127-12.6964.1829-.4919-.566-.77-.8246-.3477Z"/><path class="cls-5" d="M55.0964,141.6249c.0841-8.4362-.9513-16.86-.8974-25.2951.0393-6.147,2.436-12.0316,3.9722-17.9176C59.7669,92.2978,61.1244,86.1265,62.31,79.92l-.9509.3869a6.2524,6.2524,0,0,1,1.4351,9.2975H63.76a1.9339,1.9339,0,0,0-3.0361.4184c-1.302,2.1573,1.4041,3.6782,1.85,5.5421.4775,1.9946-1.393,4.52-2.2562,6.2562q-1.1673,2.3479-2.3365,4.6949c-1.5785,3.1709-3.2469,6.3145-4.6243,9.58-.2424.5747.69.9351.9906.4176,2.7845-4.7942,5.0783-9.9089,7.557-14.8665.8077-1.6155,2.1707-3.6,2.1109-5.4921a4.27,4.27,0,0,0-.4443-1.733,10.902,10.902,0,0,0-.9528-1.3905,4.052,4.052,0,0,1-.3827-.5628q-.7185-.8871.5586-1.8984a.693.693,0,0,0,.9655,0,7.5942,7.5942,0,0,0-1.7471-11.3808.6521.6521,0,0,0-.9509.3869q-1.7157,9.3227-4.1141,18.4989c-1.49,5.7041-3.8017,11.4308-3.948,17.3805-.1073,4.3642.2874,8.779.5019,13.1371.2137,4.3416.345,8.7022.7339,13.0325a.4309.4309,0,0,0,.8613,0Z"/><path class="cls-5" d="M45.8572,139.3744a52,52,0,0,0,1.12-7.7059q.5668-4.4183,1.1705-8.8316c.6583-4.8276,1.0369-9.4156-.7393-14.0478-1.6506-4.3046-4.3107-8.1837-5.4805-12.676-1.4047-5.3942-1.8688-11.1247-2.69-16.6312a.6668.6668,0,0,0-.8166-.4636A5.9361,5.9361,0,0,0,34.47,84.419a13.4907,13.4907,0,0,0,1.034,5.4387c.4858,1.3652.7155,1.2971,2.1833,1.6748l-.3955-.9721c-1.2579,2.3826-2.6766,5.1006-1.6789,7.7826,1.8929,5.0886,5.7018,8.3386,9.4292,12.0752.58.5819,1.4549-.3005.8991-.8991-3.1373-3.3785-6.6625-6.1-8.5732-10.424-1.3184-2.9833-.3923-5.1052,1.0666-7.8667a.67.67,0,0,0-.3955-.9721c-1.7011-.4382-1.95-2.6011-2.1459-4.1455-.3007-2.37.3426-4.94,2.88-5.8123l-.8166-.4636c.7771,5.2182,1.309,10.5633,2.4966,15.7075.9869,4.275,3.2473,7.9687,5.0352,11.9266,2.398,5.3082,2.0837,10.3251,1.3168,15.9749-.329,2.4238-.653,4.8483-.952,7.2761-.3436,2.7893-.9672,5.7322-.82,8.5431a.421.421,0,0,0,.8229.1114Z"/><path class="cls-5" d="M33.9819,83.4973c-6.9767,1.5945-14.7671,3.7853-17.3426,11.31a.5944.5944,0,0,0,1.0817.456c1.9491-3.81,4.2827-6.508,8.3182-8.1268,2.71-1.0871,5.6805-1.495,8.2542-2.9a.4062.4062,0,0,0-.3115-.739Z"/><path class="cls-5" d="M39.8263,82.784a9.3832,9.3832,0,0,1,1.8159-1.9851c1.5541-1.0762,1.2146-.1663,1.6275.9484a9.97,9.97,0,0,0,1.6085,2.886,7.2882,7.2882,0,0,0,5.8652,2.7472l-.6327-.6327c.45,4.36.8909,8.7226,1.5811,13.0523.0952.597,1.129.4643,1.0646-.1441-.4556-4.3037-1.0024-8.5963-1.38-12.9083a.6454.6454,0,0,0-.6327-.6327c-3.0289.05-5.2559-1.9769-6.2984-4.6919-.2808-.7313-.3272-2.1543-1.1712-2.53-1.603-.7144-3.6875,2.2666-4.3683,3.353-.3737.5963.5193,1.0714.9208.5382Z"/><path class="cls-5" d="M51.927,89.7412A24.5325,24.5325,0,0,0,59.9607,84.3c.541-.5472-.2784-1.3572-.8411-.8411a39.9291,39.9291,0,0,1-7.5584,5.4144c-.4553.2548-.1409,1.0787.3657.8675Z"/><path class="cls-5" d="M60.0056,83.6077c-1.4907-2.863-2.612-5.4818-2.6423-8.7708-.0069-.7471-1.0324-.6948-1.125,0-.454,3.406,1.1531,6.4792,2.8364,9.3149a.54.54,0,0,0,.9309-.5442Z"/><path class="cls-5" d="M69.026,39.1955a3.9638,3.9638,0,0,0,1.624-6.0383c-2.304-2.8925-7.2769-1.6792-10.36-1.3961-4.5612.4189-9.443.4145-13.9107,1.485a10.1508,10.1508,0,0,0-6.82,6.0935c-1.5336,3.6284-1.3619,7.702-1.2077,11.5493.1216,3.035-.5841,7.7293,1.3451,10.3646,1.3042,1.7815,3.3019.7032,4.6166-.4809a12.4177,12.4177,0,0,0,3.9386-7.7435c.1742-.9819.3707-3.9644,1.2734-4.5957.6744-.4716,2.0949.091,2.91-.012A4.4327,4.4327,0,0,0,55.83,45.9534a4.3723,4.3723,0,0,0,.3112-1.9415c.0073-.28-.269-.5769-.2471-.8261.1283-1.4577,1.013-1.3057,2.2315-1.4356,2.9948-.3193,6.0092-.5321,8.99-.9648.73-.106.56-1.332-.1745-1.2891-1.86.1089-3.714.3341-5.5678.5228a35.3314,35.3314,0,0,0-5.402.5821c-3.0952.8231-.568,3.12-1.6529,5.0313-.9284,1.6353-2.325,1.1629-3.8529,1.0818a3.0066,3.0066,0,0,0-1.081.0094c-.7923.2743-1.1609,1.1344-1.4625,1.8367-1.1762,2.7388-.7749,5.9957-2.3792,8.5514a12.8257,12.8257,0,0,1-2.0427,2.5,4.1454,4.1454,0,0,1-1.396,1.021c-1.2063.3789-1.4869-.5633-1.7915-1.5687-.886-2.9247-.492-6.3744-.6288-9.403-.2765-6.124.683-13.921,7.8951-15.2288,4.322-.7837,8.8205-.9588,13.1878-1.4226,2.0609-.2189,4.3151-.7,6.38-.351,1.4669.2479,3.0718,1.0292,3.1813,2.7325a3.12,3.12,0,0,1-1.7906,2.9693c-.5622.2942-.0684,1.0789.488.8348Z"/><path class="cls-5" d="M52.1905,53.3436a1.7363,1.7363,0,0,0-.3365-2.7245c-1.3229-.8112-2.8942.3081-3.5573,1.4574a5.166,5.166,0,0,0,2.9144,7.3205c.8488.2386,1.12-.9643.3536-1.2826a3.9585,3.9585,0,0,1-2.3632-2.8551,3.6735,3.6735,0,0,1,.04-1.7974,2.7418,2.7418,0,0,1,.4568-.92,1.197,1.197,0,0,1,.443-.4571q.6179-.6974,1.3.5089a.5306.5306,0,0,0,.75.75Z"/><path class="cls-5" d="M41.3192,61.5513c.5344,3.1554,3.129,5.0624,4.0571,8.0347,1.1325,3.6266-.3917,7.2794-2.4526,10.2353-.3618.5189.4739,1.1737.8834.6817a12.9849,12.9849,0,0,0,3.2067-9.2813c-.3516-3.9317-3.5767-6.3222-4.6889-9.9476a.522.522,0,0,0-1.0057.2773Z"/><path class="cls-5" d="M59.7988,50.3941a2.5,2.5,0,0,1,2.457-.9088.6129.6129,0,0,0,.3255-1.1809,3.1928,3.1928,0,0,0-3.7185,1.5425.5424.5424,0,0,0,.936.5471Z"/><path class="cls-5" d="M67.3226,48.6082a10.7456,10.7456,0,0,0,2.8418,1.2867.5506.5506,0,0,0,.4222-1.0013,10.8034,10.8034,0,0,0-2.8621-1.2385.5238.5238,0,0,0-.4018.9531Z"/><path class="cls-5" d="M64.4146,61.6166a6.7673,6.7673,0,0,0,2.9311.2748.6683.6683,0,0,0,.6328-.8307,7.2922,7.2922,0,0,1-.0513-2.9092c.14-.7885-1.0237-1.14-1.22-.3365a7.6236,7.6236,0,0,0,.006,3.5946l.4584-.8073a7.704,7.704,0,0,1-2.4841.0256.5132.5132,0,0,0-.2726.9888Z"/><path class="cls-5" d="M63.5608,65.4428a12.9615,12.9615,0,0,1-4.9425-1.0208.704.704,0,0,0-1.0186.7831,18.3472,18.3472,0,0,0,.1262,2.58,3.3466,3.3466,0,0,0,1.102,1.5711,5.8592,5.8592,0,0,0,4.2275,1.0707c.7242-.0621,1.0224-1.2364.1861-1.3754-1.1165-.1855-2.41-.1254-3.3648-.8193-1.1434-.8307-.6663-2.1969-.94-3.396l-1.0186.7831a10.7061,10.7061,0,0,0,5.79.9167c.6471-.0991.4469-1.063-.148-1.0934Z"/><path class="cls-5" d="M56.0307,120.501a1.9074,1.9074,0,0,0,.6977,3.09,1.83,1.83,0,0,0,2.2078-2.41c-.21-.47-.9874-.2307-.9609.26.0225.4153-.3026,1.15-.8542.9327a.7309.7309,0,0,1-.2494-1.0314c.4811-.58-.2832-1.3858-.8411-.8411Z"/><path class="cls-5" d="M57.5134,131.8476a1.4131,1.4131,0,0,0-.2023,2.7807,1.7657,1.7657,0,0,0,1.8714-.8046,2.0851,2.0851,0,0,0-.2748-2.3655c-.4185-.539-1.2182.1476-.9157.7065.1914.3536.3579,1.24-.301,1.22-.3255-.01-.2827-.3678-.0251-.4093.6415-.1033.4869-1.1507-.1527-1.1279Z"/><path class="cls-5" d="M27.7689,116.0561c.152,2.216-.71,4.4452-.8991,6.6648-.2229,2.6114-.9055,5.1051-1.1824,7.6828-.3877,3.609,2.6369,4.2007,5.3383,5.4567a52.8249,52.8249,0,0,0,4.9157,2.3585,44.3418,44.3418,0,0,0,4.5262,1.1006c2.5.5813,5,1.2739,7.4547,2.0224.1577.0481,1.0765.2136,1.1672.3876-.2352-.451-.87,1.0909-1.0182,1.4506a37.7832,37.7832,0,0,0-2.1868,7.28,20.3989,20.3989,0,0,1-.4037,2.79c-.6748,1.8751-2.6947.8561-3.9791.2869a45.22,45.22,0,0,0-6.3036-2.2462,84.0208,84.0208,0,0,1-15.0171-5.8876c-1.8813-.946-4.45-2.0312-5.6459-3.8722-1.5658-2.41-.9058-5.5433-.6014-8.2091.6581-5.7639.8423-11.601,1.2465-17.3876l.6427-9.2c.2216-3.1713-.0371-6.93,1.4836-9.8022.4277-.8079-.7746-1.5187-1.2294-.7186a13.9823,13.9823,0,0,0-1.4434,6.163c-.2322,3.2273-.4464,6.4561-.67,9.6841-.4173,6.0356-.751,12.08-1.2126,18.1123-.3254,4.2525-1.9936,9.7616,1.4318,13.2115,3.2374,3.2605,8.6953,4.9586,12.8971,6.5675a72.042,72.042,0,0,0,7.7716,2.5943c2.7533.71,5.3682,1.9675,8.1112,2.6185,3.7534.8908,3.53-1.27,4.1453-4.3667a38.8894,38.8894,0,0,1,1.1186-4.3348c.4767-1.4815,1.3815-2.9444,1.75-4.4245.2245-.902.4068-.9322-.3613-1.4852a11.0315,11.0315,0,0,0-3.0533-1.0214c-1.5622-.463-3.1368-.8842-4.7164-1.2839-1.5952-.4036-3.233-.6353-4.81-1.1037-2.5827-.7669-5.0168-2.1278-7.5346-3.1085-2.3187-.9032-3.0189-2.5336-2.4444-4.9942a28.4675,28.4675,0,0,0,.6784-3.5588c.1831-1.7641.192-3.5263.5122-5.2768a13.6832,13.6832,0,0,0,.4357-4.15c-.06-.574-.9548-.5944-.9141,0Z"/><path class="cls-5" d="M49.631,142.659l-.1156-.0384a.525.525,0,0,0-.5766.2346l-.0909.1183a.5714.5714,0,0,0,.2028.7736c1.09.6759,2.8459.4425,4.0582.2588.7252-.11,1.4318-.3954,2.1541-.4856,3.064-.3827,3.9253,1.3591,3.4279,3.6315-1.2419,5.6731-6.9924,5.76-11.4924,4.3834-.8079-.2472-1.114.9639-.3442,1.2487,5.097,1.8853,11.3067.9885,12.9827-4.9643.4919-1.7469.5033-4.2025-1.1863-5.3369a3.7876,3.7876,0,0,0-2.5987-.4625,22.8155,22.8155,0,0,0-2.2589.5345,10.1912,10.1912,0,0,1-2.427.3266,1.47,1.47,0,0,0-1.7352.6817.4732.4732,0,0,0,0-.904Z"/><path class="cls-5" d="M58.072,55.5226c1.0695.1986,5.8778.2127,5.1413-1.9141a1.1044,1.1044,0,1,0-1.5191,1.3091c.6124.27,1.4224-.5177.7917-1.0261-.4139-.3337-1.734.26-2.21.3482-.6812.1261-1.3793.1723-2.0663.2643-.518.0693-.7732.9006-.1379,1.0186Z"/><path class="cls-5" d="M66.62,54.8786a5.7039,5.7039,0,0,0,2.5571-.5919A1.34,1.34,0,0,0,69.53,52.253a1.09,1.09,0,0,0-1.84.4269,1.4038,1.4038,0,0,0,1.3284,1.7439c.5854.0495.7531-.6888.4392-1.06-.2175-.2574-.3153-.3749-.6594-.3172a5.6887,5.6887,0,0,0-.75.3049c-.5316.1675-1.0466.3277-1.5626.5433-.4667.195-.4868,1.0409.1332.9841Z"/><path class="cls-5" d="M67.4582,40.1745a26.2567,26.2567,0,0,0,1.1534,2.8874,11.2317,11.2317,0,0,1,.3493,3.3574c-.0129.7069,1.1439.9024,1.266.1713a8.6342,8.6342,0,0,0-.2412-3.9076c-.3166-1.0786-.808-2.4747-1.8389-3.038a.4751.4751,0,0,0-.6886.5294Z"/><path class="cls-5" d="M69.8107,57.0724c.4546,4.2326.3679,9.1876-2.0719,12.87a9.2008,9.2008,0,0,1-5.6919,3.6842c-2.3443.6238-6.2852,1.5931-7.1347-1.6186-.2185-.8261-1.3687-.4581-1.2487.3442.8411,5.622,9.5969,3.0312,12.5935,1.0182,5.0337-3.3814,5.5121-11.0514,4.6184-16.4425-.0988-.5962-1.13-.4645-1.0646.1441Z"/></g></svg>