<svg xmlns="http://www.w3.org/2000/svg" viewBox="0 0 292 250"><defs><style>.cls-1{fill:#f7fafc;}.cls-2{fill:#ffefaf;}.cls-3{fill:#777;}.cls-4{fill:#e93a1d;}.cls-5{fill:#303030;}.cls-6{fill:#172df8;}</style></defs><title>DN_Service-Ya-Audit-img-2</title><g id="back"><path class="cls-1" d="M151.9226,248.5463q-.9441,0-1.8979-.0867a25.0642,25.0642,0,0,1-2.625-.3691,20.1462,20.1462,0,0,1-5.2988-.4685,21.6123,21.6123,0,0,1-9.38-1.2515,20.8678,20.8678,0,0,1-14.6265-2.0781c-.94-.4922-2.0068-1.11-3.3574-1.9448-1.9624-1.2126-4.6025-2.9321-8.0713-5.2566q-3.271-2.1925-7.5688-5.1338a20.01,20.01,0,0,1-33.0918,3.7751S51.7742,218.86,37.5467,201.9474c-7.1221-8.4651-14.2427-16.94-19.5811-23.3188-2.6914-3.2156-4.9336-5.9028-6.5024-7.7961-3.7725-4.5535-7.6733-9.262-6.959-17.49a20,20,0,0,1,7.0732-13.5945,21.0493,21.0493,0,0,1,7.229-3.8364C2.0657,114.4371.5506,106.9987.9016,99.9218a21.7362,21.7362,0,0,1,4.395-12.2009,19.9935,19.9935,0,0,1,2.646-7.3054,20.7113,20.7113,0,0,1,1.7842-4.1833,21.3288,21.3288,0,0,1,6.55-9.6018,19.981,19.981,0,0,1,17.38-4.1611,19.1907,19.1907,0,0,1-2.1914-10.9482,20.1256,20.1256,0,0,1,7.0981-13.7422c2.4775-2.08,10.9546-7.9287,22.499-2.5059a19.9374,19.9374,0,0,1,7.0635-13.5364,20.3792,20.3792,0,0,1,20.0249-3.4519A19.9117,19.9117,0,0,1,93.66,10.8937,20.3851,20.3851,0,0,1,110.6653,6.618q.4395-.4164.9058-.8083a20.1478,20.1478,0,0,1,24.8955-.7136c.4351.3081,1.0674.7749,1.8789,1.3972,1.168.8958,2.86,2.2268,4.9985,3.9333C146.8,13.184,151.6648,17.1115,157.826,22.12a21.2071,21.2071,0,0,1,6.02-8.3281A19.9988,19.9988,0,0,1,191.0872,15.22c4.3926,4.5488,8.9175,9.1965,13.49,13.8562A20.0036,20.0036,0,0,1,226.29,34.01c.5806.6145,14.3838,15.2285,28.3931,30.9038,8.3467,9.34,15.0244,17.1121,19.8477,23.1013,9.3462,11.6072,13.4336,18.2146,12.9438,26.6848a20.7317,20.7317,0,0,1-2.5884,8.885c4.2886,6.623,5.3892,11.2478,5.1157,16.5049a21.2179,21.2179,0,0,1-7.49,15.1218,19.952,19.952,0,0,1-11.4687,4.63c5.48,8.9587,6.5684,14.1052,6.26,19.3733a21.1356,21.1356,0,0,1-7.5288,15.1279q-.6394.5369-1.3105,1.0117.0007.8826-.0762,1.7693a19.9992,19.9992,0,0,1-7.0679,13.5767,20.2409,20.2409,0,0,1-12.793,4.7893,19.9826,19.9826,0,0,1-32.8027,12.7913,19.9987,19.9987,0,0,1-6.9253,12.3752c-8.71,7.3091-20.1021,7.033-33.86-.8206q-2.2375-1.2773-4.7334-2.8821a20.1678,20.1678,0,0,1-18.2822,11.592Z"/></g><g id="Layer_2" data-name="Layer 2"><path class="cls-2" d="M136.6957,210.5445c-1.2185-6.9968-1.76-13.9357-2.3451-21.0021-.5574-6.731-.5236-13.7754-1.4866-20.43-.4906-3.39,1.2038-3.396,4.0933-4.1047,4.2275-1.0368,8.6408-.5866,12.9116-1.3286,3.4382-.5973,6.7488-1.3126,10.1416-1.9922a55.5146,55.5146,0,0,1,6.5047-.6281c1.6019-.1254,1.5124-.73,2.4961.9092.7509,1.2515.3969,2.52.3489,3.8313a82.4111,82.4111,0,0,0,.4742,9.8981c.72,8.3831,1.682,16.8667,1.7217,25.2928.0307,6.5051.9819,12.9507,1.7,19.4026.314,2.82.9613,5.953.68,8.79-.2969,2.9944-1.8226,2.7961-4.381,3.32-6.0047,1.2306-11.6709,2.4184-17.7571,1.449-3.2194-.5128-6.5775-.8059-9.604.4762-1.3941.5906-2.5788,2.1864-4.0515,2.3122C137.3945,236.8044,137.0442,212.5453,136.6957,210.5445Z"/><path class="cls-3" d="M139.4639,192.3849c-1.05-1.8741-1.4371-3.9217-.1752-5.4859a5.0209,5.0209,0,0,1,2.1352-1.6033c1.4162-.17,3.4351,3.6048,4.1067,4.6432,1.4914,2.3061,3.4118,4.4259,4.7191,6.8529a65.0125,65.0125,0,0,0,6.7669,10.4467c.7133.8763,1.3782,1.821,2.0592,2.6973.8451,1.0874,2.5162,3.4492.3463,3.8121-2.56.4281-4.7984-3.5767-6.03-5.1958-1.3947-1.8336-3.0371-3.0584-4.0205-5.2163-.4591-1.0075-.2809-2.0839-.6606-3.0442-.6952-1.7584-3.473-2.4843-4.9846-3.3931A13.2457,13.2457,0,0,1,139.4639,192.3849Z"/><path class="cls-4" d="M143.2895,185.1674c-.3379,1.2485,1.4885,4.4395,2.8923,5.874.9729-.646,1.73-3.312,2.0173-4.7358.4409-2.1831-.45-3.0991-1.166-4.8818C146.3058,182.6869,143.6242,183.93,143.2895,185.1674Z"/><path class="cls-4" d="M154.0754,202.5433c1.7388,3.0869,4.3672,8.4785,7.1719,9.895,2.5981-2.9058.1113-3.3462-1.3933-5.7227C158.6852,204.87,157.7267,199.5931,154.0754,202.5433Z"/><path class="cls-4" d="M163.9152,182.5373a6.5967,6.5967,0,0,1-2.2976-.0953c-.5373-.18-.7681-.6723-1.2161-.96-.4191-.2687-.89-.379-1.34-.6152-.9721-.51-1.8377-1.2485-2.7534-1.85-1.7047-1.12-3.8761-2.2914-5.8187-.9986.2121,1.6932,5.4188,3.965,6.8637,5.3557,1.1146,1.0728,1.5694,2.6931,2.1663,4.0667.41.9442.8874,1.9025,2.0448,1.8034,1.1613-.0994,1.8115-1.1645,2.6965-1.8033,1.3478-.9728,2.7445-1.8055,1.82-3.6143A2.0893,2.0893,0,0,0,163.9152,182.5373Z"/><path class="cls-2" d="M163.0125,209.6544c.8045-3.5967-.26-6.9875-1.2227-10.4263a20.5217,20.5217,0,0,1-.6763-5.213c-.0143-.8587-.0013-1.7176.0011-2.5763a3.0369,3.0369,0,0,0-.2573-1.9019q-.3762-.5809-.7735-1.1477a2.6967,2.6967,0,0,1-.5285-.8553,14.5126,14.5126,0,0,0-.2876-2.1357c-.5537-1.3292-1.3338-1.5526-2.5769-2.2526a28.0676,28.0676,0,0,1-6.4441-4.6427c-.7506.8581-2.3617.9972-2.8506,1.7962-.8136,1.33,1.4611,4.1883,1.0566,6.18-.41,2.02-2.1575,4.0531-.8971,6.026a39.1155,39.1155,0,0,1,2.8282,4.5976c.98,2.09,1.974,5.13,4.7478,5.0436,1.0925-.034,1.6413-.5994,2.6787.1181,1.189.8222,1.4937,2.7151,2.0785,3.9379.7844,1.64,1.3516,3.3668,2.9311,4.2069Q162.9293,210.0279,163.0125,209.6544Z"/><path class="cls-5" d="M120.55,234.76c-.027-2.2307-.9832-4.4025-1.39-6.5941a19.34,19.34,0,0,1,.1026-8.6642c1.1334-4.1877,3.2552-7.8735,3.9585-12.2235.6934-4.289.6975-8.6391.9824-12.964.0535-.8117-.055-4.6184,1.6347-4.3,1.1548.2173,2.0353,2.4506,2.4939,3.3988a27.2933,27.2933,0,0,1,2.0418,7.3273c.1379.77,1.37.5826,1.3524-.183a19.4171,19.4171,0,0,0-2.0852-7.9094c-.7782-1.6053-1.8906-3.7881-3.8036-4.2806-1.619-.4168-2.51.6168-2.8049,2.1a62.2174,62.2174,0,0,0-.612,8.89,54.2425,54.2425,0,0,1-1.2093,10.1761c-.7125,2.9185-2.0916,5.556-3.0734,8.3769a19.09,19.09,0,0,0-.8427,8.6229c.3213,2.742.7945,6.1236,2.2666,8.4949a.5345.5345,0,0,0,.9881-.2676Z"/><path class="cls-5" d="M134.8284,237.5783c-.88-19.79-2.8568-39.5457-4.2793-59.3023q-.4478-6.22-.8579-12.4419c-.0407-.6251-.0961-1.2522-.1213-1.8782-.1061-2.6387.6744-4.0725,2.9578-5.3092a42.2189,42.2189,0,0,1,11.0453-3.9049c7.2656-1.5968,14.7482-1.758,22.157-1.8062,1.2536-.0082,3.4788-.2541,4.26.963a7.5246,7.5246,0,0,1,.64,3.024c.2447,1.8908.4436,3.7888.6645,5.6826q.6617,5.6726,1.3036,11.3475c1.7562,15.6684,2.934,31.3385,3.8793,47.0738.0514.8557,1.3751.8682,1.3418,0-.5869-15.3143-1.994-30.6015-3.68-45.83q-.6468-5.84-1.33-11.6759-.3547-3.0567-.7117-6.1131a12.1915,12.1915,0,0,0-.7646-3.9444c-1.3049-2.6763-4.8822-1.9534-7.3321-1.9291-4.0471.04-8.0994.1444-12.1307.5247-7.0188.662-14.4782,2.065-20.6222,5.7133-4.3534,2.585-2.884,7.7274-2.5526,12.0061.8606,11.112,1.6452,22.23,2.46,33.3455.8418,11.4858,1.5733,22.988,2.6538,34.4542.06.6417,1.0491.6649,1.02,0Z"/><path class="cls-5" d="M174.9612,181.6483a16.9993,16.9993,0,0,1,3.341-4.3459c1.3288-1.2178,3.36-1.7616,3.9.5166a8.4953,8.4953,0,0,1-.1377,3.8319c-1.0183,4.4819-3.8626,8.155-6.1233,12.0406-.3242.5572.4693,1.2169.9157.7065a34.35,34.35,0,0,0,5.3065-9.035c1.1386-2.6528,2.1-5.8319,1.0275-8.6683-2.2814-6.0356-7.9881,1.45-9.0173,4.6218a.4326.4326,0,0,0,.7871.3319Z"/><path class="cls-5" d="M177.09,203.3332a24.3588,24.3588,0,0,1,5.8219-2.83c1.69-.4731,3.5091-.5509,3.7337,1.6188a5.2809,5.2809,0,0,1-.7236,2.8967c-1.7711,3.4549-5.3425,5.2019-8.3487,7.37a.5776.5776,0,0,0,.5826.9967c4.0979-1.9234,10.3074-6.3621,9.907-11.621-.4622-6.0707-9.3541-1.299-11.5871.7729a.509.509,0,0,0,.6142.796Z"/><path class="cls-5" d="M183.0585,216.75c-2.8362,1.0378-6.1227,2.4094-7.19,5.5122-.7739,2.2505-.158,5.09,2.2311,6.0327,6.3542,2.5084,11.238-7.046,6.1686-11.2007a.5453.5453,0,0,0-.7706.7706c1.5141,1.9547,2.3527,4.378,1.0511,6.7114-1.2182,2.1839-4.87,4.088-6.9387,1.9394-1.5927-1.6542-.8855-4.3284.5832-5.8237a16.5946,16.5946,0,0,1,5.2173-3.1066c.4681-.2106.1344-1.0134-.3522-.8353Z"/><path class="cls-5" d="M177.918,222.19a39.597,39.597,0,0,0,2.631,3.3974c.3607.3931,1.0629-.1287.75-.5787a39.5851,39.5851,0,0,0-2.7368-3.3157c-.3017-.3461-.9215.1192-.6442.497Z"/><path class="cls-5" d="M183.0034,229.3841c-2.5213,1.3421-4.983,2.7815-7.4339,4.2476-1.4276.854-3.2156,1.7439-3.936,3.352a3.2785,3.2785,0,0,0,.224,3.2354c.9544,1.2735,2.7705,1.115,4.1841,1.0406,3.5641-.1877,7.4141-1.5093,9.38-4.6856,1.6965-2.7414,1.8054-6.4857-.5164-8.8859-.4536-.4689-1.3441.1708-.9295.7172,3.8886,5.1241-.9532,10.4687-6.224,11.3914a9.2768,9.2768,0,0,1-3.5944.1923c-4.0349-1.29.3457-4.2632,1.6309-5.0407,2.5806-1.5612,5.16-3.1134,7.6677-4.79a.4486.4486,0,0,0-.4525-.7741Z"/><path class="cls-5" d="M175.7878,234.9477c.208.9335.3874,1.8693.6506,2.7911a.604.604,0,0,0,1.1639-.3209c-.2251-.9314-.53-1.8332-.8088-2.7475a.5219.5219,0,0,0-1.0057.2773Z"/><path class="cls-5" d="M138.0753,230.8083c-.5021-20.8393-3.995-41.51-5.1115-62.3187-.0071-.133-.1775-2.282-.3627-2.0316.0517-.07.3628-.0484.4365-.0841a7.7722,7.7722,0,0,1,1.97-.31q3.0262-.4515,6.0565-.8763,8.3-1.1726,16.6-2.35,5.4156-.7721,10.8328-1.5331l-.93-.7084c1.66,18.3218,3.2416,36.6527,4.6225,54.9978.3772,5.0108.7219,10.0231,1.004,15.04.05.8935,1.4266.9068,1.4,0-.2946-10.1832-1.3039-20.3726-2.1361-30.5219q-1.3341-16.2711-2.7944-32.5317-.311-3.4924-.627-6.9844a.7514.7514,0,0,0-.93-.7084c-8.9243,1.2544-17.8506,2.5059-26.7542,3.9007-2.2263.3488-4.4545.6915-6.6743,1.08-.6388.1119-2.1765.0951-2.6964.5671-.7674.6967-.1532,3.008-.1016,3.9072q.2248,3.9166.5351,7.8277c.4318,5.5554.9574,11.1031,1.499,16.6488,1.2034,12.322,2.36,24.6393,3.2475,36.9886.0417.58.9284.5943.9141,0Z"/><path class="cls-5" d="M155.106,211.572c1.6115,2.0883,3.3334,4.0562,5.9461,2.2364,3.001-2.09,3.4069-5.7427,2.7251-9.0672-.4056-1.9779-1.3063-3.7406-1.8944-5.6548a13.9624,13.9624,0,0,1,.0394-8.4339c.868-2.56,2.8283-2.0745,4.497-3.6855a2.5079,2.5079,0,0,0,.4779-2.8573,4.2109,4.2109,0,0,0-2.1212-2.6124c-1.44-.6322-2.21.5466-3.4575.3109-.8994-.17-2.5013-1.6214-3.3419-2.1114-.9692-.565-1.8526-1.1615-2.7781-1.791-1.2409-.8439-2.64-1.6837-4.1748-1.0955-1.4981.5743-2.2861,2.2178-3.5532,3.122a26.5031,26.5031,0,0,0-5.0819,4.2248,13.9652,13.9652,0,0,1-2.8956,2.3082,3.801,3.801,0,0,0-1.2839,1.0719c-.7453,1.2239-.2089,3.113.2652,4.313a11.3523,11.3523,0,0,0,3.595,4.6852,13.1322,13.1322,0,0,0,3.0393,1.7924c1.182.4981,2.3642.3663,2.8123,1.7948.3125.9962.1038,2.0411.5157,3.0923a10.5064,10.5064,0,0,0,1.4138,2.4536c1.5976,2.1334,3.5088,4.085,5.2389,6.1148.5821.6829,1.4983-.29.97-.97-2.2625-2.9074-6.4394-6.0459-6.7132-9.9464-.061-.8686.2714-1.9184-.3982-2.6512-.706-.7728-2.2784-.8109-3.194-1.1857a11.4194,11.4194,0,0,1-4.1072-2.8332c-1.4481-1.5826-3.245-4.4686-1.4266-6.4889a15.87,15.87,0,0,1,1.6456-1.0149,12.2828,12.2828,0,0,0,1.5418-1.518,17.718,17.718,0,0,1,4.0807-3.5794,32.987,32.987,0,0,0,2.8208-2.4315c2.2121-1.7215,3.6845-.2228,5.5378.9479,1.5527.9809,3.187,1.9672,4.7834,2.8737a1.8991,1.8991,0,0,0,1.756.309c.3051-.0407.4871-.4325.7676-.4894a3.0015,3.0015,0,0,1,1.9911.737,2.0247,2.0247,0,0,1-.2232,2.8764c-.776.7194-2.0675.7911-2.8713,1.5412-1.7532,1.6362-2.0211,5.0631-1.9539,7.2983.1021,3.3986,1.7583,6.2067,2.488,9.4464.5033,2.2346.6071,4.7208-.78,6.66-.8194,1.1461-2.2586,2.4715-3.7364,1.7124a9.0115,9.0115,0,0,1-2.1108-2.1628C155.5616,210.4551,154.7282,211.0825,155.106,211.572Z"/><path class="cls-5" d="M142.2112,185.8956a188.1177,188.1177,0,0,0,18.5042,26.8328c.3268.387.8773-.17.5552-.5552-6.9867-8.3446-12.0985-17.8156-18.1942-26.7833-.3587-.5276-1.1938-.0584-.8652.5057Z"/><path class="cls-5" d="M162.52,209.8482a11.2,11.2,0,0,1-2.4568-3.1052c-.6349-1.2256-.5863-2.5316-1.0914-3.7506-.7863-1.8975-2.87-.84-4.2683-1.69-.4609-.28-1.1438.312-.7856.7856a2.143,2.143,0,0,0,1.7958.8774,6.8969,6.8969,0,0,1,1.1834-.0011c1.241.3441,1.05,1.4148,1.2971,2.3289a8.7059,8.7059,0,0,0,3.84,5.1851c.3815.2408.8271-.3225.4864-.63Z"/><path class="cls-5" d="M161.8626,189.3383a5.8658,5.8658,0,0,1-2.432-3.2342c-.2979-1.1087-.1033-1.7957-.9481-2.8193a9.0793,9.0793,0,0,0-3.457-2.1462,17.2214,17.2214,0,0,1-4.8655-3.5164c-.4487-.4367-1.3.1521-.9019.6959a11.3446,11.3446,0,0,0,3.6876,3.2c2.3352,1.2944,4.7393,1.5219,5.3133,4.5863a5.463,5.463,0,0,0,3.1185,4.0639c.554.2346,1.0265-.4932.485-.83Z"/><path class="cls-5" d="M160.6455,182.3436c-1.0631,2.072-.177,4.9713,1.1787,6.7063.414.53,1.2413-.1487.9157-.7065-.9043-1.5494-1.7172-3.7893-1.05-5.56.228-.605-.75-1.0129-1.0442-.44Z"/><path class="cls-5" d="M146.7,191.7261a8.48,8.48,0,0,0,.88-10.35c-.3546-.5264-1.1931-.0534-.86.5027a7.5487,7.5487,0,0,1-.7611,9.1059c-.4328.507.2695,1.2362.7416.7416Z"/><path class="cls-5" d="M157.7419,192.43a3.0133,3.0133,0,0,0,1.3936.6037,2.8439,2.8439,0,0,0,1.5606.0213.6422.6422,0,0,0,0-1.2261,9.0789,9.0789,0,0,0-1.2762-.1517c-.4238-.0784-.8252-.2228-1.2554-.2675a.6029.6029,0,0,0-.4226,1.02Z"/><path class="cls-5" d="M157.7605,195.0028a3.7,3.7,0,0,0,2.6061.3086c.7709-.1559.5587-1.3051-.18-1.3293a8.5741,8.5741,0,0,0-2.3065.1051.5071.5071,0,0,0-.12.9157Z"/><path class="cls-5" d="M158.2245,197.515a11.6582,11.6582,0,0,0,1.2357-.0562,2.8739,2.8739,0,0,0,1.153-.1951.577.577,0,0,0,0-.9916,3.6991,3.6991,0,0,0-2.6563.2548c-.5145.2317-.21.9642.2676.9881Z"/><path class="cls-5" d="M158.2969,199.6574a5.9139,5.9139,0,0,0,1.4426-.0183,3.6557,3.6557,0,0,0,1.4062-.3076.5686.5686,0,0,0-.1344-1.0281,3.6625,3.6625,0,0,0-1.4425.0752,5.8944,5.8944,0,0,0-1.3917.363.5055.5055,0,0,0,.12.9157Z"/><path class="cls-5" d="M156.767,200.1421a.877.877,0,0,0,.4368-.5595c.2138-.638-.6128-.9974-1.0528-.6128a.8785.8785,0,0,0-.2966.6487c-.058.4785.5511.7266.9125.5236Z"/><path class="cls-5" d="M156.4656,197.5538a1.0814,1.0814,0,0,0,.4038-.4225c.3531-.6658-.5495-1.4614-1.0905-.8414a1.0926,1.0926,0,0,0-.286.5162c-.1154.5292.4613,1.0829.9726.7477Z"/><path class="cls-5" d="M156.5158,194.6141l.0526-.0766a.6785.6785,0,0,0-.9219-.9219l-.0766.0526c-.9265.6358.306,1.8787.946.946Z"/><path class="cls-5" d="M156.8481,191.8038l.0283-.1277c.2537-1.1472-1.6282-1.1542-1.373,0l.0283.1277a.6878.6878,0,0,0,1.3165,0Z"/><path class="cls-5" d="M156.7679,189.8746a.768.768,0,0,0,0-1.5352.768.768,0,0,0,0,1.5352Z"/><path class="cls-5" d="M157.9167,190.2014a9.2521,9.2521,0,0,0,1.5692.88c.52.2806,1.2424.6418,1.8.2959a.5916.5916,0,0,0,.1186-.92,2.2737,2.2737,0,0,0-.8266-.37c-.2822-.111-.5447-.28-.8144-.4174a1.8346,1.8346,0,0,0-1.7475-.2411.495.495,0,0,0-.1.773Z"/><path class="cls-5" d="M143.2513,228.0168a6.3931,6.3931,0,0,1,1.3775-.5052,4.6926,4.6926,0,0,0,1.4185-.2938.6844.6844,0,0,0,0-1.1687,2.5063,2.5063,0,0,0-1.9222-.0168,4.531,4.531,0,0,0-1.7045.9078c-.6328.5263.173,1.3961.8308,1.0767Z"/><path class="cls-5" d="M148.9408,223.4307c.0506.83.0846,1.6493.1921,2.4768a.6152.6152,0,0,0,.91.5222c.9636-.465,2.4543.4785,2.0259,1.6088a1.6257,1.6257,0,0,1-2.3025.6374.58.58,0,0,0-.6994.9065c1.3521,1.4556,4.0516.2016,4.2864-1.6249.27-2.0981-2.17-3.4281-3.9209-2.5723l.8885.3615c-.1116-.8265-.292-1.6258-.4594-2.4406a.4708.4708,0,0,0-.9208.1246Z"/><path class="cls-5" d="M149.672,223.576a17.2251,17.2251,0,0,1,4.0115-.8355c.5531-.0739.8326-.978.148-1.0934a7.144,7.144,0,0,0-4.5658.965c-.5079.2836-.1636,1.1807.4063.9639Z"/><path class="cls-5" d="M155.1453,222.0866a7.2666,7.2666,0,0,0,1.3668,6.4007.6334.6334,0,0,0,.6852.2788,4.2584,4.2584,0,0,0,2.3439-6.6679A3.7276,3.7276,0,0,0,156.13,220.5c-1.1775.2148-2.0307,1.17-1.5061,2.3316.3065.6785,1.26.1686,1.1352-.4786-.196-1.0158,1.8112-.284,2.13-.0552a2.95,2.95,0,0,1-1.0142,5.2984l.59.156a7.0281,7.0281,0,0,1-1.3991-5.5408c.0691-.5333-.7842-.62-.9208-.1246Z"/><path class="cls-5" d="M161.36,220.39a5.2449,5.2449,0,0,0-.5165,5.4439c.6956,1.4422,2.6545,3.056,3.8917,1.2183,1.0739-1.5952,1.7426-4.5349.67-6.2668-.8326-1.3441-2.7657-2.1631-4.0752-1.03-.4307.3727.0271,1.2113.5758.9891,3.0171-1.2216,3.2391,3.3485,2.0411,5.0666q-.1886,1.0356-1.3917.3715l-.3675-.4758a4.248,4.248,0,0,1-.615-1.615,4.7235,4.7235,0,0,1,.6274-3.2109c.33-.5492-.4768-.9828-.84-.4909Z"/><path class="cls-3" d="M207.5411,77.2031c-.2917-.8858.6431-3.0248,1.0839-3.66,1.6038-2.3112,4.6642-3.5069,7.0352-4.8158,2.8831-1.5916,4.6249-2.8705,5.3917-6.3355.5938-2.6832.2894-5.5211.1695-8.2364-.1332-3.0141-.059-6.0312-.2093-9.0478-.1487-2.9823-.6595-5.81-.9641-8.7445a22.862,22.862,0,0,0-.2572-3.83c1.9808-1.4418,5.4982-1.1,7.8916-1.0821,1.2813.0095,3.0256-.7186,3.9692.5592,1.0095,1.3671.53,4.322.5921,5.8844.1784,4.5.4825,8.9789.4885,13.4867.0076,5.7818-.8,11.57-.9319,17.2686a.7861.7861,0,0,1,.3355.113c3.7621-4.4354,3.205-11.5308,2.8525-16.8214-.2818-4.23-.86-8.5558-.6615-12.8057.1154-2.4692.5756-5.19.0272-7.5785,1.4609-.0105,15.1992-.2252,15.1636-1.1284a28.162,28.162,0,0,1-.092,3.3413c-.2674,3.3677-.3937,6.7829-.7115,10.1352-.3886,4.1-.683,8.3187-1.4081,12.3923a47.9586,47.9586,0,0,0-.64,10.9255c.1157,2.2277,1.1038,5.1205.4719,7.1977-.7732,2.5418-3.3257,1.7868-5.6341,1.9176-3.8409.2176-7.46.9481-11.3091.9552-1.5842.0029-8.714,1.6505-7.87-1.1826.4676-1.5707,3.2492-2.5371,2.861-4.2188-1.9393-.3653-3.3821,1.1207-4.6176,2.4586-.9467,1.0251-1.7493,2.3795-2.9566,3.1287-1.6912,1.05-2.8149-.2134-4.7181-.1726-1.2509.0269-4.6569,1.1437-5.2951.0246A.7052.7052,0,0,1,207.5411,77.2031Z"/><path class="cls-6" d="M218.0064,31.8531c3.1278.2006,6.3221-.6891,9.4511-.5121,1.0179.0576,2.0285-.2281,3.042-.1359.9724.0885,1.356.6072,2.65.4094a73.8274,73.8274,0,0,1,7.711-.73c1.7831-.0852,3.58.07,5.3547-.143a6.5211,6.5211,0,0,1,2.6427-.1937c.5309-1.805,1.7587-6.1193-.6586-6.8652-1.7851-.5508-4.5346.5653-6.3363.8113a31.776,31.776,0,0,1-5.7921.32,60.5866,60.5866,0,0,0-11.6858.4946,38.8778,38.8778,0,0,0-4.1731.9739,13.967,13.967,0,0,0-2.6886.6092C216.3862,27.621,216.4657,30.9564,218.0064,31.8531Z"/><path class="cls-6" d="M245.6971,81.9524a3.0142,3.0142,0,0,0,2.6772-4.476c-1.0323-2.3177-2.8424-2.03-5.1795-1.3779a53.9454,53.9454,0,0,1-14.8428,2.0125c-1.6768,0-3.3537.0043-5.03,0a11.5294,11.5294,0,0,0-3.21.192c-.4884.149-.9419.7076-1.5174.77-1.0445.1133-.9549-.3685-1.8561-.7617-1.32-.5762-2.2133-.1436-3.553-.0675-2.5041.1423-5.04.0794-7.6061.2116-1.2443,5.7963,10.2194,2.9382,13.3009,3.1711a45.6229,45.6229,0,0,0,9.3827.172c3.0165-.3812,5.4022-1.5917,8.4669-1.271A73.6925,73.6925,0,0,1,245.6971,81.9524Z"/><path class="cls-5" d="M230.994,82.2034c1.4949-.4422,2.7953-1.2263,4.3965-.8017a19.2241,19.2241,0,0,0,3.3395.8185,25.5551,25.5551,0,0,0,9.2246-.5151.8288.8288,0,0,0,.5848-.768c.6819-5.5841-1.6021-10.9609-1.0925-16.5786.5318-5.8619,1.4019-11.6456,1.7756-17.5329.3879-6.11.6432-12.2289.7184-18.3509.0165-1.3428.5062-3.8249-.8758-4.7835-1.5069-1.0451-4.8992-.0179-6.5569.13-2.9631.2648-5.9278.516-8.89.7945-1.6131.1517-3.2591.2453-3.6781,2.09-.4935,2.1725.2768,5.0593.4339,7.2616q.35,4.9116.5782,9.8311.4351,9.3446.4366,18.7051c-.0042,2.9841.0515,6.2181-3.2343,7.4546-1.936.7286-3.99.8717-5.815,1.9229-2.5006,1.4407-6.88,6.324-4.8065,9.5008,1.0747,1.6469,3.6428,1.3083,5.3389,1.3768a29.6769,29.6769,0,0,0,8.1514-.4478c.9814-.2391.5658-1.7538-.4175-1.5142a24.9655,24.9655,0,0,1-6.4217.42,17.0212,17.0212,0,0,1-3.0362-.129,3.02,3.02,0,0,1-2.3542-1.9527c-.1071-.535.5323-1.652.7751-2.126a9.2136,9.2136,0,0,1,4.9871-4.4145c1.5819-.579,3.3047-.7062,4.8393-1.4311,2.9573-1.3968,3.5265-4.3336,3.574-7.3258.08-5.0353-.0654-10.0869-.2406-15.1189q-.2657-7.6281-.82-15.2423-.1244-1.7189-.263-3.4368c-.1693-2.0928-.8144-3.0052,1.9722-3.8482,2.3521-.7115,5.4436-.4842,7.9019-.7028l3.4571-.3075c1.6389-.1458,2.9388-.6955,3.399,1.308a15.6275,15.6275,0,0,1-.04,3.4748q-.0384,2.2335-.1079,4.4663c-.1577,5.1273-.4314,10.25-.792,15.3674-.3641,5.1669-1.2951,10.2683-1.6508,15.4259-.3666,5.3163,1.8085,10.4164,1.1605,15.7139l.5848-.768a20.8,20.8,0,0,1-10.6.14c-2.6716-.783-3.7526-.4258-6.2954.595C229.8531,81.218,230.1406,82.4558,230.994,82.2034Z"/><path class="cls-5" d="M236.239,24.453a3.645,3.645,0,0,0-2.4391-.5069,53.233,53.233,0,0,0-5.6464.3675c-3.7427.3643-7.4694.8624-11.2,1.332-.3716.0468-.7923.3068-.75.75.7849,8.2331,1.6321,16.4625,2.0973,24.7218a60.5923,60.5923,0,0,1-.024,8.9363c-.2581,2.8106-.7495,6.7033-3.36,8.3658-2.5863,1.6469-6.0685.8759-8.47,2.9948-1.7291,1.5253-2.35,4.1469-2.3244,6.3764.0256,2.1837.8254,4.1721,3.1157,4.677,1.6292.3591,3.3222-.1051,4.9418-.288,2.0406-.23,4.09-.25,6.1244-.5523.9515-.1413.5471-1.5869-.3988-1.4464-2.1764.3233-4.38.3334-6.5622.6043-1.9529.2425-4.5579.9926-5.5039-1.3521-1.1162-2.7667.5005-6.8105,3.2342-7.8241,2.3836-.8838,5.1233-.6522,7.2031-2.3126a9.0216,9.0216,0,0,0,2.7463-4.7575c1.3424-4.7891,1.0069-10.0328.6845-14.9367-.51-7.7507-1.2662-15.4752-2.0032-23.2066l-.75.75c3.176-.4,6.3491-.8208,9.5323-1.161,1.7486-.1869,3.5009-.3619,5.2568-.4647.6106-.0357,2.9779-.4269,3.4355-.0062.71.6524,1.7732-.4057,1.0607-1.0607Z"/><path class="cls-5" d="M238.4132,39.12a81.7044,81.7044,0,0,0,10.4452-1.0743c.6712-.1174.5138-1.2133-.16-1.1855a81.7049,81.7049,0,0,0-10.43,1.1836c-.6093.1056-.4665,1.1024.1456,1.0761Z"/><path class="cls-5" d="M238.794,42.6482c3.054.12,6.1206-.3284,9.1705-.4385a.6449.6449,0,0,0,0-1.2891c-3.0589-.0481-6.12.3791-9.1705.5615a.5834.5834,0,0,0,0,1.166Z"/><path class="cls-5" d="M238.859,45.9011a52.608,52.608,0,0,0,8.95-.1374.6244.6244,0,0,0,0-1.248,53.1977,53.1977,0,0,0-9.0594.5741c-.494.094-.3162.7645.11.8114Z"/><path class="cls-5" d="M230.9723,32.3951c2.939-.026,5.902-.4661,8.826-.7594q1.9614-.1968,3.9227-.3952c1.4029-.1413,3.1276-.6094,4.5067-.13.8692.3019,1.1812-1.0145.3723-1.35-2.3133-.9606-5.8972.1545-8.3113.4008-3.1476.3211-6.3625.4936-9.47,1.1008-.6461.1262-.4874,1.1394.1534,1.1337Z"/><path class="cls-5" d="M217.8605,32.6594a26.16,26.16,0,0,1,5.418-.5779c1.8122-.1568,3.6281-.3027,5.4361-.5014.7328-.0805.7658-1.2162,0-1.1719-2.2319.1293-4.4631.325-6.6906.516a14.184,14.184,0,0,0-4.5676.7767c-.5463.2372-.1569,1.134.4041.9585Z"/><path class="cls-5" d="M218.1393,79.3467c9.5761-.56,19.3515-1.3914,28.844-2.7793.6825-.1.5257-1.2565-.1636-1.2085-9.5442.6644-19.1792,1.75-28.68,2.88-.689.082-.726,1.15,0,1.1074Z"/><path class="cls-5" d="M206.0685,78.8483a70.7355,70.7355,0,0,0,9.9945-.2213.6508.6508,0,0,0,0-1.3008,71.9764,71.9764,0,0,0-10.1331.4978c-.6138.0868-.41.9853.1386,1.0243Z"/><path class="cls-3" d="M150.9683,77.2031c-.2917-.8858.6431-3.0248,1.0839-3.66,1.6038-2.3112,4.6642-3.5069,7.0352-4.8158,2.8831-1.5916,4.6249-2.8705,5.3917-6.3355.5938-2.6832.2894-5.5211.1695-8.2364-.1332-3.0141-.059-6.0312-.2093-9.0478-.1487-2.9823-.6595-5.81-.9641-8.7445a22.862,22.862,0,0,0-.2572-3.83c1.9808-1.4418,5.4982-1.1,7.8916-1.0821,1.2813.0095,3.0256-.7186,3.9692.5592,1.0095,1.3671.53,4.322.5921,5.8844.1784,4.5.4825,8.9789.4885,13.4867.0076,5.7818-.8,11.57-.9319,17.2686a.7861.7861,0,0,1,.3355.113c3.7621-4.4354,3.205-11.5308,2.8525-16.8214-.2818-4.23-.86-8.5558-.6615-12.8057.1154-2.4692.5756-5.19.0272-7.5785,1.4609-.0105,15.1992-.2252,15.1636-1.1284a28.162,28.162,0,0,1-.092,3.3413c-.2674,3.3677-.3937,6.7829-.7115,10.1352-.3886,4.1-.683,8.3187-1.4081,12.3923a47.9586,47.9586,0,0,0-.64,10.9255c.1157,2.2277,1.1038,5.1205.4719,7.1977-.7732,2.5418-3.3257,1.7868-5.6341,1.9176-3.8409.2176-7.46.9481-11.3091.9552-1.5842.0029-8.714,1.6505-7.87-1.1826.4676-1.5707,3.2492-2.5371,2.861-4.2188-1.9393-.3653-3.3821,1.1207-4.6176,2.4586-.9467,1.0251-1.7493,2.3795-2.9566,3.1287-1.6912,1.05-2.8149-.2134-4.7181-.1726-1.2509.0269-4.6569,1.1437-5.2951.0246A.7052.7052,0,0,1,150.9683,77.2031Z"/><path class="cls-6" d="M161.4336,31.8531c3.1278.2006,6.3221-.6891,9.4511-.5121,1.0179.0576,2.0285-.2281,3.042-.1359.9724.0885,1.356.6072,2.65.4094a73.8274,73.8274,0,0,1,7.711-.73c1.7831-.0852,3.58.07,5.3547-.143a6.5211,6.5211,0,0,1,2.6427-.1937c.5309-1.805,1.7587-6.1193-.6586-6.8652-1.7851-.5508-4.5346.5653-6.3363.8113a31.776,31.776,0,0,1-5.7921.32,60.5866,60.5866,0,0,0-11.6858.4946,38.8778,38.8778,0,0,0-4.1731.9739,13.967,13.967,0,0,0-2.6886.6092C159.8134,27.621,159.8929,30.9564,161.4336,31.8531Z"/><path class="cls-6" d="M189.1243,81.9524a3.0142,3.0142,0,0,0,2.6772-4.476c-1.0323-2.3177-2.8424-2.03-5.1795-1.3779a53.9454,53.9454,0,0,1-14.8428,2.0125c-1.6768,0-3.3537.0043-5.03,0a11.5294,11.5294,0,0,0-3.21.192c-.4884.149-.9419.7076-1.5174.77-1.0445.1133-.9549-.3685-1.8561-.7617-1.32-.5762-2.2133-.1436-3.553-.0675-2.5041.1423-5.04.0794-7.6061.2116-1.2443,5.7963,10.2194,2.9382,13.3009,3.1711a45.6229,45.6229,0,0,0,9.3827.172c3.0165-.3812,5.4022-1.5917,8.4669-1.271A73.6925,73.6925,0,0,1,189.1243,81.9524Z"/><path class="cls-5" d="M174.4212,82.2034c1.4949-.4422,2.7953-1.2263,4.3965-.8017a19.2241,19.2241,0,0,0,3.3395.8185,25.5551,25.5551,0,0,0,9.2246-.5151.8288.8288,0,0,0,.5848-.768c.6819-5.5841-1.6021-10.9609-1.0925-16.5786.5318-5.8619,1.4019-11.6456,1.7756-17.5329.3879-6.11.6432-12.2289.7184-18.3509.0165-1.3428.5062-3.8249-.8758-4.7835-1.5069-1.0451-4.8992-.0179-6.5569.13-2.9631.2648-5.9278.516-8.89.7945-1.6131.1517-3.2591.2453-3.6781,2.09-.4935,2.1725.2768,5.0593.4339,7.2616q.35,4.9116.5782,9.8311.4351,9.3446.4366,18.7051c-.0042,2.9841.0515,6.2181-3.2343,7.4546-1.936.7286-3.99.8717-5.815,1.9229-2.5006,1.4407-6.88,6.324-4.8065,9.5008,1.0747,1.6469,3.6428,1.3083,5.3389,1.3768a29.6769,29.6769,0,0,0,8.1514-.4478c.9814-.2391.5658-1.7538-.4175-1.5142a24.9655,24.9655,0,0,1-6.4217.42,17.0212,17.0212,0,0,1-3.0362-.129,3.02,3.02,0,0,1-2.3542-1.9527c-.1071-.535.5323-1.652.7751-2.126a9.2136,9.2136,0,0,1,4.9871-4.4145c1.5819-.579,3.3047-.7062,4.8393-1.4311,2.9573-1.3968,3.5265-4.3336,3.574-7.3258.08-5.0353-.0654-10.0869-.2406-15.1189q-.2657-7.6281-.82-15.2423-.1244-1.7189-.263-3.4368c-.1693-2.0928-.8144-3.0052,1.9722-3.8482,2.3521-.7115,5.4436-.4842,7.9019-.7028l3.4571-.3075c1.6389-.1458,2.9388-.6955,3.399,1.308a15.6275,15.6275,0,0,1-.04,3.4748q-.0384,2.2335-.1079,4.4663c-.1577,5.1273-.4314,10.25-.792,15.3674-.3641,5.1669-1.2951,10.2683-1.6508,15.4259-.3666,5.3163,1.8085,10.4164,1.1605,15.7139l.5848-.768a20.8,20.8,0,0,1-10.6.14c-2.6716-.783-3.7526-.4258-6.2954.595C173.28,81.218,173.5678,82.4558,174.4212,82.2034Z"/><path class="cls-5" d="M179.6663,24.453a3.645,3.645,0,0,0-2.4391-.5069,53.233,53.233,0,0,0-5.6464.3675c-3.7427.3643-7.4694.8624-11.2,1.332-.3716.0468-.7923.3068-.75.75.7849,8.2331,1.6321,16.4625,2.0973,24.7218a60.5922,60.5922,0,0,1-.024,8.9363c-.2581,2.8106-.7495,6.7033-3.36,8.3658-2.5863,1.6469-6.0685.8759-8.47,2.9948-1.7291,1.5253-2.35,4.1469-2.3244,6.3764.0256,2.1837.8254,4.1721,3.1157,4.677,1.6292.3591,3.3222-.1051,4.9418-.288,2.0406-.23,4.09-.25,6.1244-.5523.9515-.1413.5471-1.5869-.3988-1.4464-2.1764.3233-4.38.3334-6.5622.6043-1.9529.2425-4.5579.9926-5.5039-1.3521-1.1162-2.7667.5005-6.8105,3.2342-7.8241,2.3836-.8838,5.1233-.6522,7.2031-2.3126a9.0216,9.0216,0,0,0,2.7463-4.7575c1.3424-4.7891,1.0069-10.0328.6845-14.9367-.51-7.7507-1.2662-15.4752-2.0032-23.2066l-.75.75c3.176-.4,6.3491-.8208,9.5323-1.161,1.7486-.1869,3.5009-.3619,5.2568-.4647.6106-.0357,2.9779-.4269,3.4355-.0062.71.6524,1.7732-.4057,1.0607-1.0607Z"/><path class="cls-5" d="M181.84,39.12a81.7044,81.7044,0,0,0,10.4452-1.0743c.6712-.1174.5138-1.2133-.16-1.1855a81.7049,81.7049,0,0,0-10.43,1.1836c-.6093.1056-.4665,1.1024.1456,1.0761Z"/><path class="cls-5" d="M182.2212,42.6482c3.054.12,6.1206-.3284,9.1705-.4385a.6449.6449,0,0,0,0-1.2891c-3.0589-.0481-6.12.3791-9.1705.5615a.5834.5834,0,0,0,0,1.166Z"/><path class="cls-5" d="M182.2862,45.9011a52.608,52.608,0,0,0,8.95-.1374.6244.6244,0,0,0,0-1.248,53.1977,53.1977,0,0,0-9.0594.5741c-.494.094-.3162.7645.11.8114Z"/><path class="cls-5" d="M174.4,32.3951c2.939-.026,5.902-.4661,8.826-.7594q1.9614-.1968,3.9227-.3952c1.4029-.1413,3.1276-.6094,4.5067-.13.8692.3019,1.1812-1.0145.3723-1.35-2.3133-.9606-5.8972.1545-8.3113.4008-3.1476.3211-6.3625.4936-9.47,1.1008-.6461.1262-.4874,1.1394.1534,1.1337Z"/><path class="cls-5" d="M161.2877,32.6594a26.16,26.16,0,0,1,5.418-.5779c1.8122-.1568,3.6281-.3027,5.4361-.5014.7328-.0805.7658-1.2162,0-1.1719-2.2319.1293-4.4631.325-6.6906.516a14.184,14.184,0,0,0-4.5676.7767c-.5463.2372-.1569,1.134.4041.9585Z"/><path class="cls-5" d="M161.5665,79.3467c9.5761-.56,19.3515-1.3914,28.844-2.7793.6825-.1.5257-1.2565-.1636-1.2085-9.5442.6644-19.1792,1.75-28.68,2.88-.689.082-.726,1.15,0,1.1074Z"/><path class="cls-5" d="M149.4957,78.8483a70.7355,70.7355,0,0,0,9.9945-.2213.6508.6508,0,0,0,0-1.3008,71.9764,71.9764,0,0,0-10.1331.4978c-.6138.0868-.41.9853.1386,1.0243Z"/><path class="cls-3" d="M94.3955,77.2031c-.2917-.8858.6431-3.0248,1.0839-3.66,1.6038-2.3112,4.6642-3.5069,7.0352-4.8158,2.8831-1.5916,4.6249-2.8705,5.3917-6.3355.5938-2.6832.2894-5.5211.1695-8.2364-.1332-3.0141-.059-6.0312-.2093-9.0478-.1487-2.9823-.6595-5.81-.9641-8.7445a22.862,22.862,0,0,0-.2572-3.83c1.9808-1.4418,5.4982-1.1,7.8916-1.0821,1.2813.0095,3.0256-.7186,3.9692.5592,1.0095,1.3671.53,4.322.5921,5.8844.1784,4.5.4825,8.9789.4885,13.4867.0076,5.7818-.8,11.57-.9319,17.2686a.7861.7861,0,0,1,.3355.113c3.7621-4.4354,3.205-11.5308,2.8525-16.8214-.2818-4.23-.86-8.5558-.6615-12.8057.1154-2.4692.5756-5.19.0272-7.5785,1.4609-.0105,15.1992-.2252,15.1636-1.1284a28.162,28.162,0,0,1-.092,3.3413c-.2674,3.3677-.3937,6.7829-.7115,10.1352-.3886,4.1-.683,8.3187-1.4081,12.3923a47.9586,47.9586,0,0,0-.64,10.9255c.1157,2.2277,1.1038,5.1205.4719,7.1977-.7732,2.5418-3.3257,1.7868-5.6341,1.9176-3.8409.2176-7.46.9481-11.3091.9552-1.5842.0029-8.714,1.6505-7.87-1.1826.4676-1.5707,3.2492-2.5371,2.861-4.2188-1.9393-.3653-3.3821,1.1207-4.6176,2.4586-.9467,1.0251-1.7493,2.3795-2.9566,3.1287-1.6912,1.05-2.8149-.2134-4.7181-.1726-1.2509.0269-4.6569,1.1437-5.2951.0246A.7052.7052,0,0,1,94.3955,77.2031Z"/><path class="cls-6" d="M104.8608,31.8531c3.1278.2006,6.3221-.6891,9.4511-.5121,1.0179.0576,2.0285-.2281,3.042-.1359.9724.0885,1.356.6072,2.65.4094a73.8274,73.8274,0,0,1,7.711-.73c1.7831-.0852,3.58.07,5.3547-.143a6.5211,6.5211,0,0,1,2.6427-.1937c.5309-1.805,1.7587-6.1193-.6586-6.8652-1.7851-.5508-4.5346.5653-6.3363.8113a31.776,31.776,0,0,1-5.7921.32,60.5866,60.5866,0,0,0-11.6858.4946,38.8778,38.8778,0,0,0-4.1731.9739,13.967,13.967,0,0,0-2.6886.6092C103.2406,27.621,103.32,30.9564,104.8608,31.8531Z"/><path class="cls-6" d="M132.5515,81.9524a3.0142,3.0142,0,0,0,2.6772-4.476c-1.0323-2.3177-2.8424-2.03-5.1795-1.3779a53.9454,53.9454,0,0,1-14.8428,2.0125c-1.6768,0-3.3537.0043-5.03,0a11.5294,11.5294,0,0,0-3.21.192c-.4884.149-.9419.7076-1.5174.77-1.0445.1133-.9549-.3685-1.8561-.7617-1.32-.5762-2.2133-.1436-3.553-.0675-2.5041.1423-5.04.0794-7.6061.2116-1.2443,5.7963,10.2194,2.9382,13.3009,3.1711a45.6229,45.6229,0,0,0,9.3827.172c3.0165-.3812,5.4022-1.5917,8.4669-1.271A73.6925,73.6925,0,0,1,132.5515,81.9524Z"/><path class="cls-5" d="M117.8484,82.2034c1.4949-.4422,2.7953-1.2263,4.3965-.8017a19.2241,19.2241,0,0,0,3.3395.8185,25.5551,25.5551,0,0,0,9.2246-.5151.8288.8288,0,0,0,.5848-.768c.6819-5.5841-1.6021-10.9609-1.0925-16.5786.5318-5.8619,1.4019-11.6456,1.7756-17.5329.3879-6.11.6432-12.2289.7184-18.3509.0165-1.3428.5062-3.8249-.8758-4.7835-1.5069-1.0451-4.8992-.0179-6.5569.13-2.9631.2648-5.9278.516-8.89.7945-1.6131.1517-3.2591.2453-3.6781,2.09-.4935,2.1725.2768,5.0593.4339,7.2616q.35,4.9116.5782,9.8311.4351,9.3446.4366,18.7051c-.0042,2.9841.0515,6.2181-3.2343,7.4546-1.936.7286-3.99.8717-5.815,1.9229-2.5006,1.4407-6.88,6.324-4.8065,9.5008,1.0747,1.6469,3.6428,1.3083,5.3389,1.3768a29.6769,29.6769,0,0,0,8.1514-.4478c.9814-.2391.5658-1.7538-.4175-1.5142a24.9655,24.9655,0,0,1-6.4217.42,17.0212,17.0212,0,0,1-3.0362-.129,3.02,3.02,0,0,1-2.3542-1.9527c-.1071-.535.5323-1.652.7751-2.126a9.2136,9.2136,0,0,1,4.9871-4.4145c1.5819-.579,3.3047-.7062,4.8393-1.4311,2.9573-1.3968,3.5265-4.3336,3.574-7.3258.08-5.0353-.0654-10.0869-.2406-15.1189q-.2657-7.6281-.82-15.2423-.1244-1.7189-.263-3.4368c-.1693-2.0928-.8144-3.0052,1.9722-3.8482,2.3521-.7115,5.4436-.4842,7.9019-.7028l3.4571-.3075c1.6389-.1458,2.9388-.6955,3.399,1.308a15.6275,15.6275,0,0,1-.04,3.4748q-.0384,2.2335-.1079,4.4663c-.1577,5.1273-.4314,10.25-.792,15.3674-.3641,5.1669-1.2951,10.2683-1.6508,15.4259-.3666,5.3163,1.8085,10.4164,1.1605,15.7139l.5848-.768a20.8,20.8,0,0,1-10.6.14c-2.6716-.783-3.7526-.4258-6.2954.595C116.7075,81.218,116.995,82.4558,117.8484,82.2034Z"/><path class="cls-5" d="M123.0935,24.453a3.645,3.645,0,0,0-2.4391-.5069,53.233,53.233,0,0,0-5.6464.3675c-3.7427.3643-7.4694.8624-11.2,1.332-.3716.0468-.7923.3068-.75.75.7849,8.2331,1.6321,16.4625,2.0973,24.7218a60.5922,60.5922,0,0,1-.024,8.9363c-.2581,2.8106-.7495,6.7033-3.36,8.3658-2.5863,1.6469-6.0685.8759-8.47,2.9948-1.7291,1.5253-2.35,4.1469-2.3244,6.3764.0256,2.1837.8254,4.1721,3.1157,4.677,1.6292.3591,3.3222-.1051,4.9418-.288,2.0406-.23,4.09-.25,6.1244-.5523.9515-.1413.5471-1.5869-.3988-1.4464-2.1764.3233-4.38.3334-6.5622.6043-1.9529.2425-4.5579.9926-5.5039-1.3521-1.1162-2.7667.5005-6.8105,3.2342-7.8241,2.3836-.8838,5.1233-.6522,7.2031-2.3126a9.0216,9.0216,0,0,0,2.7463-4.7575c1.3424-4.7891,1.0069-10.0328.6845-14.9367-.51-7.7507-1.2662-15.4752-2.0032-23.2066l-.75.75c3.176-.4,6.3491-.8208,9.5323-1.161,1.7486-.1869,3.5009-.3619,5.2568-.4647.6106-.0357,2.9779-.4269,3.4355-.0062.71.6524,1.7732-.4057,1.0607-1.0607Z"/><path class="cls-5" d="M125.2677,39.12a81.7044,81.7044,0,0,0,10.4452-1.0743c.6712-.1174.5138-1.2133-.16-1.1855a81.7049,81.7049,0,0,0-10.43,1.1836c-.6093.1056-.4665,1.1024.1456,1.0761Z"/><path class="cls-5" d="M125.6484,42.6482c3.054.12,6.1206-.3284,9.1705-.4385a.6449.6449,0,0,0,0-1.2891c-3.0589-.0481-6.12.3791-9.1705.5615a.5834.5834,0,0,0,0,1.166Z"/><path class="cls-5" d="M125.7134,45.9011a52.608,52.608,0,0,0,8.95-.1374.6244.6244,0,0,0,0-1.248,53.1977,53.1977,0,0,0-9.0594.5741c-.494.094-.3162.7645.11.8114Z"/><path class="cls-5" d="M117.8267,32.3951c2.939-.026,5.902-.4661,8.826-.7594q1.9614-.1968,3.9227-.3952c1.4029-.1413,3.1276-.6094,4.5067-.13.8692.3019,1.1812-1.0145.3723-1.35-2.3133-.9606-5.8972.1545-8.3113.4008-3.1476.3211-6.3625.4936-9.47,1.1008-.6461.1262-.4874,1.1394.1534,1.1337Z"/><path class="cls-5" d="M104.715,32.6594a26.16,26.16,0,0,1,5.418-.5779c1.8122-.1568,3.6281-.3027,5.4361-.5014.7328-.0805.7658-1.2162,0-1.1719-2.2319.1293-4.4631.325-6.6906.516a14.184,14.184,0,0,0-4.5676.7767c-.5463.2372-.1569,1.134.4041.9585Z"/><path class="cls-5" d="M104.9937,79.3467c9.5761-.56,19.3515-1.3914,28.844-2.7793.6825-.1.5257-1.2565-.1636-1.2085-9.5442.6644-19.1792,1.75-28.68,2.88-.689.082-.726,1.15,0,1.1074Z"/><path class="cls-5" d="M92.9229,78.8483a70.7355,70.7355,0,0,0,9.9945-.2213.6508.6508,0,0,0,0-1.3008,71.9764,71.9764,0,0,0-10.1331.4978c-.6138.0868-.41.9853.1386,1.0243Z"/><path class="cls-3" d="M37.8227,77.2031c-.2917-.8858.6431-3.0248,1.0839-3.66,1.6038-2.3112,4.6642-3.5069,7.0352-4.8158,2.8831-1.5916,4.6249-2.8705,5.3917-6.3355.5938-2.6832.2894-5.5211.1695-8.2364-.1332-3.0141-.059-6.0312-.2093-9.0478-.1487-2.9823-.6595-5.81-.9641-8.7445a22.862,22.862,0,0,0-.2572-3.83c1.9808-1.4418,5.4982-1.1,7.8916-1.0821,1.2813.0095,3.0256-.7186,3.9692.5592,1.0095,1.3671.53,4.322.5921,5.8844.1784,4.5.4825,8.9789.4885,13.4867.0076,5.7818-.8,11.57-.9319,17.2686a.7861.7861,0,0,1,.3355.113c3.7621-4.4354,3.205-11.5308,2.8525-16.8214-.2818-4.23-.86-8.5558-.6615-12.8057.1154-2.4692.5756-5.19.0272-7.5785,1.4609-.0105,15.1992-.2252,15.1636-1.1284a28.162,28.162,0,0,1-.092,3.3413c-.2674,3.3677-.3937,6.7829-.7115,10.1352-.3886,4.1-.683,8.3187-1.4081,12.3923a47.9586,47.9586,0,0,0-.64,10.9255c.1157,2.2277,1.1038,5.1205.4719,7.1977-.7732,2.5418-3.3257,1.7868-5.6341,1.9176-3.8409.2176-7.46.9481-11.3091.9552-1.5842.0029-8.714,1.6505-7.87-1.1826.4676-1.5707,3.2492-2.5371,2.861-4.2188-1.9393-.3653-3.3821,1.1207-4.6176,2.4586-.9467,1.0251-1.7493,2.3795-2.9566,3.1287-1.6912,1.05-2.8149-.2134-4.7181-.1726-1.2509.0269-4.6569,1.1437-5.2951.0246A.7052.7052,0,0,1,37.8227,77.2031Z"/><path class="cls-6" d="M48.2881,31.8531c3.1278.2006,6.3221-.6891,9.4511-.5121,1.0179.0576,2.0285-.2281,3.042-.1359.9724.0885,1.356.6072,2.65.4094a73.8274,73.8274,0,0,1,7.711-.73c1.7831-.0852,3.58.07,5.3547-.143a6.5211,6.5211,0,0,1,2.6427-.1937c.5309-1.805,1.7587-6.1193-.6586-6.8652-1.7851-.5508-4.5346.5653-6.3363.8113a31.776,31.776,0,0,1-5.7921.32,60.5866,60.5866,0,0,0-11.6858.4946,38.8778,38.8778,0,0,0-4.1731.9739,13.967,13.967,0,0,0-2.6886.6092C46.6678,27.621,46.7474,30.9564,48.2881,31.8531Z"/><path class="cls-6" d="M75.9787,81.9524a3.0142,3.0142,0,0,0,2.6772-4.476c-1.0323-2.3177-2.8424-2.03-5.1795-1.3779a53.9454,53.9454,0,0,1-14.8428,2.0125c-1.6768,0-3.3537.0043-5.03,0a11.5294,11.5294,0,0,0-3.21.192c-.4884.149-.9419.7076-1.5174.77-1.0445.1133-.9549-.3685-1.8561-.7617-1.32-.5762-2.2133-.1436-3.553-.0675-2.5041.1423-5.04.0794-7.6061.2116-1.2443,5.7963,10.2194,2.9382,13.3009,3.1711a45.6229,45.6229,0,0,0,9.3827.172c3.0165-.3812,5.4022-1.5917,8.4669-1.271A73.6925,73.6925,0,0,1,75.9787,81.9524Z"/><path class="cls-5" d="M61.2757,82.2034c1.4949-.4422,2.7953-1.2263,4.3965-.8017a19.2241,19.2241,0,0,0,3.3395.8185,25.5551,25.5551,0,0,0,9.2246-.5151.8288.8288,0,0,0,.5848-.768c.6819-5.5841-1.6021-10.9609-1.0925-16.5786.5318-5.8619,1.4019-11.6456,1.7756-17.5329.3879-6.11.6432-12.2289.7184-18.3509.0165-1.3428.5062-3.8249-.8758-4.7835-1.5069-1.0451-4.8992-.0179-6.5569.13-2.9631.2648-5.9278.516-8.89.7945-1.6131.1517-3.2591.2453-3.6781,2.09-.4935,2.1725.2768,5.0593.4339,7.2616q.35,4.9116.5782,9.8311.4351,9.3446.4366,18.7051c-.0042,2.9841.0515,6.2181-3.2343,7.4546-1.936.7286-3.99.8717-5.815,1.9229-2.5006,1.4407-6.88,6.324-4.8065,9.5008,1.0747,1.6469,3.6428,1.3083,5.3389,1.3768a29.6769,29.6769,0,0,0,8.1514-.4478c.9814-.2391.5658-1.7538-.4175-1.5142a24.9655,24.9655,0,0,1-6.4217.42,17.0212,17.0212,0,0,1-3.0362-.129,3.02,3.02,0,0,1-2.3542-1.9527c-.1071-.535.5323-1.652.7751-2.126a9.2136,9.2136,0,0,1,4.9871-4.4145c1.5819-.579,3.3047-.7062,4.8393-1.4311,2.9573-1.3968,3.5265-4.3336,3.574-7.3258.08-5.0353-.0654-10.0869-.2406-15.1189q-.2657-7.6281-.82-15.2423-.1244-1.7189-.263-3.4368c-.1693-2.0928-.8144-3.0052,1.9722-3.8482,2.3521-.7115,5.4436-.4842,7.9019-.7028l3.4571-.3075c1.6389-.1458,2.9388-.6955,3.399,1.308a15.6275,15.6275,0,0,1-.04,3.4748Q78.58,32.1972,78.51,34.43c-.1577,5.1273-.4314,10.25-.792,15.3674-.3641,5.1669-1.2951,10.2683-1.6508,15.4259-.3666,5.3163,1.8085,10.4164,1.1605,15.7139l.5848-.768a20.8,20.8,0,0,1-10.6.14c-2.6716-.783-3.7526-.4258-6.2954.595C60.1347,81.218,60.4222,82.4558,61.2757,82.2034Z"/><path class="cls-5" d="M66.5207,24.453a3.645,3.645,0,0,0-2.4391-.5069,53.233,53.233,0,0,0-5.6464.3675c-3.7427.3643-7.4694.8624-11.2,1.332-.3716.0468-.7923.3068-.75.75.7849,8.2331,1.6321,16.4625,2.0973,24.7218a60.5922,60.5922,0,0,1-.024,8.9363c-.2581,2.8106-.7495,6.7033-3.36,8.3658-2.5863,1.6469-6.0685.8759-8.47,2.9948-1.7291,1.5253-2.35,4.1469-2.3244,6.3764.0256,2.1837.8254,4.1721,3.1157,4.677,1.6292.3591,3.3222-.1051,4.9418-.288,2.0406-.23,4.09-.25,6.1244-.5523.9515-.1413.5471-1.5869-.3988-1.4464-2.1764.3233-4.38.3334-6.5622.6043-1.9529.2425-4.5579.9926-5.5039-1.3521-1.1162-2.7667.5005-6.8105,3.2342-7.8241,2.3836-.8838,5.1233-.6522,7.2031-2.3126a9.0216,9.0216,0,0,0,2.7463-4.7575c1.3424-4.7891,1.0069-10.0328.6845-14.9367-.51-7.7507-1.2662-15.4752-2.0032-23.2066l-.75.75c3.176-.4,6.3491-.8208,9.5323-1.161,1.7486-.1869,3.5009-.3619,5.2568-.4647.6106-.0357,2.9779-.4269,3.4355-.0062.71.6524,1.7732-.4057,1.0607-1.0607Z"/><path class="cls-5" d="M68.6949,39.12A81.7044,81.7044,0,0,0,79.14,38.0462c.6712-.1174.5138-1.2133-.16-1.1855a81.7049,81.7049,0,0,0-10.43,1.1836c-.6093.1056-.4665,1.1024.1456,1.0761Z"/><path class="cls-5" d="M69.0756,42.6482c3.054.12,6.1206-.3284,9.1705-.4385a.6449.6449,0,0,0,0-1.2891c-3.0589-.0481-6.12.3791-9.1705.5615a.5834.5834,0,0,0,0,1.166Z"/><path class="cls-5" d="M69.1406,45.9011a52.608,52.608,0,0,0,8.95-.1374.6244.6244,0,0,0,0-1.248,53.1977,53.1977,0,0,0-9.0594.5741c-.494.094-.3162.7645.11.8114Z"/><path class="cls-5" d="M61.254,32.3951c2.939-.026,5.902-.4661,8.826-.7594q1.9614-.1968,3.9227-.3952c1.4029-.1413,3.1276-.6094,4.5067-.13.8692.3019,1.1812-1.0145.3723-1.35-2.3133-.9606-5.8972.1545-8.3113.4008-3.1476.3211-6.3625.4936-9.47,1.1008-.6461.1262-.4874,1.1394.1534,1.1337Z"/><path class="cls-5" d="M48.1422,32.6594a26.16,26.16,0,0,1,5.418-.5779c1.8122-.1568,3.6281-.3027,5.4361-.5014.7328-.0805.7658-1.2162,0-1.1719-2.2319.1293-4.4631.325-6.6906.516a14.184,14.184,0,0,0-4.5676.7767c-.5463.2372-.1569,1.134.4041.9585Z"/><path class="cls-5" d="M48.421,79.3467c9.5761-.56,19.3515-1.3914,28.844-2.7793.6825-.1.5257-1.2565-.1636-1.2085-9.5442.6644-19.1792,1.75-28.68,2.88-.689.082-.726,1.15,0,1.1074Z"/><path class="cls-5" d="M36.35,78.8483a70.7355,70.7355,0,0,0,9.9945-.2213.6508.6508,0,0,0,0-1.3008,71.9764,71.9764,0,0,0-10.1331.4978c-.6138.0868-.41.9853.1386,1.0243Z"/><path class="cls-5" d="M50.423,106.7008c-.8111.92-2.4752.3-2.15-.9525.4648-1.79,2.9831-.6261,2.5547,1.0826-.416,1.659-1.9264,3.3485-2.7641,4.8228a.689.689,0,0,0,1.189.695c.8243-1.3653,1.6656-2.7486,2.4009-4.1642a3.5167,3.5167,0,0,0,.4664-2.623,2.7291,2.7291,0,0,0-3.962-1.7154,2.5294,2.5294,0,0,0-.64,3.8226,2.3351,2.3351,0,0,0,3.6048-.4282c.278-.4177-.3639-.92-.6994-.54Z"/><path class="cls-5" d="M56.5742,106.7008c-.8111.92-2.4752.3-2.15-.9525.4648-1.79,2.9831-.6261,2.5547,1.0826-.416,1.659-1.9264,3.3485-2.7641,4.8228a.689.689,0,0,0,1.189.695c.8243-1.3653,1.6656-2.7486,2.4009-4.1642a3.5167,3.5167,0,0,0,.4664-2.623,2.7291,2.7291,0,0,0-3.962-1.7154,2.5294,2.5294,0,0,0-.64,3.8226,2.3351,2.3351,0,0,0,3.6048-.4282c.278-.4177-.3639-.92-.6994-.54Z"/><path class="cls-5" d="M62.7254,106.7008c-.8111.92-2.4752.3-2.15-.9525.4648-1.79,2.9831-.6261,2.5547,1.0826-.416,1.659-1.9264,3.3485-2.7641,4.8228a.689.689,0,0,0,1.189.695c.8243-1.3653,1.6656-2.7486,2.4009-4.1642a3.5167,3.5167,0,0,0,.4664-2.623,2.7291,2.7291,0,0,0-3.962-1.7154,2.5294,2.5294,0,0,0-.64,3.8226,2.3351,2.3351,0,0,0,3.6048-.4282c.278-.4177-.3639-.92-.6994-.54Z"/><path class="cls-5" d="M40.4423,109.6022c1.2159-.207,2.4392-.1616,3.6537-.33.52-.0722.48-.9063,0-1.0114a9.2681,9.2681,0,0,0-3.9528.2569c-.7154.1655-.4024,1.2042.2991,1.0848Z"/><path class="cls-5" d="M108.41,106.7008c-.8111.92-2.4752.3-2.15-.9525.4648-1.79,2.9831-.6261,2.5547,1.0826-.416,1.659-1.9264,3.3485-2.7641,4.8228a.689.689,0,0,0,1.189.695c.8243-1.3653,1.6656-2.7486,2.4009-4.1642a3.5167,3.5167,0,0,0,.4664-2.623,2.7291,2.7291,0,0,0-3.962-1.7154,2.5294,2.5294,0,0,0-.64,3.8226,2.3351,2.3351,0,0,0,3.6048-.4282c.278-.4177-.3639-.92-.6994-.54Z"/><path class="cls-5" d="M114.5614,106.7008c-.8111.92-2.4752.3-2.15-.9525.4648-1.79,2.9831-.6261,2.5547,1.0826-.416,1.659-1.9264,3.3485-2.7641,4.8228a.689.689,0,0,0,1.189.695c.8243-1.3653,1.6656-2.7486,2.4009-4.1642a3.5167,3.5167,0,0,0,.4664-2.623,2.7291,2.7291,0,0,0-3.962-1.7154,2.5294,2.5294,0,0,0-.64,3.8226,2.3351,2.3351,0,0,0,3.6048-.4282c.278-.4177-.3639-.92-.6994-.54Z"/><path class="cls-5" d="M120.7126,106.7008c-.8111.92-2.4752.3-2.15-.9525.4648-1.79,2.9831-.6261,2.5547,1.0826-.416,1.659-1.9264,3.3485-2.7641,4.8228a.689.689,0,0,0,1.189.695c.8243-1.3653,1.6656-2.7486,2.4009-4.1642a3.5167,3.5167,0,0,0,.4664-2.623,2.7291,2.7291,0,0,0-3.962-1.7154,2.5294,2.5294,0,0,0-.64,3.8226,2.3351,2.3351,0,0,0,3.6048-.4282c.278-.4177-.3639-.92-.6994-.54Z"/><path class="cls-5" d="M98.4295,109.6022c1.2159-.207,2.4392-.1616,3.6537-.33.52-.0722.48-.9063,0-1.0114a9.2681,9.2681,0,0,0-3.9528.2569c-.7154.1655-.4024,1.2042.2991,1.0848Z"/><path class="cls-5" d="M166.3974,106.7008c-.8111.92-2.4752.3-2.15-.9525.4648-1.79,2.9831-.6261,2.5547,1.0826-.416,1.659-1.9264,3.3485-2.7641,4.8228a.689.689,0,0,0,1.189.695c.8243-1.3653,1.6656-2.7486,2.4009-4.1642a3.5167,3.5167,0,0,0,.4664-2.623,2.7291,2.7291,0,0,0-3.962-1.7154,2.5294,2.5294,0,0,0-.64,3.8226,2.3351,2.3351,0,0,0,3.6048-.4282c.278-.4177-.3639-.92-.6994-.54Z"/><path class="cls-5" d="M172.5486,106.7008c-.8111.92-2.4752.3-2.15-.9525.4648-1.79,2.9831-.6261,2.5547,1.0826-.416,1.659-1.9264,3.3485-2.7641,4.8228a.689.689,0,0,0,1.189.695c.8243-1.3653,1.6656-2.7486,2.4009-4.1642a3.5167,3.5167,0,0,0,.4664-2.623,2.7291,2.7291,0,0,0-3.962-1.7154,2.5294,2.5294,0,0,0-.64,3.8226,2.3351,2.3351,0,0,0,3.6048-.4282c.278-.4177-.3639-.92-.6994-.54Z"/><path class="cls-5" d="M178.7,106.7008c-.8111.92-2.4752.3-2.15-.9525.4648-1.79,2.9831-.6261,2.5547,1.0826-.416,1.659-1.9264,3.3485-2.7641,4.8228a.689.689,0,0,0,1.189.695c.8243-1.3653,1.6656-2.7486,2.4009-4.1642a3.5167,3.5167,0,0,0,.4664-2.623,2.7291,2.7291,0,0,0-3.962-1.7154,2.5294,2.5294,0,0,0-.64,3.8226,2.3351,2.3351,0,0,0,3.6048-.4282c.278-.4177-.3639-.92-.6994-.54Z"/><path class="cls-5" d="M156.4167,109.6022c1.2159-.207,2.4392-.1616,3.6537-.33.52-.0722.48-.9063,0-1.0114a9.2681,9.2681,0,0,0-3.9528.2569c-.7154.1655-.4024,1.2042.2991,1.0848Z"/><path class="cls-5" d="M224.3846,106.7008c-.8111.92-2.4752.3-2.15-.9525.4648-1.79,2.9831-.6261,2.5547,1.0826-.416,1.659-1.9264,3.3485-2.7641,4.8228a.689.689,0,0,0,1.189.695c.8243-1.3653,1.6656-2.7486,2.4009-4.1642a3.5167,3.5167,0,0,0,.4664-2.623,2.7291,2.7291,0,0,0-3.962-1.7154,2.5294,2.5294,0,0,0-.64,3.8226,2.3351,2.3351,0,0,0,3.6048-.4282c.278-.4177-.3639-.92-.6994-.54Z"/><path class="cls-5" d="M230.5358,106.7008c-.8111.92-2.4752.3-2.15-.9525.4648-1.79,2.9831-.6261,2.5547,1.0826-.416,1.659-1.9264,3.3485-2.7641,4.8228a.689.689,0,0,0,1.189.695c.8243-1.3653,1.6656-2.7486,2.4009-4.1642a3.5167,3.5167,0,0,0,.4664-2.623,2.7291,2.7291,0,0,0-3.962-1.7154,2.5294,2.5294,0,0,0-.64,3.8226,2.3351,2.3351,0,0,0,3.6048-.4282c.278-.4177-.3639-.92-.6994-.54Z"/><path class="cls-5" d="M236.687,106.7008c-.8111.92-2.4752.3-2.15-.9525.4648-1.79,2.9831-.6261,2.5547,1.0826-.416,1.659-1.9264,3.3485-2.7641,4.8228a.689.689,0,0,0,1.189.695c.8243-1.3653,1.6656-2.7486,2.4009-4.1642a3.5167,3.5167,0,0,0,.4664-2.623,2.7291,2.7291,0,0,0-3.962-1.7154,2.5294,2.5294,0,0,0-.64,3.8226,2.3351,2.3351,0,0,0,3.6048-.4282c.278-.4177-.3639-.92-.6994-.54Z"/><path class="cls-5" d="M214.4039,109.6022c1.2159-.207,2.4392-.1616,3.6537-.33.52-.0722.48-.9063,0-1.0114a9.2681,9.2681,0,0,0-3.9528.2569c-.7154.1655-.4024,1.2042.2991,1.0848Z"/><path class="cls-5" d="M23.9046,78.2659c-3.3439,4.1617-8.4206,7.4124-12.663,10.6014a.6181.6181,0,0,0,.3091,1.1413q15.9532.0051,31.9064-.0148,33.24-.0345,66.4793-.1024c20.4285-.0448,40.8577-.0706,61.2854-.27q34.11-.3336,68.2179-.9319,13.5622-.22,27.124-.4578c4.6475-.0816,9.4094.126,14.0448-.2522.21-.0171.4257-.0079.6367-.0118a.6261.6261,0,0,0,.3135-1.1575q-3.5123-2.0136-6.9935-4.0811c-2.6388-1.5611-6.1-3.0571-8.2567-5.2879-.5225-.54-1.3465.2846-.8245.8245,2.1311,2.2042,5.4149,3.6908,8.011,5.2535q3.6936,2.2234,7.4367,4.3637l.3135-1.1575q-17.11.319-34.22.5967-33.7347.5587-67.4717.9672c-20.2862.226-40.5729.2867-60.86.3361q-34.0124.0828-68.0249.1134-12.78.0142-25.56.0242-4.2218.0054-8.4437.0135c-1.3127.002-3.2612-.3648-4.5326.0067a2.3854,2.3854,0,0,1-.5818.0008L11.86,89.925c4.3683-3.295,9.5371-6.6371,12.8961-11.0023.3718-.4831-.4657-1.1366-.8512-.6568Z"/><path class="cls-5" d="M12.95,94.5772c10.3639-.3241,20.7443-.3247,31.1121-.3968q26.9156-.1873,53.8321-.2274,32.1644-.1,64.3286-.2379,31.7919-.16,63.5826-.5137c16.8789-.2111,33.7676-.4218,50.6363-1.0734q2.4023-.0928,4.804-.1987c.7468-.033.7525-1.1939,0-1.166-16.0569.5947-32.1273.873-48.1929,1.0988q-31.3085.44-62.6206.5647-32.4207.1806-64.8419.2561-27.9129.0855-55.8257.2131c-11.5206.0681-23.0748-.0134-34.5871.4882q-1.114.0485-2.2275.1091c-.6919.0383-.7015,1.1059,0,1.084Z"/></g></svg>