<svg xmlns="http://www.w3.org/2000/svg" viewBox="0 0 252 280"><defs><style>.cls-1{fill:#f7fafc;}.cls-2{fill:#ffefaf;}.cls-3{fill:#e93a1d;}.cls-4{fill:#303030;}</style></defs><title>DN_Service-Ya-Audit-img-11</title><g id="back"><path class="cls-1" d="M136.892,278.3668a21.6166,21.6166,0,0,1-9.5781-2.3437c-.9-.44-1.915-.9907-3.1938-1.7319-1.8271-1.0591-4.28-2.5591-7.498-4.585q-2.8381-1.7864-6.5122-4.1465a20.0082,20.0082,0,0,1-33.29,4.1743s-12.8057-15.1831-25.5923-30.3818C44.8266,231.7433,38.43,224.13,33.6439,218.4113c-2.4155-2.8862-4.4248-5.2949-5.8257-6.9858-.748-.9033-1.3335-1.6152-1.7295-2.103-.2954-.3643-.519-.6455-.6675-.8364a20.0615,20.0615,0,0,1,2.7705-27.7676,21.1509,21.1509,0,0,1,7.4824-3.9116c-18.5317-23.1973-20.145-30.7822-19.7856-38.0278a21.928,21.928,0,0,1,2.3926-9.0073,20.1018,20.1018,0,0,1,.897-8.6616c.01-.2256.0239-.4531.04-.6821a20.4582,20.4582,0,0,1,.6133-3.7412l.0039-.0791a21.47,21.47,0,0,1,7.647-15.5107,19.9767,19.9767,0,0,1,15.3364-4.5244q-3.4768-4.2686-5.9707-7.4131c-7.1143-8.9722-11.0337-13.9146-10.3389-22.4336A20.1259,20.1259,0,0,1,33.6063,52.984,20.5537,20.5537,0,0,1,46.9525,48.24,19.9988,19.9988,0,0,1,51.4418,22.963a20.612,20.612,0,0,1,16.4795-4.4238,19.9058,19.9058,0,0,1,6.33-9.6646A20.1683,20.1683,0,0,1,95.5184,5.9992c3.5225-2.5942,12.4761-7.3706,23.9082-.1348.8687.5493,2.127,1.3672,3.7192,2.417,2.8159,1.8569,6.9082,4.5918,12.1631,8.1289q.7837.5273,1.603,1.08a20.7489,20.7489,0,0,1,5.7593-7.82,20.004,20.004,0,0,1,25.4946-.1807A19.9743,19.9743,0,0,1,185.76,15.5172c.4243.4492,10.5156,11.1338,20.7568,22.5923,21.7671,24.356,25.7759,30.7368,25.2314,40.1626a20.4457,20.4457,0,0,1-.8452,4.7471,20.9887,20.9887,0,0,1,2.1787,10.84,20.7751,20.7751,0,0,1-7.3467,14.8,19.9542,19.9542,0,0,1-9.5771,4.4092q4.17,5,7.7007,9.3818c16.4937,20.4722,23.2886,30.7422,22.6685,41.354a21.03,21.03,0,0,1-6.0737,13.73,19.9981,19.9981,0,0,1-5.8193,22.4771,20.4346,20.4346,0,0,1-6.3164,3.626,20.0058,20.0058,0,0,1-5.1206,23.832,20.28,20.28,0,0,1-14.6411,4.6606,19.9984,19.9984,0,0,1-5.8618,22.3647c-6.8857,5.7778-15.47,6.7666-25.5874,2.9639a20.1137,20.1137,0,0,1-18.0933,18.1782,20.0041,20.0041,0,0,1-5.8037,1.0029,19.6592,19.6592,0,0,1-9.5669.5156A19.5706,19.5706,0,0,1,136.892,278.3668Z"/></g><g id="Layer_2" data-name="Layer 2"><path class="cls-2" d="M107.5891,108.1856c-8.8214-12.5372,10.8349-12.171,19.0408-12.563,9.79-.4677,20.8437.2661,29.9186-3.4992,4.1923-1.7395,7.3808-2.0291,11.4534-3.2617,3.5834-1.0846,11.4491-8.77,12.5673-1.9448.4646,2.8358-5.1311,10.4452-6.4918,12.5658-3.2757,5.105-7.08,7.8129-11.7372,11.3025-3.5556,2.6643-3.8007,4.2092-8.0744,3.3353-4.7449-.97-7.7424-4.7518-11.3609-7.3266C137.94,118.2779,117.52,116.4417,107.5891,108.1856Z"/><path class="cls-2" d="M62.7367,199.4149c.1885-7.3157,3.6126-14.63,10.7331-16.5531,3.9875-1.0769,9.0982-.7553,13.5295-1.67,6.7172-1.3871,13.1628-4.7092,19.6608-6.8378,4.6052-1.5086,13.29-3.5026,15.1325-8.6248,1.0534-2.93.189-8.1651.4851-11.2694.3917-4.1071.259-8.2669.7173-12.351,6.3523,5.3535,5.0727,9.3363,4.6834,17.5312-.3207,6.749.9756,11.9381,7.0172,15.7828,8.1857,5.2092,12.7171,15.0344,12.8185,24.5383.1069,10.0217-1.9794,23.3988-11.4446,28.9725-8.4974,5.0038-20.2857,4.9485-29.8133,4.28-13.6338-.957-31.177-10.2058-39.6567-20.6845C63.9442,209.2468,62.61,204.3305,62.7367,199.4149Z"/><path class="cls-3" d="M186.6255,61.9494c6.0536-3.43,5.2055-10.5095.1571-14.8189-7.1067-6.0665-14.5466-7.9328-23.3938-10.4046-10.6586-2.9779-20.7465-7.9665-31.7193-9.8285-7.7957-1.3229-23.1548-2.8731-28.9506,3.9331-4.8762,5.7274-1.9028,13.2082,3.4723,17.0476,8.1061,5.79,17.9347,9.5011,27.4221,12.317,8.5843,2.5478,20.4849,5.71,29.3535,4.9136,6.7946-.61,16.5939.1483,22.7963-2.7175Q186.2157,62.182,186.6255,61.9494Z"/><path class="cls-3" d="M134.3808,237.9418c2.9848-3.517,9.2708-4.71,7.8005-10.4272-7.0926-1.0633-14.9974,3.8787-22.0883,4.8047-7.7037,1.0061-16.32-.6178-23.7851-2.4608-11.0969-2.74-25.69-9.4325-32.4633-19.2479-1.464-2.1214-1.4479-8.3086-4.5255-5.9918-3.99,3.0038,1.2637,11.1135,3.0935,13.4773,10.5479,13.6256,26.6056,17.9874,43.076,21.3758C116.2631,241.6886,129.4339,242.0622,134.3808,237.9418Z"/><path class="cls-4" d="M3.2388,149.7952c8.5133-1.86,16.3311-6.0031,21.8592-12.8461l-.8126.1049c4.3908,2.4612,7.7631,6.2716,11.9287,9.0534a28.449,28.449,0,0,0,13.8443,4.6119,26.7844,26.7844,0,0,0,14.5108-3.0463c4.7932-2.4955,9.2223-5.6154,13.9269-8.2651,5.0712-2.8562,10.5073-5.0788,16.416-5.0566,6.4559.0242,12.6464,2.3876,18.3979,5.1229,10.0335,4.7717,20.4847,11.8174,32.1167,10.9114,8.8908-.6925,18.22-7.0646,18.4775-16.6434l-.517.6791c15.9882-3.4125,25.6357,12.8928,39.9089,16.1642,10.0413,2.3015,18.756-2.8391,27.0849-7.7682a105.0782,105.0782,0,0,1,19.4824-9.4125c.8092-.2768.479-1.5429-.3567-1.2939-11.2148,3.342-20.1612,10.8226-30.7824,15.3526a24.1654,24.1654,0,0,1-15.3391,1.641c-7.1009-1.7211-12.4138-6.3581-18.3443-10.2965-6.5119-4.3245-14.128-7.4331-22.0281-5.7448a.7139.7139,0,0,0-.517.6791c-.2686,10.0724-11.1639,15.736-20.2,15.264-11.6831-.61-21.5449-8-31.9959-12.4052-9.2537-3.9-18.5607-4.9386-27.8893-.74-9.1356,4.1116-17.223,12.4217-27.5069,13.439a27.6747,27.6747,0,0,1-17.3372-3.9221c-4.4713-2.8125-7.9763-6.8914-12.604-9.4819a.679.679,0,0,0-.8126.1049c-5.3989,6.6912-12.937,10.71-21.2536,12.5515-.81.1794-.4669,1.42.3427,1.243Z"/><path class="cls-4" d="M160.9667,114.2686a67.0612,67.0612,0,0,0,17.7748-21.2107,61.3294,61.3294,0,0,0,5.3885-13.5c1.4929-5.4112,2.7167-10.898,5.2434-15.95.3734-.7465-.7479-1.406-1.1232-.6565-4.624,9.2338-5.3653,19.7792-10.3229,28.91a73.1941,73.1941,0,0,1-17.5365,21.8315c-.4083.3389.171.8909.5759.5759Z"/><path class="cls-4" d="M100.0257,43.5726C98.2239,48.385,97.6307,53.9667,97.21,59.0613a91.5517,91.5517,0,0,0,.2571,17.5123c1.2,10.9273,4.1914,22.1609,9.8759,31.6554a.63.63,0,0,0,1.0878-.6358A86.1091,86.1091,0,0,1,98.2549,69.3714,86.0783,86.0783,0,0,1,99.7322,50.032c.29-1.481.63-2.9507,1.0012-4.4135.16-.6291.8083-1.9372.4912-2.6074-.5049-1.0668-1.7853-.5665-2.0746.32-.1836.5625.6739.78.8758.2414Z"/><path class="cls-4" d="M186.1025,57.2318c-12.1216,1.44-24.0458,2.0483-36.1723.1907a109.2881,109.2881,0,0,1-34.608-11.2959c-4.631-2.46-10.0632-5.99-11.3852-11.4541-1.13-4.6683,3.4688-5.68,7.0148-6.3517a42.7891,42.7891,0,0,1,10.2884-.5882c6.63.361,13.1253,1.912,19.5356,3.5553,6.3758,1.6344,12.7431,3.3026,19.1143,4.9547,6.5206,1.6908,13.2727,3.0976,19.453,5.8467a31.052,31.052,0,0,1,8.3019,5.2072c2.5335,2.2981,6.0091,8.2822.7242,9.9374-.7633.239-.4414,1.4356.3318,1.2035,4.9-1.4711,4.1647-7.2753,1.56-10.4949-4.0175-4.9662-10.4988-7.64-16.4209-9.5058-7.2165-2.2734-14.647-3.9463-21.9683-5.8458-7.6333-1.98-15.2615-4.208-23.0517-5.4933-7.0741-1.1671-14.44-1.4841-21.3928.5461-2.3581.6886-4.619,1.7589-5.1044,4.3945-.4561,2.4767.7214,5.1293,2.0727,7.1446,3.3229,4.9558,9.0213,7.8276,14.2619,10.297a111.2694,111.2694,0,0,0,19.8,7.1186c15.2752,3.9137,32.3064,5.1914,47.7766,1.6061.5316-.1232.43-1.0393-.1316-.9725Z"/><path class="cls-4" d="M100.2031,43.33c5.3358,5.1665,12.51,8.5222,19.242,11.4471,7.0238,3.0516,14.22,6.1907,21.6215,8.197,7.7383,2.0977,15.77,2.3879,23.7405,2.5667,7.2894.1635,14.8731.372,21.6-2.8716.7273-.3507.0916-1.391-.627-1.0726-6.9408,3.0759-14.4963,2.8079-21.9243,2.63-8.0312-.1924-16.0721-.6-23.8212-2.8967a178.6182,178.6182,0,0,1-21.122-8.1946,98.2633,98.2633,0,0,1-18.1063-10.5874c-.4631-.3351-1.003.3955-.6035.7822Z"/><path class="cls-4" d="M82.2973,117.1067a7.4085,7.4085,0,0,0,8.5457-4.7919c1.5478-3.9638-.2286-8.2471-2.7551-11.3461l-.6652,1.1428c6.2934,1.3432,12.7146,2.7544,18.5385,5.5787,5.1969,2.52,9.7206,6.4458,15.5059,7.6074a23.679,23.679,0,0,0,23.49-9.0891c.5381-.7353-.6853-1.4354-1.2193-.7127-5.7057,7.721-16.5542,11.0346-25.5225,7.3971-4.9682-2.0151-9.179-5.4887-14.16-7.5279-5.2361-2.1436-10.7678-3.3375-16.2694-4.5721a.69.69,0,0,0-.6652,1.1428c2.0268,2.5138,3.568,5.9315,2.6684,9.2135a6.708,6.708,0,0,1-7.2273,4.9971c-.6167-.0943-.9023.8028-.2648.9605Z"/><path class="cls-4" d="M151.2214,110.8351c7.3678,3.94,15.6457,8.233,24.1834,5.5407,7.32-2.3083,16.6027-10.9871,24.0913-4.3794.5473.4829,1.3316-.2815.8079-.8079-5.5077-5.5362-13.5951-1.7394-19.3213,1.2618-4.8771,2.5562-9.52,4.15-15.0875,3.163-5.05-.8956-9.7213-3.1846-14.2332-5.532-.4972-.2587-.9377.4881-.4406.7539Z"/><path class="cls-4" d="M110.9059,137.7393c-5.8241,13.1706-19.787,17.581-30.2729,26.0485-10.1554,8.2005-14.9512,20.68-18.216,32.9658a.6158.6158,0,0,0,1.1865.3271c2.3224-6.3824,3.9472-12.9519,7.0916-19.02a42.7386,42.7386,0,0,1,13.4687-15.3125c10.1431-7.1733,22.6855-12.32,27.5453-24.67.1807-.4592-.6019-.7939-.8032-.3386Z"/><path class="cls-4" d="M133.3525,148.8487a31.2483,31.2483,0,0,0,1.4077,18.7488c2.4863,6.1529,6.8782,11.271,9.338,17.408,5.024,12.5346,4.0932,27.1-1.0187,39.4281-.2443.5892.736.9928,1.0281.4334,5.7413-10.9944,6.0761-25.4919,2.4013-37.1861-1.9983-6.3592-6.051-11.43-9.0811-17.2769a32.99,32.99,0,0,1-3.2052-21.3156c.0923-.5616-.7447-.816-.87-.24Z"/><path class="cls-4" d="M61.28,199.2956c-6.364,10.3521,8.8085,20.0276,16.0959,24.2768,11.69,6.816,24.5657,11.6183,38.2234,11.9887,9.9046.2686,20.4591-1.9734,28.2408-8.4284.5554-.4607-.1825-1.43-.7775-1.0077-13.9545,9.9093-31.9,9.808-47.6777,4.4339-10.0946-3.4384-20.8516-8.7477-28.6458-16.1125-4.0439-3.8212-7.6367-9.1166-4.5687-14.63a.516.516,0,0,0-.89-.52Z"/><path class="cls-4" d="M58.7394,209.1518c-1.7586,10.6291,10.5467,18.0861,18.48,22.1387,10.4708,5.3491,22.3871,9.518,34.2058,10.04,9.4122.4154,19.6834-1.3481,27.72-6.5107a.5659.5659,0,0,0-.5708-.9765,51.9233,51.9233,0,0,1-24.2323,6.3732,63.26,63.26,0,0,1-18.5785-2.8274c-10.1456-3.0249-20.8647-7.2505-28.9916-14.2106-4.19-3.5882-7.5274-8.1753-7.2267-13.9173.0238-.4539-.7295-.5694-.8057-.109Z"/><path class="cls-4" d="M102.8476,59.9035a83.2256,83.2256,0,0,0,8.82,47.5986c.3387.6354,1.2594.077.9562-.5589a89.6608,89.6608,0,0,1-8.827-47.04c.0555-.6113-.8851-.5994-.9492,0Z"/><path class="cls-4" d="M166.1729,100.6036a111.8247,111.8247,0,0,0,10.192-15.25.5717.5717,0,0,0-.9866-.5767,126.8361,126.8361,0,0,1-9.9927,15.0392c-.4341.5576.343,1.3511.7872.7872Z"/><path class="cls-4" d="M111.3471,145.7408c-4.8432,8.1288-13.8555,12.1341-21.3331,17.358-7.6354,5.3341-13.4378,12.61-15.9359,21.6728a.5425.5425,0,0,0,1.0453.2882c3.2145-10.1054,9.772-17.2755,18.5271-22.9667,6.8825-4.474,14.2-8.5981,18.4-15.9412a.4075.4075,0,0,0-.7033-.4111Z"/><path class="cls-4" d="M134.7226,184.1342c.6553-.6457,3.8111,6.2145,4.0054,6.7174a37.5255,37.5255,0,0,1,1.8847,6.6058A35.969,35.969,0,0,1,140.3717,212c-1.2135,5.3274-3.6918,9.0855-8.9065,11.0735-4.9327,1.88-10.0805,3.2332-15.0743,4.9474-.6886.2364-.4077,1.3148.3037,1.1018,3.622-1.0844,7.2142-2.2623,10.8127-3.4217a34.6812,34.6812,0,0,0,7.8321-3.1254c4.6168-2.873,6.1238-8.4241,6.7958-13.5156a37.3346,37.3346,0,0,0-1.7225-17c-.4967-1.44-3.9936-11.0345-6.3241-8.56a.4485.4485,0,0,0,.6339.6339Z"/><path class="cls-4" d="M40.0112,131.9564c.7527,5.1444,8.96,2.776,11.8307,1.5662a27.8511,27.8511,0,0,0,12.78-11.0366H63.2977a18.33,18.33,0,0,0,17.5682,8.3551c.8287-.107.8734-1.4048,0-1.3359a17.5052,17.5052,0,0,1-16.2443-7.793.7761.7761,0,0,0-1.3239,0,26.6022,26.6022,0,0,1-10.0149,9.4231c-3.92,2.1007-9.0664,4.0207-12.6106.4364a.3992.3992,0,0,0-.661.3848Z"/><path class="cls-4" d="M123.3043,130.3285a15.9644,15.9644,0,0,0,21.637-2.8215c2.3282-2.6875,4.785-6.2,8.7955-4.164,2.5863,1.3128,4.8013,2.9691,7.6065,3.8713a25.8894,25.8894,0,0,0,24.5651-4.99l-1.0406-.1341c5.1939,8.41,17.7365,10.81,25.6932,4.8779.979-.73,1.7816-1.9314,2.7928-2.5619,2.4648-1.5369,5.12.9218,7.2,1.8294a26.4283,26.4283,0,0,0,26.0259-2.9192c.6353-.4775.0322-1.5636-.6358-1.0878a25.7558,25.7558,0,0,1-17.4382,4.7317,24.2319,24.2319,0,0,1-9.6493-3.0272c-1.9391-1.1013-3.649-2.3556-5.7927-.9687-2.1654,1.4009-3.5666,3.44-6.0172,4.5368a16.9141,16.9141,0,0,1-7.6335,1.3835,16.42,16.42,0,0,1-13.401-7.4635.6732.6732,0,0,0-1.0406-.1341,24.3714,24.3714,0,0,1-17.0219,5.7832,23.6812,23.6812,0,0,1-9.4677-2.4167c-2.1776-1.0841-4.185-3.0852-6.7106-3.2788-4.939-.3786-7.3324,5.7264-10.8386,8.12a15.5941,15.5941,0,0,1-17.1492.0133c-.5228-.34-.957.4634-.4791.82Z"/><path class="cls-4" d="M207.3668,100.5457c5.846,3.8143,14.3488,8.2249,20.49,2.3555a8.3687,8.3687,0,0,0,2.1644-3.6277c.11-.3413.2028-1.4513.49-1.6152.6266-.3569,2.1424.6347,2.6992.9658.6743.401,1.2679.9019,1.9759,1.261a12.75,12.75,0,0,0,10.3481.5059c.8182-.3127.48-1.634-.3676-1.3334-4.6549,1.651-8.2358.3224-12.0441-2.3862-1.74-1.2378-3.3438-1.0958-4.17.9937-.794,2.008-1.059,3.5747-2.9748,4.95a10.0107,10.0107,0,0,1-5.3742,1.7714c-4.638.1839-8.8474-2.5429-12.64-4.8626-.654-.4-1.232.6079-.5974,1.022Z"/><path class="cls-4" d="M11.0785,110.923c8.32,6.2828,20.8947,4.0962,26.804-4.446H36.7484a15.3216,15.3216,0,0,0,25.7791,1.49l-1.2619-.3418a9.7621,9.7621,0,0,0,11.1051,8.7018c.7065-.1114.5489-1.3447-.1706-1.26a8.5249,8.5249,0,0,1-9.58-7.4416.6839.6839,0,0,0-1.2619-.3418,13.9791,13.9791,0,0,1-23.4755-1.4692.6648.6648,0,0,0-1.1341,0c-5.4772,7.9494-17.3813,9.92-25.2381,4.37-.4554-.3217-.862.4138-.4318.7387Z"/><path class="cls-4" d="M45.9912,96.0668c4.2675,1.3506,8.738,3.1676,13.1921,3.7439,2.8444.368,6.1321-.2122,7.8968-2.7191.4319-.6136.52-1.318.8823-1.927,1.0854-1.8237,2.0947-1.7684,3.6028-.8114a31.9744,31.9744,0,0,0,4.5986,2.4943c3.4317,1.4589,7.06,1.9629,10.4057.065.7468-.4236.0839-1.549-.6713-1.1485-4.35,2.3066-9.09.2061-12.933-2.1595-1.7036-1.0486-3.9643-2.9519-5.5955-.721-.8741,1.1954-.7319,2.7509-1.8016,3.89-1.8035,1.9208-4.6441,2.0286-7.0579,1.6077-4.13-.72-8.2-2.2128-12.2511-3.2865a.5043.5043,0,0,0-.2679.9718Z"/><path class="cls-4" d="M190.4638,94.7181a5.9067,5.9067,0,0,0,5.2411-1.1041c.8066-.5766,1.5474-1.8407,2.3606-2.2966,1.9783-1.1091,3.27.4,4.8948,1.1872a12.8363,12.8363,0,0,0,11.8349-.39c.713-.4065.0846-1.4558-.6388-1.0928a12.3661,12.3661,0,0,1-6.68,1.3979c-2.6924-.2314-4.4066-1.57-6.677-2.7713a2.4146,2.4146,0,0,0-3,.185c-2.1857,1.92-3.5067,4.9865-7.0957,4.0146a.4516.4516,0,0,0-.24.87Z"/><path class="cls-4" d="M90.7094,124.8431c6.9782,3.9879,16.2234,1.3552,20.4384-5.3967h-1.1751c4.8687,6.7851,14.457,9.2685,21.8548,5.2.6808-.3744.0819-1.3646-.6033-1.0321a16.2385,16.2385,0,0,1-20.0764-4.8549.69.69,0,0,0-1.1751,0,14.8834,14.8834,0,0,1-18.8049,5.2993c-.5207-.247-.9735.49-.4584.7842Z"/><path class="cls-4" d="M200.0831,121.12a51.0772,51.0772,0,0,0,11.5684-3.0668c1.9549-.7682,4.092-1.8879,3.9769-4.2737l-.9.6856c1.986.499,3.009,2.2226,4.6266,3.3122a6.6374,6.6374,0,0,0,4.1363,1.1356c3.8967-.1911,7.2856-2.7207,11.1677-3.1405.743-.08.7834-1.1916,0-1.1895-3.6029.01-6.5733,2.0532-10.0167,2.7486-4.55.9189-5.73-3.2776-9.5359-4.2375a.7179.7179,0,0,0-.9.6856c.13,2.7543-5.18,3.7877-7.1172,4.39-2.4007.7462-4.8422,1.3517-7.29,1.9224-.6858.16-.3753,1.1206.2835,1.0283Z"/><path class="cls-4" d="M164.061,180.2676a4.6738,4.6738,0,0,0-.9708,5.4044,4.0054,4.0054,0,0,0,4.6287,1.9041,3.3221,3.3221,0,0,0-1.2612-6.5094.5532.5532,0,0,0,.1464,1.0819,2.27,2.27,0,0,1,2.3506,1.8655,2.0559,2.0559,0,0,1-2.0093,2.3765c-3.031.334-3.9411-3.4893-2.2549-5.4933.3638-.4324-.2344-1.0554-.63-.63Z"/><path class="cls-4" d="M176.9914,156.8241a1.127,1.127,0,0,0-1.7512-.2524c-1.3129.8888-1.4907,3.2645-1.4926,4.6893a5.89,5.89,0,0,0,5.5976,5.9047,5.6512,5.6512,0,0,0,5.5574-5.32,5.3248,5.3248,0,0,0-5.9557-5.2534c-.7114.087-.7456,1.1995,0,1.1426,4.8164-.3674,6.5168,6.27,1.817,7.9647a4.3961,4.3961,0,0,1-4.73-1.4314,4.743,4.743,0,0,1-1.0621-3.36c-.0019.0579.67-3.9856,1.1549-3.4164.4.47,1.2481-.17.865-.6675Z"/><path class="cls-4" d="M167.1361,167.6467a4.996,4.996,0,0,0,2.0772,4.085.5672.5672,0,0,0,.5849,0,3.1045,3.1045,0,0,0,.8829-4.5363c-.3641-.4677-1.0879.13-.8052.6213a2.1449,2.1449,0,0,1-.6626,2.9144h.5849a3.9585,3.9585,0,0,1-1.5957-3.0844.5335.5335,0,0,0-1.0664,0Z"/><path class="cls-4" d="M39.187,157.703c-1.3239,1.016-2.7985,2.1775-3.0068,3.9542a2.93,2.93,0,0,0,1.6124,3.1606,2.8323,2.8323,0,0,0,3.4275-1.4884,3.5263,3.5263,0,0,0-1.1913-4.2095.5394.5394,0,0,0-.7623.7623c.7127.7874,1.4382,2.0576.7517,3.0949a1.3958,1.3958,0,0,1-2.4645.0293c-.9334-1.8134,1.04-3.4538,2.2725-4.4753.4557-.3775-.1628-1.1937-.639-.8282Z"/><path class="cls-4" d="M42.4087,186.9974c.0981,1.3248,2.1432.1992,1.1278-.6728a1.1417,1.1417,0,0,0-1.55.2326,2.2441,2.2441,0,0,0-.5477,1.6341,2.2792,2.2792,0,0,0,2.2019,2.2254,2.3551,2.3551,0,0,0,2.3607-2.2185.6239.6239,0,0,0-1.22-.1651c-.1313.641-.9008,1.3251-1.5655.8891a1.0737,1.0737,0,0,1-.42-.7968c-.0269-.2848.5276-1.4217.4-1.5027l.2387.31-.0129-.0727c-.1007-.5684-1.0557-.4423-1.0128.1371Z"/><path class="cls-4" d="M52.7041,201.0778a1.7325,1.7325,0,0,0,2.7466,1.7c.5057-.4428-.1388-1.188-.6923-.8973a.67.67,0,0,1-.9667-.6557c.0784-.6165-.965-.7559-1.0876-.1472Z"/><path class="cls-4" d="M50.8664,187.5487a12.9668,12.9668,0,0,0,.0117,1.8656.516.516,0,0,0,1.0313,0,12.9634,12.9634,0,0,0,.0117-1.8656.5277.5277,0,0,0-1.0547,0Z"/><path class="cls-4" d="M177.9034,222.3981a3.4209,3.4209,0,0,0-1.3791,3.8758c.2095.6412.5765,1.3423,1.3246,1.3053a2.8229,2.8229,0,0,0,2.1182-1.21c.3943-.519-.4682-1.1756-.9019-.6959a1.9527,1.9527,0,0,1-1.4551.7138l.4236.1755a2.2694,2.2694,0,0,1,.4226-3.2187c.57-.4.0435-1.3369-.553-.9461Z"/><path class="cls-4" d="M209.5945,187.2744a3.6655,3.6655,0,0,0,2.9721,6.3843c3.8685-.6275,4.3961-5.65,1.2209-7.574-.6663-.4038-1.2469.6137-.6063,1.0372,2.05,1.355,1.9786,4.698-.66,5.2737a2.5,2.5,0,0,1-2.1432-4.3382c.5361-.4831-.2426-1.2312-.7831-.7831Z"/><path class="cls-4" d="M50.68,206.6218a14.3631,14.3631,0,0,0-.621,1.8657c-.1371.6178.79,1.0974,1.0817.456a15.4679,15.4679,0,0,0,.6863-2.0055c.2223-.7443-.8849-1.0226-1.147-.3162Z"/><path class="cls-4" d="M52.1729,211.0564a2.4253,2.4253,0,1,0,4.6021,1.481.51.51,0,0,0-.9831-.271,1.5132,1.5132,0,0,1-1.8126.9217,1.4856,1.4856,0,0,1-.812-1.8575c.2029-.6456-.7569-.8777-.9944-.2741Z"/></g></svg>