<svg xmlns="http://www.w3.org/2000/svg" viewBox="0 0 550 275"><defs><style>.cls-1{fill:#f7fafc;}.cls-2{fill:#f2f6f9;}.cls-3{fill:#ffefaf;}.cls-4{fill:#303030;}.cls-5{fill:#e93a1d;}.cls-6{fill:#fff;}.cls-7{fill:#fce0de;}</style></defs><title>DN_Service-Ya-Audit-img-3</title><g id="back"><path class="cls-1" d="M141.807,266.48q-.9185,0-1.8447-.082a23.7977,23.7977,0,0,1-2.5645-.3616,20.1029,20.1029,0,0,1-6.0432-.6079,20.5225,20.5225,0,0,1-10.113-1.677,20.6261,20.6261,0,0,1-13.3762-1.9741c-.9009-.4414-1.9167-.9932-3.1973-1.7363-1.83-1.062-4.2856-2.5657-7.5083-4.5969q-2.03-1.28-4.4866-2.8523a20.0067,20.0067,0,0,1-33.62,4.8931S45.8244,241.8007,32.5988,226.08c-6.62-7.8694-13.24-15.7483-18.2031-21.678-2.5034-2.9912-4.5894-5.491-6.0483-7.2522-3.5134-4.2407-7.4958-9.0474-6.7888-17.2634a20.001,20.001,0,0,1,7.0637-13.6008,20.9961,20.9961,0,0,1,9.1318-4.3042c-7.8735-11.5833-8.6228-16.88-8.3564-22.2512a21.2531,21.2531,0,0,1,6.6182-14.5457,19.9981,19.9981,0,0,1,4.56-7.0466,20.3186,20.3186,0,0,1,3.1587-3.9714,21.2542,21.2542,0,0,1,3.7725-4.1147A20.0042,20.0042,0,0,1,48.02,106.8938a19.8074,19.8074,0,0,1-.3872-6.08A20.1045,20.1045,0,0,1,54.7274,87.08a20.3868,20.3868,0,0,1,20.59-3.3013,19.9489,19.9489,0,0,1,7.14-14.927,20.6877,20.6877,0,0,1,15.637-4.5588,19.9984,19.9984,0,0,1,6.509-10.3218,21.0835,21.0835,0,0,1,10.6707-4.5847,20.0312,20.0312,0,0,1,28.5269-5.353,21.777,21.777,0,0,1,7.72-14.8936,19.998,19.998,0,0,1,27.012,1.1946,20.0026,20.0026,0,0,1,33.1113-9.564l5.9961,5.6677A20.0044,20.0044,0,0,1,250.89,19.59q5.0793,5.339,10.2163,10.7188a19.9953,19.9953,0,0,1,30.6772-3.4229l25.3818,24.6379a22.14,22.14,0,0,1,2.4019-2.3464c5.6213-4.7168,15.3933-7.4673,25.9612-1.04q.47.2856.9526.6c.0352-.03.071-.06.1064-.09,2.9241-2.4536,13.3582-9.54,26.6021.47a19.9933,19.9933,0,0,1,4.8494-6.019,20.8236,20.8236,0,0,1,17.6777-4.2466q.1271-.1128.2571-.2241a19.9742,19.9742,0,0,1,17.7473-4.2588,20,20,0,0,1,20.5168,5.7c.2739.3008,27.6924,30.4243,54.6829,61.2483,15.9382,18.2021,28.644,33.1218,37.7644,44.3442,17.9712,22.1138,21.7214,28.824,21.12,37.79a20.7173,20.7173,0,0,1-2.4341,8.426c.01.7119-.0161,1.45-.08,2.219a20.0614,20.0614,0,0,1-7.0854,13.6912,19.8,19.8,0,0,1-3.41,2.2935A20.0032,20.0032,0,0,1,510.194,225.854a22.1085,22.1085,0,0,1-6.72,9.7625,21.4876,21.4876,0,0,1-22.438,3.0654l-.0569.0576a19.9981,19.9981,0,0,1-28.1108.25l-2.68-2.6016a19.9912,19.9912,0,0,1-4.3215,5.0769c-2.7686,2.3235-12.8894,9.2256-26.8689.4944a89.7482,89.7482,0,0,1-9.271-6.8979q-1.5623-1.2887-3.3015-2.7788-.4222.45-.877.8787a19.9986,19.9986,0,0,1-27.4543-.0193L366.1513,221.853a21.17,21.17,0,0,1-5.6011,7.282c-13.64,11.446-29.2847.1985-35.1743-4.0354q-.4651-.3347-.9448-.6858a21.5154,21.5154,0,0,1-4.5823,5.3313,19.9982,19.9982,0,0,1-26.15-.3809q-3.9672-3.5306-8.0977-7.2051a21.0242,21.0242,0,0,1-7.218,12.4814,19.9813,19.9813,0,0,1-17.7229,4.0786q-.293.2662-.5974.5217c-2.4629,2.0664-10.6345,7.679-21.9365,2.8459a19.9281,19.9281,0,0,1-4.9888,6.2993,20.14,20.14,0,0,1-26.4778-.6348l-.9622-.856a20,20,0,0,1-6.855,11.9336c-8.2717,6.94-19.0066,6.9521-31.9072.0352-2.0908-1.1211-4.3643-2.4653-6.84-4.0461A20.1387,20.1387,0,0,1,141.807,266.48Z"/><path class="cls-2" d="M173.5153,273.2378a19.9676,19.9676,0,0,1-9.6489-2.4839l-12.08-6.6572a19.9833,19.9833,0,0,1-3.6152,3.9761c-11.4177,9.5811-24.3743,2.4834-30.6011-.9275l-.1455-.08a20.0272,20.0272,0,0,1-25.93-9.4333c-2.6689-3.3716-9.7417-11.3748-15.573-17.7253a20.0006,20.0006,0,0,1,8.5969-32.5615,20.2581,20.2581,0,0,1,5.8389-8.1716,20.0007,20.0007,0,0,1,16.01-4.43,20.0135,20.0135,0,0,1,25.3157-17.08,20.0256,20.0256,0,0,1,12.8335-17.1367,19.6158,19.6158,0,0,1,13.2458-2.9329,20.4918,20.4918,0,0,1,5.7686-7.9148,19.9624,19.9624,0,0,1,12.2871-4.67,20,20,0,0,1,14.5115-11.324,20.0221,20.0221,0,0,1,7.04-13.2756c.4219-.354.9255-.7466,1.5081-1.1514a20.0485,20.0485,0,0,1,11.052-11.54,20.031,20.031,0,0,1,6.2136-9.2881,20.8386,20.8386,0,0,1,3.3511-2.2715,19.9941,19.9941,0,0,1,4.7158-5.77,21.4643,21.4643,0,0,1,5.8745-3.4475,20.0315,20.0315,0,0,1,6.718-7.3q.4812-.4614.9939-.8916a19.9754,19.9754,0,0,1,5.3254-3.2131q.4365-.4973.9116-.9714a19.9819,19.9819,0,0,1,17.1-5.6223,20.2614,20.2614,0,0,1,5.3059-6.9143A19.9466,19.9466,0,0,1,279.2,57.35a19.9973,19.9973,0,0,1,19.1714-5.075q.193-.1707.3906-.3367A20.5882,20.5882,0,0,1,314.0145,47.27c.082.0083.1633.0168.2449.0259A19.98,19.98,0,0,1,330.08,54.4338l41.8379,49.8606a20.0009,20.0009,0,0,1,4.5525,10.6118,19.998,19.998,0,0,1-1.4385,18.0261c6.0962,8.8533,8.2039,14.833,7.9124,21.1782a21.6222,21.6222,0,0,1-2.9058,9.8787c2.7646,5.2593,3.4055,9.16,3.1545,13.3508a20.9214,20.9214,0,0,1-7.4663,14.9321,20.0655,20.0655,0,0,1-3.1028,2.1421,19.9983,19.9983,0,0,1-4.3071,25.5872q-.3475.2919-.7168.5732a19.9383,19.9383,0,0,1-4.627,6.1951q-.6859.62-1.4126,1.1665a20.0033,20.0033,0,0,1-1.9434,1.8674,20.408,20.408,0,0,1-9.7227,4.4583,20.03,20.03,0,0,1-2.6763,2.7231,20.3314,20.3314,0,0,1-15.8235,4.5029,20.0048,20.0048,0,0,1-23.541-2.8628l-1.8518-1.7446a20.0214,20.0214,0,0,1-22.1038-1.4026,19.9966,19.9966,0,0,1-17.9971-3.0952l-5.1077-3.8374a20.0242,20.0242,0,0,1-2.04,1.9744,20.4657,20.4657,0,0,1-14.9958,4.6289,20.3987,20.3987,0,0,1-4.3025,5.0142,20.7531,20.7531,0,0,1-12.4265,4.6589,19.999,19.999,0,0,1-6.5845,10.6235,20.9414,20.9414,0,0,1-3.9592,2.6233c-7.7673,5.9976-16.4531,5.0393-24.21,2.2478a20.55,20.55,0,0,1-5.9016,8.2429A19.9869,19.9869,0,0,1,173.5153,273.2378Z"/></g><g id="Layer_2" data-name="Layer 2"><path class="cls-3" d="M117.0332,129.1424l2.8595,26.4465c.1254,1.16,3.6663,22.4,4.2006,21.96-2.5522,2.103-6.5065,1.7509-9.6663,3.8541-4.3334,2.8844-6.8,7.45-10.6975,10.6185-2.4473,1.9893-44.1222,5.5618-44.2819,4.4778l-6.5914-57.0862Z"/><polygon class="cls-3" points="111.388 74.936 117.033 129.142 186.362 122.956 179.79 65.505 111.388 74.936"/><polygon class="cls-3" points="169.965 9.589 179.79 65.505 232.86 60.585 223.18 2.104 169.965 9.589"/><polygon class="cls-3" points="111.388 74.936 104.677 13.156 39.879 17.881 46.125 81.118 111.388 74.936"/><path class="cls-4" d="M235.7918,80.618c-1.5175-15.1939-3.5419-30.3481-5.4036-45.5033q-1.3974-11.376-2.7972-22.7516c-.5032-4.0859-.6157-10.2883-5.6806-11.3777-2.685-.5775-5.769.5013-8.3757,1.0218q-5.5283,1.1038-11.0772,2.103-11.4829,2.058-23.0529,3.597-22.3417,2.9655-44.8871,3.91c-14.9536.6346-29.924.69-44.8806,1.2272-7.4661.268-14.93.6547-22.3739,1.2943-6.45.5541-13.3808.8376-19.6543,2.5573-4.4073,1.2082-8.191,3.8825-8.4036,8.8008-.1556,3.5995.677,7.376,1.0943,10.9443q.6663,5.6978,1.3169,11.3974,2.6289,22.796,5.278,45.59c4.0146,34.3583,8.1712,68.6981,12.0524,103.072a.5124.5124,0,0,0,.501.501c9.3878-.133,18.7737-.3543,28.16-.5666a.49.49,0,0,0,0-.9785c-9.3872.1576-18.7744.3063-28.16.5431l.501.501c-3.4295-29.0594-6.6852-58.1365-9.9512-87.2147q-2.45-21.8086-4.986-43.6074L42.548,44.3691q-.6015-5.2028-1.1967-10.4063c-.39-3.4239-1.6791-8.02-.1524-11.267,2.549-5.4206,11.3927-5.513,16.374-6.1071,7.0935-.8461,14.2189-1.4071,21.3509-1.8026,14.2918-.7926,28.6083-.913,42.9142-1.29a527.021,527.021,0,0,0,84.3673-8.6521c3.9455-.7478,7.8628-1.7075,11.8155-2.405,2.3431-.4135,4.8848-.5576,6.4017,1.6742a10.381,10.381,0,0,1,1.3692,4.1508c1.3241,8.057,2.0052,16.2729,2.9958,24.3782,1.96,16.0366,3.7442,32.1147,6.0663,48.1033.0766.5274.9915.4089.938-.1269Z"/><path class="cls-4" d="M105.3444,27.1915c1.8631,18.9422,4.3654,37.8316,6.417,56.7556q3.079,28.4,5.799,56.8379c1.0426,10.883,1.9893,21.7756,3.0851,32.6533.0655.65,1.0816.6679,1.0313,0-2.8875-38.2911-7.144-76.5342-11.588-114.6719-1.2313-10.5663-2.361-21.1624-3.9042-31.6887-.0693-.4724-.8874-.3663-.84.1137Z"/><path class="cls-4" d="M67.203,79.3314q49.75-5.2,99.4958-10.4466c9.4014-.9939,18.8364-1.8284,28.2152-3.0158.5614-.0711.5878-.9525,0-.9023-16.5213,1.41-33.0116,3.4724-49.5,5.2244q-24.9993,2.6561-49.9954,5.3433Q81.3108,77.0535,67.203,78.57c-.4819.0518-.4883.8128,0,.7617Z"/><path class="cls-4" d="M172.1925,27.15c2.9527,18.7306,5.9079,37.4655,9.1291,56.1521.108.6264,1.046.3561.9492-.2617-2.9325-18.7265-6.1318-37.4138-9.3325-56.096-.0843-.4919-.8224-.28-.7458.2056Z"/><path class="cls-4" d="M73.8092,136.1808c23.5839-8.2025,49.0278-4.72,73.1645-9.9934.6448-.1409.3716-1.1274-.2726-.9888-24.1108,5.1876-49.6652,1.6151-73.1053,10.2081-.4794.1757-.2784.9451.2134.7741Z"/><path class="cls-5" d="M62.5559,37.5106c-3.1087,2.7179-.8067,8.0021,2.45,9.4291a7.3844,7.3844,0,0,0,9.66-3.9328c1.7305-3.89.1675-8.7634-4.4383-9.3134a8.2522,8.2522,0,0,0-9.053,6.9656.6833.6833,0,0,0,1.3165.3629,8.158,8.158,0,0,1,5.3926-4.9633A4.1463,4.1463,0,0,1,72.5459,37.48a4.905,4.905,0,0,1,.29,4.3071,5.3534,5.3534,0,0,1-6.381,3.4829c-3.6012-.9911-3.4524-4.25-2.7874-7.1128a.6707.6707,0,0,0-1.1115-.647Z"/><path class="cls-5" d="M133.4165,50.4319c-2.3325,2.3731-1.3439,6.665.8022,8.8237a5.6646,5.6646,0,0,0,4.5411,1.74c2.0887-.2769,3.18-2.1014,4.0214-3.841,1.7462-3.6125,1.5846-8.1781-2.7616-9.8217a5.7613,5.7613,0,0,0-7.7059,5.039c-.05.8285,1.1438.9112,1.3869.1877.895-2.6641,3.7922-4.61,6.4222-2.8995,2.7457,1.7861,1.8817,5.0917.4766,7.4885-.8776,1.4971-2.1522,2.4006-3.9124,1.6078a4.8417,4.8417,0,0,1-2.0449-1.94c-1.1587-1.9623-.79-3.7141-.06-5.7069.246-.6721-.7-1.1514-1.1654-.6784Z"/><path class="cls-5" d="M161.0152,86.5381l.0838-.0746a.6749.6749,0,0,0,0-.9324c-.8718-1.0893-2.8052.1141-3.5536.8069a6.4312,6.4312,0,0,0-1.9473,5.1778c.38,4.2165,5.1066,6.32,8.8625,5.2084,3.9515-1.17,6.4024-6.1993,4.2654-9.9095-1.8508-3.2132-6.7808-4.041-9.07-.9559-.4284.5773.4141,1.3951.99.99,1.8884-1.328,4.7032-1.31,6.1545.67,1.7016,2.321.2589,5.799-2.0955,7.0345-2.1587,1.1328-5.4363.5625-6.7406-1.6168a4.441,4.441,0,0,1-.29-3.6739c.0973-.29,2.0274-3.319,2.4923-2.7992v-.9324l-.0795.0789c-.6041.6.301,1.4863.9281.9281Z"/><path class="cls-5" d="M96.3358,85.6865c-.853-1.259-2.3844-1.14-3.5223-.2625a5.5729,5.5729,0,0,0-1.874,4.5145c.0763,3.6707,3.0957,6.93,6.9,6.3674,3.5752-.5288,6.6576-4.144,5.6575-7.8319-1.0047-3.7046-5.479-6.0622-8.9281-4.1072a.7035.7035,0,0,0,.54,1.28,5.6259,5.6259,0,0,1,5.9678,2.2332c1.4481,2.2988.0976,5.0108-2.1872,6.0975a4.0351,4.0351,0,0,1-5.5062-1.8521,5.2941,5.2941,0,0,1-.5682-2.876c.0579-.6,1.2048-4.0536,2.3385-2.65.5345.6615,1.6608-.2064,1.1825-.9124Z"/><path class="cls-5" d="M89.9776,152.7994c-3.6134-.69-6.2077,2.7118-5.3549,6.1355a6.9145,6.9145,0,0,0,7.4187,5.2212c3.2808-.4054,6.221-3.1516,5.6583-6.6429-.7177-4.4528-5.4592-6.3257-9.4867-6.1391-.4948.0229-1.0849.4487-1.0137,1.0137q.1021.7393.1694,1.4825c.08.7839,1.2659,1.0856,1.4732.1994q.1572-.71.3485-1.4124l-.9775.7442c2.5691.101,5.4386.4857,6.8909,2.9139,1.4212,2.3762.1048,4.904-2.4075,5.6722a4.7943,4.7943,0,0,1-5.433-1.9014c-1.5044-2.196-.9287-5.9927,2.4854-5.595.9587.1117,1.18-1.51.229-1.6919Z"/><path class="cls-5" d="M141.3783,141.769c4.9316,4.8889,10.368,9.4254,15.6747,13.9027l1.19-1.5423q-.8939-.4647-1.7947-.9142c-.7255-.3623-1.6253.6074-.9231,1.1963q.759.6366,1.5278,1.26c.9649.7824,2.3542-.5484,1.3887-1.3887-5.2919-4.6061-10.6639-9.3238-16.3073-13.494-.5787-.4276-1.2481.4924-.7562.98Z"/><path class="cls-5" d="M143.7693,158.347c2.5327-3.03,4.5872-6.46,7.0442-9.5588a113.0341,113.0341,0,0,1,7.93-8.9142.9523.9523,0,0,0-1.1491-1.4892q-.7357.4253-1.43.9159c-.66.4443-.2694,1.59.5644,1.3387q.81-.2239,1.5958-.5215l-.9226-1.5848c-5.4,5.4368-11.4471,12.0237-14.4978,19.1465-.2214.517.4244,1.1946.865.6675Z"/><path class="cls-5" d="M127.8243,63.3541a37.4249,37.4249,0,0,0,7.1077-4.2422c.7587-.5765.0122-1.88-.7571-1.2952a37.425,37.425,0,0,1-7.1077,4.2422c-.8768.4009-.1154,1.6942.7571,1.2952Z"/><path class="cls-5" d="M110.648,66.7959a42.6973,42.6973,0,0,0,8.0237-.61c.95-.1615.547-1.6072-.3988-1.4464a40.5657,40.5657,0,0,1-7.6249.5562.75.75,0,0,0,0,1.5Z"/><path class="cls-5" d="M96.7944,63.9421a45.4076,45.4076,0,0,0,4.5395,1.4986.7506.7506,0,0,0,.3988-1.4464,45.4076,45.4076,0,0,1-4.5395-1.4986c-.9-.35-1.29,1.0994-.3988,1.4464Z"/><path class="cls-5" d="M82.6916,55.03a49.6682,49.6682,0,0,0,5.0792,4.0857c.7915.5561,1.5419-.7438.7571-1.2952A46.7178,46.7178,0,0,1,83.7522,53.97c-.7095-.6526-1.773.4054-1.0607,1.0607Z"/><path class="cls-5" d="M74.0065,44.113q1.0063,1.7475,2.1569,3.4027c.5471.7872,1.8479.0382,1.2952-.7571q-1.1508-1.6559-2.1569-3.4027a.7506.7506,0,0,0-1.2952.7571Z"/><path class="cls-5" d="M175.6029,84.8879,168.8543,87.8c-.8839.3814-.1208,1.674.7571,1.2952l6.7486-2.9117c.8839-.3814.1208-1.674-.7571-1.2952Z"/><path class="cls-5" d="M192.0749,76.6585a45.6739,45.6739,0,0,1-6.4812,3.8119c-.8673.4235-.1078,1.7176.7571,1.2952a45.6739,45.6739,0,0,0,6.4812-3.8119c.78-.5552.0315-1.8567-.7571-1.2952Z"/><path class="cls-5" d="M200.8959,65.56a22.6829,22.6829,0,0,1-2.3168,4.5192c-.5338.8076.7647,1.56,1.2952.7571a24.43,24.43,0,0,0,2.468-4.8775c.341-.9042-1.1085-1.295-1.4464-.3988Z"/><path class="cls-5" d="M201.9084,51.8085a47.9724,47.9724,0,0,1,.4688,4.8455c.0456.961,1.5459.9666,1.5,0a51.92,51.92,0,0,0-.5224-5.2443c-.1427-.9514-1.5883-.5471-1.4464.3988Z"/><path class="cls-5" d="M196.2982,36.811a35.8171,35.8171,0,0,1,3.2468,6.1967c.3571.8836,1.8086.4975,1.4464-.3988a37.7761,37.7761,0,0,0-3.398-6.555c-.5263-.8047-1.8257-.054-1.2952.7571Z"/><path class="cls-5" d="M182.78,26.1918a23.698,23.698,0,0,1,6.5865,3.3009c.7881.5606,1.538-.74.7571-1.2952a25.04,25.04,0,0,0-6.9449-3.4521c-.9218-.2941-1.3164,1.1536-.3988,1.4464Z"/><path class="cls-5" d="M166.8533,27.06a23.7625,23.7625,0,0,1,6.6029-1.76c.9473-.111.9585-1.6124,0-1.5a26.27,26.27,0,0,0-7.36,1.9643c-.8847.3788-.1215,1.6714.7571,1.2952Z"/><path class="cls-5" d="M153.94,37.5544c1.3679-1.5791,2.79-3.1068,4.3-4.5513.6989-.6686-.3628-1.7283-1.0607-1.0607-1.51,1.4445-2.9319,2.9723-4.3,4.5513-.6293.7265.4272,1.7919,1.0607,1.0607Z"/><path class="cls-5" d="M143.952,49.6129c1.2557-1.3981,2.465-2.8356,3.6509-4.2932.6041-.7426-.4509-1.81-1.0607-1.0607-1.1859,1.4576-2.3952,2.8951-3.6509,4.2932-.6434.7164.414,1.7807,1.0607,1.0607Z"/><path class="cls-5" d="M107.0345,96.8975a15.96,15.96,0,0,1-3.6891-3.3929c-.5743-.761-1.8773-.0143-1.2952.7571a18.2014,18.2014,0,0,0,4.2272,3.931c.7937.5533,1.5442-.7465.7571-1.2952Z"/><path class="cls-5" d="M123.8374,103.0246a24.6952,24.6952,0,0,1-8.1664-1.8008c-.8948-.3614-1.2839,1.089-.3988,1.4464a25.8876,25.8876,0,0,0,8.5652,1.8544c.965.0453.9627-1.4548,0-1.5Z"/><path class="cls-5" d="M140.2231,99.5174a78.2394,78.2394,0,0,1-7.8788,2.5146.7506.7506,0,0,0,.3988,1.4464,78.24,78.24,0,0,0,7.8788-2.5146c.8977-.3318.51-1.7821-.3988-1.4464Z"/><path class="cls-5" d="M155.889,94.2193a63.5493,63.5493,0,0,0-6.7205,1.9482c-.9072.3128-.5173,1.7623.3988,1.4464a63.5491,63.5491,0,0,1,6.7205-1.9482c.9412-.2125.5429-1.659-.3988-1.4464Z"/><path class="cls-5" d="M98.5359,148.1922a16.1528,16.1528,0,0,1-2.7713,4.7393c-.62.7328.4362,1.7991,1.0607,1.0607a18.2955,18.2955,0,0,0,3.1571-5.4012c.342-.9038-1.1075-1.2944-1.4464-.3988Z"/><path class="cls-5" d="M97.7811,133.8982a18.9844,18.9844,0,0,1,1.7125,5.7144c.1343.9519,1.58.5469,1.4464-.3988a20.2111,20.2111,0,0,0-1.8637-6.0728c-.4226-.8677-1.7166-.1081-1.2952.7571Z"/><path class="cls-5" d="M85.0129,123.604c2.0806,1.0933,4.1915,2.1279,6.2525,3.2584.8468.4645,1.6046-.83.7571-1.2952-2.061-1.1305-4.1718-2.1652-6.2525-3.2584-.8538-.4486-1.6129.8455-.7571,1.2952Z"/><path class="cls-5" d="M72.9546,109.7462a17.2845,17.2845,0,0,0,3.5034,7.4679c.61.7488,1.6656-.3181,1.0607-1.0607a15.7157,15.7157,0,0,1-3.1177-6.806c-.1992-.944-1.6455-.5445-1.4464.3988Z"/><path class="cls-5" d="M76.1637,93.5046a20.5737,20.5737,0,0,0-2.9757,6.7063.7506.7506,0,0,0,1.4464.3988,19.3519,19.3519,0,0,1,2.8245-6.3479c.5462-.7989-.7531-1.55-1.2952-.7571Z"/><path class="cls-5" d="M91.7919,86.2272a17.5065,17.5065,0,0,0-7.2044.8083c-.9118.3027-.5211,1.7518.3988,1.4464a16.4608,16.4608,0,0,1,6.8056-.7548c.9608.0888.9548-1.4118,0-1.5Z"/><path class="cls-5" d="M143.0983,149.2981a16.7612,16.7612,0,0,1,4.3662.2318c.9436.1749,1.3481-1.27.3988-1.4464a18.3011,18.3011,0,0,0-4.7649-.2854c-.9564.0733-.9643,1.5739,0,1.5Z"/><path class="cls-5" d="M130.5415,158.3723a21.5794,21.5794,0,0,1,4.1763-5.3039c.7134-.6535-.35-1.712-1.0607-1.0607a22.9,22.9,0,0,0-4.4108,5.6075.7506.7506,0,0,0,1.2952.7571Z"/><path class="cls-5" d="M125.568,174.3471a63.3268,63.3268,0,0,1,1.6123-7.6314.7506.7506,0,0,0-1.4464-.3988,63.3268,63.3268,0,0,0-1.6123,7.6314c-.1412.9443,1.304,1.3517,1.4464.3988Z"/><path class="cls-5" d="M111.4873,186.58a18.3169,18.3169,0,0,0,8.5919-3.9c.7435-.6171-.3227-1.6731-1.0607-1.0607a16.8559,16.8559,0,0,1-7.93,3.5147c-.9484.1722-.5466,1.6181.3988,1.4464Z"/><path class="cls-5" d="M93.87,183.09a28.8982,28.8982,0,0,0,8.4129,3.2628c.941.2052,1.343-1.24.3988-1.4464a27.5721,27.5721,0,0,1-8.0546-3.1116A.7506.7506,0,0,0,93.87,183.09Z"/><path class="cls-5" d="M87.9071,164.6162a14.5221,14.5221,0,0,0-.7888,10.344.7506.7506,0,0,0,1.4464-.3988,12.8986,12.8986,0,0,1,.6376-9.1882c.406-.8694-.8867-1.6319-1.2952-.7571Z"/><path class="cls-6" d="M88.8739,230.3513a19.2823,19.2823,0,0,1,9.2729-10.3066c3.7461-1.9467,9.7094-3.4275,13.7188-1.3823a2.25,2.25,0,0,0,3.2695-1.33,20.0144,20.0144,0,0,1,5.3826-10.2634c1.6285-1.7807,6.47-8.04,9.0631-5.2052,1.1682,1.2771,3.9434.78,4.2017-1.1093.6278-4.5919,5.0612-7.287,9.1536-8.6878,4.3575-1.4916,8.5749-.6247,10.8625,3.6018.9714,1.7947,4.2667,1.0864,4.0327-1.0922-.7786-7.2482-8.9022-9.4972-15.055-7.891-6.1545,1.6067-13.7787,6.3036-13.9318,13.401l4.2915-1.7776c-4.89-4.6258-10.4346-.53-14.1779,3.3082-3.9355,4.0356-8.3754,9.12-8.1948,15.124l2.8173-2.1461c-3.0608-.4394-5.8589-1.056-8.98-.69a24.221,24.221,0,0,0-8.1987,2.5045,21.9923,21.9923,0,0,0-11.1741,12.9374c-.724,2.3622,2.8053,3.245,3.6462,1.0052Z"/><path class="cls-6" d="M140.5558,222.3434c3.5808-8.1732,12.4163-13.6352,21.3717-11.3656a2.3489,2.3489,0,0,0,2.8557-2.8557c-1.2257-5.57-1.3345-12.4335,2.9439-16.8031,4.0207-4.1064,9.5334-3.8512,14.6894-2.5827,1.6706.411,3.2985-1.8452,1.8015-3.0947-5.5742-4.6526-14.3609-2.9443-19.4348,1.7582-5.9759,5.5385-6.3776,14.5493-4.4772,21.9565l2.8557-2.8557c-10.6259-2.4552-22.8333,3.6705-25.8188,14.4883-.5121,1.8557,2.3931,3.2255,3.2128,1.3545Z"/><path class="cls-7" d="M110.4588,198.768a16.4028,16.4028,0,0,1,7.8426-4.3371c2.3875-.4775,5.0228-.0771,7.1211-1.5536,2.0064-1.4118,2.3394-4.0523,4.49-5.3479a6.9984,6.9984,0,0,1,7.0548.0915c1.5062.8213,3.3879-1.3255,1.9219-2.4908a9.5877,9.5877,0,0,0-13.7264,2.3595,12.5483,12.5483,0,0,1-1.4124,2.3938,4.7507,4.7507,0,0,1-2.8814.8815,22.4561,22.4561,0,0,0-4.9387.8074,14.8767,14.8767,0,0,0-7.6555,5.5105c-.9549,1.3332,1.07,2.7067,2.1841,1.6852Z"/><path class="cls-7" d="M145.3251,173.889a9.0359,9.0359,0,0,1,5.3772-1.2606c1.67.236,3.0984,1.2464,4.8284,1.2305,3.4985-.0321,5.2342-3.2213,7.1764-5.5925,4.7448-5.7929,10.8876-8.6068,17.7926-10.9783,1.8184-.6246,1.6335-3.5631-.4735-3.4989-7.1443.2179-14.3092,4.3439-19.1806,9.397-1.2892,1.3373-2.3339,2.8276-3.4956,4.2663-.3987.4937-1.0912,1.47-1.7651,1.6431-.8029.2068-2.144-.615-2.9374-.78a9.5927,9.5927,0,0,0-9.2915,3.0212,1.6328,1.6328,0,0,0,1.9692,2.5522Z"/><path class="cls-6" d="M189.3029,147.4192c-2.4465-7.0444,5.7276-10.9609,10.8582-13.2186a2.1164,2.1164,0,0,0,.97-2.3843,8.606,8.606,0,0,1,4.6422-10.3644c1.9635-.8225,3.9533-1.0681,5.1773-3.0183,1.2646-2.0149,1.2179-4.619,2.3655-6.7434,2.52-4.6653,7.2856-6.25,11.53-8.9018,4.2064-2.6274,7.7425-9.1752,13.3575-7.4465,2.1746.6695,2.9651-2.1964,1.4267-3.3842-5.4117-4.1786-10.9909,2.3017-14.6957,5.5161-4.6048,3.9954-10.6412,5.2439-14.3037,10.4715a17.4419,17.4419,0,0,0-1.8653,3.4562c-.5238,1.2874-.6275,2.7369-1.1452,3.9945-.6494,1.5776-2.3542,1.6412-3.7474,2.2621a11.9248,11.9248,0,0,0-3.1317,2.0488,12.9366,12.9366,0,0,0-3.6826,13.2319l.97-2.3843c-7.1137,3.1428-16.0974,9.2242-12.0255,18.2553.8356,1.8534,3.968.5371,3.2985-1.3906Z"/><path class="cls-6" d="M151.9385,180.7537a15.1337,15.1337,0,0,1,14.4506-2.6436,1.839,1.839,0,0,0,2.2984-1.7509,7.8791,7.8791,0,0,1,4.5338-6.1973c2.1728-.9923,4.9018-.0945,6.8029-1.7337,1.6517-1.4242,1.91-3.9449,3.4533-5.5468a11.72,11.72,0,0,1,7.3981-3.3083c1.6626-.1551,2.3878-2.9163.432-3.192a11.6025,11.6025,0,0,0-8.6122,2.07,13.4492,13.4492,0,0,0-3.1665,3.1391c-.8367,1.1664-1.2278,3.1669-2.4037,3.834-1.2244.6946-3.1228.3907-4.5228.8884a11.5842,11.5842,0,0,0-3.7451,2.2225,11.3159,11.3159,0,0,0-3.8013,7.8244l2.2984-1.7509a16.6392,16.6392,0,0,0-17.3605,4.2007c-1.2382,1.3193.59,3.0332,1.9445,1.9445Z"/></g></svg>