<svg xmlns="http://www.w3.org/2000/svg" viewBox="0 0 546 227"><defs><style>.cls-1{fill:#f7fafc;}.cls-2{fill:#f2f6f9;}.cls-3{fill:#e93a1d;}.cls-4{fill:#ffefaf;}.cls-5{fill:#303030;}.cls-6{fill:#fff;}.cls-7{fill:#fce0de;}</style></defs><title>DN_Service-Ya-Audit-img-1</title><g id="back"><path class="cls-1" d="M240.7644,219.48a24.098,24.098,0,0,1-12.832-4.01c-1.6079-1-3.43-2.2839-5.6548-3.985a19.9854,19.9854,0,0,1-3.0962,3.256c-1.2942,1.0858-13.0354,10.2919-26.5334-.6644l-3.072-2.4968q-9.26-7.53-17.5474-14.24a19.9947,19.9947,0,0,1-5.0647,6.4413c-13.69,11.4875-30.6062,1.1759-42.9578-6.3535q-1.619-.9869-3.3538-2.0779a19.9882,19.9882,0,0,1-3.7529,4.1786,20.3858,20.3858,0,0,1-12.415,4.6987,20.04,20.04,0,0,1-3.9231.6312,20.1138,20.1138,0,0,1-6.5637,1.1394c-7.6824,4.1082-15.2625,1.4479-22.06-.9376-2.4573-.8622-5.627-2.0037-9.4634-3.4078a20.0106,20.0106,0,0,1-32.9763,3.5531s-5.707-6.7665-11.4128-13.549c-2.8606-3.4-5.7209-6.8047-7.8652-9.3669-5.3357-6.375-8.8608-10.5865-8.1436-18.8588a20,20,0,0,1,7.0808-13.6027,18.823,18.823,0,0,1,11.4341-4.6156c-4.1072-6.6018-5.019-10.9235-4.7861-15.6223A20.8748,20.8748,0,0,1,23.18,114.664a20.0855,20.0855,0,0,1,2.4138-1.7391,19.9929,19.9929,0,0,1,6.1243-5.8606q.6259-.6286,1.3088-1.2024a20.1144,20.1144,0,0,1,3.0227-2.0986q.1421-.124.2869-.2454a19.9986,19.9986,0,0,1,25.2-.4136l.604.4735a21.1787,21.1787,0,0,1,.06-2.485A20.0619,20.0619,0,0,1,69.29,87.3742c2.4922-2.0913,11.5857-8.4059,23.8794-1.78.7578.4084,1.57.882,2.4707,1.4423a19.9989,19.9989,0,0,1,6.7688-11.4647c5.6921-4.7761,15.3862-7.4343,25.5227-.5718,1.3044.8832,2.8132,2.0261,4.7488,3.5969q1.1986.9727,2.65,2.1942a20.0628,20.0628,0,0,1,3.2212-3.417c1.27-1.0656,12.8013-10.11,26.5049.2683.3511.266.7209.5542,1.1145.8685a20.1964,20.1964,0,0,1,21.5305.8816c.4031.2684.9893.675,1.7417,1.2179q.2238.1617.4763.3456a21.412,21.412,0,0,1,7.4758-14.201,19.9513,19.9513,0,0,1,12.7075-4.6782,20.005,20.005,0,0,1,22.8862-26.5061,20.0015,20.0015,0,0,1,31.2095-16.0548,19.9966,19.9966,0,0,1,31.3669-5.1318l1.7737,1.6735a21.9433,21.9433,0,0,1,4.4653-5.1062,21.1707,21.1707,0,0,1,21.8716-3.0963,19.9715,19.9715,0,0,1,1.6724-1.5756c2.959-2.4834,13.6643-9.7568,27.1814.9087,1.3679,1.0792,3.1853,2.5919,5.5557,4.6241q2.9352,2.5162,7.09,6.1741a20.049,20.049,0,0,1,3.2288-3.4268c5.7781-4.8491,15.67-7.5074,26.1028-.4276A67.3094,67.3094,0,0,1,400.6719,19c3.6306,3.15,8.5,7.7124,14.8877,13.9492,4.6492,4.54,9.8411,9.7113,15.3232,15.2257a19.9822,19.9822,0,0,1,17.7947,4.9712c.1819.17.3625.3395.5452.51a20.0006,20.0006,0,0,1,20.46,5.7166c.4058.4454,10.0476,11.0388,19.8406,22.2228,5.8376,6.6665,10.5112,12.1555,13.8911,16.3147,6.167,7.5883,11.0378,13.582,10.4373,22.5284a20.2712,20.2712,0,0,1-2.2869,8.063,19.215,19.215,0,0,1,2.3535,11.1664,20.03,20.03,0,0,1-6.9,13.5259A20.0048,20.0048,0,0,1,490.9519,175.84c.0134.6235.0046,1.2375-.0229,1.8457A22.4548,22.4548,0,0,1,482.95,194.1a21.3138,21.3138,0,0,1-16.2822,4.7262,20.0145,20.0145,0,0,1-30.3152,3.375l-1.4634-1.3806a19.999,19.999,0,0,1-4.4175,5.24c-2.6863,2.2539-12.4968,8.9839-25.9529.947-1.4871-.8883-3.1125-1.9867-4.9836-3.3716a20.013,20.013,0,0,1-29.2456,3.0078l-7.5884-6.6979a20.8676,20.8676,0,0,1-5.7979,7.787c-12.4568,10.4531-26.6414,1.3821-31.3022-1.5986q-1.3488-.8626-2.8518-1.8859a20.9574,20.9574,0,0,1-4.9231,6.03,19.9989,19.9989,0,0,1-25.1321.4666c-3.69-2.87-7.5691-5.8853-11.5872-9.0072a20.8681,20.8681,0,0,1-6.8047,10.9822,20.005,20.005,0,0,1-21.4412,2.7461A20.633,20.633,0,0,1,240.7644,219.48Z"/><path class="cls-2" d="M292.4089,225.3a27.7079,27.7079,0,0,1-13.4661-3.88,90.5112,90.5112,0,0,1-8.7056-5.6622,20.0249,20.0249,0,0,1-25.3994-11.3988c-4.614-6.2142-20.2883-24.0071-33.502-38.3972a19.9983,19.9983,0,0,1,.5469-27.6239q.23-.2318.467-.4551a20.9415,20.9415,0,0,1-.5129-6.2269,20.5444,20.5444,0,0,1,7.2463-14.3984,19.949,19.949,0,0,1,7.9258-4.063c-4.1743-5.1628-6.4619-9.6244-6.05-16.1467a20.031,20.031,0,0,1,18.5476-18.7351,20.0237,20.0237,0,0,1,10.2148-25.8569,20.7781,20.7781,0,0,1,7.3267-3.3328,21.016,21.016,0,0,1,7.467-14.42,19.923,19.923,0,0,1,9.9724-4.4714,20.0022,20.0022,0,0,1,23.4937-13.157,20.0154,20.0154,0,0,1,4.9424-6.2,22.2313,22.2313,0,0,1,15.5542-5.1266,20.0351,20.0351,0,0,1,19.384-.4309C341.76,2.6306,350.4692-1.4316,362,4.74c4.7036-1.1493,10.9617-.9529,18.2607,3.4675a72.6308,72.6308,0,0,1,9.6116,7.2588q.81.7,1.6675,1.4609a19.9868,19.9868,0,0,1,18.406,6.43l.8423.9492a19.9093,19.9093,0,0,1,9.9844,6.0818c5.6123,6.3065,11.4729,12.8181,17.3474,19.2771a19.9608,19.9608,0,0,1,15.6775,5.8755l1.0613,1.072A20.0366,20.0366,0,0,1,470.4914,67.03c2.1685,2.5206,6.99,7.6646,10.6565,11.5773,21.853,23.3167,28.4482,30.3536,27.7764,41.5713a20.4981,20.4981,0,0,1-.8167,4.6216,20.0627,20.0627,0,0,1-2.3394,12.6589,20.0477,20.0477,0,0,1-2.1616,10.7322,20,20,0,0,1-6.4712,10.1748q-.7269.61-1.5269,1.1593a20.4437,20.4437,0,0,1-6.7192,10.97,20.0351,20.0351,0,0,1-4.376,2.78,21.3523,21.3523,0,0,1-4.1677,4.6927,19.9309,19.9309,0,0,1-7.9724,4.0767,20.4258,20.4258,0,0,1-5.0471,6.3583,19.9929,19.9929,0,0,1-3.4932,2.3523,20.8032,20.8032,0,0,1-4.9253,6.0138,19.9745,19.9745,0,0,1-15.2764,4.532,19.9977,19.9977,0,0,1-5.5813,7.5707,20.6781,20.6781,0,0,1-21.4492,3.019,28.829,28.829,0,0,1-4.9922-2.7665q-.54-.3649-1.1157-.778-.0795.0681-.16.1354a20.322,20.322,0,0,1-26.0588-.152c-.4236-.3411-.8806-.7277-1.3958-1.1807A19.9741,19.9741,0,0,1,379.94,210.2a21.5965,21.5965,0,0,1-12.4194,5.0176c-7.5359,2.1383-15.5469-.2772-23.0193-4.1975a20.861,20.861,0,0,1-4.5127,5.285,19.9987,19.9987,0,0,1-24.5247.92l-4.6865-3.3677a19.9945,19.9945,0,0,1-5.1262,6.5663A20.4618,20.4618,0,0,1,292.4089,225.3Z"/></g><g id="Layer_2" data-name="Layer 2"><path class="cls-3" d="M543.4646,46.3127c-.92-5.2617-3.9446-11.542-6.8845-16.0566-2.4343-.4033-3.2905-2.0474-6.1682-1.9585-3.8853.1221-9.2639,1.7275-12.94,3.01-6.8633,2.3936-13.9561,7.022-21.3247,7.5078a103.4578,103.4578,0,0,1-20.9446-.3589c-11.7913-1.6631-23.2971-3.6855-35.0837-5.3613-2.9751-.4229-5.64-1.5894-8.5017-2.1211-3.4912-.6484-7.3845-.085-10.9475-.4712-7.2441-.7852-14.5957-2.769-21.7832-4.0479-3.9478-.7017-8.3237-1.3623-12.2119-1.8027,2.89-4.5859,13.0664-3.3418,17.7737-4.2837,5.74-1.1489,13.8533-5.6411,18.7019-.2036,2.0107,2.2549,3.64,6.9209,6.2905,7.0957,5.6506.373,3.8682-5.8843,2.0408-8.9092-6.6946-11.0806-16.5-4.1655-26.2112-2.875-11.551,1.5352-23.3076,1.7754-34.85,3.4116-4.4812.6353-11.1418,2.75-13.4041,7.1821-1.1763,2.3047-.803,6.106-.9343,8.6577a121.6017,121.6017,0,0,0-.0022,17.1875c.823,8.8516.7332,17.9409,4.8845,26.0659a26.0312,26.0312,0,0,0,4.3005,6.22,27.5817,27.5817,0,0,0,9.3308,6.1655c5.3838,2.3535,11.1909,2.0645,16.6445.1191A84.3666,84.3666,0,0,0,403.93,85.1c9.9978-5.7134,9.3928-17.9326,10.8362-27.6978.4417-2.9878.9431-6.1748,1.1689-9.1548-.0657.8667,9.4075,2.0518,10.3333,2.0234-.4512.0137.4612,18.08.5349,19.519.53,10.3311.3567,20.9878,5.9656,30.1426,4.5757,7.4683,11.772,10.103,19.69,12.5981,6.9836,2.2,15.2737,1.8677,22.3308-.0449,5.2065-1.4106,9.9854-5.3926,13.5007-9.2866,3.4248-3.7935,4.69-8.209,6.2144-12.96,1.3064-4.0737,1.6213-8.1611,2.5833-12.17,1.0674-4.4478-.2839-8.7681-.4812-13.26-.092-2.1025-.44-5.5728.9036-7.3584,2.9287-3.8936,8.0225-4.9072,12.2261-6.8135,6.5505-2.9731,13.34-6.9912,20.45-8.7446,6.9639-1.7168,3.6843,4.2412,6.6487,8.7124C540.4922,56.1213,544.37,51.4895,543.4646,46.3127ZM394.5078,46.12a58.992,58.992,0,0,0-3.2449,11.5649c-.677,4.4414-1.4407,8.87-2.033,13.3237-.09.6729-1.9429,10.561-1.9153,10.5776-1.7471-1.0449-3.7058-.8047-4.5642-2.9673-.7583-1.9106.1755-5.1694.6343-7.08-2.8313.6978-7.4431,2.1831-9.5378,4.3711-.3279-1.3687-1.59-2.3594-2.67-3.1821-.2014-.1533,10.875-13.1826,8.2893-15.7852-1.2065-1.2109-5.6177-1.8848-7.3611-1.7734.1206-.0078,1.3853-13.0615,1.5-13.8491.39-2.6647-.748-6.408,2.8245-6.2549,2.8915.124,6.0652,1.6622,9.1316,1.8875,3.26.24,6.5484,2.2411,9.8464,1.4982C396.4222,41.008,395.4237,43.6469,394.5078,46.12Zm76.6228,18.647c-.2634,7.979-1.241,15.8066-1.6042,23.751-.1743,3.8145.9731,7.6826.4377,11.4722-.4546.0244-7.7986.2485-7.7942.3369-.1648-3.1943.0933-6.5474-.385-9.6934a14.3834,14.3834,0,0,0-7.4155,3.65c-1.3049,1.1079-3.4651,3.8853-5.3159,4.0234-.2893.022-3.1772-.5684-2.7664-.8779,3.4377-2.5908,4.64-8.2949,6.4761-12.0684.8938-1.8364,5.6187-7.1177,5.3147-9.0679-.5193-3.3306-11.7844-3.8335-15.1289-7.1885.7109.5083.1824-.72.3689-2.1353.2676-2.0283.3743-4.0234.7651-6.03a63.8756,63.8756,0,0,0,.9771-8.104c.1313-2.0376-.6177-4.2573-.3274-6.1753,2.2769-.3159,4.595.6045,6.844.9043,2.6924.3584,5.43.1357,8.1907.2407,3.5376.1343,6.92,1.7041,10.2244,1.7646C470.2751,54.74,471.3056,59.4656,471.1306,64.7668Z"/><path class="cls-4" d="M374.5283,34.7175c.0181.0762.0244.1548.0393.2319a2.45,2.45,0,0,0,.2429.0361C374.7759,34.7976,374.5852,34.8279,374.5283,34.7175Z"/><path class="cls-4" d="M380.0752,58.8406c1.7034-3.4658-3.6509-3.2368-5.9243-4.0439-2.8142-1-1.55-4.0806-1.229-6.498.3547-2.6714.7351-5.3291,1.1934-7.9746a15.1631,15.1631,0,0,0,.4524-5.3745c-1.29-.1875-2.6125-1.3677-3.8979-1.28-2.4958.17-2.1941,5.0112-2.4956,6.877-.6064,3.7529-1.86,7.35-2.2717,11.1289-.2261,2.0752-.1865,4.2578,1.7661,5.5024,1.3745.8765,4.4834.6338,5.0713,1.9229.81,1.7759-2.27,4.9937-3.1519,6.3721-2.0591,3.2163-5.8157,6.9688-3.8259,10.7632.5857,1.1172,1.4468,3.4976,2.9331,3.0645,1.3357-.39,3.4519-2.8735,4.4729-3.8706-.3555-1.2012-2.0215-1.6128-2.0632-2.938-.041-1.2988,1.5906-3.5771,2.3423-4.64C375.5757,64.842,378.4355,62.1765,380.0752,58.8406Z"/><path class="cls-4" d="M383.563,77.9656a55.1392,55.1392,0,0,1-.58-6.1938c-1.02-.0405-5.4595,1.3394-5.48,2.8032a50.489,50.489,0,0,0,.4426,5.626c.0732.8379-.07,2.2383.5359,2.8506.8674.877,3.02.5391,4.0779.5952a38.2707,38.2707,0,0,1,3.9937.2744c.1143-.7378.4954-1.4541.5977-2.1772C385.0923,80.9187,383.9377,80.2244,383.563,77.9656Z"/><path class="cls-4" d="M454.7175,85.2131c1.0894-1.6826,3.885-6.3218,2.49-8.4722-.7849-1.2095-3.3835-1.7114-4.6838-2.1592a27.94,27.94,0,0,1-4.6943-2.022c-2.1567-1.2417-4.75-2.2534-5.1938-5.0679-.3069-1.9468.5422-4.0117.8306-5.9062.314-2.061.6008-4.166.8057-6.2187.1895-1.9009,1.9541-8.3564-.291-9.2031-.917-.3457-4.196-.2354-5.5022.749-1.5525,1.915-.9126,6.1172-1.0334,8.4761-.1367,2.6689-.156,5.35-.2974,8.021a61.1437,61.1437,0,0,0-.1509,6.6895c.1392,2.3916,1.5176,3.26,3.4021,4.1987a55.3479,55.3479,0,0,0,5.0686,2.6563c1.2148.458,3.4885,1.1777,4.332,2.2456,1.54,1.9507-2.9265,8.4858-4.2234,10.5024a59.6448,59.6448,0,0,0-4.1843,6.7334c-.6958,1.5-1.5522,3.1816-1.4038,4.8931a15.599,15.599,0,0,1,3.0947.17c.8916.2988,1.3242,1.3677,2.3784,1.3516.9973-.0146,3.6213-1.8936,3.2871-3.0713-.22-.7764-1.6594-.7656-1.9851-1.5249-.46-1.0728.7681-2.4468,1.2363-3.3818C449.7856,91.3054,452.5532,88.5564,454.7175,85.2131Z"/><path class="cls-4" d="M457.3657,93.0163c.0254-.0425.0554-.0771.0813-.1187a3.4685,3.4685,0,0,0-.2036-.31A2.4951,2.4951,0,0,1,457.3657,93.0163Z"/><path class="cls-4" d="M470.1587,99.8435c-.4277-.2817-2.9878.3784-3.4116.4556-.7139.13-2.0625.8018-2.7686.6064-1.6572-.4585-1.42-2.6353-1.5566-4.0415-.231-2.376-.948-4.72-1.2153-6.9521a8.6243,8.6243,0,0,0-3.76,2.9858c1.2444,2.0625,1.1208,6.2251,1.3313,8.5952.1675,1.8862-.3232,2.39,1.5593,2.67,2.18.3237,4.3521.6309,6.5344.8667,1.0737.1157,2.6509.1826,3.4363.9438C471.0139,105.1653,471.1743,100.5124,470.1587,99.8435Z"/><path class="cls-5" d="M426.2269,49.4214c.0757,7.01-1.1145,14.0287-.5,21.0325a146.2151,146.2151,0,0,0,2.4261,17.14,46.8032,46.8032,0,0,0,6.1486,15.3407c2.4264,3.8729,5.4641,5.6335,9.6917,7.1483,5.677,2.0342,11.56,5.19,17.7505,4.917a25.3923,25.3923,0,0,0,14.0691-5.5249,40.2,40.2,0,0,0,15.4794-28.4905c.7108-7.7314.6749-15.574,1.198-23.3339.2263-3.3563.46-6.7141.6079-10.075.047-1.0671.5219-3.0117-.5865-3.6378a7.8962,7.8962,0,0,0-2.1844-.367q-2.75-.4648-5.5-.9333Q476,41.14,467.1727,39.6461c-23.7285-4.0145-47.4223-8.4017-71.3188-11.3032q-12.1511-1.4754-24.3147-2.8461-4.54-.5175-9.08-1.0281c-1.3672-.1538-3.2136-.7094-4.5869-.5135-1.1233.16-1.3036.94-1.5281,1.9831a54.84,54.84,0,0,0-.8249,7.4072c-.503,6.7048-.7962,13.4454-.86,20.1691-.0791,8.3454,2.4455,16.4148,5.8329,23.96,2.09,4.6559,4.6137,9.2349,9.22,11.7925a25.9545,25.9545,0,0,0,13.3107,2.8758c9.8221-.4262,18.7124-7.5673,22.8463-16.27,3.2369-6.8146,2.9977-14.7945,3.5669-22.1886.1426-1.8526.94-4.746.3841-6.5656l-.8216,1.0785q8.9333,1.0394,17.873,2.0093c1.0032.11.9954-1.4615,0-1.57-5.9625-.6517-11.9141-1.45-17.873-2.143a.8572.8572,0,0,0-.8216,1.0785c.0086.028-.11,1.5747-.1428,2.0522-.1048,1.5223-.2228,3.0436-.34,4.565-.2088,2.7038-.4608,5.4074-.6249,8.1144-.2922,4.82-.89,9.44-3.198,13.77a29.7323,29.7323,0,0,1-10.89,11.3852c-8.2713,4.85-21.3818,4.1344-27.3625-4.0846-3.2286-4.437-5.5276-10.2455-7.0772-15.4791a49.0953,49.0953,0,0,1-2.1961-12.1821c-.1539-5.47.1915-10.9956.4769-16.4556.1594-3.0488.3424-6.0994.6392-9.1383.1061-1.0861.2109-2.178.4006-3.2534a5.3892,5.3892,0,0,0,.2-.9941c-.0338-.7154.6048-.3721-.352-.27a13.9362,13.9362,0,0,1,2.7644.3069q3.6.401,7.1986.8073Q378.3344,27.92,388.99,29.1732c22.1644,2.6189,44.0922,6.3744,66.1008,10.0612q16.4389,2.7538,32.8752,5.523a21.0712,21.0712,0,0,0,3.4725.5877c.1738-.0019.4621.1567.6321.1078-.4979.1432-.1644-.7745-.4858-.3622-.1088.14-.0073.86-.0121,1.0594-.14,5.7819-.69,11.5706-1.1107,17.337-.6536,8.9528.2584,18.37-2.7563,26.9629-3.5709,10.178-12.2757,20.6008-23.3124,22.6926-6.2641,1.1872-12.1072-1.5557-17.8386-3.7145-2.4107-.908-5.0265-1.54-7.1774-3.0062a15.39,15.39,0,0,1-4.334-5.0863,47.25,47.25,0,0,1-5.7885-15.7535,116.8491,116.8491,0,0,1-2.24-17.989c-.1669-6.0653.6673-12.1042.5015-18.1717A.6449.6449,0,0,0,426.2269,49.4214Z"/><path class="cls-5" d="M397.9784,88.7869c8.7916-3.176,14.769-12.4611,16.0539-21.416.6088-4.2429,1.0444-8.5211,1.5823-12.775.18-1.4262,1.4039-6.2039-.5955-6.897-.9947-.3448-1.4128,1.2206-.433,1.5707-.5109-.1826-.2406.1543-.2283.8022.0119.6229-.0456,1.2527-.0948,1.873-.1158,1.4593-.3071,2.9133-.5065,4.3632-.5263,3.8272-.7058,7.6839-1.1792,11.5144-1.1137,9.0123-7.45,15.6468-15.0571,19.8776-.5755.32-.1873,1.32.4583,1.087Z"/><path class="cls-5" d="M493.7948,44.8258a46.4271,46.4271,0,0,1,5.8272-2.1643.6422.6422,0,0,0-.3411-1.2374,22.2114,22.2114,0,0,0-6.1426,2.2785c-.7482.4022-.0911,1.4682.6565,1.1232Z"/><path class="cls-5" d="M498.9805,43.2036a185.1881,185.1881,0,0,1,19.4114-6.9889c3.07-.976,6.142-1.9462,9.1885-2.9934,1.5975-.5491,3.1886-1.117,4.7676-1.7178,1.0113-.3848,2.7082-1.37,3.8243-.8167.7624.378,1.1946,1.6558,1.5385,2.3741a43.31,43.31,0,0,1,1.956,4.5536c.9517,2.759,2.1371,5.5794,2.88,8.3957.4393,1.6647.7676,3.3434-.4216,4.7183a4.1232,4.1232,0,0,1-.8565.863c-1.09.6422-1.1607.1857-1.8016-.85-1.87-3.0219-2.9875-6.9192-3.8647-10.3437a.7183.7183,0,0,0-.8621-.4895c-4.448.788-8.9011,2.9571-13.0642,4.62-6.5439,2.6147-13.0452,5.3947-19.34,8.5668-1.7042.8587-4.6192,1.64-5.2351,3.6211-.6961,2.2388-.4575,4.99-.5085,7.3037-.193,8.76-.3145,17.6332-2.6514,26.12a27.0993,27.0993,0,0,1-8.0449,13.5118,46.2313,46.2313,0,0,1-12.986,8.1055c-.7232.311-.1945,1.5937.5418,1.2851,7.09-2.9712,14.3152-7.5955,18.51-14.2178,4.795-7.5693,5.4839-17.5244,5.6739-26.2185.0712-3.257.3233-6.4989.4053-9.7544.0327-1.2982.0652-2.6007.1786-3.8948.156-1.7811.3407-2.2612,1.9483-3.1316a199.7791,199.7791,0,0,1,19.4875-8.9631c4.9032-2.0079,10.1992-4.6633,15.4573-5.6021l-.8621-.4895a51.6708,51.6708,0,0,0,2.3978,7.0782c.6419,1.5332,1.3572,4.22,2.5513,5.3932,1.2385,1.2166,2.869-.4212,3.7449-1.3634,1.9154-2.06,1.4994-4.5151.6631-7.0588a100.8606,100.8606,0,0,0-4.2973-11.5181c-.8044-1.7061-1.5894-4.073-3.8225-4.123-1.3289-.03-2.7318.7426-3.928,1.1964-2.297.8714-4.6173,1.6794-6.9471,2.4583-8.8146,2.9468-17.72,5.5425-26.1917,9.4144-.6495.2968-.0852,1.2433.5589.9562Z"/><path class="cls-5" d="M387.922,23.3818q8.6207-1.4,17.2395-2.8123,3.8293-.6306,7.658-1.2643,1.9134-.32,3.8264-.6415a4.8469,4.8469,0,0,1,3.54.2972A3.4386,3.4386,0,0,1,422.7,21.0567a71.9059,71.9059,0,0,0,4.1538,7.0485c.5626.7355.7523,1.0007,1.711.7359,1.7665-.488,4.1252-2.8816,5.0288-4.4027,1.1448-1.9273-.4235-4.6161-1.3563-6.3607-1.19-2.2253-2.769-5.0468-5.3649-5.8113-1.8983-.5591-3.9332-.0631-5.8228.2539-2.9944.5024-6.0318.71-9.05,1.0367q-7.8074.8445-15.5791,1.9868c-5.8226.8656-11.64,1.8043-17.4546,2.7231a55.69,55.69,0,0,0-15.2967,4.19c-.6257.2959-.2521,1.1566.3248,1.1993,23.5569,1.7433,46.8914,5.5637,70.21,9.2106,11.4644,1.7929,22.9463,3.4721,34.4194,5.2081q8.185,1.2385,16.3678,2.4922a31.3807,31.3807,0,0,0,13.5693-.5924c5.7334-1.5776,11.2756-3.7133,16.8183-5.8424,5.2375-2.0119,10.6082-4.6539,16.2984-4.9288a.5687.5687,0,0,0,0-1.1367c-4.7723.0079-9.2249,1.9213-13.5956,3.639-4.86,1.91-9.7167,3.7806-14.6845,5.391-4.7755,1.5482-9.52,3.1-14.6144,2.6889-5.8077-.469-11.6378-1.7093-17.399-2.5776-23.0147-3.4687-46.0033-7.18-69.0405-10.49-12.7372-1.83-25.5137-3.398-38.349-4.3492l.3248,1.1993c7.7248-3.6526,16.4764-4.1466,24.785-5.5564,9.9865-1.6945,20.0082-2.6857,30.05-3.93a48.2221,48.2221,0,0,1,5.6873-.8041c2.439-.0086,3.67,1.28,4.9313,3.1212,1.2483,1.8225,3.871,5.4934,2.57,7.647a11.5889,11.5889,0,0,1-2.6546,2.6257c-.6147.4929-.9743.9205-1.6607.6538-.9335-.3627-1.5806-2.3035-2.0817-3.1482-1.6059-2.707-3.0317-7.2335-6.7682-7.1079a51.3524,51.3524,0,0,0-6.6664,1.1144q-4.0611.6947-8.1192,1.4065-8.3559,1.4508-16.7073,2.9274c-.57.1-.3248.9559.2383.8645Z"/><path class="cls-5" d="M440.043,101.3662c4.0747-7.0583,8.045-14.1725,12.0028-21.2969a.6859.6859,0,0,0-.4045-.9942,58.106,58.106,0,0,1-7.959-3.1666c-1.18-.5755-2.343-1.1881-3.4789-1.8464a5.0557,5.0557,0,0,1-2.8647-4.4387c-.6458-5.9394-.0126-12.3581.8128-18.2493a13.8654,13.8654,0,0,1,.579-3.5458c.9871-2.1469,3.32-1.4386,4.9773-1.2179q4.4213.5885,8.842,1.1816,9.0875,1.2149,18.1753,2.4271l-.7092-.7092c-.17,18.9318-.4008,37.8631-.5548,56.7951l.8763-.6675a37.6911,37.6911,0,0,0-11.9437-2.1622l.7078.7078c-.4445-3.9661-.9159-7.9292-1.3748-11.8936-.0547-.4723-.568-.9374-1.0492-.6021a33.6507,33.6507,0,0,0-9.8554,10.6319l.7947-.3234q-3.8157-.5683-7.63-1.1481c-.9171-.1384-1.3073,1.2685-.3863,1.4012q3.8211.55,7.6418,1.104a.7361.7361,0,0,0,.7947-.3234,31.7592,31.7592,0,0,1,9.344-10.1381l-1.0492-.6021c.4506,3.9646.8887,7.9307,1.3537,11.8936a.7267.7267,0,0,0,.7078.7078,35.4858,35.4858,0,0,1,11.5756,2.0816.6979.6979,0,0,0,.8763-.6675c.2271-18.9314.3776-37.8635.5888-56.7951a.7133.7133,0,0,0-.5207-.6839q-11.391-1.5353-22.7849-3.0488c-2.4779-.3313-6.3022-1.6241-8.7888-.6644-2.4487.9451-2.3459,4.18-2.6451,6.36a98.9777,98.9777,0,0,0-.8823,10.3687c-.0987,3.1625-.6443,7.3.4713,10.3332.8809,2.395,3.7987,3.52,5.8962,4.5733a61.62,61.62,0,0,0,9.1014,3.6324l-.4045-.9942c-3.8988,7.1619-7.7821,14.329-11.5626,21.5541a.4222.4222,0,0,0,.7286.4259Z"/><path class="cls-5" d="M365.9919,56.4428a121.6939,121.6939,0,0,1,3.904-23.0628l-.7948.4512a114.68,114.68,0,0,0,26.784,5.414l-.679-.8913c-3.6815,15.256-6.5692,30.7454-9.2569,46.2032l.8975-.51-8.6555-1.3532.551.7238c-.22-3.3536-.304-6.7021-.2337-10.0624a.7625.7625,0,0,0-1.136-.6519,45.6777,45.6777,0,0,0-9.8843,7.1354l1.2048.1553c-.8655-1.3527-3.1211-3.83-3.3036-5.4438-.1662-1.47,1.509-3.803,2.2452-5.1241a58.8779,58.8779,0,0,1,6.92-9.8369.7771.7771,0,0,0-.3389-1.2836c-2.9241-.7457-5.7294-1.8915-8.6548-2.6333a.8.8,0,0,0-.4252,1.5425c2.9211.7519,5.7494,1.8239,8.6717,2.5719l-.3389-1.2836A60.3256,60.3256,0,0,0,365.6748,69.8c-.6215,1.177-2.3038,3.4788-2.1593,4.8375.0824.7751,1.02,1.7309,1.4349,2.3755l2.418,3.756a.778.778,0,0,0,1.2048.1553,43.8184,43.8184,0,0,1,9.5615-6.9165l-1.136-.6519c-.0687,3.3591.0056,6.7107.2425,10.0624a.7648.7648,0,0,0,.551.7238l8.6666,1.3128a.7422.7422,0,0,0,.8975-.51c2.7425-15.4787,6.0161-30.8283,9.2078-46.2167a.7161.7161,0,0,0-.679-.8913,106.7824,106.7824,0,0,1-26.4405-5.2517.6526.6526,0,0,0-.7948.4512c-1.9261,7.6613-4.0234,15.4463-3.9412,23.4063a.642.642,0,0,0,1.2832,0Z"/><path class="cls-5" d="M374.1937,36.0281c-.5752,2.7774-.95,5.5965-1.3653,8.4012-.4163,2.81-1.0765,5.6935-1.246,8.5288a2.0034,2.0034,0,0,0,1.2769,2.3279c2.5293,1.2395,5.8259,1.7037,8.5644,2.2734l-.409-1.0052q-4.0926,5.9888-8.1811,11.9805c-.6507.9564-2.5879,2.7968-2.502,4.0968.0732,1.1069,1.3643,2.04,2.0658,2.7452.606.609,1.4607-.29.9281-.9281-.2275-.2727-1.3984-1.3322-1.469-1.6622-.124-.58.81-1.5485,1.0861-1.953q1.5-2.1961,2.9992-4.3932,3.1293-4.5963,6.2547-9.1953a.6884.6884,0,0,0-.409-1.0052c-2.1779-.4481-4.3394-.9634-6.4726-1.5921-1.7647-.52-2.2638-.6576-2.185-2.8205a31.45,31.45,0,0,1,.4842-3.28c.5983-4.1107,1.3077-8.2317,1.6672-12.3717a.5562.5562,0,0,0-1.0876-.1472Z"/><path class="cls-5" d="M377.5552,74.4745a28.43,28.43,0,0,1,5.8454-2.0644l-.8317-.6336c.103,3.7255-1.0437,10,4.2585,10.5791.7146.0781.7613-.9725.16-1.1855-2.2326-.7915-3.0158-2.0986-3.16-4.425-.1023-1.6529.0713-3.3142.0549-4.9687a.6671.6671,0,0,0-.8317-.6336,18.3459,18.3459,0,0,0-6.0994,2.2995.5981.5981,0,0,0,.6033,1.0321Z"/><path class="cls-5" d="M366.16,56.7c2.1633-.4773,4.31-1.1628,6.419-1.8358a.6246.6246,0,0,0-.3318-1.2035c-2.1419.563-4.321,1.1354-6.4034,1.8923A.5953.5953,0,0,0,366.16,56.7Z"/><path class="cls-5" d="M373.0149,60.08a47.2992,47.2992,0,0,1,7.2335-2.4707.56.56,0,0,0-.2975-1.0792,37.3458,37.3458,0,0,0-7.4949,2.5936c-.6417.3188-.08,1.2578.5589.9562Z"/><path class="cls-5" d="M365.2707,75.4361c1.7453-.74,3.4206-1.678,5.0866-2.5788.6989-.3779.0807-1.4248-.621-1.0625-1.68.8676-3.3975,1.7214-4.989,2.7458a.519.519,0,0,0,.5234.8955Z"/><path class="cls-5" d="M378.9363,82.9833c1.8513-.7082,3.7136-1.4128,5.5143-2.2428.6405-.2952.1815-1.412-.4854-1.1513-1.845.7213-3.6916,1.47-5.4849,2.3124-.6.2818-.1725,1.3221.456,1.0817Z"/><path class="cls-5" d="M444.0942,47.9141c-.7469,5.6755-1.229,11.3884-1.78,17.0856-.1731,1.79-.9053,4.1952.3972,5.7152,1.0795,1.26,3.3407,1.6776,4.8176,2.2125q3.7258,1.3493,7.4512,2.7c1.0007.3608,2.2022.9724,2.239,2.2817.011.3913-.7465,1.303-.9483,1.6531q-1.0707,1.8576-2.1588,3.7051-4.4722,7.5953-9.2089,15.0315a.7069.7069,0,0,0,.6027,1.05c1.4819.1808,2.8648.7,4.3516.8583.7476.08.9315-1.2185.1791-1.3236-1.5379-.2148-2.9871-.7386-4.5308-.9306l.6027,1.05q4.7478-7.4284,9.2042-15.0343c1.49-2.5493,5.8541-7.2067,1.6406-9.0821-2.4883-1.1075-5.1809-1.8865-7.7434-2.81-1.3113-.4724-2.6539-.9006-3.9461-1.4242-2.2314-.9042-1.8533-2.7174-1.6582-4.7038.59-6.0047,1.2618-12.0124,1.643-18.0348.048-.7581-1.06-.7141-1.1543,0Z"/><path class="cls-5" d="M457.3851,92.857c1.4929-.7343,2.9389-1.5451,4.3813-2.3737l-.9876-.5667q.5928,5.11.8223,10.2449a.6894.6894,0,0,0,.6771.6771c2.3392.0018,4.677.0571,7.0158.0773a.6654.6654,0,0,0,0-1.33c-2.3366-.097-4.6775-.1013-7.0158-.1013l.6771.6771q-.2432-5.14-.8637-10.2449a.6654.6654,0,0,0-.9876-.5667c-1.4384.8345-2.8631,1.681-4.2452,2.6066a.5219.5219,0,0,0,.5264.9006Z"/><path class="cls-5" d="M459.5348,103.3866a12.9821,12.9821,0,0,0,1.7274-1.3226,22.58,22.58,0,0,0,1.695-1.5045c.4477-.4563-.1406-1.2885-.703-.9111-.6035.4051-1.1615.8687-1.723,1.329a13.1961,13.1961,0,0,0-1.6922,1.5072.5769.5769,0,0,0,.6959.9019Z"/><path class="cls-5" d="M441.4052,101.6584a19.5734,19.5734,0,0,0,4.21-3.0033.6091.6091,0,0,0-.7349-.9525,19.62,19.62,0,0,0-4.0751,3.1782.4973.4973,0,0,0,.6.7776Z"/><path class="cls-5" d="M451.17,79.9519a50.4749,50.4749,0,0,1,7.2058-3.6594c.7414-.303.469-1.4888-.3411-1.2374a24.1,24.1,0,0,0-7.5854,3.9627c-.5376.4181.1536,1.2787.7207.9341Z"/><path class="cls-5" d="M438.3685,72.1505a9.7553,9.7553,0,0,1,3.6-1.5034c.807-.1578.46-1.3652-.338-1.2261a8.352,8.352,0,0,0-3.9506,1.8368c-.4936.4115.1531,1.25.6888.8927Z"/><path class="cls-6" d="M320.4675,82.7463c4.8864-.7417,9.9962.2482,13.6555,3.7523a14.5615,14.5615,0,0,1,4.0619,13.314,2.0894,2.0894,0,0,0,2.5413,2.5413,16.9632,16.9632,0,0,1,20.1523,9.3635,2.51,2.51,0,0,0,2.83,1.1518,10.3285,10.3285,0,0,1,10.8937,2.4559c3.6994,3.8037,1.9571,9.5218,4.6926,13.6394a2.3244,2.3244,0,0,0,4.2947-1.1632,33.6567,33.6567,0,0,0-1.7679-10.1475,14.64,14.64,0,0,0-4.5194-6.8876,15.2667,15.2667,0,0,0-14.9263-2.7306l2.83,1.1518c-4.4611-9.0886-16.04-13.7165-25.5789-10.8178l2.5413,2.5413a18.7294,18.7294,0,0,0-5.2263-17.2322c-4.522-4.225-11.4056-6.084-17.3185-3.9911a1.5874,1.5874,0,0,0,.8432,3.0586Z"/><path class="cls-6" d="M398.016,122.0114c2.61-1.9253,5.4509-4.0369,8.851-4.0275,2.7005.0074,5.6941,1.7756,5.8131,4.7123l4.49-.6077q-.39.5446.1147.0974a2.3516,2.3516,0,0,1,.913-.4625,18.5259,18.5259,0,0,1,2.6239-.6982,14.92,14.92,0,0,1,5.29-.4418c2.6678.3481,5.8026,2.4981,5.02,5.563a2.3545,2.3545,0,0,0,3.4145,2.625c2.9759-1.4087,6.0581.367,7.7879,2.8079a1.9156,1.9156,0,0,0,3.4841-1.4689c-1.4668-5.87-8.6413-7.719-13.6184-5.3531l3.4145,2.625c1.5038-5.9277-3.5752-10.8289-9.1913-11.42-3.6486-.3839-16.2031.9731-13.6619,7.3415.8758,2.1947,4.6613,2.1893,4.49-.6077a9.7382,9.7382,0,0,0-8.0535-8.8422c-4.9849-.9895-10.0385,1.8036-13.37,5.323-1.3427,1.4186.4714,4.1,2.187,2.8344Z"/><path class="cls-6" d="M440.3156,145.4409a6.652,6.652,0,0,1,9.967,4.9516,2.2442,2.2442,0,0,0,2.7591,1.5666,9.744,9.744,0,0,1,10.7657,1.7325c3.0352,3.0314,2.8617,6.948,1.9639,10.8034a2.0722,2.0722,0,0,0,3.77,1.5893c3.002-4.7651,1.3326-11.7955-2.5268-15.6a14.2615,14.2615,0,0,0-15.7009-2.6252l3.2949,1.34c-1.3162-7.4144-9.8672-11.29-16.1381-6.9161a1.83,1.83,0,0,0,1.8454,3.1571Z"/><path class="cls-6" d="M458.9974,135.7307a37.0334,37.0334,0,0,1,8.7381-3.6451,11.4034,11.4034,0,0,1,4.2077-.5812c1.0226.1412,3.202,1.1816,1.7717,2.3341-1.7887,1.4413.1407,4.5107,2.2218,3.8167,5.2453-1.7492,11.5836-3.9,16.4873-.1738a11.714,11.714,0,0,1,3.859,5.3c.8342,2.3111.3859,4.3682.55,6.7172a2.1037,2.1037,0,0,0,3.8871,1.0528c3.0946-5.2182-.84-12.936-4.98-16.35-6.222-5.1308-14.0371-3.3108-21.0174-.95l2.2218,3.8167c4.0563-3.2972.6262-9.0067-3.6411-9.8011-5.4251-1.01-11.8975,2.2081-16.2064,5.2124-1.9633,1.3688-.2469,4.4521,1.9006,3.2515Z"/><path class="cls-6" d="M353.2747,130.4589a6.4705,6.4705,0,0,1,10.359,1.8646c.4835,1.1193,1.9556,1.1774,2.8866.7569,3.233-1.46,6.9184-3.2273,10.573-2.7974,2.4521.2884,5.4651,1.8741,5.7262,4.6032.1454,1.52,1.9482,3.1918,3.4914,2.0035,3.8644-2.9756,8.9094-6.1418,14.0264-5.0491,3.8949.8317,7.2429,4.8706,5.7517,8.85-1.0856,2.8971,3.4621,4.051,4.59,1.2653,2.7949-6.9046,12.0187-6.4916,15.1786-.21a2.402,2.402,0,0,0,3.27.8574c1.9026-1.3313,4.0971.17,4.8954,2.0745,1.005,2.3976.558,5.2166.63,7.7487.0625,2.2024,3.3334,2.7591,3.9132.53,1.0669-4.102,1.2373-9.2521-1.7353-12.6491-2.4834-2.838-6.8617-4.1121-10.1158-1.8312l3.27.8574a13.2513,13.2513,0,0,0-12.7859-7.2913,13.4179,13.4179,0,0,0-11.11,8.6483l4.59,1.2653c2.2053-5.9-2.0343-12.0155-7.4973-14.1664-6.9556-2.7386-14.2976,1.2666-19.6823,5.456l3.8781,1.0239a10.6505,10.6505,0,0,0-8.1011-8.0235c-5.1834-1.2862-10.3,1.008-14.8855,3.191l2.8866.7569C364.3622,123.8,354.7808,122.84,350.71,128.48c-1.1072,1.5343,1.2781,3.2462,2.5645,1.9787Z"/><path class="cls-6" d="M322.951,50.9921a17.1769,17.1769,0,0,1,8.14.0545c1.0847.3117,6.9314,2.8444,4.2181,4.5569-1.4552.9185-1.4187,3.611.5187,3.969a10.9324,10.9324,0,0,1,7.6843,5.6165c1.7486,3.1491,1.2931,5.9939,1.0848,9.4159-.1188,1.9528,2.4868,2.3343,3.4358.9306,2.4307-3.5954,1.182-9.0082-.778-12.5341a15.1127,15.1127,0,0,0-10.2724-7.6168l.5187,3.969c4.2093-2.6524,2.7944-7.974-.8449-10.3889a15.9971,15.9971,0,0,0-14.981-1c-1.8086.82-.45,3.36,1.2762,3.0272Z"/><path class="cls-7" d="M341.383,49.7723c.8971.9212,1.9116,1.7631,2.7164,2.77,1.1635,1.455,1.0582,2.37,1.09,4.0948.045,2.4751,2.1164,3.5475,3.4587,5.3638a15.6516,15.6516,0,0,1,2.7736,6.4329c.4847,2.6071-.1019,5.0709-.0934,7.67a1.9141,1.9141,0,0,0,3.5377.9582c3.0515-4.7934,1.0384-12.3589-1.9674-16.7059a17.96,17.96,0,0,0-2.735-3.1788q-.378-.3367-.7816-.6417-.4844-.2081-.0542-.702c-.1241-.64-.0253-1.3329-.1837-1.9835-.7185-2.95-3.154-5.2644-5.63-6.8376-1.7109-1.0869-3.5041,1.35-2.13,2.7608Z"/><path class="cls-7" d="M346.01,87.1951c2.3713.9289,4.4792,2.3075,5.438,4.7937.802,2.08.396,4.3715,2.9754,5.1831a15.2331,15.2331,0,0,0,3.0873.2237,9.03,9.03,0,0,1,3.51,1.1358,9.4752,9.4752,0,0,1,4.6,5.9777,2.2637,2.2637,0,0,0,3.2776,1.3334,8.28,8.28,0,0,1,8.8462.7646c2.21,1.7894,2.9076,4.614,3.4623,7.2658.3837,1.8344,3.1736,1.7389,3.616,0,1.1113-4.3674-1.2314-8.8619-4.8326-11.3686a12.6893,12.6893,0,0,0-13.3442-.5149l3.2776,1.3334a13.9351,13.9351,0,0,0-12.483-10.0759c-.578-.03-1.3427.1162-1.6374-.1724a13.54,13.54,0,0,1-.532-2.14,11.232,11.232,0,0,0-1.8553-3.1937,10.0806,10.0806,0,0,0-6.9639-3.8146c-2.0129-.151-2.0578,2.6358-.4424,3.2687Z"/><path class="cls-7" d="M408.67,111.7656a11.7664,11.7664,0,0,1,6.238.9781c1.4372.6892,2.5236,1.9046,4.16,2.0987,1.6158.1916,2.8275-1.0592,4.4109-.8725,1.5574.1837,3.0817,1.2986,4.5437,1.8318a11.2763,11.2763,0,0,0,4.56.515c1.4272-.0312,1.8624.6436,2.6119,1.8456,1.3813,2.2156,2.5569,4.3588,4.9037,5.6963a2.5112,2.5112,0,0,0,2.9823-.3848c2.2841-2.3422,3.6038.9387,4.92,2.4389,1.77,2.0165,3.96,2.532,6.5306,2.6277,2.0684.0769,2.6268-2.7214,1.0134-3.7415a14.9437,14.9437,0,0,1-4.0253-3.0852c-1.1461-1.4583-1.9071-2.8459-3.6722-3.6487a6.9484,6.9484,0,0,0-8.2471,1.9286l2.3944-.6329c-2.1089-.6842-3.11-4.5147-4.7686-6.0118-2.7191-2.4541-5.698-.6821-8.7957-1.6917a21.1253,21.1253,0,0,0-4.4616-1.3057,6.3254,6.3254,0,0,0-2.3724.1682c-1.1874.342-1.7832,1.2075-3.2029.7881a17.1152,17.1152,0,0,1-1.9688-1.1595,11.12,11.12,0,0,0-2.6282-.8794,11.32,11.32,0,0,0-5.42.333c-1.1464.3317-.9855,2.286.2928,2.1638Z"/><path class="cls-7" d="M463.2891,126.404c2.2922-1.8168,4.9133-1.8007,7.6117-.9688,1.7662.5445,5.3843,1.4587,5.7467,3.6161.2666,1.587,2.1725,1.9384,3.3754,1.3732,4.9632-2.3319,9.6268-1.7372,12.6858,2.9848.9321,1.4389,3.6634,1.0284,3.494-.9463-.3175-3.7014-3.1133-6.3045-6.527-7.46-4.0311-1.3643-8.2566-.3064-11.9722,1.4534l3.3754,1.3732c-.69-4.0333-6.1-5.6326-9.5125-6.4438-3.8238-.909-8.3956-.4106-10.6332,3.2-.9638,1.5553,1.1055,2.8087,2.3559,1.8177Z"/><path class="cls-7" d="M431.2137,134.4564a8.1108,8.1108,0,0,1,6.7663,5.87,1.87,1.87,0,0,0,2.73,1.1105,7.5415,7.5415,0,0,1,8.9479-.0842c2.8248,1.9255,3.938,5.03,6.0467,7.5532,1.37,1.6392,3.5793-.1807,3.2644-1.9-1.5672-8.5572-13.5793-15.2424-20.5109-8.4872l3.1058.82a10.7854,10.7854,0,0,0-9.9513-7.8283c-1.6565-.0636-2.0866,2.6546-.3988,2.9464Z"/><path class="cls-7" d="M389.5677,123.5213c1.7434-.116,3.3425.45,3.9209,2.2441a2.05,2.05,0,0,0,2.97,1.2081,7.8545,7.8545,0,0,1,8.1.1166c2.1013,1.374,3.1859,3.7781,4.2385,5.9738.8659,1.8063,3.4061.76,3.5086-.95.24-4.0073-2.5955-7.525-6.0949-9.2255a12.51,12.51,0,0,0-11.7928.5943l2.97,1.2081c-1.3465-3.482-5.0171-5.454-8.5412-3.8334a1.44,1.44,0,0,0,.7216,2.6642Z"/></g></svg>