<svg xmlns="http://www.w3.org/2000/svg" viewBox="0 0 231 230"><defs><style>.cls-1{fill:#f7fafc;}.cls-2{fill:#ffefaf;}.cls-3{fill:#303030;}.cls-4{fill:#e93a1d;}</style></defs><title>DN_Service-Ya-Audit-img-9</title><g id="back"><path class="cls-1" d="M122.4548,227.6457a21.6065,21.6065,0,0,1-9.8232-2.4409c-.9189-.4658-1.959-1.0488-3.272-1.835-1.8916-1.1323-4.4336-2.7368-7.771-4.9053q-3.3816-2.1965-7.9028-5.2007a20.01,20.01,0,0,1-33.0439,3.6826s-13.2805-15.7456-26.5579-31.5283c-6.6465-7.9-13.292-15.81-18.2744-21.7632-2.5134-3.0029-4.6072-5.5122-6.072-7.28-3.69-4.4546-7.5063-9.0605-6.7974-17.2788a20.0015,20.0015,0,0,1,7.0659-13.5986,21.0589,21.0589,0,0,1,7.6514-3.9585C2.4875,101.8537,1.1091,94.8073,1.444,88.0578A21.7286,21.7286,0,0,1,4.95,77.1447q.0183-.353.0493-.7065a19.998,19.998,0,0,1,2.5632-8.1836,20.6794,20.6794,0,0,1,2.1665-5.1094,21.1927,21.1927,0,0,1,6.3667-9.125,19.9893,19.9893,0,0,1,17.5408-4.1235A19.187,19.187,0,0,1,31.58,39.25a20.1054,20.1054,0,0,1,7.0957-13.7344A20.456,20.456,0,0,1,60.39,22.6779c.01-.1709.0229-.3413.0381-.5122A19.9979,19.9979,0,0,1,67.4968,8.5885C73.1794,3.82,82.8615,1.16,92.987,7.9963c.9756.6587,2.0649,1.4624,3.3628,2.4814a19.9925,19.9925,0,0,1,3.7988-4.2471c5.6016-4.7007,15.77-7.5488,25.9888-.1074.28.2041.5728.4224.8809.6572a19.9355,19.9355,0,0,1,22.6157,1.562,20.0165,20.0165,0,0,1,20.9175,14.8594c4.4658,5.6367,15.9551,17.5112,23.8911,25.7134,27.3691,28.2876,33.8066,35.4038,33.208,46.9307a20.7142,20.7142,0,0,1-.564,3.8433,22.39,22.39,0,0,1,1.7163,10.0117,20.86,20.86,0,0,1-5.6,13.0386,20.0073,20.0073,0,0,1-5.1846,23.9624,20.973,20.973,0,0,1-6.729,3.7256,20.0091,20.0091,0,0,1-5.7412,22.6768,20.2926,20.2926,0,0,1-15.3271,4.5605,19.9993,19.9993,0,0,1-6.353,20.8862c-6.9707,5.8491-14.8394,6.23-22.75,3.8735q.0249.8225-.0181,1.6514a20.1078,20.1078,0,0,1-15.8389,18.5562,19.9124,19.9124,0,0,1-5.231,1.5488,19.0192,19.0192,0,0,1-9.1562,1.6167A20.1962,20.1962,0,0,1,122.4548,227.6457Z"/></g><g id="Layer_2" data-name="Layer 2"><path class="cls-2" d="M149.3361,66.2064c-5.4,2.6556-75.8262,9.7778-92.1538,9.9857l.3081,2.985q.5325,16.1795,1.0645,32.3589c29.8267-6.23,60.06-9.2744,90.2368-12.541,2.6426-5.69,8.312-10.9613,11.9912-16.1027C162.1013,81.0226,150.4836,68.2372,149.3361,66.2064Zm-86.3384,38.049v-23.42l78.2017-8.27.6606,20.981Z"/><path class="cls-3" d="M56.9806,79.1771c-.0758,10.7779.5423,21.5868.8827,32.3589a.7022.7022,0,0,0,.8756.667c22.3484-4.6113,44.994-7.5091,67.66-10.0309q8.2735-.9205,16.5516-1.8,2.1907-.236,4.3811-.4736c.5726-.062,1.4327.0691,1.9119-.3184.5776-.4671.9-1.6177,1.2647-2.24a35.3923,35.3923,0,0,1,1.9874-2.9851c1.51-2.0645,3.19-3.9955,4.8279-5.9579,1.1892-1.4247,3.3957-3.386,4.0562-5.156.5011-1.3428-.3764-2.6746-1.0677-3.81-2.9662-4.872-7.44-8.7265-10.3589-13.5853a.7342.7342,0,0,0-.9776-.2563c-2.8407,1.3288-6.6479,1.4675-9.6976,1.9246-6.5247.9779-13.079,1.7634-19.6331,2.5143-15.0627,1.7257-30.1576,3.2324-45.273,4.4161-5.712.4473-11.4571.9468-17.1894,1.03a.7182.7182,0,0,0,0,1.4355c12.4277-.18,24.89-1.5619,37.2517-2.7505,14.5886-1.4028,29.1922-2.9071,43.6972-5.024,3.6738-.5362,8.1485-.7041,11.5655-2.312l-.9776-.2563c2.404,3.9811,5.9836,7.3491,8.72,11.1113.9848,1.3541,2.98,3.5113,2.5181,5.1717-.2375.8527-1.7379,2.2131-2.35,2.9463-.7027.8411-1.4191,1.6706-2.1285,2.506-1.38,1.6256-2.752,3.2629-4.0257,4.9744-1.007,1.3533-1.9811,3.9573-3.3032,4.87-.8293.5722-2.7439.4679-3.7382.5748q-2.1908.2357-4.3814.4728-7.79.8423-15.5774,1.7112c-10.2861,1.16-20.5652,2.3958-30.8134,3.8565-11.8144,1.6839-23.5852,3.665-35.2676,6.1072l.8756.667C58.8782,100.7607,58.7833,89.9308,58,79.1771a.51.51,0,0,0-1.02,0Z"/><path class="cls-3" d="M109.6168,186.3072c-.2762-6.6581-1.3778-13.3366-2.0173-19.9711q-.99-10.2716-1.76-20.5626-1.5014-20.3117-2.0739-40.6782a.6127.6127,0,0,0-1.2246,0c.282,13.7315.9711,27.4517,1.9857,41.148q.7621,10.2878,1.7758,20.5552c.6513,6.5127,1.0452,13.2188,2.3759,19.6356a.48.48,0,0,0,.938-.1269Z"/><path class="cls-3" d="M101.2369,71.8586c-.9723-12.0951-.8307-24.431-3.7572-36.2767l-.4589.8082c2.5409-.66,5.1823-.4382,7.7659-.8245l-.8106-.46c1.0886,4.2415,1.4544,8.6252,2.6814,12.8359a.6748.6748,0,0,0,1.3193-.1786,55.96,55.96,0,0,1,.9479-12.3614l-.8418.4779a21.472,21.472,0,0,1,3.0343.4583c.9139.3242.9955.7642,1.2161,1.7044a46.3,46.3,0,0,1,.7721,10.36c.0319,7.548-.4929,15.3285.1231,22.8465a.5951.5951,0,0,0,1.1895,0c.4055-4.8272.172-9.8.1571-14.6439-.0128-4.1815.0363-8.3864-.1507-12.5644-.1028-2.2984.0207-5.96-1.2678-7.9774-.9334-1.4616-3.2268-1.2309-4.71-1.5031a.6954.6954,0,0,0-.8418.4779,57.5945,57.5945,0,0,0-.9714,12.7252l1.3193-.1786c-1.2352-4.2075-1.6141-8.5891-2.7058-12.8292a.6779.6779,0,0,0-.8106-.46c-2.5938.3892-5.21.1638-7.7649.8284a.6683.6683,0,0,0-.4589.8082C99.1275,47.703,98.7508,59.88,100.1,71.8586c.08.7125,1.196.7379,1.1367,0Z"/><path class="cls-3" d="M114.94,102.4812c.1743,14.0237,1.7067,28.1117,2.8528,42.0808,1.15,14.0183,2.2155,28.0474,3.4429,42.0588.073.8332,1.3636.8564,1.3184,0-.7411-14.0375-2.1553-28.0524-3.3276-42.0588-1.173-14.0156-1.94-28.0744-3.1849-42.0808-.0617-.6942-1.1105-.72-1.1016,0Z"/><path class="cls-3" d="M62.202,81.4889c13.1542-1.5025,26.2588-3.3868,39.4269-4.792s26.3616-2.581,39.57-3.5429l-.5886-.5886q.3385,6.4028.6672,12.8062.1023,1.97.2065,3.94a10.4169,10.4169,0,0,1,.13,2.7537c-.648,2.5826-3.8774,2.7458-5.9294,3.2134a149.669,149.669,0,0,1-24.8427,3.0571c-15.775.8926-31.6957.9559-47.0433,5.1811l.8276.63A81.8147,81.8147,0,0,0,62.9535,84.594c-.1695-.7882-1.3365-.4471-1.1978.33A94.7559,94.7559,0,0,1,63.32,104.1477a.66.66,0,0,0,.8276.63c17.0952-5.0423,35.0671-4.3046,52.6641-5.6743,4.0119-.3123,8.0173-.7321,11.9948-1.3471,3.8508-.5954,8.6294-.97,12.1443-2.7132,2.8329-1.4052,1.7711-5.146,1.6341-7.7018q-.3959-7.3883-.7967-14.7764a.5955.5955,0,0,0-.5886-.5886c-26.3815,1.9281-53.0227,4.1783-79.1258,8.5626-.5313.0892-.4141,1.0115.1285.95Z"/><path class="cls-4" d="M69.3363,98.8141c1.5844-2.0341,3.0981-4.1206,4.6744-6.1606a.5745.5745,0,0,0-.5534-.9507c-2.7061.411-4.7322-2.9615-2.3445-4.7035,1.9929-1.454,2.49.2409,2.8071,1.926.5748,3.052.8619,6.125,1.1979,9.2083.0813.7461,1.22.7855,1.1953,0A67.9232,67.9232,0,0,0,74.5848,85.805a.6464.6464,0,0,0-.45-.45c-2.3735-.7483-5.3.7473-5.476,3.4179-.1827,2.7717,2.6019,4.5655,5.1,4.0265l-.6424-.8356c-1.4718,2.119-3.0074,4.1922-4.4712,6.3174-.2795.4057.3824.9277.69.5325Z"/><path class="cls-3" d="M104.5993,106.1073c-.1088,2.4967.35,5.0446.432,7.5491.0823,2.5262.0345,5.0514-.0755,7.5759-.0338.7756,1.133.7576,1.1953,0,.3968-4.8214.7832-10.5674-.6943-15.2411a.4386.4386,0,0,0-.8575.116Z"/><path class="cls-3" d="M108.0359,106.5634c-.02.98-.0235,1.9548.0029,2.9346a.5042.5042,0,0,0,1.0078,0c.0264-.98.0225-1.9547.0029-2.9346a.5071.5071,0,0,0-1.0137,0Z"/><path class="cls-3" d="M112.75,138.843c.0445,9.3728.3471,18.7464,1.0477,28.0942.05.6706,1.0944.6817,1.0547,0-.5452-9.36-1-18.7207-1.2235-28.0942a.44.44,0,0,0-.8789,0Z"/><path class="cls-3" d="M99.8365,40.0153c.6339,4.5757,1.2539,9.1454,1.7664,13.737.0732.6562,1.0949.6838,1.0488,0a110.9779,110.9779,0,0,0-1.7982-14.0174c-.1339-.6784-1.1076-.3735-1.017.28Z"/><path class="cls-3" d="M120.9407,174.0749a241.8467,241.8467,0,0,1,70.9162,11.6523c.9205.2981,1.3148-1.15.3988-1.4464a243.2784,243.2784,0,0,0-71.315-11.7058.75.75,0,0,0,0,1.5Z"/><path class="cls-3" d="M40.3857,186.8247a241.596,241.596,0,0,1,66.9474-12.5456c.9614-.0432.9667-1.5434,0-1.5a243.0753,243.0753,0,0,0-67.3462,12.5992c-.9089.309-.5187,1.7584.3988,1.4464Z"/><path class="cls-3" d="M99.3641,185.4392a36.017,36.017,0,0,1,9.4656,1.5269,31.1022,31.1022,0,0,1,4.5563,1.8482c1.2072.6068,2.639,1.9391,3.9575,2.1994,1.5524.3064,2.4481-1.4745,3.4481-2.4066a25.2434,25.2434,0,0,1,8.5871-5.0642.6656.6656,0,0,0-.3536-1.2826,20.1443,20.1443,0,0,0-7.0464,3.2886,22.6452,22.6452,0,0,0-2.6117,2.2015c-.3059.3019-.9488,1.3571-1.3649,1.472-.8027.2215-2.058-.7631-2.72-1.1226a31.44,31.44,0,0,0-15.9184-3.8616.601.601,0,0,0,0,1.2012Z"/></g></svg>