<svg xmlns="http://www.w3.org/2000/svg" viewBox="0 0 218 241"><defs><style>.cls-1{fill:#f7fafc;}.cls-2{fill:#172df8;}.cls-3{fill:#303030;}.cls-4{fill:#e93a1d;}.cls-5{fill:#777;}</style></defs><title>DN_Service-Ya-Audit-img-8</title><g id="back"><path class="cls-1" d="M122.0688,240.134a21.572,21.572,0,0,1-9.7139-2.3838c-.9116-.4556-1.9419-1.0259-3.2422-1.7944-1.8667-1.104-4.374-2.668-7.666-4.7808-4.292-2.7554-10-6.5-17.0181-11.1655a20.0162,20.0162,0,0,1-31.3091.918S42,207.7444,30.8837,194.53c-5.5664-6.6162-11.1318-13.24-15.3042-18.2256-2.1084-2.519-3.8652-4.6245-5.0937-6.1079-3.1772-3.835-7.1318-8.6084-6.4282-16.813a20.0019,20.0019,0,0,1,7.0942-13.6309,21.0277,21.0277,0,0,1,7.6294-3.9336C3.0576,115.5725,1.642,108.45,1.98,101.6267a21.8221,21.8221,0,0,1,2.82-9.7905,20.0909,20.0909,0,0,1,1.4448-8.3921,20.5694,20.5694,0,0,1,1.1235-4.7612A21.3114,21.3114,0,0,1,14.7827,65.4a19.9747,19.9747,0,0,1,16.0239-4.4263c-4.355-5.7485-6.98-10.4561-6.4189-17.3447a20.1123,20.1123,0,0,1,7.0938-13.7358,20.3625,20.3625,0,0,1,19.5093-3.6777,19.9606,19.9606,0,0,1,7.1367-15.8442c5.665-4.7534,15.3174-7.4189,25.42-.6411.6689.4487,1.3916.9653,2.1987,1.5737a19.9888,19.9888,0,0,1,3.99-4.54c5.5718-4.6748,15.68-7.5259,25.8535-.2031,5.3989-3.2109,14.59-5.3066,23.7622,2.0181.5718.4565,1.3877,1.124,2.4131,1.9751a20.0169,20.0169,0,0,1,27.6626,12.2109c3.7681,4.6113,12.6357,13.7764,18.7959,20.1436,22.0518,22.7915,28.707,29.67,28.1172,41.0317a20.6871,20.6871,0,0,1-3.3872,10.2983c2.6484,4.853,3.7363,9.0244,3.4653,13.6616a20.856,20.856,0,0,1-5.3511,12.7642,20.0046,20.0046,0,0,1-4.36,25.5034,20.9067,20.9067,0,0,1-5.71,3.3564l1.3931,1.66a19.9982,19.9982,0,0,1-2.5171,28.2178,20.2722,20.2722,0,0,1-13.0283,4.6563,19.9988,19.9988,0,0,1-3.5542,26.752c-6.6167,5.5518-14.0459,6.1787-21.5527,4.2119a20.0965,20.0965,0,0,1-15.4961,21.313,19.9441,19.9441,0,0,1-6.3511,1.7764,19.53,19.53,0,0,1-11.2876.9287A20.128,20.128,0,0,1,122.0688,240.134Z"/></g><g id="Layer_2" data-name="Layer 2"><path class="cls-2" d="M59.694,71.3319c-4.0828,4.9792-1.9284,11.9373,3.8349,14.4853,6.7432,2.9812,14.9447-1.0614,18.1486-7.3839,1.4709-2.9025,1.8014-6.3706-.28-9.0739-2.07-2.688-5.8031-3.9476-9.0077-4.5607-3.5979-.6883-7.5262-.4533-10.492,1.9084-2.2764,1.8128-3.99,4.82-3.1854,7.7734a.8566.8566,0,0,0,1.6746-.2266c.292-6.6961,6.5119-8.74,12.3432-7.3725,2.3474.55,4.9245,1.3883,6.6618,3.1426,2.3715,2.3948,1.6814,5.8848.0618,8.476-2.71,4.3352-8.232,7.4209-13.3813,6.2937-5.4409-1.191-9.432-7.7007-5.5372-12.6206.4676-.5907-.3522-1.4373-.8411-.8411Z"/><path class="cls-3" d="M98.2453,71.6367c2.8935.2052,5.7971.098,8.6949.0343a45.8314,45.8314,0,0,0,7.9414-.38c.74-.1489.7858-1.4324,0-1.5425a46.0428,46.0428,0,0,0-7.9414.07c-2.9025.1053-5.8122.1686-8.6949.5411a.6391.6391,0,0,0,0,1.2773Z"/><path class="cls-3" d="M99.2988,76.83a91.5306,91.5306,0,0,0,14.8517-.4134.8033.8033,0,0,0,0-1.6055,91.5367,91.5367,0,0,0-14.8517.7415.6391.6391,0,0,0,0,1.2773Z"/><path class="cls-2" d="M141.8716,67.053c-5.746.7377-5.0691,8.5759-2.183,11.8189,4.127,4.6373,11.3073,6.3211,15.7714,1.4144,3.8988-4.2854,6.3115-11.1363,1.4466-15.68-4.5821-4.2793-12.0859-2.981-15.8439,1.726a.8355.8355,0,0,0,1.1808,1.1808c3.4869-3.0045,8.1409-5.159,12.44-2.2473,4.3071,2.9169,3.4426,8.1906.83,11.96-1.5023,2.1678-3.443,4.2811-6.2822,4.2983a11.3432,11.3432,0,0,1-6.1541-2.1237c-4.3294-2.91-5.4205-8.0245-.9108-11.2557.4109-.2944.3447-1.1741-.2957-1.0919Z"/><path class="cls-4" d="M62.7573,104.3459c1.7015,3.3772,1.1074,6.8562,1.2535,10.4815.0861,2.136.528,3.3007,2.7913,3.4483,3.6672.2393,7.6187-.4127,11.2916-.6116,2.0356-.11,5.2942.2933,6.4256-1.8855a7.5347,7.5347,0,0,0,.3821-3.54l-.04-5.5108c-.0149-2.0663.4113-4.8332-1.6666-6.0882-2.059-1.2436-5.2252-.2434-7.3951.07-3.8788.56-7.7594,1.1084-11.6361,1.6831-1.1511.1706-.6578,1.9083.4813,1.7459,5.0567-.721,10.203-1.8732,15.2971-2.2254,3.68-.2545,3.1233,3.5851,3.1422,6.1926l.0266,3.6739a7.4186,7.4186,0,0,1,.0133,1.8369,2.6119,2.6119,0,0,1-2.6781,2.1358c-2.5049.1857-5.02.2813-7.5277.4218-1.9146.1073-6.4815,1.2358-7.1663-.9485-.5853-1.8669.05-4.4785-.1471-6.4489a10.3475,10.3475,0,0,0-1.7094-5.0963.66.66,0,0,0-1.1384.6654Z"/><path class="cls-3" d="M103.0295,106.3864c4.7148-.1444,9.6175.1016,14.3012-.3113.7031-.062.9993-1.214.1815-1.3409-4.7036-.73-9.9523-.237-14.6517.4034-.7133.0972-.5371,1.27.169,1.2488Z"/><path class="cls-3" d="M104.6114,111.5652c4.2363-.192,8.4963-.5012,12.7084-.9969.9048-.1065.952-1.5093,0-1.4531-4.2412.25-8.4964.6955-12.7084,1.2489-.7405.0973-.7941,1.2372,0,1.2012Z"/><path class="cls-4" d="M134.0682,102.43c.2687,3.6486.7192,7.3156,1.2,10.9425.2729,2.06,1.0942,2.3567,3.1056,2.4952,3.6563.2518,7.3159.4688,10.9741.69,1.8527.112,4.7744.9479,5.6461-1.28a11.7181,11.7181,0,0,0,.28-3.7183c.0369-1.6739.0079-3.35-.0773-5.0215-.094-1.8455.2159-5.0122-1.7407-6.1026-2.1522-1.1993-5.8939-.3489-8.24-.2879-3.8072.099-7.681.0072-11.4724.3631a.815.815,0,0,0,0,1.6289c4.751.1925,9.587-.1887,14.3405-.33.9869-.0294,2.65-.41,3.5843-.09,2.01.6891,1.7341,2.7772,1.8308,4.3623.1391,2.28.1589,4.5639.0852,6.8469-.0574,1.7766-.5433,1.9556-2.2408,2.1334a25.6754,25.6754,0,0,1-3.9906-.2474q-3.7408-.2271-7.4824-.442c-1.6071-.0947-2.5613.379-3.1415-1.4758a23.5584,23.5584,0,0,1-.4914-3.8061c-.2961-2.2769-.56-4.5624-.9489-6.8258-.1177-.6856-1.2714-.5323-1.22.1651Z"/><path class="cls-5" d="M73.9486,135.1148c-5.0683,3.6075-9.0715,9.2543-12.4018,14.4336a.9318.9318,0,0,0,.7988,1.392q13.5395-.484,27.0135-1.9339a.9522.9522,0,0,0,.6636-1.6021c-4.3617-4.7938-9.557-9.5516-15.4052-12.4617a.8268.8268,0,0,0-.834,1.4268c5.3565,3.81,10.4545,7.4718,14.9119,12.3622l.6636-1.6021q-13.47,1.4589-27.0135,1.9608l.7988,1.392c3.3826-5.278,7.6669-9.5435,11.5639-14.3828.406-.5042-.1288-1.4338-.76-.9847Z"/><path class="cls-3" d="M107.2761,135.0118a31.1717,31.1717,0,0,0,10.85-.7c.73-.194.6109-1.4388-.1838-1.3581-3.5812.3637-7.06.7489-10.6659.8043a.6274.6274,0,0,0,0,1.2539Z"/><path class="cls-3" d="M107.388,140.0351a24.6765,24.6765,0,0,1,10.7989-.3268.7126.7126,0,0,0,.3785-1.373,17.9655,17.9655,0,0,0-11.52.4568.6451.6451,0,0,0,.3427,1.243Z"/><path class="cls-5" d="M144.5379,133.52c-3.3411,4.6213-6.2017,9.6441-9.2291,14.4749a.8534.8534,0,0,0,.73,1.2716,184.3859,184.3859,0,0,0,22.1854-.3334.9144.9144,0,0,0,.8495-.6468c.7718-2.5825-2.8076-4.8328-4.3663-6.3794a95.5743,95.5743,0,0,0-8.5369-8.1512c-.76-.5855-1.4984.608-.9621,1.247,1.8478,2.2017,4.1247,4.1094,6.1786,6.1235q1.38,1.3536,2.753,2.7152c.6356.63,3.5635,2.87,3.2348,3.9765l.8495-.6468a187.7659,187.7659,0,0,1-22.1854.4051l.73,1.2716c3.0079-4.839,6.2628-9.6124,8.9435-14.6418a.68.68,0,0,0-1.1738-.6861Z"/><path class="cls-3" d="M68.1339,186.4293c3.0218-2.7091,5.8226-5.66,8.8345-8.3841s6.2786-5.1514,9.3022-7.8529c.643-.5745-.2047-1.6974-.93-1.2055a84.3359,84.3359,0,0,0-9.16,7.6336,80.0527,80.0527,0,0,0-8.8465,9.0093.5658.5658,0,0,0,.8.8Z"/><path class="cls-3" d="M107.7011,174.5014c3.8586-.4848,7.5928-.4764,11.4524-.6695.7687-.0384,1.038-1.2744.1924-1.4214a28.9368,28.9368,0,0,0-11.8161.8249c-.6789.18-.5672,1.3588.1713,1.266Z"/><path class="cls-3" d="M107.22,179.6828c4.165-.392,8.1974-.0845,12.3422-.2077a.6476.6476,0,0,0,.1713-1.266c-3.9494-1.0143-8.7217-.548-12.674.2883-.6556.1387-.5224,1.25.16,1.1855Z"/><path class="cls-3" d="M138.9715,187.349c7.2955-5.05,14.0936-11.0486,20.9458-16.68.7988-.6565-.3384-1.7681-1.1311-1.1311-6.8629,5.5152-14.078,10.9045-20.4644,16.9689-.4325.4107.1411,1.1941.65.842Z"/></g></svg>