<svg xmlns="http://www.w3.org/2000/svg" viewBox="0 0 230 211"><defs><style>.cls-1{fill:#f7fafc;}.cls-2{fill:#303030;}.cls-3{fill:#e93a1d;}</style></defs><title>DN_Service-Ya-Audit-img-6</title><g id="back"><path class="cls-1" d="M120.6559,209.2471a21.5887,21.5887,0,0,1-9.7761-2.416c-.916-.4614-1.9514-1.0386-3.2588-1.8174-1.8806-1.12-4.4075-2.7065-7.7246-4.8506-4.314-2.7886-10.0464-6.5752-17.0925-11.291a20.0153,20.0153,0,0,1-31.3086.918s-11.28-13.374-22.5576-26.7793c-5.6465-6.7119-11.2922-13.4312-15.5249-18.4888-2.1387-2.5552-3.92-4.69-5.1665-6.1943-3.1929-3.854-7.1667-8.65-6.4539-16.8667a20,20,0,0,1,7.0759-13.5972,21.0346,21.0346,0,0,1,8.14-4.08C7.0963,90.4786,3.8734,82.8892,4.2608,75.0743a21.518,21.518,0,0,1,4.616-12.42,19.93,19.93,0,0,1,3.6963-8.4375,20.5829,20.5829,0,0,1,2.9314-4.8828A21.205,21.205,0,0,1,20.579,43.107a20.0029,20.0029,0,0,1,20.8716-3.0049,19.8429,19.8429,0,0,1-.3223-5.7314A20.0974,20.0974,0,0,1,48.2211,20.64c2.5193-2.1143,11.6716-8.4624,24.0232-1.7056A20,20,0,0,1,79.2093,6.29c5.55-4.6548,15.0261-7.3428,24.9814-.9263,1.2183.7856,2.6145,1.793,4.394,3.17q1.2052.9324,2.6926,2.13a20.0483,20.0483,0,0,1,3.2861-3.5054c5.4934-4.61,15.4685-7.4927,25.5039-.4453,1.0442.7334,2.2642,1.6685,3.84,2.9434q.5068.4094,1.0632.8672a20.0073,20.0073,0,0,1,23.1255,4.3555c.5747.61,14.2388,15.1147,28.1079,30.6558,8.2622,9.2583,14.8721,16.957,19.646,22.8818,9.293,11.5347,13.356,18.1025,12.8633,26.5269a20.6866,20.6866,0,0,1-5.522,12.8887,20.0041,20.0041,0,0,1-6.2085,21.3784,20.9514,20.9514,0,0,1-6.6968,3.7119,19.9992,19.9992,0,0,1-5.7153,22.8125,20.3607,20.3607,0,0,1-14.0977,4.6333,20,20,0,0,1-5.5137,23.2275c-7.0947,5.9541-15.1138,6.2266-23.1362,3.74q.0088.6555-.0254,1.314a20.1059,20.1059,0,0,1-18.8535,18.97,20.1147,20.1147,0,0,1-6.3887.81,20.0842,20.0842,0,0,1-10.24.002A20.0753,20.0753,0,0,1,120.6559,209.2471Z"/></g><g id="Layer_2" data-name="Layer 2"><path class="cls-2" d="M79.5485,36.9985c-3.2621-.6121-6.5532-.89-9.8566-1.226-1.6924-.1719-4.8977-1.1777-6.3686.1469-1.5454,1.3916-.8615,4.8158-.8667,6.5794l-.0311,10.4765q-.0155,5.2382-.0168,10.4765c-.0022,1.632-.3893,3.8768,1.3456,4.7926,1.9676,1.0387,4.9354.0543,6.8913-.4636,3.1414-.8317,6.6871-1.7129,9.1254,1.0846.5661.65,1.6866-.2046,1.2009-.9266-1.9179-2.8509-5.5035-3.01-8.595-2.3287-1.3155.29-2.5925.7384-3.91,1.0176-1.6782.3557-3.8822.9747-4.41-1.18-.3278-1.3385,0-3.11-.0007-4.49q0-2.245-.0007-4.49c-.0012-5.654-.0237-11.308-.03-16.962-.0019-1.702.4262-2.7316,2.2637-2.5755,1.46.124,2.9172.2842,4.3752.4263,2.921.2846,5.8165.5951,8.75.632.5536.007.704-.8829.134-.99Z"/><path class="cls-2" d="M92.0562,37.294c2.2132-.2653,4.4163-.5844,6.62-.9174,2.083-.3147,4.7918-1.2466,6.8838-1.0422,2.8221.2758,1.8879,5.4813,1.8852,7.5512l-.01,7.2645-.01,7.2645c-.0033,2.4646.8861,7.3962-2.1048,8.3021-2.1664.6562-5.0651.3564-7.3257.4959-2.32.1432-4.6515.2323-6.9551.5509-.8169.113-.5949,1.4049.1908,1.41,3.3773.0213,6.7779-.376,10.1464-.6053,1.8762-.1277,4.8628.2055,6.4447-1.1141,1.7659-1.4731,1.1421-4.6337,1.1405-6.6179q-.0039-5.0851-.0085-10.17-.004-4.843-.0081-9.686c-.0032-1.6894.5471-4.5432-1.153-5.6705-1.5417-1.0223-4.1793-.1256-5.8068.1417-3.3648.5526-6.7322,1.0967-10.0768,1.7612-.6.1192-.4739,1.1562.1464,1.0819Z"/><path class="cls-2" d="M80.9611,140.4483a113.1106,113.1106,0,0,0-2.9835,11.435,117.9219,117.9219,0,0,0-2.6913,11.5155.7507.7507,0,0,0,1.4464.3988c1.3451-3.8316,2.0269-8,2.9741-11.9483a110.6239,110.6239,0,0,0,2.4743-11.2359c.0966-.7341-1-.7794-1.22-.1651Z"/><path class="cls-2" d="M92.2145,139.6608c-1.27,4.6506-2.2566,9.3847-3.3151,14.0866-.9914,4.4037-2.3294,8.887-2.88,13.3683-.1021.8312,1.16.9115,1.3984.1893,1.4468-4.3765,2.1453-9.115,3.1489-13.6152,1.0142-4.5474,2.0985-9.0924,2.9076-13.6817.1435-.814-1.0346-1.1728-1.26-.3474Z"/><path class="cls-2" d="M71.1124,149.72c8.7392-.0871,17.5629-.9415,26.2742-1.6223.9827-.0768,1-1.6078,0-1.5469-8.732.5322-17.5966.9119-26.2742,2.0325-.7014.0906-.7547,1.1442,0,1.1367Z"/><path class="cls-2" d="M71.1936,158.86c7.6173-1.7433,14.9855-2.7069,22.8024-1.9437.9971.0974.9819-1.4472,0-1.5527-7.6456-.8218-15.8475-.2736-23.0828,2.4794a.5278.5278,0,0,0,.28,1.017Z"/><path class="cls-2" d="M141.2511,29.1687c.0385,4.9524.1708,9.9.1046,14.8536-.0657,4.9181-.7033,9.9425-.4759,14.8436.0356.7677,1.2677,1.0318,1.4157.1916.83-4.71.6444-9.7666.7094-14.54.07-5.1131.0516-10.2457-.3066-15.3488a.7241.7241,0,0,0-1.4473,0Z"/><path class="cls-2" d="M140.7021,65.96c-1.0774,1.0336-2.0486,3.862-.1766,4.6a4.5345,4.5345,0,0,0,5.2192-1.4657c.9859-1.3453,1.3667-4.1817-.1145-5.3828-1.44-1.1677-4.5192-.6051-5.6843.6745a.7035.7035,0,0,0,.8485,1.1,5.2888,5.2888,0,0,1,2.7106-.8044,1.5674,1.5674,0,0,1,1.2568.4617,2.5721,2.5721,0,0,1,.2944,1.4851,2.9245,2.9245,0,0,1-4.2038,2.4138l.35.4558a2.3458,2.3458,0,0,1,.5267-2.51.727.727,0,0,0-1.0275-1.0275Z"/><path class="cls-2" d="M127.9351,135.3512a22.406,22.406,0,0,0-5.79,17.0351c.3812,5.5946,2.8968,12.6845,7.9085,15.7921.7491.4645,1.4258-.5513.8982-1.1641-1.808-2.1-3.6577-3.88-4.9291-6.4055a23.2644,23.2644,0,0,1-2.3507-8.545,21.9939,21.9939,0,0,1,5.0167-15.9584c.4357-.5173-.2739-1.2586-.7541-.7541Z"/><path class="cls-2" d="M153.1517,136.2613c4.8525,10.4475,4.5446,22.1514-2.0048,31.8259-.57.8427.781,1.6113,1.3559.7926,6.6161-9.4228,7.743-23.22,1.6456-33.2011a.5776.5776,0,0,0-.9967.5826Z"/><path class="cls-2" d="M48.9819,99.1566c-2.8112,2.7786-5.48,5.6843-8.1574,8.5908a.72.72,0,0,0,.1431,1.1106,16.7462,16.7462,0,0,1,6.2092,8.507.7008.7008,0,0,0,1.35-.3723,17.2908,17.2908,0,0,0-6.8458-9.3558l.1431,1.1106c2.6737-2.9173,5.347-5.8262,7.8824-8.8657.4162-.4989-.2474-1.1972-.7251-.7251Z"/><path class="cls-2" d="M54.1631,99.3466c-2.2779,2.8119-4.42,5.7334-6.5988,8.6222a.7179.7179,0,0,0,.1127.8738,15.6755,15.6755,0,0,1,5.0311,7.5228.6539.6539,0,0,0,1.26-.3474,13.6547,13.6547,0,0,0-5.2714-8.1952l.1127.8738c2.1338-2.8463,4.3092-5.6674,6.3429-8.5868.4043-.58-.5377-1.3208-.9893-.7633Z"/><path class="cls-2" d="M69.4912,100.4927C70.4,101.649,71.3367,102.78,72.29,103.9c1.0292,1.2089,3.1275,2.7137,2.1913,4.42a16.13,16.13,0,0,1-2.6832,2.7047c-1.1133,1.1317-2.2281,2.2621-3.3261,3.4087-.6675.697.3806,1.75,1.0607,1.0607,1.561-1.5821,3.0982-3.1884,4.6309-4.7979.7539-.7916,2.1437-1.8157,2.2189-3.0645.0678-1.1267-.9754-1.9955-1.6369-2.7394-1.5137-1.702-3.0416-3.3906-4.637-5.0166-.4045-.4122-.9548.1878-.6173.6173Z"/><path class="cls-2" d="M74.1149,115.93c1.7474-1.8429,3.5061-3.6712,5.2116-5.5532.9422-1.04,2.6161-2.2886,2.8758-3.763a2.8359,2.8359,0,0,0-.9016-2.3595c-1.52-1.9074-3.38-3.62-5.0645-5.3829-.7044-.7371-1.829.3874-1.1187,1.1187q1.6087,1.656,3.2289,3.3007c1.5638,1.58,2.8037,2.588,1.3608,4.7755-1.686,2.556-4.2487,4.8747-6.2387,7.2174-.3759.4425.2362,1.0789.6463.6463Z"/><path class="cls-2" d="M115.1712,105.4773a88.4191,88.4191,0,0,0,17.8444-.0162c1.0214-.0945,1.0381-1.697,0-1.6113-5.9485.4911-11.8795.5611-17.8444.5729-.6941.0014-.6593.9817,0,1.0547Z"/><path class="cls-2" d="M122.9562,95.6993A165.2425,165.2425,0,0,0,123.98,115.186a.7359.7359,0,0,0,1.4707,0,164.7082,164.7082,0,0,0-1.1641-19.4867c-.0829-.8341-1.3413-.8729-1.33,0Z"/><path class="cls-2" d="M163.32,104.8444a98.6686,98.6686,0,0,0,16.1092.0674.7358.7358,0,0,0,0-1.4707,98.6561,98.6561,0,0,0-16.1092.0674.6684.6684,0,0,0,0,1.3359Z"/><path class="cls-3" d="M62.0287,77.7331c35.0913-1.77,70.1213-.1851,105.087,2.8877.8954.0787.8665-1.28,0-1.3828-34.8233-4.1325-70.1-4.4292-105.087-2.73-.7847.0381-.7887,1.2644,0,1.2246Z"/><path class="cls-3" d="M36.606,126.8445q58.9623-3.1736,118.06-1.179c11.24.3851,22.4717.9467,33.7074,1.4279.8616.0369.8452-1.2661,0-1.33-39.1974-2.9665-78.7832-3.08-118.0553-1.78q-16.8653.5581-33.7122,1.5489c-.839.0489-.8462,1.358,0,1.3125Z"/><path class="cls-3" d="M66.9647,176.4772c29.334-.9753,58.5753-.6295,87.9058.17.8991.0245.8855-1.333,0-1.3887a770.0918,770.0918,0,0,0-87.9058-.0533c-.8125.0421-.8221,1.2988,0,1.2715Z"/></g></svg>