<svg xmlns="http://www.w3.org/2000/svg" viewBox="0 0 778 257"><defs><style>.cls-1{fill:#f7fafc;}.cls-2{fill:#f2f6f9;}.cls-3{fill:#e93a1d;}.cls-4{fill:#ffefaf;}.cls-5{fill:#303030;}.cls-6{fill:#fff;}.cls-7{fill:#fce0de;}</style></defs><title>DN_Service-SEO-img-5</title><g id="back"><path class="cls-1" d="M262.1006,253.7856a20.3739,20.3739,0,0,1-14.31-6.0186l-6.2109-6.041c-1.2969-1.2627-2.5732-2.5049-3.8516-3.749a19.9971,19.9971,0,0,1-6.499,10.2813c-8.9131,7.48-20.625,7.0664-34.8057-1.2324a175.4373,175.4373,0,0,1-18.3867-12.8271,20.219,20.219,0,0,1-17.6592,7.4619,21.53,21.53,0,0,1-4.6309-.8809,20.1044,20.1044,0,0,1-4.9707-.7959,20.5754,20.5754,0,0,1-8.3418-1.1816,20.8935,20.8935,0,0,1-14.9209-2.2363c-.9629-.5215-2.06-1.1768-3.4512-2.0645-2.04-1.3008-4.7881-3.1465-8.4-5.6426-6.0186-4.1592-14.5635-10.2168-25.3984-18.0049q-1.998-1.4355-4.0381-2.9062-.3647.34-.751.666A19.9978,19.9978,0,0,1,57.294,206.22s-10.7861-12.7881-21.5693-25.6064c-5.3994-6.4189-10.7988-12.8447-14.8467-17.6807-2.0459-2.4443-3.75-4.4873-4.9424-5.9268-3.1562-3.8105-7.085-8.5518-6.3682-16.7705a20.0006,20.0006,0,0,1,7.0693-13.585,21.0993,21.0993,0,0,1,7.94-4.041c-8.9717-12.4512-11.9385-19.9-11.5654-27.4307a21.7612,21.7612,0,0,1,3.84-11.4268A20.0093,20.0093,0,0,1,19.4922,75.48a20.6879,20.6879,0,0,1,1.8418-4.4385A21.3078,21.3078,0,0,1,27.9083,61.36a19.9928,19.9928,0,0,1,17.8057-4.0586,19.1312,19.1312,0,0,1-1.749-10.0127,20.1329,20.1329,0,0,1,7.1006-13.7451c2.6094-2.19,11.7354-8.4517,24.1055-1.7065a19.9261,19.9261,0,0,1,6.9512-12.5527c2.041-1.7134,12.6035-9.5112,25.9063-.3662a19.9778,19.9778,0,0,1,4.2568-4.9595,20.3008,20.3008,0,0,1,23.1641-1.918c6.3252-4.2983,15.8252-5.4531,24.3242,1.272.5322.4214,1.3047,1.06,2.2949,1.9072,1.5508,1.3271,3.7031,3.2183,6.582,5.78q3.9741,3.5369,9.7842,8.7783a21.639,21.639,0,0,1,6.665-9.7891,19.9962,19.9962,0,0,1,27.0889,1.2725c.1846.187,9.584,9.7065,23.9219,24.01a20.0094,20.0094,0,0,1,31.3828-6.9355L302.65,68.896a20.0141,20.0141,0,0,1,28.4883-2.4873q.8481.7295,1.7,1.46a19.9963,19.9963,0,0,1,29.4844-5.56l10.34,8.0566a20.7206,20.7206,0,0,1,3.1621-3.3164c4.5127-3.7881,13.9736-8.6465,27.4434.2236.042-.0361.084-.0713.126-.1064,1.8516-1.5537,11.4678-8.7021,23.8145-1.4912a19.9281,19.9281,0,0,1,5.2715-6.8623,20.35,20.35,0,0,1,12.7354-4.752,20.0184,20.0184,0,0,1,23.1816-6.124A20.01,20.01,0,0,1,493.5909,34.288a20.1486,20.1486,0,0,1,4.8379-6.002,19.5706,19.5706,0,0,1,4.8135-2.9463,20.0149,20.0149,0,0,1,19.4609-1.3013,19.9126,19.9126,0,0,1,5.7539-7.9868c3.2539-2.7295,12.2295-8.4077,25.2949-2.2183a49.6306,49.6306,0,0,1,5.5029,3.0972,19.9927,19.9927,0,0,1,4.6709-5.687,22.425,22.425,0,0,1,16.59-5.0835,26.5421,26.5421,0,0,1,4.7.8413,20.0062,20.0062,0,0,1,23.0586,3.377c.0752.0723,2.2656,2.1831,6.0322,5.7739A20,20,0,0,1,620.4,7.229c.9678-.8125,7.3887-5.8516,16.0137-4.5a19.6034,19.6034,0,0,1,9.4141.98,20.779,20.779,0,0,1,14.0234.7456,20.067,20.067,0,0,1,7.1631-.61,21.8744,21.8744,0,0,1,2.9453.479,19.9824,19.9824,0,0,1,14.6133,5.2134q2.9648,2.7129,6.0166,5.479a20.0166,20.0166,0,0,1,29.6914,6.9678c2.82,3.3843,10.12,11.2656,15.625,17.2085,7.1563,7.7246,15.2656,16.48,21.5508,23.7295,10.6865,12.3252,15.6563,19.1572,15.0674,28.5225a20.6384,20.6384,0,0,1-7.28,14.4609c-.02.0156-.0391.0322-.0586.0488a19.9993,19.9993,0,0,1-1.3428,21.2637,20.0419,20.0419,0,0,1-5.4365,7.4668,19.907,19.907,0,0,1-5.9492,8.5029c-.2.1689-.48.3936-.8359.6553a21.49,21.49,0,0,1-5.1338,6.4316,21.7775,21.7775,0,0,1-3.2354,3.3633,21.0183,21.0183,0,0,1-16.7109,4.9023c-.0146.4453-.041.9-.0781,1.3691A20.044,20.044,0,0,1,710.53,177.9663a19.9664,19.9664,0,0,1-3.5059,3.8184,20.9765,20.9765,0,0,1-22.4111,2.7266,19.9966,19.9966,0,0,1-6.4209,9.9883c-2.8174,2.3652-13.0586,9.3486-26.501-.0039-.93-.6475-1.9629-1.4121-3.1494-2.334a20.8939,20.8939,0,0,1-4.3262,4.9766,19.9571,19.9571,0,0,1-16.5381,4.3379c-4.2051.1484-9.2539-1.0586-14.7178-5.2139-1.4121-1.0742-3.2344-2.5664-5.5693-4.5625q-1.8911-1.6172-4.2988-3.7324-.6768.6885-1.4189,1.3125c-2.53,2.123-11.7764,8.5215-24.4854,1.6768a64.9607,64.9607,0,0,1-6.6787-4.2686c-4.002-2.8408-9.2705-6.9209-16.1064-12.4746-.05-.04-.0986-.08-.1484-.12a20.0788,20.0788,0,0,1-1.7,1.6074c-5.4316,4.5557-15.3271,7.4746-25.3633.7285a51.96,51.96,0,0,1-4.1738-3.18,20.0007,20.0007,0,0,1-21.51-1.8076q-4.22-3.2329-8.5039-6.51a20.8753,20.8753,0,0,1-3.916,4.3682c-2.3965,2.0117-11.1494,8.1357-23.14,2.4756q-.3867-.1831-.7793-.3818a20.01,20.01,0,0,1-22.7285,3.5332,19.99,19.99,0,0,1-5.3115,6.9551,20.7344,20.7344,0,0,1-15.002,4.665,20.0047,20.0047,0,0,1-25.7822,14.7148,20.97,20.97,0,0,1-7.248,12.7236c-3.2031,2.6885-12.0439,8.2842-24.9062,2.2354a47.9435,47.9435,0,0,1-4.5791-2.4922,21.4193,21.4193,0,0,1-5.7021,7.4365,19.9993,19.9993,0,0,1-26.4053-.6113c-.2441-.2246-.4854-.4473-.73-.6729a21.35,21.35,0,0,1-7.53,14.2852,19.9264,19.9264,0,0,1-12.7451,4.6777,19.9675,19.9675,0,0,1-2.9434,3.0576c-3.3838,2.84-12.041,8.1768-24.1006,1.8926a19.944,19.944,0,0,1-17.3525,9.9912Z"/><path class="cls-2" d="M149.3379,230.936c-4.3945,0-9.6455-1.3486-15.7129-5.1553a106.1527,106.1527,0,0,1-9.2285-6.668,20.0221,20.0221,0,0,1-25.0215-12.77c-6.2217-8.7842-31.1445-37.1514-52.4414-60.3447a20.0021,20.0021,0,0,1-1.0459-25.8193c-3.42-5.8-4.626-10.2441-4.3125-15.2461a20.7521,20.7521,0,0,1,7.3105-14.5459,19.9417,19.9417,0,0,1,7.9678-4.0732c-3.3662-4.6592-4.8447-8.6436-4.4941-14.209A20.0338,20.0338,0,0,1,77.1163,53.8813,20.02,20.02,0,0,1,90.8418,35.8779a21.3762,21.3762,0,0,1,16.4521-1.9687,20.9119,20.9119,0,0,1,4.4834-5.2646,19.9754,19.9754,0,0,1,16.5313-4.3394,20.0028,20.0028,0,0,1,24.6992-7.1172,19.9831,19.9831,0,0,1,3.8887-4.3833,22.2383,22.2383,0,0,1,16.59-5.0293,25.712,25.712,0,0,1,7.6748,1.8862,19.9873,19.9873,0,0,1,18.9619,5.2725l3.4941,3.4951c4.7266-2.6914,13.5322-5.3887,24.6943,1.7388,1.3457.8589,2.7637,1.8691,4.3,3.0664,4.2646-.521,9.5117.186,15.4561,3.7266A63.7631,63.7631,0,0,1,256.085,32.81a20.0792,20.0792,0,0,1,13.1494,1.5132,19.9459,19.9459,0,0,1,9.2344,3.4834,19.9625,19.9625,0,0,1,15.52,3.87l2.5518,1.9629a20.02,20.02,0,0,1,29.08,7.2783c2.457,2.8867,8.2051,9.0186,12.5635,13.6689,25.7559,27.4814,31.8105,34.3945,31.14,45.5811a20.6667,20.6667,0,0,1-6.0293,13.375l2.5254,3.0107a20,20,0,0,1-.7422,26.5479,19.8944,19.8944,0,0,1-5.542,9.3926,19.9745,19.9745,0,0,1-3.4473,3.7373,20.3885,20.3885,0,0,1-7.1279,3.8525,20.176,20.176,0,0,1-4.1055,4.7207,20.47,20.47,0,0,1-9.793,4.4541q-.36.3325-.7383.6494a19.99,19.99,0,0,1-15.9307,4.4434q-.5757.57-1.2012,1.0938a19.9879,19.9879,0,0,1-14.78,4.5859q-.3032-.0293-.6045-.0674a20.0073,20.0073,0,0,1-22.65-1.0957,19.9676,19.9676,0,0,1-2.9619,3.08,20.6458,20.6458,0,0,1-21.2793,3.0752,24.7935,24.7935,0,0,1-2.3818-1.1416q-.5742.561-1.1963,1.082a20.2576,20.2576,0,0,1-19.8877,3.3994,20.0044,20.0044,0,0,1-4.5322,5.4385,21.7446,21.7446,0,0,1-5.6631,3.44c-5.8936,3.8447-12.3271,4.1-18.2812,2.7285a21.0083,21.0083,0,0,1-6.86,10.835,19.9994,19.9994,0,0,1-25.5449.1357l-2.4922-2.0459a19.9977,19.9977,0,0,1-5.3848,7.12A20.6088,20.6088,0,0,1,149.3379,230.936Z"/></g><g id="Layer_2" data-name="Layer 2"><path class="cls-3" d="M770.1907,80.9056c4.3792-1.37,6.9567,7.9,2.7991,10.5553-1.5921,1.0169-5.7928-.6885-8.4172-.0017-4.3633,1.1417-7.4018,5.4814-12.2853,4.8715.3666-3.5648,5.4143-4.4691,7.9484-6.5027,3.06-2.4553,4.6091-6.0775,6.8517-8.9224C768.4232,79.2109,768.0153,81.5863,770.1907,80.9056Z"/><path class="cls-3" d="M39.6632,9.5287c-5.9836,5.09-11.3007,10.629-11.1677,19.1027.1857,11.83,9.63,4.672,17.2977,4.15,7.78-.5293,9.4084,4.4771,14.9429,7.796,3.296,1.9766,11.5517,2.3394,15.4528,1.7526C77.5514,31.993,65.0778,28.847,58.1175,25.82,49.6521,22.1378,49.4721,15.954,39.6632,9.5287Z"/><path class="cls-4" d="M132.1429,160.9719c-7.88-2.7945-14.8639,5.7041-16.0015,12.5515-1.2687,7.6364,3.4438,13.962,8.7937,19.4362,11.8465,12.1218,33.3562-5.698,25.86-20.2127C148.465,168.2353,141.1891,161.4846,132.1429,160.9719Z"/><path class="cls-5" d="M38.6289,9.0438c-5.59,3.7255-8.8275,10.7077-8.8756,17.3377-.0191,2.6249.3323,5.9136,2.5167,7.6966,2.2854,1.8653,5.1453.8,7.1618-.9192,2.8617-2.439,5.0783-6.0637,6.92-9.3081,1.7047-3.0025,3.1181-6.489,2.2059-9.9837a6.6334,6.6334,0,0,0-5.1529-5.1788,5.11,5.11,0,0,0-5.6475,2.9486c-.2973.7138.8365,1.1325,1.2155.5125a4.2079,4.2079,0,0,1,7.0756-.1962c1.7031,2.2336,1.5743,5.2325.6657,7.7611a32.2408,32.2408,0,0,1-3.9187,7.064c-1.45,2.1266-3.1609,4.9675-5.53,6.178-6.9388,3.5448-6.3574-7.95-5.4126-11.578A23.4191,23.4191,0,0,1,39.2963,9.9088c.4586-.4158-.1438-1.214-.6675-.865Z"/><path class="cls-5" d="M34.8818,26.94A112.7439,112.7439,0,0,0,44.76,13.5334c.3475-.59-.49-1.2746-.9663-.7456A112.7527,112.7527,0,0,0,33.9615,26.23c-.36.5471.4966,1.23.92.71Z"/><path class="cls-5" d="M35.9508,17.7906c.839,1.5979,1.7107,3.176,2.63,4.7292a.6333.6333,0,0,0,1.0928-.6388q-1.2722-2.3891-2.67-4.7055a.61.61,0,0,0-1.0524.6151Z"/><path class="cls-5" d="M35.2934,35.048C40.3,34.24,46.028,31.0459,48.8827,26.7946c2.9743-4.4293,2.4466-9.7509-.6152-14.01a.5893.5893,0,0,0-1.0169.5944c1.1711,2.4484,2.5561,4.734,2.3876,7.5652a10.86,10.86,0,0,1-2.9933,6.5032c-3.24,3.5985-7.7186,4.44-11.6652,6.8564a.4093.4093,0,0,0,.3138.7443Z"/><path class="cls-5" d="M44.8694,31.2473c3.0641-.4649,6.5749-1.1643,8.5447-3.8189,1.484-2,1.9857-5.225-.0129-7.059-.4616-.4236-1.3039.1362-.9111.703a4.8039,4.8039,0,0,1-1.2069,6.7249c-1.8969,1.4765-4.3739,1.9866-6.6662,2.5348-.6073.1452-.3362,1.0046.2523.9153Z"/><path class="cls-5" d="M49.6159,32.1732c2.7113-1.1292,6.6065-1.3988,7.9091-4.5211.7837-1.8786-.3493-4.7409-2.6768-4.5536-.5985.0482-.8413,1.0241-.1534,1.1337a2.0815,2.0815,0,0,1,1.8683,1.97A3.4964,3.4964,0,0,1,54.6158,29.05c-1.6421,1.03-3.637,1.3787-5.3543,2.2825-.4512.2374-.1328,1.0436.3544.8407Z"/><path class="cls-5" d="M53.0846,33.5309a6.6291,6.6291,0,0,0,7.3428-2.2961c.7592-.9121,1.5316-2.2.9852-3.4052a1.6319,1.6319,0,0,0-2.2336-.8943c-.5638.2382-.2184,1.0383.2883,1.0646,1.8782.0975-.1855,2.5348-.4224,2.7791a6.5459,6.5459,0,0,1-1.608,1.215,6.2607,6.2607,0,0,1-4.114.6725.4486.4486,0,0,0-.2383.8645Z"/><path class="cls-5" d="M56.8709,35.842c2.5277.2244,6.2141-.7017,7.8529-2.8043,1.0771-1.382.7426-4.1532-1.4273-4.0579a.5918.5918,0,0,0-.1565,1.1567c2.8225,1.0217-1.3481,3.3282-2.2693,3.6942a26.2514,26.2514,0,0,1-4.126,1.0791c-.5548.122-.3766.8876.1262.9323Z"/><path class="cls-5" d="M61.4026,38.1931c2.5139-.4863,5.5159-.8454,7.1572-3.07,1.2856-1.7429.62-4.6837-1.9789-4.1858-.6682.128-.4657,1.0983.1534,1.1337,1.4416.0823,1.559,1.2814.8639,2.2816a4.9866,4.9866,0,0,1-2.0306,1.552,32.0327,32.0327,0,0,1-4.41,1.4017.46.46,0,0,0,.2446.8871Z"/><path class="cls-5" d="M64.5306,40.2763c2.7479-.5888,5.7654-.7488,7.6662-3.1136.7139-.8882,1.3655-2.165.7992-3.2941a1.6139,1.6139,0,0,0-2.2-.8153c-.5638.238-.2185,1.0384.2883,1.0646l.5577,1.4676-.261.43a3.8281,3.8281,0,0,1-1.1081,1.1585,6.797,6.797,0,0,1-2.102,1.0245c-1.2959.415-2.61.707-3.8786,1.2131a.4487.4487,0,0,0,.2383.8645Z"/><path class="cls-5" d="M68.4879,41.96c2.5277.2244,6.2141-.7017,7.8529-2.8043,1.0771-1.382.7426-4.1532-1.4273-4.0579a.5918.5918,0,0,0-.1565,1.1567c2.8225,1.0217-1.3481,3.3282-2.2693,3.6942a26.2514,26.2514,0,0,1-4.126,1.0791c-.5548.122-.3766.8876.1262.9323Z"/><path class="cls-5" d="M77.0524,40.6344c.0772.5986.1232,1.1924.2319,1.7877l.06-.4575a8.6507,8.6507,0,0,0-1.93-.4926,3.1182,3.1182,0,0,0-2.1438.6469c-.4648.4021.0415,1.0678.5587.96a4.7109,4.7109,0,0,1,2.1832-.2579,4.4109,4.4109,0,0,0,1.5327.3389c1.5081-.1772.6017-1.8134.2962-2.632-.1445-.3874-.8506-.3762-.7884.1067Z"/><path class="cls-5" d="M766.5562,83.1482a8.1241,8.1241,0,0,0,2.6944,8.5683c2.3232,1.8509,5.1684,1.3765,5.6923-1.75.4848-2.8927-.4373-7.2457-2.6292-9.2912-1.8707-1.7457-5.0349-1.9266-6.5581.2944-.4087.5959.5319,1.3311,1.0077.7775,1.6341-1.9011,4.2614-.8654,5.4022.9928a12.5724,12.5724,0,0,1,1.4425,5.7146c.0461,1.1893.0209,3.26-2.0489,2.9866-1.0914-.144-2.2335-1.4307-2.8193-2.2831a7.691,7.691,0,0,1-1.0987-5.7112.563.563,0,0,0-1.0848-.2991Z"/><path class="cls-5" d="M764.9367,87.8019a4.8858,4.8858,0,0,0-.1934,5.3095l.8049-1.047a3.9987,3.9987,0,0,1-3.2352-3.58.7029.7029,0,0,0-1.17-.3088,6.82,6.82,0,0,0-1.4463,6.5319l1.2639-.3484c-.7023-1.69-1.3981-3.3784-2.1552-5.0449a.5923.5923,0,0,0-1.018,0c-.9637,2.1634-1.9264,4.3131-2.77,6.5276h1.146a8.4944,8.4944,0,0,0-.9906-2.4727.6108.6108,0,0,0-.8272-.2169,9.2443,9.2443,0,0,0-3.59,3.99.5512.5512,0,0,0,.9512.556,11.6978,11.6978,0,0,1,3.2489-3.5014L754.13,93.98a5.2146,5.2146,0,0,1,.8887,2.1783.6.6,0,0,0,1.146,0,62.5922,62.5922,0,0,1,2.6415-6.2485l-1.0774-.1408c.6194,1.662,1.2953,3.2984,1.9686,4.9392.31.7564,1.504.4864,1.2639-.3484a5.1421,5.1421,0,0,1,1.1721-5.1938l-1.1946-.4948a5.2341,5.2341,0,0,0,4.2308,4.7683.722.722,0,0,0,.8049-1.047,5.15,5.15,0,0,1-.1432-4.213c.1731-.566-.5848-.7978-.8942-.377Z"/><path class="cls-5" d="M770.6751,88.2376a14.0166,14.0166,0,0,1,.4942-2.5456,19.1274,19.1274,0,0,0,.764-2.2656c.0779-.4945-.5319-1.0195-.94-.5473-1.1553,1.3362-1.3108,3.67-1.2673,5.3584a.4749.4749,0,0,0,.9492,0Z"/><path class="cls-5" d="M768.74,85.129c1.552.9789,3.2112,1.8114,4.8428,2.6478.618.3168,1.1634-.6015.5471-.936-1.6137-.8759-3.24-1.7758-4.9256-2.5062a.46.46,0,0,0-.4643.7943Z"/><path class="cls-5" d="M4.0008,190.5577c4.1587-3.1367,2.168-10.6325,1.389-14.8926a94.0407,94.0407,0,0,1-1.3777-10.6816,25.1194,25.1194,0,0,1,.5365-8.0505c.5011-1.92,1.6376-5.5857,4.1542-5.6839,2.2579-.0881,4.2082,2.7388,5.2982,4.36a33.4429,33.4429,0,0,1,3.3723,6.7423,91.2493,91.2493,0,0,1,3.3635,10.9573,30.2512,30.2512,0,0,1,.9723,6.279c.0506,1.7949-.0808,5.2669-1.9766,6.22-3.5189,1.7683-6.4251-6.7049-7.017-8.7618a41.7837,41.7837,0,0,1-1.438-13.9533c.2435-4.1747.7642-9.4887,3.5194-12.84,6.2556-7.6088,13.33,1.5129,15.953,7.206a71.9969,71.9969,0,0,1,4.7577,14.1558c.4267,1.9059,1.54,5.9665.017,7.6577-2.7384,3.04-5.2683-3.6463-5.7539-5.3862-1.77-6.3431-2.9938-13.69-1.8789-20.2332.5869-3.4445,2.29-8.0473,6.0949-9.0112,4.0157-1.0173,8.0068,2.7135,10.0645,5.7358,2.5727,3.7786,3.946,8.703,4.9852,13.1139a53.6272,53.6272,0,0,1,1.2839,7.945c.1294,1.5944.5044,4.9951-1.1181,6.0127-1.8749,1.176-3.9671-2.0082-4.6688-3.5422a20.9137,20.9137,0,0,1-1.5159-6.3724,78.8978,78.8978,0,0,1-.5984-8.8909c.0151-4.4332.6124-11.5341,4.3046-14.6264,5.4985-4.6053,12.4391,9.4149,13.9756,12.8713a34.0353,34.0353,0,0,1,2.9575,11.7678c.0858,1.5592.1976,3.6809-.8,4.9948-2.6781,3.5283-4.7227-2.0491-5.3749-3.9641-2.3593-6.9275-2.958-15.7706-.3995-22.7356,1.4317-3.8976,4.2469-6.4125,8.1913-3.5879,3.5257,2.5247,5.4855,6.88,6.8445,10.8594,1.5337,4.4905,2.8567,9.6888,2.2167,14.4811-.081.6063-.2048,2.0448-.9106,2.3031-1.1408.4173-2.27-1.3245-2.64-2.1378-1.2722-2.8-1.2106-6.2569-1.1684-9.2668a89.2326,89.2326,0,0,1,1.038-14.0977c.2947-1.6566,1.0174-6.2559,3.5752-4.9159,1.0378.5437,1.96-1.0285.92-1.5735-6.034-3.1612-6.614,8.0981-6.8243,11.5272-.2215,3.6128-.5771,7.2152-.5109,10.84.0573,3.1394.13,7.3524,2.3345,9.8588,1.39,1.58,3.8955,2.3517,5.2017.29,1.4834-2.3415.921-6.1491.6267-8.7245-.8486-7.4279-3.6606-17.3064-10.4238-21.4218-8.6868-5.2859-11.5779,8.0533-11.781,13.995a41.3237,41.3237,0,0,0,2.1749,15.4184c1.08,2.9412,3.7357,7.987,7.4346,4.9335,3.1768-2.6225,2.19-7.9619,1.5157-11.4675a40.856,40.856,0,0,0-6.2917-14.9324c-2.0339-3.0377-4.9349-7.2567-8.851-7.924-2.6625-.4536-4.7206,1.3006-6.0151,3.4563-3.7314,6.2139-3.2629,14.0617-2.7035,20.9705.34,4.1993.908,9.15,4.1923,12.173,2.9343,2.7,5.9789,1.5472,6.7752-2.26a21.6216,21.6216,0,0,0-.1978-7.3016,58.6752,58.6752,0,0,0-2.3916-10.3171c-1.6-4.8594-3.55-9.64-7.6881-12.8762-3.2046-2.5064-7.4665-3.6977-10.9273-.9809-3.33,2.614-4.5663,7.0355-4.9418,11.0706a50.4706,50.4706,0,0,0,1.041,13.8638c.662,3.5373,1.2567,7.8051,3.6779,10.6324,1.7012,1.9866,5.0442,2.7555,6.6212.1852,1.5217-2.48.6326-6.2611.0435-8.887-1.503-6.7-3.8633-14.1647-7.8764-19.766-2.0414-2.8493-4.8617-5.3827-8.5052-5.6816-4.6508-.3815-8.19,3.25-9.6012,7.3746a41.3743,41.3743,0,0,0-1.6469,17.0578c.4763,4.9011,1.5513,10.3685,4.5722,14.3931,1.8288,2.4363,5.1267,4.8342,7.5895,1.7747,2.8928-3.5938,1.6554-9.41.6658-13.4492A68.165,68.165,0,0,0,16.9606,157.17c-1.6188-3.0487-5.12-8.8618-9.4322-7.4583-4.3625,1.42-5.2542,8.254-5.3348,12.0472A73.2525,73.2525,0,0,0,3.8,176.3993c.5788,3.1637,2.5,10.3344-.6244,12.7468-.8174.6312-.02,2.0487.8251,1.4116Z"/><path class="cls-5" d="M114.1033,178.0342c3.0282,4.2153,6.242,8.3053,9.4007,12.4232a.7046.7046,0,0,0,.755.3072,95.21,95.21,0,0,1,13.9711-2.1408c1.244-.0967,2.7578.0213,3.81-.7888,1.1776-.9065,1.73-2.7193,2.3813-3.9837q1.5083-2.9261,3.0145-5.8531c.5711-1.1125,1.862-2.6939,1.6814-4.0193-.1484-1.0884-1.2693-1.9758-1.9308-2.7393q-2.1728-2.5076-4.3457-5.0153c-1.9739-2.2729-4.09-4.8705-7.2312-5.4043-3.5017-.5951-7.6463,1.3086-10.799,2.66-6.6214,2.8391-9.6149,8.15-10.452,15.1472-.0906.7575,1.1851.9283,1.3351.1807.72-3.5922,1.411-7.2947,3.9315-10.1256,2.3922-2.6867,5.8511-4.0288,9.1771-5.1505,1.8412-.621,3.8926-1.4795,5.8766-1.375,2.2825.12,3.995,1.6172,5.4835,3.2015,1.2206,1.2991,2.3534,2.6888,3.5194,4.0365,1.04,1.202,3.6087,3.3077,3.7559,4.831.1371,1.4187-1.6787,3.8616-2.3284,5.1317-.9282,1.8145-1.8484,3.6333-2.784,5.444-1.1955,2.3138-3.1488,2.31-5.4772,2.5328q-2.394.2294-4.7737.5839c-1.8292.27-3.6487.5973-5.46.9678-.8961.1833-1.686.55-2.5468.1217-.6425-.32-1.3011-1.7081-1.7727-2.3235-2.4021-3.1343-4.7787-6.2974-7.2714-9.36-.4159-.5111-1.3089.169-.92.71Z"/><path class="cls-5" d="M129.59,170.1141a7.0167,7.0167,0,0,0-5.8516,9.1817c1.5105,4.34,6.9974,6.3147,11.1029,4.6245,4.2572-1.7526,6.8578-7.1436,4.9612-11.4714a8.371,8.371,0,0,0-11.096-4.1116c-.5863.2991-.1708,1.3378.456,1.0817a7.3294,7.3294,0,0,1,9.2929,3.1115c1.792,3.3742.0507,7.8226-3.1079,9.7111a7.4445,7.4445,0,0,1-9.9121-2.2771c-2.1583-3.5351.3234-8.302,4.2737-8.97.4941-.0836.3844-.9227-.1192-.88Z"/><path class="cls-5" d="M123.6567,192.6448c1.5652.5138,1.6343,2.7489,2.7234,3.7843a5.1507,5.1507,0,0,0,4.0343,1.02c2.4762-.1369,4.9525-.4192,7.4235-.631,1.2578-.1078,2.5158-.2129,3.7732-.3251.9534-.0851,2.6227.084,3.4775-.3286,1.1989-.5787,2.0922-3.2484,2.7478-4.3834,1.2545-2.1721,2.5711-4.32,3.7679-6.524a5.511,5.511,0,0,0,.6849-4.75,29.8638,29.8638,0,0,0-2.7923-6.2246c-.3947-.6782-1.3616-.0836-1.0372.6063.872,1.8544,2.4627,4.2724,2.6734,6.3371.2578,2.5273-1.3616,4.561-2.5534,6.6264q-1.53,2.651-3.0593,5.302c-1.2705,2.199-3.0125,1.8983-5.3243,2.0992q-2.83.246-5.66.4957c-1.7292.1514-5.2191,1.0153-6.8117.0329-1.787-1.1024-1.4625-4.034-3.9231-4.207-.6374-.0448-.7049.8866-.1449,1.07Z"/><path class="cls-5" d="M140.2215,188.7413c.91,1.495,1.8335,2.9883,2.8548,4.41.43.5979,1.3933.0724,1.0068-.5885-.8838-1.5113-1.8737-2.9619-2.87-4.4011-.415-.6-1.3814-.0606-.9916.58Z"/><path class="cls-5" d="M124.4979,177.682a13.3329,13.3329,0,0,1,8.8046-6.07c.6674-.1413.3764-1.1222-.2788-1.0114a13.148,13.148,0,0,0-9.2544,6.6553.4222.4222,0,0,0,.7286.4259Z"/><path class="cls-5" d="M125.8017,179.3724a11.9111,11.9111,0,0,1,7.9861-5.3484c.6439-.1247.361-1.0692-.2679-.9718a12.021,12.021,0,0,0-8.4973,5.8648.4515.4515,0,0,0,.7791.4554Z"/><path class="cls-5" d="M126.7641,182.3149a8.8866,8.8866,0,0,1,8.4258-5.6275.5658.5658,0,0,0,0-1.1309,9.4587,9.4587,0,0,0-9.2846,6.5216c-.1819.5536.6544.76.8588.2368Z"/><path class="cls-5" d="M693.3829,61.4209c-6.0822-1.6012-8.1223-8.63-9.18-14.1024a11.6611,11.6611,0,0,1-.3525-2.6263,2.78,2.78,0,0,1,3.8077-2.48,13.085,13.085,0,0,1,4.6392,2.9741,21.0123,21.0123,0,0,1,5.8384,9.0339l.96-.7377a22.359,22.359,0,0,1-7.6524-8.3913c-1.4444-2.768-4.0866-9.2492-1.3707-11.9032,3.4537-3.3749,8.2586.5122,10.76,3.0521a32.7512,32.7512,0,0,1,7.0367,10.9073l1.082-.63a36.077,36.077,0,0,1-6.2311-8.9677c-1.48-3.0472-3.367-7.48-3.2276-10.9722.2172-5.4374,7.3986-.3111,9.0072,1.21a20.9106,20.9106,0,0,1,5.6659,9.44.6422.6422,0,0,0,1.2374-.3411,21.8434,21.8434,0,0,0-7.4413-11.2574c-2.1066-1.6612-5.8361-3.9639-8.5086-2.0634-3.0065,2.138-.3248,8.479.6221,11.0735a37.3222,37.3222,0,0,0,7.96,12.7937c.42.4461,1.3273-.015,1.082-.63A33.4634,33.4634,0,0,0,699.973,33.656c-2.8079-2.394-6.993-4.3626-10.35-1.77-3.419,2.64-1.6,8.4637-.26,11.7689A23.735,23.735,0,0,0,698.4355,54.61a.66.66,0,0,0,.96-.7377,22.2991,22.2991,0,0,0-7.7438-10.9081c-2.4237-1.8154-7.52-4.1314-8.9124.1658-.5907,1.8232.0624,4.0229.4719,5.8154a33.91,33.91,0,0,0,1.8509,5.8751c1.5627,3.63,4.0476,6.7119,8.033,7.6455a.5425.5425,0,0,0,.2882-1.0453Z"/><path class="cls-5" d="M682.7169,71.4709a25.0173,25.0173,0,0,0-11.0161,11.4012c-.347.7469.6914,1.3912,1.1232.6565A33.1551,33.1551,0,0,1,683.22,72.331a.4984.4984,0,0,0-.5027-.86Z"/><path class="cls-5" d="M680.5628,62.0655q-2.9307,3.5075-5.66,7.1826c-.3782.51.4688,1.1653.8834.6817q2.9756-3.4706,5.7424-7.1187c.42-.5516-.5189-1.281-.9663-.7456Z"/><path class="cls-5" d="M735.8186,115.1842a78.8263,78.8263,0,0,1,18.837-9.1583c.6752-.2248.3919-1.29-.296-1.0735a74.6611,74.6611,0,0,0-19.1325,9.22c-.6236.4171-.0391,1.4315.5915,1.0119Z"/><path class="cls-5" d="M85.0292,47.862A175.1816,175.1816,0,0,1,111.7542,60.156a.7535.7535,0,0,0,.76-1.3A116.92,116.92,0,0,0,85.3595,46.6642c-.78-.2272-1.0668.9227-.33,1.1978Z"/><path class="cls-5" d="M161.2771,174.7971a77.53,77.53,0,0,1,16.0642-10.7993c.7484-.3781.0921-1.473-.6536-1.1181a64.1565,64.1565,0,0,0-16.2517,11.0764c-.5642.5269.2688,1.34.8411.8411Z"/><path class="cls-5" d="M83.8139,140.4305c11.4663-2.2354,22.8711-4.38,34.4806-5.7678.8767-.1048.8965-1.4911,0-1.3945A242.5667,242.5667,0,0,0,83.49,139.2553c-.7666.1987-.4383,1.3238.324,1.1752Z"/><path class="cls-5" d="M81.8408,148.31c3.8338-.7273,7.6594-1.4922,11.483-2.2715.7848-.16.45-1.3484-.33-1.1978-3.8312.739-7.659,1.4918-11.48,2.2828-.7781.1611-.4454,1.3331.3271,1.1865Z"/><path class="cls-6" d="M130.229,219.26c2.1966-1.6487,3.0079-4.77,4.46-7.0477a33.7141,33.7141,0,0,1,6.2609-7.2452c1.85-1.6165,6.3934-5.7721,8.7565-3.3386,1.6826,1.7328,2.09,3.7906,4.7214,4.4674a2.2854,2.2854,0,0,0,2.5258-1.0278c5.5372-9.6932,18.1912-14.7793,28.633-9.7633a2.4923,2.4923,0,0,0,3.6879-2.1163c.4676-3.8653,4.5746-6.297,8.1258-6.71,5.2555-.6107,9.8441,2.2168,14.7492,3.4817a2.1665,2.1665,0,0,0,1.6615-3.9411c-5.3622-3.5154-13.0965-5.8127-19.4341-4.0231-5.3021,1.4972-9.4947,5.6009-10.0042,11.1923l3.6879-2.1163c-12.2667-5.5669-28.949-.89-34.9694,11.7381l2.5258-1.0278c-1.3492-.2422-1.99-2.2764-2.8721-3.2363a5.9294,5.9294,0,0,0-3.7289-1.96c-3.5914-.4132-6.8812,2.0773-9.5164,4.1891a36.3966,36.3966,0,0,0-7.4254,8.1065c-1.72,2.5588-4.4313,6.45-3.6125,9.6594a1.21,1.21,0,0,0,1.7674.719Z"/><path class="cls-6" d="M176.3086,223.5683a21.4209,21.4209,0,0,1,7.6257-12.8523c3.6919-2.846,10.0489-5.049,13.9806-1.4772a2.6,2.6,0,0,0,4.2956-1.1341c1.1991-4.1353,4.3151-7.1445,8.0905-9.0512,4.6143-2.33,9.847-2.5091,14.6421-4.2663a2.0259,2.0259,0,0,0-.5358-3.9592c-10.5735-.7379-24.3333,4.7029-27.1534,15.91l4.2956-1.1341c-5.46-4.9063-13.5609-3.6983-19.27.1675a23.6875,23.6875,0,0,0-7.0049,7.321,19.7361,19.7361,0,0,0-2.7107,9.9689c-.095,2.1066,3.3877,2.65,3.7444.5068Z"/><path class="cls-6" d="M72.6778,193.564l-.3074-.2884.5622,1.3573c-.0206-.4032,4.106-1.9877,4.895-2.2523a21.4911,21.4911,0,0,1,5.6883-1.1005,20.9459,20.9459,0,0,1,11.4929,2.6493,2.55,2.55,0,0,0,2.6033,0,10.4778,10.4778,0,0,1,5.6441-1.8329c.9985-.0771,2.001-.0909,3.0017-.1112a1.6537,1.6537,0,0,0,1.0144-.0135q.1058.8989.038.147c-1.0922,1.4168.7232,3.6032,2.3292,3.03,4.5175-1.6129,2.8881-7.169-1.2033-8.1644-4.0954-.9963-10.0415.0037-13.4274,2.4915H97.612a25.99,25.99,0,0,0-18.4927-2.4083c-2.65.6455-14.6075,5.5923-8.7232,9.4538,1.7873,1.1729,3.8372-1.4978,2.2816-2.9571Z"/><path class="cls-6" d="M41.9428,113.3117l-.1254.1914,1.3577-.7787-.26.0021,1.2374.5126q.3458,1.5933.386.27l.0726-.83c.1018-.8961.2235-1.79.3947-2.6755a28.3381,28.3381,0,0,1,1.3673-4.7864,24.5851,24.5851,0,0,1,5.7412-8.8278c4.3908-4.2625,11.7207-6.5486,16.2929-1.2531,1.584,1.8345,4.0834.17,4.3019-1.7819a23.8721,23.8721,0,0,1,5.7032-12.8519,24.3038,24.3038,0,0,1,5.07-4.4532A24.0547,24.0547,0,0,1,86.5694,74.34c1.25-.57,2.9877-.72,3.5779-1.98a2.1428,2.1428,0,0,0,3.35,2.5846c3.1192-2.9052-.0844-7.0436-3.6984-6.8928-3.84.16-7.9251,2.6876-10.8808,4.969a29.1825,29.1825,0,0,0-11.2484,20.334l4.3019-1.7819a14.1616,14.1616,0,0,0-13.4178-4.1817c-5.18,1.0219-9.5075,4.598-12.6143,8.7182a29.3781,29.3781,0,0,0-5.7806,15.3291c-.1358,1.7661-.1217,4.9121,2.4421,4.9121a2.0147,2.0147,0,0,0,1.7976-3.0382,1.4429,1.4429,0,0,0-2.4555,0Z"/><path class="cls-6" d="M94.3286,101.3888c.6347-5.9806.3223-12.37,4.1032-17.4687,2.8771-3.88,8.6046-6.3742,12.9389-3.4549,1.7116,1.1528,3.5109-.4336,3.7062-2.1268A18.5414,18.5414,0,0,1,138.5,62.4864a2.6079,2.6079,0,0,0,3.1157-1.7691c2.3351-5.7124,7.2075-11.12,13.5434-12.1734a13.5615,13.5615,0,0,1,8.1037,1.2072c2.7419,1.3513,4.0943,3.5478,5.9633,5.82,1.5651,1.9024,4.0741-.2258,3.7345-2.1739-1.3331-7.6465-11.8939-10.89-18.4948-9.8591-8.4826,1.3243-14.6312,8.2247-17.7349,15.833l3.1157-1.7691a23.4711,23.4711,0,0,0-29.6957,20.7368l3.7062-2.1268C107.9708,72.8,100.6014,74.8,96.0826,79.5769c-5.22,5.519-6.4422,14.5368-5.6446,21.812a1.9466,1.9466,0,0,0,3.8906,0Z"/><path class="cls-6" d="M162.6454,67.4571c2.9692-4.7629,5.9344-8.8861,11.5593-10.7,5.4868-1.7693,12.2469-.731,16.6007,3.1981a2.4106,2.4106,0,0,0,3.7279-.48,22.01,22.01,0,0,1,6.3919-6.9312c2.296-1.4993,6.795-3.2092,7.4028.9114.3032,2.0558,3.488,1.8422,3.9475,0,1.4226-5.7026-4.8519-8.5873-9.62-7.2269-5.1128,1.4587-9.9576,6.1193-12.221,10.8507l3.2476-.8515c-6.0092-4.2687-13.4829-6.1305-20.6524-3.7336-5.9109,1.9762-12.2979,7.2131-13.5539,13.6269a1.7428,1.7428,0,0,0,3.17,1.3364Z"/><path class="cls-6" d="M107.2922,39.25q-.118,1.3718.7513.5895.78-.3661,1.5661-.7184c.89-.3787,1.8008-.7085,2.7206-1.0054a35.3578,35.3578,0,0,1,5.4239-1.319,31.9773,31.9773,0,0,1,5.8522-.3432c.6438.0192,5.5926.7725,5.6511.6713-1.0451,1.8052.9666,3.3257,2.6188,2.6188,3.46-1.48,1.4213-5.78-1.28-6.7377-3.7684-1.3366-8.5328-1.0889-12.422-.5732a30.9265,30.9265,0,0,0-12.1494,3.9541c-2.5831,1.6151-3.0935,5.1846.51,5.6584,1.4728.1937,2.0487-2.1791.7571-2.7952Z"/><path class="cls-7" d="M48.5517,83.911c3.2411,3.1442,5.6244-1.8585,9.0575-1.7852,4.519.0965,8.2357.9107,11.5736-2.902a57.4813,57.4813,0,0,1,4.034-4.7309,22.3312,22.3312,0,0,1,5.6737-3.6643c4.19-1.9712,8.8259-2.9853,13.2627-4.2452,2.089-.5932,1.7842-4.2308-.5338-3.9439-8.1241,1.0055-16.8968,2.9654-22.98,8.8564-1.3986,1.3544-2.467,2.98-3.7492,4.4366-1.5685,1.7816-3.23,1.9247-5.5034,1.8988a11.6491,11.6491,0,0,0-5.1361.742c-.5532.26-4.1168,3.5108-4.2408,3.4482-1.1772-.5943-2.4815.8967-1.458,1.89Z"/></g></svg>