<svg xmlns="http://www.w3.org/2000/svg" viewBox="0 0 560 246"><defs><style>.cls-1{fill:#f7fafc;}.cls-2{fill:#f2f6f9;}.cls-3{fill:#e93a1d;}.cls-4{fill:#ffefaf;}.cls-5{fill:#303030;}.cls-6{fill:#fff;}.cls-7{fill:#fce0de;}</style></defs><title>DN_Service-SEO-img-3</title><g id="back"><path class="cls-1" d="M123.3283,242.7139a21.6144,21.6144,0,0,1-9.8594-2.46c-.9219-.4687-1.9648-1.0557-3.2832-1.8477-1.9-1.1426-4.4551-2.7617-7.81-4.9492q-3.7046-2.4155-8.7686-5.7979a20.0111,20.0111,0,0,1-32.8945,3.3994S47.5139,215.41,34.3186,199.7237c-6.6064-7.8516-13.2109-15.7129-18.1631-21.6289-2.498-2.9854-4.5791-5.4795-6.0352-7.2363-3.5156-4.2432-7.5-9.0527-6.7813-17.2822a20.0026,20.0026,0,0,1,7.03-13.55,21.0466,21.0466,0,0,1,8.6279-4.2256C11.2678,124.8516,8.7024,118.045,9.05,111.0264a21.5518,21.5518,0,0,1,3.9619-11.542,20.0008,20.0008,0,0,1,3.4-9.1152,20.6706,20.6706,0,0,1,2.4932-4.72,21.16,21.16,0,0,1,5.69-7.4717,19.9873,19.9873,0,0,1,19.0576-3.6953,19.1934,19.1934,0,0,1-.915-7.9053,20.1121,20.1121,0,0,1,7.1-13.7363A20.3911,20.3911,0,0,1,70.176,49.4434q.0073-.7705.0752-1.5449a19.9989,19.9989,0,0,1,7.0693-13.5771,20.4054,20.4054,0,0,1,22.7881-2.2275,20.0053,20.0053,0,0,1,4.877-6.0713,20.2944,20.2944,0,0,1,23.4229-1.7754c6.3311-4.2549,15.79-5.3643,24.2559,1.35.5342.4248,1.3105,1.0674,2.3057,1.9209,1.5605,1.3389,3.7275,3.2461,6.625,5.8311q3.1245,2.7861,7.38,6.625a21.6884,21.6884,0,0,1,6.832-10.2939,20.002,20.002,0,0,1,27.1348,1.3174c.0889.0918,2.292,2.3369,6.1426,6.2373a20.0052,20.0052,0,0,1,32.75-8.8555L251,36.89a20.0051,20.0051,0,0,1,32.8643-6.3838c13.2949,13.6826,26.9287,27.6025,40.4307,41.2813A20.004,20.004,0,0,1,352.26,70.6837L364.1691,81.462a21.5923,21.5923,0,0,1,3.3594-3.53c5.4248-4.5537,14.8477-7.3311,25.0186-1.4658a52.3691,52.3691,0,0,1,6.918,4.9365c3.41-2.4629,13.252-7.8672,25.2109.8154,1.1426.83,2.6445,1.98,4.5908,3.5186q.3735.2944.7715.61a19.9759,19.9759,0,0,1,4.1338-4.7568A20.2363,20.2363,0,0,1,451.75,77.3643a20.0017,20.0017,0,0,1,22.11-3.0879,20.0173,20.0173,0,0,1,30.74-1.4c.1172.1289,11.8584,13.0273,23.4141,26.2246,6.873,7.85,12.37,14.3057,16.3389,19.1895,6.7871,8.3506,12.1475,14.9473,11.5332,24.0947a20.335,20.335,0,0,1-7.1748,14.1514,19.0257,19.0257,0,0,1-1.9053,1.3965q1.8853,2.2969,3.2236,3.9648c4.1611,5.1846,8.0908,10.0811,7.4121,18.2852a20.04,20.04,0,0,1-6.7373,13.39,20.0024,20.0024,0,0,1-22.3145,23.2383,21.5415,21.5415,0,0,1-7.15,11.5742,21.2528,21.2528,0,0,1-22.4424,2.9453,19.9968,19.9968,0,0,1-27.71.8389L465.675,227.27a19.9877,19.9877,0,0,1-4.0264,4.5986c-2.7275,2.2881-12.69,9.1025-26.39.73a83.14,83.14,0,0,1-8.64-6.2871q-.8687-.7017-1.7959-1.4687-.583.6592-1.2324,1.2783a19.998,19.998,0,0,1-27.3887.1641l-6.5811-6.11a21.1142,21.1142,0,0,1-5.957,8.1035c-10.6172,8.9053-22.44,4.0635-29.918-.498a21.464,21.464,0,0,1-5.6221,7.2578,19.9982,19.9982,0,0,1-26.4209-.625q-5.49-5.0684-11.2588-10.3916a21.1625,21.1625,0,0,1-7.14,11.916,20.0026,20.0026,0,0,1-24.6074.8652c-4.4,2.8359-13.7715,6.55-25.8213-1.8145-1.9336-1.3418-4.1465-3.0693-6.8428-5.3457a20.0292,20.0292,0,0,1-29.3623,1.7109l-5.2734-4.8721q-2.08-1.9248-4.1211-3.8115a20,20,0,0,1-6.4551,10.1143c-8.3779,7.0313-19.2686,6.9746-32.3721-.1689q-2.373-1.2935-5.06-2.9707a20.1482,20.1482,0,0,1-20.0391,12.0625,19.9284,19.9284,0,0,1-5.19.1973,20.0214,20.0214,0,0,1-8.8789-.0957A20.0727,20.0727,0,0,1,123.3283,242.7139Z"/><path class="cls-2" d="M277.6633,220.877c-4.0283.001-8.77-1.2324-13.9961-4.8682-.1172-.0811-.2344-.1631-.3535-.248-.0576.05-.1143.0986-.1729.1465-6.2549,5.251-17.23,7.3164-26.5439-.55-.792-.6689-1.7051-1.5029-2.875-2.627q-.87-.835-1.9844-1.9375a19.9375,19.9375,0,0,1-2.56,2.5771,22.2075,22.2075,0,0,1-17.082,4.9863c-.4082-.0488-.8193-.1045-1.2354-.17-5.7012.2705-12.0723-1.5361-19.0449-5.4424q-2.8608-1.604-6.1865-3.8027a21.1252,21.1252,0,0,1-2.8291,2.873,20,20,0,0,1-25.4053.251l-6.6172-5.334a20.0048,20.0048,0,0,1-4.9023,6.1211c-4.5068,3.7822-14.207,8.8174-28.5234.0488-1.2578-.7705-2.6182-1.6729-4.0937-2.7158a20.0208,20.0208,0,0,1-26.623-12.1074C80.52,189.4717,56.257,161.86,35.5383,139.2969a20.0007,20.0007,0,0,1-.3271-26.6885,22.1828,22.1828,0,0,1-2.1924-11.0615,20.6859,20.6859,0,0,1,7.29-14.501,19.9374,19.9374,0,0,1,9.7783-4.4424,19.4051,19.4051,0,0,1-.82-7.3164,20.1442,20.1442,0,0,1,7.1279-14.1152,19.9289,19.9289,0,0,1,11.2285-4.6133A20.0056,20.0056,0,0,1,72.78,33.3038,19.9713,19.9713,0,0,1,75.6213,30.37,20.67,20.67,0,0,1,89.342,25.3868,21.1269,21.1269,0,0,1,95.677,16.33a19.99,19.99,0,0,1,18.6855-3.8115,19.9943,19.9943,0,0,1,29.8018-2.0107l.0234.0225a20.0277,20.0277,0,0,1,2.7031-2.7578A22.6277,22.6277,0,0,1,163.9143,2.67a27.7411,27.7411,0,0,1,10.1523,3.0264A19.9783,19.9783,0,0,1,191.49,11.4913l21.0518,21.5859c4.998-2.3,13.1045-3.7578,23.0947,2.6338a63.9139,63.9139,0,0,1,6.2148,4.6113,22.7228,22.7228,0,0,1,11.3369,2.0205A19.9559,19.9559,0,0,1,263.2,40.5616a20.1021,20.1021,0,0,1,8.791.5566,20.0855,20.0855,0,0,1,11.6523-.2373,20.0336,20.0336,0,0,1,20.8477,10.5957c2.499,2.9385,8.3809,9.2148,12.8408,13.9727,26.1445,27.8955,32.29,34.9082,31.6172,46.1484q-.0469.7778-.1523,1.5449l1.2686,1.5117a19.985,19.985,0,0,1,3.6875,19.082l5.291,5.93a19.9351,19.9351,0,0,1,5.0645,14.0352,19.9982,19.9982,0,0,1-3.376,18.93,20.72,20.72,0,0,1,.3076,5.65,20.4249,20.4249,0,0,1-7.1934,14.123,19.6513,19.6513,0,0,1-2.6826,1.89,21.2113,21.2113,0,0,1-5.168,6.4053,19.9308,19.9308,0,0,1-12.2061,4.668,20.6211,20.6211,0,0,1-3.0234,3.1328,19.9688,19.9688,0,0,1-13.373,4.6709,20,20,0,0,1-23.7187-.1826,20.0007,20.0007,0,0,1-2.9844,3.11A20.6777,20.6777,0,0,1,277.6633,220.877Z"/></g><g id="Layer_2" data-name="Layer 2"><path class="cls-3" d="M30.6467,51.7087c-12.4543-1.6153-7.977,15.8676.9852,18.2952,6.8869,1.8655,10.8694-5.6142,8.7769-11.6789C39.3694,55.3126,35.93,52.3566,30.6467,51.7087Z"/><path class="cls-4" d="M64.1427,53.3986c-12.4543-1.6153-7.977,15.8676.9852,18.2952,6.8869,1.8655,10.8694-5.6142,8.7769-11.6789C72.8654,57.0026,69.426,54.0465,64.1427,53.3986Z"/><path class="cls-5" d="M44.0741,117.2961c-.3144,3.402.4881,7.1477.8217,10.5643q.5337,5.4653,1.0827,10.929,1.084,10.9292,2.171,21.8581c.1254,1.2584,2.009,1.3172,2.006,0-.0144-6.2131.0373-13.4419,3.9151-18.6589a12.9985,12.9985,0,0,1,1.6524-1.8265,9.264,9.264,0,0,1,1.4412-1.11l1.7481,1.1943c.94,1.1911,1.1755,4.5992,1.4959,6.0652q.5986,2.7391,1.0813,5.5018c.1762,1.0066,1.463,6.0295.86,6.5664l.9721-.257.376.6591-.84.64.1649.01a.8468.8468,0,0,0,.4244-1.5668l-.1494-.0678a.891.891,0,0,0-1.1926.3127,1.2572,1.2572,0,0,0,.4472,1.8387.9828.9828,0,0,0,1.0086,0c1.3548-1.0091.8267-2.5712.6188-4.0614q-.6454-4.6283-1.608-9.2045c-.5494-2.6016-1.1629-11.0718-5.6943-9.7121-3.7105,1.1134-6.1558,6.0794-7.2114,9.4418-1.4357,4.5729-1.5447,9.4826-1.5155,14.2346h2.006q-1.5941-15.4006-3.2-30.8-.4146-3.9748-.841-7.9484c-.1683-1.5845.0114-3.7381-.7338-5.1674-.7716-1.48-3.1051-1.044-2.5154.728a.6184.6184,0,0,0,1.2085-.1636Z"/><path class="cls-5" d="M72.0468,118.0876a58.7724,58.7724,0,0,0,.0214,8.8408c.0732,3.1109.1632,6.2213.2477,9.3319q.12,4.42.2412,8.8408a24.6963,24.6963,0,0,0,.7366,6.8229A7.1686,7.1686,0,0,0,81.38,156.96c4.0866-.5435,7.5326-3.8592,9.6736-7.1989.5506-.859-.6671-1.7266-1.3758-1.0615-2.841,2.6661-5.321,6.4458-9.72,6.29-5.4464-.1923-5.2576-6.396-5.3874-10.38q-.224-6.8764-.4628-13.7523c-.1425-4.2337.127-8.7939-.6793-12.9569-.1648-.8511-1.2882-.5265-1.3811.1869Z"/><path class="cls-5" d="M90.7823,117.9709c.59,5.7386,1.6506,11.1726,1.2673,16.9873-.3233,4.9036-1.1147,10.0822,1.3423,14.6,1.684,3.0962,4.94,5.57,8.6162,4.863,3.19-.6139,5.8669-3.3531,5.285-6.7134-.1586-.9161-1.534-.65-1.5653.2118-.1678,4.6278-5.7864,5.8191-8.8421,3.0127-2.9219-2.6835-3.4281-6.8126-3.3146-10.5615.2259-7.4649,1.25-15.4206-1.7012-22.5466-.2137-.5159-1.1579-.5363-1.0876.1472Z"/><path class="cls-5" d="M63.282,133.5817a64.8518,64.8518,0,0,0,10.8857.5941c4.062.0438,8.126-.0574,12.1825-.2692,7.584-.3961,15.5951-.8061,23.0048-2.5717.9779-.233.7959-1.8872-.2422-1.79-7.61.7147-15.1093,2.0669-22.7626,2.5131-3.7324.2176-7.469.3263-11.2074.3549-3.8759.03-7.8337-.3462-11.6949-.0571-.6534.0489-.9037,1.0907-.1659,1.2258Z"/><path class="cls-5" d="M107.4827,136.5315c1.3073,14.2034,2.84,28.3864,4.31,42.5738.1168,1.1274,1.8835,1.157,1.789,0-.4456-5.4532-.8951-10.9071-1.2429-16.3676a124.0864,124.0864,0,0,1-.5071-15.6415,13.93,13.93,0,0,1,1.6494-6.3437,5.6776,5.6776,0,0,1,2.3839-2.3379c2.5862-.975,4.1319.6852,5.35,2.67,3.042,4.9573.7713,12.0752-5.8,11.6279a.8358.8358,0,0,0-.2212,1.6343c5.7635,1.3459,10.0317-4.5757,9.2232-9.8662-.755-4.9409-5.445-11.04-10.5679-6.9288-4.476,3.5922-4.0067,10.4307-3.8323,15.5441.2964,8.6877,1.03,17.3513,1.7757,26.01h1.789c-1.533-14.1943-3.0037-28.3976-4.6983-42.5738-.1048-.8766-1.4839-.907-1.4,0Z"/><path class="cls-5" d="M136.5365,140.5a2.4043,2.4043,0,0,0-1.2371.0285.8461.8461,0,1,0,.6524,1.5475,2.0392,2.0392,0,0,0,.8445-.5918.5966.5966,0,0,0-.26-.9842Z"/><path class="cls-5" d="M135.3459,151.1325l-.0238.057-.5244.0686c.1068.0191.6273.0516.3294.0035.233.0376.115.09.1157-.0529a.653.653,0,0,1,.0646-.3626c.0163-.0352.2534.1343.0266-.0352-.8056-.6023-1.6942.67-1.0438,1.3528a1.5437,1.5437,0,0,0,2.5684-1.379,1.4147,1.4147,0,0,0-2.6206-.3.6421.6421,0,0,0,1.108.6477Z"/><path class="cls-5" d="M154.0169,124.211c-3.0888,11.8448-6.0777,23.6912-9.478,35.4537a.9826.9826,0,0,0,1.788.7538c.4919-.8952.9735-1.7945,1.4258-2.71a.8473.8473,0,0,0-1.4622-.8547c-.5732.8453-1.1175,1.708-1.6531,2.5776l1.788.7538c3.37-11.7381,6.4967-23.6405,8.8344-35.6312.1569-.805-1.0313-1.1547-1.243-.3427Z"/><path class="cls-5" d="M164.7166,125.7957a61.8561,61.8561,0,0,0-2.3334,9.0794c-.703,3.0487-1.4026,6.0979-2.129,9.1411-1.3688,5.7344-3.5118,11.6565-4.1463,17.5148-.0812.75,1.16,1.1,1.4577.3948,2.345-5.5512,3.2792-12.0212,4.654-17.88,1.3691-5.8341,3.4452-12.0836,3.6825-18.09.0289-.7307-.95-.7505-1.1855-.16Z"/><path class="cls-5" d="M312.5606,102.3521c-25.6052-1.4255-51.3262-1.57-76.9657-1.7972-20.8507-.1849-41.7019-.16-62.5531-.095-43.8306.1367-87.6471.0538-131.465-1.1562q-5.6-.1546-11.2-.3273a36.0253,36.0253,0,0,0-8.509.3064c-5.0987,1.064-7.1589,4.5578-7.6175,9.4906-.7381,7.9383.387,15.8881.6961,23.8174.3191,8.1868.3725,16.4.5951,24.5927a.73.73,0,0,0,1.459,0c.1294-7.2483-.2694-14.5114-.3626-21.76-.086-6.69-.9233-13.344-1.0036-20.0337-.0378-3.15-.2177-6.931.79-9.9432.9429-2.8179,3.4014-4.1508,6.1721-4.6655a36.4825,36.4825,0,0,1,7.78-.1871q5.1416.1584,10.2836.3019,34.8917.9728,69.7983,1.1922c39.6926.2465,79.3854-.2612,119.078.012,27.6781.1905,55.3489,1.1813,83.0241,1.3365a.5423.5423,0,0,0,0-1.084Z"/><path class="cls-5" d="M30.2049,50.8126A10.1071,10.1071,0,0,0,22.56,62.5916c1.228,5.4577,6.8052,8.8722,12.2041,8.2374a8.5087,8.5087,0,0,0,7.48-10.4539c-1.3753-6.5894-8.2629-9.4288-14.4084-8.9005a1.1034,1.1034,0,0,0-1.0727,1.0727,32.05,32.05,0,0,0-.0765,3.7194.7183.7183,0,0,0,1.4042.19,31.8083,31.8083,0,0,0,.7794-3.6242l-1.0344.7875c4.7291-.3349,10.1578,1.1255,12.0544,5.9735,1.7463,4.4638-.74,8.9808-5.5461,9.52a9.4118,9.4118,0,0,1-10.0793-6.6527c-1.18-4.4615,1.99-9.1439,6.3139-10.2921a.7037.7037,0,0,0-.3738-1.356Z"/><path class="cls-5" d="M64.9422,52.2524c-5.739.3861-10.1177,6.09-9.2977,11.8651.8488,5.9784,7.2088,10.4683,13.1182,9.0954,5.5789-1.2962,9.6674-7.5593,7.97-13.1586-1.6222-5.3511-7.8615-8.6355-13.0461-6.4377-.8031.34-.2058,1.5174.5689,1.3494,4.2572-.923,9.2291,1.2568,10.5906,5.6085,1.4379,4.5961-2.01,9.7721-6.589,10.8043-4.69,1.0572-9.7-2.4379-10.6853-7.0711-1.0666-5.0152,2.9482-9.6147,7.5029-11.0768.51-.1638.4534-1.0177-.1324-.9783Z"/><path class="cls-5" d="M98.548,52.8288c-4.8754.2129-8.13,5.2454-8.072,9.8188.0624,4.95,4.0237,8.4785,8.79,8.9507,4.95.49,10.5-2.4552,11.3185-7.7173.8987-5.7739-5.0267-10.3405-9.7618-12.2234-.856-.34-1.2271.9233-.5847,1.3869,3.2071,2.3145,7.94,4.6305,8.4817,9.0237.5982,4.8487-4.5763,7.9506-8.8514,7.7061-3.9715-.2271-7.48-2.95-7.56-7.1267a8.6631,8.6631,0,0,1,6.415-8.5239.6622.6622,0,0,0-.1752-1.2948Z"/><path class="cls-6" d="M131.7535,66.9426c-8.54-3.4384-17.9439,3.4317-19.0122,12.117l2.8988-1.6635a16.2072,16.2072,0,0,0-24.1286,8.2285l2.6871-1.5257c-11.1919-4.18-24.3948-.1022-32.7458,8.0325l2.7984-.3611c-8.1222-3.6067-27.047-9.6459-28.1629,4.8358-.1748,2.2683,3.2025,2.547,3.8365.5192,2.911-9.3113,15.917-4.0474,21.9954-1.3672a2.414,2.414,0,0,0,2.7984-.3611c7.2966-7.1448,18.5112-10.6748,28.3187-7.0854a2.2231,2.2231,0,0,0,2.6871-1.5257,12.0531,12.0531,0,0,1,17.9712-6.063,1.9506,1.9506,0,0,0,2.8988-1.6635c.7629-6.6069,8.1788-10.6806,14.32-9.0735,2.015.5273,2.6776-2.3033.8391-3.0435Z"/><path class="cls-6" d="M116.0162,96.6781c-.7515-2.9726,3.9778-5.0712,6.11-6.0315a30.2162,30.2162,0,0,1,8.6483-2.3654c2.2658-.277,2.4118-3.7482,0-3.6562a27.166,27.166,0,0,0-12.8876,3.7276c-3.1618,1.8637-6.9,5.2091-5.2761,9.2643.8244,2.0592,3.9767,1.3223,3.4051-.9387Z"/><path class="cls-7" d="M56.1893,76.1793c-2.1954,1.4087-3.6008,3.7625-5.7356,5.16-2.3581,1.5439-6.5212.177-9.28.5727a12.5926,12.5926,0,0,0-7.4828,4.4294c-1.74,1.954-4.0326,4.6431-3.9565,7.3992a2.01,2.01,0,0,0,2.9977,1.72c2.2211-1.4131,3.2812-4.2017,5.1062-6.07,2.5709-2.6315,4.895-2.4974,8.3505-2.4779,5.9508.0335,8.0831-4.8635,11.5912-8.6725.9724-1.0558-.2858-2.8986-1.5905-2.0614Z"/><path class="cls-6" d="M87.6907,192.5382l-.3594.0325,1.2652.7257c.3912.6144,1.8177-1.1887,2.1451-1.4536a16.3305,16.3305,0,0,1,2.9033-1.8572,14.7779,14.7779,0,0,1,17.2495,2.6829,1.9745,1.9745,0,0,0,3.3289-1.3789c.2115-3.1676,5.7307-4.2134,8.1539-4.5268a23.1888,23.1888,0,0,1,9.8162,1.0963c1.9374.5926,3.3221-2.4689,1.4087-3.3414a21.7241,21.7241,0,0,0-14.4612-1.1887c-4.04,1.0413-8.5606,3.2918-8.8177,7.9605l3.3289-1.3789a19.2331,19.2331,0,0,0-15.8773-5.1215,18.2421,18.2421,0,0,0-7.9981,3.2331c-1.7434,1.2643-4.5,3.3306-4.4324,5.7148a1.68,1.68,0,0,0,1.1871,1.5592l.41.1525a1.4165,1.4165,0,0,0,1.4256-.3768l.2458-.3066c.624-.7783.3254-2.34-.9226-2.2272Z"/><path class="cls-6" d="M133.791,199.8992c-3.127-2.42,4.0664-7.22,5.8428-8.262,2.1661-1.27,6.9679-3.9326,9.11-1.44a1.98,1.98,0,0,0,3.078-.3966,16.3278,16.3278,0,0,1,9.3211-6.6653c3.958-1.1009,7.4068-.37,11.314.4394a1.6566,1.6566,0,0,0,1.27-3.0129c-3.8826-2.7068-9.6188-2.4919-13.9725-1.1806a20.5087,20.5087,0,0,0-11.3172,8.4411l3.078-.3966c-4.0154-4.6233-11.6081-.7633-15.5118,2.0622-3.51,2.5408-10.1465,9.213-4.1152,12.8777,1.4815.9,3.34-1.3545,1.9029-2.4663Z"/><path class="cls-6" d="M166.8292,200.4615c4.9783-5.4745,11.4559-8.6312,18.9505-7,1.943.4229,2.4108-.1,3.91-1.3708a22.4676,22.4676,0,0,1,4.84-3.4011c3.0027-1.4106,7.774-1.185,8.542,2.7816.2892,1.4935,2.6216,2.2019,3.6038.9515a20.8777,20.8777,0,0,1,12.8456-7.6582c5.2608-.9632,9.9347.415,14.7576,2.3984,1.7052.7013,3.2213-1.9744,1.8167-3.1208-9.5-7.7534-25.3623-3.7792-32.4692,5.3313l3.6038.9515c-.8159-4.139-4.84-6.6235-8.8769-6.7746-4.9789-.1863-9.4658,3.3677-12.7963,6.6979l1.9908-.5262c-8.4732-1.94-18.79.7209-23.3692,8.6946-.9324,1.6237,1.331,3.4958,2.65,2.045Z"/></g></svg>