<svg xmlns="http://www.w3.org/2000/svg" viewBox="0 0 547 268"><defs><style>.cls-1{fill:#f7fafc;}.cls-2{fill:#f2f6f9;}.cls-3{fill:#fff;}.cls-4{fill:#dfe4f7;}.cls-5{fill:#e93a1d;}.cls-6{fill:#ffefaf;}.cls-7{fill:#303030;}.cls-8{fill:#172df8;}</style></defs><title>DN_Service-SEO-img-1</title><g id="back"><path class="cls-1" d="M447.1658,265.6357a25.4746,25.4746,0,0,1-13.5625-4.2661,88.7306,88.7306,0,0,1-9.1914-6.8213q-.9023-.7419-1.8633-1.5513-.53.5859-1.1152,1.1377a19.9983,19.9983,0,0,1-27.4521-.0132l-7.6621-7.2393a21.203,21.203,0,0,1-5.91,7.9673c-13.69,11.4912-29.4434.12-35.373-4.1616-.1113-.0806-.2236-.1621-.3369-.2437a21.5317,21.5317,0,0,1-4.6426,5.4292,19.9977,19.9977,0,0,1-26.1094-.3437c-4.668-4.1309-9.5166-8.4209-14.498-12.8257a20.9071,20.9071,0,0,1-6.8623,10.9111,19.9985,19.9985,0,0,1-27.2393-1.4268q-.5156-.5339-1.0322-1.0688c-4.4043,2.6538-12.9639,5.6372-23.7666-1.269a87.6859,87.6859,0,0,1-7.4971-5.5381q-1.9717-1.5864-4.3359-3.5781a20.2255,20.2255,0,0,1-2.0566,1.9922c-1.2988,1.0918-13.0879,10.3511-26.6318-.7271l-3.1445-2.5757q-5.4858-4.4941-10.625-8.6958a20.0012,20.0012,0,0,1-5.833,8.1987c-12.5937,10.5645-27.9189,2.8208-40.1982-4.8013a20.0006,20.0006,0,0,1-5.0107,6.3335,20.35,20.35,0,0,1-14.2764,4.6611,20.1177,20.1177,0,0,1-5.4307.24,19.8042,19.8042,0,0,1-8.9365-.1177A20.3867,20.3867,0,0,1,92.85,244.644c-.8057-.311-1.7012-.6982-2.8174-1.2173-1.5244-.709-3.5576-1.7109-6.2158-3.0625-3.7295-1.8965-8.793-4.5376-15.085-7.8672A20.0148,20.0148,0,0,1,37.29,233.5957s-7.4883-8.8789-14.9756-17.7788c-3.752-4.459-7.502-8.9229-10.3145-12.2827-1.4277-1.7065-2.6182-3.1323-3.45-4.1372-2.44-2.9453-6.5244-7.8755-5.8027-16.0889A19.9665,19.9665,0,0,1,23.3836,165.09a21.3065,21.3065,0,0,1-1.1367-8.5454,21.0319,21.0319,0,0,1,7.4248-15.0415,20.0523,20.0523,0,0,1,3.4873-2.3525,20.0539,20.0539,0,0,1,2.9766-3.1,18.4907,18.4907,0,0,1,2.4277-1.71q.6284-.6328,1.3164-1.21a20.0625,20.0625,0,0,1,2.9951-2.083c.1025-.09.207-.1792.3115-.2671a19.9987,19.9987,0,0,1,24.5918-.8706,21.06,21.06,0,0,1,.0352-3.019,20.0667,20.0667,0,0,1,7.0859-13.72c2.5068-2.1045,11.6348-8.4409,23.9668-1.7388l.2432.1333a19.9235,19.9235,0,0,1,6.9482-12.54,20.5348,20.5348,0,0,1,17.1943-4.28,19.9978,19.9978,0,0,1,6.1719-9.1543,21.296,21.296,0,0,1,7.1992-3.853A19.9945,19.9945,0,0,1,160.87,70.5259a23.8885,23.8885,0,0,1-.042-3.147,21.87,21.87,0,0,1,7.7959-15.8081,20,20,0,0,1,26.1836.4087,20.0019,20.0019,0,0,1,33.1465-9.7241L234.4,48.3447a20.004,20.004,0,0,1,33.2041-6.7866q3.5405,3.7134,7.1094,7.4453a19.9973,19.9973,0,0,1,30.8477-3.6543l21.68,21.083a22.1323,22.1323,0,0,1,2.7646-2.7686c5.6221-4.7173,15.3936-7.4653,25.959-1.0405a60.9291,60.9291,0,0,1,7.9639,6.0044C368.42,72.5,374.3543,78.2056,382.073,86.07c11.91,12.1338,26.5039,27.793,42.123,44.6484,4.3955-1.3086,10.4014-1.4932,17.209,2.688.92.5649,2.0586,1.3032,3.583,2.3242q1.2393.83,2.793,1.8911a19.9642,19.9642,0,0,1,4.0137-4.5781,20.5246,20.5246,0,0,1,22.7344-2.3193,26.44,26.44,0,0,1,30.0664,3.7051c.36.396,8.9287,9.81,17.6309,19.7471,18.4531,21.0747,22.7842,26.418,22.1357,36.0952q-.063.95-.2168,1.8848a24.3836,24.3836,0,0,1-.0859,2.5327,20.0209,20.0209,0,0,1-6.1973,12.8979,20.0024,20.0024,0,0,1-16.43,24.7026c.0352.7456.0342,1.49,0,2.24A21.1408,21.1408,0,0,1,499.44,254.916a20.0166,20.0166,0,0,1-31.2754,4.3516l-3.4912-3.3955a20.0054,20.0054,0,0,1-4.2607,4.9746A20.946,20.946,0,0,1,447.1658,265.6357Z"/><path class="cls-2" d="M325.5818,242.85c-4.8809,0-10.74-1.4458-17.6826-5.3145q-2.4434-1.3608-5.2236-3.1567a21.1372,21.1372,0,0,1-3.0879,3.1973,19.998,19.998,0,0,1-25.1631.4434L253.032,221.3164a19.9584,19.9584,0,0,1-2.6387,2.6748c-4.1211,3.459-12.9814,8.2363-26.0176,1.3486a92.765,92.765,0,0,1-9.6982-6.1387l-.082-.0576A20.0253,20.0253,0,0,1,189.53,208.0581c-4.0664-5.3774-17.2295-20.3315-28.293-32.3813a20,20,0,0,1-.6367-26.3242c-2.6816-4.6846-3.8633-8.8164-3.5645-13.5889a20.54,20.54,0,0,1,7.2451-14.396,19.9582,19.9582,0,0,1,7.9238-4.063c-3.79-4.9478-5.582-9.12-5.2031-15.1294a20.0343,20.0343,0,0,1,20.1855-18.792A20.0295,20.0295,0,0,1,196.82,61.562c.0273-.0239.0557-.0474.084-.0713a21.442,21.442,0,0,1,18.8428-4.3491,21.1357,21.1357,0,0,1,4.6885-5.55,20.0022,20.0022,0,0,1,25.2021-.4141q.5083-.4922,1.0537-.95a19.998,19.998,0,0,1,26.5684.7744l12.457,11.7461q.6694-.68,1.4053-1.2974a21.9584,21.9584,0,0,1,16.2637-4.9814c5.665.522,11.2949,3.1636,17.66,7.8232a20.0222,20.0222,0,0,1,14.1,5.1782A20.8457,20.8457,0,0,1,351.82,67.2319a20.9094,20.9094,0,0,1,11.6084-1.3457,20.0394,20.0394,0,0,1,19.793,10.374c5.5215,7.3511,34.5938,41.5352,60.833,71.8706a19.9986,19.9986,0,0,1,4.8682,13.5356,20.6068,20.6068,0,0,1-.3691,18.11,22.4831,22.4831,0,0,1,.4189,6.3789,20.9539,20.9539,0,0,1-7.4717,14.9414,20.0321,20.0321,0,0,1-3.9834,2.6064,20.4915,20.4915,0,0,1-6.6553,10.6655,19.9969,19.9969,0,0,1-7.3447,3.9038A20.8109,20.8109,0,0,1,420.9,220.895a19.9962,19.9962,0,0,1-18.6992,3.8081,19.974,19.974,0,0,1-4.542,5.4556,20.3916,20.3916,0,0,1-21.4727,2.9849,21.4959,21.4959,0,0,1-1.8994,1.8008,20.3255,20.3255,0,0,1-26.3691-.4053c-.085-.0713-.1719-.144-.2607-.2192a20.0061,20.0061,0,0,1-3.0488,3.1943,22.0214,22.0214,0,0,1-15.62,5.09A23.2924,23.2924,0,0,1,325.5818,242.85ZM384.949,80.6113c.0166.0166.0322.0327.0479.0493a17.7126,17.7126,0,0,0-.9893-2.7754A19.8205,19.8205,0,0,1,384.949,80.6113Z"/></g><g id="Layer_2" data-name="Layer 2"><path class="cls-3" d="M250.3513,65.0527A54.8267,54.8267,0,0,1,261.378,67.64c2.8339,1.1174,6.571,3.0766,6.6275,6.5359a2.354,2.354,0,0,0,3.5106,2.0145,14.62,14.62,0,0,1,15.1079-.2429c2.36,1.4071,3.8709,3.7323,6.6835,4.3388,1.1871.256,2.3355.1651,3.3706.9259a6.8436,6.8436,0,0,1,2.1845,3.6076c.5421,1.7955,3.7448,2.18,4.0379,0a8.0258,8.0258,0,0,0-4.2768-8.3016c-1.7525-.9767-4.0039-.5738-5.58-1.6977-1.3706-.9772-2.49-2.2115-3.9616-3.078a19.202,19.202,0,0,0-19.9209.4189l3.4272,1.3943c-2.0654-8.5159-14.2283-11.8717-21.83-11.5109-1.6289.0773-2.1943,2.6984-.4071,3.0078Z"/><path class="cls-3" d="M341.5047,79.9778c5.3064-2.9475,12.93-3.1324,16.4177,2.7915a2.0745,2.0745,0,0,0,2.8175.7388c3.6456-2.625,8.7932-3.1615,12.4916-.2461,3.9671,3.1271,3.598,7.4166,3.3776,11.8909-.1,2.0222,2.6045,2.4756,3.5959.974,3.4623-5.2438.01-13.18-4.586-16.5383a14.4526,14.4526,0,0,0-17.3745.6854h2.9122c-2.7619-3.0208-5.8828-5.3257-10.0408-5.9243a14.32,14.32,0,0,0-11.4574,3.2356c-1.3375,1.1621.3729,3.211,1.8461,2.3927Z"/><path class="cls-3" d="M322.7891,108.3791c4.8921-2.2281,12.4353-.3731,14.126,5.2147a2.2359,2.2359,0,0,0,2.6738,1.5181c5.9877-1.0641,11.8781.5719,14.8681,6.2992a2.4962,2.4962,0,0,0,3.3991.8913c3.422-2.4636,7.5866-3.7643,11.6776-2.0521a11.33,11.33,0,0,1,6.6067,9.0943c.3752,2.6162,3.75,2.2392,4.9627.6486A9.356,9.356,0,0,1,392.456,127.39c4.289,2.2689,4.5275,6.5127,5.441,10.7017a2.0374,2.0374,0,0,0,3.6841.4815c3.4554-5.9206-1.803-13.882-7.2875-16.3711-6.4131-2.9106-13.7976-.4474-17.8794,5.05l4.9627.6486c-1.8939-12.1962-17.3214-18.227-26.5314-9.5l3.9019.5028c-3.7987-6.9379-13.3189-11.3126-20.8333-7.7642l2.9739.78c-4.474-6.0781-12.2627-9.3669-19.3606-5.6984-1.4488.7488-.1776,2.8143,1.2618,2.1587Z"/><path class="cls-4" d="M392.69,164.7608c1.3864,1.3371,3.6189,1.1419,5.2582,2.2295a7.77,7.77,0,0,1,2.6634,2.9323,14.3214,14.3214,0,0,0,1.2081,2.8235c1.38,1.78,3.3387,1.1154,5.2736,1.4616,2.0154.3606,4.6654,1.7711,5.46,3.8012.55,1.4032,2.4182,2.7562,3.9254,1.597,1.9724-1.517,3.5854-1.6316,5.9271-1.0736a7.8955,7.8955,0,0,0,5.649-.4723c1.9653-.9025,3.8913-1.8453,6.1267-1.672,2.33.1806,3.6178,1.4409,5.1339,3.0431,1.5081,1.5937,4.51-.0443,3.7737-2.1967-1.8706-5.4657-8.6426-6.828-13.6464-5.4708-1.3062.3543-2.4484,1.05-3.7127,1.4842-1.6088.5525-3.2222-.4451-4.8927-.5214a11.27,11.27,0,0,0-7.5968,2.6828l4.1969.5408c-1.7281-2.2911-3.4288-4.217-6.124-5.395-2.7332-1.1946-5.1152-.6859-7.9242-1.0193l1.4137.5856c-.8881-.9744-1.2661-2.5054-2.1116-3.5666a11.6663,11.6663,0,0,0-3.25-2.8164c-1.8876-1.0987-4.9309-2.3251-6.7512-.6346a1.1848,1.1848,0,0,0,0,1.6573Z"/><path class="cls-4" d="M266.3842,62.7389a21.2758,21.2758,0,0,1,3.8058,2.4669c.9631.8169,1.6779,1.993,2.6961,2.7152,2.0217,1.434,5.2023-.03,7.4673.0533a15.0363,15.0363,0,0,1,4.3793.834c1.3272.46,2.6378,1.6627,4.0426,1.7453,1.1864.07,2.0155-.3619,3.2047.1769a17.64,17.64,0,0,1,2.9923,2.2245c1.4961,1.1222,2.9587-.73,2.7658-2.1263-.5927-4.2918-5.983-5.6919-9.5845-4.8679l1.8017.2357c-3.8669-1.7778-7.6848-2.879-11.9858-2.3508a23.042,23.042,0,0,1-2.7518.5364c-1.2743-.0231-1.7994-.8612-2.7231-1.54a11.9522,11.9522,0,0,0-5.22-2.2162c-1.2049-.2048-2.1344,1.4532-.891,2.1133Z"/><path class="cls-3" d="M390.5594,167.0247a19.4176,19.4176,0,0,1,4.8922,4.87c.9939,1.5684,1.4245,3.3521,3.1839,4.2449,1.7781.9023,3.6181,1.1011,5.2348,2.4017a8.8348,8.8348,0,0,1,3.1525,5.1107c.4259,2.0638,2.9,2.2317,4.27,1.1273a5.2117,5.2117,0,0,1,7.3036,1.3113,2.6286,2.6286,0,0,0,4.08.5258,10.0313,10.0313,0,0,1,9.5851-3.1144c3.4062.815,5.3148,3.37,7.5332,5.843,1.5044,1.6773,3.8629-.1408,3.4995-2.0371-.9014-4.7026-5.876-8.101-10.3606-8.9445a15.3442,15.3442,0,0,0-13.9311,4.5791l4.08.5258a10.39,10.39,0,0,0-15.4028-2.3018l4.0123.517a15.6465,15.6465,0,0,0-9.6314-8.7139c-1.2853-.3678-2.0562-.3729-2.8478-1.4745-.6131-.8532-1.0906-1.7864-1.76-2.6113a13.1121,13.1121,0,0,0-5.8818-4.258c-1.5228-.5429-2.0929,1.5763-1.0114,2.3989Z"/><path class="cls-3" d="M380.7546,141.043c3.0583.38,5.2945,1.3162,6.8068,4.1066,1.1494,2.121,1.3514,4.5546,1.8012,6.8845.3806,1.971,3.7008,2.0259,4.0379,0,1.2331-7.4109-4.8423-16.6877-13.1443-14.6741-2.2213.5388-1.4531,3.44.4984,3.683Z"/><path class="cls-3" d="M316.0914,90.2376c6.1221-2.2243,12.7177-1.7043,17.171,3.5268a2.179,2.179,0,0,0,2.1878.5783c3.1067-1.2018,6.2583-1.5825,9.2771.1342a9.4539,9.4539,0,0,1,3.1608,2.9412c.82,1.2166,1.0966,2.5633,2.144,3.6181,1.0208,1.0279,3.1818.6588,3.46-.9136.7115-4.0164-3.4063-8.1627-6.7137-9.8907a14.1518,14.1518,0,0,0-13.0611.0008l2.725.3516c-5.38-5.4533-14.8852-7.8317-21.6634-3.46-1.54.9931-.5893,3.8038,1.3124,3.1129Z"/><path class="cls-5" d="M414.5907,105.7907c4.07,1.4069,1.9967,9.085-3.1029,6.9661-3.8158-1.5855-2.057-7.3123,1.8774-7.1811A4.1618,4.1618,0,0,1,414.5907,105.7907Z"/><path class="cls-6" d="M406.01,137.1973c.8824-3.7772,3.8781-8.29,9.99-12.03,4.589-2.8086,12.7326-9.3813,18.2317-8.59,1.2118,11.0767,9.4211,6.3178,15.9908,6.96,4.2908.4194,6.3588,3.3907,11.3641,3.2636,3.8756-.0984,4.27-1.8213,8.67-.5028,4.9891,1.4952,10.9653,6.5529,4.8309,10.0524-6.7677,3.8608-23.7972-.6411-31.0819-1.0718-9.5918-.5672-27.4723-1.0962-35.8045,3.9041C407.7464,137.8508,406.402,136.7945,406.01,137.1973Z"/><path class="cls-7" d="M271.8717,24.79c1.6527.7055,3.3924.5232,5.174.5274,2.464.0059,4.9288-.0419,7.3916-.1161a120.0574,120.0574,0,0,0,13.0643-.8286c.9738-.1369.7261-1.7148-.23-1.6976-4.2781.0769-8.5554.5086-12.8346.6537-2.1349.0724-4.27.1139-6.4059.1394-1.9659.0234-4.2021-.2982-6.0435.4329-.3336.1324-.5462.7053-.1162.8889Z"/><path class="cls-7" d="M271.9972,33.8478a35.799,35.799,0,0,0,7.014.1348c2.6264-.0483,5.2526-.1095,7.8789-.1642q8.1252-.1693,16.25-.3446c10.67-.2364,21.34-.4593,32.008-.8018a.6391.6391,0,0,0,0-1.2773c-10.6708.1244-21.339.3686-32.008.5992q-7.8791.17-15.7578.3554-3.9394.09-7.8789.1807a38.285,38.285,0,0,0-7.5064.4478.4546.4546,0,0,0,0,.87Z"/><path class="cls-7" d="M272.1171,38.7744c15.3768.022,30.8219-.7352,46.1834-1.39.799-.0341.8066-1.2676,0-1.248-15.3745.3735-30.8388.6517-46.1834,1.7a.469.469,0,0,0,0,.9375Z"/><path class="cls-7" d="M272.1171,51.8436c19.7806-1.1208,39.4907-2.2025,59.3112-2.3483a.6068.6068,0,0,0,0-1.2129,519.3648,519.3648,0,0,0-59.3112,2.5416c-.6381.069-.666,1.0573,0,1.02Z"/><path class="cls-7" d="M272.1171,55.8354c14.7931-.6219,29.5327-1.3911,44.3467-1.4462a.557.557,0,0,0,0-1.1133,378.1,378.1,0,0,0-44.3467,1.5458c-.6349.0659-.6635,1.0416,0,1.0137Z"/><path class="cls-8" d="M272.1171,59.4291q10.9242.0448,21.8482.0469a.5511.5511,0,0,0,0-1.1016q-10.9243.0029-21.8482.0469a.5042.5042,0,0,0,0,1.0078Z"/><path class="cls-7" d="M404.1287,89.4016c12.8908.2346,25.8074.4585,38.6989.5941a.9234.9234,0,0,0,0-1.8457c-12.8128-.6825-25.8751-.7806-38.6989-.3655a.8091.8091,0,0,0,0,1.6172Z"/><path class="cls-8" d="M404.0025,94.7881c1.5239.5386,3.0932.113,4.6861.0329,1.5945-.08,3.1886-.0844,4.7843-.0408,3.3027.09,6.7227.6132,10.0126.2869a.9293.9293,0,0,0,0-1.8574c-3.4164-.408-7-.3965-10.4419-.4589-2.6738-.0485-6.9187-.5335-9.1545,1.17a.4824.4824,0,0,0,.1134.8675Z"/><path class="cls-7" d="M402.5508,104.7086a175.0173,175.0173,0,0,1,3.6514,34,.6657.6657,0,0,0,.6616.6616,428.4778,428.4778,0,0,1,72.3378-1.5554.74.74,0,0,0,.7313-.7313c.1318-10.4432.3244-20.8876.3954-31.3314.0093-1.3719.1733-3.0524-.75-4.2089-.9638-1.2071-2.5189-1.1277-3.9159-1.1976-5.0918-.2548-10.1915-.406-15.2879-.5323q-15.54-.385-31.085-.1141-7.894.1384-15.7838.443c-2.818.1088-7.8826-.75-9.7269,2.0147-.5588.8377.7876,1.6138,1.3458.7867,1.1237-1.6651,5.5764-1.1088,7.3949-1.182q3.4514-.139,6.9039-.2461,6.4118-.199,12.8264-.2884,13.0748-.1813,26.1514.0785,6.66.1336,13.317.3856,1.4792.0565,2.9582.1194c1.6527.07,3.3825.4717,4.1537,2.2515.3726.86-.0136,2.7092-.0245,3.6481l-.0339,2.9373q-.1524,13.2179-.3014,26.4358l.7313-.7313a421.7064,421.7064,0,0,0-72.3378,1.6949l.6616.6616a163.3653,163.3653,0,0,0-3.9125-34.2928c-.1563-.6939-1.2042-.3982-1.0622.2928Z"/><path class="cls-7" d="M408.4685,130.9542a124.5689,124.5689,0,0,1,20.4381-13.302c1.8343-.9055,3.46-1.5854,5.2025-.0332.732.6522,1.4284,1.36,2.1389,2.0352,1.5825,1.5046,3.121,3.12,4.785,4.5345,2.0666,1.7564,3.6124,1.8353,6.0533.8149,2.5141-1.0509,3.5442.0072,5.5962,1.0622a5.8887,5.8887,0,0,0,3.5852.6691c1.5819-.179,3.0681-.8152,4.6339-1.0718a21.9293,21.9293,0,0,1,5.1926-.1833,10.1759,10.1759,0,0,1,5.1349,1.6766c1.5611,1.1044,2.3247,2.934,3.8616,4.0336a3.1989,3.1989,0,0,0,4.7365-.6536c.5042-.7653-.7194-1.47-1.2244-.7157-1.7457,2.6092-4.2575-1.75-5.4046-2.86a9.8679,9.8679,0,0,0-3.2334-2.0811,17.8518,17.8518,0,0,0-8.556-.6977c-1.4444.1751-2.8033.6467-4.2193.9532-2.33.5045-3.5628-.2468-5.4715-1.2911a4.9327,4.9327,0,0,0-3.3942-.7723c-1.6607.3017-2.8341,1.59-4.6062,1.14-1.9207-.4877-3.7059-2.78-5.1418-4.1026a48.0408,48.0408,0,0,0-4.2443-3.8708c-2.3482-1.681-4.5345-.3473-6.8109.8339a97.7349,97.7349,0,0,0-19.6166,13.15c-.3906.3439.1419,1.0559.5645.7316Z"/><path class="cls-7" d="M411.1632,108.2766a3.223,3.223,0,0,0-.6952,4.6809,3.4106,3.4106,0,0,0,5.0717.4361,4.7053,4.7053,0,0,0,1.0037-6.25c-1.2352-1.6583-3.9313-1.6741-4.6918.4134a.5767.5767,0,0,0,1.05.4425c.9739-1.9692,2.9859-.2424,3.1735,1.2628a3.6345,3.6345,0,0,1-1.7191,3.484,2.1107,2.1107,0,0,1-2.99-.6433,2.0532,2.0532,0,0,1,.3748-2.84.5717.5717,0,0,0-.5767-.9866Z"/><path class="cls-7" d="M404.1287,147.2565c23.0574.2484,46.1457-.4168,69.2-.769a.6508.6508,0,0,0,0-1.3008c-23.0575.3222-46.1577.333-69.2,1.2554a.4075.4075,0,0,0,0,.8145Z"/><path class="cls-7" d="M404.1287,152.2819c10.8371.4885,21.8081-.1089,32.6548-.2483,10.8837-.14,21.7729-.1894,32.6548-.4286a.642.642,0,0,0,0-1.2832c-10.8844.0488-21.7712.2875-32.6548.4358-10.8486.1478-21.8323-.1583-32.6548.6161a.4544.4544,0,0,0,0,.9082Z"/><path class="cls-8" d="M404.1287,157.0249c12.17.37,24.3818.1328,36.5474-.2869,12.1525-.4192,24.3889-.85,36.4984-1.9856.7717-.0724.797-1.2667,0-1.2246-12.1719.6423-24.3105,1.5262-36.4984,1.9071-12.1821.3808-24.3624.4333-36.5474.6232a.4837.4837,0,0,0,0,.9668Z"/><path class="cls-8" d="M404.1287,161.9638a358.8407,358.8407,0,0,0,46.6931.0886c.7957-.057.8155-1.2714,0-1.2539-15.5835.3337-31.1026.6783-46.6931.2805-.5725-.0146-.5648.8513,0,.8848Z"/><path class="cls-7" d="M272.1171,43.4243c4.3169.0576,8.6621-.204,12.9717-.442.6243-.0345.634-.9924,0-.9785-4.3163.0948-8.6706.17-12.9717.5592a.4309.4309,0,0,0,0,.8613Z"/><path class="cls-7" d="M492.5916,39.3894c3.3537.16,6.7251.0147,10.0777-.1194,3.0426-.1217,6.3274.0008,9.2989-.6985.8414-.198.5842-1.3623-.1931-1.4272-3.1271-.2609-6.4478.3041-9.5853.4787-3.1978.1779-6.407.2458-9.5981.5242a.6215.6215,0,0,0,0,1.2422Z"/><path class="cls-8" d="M492.5916,45.4a370.58,370.58,0,0,0,44.5907-.8921c.6636-.0533.6717-1.0927,0-1.043a444.6882,444.6882,0,0,1-44.5907,1.0562c-.5668-.0149-.5639.8562,0,.8789Z"/><path class="cls-7" d="M492.5916,49.9926c14.6322-.6424,29.3868-.469,44.0316-.3265a.5834.5834,0,0,0,0-1.166c-14.64-.1424-29.4334-.6969-44.0316.6253-.5467.05-.565.892,0,.8672Z"/><path class="cls-7" d="M492.5916,54.6149c14.6744.3129,29.3481-.6456,44.0316.022.7144.0325.7079-1.0651,0-1.1074-9.1541-.5475-18.3486-.4323-27.5138-.31-5.49.073-11.04-.0069-16.5179.4231a.4866.4866,0,0,0,0,.9727Z"/><path class="cls-7" d="M492.5916,59.4918c14.4435.4653,28.95-.1738,43.3844-.7213.6766-.0257.68-1.08,0-1.0547-14.4359.5476-28.9375,1.1783-43.3844.95a.4133.4133,0,0,0,0,.8262Z"/><path class="cls-7" d="M492.5916,63.4666c9.78.0144,19.5826-.35,29.357-.665a.5922.5922,0,0,0,0-1.1836c-9.7787.13-19.5875.2119-29.357.6709a.5892.5892,0,0,0,0,1.1777Z"/><path class="cls-7" d="M492.5916,67.5635a382.1183,382.1183,0,0,0,43.4618-.9716c.75-.0569.7585-1.2317,0-1.1777-14.4807,1.03-28.95,1.2859-43.4618,1.0829a.5335.5335,0,0,0,0,1.0664Z"/><path class="cls-7" d="M492.5916,72.2206q16.084.0554,32.1683.0791a.5922.5922,0,0,0,0-1.1836q-16.0841,0-32.1683.0791a.513.513,0,0,0,0,1.0254Z"/><path class="cls-7" d="M337.961,226.4285c14.8649-.098,29.7406-.4807,44.5992-.9123a.5658.5658,0,0,0,0-1.1309c-14.8647.272-29.7441.594-44.5992,1.1994a.4221.4221,0,0,0,0,.8438Z"/><path class="cls-7" d="M337.4046,229.7813a156.8167,156.8167,0,0,0,23.6946-1.1888c.7823-.1012.801-1.3425,0-1.248a170.2164,170.2164,0,0,1-23.6946,1.2005.6185.6185,0,0,0,0,1.2363Z"/><path class="cls-7" d="M387.0659,4.35q23.9864-.8049,47.9638-1.43a.6508.6508,0,0,0,0-1.3008c-15.9523-.3367-32.0436.3889-47.9638,1.3772-.8623.0535-.8769,1.3829,0,1.3535Z"/><path class="cls-7" d="M387.0659,7.7794c16.0121-.5486,31.9582-.3415,47.9638.277.6989.027.685-1.0265,0-1.0781a345.6825,345.6825,0,0,0-47.9638-.0954c-.5707.0366-.581.9164,0,.8965Z"/><path class="cls-8" d="M387.0659,11.193c5.6635.0366,11.2848.2223,16.9231.7881.7508.0753.7235-1.0652,0-1.16a81.1931,81.1931,0,0,0-16.9231-.4658.4192.4192,0,0,0,0,.8379Z"/><path class="cls-7" d="M363.5693,108.0688a133.5492,133.5492,0,0,0,20.4985,2.1182.75.75,0,0,0,0-1.5,130.9091,130.9091,0,0,1-20.1-2.0646c-.9437-.173-1.3484,1.2723-.3988,1.4464Z"/><path class="cls-7" d="M345.7944,103.2058q3.7173,1.3538,7.5173,2.4482a.7506.7506,0,0,0,.3988-1.4464q-3.8011-1.0967-7.5173-2.4482c-.9085-.3309-1.3,1.1182-.3988,1.4464Z"/><path class="cls-7" d="M328.4089,94.8353q3.434,2.0921,7.0234,3.9c.86.4331,1.62-.86.7571-1.2952q-3.5913-1.8088-7.0234-3.9c-.8266-.5036-1.5812.7932-.7571,1.2952Z"/><path class="cls-7" d="M311.5452,81.4454a91.9142,91.9142,0,0,0,7.3438,6.6624c.7426.6041,1.81-.4509,1.0607-1.0607a91.9142,91.9142,0,0,1-7.3438-6.6624.75.75,0,0,0-1.0607,1.0607Z"/><path class="cls-7" d="M301.1253,66.3815a45.5868,45.5868,0,0,0,3.1185,5.8641c.5111.8163,1.81.0643,1.2952-.7571a45.5868,45.5868,0,0,1-3.1185-5.8641c-.3873-.8818-1.68-.1193-1.2952.7571Z"/><path class="cls-7" d="M377.3608,115.6943c2.49-2.0128,4.8792-4.1547,7.2927-6.2583.4581-.3993.0474-1.0347-.45-1.0862a11.8507,11.8507,0,0,1-7.3964-3.7907c-.5094-.523-1.2009.2362-.7789.7789a11.5762,11.5762,0,0,0,8.1753,4.2844l-.45-1.0862c-2.4069,2.1055-4.8489,4.181-7.1759,6.3751-.5293.499.2409,1.2213.7831.7831Z"/><path class="cls-7" d="M405.36,220.1712a28.8243,28.8243,0,0,1-10.6194,3.8972l.73,1.2535q4.5314-3.7107,8.8494-7.6652c.7135-.6533-.35-1.7118-1.0607-1.0607q-4.32,3.9552-8.8494,7.6652c-.65.5324.0852,1.3506.73,1.2535a29.9648,29.9648,0,0,0,10.9777-4.0484.7506.7506,0,0,0-.7571-1.2952Z"/><path class="cls-7" d="M418.11,207.939q-1.858,2.446-3.9207,4.7227c-.6446.7156.4129,1.78,1.0607,1.0607q2.1849-2.4254,4.1552-5.0263c.5838-.7686-.7182-1.5167-1.2952-.7571Z"/><path class="cls-7" d="M426.4546,192.7308a50.7131,50.7131,0,0,1-2.8934,6.6722c-.4436.8559.85,1.6153,1.2952.7571a53.4734,53.4734,0,0,0,3.0446-7.03c.318-.9135-1.1305-1.3062-1.4464-.3988Z"/><path class="cls-7" d="M428.3154,179.46a31.7225,31.7225,0,0,1,.0518,3.74c-.0428.9651,1.4573.963,1.5,0a31.7224,31.7224,0,0,0-.0518-3.74c-.07-.9569-1.571-.9646-1.5,0Z"/><path class="cls-7" d="M394.4046,225.6934c3.7561.1625,7.5284.1015,11.2871.07a.5511.5511,0,0,0,0-1.1016c-3.7586-.0312-7.5311-.0922-11.2871.07a.4808.4808,0,0,0,0,.9609Z"/><path class="cls-7" d="M520.8382,100.2715a96.19,96.19,0,0,0,.3988-9.8525c-.0076-.6939-1.0747-1.0868-1.3976-.3785l-2.9807,6.5383c-.3971.871.8914,1.635,1.2952.7571l3.06-6.6523h-1.2952a19.8322,19.8322,0,0,1,2.892,8.6842c.0857.9537,1.5865.9628,1.5,0a21.5241,21.5241,0,0,0-3.0968-9.4413.7562.7562,0,0,0-1.2952,0l-3.06,6.6523,1.2952.7571,2.9807-6.5383-1.3976-.3785a96.19,96.19,0,0,1-.3988,9.8525c-.0882.9609,1.4124.9549,1.5,0Z"/><path class="cls-7" d="M517.707,116.899q.9989-3.6125,1.7508-7.2826c.1919-.9424-1.2536-1.3455-1.4464-.3988q-.7479,3.6728-1.7508,7.2826a.7506.7506,0,0,0,1.4464.3988Z"/><path class="cls-7" d="M512.3111,131.709q1.2953-2.8488,2.417-5.77c.3471-.9015-1.1026-1.2918-1.4464-.3988q-1.0545,2.7393-2.2658,5.4117c-.3966.8722.8958,1.6355,1.2952.7571Z"/><path class="cls-7" d="M504.0884,145.457q1.213-1.5394,2.3222-3.1545c.5465-.7987-.7528-1.55-1.2952-.7571-.6654.9725-1.3583,1.9253-2.0877,2.8509-.591.75.4634,1.8187,1.0607,1.0607Z"/><path class="cls-7" d="M490.2914,156.6053a32.1941,32.1941,0,0,0,5.2461-2.9579c.7884-.5458.0393-1.8465-.7571-1.2952a32.1941,32.1941,0,0,1-5.2461,2.9579c-.88.3917-.1181,1.6847.7571,1.2952Z"/><path class="cls-7" d="M454,72.5694q-1.5181,3.4459-2.7546,6.9978l1.3708-.1792a20.98,20.98,0,0,1-2.9-7.7686l-1.4464.3988c.5307,2.372.4663,7.5861,2.98,8.8951,1.3109.6825,2.45-.5428,3.2715-1.4342,2.1009-2.2793,4.1916-4.5184,6.39-6.716a.75.75,0,0,0-1.0607-1.0607c-1.6036,1.6031-3.3024,3.1528-4.808,4.849-.5414.61-1.0287,1.2668-1.5819,1.867-.6456.7-1.2444,1.3991-1.96.571-.7677-.8887-.94-2.8516-1.155-3.9482-.2235-1.1377-.3769-2.29-.63-3.4217-.2139-.9562-1.6-.5357-1.4464.3988a22.0254,22.0254,0,0,0,3.0512,8.1269.76.76,0,0,0,1.3708-.1792q1.1684-3.3753,2.6034-6.6395c.3856-.8752-.9064-1.6395-1.2952-.7571Z"/><path class="cls-7" d="M461.0434,59.8765q-.9848,1.47-1.9095,2.9775c-.507.8246.79,1.5789,1.2952.7571q.9265-1.5069,1.9095-2.9775c.5389-.8041-.76-1.5558-1.2952-.7571Z"/><path class="cls-7" d="M472.0264,48.3547a30.9778,30.9778,0,0,0-4.076,3.1773c-.7112.6558.3516,1.7145,1.0607,1.0607a28.6274,28.6274,0,0,1,3.7724-2.9428c.8055-.5254.0546-1.8247-.7571-1.2952Z"/><path class="cls-7" d="M485.8529,44.2139a28.44,28.44,0,0,0-4.6126.4528c-.9486.1706-.5467,1.6164.3988,1.4464a25.9523,25.9523,0,0,1,4.2138-.3992.75.75,0,0,0,0-1.5Z"/><path class="cls-7" d="M389.386,34.6855a53.3471,53.3471,0,0,1,5.49-7.0859c.6526-.71-.4055-1.773-1.0607-1.0607a55.6672,55.6672,0,0,0-5.7248,7.3895c-.5271.8121.7709,1.5648,1.2952.7571Z"/><path class="cls-7" d="M382.2489,52.0048a55.0946,55.0946,0,0,1,2.5126-8.3336c.351-.9-1.0989-1.29-1.4464-.3988a55.0946,55.0946,0,0,0-2.5126,8.3336c-.2047.941,1.241,1.3431,1.4464.3988Z"/><path class="cls-7" d="M381.4029,67.8145a57.54,57.54,0,0,1-.2422-6.3794.75.75,0,0,0-1.5,0,57.54,57.54,0,0,0,.2422,6.3794c.0893.9529,1.59.9622,1.5,0Z"/><path class="cls-7" d="M386.0794,84.869a55.5137,55.5137,0,0,1-2.6829-7.0421c-.2814-.92-1.73-.528-1.4464.3988a58.4074,58.4074,0,0,0,2.8341,7.4c.404.8756,1.6973.1144,1.2952-.7571Z"/><path class="cls-7" d="M393.6946,96.6706q-1.2992-1.506-2.4771-3.1074c-.5652-.77-1.8674-.0228-1.2952.7571q1.29,1.7578,2.7116,3.4109c.6316.7322,1.6886-.3328,1.0607-1.0607Z"/><path class="cls-7" d="M385.6271,33.19c3.3143-1.8033,6.5954-3.6669,9.8762-5.53l-.7435-.4266-.333,6.6606c-.032.6406.9649.6392.9961,0l.3251-6.6606a.4983.4983,0,0,0-.7435-.4266c-3.2782,1.8669-6.5567,3.7337-9.8,5.66a.4193.4193,0,0,0,.4229.7235Z"/><path class="cls-7" d="M355.4039,36.8688a72.8058,72.8058,0,0,1-11.7245,6.2963l.5779,1.3708a26.48,26.48,0,0,0,9.2573-8.7821c.5237-.8143-.7741-1.5672-1.2952-.7571a24.7775,24.7775,0,0,1-8.7192,8.244c-.7144.4067-.2243,1.7065.5779,1.3708A74.8759,74.8759,0,0,0,356.161,38.164c.8049-.5261.0541-1.8254-.7571-1.2952Z"/><path class="cls-7" d="M369.2086,25.8363q-2.6734,2.4614-5.4592,4.7946c-.742.6191.3241,1.6753,1.0607,1.0607q2.79-2.3282,5.4592-4.7946c.7117-.6553-.3511-1.7139-1.0607-1.0607Z"/><path class="cls-7" d="M380.9416,14.2165Q379.104,16.1149,377.2524,18c-.6777.6886.3822,1.75,1.0607,1.0607q1.8533-1.8832,3.6892-3.7833c.6717-.6939-.3878-1.7558-1.0607-1.0607Z"/><path class="cls-7" d="M343.6075,43.9752a25.345,25.345,0,0,0,13.178-2.4322c.5625-.2669.0708-1.0615-.482-.8247a30.4258,30.4258,0,0,1-12.696,2.4307c-.5393-.0084-.5214.78,0,.8262Z"/></g></svg>