<svg xmlns="http://www.w3.org/2000/svg" viewBox="0 0 255 224"><defs><style>.cls-1{fill:#f7fafc;}.cls-2{fill:#e93a1d;}.cls-3{fill:#ffefaf;}.cls-4{fill:#303030;}</style></defs><title>DN_Service-SEO-img-8</title><g id="back"><path class="cls-1" d="M130.4885,221.29a21.6925,21.6925,0,0,1-10.2812-2.6895c-.9521-.5088-2.0361-1.1484-3.41-2.0137-2.0059-1.2627-4.7061-3.0537-8.2549-5.4766-4.14-2.8252-9.4971-6.5537-15.9922-11.1309a20.0164,20.0164,0,0,1-31.6367,1.3682s-13.0625-15.4873-26.1221-31.0107c-6.5371-7.7705-13.0742-15.55-17.9746-21.4053-2.4727-2.9541-4.5322-5.4229-5.9736-7.1621-3.5059-4.2324-7.48-9.0293-6.7568-17.2656a19.9972,19.9972,0,0,1,7.0371-13.543,21.0471,21.0471,0,0,1,8.8389-4.2744C12.2863,95.1058,11.4992,89.66,11.76,84.389a21.602,21.602,0,0,1,4.2373-11.9424,19.9611,19.9611,0,0,1,2.5156-7.2812,20.635,20.635,0,0,1,1.63-4.0713A21.2009,21.2009,0,0,1,26.8547,50.92,19.9681,19.9681,0,0,1,43.82,46.6683,19.7993,19.7993,0,0,1,40.883,34.4242a20.11,20.11,0,0,1,7.0889-13.7354c2.623-2.2,12.1484-8.7705,24.9229-1.208,1.3232.7822,2.81,1.7686,4.6074,3.06a19.9052,19.9052,0,0,1,6.4814-10.2178c1.9717-1.6553,12.4736-9.4561,25.584-.5352.6094.415,1.2627.8857,1.9834,1.4307a19.9815,19.9815,0,0,1,4.001-4.5557,20.2432,20.2432,0,0,1,23.0469-2.0137c.3213.1787.6416.3662.9639.5664C143.5861,4.63,152.6.7289,163.1642,8.3138c.6846.4912,1.6758,1.2217,2.93,2.1582,1.6611,1.2412,3.8291,2.8789,6.3809,4.8174a20.0112,20.0112,0,0,1,31.873,9.5889c3.8086,4.67,12.8213,13.9854,19.08,20.4541,22.2715,23.0186,28.9941,29.9658,28.4023,41.3613a20.6417,20.6417,0,0,1-7.3027,14.7021c-.0205.0176-.042.0352-.0635.0527,5.0107,7.64,6.4834,12.5967,6.1533,18.2354a20.9063,20.9063,0,0,1-6.8652,14.31,19.9966,19.9966,0,0,1-6.7158,19.4512,20.99,20.99,0,0,1-7.2119,3.88,20.0489,20.0489,0,0,1-22.6436,25.8037,19.9983,19.9983,0,0,1-6.7578,19.2324c-7.65,6.4189-17.4033,6.92-29.0234,1.501a20.1235,20.1235,0,0,1-19.7383,16.0322c-.0781,0-.1572-.001-.2363-.002a19.95,19.95,0,0,1-5.1445.48,20.0964,20.0964,0,0,1-9.7812-.01A19.9747,19.9747,0,0,1,130.4885,221.29ZM36.8928,141.5492l-.0732.0615Z"/></g><g id="Layer_2" data-name="Layer 2"><path class="cls-2" d="M88.8519,152.1915c.5177,1.2123,1.4888,2.4523,1.9794,3.6623.8091,1.9955.5669,6.9618,2.944,7.8325,1.6352.5989,4.42-1.5363,5.59-2.407,1.8523-1.3779,6.6407-4.2754,6.7285-6.8229.0649-1.8848-4.6212-4.7492-6.1809-5.6218-2.8367-1.5871-7.2206-2.3882-10.0433-.3531A2.7158,2.7158,0,0,0,88.8519,152.1915Z"/><polygon class="cls-3" points="98.568 80.152 200.211 137.796 189.406 157.363 173.858 145.898 179.979 134.276 96.56 86.67 98.568 80.152"/><path class="cls-3" d="M96.8992,49.1c-8.48-3.3618-11.7681,5.1152-15.2388,10.335,1.9663-2.9565-6.374-8.0557-8.8477-7.9561-4.0786.1631-7.6431,3.7793-9.8745,6.8574-2.6768,3.6924-4.75,8.9043-3.1,13.45,2.0864,5.7466,6.8979,5.3008,11.8838,6.0815-5.0269,6.3081-11.564,10.54-6.0454,19.499,1.5381,2.4966,4.5059,4.2539,7.7749,5.0918,3.9458,1.0112,8.33.6831,11.1685-1.3008A8.7271,8.7271,0,0,0,88.51,94.6537c.1353-2.3818-1.6934-3.8311-1.82-5.9385-.3276-5.4487,5.6172-2.5586,7.6558-6.332,1.564-2.8945-1.1587-4.8125-.86-7.4932.3853-3.4629,2.75-2.7217,5.3018-3.9775a12.62,12.62,0,0,0,5.7778-5.8872C107.3934,58.7709,102.928,51.49,96.8992,49.1ZM71.4119,74.1166a8.5059,8.5059,0,1,1,8.5059-8.5059A8.506,8.506,0,0,1,71.4119,74.1166Zm4.3481,23.36A6.0171,6.0171,0,1,1,81.7772,91.46,6.017,6.017,0,0,1,75.76,97.4769ZM93.7015,65.6913a5.97,5.97,0,1,1,5.97-5.97A5.97,5.97,0,0,1,93.7015,65.6913Z"/><path class="cls-4" d="M96.3384,87.0494q23.7089,12.64,46.884,26.2776c6.7206,3.9626,13.5054,7.7926,20.31,11.6084,2.5432,1.4261,5.025,2.9636,7.5769,4.3717,1.5289.8436,3.086,1.6358,4.5851,2.5327a25.9683,25.9683,0,0,1,2.2255,1.4735c1.286.9609,1.2633,1.1887.5877,2.5293-.7067,1.4021-1.3881,2.8186-2.1492,4.1925-.8313,1.5006-2.0134,2.8962-2.7374,4.4352-.3762.8-.5973,1.4349.0581,2.1337,1.2156,1.296,3.8579,2.039,5.44,2.8518a.6141.6141,0,0,0,.8217-.2155l.887-1.4481c.54-.8808.53-1.3569,1.4976-1.3606,1.0809-.0042,2.8474,1.0738,3.6885,1.7055,1.2207.9167.7808,1.51.327,2.8928l-1.4447,4.4018a.6062.6062,0,0,0,.276.6782c.9.4908,2.8228,1.805,3.7955,1.8391,1.8917.0663,2.7152-3.011,3.4452-4.3327,2.8377-5.1378,5.5815-10.3251,8.3173-15.5176a.6128.6128,0,0,0-.2155-.8217c-16.7226-9.9841-33.6377-19.6359-50.637-29.14C132.89,98.64,116.0251,88.8151,98.8323,79.6988a.5248.5248,0,0,0-.5294.9056c16.6635,10.042,33.9873,19.0759,50.9684,28.57,16.9992,9.504,33.9144,19.1559,50.637,29.14l-.2155-.8217c-2.6127,4.9587-5.23,9.9145-7.9345,14.8237-.4807.8724-1.4528,3.6882-2.2951,4.139-.6888.3687-1.5606-.2182-2.1705-.6146-.98-.6369-1.0084-.5046-.6607-1.85.46-1.78,1.16-3.5357,1.7337-5.2822a.6113.6113,0,0,0-.276-.6782,37.8116,37.8116,0,0,0-6.2906-3.292.6033.6033,0,0,0-.6782.276l-2.2176,3.62.8217-.2155-2.4927-1.2808c-.4011-.2061-2.2939-.8245-2.4927-1.2808-.4607-1.0571,1.5675-3.3332,2.0982-4.2387,1.3369-2.2817,2.453-4.6878,3.6593-7.0392a.6169.6169,0,0,0-.0939-.7278c-2.5239-2.4109-5.6627-3.9089-8.6876-5.5814-2.5507-1.41-5.0337-2.9455-7.5769-4.3717-6.8047-3.8158-13.5893-7.6457-20.31-11.6084C128.386,103.1846,112.74,94.456,96.782,86.29c-.5015-.2566-.9449.4917-.4436.7589Z"/><path class="cls-4" d="M99.01,77.0346a43.78,43.78,0,0,1-2.8386,6.134c-.5064.8795-1.0555,1.7321-1.6363,2.564q-.37.5367-.7626,1.0573-1.1963-.3262-.2265-1.2421c.32-1.7824,2.2137-4.1445,3.1225-5.6615,1.1068-1.8473,2.2855-3.65,3.42-5.48.3351-.5406-.4933-1.2174-.9019-.6959a65.6322,65.6322,0,0,0-5.82,9.06c-.7059,1.2914-3.2934,4.7387-1.2475,6.119,1.5574,1.0507,2.7009-.9761,3.467-2.0408a33.2593,33.2593,0,0,0,4.7461-9.45c.2685-.8568-1.0108-1.1712-1.3221-.3645Z"/><path class="cls-4" d="M92.9726,73.3261c-.15,2.0986.6418,4.8037,2.5463,5.9489a.6227.6227,0,0,0,.8458-.8458,21.2191,21.2191,0,0,1-1.4331-2.2305,7.4636,7.4636,0,0,1-.6289-2.8726.6655.6655,0,0,0-1.33,0Z"/><path class="cls-4" d="M92.0641,84.6121a6.5339,6.5339,0,0,0-6.005.5138c-.577.3846-.2306,1.4558.5012,1.1888a11.6685,11.6685,0,0,1,2.6644-.7988,20.1069,20.1069,0,0,1,2.588.0244.5018.5018,0,0,0,.2514-.9281Z"/><path class="cls-4" d="M93.4254,72.2585c5.02.4587,10.45-1.9015,12.0863-6.9462,1.6632-5.1266.504-11.1-3.9138-14.4142A12.4232,12.4232,0,0,0,87.06,50.7448a14.7725,14.7725,0,0,0-4.9209,5.7293,8.2418,8.2418,0,0,0-.0768,7.6858c.3351.7378,1.6245.2072,1.3226-.5576a7.7675,7.7675,0,0,1,.7665-7.6293A13.2762,13.2762,0,0,1,88.44,51.6807a10.8493,10.8493,0,0,1,12.3071.4775c3.8617,2.8654,4.8372,7.9141,3.56,12.41-1.4384,5.0653-6.2381,6.2838-10.8825,6.6471a.5218.5218,0,0,0,0,1.043Z"/><path class="cls-4" d="M84.624,86.5767c1.1531,1.89,2.5122,3.9706,2.5382,6.2636.0254,2.2434-1.2373,4.5018-2.5519,6.2569-3.2839,4.3841-9.9735,2.8232-14.166.6331-4.2274-2.2084-7.2848-6.8081-5.324-11.5965,1.5174-3.7057,6.3171-8.7682,10.5629-8.3549.8109.0789,1.0048-1.2937.1939-1.4329C70.8583,77.484,65.42,83.2408,63.6612,87.52c-2.1725,5.2849.9077,10.74,5.6508,13.3122,4.2709,2.3162,11.5988,4.1549,15.4686.2021a13.463,13.463,0,0,0,3.6588-7.1961c.3684-2.9844-1.2424-5.4808-2.9249-7.7824-.3828-.5237-1.2438-.0587-.89.52Z"/><path class="cls-4" d="M82.5859,62.1207c-.9557-4.9391-4.5453-9.1367-9.6812-9.9-5.1066-.7585-9.0948,2.2508-11.6684,6.4113-2.5332,4.0951-5.28,10.5665-1.8541,14.8633,2.8443,3.5676,8.8317,6.9248,13.4056,5.16a.6774.6774,0,0,0-.36-1.3052c-4.2683.885-9.746-1.5455-12.224-5.1985-2.462-3.6294.2661-9.4727,2.31-12.773,2.28-3.6816,5.8317-6.4646,10.4-5.6907,4.5.7623,7.4645,4.5328,8.6826,8.7046a.5132.5132,0,0,0,.9888-.2726Z"/><path class="cls-4" d="M71.1905,73.0242c-3.6644-.32-7.2268-2.9568-7.57-6.8155-.2974-3.3487,1.8542-7.1583,5.3963-7.4969,3.608-.3449,7.6723.82,9.4534,4.1865,1.9367,3.66.07,7.4-3.0077,9.6276a.6069.6069,0,0,0,.6122,1.0473,8.4119,8.4119,0,0,0,3.9482-10.7969c-1.884-4.361-7.2612-6.2817-11.7668-5.5236-4.266.7178-6.71,5.6218-6.0885,9.6255a8.39,8.39,0,0,0,9.0225,7.0073.4309.4309,0,0,0,0-.8613Z"/><path class="cls-4" d="M87.44,61.8146a8.3612,8.3612,0,0,1,2.5554-7.0195,5.4591,5.4591,0,0,1,8.829,1.4478,8.054,8.054,0,0,1,.0767,7.7107A5.2046,5.2046,0,0,1,94.33,66.31c-1.8828-.0225-4.9814-.7889-4.8634-3.23.04-.8183-1.1093-.8841-1.3581-.1838-1.534,4.3173,5.9758,5.4458,8.7017,4.5168,3.9732-1.354,5.1171-6.1344,4.0324-9.8146-1.1868-4.0267-4.9458-6.982-9.1683-5.33a8.5616,8.5616,0,0,0-5.0974,9.6629c.091.4805.9154.378.8632-.1168Z"/><path class="cls-4" d="M75.1058,83.6813c-3.7864-.5118-6.9767,2.7567-7.1777,6.44-.2223,4.074,2.8857,8.7192,7.1166,9.2335,4.0579.4932,7.4625-3.2383,7.5856-7.11a7.1124,7.1124,0,0,0-7.3693-7.2339.6156.6156,0,0,0,0,1.23c3.0618.2771,5.9584,2.3235,6.0135,5.665.0553,3.3516-3.1169,6.8139-6.6465,5.9607-6.704-1.6206-7.2395-12.52.3236-13.046.6043-.042.8429-1.0464.1542-1.1394Z"/><path class="cls-4" d="M80.8985,75.3928c.4757,1.48.9069,2.9732,1.396,4.45a.6619.6619,0,0,0,.96.3905,15.17,15.17,0,0,1,5.4988-1.9781.6784.6784,0,0,0,.4692-.8264c-.4257-1.554-.8335-3.1137-1.271-4.6644-.1731-.6135-.2892-1.34-.9562-1.6094-1.5021-.6068-4.1309,1.2812-5.0824,2.2412-.5062.5107.1642,1.4592.7917,1.0261.6471-.4466,2.9721-2.3585,3.7638-1.8759.3136.1912.5414,1.941.6494,2.3283q.4059,1.4552.809,2.9112l.4692-.8264a15.1458,15.1458,0,0,0-5.8012,2.1454l.96.3905c-.5576-1.4612-1.17-2.8987-1.7409-4.3545-.2177-.5556-1.106-.3409-.9153.2523Z"/><path class="cls-4" d="M159.1783,77.7574c-1.4521-.1692-3.9657-.6667-5.3386.0194-1.0577.5286-1.3738,2.04-1.774,3.0337-.4712,1.17-1.1929,2.2164-.352,3.3125.9695,1.2637,3.5256,2.1838,4.89,3.0034a.6226.6226,0,0,0,.9055-.3684c.8163-3.0439,1.09-6.7139,4.09-8.3105q3.7832-2.0133,7.6037-3.9579,7.6332-3.8987,15.4094-7.5076l-.8573-.2248c.6175,1.2842,1.2245,2.5738,1.8684,3.8449l.9454-.7295c-1.652-2.0912-4.42-.5123-3.7316,1.9628l.5393-.7079-2.0251-1.319c-.2663-.7029-1.4107-.3742-1.1244.31a3.0752,3.0752,0,0,0,3.1495,2.1275.5654.5654,0,0,0,.5393-.7079l1.7076-.936a.6025.6025,0,0,0,1.04-.6076c-.5872-1.3-1.212-2.5824-1.8259-3.87A.64.64,0,0,0,183.98,65.9q-9.0771,4.1978-17.9489,8.8168c-2.1915,1.1411-5.1518,2.1912-6.9918,3.87s-2.1087,5.585-2.7192,7.8436l.9055-.3684-2.8965-1.7476c-1.3444-.8111-1.7152-.8422-1.3776-2.3847l.6374-1.574q.674-1.8419,2.27-1.5237c1.0461-.1849,2.2473.02,3.3187-.0785a.4984.4984,0,0,0,0-.9961Z"/><path class="cls-4" d="M91.9508,146.9375c-2.515,2.7411-8.806,2.3818-7.414-2.566a6.4636,6.4636,0,0,1,3.0972-4.18c2.3873-1.1878,5.3818.0263,5.3576,2.9059a.5628.5628,0,0,0,1.125,0,4.4175,4.4175,0,0,0-4.5479-4.5211c-2.89.0429-5.06,2.3651-5.952,4.9385-.8865,2.5562-.6106,4.8462,2.1441,5.9308a5.9387,5.9387,0,0,0,6.8488-1.8492c.3567-.4591-.2425-1.1125-.6588-.6588Z"/><path class="cls-4" d="M89.2935,145.6056c4.1777-.18,7.3374,2.3647,10.6723,4.4852a32.5713,32.5713,0,0,0,3.9539,2.0436q1.503.1326,1.5272,1.9017,1.478,1.4954-.0275,2.6677a13.12,13.12,0,0,1-2.1223,1.81c-1.4893,1.1-3.0179,2.152-4.5257,3.2272-1.7672,1.26-4.401,4.2348-6.4984,1.3717-.8061-1.1-1.0286-3.3755-1.3392-4.7122a54.5977,54.5977,0,0,1-1.0521-6.4352c-.08-.7261-1.22-.7462-1.1543,0a49.7261,49.7261,0,0,0,1.48,8.4834c.4262,1.5941.833,4.4979,2.5594,5.3275,1.8269.878,3.7613-.9646,5.1025-1.9221,2.3417-1.6718,4.7878-3.257,7.03-5.06,2.8283-2.2747,4.2831-6.0522.1652-7.58-5.2791-1.9586-9.7383-7.2061-15.7711-6.4164-.4986.0653-.5347.8317,0,.8086Z"/><path class="cls-4" d="M83.7379,143.456c-8.8129-.2715-17.5953-.4631-26.3743-1.3634a.623.623,0,0,0-.4367,1.0542c1.2244,1.016,3.0273,3.2848,4.61,3.6773,1.327.3292,1.48-1.02,2.8207-.9519.9883.05,1.7989.6693,2.8678.6418,2.1985-.0566,5.2012-.93,7.2927.0712.554.2652,1.0368-.5241.488-.8348-1.6-.9058-2.9787-.5177-4.75-.51-.81.0036-1.6474-.2375-2.4494-.1951-.7393.0391-1.2208.42-2.05.1975-.846-.227-1.561-.8775-2.4841-.54-1.3412.491-.2945,1.46-2.4479.1365A27.303,27.303,0,0,1,57.8,142.2734l-.4367,1.0542c8.6774.9869,17.6543,1.6549,26.3743.9252a.3987.3987,0,0,0,0-.7969Z"/><path class="cls-4" d="M94.0627,159.303l-.0192-.1923-.2257.3934.0627-.0287a.656.656,0,0,0,.2962-.7279,11.7707,11.7707,0,0,0-.6244-2.2461l-.807.807a3.4781,3.4781,0,0,1,1.8831,1.4779c.4.47,1.0269-.0507.94-.5473a3.2108,3.2108,0,0,0-2.4745-2.1958c-.4449-.1072-.9946.3149-.807.807a14,14,0,0,1,.6465,2.24.6574.6574,0,0,0,.6215.4732l.0327.0029-.4393-.3345.0394.19c.1006.4841.9249.3849.8747-.1184Z"/><path class="cls-4" d="M95.9048,154.8835a9.6438,9.6438,0,0,0,1.5435,1.8927.5622.5622,0,0,0,.8788-.6781,9.5619,9.5619,0,0,0-1.58-1.8643c-.4146-.4223-1.2017.1412-.842.65Z"/><path class="cls-4" d="M99.9081,155.0885a.2635.2635,0,0,1-.2636-.1883v.59a2.8781,2.8781,0,0,1,1.1652-1.1472c.4146-.2384.3856-1.0159-.1439-1.1011a3.6824,3.6824,0,0,1-1.2376-.406c-.3728-.2078-.6762-.5069-1.0436-.7209a.5255.5255,0,0,0-.7135.7135,3.9807,3.9807,0,0,0,2.6744,1.5753v-1.1619a2.7091,2.7091,0,0,0-1.7691,1.798.5731.5731,0,0,0,.15.5686,1.4075,1.4075,0,0,0,1.2889.2743.4064.4064,0,0,0-.1075-.7942Z"/></g></svg>