<svg xmlns="http://www.w3.org/2000/svg" viewBox="0 0 272 193"><defs><style>.cls-1{fill:#f7fafc;}.cls-2{fill:#ffefaf;}.cls-3{fill:#172df8;}.cls-4{fill:#303030;}.cls-5{fill:#e93a1d;}</style></defs><title>DN_Service-SEO-img-10</title><g id="back"><path class="cls-1" d="M121.549,189.3977a21.5625,21.5625,0,0,1-8.9072-2.0059c-.86-.3867-1.8242-.8682-3.0332-1.5156-1.6953-.9072-3.9648-2.19-6.9375-3.9229-3.7852-2.2061-8.7959-5.1914-14.9414-8.9023a20.0154,20.0154,0,0,1-31.6094,1.33s-9.4863-11.248-18.9717-22.5215c-4.75-5.6465-9.499-11.2988-13.06-15.5527-1.8027-2.1543-3.3037-3.9531-4.3545-5.2207-2.7314-3.2969-6.8594-8.2783-6.1475-16.4863a19.999,19.999,0,0,1,7.03-13.5615,20.7176,20.7176,0,0,1,9.15-4.3838C20.5314,83.7151,19.6916,78.22,19.97,72.6028a21.5576,21.5576,0,0,1,4.5537-12.23,20.0022,20.0022,0,0,1,3.3252-7.918,20.6365,20.6365,0,0,1,2.4023-4.4922,20.9533,20.9533,0,0,1,5.6758-7.4844A19.9945,19.9945,0,0,1,56.5109,37.35a19.785,19.785,0,0,1-.3779-6.0205A20.0909,20.0909,0,0,1,63.2238,17.6c2.5771-2.1611,11.9561-8.65,24.5684-1.4033,1.5586.8955,3.3457,2.0723,5.625,3.7041q1.5674,1.1221,3.457,2.541A19.9983,19.9983,0,0,1,102.93,13.635c5.5986-4.6963,15.15-7.373,25.167-.8027,1.0547.6924,2.2441,1.5518,3.6943,2.6738a20.0334,20.0334,0,0,1,24.7891-7.2A19.7087,19.7087,0,0,1,178.2609,6.762a20.0121,20.0121,0,0,1,29.4736,11.36c3.8584,4.74,13.0469,14.2363,19.4248,20.8281,22.541,23.2969,29.3438,30.3281,28.749,41.7656a20.7091,20.7091,0,0,1-3.3145,10.19c3.31,5.5293,4.6758,10.0742,4.375,15.2217a20.8116,20.8116,0,0,1-5.9609,13.3975,20.0012,20.0012,0,0,1-5.8857,22.3018,20.9572,20.9572,0,0,1-8.8574,4.3047,20.005,20.005,0,0,1-33.12,17.74l-.042-.0361a20,20,0,0,1-6.9043,12.2354c-12.0586,10.1172-26.7451,3.7793-39.5186-4.4521a20.0035,20.0035,0,0,1-5.1553,6.625,20.6044,20.6044,0,0,1-6.2109,3.6406,19.9,19.9,0,0,1-4.6992,2.0762,20.4977,20.4977,0,0,1-9.22,2.8125A20.1334,20.1334,0,0,1,121.549,189.3977Z"/></g><g id="Layer_2" data-name="Layer 2"><path class="cls-2" d="M91.7573,156.0467c.2653-.8613-.7337-3.4-1.945-3.6988-.9363-.2306-1.1417.8531-1.9831-.07-.3162-.3468.19-6.6789.5731-7.184,1.2771-1.6848,3.0556.6027,3.9645,1.6131,1.3105,1.4568,1.9051,1.8338,1.4116,3.7754a4.8212,4.8212,0,0,0-.1356,3.2084C94.18,155.6622,94.5157,155.9711,91.7573,156.0467Z"/><path class="cls-2" d="M115.9109,140.4476c.2653-.8613-.7337-3.4-1.945-3.6988-.9363-.2306-1.1417.8531-1.9831-.07-.3162-.3468.19-6.6789.5731-7.184,1.2771-1.6848,3.0556.6027,3.9645,1.6131,1.3105,1.4568,1.9051,1.8338,1.4116,3.7754a4.8212,4.8212,0,0,0-.1356,3.2084C118.3333,140.0631,118.6693,140.3721,115.9109,140.4476Z"/><path class="cls-2" d="M187.66,122.8185c.2653-.8613-.7337-3.4-1.945-3.6988-.9363-.2306-1.1417.8531-1.9831-.07-.3162-.3468.19-6.6789.5731-7.184,1.2771-1.6848,3.0556.6027,3.9645,1.6131,1.3105,1.4568,1.9051,1.8338,1.4116,3.7754a4.8212,4.8212,0,0,0-.1356,3.2084C190.0824,122.434,190.4184,122.743,187.66,122.8185Z"/><path class="cls-2" d="M191.9278,156.0467c.2653-.8613-.7337-3.4-1.945-3.6988-.9363-.2306-1.1417.8531-1.9831-.07-.3162-.3468.19-6.6789.5731-7.184,1.2771-1.6848,3.0556.6027,3.9645,1.6131,1.3105,1.4568,1.9051,1.8338,1.4116,3.7754a4.8212,4.8212,0,0,0-.1356,3.2084C194.35,155.6622,194.6862,155.9711,191.9278,156.0467Z"/><path class="cls-2" d="M215.6526,130.1011c.2653-.8613-.7337-3.4-1.945-3.6988-.9363-.2306-1.1417.8531-1.9831-.07-.3162-.3468.19-6.6789.5731-7.184,1.2771-1.6848,3.0556.6027,3.9645,1.6131,1.3105,1.4568,1.9051,1.8338,1.4116,3.7754a4.8212,4.8212,0,0,0-.1356,3.2084C218.075,129.7166,218.411,130.0256,215.6526,130.1011Z"/><path class="cls-2" d="M195.6316,89.4705c.2653-.8613-.7337-3.4-1.945-3.6988-.9363-.2306-1.1417.8531-1.9831-.07-.3162-.3468.19-6.6789.5731-7.184,1.2771-1.6848,3.0556.6027,3.9645,1.6131,1.3105,1.4568,1.9051,1.8338,1.4116,3.7754a4.8212,4.8212,0,0,0-.1356,3.2084C198.054,89.086,198.39,89.395,195.6316,89.4705Z"/><path class="cls-2" d="M148.0816,82.0816c.2653-.8613-.7337-3.4-1.945-3.6988-.9363-.2306-1.1417.8531-1.9831-.07-.3162-.3468.19-6.6789.5731-7.184,1.2771-1.6848,3.0556.6027,3.9645,1.6131,1.3105,1.4568,1.9051,1.8338,1.4116,3.7754a4.8212,4.8212,0,0,0-.1356,3.2084C150.504,81.6971,150.84,82.0061,148.0816,82.0816Z"/><path class="cls-2" d="M135.1891,91.4672c.3761-1.2211-1.04-4.8208-2.7574-5.2438-1.3274-.327-1.6186,1.2094-2.8115-.0991-.4482-.4917.27-9.4687.8124-10.1847,1.81-2.3886,4.3319.8545,5.62,2.2868,1.858,2.0653,2.7008,2.6,2.0012,5.3524-.4936,1.942-.7376,2.5468-.1923,4.5486C138.6233,90.9221,139.1,91.36,135.1891,91.4672Z"/><path class="cls-2" d="M151.5923,135.4273c.3761-1.2211-1.04-4.8208-2.7574-5.2438-1.3274-.327-1.6186,1.2094-2.8115-.0991-.4482-.4917.27-9.4687.8124-10.1847,1.81-2.3886,4.3319.8545,5.62,2.2868,1.858,2.0653,2.7008,2.6,2.0012,5.3524-.4936,1.942-.7376,2.5468-.1923,4.5486C155.0264,134.8822,155.5028,135.32,151.5923,135.4273Z"/><path class="cls-2" d="M94.6286,76.3048c.2653-.8613-.7337-3.4-1.945-3.6988-.9363-.2306-1.1417.8531-1.9831-.07-.3162-.3468.19-6.6789.5731-7.184,1.2771-1.6848,3.0556.6027,3.9645,1.6131,1.3105,1.4568,1.9051,1.8338,1.4116,3.7754a4.8212,4.8212,0,0,0-.1356,3.2084C97.051,75.92,97.387,76.2292,94.6286,76.3048Z"/><path class="cls-2" d="M89.0464,119.0475c.3935-1.2775-1.0883-5.0438-2.8849-5.4863-1.3888-.3421-1.6935,1.2653-2.9415-.1037-.469-.5144.2822-9.9066.85-10.6558,1.8942-2.4991,4.5322.894,5.88,2.3926,1.9439,2.1609,2.8257,2.72,2.0937,5.6-.5164,2.0318-.7717,2.6646-.2012,4.759C92.6393,118.4772,93.1378,118.9354,89.0464,119.0475Z"/><path class="cls-2" d="M58.0235,111.377c1.8765,2.0491.5319,2.9975.8344,5.2971.1614,1.2267,1.5,4.346-.6133,4.6446-1.2082.17-1.6565-1.3557-2.09-2.1689-.8071-1.5138-1.2946-.8677-2.4627-1.88-1.3647-1.1825-2.6616-8.9893-.2336-9.5671C54.5727,107.4375,57.3346,110.6247,58.0235,111.377Z"/><path class="cls-3" d="M88.7436,86.195c6.5519-.3285,13.0687-1.0772,19.6317-1.2976q4.6763-.157,9.3557-.1385c3.0605.0166,6.5822.6406,9.5641-.0616a.7979.7979,0,0,0,0-1.5255c-2.7722-.9152-6.172-.5159-9.0716-.5348q-5.1709-.0337-10.34.172a130.7109,130.7109,0,0,0-19.349,1.838.7916.7916,0,0,0,.21,1.548Z"/><path class="cls-4" d="M88.7436,92.8759c14.169,1.136,28.65.3575,42.8426.026q18.6876-.4366,37.3673-1.242c2.3238-.1034,5.6922-.3212,7.5416-.408.9874-.0463.993-1.5876,0-1.541q-32.2755,1.5149-64.6339,1.88c-7.7038.0824-15.4165-.1056-23.1177.0484a.6186.6186,0,0,0,0,1.2363Z"/><path class="cls-4" d="M88.7436,100.3817c12.0106-.4123,24.0066-1.1419,36.0215-1.4866,12.02-.3449,24.0355-.335,36.0574-.4782a.7827.7827,0,0,0,0-1.5645c-12.0109-.1984-24.053.1312-36.0574.5125-12.0024.3812-24.0594.7879-36.0215,1.88-.7159.0654-.7421,1.1622,0,1.1367Z"/><path class="cls-4" d="M88.6174,105.8629c5.1787.7192,10.7212.23,15.944.2015l16.8064-.092c11.1524-.0611,22.4841.4274,33.6129-.2828a.6977.6977,0,0,0,0-1.3945c-11.1366-.5719-22.4606.0583-33.6129.1363l-16.3121.1141c-5.3858.0377-11.1086-.4071-16.4383.4022a.478.478,0,0,0,0,.9153Z"/><path class="cls-5" d="M88.7436,113.56c6.5015-.4224,12.9657-.5163,19.4784-.4259a.68.68,0,0,0,0-1.3594,117.9409,117.9409,0,0,0-19.4784.6134c-.733.0815-.7645,1.2216,0,1.1719Z"/><path class="cls-5" d="M138.1016,112.3285c-6.9358-.0731-13.8573.0529-20.7921.1977a.6244.6244,0,0,0,0,1.248c6.9259-.1447,13.8677-.4115,20.7921-.4848a.4808.4808,0,0,0,0-.9609Z"/><path class="cls-5" d="M147.1941,113.369c9.4613.3638,19.1118.4391,28.5722.0439a.6127.6127,0,0,0,0-1.2246c-9.46-.3951-19.1109-.32-28.5722.0439a.5687.5687,0,0,0,0,1.1367Z"/><path class="cls-4" d="M201.1728,24.3626c-1.9839,1.03-1.9395,1.9517-2.2917,4.2121a24.407,24.407,0,0,0-.1908,6.9338,14.2954,14.2954,0,0,0,5.2576,9.6386c2.3745,1.7945,6.074,3.0057,8.63.898,2.5738-2.1225,2.3112-5.9852,1.8953-8.9472l-1.8294.5043a6.8763,6.8763,0,0,0,9.7292,3.5044c4.7141-2.5958,5.479-8.5173,4.3194-13.28-1.1683-4.7978-3.8958-11.4592-9.5273-12.1291-5.2055-.6192-6.8692,4.0912-7.4308,8.3308l1.65-.6836c-4.2808-5.3016-13.6324-1.2608-11.4007,5.6226.2768.8538,1.7628.7694,1.6574-.2243-.53-4.9947,4.8357-8.4157,8.3761-4.0311.5974.74,1.5552.0355,1.65-.6836.4943-3.7312,2.3715-8.07,6.9875-5.8791,3.3625,1.5961,4.9846,6.0237,5.9493,9.3633.9439,3.2674,1.1311,6.9873-.9412,9.89-2.193,3.0714-7.6365,3.9136-9.19-.305a.95.95,0,0,0-1.8294.5043c.3006,2.1031.6513,5.3644-1.1393,6.9512-2.6029,2.3066-6.6816-.5425-8.4074-2.66a14.2526,14.2526,0,0,1-2.9206-7.7224c-.2249-2.3611-.6166-7.3981,1.6649-8.6648.7481-.4153.0859-1.5349-.6684-1.1434Z"/><path class="cls-4" d="M204.4108,36.2212a3.0913,3.0913,0,0,0,2.0793,3.0153c.7838.1669,1.6243-.8905.8683-1.4916-.5378-.4276-1.1105-.7631-1.1488-1.5237a.9.9,0,0,0-1.7988,0Z"/><path class="cls-4" d="M214.2162,32.3166c.409.5309.79,1.08,1.2182,1.5965a5.3771,5.3771,0,0,0,1.5281,1.5771.6978.6978,0,0,0,1.0114-.7775,5.0745,5.0745,0,0,0-1.3083-1.7131c-.4641-.5067-.9662-.9678-1.4509-1.4533-.4918-.4926-1.4507.1835-.9985.77Z"/><path class="cls-4" d="M221.617,53.6918c3.3395-.5736,7.1583-4.2285,7.12-7.786-.0083-.7748-1.2016-1.2148-1.5614-.4229a15.4508,15.4508,0,0,1-2.1723,4.2252,11.105,11.105,0,0,1-3.9375,2.6771c-.7886.3623-.1872,1.4333.5508,1.3066Z"/><path class="cls-4" d="M107.2389,174.8723c.2593-3.3022,2.9255-6.4914,6.4017-6.4635,3.4547.0278,4.5584,2.5307,6.4026,4.8.4434.5455,1.2606.0592,1.29-.5345.2-4.0082-5.3145-6.638-8.7244-6.1572a7.8571,7.8571,0,0,0-6.6123,8.3556.6215.6215,0,0,0,1.2422,0Z"/><path class="cls-4" d="M127.2353,172.9028c-2.366-2.2577,1.0475-4.9143,2.862-5.9206a10.5027,10.5027,0,0,1,5.0051-1.424c3.7463-.0053,7.0325,3.117,6.002,6.9861a.9237.9237,0,0,0,1.78.4907c1.9733-5.5881-3.96-9.9007-9.0361-9.2577-3.7585.4762-13.0043,5.7807-7.6073,10.12.6888.5538,1.6642-.3552.9944-.9944Z"/><path class="cls-4" d="M131.6932,165.4657a1.2321,1.2321,0,0,1-.1428,1.26.8081.8081,0,0,0-.0623,1.0463.7884.7884,0,0,0,1.028.2052,2.16,2.16,0,0,0,.9207-1.6718,2.26,2.26,0,0,0-.115-.87,2.1026,2.1026,0,0,0-.5794-.78c-.5015-.559-1.474.1763-1.0491.8095Z"/><path class="cls-4" d="M112.0352,167.4264a5.6636,5.6636,0,0,1,.96,3.1471c.0535.7784,1.321,1.0787,1.4617.1978a4.8874,4.8874,0,0,0-1.4234-4.1154c-.4693-.5332-1.4413.1939-.9985.77Z"/><path class="cls-4" d="M222.8017,172.8719c-2.84-4.05,1.0463-10.4384,5.9407-10.1343,3.4365.2135,4.4728,3.8562,2.1548,6.1141-1.2394,1.2072-4.5334,3.6053-6.26,2.2467a.8531.8531,0,0,0-1.2057,1.2057c2.4369,2.6564,6.7878-.1951,8.7934-2.1249,2.5769-2.4794,2.6343-6.3288-.5324-8.3689-6.65-4.284-15.041,6.0923-9.9673,11.8924.5065.579,1.5259-.19,1.0767-.8308Z"/><path class="cls-4" d="M228.8889,157.657c-.7382-.0451-.9691-1.9274-.92-2.4806a6.7025,6.7025,0,0,1,.3634-1.3764,11.1769,11.1769,0,0,1,1.4613-2.9959,6.0044,6.0044,0,0,1,6.5313-2.632c6.9772,2.1209-.433,13.1092-6.0286,9.9788a.765.765,0,0,0-.9231,1.1963c2.98,2.9048,8.0043-.1361,10.03-2.8389,2.3984-3.2,2.041-8.27-2.0467-9.8475-3.8437-1.4835-7.736.78-9.5627,4.2018-1.071,2.0063-2.97,8.0268,1.0948,8.0716a.6391.6391,0,0,0,0-1.2773Z"/><path class="cls-4" d="M229.9142,153.9506a3.177,3.177,0,0,1,2.4029-3.2106c.773-.192.635-1.5295-.1931-1.4272a3.9527,3.9527,0,0,0-3.4125,4.8006c.1159.6727,1.2753.5252,1.2027-.1628Z"/><path class="cls-4" d="M223.41,167.141c-.195.0762.031-.3479.0444-.3677a1.6922,1.6922,0,0,1,.4139-.3463c.377-.2769.7831-.519,1.1712-.78a24.0853,24.0853,0,0,0,2.1441-1.6035c.6162-.5218-.17-1.438-.8343-1.0813a27.86,27.86,0,0,0-2.7952,1.7853,3.8538,3.8538,0,0,0-1.5693,1.6,1.4878,1.4878,0,0,0,1.92,1.9659c.6551-.2956.1845-1.4379-.4944-1.1727Z"/><path class="cls-4" d="M95.5755,22.78c-3.35,3.4989-3.6186,10.3029.7028,13.1644,3.7789,2.5023,9.2739-.6262,8.0754-5.2907a.8709.8709,0,0,0-1.6781.4626,3.4444,3.4444,0,0,1-3.5219,4.0971,5.031,5.031,0,0,1-3.8715-2.9454c-1.5607-3.1348.2456-6.0146,1.2481-8.9323a.5754.5754,0,0,0-.9548-.5558Z"/><path class="cls-4" d="M109.906,24.7862a6.5488,6.5488,0,0,0,1.6658,9.0021c2.9056,1.9646,7.352,1.5214,9.02-1.8111,1.5411-3.0788,1.0686-7.5244-1.6038-9.8429-2.2133-1.92-6.0565-2.1441-7.8945.3657-.4461.6092.4311,1.4589,1.0382,1.0382,4.64-3.2154,8.5205,1.9167,7.2659,6.5365a4.3308,4.3308,0,0,1-6.4481,2.54c-2.7015-1.453-3.19-4.6071-2.0267-7.2338a.5893.5893,0,0,0-1.0169-.5944Z"/><path class="cls-4" d="M98.5827,29.9858a3.28,3.28,0,0,0,.4405,4.0322.8035.8035,0,0,0,1.2562-.9692,2.7751,2.7751,0,0,1-.4169-2.5234c.2569-.7713-.8726-1.1983-1.28-.54Z"/><path class="cls-4" d="M114.9844,29.469a2.6324,2.6324,0,0,1-.3155,1.8678c-.3516.7167.5864,1.5937,1.1779.9089a3.0539,3.0539,0,0,0,.3584-3.2914c-.3192-.7127-1.39-.1932-1.2209.5147Z"/><path class="cls-4" d="M100.2982,47.404c3.9825,6.338,14.0848,3.5664,17.74-1.635.4609-.6559-.5444-1.387-1.0905-.8414-3.955,3.9508-11.397,7.1327-15.6509,1.706-.4469-.57-1.3779.1665-.9985.77Z"/><path class="cls-4" d="M3.9357,106.1175c4.6189-2.9531,9.0958-6.1418,13.6066-9.2566l3.6951-2.5516c.225-.1554,1.4131-1.1949,1.6422-1.134.4233.1124.6591,1.2109.7687,1.5552.7841,2.4636.77,6.1624-.8612,8.2836-1.0612,1.38-2.77,2.0833-4.3221,1.1066-.5974-.3759-1.039-1.1937-1.7693-1.3757-1.111-.2769-2.0419.71-2.4372,1.6433-.789,1.8632.6414,4.0342-.1026,5.7782-1.6288,3.8179-9.5765,3.766-8.7345-1.3385a.71.71,0,0,0-1.3673-.377c-2,5.8426,6.1671,7.1858,9.741,4.588a4.5566,4.5566,0,0,0,2.014-3.3079,9.8017,9.8017,0,0,0-.1319-2.0611q-.1008-.7394-.16-1.4839.8134-2.2381,1.6854-.909c2.0419.854,3.7361,1.4112,5.7427-.1177,2.1851-1.6648,2.7855-4.7526,2.7287-7.3414-.0356-1.6251-.2155-5.9742-2.3189-6.36-1.0179-.1867-2.1758.9983-2.9043,1.5053q-2.8676,1.9954-5.7352,3.9908c-3.8221,2.663-7.6846,5.2866-11.4124,8.0808-.6282.4709-.0635,1.5279.6329,1.0827Z"/><path class="cls-4" d="M21.85,118.5619a16.5109,16.5109,0,0,1-2.4389,4.8394l.8094-.3294q-3.8288-1.1167-7.6607-2.2225l.1767,1.3522a25.5518,25.5518,0,0,1,9.1694-3.27c.7428-.1307.5779-1.3806-.1791-1.3236a21.83,21.83,0,0,0-9.7371,3.3156.7489.7489,0,0,0,.1767,1.3522q3.8339,1.0981,7.673,2.1779a.741.741,0,0,0,.8094-.3294,11.3465,11.3465,0,0,0,2.2371-5.4227c.0745-.6183-.856-.6718-1.0359-.14Z"/><path class="cls-4" d="M51.9965,16.9846c-1.7058,2.8865-4.4354,10.1715.5685,11.4845,4.7956,1.2584,6.8075-4.0494,7.5731-7.6764H58.5714c1.4965,7.5748,14.4445,3.72,14.3276-3.2378A8.3573,8.3573,0,0,0,66.52,9.9768c-3.65-.8854-7.7649,1.11-7.586,5.2452.0375.8662,1.4167,1.1559,1.5909.2153,1.19-6.4242-12.55-1.6906-8.6369,3.5911a.7477.7477,0,0,0,1.29-.7541l1.04-2.9547a10.6366,10.6366,0,0,1,1.0489-.609c.4573-.241,4.15-2.1345,3.6956.2962l1.5909.2153c-.1749-4.1857,4.8772-4.55,7.601-2.8166a6.26,6.26,0,0,1,3.0536,6.0337c-.713,4.3989-9.9854,7.4808-11.07,1.9217a.8185.8185,0,0,0-1.5667,0c-.5281,2.4726-1.3258,6.3264-4.4607,6.542-4.7674.3279-1.9316-6.9675-.9353-9.2291.3458-.7848-.72-1.4648-1.1788-.6891Z"/><path class="cls-4" d="M54.0621,23.2416a4.5284,4.5284,0,0,0,.53,2.1177c.3371.4723,1.2083.4987,1.3494-.1764a4.3455,4.3455,0,0,0-.3079-2.154c-.2681-.8057-1.66-.7339-1.571.2126Z"/><path class="cls-4" d="M65.5545,20.43a2.7568,2.7568,0,0,0,.2336,1.447.7921.7921,0,0,0,1.361,0,2.7568,2.7568,0,0,0,.2336-1.447.9146.9146,0,0,0-1.8281,0Z"/><path class="cls-4" d="M257.827,71.6255c-1.0549.0682-1.8024-1.5159-1.9957-2.3142a9.1363,9.1363,0,0,1-.2151-2.7117,9.7391,9.7391,0,0,1,1.4943-4.6736c1.5205-2.3526,5.721-5.5441,8.6773-3.858,3.3537,1.9128,1.3876,6.8481-.4378,9.12a12.151,12.151,0,0,1-6.6711,4.0844c-.9069.2377-.5141,1.544.3816,1.3843a12.5724,12.5724,0,0,0,9.23-7.5209c1.4845-3.6114.5595-9.0542-4.298-8.9538-4.1605.086-8.0024,3.556-9.2671,7.3625-.8467,2.5483-1.147,9.9979,3.2514,9.1913a.5679.5679,0,0,0-.15-1.1107Z"/><path class="cls-4" d="M253.46,62.0458c-1.1047-3.3024-.5362-6.9583,2.2395-9.2692,1.084-.9025,2.9888-1.9762,4.4652-1.8407,3.067.2816,2.63,4.2711,2.3784,6.239-.0856.67.9978.789,1.1625.1573.5462-2.0952.6429-5.0344-.8767-6.7886-1.3887-1.6031-3.9394-.9937-5.6484-.2633a9.2125,9.2125,0,0,0-4.7647,12.2057c.2526.5934,1.2484.17,1.0442-.44Z"/><path class="cls-4" d="M255.34,56.5477a3.1211,3.1211,0,0,0-1.189,3.8586.7962.7962,0,0,0,1.0024.3284.8133.8133,0,0,0,.4648-.947,2.13,2.13,0,0,1,.6484-2.0392c.6265-.5864-.1932-1.6806-.9266-1.2009Z"/><path class="cls-4" d="M257.8816,64.1409a4.82,4.82,0,0,0-.6318,4.3516.6217.6217,0,0,0,1.1978-.33,5.1039,5.1039,0,0,1,.461-3.4211.5952.5952,0,0,0-1.0271-.6Z"/><path class="cls-4" d="M252.3236,78.139a5.6811,5.6811,0,0,0,9.7075,3.9006c.6831-.6591-.3376-1.6617-1.0358-1.0358a4.4216,4.4216,0,0,1-7.4471-2.8648c-.0783-.7675-1.2557-.8016-1.2246,0Z"/><path class="cls-4" d="M155.0669,19.016c-.6366,1.4344-.988,3.553-.192,4.993a.8149.8149,0,0,0,1.5068-.4081c.0039-.66-.1868-1.2991-.1838-1.9648a8.1942,8.1942,0,0,1,.3148-2.0105c.2124-.8324-1.07-1.457-1.4458-.61Z"/><path class="cls-4" d="M166.4617,20.7808a15.2963,15.2963,0,0,1-.6505,4.3629c-.2553.8123,1.021,1.3808,1.3976.5892a8.08,8.08,0,0,0,.68-5.1452c-.18-.8191-1.4074-.6073-1.4272.1931Z"/><path class="cls-4" d="M152.0079,14.7042a10.4347,10.4347,0,0,0,3.4767.1447,13.71,13.71,0,0,0,3.5038-.4281.7243.7243,0,0,0-.1916-1.4157,26.0011,26.0011,0,0,0-3.5676.2556,14.4079,14.4079,0,0,0-3.2213.3474.5733.5733,0,0,0,0,1.0961Z"/><path class="cls-4" d="M166.9,14.4189l-.1233.0088.5887.3377q-.0428.5463.4282.3933a3.6268,3.6268,0,0,1,.7159.0794,4.7,4.7,0,0,1,1.2634.4413,7.4168,7.4168,0,0,1,1.9514,1.6469c.5464.5868,1.2871-.1594,1.0215-.7882a5.3225,5.3225,0,0,0-5.1065-2.8705c-.7135.038-1.4235.2739-1.5837,1.07a.8143.8143,0,0,0,1.0236,1.0052.6768.6768,0,0,0-.1791-1.3236Z"/><path class="cls-4" d="M158.32,34.22a18.8262,18.8262,0,0,0,6.7882.9925l-.77-.77c-.1368,1.3086-.7938,2.8377-2.1525,3.2672a2.0055,2.0055,0,0,1-2.542-2.2c.1127-.8629-1.15-.8886-1.4157-.1916-.8431,2.21,1.4582,4.2511,3.6,4.1087,2.5-.1662,3.8808-2.7588,4.05-4.9846a.7728.7728,0,0,0-.77-.77,17.7505,17.7505,0,0,1-6.4378-.7238c-.8232-.2395-1.1427.993-.35,1.2713Z"/><path class="cls-4" d="M33.5481,62.075c2.4508,5.8153,11.0239.9146,9.7125-4.45a.6946.6946,0,0,0-1.3278,0c-.6123,1.7808-.599,3.5825-2.3225,4.7859a3.6454,3.6454,0,0,1-4.9645-.7985c-.361-.5036-1.3827-.2135-1.0977.4628Z"/><path class="cls-4" d="M47.3842,55.2371a4.6109,4.6109,0,0,0,6.103.9334,4.4034,4.4034,0,0,0,1.2083-5.9355c-.4022-.5592-1.4588-.2516-1.1995.5057a3.5731,3.5731,0,0,1-.9182,4.2026,3.241,3.241,0,0,1-4.2365-.6632c-.6-.659-1.4812.2907-.9571.9571Z"/><path class="cls-4" d="M37.8379,61.8749a1.8338,1.8338,0,0,1,.7547.6118c.2013.2925.2341.636.4049.9422a.6681.6681,0,0,0,1.2338-.3342c.107-1.0527-1.0617-1.9883-1.9487-2.2747-.6129-.1979-1.0405.7708-.4447,1.0549Z"/><path class="cls-4" d="M51.4673,54.1838a.8544.8544,0,0,1,.2674,1.0059.7181.7181,0,0,0,1.3066.5508,1.9436,1.9436,0,0,0-.9233-2.67.645.645,0,0,0-.6506,1.1131Z"/><path class="cls-4" d="M46.8627,66.2778a2.48,2.48,0,0,0-.1751,3.4137,2.9224,2.9224,0,0,0,4.0825.3673,4.3447,4.3447,0,0,0,1.6934-4.6216c-.4377-1.4347-2.0287-2.5992-3.4814-1.8607a.6983.6983,0,0,0,.1652,1.2637c.7159.1365,1.4152.2649,1.6983,1.0431a2.6157,2.6157,0,0,1-.6891,2.5482c-.5259.54-1.4446.9664-2.0932.3841a1.0321,1.0321,0,0,1-.144-1.4812c.694-.69-.3291-1.6616-1.0565-1.0565Z"/><path class="cls-4" d="M53.0509,117.4784q.5979-5.209.8017-10.4572l-1.2391.5132c2.4078,2.135,4.5885,4.5549,6.8058,6.8845L59.57,113.25l-2.3275,1.1542a.743.743,0,0,0-.3411.8383l1.7521,4.3483.3393-.8337-2.3549,1.0717,1.007.2641c-.5977-1.406-1.1558-2.8367-1.8119-4.2165a.7283.7283,0,0,0-.977-.2562c-.89.42-1.8026.7886-2.67,1.2566-.79.4261-.0852,1.6352.7038,1.2041a19.197,19.197,0,0,1,2.5162-1.1556l-.8784-.4987c.558,1.49,1.2261,2.9442,1.846,4.4092a.75.75,0,0,0,1.007.2641l2.3572-1.0679a.7365.7365,0,0,0,.3393-.8337l-1.7443-4.35-.3411.8383,2.33-1.15a.7518.7518,0,0,0,.1507-1.1694c-2.2126-2.3328-4.4116-4.7382-6.8323-6.858a.7354.7354,0,0,0-1.2391.5132c-.1157,3.4882-.5228,6.9658-.3754,10.4572A.513.513,0,0,0,53.0509,117.4784Z"/><path class="cls-4" d="M88.169,153.7752q.5979-5.209.8017-10.4572l-1.2391.5132c2.4078,2.135,4.5885,4.5549,6.8058,6.8845l.1507-1.1694-2.3275,1.1542a.743.743,0,0,0-.3411.8383l1.7521,4.3483.3393-.8337-2.3549,1.0717,1.007.2641c-.5977-1.406-1.1558-2.8367-1.8119-4.2165a.7283.7283,0,0,0-.977-.2562c-.89.42-1.8026.7886-2.67,1.2566-.79.4261-.0852,1.6352.7038,1.2041a19.197,19.197,0,0,1,2.5162-1.1556l-.8784-.4987c.558,1.49,1.2261,2.9442,1.846,4.4092a.75.75,0,0,0,1.007.2641l2.3572-1.0679a.7365.7365,0,0,0,.3393-.8337l-1.7443-4.35-.3411.8383,2.33-1.15a.7518.7518,0,0,0,.1507-1.1694c-2.2126-2.3328-4.4116-4.7382-6.8323-6.858a.7354.7354,0,0,0-1.2391.5132c-.1157,3.4882-.5228,6.9658-.3754,10.4572A.513.513,0,0,0,88.169,153.7752Z"/><path class="cls-4" d="M112.1254,137.83q.5979-5.209.8017-10.4572l-1.2391.5132c2.4078,2.135,4.5885,4.5549,6.8058,6.8845l.1507-1.1694-2.3275,1.1542a.743.743,0,0,0-.3411.8383l1.7521,4.3483.3393-.8337-2.3549,1.0717,1.007.2641c-.5977-1.406-1.1558-2.8367-1.8119-4.2165a.7283.7283,0,0,0-.977-.2562c-.89.42-1.8026.7886-2.67,1.2566-.79.4261-.0852,1.6352.7038,1.2041a19.197,19.197,0,0,1,2.5162-1.1556l-.8784-.4987c.558,1.49,1.2261,2.9442,1.846,4.4092a.75.75,0,0,0,1.007.2641l2.3572-1.0679a.7365.7365,0,0,0,.3393-.8337l-1.7443-4.35-.3411.8383,2.33-1.15a.7518.7518,0,0,0,.1507-1.1694c-2.2126-2.3328-4.4116-4.7382-6.8323-6.858a.7354.7354,0,0,0-1.2391.5132c-.1157,3.4882-.5228,6.9658-.3754,10.4572A.513.513,0,0,0,112.1254,137.83Z"/><path class="cls-2" d="M79.9632,93.8206c.2653-.8613-.7337-3.4-1.945-3.6988-.9363-.2306-1.1417.8531-1.9831-.07-.3162-.3468.19-6.6789.5731-7.184,1.2771-1.6848,3.0556.6027,3.9645,1.6131,1.3105,1.4568,1.9051,1.8338,1.4116,3.7754a4.8212,4.8212,0,0,0-.1356,3.2084C82.3856,93.4361,82.7216,93.7451,79.9632,93.8206Z"/><path class="cls-4" d="M76.1777,91.2027q.5979-5.209.8017-10.4572l-1.2391.5132c2.4078,2.135,4.5885,4.5549,6.8058,6.8845l.1507-1.1694L80.3694,88.128a.743.743,0,0,0-.3411.8383L81.78,93.3146l.3393-.8337-2.3549,1.0717,1.007.2641C80.174,92.4107,79.6159,90.98,78.96,89.6a.7283.7283,0,0,0-.977-.2562c-.89.42-1.8026.7886-2.67,1.2566-.79.4261-.0852,1.6352.7038,1.2041a19.197,19.197,0,0,1,2.5162-1.1556l-.8784-.4987c.558,1.49,1.2261,2.9442,1.846,4.4092a.75.75,0,0,0,1.007.2641l2.3572-1.0679a.7365.7365,0,0,0,.3393-.8337l-1.7443-4.35-.3411.8383,2.33-1.15a.7518.7518,0,0,0,.1507-1.1694c-2.2126-2.3328-4.4116-4.7382-6.8323-6.858a.7354.7354,0,0,0-1.2391.5132c-.1157,3.4882-.5228,6.9658-.3754,10.4572A.513.513,0,0,0,76.1777,91.2027Z"/><path class="cls-4" d="M187.8491,153.7752q.5979-5.209.8017-10.4572l-1.2391.5132c2.4078,2.135,4.5885,4.5549,6.8058,6.8845l.1507-1.1694-2.3275,1.1542a.743.743,0,0,0-.3411.8383l1.7521,4.3483.3393-.8337-2.3549,1.0717,1.007.2641c-.5977-1.406-1.1558-2.8367-1.8119-4.2165a.7283.7283,0,0,0-.977-.2562c-.89.42-1.8026.7886-2.67,1.2566-.79.4261-.0852,1.6352.7038,1.2041a19.197,19.197,0,0,1,2.5162-1.1556l-.8784-.4987c.558,1.49,1.2261,2.9442,1.846,4.4092a.75.75,0,0,0,1.007.2641l2.3572-1.0679a.7365.7365,0,0,0,.3393-.8337l-1.7443-4.35-.3411.8383,2.33-1.15a.7518.7518,0,0,0,.1507-1.1694c-2.2126-2.3328-4.4116-4.7382-6.8323-6.858a.7354.7354,0,0,0-1.2391.5132c-.1157,3.4882-.5228,6.9658-.3754,10.4572A.513.513,0,0,0,187.8491,153.7752Z"/><path class="cls-4" d="M211.574,127.4989q.5979-5.209.8017-10.4572l-1.2391.5132c2.4078,2.135,4.5885,4.5549,6.8058,6.8845l.1507-1.1694-2.3275,1.1542a.743.743,0,0,0-.3411.8383l1.7521,4.3483.3393-.8337-2.3549,1.0717,1.007.2641c-.5977-1.406-1.1558-2.8367-1.8119-4.2165a.7283.7283,0,0,0-.977-.2562c-.89.42-1.8026.7886-2.67,1.2566-.79.4261-.0852,1.6352.7038,1.2041a19.197,19.197,0,0,1,2.5162-1.1556l-.8784-.4987c.558,1.49,1.2261,2.9442,1.846,4.4092a.75.75,0,0,0,1.007.2641l2.3572-1.0679a.7365.7365,0,0,0,.3393-.8337l-1.7443-4.35-.3411.8383,2.33-1.15a.7518.7518,0,0,0,.1507-1.1694c-2.2126-2.3328-4.4116-4.7382-6.8323-6.858a.7354.7354,0,0,0-1.2391.5132c-.1157,3.4882-.5228,6.9658-.3754,10.4572A.513.513,0,0,0,211.574,127.4989Z"/><path class="cls-4" d="M191.553,86.762q.5979-5.209.8017-10.4572l-1.2391.5132c2.4078,2.135,4.5885,4.5549,6.8058,6.8845l.1507-1.1694-2.3275,1.1542a.743.743,0,0,0-.3411.8383l1.7521,4.3483.3393-.8337L195.14,89.1119l1.007.2641c-.5977-1.406-1.1558-2.8367-1.8119-4.2165a.7283.7283,0,0,0-.977-.2562c-.89.42-1.8026.7886-2.67,1.2566-.79.4261-.0852,1.6352.7038,1.2041a19.197,19.197,0,0,1,2.5162-1.1556L193.03,85.71c.558,1.49,1.2261,2.9442,1.846,4.4092a.75.75,0,0,0,1.007.2641l2.3572-1.0679a.7365.7365,0,0,0,.3393-.8337l-1.7443-4.35-.3411.8383,2.33-1.15a.7518.7518,0,0,0,.1507-1.1694c-2.2126-2.3328-4.4116-4.7382-6.8323-6.858a.7354.7354,0,0,0-1.2391.5132c-.1157,3.4882-.5228,6.9658-.3754,10.4572A.513.513,0,0,0,191.553,86.762Z"/><path class="cls-2" d="M69.2887,91.8514c.2653-.8613-.7337-3.4-1.945-3.6988-.9363-.2306-1.1417.8531-1.9831-.07-.3162-.3468.19-6.6789.5731-7.184,1.2771-1.6848,3.0556.6027,3.9645,1.6131,1.3105,1.4568,1.9051,1.8338,1.4116,3.7754a4.8212,4.8212,0,0,0-.1356,3.2084C71.7111,91.4669,72.0471,91.7758,69.2887,91.8514Z"/><path class="cls-4" d="M65.21,89.1428q.5979-5.209.8017-10.4572l-1.2391.5132c2.4078,2.135,4.5885,4.5549,6.8058,6.8845l.1507-1.1694-2.3275,1.1542a.743.743,0,0,0-.3411.8383l1.7521,4.3483.3393-.8337-2.3549,1.0717,1.007.2641c-.5977-1.406-1.1558-2.8367-1.8119-4.2165a.7283.7283,0,0,0-.977-.2562c-.89.42-1.8026.7886-2.67,1.2566-.79.4261-.0852,1.6352.7038,1.2041a19.197,19.197,0,0,1,2.5162-1.1556l-.8784-.4987c.558,1.49,1.2261,2.9442,1.846,4.4092a.75.75,0,0,0,1.007.2641l2.3572-1.0679a.7365.7365,0,0,0,.3393-.8337l-1.7443-4.35-.3411.8383,2.33-1.15a.7518.7518,0,0,0,.1507-1.1694c-2.2126-2.3328-4.4116-4.7382-6.8323-6.858a.7354.7354,0,0,0-1.2391.5132c-.1157,3.4882-.5228,6.9658-.3754,10.4572A.513.513,0,0,0,65.21,89.1428Z"/><path class="cls-2" d="M173.072,107.3539c.2653-.8613-.7337-3.4-1.945-3.6988-.9363-.2306-1.1417.8531-1.9831-.07-.3162-.3468.19-6.6789.5731-7.184,1.2771-1.6848,3.0556.6027,3.9645,1.6131,1.3105,1.4568,1.9051,1.8338,1.4116,3.7754a4.8212,4.8212,0,0,0-.1356,3.2084C175.4943,106.9694,175.83,107.2783,173.072,107.3539Z"/><path class="cls-4" d="M168.9933,104.6453q.5979-5.209.8017-10.4572l-1.2391.5132c2.4078,2.135,4.5885,4.5549,6.8058,6.8845l.1507-1.1694-2.3275,1.1542a.743.743,0,0,0-.3411.8383l1.7521,4.3483.3393-.8337-2.3549,1.0717,1.007.2641c-.5977-1.406-1.1558-2.8367-1.8119-4.2165a.7283.7283,0,0,0-.977-.2562c-.89.42-1.8026.7886-2.67,1.2566-.79.4261-.0852,1.6352.7038,1.2041a19.197,19.197,0,0,1,2.5162-1.1556l-.8784-.4987c.558,1.49,1.2261,2.9442,1.846,4.4092a.75.75,0,0,0,1.007.2641l2.3572-1.0679a.7365.7365,0,0,0,.3393-.8337l-1.7443-4.35-.3411.8383,2.33-1.15a.7518.7518,0,0,0,.1507-1.1694c-2.2126-2.3328-4.4116-4.7382-6.8323-6.858a.7354.7354,0,0,0-1.2391.5132c-.1157,3.4882-.5228,6.9658-.3754,10.4572A.513.513,0,0,0,168.9933,104.6453Z"/><path class="cls-2" d="M178.0771,96.9258c.2653-.8613-.7337-3.4-1.945-3.6988-.9363-.2306-1.1417.8531-1.9831-.07-.3162-.3468.19-6.6789.5731-7.184,1.2771-1.6848,3.0556.6027,3.9645,1.6131,1.3105,1.4568,1.9051,1.8338,1.4116,3.7754a4.8212,4.8212,0,0,0-.1356,3.2084C180.4995,96.5413,180.8355,96.85,178.0771,96.9258Z"/><path class="cls-4" d="M173.9985,94.2172q.5979-5.209.8017-10.4572l-1.2391.5132c2.4078,2.135,4.5885,4.5549,6.8058,6.8845l.1507-1.1694L178.19,91.1425a.743.743,0,0,0-.3411.8383l1.7521,4.3483.3393-.8337-2.3549,1.0717,1.007.2641c-.5977-1.406-1.1558-2.8367-1.8119-4.2165a.7283.7283,0,0,0-.977-.2562c-.89.42-1.8026.7886-2.67,1.2566-.79.4261-.0852,1.6352.7038,1.2041a19.197,19.197,0,0,1,2.5162-1.1556l-.8784-.4987c.558,1.49,1.2261,2.9442,1.846,4.4092a.75.75,0,0,0,1.007.2641l2.3572-1.0679a.7365.7365,0,0,0,.3393-.8337l-1.7443-4.35-.3411.8383,2.33-1.15a.7518.7518,0,0,0,.1507-1.1694c-2.2126-2.3328-4.4116-4.7382-6.8323-6.858a.7354.7354,0,0,0-1.2391.5132c-.1157,3.4882-.5228,6.9658-.3754,10.4572A.513.513,0,0,0,173.9985,94.2172Z"/><path class="cls-4" d="M184.1453,120.2686q.5979-5.209.8017-10.4572l-1.2391.5132c2.4078,2.135,4.5885,4.5549,6.8058,6.8845l.1507-1.1694-2.3275,1.1542a.743.743,0,0,0-.3411.8383l1.7521,4.3483.3393-.8337-2.3549,1.0717,1.007.2641c-.5977-1.406-1.1558-2.8367-1.8119-4.2165a.7283.7283,0,0,0-.977-.2562c-.89.42-1.8026.7886-2.67,1.2566-.79.4261-.0852,1.6352.7038,1.2041a19.197,19.197,0,0,1,2.5162-1.1556l-.8784-.4987c.558,1.49,1.2261,2.9442,1.846,4.4092a.75.75,0,0,0,1.007.2641l2.3572-1.0679a.7365.7365,0,0,0,.3393-.8337l-1.7443-4.35-.3411.8383,2.33-1.15a.7518.7518,0,0,0,.1507-1.1694c-2.2126-2.3328-4.4116-4.7382-6.8323-6.858a.7354.7354,0,0,0-1.2391.5132c-.1157,3.4882-.5228,6.9658-.3754,10.4572A.513.513,0,0,0,184.1453,120.2686Z"/><path class="cls-2" d="M132.9429,127.7695c.2653-.8613-.7337-3.4-1.945-3.6988-.9363-.2306-1.1417.8531-1.9831-.07-.3162-.3468.19-6.6789.5731-7.184,1.2771-1.6848,3.0556.6027,3.9645,1.6131,1.3105,1.4568,1.9051,1.8338,1.4116,3.7754a4.8212,4.8212,0,0,0-.1356,3.2084C135.3652,127.385,135.7013,127.6939,132.9429,127.7695Z"/><path class="cls-4" d="M129.4282,125.22q.5979-5.209.8017-10.4572l-1.2391.5132c2.4078,2.135,4.5885,4.5549,6.8058,6.8845l.1507-1.1694-2.3275,1.1542a.743.743,0,0,0-.3411.8383l1.7521,4.3483.3393-.8337-2.3549,1.0717,1.007.2641c-.5977-1.406-1.1558-2.8367-1.8119-4.2165a.7283.7283,0,0,0-.977-.2562c-.89.42-1.8026.7886-2.67,1.2566-.79.4261-.0852,1.6352.7038,1.2041a19.1971,19.1971,0,0,1,2.5162-1.1556l-.8784-.4987c.558,1.49,1.2261,2.9442,1.846,4.4092a.75.75,0,0,0,1.007.2641l2.3572-1.0679a.7365.7365,0,0,0,.3393-.8337l-1.7443-4.35-.3411.8383,2.33-1.15a.7518.7518,0,0,0,.1507-1.1694c-2.2126-2.3328-4.4116-4.7382-6.8323-6.858a.7354.7354,0,0,0-1.2391.5132c-.1157,3.4882-.5228,6.9658-.3754,10.4572A.513.513,0,0,0,129.4282,125.22Z"/><path class="cls-4" d="M144.003,80.0406q.5979-5.209.8017-10.4572l-1.2391.5132c2.4078,2.135,4.5885,4.5549,6.8058,6.8845l.1507-1.1694-2.3275,1.1542a.743.743,0,0,0-.3411.8383l1.7521,4.3483.3393-.8337L147.59,82.3906l1.007.2641c-.5977-1.406-1.1558-2.8367-1.8119-4.2165a.7283.7283,0,0,0-.977-.2562c-.89.42-1.8026.7886-2.67,1.2566-.79.4261-.0852,1.6352.7038,1.2041a19.197,19.197,0,0,1,2.5162-1.1556l-.8784-.4987c.558,1.49,1.2261,2.9442,1.846,4.4092a.75.75,0,0,0,1.007.2641l2.3572-1.0679a.7365.7365,0,0,0,.3393-.8337l-1.7443-4.35-.3411.8383,2.33-1.15a.7518.7518,0,0,0,.1507-1.1694c-2.2126-2.3328-4.4116-4.7382-6.8323-6.858a.7354.7354,0,0,0-1.2391.5132c-.1157,3.4882-.5228,6.9658-.3754,10.4572A.513.513,0,0,0,144.003,80.0406Z"/><path class="cls-4" d="M91.8729,73.6535q.5979-5.209.8017-10.4572l-1.2391.5132c2.4078,2.135,4.5885,4.5549,6.8058,6.8845l.1507-1.1694-2.3275,1.1542a.743.743,0,0,0-.3411.8383l1.7521,4.3483.3393-.8337L95.46,76.0034l1.007.2641c-.5977-1.406-1.1558-2.8367-1.8119-4.2165a.7283.7283,0,0,0-.977-.2562c-.89.42-1.8026.7886-2.67,1.2566-.79.4261-.0852,1.6352.7038,1.2041A19.197,19.197,0,0,1,94.2283,73.1l-.8784-.4987c.558,1.49,1.2261,2.9442,1.846,4.4092a.75.75,0,0,0,1.007.2641L98.56,76.2066a.7365.7365,0,0,0,.3393-.8337l-1.7443-4.35-.3411.8383,2.33-1.15a.7518.7518,0,0,0,.1507-1.1694c-2.2126-2.3328-4.4116-4.7382-6.8323-6.858a.7354.7354,0,0,0-1.2391.5132c-.1157,3.4882-.5228,6.9658-.3754,10.4572A.513.513,0,0,0,91.8729,73.6535Z"/><path class="cls-4" d="M130.0635,87.5335c.4354-4.6939.8317-9.3971,1.0073-14.11l-1.2391.5132c3.2579,2.8647,6.2,6.1431,9.1876,9.2846l.1507-1.1694-3.1409,1.5567a.743.743,0,0,0-.3411.8383l2.3628,5.8674.3393-.8337-3.1778,1.4454,1.007.2641c-.8067-1.8987-1.573-3.82-2.4382-5.6931a.7289.7289,0,0,0-.977-.2562c-1.2068.5521-2.4411,1.05-3.6053,1.69-.7864.4323-.0826,1.64.7038,1.2041a27.1184,27.1184,0,0,1,3.4516-1.5894l-.8784-.4987c.768,1.983,1.6432,3.9276,2.4722,5.8858a.75.75,0,0,0,1.007.2641l3.18-1.4415a.7365.7365,0,0,0,.3393-.8337l-2.3549-5.87-.3411.8383,3.1431-1.5528a.7518.7518,0,0,0,.1507-1.1694c-2.9836-3.145-5.9431-6.4084-9.2142-9.2581a.7354.7354,0,0,0-1.2391.5132c-.1536,4.7071-.6888,9.3978-.581,14.11A.513.513,0,0,0,130.0635,87.5335Z"/><path class="cls-4" d="M84.2587,115.0192c.4354-4.6939.8317-9.3971,1.0073-14.11l-1.2391.5132c3.2579,2.8647,6.2,6.1431,9.1876,9.2846l.1507-1.1694-3.1409,1.5567a.743.743,0,0,0-.3411.8383L92.2461,117.8l.3393-.8337-3.1778,1.4454,1.007.2641c-.8067-1.8987-1.573-3.82-2.4382-5.6931a.7289.7289,0,0,0-.977-.2562c-1.2068.5521-2.4411,1.05-3.6053,1.69-.7864.4323-.0826,1.64.7038,1.2041a27.1184,27.1184,0,0,1,3.4516-1.5894l-.8784-.4987c.768,1.983,1.6432,3.9276,2.4722,5.8858a.75.75,0,0,0,1.007.2641l3.18-1.4415a.7365.7365,0,0,0,.3393-.8337l-2.3549-5.87-.3411.8383,3.1431-1.5528a.7518.7518,0,0,0,.1507-1.1694c-2.9836-3.145-5.9431-6.4084-9.2142-9.2581a.7354.7354,0,0,0-1.2391.5132c-.1536,4.7071-.6888,9.3978-.581,14.11A.513.513,0,0,0,84.2587,115.0192Z"/><path class="cls-4" d="M146.4131,130.6425c.4354-4.6939.8317-9.3971,1.0073-14.11l-1.2391.5132c3.2579,2.8647,6.2,6.1431,9.1876,9.2846l.1507-1.1694-3.1409,1.5567a.743.743,0,0,0-.3411.8383l2.3628,5.8674.3393-.8337-3.1778,1.4454,1.007.2641c-.8067-1.8987-1.573-3.82-2.4382-5.6931a.7289.7289,0,0,0-.977-.2562c-1.2068.5521-2.4411,1.05-3.6053,1.69-.7864.4323-.0826,1.64.7038,1.2041a27.1184,27.1184,0,0,1,3.4516-1.5894l-.8784-.4987c.768,1.983,1.6432,3.9276,2.4722,5.8858a.75.75,0,0,0,1.007.2641l3.18-1.4415a.7365.7365,0,0,0,.3393-.8337l-2.3549-5.87-.3411.8383,3.1431-1.5528a.7518.7518,0,0,0,.1507-1.1694c-2.9836-3.145-5.9431-6.4084-9.2142-9.2581a.7354.7354,0,0,0-1.2391.5132c-.1536,4.7071-.6888,9.3978-.581,14.11A.513.513,0,0,0,146.4131,130.6425Z"/><path class="cls-2" d="M118.7627,112.29c.6369-2.0679-1.7616-8.1642-4.67-8.88-2.2479-.5537-2.7411,2.0479-4.7611-.1676-1.5326-1.681.0715-8.8939.2781-10.918.18-1.7612.1483-4.0474.8486-5.7034,2.47-5.84,10.5723,7.4053,12,9.3058,2.6119,3.477-1.4528,3.0831-.9714,6.3225.37,2.49,3.2253,5.3272,2.6775,7.97C123.6712,112.5986,120.8378,112.233,118.7627,112.29Z"/><path class="cls-4" d="M109.5252,106.2677c.3187-7.9229.8444-15.8431.9021-23.775l-1.2391.5132c5.6339,4.6395,10.7256,10.0423,15.8917,15.19l.1507-1.1694-5.2137,2.7617a.7622.7622,0,0,0-.2663,1.0157l4.2412,9.7631.2649-1.01-5.281,2.5763,1.007.2641c-1.4444-3.16-2.8482-6.342-4.3507-9.4748a.7283.7283,0,0,0-.977-.2562c-2.014.9546-4.0833,1.8483-5.9945,3a.6978.6978,0,0,0,.7038,1.2041,48.3778,48.3778,0,0,1,6.0115-2.9708l-.977-.2562c1.3843,3.1883,2.87,6.3346,4.3128,9.497a.7491.7491,0,0,0,1.007.2641l5.2833-2.5724a.7563.7563,0,0,0,.2649-1.01l-4.2342-9.7672-.2663,1.0157,5.216-2.7578a.7515.7515,0,0,0,.1507-1.1694c-5.162-5.151-10.2715-10.5388-15.9182-15.163a.7359.7359,0,0,0-1.2391.5132c-.0359,7.9293-.7014,15.8452-.4759,23.775A.513.513,0,0,0,109.5252,106.2677Z"/></g></svg>