<svg xmlns="http://www.w3.org/2000/svg" viewBox="0 0 247 193"><defs><style>.cls-1{fill:#f7fafc;}.cls-2{fill:#ffefaf;}.cls-3{fill:#e93a1d;}.cls-4{fill:#303030;}.cls-5{fill:#172df8;}</style></defs><title>DN_Service-SEO-img-7</title><g id="back"><path class="cls-1" d="M121.6416,189.8023a21.6266,21.6266,0,0,1-9.7139-2.417c-.91-.4521-1.9365-1.0186-3.2314-1.7812-1.8574-1.0937-4.3525-2.6436-7.627-4.7363-3.4395-2.1992-7.792-5.0352-13.0049-8.4707a20.0146,20.0146,0,0,1-32.1133,2.0752S44.126,160.4527,32.3047,146.4c-5.9189-7.0361-11.8369-14.0791-16.2744-19.3809-2.24-2.6768-4.1074-4.9141-5.4131-6.49-3.2354-3.9053-7.2607-8.7646-6.5469-16.9844a20.0058,20.0058,0,0,1,7.0635-13.585,20.983,20.983,0,0,1,9.4395-4.3623C13.9766,75.42,13.33,70.4409,13.5811,65.398a21.3649,21.3649,0,0,1,4.5752-12.32,19.9588,19.9588,0,0,1,3.127-7.64,20.5892,20.5892,0,0,1,2.2627-4.4463,21.0566,21.0566,0,0,1,5.8926-7.9541,20.0038,20.0038,0,0,1,22.8174-2.0244,20.699,20.699,0,0,1-.0508-4.0742A20.0936,20.0936,0,0,1,59.3,13.2085c2.5332-2.126,11.7773-8.5313,24.2354-1.585,1.502.8379,3.2168,1.9346,5.3955,3.4512q1.4824,1.0327,3.27,2.3369a19.9085,19.9085,0,0,1,6.1143-8.9785c5.4873-4.6035,14.87-7.3076,24.7529-1.0752,1.1865.748,2.541,1.7031,4.2627,3.0078q.6665.5054,1.4238,1.0928a19.9755,19.9755,0,0,1,3.5156-3.833c5.3945-4.5264,15.2266-7.4189,25.1738-.6826.5127.3467,1.0674.7412,1.6875,1.2a19.9584,19.9584,0,0,1,21.8994.9961,20.0227,20.0227,0,0,1,17.8535,13.8857c3.5977,4.3691,11.8711,12.9209,17.6279,18.8711,21.1426,21.8525,27.5244,28.4473,26.94,39.67a20.6206,20.6206,0,0,1-.4941,3.5322,21.3916,21.3916,0,0,1,.3008,5.1406,20.6546,20.6546,0,0,1-6.0986,13.4756,20.002,20.002,0,0,1-6.13,21.6162,20.9735,20.9735,0,0,1-7.4111,3.9316,20.0025,20.0025,0,0,1-6.333,20.9375,20.2085,20.2085,0,0,1-17.0625,4.2568,19.9981,19.9981,0,0,1-6.8916,18.4893c-9.5107,7.98-20.6777,5.749-31.291.3555a20.1248,20.1248,0,0,1-20.6475,14.7773,20.1984,20.1984,0,0,1-4.4873.3135,19.9542,19.9542,0,0,1-8.7432.28A19.5374,19.5374,0,0,1,121.6416,189.8023Z"/></g><g id="Layer_2" data-name="Layer 2"><path class="cls-2" d="M74.1672,105.4177c-3.8248-1.1957-9.122-.6381-13.2583-1.0384-5.9573-.5766-12.0047-1.6221-17.9591-2.0624-4.2521-.3144-10.0333-.6359-13.8879.7768-2.8278,1.0364-12.3964,5.7856-13.2561,8.4709,5.9664,3.8348,16.7329,1.2881,23.5476,1.5207,8.62.2942,16.9007,2.5092,25.5871,2.0678C71.7475,114.8072,80.994,114.8537,74.1672,105.4177Z"/><path class="cls-2" d="M158.9184,103.8438c3.9814-.95,10.6252.2125,13.49-.0645,5.9561-.5765,12.0023-1.6217,17.9556-2.0621,6.5045-.4812,18.1585,3.7577,19.8587,10.7166-5.2784,1.4828-10.8654-.1325-16.2589.0516-7.51.2563-33.9376,6.6386-37.7965-3.4609C154.964,105.8737,156.4149,104.4412,158.9184,103.8438Z"/><path class="cls-3" d="M78.2663,82.36c8.8749,2.6984,19.7389,1.5,28.9776,2.05,8.2319.4894,16.4418.5886,24.6672,1.3949,3.8653.3789,27.6837,5.1829,23.1114-4.9935-3.2822-7.305-19.9636-3.0786-26.1883-3.0625-11.2093.029-22.3973-1.564-33.6163-1.0248C91.8159,76.8874,79.3628,75.6278,78.2663,82.36Z"/><path class="cls-4" d="M20.9951,147.2056a308.4074,308.4074,0,0,1-3.4234-34.4538l-.6993.6993q30.2335.8016,60.467,1.612a.7953.7953,0,0,0,.7881-.7881c-.4355-10.5312-1.4842-21.2524-.948-31.7871l-.79.79c27.3241.4826,54.66-.68,81.9175,1.8472l-.73-.9586c-1.6018,8.8863-.138,17.89-.9626,26.8305a.76.76,0,0,0,.7516.7516c19.0838.42,38.1707.6891,57.2544,1.1165l-.7237-.7237c.5754,10.6771-.6622,21.3631-.0867,32.04.05.9339,1.51.94,1.459,0-.5793-10.6769.6545-21.3633.0752-32.04a.7391.7391,0,0,0-.7237-.7237c-19.0842-.4206-38.17-.7445-57.2544-1.1723l.7516.7516c.8151-8.7994-.6607-17.6857.92-26.4279a.7725.7725,0,0,0-.73-.9586c-27.25-2.5415-54.5971-1.4359-81.9175-1.9135a.8052.8052,0,0,0-.79.79c-.5343,10.535.5173,21.2556.9527,31.7871l.7881-.7881q-30.2326-.7616-60.467-1.4345a.7058.7058,0,0,0-.6993.6993,258.4659,258.4659,0,0,0,3.6412,34.7793c.1391.7814,1.2975.4408,1.1809-.3255Z"/><path class="cls-4" d="M116.0362,104.5337a30.6081,30.6081,0,0,0,5.8093-7.7777l-1.2318-.3336a67.5646,67.5646,0,0,0,.503,18.79c.1393.8425,1.4212.4851,1.2826-.3536a67.37,67.37,0,0,1-.4635-18.4366c.0725-.6591-.942-.89-1.2318-.3336a30.665,30.665,0,0,1-5.55,7.5624.6244.6244,0,0,0,.8825.8825Z"/><path class="cls-4" d="M48.9925,134.51c-.8692-.7556,2.4876-1.1054,2.7866-1.0976,1.911.05,3.9723.9945,2.8294,3.615-.7008,1.6068-2.2092,2.93-3.0419,4.5-1.2059,2.2733-1.5684,4.7234-.2757,7.0248.327.5821,1.1681.07.8854-.5175-2.0746-4.3154,1.937-7.2452,3.6648-10.68a3.1791,3.1791,0,0,0-1.0885-4.3875,6.98,6.98,0,0,0-6.12-.2669,1.414,1.414,0,0,0-.2086,2.5469c.4237.3182.9682-.3884.568-.7362Z"/><path class="cls-4" d="M181.5437,139.7876a3.7787,3.7787,0,0,1,3.821,1.686c.7741,1.1666.3841,1.9936.35,3.2168a2.5977,2.5977,0,0,0,.359,1.9373,8.21,8.21,0,0,0,2.1609,1.7486c2.08,1.5472,3.7363,3.9553,2.0614,6.4255-.3.4428.4082,1.0034.75.5787a4.2956,4.2956,0,0,0,.6623-4.4913c-1.0327-2.6454-4.5939-3.5374-4.8386-6.5579-.1255-1.5488.0071-2.6531-1.1575-3.922a4.5581,4.5581,0,0,0-4.3768-1.3788c-.499.0963-.2834.8405.2087.7571Z"/><path class="cls-5" d="M71.984,20.1091c13.0394.5833,26.12.6286,39.17.8926,1.2876.0261,2.5821.0921,3.87.0783a5.9888,5.9888,0,0,0,1.09-.0587c.0895-.017.1706-.0793.26-.0953.6762-.1207.1226.0141-.165.0082a.8472.8472,0,0,0,0-1.6934c.5622.0115.6412.058.0243-.0524-.2953-.0529-.5772-.1043-.8818-.1345-1.0147-.1006-2.0739-.0434-3.0929-.0644q-5.168-.1068-10.336-.2135c-8.0672-.1619-16.1351-.3346-24.203-.4577-1.9118-.0292-3.8233-.068-5.7352-.0607a.9264.9264,0,0,0,0,1.8516Z"/><path class="cls-4" d="M71.984,27.8275c30.8578.6663,61.7373.6733,92.6,1.1946,2.8031.0473,6.4345.02,8.8588.065a.6918.6918,0,0,0,0-1.3828c-24.5066-.46-50.1675-.96-75.0616-1.1067-8.7995-.0519-17.6009-.1272-26.3972.14a.5453.5453,0,0,0,0,1.09Z"/><path class="cls-4" d="M71.984,36.18c31.4338.7267,62.9262.194,94.3683.2754,3.0248.0078,6.0538-.0375,9.0768-.0255a.686.686,0,0,0,0-1.3711c-25.487-.1013-50.9776-.3173-76.4673-.2265-8.9914.032-17.9906-.0083-26.9778.293a.5277.5277,0,0,0,0,1.0547Z"/><path class="cls-4" d="M71.984,43.9617c9.4182.69,19.0033.149,28.4338-.0726,4.5752-.1075,9.15-.2161,13.7267-.273,4.884-.0608,9.8352.2132,14.7071-.0876a.642.642,0,0,0,0-1.2832,125.4911,125.4911,0,0,0-14.7071-.1861c-4.5762.0594-9.1515.17-13.7267.2792-9.474.2269-18.9653.105-28.4338.3811a.6215.6215,0,0,0,0,1.2422Z"/><path class="cls-4" d="M71.984,55.2992a122.9928,122.9928,0,0,1,21.4983-.4724c.6462.0287.8172-1.06.1558-1.1509a74.8071,74.8071,0,0,0-21.7872.6393c-.5515.0872-.4277,1.0568.1332.9841Z"/><path class="cls-4" d="M109.8886,54.3446c6.6373.2656,13.3412.2343,19.9812.0658a.56.56,0,0,0,0-1.1191c-6.63-.4985-13.3383.1692-19.9812.1041a.4749.4749,0,0,0,0,.9492Z"/><path class="cls-4" d="M141.6731,54.7192c6.7922.7011,13.6569.3856,20.4728.7113.8321.04.7947-1.1828,0-1.2715-6.7884-.7572-13.66-.1006-20.4728-.4828-.6791-.0381-.6555.9753,0,1.043Z"/><path class="cls-4" d="M15.922,111.6639c4.2362-1.5865,7.3849-5.0538,11.5456-6.785,5.11-2.1263,10.8117-1.6462,16.1977-1.2249,10.8692.85,22.3246,2.5827,33.2009,1.0888.678-.0931.5034-1.1885-.16-1.18-5.8548.0778-11.6311.3011-17.4908-.0358-5.8057-.3338-11.5926-.91-17.3928-1.3179-4.7906-.3367-9.8284-.5049-14.3876,1.2559-4.3693,1.6875-7.751,5.1224-11.96,7.1384-.586.2806-.171,1.2917.447,1.06Z"/><path class="cls-4" d="M157.9213,104.133c9.3742.3323,18.8308-.1411,28.21-.2739q3.3093-.0469,6.6184-.101c2.3119-.039,4.91-.3851,7.1322.3351,2.8517.9242,5.4913,3.24,7.9674,4.8726,2.5869,1.7053,5.1374,3.5028,7.8108,5.07.6727.3942,1.1965-.58.5974-1.022-2.6273-1.9379-5.4269-3.659-8.1518-5.4564a49.181,49.181,0,0,0-7.03-4.4024c-3.8916-1.6973-9.26-.7043-13.4159-.637-9.8834.16-19.8771-.1-29.7379.6076a.5042.5042,0,0,0,0,1.0078Z"/><path class="cls-4" d="M76.4855,82.78c3.2125-7.1739,11.42-7.664,18.2611-7.1283,7.536.59,15.0468,1.2489,22.6048,1.5189q11.3841.4067,22.7792.1146c3.2219-.0823,8.1917-1.2164,11.0772.4655,2.855,1.6641,4.5417,4.7138,6.94,6.8895.45.4081,1.2994-.1457.8927-.6888-1.87-2.4959-3.9028-5.2262-6.5012-7.0062-2.8426-1.9472-6.1732-1.3025-9.4378-1.1951q-13.3662.44-26.7395-.0634-6.433-.2462-12.8569-.6937c-4.4712-.3151-9.0013-.9974-13.489-.8622-5.89.1775-12.1991,2.3709-14.5849,8.2045-.2454.6.7878,1.0411,1.0549.4447Z"/></g></svg>