<svg xmlns="http://www.w3.org/2000/svg" viewBox="0 0 278 240"><defs><style>.cls-1{fill:#f7fafc;}.cls-2{fill:#ffefaf;}.cls-3{fill:#303030;}.cls-4{fill:#e93a1d;}.cls-5{fill:#172df8;}</style></defs><title>DN_Service-SEO-img-6</title><g id="back"><path class="cls-1" d="M133.5656,236.0822a21.7323,21.7323,0,0,1-10.5449-2.8389c-.9756-.5361-2.0879-1.2119-3.502-2.1279-2.083-1.3477-4.89-3.2617-8.582-5.8516-3.4736-2.4365-7.7705-5.501-12.8457-9.1611a20.0143,20.0143,0,0,1-32.2344,2.2656S51.2218,201.0168,36.59,183.6242c-7.3242-8.7051-14.6465-17.4209-20.1367-23.98-2.7676-3.3057-5.0723-6.0684-6.6855-8.0146C5.7892,146.8263,2.03,142.29,2.7384,134.0685a20,20,0,0,1,7.0928-13.626A21.09,21.09,0,0,1,17.52,116.48C6.088,100.6291,4.9708,94.1593,5.2775,87.9689a21.733,21.733,0,0,1,4.6-12.4707A20.0026,20.0026,0,0,1,13.1818,67.49a20.6484,20.6484,0,0,1,2.4756-4.62,21.31,21.31,0,0,1,5.6748-7.4043,19.9978,19.9978,0,0,1,18.585-3.8418,19.0807,19.0807,0,0,1-1.1709-8.6172,20.1272,20.1272,0,0,1,7.1-13.7422c2.4922-2.0889,11.1035-8.0381,22.8086-2.35a19.934,19.934,0,0,1,7.0449-13.3418c1.96-1.6445,12.0469-9.1211,24.7744-1.0781a19.9536,19.9536,0,0,1,4.4775-5.333,20.2385,20.2385,0,0,1,23.87-1.5215,20.06,20.06,0,0,1,22.9414.5674c.373.2637.916.6631,1.6133,1.1953.9375.7168,2.2959,1.7822,4.0127,3.1475,3.0605,2.4346,7.5107,6.02,13.2246,10.6563q.7017.5684,1.4277,1.1582a20.5563,20.5563,0,0,1,2.248-2.2021A20.0049,20.0049,0,0,1,206.6769,31.172c5.1553,6.709,19.5547,21.5918,29.4561,31.8252,31.8467,32.9141,39.34,41.1465,38.708,53.3027a20.899,20.899,0,0,1-7.3887,14.8916,20.0147,20.0147,0,0,1-3.583,2.4023c7.6611,10.9346,9.9092,17.2324,9.5146,23.9795a20.9464,20.9464,0,0,1-7.4678,14.9863,20.1573,20.1573,0,0,1-1.9834,1.4668,19.94,19.94,0,0,1-7.1084,14.13,20.3063,20.3063,0,0,1-8.3213,4.2207,19.97,19.97,0,0,1-28.92,21.3936c-.0078.13-.0176.26-.0273.3906a19.9983,19.9983,0,0,1-7.0781,13.6943c-8.6855,7.2861-20.0352,7.0273-33.7373-.7676q-2.7129-1.5439-5.8086-3.57a20.1712,20.1712,0,0,1-19.1963,11.2451,20.1742,20.1742,0,0,1-4.9766.3076,20.1238,20.1238,0,0,1-8.8975-.0107A19.9466,19.9466,0,0,1,133.5656,236.0822Z"/></g><g id="Layer_2" data-name="Layer 2"><path class="cls-2" d="M41.1931,169.5394c.5927-4.2568-2.1211-9.6934,5.2019-11.54,1.4719-.3712,3.0988-.2929,4.32-1.3872,2.9284-2.6233.8575-8.751,2.5667-12.721,2.2532-5.2334,8.8581-2.9522,12.1075,1.3813s5.7919,10.3352,10.4168,11.6648a13.2435,13.2435,0,0,1,11.8986-5.7434c4.4.2138,8.6262,2.0959,12.7717,3.9576,4.3579,1.9571,8.941,4.1091,11.8552,8.6168,2.9709,4.5955,3.6918,10.8649,6.1418,15.92,3.44,7.0983,10.4648,11.1714,17.0089,9.8626,2.582-.5164,5.1471-1.791,7.7309-1.29,2.3613.4582,4.65,2.3812,6.96,1.6151,2.8111-.9324,4.3448-5.5113,7.2474-5.73,2.506-.189,4.261,2.9643,6.5,4.3872,2.04,1.2962,4.4537,1.1087,6.7327.87q10.2311-1.0732,20.4187-2.7018a8.88,8.88,0,0,0,4.8683-1.8617c4.8379-4.4241,1.7679-16.7054,7.298-19.5867,2.9709-1.5479,6.2488,1.1342,8.444,4.0821s4.2864,6.5216,7.4276,7.394c4.484,1.2454,10.817-2.7453,12.8439,2.42,1.8492,4.7122-3.402,11.3322-.4083,15.0062,2.61,3.2035,6.5872-1.4608,8.1881-5.5766,3.0249-7.7772,5.7937-16.3871,4.4167-24.8651s-8.6959-15.8788-15.0856-12.6032c-1.0967.5622-2.18,1.4158-3.3607,1.2864-2.0418-.2239-3.1141-3.153-3.4323-5.6906-1.1933-9.5164,2.3871-19.181,7.6352-26.2194,1.7316-2.3223,3.6655-4.46,4.9916-7.17,3.3729-6.891,2.4286-16.6243,7.0039-22.3231,1.3557-1.6887,3.5762-2.8388,5.1415-1.4639a5.6567,5.6567,0,0,1,1.3475,2.2508c2.7152,7.0947,1.6082,15.8459,4.59,22.77,3.1126,7.2281,9.8445,10.6305,16.1966,12.6524,1.1373.362,2.4905.6368,3.36-.3513,1.222-1.3893.4612-3.912-.42-5.66a79.0093,79.0093,0,0,0-14.81-20.6076c-3.4376-3.3994-7.4776-7.0338-7.9833-12.4849-.93-10.02,10.7933-18.0043,7.915-27.4244-1.511-4.9451-6.2571-6.7286-10.3825-7.873l4.4555-11.45a5.3937,5.3937,0,0,0,.5273-2.9835c-.5839-2.79-3.9594-1.6028-5.7885.1477l-8.8467,8.4668a9.134,9.134,0,0,0-2.9751,4.3293c-.2948,1.222-.1781,2.5388-.3505,3.797-.9211,6.7207-8.2238,7.4521-13.0642,10.5669-5.281,3.3982-8.0815,10.6163-11.4032,16.7823s-8.602,12.1457-14.4316,10.74c.6506-2.1055-1.1611-4.0739-2.7963-5.0219a21.7947,21.7947,0,0,0-24.0911,1.497,3.2723,3.2723,0,0,1-1.5725.8c-1.7067.1235-2.4617-2.9261-1.7378-4.867s2.2283-3.2442,3.135-5.0606.8336-4.8224-.7957-5.4713c-8.4933,2.5242-17.4336,5.3474-23.6784,12.9907-1.7734,2.1705-3.341,4.7391-5.5689,6.101A4.6507,4.6507,0,0,1,134.6,94.87c-.8263-.2186-1.3122-1.1927-1.8172-1.3274-1.2128-.3234-.45-1.2758-1.5372-.2129-1.0174.9943-.1945,4.9373-.3453,6.3061-.398,3.6133-3.8464,17.4225-9.3542,16.32-5.9805-1.1969,1.267-6.8108,2.5375-8.4675,2.5346-3.3075,3.2887-9.528,3.9192-13.5042.158-.9966,1.115-4.8563.1-5.677-2.2586-1.8257-3.6217,4.9864-4.0718,6.1788-.5354,1.4184-4.13,8.1763-3.532,9.3721-1.9272-5.06-6.5792-8.2567-11.02-7.5728-2.1677.3339-4.4561,1.47-6.4391.3228-1.724-.9971-2.5834-3.3757-3.6849-5.3139C95.76,84.9671,88.1323,82.9343,82.7939,86.88c-1.1889.8788-2.3518,2.0422-3.7314,2.0994-2.1267.0882-3.803-2.7749-3.6252-5.4323a8.611,8.611,0,0,1,3.5957-6.2349c.8277,5.2941,7.5563,5.6222,10.22,1.3842S91.5292,68.4227,90.66,63.139a3.8373,3.8373,0,0,0-1.0875-2.5356c-.8289-.5781-1.8509.0031-2.67.6028A63.6371,63.6371,0,0,0,73.4288,74.7513a18.1839,18.1839,0,0,1-3.3832,3.88c-1.5934,1.1889-3.4792,1.5438-5.28,2.1007C51.45,84.85,41.7584,102.5411,43.4754,119.5949c.3028,3.0075.8847,6.2412-.2253,8.9345a11.5159,11.5159,0,0,1-3.3955,4.1454c-3.9007,3.4305-10.0257,4.8979-12.6538-1.2418-1.1559-2.7053.9209-4.5212-1.7356-7.0133-2.6015-2.4405-6.07-1.888-6.7851,1.7342-.9136,4.6287,3.2183,4.0361,5.5478,6.5846,2.6882,2.9409,3.5465,8.5063,3.8177,12.2769.4876,6.779.783,13.36,3.1433,19.8288,1.1109,3.0445,3.4991,12.7834,8.5638,7.7663A5.1252,5.1252,0,0,0,41.1931,169.5394Z"/><path class="cls-3" d="M41.9695,169.5394c.2176-1.92-.1283-3.829-.0005-5.7477.2145-3.221,2.3923-4.5518,5.3829-5.1847,2.2146-.4686,4.0707-.8962,5.0989-3.1077,1.0592-2.2781.7551-5.0357.8791-7.4691.1584-3.11,1.1961-6.6421,4.9851-6.261,2.9321.2949,5.3148,2.53,6.9359,4.8194,2.8982,4.0929,5.2106,9.4822,10.3222,11.1945a.8967.8967,0,0,0,.9911-.4033c6.7433-9.56,19.2406-3.912,27.4027.3992a19.3034,19.3034,0,0,1,9.6038,10.5046c1.5769,4.1491,2.3873,8.6092,4.4986,12.5482,3.3782,6.3024,10.3071,10.9933,17.647,9.5656,2.8263-.55,5.4023-1.9176,8.3217-.9931,1.79.5668,3.4886,1.695,5.4437,1.5018,3.4525-.3411,4.2089-4.1854,6.9586-5.525,2.3376-1.1388,4.0638,1.42,5.6156,2.7913a8.3178,8.3178,0,0,0,4.5292,2.1808,26.6542,26.6542,0,0,0,6.5046-.3368q4.1413-.461,8.2718-1.0122,3.7649-.5016,7.52-1.0761c2.0639-.3162,4.3474-.4647,6.2308-1.4535,2.5967-1.3633,3.7158-4.154,4.3084-6.8727.6911-3.1708.7311-6.4707,1.61-9.6023.4365-1.5553,1.1311-3.2258,2.6746-3.9613,2.6633-1.2693,5.321,1.39,6.8671,3.2947,2.284,2.8134,4.1012,6.6507,7.689,8.039,3.1414,1.2156,6.3833-.2376,9.5884-.0625,5.3775.2937,3.2683,6.818,2.4566,10.1165-.6272,2.5485-1.2195,5.8318,1.0352,7.7982,2.2328,1.9474,4.879.1884,6.4732-1.6653,2.7432-3.19,3.992-7.6553,5.222-11.5909,2.6222-8.39,4.1018-18.5181-1.0752-26.2764-1.78-2.6678-4.3305-5.151-7.513-5.9894a8.1542,8.1542,0,0,0-4.2011-.0124c-2.4131.6542-5.1,3.0063-6.4433-.451-1.7728-4.5613-.88-10.5279.3862-15.1a40.2758,40.2758,0,0,1,6.5059-13.1924c2.7037-3.646,5.3212-6.9344,6.5567-11.3862,1.1157-4.02,1.4714-8.2114,2.6228-12.2224a15.0972,15.0972,0,0,1,2.79-5.7938c1.4136-1.6323,3.145-2.4331,4.6049-.0308a13.1379,13.1379,0,0,1,1.1878,3.6432c1.1093,4.65,1.15,9.47,2.0419,14.1576,1.5782,8.2906,6.7,14.02,14.3873,17.29,2.208.9392,6.218,3.1268,8.3072.9031,2.3742-2.5269-.2062-6.7447-1.4941-9.1136A82.4379,82.4379,0,0,0,264.034,106.74c-2.7809-3.5288-6.009-6.5525-9.0663-9.8216-3.2077-3.43-5.4419-7.4967-4.54-12.3172.6932-3.7066,2.7533-6.9956,4.5453-10.2521,3.0248-5.4967,5.8341-12.4621.9279-17.856-2.2825-2.5093-5.619-3.6891-8.7957-4.59l.65,1.1456c1.5637-4.0182,3.47-8.0453,4.7217-12.17.5758-1.8967.4472-4.4891-1.8854-5.0331-2.43-.5667-4.6372,1.4725-6.22,2.9871-3.0259,2.8958-6.3712,5.6629-9.1237,8.8205a8.3543,8.3543,0,0,0-1.9175,3.41c-.4419,1.76-.1234,3.6164-.7135,5.3528-1.02,3.0023-3.9687,4.4721-6.6653,5.6993-2.6167,1.1908-5.2811,2.2452-7.4692,4.1673a28.7149,28.7149,0,0,0-5.8735,7.9729c-1.9784,3.6145-3.5924,7.45-5.899,10.8764-2.5213,3.7455-6.48,8.1331-11.4812,7.1646l.6527,1.15c1.1-5.9219-7.2811-8.3925-11.7151-8.9532a22.645,22.645,0,0,0-9.6691.8744,23.8425,23.8425,0,0,0-4.17,1.7755c-1.4381.7825-3.7451,3.2955-4.7661,1.1468-1.3333-2.806,3.1457-6.25,3.7069-8.8805.3319-1.5558.2333-4.5123-1.6765-5.1392-.9891-.3247-2.2459.3609-3.2044.6556-1.6717.514-3.3365,1.0512-4.98,1.6492a48.5206,48.5206,0,0,0-8.7612,4.0795,31.7292,31.7292,0,0,0-8.4112,7.4481,29.6973,29.6973,0,0,1-3.8618,4.5538c-1.005.8481-2.3564,1.6325-3.631,1.1155a9.9594,9.9594,0,0,1-2.0334-1.3885.9614.9614,0,0,0-1.0481-.4265c-2.5587.7694-1.7971,4.461-1.7045,6.3874a21.0745,21.0745,0,0,1-1.2525,6.874c-.866,2.9-1.9441,6.1336-4.0108,8.4215a3.2741,3.2741,0,0,1-3.1959,1.35c-2.374-.5009-.8055-2.4509.141-3.57,1.7964-2.1248,3.6735-3.602,4.7746-6.253,1.4087-3.3914,1.8346-7.0541,2.4362-10.6458.3133-1.8705,1.5322-5.3145-.0928-6.8675-1.62-1.5486-3.2648.2706-3.9743,1.7126-1.1219,2.28-1.5962,4.8123-2.6826,7.1251-.9153,1.9484-3.1546,5.35-2.49,7.6119l1.78-.4906c-1.7332-4.1912-5.23-7.9461-10.0019-8.3108-3.359-.2567-7.0891,2.4449-9.4346-1.147-1.4581-2.2329-2.3321-4.6508-4.2932-6.5442a12.4026,12.4026,0,0,0-11.682-3.2808,11.326,11.326,0,0,0-2.828,1.214c-1.1173.6667-2.3668,2.21-3.6575,2.435-2.9708.5184-3.4224-3.8558-2.9022-5.7276a8.4,8.4,0,0,1,3.0936-4.2894l-1.5348-.4052c1.2819,6.23,9.1346,6.2622,12.086,1.2786,2.1816-3.6837,2.2146-8.3254,1.7861-12.4558-.2444-2.3563-.4011-7.9007-4.1391-6.7533-1.7779.5457-3.5609,2.3772-4.9585,3.5649a62.5852,62.5852,0,0,0-5.6159,5.4183c-1.5556,1.6983-3.0147,3.48-4.3979,5.3206a23.0151,23.0151,0,0,1-2.8737,3.5236,11.7875,11.7875,0,0,1-4.736,2.1673c-7.2145,2.1566-12.8366,7.3165-16.7062,13.6762A43.1921,43.1921,0,0,0,42.4,117.3015c.0979,2.3.5184,4.5763.5758,6.8774.085,3.4059-1.2059,5.7048-3.766,7.851-2.6964,2.2605-7.1785,4.1958-9.985,1.0049-1.8078-2.0554-1.1-3.9244-1.4758-6.2905a5.5137,5.5137,0,0,0-2.3218-3.5325c-2.0837-1.5333-5.0608-1.6954-6.6989.5553-1.5034,2.0656-1.5542,5.2022.5124,6.864,1.1029.8868,2.5224,1.2622,3.6417,2.1277,1.9409,1.5008,2.807,4.1075,3.3782,6.4,1.297,5.2069,1.074,10.7051,1.7689,16.0067A61.0672,61.0672,0,0,0,31.375,168.172c.8381,2.3006,1.9977,5.6574,4.5642,6.5515,3.0842,1.0745,5.6278-2.3184,6.1185-4.9458.2106-1.1278-1.517-1.6112-1.7289-.4766-.2759,1.4773-1.5829,4.15-3.5686,3.7963-1.1885-.2118-1.9673-1.6879-2.4709-2.6379a44.1062,44.1062,0,0,1-2.5415-6.7376c-2.6159-7.8321-1.8548-16.0129-3.5039-23.98-.5835-2.8189-1.5672-6.0125-3.7567-8.0222-1.9881-1.8249-5.8338-2.0831-4.8486-5.6466a2.7628,2.7628,0,0,1,4.3588-1.6436c2.3067,1.38,1.7787,3.2215,1.9276,5.4167a7.6356,7.6356,0,0,0,3.9243,5.9739c4.5861,2.3709,10.16-1.2607,12.9559-4.815,2.2571-2.8692,2.1285-6.2966,1.7637-9.7525a45.7978,45.7978,0,0,1,.0766-11.6851A39.8894,39.8894,0,0,1,53.519,89.5826a27.6835,27.6835,0,0,1,7.6624-6.342c2.953-1.608,6.5929-1.8549,9.326-3.8194a18.56,18.56,0,0,0,3.7117-4.2079,69.2925,69.2925,0,0,1,4.98-5.9527,62.5634,62.5634,0,0,1,5.0186-4.7745c.88-.7473,2.0669-2.1028,3.1471-2.4887l.6462-.4285,1.6251,1.0757a6.7617,6.7617,0,0,1,.3619,2.2251c.5926,4.3243,1.0757,10.0471-1.8064,13.7192-2.4839,3.1648-7.4131,2.6609-8.2729-1.5208a.93.93,0,0,0-1.5348-.4052c-3.5106,2.7663-5.9906,9.46-1.3962,12.5878,1.8328,1.2475,3.6695.3724,5.2672-.7985,2.7341-2.0037,5.4669-3.2088,8.9249-2.4022a11.79,11.79,0,0,1,7.38,5.7085c1.2747,2.18,2.1687,5.0351,4.7721,5.9738,2.68.9664,5.343-.8482,8.0545-.587,3.8783.3735,6.8077,3.5355,8.2223,6.9576.4392,1.0624,2.1245.6838,1.78-.4906-.2876-.98.7677-2.7815,1.133-3.6286.5622-1.3038,1.1922-2.5765,1.7878-3.8649.8211-1.7763,1.1516-3.6994,1.929-5.4891.1749-.4028.5747-1.5868,1.1-1.483s.282,1.4475.2306,1.9327c-.17,1.6048-.5394,3.2174-.7911,4.8123-.5536,3.508-1.0612,7.65-3.1426,10.6376-1.4878,2.1352-8.0671,6.7813-4.2058,9.5833,4.3413,3.15,7.9455-2.5139,9.4032-5.8307a41.4915,41.4915,0,0,0,2.643-8.47,15.0221,15.0221,0,0,0,.3676-2.7529c.0113-.8265-.798-4.9784.3112-5.3118l-1.0481-.4265c3.5463,4.8578,8.2651,1.4757,11.1-2.15a37.0462,37.0462,0,0,1,16.6376-12.4077c1.4035-.5369,2.8263-1.0228,4.2566-1.4831,1.3429-.4321,3.817-1.8514,4.3866-.05.9736,3.0787-2.9254,5.6944-3.6831,8.4059-.4691,1.6787-.2821,4.2689,1.3188,5.3484,2,1.3485,4.1792-1.1149,5.8009-2.0338a21.1488,21.1488,0,0,1,11.7291-2.7368c3.2342.2082,12.311,1.9824,11.4269,6.7368a.9491.9491,0,0,0,.6527,1.15c5.806,1.125,10.3079-3.2652,13.3629-7.6845,3.928-5.6822,5.8205-12.7868,10.6826-17.8293,3.7123-3.85,9.4-4.3735,13.2446-7.9712a9.1,9.1,0,0,0,2.8272-5.886c.238-2.3369.2783-4.1806,1.9661-6.0384,1.2769-1.4055,2.74-2.6668,4.1111-3.9791,1.7008-1.6279,3.3839-3.2771,5.1037-4.8849a9.885,9.885,0,0,1,2.0876-1.6542,3.3155,3.3155,0,0,1,1.0439-.4291c.9628-.0852,1.6422.841,1.7321,1.896.0675.7918-.7136,2.0671-.9934,2.7862l-1.1995,3.0828-2.7416,7.0465a.9408.9408,0,0,0,.65,1.1456c4.0181,1.1386,8.3706,2.861,9.7325,7.2225,1.1353,3.6358-.2645,7.2877-1.9181,10.5145-3.0426,5.9373-7.579,12.0985-5.5748,19.1392,1.0091,3.545,3.5044,6.385,6.0519,8.9379a91.62,91.62,0,0,1,9.2078,10.3694c2.8465,3.8733,5.9868,8.2763,7.6642,12.8142.4571,1.2367,1.0543,3.4182-.8137,3.9094-.7591.2-2.09-.4713-2.8085-.7206a34.4537,34.4537,0,0,1-5.7511-2.5557,19.5094,19.5094,0,0,1-8.8315-9.7742c-1.7888-4.6177-1.8976-9.6848-2.5589-14.5371-.4128-3.0286-.8226-8.2249-3.5006-10.2837-2.5668-1.9732-5.53.441-6.9856,2.5983-4.6281,6.8578-3.0121,16.0342-7.2752,23.0843-2.419,4-5.6538,7.3179-7.7958,11.5232a39.4,39.4,0,0,0-4.03,12.7595c-.4864,3.7329-.7311,8.386.9891,11.8745,1.6074,3.26,3.9572,2.9335,6.7829,1.4973,4.1933-2.1313,8.2911.4977,10.8011,3.9438,2.9821,4.0942,3.8289,9.0941,3.5739,14.0646a53.3,53.3,0,0,1-3.5817,15.3052,23.7635,23.7635,0,0,1-3.0717,6.4327,6.2889,6.2889,0,0,1-2.4575,2.2409c-1.7194.6257-2.7413-.734-2.9455-2.3174-.5853-4.538,5.3643-14.1042-2.146-16.0077-3.1317-.7937-6.3385.8966-9.474.2657-4.3946-.8842-6.2651-6.19-9.1314-9.11-2.0956-2.1349-5.24-3.982-8.1622-2.2864-2.1242,1.2324-3.0235,3.6911-3.5241,5.9665-.7009,3.1856-.7489,6.4926-1.6149,9.6454a8.0689,8.0689,0,0,1-2.1413,4.0007c-1.9751,1.7495-5.3966,1.7894-7.8759,2.1632-5.7007.86-11.43,1.6438-17.1705,2.1831-2.602.2444-4.9075.1653-6.9766-1.63-1.237-1.0734-2.2952-2.4771-3.8019-3.2029-2.767-1.333-4.8294.6381-6.5438,2.6218-1.5157,1.7539-2.7622,3.17-5.3107,2.5728-2-.4689-3.5846-1.6409-5.7161-1.6434-2.1586-.0025-4.1647.8739-6.244,1.3239a12.5171,12.5171,0,0,1-6.5165-.3,17.2541,17.2541,0,0,1-9.9284-9.0614c-1.9887-4.0631-2.7307-8.61-4.5052-12.7616a19.3221,19.3221,0,0,0-7.3411-8.7352,60.7116,60.7116,0,0,0-11.6985-5.5724c-3.836-1.4546-7.974-2.3914-12.0556-1.5026a14.1357,14.1357,0,0,0-8.5853,5.8225l.9911-.4033c-6.3639-2.1578-7.6235-10.5463-12.8984-14.1809-3.6824-2.5373-8.9765-2.8109-10.76,2.0537-.99,2.7011-.5354,5.6338-.8025,8.4378-.2507,2.6316-1.27,3.9594-3.8914,4.5532a13.8328,13.8328,0,0,0-4.2559,1.3567c-4.2081,2.5178-2.5729,7.2172-3.0148,11.2283C40.3074,170.5324,41.8582,170.5217,41.9695,169.5394Z"/><path class="cls-4" d="M96.0028,122.7814c-2.2912-.2764-2.9385-4.3359-2.546-6.1268a3.1424,3.1424,0,0,1,2.9417-2.6225c2.2649-.018,3.1885,2.9322,2.9289,4.7525-.172,1.2062-1.0915,3.5766-2.449,3.928A2.3526,2.3526,0,0,1,96.0028,122.7814Zm8.3956-7.2512c-.8344-3.2954-5.89-6.4407-9.3319-6.327-10.9514.3623-5.8074,20.2589,1.467,26.4122C98.2589,129.7841,106.03,121.9725,104.3985,115.53Z"/><path class="cls-2" d="M32.2917,82.7491c-.9944,1.7166.2583,3.8216,1.4623,5.3982.6348.8312,1.8057,1.73,2.5728,1.0194a1.9111,1.9111,0,0,0,.4383-1.2928c.1389-1.7238.2456-3.5868-.6815-5.0466s-3.33-2.0522-4.3584-.662"/><path class="cls-3" d="M31.725,82.4179c-1.1754,2.2157.1437,4.68,1.63,6.4151,1.3654,1.5939,3.7942,1.9187,4.1626-.6055.3206-2.1971.3662-5.1479-1.5015-6.7131-1.3613-1.1408-3.9352-1.5309-4.9079.29-.31.5811.36,1.4222.978.978a2.1518,2.1518,0,0,1,2.8221-.0089c1.0919.8746,1.1657,2.5011,1.1357,3.79-.0092.3946.1026,1.49-.1376,1.8045-.5327.6969-1.4327-.4993-1.7655-.9431-.8929-1.1909-1.9443-2.8167-1.2825-4.3445.3266-.754-.7279-1.4266-1.1333-.6624Z"/><path class="cls-2" d="M113.0755,89.8308a3.3236,3.3236,0,0,0,.4244-.819c1.2181-3.2417.3854-6.0362,3.1193-8.9769a12.0754,12.0754,0,0,1,10.0624-3.7113c2.383.2755,4.9149,1.2466,7.07.1932a2.4555,2.4555,0,0,0,1.5284-2.2212c-.1564-1.8815-2.8254-2.0825-4.6778-1.7177l-11.9567,2.3544c-1.9638.3867-4.0318.8239-5.5173,2.1652a8.5855,8.5855,0,0,0-2.1077,3.364,13.8868,13.8868,0,0,0-1.0063,6.4837C110.3275,89.0871,111.94,91.3507,113.0755,89.8308Z"/><path class="cls-3" d="M113.5865,90.1295c2.12-3.2433,1.039-7.2059,4.0909-10.0846,3.6456-3.4386,7.7019-2.9839,12.2237-2.38,2.258.3018,6.3556-.1654,6.2014-3.37-.1108-2.3037-2.7848-2.7994-4.62-2.67-4.0325.2852-8.1694,1.5314-12.14,2.3162-3.3912.67-6.6015,1.3763-8.3848,4.6293-1.5369,2.8035-2.5931,6.9136-1.3663,9.9987.6557,1.6489,2.4017,3.5677,3.9918,1.7681a.7182.7182,0,0,0-1.0151-1.0151c-.7285.5738-1.6472-2.244-1.6914-2.5279a8.8808,8.8808,0,0,1,.0644-2.9192,15.042,15.042,0,0,1,1.1812-3.8228c1.513-3.2657,4.4548-3.8564,7.6664-4.4932q4.3675-.8661,8.7368-1.7231a12.9886,12.9886,0,0,1,3.8748-.57l.9564.1285q.7065,2.7667-1.209,2.7071a7.717,7.717,0,0,1-2.84-.1421c-4.1359-.6659-7.9649-.5928-11.4872,2.0058a9.9461,9.9461,0,0,0-3.5807,4.5644c-.8116,2.2473-.4481,4.907-1.6746,7.0015A.5922.5922,0,0,0,113.5865,90.1295Z"/><path class="cls-3" d="M97.7187,134.7187c-2.5739-3.7694-5.3649-7.49-6.8029-11.8784-1.25-3.8142-2.1054-11.08,3.4413-11.7924,2.1693-.2787,5.8265.6681,7.4176,2.2673,2.0183,2.0286.9508,5.15.0772,7.44-1.8028,4.7259-4.0818,9.28-5.76,14.0523-.3121.8875,1.1184,1.5031,1.5315.6456,1.5612-3.241,2.8261-6.6442,4.2053-9.9661,1.1642-2.804,2.799-5.7917,2.89-8.8974.1549-5.256-6.0135-7.9246-10.6143-7.3928-4.9819.5759-6.39,5.9217-5.8507,10.1882.7766,6.1418,4.3949,11.6073,8.4705,16.1009.4765.5254,1.4023-.1687.9939-.7669Z"/><path class="cls-3" d="M94.7414,121.0161c-.2691.2139-1.07-1.9488-1.1469-2.246a4.34,4.34,0,0,1-.0779-2.3119c.4555-1.56,2.2045-2.55,3.4893-1.2642,1.5435,1.5442,2.166,7.2551-1.2525,6.4441a.7566.7566,0,0,0-.58,1.3762c2.5176,1.69,4.642-1.5079,4.7222-3.7228.0847-2.34-.8521-5.6192-3.4359-6.2747-2.6008-.66-4.6635,1.8968-4.6788,4.2883-.0081,1.2635,1.7106,6.8921,3.7687,4.519a.5717.5717,0,0,0-.8079-.8079Z"/><path class="cls-4" d="M126.2713,144.8053a4.4476,4.4476,0,0,0,1.6983.6166c3.4341.62,5.8736-2.4,3.4065-5.0529C129.0434,137.8612,123.3223,142.8185,126.2713,144.8053Z"/><path class="cls-4" d="M109.4687,148.7612a4.4476,4.4476,0,0,0,1.6983.6166c3.4341.62,5.8736-2.4,3.4065-5.0529C112.2408,141.8171,106.52,146.7744,109.4687,148.7612Z"/><path class="cls-4" d="M74.6745,144.8053a4.4476,4.4476,0,0,0,1.6983.6166c3.4341.62,5.8736-2.4,3.4065-5.0529C77.4466,137.8612,71.7256,142.8185,74.6745,144.8053Z"/><path class="cls-4" d="M34.2145,161.729a4.4476,4.4476,0,0,0,1.6983.6166c3.4341.62,5.8736-2.4,3.4065-5.0529C36.9866,154.7849,31.2655,159.7422,34.2145,161.729Z"/><path class="cls-4" d="M62.4207,118.1766a4.4476,4.4476,0,0,0,1.6983.6166c3.4341.62,5.8736-2.4,3.4065-5.0529C65.1928,111.2324,59.4718,116.19,62.4207,118.1766Z"/><path class="cls-4" d="M140.8912,175.7047a2.1793,2.1793,0,0,1,2.651,2.4723c-.1606,1.4361-2.5339,3.7023-3.9433,2.2661C138.55,179.3728,139.3472,175.98,140.8912,175.7047Z"/><path class="cls-4" d="M124.9959,149.3691a2.1793,2.1793,0,0,1,2.651,2.4723c-.1606,1.4361-2.5339,3.7023-3.9433,2.2661C122.655,153.0372,123.4519,149.6443,124.9959,149.3691Z"/><path class="cls-4" d="M128.4633,178.3252a2.1793,2.1793,0,0,1,2.651,2.4723c-.1606,1.4361-2.5339,3.7023-3.9433,2.2661C126.1224,181.9933,126.9193,178.6,128.4633,178.3252Z"/><path class="cls-4" d="M32.9391,143.6814a2.1793,2.1793,0,0,1,2.651,2.4723c-.1606,1.4361-2.5339,3.7023-3.9433,2.2661C30.5982,147.35,31.3951,143.9567,32.9391,143.6814Z"/><path class="cls-4" d="M56.611,90.37a2.1793,2.1793,0,0,1,2.651,2.4723c-.1606,1.4361-2.5339,3.7023-3.9433,2.2661C54.27,94.0384,55.0671,90.6455,56.611,90.37Z"/><path class="cls-4" d="M182.4223,139.7406a3.25,3.25,0,0,0-3.4156-4.7587c-2.0065.4792-2.4242,3.0585-1.4882,4.6344C178.5259,141.3124,181.3929,141.5145,182.4223,139.7406Z"/><path class="cls-4" d="M264.4389,119.2684a3.25,3.25,0,0,0-3.4156-4.7587c-2.0065.4792-2.4242,3.0585-1.4882,4.6344C260.5424,120.84,263.4094,121.0423,264.4389,119.2684Z"/><path class="cls-4" d="M236.8823,162.8785a3.25,3.25,0,0,0-3.4156-4.7587c-2.0065.4792-2.4242,3.0585-1.4882,4.6344C232.9859,164.45,235.8529,164.6523,236.8823,162.8785Z"/><path class="cls-4" d="M188.3392,179.3066c-1.1354,1.3362-.2135,4.2517,1.8027,3.8988,1.417-.2481,3.3176-2.1914,2.3093-3.663C191.79,178.5775,189.2213,178.0535,188.3392,179.3066Z"/><path class="cls-4" d="M237.63,75.2962c-1.1354,1.3362-.2135,4.2517,1.8027,3.8988,1.417-.2481,3.3176-2.1914,2.3093-3.663C241.0813,74.5671,238.5126,74.0431,237.63,75.2962Z"/><path class="cls-4" d="M84.3549,68.5c-1.1354,1.3362-.2135,4.2517,1.8027,3.8988,1.417-.2481,3.3176-2.1914,2.3093-3.663C87.8058,67.77,85.237,67.2465,84.3549,68.5Z"/><path class="cls-4" d="M38.3724,147.2833c-1.1354,1.3362-.2135,4.2517,1.8027,3.8988,1.417-.2481,3.3176-2.1914,2.3093-3.663C41.8232,146.5542,39.2545,146.03,38.3724,147.2833Z"/><path class="cls-4" d="M151.609,146.5423a2.1683,2.1683,0,0,0,1.3892,2.3,2.7386,2.7386,0,0,0,3.6162-1.6768c.4776-1.7972-.0128-3.6786-1.9942-3.6854A3.3085,3.3085,0,0,0,151.609,146.5423Z"/><path class="cls-4" d="M117.4341,131.0418a2.1683,2.1683,0,0,0,1.3892,2.3,2.7386,2.7386,0,0,0,3.6162-1.6768c.4776-1.7972-.0128-3.6786-1.9942-3.6854A3.3085,3.3085,0,0,0,117.4341,131.0418Z"/><path class="cls-4" d="M120.0262,123.1161a2.1683,2.1683,0,0,0,1.3892,2.3,2.7386,2.7386,0,0,0,3.6162-1.6768c.4776-1.7972-.0128-3.6786-1.9942-3.6854A3.3085,3.3085,0,0,0,120.0262,123.1161Z"/><path class="cls-4" d="M234.4069,169.6438a2.1683,2.1683,0,0,0,1.3892,2.3,2.7386,2.7386,0,0,0,3.6162-1.6768c.4776-1.7972-.0128-3.6786-1.9942-3.6854A3.3085,3.3085,0,0,0,234.4069,169.6438Z"/><path class="cls-4" d="M54.8519,123.1161a2.1683,2.1683,0,0,0,1.3892,2.3,2.7386,2.7386,0,0,0,3.6162-1.6768c.4776-1.7972-.0128-3.6786-1.9942-3.6854A3.3085,3.3085,0,0,0,54.8519,123.1161Z"/><path class="cls-4" d="M52.26,113.3315a2.1683,2.1683,0,0,0,1.3892,2.3,2.7386,2.7386,0,0,0,3.6162-1.6768c.4776-1.7972-.0128-3.6786-1.9942-3.6854A3.3085,3.3085,0,0,0,52.26,113.3315Z"/><path class="cls-5" d="M30.0516,17.2588c8.7312.6258,17.5128.9439,26.2647,1.1176,8.7028.1728,17.6214.6574,26.2881-.08a.4671.4671,0,0,0,0-.9336c-8.6833-.8145-17.5605-.2887-26.2881-.4546-8.7621-.1665-17.5069-.6883-26.2647-.95-.8437-.0252-.8271,1.2415,0,1.3008Z"/><path class="cls-3" d="M30.936,24.5592c3.0636.6842,6.4295.367,9.5552.3827q5.2108.0261,10.4216.0522c6.9476.0287,13.8955.0323,20.8432.0474,13.8929.03,27.795.1677,41.6863-.0794a.5687.5687,0,0,0,0-1.1367c-13.89-.3457-27.793-.3068-41.6863-.3752q-10.1734-.05-20.3469-.0991-5.2108-.017-10.4216-.0221c-3.2827-.0068-6.8315-.38-10.0515.3148a.4782.4782,0,0,0,0,.9153Z"/><path class="cls-3" d="M32.3554,30.7363c10.7173,1.1683,21.6192.8817,32.38.6757,10.8075-.207,21.6044-.3963,32.4127-.1146.7959.0207.7859-1.1851,0-1.23-10.7916-.623-21.6142-.2425-32.4127-.0157-10.8152.2272-21.5721.1323-32.38-.3111-.6522-.0268-.6231.9282,0,.9961Z"/><path class="cls-3" d="M32.825,37.6959c7.2925.2992,14.7353.3678,22.027.041a.6215.6215,0,0,0,0-1.2422c-7.2916-.3268-14.7344-.2582-22.027.041a.58.58,0,0,0,0,1.16Z"/><path class="cls-3" d="M64.11,37.9476c6.1662-.047,12.33-.1256,18.4948-.2907a.6244.6244,0,0,0,0-1.248c-6.1672.0892-12.3307.2651-18.4948.4723a.5335.5335,0,0,0,0,1.0664Z"/><path class="cls-3" d="M88.3344,37.6459c8.4029-.1137,16.7463.1252,25.1226.8186.7849.065.7722-1.144,0-1.2187a168.1276,168.1276,0,0,0-25.1226-.59.4954.4954,0,0,0,0,.99Z"/></g></svg>