<svg xmlns="http://www.w3.org/2000/svg" viewBox="0 0 348 262"><defs><style>.cls-1{fill:#f2f6f9;}.cls-2{fill:#e93a1d;}.cls-3{fill:#ffefaf;}.cls-4{fill:#303030;}</style></defs><title>DN_Service-SEO-img-2</title><g id="back"><path class="cls-1" d="M197.06,259.5539c-6.0391,0-12.7783-2.2187-20.17-6.6543q-2.3335-1.4-4.9326-3.1621a21.4271,21.4271,0,0,1-2.3691,2.3213,19.9983,19.9983,0,0,1-25.8594-.1265l-15.8516-13.5674a19.9609,19.9609,0,0,1-3.8926,4.3887c-4.5723,3.8379-14.4209,8.9175-28.99-.1958A126.9216,126.9216,0,0,1,82.13,232.965q-4.8882-4.0356-11.0449-9.52a20.024,20.024,0,0,1-21.25-12.9028C44.56,203.2961,25.3128,181.4216,8.99,163.6452A20.0025,20.0025,0,0,1,7.761,138.0637c-4.1875-6.63-5.6592-11.4331-5.3174-16.895A20.7519,20.7519,0,0,1,9.7552,106.62a19.936,19.936,0,0,1,7.7705-4.0239c-6.8926-7.939-9.76-12.6455-9.2842-20.187a20.1826,20.1826,0,0,1,7.1328-14.13,19.9579,19.9579,0,0,1,15.5723-4.4956A20.0234,20.0234,0,0,1,43.513,44.1379a21.1107,21.1107,0,0,1,16.8242-2.8623,21.3215,21.3215,0,0,1,4.6738-5.501,19.9917,19.9917,0,0,1,19.127-3.6733,19.9991,19.9991,0,0,1,25.2051-5.1025,19.9837,19.9837,0,0,1,3.5049-3.8193,22.6954,22.6954,0,0,1,16.95-5.123,20.048,20.048,0,0,1,16.5137-.7871,21.3631,21.3631,0,0,1,19.2725-3.5342c4.5068-1.7954,11.126-2.689,19.1846,1.3232a20.0565,20.0565,0,0,1,13.3887-.4507A19.99,19.99,0,0,1,209.69,18.509a19.96,19.96,0,0,1,16.6338,4.9463l16.9131,15.3755A20.0179,20.0179,0,0,1,272.5,47.6281c3.8262,4.7207,14.5908,16.2056,23.42,25.6265,44.5586,47.5425,50.62,55.7954,49.8936,67.9272a21.0373,21.0373,0,0,1-7.4131,14.814q-.1831.1545-.3711.3037l.8926,1.0635a20.0005,20.0005,0,0,1,.4619,25.1392,19.9511,19.9511,0,0,1-3.3027,8.5225,19.959,19.959,0,0,1-7.7627,9.167,20.4979,20.4979,0,0,1-6.49,10.0405,19.7626,19.7626,0,0,1-3.1641,2.1636,21.5548,21.5548,0,0,1-4.9023,5.8755,19.9372,19.9372,0,0,1-8.4121,4.1821,20.4693,20.4693,0,0,1-4.8643,5.9487,20.01,20.01,0,0,1-8.249,4.1406,21.2987,21.2987,0,0,1-2.0576,1.9751,19.9915,19.9915,0,0,1-18.1182,3.9756,19.99,19.99,0,0,1-4.7178,5.7715,20.4116,20.4116,0,0,1-19.9531,3.5845,21.7121,21.7121,0,0,1-2.4277,2.3833,20.2586,20.2586,0,0,1-25.4941.29,20.0109,20.0109,0,0,1-3.2227,3.4253,22.4937,22.4937,0,0,1-14.9863,5.228A23.01,23.01,0,0,1,197.06,259.5539Z"/></g><g id="Layer_2" data-name="Layer 2"><path class="cls-2" d="M199.1738,194.8873c-2.5.8546-4.3526-4.067-.001-3.4011,1.9844.3036,3.1533,2.9092,5.8906,2.203,1.0753-.2774,1.6658-1.6531,2.8991-1.65,1.0663.0026,1.7155,1.17,2.8982,1.43,3.2579.7155,6.7135-1.3262,9.8305-.8067C219.7944,197.8832,203.8736,195.1235,199.1738,194.8873Z"/><path class="cls-3" d="M221.7188,58.915c-.8129-1.0262-1.722-4.4121-2.779-6.1611-.8423-1.3938-2.033-2.0847-3.0548-3.2-1.8076-1.9725-1.5466-1.4368-1.168-3.8871.2853-1.8467,1.7679-4.4114,1.1073-6.3386-1.3284-3.8757-4.563-.6177-7.1537-.6533-4.2417-.0583-4.9811-3.0382-6.6773-5.8552-1.8436-3.0618-4.7223-1.871-6.048,1.1883-3.2505-1.3274-2.4235-5.8652.9052-6.4065,2.8509-.4636,6.9951,2.3767,9.5437,3.528,5.9716,2.6975,16.4522,5.2539,18.486,12.1883C226.2307,47.9223,223.6939,53.7566,221.7188,58.915Z"/><path class="cls-2" d="M184.4,137.6588a84.7651,84.7651,0,0,1,3.5436-9.7925c2.4193-6.1587,6.0136-12.1014,7.8308-18.4721,1.2981-4.5509,3.0374-11.4792,2.6109-16.2473-.3582-4.0043-3.1294-7.1995-4.5529-10.8366-1.6654-4.2552-.04-7.9276-.0523-12.344-.0064-2.3243-.157-5.78,1.1382-7.8134.9206-1.4452,3.2616-3.2115,3.167-.1611-.0942,3.0342-4.0194,9.5446,2.631,9.1945,3.72-.1958,3.8507-4.4346,5.3307-7.0053,1.2012-2.0864,7.3224-7.2878,6.636-1.4223-.25,2.1385-2.5215,4.2689-3.6259,6.0284-1.7908,2.8539-3.03,6.5365-.5774,9.6576,2.1905,2.787,4.6221,1.5944,7.045,2.936.7382,4.6563-4.0947,9.5325-3.48,14.2257.2592,1.9792,1.7254,4.2568,2.5285,5.9827,2.034,4.3712,1.0625,7.9889,1.0052,12.5718-.05,4.0238-2.1093,6.7285-2.8375,10.5227-.9339,4.8662,2.6588,8.3046,4.9866,2.3539,1.8043-4.6125,2.2837-9.6187,3.4384-14.37,2.7283,2.8416,3.4612,7.192,4.6282,10.8816.93,2.939,3.6141,6.2415,4.1447,9.0581.5847,3.1038-2.1068,2.8414-4.75,4.2983-3.5228,1.9416-6.91,3.08-9.9762,5.5736-2.488,2.0232-4.4249,2.8863-7.749,2.6813-4.2831-.2641-8.3266-1.9528-12.23-3.6068-1.8754-.7946-3.7641-2.2178-5.8106-2.4349-.525-.0557-5.4619.7045-5.4273.4876C184.0972,138.9662,184.2348,138.316,184.4,137.6588Z"/><path class="cls-2" d="M197.7074,28.0086c1.1468-2.3291,1.3607-7.2767,3.5792-8.48,2.347-1.2732,8.686.2782,11.2851.9016,3.6776.8821,5.4894,1.948,5.6473,5.5584.123,2.8125-.3339,6.8629-1.8376,9.1306-2.794.1579-6.3851-2.4789-9.1068-3.469C204.7149,30.7188,200.9574,30.354,197.7074,28.0086Z"/><path class="cls-2" d="M147.1,25.5932c-.0144.0694-.0081.1122.0222.1238C151.6468,27.4554,157.57,28.3,160.2256,32.92c1.2289,2.1377,1.2266,5.2384,4.5042,4.56,2.6445-.5472,3.2159-2.0639,6.2633-1.5224.2206-3.8454.9045-10.7278-.8108-14.2814-2.7842-5.7675-7.8305-6.8532-13.6839-5.2908a11.9313,11.9313,0,0,0-5.4861,3.0883C150.5435,19.94,147.2757,24.7464,147.1,25.5932Z"/><path class="cls-2" d="M148.0576,192.9842c2.7912-2.0487,3.9812-5.1266,4.54-8.45a81.4508,81.4508,0,0,0,8.1559,2.54c1.6033.0543,1.7811-.7389,3.2126-1.2318,2.3967-.8252,4.0569.5068,6.2273,1.1181,2.4409.6875,3.4678.2588,3.8549,3.03.2158,1.5449.1357,5.2935-1.5507,6.1153-2.3559,1.1481-2.9237-1.6585-4.3138-2.3918-2.1258-1.1215-2.073,1.2631-3.73,2.2751-2.2974,1.4031-7.1606.7179-9.8369.5546-.1413-.2132-.2685-.3987-.4137-.6251,1.2019-.8912,4.856-2.2154,5.2479-4.0466.5365-2.5071-1.9491-.69-3.2027-.221A21.7307,21.7307,0,0,1,148.0576,192.9842Z"/><path class="cls-2" d="M143.0031,120.0158c-1.3461-2.2428-.6327-5.8506-.7643-8.35-.6472-12.3.988-24.0708-1.2843-36.2779a23.028,23.028,0,0,0-1.4038-5.2739c-.6384-1.3014-1.5173-1.5461-1.8895-3.1357-.9293-3.9694.2476-12.535,4.372-14.4716a5.1479,5.1479,0,0,1,7.1123,3.9219c.2654,2.6529-2.9441,5.6883.2312,7.7129,3.1389,2.0013,5.255-2.3345,6.4006-4.55,2.7321-5.2842,3.5266-7.9863,9.84-5.3248,8.0121,3.3776,8.8442,13.5872,8.2823,21.1544.0114-.1612-8.0017-1.4412-8.9584-.4641-1.6522,1.6874.1059,5.3255.3515,7.28.6426,5.1146-.0543,10.291.1936,15.4232.3158,6.5393,2.9769,15.4614-.1394,21.6432-1.8055,3.5816-4.2442,2.285-7.7173,1.9342-3.1663-.32-6.649-1.273-9.8214-.5709-2.1267.4707-3.0192,1.9372-4.6635-.4316Q143.07,120.1278,143.0031,120.0158Z"/><path class="cls-2" d="M71.5389,7.5767a7.357,7.357,0,0,0-1.3747-3.2115C66.86.4112,59.4853,1.767,55.5149,3.8271c-5.7063,2.9613-10.0814,9.52-12.3567,15.37-.5862,1.5073,1.099,2.6458,2.4113,2.2886a1.32,1.32,0,0,0,1.07-.37C50.6655,17.25,56.3857,11.0627,62.408,10.89c2.2715-.065,6.09,2.0324,7.972.78C71.6159,10.8474,71.828,9.1759,71.5389,7.5767Z"/><path class="cls-2" d="M76.6726,165.9419c-2.0309-9.3374-3.0068-19.1507-4.42-28.0648-1.1712-7.39-2.4138-16.1776-.77-23.564,1.67-7.505,3.5569-12.705.91-20.2027a11.2338,11.2338,0,0,0-.204,1.4158c-3.46.6551-5.0757-3.6417-1.8706-4.7615-1.4778-5.7358-4.81-9.7176-4.2372-15.9759.2592-2.83,1.7544-5.4835,2.2167-8.2886.7461-4.5274-.44-6.7125,4.4012-8.9506,6.18-2.8573,6.3489-.78,5.6627-7.7374-6.3388-.3221-12.6037.8593-18.8.8378-5.396-.0187-13.5352,2.059-18.1214-.8575.7855,2.541-.5272,6.2653,1.09,8.274.7921.9841,3.5308,1.624,4.6233,2.5948a16.0785,16.0785,0,0,1,4.1837,6.462c2.6255,7.8922.325,15.1583-2.8432,21.7689,5.12,1.486,8.7678,3.9022,2.6027,6.6879-2.7465,1.241-3.2017.0414-4.7511,2.99-1.3694,2.606-1.0042,7.8425-.979,10.6464.1111,12.3614,5.4218,23.6475,3.5589,36.2566-2.6247,17.765-10.1059,32.2542-18.1812,47.8419,6.1414-4.3049,11.5349-.91,17.9176.6142,1.8718.4469,4.6174,1.5382,6.4494,1.1982,2.6732-.4961,4.4806-3.3956,7.371-3.7514,6.0214-.7414,18.3389,10.01,23.4369,5.5707,3.5434-3.0857-1.77-10.2886-3.3162-13.3332A73.5327,73.5327,0,0,1,76.6726,165.9419Z"/><path class="cls-3" d="M57.9015,46.2978q-.3845-.4025-.74-.8183a19.7055,19.7055,0,0,0-1.6352-7.1229c-1.4812-3.887-1.2758-6.5807-.6714-10.5921.3793-2.5178.3565-8.1622-3.8-7.43a3.0681,3.0681,0,0,0-2.3966,2.4175,8.59,8.59,0,0,0,.0426,2.2991A12.5874,12.5874,0,0,1,47.6,29.4924c-.6318,1.7515-1.2384,3.0309-1.083,4.9848.146,1.8363,1.0244,3.6749,1.2866,5.443q-.1521.4646-.3033.965A1.7977,1.7977,0,0,0,45.7438,43.23c.1882.6085-1.21,2.18-1.2959,2.9384a3.173,3.173,0,0,0,.6893,2.473c1.4551,1.6527,4.8014,1.5384,7.6949,1.26a2.0833,2.0833,0,0,0,.6282-.0626c1.2055-.1261,2.3-.2607,3.09-.2786A1.9335,1.9335,0,0,0,57.9015,46.2978Z"/><path class="cls-3" d="M73.0157,20.8631a1.44,1.44,0,0,0-2.7566,0c-.4128,1.9309-.29,3.9732-.6754,5.9282a1.3174,1.3174,0,0,0,2.5384.7C72.8455,25.4658,73.4951,23.0114,73.0157,20.8631Z"/><path class="cls-4" d="M40.524,57.1013c-.2426-3.0356-.5178-6.0682-.7937-9.101l-.7483.57a109.0114,109.0114,0,0,0,39.9216,1.0058l-.7524-.4272c.5672,1.8047,1.5449,4.486.2679,6.2013-1.3872,1.8634-2.9667,1.3656-4.8848,1.2784-1.5856-.0721-3.0618.331-3.6588,1.9425-.6372,1.72.2471,3.5873.2752,5.3259.0649,4.0114-8.34,3.0042-11.0619,3.0269a.5775.5775,0,0,0,0,1.1543,32.4091,32.4091,0,0,0,7.8348-.2269,6.2317,6.2317,0,0,0,3.49-1.1032c1.6775-1.5236.7606-3.9807.5677-5.8851-.1472-1.4535-.2587-2.6361,1.8947-3.0276a15.474,15.474,0,0,1,2.71.2382,4.2878,4.2878,0,0,0,2.9375-.9312c2.494-2.1074,1.6466-5.654.8073-8.3185a.6313.6313,0,0,0-.7524-.4272A106.7321,106.7321,0,0,1,39.2963,47.43a.5972.5972,0,0,0-.7483.57c.2724,3.0348.5454,6.0694.8509,9.101.0715.71,1.1831.7274,1.125,0Z"/><path class="cls-4" d="M67.0712,68.2321a23.9135,23.9135,0,0,0-1.6037,11.5641,20.0208,20.0208,0,0,0,1.6232,5.2911c.43.9518,1.0751,1.8565,1.45,2.8247.582,1.5034.26,2.0544-.79,3.1371a.5614.5614,0,0,0-.0868.6724c.8992,1.2205,1.7232,3.691,3.6592,3.3741,1.858-.3041,2.809-2.9124,3.1353-4.4742a.5366.5366,0,0,0-1.034-.2851c-.4429,1.3967-.6573,2.5713-2.1217,3.0575-1.2964.43-1.2219.02-1.8482-.9457-.3573-.5508-.501-.6666-.3924-1.1578.1265-.5723.8967-1.0087,1.0216-1.6876a2.5769,2.5769,0,0,0-.1559-1.3515,24.8423,24.8423,0,0,0-1.4966-2.9056,19.3678,19.3678,0,0,1-2-6.5782A25.3919,25.3919,0,0,1,68.0431,68.5c.2029-.6221-.7542-.8713-.9718-.2679Z"/><path class="cls-4" d="M43.7625,94.183a31.6968,31.6968,0,0,0-2.8572,15.5538c.3186,5.9786,2.1464,11.695,2.6719,17.6315,1.1165,12.6133-1.6535,25.041-4.7685,37.182a.7506.7506,0,0,0,1.4464.3988c2.9112-11.3467,5.5446-22.9452,5.0114-34.739-.2677-5.9219-1.92-11.5311-2.5958-17.3924-.7055-6.1214-.2984-12.2519,2.387-17.8775.4138-.8668-.8791-1.6288-1.2952-.7571Z"/><path class="cls-4" d="M48.0425,67.1541C51.651,73.77,49.8769,81.7212,46.85,88.2071c-.4057.8694.8869,1.632,1.2952.7571C51.4108,81.9667,53.223,73.52,49.3377,66.397c-.4624-.8477-1.7581-.0915-1.2952.7571Z"/><path class="cls-4" d="M32.8813,196.385c3.1071-5.8626,10.4478-3.0978,15.0951-1.1927,4.0724,1.6694,8.8959,3.217,12.973.7005,2.7967-1.7262,4.6039-3.4825,8.1528-2.4914,2.4311.6789,4.61,2.0646,6.95,2.9847a17.2807,17.2807,0,0,0,13.629-.4964.5811.5811,0,0,0,.1167-.9059c-8.9328-8.942-11.1951-21.9676-13.1742-33.94-.1174-.71-1.1913-.4069-1.0792.2975,1.9541,12.2719,4.3668,25.27,13.4377,34.4586l.1167-.9059a16.5508,16.5508,0,0,1-9.9733,1.0747c-2.6638-.5637-4.9967-1.952-7.4779-3.0041a10.9105,10.9105,0,0,0-6.1692-1.14c-2.79.5231-4.4332,3.0958-7.1334,3.8018-5.9128,1.5458-11.1755-3.0179-16.79-3.9218-3.7223-.5993-7.8884.5329-9.6607,4.1042-.3245.654.64,1.2308.9866.5767Z"/><path class="cls-4" d="M37.7874,58.0736a58.5324,58.5324,0,0,0-7.048,7.3989c-1.63,2.055-3.516,4.2818-4.4641,6.7542-2.1416,5.5847,4.5917,9.722,8.0111,12.9121,2.5051,2.3372,5.09,4.6321,7.455,7.1115,1.6254,1.7039,3.1925,3.4543,5.6665,3.7088a27.0053,27.0053,0,0,0,4.8743-.3625,4.2584,4.2584,0,0,0,1.8572-.3511c1.1457-.7323.8649-2.4134.8557-3.5634a.5453.5453,0,0,0-1.09,0c-.01.69.1994,2.1349-.4823,2.6171-.4885.3455-2.0417.1853-2.6.2381a11.59,11.59,0,0,1-4.0916.1386,7.9211,7.9211,0,0,1-3.3723-2.4242c-3.3449-3.39-6.81-6.6632-10.3259-9.8792-1.7238-1.577-3.8089-3.0812-5.0769-5.081-1.777-2.8025-.486-5.2345,1.1778-7.675A67.0994,67.0994,0,0,1,38.4917,58.778c.4688-.4441-.2279-1.1273-.7043-.7043Z"/><path class="cls-4" d="M41.7269,62.789A63.0462,63.0462,0,0,0,30.9923,74.6017a.5436.5436,0,0,0,0,.5571,38.322,38.322,0,0,0,13.6224,13.775.5043.5043,0,0,0,.5087-.87,41.8243,41.8243,0,0,1-11.8958-11.418c-.9-1.3382-.9953-1.9373.0085-3.2722q1.4149-1.8816,2.9587-3.661a84.1623,84.1623,0,0,1,6.1578-6.2978c.4222-.393-.196-.9873-.6256-.6256Z"/><path class="cls-4" d="M48.6484,21.0894A15.8927,15.8927,0,0,1,60.64,12.3369c3.5274-.5236,9.6265-.3954,8.0486,4.7438-.2239.7292.8954,1.0267,1.1357.3131,1.7084-5.0736-3.1416-6.6718-7.31-6.4459a16.56,16.56,0,0,0-14.68,9.6653c-.2592.541.5253,1.0175.8146.4761Z"/><path class="cls-4" d="M52.5362,19.8052c4.2275-4.2545,11.3452-6.2321,16.3474-2.195.5179.418,1.2623-.2893.7458-.7458-5.19-4.587-13.4265-2.6322-17.6981,2.3358-.3549.4128.2118,1.0006.6049.6049Z"/><path class="cls-4" d="M46.8806,20.8084c-2.1787-.0607-5.4368.3045-5.1262-2.8444a13.2087,13.2087,0,0,1,1.385-4.0664,18.6734,18.6734,0,0,1,8.1522-8.0013,29.0343,29.0343,0,0,1,11.637-3.59c2.4288-.1331,5.2235.4289,6.58,2.6962,1.4949,2.4988.3086,5.5393-.4453,8.0668-.2394.8028.93,1.0781,1.2261.338,1.923-4.8,1.8825-10.77-4.1335-12.2006-5.14-1.222-11.7315,1.3392-16.1463,3.9043a19.2935,19.2935,0,0,0-9.03,10.7591c-.4464,1.3937-1.0989,3.4661-.1376,4.795,1.318,1.8219,4.2027,1.1454,6.0389.9692a.4134.4134,0,0,0,0-.8262Z"/><path class="cls-4" d="M58.4284,16.4858c1.9917,3.1494,6.2688,4.7571,9.8551,4.8434,3.3507.0806,3.1612-2.4473,1.4268-4.5456-.4722-.5713-1.3648.1615-1.0077.7775.5937,1.0242,1.478,2.0445-.1349,2.3439a9.7952,9.7952,0,0,1-4.0355-.7153,10.7906,10.7906,0,0,1-5.1744-3.421c-.4254-.5227-1.2851.1548-.9295.7172Z"/><path class="cls-4" d="M60.0227,37.05c.0064,1.5442,2.1527,1.6239,3.3039,1.4133a5.8327,5.8327,0,0,0,3.8919-3.2179c2.0057-3.68,2.33-8.33,2.2656-12.44a.5922.5922,0,0,0-1.1836,0,46.2624,46.2624,0,0,1-1.08,8.4837,12.3356,12.3356,0,0,1-1.6369,4.0323,4.7788,4.7788,0,0,1-1.64,1.5827c-.2669.14-2.9287.8622-2.9834.1464a.4691.4691,0,0,0-.9375,0Z"/><path class="cls-4" d="M70.1045,17.0723c3.5349,3.3776,3.8342,8.1424.4634,11.792a.554.554,0,0,0,.7831.7831,8.6739,8.6739,0,0,0-.6962-13.2883c-.4162-.3116-.9171.3627-.55.7132Z"/><path class="cls-4" d="M55.1016,21.0124c1.2558,2.859-.9941,5.5411-1.6495,8.244a9.5507,9.5507,0,0,0,.29,5.5622c.8,2.253,2.2448,4.2039,2.7986,6.5556.7264,3.0847.4458,6.309.5745,9.4452a.601.601,0,0,0,1.2012,0,42.9586,42.9586,0,0,0-.2945-8.4391c-.4118-2.6942-1.712-4.7569-2.7955-7.2008-1.4652-3.305-.651-5.8758.5584-9.065.7205-1.9,1.0447-3.6864.0306-5.519-.2634-.476-.9219-.0578-.7134.417Z"/><path class="cls-4" d="M46.6137,21.9985c3.47,1.9234.6689,4.7241-.4083,7.0777a12.4225,12.4225,0,0,0-1.1172,5.2885c.0294,2.4936,1.1023,4.873.9406,7.3677-.1656,2.5548-1.7747,4.6451-3.1923,6.6731-.3469.4963.459,1.1291.8466.6532,1.6681-2.0475,3.3181-4.291,3.5959-7,.3329-3.2463-1.2986-6.2827-.7711-9.5645a12.7223,12.7223,0,0,1,1.913-4.7435,6.8426,6.8426,0,0,0,1.237-2.7728A3.6209,3.6209,0,0,0,46.9884,21.11a.4885.4885,0,0,0-.3747.8889Z"/><path class="cls-4" d="M62.0367,37.7741c-.4126,2.0481-.391,5.73,1.2814,7.2913a3.8082,3.8082,0,0,0,3.3.673,23.6242,23.6242,0,0,1,3.4259-.767c1.9551-.0347,2.1713,2.0583,2.7655,3.4693.2415.5734,1.1529.3734.9662-.2664-.37-1.2693-.23-2.808-1.3174-3.75a4.1361,4.1361,0,0,0-3.4461-.5918c-2.1691.3884-4.7947,1.661-5.5639-1.295a18.1869,18.1869,0,0,1-.3126-4.6146c0-.6136-.9715-.7826-1.0992-.1488Z"/><path class="cls-4" d="M73.6358,58.7118c.1118,5.2793,1.534,10.5683,1.41,15.8418-.11,4.6969-3.1944,8.6651-3.3453,13.365-.02.6375.9425.6271.9844,0,.3208-4.8041,3.2929-8.9159,3.35-13.78a81.0787,81.0787,0,0,0-1.6223-15.5324c-.0839-.4413-.7862-.3354-.7769.1051Z"/><path class="cls-4" d="M71.5215,67.9063A47.0107,47.0107,0,0,1,70.73,79.7412c-.1379.6815.8856.977,1.0509.29a32.1211,32.1211,0,0,0,.615-12.243c-.0747-.4963-.899-.3788-.8747.1184Z"/><path class="cls-4" d="M71.5074,94.345c2.3448,3.3053,2.143,7.2788,1.2919,11.068-.8289,3.69-1.8654,7.2831-2.39,11.0411a65.4064,65.4064,0,0,0,.677,21.9316c.1473.7326,1.24.4167,1.1131-.3069a69.5858,69.5858,0,0,1,.1049-25.5887c1.1961-6.0581,4.0746-12.9893-.1345-18.5325-.292-.3845-.9527-.0212-.6628.3874Z"/><path class="cls-4" d="M142.5176,122.06c3.3064,20.4574,5.9828,40.9219,8.0753,61.5378.0792.78,1.3037.7982,1.2363,0-1.744-20.6779-4.5443-41.406-8.3341-61.8072-.12-.6454-1.08-.3656-.9775.2695Z"/><path class="cls-4" d="M153.2623,132.6516c1.7791,8.207,3.67,16.3464,4.92,24.66,1.2933,8.6024,1.8453,17.217,2.618,25.87.0686.768,1.2231.7975,1.2188,0a177.8316,177.8316,0,0,0-2.3761-25.2746,186.1009,186.1009,0,0,0-5.33-25.5445.5454.5454,0,0,0-1.0509.29Z"/><path class="cls-4" d="M170.1621,120.0827c1.9631,10.9973.52,22.3911.9273,33.51a232.1264,232.1264,0,0,0,3.4934,32.8267c.1452.8022,1.34.4546,1.2148-.3349a277.07,277.07,0,0,1-3.4234-34.4257c-.1789-5.4186-.1138-10.8282-.03-16.2474.0807-5.2043.1075-10.5176-1.3348-15.5625a.44.44,0,0,0-.8475.2336Z"/><path class="cls-4" d="M161.1356,184.17c4.4705,2.1234,9.3568,2.8339,14.142,3.93a.5571.5571,0,0,0,.296-1.0735c-4.68-1.359-9.5035-1.9385-14.0406-3.799-.537-.22-.9237.6924-.3973.9424Z"/><path class="cls-4" d="M152.1647,184.2353a70.7391,70.7391,0,0,0,9.2652,3.7481c.55.1787.9381-.699.4-.9478a70.7647,70.7647,0,0,0-9.3465-3.5553c-.44-.131-.7447.545-.3183.755Z"/><path class="cls-4" d="M162.7516,186.2011c-3.46,3.8216-7.28,6.947-12.1833,8.7109-.5545.1995-.7217,1.1911,0,1.3a45.5116,45.5116,0,0,0,12.0614.2853c1.0673-.1231,2.4034-.1862,3.2233-.9978,1.0238-1.0134.2184-.7315,1.31.1977,1.8042,1.5363,4.98.562,6.6989-.6688,2.3668-1.6952,1.381-5.2624.5463-7.5882a.519.519,0,0,0-1,.2757c.4483,1.7839,1.1344,3.6752.3137,5.388-.637,1.3294-2.4688,2.0136-3.9835,2.0684-1.72.0622-2.2429-2.3222-3.8956-1.8736-.3353.091-.3793.4974-.5921.6869-1.4233,1.2675-3.0677,1.2564-4.9046,1.3692a45.1966,45.1966,0,0,1-9.419-.4431v1.3a25.8257,25.8257,0,0,0,12.6024-9.4112c.3182-.4621-.4015-1.0155-.7776-.6Z"/><path class="cls-4" d="M150.5917,187.1792c-.361,3.6593-6.1645,4.576-8.94,5.5548a.6487.6487,0,0,0,.1715,1.2675,33.4107,33.4107,0,0,0,13.1061-.8858.6363.6363,0,0,0-.338-1.2261,36.0262,36.0262,0,0,1-12.7681.8213l.1715,1.2675c3.1956-1.141,9.6878-2.2883,9.4936-6.7993a.4485.4485,0,0,0-.8965,0Z"/><path class="cls-4" d="M163.442,68.6912l.0088,6.12a.6.6,0,0,0,.5874.5874c2.2728.1465,4.5505.2769,6.8271.35.9532.0307,2.1148.2231,2.889-.5046,1.4878-1.3986.6631-5.4087.4094-7.0777-.8643-5.6855-3.7605-12.6235-9.7493-14.47a7.1562,7.1562,0,0,0-6.639,1.0167c-1.6977,1.348-2.4029,3.3429-3.2783,5.2505a10.3506,10.3506,0,0,1-1.76,2.997c-1.559,1.5918-5.0186,1.2415-5.0217-1.56-.0009-.8055,1.2747-5.6172,1.6487-5.6693.6136-.0855.5743-.928.1579-1.2081-4.1007-2.7582-10.03-4.8316-12.793.5582a14.1577,14.1577,0,0,0,.3352,13.12,36.0543,36.0543,0,0,1,2.5157,4.7257c.75,2.0526.5154,4.1668.4137,6.2994-.2315,4.85-.5053,9.6991-.6707,14.5524a156.028,156.028,0,0,0,1.1149,27.3667.665.665,0,0,0,.4769.4769c3.8835.9713,8.3714.4245,12.3214.2957,4.1623-.1358,8.4259-.61,12.5887-.3517.8156.0507.8069-1.2061,0-1.2656-4.5534-.336-9.2258.1715-13.781.3-2.5891.073-5.1875.1433-7.7766.0338-.5571-.0236-2.1909.1089-2.6374-.2466-.3845-.3061-.2729-2.6458-.3486-3.3408q-.212-1.9469-.3584-3.9a225.3138,225.3138,0,0,1,.1388-28.0833c.1888-3.8549,1.155-8.4286-.0714-12.167-.9876-3.0106-3.3723-5.4277-4.1015-8.53a13.425,13.425,0,0,1,.9921-8.6119c2.3592-4.6742,7.566-2.3781,10.9741-.09l.1579-1.2081c-1.0717.15-1.5988,2.9687-1.8326,3.6995-.4814,1.5046-1.1445,3.19-.5241,4.7552a4.212,4.212,0,0,0,4.46,2.32c1.8471-.236,3.0032-1.696,3.8413-3.2348,1.2015-2.206,1.7592-5.078,3.9883-6.5435,3.1645-2.0805,7.2872-.1369,9.52,2.4054a21.2987,21.2987,0,0,1,4.5676,11.2972,24.27,24.27,0,0,1,.1644,2.8955c-.001,1.6921-.6624,2.3165-2.332,2.475a49.1253,49.1253,0,0,1-6.8271-.3018l.5874.5874-.1054-6.12a.5394.5394,0,0,0-1.0781,0Z"/><path class="cls-4" d="M172.1033,75.735c.0062,7.5656.12,15.1284-.2059,22.69-.3579,8.3082-1.4671,16.4408-2.5351,24.6745-.2514,1.9385-.4231,3.8856-.5983,5.8322-.1727,1.92.0349,4.6465-.87,6.3824-.6432,1.2332-2.7881,1.6173-3.4259.1786a5.0118,5.0118,0,0,1-.1884-1.1567c-.1608-1.0505-.3046-2.1084-.3787-3.1692a13.906,13.906,0,0,1,.7593-6.2087,33.4191,33.4191,0,0,0,2.0049-4.6722,19.9468,19.9468,0,0,0,.2693-4.9233c-.0791-4.19-.0559-8.3806-.039-12.5714.0372-9.21-.0556-18.4216-1.5843-27.5281-.1446-.8611-1.4539-.4955-1.3108.3614,1.6331,9.7833,1.5973,19.6934,1.5772,29.5814-.0046,2.2563-.0076,4.5128.0155,6.769.0264,2.5838.4236,5.4322-.1581,7.9718-.4387,1.9152-1.6926,3.4987-2.2723,5.3637a15.6,15.6,0,0,0-.4826,5.8564c.1624,2.065.0224,6.6486,2.7228,7.15s3.7477-2.6175,4.0406-4.6458c.6862-4.7519.9361-9.5518,1.6531-14.3066q1.0162-6.74,1.5283-13.5424a253.7149,253.7149,0,0,0,.44-30.087.4808.4808,0,0,0-.9609,0Z"/><path class="cls-4" d="M148.5039,56.8857c3.912-.1279,4.1106-5.4849,4.02-8.3717a.56.56,0,0,0-1.1191,0c-.2538,2.1037.1088,7.0389-2.9009,7.276-.6937.0546-.7129,1.119,0,1.0957Z"/><path class="cls-4" d="M147.53,26.501a26.0753,26.0753,0,0,0-.5646,17.8826,6.0889,6.0889,0,0,0,3.67,4.3544c2.0193.7305,3.1768.2466,4.78-1.0793.624-.5162-.2633-1.3731-.8825-.8825-4.8843,3.87-6.7593-3.7512-7.2893-7.2118a27.3138,27.3138,0,0,1,1.2718-12.6481c.1763-.57-.742-.9848-.9853-.4154Z"/><path class="cls-4" d="M149.7318,40.9213a3.915,3.915,0,0,0,4.4606.04.5483.5483,0,0,0-.553-.9461,3.1419,3.1419,0,0,1-3.3457-.055c-.604-.3952-1.1479.56-.5619.9613Z"/><path class="cls-4" d="M140.6151,52.09a41.6951,41.6951,0,0,0-5.2054-3.5858c-1.2361-.8188-2.4671-1.6465-3.6723-2.51-.572-.41-2.6992-1.5887-2.8482-2.3977-.4087-2.2182,7.9546-4.1414,9.6681-4.7226,1.75-.5936,3.5388-.55,4.9012-1.966,1.4137-1.47,2.1908-3.4465,3.5649-4.975.4361-.4851-.1565-1.4021-.742-.9617-1.7446,1.3124-2.3112,3.4394-3.7877,4.9719-1.192,1.2373-3.0586,1.1338-4.5888,1.7015-1.0027.372-1.9779.7491-3.0028,1.0621-1.9223.587-7.69,1.9436-7.5562,4.8128.0844,1.817,3.4594,3.565,4.7207,4.4138,2.4884,1.6746,5.4159,3.0476,7.67,5.0355.5961.5257,1.4726-.3368.8784-.8784Z"/><path class="cls-4" d="M146.861,28.5284c-1.4768-1.0085-3.5467-.2858-5.07.2361-1.6288.5581-4.1256,1.2351-5.3971,2.439a17.7808,17.7808,0,0,0-1.4525,2.2569c-1.1426,1.4716-3.1544,1.83-4.7883,2.545a35.6338,35.6338,0,0,0-7.6731,4.0153c-1.9153,1.4846-2.1477,2.7881-1.4193,5.1388a21.8064,21.8064,0,0,0,3.5849,6.2281c2.754,3.7015,6.5623,8.5421,10.9954,10.3056.7034.28,1.0207-.7652.4831-1.1459a45.2078,45.2078,0,0,1-9.55-8.908,29.36,29.36,0,0,1-3.6761-5.6438,6.0226,6.0226,0,0,1-.7814-3.2131c.2331-1.3466,1.8492-2.1338,2.953-2.7647a51.75,51.75,0,0,1,6.97-3.2363c1.5014-.58,3.0058-1.0806,4.0152-2.3995a12.638,12.638,0,0,1,1.4856-2.1855,9.27,9.27,0,0,1,2.271-1.132c1.5361-.6738,4.7988-2.3973,6.5076-1.61a.5366.5366,0,0,0,.5412-.9259Z"/><path class="cls-4" d="M170.63,36.6016a3.8507,3.8507,0,0,0-2.3224-.4588c-1.2483.1352-2.2175,1.0518-3.3776,1.2537-2.4636.4286-3.8313-5.3763-5.0435-6.946-1.5719-2.0355-3.7684-2.5087-6.1227-3.1747-3.2962-.9324-6.4207-2.3569-9.7375-3.231l.3049,1.1547c2.8722-2.7732,3.8943-6.5379,7.7218-8.41a13.0637,13.0637,0,0,1,18.3518,8.8156c.8029,3.9757-2.0093,7.615-.6235,11.5442a.6539.6539,0,0,0,1.26-.3474c-.75-2.906.6678-5.3956,1-8.2255a10.8985,10.8985,0,0,0-.7837-5.3489,15.0347,15.0347,0,0,0-7.9388-8.0362,14.4807,14.4807,0,0,0-11.1811-.001,12.593,12.593,0,0,0-4.49,3.1374c-1.6392,1.8261-2.5239,4.17-4.2938,5.8943a.6969.6969,0,0,0,.3049,1.1547c3.036.7857,5.9159,2.02,8.9182,2.91,1.6591.492,3.5818.7138,5.0425,1.7025a8.5734,8.5734,0,0,1,2.6216,3.6071c.7453,1.5388,1.5594,4.1512,3.2272,4.972a1.75,1.75,0,0,0,1.6181.0762c1.8909-.5993,2.9615-2.007,5.2094-1.2511C170.7564,37.549,171.0731,36.8185,170.63,36.6016Z"/><path class="cls-4" d="M160.7462,54.0579c-.03-2.9464-1.0131-8.1237.9826-10.5809.69-.8495,1.7434-1.3528,2.4462-2.2244a8.2093,8.2093,0,0,0,1.5972-3.2013.5689.5689,0,0,0-1.0961-.3022,9.5819,9.5819,0,0,1-3.19,4.3718,4.205,4.205,0,0,0-1.6451,2.6581,25.6629,25.6629,0,0,0,.0015,9.4012c.1018.5142.9087.389.9035-.1223Z"/><path class="cls-4" d="M213.7882,80.2026c-2.66,2.4112-5.8474-3.9784-5.99-5.723-.2783-3.4106,1.3415-6.2106,3.5577-8.6039,1.2908-1.3939,4.4233-5.756,1.0445-6.7886-2.4806-.7581-5.4443,1.7426-6.57,3.7143-.8722,1.5279-1.3606,3.2507-2.2779,4.7558a4.0819,4.0819,0,0,1-2.386,2.135c-3.1669.7569-3.7408-2.3642-3.1046-4.6887.3593-1.3127,1.4039-2.6663,1.5929-3.941a1.0576,1.0576,0,0,0-.1263-.9027c-.4624-.7748-2.1865-.8136-2.9154-.6-1.6045.471-2.2959,2.6487-2.7382,4.0506-.9087,2.88-1.0738,5.9214-1.9921,8.8187-.6778,2.1384-1.6228,4.5335-1.1613,6.8183.438,2.1682,2.3291,3.7692,3.3332,5.6743,3.0974,5.8768,1.767,12.6468-.1422,18.6677-2.1343,6.7307-4.5813,13.4277-7.0846,20.0283-1.2151,3.2039-2.68,6.2267-4.1,9.3369a18.759,18.759,0,0,0-2.1768,7.909.6815.6815,0,0,0,1.3325.18c.139-.5055,3.7243-.692,4.2063-.737a14.3426,14.3426,0,0,1,4.4938.1948c5.366,1.1011,10.3684,3.678,15.7915,4.5177a13.2052,13.2052,0,0,0,11.4588-3.1351c1.8776-1.6987,3.5458-3.4924,5.872-4.6022,2.36-1.1257,4.9456-1.7211,7.35-2.7488a.6919.6919,0,0,0,.244-.9307c-3.5623-7.3813-7.1146-14.8838-9.0291-22.89-.19-.7928-1.4025-.4569-1.22.3365,1.8684,8.1422,5.4673,15.75,9.0748,23.24l.244-.9307c-2.4081,1.027-4.9878,1.615-7.3531,2.7433a22.3486,22.3486,0,0,0-5.6243,4.3184c-5.2788,4.9652-11.4743,3.43-17.711,1.3655-4.01-1.3273-8.38-3.2066-12.6753-2.9131-1.4151.0967-5.9288-.0159-6.43,1.81l1.3325.18c-.0612-5.5212,3.94-10.9408,5.8776-15.99,2.2612-5.8923,4.2857-11.88,6.3716-17.8361,1.7825-5.09,3.475-10.4957,3.01-15.9586a17.73,17.73,0,0,0-1.973-6.823c-1.3422-2.5312-3.5228-4.0943-3.1622-7.2.3644-3.138,1.8045-6.0875,2.3168-9.2234a26.1347,26.1347,0,0,1,.78-3.8765c.1063-.3278,2.4178-5.177,2.9622-2.6276.1193.5587-1.1291,2.8122-1.2715,3.3321a8.215,8.215,0,0,0-.421,3.1361,3.65,3.65,0,0,0,2.7868,3.04c3.3316.9534,5.163-1.7938,6.3744-4.4416.6993-1.5285,1.2525-3.3235,2.5312-4.4864a6.908,6.908,0,0,1,2.5523-1.4523c2.6607-.7911,1.7669,2.2464.7116,3.5612-1.5312,1.9077-3.1436,3.2632-3.995,5.6294a9.9981,9.9981,0,0,0-.1206,7.4327c1.0813,2.3761,4.6286,6.3784,7.3112,3.8849.51-.4743-.25-1.227-.7623-.7623Z"/><path class="cls-4" d="M212.4291,63.5681c1.3217.7211,2.4189.5379,3.8844.5727,3.5083.0833,4.8781,3.3239,5.2271,6.3772a89.3146,89.3146,0,0,1,.0143,13.0708,110.1669,110.1669,0,0,0,.1809,13.7739A46.2732,46.2732,0,0,1,220.33,112.26a27.659,27.659,0,0,0-.8617,5.65c-.0488,2.4064.0756,4.6538-1.0448,6.8771-.546,1.0834-1.52,3.1452-2.6648,3.6235-2.5864,1.0807-2.2051-2.2683-1.9774-3.8154.4413-2.9977,2.6-5.1871,3.0257-8.1316.6069-4.201.0129-8.8356.0337-13.0857.0261-5.3387.054-10.6876-.3761-16.0133-.359-4.446-.5689-9.2924-3.214-13.0342-.5009-.7086-1.68-.031-1.1738.6861,3.2192,4.5627,3.0758,11.3085,3.3079,16.7019.244,5.6706.1108,11.3471.144,17.0207.0165,2.8276.6,6.2565-.3615,8.9418-.5658,1.5809-1.6725,2.8718-2.1546,4.4963-.5816,1.96-1.33,5.3093.0874,7.0914,1.4725,1.8513,3.5213.2446,4.611-1.1329,2.5163-3.1809,2.7722-6.287,2.9024-10.2258.1773-5.3639,2.5324-10.4161,2.5592-15.8269.0133-2.6869-.3745-5.3542-.5631-8.03a81.5233,81.5233,0,0,1,.045-8.5572c.1859-5.3766.9512-11.3721-.22-16.6756a7.9186,7.9186,0,0,0-2.6108-4.673c-2.2025-1.7-4.6185-.2744-6.91-1.4082-.55-.272-1.0326.531-.485.83Z"/><path class="cls-4" d="M198.4544,62.6666c3.912-.1279,4.1106-5.4849,4.02-8.3717a.56.56,0,0,0-1.1191,0c-.2538,2.1037.1088,7.0389-2.9009,7.276-.6937.0546-.7129,1.119,0,1.0957Z"/><path class="cls-4" d="M196.9424,32.9152a20.9873,20.9873,0,0,0-.6769,16.998c1.7146,4.0724,5.1679,6.6005,9.1006,3.5264.5522-.4317-.188-1.4052-.7562-.98-4.2368,3.17-7.0235-1.5341-7.9111-5.3268a22.9546,22.9546,0,0,1,1.229-13.8022c.2248-.5691-.7043-.9512-.9853-.4154Z"/><path class="cls-4" d="M199.2051,48.6113a3.915,3.915,0,0,0,4.4606.04.5483.5483,0,0,0-.553-.9461,3.1419,3.1419,0,0,1-3.3457-.055c-.604-.3952-1.1479.56-.5619.9613Z"/><path class="cls-4" d="M210.6968,59.8387a64.6227,64.6227,0,0,1,.0349-7.2351,5.6267,5.6267,0,0,1,.9467-3.3469c.6561-.8059,1.6662-1.3006,2.3538-2.1055a11.8268,11.8268,0,0,0,2.6849-8.66l-.5932.5932a3.4672,3.4672,0,0,0,2.69-1.3352.5687.5687,0,0,0-.8038-.8038l-1.8858.9525a.6.6,0,0,0-.5932.5932,10.6389,10.6389,0,0,1-1.5464,6.6548c-1.0207,1.6236-2.9478,2.5238-3.8084,4.1712a10.9531,10.9531,0,0,0-.6706,4.1893,25.7717,25.7717,0,0,0,.2881,6.4541c.0982.5139.9121.3894.9035-.1223Z"/><path class="cls-4" d="M214.9157,81.8585c-1.4918,4.21-4.26,9.15-3.612,13.7617.48,3.4177,3.41,5.7791,4.3024,9.08a.5689.5689,0,0,0,1.0961-.3022c-.6373-3.1842-3.3811-5.2516-4.12-8.3354-1.0838-4.5207,2.1027-9.6809,3.1589-13.9764a.4281.4281,0,0,0-.8249-.2274Z"/><path class="cls-4" d="M195.3757,27.5119a4.4021,4.4021,0,0,0-2.044,4.1425c.21,1.7673,2.0147,2.5934,2.8958,3.9794a.5748.5748,0,0,0,1.0607-.2873,7.1345,7.1345,0,0,1,4.9622-5.8289.5337.5337,0,0,0-.2835-1.0283,8.0607,8.0607,0,0,0-5.8172,6.8572l1.0607-.2873a17.1381,17.1381,0,0,0-2.0388-2.2415c-1.2934-1.4206-.6513-3.4709.7648-4.5788.4129-.323-.1247-1.0145-.5609-.727Z"/><path class="cls-4" d="M201.71,29.0035c-.1168,3.5877,1.8011,7.9657,4.9856,9.8a5.61,5.61,0,0,0,5.0387.5592c1.8473-.8266,3.01-2.6408,4.86-3.5184.5312-.2519.1429-1.026-.3838-.91-3.3621.7384-4.518,5.0951-8.6246,3.0743-3.1987-1.574-4.7142-5.6631-5.0791-9.0045a.3987.3987,0,0,0-.7969,0Z"/><path class="cls-4" d="M219.03,36.335c9.6594,4.6622,3.7493,15.7374,2.5683,23.3454a.4047.4047,0,0,0,.78.215c2.9219-7.1064,7.1187-20.8886-3-24.385-.4784-.1653-.81.6016-.3477.8246Z"/><path class="cls-4" d="M221.6,58.1518A67.3638,67.3638,0,0,0,217.97,50.073c-.8278-1.522-1.8021-2.9457-3.63-3.1493-.5426-.06-.6361.8032-.1269.938,2.0981.5554,2.9409,2.7019,3.8388,4.4637,1.0066,1.975,1.9295,3.9928,2.791,6.035.1913.4535.9408.27.7571-.2087Z"/><path class="cls-4" d="M218.4993,34.9243c.1383-2.5249.1846-5.0521.2137-7.58.0134-1.1634.2933-2.7456-.4454-3.7545-.783-1.07-2.5851-1.792-3.7281-2.3576a31.0466,31.0466,0,0,0-5.2543-2.0405,27.5106,27.5106,0,0,0-5.569-.9878c-1.3615-.0976-3.2239-.3945-4.5008.1753-2.4334,1.086-3.3741,5.8125-3.6505,8.1106-.0756.6285.9439.7461,1.0934.148.7055-2.8223,1.3915-7.1855,4.9489-7.1751a29.5565,29.5565,0,0,1,8.5608,1.2924c2.2229.6818,6.8684,2.0361,7.4065,4.6941a25.5846,25.5846,0,0,1-.0088,4.7381c-.0052,1.5792-.0049,3.1585.02,4.7376a.4573.4573,0,0,0,.9141,0Z"/><path class="cls-4" d="M198.22,28.7965a31.0926,31.0926,0,0,1,2.5605-7.8253c.2837-.5844-.59-1.099-.8753-.5116a28.07,28.07,0,0,0-2.4932,8.1142c-.0749.5212.7092.7606.808.2227Z"/><path class="cls-4" d="M195.7743,59.4266c-1.8831-.0543-3.7142-2.0081-5.231-2.967a57.0152,57.0152,0,0,0-6.1051-3.0894,26.6462,26.6462,0,0,0-3.014-1.3567c-1.0043-.328-1.3784.1421-.8593-.6835a21.2836,21.2836,0,0,1,2.86-3.1136c.8209-.8464,1.689-1.6582,2.4785-2.5339,1.3872-1.5386,2.0754-3.5724,3.98-4.64,1.3411-.7518,2.7311-1.0528,3.93-2.1406a11.4261,11.4261,0,0,0,2.7959-4.2881c.2586-.63-.8-1.0738-1.1031-.465-1.2207,2.451-2.6958,4.4528-5.319,5.5086-2.24.9016-2.8751,1.9228-4.1881,3.9711-1.6161,2.5211-4.1943,4.3746-6.0879,6.6917-.3546.4339-1.019,1.0631-.8776,1.69.0638.283.29.28.4444.4515.4643.5145,2.0735.841,2.7405,1.136.69.3053,1.3735.6263,2.0547.9513a49.7756,49.7756,0,0,1,6.9865,3.7575c1.3449.9282,2.8028,2.1731,4.5148,2.2159a.5482.5482,0,0,0,0-1.0957Z"/><path class="cls-4" d="M193.4846,66.8968c-3.2114-2.5534-6.6337-4.949-10.0356-7.2417a59.0935,59.0935,0,0,0-5.4116-3.1724C176.2407,55.53,173.35,54.02,173.819,51.58c.4542-2.366,3.1856-4.2346,4.9-5.7557,1.7108-1.5181,3.4463-3.01,5.0886-4.6033a61.4167,61.4167,0,0,1,4.6626-4.6945c1.6579-1.2923,3.587-2.1648,5.3243-3.3385a.5835.5835,0,0,0-.5885-1.0068,39.923,39.923,0,0,0-5.554,3.4012c-2.08,1.6365-3.7045,3.8451-5.6362,5.6567-2.0777,1.9484-4.28,3.76-6.3477,5.7193-1.3061,1.2373-2.7935,2.6811-3.0805,4.5523-.5648,3.6822,3.9876,5.4886,6.5386,6.86,4.8861,2.6259,8.9438,6.6619,13.9042,9.1158.3551.1757.8085-.3074.4544-.589Z"/><path class="cls-4" d="M217.6992,141.7567c.0962,2.8632,1.09,5.2269,2.084,7.87,1.1748,3.1244,1.1121,6.3175.9752,9.61-.17,4.1-.8106,8.173-1.1532,12.26-.4761,5.6789-1.1166,11.8449.2433,17.4269.2817,1.1563.678,2.3123.8452,3.4924.2084,1.47.319,2.1739-1.7358,2.5143a8.3138,8.3138,0,0,1-1.5054-.1139,39.8812,39.8812,0,0,0-6.761.72c-1.037.1229-2.0761.2451-3.1165.335-.9335.0807-3.1222.62-2.063-1.14.5838-.97,2.5983-1.7314,3.6336-2.2393,1.3165-.6459,2.7078-1.1639,3.9623-1.932,2.2948-1.4049,2.4651-2.9577,2.2876-5.3973-.4939-6.7888-.8768-13.5839-1.4627-20.3662-.3206-3.7114-.6512-7.436-1.2272-11.1183a15.8449,15.8449,0,0,0-.7231-3.4516,4.3371,4.3371,0,0,0-.4736-.8726c-.6623-.9787-.6116.2817-1.357-1.5148a8.98,8.98,0,0,1-.5223-2.391c-.0879-.769-1.304-.7814-1.2187,0a7.4289,7.4289,0,0,0,1.9024,4.7131c.3381.3564.2478.0143.5259.6a7.38,7.38,0,0,1,.3868,1.7123c.6861,3.6158.9986,7.3141,1.3321,10.9753.6724,7.3829,1.0422,14.7856,1.6368,22.1735.1184,1.4708.1347,2.5487-1.216,3.5653-2.3677,1.7822-5.4427,2.3776-7.7938,4.2447-.8592.6823-2.1556,1.8349-1.2594,2.9969,1.0358,1.343,3.8629.6425,5.2389.4924,1.8555-.2024,3.692-.4753,5.535-.7607,1.8907-.2928,5.3623.8178,6.7521-.9182.9154-1.1434.451-2.8988.157-4.17a42.5958,42.5958,0,0,1-1.2122-5.5628,55.8727,55.8727,0,0,1-.0557-6.3393c.12-5.8866.87-11.6982,1.338-17.5581a42.5772,42.5772,0,0,0,.0579-8.6607c-.5006-3.9235-2.9127-7.1782-3.1762-11.1949-.036-.5481-.88-.5585-.8613,0Z"/><path class="cls-4" d="M202.264,194.7823a5.0142,5.0142,0,0,1-4.1878.015,1.9075,1.9075,0,0,1-1.3773-1.9762l1.2158-.4732c.3118-.1236.6239-.2467.9334-.3757a33.7012,33.7012,0,0,0,7.0908-3.8952,4.638,4.638,0,0,0,2.1881-3.4131c.321-2.8882-.1362-6.0407-.3419-8.9327-.3943-5.5448-1.0625-11.0784-1.97-16.5626-.5165-3.12-1.23-6.2027-1.7746-9.3132-.4118-2.3525-1.9865-4.2118-2.3182-6.6985a.5336.5336,0,0,0-1.0664,0c-.0761,2.521,1.4424,4.318,2.0679,6.6371.8528,3.1616,1.3782,6.4667,1.945,9.6907a161.6436,161.6436,0,0,1,2.2847,21.5862c.0944,2.381.2939,4.6771-1.8721,6.2455a30.4606,30.4606,0,0,1-3.6819,2.2258c-1.51.7947-3.1281,1.3166-4.6559,2.054-.6407.3092-1.2863.5228-1.5088,1.2677-.4079,1.3654,1.288,2.4871,2.3318,2.9547a6.1093,6.1093,0,0,0,5.0908-.1045c.5225-.23.1458-1.1439-.3928-.9317Z"/><path class="cls-4" d="M199.704,191.0141l-.0279.0369.6321-.1657.0809.0892.0479.3663.02-.056-.4646.3537.0876-.0079-.3579-.1482a20.7959,20.7959,0,0,1,1.9784,1.8333c.445.448,1.2931-.1532.9019-.6959a6.4811,6.4811,0,0,0-.9994-1.0988,4.4188,4.4188,0,0,0-1.1807-.86c-.79-.2986-1.3216.8764-.47,1.0687a.47.47,0,0,0,.5217-.2123l.0193-.0419a.4574.4574,0,0,0-.7893-.4613Z"/><path class="cls-4" d="M208.5382,192.8234c.6.3274,1.1385,1.3569,1.7664,1.5819a5.8333,5.8333,0,0,0,2.1977-.0265c2.4677-.1724,4.9431-.3152,7.4045-.5609.7139-.0713.7417-1.1738,0-1.1367-2.3329.1166-4.6646.3316-6.9931.5159-1.0406.0824-1.6622.2621-2.4631-.2607a6.5989,6.5989,0,0,0-1.5489-.9751c-.5056-.1809-.8283.6085-.3635.8621Z"/><path class="cls-2" d="M303.7775,194.9858c-2.3747.8118-4.1348-3.8634-.0009-3.2308,1.885.2884,2.9954,2.7635,5.5957,2.0927,1.0215-.2635,1.5825-1.57,2.754-1.5675,1.0129.0024,1.63,1.1114,2.7531,1.3581,3.0948.68,6.3774-1.26,9.3384-.7663C323.3659,197.8318,308.242,195.21,303.7775,194.9858Z"/><path class="cls-3" d="M325.1939,65.82c-.7722-.9749-1.6358-4.1912-2.64-5.8527-.8-1.324-1.9312-1.98-2.9019-3.04-1.7171-1.8738-1.4692-1.3648-1.11-3.6925.271-1.7543,1.6794-4.1906,1.0519-6.0213-1.2619-3.6816-4.3345-.5868-6.7956-.6206-4.0294-.0554-4.7318-2.8861-6.3431-5.5621-1.7513-2.9086-4.4859-1.7774-5.7452,1.1288-3.0878-1.261-2.3022-5.5716.86-6.0858,2.7082-.44,6.6449,2.2578,9.066,3.3514,5.6727,2.5625,15.6286,4.9909,17.5606,11.5782C329.48,55.3776,327.07,60.92,325.1939,65.82Z"/><path class="cls-2" d="M289.8652,140.6493c1.3027-5.8248,3.3176-11.4932,4.4417-17.3531.8271-4.3121,3.4548-8.44,4.8344-12.6036,2.79-8.4194,1.7233-16.5132-2.24-24.386-2.1186-4.208-.308-4.4736,1.2107-8.0428,1.2517-2.9416-.1933-6.5155,1.6235-9.3679.8745-1.3729,3.0984-3.0507,3.0084-.1531-.0894,2.8823-3.8182,9.0668,2.4993,8.7343,3.5339-.186,3.658-4.2126,5.0639-6.6547,1.1411-1.982,6.9559-6.923,6.3039-1.3511-.2377,2.0315-2.3953,4.0552-3.4444,5.7266-1.7011,2.7111-2.8787,6.2093-.5485,9.1741,2.0809,2.6474,4.3907,1.5146,6.6924,2.789.7013,4.4233-3.89,9.0554-3.306,13.5136.2462,1.88,1.639,4.0437,2.4019,5.6832,1.9322,4.1524,1.0093,7.589.9549,11.9425-.0478,3.8224-2.0037,6.3917-2.6954,9.9959-.8872,4.6226,2.5257,7.8889,4.737,2.2361,1.714-4.3816,2.1694-9.1372,3.2663-13.6509,2.5918,2.6993,3.288,6.832,4.3965,10.3369.883,2.7918,3.4332,5.9291,3.9372,8.6047.5554,2.9485-2.0013,2.6992-4.5122,4.0831-3.3465,1.8444-6.5638,2.9257-9.4768,5.2946-2.3634,1.922-4.2034,2.7418-7.3611,2.5471-4.0687-.2509-7.91-1.8551-11.6182-3.4263-1.7815-.7548-3.5757-2.1068-5.52-2.313-1.6436-.1744-3.3909.5154-5.0146.3808Q289.67,141.5167,289.8652,140.6493Z"/><path class="cls-2" d="M302.3845,36.4607c1.0894-2.2125,1.2926-6.9124,3.4-8.0557,2.23-1.2095,8.2512.2643,10.72.8565,3.4935.838,5.2146,1.85,5.3646,5.28.1169,2.6717-.3171,6.5194-1.7456,8.6735-2.6542.15-6.0655-2.3548-8.651-3.2954C309.0412,39.0352,305.4718,38.6888,302.3845,36.4607Z"/><path class="cls-2" d="M254.31,34.1663c-.0137.0659-.0077.1066.0211.1176,4.2984,1.6513,9.9247,2.454,12.4477,6.8428,1.1674,2.0307,1.1652,4.9762,4.2787,4.3319,2.5121-.52,3.0549-1.9606,5.95-1.4462.21-3.6529.8592-10.1908-.77-13.5665-2.6448-5.4788-7.4385-6.51-12.9989-5.0259a11.3341,11.3341,0,0,0-5.2115,2.9337A37.03,37.03,0,0,0,254.31,34.1663Z"/><path class="cls-2" d="M255.22,193.178c2.6515-1.9462,3.7819-4.87,4.3131-8.027a77.3736,77.3736,0,0,0,7.7476,2.4133c1.523.0515,1.692-.7019,3.0518-1.17,2.2767-.7839,3.8539.4814,5.9156,1.0621,2.3187.6531,3.2942.2459,3.6619,2.8782.205,1.4676.1289,5.0285-1.473,5.8092-2.238,1.0906-2.7773-1.5754-4.0978-2.2721-2.0194-1.0654-1.9693,1.2-3.5435,2.1613-2.1824,1.3329-6.8022.682-9.3445.5269-.1343-.2025-.255-.3787-.393-.5938,1.1417-.8466,4.6129-2.1045,4.9852-3.844.51-2.3816-1.8516-.6556-3.0424-.21A20.6429,20.6429,0,0,1,255.22,193.178Z"/><path class="cls-2" d="M250.4186,123.8623c-1.2787-2.1306-.601-5.5577-.726-7.9318-.6148-11.6847.9386-22.8658-1.22-34.4619-1.3-6.9821-6.3123-15.5283,1.923-20.845,2.7922-1.8026,5.6821-.1272,5.8728,3.292.1345,2.41-2.675,5.034.2053,6.87,2.9815,1.9,4.9915-2.2181,6.08-4.3227,2.5953-5.02,3.35-7.5866,9.3475-5.0582,7.611,3.2085,8.4015,12.907,7.8677,20.0955.0153-.2108-7.3806-1.0614-8.1376-.4247-1.8624,1.5664-.2007,5.4229.0127,7.3685.5166,4.7094-.0953,9.4613.1327,14.1823.3,6.212,2.8279,14.6874-.1324,20.56-1.7152,3.4023-4.0317,2.1706-7.3309,1.8374-3.0078-.3038-6.3162-1.2093-9.33-.5423-2.02.4471-2.8681,1.84-4.43-.41Q250.4824,123.9687,250.4186,123.8623Z"/><path class="cls-4" d="M249.9329,125.8107c3.1279,19.4329,5.6769,38.8691,7.6646,58.4506.0792.78,1.3037.7982,1.2363,0-1.658-19.6439-4.3117-39.3408-7.9234-58.72-.12-.6456-1.08-.3653-.9775.2695Z"/><path class="cls-4" d="M260.138,135.8728c1.679,7.7923,3.4785,15.5181,4.6646,23.4091,1.2289,8.1752,1.7391,16.3626,2.492,24.5836.07.7674,1.2214.7981,1.2188,0a166.4558,166.4558,0,0,0-2.252-24.0006,175.5618,175.5618,0,0,0-5.0725-24.2818.5454.5454,0,0,0-1.0509.29Z"/><path class="cls-4" d="M276.1969,123.9316c1.84,10.4218.4837,21.2117.8653,31.747a219.7834,219.7834,0,0,0,3.325,31.2717c.1456.8024,1.34.4543,1.2148-.3349a264.6127,264.6127,0,0,1-3.2552-32.8937c-.1659-5.1391-.0958-10.2695-.021-15.409.0712-4.8928.0768-9.8742-1.2813-14.6147a.44.44,0,0,0-.8475.2336Z"/><path class="cls-4" d="M267.63,184.8268c4.2466,2.019,8.89,2.7055,13.44,3.7379a.5571.5571,0,0,0,.296-1.0735c-4.4458-1.2958-9.0229-1.85-13.3383-3.6068-.5376-.2189-.9236.6922-.3973.9424Z"/><path class="cls-4" d="M259.1112,184.8849a63.9589,63.9589,0,0,0,8.8049,3.5676c.55.1769.9377-.6971.4-.9478A63.985,63.985,0,0,0,259.43,184.13c-.44-.129-.7441.5428-.3183.755Z"/><path class="cls-4" d="M269.161,186.7169a28.9409,28.9409,0,0,1-11.5649,8.26c-.5538.2-.7223,1.1915,0,1.3a38.5583,38.5583,0,0,0,12.3316.1625,4.7648,4.7648,0,0,0,2.3252-.9835l.3621-.5089q.11-.38.1162.1286c.2134.0559.5827.6868.8494.8751,1.74,1.2286,4.5814.3322,6.1665-.8056,2.2468-1.6129,1.3292-5.03.5294-7.24a.519.519,0,0,0-1,.2757c.4152,1.6705,1.1256,3.5.3017,5.0989a4.3118,4.3118,0,0,1-3.7628,1.9449c-1.561-.0285-2.115-2.1445-3.6338-1.8115-.3056.067-.3751.381-.5941.5481a4.4446,4.4446,0,0,1-1.9017,1.1519,12.8981,12.8981,0,0,1-2.0908.2342,42.9327,42.9327,0,0,1-9.64-.37v1.3a24.5062,24.5062,0,0,0,11.984-8.96c.3174-.4632-.4-1.0139-.7776-.6Z"/><path class="cls-4" d="M257.6049,187.6635c-.3808,3.455-5.8824,4.3316-8.4789,5.2456a.6487.6487,0,0,0,.1715,1.2675,31.6853,31.6853,0,0,0,12.4585-.843.6363.6363,0,0,0-.338-1.2261,34.2971,34.2971,0,0,1-12.12.7785l.1715,1.2675c3.0684-1.0974,9.1815-2.1763,9.0323-6.49a.4485.4485,0,0,0-.8965,0Z"/><path class="cls-4" d="M269.8074,75.1069l.0059,5.814a.6.6,0,0,0,.5874.5874c2.1564.14,4.3246.2865,6.4854.3338.9028.02,2.033.2119,2.7663-.4881,1.5107-1.4422.6467-5.2378.3572-7.0127-.8541-5.2364-3.5056-11.5108-8.9149-13.3982-4.89-1.7063-7.7764,1.3721-9.6188,5.4844a12.9779,12.9779,0,0,1-1.4363,2.7275c-1.3563,1.7367-5.076,2.2507-5.112-.9736-.0083-.7415,1.1819-5.2883,1.542-5.3536.6028-.1094.5876-.9191.1579-1.2081-3.864-2.5992-9.4878-4.5961-12.154.4548a13.4168,13.4168,0,0,0,.1852,12.4172c.7181,1.3322,1.5915,2.5913,2.2015,3.98.9724,2.2141.7712,4.4269.6591,6.7689-.2152,4.4959-.4673,8.99-.624,13.4889a148.9724,148.9724,0,0,0,1.053,26.2146.6648.6648,0,0,0,.4769.4769c3.6889.9166,7.9458.4041,11.6967.2822,3.9606-.1287,8.0145-.5786,11.9755-.3367.8157.05.8069-1.2064,0-1.2656-4.3539-.3193-8.82.1637-13.1754.2849-2.4263.0675-4.8622.1336-7.2886.0308-.4812-.02-2.2564.1092-2.6175-.2557-.245-.2476-.1619-2.77-.2174-3.2879q-.2072-1.933-.3472-3.8726a218.0289,218.0289,0,0,1,.1616-26.4462c.1759-3.5833,1.04-7.8135-.019-11.3081-.8962-2.9585-3.2455-5.28-3.962-8.3012a12.6054,12.6054,0,0,1,.9933-8.1975c2.2546-4.3192,7.1716-2.11,10.3351.0135l.1579-1.2081c-1.0174.1856-1.4547,2.5831-1.6992,3.3361-.475,1.4631-1.157,3.1292-.5924,4.6653a4.0226,4.0226,0,0,0,4.2417,2.3087,5.0072,5.0072,0,0,0,3.6229-2.89c1.1539-2.0209,1.6285-4.5954,3.52-6.1044,2.9719-2.3712,7.085-.6035,9.3334,1.9264,2.6753,3.01,4.0761,7.41,4.4324,11.3621a11.7037,11.7037,0,0,1,.094,2.4917c-.2192,1.4782-.8086,1.76-2.1845,1.97-1.9967.3055-4.48-.1879-6.4854-.2855l.5874.5874-.1025-5.814a.5394.5394,0,0,0-1.0781,0Z"/><path class="cls-4" d="M278.0381,81.798c-.0027,9.34.1151,18.6654-.5731,27.9885-.3947,5.3468-1.1192,10.6283-1.8882,15.931-.3185,2.1959-.5161,4.4052-.7157,6.6143-.1113,1.232-.2021,2.4689-.3506,3.6972a10.7893,10.7893,0,0,1-.3869,2.1953q-3.0957,2.3041-3.2864.3322c-.8086-1.7842-.7257-5.0252-.54-6.9828.24-2.5284,1.6635-4.3487,2.4145-6.67a18.1783,18.1783,0,0,0,.4618-5.9672c-.0443-2.573-.05-5.1461-.0418-7.7195.0307-9.9893.1679-19.99-1.489-29.8759-.1443-.8611-1.4536-.4955-1.3108.3614,1.5735,9.4436,1.5138,19.0073,1.4974,28.5506-.0039,2.2509-.0045,4.5019.025,6.7526.0288,2.2058.3566,4.6138-.1576,6.7829-.4352,1.836-1.6274,3.3609-2.1773,5.1566a14.89,14.89,0,0,0-.4274,5.61c.1667,1.9783.0129,6.2379,2.5974,6.72,2.5646.4787,3.5634-2.46,3.8666-4.3769.7182-4.5408.9049-9.1691,1.5894-13.7237q.9321-6.2025,1.4153-12.4613a238.2623,238.2623,0,0,0,.4386-28.9146.4808.4808,0,0,0-.9609,0Z"/><path class="cls-4" d="M255.644,63.92c3.7345-.1175,3.9445-5.2194,3.8468-7.98a.56.56,0,0,0-1.1191,0c-.2464,1.9768.1046,6.6578-2.7277,6.8843-.6933.0555-.7133,1.1182,0,1.0957Z"/><path class="cls-4" d="M254.6958,35.0149a24.6886,24.6886,0,0,0-.544,17.01c1.2078,3.82,4.7738,5.8482,8.08,3.1247.6253-.5151-.2624-1.3707-.8825-.8825-4.724,3.7189-6.4215-3.7813-6.8971-7.0044a25.9867,25.9867,0,0,1,1.229-11.8321c.1753-.57-.7419-.9851-.9853-.4154Z"/><path class="cls-4" d="M256.7965,48.7511a3.7382,3.7382,0,0,0,4.2652.0375.5483.5483,0,0,0-.553-.9461,2.9651,2.9651,0,0,1-3.15-.0526c-.6044-.3949-1.1475.56-.5619.9613Z"/><path class="cls-4" d="M248.1721,59.3142a41.334,41.334,0,0,0-5.0822-3.5014c-1.16-.77-2.3158-1.5477-3.4449-2.3625-.4412-.3184-2.6369-1.5967-2.6651-2.2764-.0631-1.52,3.9481-2.6018,5.0006-2.9307,1.59-.4969,3.1535-1.1692,4.7452-1.6321,1.7125-.4981,3.0922-.4725,4.3443-1.9085,1.2127-1.3908,1.9508-3.1014,3.1893-4.4933.4326-.4862-.1525-1.4-.742-.9617-1.67,1.2431-2.1995,3.2646-3.6067,4.7254-1.1063,1.1484-2.8419,1.0622-4.2664,1.5747-.9377.3373-1.8455.7107-2.8011,1.0033-1.8858.5773-7.3584,1.819-7.3349,4.59.0149,1.75,3.2643,3.4414,4.4605,4.2476,2.3768,1.6018,5.1672,2.9089,7.325,4.804.5969.5242,1.4734-.3373.8784-.8784Z"/><path class="cls-4" d="M254.0969,36.9313c-1.3361-.9081-3.1543-.34-4.5508.1159-1.61.5262-3.9072,1.1861-5.24,2.2607-.7015.5656-.9678,1.4987-1.5015,2.1956-1.1285,1.4737-2.992,1.8169-4.6109,2.5225a32.0906,32.0906,0,0,0-7.5277,4.0078c-1.751,1.419-1.7592,2.84-1.0418,4.9505a21.8422,21.8422,0,0,0,3.4041,5.8047c2.6048,3.4764,6.2017,8.06,10.3884,9.7.7081.2775,1.0155-.7628.4831-1.1459a43.9221,43.9221,0,0,1-8.93-8.2952,29.9949,29.9949,0,0,1-3.4546-5.19,6.776,6.776,0,0,1-.87-2.7121c-.0638-1.6232,1.0753-2.2339,2.3715-3.0235a46.5118,46.5118,0,0,1,5.9038-2.8533c1.6805-.7194,3.627-1.1279,4.8371-2.6009.6472-.7879.899-1.7685,1.7455-2.3892a11.76,11.76,0,0,1,2.24-1.03c1.4084-.603,4.2719-2.0822,5.8129-1.3927a.5366.5366,0,0,0,.5412-.9259Z"/><path class="cls-4" d="M276.6732,44.6048a3.8618,3.8618,0,0,0-2.504-.4007c-1.0033.1665-1.989,1.0471-2.9363,1.1494-2.3412.2528-3.54-5.0073-4.72-6.55-1.4131-1.847-3.3317-2.3866-5.4871-2.9714-3.266-.8862-6.3521-2.3028-9.6262-3.17l.3049,1.1547c2.5908-2.5008,3.5859-5.9784,6.9282-7.7756a12.3539,12.3539,0,0,1,17.8518,8.5412c.5692,3.6588-1.9486,6.9428-.66,10.5706a.6539.6539,0,0,0,1.26-.3474c-.7022-2.7464.6446-5.13.9563-7.805a10.3416,10.3416,0,0,0-.7513-5.0935,14.3268,14.3268,0,0,0-7.5876-7.6672,13.7885,13.7885,0,0,0-10.5349-.0227,12.0351,12.0351,0,0,0-4.3316,2.99c-1.5748,1.74-2.4165,3.9839-4.108,5.632a.697.697,0,0,0,.3049,1.1547c2.9833.7755,5.8139,1.9961,8.7725,2.8484a17.0738,17.0738,0,0,1,4.1748,1.3486,7.7874,7.7874,0,0,1,2.788,3.5928c.7089,1.4682,1.4661,3.8412,3.0091,4.7054a1.7759,1.7759,0,0,0,1.5642.13c1.8627-.5054,2.7763-1.91,4.9985-1.2228C276.8,45.54,277.1227,44.8186,276.6732,44.6048Z"/><path class="cls-4" d="M267.2966,61.206c-.0352-2.9194-.9785-8.0084,1.215-10.2756,1.5639-1.6164,2.9784-2.6274,3.5638-4.9222a.5689.5689,0,0,0-1.0961-.3022,8.9289,8.9289,0,0,1-3.0237,4.14,4.22,4.22,0,0,0-1.5311,2.2532,22.3774,22.3774,0,0,0-.0314,9.23c.0991.5146.91.3887.9035-.1223Z"/><path class="cls-4" d="M317.6413,86.023c-2.04,1.8481-4.9618-2.5786-5.4179-4.1772-1.0665-3.7383.988-7.01,3.3643-9.62,1.227-1.348,3.8206-5.2324.824-6.2636-2.4108-.83-5.33,1.7367-6.3909,3.6317-.8414,1.5025-1.3085,3.2015-2.2483,4.6528a3.314,3.314,0,0,1-2.7382,1.8378c-3.01.0418-2.7832-2.8165-2.1637-4.859.3342-1.1019,1.9795-3.0727,1.2671-4.2454-.451-.7425-2.073-.7919-2.801-.578-1.365.4011-1.97,2.0657-2.4125,3.2579-1.02,2.7476-1.0774,5.7669-1.9671,8.5668-.65,2.0459-1.5536,4.2625-1.2979,6.4594.2571,2.2093,2.0267,3.682,3.064,5.5456,3.1187,5.6032,1.8819,12.1433.047,17.9434-2.0565,6.5009-4.4195,12.969-6.8445,19.34-1.9316,5.0747-5.92,10.56-5.8726,16.1518a.6815.6815,0,0,0,1.3325.18c.1294-.4441,3.7041-.6519,4.0337-.6823a13.4875,13.4875,0,0,1,4.1891.1911c4.9876,1.0235,9.6378,3.3819,14.6618,4.2356,4.0406.6866,7.8394.0578,10.98-2.68,1.86-1.622,3.4367-3.4339,5.6954-4.5376,2.2812-1.1147,4.7994-1.6958,7.1354-2.6906a.6918.6918,0,0,0,.244-.9307c-3.3832-7.01-6.7535-14.1332-8.576-21.7354-.19-.7928-1.4025-.4569-1.22.3365,1.7764,7.7384,5.1933,14.9663,8.6217,22.0856l.244-.9307c-2.3413.9947-4.8493,1.5665-7.1386,2.685a23.492,23.492,0,0,0-5.4226,4.2437c-5.1592,4.7083-11.2835,2.8125-17.2182.8554-3.6638-1.2082-7.5923-2.8231-11.51-2.5423-1.3868.0994-5.519-.0111-6.0275,1.7365l1.3325.18c-.0458-5.18,3.6463-10.1611,5.4687-14.8881,2.2308-5.7862,4.23-11.67,6.2673-17.5264,1.6857-4.8459,3.28-10.0443,2.7235-15.24a16.8584,16.8584,0,0,0-2.0071-6.4471c-1.4448-2.5834-3.3521-3.9262-2.75-7.2062.518-2.8214,1.6829-5.4569,2.1518-8.3073a19.3041,19.3041,0,0,1,1.1675-4.6225c.4326-1.0061,2.0974-2.8644,2.1218-.9647.0106.8217-.8136,1.966-1.0434,2.8049a7.8013,7.8013,0,0,0-.401,2.9877,3.489,3.489,0,0,0,2.6709,2.9187c3.125.895,4.8951-1.6245,6.0416-4.1219.69-1.5041,1.2152-3.259,2.4811-4.3956a5.8606,5.8606,0,0,1,2.3558-1.3315c2.8915-.64,1.473,2.35.5012,3.5144-1.5932,1.91-3.0387,3.2626-3.8134,5.7048a9.069,9.069,0,0,0,.2245,6.8686c1.1284,2.1841,4.3581,5.6721,6.8327,3.3705.51-.4745-.25-1.2268-.7623-.7623Z"/><path class="cls-4" d="M316.3572,70.261c1.2826.7015,2.2677.5044,3.7021.5509,2.8807.0934,4.2991,2.4465,4.7938,5.0388.8551,4.4811.2931,9.44.1367,13.9673a105.1045,105.1045,0,0,0,.2315,12.9744,43.0069,43.0069,0,0,1-1.3744,13.6942,26.1681,26.1681,0,0,0-.8085,4.9473c-.0777,2.33.1477,4.5638-.8974,6.7469-.4822,1.0073-1.3554,2.7967-2.3091,3.3792-2.146,1.3107-2.3891-1.1855-2.2181-2.7947.3313-3.1188,2.5258-5.3352,2.9569-8.3551.5782-4.0506.0038-8.5351.0237-12.6314.0246-5.0582.0415-10.1252-.3782-15.17-.3466-4.1663-.559-8.6579-3.0369-12.163-.5009-.7086-1.68-.0311-1.1738.6861,3.0438,4.3142,2.91,10.63,3.134,15.73.2361,5.3819.111,10.77.1413,16.1547.0142,2.5327.5094,5.49-.1036,7.9666-.4632,1.871-1.85,3.3209-2.3582,5.1874-.496,1.8231-1.1793,4.9773.2266,6.582,1.4969,1.7086,3.4309.0468,4.4568-1.2785,2.3118-2.9865,2.5733-5.93,2.67-9.6135.13-4.943,2.3074-9.6143,2.4222-14.5882a76.1955,76.1955,0,0,0-.493-7.6252,71.0856,71.0856,0,0,1-.0128-7.9116c.1817-5.3553.9692-11.3109-.2111-16.5926a7.4534,7.4534,0,0,0-2.47-4.3783c-2.0994-1.6167-4.3866-.2581-6.5662-1.3339-.55-.2713-1.0325.53-.485.83Z"/><path class="cls-4" d="M303.0942,69.4112c3.7345-.1175,3.9445-5.2194,3.8468-7.98a.56.56,0,0,0-1.1191,0c-.2464,1.9768.1046,6.6578-2.7277,6.8843-.6933.0555-.7133,1.1182,0,1.0957Z"/><path class="cls-4" d="M301.6345,41.1081a19.9146,19.9146,0,0,0-.6188,16.2434c1.654,3.867,4.938,6.1969,8.6661,3.2892.5527-.4311-.1871-1.404-.7562-.98-4.0449,3.0126-6.7246-1.6171-7.5148-5.232A22.0441,22.0441,0,0,1,302.62,41.5235c.2234-.57-.7029-.95-.9853-.4154Z"/><path class="cls-4" d="M303.7932,56.0562a3.7382,3.7382,0,0,0,4.2652.0375.5483.5483,0,0,0-.553-.9461,2.9651,2.9651,0,0,1-3.15-.0526c-.6044-.3949-1.1475.56-.5619.9613Z"/><path class="cls-4" d="M314.7467,66.6975a62.26,62.26,0,0,1,.0289-6.7658,5.1526,5.1526,0,0,1,1.4686-3.7562c.5592-.5621,1.1952-.95,1.7152-1.5694a11.2192,11.2192,0,0,0,2.5129-8.1872l-.5932.5932a3.3171,3.3171,0,0,0,2.5751-1.2779.5687.5687,0,0,0-.8038-.8038l-1.7713.8953a.6.6,0,0,0-.5932.5932,10.0189,10.0189,0,0,1-1.465,6.3067c-.9416,1.478-2.6076,2.28-3.4918,3.7165a7.9271,7.9271,0,0,0-.71,3.49,26.1594,26.1594,0,0,0,.2246,6.8881c.0954.5142.9132.3892.9035-.1223Z"/><path class="cls-4" d="M318.7108,87.6093c-1.439,4.0086-4.1,8.766-3.4258,13.1708.4914,3.2088,3.2217,5.433,4.0748,8.54a.5689.5689,0,0,0,1.0961-.3022c-.6-2.9954-3.1354-4.9243-3.8837-7.803-1.1182-4.3019,1.9709-9.3035,2.9635-13.3786a.4281.4281,0,0,0-.8249-.2274Z"/><path class="cls-4" d="M300.1578,35.9689A4.1984,4.1984,0,0,0,298.2,39.9278c.2,1.6864,1.9134,2.469,2.7538,3.7909a.5748.5748,0,0,0,1.0607-.2873,6.7545,6.7545,0,0,1,4.6924-5.5114.5337.5337,0,0,0-.2835-1.0283,7.68,7.68,0,0,0-5.5474,6.54l1.0607-.2873a16.2913,16.2913,0,0,0-1.9412-2.1351c-1.218-1.3372-.6066-3.2685.7227-4.3131.4124-.3241-.1243-1.0134-.5609-.727Z"/><path class="cls-4" d="M306.1671,37.4058c-.1006,3.5383,1.8011,7.825,5.0441,9.5079,4.1488,2.1529,5.799-1.3848,9.1277-2.9883.5312-.2559.1426-1.0226-.3838-.91-3.0721.6555-3.8414,4.4357-7.5871,3.1367-3.453-1.1975-5.0194-5.4139-5.404-8.7459a.3987.3987,0,0,0-.7969,0Z"/><path class="cls-4" d="M322.6288,44.39c9.1477,4.5438,3.521,14.837,2.4317,22.1519a.4047.4047,0,0,0,.78.215c2.8248-6.7516,6.77-19.8741-2.8637-23.1915a.4532.4532,0,0,0-.3477.8246Z"/><path class="cls-4" d="M325.1,65.09a63.8067,63.8067,0,0,0-3.4457-7.6814c-.7893-1.4527-1.7229-2.8156-3.47-3.0032-.5437-.0584-.635.8014-.1269.938,2.0769.5585,2.9227,2.8159,3.8041,4.5655.9053,1.7969,1.7372,3.6307,2.5207,5.4836.1713.4052.8767.1136.7175-.3025Z"/><path class="cls-4" d="M322.1585,43.03c.1273-2.2487.1728-4.499.2026-6.7508.0163-1.2279.3648-2.9611-.4251-4.0372-1.5983-2.1774-6.0279-3.4729-8.5441-4.1908-2.5822-.7368-7.0332-1.9105-9.5836-.77-2.2914,1.0248-3.2353,5.5838-3.487,7.7361-.0736.63.942.7451,1.0934.148.6451-2.5446,1.2586-6.47,4.3134-6.7924A22.5055,22.5055,0,0,1,314.27,29.62c2.4637.7589,6.587,1.9695,6.9585,4.8586.3539,2.7522-.0319,5.7719.0164,8.5512a.4573.4573,0,0,0,.9141,0Z"/><path class="cls-4" d="M302.8914,37.2147a29.6216,29.6216,0,0,1,2.434-7.4263c.2837-.5844-.59-1.099-.8753-.5116a26.6005,26.6005,0,0,0-2.3667,7.7152c-.0743.5208.7086.7609.808.2227Z"/><path class="cls-4" d="M300.5482,66.2786c-1.7213-.05-3.3518-1.7611-4.7211-2.6576a49.9555,49.9555,0,0,0-6.0682-3.1106,25.2672,25.2672,0,0,0-2.6927-1.2138c-1.0589-.3541-1.4691.12-.8462-.7861a23.8588,23.8588,0,0,1,2.6435-2.86c.7644-.7876,1.5725-1.5439,2.3081-2.3586,1.0817-1.1981,1.6843-2.6785,2.9371-3.7151,1.36-1.1255,3.17-1.47,4.5443-2.6895a10.8014,10.8014,0,0,0,2.7172-4.1439c.2587-.631-.7979-1.0722-1.1031-.465a10.2215,10.2215,0,0,1-5.6352,5.4024c-1.8993.8174-2.4454,2.2767-3.591,3.92-1.5724,2.2562-3.91,3.9476-5.6335,6.097-.3055.381-.9587,1.007-.79,1.5676.0859.2861.29.26.4428.4517.4923.6179,2.15.8758,2.8453,1.1882.7142.3207,1.4215.6562,2.1271.9953A46.4881,46.4881,0,0,1,296.5,65.4453c1.2068.835,2.517,1.8909,4.0478,1.929a.5482.5482,0,0,0,0-1.0957Z"/><path class="cls-4" d="M298.3863,73.389c-2.9778-2.3821-6.1593-4.6021-9.3143-6.7431a60.03,60.03,0,0,0-5.392-3.18c-1.7-.9126-4.1994-2.1872-3.98-4.455.2159-2.2332,2.9562-4.0819,4.5157-5.4706,1.6167-1.44,3.2621-2.8478,4.8225-4.3494,1.4636-1.4085,2.7075-3.08,4.2712-4.3756,1.64-1.359,3.6147-2.2253,5.3727-3.41a.5835.5835,0,0,0-.5885-1.0068,36.5569,36.5569,0,0,0-5.3878,3.322c-2.0033,1.6088-3.588,3.74-5.4726,5.4939-1.9962,1.8577-4.1133,3.586-6.0751,5.4807-1.18,1.1391-2.5113,2.5229-2.6912,4.2464-.36,3.4518,3.8788,5.1064,6.2966,6.41,4.6213,2.4923,8.4672,6.3125,13.1683,8.6255.3551.1747.8081-.306.4544-.589Z"/><path class="cls-4" d="M321.354,144.5149a19.68,19.68,0,0,0,1.6824,6.74A22.3411,22.3411,0,0,1,324.27,160.71c-.1339,3.8508-.7269,7.6754-1.0645,11.5108-.4641,5.2721-1.1509,11.143.0015,16.3481.2658,1.2006.6552,2.3758.8872,3.5835.3775,1.9652-.1008,2.7486-2.4035,2.7778a65.4644,65.4644,0,0,0-6.9715.6419c-.9646.1137-1.9307.228-2.8983.3118-.856.0742-3.0134.6063-2-1.0246.5857-.9431,2.4893-1.6533,3.4455-2.1224,1.2236-.6,2.5056-1.0881,3.6781-1.79,2.1854-1.3072,2.4574-2.7352,2.2832-5.0764-.4817-6.4731-.8359-12.9537-1.3936-19.4215-.3075-3.5661-.6223-7.1462-1.181-10.6837a11.5261,11.5261,0,0,0-.7294-3.3691,5.7918,5.7918,0,0,0-.5609-.7545c-.5933-.8278-.3561.4942-1.1263-1.3575a8.4818,8.4818,0,0,1-.4954-2.2631c-.088-.7689-1.3039-.7815-1.2187,0a7.194,7.194,0,0,0,1.6356,4.3563c.4045.4382.3622.0992.6238.5389a5.67,5.67,0,0,1,.39,1.6553,104.9393,104.9393,0,0,1,1.2868,10.5223c.6443,7.0643,1.0429,14.1453,1.5677,21.2185a3.3642,3.3642,0,0,1-1.9745,3.7327c-2.3158,1.3468-5.1267,2.04-7.0939,3.9507-.8181.7944-1.4728,1.8479-.3867,2.7131,1.218.97,3.5175.37,4.8987.2171,2.182-.2414,4.4219-.8019,6.6081-.8787,1.6087-.0565,4.1134.7962,5.102-1.0343.707-1.309.0664-3.1515-.2609-4.4572a39.0511,39.0511,0,0,1-.9993-10.756c.1266-5.6137.8733-11.153,1.2888-16.7432a38.0723,38.0723,0,0,0,.01-8.0454c-.5207-3.6733-2.7524-6.7258-3.003-10.4972-.0364-.5479-.88-.5587-.8613,0Z"/><path class="cls-4" d="M306.7062,194.8615c-1.54.5913-4.0388.83-4.81-.98q-1.0566-.95.1563-1.0727.7269-.2783,1.4466-.5746c.3212-.1341.6421-.2713.9593-.4144a27.4241,27.4241,0,0,0,6.15-3.5664,4.6031,4.6031,0,0,0,1.7316-4.0848c.0163-2.8423-.2189-5.713-.4411-8.5452-.4126-5.26-1.07-10.5177-1.9791-15.715-.4729-2.7024-.724-5.8879-1.5888-8.47-.6756-2.0172-1.82-3.5207-2.1254-5.7358-.0848-.6151-1.0275-.4331-1.0474.1417-.0781,2.2656,1.1734,3.8178,1.85,5.8632a66.0861,66.0861,0,0,1,1.841,8.9868,154.9348,154.9348,0,0,1,2.2682,20.6231c.0816,1.8861.4378,4.0708-.7849,5.7-.8163,1.0879-2.858,2-4.0229,2.6337-1.57.8543-3.2553,1.4045-4.8519,2.1817-.5432.2644-1.06.4292-1.3342.9891-.5992,1.2249.6907,2.3,1.6676,2.854a5.8367,5.8367,0,0,0,5.308.1163c.5243-.2272.1473-1.1391-.3928-.9317Z"/><path class="cls-4" d="M304.2614,191.2949l-.0267.0349.6321-.1657.0858.0927.0479.3663.02-.0531-.5927.3365c.3029.084.669.5393.8944.7575.2856.2765.5546.5686.836.8491.4465.4452,1.2918-.1508.9019-.6959a6.0488,6.0488,0,0,0-.9578-1.0537,4.2516,4.2516,0,0,0-1.1307-.8193c-.7935-.2994-1.2884.8823-.46,1.0642a.47.47,0,0,0,.5218-.2123l.0181-.04a.4574.4574,0,0,0-.7893-.4613Z"/><path class="cls-4" d="M312.6612,193.0456c.5716.3149,1.0792,1.2917,1.6791,1.508a5.5361,5.5361,0,0,0,2.0985-.0221c2.344-.1631,4.6961-.2967,7.0338-.5331.7133-.0722.7423-1.1728,0-1.1367-2.2161.1078-4.4313.3141-6.643.49-.9783.0777-1.57.2489-2.32-.2383a6.267,6.267,0,0,0-1.4846-.93c-.5068-.179-.8271.6067-.3635.8621Z"/></g></svg>