<svg xmlns="http://www.w3.org/2000/svg" viewBox="0 0 889 318"><defs><style>.cls-1{fill:#f7fafc;}.cls-2{fill:#f2f6f9;}.cls-3{fill:#e6e6e6;}.cls-4{fill:#e93a1d;}.cls-5{fill:#ffefaf;}.cls-6{fill:#303030;}.cls-7{fill:#fff;}</style></defs><title>DN_Service-SEO-img-9</title><g id="back"><path class="cls-1" d="M747.5763,313.57a19.93,19.93,0,0,1-14.1953-5.9111l-6.3564-6.4043a20.0189,20.0189,0,0,1-4.0986,4.7119c-3.5967,3.0186-13.459,9.0859-27.3193.2744a82.1822,82.1822,0,0,1-7.4316-5.4639,20.0094,20.0094,0,0,1-29.0986,1.5586l-12.4971-11.94a21.2414,21.2414,0,0,1-5.5986,7.2607c-13.6328,11.4395-29.2676.207-35.1523-4.0234-3.6738-2.64-8-6.0381-13.082-10.2793a21.6164,21.6164,0,0,1-2.7051,2.71,19.9965,19.9965,0,0,1-25.9346-.1934c-6.3115-5.457-12.9707-11.2119-19.8525-17.1553a20.78,20.78,0,0,1-6.415,9.4482,20,20,0,0,1-27.1152-1.3q-.9448-.9624-1.8936-1.9258c-4.3965,2.6211-12.832,5.5039-23.4492-1.1807a84.3279,84.3279,0,0,1-7.2607-5.28q-.4878-.3867-1-.7979a20.0017,20.0017,0,0,1-28.7686,2.3291l-4.3281-3.71q-1.2715-1.0913-2.5264-2.168a19.9953,19.9953,0,0,1-6.5332,10.4141c-8.6582,7.2656-18.6689,6.0273-28.3232,1.7354A20.1138,20.1138,0,0,1,392.2687,292.05a19.92,19.92,0,0,1-4.4746,1.6914,20.5012,20.5012,0,0,1-7.4375,2.3115,20.4928,20.4928,0,0,1-20.5488.5352c-.9268-.4746-1.9756-1.0693-3.3018-1.8721-1.915-1.16-4.4912-2.8037-7.873-5.0254q-1.0972-.7207-2.3145-1.5273a20.0047,20.0047,0,0,1-33.9043,5.58s-14.7627-17.5029-29.5215-35.0459c-7.3877-8.7812-14.7734-17.5732-20.3115-24.1895-2.791-3.335-5.1162-6.1211-6.7432-8.085-3.9873-4.8135-7.7549-9.36-7.0518-17.5762a19.9973,19.9973,0,0,1,7.1338-13.67,20.9963,20.9963,0,0,1,9.1865-4.2725c-5.5645-8.5889-7.4551-14.4883-7.1533-20.5752a21.2967,21.2967,0,0,1,7.5977-15.4473c.2061-.1729.415-.3408.625-.5039a19.9443,19.9443,0,0,1,4.7314-5.957,20.12,20.12,0,0,1,3.0889-3.3965,21.3252,21.3252,0,0,1,3.1016-3.208,20,20,0,0,1,25.7871.0654,21.8314,21.8314,0,0,1,.0635-2.4932,20.0873,20.0873,0,0,1,7.0947-13.7285c2.5615-2.15,11.917-8.626,24.5049-1.4326,1.5488.8848,3.3232,2.0479,5.584,3.6582,2.8232,2.01,6.4209,4.7324,10.9395,8.2783a19.9876,19.9876,0,0,1,5.1885-6.6953c1.9785-1.6562,12.4932-9.47,25.62-.5059a20.0044,20.0044,0,0,1,4.3262-5.082,20.754,20.754,0,0,1,13.8828-4.707,19.9917,19.9917,0,0,1,24.3877-4.8008c.0068-.2363.0156-.4707.0283-.707a21.6775,21.6775,0,0,1,7.7324-15.666,20.0009,20.0009,0,0,1,18.3018-3.9258,20.0024,20.0024,0,0,1,25.625-18.7471,20.0013,20.0013,0,0,1,25.7725-17.292,20.0039,20.0039,0,0,1,29.875-9.7061,22.7675,22.7675,0,0,1,5.0107-5.9219c2.874-2.4121,13.36-9.5625,27.6182-.3359.9766.6318,1.9922,1.3477,3.0664,2.1621,6.1523-4.4922,15.8154-5.9951,24.5781.48.9355.6914,1.9834,1.5469,3.2988,2.6934,1.9258,1.6787,4.5225,4.0674,7.9385,7.3027.0791.0742.1582.1494.2373.2246a20.0179,20.0179,0,0,1,3.7959-4.2334c2.65-2.2236,11.4551-8.2324,23.374-2.2451A20.0065,20.0065,0,0,1,655.882,51.315q3.1465,3.2285,6.3076,6.4658a20.0113,20.0113,0,0,1,32.1748-5.541c8.36,8.3389,17.51,17.4443,27.0781,26.9424q.3838-.3589.7871-.6973a20.2,20.2,0,0,1,23.043-1.874,19.9183,19.9183,0,0,1,9.1191,4.5576q7.74,6.8042,15.6191,13.6934a19.992,19.992,0,0,1,3.2969-3.5254c2.8672-2.4053,10.7549-7.5293,22.0479-3.167a42.8724,42.8724,0,0,1,7.0449,3.6221c2.5693,1.585,5.6689,3.7178,9.4023,6.4756a20,20,0,0,1,26.749,3.5576l43.5918,51.95a19.9979,19.9979,0,0,1-2.4629,28.1729,20.6919,20.6919,0,0,1-2.6533,1.8848l3.457,4.12a19.9984,19.9984,0,0,1-2.4687,28.1777,20.9831,20.9831,0,0,1-6.7979,3.752,21.6054,21.6054,0,0,1,1.251,9.125,20.8991,20.8991,0,0,1-4.3867,11.6494,19.9761,19.9761,0,0,1-4.8018,5.9277,20.9587,20.9587,0,0,1-7.7979,4.0723c-.0088.4023-.0273.8047-.0547,1.2109a20.5544,20.5544,0,0,1-21.0557,19.3232c-.01.5244-.0371,1.0625-.084,1.6182a20.0926,20.0926,0,0,1-7.0937,13.7031,21.4037,21.4037,0,0,1-9.084,4.34,20.0256,20.0256,0,0,1-24.9512,8.7637,23.1541,23.1541,0,0,1-6.2041,8.1543c-2.7842,2.3369-12.7451,9.1387-26.7285,1.291A19.9312,19.9312,0,0,1,747.5763,313.57Z"/><path class="cls-2" d="M743.9679,310.4146c-4.0986,0-8.9375-1.2715-14.2842-5.0371-.9092-.6406-1.8857-1.376-2.9541-2.2256-6.3857,5.0068-17.13,6.749-26.2617-1.0967-.8252-.709-1.7832-1.6006-3.0166-2.8047-.6729-.6582-1.4473-1.4277-2.3291-2.3184a19.937,19.937,0,0,1-2.5225,2.5332,22.43,22.43,0,0,1-17.2666,5.0234c-.5361-.0635-1.0742-.1436-1.6182-.2422q-8.7261.2842-19.3027-5.8125c-2.2158-1.2705-4.624-2.7969-7.248-4.5967a21.1419,21.1419,0,0,1-2.3906,2.3477,20.0024,20.0024,0,0,1-25.0957.4951l-8.2-6.3477a20.0036,20.0036,0,0,1-4.6592,5.6641c-4.0674,3.4111-12.8115,8.1436-25.67,1.5215q-1.0576-.5449-2.2334-1.2217a20.022,20.022,0,0,1-27.7715-10.1582c-4.3828-5.86-18.8838-22.3135-31.08-35.5977a20.0014,20.0014,0,0,1-1.5615-25.126c-11.18-13.8838-15.0684-20.4482-14.5391-28.8916a20.61,20.61,0,0,1,7.2676-14.4473,19.9523,19.9523,0,0,1,8.1768-4.126q-.9653-1.062-1.8555-2.0518c-9.166-10.1738-13.7666-15.28-13.1895-24.4307a20.1556,20.1556,0,0,1,7.1289-14.1191,19.9127,19.9127,0,0,1,10.33-4.5215c-.127-.1729-.1992-.2705-.2119-.2881a20.0023,20.0023,0,0,1,1.9814-26.0322,20.0347,20.0347,0,0,1,3.6787-4.0723,21.0175,21.0175,0,0,1,17.8867-4.582,21.293,21.293,0,0,1,5.001-6.0811,20.0014,20.0014,0,0,1,27.4658,1.6641c6.2959,6.7354,12.9063,13.7852,19.7158,21.0225a19.998,19.998,0,0,1,26.3164,1.3164l32.5088,31.4727a22.01,22.01,0,0,1,15.6611-4.4814,30.4326,30.4326,0,0,1,12.7773,4.5664,20.01,20.01,0,0,1,14.5225,3.7266,21.134,21.134,0,0,1,17.7568-2.2773,21.3686,21.3686,0,0,1,16.3486.1895,36.3048,36.3048,0,0,1,21.457-.4912,19.9876,19.9876,0,0,1,18.209,4.2725l9.61,8.377a20.0211,20.0211,0,0,1,27.8184,8.8613c3.1377,3.7705,11.2842,12.4629,17.4287,19.0186,34.2656,36.5605,40.3086,44.002,39.6094,55.6738a20.819,20.819,0,0,1-7.3447,14.6553,20.0379,20.0379,0,0,1-3.1064,2.1436c-.0039.04-.0068.08-.0107.12a19.9948,19.9948,0,0,1-7.0674,13.5771,20.7858,20.7858,0,0,1-8.248,4.1826,19.9076,19.9076,0,0,1-7.5615,4.0488,20.2692,20.2692,0,0,1-8.9092,2.252q-.5024.4863-1.042.9395a20.3115,20.3115,0,0,1-6.6172,3.6689,21.2031,21.2031,0,0,1-2.7715,2.8008,19.9341,19.9341,0,0,1-10.6885,4.5615,20.023,20.023,0,0,1-17.4482,8.8359,19.9968,19.9968,0,0,1-25.45-1.9658l-1.5146-1.4668a20.0512,20.0512,0,0,1-2.58,2.6035A20.6733,20.6733,0,0,1,743.9679,310.4146Z"/><path class="cls-3" d="M631.4315,141.4318c6.2678,1.8,12.0931,3.7058,17.37,7.7036,1.03.78,2.1283,2.1845,3.4576,2.3711,1.2543.1761,2.6642-.611,3.8747-.8886a22.8836,22.8836,0,0,1,8.8342-.2426,23.8805,23.8805,0,0,1,7.9152,2.7989c2.3279,1.3327,4.356,4.1234,6.9531,4.8134,2.7048.7187,5.6466-1.3691,8.4141-1.4173,3.174-.0552,6.12,1.1124,8.9711,2.3861a1.8762,1.8762,0,0,0,2.2627-2.9326c-2.771-3.1774-7.0877-4.4663-11.2338-4.4069-2.24.0321-4.1336.9136-6.275,1.2215-1.8247.2624-4.0355-2.4061-5.6-3.3912-7.0759-4.454-16.5785-5.7132-24.439-2.6728l2.3653.6252c-6.2229-5.0554-14.2159-9.2412-22.3856-9.5436-2.0806-.077-2.432,3.0161-.4839,3.5756Z"/></g><g id="Layer_2" data-name="Layer 2"><path class="cls-3" d="M682.7244,142.0249q.3075.1033.6046.2283c2.7122,1.1442,2.807,2.1264,5.7767,2.5388a20.8709,20.8709,0,0,1,3.9141.6374c1.0409.3327.3917,2.1276,2.42,1.6777,5.1815-1.15.3483-9.1117-.9306-10.9238-2.624-3.7181-3.289-7.5713-4.5019-11.8228-1.29-4.5228-3.583-8.3037-4.24-13.1565-1.39-10.2692,1.8538-23.5193,5.441-32.9233,2.8338-7.429,6.7947-15.9732,11.87-22.24,2.65-3.2723,6.382-4.7323,5.369-9.5538-12.8005,3.1291-27.9368,10.6611-39.4885,17.7559-13.645,8.38-21.1068,22.985-26.2834,37.6984-3.1677,9.0006-6.9479,15.8262-6.3479,25.7193,3.5477,1.0449,5.5,4.9247,8.13,7.3162,1.9566,1.7791,4.3468,2.8693,6.4582,4.3087.8594.5858,2.906,2.9259,3.8751,3.1845,2.5624.6838,4.7511-1.4962,7.5267-.7579,3.5483.9439,2.8852,2.0332,6.341,1.3419C672.6265,142.26,678.4191,140.5785,682.7244,142.0249Z"/><path class="cls-4" d="M769.3688,45.7148c2.717-5.38,5.0577-17.773,6.3777-19.2111,4.2759-4.6581,12.3882-3.1956,12.163-12.3553-3.0362.1661-7.757,4.8671-10.1624,4.3963-3.4941-.6839-1.52-5.3337-4.6554-6.54-4.1178-1.5844-4.9283,1.38-7.9517,2.9671-3.4082,1.79-5.3764-.2547-9.2378.1483-.565,3.6972,3.3879,4.3165,5.6147,5.8358,4.7484,3.2406-1.1291,9.6518-2.9907,13.43-1.13,2.2923-5.4982,9.0808-1.6377,10.5521,2.9573,1.1271,7.4682-7.5616,6.9322-7.9848,3.03,2.3923-.5216,8.2385,2.2749,10.828C767.218,48.821,768.3214,47.789,769.3688,45.7148Z"/><path class="cls-4" d="M116.7969,282.1364c4.2366-.1559,12.91,3.4575,15.8612.732,4.8586-4.4864-.3433-16.4344-4.9779-18.4416-6.18,8.6046-7.6037-7.5678-9.0731-11.25-1.4334,11.899-11.4719,14.1166-5.38,27.1748C114.5062,283.0928,114.1219,280.6406,116.7969,282.1364Z"/><path class="cls-5" d="M37.3756,279.4593c7.5569.7005,11.1469-26.2436,12.9866-31.34,3.5841-9.9287,14.8294-23.8371,4.0805-33.11,1.5517-6.9446,8.4124-5.379,11.6807-1.7816,4.5447,5.0023,1.148,10.588,2.4766,16.6625,2.6732,12.2136,14.4086,21.2922,19.79,32.4361,2.3594,4.886,7.3794,10.6337.7637,13.5635-9.5975,4.25-7.31-17.7151-16.8616-19.5342-1.6736,14.505,4.9049,18.6765-10.3766,21.7564A80.68,80.68,0,0,1,37.3756,279.4593Z"/><path class="cls-6" d="M95.5691,276.6223a234.9545,234.9545,0,0,0-21.14-39.5849c-3.753-5.6841-9.24-13.595-5.75-20.6149,2.171-4.3667,8.5335-8.9417,4.8042-14.35a.7778.7778,0,0,0-1.3273,0l-6.3843,11.4638h1.3454c-.8955-2.0239-2.0731-4.419-4.46-4.9336a3.602,3.602,0,0,0-4.1473,1.8729h1.356l-2.5839-5.2211a.7955.7955,0,0,0-1.2334-.1589c-3.9983,3.3406.0027,8.1006,2.3219,10.9609,2.84,3.5032,1.9788,6.9821.4328,10.8369-1.4078,3.51-2.8594,7.0036-4.289,10.5051L37.5451,278.9621c-.2031.4975.302.9792.7586.9958a210.3483,210.3483,0,0,0,32.9942-1.392.8106.8106,0,0,0,.7873-.7873,185.8318,185.8318,0,0,1,2.1559-22.9223l-1.1571.4708c3.382,2.0439,4.2931,6.0272,5.142,9.6163,1.01,4.27,1.9994,8.545,3.0263,12.8111.2332.9688,1.7141.5584,1.4916-.4112-1.15-5.0135-2.2032-10.08-3.5488-15.0453-.8994-3.3184-2.2688-6.49-5.316-8.3311a.7932.7932,0,0,0-1.1571.4708,189.2484,189.2484,0,0,0-2.2113,23.3411l.7873-.7873a210.3489,210.3489,0,0,1-32.9942,1.3932l.7586.9958,16.2221-39.7371L59.2,230.0516c1.1413-2.7956,2.6577-5.7271,2.7721-8.8043a9.2267,9.2267,0,0,0-2.4906-6.3017c-1.7773-2.1835-5.5372-6.0532-2.3222-8.7395l-1.2334-.1589,2.5841,5.221a.79.79,0,0,0,1.356,0c1.8268-3.84,5.1217,1.2906,5.9056,3.0545a.7843.7843,0,0,0,1.3454,0l6.3662-11.4744H72.156c2.5232,3.6467-.9192,7.3365-3.0408,10.1419a13.3227,13.3227,0,0,0-2.9718,7.1611c-.4747,6.3131,3.4186,12.2315,6.7348,17.2587A262.3176,262.3176,0,0,1,94.3268,277.146c.3042.6976,1.5372.19,1.2423-.5237Z"/><path class="cls-6" d="M113.9118,281.54c-2.4032,2.6813-4.8022,5.3707-7.1573,8.0943a.7326.7326,0,0,0,.7069,1.2144,45.3858,45.3858,0,0,0,10.925-4.8743l-.9464-.2482,2.5913,3.9881a.7073.7073,0,0,0,1.275-.1666c1.4115-4.0513,6.5-3.2444,9.8222-3.19,1.5438.0253,4.9671.2382,5.412-1.8687.4437-2.1013-1.8884-2.634-3.2469-3.2381-4.8426-2.1534.2778-6.5664,1.4081-9.4191a6.8434,6.8434,0,0,0-1.0155-6.5539c-1.1627-1.6881-3.2721-4.2168-5.2936-4.9037-4.51-1.5325-1.7821,5.82-3.9115,6.7793l1.0407.2729a27.6586,27.6586,0,0,1-4.8755-17.3229.7639.7639,0,0,0-1.142-.6553c-1.8643,1.2353-2.3143,3.1828-2.253,5.3322.0693,2.43,1.544,7.5852-2.091,8.2042l.8463.3444-1.2761-2.1865a.7554.7554,0,0,0-1.2912,0c-1.76,2.9112-3.5349,6.075-3.9456,9.5133a9.5583,9.5583,0,0,0,.5536,4.7724c.6544,1.6112,1.9183,2.8475,2.5075,4.493.3078.86,1.6765.504,1.3843-.3816-.9643-2.9227-3.2088-4.7522-3.04-8.1017.1733-3.44,2.0914-6.6716,3.8315-9.5406h-1.2912l1.2732,2.1882a.776.776,0,0,0,.8463.3444c6.81-1.15.573-10.93,4.7117-13.671l-1.142-.6553a29.0292,29.0292,0,0,0,5.08,18.0907.7881.7881,0,0,0,1.0407.2729,2.9981,2.9981,0,0,0,1.6094-2.7054c.0922-.7859.0142-1.5746.06-2.3618.0158-.2728-.0648-1.0285.1425-1.25.8256-.883,2.12.5972,2.64,1.0515,2.2109,1.932,4.7884,4.705,3.6961,7.8842-.8306,2.4175-3.0392,4.0429-3.516,6.6344a4.2137,4.2137,0,0,0,1.0753,3.9994c.7853.701,1.9532.5618,2.6925,1.1364l.7073,1.8214a8.8326,8.8326,0,0,1-1.935.2456c-.7192.0389-1.44.0035-2.1586-.0228-3.9022-.1426-8.7781-.1294-10.3012,4.277l1.275-.1666-2.6015-3.9821a.7042.7042,0,0,0-.9464-.2482,45.6756,45.6756,0,0,1-10.6131,4.6676l.7069,1.2144c2.3589-2.7281,4.6773-5.4947,6.9874-8.2642.4931-.5911-.3306-1.4456-.8576-.8576Z"/><path class="cls-6" d="M26.9636,197.1945A26.2943,26.2943,0,0,1,51.667,176.8228a.5716.5716,0,0,0,0-1.1426,26.89,26.89,0,0,0-25.6922,21.2417c-.1267.6421.8462.9209.9888.2726Z"/><path class="cls-6" d="M636.56,124.206c4.5272-18.82,8.5738-39.0012,21.8371-53.9267,7.2822-8.1948,16.8939-13.53,26.9787-17.5322a160.7869,160.7869,0,0,1,31.3661-9.0558c21.0266-3.6925,43.235-1.7386,61.2156,10.5885,15.2062,10.425,25.83,26.4975,32.219,43.58a123.21,123.21,0,0,1,7.16,30.88c1.2249,12.2844.6068,25.0534-5.0142,36.2714-.4215.8412.8254,1.5839,1.27.7423,5.1762-9.8006,6.4131-20.93,5.8288-31.87a123.5658,123.5658,0,0,0-5.2665-29.4689c-5.4607-17.8437-15.0958-35.0237-29.5557-47.1022-16.3942-13.6942-37.3723-18.3941-58.3709-16.3963a146.046,146.046,0,0,0-33.9791,7.7693c-10.2615,3.5661-20.5254,7.8887-28.95,14.9006-17.6006,14.65-23.6457,38.8192-27.7338,60.3455-.1223.6439.8375.9266.9944.2741Z"/><path class="cls-6" d="M645.48,115.7474a24.1826,24.1826,0,0,0,5.3209-14.1787c.0258-.71-1.0461-.6971-1.0957,0a25.0922,25.0922,0,0,1-5.0028,13.5788c-.3349.4449.43,1.0419.7776.6Z"/><path class="cls-6" d="M655.2085,89.1409a7.5255,7.5255,0,0,0,5.1741-8.1466c-.0908-.5835-1.0438-.4416-1.0243.1386a7.13,7.13,0,0,1-4.3989,7.104c-.5448.2187-.339,1.0919.2492.904Z"/><path class="cls-6" d="M660.7925,107.4567a8.4411,8.4411,0,0,0,7.5163-8.3589.56.56,0,0,0-1.1191,0,7.6948,7.6948,0,0,1-6.5187,7.4612c-.5041.0738-.3908.9577.1215.8977Z"/><path class="cls-6" d="M670.6591,143.5546a10.1652,10.1652,0,0,0,8.0694-10.953c-.0963-.7975-1.3473-.83-1.2773,0a9.2,9.2,0,0,1-7.102,9.8286c-.7364.1674-.42,1.266.31,1.1244Z"/><path class="cls-6" d="M711.8972,145.394a7.7812,7.7812,0,0,0,1.7026-9.8158.5922.5922,0,0,0-1.022.5974,6.8666,6.8666,0,0,1-1.3767,8.5224c-.4755.4265.2184,1.1026.6961.6961Z"/><path class="cls-6" d="M660.5577,90.4856c1.0086-1.6756,1.9793-3.3839,2.8463-5.1375a.5805.5805,0,0,0-1.0018-.5856c-1.0189,1.67-1.9437,3.4041-2.821,5.1523a.5659.5659,0,0,0,.9765.5708Z"/><path class="cls-6" d="M670.0719,70.8488a15.8134,15.8134,0,0,0,3.6293-8.5092c.0665-.6441-1.0352-.8-1.1394-.1542a17.5506,17.5506,0,0,1-3.35,7.9995c-.3739.49.4661,1.1446.86.6639Z"/><path class="cls-6" d="M694.1155,122.578c3.6286.7886,6.0034,5.9172,3.2772,8.9123-2.7109,2.9784-7.9608,1.2772-9.18-2.27a.5014.5014,0,0,0-.9662.2664c1.1305,4.5027,7.7544,6.2946,10.93,2.7867s.7548-9.8454-3.8191-10.5714c-.5644-.09-.8225.7495-.2414.8758Z"/><path class="cls-6" d="M690.1908,91.0558a6.6555,6.6555,0,0,1,.6372,13.2068c-.7517.179-.4314,1.309.3178,1.1526a7.7725,7.7725,0,0,0-.9549-15.4258c-.6882-.067-.669.9856,0,1.0664Z"/><path class="cls-6" d="M651,126.7266a11.4338,11.4338,0,0,1-2.714,5.7005c-.4631.5448.2727,1.3118.7955.7955a10.8012,10.8012,0,0,0,3.02-6.1923c.1025-.7152-.985-1.0336-1.1018-.3037Z"/><path class="cls-6" d="M754.9135,43.1447c1.9677-3.3644,3.7261-6.8582,5.4347-10.36,1.5033-3.0812,3.3836-6.3249,4.3886-9.6123.4889-1.599.2812-2.965-1.3938-3.5687-1.5883-.5725-3.1178-.5251-4.6935-1.3854a11.2784,11.2784,0,0,1-4.374-4.356l-.73.95c3.4189.5365,6.8341,1.121,10.26,1.6107,1.36.1944,2.555.275,3.2433-1.1111.4761-.959.26-2.1439.86-3.0609a3.9258,3.9258,0,0,1,3.9542-1.3818c3.6445.738,3.9542,5.2182,3.0832,8.0869a.6794.6794,0,0,0,.8282.8282A23.889,23.889,0,0,0,782.72,16.787a31.1822,31.1822,0,0,1,2.7656-2.0964q.7908-1.2718,1.1455.3586,1.0842.8352.053,1.41a6.361,6.361,0,0,1-1.2708,1.18,50.2026,50.2026,0,0,1-7.5212,5.2109,8.2042,8.2042,0,0,0-3.944,4.5418,90.1187,90.1187,0,0,0-2.0241,8.9975l-1.0447,4.8018c-.3213,1.4768-.3529,4.1308-1.7779,4.7853q-.86,1.0017-1.4235-.12a3.391,3.391,0,0,1-.9992-1.26,6.8039,6.8039,0,0,1-.8043-2.7638,22.359,22.359,0,0,1,.3426-3.782c.102-1.4336-.1824-2.5352-1.5612-3.1123a.6955.6955,0,0,0-.7825.3184l-2.5939,4.2267c-.3923.6393-.7694,1.2933-1.1791,1.9212-.4727.7246-2.5079,3.9812-3.7677,1.4652-.4-.7992-1.5987-.0967-1.1991.7009,3.0133,6.0146,8.9372-5.9858,9.9364-7.6147l-.7825.3184c1.1742.4912.0693,4.483.1757,5.6538a8.6071,8.6071,0,0,0,1.2276,3.7049c.871,1.4228,2.94,3.4013,4.6735,2.0134.8-.64.91-1.8043,1.12-2.7261.5088-2.2356.9781-4.4812,1.467-6.7213l1.2574-5.7611c.4251-1.9478.6225-4.4694,1.7741-6.1763,1.1646-1.7261,3.3629-2.5816,5.0664-3.6447a39.7343,39.7343,0,0,0,4.0208-2.8771c1.5877-1.29,4.6611-3.3414,4.25-5.78-.3292-1.952-2.0758-2.2737-3.5455-1.3592-1.5736.9792-2.81,2.4789-4.44,3.4488a23.0848,23.0848,0,0,1-5.9177,2.4355l.8282.8282c1.284-4.2543-.4051-10.467-5.9188-9.8012a4.6007,4.6007,0,0,0-4.032,3.1876c-.1459.4932-.0486,1.3-.327,1.7427-.8244,1.3114-4.0358.3716-5.2343.1855q-3.4215-.5314-6.843-1.063a.6556.6556,0,0,0-.73.95,12.6189,12.6189,0,0,0,4.8441,4.809,11.77,11.77,0,0,0,3.2364,1.1814,7.5177,7.5177,0,0,1,1.2468.1917c2.0066.8465,1.2077,2.0018.6014,3.4355-2.679,6.3355-5.8828,12.4056-9.0092,18.5243a.4838.4838,0,0,0,.8348.488Z"/><path class="cls-6" d="M745.3071,40.4233c.9679-3.12,1.2458-6.5282,1.868-9.7371q.9454-4.8756,2.0972-9.7085,1.1519-4.8312,2.5134-9.609c.4655-1.634,1.5779-3.8282.4715-5.4325C751.15,4.33,748.5014,3.834,746.7608,3.4131a17.9113,17.9113,0,0,0-7.9162-.0922c-6.3089,1.2855-13.1481,5.3707-19.4312,1.7839a.685.685,0,0,0-.9981.4061q-.5724,3.6932-1.1434,7.3866a52.9387,52.9387,0,0,0-1.06,7.03c-.0565,3.7154,3.9839,1.7854,6.1325,1.7443,4.1379-.0791,7.94,2.3093,12.1127,2.0647,4.3491-.2549,7.8058-3.6994,12.2369-3.4092.8783.0575.8527-1.2672,0-1.3535-3.5105-.3554-6.2795,1.658-9.4646,2.7484-3.8167,1.3067-7.2185-.0462-10.9415-.9081a15.5773,15.5773,0,0,0-4.3164-.51c-2.12.1121-4.055,1.8434-4.2466-1.5063-.113-1.9759.6968-4.5022,1-6.4634q.5-3.2317,1-6.4634l-.9982.4061c4.0466,2.3,8.6434,1.7322,12.95.4981,6.0531-1.7348,11.6963-3.8022,17.8856-1.1376,2.1525.9267,1.7118,2.5862,1.1667,4.4574q-.5953,2.0436-1.1529,4.0978-1.1761,4.3368-2.1806,8.7176c-1.2718,5.5436-3.0763,11.6658-3.0727,17.3785a.5033.5033,0,0,0,.9841.1332Z"/><path class="cls-6" d="M591.3932,101.2744c3.7629,1.5424,7.5539.1478,11.0418-1.489a65.8714,65.8714,0,0,0,10.908-6.4781c6.4169-4.6966,12.7808-10.6353,16.1965-17.9386,2.967-6.3439,3.4264-14.4725-1.1385-20.2227-3.6861-4.6431-10.759-6.7482-15.9926-3.4885a.6216.6216,0,0,0,.627,1.0726c5.8866-2.872,12.8553-.0413,15.7211,5.7111,3.2319,6.4876,1.2736,14.0807-2.466,19.8746a55.8724,55.8724,0,0,1-14.628,14.6226,68.8613,68.8613,0,0,1-8.3028,5.08c-3.5865,1.8567-7.6568,3.8884-11.7095,2.3236-.5851-.2259-.8221.7006-.257.9323Z"/><path class="cls-6" d="M616.5916,58.69a8.0479,8.0479,0,0,1,2.89,11.91c-.4323.5778.5592,1.3518,1.0077.7775,3.4255-4.3868,1.9228-11.4408-3.3066-13.7-.6756-.2918-1.28.6714-.5915,1.0119Z"/><path class="cls-6" d="M824.3848,93.7145c-1.0005-12.0853-1.0488-24.3937,2.6639-36.0687,3.25-10.2205,9.3148-19.5879,18.1256-25.8467.6409-.4553.0371-1.5214-.624-1.0675-20.161,13.8406-24.029,40.3838-21.1967,62.9829.08.6418,1.0869.6721,1.0313,0Z"/><path class="cls-6" d="M814.1655,80.0366a68.0348,68.0348,0,0,1,11.9662-35.314c.4265-.6133-.57-1.1812-.9967-.5826A64.4239,64.4239,0,0,0,813.04,80.0366c-.0147.7279,1.0847.7187,1.125,0Z"/><path class="cls-4" d="M723.3113,7.32a14.6687,14.6687,0,0,0,2.4364.5381c5.6536.6541,10.0558-2.2143,15.4441-2.8048,8.255-.9035,12.1623-.2865,9.8817,8.3777-1.8351,6.9717-3.772,7.2465-10.6057,8.2108a97.4048,97.4048,0,0,1-21.7448.0007c-5.9648-.6-2.6986-6.6791-1.4789-11.7544C718.2936,5.5207,720.4637,6.4859,723.3113,7.32Z"/><path class="cls-4" d="M128.6057,251.3646q2.387-2.9467,4.7512-5.911c.4349-.5482-.3322-1.3327-.7789-.7789q-2.3825,2.9529-4.7263,5.9359c-.4193.5307.32,1.29.7541.7541Z"/><path class="cls-4" d="M122.1129,230.9434l2.4311,3.5127c.2917.4215.9862.0233.6931-.4052l-2.4108-3.5245c-.2987-.4367-1.0166-.0211-.7134.417Z"/><path class="cls-4" d="M134.4828,226.297a33.1492,33.1492,0,0,1,7.21-8.0386c.57-.462-.2354-1.2374-.8-.8a31.5836,31.5836,0,0,0-7.4071,8.2557c-.3957.6317.6,1.209.9967.5826Z"/><path class="cls-4" d="M126.5583,214.5462c.7826,1.1934,1.5721,2.3749,2.41,3.53.3813.526,1.2437.0576.89-.52-.7432-1.2163-1.5293-2.3978-2.3289-3.5777-.4029-.5945-1.3712-.0419-.9714.5678Z"/><path class="cls-4" d="M110.8188,212.8651a9.7343,9.7343,0,0,1-.94-6.7309c.1451-.6752-.8831-.9653-1.04-.2866a10.641,10.641,0,0,0,1.023,7.5765c.3376.6282,1.2922.07.9562-.5589Z"/><path class="cls-6" d="M54.0182,172.295c-9.79-2.4671-20.4789,1.2881-27.9078,7.6968-7.8983,6.8135-13.1477,16.3066-17.3427,25.71-2.3265,5.2153-4.3292,10.5576-6.259,15.93-.2422.6744.8206.9548,1.0679.2944,4.3706-11.6729,8.8933-23.6562,16.4841-33.68A41.0154,41.0154,0,0,1,34.1887,175.95c6.4116-3.1809,12.7511-3.154,19.7072-2.7519a.462.462,0,0,0,.1223-.9035Z"/><path class="cls-7" d="M567.6051,112.4731A16.7033,16.7033,0,0,1,582.3917,124.77a2.2883,2.2883,0,0,0,3.3083,1.3459,14.3981,14.3981,0,0,1,16.2405,3.5311c2.0581,2.329,3.1681,3.7562,6.3515,2.4048,4.06-1.7236,6.531,1.1466,7.3755,4.8786.4183,1.8485,3.4689,1.9369,3.827,0a8.5226,8.5226,0,0,0-5.3126-9.384,9.61,9.61,0,0,0-5.9608-.4246,5.6552,5.6552,0,0,0-1.6144.5781c-1.0876.6875-.21-.0428.0475.46a10.6821,10.6821,0,0,0-1.8948-2.2915,18.9315,18.9315,0,0,0-21.3328-3.6416l3.3083,1.3459c-2.3094-8.4586-10.2275-15.0621-19.13-15.0216-2.5657.0117-2.4723,3.69,0,3.9219Z"/><path class="cls-7" d="M623.2317,153.1769c2.3769-.93,4.41-2.3968,6.9561-2.9393a13.436,13.436,0,0,1,8.3222.879,13.8137,13.8137,0,0,1,5.8552,5.0122c1.1138,1.7167,1.6363,4.4541,3.9571,4.9774,2.34.5276,4.3051-1.6948,6.3035-2.5167a15.5054,15.5054,0,0,1,8.1636-.9866,15.2061,15.2061,0,0,1,11.7007,9.66c.469,1.25,2.0147,2.2472,3.31,1.3465,3.6512-2.54,17.2955-8.5375,17.4282.19.0369,2.4256,3.11,2.5166,3.9439.5338,2.1006-4.9939-3.3453-9.0324-7.7334-9.5075-5.5359-.5994-11.4626,1.7655-15.913,4.8931l3.31,1.3465a20.05,20.05,0,0,0-11.8814-11.9437,18.9584,18.9584,0,0,0-8.8927-.8851,19.4966,19.4966,0,0,0-4.5906,1.1631c-1.531.5995-2.7808,1.621-4.2435,2.2916q-.6494.3575.2892.0979-.2028-.4453-.41-.8886a8.3162,8.3162,0,0,0-1.0691-1.9181,18.0116,18.0116,0,0,0-10.23-7.5358c-5.1582-1.3956-13.1745-.3842-16.2341,4.573-.6281,1.0177.4367,2.6358,1.6587,2.1576Z"/><path class="cls-7" d="M704.247,180.2466c5.3468-6.5918,14.7048-8.3317,21.4061-2.58a2.2207,2.2207,0,0,0,3.44-.4432,8.2772,8.2772,0,0,1,8.67-4.3719c3.9383.7668,5.302,3.8317,6.6163,7.1588a2.0262,2.0262,0,0,0,3.9592-.5358c.3991-5.2295-4.9669-10.0484-9.7336-10.9588a12.6466,12.6466,0,0,0-13.2941,6.497l3.44-.4432c-8.4187-6.9464-21.0632-5.7719-27.129,3.6508-1.0089,1.5672,1.4167,3.5167,2.6258,2.026Z"/><path class="cls-7" d="M745.9465,164.8623c3.55-2.9712,7.92-4.8172,12.5508-3.1957a11.6738,11.6738,0,0,1,7.4792,9.5312c.2482,1.7056,2.6314,2.0422,3.6962.9758a10.4626,10.4626,0,0,1,17.2626,2.938c.7219,1.6374,1.1209,3.4391,2.5915,4.6057,1.6093,1.2766,3.3524.9594,5.16.3438a11.2134,11.2134,0,0,1,6.9686-.34c5.3414,1.5735,6.9933,6.05,7.5913,11.0607.26,2.1787,3.5481,3.0768,4.1434.5608,1.2451-5.262-1.9587-11.0789-6.2279-14.0243a15.2164,15.2164,0,0,0-11.5058-2.2747c-.7544.15-1.4481.415-2.1792.63-1.0137.2982-.97.5257-1.5783-.2557-.6486-.8329-.8765-2.3531-1.39-3.2985a14.8629,14.8629,0,0,0-23.9641-3.0727l3.6962.9758a15.658,15.658,0,0,0-10.9583-12.5169c-5.6079-1.5671-12.5642.434-15.8151,5.4448-1.0345,1.5945,1.1806,2.9987,2.4786,1.9124Z"/><path class="cls-7" d="M760.3509,182.4141a10.9587,10.9587,0,0,1,9.7843.6453c2.5821,1.5745,3.7008,5.02,7.232,4.4773,1.4584-.224,2.6854-1.1406,4.125-1.455a8.78,8.78,0,0,1,4.4973.2508,9.4942,9.4942,0,0,1,3.9288,2.3675c1.0563,1.076,1.5012,2.5275,2.57,3.5641a2.0011,2.0011,0,0,0,3.3742-1.3976c.2288-3.27-3.4177-6.4084-6.0454-7.8021a13.52,13.52,0,0,0-10.4509-1.08c-.7633.2537-1.7426.9868-2.5411.8522-.8368-.1411-1.3961-1.2081-2.0495-1.7981a14.5828,14.5828,0,0,0-4.8377-2.8911,13.9876,13.9876,0,0,0-11.0856.7117c-1.9387.9725-.5707,4.3651,1.499,3.5555Z"/></g></svg>