<svg xmlns="http://www.w3.org/2000/svg" viewBox="0 0 283 268"><defs><style>.cls-1{fill:#f2f6f9;}.cls-2{fill:#ffefaf;}.cls-3{fill:#e6e6e6;}.cls-4{fill:#303030;}.cls-5{fill:#e93a1d;}.cls-6{fill:#777;}.cls-7{fill:#172df8;}</style></defs><title>DN_Service-SEO-img-4</title><g id="back"><path class="cls-1" d="M142.9192,265.6063a19.9558,19.9558,0,0,1-12.6445-4.5049l-15.1787-12.39a20.0125,20.0125,0,0,1-3.8008,4.25c-4.3564,3.6553-13.7207,8.5928-27.4951.5859a93.2868,93.2868,0,0,1-8.5176-5.7451,20.0243,20.0243,0,0,1-25.4033-11.8291c-5.15-7.05-23.7051-28.1318-39.4238-45.25A20.0023,20.0023,0,0,1,9.2209,165.15c-5.0234-7.3633-6.7588-12.3281-6.3857-18.291a20.6577,20.6577,0,0,1,7.28-14.4775,19.9376,19.9376,0,0,1,7.8438-4.043c-6.8584-7.8174-9.9619-12.5674-9.4736-20.3184a20.17,20.17,0,0,1,7.1289-14.123,19.92,19.92,0,0,1,10.2881-4.5166c-.3555-.48-.5508-.7461-.5742-.7764A20.0082,20.0082,0,0,1,25.342,64.85a20.2259,20.2259,0,0,1,5.2539-6.8223,21.4945,21.4945,0,0,1,7.3066-4.043q.0117-.3457.03-.6934a21.3973,21.3973,0,0,1,7.63-15.3662,19.9245,19.9245,0,0,1,9.5361-4.4033A20.0028,20.0028,0,0,1,77.9856,19.784a20.0187,20.0187,0,0,1,5.166-6.6543A22.4967,22.4967,0,0,1,98.8811,7.9383a20.0521,20.0521,0,0,1,18.0039-.9375,21.52,21.52,0,0,1,19.3408-3.16q.5317.1582,1.0645.3447c4.7686-1.6943,11.6318-2.2324,19.8428,2.56a20.08,20.08,0,0,1,13.6895-.0244,19.9622,19.9622,0,0,1,11.99,4.6836,20.0752,20.0752,0,0,1,13.4336,2.7979,20.0385,20.0385,0,0,1,14.3369,11.3457c3.52,4.2822,13.14,14.5479,20.38,22.2715,38.3271,40.8945,44.877,49.4551,44.7314,60.3232a20.025,20.025,0,0,1,1.2588,15.0166,19.9434,19.9434,0,0,1,4.1465,14.02A20.0035,20.0035,0,0,1,278.466,152.76a20.1092,20.1092,0,0,1,1.9893,10.7393,20.4927,20.4927,0,0,1-2.5029,8.4287,24.1972,24.1972,0,0,1,.1387,4.626,21.6186,21.6186,0,0,1-6.4365,14.2773,21.11,21.11,0,0,1,.4014,5.9443,20.4615,20.4615,0,0,1-5.2383,12.417,20.9924,20.9924,0,0,1-7.4062,13.9883,19.9184,19.9184,0,0,1-7.78,4.0273c-.0049.5049-.0283,1.0117-.0713,1.5176a19.9987,19.9987,0,0,1-7.07,13.6279,20.4877,20.4877,0,0,1-15.4531,4.6328,21.4686,21.4686,0,0,1-4.1484,4.6523,20.2454,20.2454,0,0,1-25.1719.5293,20.0407,20.0407,0,0,1-3.2793,3.5029,22.1248,22.1248,0,0,1-12.1914,5.09c-6.98,2.1094-15.1211.6045-24.3154-4.5205a21.1687,21.1687,0,0,1-4.1543,4.6875A19.9643,19.9643,0,0,1,142.9192,265.6063ZM212.1311,30.7235l.0645.0713a15.6789,15.6789,0,0,0-.6523-2.6807A19.8455,19.8455,0,0,1,212.1311,30.7235Z"/></g><g id="Layer_2" data-name="Layer 2"><rect class="cls-2" x="170.7786" y="112.6907" width="33.0578" height="26.1281"/><rect class="cls-3" x="170.607" y="146.9212" width="36.5299" height="19.89"/><path class="cls-4" d="M94.298,66.21c-.8781.1423-1.4246.083-1.6821,1.0457a2.8536,2.8536,0,0,0,.1876,1.8918,2.57,2.57,0,0,0,3.3624,1.3684,2.74,2.74,0,0,0,1.6364-3.3686,2.7935,2.7935,0,0,0-3.4611-1.6927.4721.4721,0,0,0,.2508.91c1.982-.3916,3.2731,2.2123,1.2472,3.1673a1.5436,1.5436,0,0,1-2.06-.716,1.913,1.913,0,0,1-.2329-1.1628c.0715-.564.48-.5145.9791-.6178.5456-.113.3064-.9114-.2274-.8249Z"/><circle class="cls-5" cx="86.2913" cy="67.9614" r="2.9701"/><path class="cls-4" d="M74.6076,210.0427c-1.16-24.9876-1.5779-50.0719-1.38-75.0837.11-13.8844.274-27.7705.6051-41.6516.1368-5.7352.2882-11.47.5179-17.2025q.1431-3.5709.334-7.14c.0619-1.1232.1022-2.254.2181-3.3729.38-3.6636,2.0921-5.71,5.8958-5.891,4.9792-.2371,10.1539.4882,15.1323.7259q7.9478.3794,15.899.6818,16.1512.6135,32.3113.8787c21.3828.3411,42.7662.3527,64.1477-.0969,5.4693-.115,10.937-.275,16.4053-.4271,3.1523-.0877,5.71.5215,6.4359,3.9694a24.2538,24.2538,0,0,1,.2526,4.9834q.0007,7.4333-.0055,14.8665-.0188,19.7006-.0189,39.4011.0028,39.641.0129,79.2821.0017,3.2064.0036,6.4129a.6215.6215,0,0,0,1.2422,0q-.0127-38.9735-.0161-77.947-.006-21.1486-.03-42.2972-.0117-8.3507-.0186-16.7014c-.0024-4.8,1.0231-12.7114-5.6379-13.15-5.466-.36-11.16.2777-16.6371.4q-8.452.1882-16.9057.2893-16.41.1963-32.8213.0623-33.3155-.272-66.6066-1.94-4.2219-.2059-8.4429-.4308a28.8463,28.8463,0,0,0-6.3334-.0359c-3.5455.6042-5.0522,3.2305-5.44,6.5975-.58,5.0336-.5639,10.2031-.73,15.2628-.441,13.4239-.5875,26.8552-.6257,40.2855-.0782,27.5077-.3055,55.1022.9874,82.5865.1049,2.23.2493,4.4563.4161,6.6825.04.5282.8571.5394.832,0Z"/><path class="cls-4" d="M82.2344,77.4c17.1027,1.2211,34.345,1.4035,51.4851,1.5816q25.9989.27,51.9983-.3924,14.6079-.3871,29.2016-1.1219c.7044-.0361.7115-1.1294,0-1.1016-34.4831,1.3489-68.98,1.8229-103.483,1.001-9.7348-.2319-19.4668-.7137-29.2019-.8926-.6012-.011-.5885.8838,0,.9258Z"/><path class="cls-4" d="M102.6827,65.9767c-2.0519,1.1009-1.4921,4.7208.8485,5.07,2.3753.3546,4.0377-3.2044,2.1127-4.7169-.4976-.391-1.1714.2287-.7126.7126.8581.9052.18,3.1126-1.2515,2.85-1.2989-.2379-1.5235-2.3711-.4677-3.0109a.5248.5248,0,0,0-.5294-.9056Z"/><path class="cls-3" d="M192.9952,88.72c-12.3579-.4779-24.9976.2971-37.4485.0115-11.7784-.27-25.5705-2.4379-36.96.8611a2.8629,2.8629,0,0,0,0,5.4723c12.1829,4.1282,27.6592,2.2922,40.4084,2.5769,10.56.2357,26.4453,3.6085,35.7559-2.44A3.5083,3.5083,0,0,0,192.9952,88.72Z"/><path class="cls-6" d="M85.2845,116.7505c8.7379.583,17.6926-.0293,26.4488-.1134,8.7818-.0844,17.6871.2333,26.4488-.3681a.598.598,0,0,0,0-1.1953c-8.7717-.4181-17.6681.0868-26.4488.1866-8.7577.1-17.7236-.3238-26.4488.4414a.5248.5248,0,0,0,0,1.0488Z"/><path class="cls-6" d="M85.2845,121.9079c12.5289.3838,25.1192.1749,37.6565.2954a.6068.6068,0,0,0,0-1.2129c-12.4821-.47-25.1785-.8181-37.6565-.1255a.5218.5218,0,0,0,0,1.043Z"/><path class="cls-6" d="M85.2845,136.8389c8.8864-.7647,17.7482-1.5172,26.67-1.7347,8.9232-.2176,17.8155.1272,26.7305.44.7455.0261.7194-1.0739,0-1.1426a227.4408,227.4408,0,0,0-53.5426,1.3847c-.5931.086-.4589,1.1049.1425,1.0531Z"/><path class="cls-6" d="M85.2845,141.1147a355.5264,355.5264,0,0,0,39.4642-1.2863c.7783-.0692.7973-1.2806,0-1.23-13.1556.8277-26.2827,1.305-39.4642,1.3977a.56.56,0,0,0,0,1.1191Z"/><path class="cls-6" d="M85.2845,155.4291a444.2138,444.2138,0,0,0,56.942.358c.8466-.0434.8555-1.3563,0-1.3242-19.0173.7136-37.93.3933-56.942-.1705-.7384-.0219-.7211,1.0807,0,1.1367Z"/><path class="cls-6" d="M85.2845,162.2454a158.4562,158.4562,0,0,0,26.4438.12c.6994-.0514.7146-1.1311,0-1.1016-8.8342.3646-17.6077.2979-26.4438.1257-.5593-.0109-.5385.8044,0,.8555Z"/><path class="cls-6" d="M85.2845,175.2981c13.7915.5745,27.9345,1.473,41.6693-.2395.7942-.099.8236-1.3509,0-1.2715-13.911,1.3412-27.7521-.0156-41.6693.4387a.5365.5365,0,0,0,0,1.0723Z"/><path class="cls-6" d="M85.2845,180.6685c4.9458-.0689,9.8626.0932,14.7937.4835.7943.0629.7777-1.1527,0-1.23a103.306,103.306,0,0,0-14.7937-.4131.58.58,0,0,0,0,1.16Z"/><path class="cls-6" d="M85.2845,206.32c15.0776.5326,30.2011.7072,45.2877.7766a.6068.6068,0,0,0,0-1.2129c-15.0805-.4108-30.2013-.7179-45.2877-.6653a.5511.5511,0,0,0,0,1.1016Z"/><path class="cls-6" d="M85.2845,211.672c8.7909.5689,17.6489.6238,26.4554.7815a.63.63,0,0,0,0-1.26c-8.8015-.2746-17.65-.6552-26.4554-.5178a.4984.4984,0,0,0,0,.9961Z"/><path class="cls-7" d="M85.2845,113.0931c8.9574.2176,17.9395.0406,26.8977-.0645a.4778.4778,0,0,0,0-.9551c-8.9582-.1051-17.94-.282-26.8977-.0645a.5423.5423,0,0,0,0,1.084Z"/><path class="cls-7" d="M85.2845,131.1558c9.86-.2953,19.7367-.775,29.5767-1.4767.6809-.0486.6962-1.0956,0-1.0723q-14.7931.4955-29.5767,1.6232c-.587.0439-.602.9438,0,.9258Z"/><path class="cls-7" d="M85.2845,151.4608c11.0517.1538,22.1292.0717,33.1791-.1756a.686.686,0,0,0,0-1.3711c-11.0531-.0562-22.1311.0534-33.1791.3983a.5746.5746,0,0,0,0,1.1484Z"/><path class="cls-7" d="M85.2845,170.6435c8.6875-.0013,17.333-.0595,26.02.2262.7846.0258.7646-1.1445,0-1.207a151.3263,151.3263,0,0,0-26.02-.0622.5218.5218,0,0,0,0,1.043Z"/><path class="cls-7" d="M85.2845,201.6873a267.0735,267.0735,0,0,1,27.3663-.4226c.8033.0278.7927-1.1929,0-1.2422a162.7029,162.7029,0,0,0-27.3663.6394c-.6433.0688-.6673,1.0707,0,1.0254Z"/><path class="cls-4" d="M169.0026,114.9q-.0525,6.4792.0271,12.9543c.025,2.0779.0167,4.16.0883,6.2372a5.97,5.97,0,0,0,.9089,3.62c1.73,2.2019,5.9277,2.0327,8.4237,2.1179,4.3781.1494,8.7819-.0044,13.1613-.0572,2.1443-.0258,4.2885-.0523,6.4326-.09,1.6663-.0295,4.0305.3865,5.6077-.255,2.2478-.9143,1.3944-4.7994,1.3876-6.6567q-.0244-6.6963-.0488-13.3927c-.0071-1.9345.5248-5.0022-1.9607-5.5683-2.3661-.5389-5.1621-.3467-7.5843-.4786l-7.4834-.4074-15.4657-.8419c-.7835-.0427-.7817,1.1774,0,1.2188,8.979.4745,17.9575,1.0168,26.94,1.4105.8313.0364,2.2853-.2114,2.9934.1316,1.7863.8655,1.4719,2.5735,1.4785,4.0392l.0314,6.9443.0269,5.9523c.006,1.3216.0412,2.6468.0233,3.9682-.019,1.4051.3889,2.3566-1.4927,2.8367-1.8866.4814-4.4992-.0124-6.4326-.0141q-3.2162-.0028-6.4326.0138c-4.188.0153-8.4155.2247-12.597-.06-3.1711-.2156-6.4678-.4817-6.6609-4.4315-.0936-1.9139-.0588-3.8416-.0948-5.7574q-.126-6.7209-.3808-13.434a.4485.4485,0,0,0-.8965,0Z"/><path class="cls-4" d="M170.068,146.9212c-.681,5.3846-1.2074,10.7868-1.7472,16.1873-.14,1.3993-.86,3.5388.56,4.4943,1.2808.8617,3.7541.234,5.1388.16l15.9208-.8538q3.86-.207,7.7192-.4149c3.1079-.1709,6.2482-.4443,9.1833.82a.59.59,0,0,0,.8756-.5024q-.3868-7.9223-.75-15.8457c-.1592-3.3693.1673-6.0123-3.6685-6.5631a128.1206,128.1206,0,0,0-30.8467-.339c-.7614.079-.79,1.262,0,1.2129a194.6815,194.6815,0,0,1,25.0761-.2409c1.7516.1163,4.1476-.128,5.7706.4867,3.25,1.2308,2.5467,5.6956,2.6705,8.4144q.2931,6.4373.5846,12.8747l.8756-.5024c-3.7293-1.6634-7.7278-1.21-11.7-1.0013q-7.4781.392-14.9559.7876l-7.2367.3811c-1.32.0695-3.4241.7175-4.1437-.915-.3066-.6955.2672-2.6473.3466-3.4337.5113-5.0651,1.0279-10.1294,1.4058-15.2062.0524-.704-.9933-.67-1.0781,0Z"/><path class="cls-4" d="M167.7629,174.5224a89.32,89.32,0,0,1-.0636,16.68c-.104,1.4232-.1168,3.0787.8722,4.235,1.2517,1.4635,3.6388,1.5521,5.3969,1.7891,11.2069,1.5111,22.3394-1.5695,33.5164-1.9124a.4258.4258,0,0,0,.4216-.4216c-.5574-7.4377-.9718-14.8858-1.568-22.3208-.0438-.5468-.8954-.5571-.8613,0,.2176,3.56.4846,7.1173.74,10.6752.2273,3.1684.8462,6.5359.7175,9.7047-.0594,1.4629.0956,1.3225-1.3095,1.5746a22.6679,22.6679,0,0,1-2.3264.1406c-1.7084.1236-3.416.2608-5.1209.4263-3.2566.3161-6.5054.7132-9.7645,1.0036a80.462,80.462,0,0,1-9.7066.3806c-3.1415-.1-9.6405.2034-9.9184-3.9658-.1906-2.8594.5737-5.8613.6083-8.7447a51.6688,51.6688,0,0,0-.7187-9.3684c-.0878-.5116-.9727-.3994-.915.1238Z"/><path class="cls-4" d="M204.4434,171.8168c-11.1768-.1286-22.4983-.6445-33.6648-.1254a.513.513,0,0,0,0,1.0254c11.1663.5226,22.488.01,33.6648-.1148a.3928.3928,0,0,0,0-.7852Z"/><path class="cls-4" d="M86.4765,89.2654a2.2528,2.2528,0,0,0-.4354,2.9942c1.017,1.49,3.37,1.1264,4.8791,1.1082,5.7977-.07,11.6556.0211,17.4422-.34l-1.0374-1.3619-.0875.5628c-.0788.5071.3371,1.183.9442.9442l.4668-.1836a1.0814,1.0814,0,0,0-.286-2.1133c-3.3844-.0909-6.79.0775-10.1746.1377-1.615.0287-3.23.0542-4.8451.0873-.3842.0079-6.0564.213-5.472-.76a.8916.8916,0,0,0-1.3942-1.0757Z"/><path class="cls-5" d="M79.7832,189.77c-6.8362,2.9078-22.1706,7.5354-19.2511,17.76,1.6582,5.8076,7.5294,9.272,12.7385,11.4394,7.1372,2.97,14.9419,4.3976,22.576,5.3515a139.041,139.041,0,0,0,28.5959.5269c7.144-.5867,14.9578-1.2132,21.3305-4.8179,5.34-3.0207,8.527-8.4373,7.4167-14.6423-1.2658-7.0737-6.9485-12.6209-13.0012-15.9792-17.462-9.6887-38.2225-3.8842-55.8556,2.0484-.7017.2361-.4129,1.3352.3084,1.1187,15.0167-4.5067,30.85-9.6619,46.5563-5.4311,6.9633,1.8757,13.96,5.6737,18.0316,11.8077,4.0361,6.08,4.1309,13.8975-2.0471,18.5462-5.2115,3.9215-12.17,4.8406-18.464,5.5383a143.8579,143.8579,0,0,1-24.793.6435,117.0074,117.0074,0,0,1-23.0109-3.5863c-5.794-1.5558-12.28-3.7672-16.4247-8.3351-10.1119-11.1455,7.9263-17.6377,15.8319-21.0686.63-.2733.0851-1.1859-.5382-.9208Z"/><path class="cls-5" d="M58.7645,193.7721c-12.4473-10.21-19.8938-24.8231-18.8948-41.1285.68-11.0906,3.9567-23.1082,11.2056-31.7565a27.553,27.553,0,0,1,17.9451-9.9c.82-.0987.8418-1.3942,0-1.3066-13.2371,1.3775-21.919,11.4065-26.4428,23.2663-4.7243,12.3854-5.9956,26.6855-1.383,39.2743,3.232,8.8209,9.04,17.14,16.8669,22.4621.538.3659,1.2147-.4913.703-.9111Z"/><path class="cls-5" d="M56.4325,108.1753a94.7611,94.7611,0,0,1,12.4223,2.76l-.1489-1.1394a26.3161,26.3161,0,0,0-9.0613,7.6067c-.3846.5411.4621,1.1729.9111.703a37.479,37.479,0,0,1,8.7794-7.2331.63.63,0,0,0-.1489-1.1394,81.1383,81.1383,0,0,0-12.619-2.5529c-.5619-.0668-.6991.9078-.1347.9956Z"/></g></svg>