<svg xmlns="http://www.w3.org/2000/svg" viewBox="0 0 517 250"><defs><style>.cls-1{fill:#f7fafc;}.cls-2{fill:#f2f6f9;}.cls-3{fill:#ffefaf;}.cls-4{fill:#e93a1d;}.cls-5{fill:#303030;}.cls-6{fill:#fff;}.cls-7{fill:#fce0de;}</style></defs><title>DN_Service-Consult-img-1</title><g id="back"><path class="cls-1" d="M175.2367,249.2955q-.9419,0-1.8916-.0859c-.5088-.0464-1.0029-.103-1.4893-.1738a20.0193,20.0193,0,0,1-6.1611-.39,20.5694,20.5694,0,0,1-9.84-1.2964,20.9175,20.9175,0,0,1-14.5254-2.2637c-.957-.5132-2.0449-1.1582-3.4258-2.0308-2.0186-1.2764-4.7373-3.0874-8.3115-5.5361-4.2646-2.9224-9.8135-6.8013-16.5576-11.5752a20.0168,20.0168,0,0,1-31.5352,1.2256S68.431,211.6749,55.3656,196.1446c-6.54-7.7744-13.08-15.5581-17.9824-21.416-2.4736-2.9556-4.5352-5.4253-5.9766-7.1655-3.5-4.2256-7.4687-9.0146-6.7607-17.23a19.9991,19.9991,0,0,1,7.07-13.606,21.0938,21.0938,0,0,1,7.6543-3.9644c-12.6963-17.1636-13.9072-23.85-13.59-30.2461A21.6375,21.6375,0,0,1,30.9916,89.32a19.9984,19.9984,0,0,1,5.1523-9.3359,20.3107,20.3107,0,0,1,4.3926-5.18A21.5261,21.5261,0,0,1,43.39,71.9141a20.0085,20.0085,0,0,1,23.0771-1.8726,21,21,0,0,1-.0244-3.8716,20.1166,20.1166,0,0,1,7.0986-13.7393A20.3623,20.3623,0,0,1,91.3324,48.26a19.98,19.98,0,0,1,7.0225-17.5264,20.8044,20.8044,0,0,1,13.5859-4.7261,19.9224,19.9224,0,0,1,6.8906-12.1455,20.7675,20.7675,0,0,1,12.4473-4.6772,20.0171,20.0171,0,0,1,3.0811-3.24c6.3242-5.3115,16.874-7.28,26.1846.29.57.4629,1.3965,1.165,2.4561,2.0972,1.6914,1.4868,4.043,3.6084,7.19,6.4858,5.6455,5.1616,13.8691,12.7769,24.4424,22.6357,9.8115,9.1484,21.7363,20.3115,35.6553,33.3765a21.6735,21.6735,0,0,1,2.26-2.1924,20,20,0,0,1,26.8428,1.0273c.2012.1973,12.6924,12.4155,30.5156,29.5083A20.014,20.014,0,0,1,320.4037,93.55l8.6064,7.3184a20.0064,20.0064,0,0,1,31.999-6.9194q3.5933,3.3179,7.2275,6.6616a19.9992,19.9992,0,0,1,29.0928-4.5464l2.5469,2.0283a20.4654,20.4654,0,0,1,18.6084-9.7856A20.0072,20.0072,0,0,1,442.99,91.34c.6973.7017,17.2783,17.394,34.1006,35.6812,10.0391,10.9136,18.0732,20.1328,23.8809,27.4,11.2822,14.12,14.9639,21.6855,14.5889,29.9814a21.5211,21.5211,0,0,1-5.1533,13.0513,20,20,0,0,1-17.2393,18.1548,19.995,19.995,0,0,1-7.0957,16.7051,20.745,20.745,0,0,1-20.2568,3.5454,20.0075,20.0075,0,0,1-31.2891,7.2373l-10.7764-9.1641a20.753,20.753,0,0,1-5.4238,6.9907c-3.124,2.6216-11.7354,8.1089-24.249,2.4556a60.1845,60.1845,0,0,1-9.1895-5.3955c-2.32-1.5962-4.9307-3.5176-7.8662-5.79a21.045,21.045,0,0,1-3.7656,4.1343,19.9983,19.9983,0,0,1-26.6-.7939q-5.43-5.1379-11.1035-10.5039a21.3374,21.3374,0,0,1-7.2061,12.0869,20.0089,20.0089,0,0,1-22.502,2.2041c-4.4932,3.1943-13.998,7.3315-26.624-1.499q-.6328-.4424-1.3164-.9487a20.0093,20.0093,0,0,1-30.3174,2.6895l-5.5166-5.17c-.5527-.52-1.0986-1.0308-1.6475-1.5464a20.0065,20.0065,0,0,1-6.584,10.6221c-8.6709,7.2749-20,7.0259-33.6758-.7393-2.1465-1.2187-4.4678-2.6616-6.9834-4.3413a20.1685,20.1685,0,0,1-17.9424,10.9077Z"/><path class="cls-2" d="M235.4623,242.772c-4.0273,0-8.7656-1.2319-13.9912-4.8657-1.6533-1.15-3.5312-2.6152-5.8105-4.54a20.34,20.34,0,0,1-25.458-1.1655c-.7686-.64-1.6514-1.4346-2.7773-2.501q-.4146-.3926-.8867-.8472a19.9571,19.9571,0,0,1-2.668,2.7109,21.83,21.83,0,0,1-12.9053,5.0879c-8.0566,2.07-16.4062-.8721-22.7129-4.3008q-2.3276-1.2656-4.9736-2.9341a21.0491,21.0491,0,0,1-3.33,3.5171,19.9992,19.9992,0,0,1-24.91.6377L97.39,220.2393a19.9668,19.9668,0,0,1-3.125,3.2949c-4.0762,3.4214-12.84,8.1646-25.7363,1.4907-1.2168-.6294-2.5459-1.3882-4.0068-2.2871a20.022,20.022,0,0,1-27.1-10.4209c-4.2715-5.6826-18.4307-21.7769-30.3574-34.7661A19.998,19.998,0,0,1,6.63,150.9883a22.1767,22.1767,0,0,1-2.87-12.3062A20.518,20.518,0,0,1,11,124.3013a19.9449,19.9449,0,0,1,7.9658-4.0728c-3.5566-4.7109-5.3428-8.8892-4.9707-14.7925a20.1329,20.1329,0,0,1,7.123-14.1108,19.93,19.93,0,0,1,10.5264-4.5459,20.0116,20.0116,0,0,1,.6533-22.3271,20.2049,20.2049,0,0,1,5.3828-7.1069,20.9572,20.9572,0,0,1,8.4463-4.312A21.1887,21.1887,0,0,1,53.6557,38.44a19.9279,19.9279,0,0,1,12.01-4.6611A20.0035,20.0035,0,0,1,90.268,22.919a20.0177,20.0177,0,0,1,4.3975-5.207,22.7654,22.7654,0,0,1,17.1279-5.1187c.6328.0649,1.2715.1514,1.9189.2637a20.0093,20.0093,0,0,1,22.1045,4.4722,21.7842,21.7842,0,0,1,17.874-2.0264,31.9722,31.9722,0,0,1,8.1953,3.9727c1.0078.6587,2.0557,1.397,3.1572,2.228,4.43-.5112,9.8984.2842,16.127,4.1138a65.8434,65.8434,0,0,1,7.4629,5.4849A20.0265,20.0265,0,0,1,204.5326,34.49a19.9069,19.9069,0,0,1,11.1846,6.543c10.3848,12.042,21.4238,24.6309,32.1816,36.7026a19.935,19.935,0,0,1,15.0684,5.4961l4.5547,4.3491A20.0349,20.0349,0,0,1,286.14,98.1c2.1963,2.5557,7.1035,7.7915,10.8359,11.7734,22.0947,23.5747,28.7627,30.6895,28.0889,41.9434a20.6138,20.6138,0,0,1-3.1846,9.813,19.9441,19.9441,0,0,1-5.2744,12.5029,19.8962,19.8962,0,0,1-3.6777,7.4937,19.982,19.982,0,0,1-4.99,6.292c-.2021.17-.41.3369-.6211.5a20.5964,20.5964,0,0,1-2.5244,7.04,24.1824,24.1824,0,0,1,.0576,3.71,21.71,21.71,0,0,1-7.7129,15.4917,19.95,19.95,0,0,1-6.502,3.647,20.4119,20.4119,0,0,1-5.7217,7.7363,19.9957,19.9957,0,0,1-7.7529,4.0161,21.1145,21.1145,0,0,1-2.3662,2.3228,20.0048,20.0048,0,0,1-22.9209,1.9644,19.9876,19.9876,0,0,1-3.3838,3.646A20.6772,20.6772,0,0,1,235.4623,242.772Zm53.0508-135.145.0244.0239a16.6639,16.6639,0,0,0-1.5879-7.8584A19.961,19.961,0,0,1,288.5131,107.627Z"/></g><g id="Layer_2" data-name="Layer 2"><path class="cls-3" d="M318.2826,131.4533c1.9489-3.7143,2.2419-8.075,1.8556-12.399-.5213-5.8345-.7844-7.4828,1.3044-13.1882,2.25-6.1466,4.2585-13.8118,3.8675-20.4357-.4428-7.5-4.3607-15.1766-8.0208-21.5336-4.2317-7.35-8.9064-11.7572-17.1264-14.4636a66.3028,66.3028,0,0,0-17.6372-2.7513c-4.804-.2146-8.0777-2.5707-12.652-3.3676-5.5387-.9648-9.5919,2.6665-13.3054,6.12-2.0879,1.9417-4.8192,3.9611-6.1614,6.4663-1.7677,3.3-1.3689,7.2532-1.1913,10.935.1668,3.4587-2.4634,6.72-1.7788,10.002,5.9336,2.3169,11.0382,2.4575,16.301,6.5272,4.1271,3.1915,5.7888,7.43,11.0973,8.7147,9.1659,2.2178,11.787,6.3791,16.3059,14.1036,4.2968,7.3448,11.071,11.064,17.2236,16.3388a35.5924,35.5924,0,0,1,5.2266,5.609C314.5314,129.418,316.56,131.3844,318.2826,131.4533Z"/><path class="cls-4" d="M288.495,102.6386c1.85-6.44.3368-10.8611-3.0834-16.5156-1.6545-2.7353-4.8912-8.9757.3458-10.4283,5.7668-1.6,7.9963,5.7693,9.0232,9.4878,1.9078,6.9088,6.5185,2.5433,7.5105-2.8131,1.7252-9.3155-4.4381-20.75-14.8187-19.4127-10.786,1.3892-12.91,15.485-12.0244,24.2991.427,4.2506,1.0422,5.0876,4.4825,7.4123C282.813,96.616,284.9051,99.8426,288.495,102.6386Z"/><path class="cls-5" d="M247.388,76.5846a38.2616,38.2616,0,0,1,4.2667-11.4333c.3978-.6768-.5994-1.23-1.0372-.6063a21.4794,21.4794,0,0,0-4.0294,11.9313.4091.4091,0,0,0,.8.1083Z"/><path class="cls-5" d="M273.9137,49.3232c13.3728-4.1584,28.9238.1476,36.1452,12.7784,4.1053,7.1806,5.0147,15.6819,4.7873,23.8129-.237,8.4728-1.1832,17.2606-5.5961,24.6745-.412.6922.6365,1.2914,1.0726.627,3.784-5.7656,4.9891-12.6679,5.6081-19.4235.6413-6.999.7253-14.1989-.9169-21.0755-2.8046-11.7437-11.3284-20.78-23.1569-23.6209A27.9187,27.9187,0,0,0,273.575,48.52c-.4518.2123-.1329.95.3386.8032Z"/><path class="cls-5" d="M250.38,64.499c-.2612-6.4489,1.7036-13.568,7.266-17.423a13.25,13.25,0,0,1,16.6492,1.1478c.5.4878,1.2048-.24.7582-.7582-4.2822-4.9651-12.1379-5.1662-17.4931-1.8374-6.284,3.9062-8.819,11.8046-8.2819,18.8709.0531.6986,1.1305.7152,1.1016,0Z"/><path class="cls-5" d="M264.1971,44.0638a25.0046,25.0046,0,0,1,15.2892,4.195c.5857.39,1.0954-.53.5442-.9309A22.34,22.34,0,0,0,264.1971,43.15c-.5665.0695-.6025.94,0,.9141Z"/><path class="cls-5" d="M308.9837,112.3217a19.6511,19.6511,0,0,1-2.4014,13.0776.54.54,0,0,0,.9309.5442,16.9628,16.9628,0,0,0,2.301-13.8507c-.1431-.5476-.9164-.3063-.8306.229Z"/><path class="cls-5" d="M306.9605,51.854c12.3062,7.6838,19.8107,23.9026,18.7543,38.242a52.36,52.36,0,0,1-5.0007,18.2138c-.7325,1.5613-2.5755,3.6672-2.3562,5.4022.2856,2.26,1.03,4.4015,1.1586,6.721a20.4516,20.4516,0,0,1-2.6614,11.8193.645.645,0,0,0,1.1131.6506c3.2988-5.1506,3.4689-11.5895,2.2219-17.4252a21.8227,21.8227,0,0,0-.538-2.1225c-.218-.6775-.3864.4692.0067-.1478a36.2553,36.2553,0,0,0,2.1979-4.23A55.2355,55.2355,0,0,0,326.8682,91.25c.76-7.6716-.9317-14.9129-4-21.9209-3.2487-7.4194-8.174-14.366-15.5112-18.1534a.3929.3929,0,0,0-.3963.678Z"/><path class="cls-5" d="M310.7894,112.8031a2.6226,2.6226,0,0,1,1.9988.4056c.6329.4081,1.1784-.5726.5826-.9967a3.2359,3.2359,0,0,0-2.8618-.4259.5278.5278,0,0,0,.28,1.017Z"/><path class="cls-5" d="M289.04,101.7016c1.14-4.4877.1352-8.9562-1.6112-13.1558-.8182-1.9676-1.87-3.8234-2.7091-5.7787-.6133-1.43-1.1854-3.0642-.5434-4.5953.8958-2.1365,3.1563-2.3716,4.9416-1.2563,4.1179,2.5727,1.9514,8.6842,5.5193,11.5064,2.1063,1.6661,5.0354.6752,6.5467-1.2992,2.1182-2.7672,1.8588-7.0723,1.3458-10.3193a18.8849,18.8849,0,0,0-3.9939-9.2986c-4.5955-5.41-12.22-5.5449-17.8064-1.5458-7.4944,5.3647-8.135,15.5-5.44,23.6129.2637.7938,1.5236.4552,1.26-.3474-2.4527-7.4667-2.185-16.8639,4.6122-22.0039,6.5338-4.9408,15.0289-2.9993,18.5053,4.46a21.2655,21.2655,0,0,1,1.8261,10.2687c-.145,2.1741-1.7114,7.3459-5.09,6.0144-2.4068-.9485-2.5956-3.7014-3.0886-5.85-.6044-2.6336-1.66-5.4505-4.3075-6.6175a4.3734,4.3734,0,0,0-5.5085,1.2831c-1.9417,2.88-.0148,6.2765,1.3371,8.9364,2.4969,4.9125,4.6832,10.1813,3.4134,15.7675-.1166.513.66.7318.791.2181Z"/><path class="cls-3" d="M379.8982,100.5319c2.5189-2.1706,2.7841-7.0925-.6246-8.2841-1.9839-.6936-8.849-1.6977-10.13.7834-1.5625,3.0266,2.7569,6.7792,5.0621,7.653C375.8672,101.3139,378.4506,101.6009,379.8982,100.5319Z"/><path class="cls-3" d="M368.2433,110.6533c3.2607-1.7547-1.1987-6.2414-3.6573-5.0967-1.4214.6618-1.2217,2.5013-.5209,3.72C364.853,110.6472,366.0481,110.6807,368.2433,110.6533Z"/><path class="cls-3" d="M353.9767,119.2307a2.3968,2.3968,0,0,0,.6215-4.4191c-1.638-1.0358-4.6579-.7428-4.9169,1.5152C349.4845,118.0423,352.5345,119.5328,353.9767,119.2307Z"/><path class="cls-3" d="M395.0391,85.8309c3.4241-2.8772,8.9014-1.4631,12.2136-4.79,4.0279-4.0459-.521-7.5006.0734-11.7287.3449-2.4531,2.009-4.0111,1.899-6.9051-.1457-3.8328-2.3335-7.1816-4.63-10.0919-3.6557-4.6329-9.6317-8.1754-15.6763-8.0982-4.4146.0564-7.975,2.2189-11.7527,4.2992-1.895,1.0435-3.72,2.8575-5.8789,3.4978-2.5693.7622-3.9748.21-6.0154,2.0906a9.2235,9.2235,0,0,0-2.923,8.246c.4962,2.899,3.2488,4.5545,3.72,7.21.4841,2.7285-1.2506,4.4719-.4594,7.1656a15.1091,15.1091,0,0,0,6.9954,8.4942c4.5327,2.62,9.0291,2.5412,13.4778,3.71C387.3721,89.2693,394.569,89.3783,395.0391,85.8309Z"/><path class="cls-4" d="M388.6619,81.2547c3.5594-2.0725,4.66-5.2388,3.2916-9.2941-1.1122-3.297-5.6885-5.3714-6.3123-8.7134-1.4011-7.5065,5.661-1.2955,7.8129-.3652,4.56,1.9712,5.51-2.7295,2.0414-5.7295-6.856-5.93-18.3246-2.6969-15.8411,7.7865.6087,2.5695,5.1108,6.4238,4.4722,8.968-1.5306,6.0977-6.3267-2.3269-8.22-2.508-5.7243-.5476-1.052,7.4244,1.4919,9.1053C380.8639,82.7941,385.6364,83.3679,388.6619,81.2547Z"/><path class="cls-5" d="M386.7175,88.7347c-6.0075-.5812-12.3947-1.836-16.9965-6.0519-4.29-3.93-6.3781-10.32-3.6565-15.7174a.5165.5165,0,0,0-.0789-.6115,8.4678,8.4678,0,0,1,.5186-13.426c1.6476-1.1417,3.4371-1.0956,5.208-1.784,1.9676-.7649,3.58-2.4458,5.5028-3.3776a21.4973,21.4973,0,0,1,24.7281,4.3578c3.2418,3.33,5.8437,8.0856,5.4491,12.8634-.1765,2.1365-1.5426,3.83-1.7842,5.8908-.1756,1.4983.598,2.4325,1.1816,3.7319a6.6466,6.6466,0,0,1-.6,6.33c-1.46,2.28-3.4665,2.8941-6.0328,3.0561a8.2857,8.2857,0,0,0-4.6327,1.59c-2.0787,1.4737-4.3132,4.2684-7.2413,2.9672-.7658-.34-1.4336.7929-.6624,1.1333a5.6764,5.6764,0,0,0,5.57-.656,30.8847,30.8847,0,0,0,2.5194-1.9679c2.075-1.6074,3.8439-1.5281,6.312-1.9025a8.1981,8.1981,0,0,0,6.594-7.9374c.0273-2.43-1.9128-4.3483-1.6258-6.7488.178-1.4888,1.31-2.9622,1.5556-4.5126a12.7212,12.7212,0,0,0,.0247-3.5884c-.6515-5.1707-3.9141-9.9071-7.9543-13.0692a22.6483,22.6483,0,0,0-13.6788-4.8421,22.95,22.95,0,0,0-7.9558,1.3516,23.3855,23.3855,0,0,0-3.041,1.3452c-1.6085.8541-2.981,2.2431-4.6636,2.9039-2.14.84-4.1439.9013-6.02,2.4293a9.2394,9.2394,0,0,0-2.3343,11.7067c.4631.8643,1.8277,1.9749,1.9548,2.8891.1112.8008-.8613,2.5288-.9729,3.4518-1.55,12.8191,12.1649,18.9372,22.8133,18.9865.5179.0024.4977-.7429,0-.791Z"/><path class="cls-5" d="M379.7582,64.8855c-1.9461-5.1251,2.7481-10.5308,7.9543-10.35a11.7209,11.7209,0,0,1,7.4908,3.253,8.1729,8.1729,0,0,1,2.3746,3.3111,2.22,2.22,0,0,1-1.352,2.7532c-.718.2223-1.9246-.5576-2.4675-.9764-.4862-.3751-1.1329.458-.66.8558,1.9721,1.6606,5.8805,1.915,5.8692-1.4963-.0121-3.6595-4.1365-6.7478-7.15-7.9817a9.9238,9.9238,0,0,0-10.3613,1.34,8.26,8.26,0,0,0-2.4945,9.5115c.1992.4791.988.2844.7967-.22Z"/><path class="cls-5" d="M388.6169,59.382c-2.0751-1.0427-3.9206.7586-4.1459,2.8406a6.0694,6.0694,0,0,0,1.9318,4.7158c1.5491,1.698,3.5753,2.9741,4.9045,4.8748,2.351,3.3619.3178,7.6874-3.1252,9.4241-3.5761,1.8038-9.3507.35-12.2687-2.2314-1.6769-1.4832-4.26-5.9386-1.1412-7.6315,2.5776-1.3992,3.5,2.0988,4.477,3.5466,1.3807,2.0453,3.8091,2.9927,5.9873,1.5018,1.6552-1.133,1.77-2.8683.0793-3.9517-.4667-.299-1.03.4071-.6.7776,2.4553,2.1159-2.0072,3.0281-3.18,2.37-1.7453-.9793-1.3525-2.3941-2.28-3.765A4.8034,4.8034,0,0,0,376.95,70.16c-2.3835-.8436-4.2246.8478-4.66,3.17-1.2108,6.4535,7.46,9.9226,12.5426,9.859,4.9863-.0624,10.2358-5.2931,8.1825-10.4388-.8359-2.0948-2.7026-3.5454-4.3284-5.0076a13.7228,13.7228,0,0,1-2.5308-2.6779,4.7589,4.7589,0,0,1-.7084-1.65c-.2367-1.2377.2119-4.53,2.7643-3.339.4623.2157.8709-.4591.4052-.6931Z"/><path class="cls-5" d="M370.035,92.3043c-3.0321.9579-.1624,6.2827,1.3945,7.4793,2.726,2.0952,7.46,3.61,9.9019.3281,4.9128-6.6034-8.284-12.3612-12.3263-6.8165-.3757.5153.4437,1.1238.8742.6746,2.754-2.8739,11.1044-1.9369,11.1735,3.0745.0547,3.9644-4.0206,4.09-6.71,3.011a7.7022,7.7022,0,0,1-3.0907-1.9342c-.4207-.4977-2.36-4.4068-.89-5.04.4426-.1907.1271-.92-.3273-.7764Z"/><path class="cls-5" d="M364.6741,106.2436c-1.7528-.9875-2.3529,1.3518-1.8864,2.6219a3.83,3.83,0,0,0,4.2921,2.5181,3.3353,3.3353,0,0,0,2.4722-3.8147c-.4488-1.8631-2.4289-2.6647-4.157-2.7806a.55.55,0,0,0-.1456,1.0761c1.5869.3409,4.2122,1.5107,2.722,3.5136a2.0825,2.0825,0,0,1-2.6674.6354,2.8936,2.8936,0,0,1-1.1431-1.0477c-.0193-.03-.8931-2.3147.0134-1.8669.5662.28,1.0606-.5391.5-.855Z"/><path class="cls-5" d="M351.2415,116.5971c-.6528,3.1593,4.3812,4.6588,5.5087,1.5813,1.0414-2.8423-3.9025-5.8946-5.4535-2.8886a.5805.5805,0,0,0,1.0018.5856c1.02-1.5662,3.9706.4481,3.2763,1.991-.8254,1.8341-3.56.5153-3.5449-1.1625.004-.4424-.695-.5587-.7884-.1067Z"/><path class="cls-6" d="M205.3067,62.5954c4.0938,1.4478,13.1468,3.9362,11.0829,10.1736a1.9265,1.9265,0,0,0,1.8457,2.4229c3.79-.2236,7.4,2.3419,6.96,6.4707-.2884,2.7089-2.1916,5.4989.9087,7.41,1.4.8628,3.3537.892,4.9252,1.2318a20.8031,20.8031,0,0,1,5.0186,1.5895c3.4527,1.7461,4.58,4.438,4.6847,8.131a2.0405,2.0405,0,0,0,3.7706,1.0213c2.2186-3.4389.4739-7.6924-2.0386-10.4931-3.0929-3.4477-7.8362-4.64-12.2182-5.4173-.3408-.06-1.2518-.3666-1.1183-.1085.1862.36.4218-.749.4528-.862a10.408,10.408,0,0,0,.3883-2.8816,10.6087,10.6087,0,0,0-1.83-5.79,10.1881,10.1881,0,0,0-10.4131-4.0606l2.4229,1.8457c.163-8.1367-6.94-12.0894-14.0617-13.515a1.47,1.47,0,0,0-.7809,2.8326Z"/><path class="cls-6" d="M261.7266,103.8487c.1474-1.313,6.15.592,6.7947.9055,1.2012.584,5.0146,2.8188,4.1923,4.59a1.8678,1.8678,0,0,0,1.1006,2.7052c3.399.7668,7.24,1.5367,10.3178,3.2376,3.2286,1.784,2.9588,4.3985,1.833,7.4158-.7105,1.9044,2.096,3.47,3.4081,1.9839,2.591-2.9341,2.0755-7.7814-.4711-10.5985-3.2578-3.6036-9.5929-4.6987-14.1087-5.59l1.1006,2.7052c3.96-9.1671-16.7446-15.0235-17.1048-7.3547-.09,1.9232,2.7315,1.8351,2.9375,0Z"/><path class="cls-6" d="M273.1575,131.7211c6.5009-3.4305,15.028-1.2349,17.8487,5.9024a2.0122,2.0122,0,0,0,3.3051.8726c2.8967-2.3983,7.8462-2.1913,9.984,1.1246a2.4087,2.4087,0,0,0,2.6043,1.06,9.2253,9.2253,0,0,1,8.4966,2.8868c2.1449,2.465,2.3827,5.5076,2.0125,8.619-.3248,2.73,3.96,3.1326,4.6805.6334,2.89-10.0281-6.8813-18.4383-16.4158-16.5868l2.2437.5931c-4.0642-4.7609-11.7978-5.5537-16.4024-1.1265l3.1057.4c-4.1353-8.5366-14.7-11.9794-22.7405-6.5643a1.2666,1.2666,0,0,0,1.2776,2.1857Z"/><path class="cls-7" d="M264.2418,90.8705c2.7347,1.3516,6.8637,5.0194,6.6483,8.4252a1.9181,1.9181,0,0,0,1.8971,1.8971c2.9888.0121,3.4612,2.5652,4.6271,4.813a5.8154,5.8154,0,0,0,4.7186,3.4287,10.2257,10.2257,0,0,1,5.816,2.272c1.6973,1.47,2.3,3.6735,4.0837,5.0075a2.2244,2.2244,0,0,0,3.2479-1.3213c1.3968-5.4918-6.29-10.2349-10.8041-10.9-1.842-.2713-2.1857-.0224-3.14-1.7117a16.4437,16.4437,0,0,0-2.5895-3.7973c-1.8071-1.7732-4.6438-2.7405-6.9173-1.3262l2.5956.6806c-1.31-2.0179-2.0015-4.1943-3.7292-5.9675a14.67,14.67,0,0,0-5.6536-3.3994c-1.099-.4047-1.8545,1.3783-.8007,1.8991Z"/></g></svg>