<svg xmlns="http://www.w3.org/2000/svg" viewBox="0 0 217 203"><defs><style>.cls-1{fill:#f7fafc;}.cls-2{fill:#ffefaf;}.cls-3{fill:#e93a1d;}.cls-4{fill:#303030;}</style></defs><title>DN_Service-Ya1-img-8</title><g id="back"><path class="cls-1" d="M121.6709,200.6833a21.6011,21.6011,0,0,1-9.811-2.4346c-.9185-.4644-1.9573-1.0459-3.269-1.83-1.8889-1.1294-4.4275-2.7295-7.76-4.8921q-3.2681-2.12-7.6025-4.9946a20.0094,20.0094,0,0,1-33.094,3.78s-13.3064-15.7759-26.6094-31.5889c-6.6592-7.916-13.3176-15.8408-18.31-21.8052-2.5181-3.0088-4.616-5.5229-6.0835-7.2944-3.6907-4.4546-7.5068-9.061-6.8027-17.2739a20.0007,20.0007,0,0,1,7.0864-13.625,21.0291,21.0291,0,0,1,8.407-4.1387C9.2957,82.78,6.4888,75.6823,6.8518,68.3605a21.5137,21.5137,0,0,1,4.3694-12.0957,20.0014,20.0014,0,0,1,3.6946-8.8076,20.5629,20.5629,0,0,1,3.0994-5.1621,21.1712,21.1712,0,0,1,4.9873-6.0728A20.0073,20.0073,0,0,1,45.14,33.8254a20.6331,20.6331,0,0,1-.1116-4.584,20.0906,20.0906,0,0,1,7.0933-13.729c2.4841-2.085,11.5447-8.377,23.8018-1.8232,1.4351.7676,3.0642,1.7676,5.127,3.1475q.549.3669,1.1421.7725A19.9073,19.9073,0,0,1,88.59,7.7038C93.867,3.2756,102.9375.5417,112.5711,6.15c1.0974.6392,2.3357,1.4468,3.8972,2.5425.7905.5547,1.6841,1.1978,2.6895,1.9355A20.0518,20.0518,0,0,1,145.5115,4.93a19.9628,19.9628,0,0,1,16.7166,6.1641c.4783.5073,11.8491,12.5776,23.39,25.5093,25.155,28.1875,28.376,34.2637,27.8379,43.4678a20.5022,20.5022,0,0,1-.7644,4.4673,19.9983,19.9983,0,0,1-5.5254,23.2046A20.8,20.8,0,0,1,201.45,111.09l1.3679,1.63a19.9985,19.9985,0,0,1-2.5168,28.2183,21.048,21.048,0,0,1-13.5515,4.59,19.9988,19.9988,0,0,1-4.8064,24.7021c-6.8333,5.7339-14.5083,6.1777-22.1958,3.9941a20.0916,20.0916,0,0,1-14.7434,20.5078,19.8888,19.8888,0,0,1-5.7161,1.9282,19.84,19.84,0,0,1-8.5845,1.8823A20.2338,20.2338,0,0,1,121.6709,200.6833Z"/></g><g id="Layer_2" data-name="Layer 2"><path class="cls-2" d="M105.4054,13.4438c-2.1732.474-4.3214.9233-6.4182,1.214-6.245.8659-14.2034.7245-20.1405,2.5969-5.9335,1.8713-1.8973,10.0045-6.6734,13.5123-6.7152,4.932-13.6677,8.2444-19.5352,15.0859a75.1961,75.1961,0,0,0-12.8506,21.46C38.846,69.71,38.348,73.93,36.3941,75.79c-2.6321,2.5066-7.1526,1.2529-10.3061,2.823-4.5646,2.2728-.406,3.5718-3.106,7.0587-1.774,2.291-6.1115.48-8.62,1.2006-3.058.8777-4.8268,3.66-7.719,2.5048.72,10.7472,5.3,21.9009,4.9925,32.6972,4.5458-2.0255,11.5627-3.1383,16.51-3.1839a11.1031,11.1031,0,0,1,1.2938,5.939c3.338-.0682,6.6959-1.2972,9.2484.6424,1.6626,1.2634,4.4231,6.2667,5.7089,8.111,14.7377,21.14,35.5408,36.2343,62.572,36.2344,40.0146,0,72.4531-33.4019,72.4531-74.6052a76.0956,76.0956,0,0,0-19.5563-50.983,72.9666,72.9666,0,0,0-21.8075-16.4246c-4.0157-1.9667-8.5356-2.7877-12.499-4.635-2.3607-1.1-2.429.5211-3.9039-1.8014-1.1135-1.7533-.09-7.7526-.0287-9.87C116.3341,10.941,110.7931,12.2686,105.4054,13.4438Zm1.563,144.37c-32.5034,0-58.853-27.1323-58.853-60.6016s26.35-60.6016,58.853-60.6016,58.853,27.1323,58.853,60.6016S139.4723,157.8139,106.9684,157.8139Z"/><polygon class="cls-3" points="90.803 62.92 135.46 98.329 117.67 100.637 131.172 122.655 119.367 130.828 106.594 107.441 94.918 122.297 90.803 62.92"/><path class="cls-4" d="M90.8353,152.9844c-12.2781-.1383-23.7927-7.2893-30.8493-17.0965-7.5307-10.4662-10.5782-23.6871-10.6114-36.43A68.8764,68.8764,0,0,1,57.2862,66.545,51.9891,51.9891,0,0,1,84.2285,42.8524C95.54,38.37,108.6606,36.04,120.7209,38.44c6.3551,1.265,12.0707,4.4994,17.56,7.82a57.3248,57.3248,0,0,1,13.1547,10.2357c6.5722,7.2419,9.6908,16.5085,10.74,26.0995,1.2617,11.5284,1.08,24.0319-1.57,35.3379a47.1117,47.1117,0,0,1-24.0395,31.11c-13.5616,7.3425-29.2572,8.4612-44.36,7.2337-1.08-.0878-1.06,1.5713,0,1.6758,25.5577,2.5188,56.0693-4.71,67.14-30.6267,5.1967-12.1659,5.58-26.3184,4.9117-39.3488-.5024-9.7992-2.4225-19.744-8.0212-27.9915-6.62-9.7521-17.817-16.5987-28.52-21.0491-11.7-4.8647-25.5588-3.1622-37.3986.2691C78.1085,42.7449,67.2052,49.4085,59.7257,59.8309,52.9376,69.29,49.2722,80.7765,48.2052,92.3035c-1.3321,14.3912,1.1947,29.925,9.1231,42.21,7.3825,11.44,19.6856,19.3938,33.5071,19.42a.4749.4749,0,0,0,0-.9492Z"/><path class="cls-4" d="M36.9119,97.846C37.9241,81.3807,41.94,64.958,50.3283,50.6385c4.157-7.0965,9.0641-13.7876,16.27-18.0179,7.12-4.18,15.482-6.6015,23.561-8.0874,15.9546-2.9344,32.6674-1.3082,47.2323,6.0595a75.5227,75.5227,0,0,1,29.9642,27.95c13.9544,22.78,15.1168,52.7132,2.2378,76.2546a64.4621,64.4621,0,0,1-29.6212,27.5864c-13.7671,6.3791-29.44,7.8548-44.3474,5.5681-14.1209-2.1661-28.3958-7.2149-39.37-16.5914a50.3646,50.3646,0,0,1-12.7995-16.2465c-3.63-7.5245-5.21-16.2486-5.9264-24.5111a105.989,105.989,0,0,1-.2971-12.7562c.0378-1.1163-1.6968-1.115-1.7344,0-.5389,16.0063,1.7231,33.7377,11.85,46.7226,9.1733,11.7628,22.7188,18.8079,36.8789,22.6939,28.9753,7.9516,62.3634,1.7508,81.2971-23.1209,16.6163-21.8276,19.0435-52.8533,7.9114-77.6364A78.5289,78.5289,0,0,0,146.401,34.0492,72.9283,72.9283,0,0,0,101.56,21.8177a89.7043,89.7043,0,0,0-25.2113,4.9491c-7.8542,2.74-14.9807,6.651-20.3438,13.1395C45.4956,52.62,39.3947,69.1036,36.9106,85.2629A97.7486,97.7486,0,0,0,35.8162,97.846C35.8,98.5556,36.8689,98.545,36.9119,97.846Z"/><path class="cls-4" d="M37.0406,76.9639c-3.55,1.4581-8.332-.6276-11.4514,2.11-2.972,2.608-1.1982,8.1852-.8566,11.506,1.1774,11.4478,2.3183,22.899,3.487,34.3476a.702.702,0,0,0,.68.68,18.4237,18.4237,0,0,0,7.76-1.0173c.7771-.2848.4689-1.509-.3474-1.26a20.1013,20.1013,0,0,1-7.413.9179l.68.68c-1.0423-9.978-2.1145-19.9526-3.1492-29.9315q-.3816-3.68-.7632-7.36c-.2357-2.271-1.1381-5.5134.5667-7.3646,2.6676-2.8965,7.8186-.64,11.173-2.44.4626-.2482.1393-1.0749-.3657-.8675Z"/><path class="cls-4" d="M23.21,84.7249c-3.5006.12-6.965.3663-10.4556.6758-1.6822.1492-4.4821-.1214-5.6756,1.4116-1.392,1.7881-.377,5.4489-.2282,7.4668q.3927,5.3239.9567,10.6337.5245,4.9194,1.2066,9.82.3332,2.4038.704,4.8022c.1635,1.0555.116,2.7383,1.0736,3.4841,1.4854,1.1568,5.1722-.0641,6.8585-.2558,3.3818-.3845,6.7776-.7063,10.1476-1.184.7586-.1075.5868-1.413-.1822-1.3466-2.694.2325-5.3807.5885-8.0672.8956-1.8052.2064-6.2551,1.4943-7.6412.3812-1.0241-.8224-.9326-3.0121-1.12-4.2687q-.2864-1.92-.5491-3.8433-.61-4.4751-1.0853-8.9674-.41-3.8609-.7214-7.7316-.1533-1.935-.2815-3.8719a16.9346,16.9346,0,0,1-.2261-3.9931c.5312-2.583,5.5934-2.0791,7.6825-2.2731,2.5973-.2412,5.1442-.5882,7.7217-.9667.4954-.0727.3744-.8858-.1176-.869Z"/><path class="cls-4" d="M11.211,90.1229c4.0644-.0858,8.1557-.5264,12.1956-.9645.738-.08.7673-1.2284,0-1.1777-4.1042.2711-8.2582.5558-12.3256,1.1812-.55.0846-.4121.9725.13.961Z"/><path class="cls-4" d="M11.725,95.6881c4.1826.2142,8.4043.1632,12.5893.032a.6332.6332,0,0,0,0-1.2656c-4.1882-.0337-8.4113.0141-12.5893.3254a.4544.4544,0,0,0,0,.9082Z"/><path class="cls-4" d="M13.4019,113.938a110.6982,110.6982,0,0,0,12.7888-1.0294c.7-.0929.7512-1.1738,0-1.1367a111.9562,111.9562,0,0,0-12.904,1.3144c-.4874.0817-.3649.8589.1153.8517Z"/><path class="cls-4" d="M13.8015,118.4321c3.9708-.42,7.929-1.0189,11.8811-1.5855.8206-.1176.4674-1.3528-.3427-1.243-3.9.5285-7.813,1.0276-11.6911,1.7006-.6306.1094-.4926,1.1961.1527,1.1279Z"/><path class="cls-4" d="M14.0671,121.2553c4.361-.3932,8.7159-1.0314,13.045-1.6851.6394-.0965.496-1.2169-.1542-1.1394-4.3474.5178-8.7156,1.0572-13.0247,1.8347a.5061.5061,0,0,0,.134.99Z"/><path class="cls-4" d="M11.0391,88.3262c3.6218-.0962,7.2553-.2617,10.8669-.5524.7523-.0606.7749-1.21,0-1.1895-3.6229.0962-7.2545.32-10.8669.611-.7153.0576-.7368,1.15,0,1.1309Z"/><path class="cls-4" d="M12.1755,100.605c4.0767-.3638,8.1469-.45,12.2374-.4637a.4837.4837,0,0,0,0-.9668,75.23,75.23,0,0,0-12.2374.5047c-.5807.0667-.5993.9793,0,.9258Z"/><path class="cls-4" d="M12.7889,107.3909c3.1064-.0024,6.2383-.2732,9.335-.5087.8184-.0622.8352-1.3307,0-1.2891-3.105.1549-6.2492.2807-9.335.6669-.7.0876-.75,1.1315,0,1.1309Z"/><path class="cls-4" d="M76.0874,25.8646c-1.0876-2.0526-1.8695-4.719-.9479-6.9757,1.1591-2.8383,4.8642-3.1452,7.5127-3.6739a161.0463,161.0463,0,0,1,17.63-2.3532c5.4189-.47,10.848-.8291,16.2727-1.224l3.7414-.2723c1.84-.1339,2.2451.5633,2.6062,2.2549a13.8157,13.8157,0,0,1-.92,8.1554c-.3176.7775,1.011,1.343,1.3655.5757a14.6,14.6,0,0,0-.0282-12.3508.7685.7685,0,0,0-.6855-.3932c-11.5483.8533-23.17,1.4307-34.6232,3.2068-2.877.4461-5.7613.9482-8.5922,1.6336-1.827.4423-3.6866,1.0066-4.8651,2.5766-2.1091,2.81-1.1714,6.6838.4858,9.4522a.6069.6069,0,0,0,1.0473-.6122Z"/><path class="cls-4" d="M109.1455,121.7085c.6114-7.6126.3954-15.3435.51-22.98a.7.7,0,0,0-1.18-.4889,13.416,13.416,0,0,0-3.1774,4.0831c-.402.7929.7737,1.4925,1.1991.7009a13.7176,13.7176,0,0,1,2.9561-3.8061l-1.18-.4889c-.0238,7.6349-.38,15.3591.0935,22.98a.39.39,0,0,0,.7793,0Z"/><path class="cls-4" d="M108.5561,99.3646a11.0731,11.0731,0,0,0,4.4259,3.2249c.6069.213.9818-.719.4334-1.0281a18.5239,18.5239,0,0,1-4.1757-2.88c-.4471-.4416-1.0906.2192-.6836.6836Z"/><path class="cls-4" d="M100.8083,122.5623A68.2405,68.2405,0,0,0,99.0745,106.47c-.1578-.6254-1.2362-.516-1.1567.1565.6293,5.3258,1.42,10.576,1.7948,15.936a.5482.5482,0,0,0,1.0957,0Z"/><path class="cls-4" d="M89.4508,122.9773a43.55,43.55,0,0,0,.27-9.2153c-.07-.5924-1.0407-.8744-1.1567-.1565a44.1105,44.1105,0,0,0-.1444,9.3718.516.516,0,0,0,1.0313,0Z"/><path class="cls-4" d="M79.99,123.6207a57.0281,57.0281,0,0,0-.6055-6.8064c-.1265-.6653-1.1777-.5028-1.1682.1581A57.0838,57.0838,0,0,0,79,123.7546c.076.56,1.0278.43.99-.134Z"/><path class="cls-4" d="M70.9051,123.3345a27.65,27.65,0,0,0,.0854-4.3532.6039.6039,0,0,0-1.207,0,27.6511,27.6511,0,0,0,.0669,4.3532.5277.5277,0,0,0,1.0547,0Z"/><path class="cls-4" d="M62.7986,123.2633a24.8479,24.8479,0,0,0-.3488-3.4661c-.1291-.5952-1.0215-.44-1.0359.14a23.84,23.84,0,0,0,.3006,3.3259c.0791.6768,1.1354.7068,1.084,0Z"/><path class="cls-4" d="M127.8815,98.8228c11.5463,1.0706,23.6593-.3665,34.9308-2.9455.8184-.1873.47-1.4257-.3458-1.2543-11.5081,2.4176-22.8652,3.0907-34.585,3.3443a.428.428,0,0,0,0,.8555Z"/><path class="cls-4" d="M106.23,72.4625a213.0947,213.0947,0,0,0-3.1469-34.4489c-.1533-.8607-1.4423-.49-1.3052.36a288.09,288.09,0,0,1,3.579,34.0891.4368.4368,0,0,0,.873,0Z"/><path class="cls-4" d="M109.6528,131.5223c-.0453,4.0451.4605,8.1285.7772,12.1581.3183,4.05.5482,8.1193.9845,12.1581.0807.7472,1.2312.783,1.1953,0-.1931-4.2177-.6051-8.4342-.9222-12.6445-.2956-3.9237-.43-7.9166-1.0738-11.8019-.0922-.5564-.955-.4057-.961.13Z"/><path class="cls-4" d="M49.1686,103.7173c5.3886-.4329,10.7352-1.3536,16.1295-1.7964,5.4069-.4438,10.8118-.5974,16.2332-.7121a.6977.6977,0,0,0,0-1.3945c-5.5754-.0468-11.17.2571-16.724.7278a106.6088,106.6088,0,0,0-15.7835,2.1048c-.5859.1405-.4763,1.12.1449,1.07Z"/><path class="cls-4" d="M55.3674,84.4287A49.2561,49.2561,0,0,1,84.8418,48.1042c.654-.2768.1853-1.4046-.4876-1.1566-15.6367,5.7631-27.5912,20.7795-29.8626,37.24-.0777.563.7653.8262.8758.2414Z"/><path class="cls-4" d="M135.6323,145.4822c11.6489-6.2145,20.6084-19.1,23.4972-31.8358a.6334.6334,0,0,0-1.22-.3365,56.0823,56.0823,0,0,1-8.2944,17.51c-4.0118,5.5486-9.0276,9.7277-14.5621,13.67a.5747.5747,0,0,0,.58.9916Z"/><path class="cls-4" d="M158.956,107.2888c.2329-2.0774.5193-4.1374.6862-6.2254.0666-.8332-1.2395-.8323-1.3008,0-.1531,2.0787-.1839,4.1483-.27,6.2254-.0241.58.8228.5525.8848,0Z"/></g></svg>