<svg xmlns="http://www.w3.org/2000/svg" viewBox="0 0 541.4393 274.631"><defs><style>.cls-1{fill:#f7fafc;}.cls-2{fill:#f2f6f9;}.cls-3{fill:#e93a1d;}.cls-4{fill:#ffefaf;}.cls-5{fill:#303030;}.cls-6{fill:#fff;}.cls-7{fill:#fce0de;}</style></defs><title>DN_Service-Ya2-img-1</title><g id="Layer_2" data-name="Layer 2"><g id="back"><path class="cls-1" d="M280.8941,274.631a19.9543,19.9543,0,0,1-14.3052-6.0187c-.2861-.2927-.5774-.59-.864-.8835-4.3682,2.6359-12.85,5.6132-23.5469-1.12a84.4912,84.4912,0,0,1-7.26-5.2789c-2.0864-1.6533-4.5071-3.6477-7.2959-6.0126a20.0808,20.0808,0,0,1-1.678,1.5775c-1.2859,1.0762-12.9482,10.2035-26.3916-.5641l-3-2.4062q-5.0409-4.0444-9.79-7.8468a19.9983,19.9983,0,0,1-5.8877,8.3444c-14.0969,11.8276-31.62.6886-44.4153-7.4449q-4.9043-3.1177-10.8081-7.1705a19.99,19.99,0,0,1-1.9568,1.8824,20.2712,20.2712,0,0,1-17.801,4.1166,20.0866,20.0866,0,0,1-5.5747-.5636,19.9122,19.9122,0,0,1-8.9727-1.1775,23.6065,23.6065,0,0,1-13.2295-1.249c-1.3325-.4807-3.1011-1.1615-5.4065-2.0813-3.4021-1.3574-8.0935-3.2849-13.9639-5.7374a20.0157,20.0157,0,0,1-31.6582,1.3994s-5.6038-6.6438-11.2063-13.3032c-2.8088-3.3389-5.6174-6.6818-7.7231-9.1976-1.075-1.2844-1.97-2.3579-2.5969-3.114-2.01-2.4254-6.1907-7.4724-5.4822-15.663a20,20,0,0,1,7.07-13.5974,18.698,18.698,0,0,1,15.2488-4.4532,21.6494,21.6494,0,0,1-.509-6.24,20.8042,20.8042,0,0,1,7.354-14.8763,19.9516,19.9516,0,0,1,6.2351-3.5553q.5068-.49,1.051-.9468a19.8547,19.8547,0,0,1,5.2407-3.1505,19.9271,19.9271,0,0,1,4.6-2.5229,20.0007,20.0007,0,0,1,23.5562,1.2708q1.0023.8185,2.0149,1.6422-.0015-.89.0745-1.8331a20.0665,20.0665,0,0,1,7.0891-13.72c2.4763-2.0776,11.5073-8.3541,23.7334-1.86,1.052.5588,2.2083,1.2424,3.5647,2.1089a19.9983,19.9983,0,0,1,6.679-11.0319,20.3685,20.3685,0,0,1,20.0632-3.4277,19.9125,19.9125,0,0,1,5.5022-7.3748,21.164,21.164,0,0,1,10.6316-4.5928,19.9827,19.9827,0,0,1,21.7249-8.524,23.8363,23.8363,0,0,1-.1978-4.6385,21.4838,21.4838,0,0,1,7.67-15.5248,19.9537,19.9537,0,0,1,13.9253-4.65,20.0006,20.0006,0,0,1,33.11-19.3l3.1125,2.9146a20.0032,20.0032,0,0,1,33.3113-7.46q4.6571,4.8159,9.363,9.6642a19.9946,19.9946,0,0,1,30.46-3.6112l8.229,7.7593a21.9013,21.9013,0,0,1,3.8672-4.2129c5.074-4.2574,13.5674-6.93,22.9453-2.6044q.6288-.6319,1.3184-1.2109A20.3224,20.3224,0,0,1,362.4271,54.37a19.9965,19.9965,0,0,1,5.1865-6.6915,20.7267,20.7267,0,0,1,19.1326-3.8519,20.0012,20.0012,0,0,1,25.2964.0369q4.77,3.9056,9.6343,7.8625a20.0158,20.0158,0,0,1,31.4507-2.4c.157.1721,15.86,17.4246,31.3171,35.077,9.1646,10.4663,16.4839,19.0616,21.7546,25.5472,9.5935,11.8049,14.5708,18.3918,13.9558,27.5557a20.4142,20.4142,0,0,1-7.1982,14.21,20.8724,20.8724,0,0,1-6.2515,3.5449c2.5576,3.1036,4.6758,5.7008,6.3293,7.7607,5.4426,6.781,9.3752,11.68,8.6868,19.9922a20.0529,20.0529,0,0,1-7.0825,13.688,19.4734,19.4734,0,0,1-2.2366,1.6172A19.9983,19.9983,0,0,1,493.2789,216.48a22.1384,22.1384,0,0,1-7.7922,14.7051,21.5322,21.5322,0,0,1-10.9243,4.7372,20.0189,20.0189,0,0,1-25.5752,11.52,19.9961,19.9961,0,0,1-5.7256,7.923c-2.7358,2.2958-12.73,9.13-26.491.68q-.5369-.33-1.0989-.6964a20.0142,20.0142,0,0,1-30.2886,3.4677l-12.8164-12.0011a21.1166,21.1166,0,0,1-5.5034,7.0873c-3.1372,2.6322-11.79,8.1373-24.3552,2.42a60.8806,60.8806,0,0,1-9.2991-5.4958q-2.9919-2.0709-6.6406-4.8729a21.3417,21.3417,0,0,1-3.9392,4.3492,20.0048,20.0048,0,0,1-21.58,2.6779q.026.9884-.033,1.974a20.96,20.96,0,0,1-7.4729,14.9978A19.94,19.94,0,0,1,280.8941,274.631Z"/><path class="cls-2" d="M415.3194,264.2232c-4.9622,0-10.9326-1.49-18.0227-5.4886a142.9574,142.9574,0,0,1-15.5522-10.5228q-.3875.3591-.7952.7015a19.9983,19.9983,0,0,1-25.0811.5059l-6.9529-5.3713a19.989,19.989,0,0,1-4.8271,5.9774c-4.3135,3.62-13.5857,8.5282-27.219.7313q-1.162-.6645-2.4541-1.4862a20.0207,20.0207,0,0,1-27.4084-11.1327c-5.322-7.32-24.8335-29.4968-41.3872-47.5245a20,20,0,0,1-.8552-26.0591c-3.3345-5.55-4.554-9.8749-4.2427-14.84a20.6163,20.6163,0,0,1,7.27-14.4513,19.9493,19.9493,0,0,1,8.249-4.1422,19.3365,19.3365,0,0,1-3.2859-12.3779,20.0293,20.0293,0,0,1,22.522-18.63,20.0266,20.0266,0,0,1,12.3928-19.7787,21.6943,21.6943,0,0,1,18.3955-2.51,29.5382,29.5382,0,0,1,4.52,1.7745,20.7454,20.7454,0,0,1,2.8032-2.8582,19.9984,19.9984,0,0,1,27.0242,1.2073C346.52,84.0811,352.72,90.2817,358.9359,96.474a19.9989,19.9989,0,0,1,25.0557,1.0247l25.5078,22.3046c3.7461-2.7858,11.5547-6.667,22.3782-2.0775a20.02,20.02,0,0,1,15.2283,1.4987,21.0167,21.0167,0,0,1,18.7749-2.4685,19.61,19.61,0,0,1,14.7463.0083,20.0332,20.0332,0,0,1,18.6851,9.8624c3.9377,5.1123,21.5457,25.8,37.2539,43.96a19.9984,19.9984,0,0,1,.7866,25.197,20.0911,20.0911,0,0,1-9.168,11.0842,20.5519,20.5519,0,0,1-4.9062,6.06,19.95,19.95,0,0,1-7.3433,3.9064,20.2414,20.2414,0,0,1-5.3191,6.9535,19.9209,19.9209,0,0,1-8.6785,4.2411,20.006,20.006,0,0,1-24.8271,3.5815,20,20,0,0,1-3.355,3.6072,20.3794,20.3794,0,0,1-15.5688,4.5742,21.1312,21.1312,0,0,1-4.1086,4.6172,20.3683,20.3683,0,0,1-14.4451,4.5974,19.9981,19.9981,0,0,1-6.0791,8.8816,21.7994,21.7994,0,0,1-9.7058,4.6841A22.1086,22.1086,0,0,1,415.3194,264.2232Z"/></g><g id="Layer_2-2" data-name="Layer 2"><path class="cls-3" d="M435.2628,143.581c-.0746-.5033-.1621-.9956-.25-1.4648-.9983-5.3578-1.8048-10.7528-2.5362-16.1529-.872-6.44-2.1148-12.927-2.7309-19.3915-.7916-8.3067-3.6167-15.9859-4.1112-24.4226a23.5341,23.5341,0,0,1,1.5744-9.9592c1.0519-2.6255,2.3652-4.43,2.3185-7.3266-.0341-2.1128-.5313-4.1211-.3284-6.4538.889-10.2084,1.8014-20.454.5206-30.6739-.4358-3.4777-.5966-8.1677-3.4872-10.6391-2.9369-2.5114-8.7009-2.2452-12.3549-2.7329-6.7537-.9013-12.6271.6846-19.2172,1.4869-4.2938.523-7.7862-.5646-12.02,1.6113-14.9836,7.701-15.52,24.7265-16.245,39.5714-.3657,7.4815-1.1311,15.2161.5729,22.5954a25.3406,25.3406,0,0,0,4.5949,9.71c1.7365,2.343,5.7545,4.7688,5.3869,7.985-.3276,2.86-2.9191,5.8821-4.2708,8.3844-1.7686,3.2744-3.2443,6.6531-4.7122,10.0634-2.2,5.113-5.4577,9.7808-7.1793,15.1-.5994,1.8519-.0525,3.9183-.5826,5.7685-.5634,1.9664-2.0393,3.6323-1.9093,5.8188,1.7637.1371,4.8882,2.31,4.842,4.2427,1.8912-.3529,2.9384-2.0178,5.2129-1.7914a4.6081,4.6081,0,0,1,4.2826,3.2105c2.0409.4885,3.7057-1.3068,5.692-1.3727.99-.0329,4.98,1.0929,4.7368,2.5409.5393-3.2137,1.9855-5.7952,2.4911-9.0683a73.5975,73.5975,0,0,1,1.97-10.0226c2.0974-6.9942,3.83-14.0422,6.0307-21.01,1.021-3.2313,2.0986-9.8075,4.7783-12.2,2.1406-1.91,8.8657-2.0443,12.1762-2.3093.3982,6.7739-.2242,13.4991.3059,20.2948a112.8482,112.8482,0,0,1-.5919,20.95c-.495,4.6539-2.3,10.0459-1.6351,14.7241.6122,4.31,3.7173,4.2025,6.739,6.3518,1.4256-3.5844,5.9431-2.9137,8.7317-2.4875,1.7555-3.5347,4.7536-2.3577,7.7755-3.143C435.6871,150.369,435.7332,146.7562,435.2628,143.581ZM410.22,54.798c-.0782,6.3565-.1674,12.6292-3.3721,18.3157-1.2949,2.2976-2.73,6.4341-5.887,6.5315-3.0331.0936-4.7864-3.7768-6.0536-6.0165-4.1065-7.2581-4.3484-15.9584-3.7569-24.07.3221-4.4138.8641-9.3541,3.3135-13.172a8.4842,8.4842,0,0,1,5.4044-3.7163c1.1847-.2872,2.4567-.1725,3.6236-.4557.7481-.1815,1.6826-.9646,2.4442-.9637,3.0153.0035,2.8025,5.3205,3.0583,7.4162.5311,4.3507.9829,8.6408,1.1767,13.0162C410.2155,52.6785,410.2335,53.7224,410.22,54.798Z"/><path class="cls-4" d="M470.561,79.1555a15.8819,15.8819,0,0,1,.1033,6.4884,17.3016,17.3016,0,0,1-4.83,9.4593,10.9311,10.9311,0,0,1-5.5,2.8882c-2.4111.3974-2.5625.7365-4.5161,2.3456a17.2968,17.2968,0,0,1-10.9332,4.0793c-7.1452,0-14.3773-4.7344-17.6853-10.955a19.9809,19.9809,0,0,1-1.8669-9.2552c.3891-3.1546,1.1013-4.4541-2.951-4.6982a98.2814,98.2814,0,0,0-14.1767.0056c-5.28.487-10.6254,1.1665-12.4049-4.6973,5.4583-1.1775,11.2277-.2257,16.8248-.2317,4.6378-.005,8.9332.8728,13.51,1.1535.0535-2.7575,1.6769-5.4043,3.013-7.656,1.7421-2.936,3.2709-6.2131,6.1273-8.1741a17.0822,17.0822,0,0,1,9.61-3.1059,17.3472,17.3472,0,0,1,11.141,4.2535c2.8813,2.44,4.5464,7.4365,7.45,8.8931A13.5112,13.5112,0,0,1,470.561,79.1555Z"/><path class="cls-4" d="M372.2688,88.6834q.1543.209.3145.4168c1.342,1.74,2.5508,2.9173,1.7117,5.2022a15.4165,15.4165,0,0,1-4.1969,5.4886c-3.8834,3.5038-8.217,4.4885-13.24,4.7833-4.8263.2833-8.7869,1.2155-12.6833-2.656a24.5393,24.5393,0,0,1-6.2375-11.55,12.3038,12.3038,0,0,1-.4508-6.001c1.3575-5.22,4.874-10.4439,7.9521-14.8011,3.4319-4.858,11.2122-6.1546,16.5828-4.4594,3.355,1.059,3.3188,4.3551,4.2134,7.3719,1.1187,3.7727,1.1,7.25,2.8969,10.8879A34.2248,34.2248,0,0,0,372.2688,88.6834Z"/><path class="cls-5" d="M436.6836,149.0817c-2.6435-17.1026-6.0072-34.3185-6.9538-51.6065-.0526-.96-1.5529-.9662-1.5,0,.954,17.424,4.3433,34.77,7.0074,52.0053.147.951,1.5926.5471,1.4464-.3988Z"/><path class="cls-5" d="M383.7858,149.49c.93-6.8293,2.8965-13.5456,4.59-20.216,2.2245-8.7615,5.0374-17.3567,7.7066-25.9887a24.9031,24.9031,0,0,1,1.8593-5.3325c1.3848-2.2978,4.8746-2.4695,7.2273-2.37,1.788.0754,3.6208.2552,5.3976.467,1.746.2082,1.93.2856,2.05,1.9948.0777,1.107.0836,2.2245.1169,3.3336.2749,9.1689.1825,18.3431.2122,27.5147.0161,4.97.0647,9.94.2281,14.9081.1447,4.4016.8386,8.7124,1.0594,13.0938.0484.9606,1.5487.9664,1.5,0-.2127-4.2217-.8984-8.3776-1.0438-12.6171-.1758-5.1263-.2275-10.2559-.2437-15.3848-.0331-10.441.0934-20.8882-.3492-31.3228-.05-1.17.0779-1.8345-.9421-2.4752-1.3618-.8555-3.32-.5872-4.8573-.7442-3.4057-.3479-7.8383-.8509-10.6766,1.6035-1.1086.9586-1.54,2.546-2.0241,3.8723-.7986,2.1866-1.3963,4.47-2.0907,6.6934-1.5128,4.8427-3.0386,9.682-4.4478,14.5562-2.6341,9.1113-5.4362,18.6009-6.7185,28.0154-.1286.944,1.3165,1.3524,1.4464.3988Z"/><path class="cls-5" d="M429.626,68.0191c.1434-7.9746.3557-15.9477.53-23.9217q.12-5.482.204-10.9647c.0467-3.2823.3354-6.687-.2062-9.9436a9.1437,9.1437,0,0,0-7.5554-8.0063c-6.4953-1.2954-13.5111-.7683-20.0759-.31-9.3863.6548-20.2908,2.802-26.5385,10.5224-3.6859,4.5548-4.9654,10.5411-5.7256,16.2125a135.12,135.12,0,0,0-1.2356,22.0363c.217,7.1418.5147,14.7962,3.0731,21.552,1.6238,4.288,5.0675,10.5007,10.2137,10.9522l-.7232-.9494c-3.6143,9.3255-8.9328,17.8515-12.8,27.063-3.2175,7.6644-4.8693,16.3261-5.7617,24.5623-.1038.9584,1.397.9511,1.5,0,.9639-8.8966,2.9395-18.0633,6.616-26.2432,3.7843-8.42,8.55-16.36,11.8918-24.9833.1913-.4935-.2875-.9112-.7232-.9494-5.28-.4633-8.5082-8.4313-9.6775-12.6708-1.5895-5.7631-1.8893-11.91-2.0931-17.8595a134.7979,134.7979,0,0,1,.8131-19.0934c.6251-5.7967,1.4146-12.146,4.6713-17.1444,5.2213-8.0139,15.6707-10.5109,24.6019-11.3524a111.3329,111.3329,0,0,1,16.44-.4558c2.7644.1521,6.16.2022,8.53,1.84a8.1538,8.1538,0,0,1,3.1121,5.6764c.5445,3.4358.19,7.08.1379,10.5416q-.0833,5.4828-.2113,10.9648c-.17,7.6416-.3707,15.2825-.5082,22.9249a.75.75,0,0,0,1.5,0Z"/><path class="cls-5" d="M404.866,78.7944c-6.28,2.3-9.765-4.1905-11.4788-9.1961-2.5006-7.3032-2.5979-15.2335-1.3245-22.7893.553-3.2809,1.1347-7.0311,3.0073-9.8535,2.283-3.4409,6.5251-4.1961,10.3758-4.313,3.6761-.1117,6.5326.8828,6.8418,4.978.2795,3.7012-.1854,7.4423-.0692,11.1537q.2053,6.5589.3826,13.1186c.1074,4.1758.3105,8.4759-1.875,12.2079a.7506.7506,0,0,0,1.2952.7571c2.1107-3.6041,2.2019-7.6625,2.1112-11.7331-.1136-5.0969-.3075-10.1915-.4433-15.2877-.1086-4.0739,1.1511-9.2226-.4527-13.0894-1.0457-2.5213-3.55-3.4629-6.1128-3.6068-3.4677-.1947-7.57.2762-10.5375,2.2012-3.08,1.9977-4.3379,5.557-5.1438,8.97-2.0908,8.8541-2.5221,18.4071.3194,27.1475,1.924,5.9182,6.1483,13.4745,13.5032,10.7815.8991-.3292.5107-1.7794-.3988-1.4464Z"/><path class="cls-5" d="M395.0662,75.6635a122.4529,122.4529,0,0,1,30.46,1.1037c.9443.1581,1.35-1.2871.3988-1.4464a124.0589,124.0589,0,0,0-30.8592-1.1572c-.9551.08-.9636,1.58,0,1.5Z"/><path class="cls-5" d="M367.4321,79.1968c-2.621.7046-5.2189,1.4852-7.7853,2.37-1.39.479-2.52,1.2658-2.21,2.9274a2.4838,2.4838,0,0,0,2.9333,2.0134c2.9069-.4793,5.8644-1.5914,8.7449-2.2747.9389-.2227.5414-1.6694-.3988-1.4464-1.7331.4111-3.4684.8147-5.1916,1.266-1.0864.2846-4.2193,1.7766-4.6149.2134-.39-1.5392,7.6919-3.2921,8.9207-3.6225a.7506.7506,0,0,0-.3988-1.4464Z"/><path class="cls-5" d="M399.75,80.1935a186.2681,186.2681,0,0,1,25.4933.6521c.9583.1048.9508-1.396,0-1.5a186.27,186.27,0,0,0-25.4933-.6521.75.75,0,0,0,0,1.5Z"/><path class="cls-5" d="M457.805,97.3092c-3.5184,4.5692-9.1187,7.5168-14.8915,5.7935a.7506.7506,0,0,0-.3988,1.4464c6.4689,1.931,12.6576-1.382,16.5855-6.4828.5886-.7643-.7138-1.5121-1.2952-.7571Z"/><path class="cls-5" d="M440.82,102.2985c-8.4686.3648-13.8375-7.6214-14.543-15.29a36.3158,36.3158,0,0,1,4.1352-19.9059c2.8455-5.2758,7.5742-10.0244,13.91-10.2091,7.1593-.2087,13.4068,4.6656,16.5746,10.79.4436.8577,1.7385.1,1.2952-.7571-5.135-9.9285-18.1012-15.6-27.4723-7.7155-4.0959,3.4462-6.7325,8.5134-8.257,13.5714-1.9277,6.3958-2.76,13.8637-.3667,20.2439,2.2968,6.1237,7.95,11.0636,14.724,10.7718.9616-.0414.9668-1.5416,0-1.5Z"/><path class="cls-5" d="M444.6485,57.8613c-10.3276,1.6764-16.8757,13.1015-17.3887,22.82a26.9211,26.9211,0,0,0,3.77,15.0216c2.2177,3.73,6.2063,9.1157,11.1742,7.8578a.7125.7125,0,0,0-.3785-1.373c-5.2366,1.3275-9.6854-6.713-11.29-10.6531A25.4753,25.4753,0,0,1,428.7762,79.13c.9845-8.7251,7.1089-18.3824,16.1059-20.4208.5606-.127.3135-.9363-.2336-.8475Z"/><path class="cls-5" d="M458.5705,97.1708c-3.0623,3.0652-7.1946,4.7455-11.4869,3.4845a.7506.7506,0,0,0-.3988,1.4464c4.7847,1.4056,9.5151-.4358,12.9464-3.87a.75.75,0,0,0-1.0607-1.0607Z"/><path class="cls-5" d="M445.2523,99.9587c-12.6411.6658-13.8319-15.5383-11.4843-24.4861,1.397-5.3246,4.3119-10.7853,9.479-13.2622,6.3844-3.06,13.7617.24,17.7476,5.58.5707.7647,1.8734.0177,1.2952-.7571-3.9892-5.3452-10.9365-8.9488-17.65-6.9622-6.2615,1.8527-10.1169,7.77-11.9493,13.7093-3.086,10.0034-1.719,28.43,12.5623,27.678.96-.0506.9663-1.5509,0-1.5Z"/><path class="cls-5" d="M448.9406,61.7125c-9.0418,1.4493-14.7416,11.489-15.0729,20a23.3454,23.3454,0,0,0,3.5075,13.1032c1.9712,3.1784,5.2771,7.4417,9.5013,6.43.8907-.2134.5135-1.587-.3785-1.373-4.1815,1.0032-7.7568-5.0583-9.2087-8.1963a21.8142,21.8142,0,0,1-1.8709-11.8317c.93-7.4034,6.1289-15.4923,13.7559-17.2842.5607-.1317.3128-.9351-.2336-.8475Z"/><path class="cls-5" d="M458.9209,97.0643a8.6709,8.6709,0,0,1-6.45.6784.7506.7506,0,0,0-.3988,1.4464,10.2631,10.2631,0,0,0,7.6054-.83c.8661-.4262.1068-1.72-.7571-1.2952Z"/><path class="cls-5" d="M450.9393,97.1689c-9.8125.5592-11.1345-11.342-9.5009-18.5593.9146-4.0407,2.7891-8.2421,6.1415-10.8393,5.2751-4.0869,12.48-1.6447,16.1818,3.4311.5632.7722,1.8653.0246,1.2952-.7571-3.1609-4.3339-8.62-7.2915-14.0621-5.9855-3.5462.851-6.3205,3.5049-8.1674,6.55-3.8339,6.3216-5.1638,15.9392-1.3712,22.5841a9.8972,9.8972,0,0,0,9.4831,5.0759c.96-.0547.966-1.5551,0-1.5Z"/><path class="cls-5" d="M454.8155,65.9976c-7.5568,1.21-12.277,9.5935-12.4273,16.7306a19.2392,19.2392,0,0,0,3.0433,10.6889c1.68,2.6176,4.3014,5.8332,7.7546,5.0657.894-.1987.5157-1.5721-.3785-1.373-3.5219.7843-6.4492-4.4968-7.5568-7.08a17.7333,17.7333,0,0,1-1.3727-8.8554c.6556-6.1357,4.9368-12.7591,11.171-14.3294.56-.141.3125-.9349-.2336-.8475Z"/><path class="cls-5" d="M456.9893,96.3661c-13.6322.0165-9.5313-28.15,3.4951-26.1559,6.5136.997,9.6443,7.4344,9.3488,13.4942-.2893,5.9334-4.0717,14.9216-11.5332,12.8835a.7565.7565,0,0,0-.4019,1.4577c5.7778,1.59,10.3054-2.8952,12.1545-7.9643,2.0038-5.493,1.9963-12.4764-1.942-17.1434-3.2064-3.8-8.9131-5.6206-13.4423-3.1281-4.9376,2.7173-6.8122,9.1082-7.2554,14.344-.5076,5.9983,2.4433,13.5516,9.5763,13.2024a.4954.4954,0,0,0,0-.99Z"/><path class="cls-5" d="M460.6036,69.3947C454.1114,70.4566,450.13,77.63,450.1588,83.784c.02,4.3927,3.2447,14.0268,9.139,12.85.8977-.1792.5178-1.5523-.3785-1.373-2.7572.5517-5.0717-3.4368-6.02-5.4993a14.592,14.592,0,0,1-1.2344-7.8042c.61-5.06,4.076-10.317,9.1723-11.7157.5565-.1527.3133-.937-.2336-.8475Z"/><path class="cls-5" d="M459.9238,82.9312c2.5616-1.2173,5.0686,2.3543,2.4754,4.0515-2.29,1.4987-4.1859-1.5753-2.797-3.461.5147-.6988-.652-1.607-1.21-.9337a3.9624,3.9624,0,0,0,.0278,5.0055,3.7065,3.7065,0,0,0,5.8562-4.506,3.845,3.845,0,0,0-4.8432-.9961c-.5481.32-.0674,1.1052.4909.84Z"/><path class="cls-5" d="M364.3673,66.0677a14.6194,14.6194,0,0,0-15.1487.0825c-5.2326,3.0342-8.045,8.7731-8.46,14.6785-.8049,11.4558,8.1865,24.68,20.723,23.5229,5.8748-.5425,11.5432-4.3018,13.2386-10.1191.2629-.902-1.0785-1.2441-1.39-.3832a14.1867,14.1867,0,0,1-14.8185,8.9535c-6.755-.7232-12.24-6.1524-14.7016-12.2291-2.5929-6.4-2.2144-14.5337,2.3842-19.9665,4.18-4.9379,11.9255-7.0017,17.7648-3.8412a.4046.4046,0,0,0,.4081-.6982Z"/><path class="cls-5" d="M350.6652,67.0642c-8.8129,6.4671-10.97,17.8773-4.7142,27.0126,4.9493,7.2274,16.2282,12.04,23.7938,5.8315.6784-.5567-.2881-1.5054-.9612-.9612-7.174,5.7993-17.8079.7232-22.1676-6.1324a18.6063,18.6063,0,0,1,4.472-25.027c.4192-.3213.0162-1.0457-.4229-.7235Z"/><path class="cls-5" d="M341.715,75.4419c-6.1478,5.5509-3.1661,15.48.62,21.5925,1.9709,3.1822,5.3972,5.4035,8.77,6.87,2.4552,1.0677,6.2815,2.4492,8.6129.4023.6323-.5552-.2778-1.4226-.9115-.9115-2.422,1.9534-7.1144-.4723-9.3252-1.7029A16.1167,16.1167,0,0,1,342.938,95.62c-3.1472-5.622-5.9242-14.3783-.6263-19.5813.39-.383-.1954-.9589-.5966-.5966Z"/><path class="cls-5" d="M338.83,80.1619c-3.493,4.9994-1.3707,12.5131,1.2153,17.4707,2.38,4.5631,8.9552,9.56,14.3927,7.9285a.6451.6451,0,0,0-.3427-1.243c-5.2,1.3762-11.0807-3.43-13.24-7.7975-2.2174-4.4854-4.1662-11.3443-1.2969-15.9328.2917-.4664-.4217-.865-.7286-.4259Z"/><path class="cls-5" d="M383.0688,94.5809c-1.4841.186-3.9094-.0046-5.2429.6859-.59.3056-.7712.895-1.0877,1.4856-2.0061,3.7428-3.9764,7.5047-5.994,11.2414-5.8287,10.7952-10.7555,22.1689-12.7731,34.3625-.1591.9618,1.2881,1.3927,1.486.41a122.2425,122.2425,0,0,1,12.2153-33.3743q2.8532-5.3931,5.6337-10.8254c.2756-.5381.6112-1.0822.8351-1.6436.2093-.5249.6055-.6819.03-.4035,1.3566-.6564,3.5435-.5913,5.0394-.8909.58-.1162.4585-1.1226-.1417-1.0474Z"/><path class="cls-5" d="M377.7891,95.1926C366.4071,83.78,365.3287,68.2811,366.88,52.9968c1.0741-10.5847,1.9658-25.0595,11.458-32.006,5.3013-3.88,12.2715-4.2184,18.5924-3.9994.9784.0339.9729-1.4726,0-1.5176-5.9894-.2768-12.5012.1213-17.8161,3.1943a20.8479,20.8479,0,0,0-7.6022,8.1758c-3.6844,6.5776-4.7307,14.0167-5.6215,21.3935-1.06,8.7808-1.8587,17.7491-.2846,26.521,1.4135,7.8771,4.92,16.1944,11.33,21.2877.5929.4712,1.4167-.2888.8535-.8535Z"/><path class="cls-5" d="M406.5521,74.6287c3.7349-5.3466,3.993-12.21,4.2438-18.5121a117.32,117.32,0,0,0-1.3686-22.7123c-.1455-.9351-1.5718-.54-1.4238.3925A115.7954,115.7954,0,0,1,409.42,55.1557c-.1727,6.25-.18,13.5644-3.7125,18.9792-.3476.5327.4885,1.0041.8449.4939Z"/><path class="cls-5" d="M409.9962,94.68a473.5637,473.5637,0,0,1-2.2053,55.97c-.1064,1.02,1.485,1.01,1.5938,0a343.6408,343.6408,0,0,0,1.6369-55.97.513.513,0,0,0-1.0254,0Z"/><path class="cls-5" d="M387.0171,70.8023a20.4972,20.4972,0,0,0,8.3983,10.1562c.7933.492,1.5252-.7642.73-1.25a18.9351,18.9351,0,0,1-7.8179-9.2679c-.3166-.8028-1.6277-.4584-1.3108.3614Z"/><path class="cls-5" d="M388.7621,84.3632l2.3479.6464a.5923.5923,0,0,0,.3146-1.1413l-2.351-.6351a.5864.5864,0,0,0-.3115,1.13Z"/><path class="cls-5" d="M409.9248,85.15l5.3214.9333c.7306.1281,1.0352-.999.3069-1.1131l-5.3478-.8373c-.66-.1034-.953.899-.28,1.017Z"/><path class="cls-5" d="M411.5583,83.1026l4.0582-.4184c.7549-.0778.76-1.2711,0-1.1895l-4.0582.436c-.741.08-.7518,1.2494,0,1.1719Z"/><path class="cls-5" d="M416.6695,71.3951l3.4485-4.4543a.6243.6243,0,1,0-.9847-.76l-3.3795,4.5075c-.3934.5247.51,1.23.9157.7065Z"/><path class="cls-5" d="M368.5983,140.5149a57.9812,57.9812,0,0,1,6.3379-16.8864c.372-.6576-.6476-1.2522-1.0119-.5915a58.9358,58.9358,0,0,0-6.2639,17.2193c-.1193.61.8107.8737.9379.2586Z"/><path class="cls-5" d="M386.231,119.1284a34.1283,34.1283,0,0,0,3.3117-9.0994c.1735-.8261-1.103-1.1758-1.2656-.3489a33.57,33.57,0,0,1-3.058,8.8569c-.3416.6688.6553,1.26,1.0119.5915Z"/><path class="cls-5" d="M427.3354,118.3026a42.4328,42.4328,0,0,1,1.84,19.3391.6766.6766,0,1,0,1.3351.1807,43.96,43.96,0,0,0-2.0229-19.8376c-.2465-.7235-1.398-.4154-1.1526.3178Z"/><path class="cls-5" d="M419.6785,134.2025a28.0878,28.0878,0,0,0,.8907,8.7117.6363.6363,0,0,0,1.2261-.338,26.4341,26.4341,0,0,1-.9273-8.3737c.0369-.7659-1.1485-.7621-1.1895,0Z"/><path class="cls-5" d="M391.5537,88.4894l4.59-3.1159c.7866-.534.036-1.8245-.7482-1.28L390.8351,87.26c-.7459.5179-.0442,1.7473.7186,1.2294Z"/><path class="cls-5" d="M383.1725,78.25a28.4713,28.4713,0,0,0,7.8687,3.2268c.7915.1936,1.1292-1.0323.3365-1.22a27.3447,27.3447,0,0,1-7.5959-3.0486.604.604,0,0,0-.6092,1.0422Z"/><path class="cls-5" d="M347.329,19.7326c2.7136,1.6011,5.4589,3.15,8.1913,4.7185.6621.38,1.2646-.6544.5974-1.022-2.7605-1.521-5.5106-3.0634-8.2889-4.5516a.4955.4955,0,0,0-.5.855Z"/><path class="cls-5" d="M356.8188,18.6c.6486,1.0509,1.3549,2.0683,2.0378,3.0973.4629.6975,1.6023.0172,1.1181-.6536-.7254-1.005-1.4318-2.0277-2.19-3.0085-.4251-.55-1.357-.0681-.9663.5649Z"/><path class="cls-5" d="M337.1254,129.1105l6.19-3.0778c.8349-.4152.0994-1.6839-.7334-1.2547l-6.1394,3.1639c-.7769.4-.0933,1.5548.6831,1.1687Z"/><path class="cls-5" d="M339.1494,134.2033l5.1687-3.5762c.7678-.5313.0348-1.7987-.7364-1.26l-5.1539,3.6015c-.748.5227-.0385,1.76.7216,1.2345Z"/><path class="cls-5" d="M449.0864,135.6458l5.14,4.6454c.64.5781,1.593-.3715.9488-.9488l-5.16-4.6247c-.627-.5619-1.5568.36-.9281.9281Z"/><path class="cls-5" d="M452.8255,132.1488l3.0867,2.0656c.7851.5254,1.5221-.7446.7393-1.2648l-3.0926-2.0555c-.7815-.5194-1.5072.7369-.7334,1.2547Z"/><path class="cls-5" d="M436.6879,9.0087c2.5715-2.57,5.0868-5.21,7.5782-7.8577.5889-.6258-.354-1.5724-.9447-.9447-2.4933,2.65-4.9766,5.3232-7.3876,8.0483-.4515.51.2641,1.2439.7541.7541Z"/><path class="cls-5" d="M437.9345,14.0425q1.5731-.9841,3.1408-1.9767c.6862-.434.0359-1.54-.6358-1.0878q-1.5417,1.0381-3.0787,2.0829c-.5983.4072-.0532,1.3737.5737.9815Z"/><path class="cls-5" d="M385.838,24.6908A23.5986,23.5986,0,0,1,399.55,22.3459c.9076.1116.9086-1.3272,0-1.43A24.8766,24.8766,0,0,0,385.19,23.5828c-.7359.3791-.0878,1.4776.6477,1.108Z"/><path class="cls-5" d="M403.3624,29.182a18.9862,18.9862,0,0,1,8.9555,1.1193c.7853.2965,1.1339-.9721.3474-1.26a19.5108,19.5108,0,0,0-9.3028-1.0546c-.7489.0951-.7689,1.2814,0,1.1953Z"/><path class="cls-5" d="M411.9958,24.32a28.6267,28.6267,0,0,0,10.6324-1.39l-.7687-.7687A29.9018,29.9018,0,0,0,420.65,32.4359c.043.96,1.5511.96,1.4941,0a35.1625,35.1625,0,0,1,.92-9.9427c.0936-.4151-.2965-.96-.7687-.7687a23.67,23.67,0,0,1-10.3,1.529c-.6873-.04-.68,1.0188,0,1.0664Z"/><path class="cls-6" d="M399.035,153.8911a10.1556,10.1556,0,0,1,6.66,8.4037c.0806.8973.924,1.8495,1.9333,1.4727,4.5428-1.6956,9.2922-.0378,10.8257,4.8127.6754,2.1361,4.0792,1.1993,3.36-.9263a11.018,11.018,0,0,0-15.3625-6.6779l2.2436.9128a13.2274,13.2274,0,0,0-9.0411-10.2426c-1.4468-.4592-2.0016,1.73-.6189,2.245Z"/><path class="cls-6" d="M424.7926,163.6347a6.5023,6.5023,0,0,1,6.7707-3.0806c2.2752.4634,3.3741.9618,5.1431-.9034,3.8456-4.0548,8.7267-6.35,14.4045-5.0675,2.3716.5358,3.3822-3.1232,1.0052-3.6462a17.9581,17.9581,0,0,0-16.7445,4.83c-.3563.367-1.0089,1.5357-1.4473,1.7372-.5517.2536-1.2512-.1116-1.7983-.2015a9.4779,9.4779,0,0,0-3.7486.1451,9.7087,9.7087,0,0,0-6.1886,4.665,1.5089,1.5089,0,0,0,2.6039,1.522Z"/><path class="cls-6" d="M347.6895,145.3455a10.86,10.86,0,0,1,6.1112,5.5008c.9353,1.92.4436,5.1371,2.3876,6.3907,1.7139,1.1053,4.3628.53,6.3108.976a7.131,7.131,0,0,1,3.6074,1.7594c.6846.7,1.0318,1.6548,1.8244,2.2526,2.0674,1.5593,4.0541-.34,6.0333-1.0217a10.3175,10.3175,0,0,1,8.2824.7133c2.316,1.2894,3.4009,1.665,5.8434.2751,2.4835-1.4133,6.6792-2.136,7.81,1.3552.7689,2.3733,4.5361,1.3523,3.7516-1.0343-1.7477-5.3173-7.7389-6.5383-12.4029-4.2182-.4655.2316-1.4222,1.13-1.9695,1.12a10.9665,10.9665,0,0,1-1.846-1.0508,14.0207,14.0207,0,0,0-11.9006.0382c-1.7616.8518-1.7781.3556-3.0005-.8553a9.05,9.05,0,0,0-2.8985-1.8672,14.1179,14.1179,0,0,0-3.7058-.9422c-1.0769-.1379-3.0334.1431-3.806-.5346-.7369-.6464-.8806-2.5252-1.2906-3.4621a13.8015,13.8015,0,0,0-2.0782-3.35,14.4659,14.4659,0,0,0-6.4326-4.335c-1.4535-.5025-2.0532,1.7715-.6314,2.29Z"/><path class="cls-6" d="M325.1814,138.4151A5.4923,5.4923,0,0,1,330.64,141.72c.7728,1.9158.3218,3.924,1.5553,5.7166a15.4721,15.4721,0,0,0,3.5486,3.0921,7.1965,7.1965,0,0,1,2.8957,6.4037,1.762,1.762,0,0,0,1.7248,1.7248c2.8553.2883,5.9393.5635,8.4851,2.0133a7.7753,7.7753,0,0,1,3.0611,2.9678c.5009.9381.5739,2.03,1.2726,2.8712,1.2113,1.4581,3.1795,1.1523,4.8415,1.5387a9.7247,9.7247,0,0,1,6.0214,4.4121c1.189,1.8943,4.1994.1526,3.0087-1.7586a13.3421,13.3421,0,0,0-5.6408-5.1435,12.8478,12.8478,0,0,0-3.52-1.0911,8.269,8.269,0,0,1-1.8886-.1947c-.3683-.2578-.567-1.3235-.7535-1.7369-2.6-5.7629-9.2876-6.8164-14.8871-7.3281l1.7248,1.7248a10.3885,10.3885,0,0,0-2.168-7.0334c-1.5517-1.966-4.9552-3.0585-5.6029-5.5664-.6524-2.5259-.6269-4.5348-2.6113-6.5054a8.6058,8.6058,0,0,0-6.5251-2.4749c-1.96.0952-1.9759,3.146,0,3.0625Z"/><path class="cls-6" d="M383.39,177.6989a6.8849,6.8849,0,0,1,10.2926-.424,1.43,1.43,0,0,0,1.9936,0c3.3814-3.2038,7.8746-1.1921,11.1911.9881a1.5712,1.5712,0,0,0,1.8856-.2433,9.7637,9.7637,0,0,1,7.1129-3.1818,9.0354,9.0354,0,0,1,4.2585,1.0079c1.0624.56,1.8941,1.4641,3.1,1.7116,2.4287.4984,4.14-1.9081,6.0365-3.0167,2.8775-1.6819,6.5553-2.2349,9.1035.3216,1.6774,1.6829,4.3-.9381,2.6075-2.6075a9.9415,9.9415,0,0,0-9.0693-2.5912,14.2637,14.2637,0,0,0-4.7907,1.9884,20.1585,20.1585,0,0,0-1.66,1.2019c-1.0911.861-1.213,1.2754-2.4741.7467a22.9686,22.9686,0,0,0-4.0243-1.7681,13.1621,13.1621,0,0,0-4.4182-.2194,12.04,12.04,0,0,0-7.9826,4.2061l1.8856-.2433c-4.4559-2.7191-10.6462-4.8024-14.7554-.2947h1.9936c-4.049-3.8627-10.8869-3.796-14.4457.7514a1.3691,1.3691,0,1,0,2.16,1.6663Z"/><path class="cls-6" d="M446.2013,167.1875c.8139-4.6845,6.25-3.966,9.7146-3.415a4.2019,4.2019,0,0,0,3.16-.3472c1.3794-.9639,1.3829-2.6953,3.0972-3.41,2.6918-1.1224,6.3218,1.163,8.66-.795,1.0649-.8919,1.1775-2.3687,2.3249-3.2236,1.7124-1.276,3.6577-.69,4.9961.789,1.5445,1.7065,4.0355-.8118,2.5191-2.5191a7.0868,7.0868,0,0,0-9.4806-1.1841c-1.1332.8126-1.9889,3.1562-3.06,3.46-.948.2691-2.5974-.3082-3.6323-.2993a10.0208,10.0208,0,0,0-3.1.4639c-1.8936.64-2.64,1.7381-3.8522,3.18-.187.2226-.2106.6735-.5325.8049-.3926.16-1.541-.2445-1.9946-.3068a18.955,18.955,0,0,0-3.5043-.2287c-3.751.1837-7.5569,2.2449-8.177,6.2413-.2884,1.8587,2.5337,2.6829,2.8627.7892Z"/><path class="cls-6" d="M465.8246,149.6476c.9833-3.797,5.39-4.4175,8.6828-4.9248,2.2211-.3422,1.3036-3.8056-.9387-3.4051-4.5356.81-9.6771,2.3919-10.8628,7.47-.4721,2.0219,2.5952,2.8818,3.1188.86Z"/><path class="cls-7" d="M351.5011,143.0981c2.6462,1.1422,4.9932,3.7475,5.0706,6.7594.0251.9772.9018,2.14,2,2,2.5373-.3244,4.5749.6183,6.6951,1.9256,1.6414,1.012,3.281,2.6289,5.2768,2.8311,1.93.1956,3.6094-1.0728,5.5-1.2659a8.139,8.139,0,0,1,6.03,1.7961,2.2551,2.2551,0,0,0,3.13,0c1.6158-1.7482,3.9482-.2577,5.6485.6182,2.5543,1.3158,4.7682-2.4006,2.2634-3.8721-3.3841-1.988-8.0915-3.4086-11.0423.1235l2.6824-.3461a13.9075,13.9075,0,0,0-6.2192-2.4121c-2.4379-.3068-4.2644.3457-6.5617.9146-2.1849.541-4.8826-2.2062-6.8769-3.1364a12.0484,12.0484,0,0,0-7.058-1.105l2.46,1.3969c-1.1265-4.2992-3.6486-7.36-7.9456-8.7266-1.4463-.46-2.4922,1.8779-1.0535,2.4989Z"/><path class="cls-7" d="M404.1056,154.8673a16.4784,16.4784,0,0,1,4.3243,2.7857c1.0866.9965,1.8466,2.3659,3.0262,3.2467a4.1741,4.1741,0,0,0,3.3072.7241c1.92-.2191,3.3129-.14,4.7952,1.3a1.9531,1.9531,0,0,0,3.0418-.392c1.2769-2.7574,3.5039-3.804,6.4412-3.7494a8.1141,8.1141,0,0,0,6.1274-2.1661,26.1991,26.1991,0,0,1,2.3462-2.0891c1.0907-.7332,2.2784-.6707,3.51-.9791a9.3893,9.3893,0,0,0,3.2083-1.6052c1.0016-.719,2.5378-2.2515,3.9089-1.5862a1.9859,1.9859,0,0,0,2.0031-3.4269c-2.6318-1.7533-5.3759-.383-7.6559,1.2581-2.6577,1.913-5.7977,1.6888-8.3435,3.8945-.96.8321-1.93,2.186-3.1772,2.6187-1.5775.5475-3.4783-.0683-5.1439.3294a9.7536,9.7536,0,0,0-6.57,5.5463l3.0418-.392a8.95,8.95,0,0,0-3.8361-2.245c-1.5583-.4135-3.1524.1258-4.6509-.2706-1.5711-.4156-2.6774-2.0693-4.0509-3.0378a17.8009,17.8009,0,0,0-4.6066-2.2489c-1.4385-.4889-2.4557,1.837-1.0475,2.4846Z"/><path class="cls-7" d="M429.9227,167.0145a12.4785,12.4785,0,0,1,5.2174-.8154c1.61.1175,3.019.9982,4.5706,1.1356,2.7014.2393,2.8577-3.0479,4.3795-4.4968a6.2643,6.2643,0,0,1,3.6623-1.7334c1.215-.1066,2.4156.4637,3.6171.17,1.2534-.3063,1.9013-1.3349,2.7332-2.2046a8.8294,8.8294,0,0,1,3.9323-2.3633c2.4571-.77,1.4461-4.53-1.0675-3.8722a11.6314,11.6314,0,0,0-3.9946,1.8692c-.8124.5954-1.8562,2.3361-2.7243,2.6584a12.934,12.934,0,0,1-1.8381-.1859,9.7837,9.7837,0,0,0-1.8265.1989,10.05,10.05,0,0,0-3.76,1.6548,9.6405,9.6405,0,0,0-2.6749,2.84,5.1739,5.1739,0,0,0-.7651,1.6135c-.1374.85.381.6461-.61.2266-2.8717-1.215-6.8441-.4984-9.5865.6374-1.6.6626-.97,3.2834.7352,2.6668Z"/><path class="cls-7" d="M386.8367,169.4222a12.986,12.986,0,0,1,9.4287,2.4181,1.89,1.89,0,0,0,2.2269.2873c1.7011-1.25,4.1705-1.516,5.5048.4639.6669.99,2.3193,1.4984,3.2094.4136,1.7271-2.1049,4.3583-1.3583,6.666-.7632,2.6116.6735,3.7273-3.3764,1.1132-4.0379-3.6887-.9335-8.0428-1.4774-10.6691,1.9113l3.2094.4136c-2.5744-3.5992-7.9871-4.6543-11.2606-1.2873l2.2269-.2873a18.8217,18.8217,0,0,0-11.6555-2.3914c-1.7885.2265-1.8452,3.0544,0,2.8594Z"/><path class="cls-7" d="M460.8657,149.3325a3.7357,3.7357,0,0,1,4.2062-2.7069,1.8618,1.8618,0,0,0,1.8516-1.8516,1.8908,1.8908,0,0,0-1.8516-1.8516,7.2717,7.2717,0,0,0-7.5511,5.4879c-.5136,2.1678,2.7636,3.085,3.3448.9221Z"/><path class="cls-7" d="M389.9621,147.1363a3.0805,3.0805,0,0,1,3.6868,2.3162,2.0076,2.0076,0,0,0,3.3175.8759c2.1654-1.9177,4.8537-1.53,7.0363.0763,1.8892,1.3905,4.2562-1.6983,2.5089-3.2516a9.1337,9.1337,0,0,0-12.3522.3682l3.3175.8759a6.9492,6.9492,0,0,0-7.9738-4.6523c-1.893.3344-1.4793,3.6243.459,3.3915Z"/><path class="cls-7" d="M335.2128,140.7358a4.0267,4.0267,0,0,1,2.9469,2.5113c.333.9452.0741,1.9275.3,2.8851a3.7532,3.7532,0,0,0,2.3579,2.6164,11.37,11.37,0,0,0,1.1832.4106,1.7735,1.7735,0,0,1,1.1924,1.9884,4.4455,4.4455,0,0,0,.7609,1.9758c1.1168,1.2836,3.2335,1.202,4.6969,1.87a10.8094,10.8094,0,0,1,4.6128,3.9912c.8646,1.3475,1.263,2.9538,2.6654,3.8771,1.5535,1.0228,3.5922.59,5.2837,1.3588a7.9661,7.9661,0,0,1,4.1219,4.48c.8858,2.36,4.6909,1.3707,3.827-1.0551a11.8069,11.8069,0,0,0-4.148-5.7261,11.9543,11.9543,0,0,0-3.2648-1.6965c-.9547-.3226-2.9957-.1716-3.77-.7451-.6941-.5139-1.1794-2.3639-1.7057-3.1135a14.9922,14.9922,0,0,0-5.8563-4.8991c-1.2537-.5809-2.9748-.6716-4.1035-1.3991l.8946,1.1634c-.5529-1.4608-.4949-2.824-1.6616-4.0416a5.4936,5.4936,0,0,0-2.0007-1.2964c-1.2546-.4876-1.43-.3351-2.0295-1.9238-1.098-2.91-2.1965-5.119-5.6173-5.7178-1.6053-.281-2.3164,2.0479-.6854,2.486Z"/></g></g></svg>