<svg xmlns="http://www.w3.org/2000/svg" viewBox="0 0 534 224"><defs><style>.cls-1{fill:#f7fafc;}.cls-2{fill:#f2f6f9;}.cls-3{fill:#ffefaf;}.cls-4{fill:#e93a1d;}.cls-5{fill:#303030;}.cls-6{fill:#fff;}.cls-7{fill:#fce0de;}</style></defs><title>DN_Service-Ya1-img-1</title><g id="back"><path class="cls-1" d="M179.2357,223.0175c-12.4282.0015-25.6975-9.584-36.19-17.1626q-1.4949-1.08-3.0679-2.2407a19.9926,19.9926,0,0,1-2.707,2.7588,20.37,20.37,0,0,1-21.4727,2.853,20.0271,20.0271,0,0,1-5.8779-1.4736,20.5665,20.5665,0,0,1-8.5151-1.9243c-3.8247.6533-8.4648.2344-13.959-2.2266-1.49-.667-3.4758-1.61-6.07-2.8823-2.25-1.1035-4.9988-2.4751-8.2212-4.103a20.01,20.01,0,0,1-33.0825,3.7578s-8.4014-9.96-16.79-19.9321c-4.2021-4.9946-8.4011-9.9927-11.543-13.7466-1.5937-1.9043-2.9192-3.4932-3.8433-4.6084-.51-.6162-.9089-1.1011-1.179-1.4341-8.2686-10.1919-4.9976-22.2129,2.2781-28.3491a20.6243,20.6243,0,0,1,10.3-4.53c-6.36-9.4233-7.283-14.3428-7.0259-19.5273A21.1473,21.1473,0,0,1,19.73,93.12c.1345-.1133.27-.2236.4067-.3325a19.93,19.93,0,0,1,5.0325-6.3652c.2866-.24.5981-.4834.9316-.7256a20.0842,20.0842,0,0,1,4.7236-4.1382q.4742-.4526.9788-.8765a19.9982,19.9982,0,0,1,26.418.6235c.0427.04.7815.7207,2.113,1.9409q.0033-.8306.0742-1.7056a20.0878,20.0878,0,0,1,7.0894-13.7271c2.5894-2.1719,12.0112-8.6826,24.6675-1.3481,1.5774.9136,3.3882,2.1162,5.6995,3.7847q1.0972.7917,2.35,1.728a19.9985,19.9985,0,0,1,6.1575-9.1167c1.9685-1.6514,12.3186-9.3379,25.2893-.7324a19.9616,19.9616,0,0,1,4.3838-5.1729,20.21,20.21,0,0,1,19.54-3.5742,20.13,20.13,0,0,1,24.91-.37c.4519.3281,1.1086.8257,1.9512,1.4888,1.1631.9146,2.8181,2.249,4.897,3.9482a21.3031,21.3031,0,0,1,7.2844-12.4263,19.9985,19.9985,0,0,1,26.7144.9028,20.0034,20.0034,0,0,1,32.0439-10.562,20.0034,20.0034,0,0,1,31.8535-9.8481,19.9969,19.9969,0,0,1,30.269-5.53,21.9306,21.9306,0,0,1,4.7166-5.5142A21.1219,21.1219,0,0,1,341.59,12.1771a20.0558,20.0558,0,0,1,1.8535-1.77c2.957-2.48,13.6555-9.7476,27.1614.8955,1.124.8853,2.552,2.064,4.342,3.5835a19.9809,19.9809,0,0,1,4.23-4.9243c5.7976-4.8643,15.7217-7.5171,26.1895-.375a58.94,58.94,0,0,1,4.6877,3.6211,20.0082,20.0082,0,0,1,23.1147,3.8965q2.7814,2.8235,5.6062,5.6777a19.999,19.999,0,0,1,20.8979,5.582c.1462.1606,14.7922,16.252,29.2087,32.7158,8.5532,9.7681,15.3865,17.793,20.31,23.8511,9.1633,11.2754,13.9167,17.5811,13.31,26.6313a20.3954,20.3954,0,0,1-2.4758,8.4385c4.4507,5.58,7.8013,10.3,7.1609,18.0332a20.05,20.05,0,0,1-5.0457,11.7148,20.0046,20.0046,0,0,1-13.218,29.3931c.0427.8706.04,1.72.0024,2.5586a22.454,22.454,0,0,1-7.9785,16.4136,21.3426,21.3426,0,0,1-15.3308,4.8276,20.0174,20.0174,0,0,1-29.7234,4.8149,19.9924,19.9924,0,0,1-4.6414,5.6333c-2.69,2.2578-12.5122,8.9941-25.99.9292-1.2144-.7271-2.52-1.5933-3.9768-2.6411a20.0132,20.0132,0,0,1-29.572,3.1084l-7.7947-7.0225a20.9474,20.9474,0,0,1-5.813,7.8022c-3.1128,2.6118-11.6992,8.083-24.16,2.4854a59.5289,59.5289,0,0,1-9.1-5.313q-2.65-1.8135-5.8264-4.208a21.074,21.074,0,0,1-4.1191,4.6616,19.9989,19.9989,0,0,1-25.78-.06c-3.9875-3.3774-8.1592-6.9087-12.4695-10.5562a20.7691,20.7691,0,0,1-6.89,11.1313,20.01,20.01,0,0,1-22.1169,2.41c-3.8489,2.7314-13.1133,7.2837-25.1521-.4482-.8733-.561-1.8086-1.2051-2.8328-1.9517a20.0249,20.0249,0,0,1-29.7419,3.3613l-4.5024-3.91c-1.9446-1.6909-3.8513-3.3481-5.74-4.9883a20,20,0,0,1-6.3149,9.6226A21.3372,21.3372,0,0,1,179.2357,223.0175Z"/><path class="cls-2" d="M440.3258,218.3261a20.8,20.8,0,0,1-13.4453-5.0723c-.7661-.6372-1.6453-1.4277-2.7668-2.4883q-.7676-.7258-1.7339-1.6655a19.9917,19.9917,0,0,1-2.5911,2.6167,22.0438,22.0438,0,0,1-16.9346,4.9556,24.0419,24.0419,0,0,1-3.5024-.6831c-4.5967-.1128-10.0413-1.5078-16.4189-4.9736a133.587,133.587,0,0,1-14.71-9.6211q-.59.5793-1.2314,1.1177a19.9957,19.9957,0,0,1-24.4993.9385l-11.6807-8.3657a20.0013,20.0013,0,0,1-4.01,4.5723c-3.9849,3.3433-12.5564,8.0186-25.1846,1.7646-1.7739-.8784-3.7932-2.03-6.1208-3.4917A20.0245,20.0245,0,0,1,269.1,187.5809c-3.8281-5.0249-15.8411-18.665-25.9082-29.6284a19.9979,19.9979,0,0,1-.5208-26.4619,22.99,22.99,0,0,1-3.34-13.0947,20.4973,20.4973,0,0,1,7.2322-14.3643,19.9558,19.9558,0,0,1,7.9417-4.0664c-3.9326-4.958-6.0713-9.3364-5.6716-15.6719a20.0313,20.0313,0,0,1,18.4451-18.7271,20.0154,20.0154,0,0,1,4.3042-22.12,20.023,20.023,0,0,1,3.64-4.0181,20.9455,20.9455,0,0,1,10.95-4.7749,21.0684,21.0684,0,0,1,7.08-11.6758,19.971,19.971,0,0,1,16.1414-4.4072,19.9964,19.9964,0,0,1,30.5637-3.5l4.16,3.9814a19.9963,19.9963,0,0,1,2.3208-2.2954A22.23,22.23,0,0,1,363.003,11.73c4.1426.3994,8.5925,1.53,15.6606,6.3579a19.957,19.957,0,0,1,15.0781,5.6836L406.0946,35.872c4.7483-2.3521,12.6409-4.1206,22.34,1.8184a67.3862,67.3862,0,0,1,8.7188,6.6118c4.9626,4.2954,11.3579,10.4668,19.5508,18.8662q1.7787,1.8237,3.6023,3.7163a23.841,23.841,0,0,1,7.4055,2.3135,42.8875,42.8875,0,0,1,5.9136,3.63c1.9043,1.3545,4.1543,3.0913,6.8125,5.26a20.0355,20.0355,0,0,1,19.7366,9.3945c3.1208,3.9878,15.8635,18.9517,26.6873,31.4648a19.9985,19.9985,0,0,1,.6375,25.3906,20.9991,20.9991,0,0,1,.0549,3.7388,20.297,20.297,0,0,1-5.3669,12.3223,20.921,20.921,0,0,1-7.2512,12.8179,20.11,20.11,0,0,1-2.52,1.8042,20.58,20.58,0,0,1-7.0762,12.7119,20.0115,20.0115,0,0,1-4.4009,2.8037,20.814,20.814,0,0,1-4.4,5.106,19.9925,19.9925,0,0,1-16.8044,4.2861,19.9924,19.9924,0,0,1-5.1177,6.5483,20.35,20.35,0,0,1-18.322,4.0742,21.4412,21.4412,0,0,1-3.0332,3.1172A20.3674,20.3674,0,0,1,440.3258,218.3261Z"/></g><g id="Layer_2" data-name="Layer 2"><path class="cls-3" d="M468.3142,82.3077a6.9006,6.9006,0,0,0-7.1831.7212c-1.9595,1.2725-4.7937,2.7349-5.1768,5.3276a13.0636,13.0636,0,0,0,.0078,3.29c.1575,1.5488-.1956,4.3882.498,5.7583.938,1.853,3.8257,3.4868,5.7883,4.1821a8.2148,8.2148,0,0,0,4.7251.34c1.3943-.2964,2.7593-.8706,4.4426-1.3643a6.6381,6.6381,0,0,0,4.8325-6.0415C476.5705,89.78,471.9523,83.9894,468.3142,82.3077ZM466.7418,96.852c-2.7358.5312-5.5767-2.2239-5.4692-5.2728.09-2.5655,2.7426-3.7845,5.0306-3.33,3.0568.6069,4.8556,5.1007,2.53,7.437A4.0247,4.0247,0,0,1,466.7418,96.852Z"/><path class="cls-3" d="M393.5313,13.1983a54.5976,54.5976,0,0,1,8.6232-2.429c3.0021-.4511,6.6507-.1989,9.3148,1.3784,1.98,1.1725,4.0546,1.6653,6.0935,2.6966,1.4512.734,2.6481,1.6323,4.1008,2.2739a14.4139,14.4139,0,0,1,4.6048,3.4923,47.7066,47.7066,0,0,1,4.5445,4.4517c1.6265,2.082,2.54,2.9268.85,5.3394-2.41,3.4419-3.8521,2.5645-5.8428-.1543-1.7021-2.3237-4.01-4.1143-6.021-6.15-2.9482-2.9854-7.5825-6.4878-11.7358-7.377-11.3569-2.4312-22.7705,8.96-19.0225,20.5049,1.7793,5.4785,6.7378,10.3271,10.9673,14.0249.1763.1538-3.7427,6.3428-4.0776,6.75-2.1479,2.6128-4.73,4.86-6.8193,7.5166-3.022,3.8423-5.9878,7.7285-9.0205,11.5625-1.644,2.0786-17.1157,19.5713-13.69,21.3438a.4886.4886,0,0,0,.1377.0469c1.9473.3647,4.918-5.2036,6.0122-6.3164,1.8311-1.8628,3.1523-4.2192,5.022-6.0259,1.8325-1.7705,3.4517-3.7129,5.1646-5.5923a34.7649,34.7649,0,0,0,4.3506-5.7866,99.8074,99.8074,0,0,1,8.7969-12.4341c2.2871-2.8179,5.9424-11.4517,10.5933-8.15,1.5835-2.2676,4.4341-6.5693,7.0322-7.6035,1.105,4.6772-4.8711,9.522-7.1982,12.9971-2.2095,3.2988-41.5669,50.9883-43.5581,53.9517-.6543.9736-3.2158,3.8193-3.356,4.4858-.02.0962-.0767,1.6973.3467,1.4224,2.9043-1.8838,4.856-4.2825,6.9873-6.9658,11.2078-14.1108,67.54-75.7645,75.5288-85.7769,6.5137-8.1631-5.5458-15.1176-13.626-14.9624-2.0953.04-2.1644,1.4892-3.6754,2.2431-.928.463-3.472.05-4.0072-.9109-.8212-1.4747,2.101-4.0134,1.7619-5.8525-.357-1.936-3.5916-3.1414-5.3727-2.6061-1.1344.3409-1.6936,1.1725-2.5405,2.18-.63.7494-1.0528,2.2679-1.8439,2.7846-.8969.5858-1.3527-.0634-2.0675-.6415-1.09-.8813-.8974-.875-.9788-2.35-.1315-2.3825-.3728-4.1615-2.8382-4.7937-1.4763-.3786-4.0739-.2306-4.9236,1.283-.8326,1.4832.6973,6.0286-2.4756,5.8309-1.038-.0647-2.2516-1.6524-2.8125-2.4663-.6081-.8824-1.5921-2.422-2.8542-2.5661-2.1927-.25-4.7514,3.6676-4.92,5.5409-.1233,1.3724.4443,2.5682-.3563,3.812-.894,1.3888-1.7256,1.4262-3.0646,1.0713-1.5851-.42-3.7943-1.0561-5.0884.2435-1.4742,1.4807-2.79,4.1373-1.0678,5.8725.4745.4782.979.5135,1.1935,1.1856.2719.8522-.4739,1.9107-.7471,2.6325-.284.75-.2815,1.2-.88,1.5563-.8849.5266-2.2459.1019-3.1337.632-1.5716.9383-.5588,3.0549-.6874,4.3981-.0895.935-.7362,1.3572-.0076,2.2187.7947.94,2.065.663,3.11.7673,1.7511.1749,1.6458.9287,1.5117,2.5054a7.8217,7.8217,0,0,1-.4877,3.1791c-1.225,2.1785-4.5871.876-3.4683,4.481.7673,2.4724,2.0528.4788,3.397-.87a6.7758,6.7758,0,0,0,2.3341-4.0222,30.8279,30.8279,0,0,0,.7727-3.0482c.1091-1.1777-.131-2.3611-.0666-3.5387a29.2022,29.2022,0,0,1,1.0458-4.5732,55.2159,55.2159,0,0,1,1.7927-6.01,12.1016,12.1016,0,0,1,3.3851-5.3174C390.0479,15.3941,391.7138,13.8021,393.5313,13.1983ZM406.9449,38.25a8.0331,8.0331,0,0,1-2.0385,1.41c-6.66,2.7942-8.7533-8.08-3.6394-11.2239,2.7279-1.6769,9.1253-.2246,9.4882,3.4877C410.93,33.71,408.89,36.5087,406.9449,38.25Z"/><path class="cls-4" d="M440.7917,27.2365c-.8384,3.6146-5.7614,7.7914-7.9957,9.9728-2.8916,2.8232-5.2759,6.1223-9.6247,6.1617-1.9009.0172-4.3408-1.6334-6.1926-.3621-1.3826.9491-.807,2.1167.0029,3.1763a6.3938,6.3938,0,0,1,1.345,4.6273c-.3164,1.73-2.4441,3.1909-3.5993,4.4537q-4.604,5.0325-9.0447,10.2112c-5.8747,6.8105-11.61,13.7394-17.4445,20.5844-4.6726,5.4821-10.1507,10.4371-14.5279,16.1481-2.34,3.0527-4.1358,6.4118-6.7814,9.285-2.0766,2.2553-6.379,5.4512-7.2192,8.4593,1.8569,1.6823,4.9324-2.566,6.2533-3.7549,4.4371-3.9939,7.9394-8.7551,12.0106-13.0878,7.5451-8.0295,14.8413-16.2845,22.1423-24.5656,5.1343-5.8235,10.7882-11.1841,15.8387-17.0979,1.4974-1.7534,2.6188-4.3608,5.292-4.3173-.4166,4.9446-.0667,9.6737-.0667,14.6835,0,2.868.6442,5.9045.1087,8.7257-.3129,1.6483-1.9993,3.7746-1.825,5.4307.2281,2.1644,6.2578,1.5189,7.54,1.3519.9546-.1243,3.05-.2357,3.7306-1.0655,1.4-1.7058-.8655-2.6652-1.5381-4.3155-.5576-1.3682-.3164-3.5708-.3916-5.0737-.2412-4.831.2231-9.6.3906-14.3772.1428-4.0723-.3879-8.5977.1229-12.5885.4652-3.6342,3.6407-6.4066,6.0923-8.8727,3.1618-3.18,6.0124-6.5909,9.0692-9.8817,3.1585-3.4,8.0068-11.36,1.1838-13.8209-1.1041-.3983-2.5315-.1169-3.7473-.1885-2.6361-.1553-5.6541-1.371-8.1863-.5873,1.2674,1.7328,3.0155,2.9707,4.1565,4.56.9243,1.287,2.9548,3.3041,3.0244,4.9526A4.3753,4.3753,0,0,1,440.7917,27.2365Z"/><path class="cls-3" d="M417.3518,86.9621c-1.2614-.1357-2.4446-.4882-2.8967-1.2692.8275-1.5917,2.335-.9332,2.7795-2.65.5883-2.2717.3584-4.9675.45-7.3108.09-2.3042.1361-4.619.14-6.9082a62.8319,62.8319,0,0,0-.4246-6.55c-.1762-1.7217.4869-2.0785,1.4656-3.1782,1.0283-1.1556,1.7646-2.6826,2.7347-3.9193-.8169,1.0413-.1959,5.7516-.2141,7.2022-.0317,2.5212-.0279,5.0426-.0321,7.5639s-.0124,5.0446-.0681,7.5663c-.04,1.8223.4275,4.8614-.2565,6.5653-.1272.3159-.6781.5792-.7631.8444-.3181.9924.1287,1.1556.4764,2.0081A16.502,16.502,0,0,1,417.3518,86.9621Z"/><path class="cls-4" d="M430.862,31.9508c.2486-.1612.43-.2833.5034-.3355,1.0586-.7569,3.0031-2.3355,2.87-3.8539-.12-1.3609-2.4858-1.9909-3.5418-2.9172-1.7326-1.52-3.3293-3.185-4.9844-4.7866-.8123-.7861-1.3831-1.9893-2.3659-2.5718a23.2279,23.2279,0,0,0-2.4415-.933c-2.271-.9949-4.7407-1.7959-6.9518-2.75a33.7647,33.7647,0,0,0-5.7114-2.08c-1.8441-.4242-3.7988-.1108-5.6942-.1332-4.2927-.0508-8.9608.7605-12.389,3.5213-1.71,1.3769-3.504,3.2932-5.8911,3.2774-.7071-.0047-5.1093-1.9972-4.9046-2.259a15.0709,15.0709,0,0,0-1.26,1.7878,12.76,12.76,0,0,0,1.677,2.5084,16.4928,16.4928,0,0,0,3.1418,2.0477,36.42,36.42,0,0,1-2.26,7.5c-2.1027.2885-4.08-.3566-6.1448-.5658-.0518.945-.5975,3.3553.1593,4.03.4009.3573,2.4243.355,3.0327.5123a4.9807,4.9807,0,0,1,1.782.7263c.0213.0172.552,2.6665.6626,3.0734a6.0644,6.0644,0,0,1,.1869,3.3992c-.7161,1.8537-3.1647,1.9352-4.3786,3.3951.1688.3166,2.2474,3.5836,2.0058,3.7341a7.5861,7.5861,0,0,1,4.9588-1.2,12.3846,12.3846,0,0,0,1.2379,2.5773,13.6794,13.6794,0,0,1,.8864,2.1543c-.01,1.3989-2.2342,2.7309-3.0223,3.851.8187.7861,1.2223,1.7895,2.12,2.5665.5.4324,1.6385,1.7142,2.1969,1.8117,2.3021.4019,3.5161-3.9737,5.7861-3.8979a6.9952,6.9952,0,0,0,2.4005,2.8188c.7134-.5218,7.3317-7.5229,6.099-8.1469-7.6978-3.8965-13.0464-12.5581-11.2349-21.4429,1.6294-7.9912,8.2222-12.9551,16.3042-12.8906,2.5488.02,4.6487,1.5452,6.9344,2.4979.798.3326,1.5813.7457,2.392,1.0769,1.4863.6071,3.1358,1.2124,4.0772,2.6453,1.1721,1.7842,2.5,3.3624,3.8519,5.0362,1.5124,1.8726,2.5618,4.4052,4.345,6.0062C427.5838,33.9985,429.8153,32.6294,430.862,31.9508Z"/><path class="cls-5" d="M368.7479,114.9115c19.211-21.7625,38.4966-43.4387,58.49-64.49,5.071-5.3391,10.2016-10.62,15.2971-15.9353,3.4215-3.5692,7.0007-7.83,6.2611-13.1305-.8127-5.8244-6.3017-6.874-11.0637-8.4717-3.0781-1.0327-10.6656-5.22-12.6479-.4674-2.34,5.61,5.6569,8.1513,8.6967,10.8327a17.57,17.57,0,0,1,1.6178,1.6357,16.1893,16.1893,0,0,1,1.2844,1.67,1.5335,1.5335,0,0,1-1.8818.4087c-1.6014-.2866-3.5739-2.2823-4.7267-3.2661a36.1458,36.1458,0,0,1-7.3332-8.6666l-.2753,1.05,1.7189-.0466c.9226.3326,1.3108-1.127.4034-1.4634a3.3039,3.3039,0,0,0-2.897.1847.7744.7744,0,0,0-.2753,1.05A35.7149,35.7149,0,0,0,432.8,27.62c1.22.75,2.9812,1.5405,4.422.8838,1.7648-.8044,1.2572-2.0709.3275-3.34a19.4461,19.4461,0,0,0-4.661-4.5221c-2.3591-1.6228-6.5174-2.9-6.6155-6.3265-.1375-4.8016,7.0584-1.3158,9.3053-.5626,3.0679,1.0285,7.4752,1.6769,9.876,3.9351,5.4388,5.1157-.87,12.5111-4.54,16.3113q-7.3945,7.6561-14.7291,15.3688-13.96,14.7679-27.58,29.8495c-10.3989,11.4791-20.6417,23.0914-30.5742,34.9769-.4132.4944.2809,1.2105.7168.7168Z"/><path class="cls-5" d="M433.0753,28.5924c-3.4066,3.0894-6.7118,6.289-10.043,9.459h.944q-2.6867-2.1828-5.3733-4.3655c-1.071-.87-2.32-2.2992-3.6671-2.7447-2.55-.8433-5.3556,2.7808-6.6434,4.5215a7.4743,7.4743,0,0,0-1.3858,7.0534,4.9625,4.9625,0,0,0,1.6145,2.2316c1.8194,1.3831,4.6424,1.2192,3.9991,4.4125-.3888,1.93-1.93,3.5924-3.1049,5.08q-2.3206,2.9379-4.651,5.8681-4.3409,5.4769-8.6815,10.9542Q387.25,82.2162,378.4214,93.3732c-6.61,8.35-13.2588,16.6714-19.8268,25.0548a.6992.6992,0,0,0,0,.9622c.73.742,1.4566,1.4857,2.2093,2.205a.64.64,0,0,0,.99-.1275,15.9024,15.9024,0,0,1,4.3246-4.2908c.6075-.4168.0384-1.4129-.5826-.9967a19.7645,19.7645,0,0,0-4.83,4.6514l.99-.1275c-.6966-.7743-1.4183-1.5234-2.1383-2.2759v.9622c10.8137-13.51,21.4965-27.1264,32.2422-40.69q8.06-10.174,16.1121-20.3542c2.09-2.6409,9.5379-9.9657,4.5171-13.287-1.5973-1.0567-3.4718-1.0034-4.2386-3.0859-.9237-2.5086.4395-4.9479,2.1067-6.7836a11.4682,11.4682,0,0,1,2.0662-1.9737,5.0113,5.0113,0,0,1,2.5987-.7154c.5679.1179,1.43,1.1406,1.91,1.5266q3.0845,2.48,6.1613,4.9688a.6861.6861,0,0,0,.944,0c3.3185-3.1811,6.6656-6.3349,9.907-9.5951.5217-.5248-.2653-1.3-.8079-.8079Z"/><path class="cls-5" d="M403.784,42.7375a43.8222,43.8222,0,0,0-3.8672,4.5329,2.5975,2.5975,0,0,0-.64,2.6593c.8274,2.2719,3.6727,4.6227,6.165,4.248,2.7543-.4141,4.5738-3.1358,5.3831-5.6.4425-1.3472-.2836-1.7721-1.2458-2.8547a23.4582,23.4582,0,0,0-3.766-3.3994c-.5809-.422-1.3443.5541-.774,1.0031a17.8868,17.8868,0,0,1,4.119,3.8091c.6952,1.0909.3583,1.6249-.2974,2.7944a6.0685,6.0685,0,0,1-2.4781,2.6735c-1.6673.8177-3.069.2216-4.2905-.9514-.8968-.8612-2.0422-1.9221-1.4813-3.3387a15.8118,15.8118,0,0,1,2.3174-2.9239c.5436-.6918,1.0575-1.3868,1.546-2.12.2791-.4189-.3452-.8857-.69-.5325Z"/><path class="cls-5" d="M400.6323,48.4108a31.9372,31.9372,0,0,1,.5959,3.61.4869.4869,0,0,0,.9323,0,6.8294,6.8294,0,0,0-.73-3.9459c-.2227-.4522-.9208-.132-.7979.3364Z"/><path class="cls-5" d="M402.73,46.0005a44.4614,44.4614,0,0,1,.3065,6.0242.4691.4691,0,0,0,.9375,0,26.69,26.69,0,0,0-.3682-6.2657c-.0948-.5818-.9519-.3253-.8758.2414Z"/><path class="cls-5" d="M404.8833,45.6086a32.0833,32.0833,0,0,0,.2314,5.43.5512.5512,0,0,0,1.1016,0,32.8766,32.8766,0,0,0-.3432-5.5643c-.0841-.5832-.9674-.4073-.99.134Z"/><path class="cls-5" d="M406.9538,47.9c-.0735.73-.1381,1.462-.1634,2.1956-.0219.637.9243.6183.9785,0,.0641-.73.089-1.4631.1048-2.1956.013-.6024-.8618-.5775-.92,0Z"/><path class="cls-5" d="M402.3339,53.7736c-6.359,6.9639-11.8575,14.8924-17.715,22.2834q-4.2693,5.387-8.5253,10.7843-2.1272,2.7-4.2545,5.4-.9118,1.1571-1.8239,2.3138c-.466.591-1.3583,2.2749-2.1064,2.558q-3.1623-.1622-.9881-1.8381l.9264-1.1576,2.1615-2.7011,4.3231-5.4021q4.3231-5.4021,8.6462-10.8042,8.9555-11.1912,17.8946-22.3956c.5151-.6447-.395-1.5668-.9156-.9156q-16.36,20.4587-32.7035,40.93c-.9575,1.1994-3.705,3.5386-2.374,5.31,1.3553,1.8037,3.55.3509,4.6008-.8849,5.5725-6.555,10.69-13.568,15.9915-20.3446,5.8425-7.4683,12.2942-14.7077,17.6031-22.5646.2993-.4429-.38-.9662-.7408-.5716Z"/><path class="cls-5" d="M367.814,92.1271a7.98,7.98,0,0,0,.1357,3.9637.63.63,0,0,0,1.2148-.3349,8.74,8.74,0,0,1-.1922-3.3095c.1077-.7441-.9985-1.0918-1.1583-.3193Z"/><path class="cls-5" d="M370.6277,87.9454a35.864,35.864,0,0,0,.5707,4.8217.5886.5886,0,0,0,1.1509-.1558,35.9154,35.9154,0,0,0-.634-4.8132.5562.5562,0,0,0-1.0876.1472Z"/><path class="cls-5" d="M374.2873,82.9377a6.2629,6.2629,0,0,1,.23,5.0084c-.1892.57.7123.9626.98.4131a6.2257,6.2257,0,0,0-.3449-5.9272.5014.5014,0,0,0-.8652.5057Z"/><path class="cls-5" d="M377.3974,79.9209a18.3976,18.3976,0,0,1,1.176,5.2.6244.6244,0,0,0,1.248,0,11.6373,11.6373,0,0,0-1.3959-5.6339c-.3-.5453-1.2548-.1745-1.0281.4334Z"/><path class="cls-5" d="M380.1732,75.5805c.4555,1.9113.5669,3.82.8814,5.746.11.6759,1.0722.4456,1.1222-.1519a15.718,15.718,0,0,0-.9583-5.8823.5425.5425,0,0,0-1.0453.2882Z"/><path class="cls-5" d="M383.2427,72.0941a8.5784,8.5784,0,0,1,1.0268,5.4052c-.0648.6445.9732.77,1.1222.1519a7.8335,7.8335,0,0,0-1.1776-6.1249.5629.5629,0,0,0-.9714.5678Z"/><path class="cls-5" d="M386.5471,68.353a25.624,25.624,0,0,1,1.5294,5.181.615.615,0,0,0,1.2027-.1628,13.856,13.856,0,0,0-1.7658-5.5831c-.3433-.6453-1.2617-.0787-.9663.5649Z"/><path class="cls-5" d="M389.8822,64.601a16.681,16.681,0,0,1,.97,5.1273c.0685.6049.9482.8251,1.1279.1527a8.4878,8.4878,0,0,0-1.0857-5.8715c-.3652-.68-1.3053-.0822-1.0119.5915Z"/><path class="cls-5" d="M392.7977,60.29a10.0953,10.0953,0,0,1,1.1019,4.69.6244.6244,0,0,0,1.248,0,8.4646,8.4646,0,0,0-1.4443-5.219.5248.5248,0,0,0-.9056.5294Z"/><path class="cls-5" d="M395.9322,56.4778c.473,1.1621.7321,2.3481,1.11,3.537a.5652.5652,0,0,0,1.1049-.15,9.4271,9.4271,0,0,0-1.1168-3.85c-.2967-.6-1.3561-.172-1.0977.4628Z"/><path class="cls-5" d="M399.84,52.8562a11.75,11.75,0,0,1,1.4449,3.72c.1625.5168,1.079.6341,1.17,0a6.2055,6.2055,0,0,0-1.6022-4.5008c-.4488-.5694-1.4386.1858-1.0123.7811Z"/><path class="cls-5" d="M416.8878,30.4472c-.44-1.8569-1.0383-3.6707-1.6011-5.4932-.1611-.5218-.9194-1.9778-.7143-2.3995l1.87-1.1638q.4012.4106.7635.8558c2.4106,2.7655,4.7412,5.6057,7.11,8.4068a10.7062,10.7062,0,0,1,1.8547,2.1932l.6176.7317q-.6065,1.1113-1.2477.1938c-1.2869-.5318-2.5457-2.6885-3.384-3.7224a95.27,95.27,0,0,1-6.7157-9.4844c-.4491-.7172-1.5868-.0592-1.1384.6654a90.5189,90.5189,0,0,0,5.25,7.6c1.55,2.0127,3.1881,4.5289,5.256,6.0377.8776.64,3.1557,1.5961,3.8757.0983.6513-1.3548-1.8826-3.3175-2.551-4.1063q-3.2494-3.8346-6.4982-7.67c-1.04-1.228-2.5555-3.8441-4.4963-3.7431-1.4377.0748-1.96,1.4114-1.8828,2.6674.1705,2.77,1.6347,6.0419,2.6259,8.61a.522.522,0,0,0,1.0057-.2773Z"/><path class="cls-5" d="M416.8975,61.8122c-.3292,7.3163-.0717,14.7451.144,22.0644a.6508.6508,0,0,0,1.3008,0c0-7.3243.037-14.759-.5073-22.0644a.469.469,0,0,0-.9375,0Z"/><path class="cls-5" d="M428.5786,48.7807a278.4446,278.4446,0,0,0-.3845,34.0042.6127.6127,0,0,0,1.2246,0c.2432-11.2935.2783-22.7115.0154-34.0042a.428.428,0,0,0-.8555,0Z"/><path class="cls-5" d="M416.8945,84.105c-.9278.1028-2.3267-.257-3.0294.5626a1.43,1.43,0,0,0,.2681,2.0955c1.4308,1.1958,4.1675.643,5.8493.6612,3.0058.0327,6.0586.207,9.061.0634,1.3664-.0653,2.91-.3336,3.479-1.7784a1.9612,1.9612,0,0,0-.9217-2.53c-1.5344-.8223-3.92-.1228-5.5365-.0539-2.9509.1256-5.8415-.1046-8.7833-.2556-.7585-.0389-.9519,1.219-.1822,1.3466a39.64,39.64,0,0,0,7.1143.4194c1.2362-.02,2.4683-.0918,3.6991-.2086.333-.0316,1.3894-.3334,1.6723-.174q.8066-.2131.0871.93.1983,1.365-1.0538.9712a16.3717,16.3717,0,0,1-3.8379-.02q-1.919-.01-3.8379-.0165c-1.2138-.0027-3.2164.43-4.3176-.0054-.518-.2048-1-.4193-.5265-.8575-.0375.0347,1.1685-.2076.9314-.1552.5473-.121.4394-1.0592-.1347-.9956Z"/><path class="cls-5" d="M421.6993,87.71c-.4318,11.5957.1159,23.1481-.83,34.7344-.07.8631,1.2321.8328,1.33,0,1.34-11.3931,1.09-23.291.5017-34.7344a.5013.5013,0,0,0-1.002,0Z"/><path class="cls-5" d="M424.8327,88.3491c-.2418,8.2376-.3464,16.4746-.4367,24.7151-.0336,3.0707-.6519,6.8721.5769,9.7906.2305.5475.6541.9948.88,1.5244.7868,1.8434.5317,2.2565.05,3.7493-.6586,2.043-1.2272,4.1184-1.9138,6.1513l.6981-.284a5.0747,5.0747,0,0,0-1.62-.5845c-1.3878-.2473-1.3174-.1846-2.0149-1.861-1.1968-2.8767-1.6764-6.2079.8465-8.5367.5931-.5475-.2861-1.4151-.8825-.8825-3.8374,3.427-1.8647,8.5715.1083,12.4431a.6131.6131,0,0,0,.6885.28,2.6616,2.6616,0,0,1,2.5081.01.4822.4822,0,0,0,.5846-.3319c.6861-2.04,1.51-4.0329,2.2052-6.071a6.2451,6.2451,0,0,0,.6112-3.1444,5.8522,5.8522,0,0,0-.7657-1.5832,9.4252,9.4252,0,0,1-1.2682-3.7323c-.1557-1.9627-.02-3.981-.004-5.9489.0682-8.5689.1281-17.1347.0386-25.7037a.4456.4456,0,0,0-.8906,0Z"/><path class="cls-5" d="M409.19,17.48c-7.7984-3.786-16.6478,1.6238-19.6121,9.0786a19.3576,19.3576,0,0,0-.2892,13.0084c1.1053,3.46,3.2626,8.2337,7.0759,9.3177.6957.1978,1.1941-.8774.5057-1.1995-6.6518-3.1124-8.3711-13.733-6.1533-20.0071,2.7383-7.7467,10.3-11.3077,18.0622-9.2235.5659.152.9691-.7035.4109-.9746Z"/><path class="cls-5" d="M418.4541,15.6357c-8.5356-6.7685-21.5238-6.59-29.598.8573-7.3925,6.8184-8.5979,18.1256-5.2273,27.2691,1.73,4.692,5.03,9.2053,10.0036,10.7176.87.2647,1.1616-1.0011.366-1.3278C383.59,48.878,381.1264,34.17,384.9,24.5708A20.2845,20.2845,0,0,1,399.0657,12.68c6.6378-1.5474,13.0581.3642,18.81,3.7056.4525.2629,1.0151-.4039.5787-.75Z"/><path class="cls-5" d="M422.0454,12.9059a5.5352,5.5352,0,0,1-.6838-.84c.0348.0708.034.7745.137.3906a18.9821,18.9821,0,0,1,.706-1.832l1.2862-3.3373a.7572.7572,0,0,0-.3447-.847,33.9569,33.9569,0,0,0-5.9649-3.04.7545.7545,0,0,0-.847.3447l-3.3558,5.5156.847-.3447-4.0116-.9349.5506.7232-.4964-6.4417a.7749.7749,0,0,0-.75-.75,38.2149,38.2149,0,0,0-7.5707.0428.7649.7649,0,0,0-.75.75l.1771,5.4647.5506-.7232-4.7459,1.3437.847.3447L394.9867,4.09a.757.757,0,0,0-.847-.3447,34.1831,34.1831,0,0,0-5.9167,3.0083.7653.7653,0,0,0-.3447.847l1.4575,4.8007.3447-.847c-1.459,1.0024-2.933,1.986-4.3782,3.0081.4684-.3313.7045.416.225-.1685a5.77,5.77,0,0,0-1.41-.808l-2.2413-1.2839a.76.76,0,0,0-.9089.1173,27.0222,27.0222,0,0,0-3.568,5.5366.7708.7708,0,0,0,.1173.9089l1.6348,1.5156c.3278.3039.8323.9937,1.2487,1.1577.6979.2748,0,.36.1528-.2405-.4039,1.5858-.97,3.1484-1.4513,4.7128l.7232-.5506-4.3893-.358a.7514.7514,0,0,0-.7232.5506,40.7416,40.7416,0,0,0-.8588,7.5523.76.76,0,0,0,.5506.7232l4.7617,1.1573-.5506-.7232.184,5.6774.5506-.7232-4.0737,1.6745a.7746.7746,0,0,0-.5238.9226,33.648,33.648,0,0,0,2.17,6.84.756.756,0,0,0,.847.3447l5.0332-1.3134-.847-.3447,3.1764,4.6968.1173-.9089L381.6745,55.52a.7745.7745,0,0,0,0,1.0607,34.5057,34.5057,0,0,0,4.8379,4.5932.7689.7689,0,0,0,1.0607,0l4.031-4.149-.9089.1173,2.106,1.3465c.8157.5215,1.5688-.7762.7571-1.2952l-2.106-1.3465a.759.759,0,0,0-.9089.1173l-4.031,4.149h1.0607a34.5057,34.5057,0,0,1-4.8379-4.5932V56.58l3.5742-4.2916a.7713.7713,0,0,0,.1173-.9089L383.25,46.6831a.7757.7757,0,0,0-.847-.3447L377.37,47.6518l.847.3447a31.8173,31.8173,0,0,1-2.0189-6.4817l-.5238.9226,4.0737-1.6745a.7789.7789,0,0,0,.5506-.7232l-.184-5.6774a.7662.7662,0,0,0-.5506-.7232l-4.7617-1.1573.5506.7232a38.4762,38.4762,0,0,1,.8052-7.1536l-.7232.5506,4.3893.358a.7578.7578,0,0,0,.7232-.5506l1.4917-4.8441a.7429.7429,0,0,0-.1929-.73l-3.27-3.0313.1173.9089a25.2772,25.2772,0,0,1,3.3335-5.233l-.9089.1173,4.0756,2.3346a.7441.7441,0,0,0,.7571,0l4.4864-3.0825a.7723.7723,0,0,0,.3447-.847L389.3248,7.202l-.3447.847a32.0825,32.0825,0,0,1,5.5584-2.8571l-.847-.3447,2.6394,4.6451a.7631.7631,0,0,0,.847.3447l4.7459-1.3437a.7626.7626,0,0,0,.5506-.7232l-.1771-5.4647-.75.75a38.2149,38.2149,0,0,1,7.5707-.0428l-.75-.75.4964,6.4417a.7716.7716,0,0,0,.5506.7232l4.0116.9349a.7724.7724,0,0,0,.847-.3447l3.3558-5.5156-.847.3447a31.878,31.878,0,0,1,5.6066,2.8889l-.3447-.847-2.0629,5.3528a.757.757,0,0,0,.1929.73l.81.9953c.61.7488,1.6654-.318,1.0607-1.0607Z"/><path class="cls-5" d="M402.5727,39.5638c-4.9882-.5007-5.41-6.6347-2.3337-9.6444a5.8923,5.8923,0,0,1,9.4348,1.3878c.4137.7014,1.3825.0874,1.0675-.624-2.2406-5.0606-9.0714-4.8984-12.1791-.8179-2.8633,3.76-1.7259,10.8606,4.01,10.5013a.4016.4016,0,0,0,0-.8027Z"/><path class="cls-5" d="M419.0006,60.1277a49.7337,49.7337,0,0,0,.333,10.4846c.0665.5235.8844.5522.8438,0-.2571-3.4893-.3071-6.9877-.3681-10.4846a.4046.4046,0,0,0-.8086,0Z"/><path class="cls-5" d="M419.3337,72.8424l-.0029,2.2252a.3782.3782,0,0,0,.7559,0l-.0029-2.2252a.3752.3752,0,0,0-.75,0Z"/><path class="cls-5" d="M422.0534,55.1c-.3736,4.87-.0093,9.85-.137,14.7393-.0806,3.0862-.7724,6.8154,1.6731,9.1973a.5811.5811,0,0,0,.9616-.2539c2.48-8.97.5277-18.1248,1.485-27.2429.0834-.7942-1.1594-.7883-1.2422,0-.9367,8.9223,1.2864,18.2134-1.3524,26.937l.9616-.2539c-2.5617-2.612-1.2415-8.5175-1.2037-11.8226a77.5574,77.5574,0,0,0-.3058-11.414c-.07-.5053-.8058-.3343-.84.1137Z"/><path class="cls-5" d="M442.5217,19.1392c2.4757,4.681-.5619,9.1465-2.9464,13.0723-.3684.6066.5378,1.1053.936.5471,2.9259-4.1012,5.4408-9.2047,2.6985-14.0216-.2546-.4471-.9275-.05-.6881.4022Z"/><path class="cls-5" d="M462.4408,88.3055c-1.2759.0326-1.7787,1.5754-1.9944,2.6612a5.8129,5.8129,0,0,0,.9026,4.4427,5.1976,5.1976,0,0,0,7.3762,1.2748c2.2351-1.7393,2.7034-5.9787.5985-8.0346-1.7552-1.7143-6.5554-2.1222-8.0338.123-.3946.5993.4805,1.2376.9755.7527,1.2479-1.2227,4.1136-1.0971,5.5643-.24,2.0961,1.2391,1.8617,4.9309.0829,6.3465a3.8879,3.8879,0,0,1-5.3174-.567,4.44,4.44,0,0,1-1.1106-2.8765c-.0117-.7632.1955-2.7681,1.0614-3.1063.3889-.1519.3739-.7891-.1051-.7769Z"/><path class="cls-5" d="M465.5754,81.4926c1.8448,1.3407,3.7443,2.605,5.6388,3.874a18.73,18.73,0,0,0,3.095,2.073c.2829.1106.6627.67.3539.0583-.3265-.6468-.1484.3406-.1665.6047-.1878,2.7536.0074,5.5871.0111,8.3475a5.2754,5.2754,0,0,0,.002,1.512c.26.6329-.2392.0971.3421-.1989-.8309.423-1.6589.8518-2.4882,1.2781a70.2387,70.2387,0,0,0-6.6219,3.4036c.7807-.515.7417.3459.32-.1723a5.5065,5.5065,0,0,0-1.3074-.725q-2.01-1.1163-4.0176-2.2354c-1.0533-.5861-2.1013-1.2684-3.1985-1.77-.2594-.1187-.505-.3331-.7759-.4272.6711.2332.1312.9037.3409-.0158a16.7,16.7,0,0,0-.0388-3.4968c-.0149-1.5983-.0292-3.1966-.0313-4.795a7.986,7.986,0,0,0,.0094-1.9788c-.1882-.595-.5293.2282-.142.055,1.149-.5137,2.2416-1.2381,3.3426-1.8462,1.47-.8119,2.9454-1.6146,4.41-2.4358a7.4635,7.4635,0,0,0,1.2584-.7573c.2389-.2057.7278-.7164.2445-.445a.5219.5219,0,0,0-.5264-.9006c.5648-.3172-.8511.1507-1.2113.3192-1.21.5662-2.3592,1.3442-3.5193,2.0065l-3.4914,1.9933c-.43.2457-1.3388.55-1.6515.9743-.838,1.1359-.2485,4.0362-.2367,5.3345.02,2.21.0515,4.42.0767,6.63a.7622.7622,0,0,0,.3757.655q2.5288,1.407,5.064,2.8023,1.641.9036,3.2819,1.8074a5.2682,5.2682,0,0,0,1.5377.8267c1.2917.1284,3.2362-1.4457,4.3174-2.0029q2.7277-1.4056,5.4549-2.8119a.7375.7375,0,0,0,.368-.6415l-.0271-6.1006c-.0061-1.3609.5736-4.231-.1216-5.4786-.6723-1.2064-3.2093-2.225-4.3122-2.9587-1.76-1.1711-3.52-2.345-5.3239-3.4485C465.5058,79.9732,464.9329,81.0257,465.5754,81.4926Z"/><path class="cls-6" d="M316.1068,81.1408c6.1964-.2944,10.6749,5.882,7.7046,11.5617-.5066.9687-.1544,2.6546,1.1522,2.8322a5.5738,5.5738,0,0,1,5,6.1451c-.2129,1.3969-.9307,2.4637-.5,3.9318a3.9766,3.9766,0,0,0,2.4151,2.5149c5.4383,2.5572,14.4641,4.16,11.5363,12.1805-.7189,1.9694,2.0337,3.3356,3.395,1.9763,2.6222-2.6184,2.0248-6.9266.31-9.8826-2.1179-3.65-5.9958-5.4408-9.7987-6.8365a27.0144,27.0144,0,0,1-3.0348-1.0861c-1.0164-.5223-.5108-.5153-.28-1.6841a8.9413,8.9413,0,0,0-.5184-5.0649,9.4689,9.4689,0,0,0-8.0106-5.9816l1.6648,2.9011c3.6464-7.9229-2.0138-17.0745-11.0341-16.1485-1.6556.17-1.7257,2.7226,0,2.6406Z"/><path class="cls-6" d="M342.5387,139.2275a15.06,15.06,0,0,1,11.1314-1.2744c3.1869.8968,7.933,3.9545,5.2836,7.7584-1.0271,1.4748.6657,3.3142,2.2352,2.9075,4.3253-1.1206,9.2045-1.728,13.3417.4,3.518,1.8093,6.0339,5.75,5.0113,9.74a2.0228,2.0228,0,0,0,2.46,2.46,35.0256,35.0256,0,0,1,11.2231-.7035c1.7571.178,11.1261,1.3178,9.2832,4.7484-.9,1.6749.9686,3.8235,2.715,2.715q-.0944-.1479-.1383.0392c.4041,1.9688,3.419,1.468,3.4375-.4652a3.4583,3.4583,0,0,0-5.3023-3.0009l2.715,2.715c2.7915-5.1492-2.4416-8.5835-6.8052-9.7327a38.3611,38.3611,0,0,0-18.1911-.1718l2.46,2.46c1.342-5.26-1.2385-10.5291-5.636-13.51-5.1444-3.4877-11.8987-3.07-17.6259-1.51l2.2352,2.9075c3.2966-4.8727-.3692-10.3527-5.0819-12.4137a17.8519,17.8519,0,0,0-16.3521,1.1929,1.5871,1.5871,0,0,0,1.6009,2.7388Z"/><path class="cls-6" d="M372.169,133.49c7.0272-3.6678,15.3626-.62,17.0018,7.48a2.0848,2.0848,0,0,0,3.4566.9126c2.5615-2.5569,11.5607-.8184,9.7907,3.6937-.8286,2.1123,2.7042,3.6112,3.6841,1.5532,4.2145-8.8514-10.9036-13.739-16.3995-8.1716l3.4566.9126c-2.22-9.7668-14.1217-15.4636-22.6069-9.1459a1.6029,1.6029,0,0,0,1.6167,2.7658Z"/><path class="cls-6" d="M411.7493,154.5454c3.51-3.1619,9.6389-1.649,11.5273,2.5318a1.908,1.908,0,0,0,2.9812.3842c3.1529-3.5789,7.0908-6.895,12.1374-6.8835,4.2869.01,8.358,2.8552,9.0487,7.1851.3106,1.9467,3.68,1.9765,3.9615,0,1.139-7.9833,10.4436-11.1925,15.8294-4.8442a2.1211,2.1211,0,0,0,3.31-.4266,12.7708,12.7708,0,0,1,17.159-5.0821c2.3553,1.2889,4.4237-2.2347,2.1056-3.6023-7.8194-4.6131-18.6722-1.4241-22.9044,6.5568l3.31-.4266c-7.5138-8.8245-21.69-4.0473-22.845,7.2788l4.0349-.5461c-1.1369-5.6555-6.364-9.5731-11.99-10.007-6.4224-.4953-12.4374,3.5452-16.1391,8.4973h3.278a10.5932,10.5932,0,0,0-16.7167-2.5271,1.3524,1.3524,0,0,0,1.9114,1.9114Z"/><path class="cls-6" d="M434.0122,139.2735c3.7247-6.2082,13.2105-4.0167,17.9912-.5164,1.3114.96,3.53-.6635,2.88-2.2139-.6129-1.4607,3.7236-2.6254,4.5371-2.7314a7.8929,7.8929,0,0,1,5.2215,1.1367,2.0628,2.0628,0,0,0,2.9954-2.3027c-.6384-2.9075,3.9939-2.1991,5.3558-1.7612a20.28,20.28,0,0,1,4.8122,2.7121c1.8989,1.2334,3.5221-1.3943,2.2627-2.9326a12.89,12.89,0,0,0-11.0046-4.2187c-3.6469.5347-6.1682,3.5974-5.3586,7.2844l2.9954-2.3027a12.0164,12.0164,0,0,0-10.7161-.8757c-2.9643,1.2-6.3935,4.0347-4.6839,7.5023l2.6822-2.6822c-6.2963-4.4937-19.3325-6.2989-22.7689,2.722-.6318,1.6584,1.9313,2.6257,2.7987,1.18Z"/><path class="cls-6" d="M429.1338,120.4422a10.0345,10.0345,0,0,1,10.9521,2.1316,1.8292,1.8292,0,0,0,2.5854-2.5854,11.9632,11.9632,0,0,0-14.7474-2.4164c-1.4847.8692-.5033,3.5121,1.21,2.87Z"/><path class="cls-6" d="M344.6814,88.3143c-.0847.4378.706.0536,1.2275.0659a7.65,7.65,0,0,1,2.3843.3507,2.9266,2.9266,0,0,1,2.1932,3.2829c-.5063,2.1,1.8445,3.1576,3.3689,1.9611,2.2179-1.7409,3.8556.6889,3.6082,2.7252-.2615,2.1531,3.3053,2.6036,3.7751.5109,1.399-6.2323-5.4726-9.8237-10.2339-6.0866l3.3689,1.9611a6.7592,6.7592,0,0,0-4.6523-7.9813c-2.8974-1.0179-8.1076-1.1946-8.5542,2.7345-.2265,1.9928,3.1322,2.449,3.5142.4756Z"/><path class="cls-6" d="M373.6783,119.8117c1.6913-.88,4.2745-.0043,6.01.432.64.1609,5.3582,1.6645,5.2124,1.9014-.9032,1.467.6251,3.7731,2.3809,3.0971,3.0223-1.1638,13.3187-2.99,12.8369,2.7712-.1921,2.2967,3.7386,2.8673,4.0667.55,1.3492-9.5271-12.01-9.8285-18.0245-7.3875l2.3809,3.0971c2.3406-3.9608-1.9717-6.2059-5.1111-7.2049-3.2471-1.0333-9.0492-2.8592-11.6742.2524a1.5934,1.5934,0,0,0,1.9219,2.4908Z"/><path class="cls-6" d="M348.7681,45.1115c4.0707.3127,6.7651,4.7253,4.04,8.2-.8783,1.12-.4362,3.1133,1.263,3.0491a12.1479,12.1479,0,0,1,7.95,2.33,2.7082,2.7082,0,0,1,1.28,1.5273c.2427.8775-.01.9925-.484,1.6886a8.898,8.898,0,0,0-1.3512,2.6453c-.2835,1,.5495,2.42,1.7252,2.2647a7.7406,7.7406,0,0,1,8.35,4.8328c.7851,1.7663,3.7962.5079,3.1414-1.3244A10.7752,10.7752,0,0,0,363.19,63.2386l1.7252,2.2647c.4571-1.6121,1.9642-2.6635,2.276-4.3639a4.8044,4.8044,0,0,0-1.8843-4.3644,15.5018,15.5018,0,0,0-11.2365-3.9863l1.5423,2.6876c4.2261-5.5288.25-13.7392-6.8448-13.3336a1.4853,1.4853,0,0,0,0,2.9688Z"/><path class="cls-7" d="M355.8007,126.1977c3.2778.9893,5.9787,2.0549,8.3817,4.599a1.796,1.796,0,0,0,2.804-.3613c2.4023-5.6645,9.0447-3.6138,13.5808-2.3576,2.3859.6607,3.2789-2.8418,1.0094-3.6612-6.0824-2.1962-15.3894-3.1488-17.8533,4.6432l2.9839-.7878c-2.8892-2.5368-6.66-4.5228-10.6053-4.2994a1.1383,1.1383,0,0,0-.3011,2.2252Z"/><path class="cls-7" d="M377.1315,114.3959a8.0624,8.0624,0,0,1,9.0857,3.4042,1.8842,1.8842,0,0,0,2.9373.3785c2.063-2.5545,4.3411-1.321,6.6147.0211a1.5477,1.5477,0,0,0,2.2494-1.7293c-1.5674-4.7779-8.7954-4.261-11.509-.9367l2.9373.3785A9.9859,9.9859,0,0,0,376.096,111.94a1.35,1.35,0,0,0,1.0354,2.456Z"/><path class="cls-7" d="M359.5549,46.43a6.3521,6.3521,0,0,1,1.3525,3.8482,1.66,1.66,0,0,0,1.1834,1.5543,10.1956,10.1956,0,0,1,7.0007,9.7667A2.018,2.018,0,0,0,370.5386,63.5c3.0446,1.0151,4.49,3.24,5.9666,5.9175.7693,1.3945,3.3427.859,3.1592-.8557-.47-4.3887-4.0026-7.5848-8.0777-8.8635l1.4472,1.9008a13.6571,13.6571,0,0,0-10.0861-12.8752l1.1834,1.5543a7.4319,7.4319,0,0,0-2.613-5.363c-1.0016-.84-2.8553.277-1.9632,1.5148Z"/><path class="cls-7" d="M429.5806,114.2331c2.9688-1.1789,5.57-.232,7.8784,1.762,1.3988,1.2084,3.7744-.3339,2.6872-2.0734-2.4271-3.8829-7.9237-4.566-11.6852-2.3446-1.3644.8058-.4573,3.2822,1.12,2.6559Z"/></g></svg>