<svg xmlns="http://www.w3.org/2000/svg" viewBox="0 0 201.4054 201.5824"><defs><style>.cls-1{fill:#f7fafc;}.cls-2{fill:#ffefaf;}.cls-3{fill:#e93a1d;}.cls-4{fill:#303030;}</style></defs><title>DN_Service-Ya2-img-3</title><g id="Layer_2" data-name="Layer 2"><g id="back"><path class="cls-1" d="M110.7292,201.5824a21.5564,21.5564,0,0,1-8.84-1.9734c-.8567-.3816-1.8159-.8567-3.0183-1.4954-1.6843-.894-3.9382-2.1584-6.8911-3.8652-2.7561-1.5928-6.166-3.5986-10.1943-5.9958a20.0122,20.0122,0,0,1-32.6238,2.9143s-10.27-12.1758-20.5369-24.38c-5.1414-6.1113-10.282-12.23-14.1362-16.8347-1.9492-2.3289-3.573-4.2751-4.709-5.6462-2.95-3.5605-6.99-8.4368-6.2817-16.6436a20,20,0,0,1,7.0691-13.6006,20.81,20.81,0,0,1,7.9861-4.0942l-.2485-.31C4.02,91.819-.42,83.1755.0307,74.0861a21.5484,21.5484,0,0,1,3.365-10.6433A20.03,20.03,0,0,1,5.9218,54.48,20.6217,20.6217,0,0,1,8.166,49.1113,21.05,21.05,0,0,1,14.5,40.0219a20.0048,20.0048,0,0,1,23.0337-1.8979,20.6219,20.6219,0,0,1-.0405-3.9329,20.0882,20.0882,0,0,1,7.0913-13.7278c2.4038-2.0168,11.0215-8.0208,22.76-2.3555A19.934,19.934,0,0,1,74.395,4.7138C79.7543.217,88.9389-2.5076,98.642,3.3327c1.1047.665,2.3528,1.5059,3.9272,2.6462,2.2229,1.61,5.2554,3.9355,9.27,7.1089,2.481,1.9609,5.2378,4.1667,8.197,6.5508l.0654-.0549a19.9977,19.9977,0,0,1,28.1743,2.4648l48.45,57.7407a19.9981,19.9981,0,0,1-2.4651,28.1746,20.6841,20.6841,0,0,1-4.6777,2.9146l1.3823,1.6475a19.9983,19.9983,0,0,1-2.43,28.1448,21.109,21.109,0,0,1-13.3813,4.6758,19.9982,19.9982,0,0,1-4.2981,25.6023c-7.1831,6.0271-15.2932,6.1958-23.3494,3.6357q.0033.5793-.0271,1.1624a20.1,20.1,0,0,1-13.4067,17.8679,19.8537,19.8537,0,0,1-4.7319,2.0781,20.5567,20.5567,0,0,1-7.7329,2.6479A20.3112,20.3112,0,0,1,110.7292,201.5824Z"/></g><g id="Layer_2-2" data-name="Layer 2"><path class="cls-2" d="M99.1,62.5439a39.9908,39.9908,0,1,0,39.9908,39.9909A39.9909,39.9909,0,0,0,99.1,62.5439Zm-1.3613,70.4471a30.4561,30.4561,0,1,1,30.4561-30.4561A30.4562,30.4562,0,0,1,97.7388,132.9909Z"/><polygon class="cls-3" points="71.822 49.544 95.264 93.255 93.73 45.692 71.822 49.544"/><path class="cls-3" d="M144.3352,80.7067l-36.1283,20.512,39.7479,3.289a1.6721,1.6721,0,0,0,1.7935-1.9012l-2.9319-20.68A1.6721,1.6721,0,0,0,144.3352,80.7067Z"/><polygon class="cls-3" points="98.005 154.826 118.339 148.38 100.17 112.107 98.005 154.826"/><polygon class="cls-3" points="51.778 129.705 86.409 106.554 43.593 111.278 51.778 129.705"/><path class="cls-4" d="M136.3916,104.344c-.0236,14.05-7.6306,29.7136-21.9917,33.7676a.7506.7506,0,0,0,.3988,1.4464c15.005-4.2357,23.0682-20.49,23.093-35.214a.75.75,0,0,0-1.5,0Z"/><path class="cls-4" d="M94.0874,62.864c16.51-1.7753,31.3669,8.6726,38.2194,23.29.4094.8734,1.703.1127,1.2952-.7571-7.0509-15.04-22.54-25.8577-39.5146-24.0325-.95.1021-.96,1.6032,0,1.5Z"/><path class="cls-4" d="M60.86,108.5258A40.2377,40.2377,0,0,1,80.3891,67.3823a.7506.7506,0,0,0-.7571-1.2952c-15.0989,8.5994-22.8341,25.7971-20.2187,42.8375.146.9511,1.5916.5471,1.4464-.3988Z"/><path class="cls-4" d="M98.4214,141.4147c-14.4336,1.831-26.2256-6.5458-32.8682-18.9-.4573-.8505-1.7528-.0939-1.2952.7571,6.87,12.7768,19.23,21.5373,34.1634,19.6429.9447-.12.9567-1.6214,0-1.5Z"/><path class="cls-4" d="M127.4423,103.7921c.0039,11.4934-7.1234,21.596-17.3624,26.48-.8709.4154-.1107,1.7091.7571,1.2952,10.7026-5.1048,18.1094-15.7895,18.1053-27.7748a.75.75,0,0,0-1.5,0Z"/><path class="cls-4" d="M94.8584,71.2285c13.5576-1.878,24.4775,7.5183,29.681,19.3219.3886.8814,1.6814.1189,1.2952-.7571C120.3181,77.28,108.6834,67.8118,94.46,69.7821c-.952.1319-.5468,1.5774.3988,1.4464Z"/><path class="cls-4" d="M68.6549,107.813c-2.4924-13.3791,3.2289-27.0374,15.4073-33.5367.852-.4547.0951-1.75-.7571-1.2952-12.7994,6.8306-18.71,21.2036-16.0967,35.2307.1766.9478,1.6225.5464,1.4464-.3988Z"/><path class="cls-4" d="M98.8776,132.7007c-10.9636.9973-21.1208-5.3243-26.54-14.6555a.7506.7506,0,0,0-1.2952.7571c5.6629,9.7514,16.3673,16.4415,27.8348,15.3984.9535-.0867.9626-1.5876,0-1.5Z"/><path class="cls-4" d="M98.5061,154.8258c.88-14.2336,1.5905-28.4787,2.3567-42.7189l-1.2911.35q6.0614,10.9725,11.81,22.1189c1.3,2.5343,2.5817,5.0785,3.8163,7.6453.5344,1.111,1.0657,2.2244,1.5693,3.35.5239,1.1706,1.3328,2.4541.1376,3.7662a7.7093,7.7093,0,0,1-2.9693,1.5452,44.8413,44.8413,0,0,1-10.7149,2.0038,19.8732,19.8732,0,0,0-5.3446,1.474c-.5835.2042-.3324,1.1385.257.9323,2.55-.8925,5.3591-.7941,8.0129-1.1512,3.3974-.4571,7.0481-.9993,10.1288-2.5964,2.6126-1.3544,3.3641-3.1523,2.1894-5.8677-1.1618-2.6858-2.4875-5.3083-3.8014-7.9218-4.4126-8.7771-9.0915-17.4286-13.8952-25.9975a.6985.6985,0,0,0-1.2911.35c-.677,14.2382-1.41,28.4757-1.973,42.7189C97.4786,155.4731,98.4666,155.4655,98.5061,154.8258Z"/><path class="cls-4" d="M95.6792,93.012c-2.93-4.983-5.916-9.9351-8.7234-14.9891-2.5283-4.5516-4.9179-9.1816-7.3854-13.7664l-4.0012-7.4348c-.6906-1.2833-1.56-2.5866-2.1183-3.9361-.4646-1.1223-1.9879-2.4054.18-3.74.7007-.4314,2.2355-.3377,3.0307-.3917,2.3139-.1571,4.6417-.0364,6.9436-.3725,2.5467-.3718,4.54-1.7189,6.9811-2.3381,3.995-1.0136,3.6067,3.1977,3.3925,5.61-.1485,1.6727-.2417,3.35-.3075,5.0274-.2932,7.4725-.1147,14.967.15,22.4377.1668,4.7137.3754,9.4281.67,14.1357.0619.9888,1.6093.9958,1.5469,0-.8272-13.2039-1.5443-26.6373-.6435-39.8492.2023-2.9668,1.3783-8.1426-2.7084-9.029-1.9542-.4239-3.8778.7261-5.6065,1.45-3.2288,1.3527-6.5619,1.2213-9.9884,1.3981-1.6391.0846-4.113.0438-5.3978,1.2689-1.6037,1.5291-.3469,3.5961.4757,5.1413,3.1888,5.99,6.4639,11.9367,9.72,17.89C85.97,78.99,90.2546,86.3346,94.8495,93.497A.4808.4808,0,0,0,95.6792,93.012Z"/><path class="cls-4" d="M108.4361,101.6108c8.12-4.6822,16.13-9.5558,24.2524-14.2354q3.7583-2.1652,7.5425-4.2858c1.75-.9776,4.7219-2.5973,6.0956-.399,1.182,1.8915,1.3482,4.5239,1.7232,6.6627q.6868,3.9167,1.1394,7.8694a8.8611,8.8611,0,0,1,.2314,2.8015c-.6993,2.7233-2.8591,2.7051-5.1215,2.9171a85.8135,85.8135,0,0,1-14.0443.16c-7.4147-.5233-14.6079-2.2554-22.0479-2.6146-.9423-.0455-.94,1.4195,0,1.4648,7.896.3812,15.56,2.361,23.4514,2.7579,5.0992.2564,10.8814.4823,15.8892-.6887,4.4878-1.0494,3.2614-5.67,2.8-9.1761q-.4815-3.66-1.1578-7.2908c-.379-2.0315-.6419-4.4182-1.9649-6.1074-2.1641-2.763-5.033-1.0962-7.497.2823-6.397,3.5788-12.6568,7.4032-18.9219,11.2062-4.29,2.604-8.6091,5.1742-12.8285,7.892A.4544.4544,0,0,0,108.4361,101.6108Z"/><path class="cls-4" d="M86.4086,106.1088c-5.3935.5057-10.8.8775-16.2027,1.2679-4.4173.3191-8.84.5984-13.2655.77-1.9552.0757-3.9118.13-5.8686.1366-2.0014.0064-4.2167-.26-6.0951.591-4.3355,1.9631-1.299,7.5491-.0129,10.5854a56.8518,56.8518,0,0,0,3.6313,7.1434c.7717,1.2824,1.7989,4.021,3.6724,3.871,1.2533-.1,2.74-1.4232,3.7948-2.0711,1.7823-1.0947,3.542-2.2262,5.2911-3.3731,3.52-2.3082,6.9971-4.6831,10.4532-7.0862q7.5645-5.26,15.0085-10.6937c.828-.6066.025-2.0054-.8133-1.3913-9.2183,6.7532-18.5482,13.4123-28.1777,19.5682-1.2785.8173-2.5646,1.6235-3.8665,2.4031-.862.5162-1.2561,1.0039-2.1043.5785-1.1631-.5833-2.16-3.01-2.7836-4.1209a54.803,54.803,0,0,1-3.453-7.38,14.457,14.457,0,0,1-1.2264-3.6336c-.0766-1.4429.1619-2.5925,1.5752-3.1382a7.5428,7.5428,0,0,1,2.3908-.3508c7.4064-.3066,14.77-.4919,22.1668-1.1217,5.3046-.4517,10.5989-1.0363,15.8854-1.6642C86.9666,106.9331,86.9849,106.0548,86.4086,106.1088Z"/><path class="cls-4" d="M51.6161,159.4589a14.667,14.667,0,0,1,4.1093-5.1991c.6234-.5009-.2647-1.392-.8825-.8825a15.4372,15.4372,0,0,0-4.2285,5.496c-.3083.6715.68,1.2631,1.0018.5856Z"/><path class="cls-4" d="M118.2834,162.07l2.018,10.15c.149.75,1.2981.4329,1.147-.3162l-2.0463-10.1423c-.1476-.7318-1.2638-.4215-1.1187.3084Z"/><path class="cls-4" d="M129.9115,150.1789l8.1112,10.153c.508.6359,1.4-.2647.8949-.8949l-8.1236-10.1406c-.5024-.6271-1.379.2611-.8825.8825Z"/><path class="cls-4" d="M157.4114,120.5526a39.7279,39.7279,0,0,1,14.566,3.3455c.7186.3159,1.3451-.7458.621-1.0625a41.4048,41.4048,0,0,0-15.187-3.4842c-.7733-.0287-.7716,1.1711,0,1.2012Z"/><path class="cls-4" d="M142.8432,64.79l8.2088-6.6556c.6408-.52-.272-1.4266-.9074-.9074l-8.18,6.6846c-.62.5068.2632,1.3771.8784.8784Z"/><path class="cls-4" d="M133.1314,60.9246l4.2994-6.4191c.4707-.7028-.669-1.366-1.1333-.6624l-4.2539,6.4457c-.4485.68.6389,1.3061,1.0878.6358Z"/><path class="cls-4" d="M102.6794,17.8294,99.95,38.7994c-.1057.812,1.1742.8062,1.2773,0l2.6824-20.97c.1-.784-1.13-.7748-1.23,0Z"/><path class="cls-4" d="M85.074,29.831l-.6765,2.7058a.6568.6568,0,0,0,1.2656.3489L86.34,30.18a.6568.6568,0,0,0-1.2656-.3489Z"/><path class="cls-4" d="M21.4118,89.07A109.3042,109.3042,0,0,0,40.81,94.1851c.4249.0733.9412-.3824.6295-.8188a26.63,26.63,0,0,0-6.6616-6.4949l-.3092,1.1418a20.33,20.33,0,0,1,8.3289,2.6984.6186.6186,0,0,0,.624-1.0675,21.4825,21.4825,0,0,0-8.9529-2.8563c-.6543-.0606-.7649.8328-.3092,1.1418a26.994,26.994,0,0,1,6.3174,5.9995l.6295-.8188A95.8453,95.8453,0,0,1,21.6673,88.143c-.5823-.2128-.831.7139-.2555.9266Z"/><path class="cls-4" d="M32.5536,58.1306l13.532,13.5259a.4807.4807,0,0,0,.6795-.6795L33.1543,57.53a.425.425,0,0,0-.6008.6008Z"/><path class="cls-4" d="M82.411,150.2476l-2.0221,6.0911c-.2237.6739.8418.9649,1.0622.2928l2-6.0973c.2168-.6612-.8218-.9427-1.04-.2866Z"/></g></g></svg>