<svg xmlns="http://www.w3.org/2000/svg" viewBox="0 0 240 259"><defs><style>.cls-1{fill:#f7fafc;}.cls-2{fill:#ffefaf;}.cls-3{fill:#e93a1d;}.cls-4{fill:#303030;}</style></defs><title>DN_Service-Ya1-img-9</title><g id="back"><path class="cls-1" d="M134.4885,257.3019a21.7555,21.7555,0,0,1-10.66-2.9048c-.9851-.5483-2.1111-1.2407-3.543-2.1792-2.1169-1.3872-4.9714-3.3569-8.7268-6.0225-5.3743-3.8145-12.6843-9.1226-21.7732-15.8105a20.0154,20.0154,0,0,1-30.6545.0908s-13.2422-15.7-26.4812-31.4375c-6.6274-7.8774-13.2539-15.7646-18.2219-21.7-2.5061-2.9941-4.594-5.4966-6.0547-7.2593-3.5159-4.2441-7.5007-9.0542-6.7905-17.2739a20.0005,20.0005,0,0,1,7.06-13.59,20.3409,20.3409,0,0,1,7.9658-4.0752c-9.8037-14.083-10.7905-20.1963-10.5-26.0581a21.8835,21.8835,0,0,1,3.43-10.8325q.0187-.4966.062-.9951a19.9944,19.9944,0,0,1,1.9246-6.9751,20.6883,20.6883,0,0,1,1.7009-5.1108A21.3493,21.3493,0,0,1,20.18,74.2165a19.9805,19.9805,0,0,1,16.5991-4.3257c-2.7231-4.27-4.1191-8.2329-3.6892-13.5039a20.1213,20.1213,0,0,1,7.0974-13.74,20.36,20.36,0,0,1,19.6665-3.6294A19.9964,19.9964,0,0,1,66.9946,23.319a20.342,20.342,0,0,1,21.3572-2.9023,20.094,20.094,0,0,1,24.8521-10.2622c2.5215-2.0166,12.7161-8.897,25.158-.1323.7317.5156,1.7922,1.2822,3.1333,2.2656q.8375.6145,1.8311,1.3481a20.4381,20.4381,0,0,1,2.5081-2.5063,20.0073,20.0073,0,0,1,32.168,10.1133c4.3525,5.4663,15.3967,16.8813,23.0317,24.7725,25.3267,26.1763,32.97,34.0762,32.354,45.9409a20.7405,20.7405,0,0,1-7.3359,14.7744q-.5142.4314-1.05.8237c11.2117,14.5015,14.2969,21.3457,13.8379,29.1987a21.1013,21.1013,0,0,1-5.4714,12.9863,19.9983,19.9983,0,0,1-4.5615,25.1509,20.9146,20.9146,0,0,1-5.7078,3.3564l.7029.8379a19.9982,19.9982,0,0,1-2.4539,28.165,20.3012,20.3012,0,0,1-13.86,4.627,19.9986,19.9986,0,0,1-5.16,24.0034c-7.1223,5.9761-16.05,6.8491-26.604,2.6226A20.1293,20.1293,0,0,1,155.7441,256.01a20.1593,20.1593,0,0,1-5.6995.51,20.2613,20.2613,0,0,1-9.645-.1177A19.9181,19.9181,0,0,1,134.4885,257.3019Z"/></g><g id="Layer_2" data-name="Layer 2"><path class="cls-2" d="M45.4188,205.3529a15.6674,15.6674,0,0,1-5.1024.7352c1.74,1.563,6.5854,1.5722,6.9973,4.0621-3.4136.5494-6.7583,3.0775-10.1848,3.9558-.1243,1.9079-.5572,3.1174-.3664,5.0927.288,2.9822.0169,2.1091,2.2684,3.1838,4.4884,2.1425,16.2,2.032,18.3453,8.0109a6.866,6.866,0,0,1,1.1308-.0117c2.52.1737,7.2048-5.22,9.1581-6.6291,3.7229-2.6853,8.0671-4.5391,11.9233-7.0383.7639-.4951,11.9137-9.1013,9.7646-9.9926a1.6566,1.6566,0,0,1-1.1467-1.5447c.63-.1555,1.4349-1.0465,2.0608-1.205-.42-1.4282-1.8621-1.9533-3.31-2.1223,1.5111.1764,2.4415-3.2985,1.662-4.2084-.9142-1.0672-3.47-1.1219-4.64-1.5552,1.9227-2.9464,5.6957-6.1173,8.1357-8.9914,2.0811-2.4514,5.0187-3.9073,6.9007-6.3688-4.8574-.6167,4.9072-6.1525,6.4134-8.026a185.791,185.791,0,0,1-24.687-5.8427c-5.3508,3.2665-12.3188,7.7111-16.0023,12.761a17.3865,17.3865,0,0,1,3.1351,2.0857c-4.167,5.2294-11.2331,8.1818-15.254,13.6459,2.4943,1.8784,4.0462,4.1416,7.5176,3.9873a.9706.9706,0,0,0,.24.5958c-2.976,1.8659-6.3929,2.43-9.6847,3.5629-3.4167,1.1759-7.8771,1.558-10.9149,3.4829,2.5108,2.58,6.6569,3.0893,9.822,4.1821"/><path class="cls-2" d="M108.03,94.6233c.7157-.0518-4.5376-24.812-5.0956-26.5978,4.073-.8028,9.5545,1.2394,13.7357,1.4493,1.3084.0657,15.4058,1.1358,15.4047,1.1387-1.4306,3.8917,1.3441,10.716,1.9364,14.746.6463,4.3968,2.1582,8.9891,2.2216,13.3888-5.8317.6091-11.0457-1.7353-16.6421-1.8777a22.0682,22.0682,0,0,1-6.1032-.8917C112.1631,95.571,109.8065,94.4947,108.03,94.6233Z"/><path class="cls-3" d="M75.1858,128.8327c1.34,4.8832-.6553,10.8231-.02,16.07.6384,5.2758,5.185,5.7019,10.24,6.6089a128.2512,128.2512,0,0,1,24.0083,6.8171c.3374-6.1288-.2486-12.3526.06-18.5.2821-5.6291-.0172-5.6348-5.8062-6.2761a150.3524,150.3524,0,0,1-17.6314-3.2608C83.992,129.8258,76.5222,129.6253,75.1858,128.8327Z"/><path class="cls-3" d="M97.3122,95.5517c-1.9488,4.5269-12.9627,8.4578-14.2554,14.2053,9.71,4.8,21.919,5.3325,31.0035,10.779,4.3939-7.2123,15.893-10.283,20.01-17.2232-7.88-.2938-15.31-2.9034-22.9749-4.281C107.5925,98.4022,101.3727,95.4116,97.3122,95.5517Z"/><path class="cls-3" d="M164.9728,24.5159c-.45-.5182-10.5027-2.392-12.8586-.95-2.2166,1.3568-2.5029,16.7251-1.8159,17.4464.8028.8419,2.4278,1.46,2.4,2.9107-.0191,1.0083-5.6064,12.8129-4.8441,13.2428.6677.3765,3.8068.2258,3.8068.2258s2.1821-4.5422,2.69-5.8381c.5889-1.5018,3.2754-10.8857,5.3843-7.2424.8291,1.432,1.147,9.9309,1.1665,11.6976.0215,1.9807.0752,3.1658,3.8828,2.8351C164.7853,53.5893,165.3891,24.9955,164.9728,24.5159Zm-5.2838,5.9615c.1512,2.3329-.6271,4.8862-.2572,7.174.35,2.156-2.6656,3.8647-3.7981,1.6006-1.4474-2.8946-1.9986-7.6812-.6289-10.7015C156.4214,25.4267,159.5079,27.7014,159.689,30.4774Z"/><path class="cls-4" d="M144.8443,216.0313c-.4748-18.5212-.38-37.0759-.5346-55.6029q-.0981-11.7912-.188-23.5825a30.35,30.35,0,0,1-.0334-4.5338c-.0113.0755-.2085.4346.1316-.0811s.676-1.0315,1.014-1.5472l24.55-37.461L181.75,74.9641c1.2965-1.9784,3.4743-4.0609,3.2871-6.5144-.5551-7.2754-.7619-14.593-.6152-21.8875.1874-9.3176.5237-19.5489,4.1665-28.27a17.284,17.284,0,0,1,2.7474-4.6571l-1.32-.5467q1.9532,45.2166,3.896,90.4337l1.92,44.72.9384,21.8631c.1364,3.1772,1.2665,8.0573-.4679,10.9645-1.8286,3.0652-6.6974,5.1461-9.6239,7.0177q-21.33,13.6423-42.6666,27.2755c-.8358.5352-.0609,1.8747.7807,1.3357q19.6511-12.5851,39.2822-25.2013c3.0628-1.9681,6.1464-3.9061,9.1942-5.8973,2.2348-1.46,4.4231-3.0323,5.0727-5.7707.7257-3.0591.097-6.6189-.0367-9.7241l-.5132-11.9253q-1.9886-46.2106-3.9771-92.4212-1.13-26.3349-2.2523-52.67c-.0265-.62-.8576-1.0839-1.32-.5467-5.3345,6.2-6.1937,15.9317-6.86,23.7231a198.7046,198.7046,0,0,0-.2249,27.2412,49.0083,49.0083,0,0,1,.3915,5.9583c.0067-.09.231-.4195-.1436.112-.3639.5164-.6944,1.06-1.04,1.5885q-5.157,7.8789-10.3118,15.7593L145.56,127.4134c-1.2895,1.9707-2.9994,3.6586-2.98,6.0506q.0769,9.6522.1746,19.3042c.2089,19.5415.3533,39.0916,1.0549,58.6225.0556,1.5466.0945,3.0939.15,4.6406a.4427.4427,0,0,0,.8848,0Z"/><path class="cls-4" d="M47.9466,186.7c.2648-15.8236.3675-31.65.6538-47.4735q.1754-9.6984.3815-19.3963c.0627-2.9529-.1456-6.0662.2-9.0039.0375-.319-.4464.6386-.0329.2035q.4159-.4376.8341-.873,1.6834-1.7609,3.37-3.5188,5.9227-6.1755,11.8711-12.3262C74.2471,84.986,83.25,75.6131,92.61,66.6213c2.8655-2.753,6.1571-5.3536,7.6841-9.1366,2.0394-5.0524,1.1031-11.2505,1.0019-16.5532q-.3756-19.676-.8106-39.351l-.99.7538c28.6141,5.4473,57.82,6.4629,86.4938,11.5033.97.17,1.3862-1.3145.41-1.486C157.7241,7.3164,128.5172,6.3168,99.911.8266a.7924.7924,0,0,0-.99.7538q.3426,17.2162.6965,34.4321c.1144,5.5856.7175,11.3926.1626,16.96-.5212,5.2286-3.7845,8.3424-7.3692,11.7749C83.2372,73.5322,74.44,82.7241,65.6187,91.86q-6.1177,6.3352-12.2017,12.7028-1.9165,2.0058-3.83,4.0147a9.7744,9.7744,0,0,0-1.57,1.6507c-.8537,1.5791-.2918,4.6916-.3256,6.42q-.1717,8.7645-.3209,17.5295c-.2964,17.4963-.7507,35.0245-.4489,52.5229a.513.513,0,0,0,1.0254,0Z"/><path class="cls-4" d="M102.5411,7.3122c13.7651,1.79,27.5918,3.1075,41.3659,4.8382,14.0071,1.76,27.9752,3.8075,41.9287,5.9477.7706.1182,1.112-1.0527.3271-1.1865-27.6283-4.7087-55.6642-8.4909-83.6217-10.56-.6285-.0465-.5961.8834,0,.9609Z"/><path class="cls-4" d="M107.4858,59.3176c11.9557,2.8174,24.33,4.2407,36.5013,5.7791,12.3938,1.5665,24.8655,3.0544,37.3559,3.5532.74.03.7364-1.1137,0-1.1484-24.6232-1.16-49.3626-4.7277-73.5924-9.1444-.6214-.1133-.8967.8116-.2648.9605Z"/><path class="cls-4" d="M48.3448,111.2718c28.6734,5.9108,57.609,10.0261,85.5343,19.1195.7.2279.9883-.8583.3022-1.0961-27.6922-9.6-56.8821-13.4981-85.5311-19.1308-.7206-.1417-1.0314.9577-.3053,1.1074Z"/><path class="cls-4" d="M90.0605,199.4907c18.0861,5.633,36.0531,11.64,54.142,17.2638.9239.2873,1.3191-1.16.3988-1.4464-18.0889-5.624-36.0559-11.6309-54.142-17.2638-.9238-.2877-1.3189,1.16-.3988,1.4464Z"/><path class="cls-4" d="M47.2344,187.4234q5.298,1.2826,10.5674,2.6776a.7506.7506,0,0,0,.3988-1.4464q-5.27-1.3919-10.5674-2.6776c-.9379-.2271-1.338,1.219-.3988,1.4464Z"/><path class="cls-2" d="M124.2446,35.2431l-.0212-11.2778c-.0005-.2777.026-.6061.264-.7492a.8183.8183,0,0,1,.5489-.0418l10.1677,1.5913L134.0808,37.04a14.3419,14.3419,0,0,1,8.0819,2.8875,42.537,42.537,0,0,0-10.0664,8.7573,84.02,84.02,0,0,1-15.9741-13.2491,17.297,17.297,0,0,1,9.4291,1.0046"/><path class="cls-4" d="M124.7309,35.2431q.0511-3.9943.0734-7.9884a10.6431,10.6431,0,0,1,.0151-2.35c.2542-1.0108-.1909-.85.975-.9834,1.2018-.1375,2.9741.4815,4.155.6674a17.7405,17.7405,0,0,1,3.6969.58c1.3167.543.6832,2.0954.5657,3.3728q-.3908,4.2488-.7816,8.4975a.6607.6607,0,0,0,.65.65,14.6822,14.6822,0,0,1,7.7512,2.8029V39.3615a45.8487,45.8487,0,0,0-10.2175,8.8413l.8257-.1065a87.6634,87.6634,0,0,1-15.819-13.16L116.31,36.116a18.2542,18.2542,0,0,1,9.0577.9909c.8452.305,1.1828-1.0145.3676-1.3334a18.8014,18.8014,0,0,0-9.8-1.0184c-.5535.082-.64.8336-.3114,1.1794A87.0521,87.0521,0,0,0,131.7524,49.273a.6855.6855,0,0,0,.8257-.1065,44.1433,44.1433,0,0,1,9.9154-8.6733.665.665,0,0,0,0-1.1317,15.9123,15.9123,0,0,0-8.4127-2.9721l.65.65q.5585-6.1371,1.1172-12.2742a.6431.6431,0,0,0-.4732-.6216c-2.4654-.3847-4.93-.774-7.3972-1.1481-.9569-.1451-3.1244-.9544-3.9743-.153-.9428.8891-.3585,3.3025-.349,4.4117q.0342,3.9947.1035,7.9884a.4866.4866,0,0,0,.9727,0Z"/><path class="cls-4" d="M95.72,91.9781c8.4478,3.5282,17.734,5.12,26.7353,6.5223,4.3639.68,8.74,1.2805,13.1129,1.8968.9929.14,2.2805.5459,3.277.1568,1.4736-.5753,2.8331-2.2774,3.99-3.315a.6147.6147,0,0,0-.2689-1.0184c-1.8686-.5657-3.7215-1.19-5.6047-1.7049a.563.563,0,0,0-.2991,1.0848c1.8421.6505,3.7209,1.1944,5.58,1.7952l-.2689-1.0184c-1.6266,1.3549-2.9755,3.208-5.2215,2.9131-1.721-.226-3.4383-.4841-5.1571-.7269-4.0182-.5675-8.0361-1.1412-12.0388-1.81A199.4125,199.4125,0,0,1,95.946,91.1589c-.54-.1593-.7141.6153-.2259.8193Z"/><path class="cls-4" d="M135.3693,96.5588a137.7371,137.7371,0,0,0-1.2293-15.45q-.4639-3.4548-1.0917-6.884c-.2747-1.5081-.2892-3.1754-1.78-3.9615-1.528-.8055-3.8892-.8623-5.5795-1.0973a68.785,68.785,0,0,0-7.3711-.6313c-5.0028-.153-10.2251.5717-14.9026-1.6259a.75.75,0,0,0-1.0863.8351c1.8326,8.2482,3.58,16.521,5.5164,24.7455.2195.9321,1.6252.5353,1.4295-.3941-1.7415-8.2679-3.6743-16.4993-5.52-24.7446l-1.0863.8351c3.3036,1.5459,6.744,1.8047,10.3491,1.8023a87.6815,87.6815,0,0,1,13.8518.802,11.46,11.46,0,0,1,3.1875.5758c1.5461.8289,1.4853,2.2445,1.7561,3.7009q.62,3.3365,1.1083,6.6962c.7164,4.9059,1.1873,9.8524,1.5518,14.796.0419.5684.9088.5834.8965,0Z"/><path class="cls-4" d="M115.1781,94.4763c-1.5133-4.1365,1.3975-9.13,6.1575-8.2825,5.4255.9656,4.6307,6.654,3.941,10.6815-.1187.693.8786,1,1.0735.296,1.3516-4.881.9378-11.6187-5.4085-12.18-5.2616-.4657-8.55,5.0788-6.594,9.7143.2091.4955,1.0249.3023.8306-.229Z"/><path class="cls-4" d="M128.6413,86.6081A99.7948,99.7948,0,0,0,129.79,98.17c.11.6923,1.2689.5329,1.2258-.1659a99.7606,99.7606,0,0,0-1.4018-11.5278c-.1-.55-.9947-.4219-.9725.1316Z"/><path class="cls-4" d="M148.1692,56.3263a103.8736,103.8736,0,0,0,6.1825-13.3394c.21-.5065-.3743-.8645-.795-.795-4.0876.6754-2.9824-6.0439-2.8586-8.3073.1366-2.4988-.0586-5.3052.537-7.7452.816-3.3432,5.3686-2.6514,7.981-2.3515a14.7758,14.7758,0,0,1,4.17.7965c1.7632.844,1.2018,2.1908,1.1752,3.8213q-.2537,15.5442-.5039,31.0885l.8578-.6534-4.3537-.8855.5109.671c-.0279-4.0225.2157-8.1649-.1083-12.1731-.1284-1.588-.7991-3.7021-2.8-3.6281-2.34.0866-3.09,3.9312-3.78,5.5825q-1.0766,2.5776-2.1471,5.1577c-.2364.5726-.5535,2.1658-1.05,2.5855-.8467.7161-2.2938.3707-3.3339.3589a.6566.6566,0,0,0,0,1.3125l3.617.0014a.6256.6256,0,0,0,.55-.3152c.9236-2.0308,1.777-4.0924,2.6372-6.1506q.5387-1.2888,1.0762-2.5781c.3438-.8237.97-3.3873,1.6411-3.8742,2.4848-1.8021,2.2042,2.3459,2.2135,3.167.0108.9594.0164,1.9189.0247,2.8783q.0329,3.8378.0671,7.6756a.705.705,0,0,0,.5109.671l4.3634.85a.6878.6878,0,0,0,.8578-.6534q.2061-12.144.4175-24.2879l.0993-5.8291c.0233-1.3661.4545-3.3288.0122-4.6134-.7023-2.04-4.5337-2.0887-6.2859-2.3084-2.4108-.3023-6.2354-.9193-8.3157.77-1.907,1.5481-1.6967,4.5444-1.8162,6.7306-.19,3.4822-2.4085,14.7321,4.3761,13.4829l-.795-.795c-1.8319,4.4834-4.0509,8.8074-5.8517,13.297-.2157.5378.6341.86.9157.386Z"/><path class="cls-4" d="M158.8,39.17c-4.2639,1.959-4.205-4.2921-3.897-6.6807.1706-1.3231.091-2.95,1.1373-3.82,1.0787-.897,2.8481-.5035,4.2274-.478l-.7-.7a57.7548,57.7548,0,0,0-.1985,13.0472c.1044.8229,1.3251.8826,1.33,0,.0248-4.3761-.1248-8.6737.2692-13.0472a.7071.7071,0,0,0-.7-.7c-1.6939-.0053-5.1689-.8926-5.9667,1.06a22.2215,22.2215,0,0,0-.9926,7.6518c.0712,2.87,3.0041,7.2029,6.0561,4.399.415-.3812-.112-.94-.5645-.7316Z"/><path class="cls-4" d="M110.0725,76.3919,108.747,74.53l-.6543.8511c1.4122.2459,2.81.5462,4.2063.8689.733.1694,1.046-.9493.3115-1.13-1.3908-.3422-2.7979-.6168-4.21-.8562-.44-.0746-.98.3972-.6543.8511l1.3344,1.8568c.4269.5941,1.4221.025.9916-.58Z"/><path class="cls-4" d="M126.1312,77.5276c-.4387-.5931-.8285-1.2033-1.2948-1.7784l-.5175.889c1.5219.2563,3.05.5674,4.5841.7358.5966.0655.7257-.9227.1417-1.0474-1.4626-.3122-2.9649-.4871-4.443-.7143a.537.537,0,0,0-.5175.889c.4463.5345.9442,1.0041,1.4121,1.5161.3037.3322.9113-.1164.635-.49Z"/><path class="cls-4" d="M128.367,75.6621a6.0139,6.0139,0,0,0,.6785,3.4885.4886.4886,0,0,0,.8889-.3747,9.4828,9.4828,0,0,1-.63-3.1138c.007-.61-.8929-.5951-.9375,0Z"/><path class="cls-4" d="M112.1172,74.642a4.0624,4.0624,0,0,0,.5822,2.6057.5065.5065,0,0,0,.921-.3883c-.0732-.3936-.2477-.7724-.3491-1.1621s-.2023-.7807-.2851-1.1729c-.1086-.5141-.834-.3545-.869.1176Z"/><path class="cls-4" d="M80.7151,166.8451a103.7623,103.7623,0,0,0-16.653,12.9217.5715.5715,0,0,0,.2492.9438q13.0419,5.0343,26.3552,9.31a.5985.5985,0,0,0,.72-.409c2.6064-6.955,8.6851-12.3415,14.826-16.2079.6748-.4249.0522-1.5-.627-1.0726-6.4257,4.0457-12.6131,9.7048-15.3283,16.9692l.72-.409q-13.3118-4.2673-26.3663-9.27l.2492.9438a145.1522,145.1522,0,0,1,16.2833-12.9867c.4442-.3064.0467-1.0188-.4288-.7336Z"/><path class="cls-4" d="M67.3142,181.9074a62.3552,62.3552,0,0,0-10.07,8.2723c-1.4648,1.3832-3.9419,3.1239-4.869,4.9236a1.5628,1.5628,0,0,0-.1977,1.516c.45,1.0882,2.2514,1.5109,3.1916,1.9178l7.187,3.11q6.74,2.9167,13.4923,5.8029a.5713.5713,0,0,0,.7571-.1985,115.035,115.035,0,0,1,22.3875-25.7933.5606.5606,0,0,0-.1129-.8763l-1.814-.8278c-.6508-.297-1.22.6687-.5649.9663l1.8156.825-.1129-.8763A116.7416,116.7416,0,0,0,75.85,206.6931l.7571-.1985c-7.1969-3.0934-14.4323-6.1068-21.6054-9.2543-.82-.36-1.8867-.4666-1.5886-1.7519.1393-.6006,1.5242-1.5835,1.9275-1.99q1.9521-1.9655,4.0007-3.832c2.7274-2.4845,5.7391-4.6516,8.4456-7.1475a.3913.3913,0,0,0-.4722-.612Z"/><path class="cls-4" d="M60.3747,200.0068c-6.59,2.87-13.4407,5.7765-20.68,6.3764-.51.0423-.8863.84-.2963,1.0939,6.1172,2.629,12.2372,5.7869,18.5936,7.7937,5.8431,1.8448,11.2951.7252,16.5967-2.1359A46.2,46.2,0,0,0,88.0734,202.08c.7646-.9179,3.0648-3.0035,2.6637-4.3517-.2016-.6775-.8107-.8375-1.3765-1.0431a41.5556,41.5556,0,0,0-4.9346-1.1934c-.76-.1716-1.0843.9922-.3224,1.17,1.0875.2532,2.1677.532,3.2517.7993.3328.0821,1.4673.162,1.6818.3981.5922.6519.0431.9671-.3822,1.5346a45.7868,45.7868,0,0,1-4.8172,5.4651,42.2718,42.2718,0,0,1-12.4392,8.489c-5.3493,2.3057-10.3291,1.9336-15.6855-.1849-5.2922-2.0932-10.4892-4.461-15.7217-6.6991l-.2963,1.0939c7.3908-.6254,14.5661-3.45,21.141-6.7612.5346-.2692.0656-1.0187-.4613-.7893Z"/><path class="cls-4" d="M46.1221,210.7142c-3.2281,1.2765-6.5637,2.2786-9.7429,3.6779-.4949.2178-.26.8755.1346,1.03l14.8844,5.8255c2.095.82,4.4365,2.18,6.6852,2.4623,1.9182.2411,3.4332-.9,4.9853-1.8674q13.8846-8.65,27.7162-17.3845a.6564.6564,0,0,0-.1545-1.1821c-1.0413-.4374-2.0759-.8859-3.136-1.276-.6426-.2365-1.0941.8182-.47,1.1138,1.0713.5071,2.1688.9511,3.2617,1.41l-.1545-1.1821q-12.6088,7.9286-25.21,15.87c-2.2234,1.4024-4.6909,3.7649-7.4765,3.1343a49.9466,49.9466,0,0,1-6.6419-2.5681l-13.9907-5.4419.1346,1.03c3.1312-1.3861,6.4624-2.272,9.542-3.7783.479-.2343.1384-1.0731-.368-.8728Z"/><path class="cls-4" d="M88.84,206.5016c1.3816,2.4277-4.8185,5.748-6.4674,6.9567l-7.0439,5.1633a112.533,112.533,0,0,1-13.3924,9.02c-1.6794.8931-3.2469,1.8592-5.2112,1.1218a21.6771,21.6771,0,0,1-2.9618-1.9973,34.25,34.25,0,0,0-12.9247-4.5936c-1.3009-.1836-2.7888-.2763-3.5417-1.6135-.4652-.8262-.096-3.2939-.1357-4.2988a.6449.6449,0,0,0-1.2891,0c.0393,1.7485-.6237,5.2154,1.0681,6.4224a6.2335,6.2335,0,0,0,2.9095.629,34.1816,34.1816,0,0,1,5.5112,1.0917,34.7362,34.7362,0,0,1,9.5864,4.434c2.2594,1.4949,3.3573,1.6441,5.84.4538,6.7075-3.2158,12.5687-8.0772,18.5135-12.4809,2.8665-2.1234,5.8493-4.1489,8.6319-6.38,1.339-1.0737,2.78-2.67,1.6257-4.3481a.4163.4163,0,0,0-.7184.42Z"/><path class="cls-4" d="M58.7338,228.4056c6.1919-3.87,12.2081-8.05,18.2541-12.1431.499-.3378.0338-1.151-.4761-.8146-6.0958,4.0218-12.2606,7.983-18.2068,12.2241-.4372.3118-.0428,1.0284.4288.7336Z"/><path class="cls-4" d="M58.6749,226.1163a71.9027,71.9027,0,0,1,16.2536-9.8831c.577-.2544.0772-1.09-.4939-.8449a65.3154,65.3154,0,0,0-16.3605,10.1272c-.4214.3551.1815.94.6008.6008Z"/><path class="cls-4" d="M56.9369,225.0124A78.4139,78.4139,0,0,0,40.2792,219.34a.5043.5043,0,0,0-.2679.9718c5.6031,1.6764,11.0543,3.6522,16.61,5.45.4367.1414.736-.5425.316-.75Z"/><path class="cls-4" d="M57.8068,227.37a18.088,18.088,0,0,0-3.2569-1.8721c-.5548-.2344-1.0506.5284-.488.8348,1.1009.5995,2.2221,1.1565,3.3042,1.7911.4917.2883.8958-.4369.4406-.7539Z"/><path class="cls-4" d="M71.8926,178.6334c-.4055-.4988-.8135-.9956-1.2146-1.4979l-.5571.722c1.1919.552,2.3573,1.1191,3.5222,1.7261a.4984.4984,0,0,0,.5027-.86,20.3464,20.3464,0,0,0-3.6707-1.7062c-.4711-.1634-.7172.4484-.4473.7683.414.4908.8212.9873,1.2308,1.4816.37.446.994-.191.6339-.6339Z"/><path class="cls-4" d="M74.2886,180.6913a3.551,3.551,0,0,1,1.24-2.0626c.3131-.3107-.003-.9565-.4561-.7835a2.8215,2.8215,0,0,0-1.6588,2.7277c.0054.4812.8021.6313.8747.1184Z"/><path class="cls-4" d="M87.17,183.8387a17.7639,17.7639,0,0,0-1.656-1.4549l-.3166.7511a19.4175,19.4175,0,0,1,3.7748,1.753c.5085.3032.953-.4711.4613-.7893a13.8442,13.8442,0,0,0-4.0176-1.7562.4142.4142,0,0,0-.4.6868,16.8054,16.8054,0,0,0,1.5284,1.4352c.43.36,1.0371-.2183.6256-.6256Z"/><path class="cls-4" d="M89.475,185.3542l.0766.0971q.048-.0961.1039-.1877a2.1834,2.1834,0,0,1,.2157-.3026c.1561-.181.3537-.3141.5222-.4818a.4635.4635,0,0,0-.4475-.7688c-.8483.2393-2.1664,2.2019-.703,2.4855a.4369.4369,0,0,0,.2321-.8419Z"/><path class="cls-4" d="M57.7171,194.9851a3.4625,3.4625,0,0,0-.7927-1.4408l-.4806.8256a35.3579,35.3579,0,0,0,3.6461,1.4761.4826.4826,0,0,0,.37-.8782,36.5057,36.5057,0,0,0-3.7537-1.55.4983.4983,0,0,0-.5578.7256,4.9753,4.9753,0,0,1,.6193,1.1039c.2308.5718,1.1157.3678.9492-.2617Z"/><path class="cls-4" d="M60.1448,197.2266a4.6777,4.6777,0,0,1,1.3388-1.7714c.4474-.4075-.1209-1.036-.6142-.796a3.2152,3.2152,0,0,0-1.6569,2.31.4838.4838,0,0,0,.9323.257Z"/><path class="cls-4" d="M74.544,201.69a4.7578,4.7578,0,0,0-1.4289-1.628l-.4009.951a38.1037,38.1037,0,0,0,3.7946,1.4946.4563.4563,0,0,0,.35-.83,19.2115,19.2115,0,0,0-3.8679-1.6681c-.5993-.227-.8284.6274-.4009.951a4.5816,4.5816,0,0,1,1.094,1.2321.4984.4984,0,0,0,.86-.5027Z"/><path class="cls-4" d="M76.2387,203.434a7.65,7.65,0,0,1,.9861-1.5736c.3545-.4713-.4007-1.0146-.8006-.6177A4.2444,4.2444,0,0,0,75.398,203.08c-.1467.4865.6321.8412.8407.3544Z"/><path class="cls-4" d="M50.7542,208.6069a19.894,19.894,0,0,0-2.5522-1.6109,1.5243,1.5243,0,0,0-1.73.45c-.3782.3767.1218,1.0771.5858.7592.3809-.261.4453-.3912,1.0166-.1784a6.0967,6.0967,0,0,1,.7585.4242q.7575.426,1.5136.8543a.4046.4046,0,0,0,.4081-.6982Z"/><path class="cls-4" d="M50.1283,209.5879a12.3681,12.3681,0,0,0,1.2606-.3477.46.46,0,0,0-.2446-.8871,12.3758,12.3758,0,0,0-1.2451.4042.431.431,0,0,0,.229.8306Z"/><path class="cls-4" d="M61.3156,213.12a4.6624,4.6624,0,0,1,2.7608.999c.478.35.9349-.3758.5964-.773a3.8478,3.8478,0,0,0-3.4873-1.187c-.5638.1055-.3977.9365.13.961Z"/><path class="cls-4" d="M64.0233,214.866a2.6772,2.6772,0,0,0,1.6225-.6831c.4363-.3949-.1388-1.16-.6355-.8236a3.6051,3.6051,0,0,1-1.1186.5342c-.524.1388-.4376,1.0241.1316.9725Z"/><path class="cls-4" d="M42.9337,214.7248c-.0326-.391.9737.1589,1.1421.2374.4187.1953.84.3856,1.26.5774.5.2281.9327-.5188.4318-.7387a10.87,10.87,0,0,0-2.622-1.0456c-.6591-.0916-1.2367.391-.9886,1.0746.1413.3894.8165.37.7769-.1051Z"/><path class="cls-4" d="M45.234,216.1016a4.9455,4.9455,0,0,1,.9634-.799.4339.4339,0,0,0-.4377-.7488,4.1857,4.1857,0,0,0-1.1141.9595c-.3351.4056.2183.9873.5883.5883Z"/><path class="cls-4" d="M56.2742,219.9449a1.2393,1.2393,0,0,1,.166-.5828l-.6339.1662a21.4652,21.4652,0,0,0,2.5,1.54.4193.4193,0,0,0,.4229-.7235c-.8508-.4881-1.6543-1.052-2.4553-1.6169a.4658.4658,0,0,0-.6339.1662,1.6405,1.6405,0,0,0-.1485,1.1564c.0911.4545.7677.3283.7826-.1059Z"/><path class="cls-4" d="M58.3014,221.4917a9.6165,9.6165,0,0,0,1.0312-.5956.4193.4193,0,0,0-.4229-.7235,9.63,9.63,0,0,0-1.0371.5855.4251.4251,0,0,0,.4288.7336Z"/><path class="cls-4" d="M64.9978,203.1693c-1.5451-.22-3.5426-.2416-4.3724,1.3671-.9332,1.8093.8508,3.3714,2.2277,4.2474,3.4148,2.1724,9.2873,2.34,10.5823-2.4027.1443-.5284-.6846-.921-.9157-.386a5.0985,5.0985,0,0,1-5.704,3.1756,8.4618,8.4618,0,0,1-3.4241-1.3082q-2.3243-.9872-.7145-3.685a10.669,10.669,0,0,1,2.196-.0874c.5145.0137.6565-.845.1246-.9208Z"/><path class="cls-4" d="M71.6188,212.4879c.2334-.4172,1.7653-.5141,2.2513-.7737.2225-.1189.17-.3844.3641-.5162,1.3869-.9435.6387-.1,1.6086-.59,2.0564-1.04,4.1939-3.29,5.789-4.9357.5024-.5185-.2326-1.1907-.7706-.7706-2.0384,1.5915-3.7916,3.7976-6.23,4.7589-1.2253.483-1.9924,1.447-3.3528,1.7327a.4867.4867,0,0,0-.3413.3413l-.1211.4149a.4414.4414,0,0,0,.8032.3386Z"/><path class="cls-4" d="M84.3776,199.7322a5.704,5.704,0,0,0-.4942-1.3761l-.5723.5723c.7795.3654,1.4787.8942,2.2829,1.2092.4975.1949.7525-.5577.3477-.8246-.6871-.4531-1.4948-.7-2.2083-1.1069a.424.424,0,0,0-.6144.4723,5.294,5.294,0,0,0,.4224,1.2844c.2068.5.9871.3251.8362-.2305Z"/><path class="cls-4" d="M86.0805,201.2593a3.7929,3.7929,0,0,1,.8752-1.046c.4314-.3918-.1242-1.0947-.6177-.8006a2.5381,2.5381,0,0,0-1.1035,1.49.4649.4649,0,0,0,.846.3567Z"/><path class="cls-4" d="M72.1611,183.9339c-1.9407.5805-3.6981,2.3133-3.4947,4.4771.2493,2.6521,3.0982,4.4313,5.43,5.0348,2.31.5978,5.513.62,7.2832-1.2462a5.2357,5.2357,0,0,0,.4156-6.092c-.2826-.509-1.18-.1633-.9639.4063.5936,1.5635,1.0285,3.4842-.2608,4.8766-1.2795,1.3818-3.7712,1.4137-5.482,1.1069a7.647,7.647,0,0,1-3.58-1.587,3.8134,3.8134,0,0,1-1.3232-4.2018c.3034-.82,1.6341-1.4879,2.3436-1.9019a.48.48,0,0,0-.368-.8728Z"/><path class="cls-4" d="M86.1618,169.6856c-1.8851.1985-4.5312,1.0271-4.8334,3.2462-.3175,2.3311,2.0279,3.6422,3.8828,4.2319,2.5731.818,5.6922,1.3259,8.1824-.0127,2.0958-1.1267,3.0759-3.2837,1.8946-5.4454-.341-.6241-1.2775-.0715-.9512.556,2.6806,5.154-5.5753,4.6982-7.6752,4.2016a8.4516,8.4516,0,0,1-2.93-1.0335q-1.9376-3.2874.443-4.24a7.2375,7.2375,0,0,1,2.0972-.6867c.45-.0992.3609-.8668-.1106-.8172Z"/><path class="cls-4" d="M80.6034,196.11c-.1173-.2116,1.2522-.7695,1.4207-.9377a2.7744,2.7744,0,0,0,.3459-.54,3.6664,3.6664,0,0,1,1.1184-1.2932c.4671-.3188.83-.4214,1.1357-.9211.281-.4594.3159-.9.7023-1.3029a6.5032,6.5032,0,0,1,1.2848-.8726c.484-.31.1857-1.155-.4063-.9639a3.9229,3.9229,0,0,0-2.19,1.5211c-.3519.5746-.3457,1.0782-.9543,1.48a5.1819,5.1819,0,0,0-1.0865.674,3.8654,3.8654,0,0,0-.5428,1.04c-.3185.6172-.7526.5732-1.2532.9292a1.1957,1.1957,0,0,0-.4251,1.6842.4926.4926,0,0,0,.85-.4968Z"/><path class="cls-4" d="M93.4073,179.7747c.5464-.4354,1.3838-.095,1.9406-.6045.5706-.5222.3821-1.277,1.2015-1.6449.5627-.2527.9058-.2206,1.335-.7259.7988-.94,1.0281-1.8025,2.4518-2.0205.6651-.1019.4929-1.1623-.1565-1.1567a3.1046,3.1046,0,0,0-2.2435.92,8.43,8.43,0,0,0-.7134,1.055c-.4168.5691-.9014.6019-1.4257.9206-.6188.3761-.6492.6561-.9659,1.2763-.4825.9449-1.3072.7154-2.0163,1.3878-.4005.38.1812.92.5925.5925Z"/><path class="cls-4" d="M74.15,171.0981a4.0885,4.0885,0,0,0-1.4272-.3333l.5038.6614a24.4705,24.4705,0,0,0,.4076-6.2909l-.6821.52q7.9477,1.8535,15.8853,3.75,5.8308,1.3865,11.6575,2.79,2.2957.554,4.59,1.1145a6.208,6.208,0,0,1,1.8459.4592c.7958.656.1992,3.427.1465,4.4392l.8-.6093c-2.4516-.3661-4.7736-1.24-7.2262-1.6-.7644-.1121-1.1009,1.0529-.324,1.1752,2.4475.3852,4.7656,1.2646,7.2142,1.6434a.6441.6441,0,0,0,.8-.6093c.0865-1.6548,1.05-4.6409-.7512-5.5473a18.989,18.989,0,0,0-3.8913-.96c-4.1112-.9847-8.2291-1.9414-12.347-2.8978q-9.0543-2.1029-18.1128-4.1872a.5453.5453,0,0,0-.6821.52,24.2228,24.2228,0,0,1-.3376,6.0131.53.53,0,0,0,.5038.6614q.66.0325,1.3182.094c.49.04.5148-.656.109-.8057Z"/><path class="cls-4" d="M96.8992,91.31c2.5112-2.8321,6.2414-1.3864,9.1848-.1957.5337.2159.9261-.7024.3951-.9371-3.2784-1.4488-7.6083-2.8277-10.3339.3788-.44.5179.2953,1.2715.7541.7541Z"/><path class="cls-4" d="M95.6919,95.5543c-4.2736,4.73-8.7241,9.3038-13.3785,13.66a.5257.5257,0,0,0,.23.8712c10.96,3.0332,22.6858,5.2782,32.9324,10.336a.6121.6121,0,0,0,.7065-.0912l13.1366-10.9715c2.2382-1.8693,5.7086-4.9981,3.6938-8.17-.3728-.5869-1.3075-.0473-.936.5471,1.81,2.8967-2.0721,5.5441-3.9542,7.1151l-6.0069,5.0139a54.0682,54.0682,0,0,1-5.256,4.3872c-1.464.9261-1.7218.68-3.2955-.0065q-1.3326-.5811-2.6925-1.0972c-9.0544-3.4547-18.7114-5.534-28.051-8.0683l.23.8712A180.6484,180.6484,0,0,0,96.26,96.1219c.3327-.3886-.2183-.9543-.5676-.5676Z"/><path class="cls-4" d="M97.7085,95.92a120.1649,120.1649,0,0,0,16.7492,5.279,96.3718,96.3718,0,0,0,16.4676,3.0654.5179.5179,0,0,0,.1371-1.0128c-5.5788-1.1684-11.2161-1.89-16.7674-3.2479-5.5447-1.3564-10.9361-3.139-16.3684-4.8747-.5155-.1647-.6919.5959-.2181.791Z"/><path class="cls-2" d="M107.8781,105.4217a19.02,19.02,0,0,1,6.3652-1.404l-.3505-.8462a42.916,42.916,0,0,0-5.9237,5.8637c-.731.8877-1.0574,1.6116-2.3042,1.5a31.28,31.28,0,0,1-4.7593-1.2626c-.6069-.161-1.0354.7482-.44,1.0434,3.695,1.8318,7.3854,3.6886,11.126,5.4255.64.2973,1.2066-.63.5619-.9613-3.6668-1.8861-7.3978-3.6585-11.1117-5.45l-.44,1.0434,6.0753,1.5418a.5581.5581,0,0,0,.6065-.2468,42.889,42.889,0,0,1,7.31-7.7956.5.5,0,0,0-.3505-.8462,21.464,21.464,0,0,0-6.6654,1.6832c-.4016.17-.1093.88.3.7122Z"/><path class="cls-4" d="M74.78,127.3909c-.1171,5.3421-.1617,10.6838-.17,16.0272-.0026,1.6663-.614,4.57.347,6.0528.747,1.1529,2.5814,1.2876,3.7636,1.5863q15.7641,3.984,31.5308,7.958a.5567.5567,0,0,0,.678-.678c-1.4439-5.1953-.6905-10.4758-.2833-15.7555.1753-2.2736.5628-4.9821.0792-7.2284-.2474-1.1491-.5557-1.434-1.6963-1.7588a65.11,65.11,0,0,0-7.8047-1.1928q-4.1494-.6375-8.2928-1.3138-8.5355-1.3836-17.0358-2.975c-.8513-.1584-1.2165,1.1451-.36,1.3052,9.6084,1.7957,19.2557,3.39,28.9466,4.6725a14.5316,14.5316,0,0,1,3.4261.4336c2.2732.995,1.9039,2.5952,1.8614,4.4685-.0511,2.25-.29,4.4914-.4924,6.7316-.3946,4.3566-.5959,8.6513.5889,12.9062l.678-.678q-13.61-3.4588-27.2217-6.907c-2.1024-.5326-5.517-.72-6.892-2.4146-1.3508-1.6645-.67-5.0282-.67-7.1553,0-4.6958-.0279-9.3895-.1132-14.0845a.4339.4339,0,0,0-.8672,0Z"/><path class="cls-2" d="M83.0432,139.1951c1.4893-.9724,2.9648-1.9656,4.4484-2.9466l-.6835-.3922c-.2006,1.54-.3494,3.0868-.5129,4.6312-.0817.7715-.15,1.5452-.24,2.3156l-.0787.7719q.1708,1.7848-1.8954,1.8347l-.388.9366c1.621.0226,3.2549.1,4.8745.0275a.5277.5277,0,0,0,0-1.0547c-1.618-.1047-3.2533-.06-4.8745-.07a.5559.5559,0,0,0-.388.9366,1.9671,1.9671,0,0,0,3.2913-.6161,11.2337,11.2337,0,0,0,.6209-3.9242c.1777-1.9279.3726-3.857.5-5.789a.4569.4569,0,0,0-.6835-.3922c-1.4662,1.01-2.9406,2.0088-4.4009,3.0277-.4244.2961-.0326.9929.4111.7033Z"/><path class="cls-2" d="M93.6845,137.2384a11.3576,11.3576,0,0,0-1.5579,9.3029c.5416,1.7425,2.3237,4.11,4.4342,3.5,2.3105-.6681,2.39-4.5479,2.2362-6.4487a12.2021,12.2021,0,0,0-3.857-7.9236c-.4253-.4-1.0666.2377-.6422.6422a11.1581,11.1581,0,0,1,3.115,4.923c.415,1.3753.9807,4.4211.135,5.8041q-.0791,1.3318-1.6732.9723-1.5907.9741-2.2308-.667a6.9584,6.9584,0,0,1-.8165-3.2436,12.3332,12.3332,0,0,1,1.5606-6.4509.4075.4075,0,0,0-.7033-.4111Z"/></g></svg>