<svg xmlns="http://www.w3.org/2000/svg" viewBox="0 0 263 207"><defs><style>.cls-1{fill:#f7fafc;}.cls-2{fill:#ffefaf;}.cls-3{fill:#303030;}.cls-4{fill:#e93a1d;}</style></defs><title>DN_Service-Ya1-img-2</title><g id="back"><path class="cls-1" d="M132.9308,204.8486q-.91,0-1.8284-.0806c-.8357-.0742-1.636-.1807-2.4148-.3291a20.1023,20.1023,0,0,1-5.81-.5073,20.4292,20.4292,0,0,1-10.3274-1.6309,20.62,20.62,0,0,1-12.5928-1.5576c-.8525-.3765-1.8066-.8447-3.0024-1.4736-1.6714-.8794-3.908-2.1226-6.8374-3.8008q-3.6028-2.0632-8.6826-5.0527a20.01,20.01,0,0,1-32.9272,3.4609S38.0929,181.5283,27.68,169.15c-5.2144-6.1982-10.428-12.4033-14.3369-17.0737-1.9766-2.3618-3.623-4.335-4.7749-5.7256C5.6095,142.78,1.558,137.89,2.26,129.6894a20,20,0,0,1,7.0862-13.627,20.7127,20.7127,0,0,1,8.9028-4.2935C7.671,97.3989,6.7323,91.6381,7.0245,85.7436a21.5418,21.5418,0,0,1,5.0044-12.7856,20.0061,20.0061,0,0,1,3.9741-8.1367,20.4933,20.4933,0,0,1,2.8645-4.47,21.0783,21.0783,0,0,1,4.8574-5.8486,20.0031,20.0031,0,0,1,19.7976-3.438,19.373,19.373,0,0,1-.623-6.9365,20.1,20.1,0,0,1,7.095-13.7324c2.5691-2.1553,11.8184-8.543,24.27-1.5737a19.9238,19.9238,0,0,1,6.9436-12.5c2.01-1.6865,12.709-9.6235,26.019-.2368q.2333.1648.4756.3408a20.1,20.1,0,0,1,22.3127-8.8384q.1919-.1692.3887-.335a19.954,19.954,0,0,1,24.989-.62c.322.2363.7905.5928,1.3906,1.0693q.1989.1582.4292.3433a20.0063,20.0063,0,0,1,32.2253,10.7974c4.8921,6.2925,18.144,19.9893,27.2712,29.4224,30.0935,31.1035,37.1736,38.8984,36.5552,50.8081a20.9094,20.9094,0,0,1-4.8792,12.3657c10.0771,13.3418,12.9,20.0269,12.46,27.55a21.1,21.1,0,0,1-6.6626,14.2031,19.9979,19.9979,0,0,1-6.5366,20.2095,20.5313,20.5313,0,0,1-15.813,4.5684,20.0079,20.0079,0,0,1-32.86,9.5615l-1.9392-1.7148a19.9978,19.9978,0,0,1-6.813,11.6963c-11.8521,9.9468-26.2952,4.064-39.0933-4.1465a20.1339,20.1339,0,0,1-18.1965,11.4814Z"/></g><g id="Layer_2" data-name="Layer 2"><path class="cls-2" d="M55.2152,146.1726c.1175.0411.2261-.0426.3737.1735.742-1.1573-.1327-1.4722-.2868-2.413a7.4265,7.4265,0,0,1,.2368-3.0388c.5787-2.3865,1.506-4.8834,1.1314-7.4038-.2632-1.7712-1.8653-5.3391-3.5237-6.3677-1.3415-.832-1.1395-.2955-2.1432.8987-1.015,1.2077-2.1622,2.2578-3.2336,3.4153-2.7744,2.9975.8542,7.5581,1.0525,11.1607-1.9344-.0168-2.6308-.9841-4.0516.94.022-2.7575-.1618-6.28-1.39-8.829-1.44-2.9883-2.9456-.9751-5.7276-.8566-1.97,5.2289,6.0909,11.3414,7.8614,15.8441C48.84,149.2246,52.0981,147.6527,55.2152,146.1726Z"/><path class="cls-2" d="M185.97,115.994c0,8.6113,5.7,20.1716-5.99,22.95-5.0925,1.2106-8.0735-4.6472-9.1-8.7a32.6937,32.6937,0,0,1-1.2776-9.3958c.0885-2.24.1059-7.3692,2.3127-8.7636,1.8388-1.1619,5.7221.4082,7.7139.8448C181.3463,113.3065,184.9973,113.9457,185.97,115.994Z"/><path class="cls-2" d="M224.2129,98.0434c-.1589.96,1.5965,3.3653,2.0256,4.26a19.205,19.205,0,0,1,1.9351,4.9427c.4775,2.99-1.1467,6.0454-.0964,9.1143.877,2.5613,4.1908,3.8158,6.6719,3.5232,2.28-.2689,2.4215-3.681,3.0631-5.5021,1.9883-5.6438,2.2581-11.7661-1.0985-16.8586-2.6924-4.0848-6.1966-4.5713-10.4187-6.0095C224.7136,92.6965,224.6083,95.6568,224.2129,98.0434Z"/><path class="cls-2" d="M187.5379,142.8425c.3288.4469-.2376,3.1463-.1385,4.2112.3691,3.9677.9059,8.25,4.7309,10.4617a10.6409,10.6409,0,0,0,5.4413,1.2193,8.5961,8.5961,0,0,0,5.8175-2.1376c1.396-1.2193,3.6023-2.5419,4.4862-4.1957,2.8191,1.03,4.9229,2.75,8.1839,2.1327,2.5528-.483,5.2018-2.4144,5.887-5.0207.5891-2.24-.6145-5.8955-1.2994-8.0254-.5486-1.7061-1.01-2.326-2.6946-2.1465a27.8318,27.8318,0,0,0-6.7743,1.9437,7.6,7.6,0,0,0-3.26,1.6882c-.706.744-1.2214,2.5345-2.1015,2.9656-1.4629.7164-3.3393-.822-4.3212-1.6087-1.4436-1.1566-2.4925-.6983-4.2033-.8092-2.0089-.13-3.8451-.8427-5.8856-1.0846C190.356,142.3121,189.05,141.8154,187.5379,142.8425Z"/><path class="cls-2" d="M224.7181,94.3435A29.0413,29.0413,0,0,0,226.056,88.92c.468-7.0361-2.278-9.6372-6.6183-14.68-.8306-.9658-1.2759-2.7207-2.8511-2.2383-.5386,2.3662-.291,5.4346-3.5947,5.0981-2.3774-.2417-5.1357-2.1055-7.3589-3.0708-2.5908-1.1255-4.2827.9751-6.8325.5605a6.1353,6.1353,0,0,1-3.6309-2.1313c-.3159-.4653-1.0352-4.2593-.6929-4.2407-3.6895-.1992-7.7954,1.1172-11.0809,2.7492-3.5909,1.7835-8.8411,4.1149-10.0577,8.2774,5.3725.2754,10.0745-3.3772,15.4369-3.3725,4.747.0042,8.2574,1.95,11.1126,5.84,4.6733,6.3664-.3255,19.1761-7.6232,20.2392-4.2935.6255-7.6708-2.21-11.7231-2.5622,1.1556,1.9651,6.8128,2.4822,3.6109,6.3315-1.1372,1.3669-3.87,2.4765-5.5437,2.9095a5.1549,5.1549,0,0,1-2.9974.1879,24.6076,24.6076,0,0,1-3.3284-2.4382c-1.371,1.0724-.4175,4.09.5858,5.1556,1.4507,1.5413,4.18,1.3364,6.0651,1.8575a43.8276,43.8276,0,0,1,6.2169,1.8655c.5244,5.1,3.3347,10.9058,2.6337,15.9541a8.047,8.047,0,0,1-3.1086,5.815c-.75.5378-1.7989.13-2.2705,1.1279-1.3106,2.7731,8.4541,4.177,10.0307,4.4316a26.0766,26.0766,0,0,0,6.7895.2245,76.9433,76.9433,0,0,0,10.158-2.0456c4.836-1.0759,11.5982-2.7339,15.7427-5.7685,3.0953-2.2664,10.0182-9.5235,8.4575-14.067-.7332-2.1345-4.2843-2.5849-5.2179-4.5471-1.2859-2.7026.0953-6.2216-.44-8.9748-.577-2.9668-2.2257-5.2811-3.329-7.9372A7.828,7.828,0,0,1,224.7181,94.3435Z"/><path class="cls-2" d="M199.0956,80.0431a16.7791,16.7791,0,0,0-12.606-3.39,39.6765,39.6765,0,0,0-8.5752,1.6118c-1.91.6182-3.9951,2.5581-5.959,2.3091.7646-3.0884,5.3921-4.3555,7.1411-7.1147-2.0649-7.646-10.9214-6.4062-15.0815-.4565-2.62,3.748-3.3975,7.91-1.478,12.3247,1.0166,2.3369,2.7075,2.9126,4.1626,4.56,1.4272,1.6152,1.4263,3.5688,1.9785,5.5586a70.82,70.82,0,0,0,3.3027,9.59c4.126-2.1187,7.5576-5.353,12.6982-4.7837,2.3657.2622,5.1895,2.0122,7.5347,1.6987,2.3569-.3149,4.7051-3.1226,6.1724-4.811C202.2563,92.6881,203.8266,83.7135,199.0956,80.0431ZM176.5273,99.8966c-.2544,1.58-2.4673,1.9473-3.4731.917a9.0567,9.0567,0,0,1-2.3555-3.7788,1.97,1.97,0,0,1-.02-.96,1.9976,1.9976,0,0,1,.2295-1.4209,2.104,2.104,0,0,1,2.8428-.7456A5.8777,5.8777,0,0,1,176.5273,99.8966Zm13.88-.4277c-4.7019,1.2788-7.436-7.4256-4.434-10.258C190.1149,85.3031,196.5941,97.7851,190.407,99.4689Z"/><path class="cls-2" d="M134.3787,54.7439q-.4712.103-.9462.1953c.53-.1022,3.8357,1.9256,4.7858,2.1135,1.9571.387,3.0862.0034,4.8722-.309,3.7883-.6626,7.6086.3125,11.3958-.2416a46.2551,46.2551,0,0,0,7.5856-1.7891c-.583.1946-3.7369-2.1949-4.4064-2.5289a14.9241,14.9241,0,0,0-5.6637-1.8042c-3.91-.2289-7.3695,2.41-11.1729,2.9582C138.6273,53.6552,136.53,54.2735,134.3787,54.7439Z"/><path class="cls-2" d="M112.4493,49.9628c-5.3659-3.5454-5.628-11.1915-10.3852-15.3576C97.0119,30.1809,92.3876,28.206,85.64,28.033c.8934.0229,4.4454,3.6444,5.4511,4.2908,2.2156,1.4241,4.5522,2.6792,6.6291,4.31C102.1093,40.0805,106.0734,50.3327,112.4493,49.9628Z"/><path class="cls-2" d="M197.3964,73.9107c-.958.3341-2.0081-1.8267-2.4284-2.9487a4.1035,4.1035,0,0,1,.6721-4.4766,7.3248,7.3248,0,0,1,9.02-1.7828c3.5781,1.722,9.5,1.8721,11.2628,6.0452.66,1.5621,1.58,4.6679-.0458,6.0549-2.0469,1.7464-4.7914-.8711-6.6752-1.5031a39.38,39.38,0,0,0-5.4744-1.8452C202.269,73.2535,200.1816,74.125,197.3964,73.9107Z"/><path class="cls-2" d="M174.6481,57.0763c-1.5557-1.9009-2.8677-4.0308-4.5811-5.8125-1.687-1.7554-3.6455-2.4844-5.6934-3.6792-2.1895-1.2778-4.353-2.73-6.8389-3.3667-8.76-2.2432-15.6318,3.2769-23.6113,5.2944a11.7994,11.7994,0,0,1-4.8633.5566c-1.6943-.3325-2.0469-1.856-3.3218-2.72-1.1577-.7856-2.5708-.6416-3.9019-1.208-1.6221-.69-2.5586-2.0215-3.9282-2.8716-1.0322-.6406-2.7012-.3-3.5469-1.2319-.8779-.9678-.5-2.7974-.5771-3.9722A32.1577,32.1577,0,0,0,110.0866,25.66c-1.9639-3.9565-5.584-3.63-9.5459-3.9263-4.8149-.36-8.3843.6553-12.8574,2.5054-4.6611,1.9282-9.4639-.2046-14.2671.1729,3.0825,3.2944,7.69,4.4248,12.0762,4.0063a19.84,19.84,0,0,1,6.7129.3438,18.7155,18.7155,0,0,1,11.7368,8.9854c1.5635,2.5923,2.6919,5.3926,4.6,7.5654a28.2051,28.2051,0,0,1,3.2905,5.6143c-.4072-.76-5.9912,5.7676-6.5034,6.2656a36.2843,36.2843,0,0,0-8.0161,13.0181c-.2866.8257-3.5112,13.3037-2.3164,13.2007-2.9482.2549-5.7822-2.4448-8.8174-.4917A4.9047,4.9047,0,0,0,84.215,88.131c.3335,1.7656.53,4.3174,2.6406,4.5229a2.9767,2.9767,0,0,0,2.729-1.2451,6.6605,6.6605,0,0,0,1.7285,3.166c.9629.9912,2.27,1.8188,3.3242,2.7593,1.0264.915,1.9526,2.4507,3.3135,2.8662-.0151-1.1558-.75-2.5591-1.0205-3.7217-1.0562-4.5337-4.2549-11.1509-.2256-15.21a13.948,13.948,0,0,1,6.9146-4.0283c3.0967-.6694,5.71,1.0508,8.478,2.3291,1.8462.8525,3.0542,2.3652,4.3682,3.8487,1.6787,1.8962,3.6463,4.42,5.7784,5.59,2.62,1.4372,5.018.887,6.4778,4.1,2.0072,4.4175,1.53,11.2075,0,15.804-1.4664,4.4055-5.3043,8.1554-9.3954,10.3409-1.7589.94-2.7157,1.1006-3.7449,2.5095-.7795,1.067-.7849,2.5176-1.7147,3.57-3.0019,3.3962-11.8125,7.738-11.0868,13.2725,1.4478.084,3.8511.7388,5.1055.2163.9927-.4141,1.7158-1.686,2.6113-2.3018a30.6528,30.6528,0,0,1,4.1709-2.0972c3.4258-1.65,6.56-.9937,10.4409-.7163a21.9669,21.9669,0,0,0,5.0273-.2061c5.8481-.856,12.7861-1.7783,16.7661-6.6753,2.1987-2.7056,2.3413-5.7446,3.0469-8.9868.9624-4.4258.1851-8.937-.4644-13.3481-.397-2.7-.479-5.9106-1.2192-8.5132-.9312-3.2749-3.3657-6.0981-5.0781-8.9678-1.7935-3.0049-3.6455-5.5825-4.0674-9.09-.4585-3.8091-.9707-8.1758-2.51-11.7144-.89-2.0439-1.95-4.0967-2.9507-6.0654-.4277-.84-2.59-3.3428-2.2222-4.3062.2441-.6387,4.937-1.6177,5.6006-1.7661,1.9194-.43,3.8755.0015,5.7671-.7036,4.9561-1.8462,7.7964-3.6621,13.2144-1.8813,4.0273,1.3232,7.7,4.66,11.3569,6.7261a43.4065,43.4065,0,0,0,7.5957,3.438c1.3906.481,3.8794,1.8979,5.1563.8872C178.4274,60.7618,176.2536,59.0382,174.6481,57.0763ZM106.4245,71.78a4.6651,4.6651,0,0,1-4.8569,1.7235A3.8655,3.8655,0,0,1,99.25,72.1812a4.1066,4.1066,0,0,1-.2705-4.2036,3.242,3.242,0,0,1,4.3976-1.4031C105.576,67.4534,108.8122,69.0779,106.4245,71.78Zm9.271,5.5146a3.2683,3.2683,0,0,1-2.8573-.4607c-1.297-1.2442-1.3-3.3479-1.1447-5.0256a2.1908,2.1908,0,0,1,2.5205-2.0384,3.7447,3.7447,0,0,1,3.5674,2.7853c.2582,1.2816.5494,2.929-.4892,3.9557A3.3969,3.3969,0,0,1,115.6955,77.2949Z"/><path class="cls-2" d="M55.8449,108.9658a6.1222,6.1222,0,0,0-2.56-1.3378c-1.4375-.2444-.8588,1.5095-2.1182,1.2481-1.02-.2118-2.14-1.4295-1.3456-2.3929.3653-.4428.873-.5673,1.0343-1.1476.2794-1.0058-.5208-2.0768-.8185-3a10.8828,10.8828,0,0,0-1.6134-3.504c-2.7354-3.4492-5.3369-.376-8.2905-1.82-2.33-1.1392-2.3359-6.0117-.6382-7.4087,2.1914-1.8032,8.2578-1.0142,10.9619-1.2832.124-2.7871-8.0083-5.3794-10.4146-5.9243-6.3691-1.4414-6.2769,5.6255-5.95,10.2979.1,1.4194,1.6436,6.0093.2539,7.1655-1.9561,1.6289-5.4243-2.1235-6.0283-3.7534-1.0361-2.7949,2.5645-14.5088-.04-15.4414-1.2808,5.6606-6.8164,7.2568-4.165,13.5752,2.3472,5.5933,5.7056,7.6587,1.8892,13.7065-2.9546,4.6836-4.2227,9.2148.2823,13.8692a4.71,4.71,0,0,0,2.129.8656,36.5023,36.5023,0,0,0,3.9362.7637c1.4428.213,2.895.3756,4.3507.468a12.9052,12.9052,0,0,0,1.8989.0688c.462-.0405,1.489-.442,1.883-.0625.14.1348-.0028.9764-.0286,1.1744a7.4606,7.4606,0,0,1-.6639,1.967c-.4916,1.1436-.8731,2.3313-1.3778,3.4666-.1993.4483-.6641,1.3123-.4138,1.7946.4157.8009,2.5267.2246,3.19.0677a3.5333,3.5333,0,0,1,1.0814-.2311c.9647.299,1.9415,6.8878,1.7825,6.9286,1.0166-.2612,1.7861-.084,4.5962-.5723-4.876-5.3623.8774-7.9219,2.7383-12.32-2.04-.376-3.8232-1.57-5.7793-2.2812a1.3933,1.3933,0,0,0-.2471-.6421c1.3623-.8479,2.8327-1.5014,4.2571-2.2344a9.7425,9.7425,0,0,1,1.6636-.4588,8.7817,8.7817,0,0,0,1.6931-.786c.5219-.3022.9952-.6661,1.5016-.99-.1981-.6566-1.2133-1.4385-1.2287-2.1242-.0056-.25-.0808-.1829.0759-.3366a7.313,7.313,0,0,1,1.6782-.4429c1.1767-.3743,2.8331-.5979,3.749-1.5027,1.0825-1.07.09-1.503-.544-2.3939-.4874-.6852-.8968-1.4734-1.4348-2.1276A6.8194,6.8194,0,0,0,55.8449,108.9658Z"/><path class="cls-2" d="M45.8622,149.6573c-.355.0278-.896-.3521-.9287,0-.0952,1.0254-.5347,2.646-.5723,3.9775C48.71,155.0055,48.3071,147.5753,45.8622,149.6573Z"/><path class="cls-2" d="M54.3461,147.5079a9.1555,9.1555,0,0,0-3.1069.624c.355,1.1772-.5576,3.2476.78,3.95a2.38,2.38,0,0,0,3.1177-.8945C55.519,150.2579,55.7221,147.6456,54.3461,147.5079Z"/><path class="cls-2" d="M55.1794,128.716c.7888.5349,1.9431-.2261,2.741-.1653.3923.03.441.19.5279.6448.1856.971-.056,3.2272.828,3.8805a2.6945,2.6945,0,0,1-1.717.544c-.6977-.2115-.86-1.708-1.0766-2.3211A6.2074,6.2074,0,0,0,55.1794,128.716Z"/><path class="cls-3" d="M171.4195,113.3767c-3.9089,7.8661-3.8492,23.9993,7.4377,25.7928a8.3022,8.3022,0,0,0,9.362-5.39c1.8662-5.8147-2.099-11.5813-1.91-17.4007.03-.9233-1.3584-.9052-1.4238,0-.32,4.4287,1.83,8.3771,2.2522,12.7057.4842,4.9641-2.5517,9.4023-7.98,8.6121-4.5054-.6558-7.38-4.8938-8.2548-9.0658-1.0472-4.9932.1426-10.0227,1.6412-14.78.2066-.6559-.8113-1.1043-1.1245-.4741Z"/><path class="cls-3" d="M224.8484,100.9533a20.3536,20.3536,0,0,1,2.6388,10.78c-.1547,2.8406-.4957,4.684,1.6107,6.8369,3.3625,3.4366,7.3518,2.5746,9.0183-1.8534,3.441-9.1433,1.6863-24.4918-10.6046-25.4505-.7739-.06-.9643,1.244-.1854,1.37,10.4994,1.694,12.4453,13.0894,9.999,21.811-.7263,2.59-2.131,6.35-5.6213,4.395a6.9231,6.9231,0,0,1-2.958-3.2358c-.3585-1.1737.0881-2.6663.1486-3.8728a18.9862,18.9862,0,0,0-3.0545-11.3593.5747.5747,0,0,0-.9916.58Z"/><path class="cls-3" d="M220.5687,104.9759c3.871-5.8787,6.5286-13.03,5.5519-20.1746-.7769-5.683-3.9121-11.3225-9.1167-14.0352a.7066.7066,0,0,0-.7127,1.2193,17.957,17.957,0,0,1,8.6722,14.2654c.5415,6.4957-2.0316,12.7294-5.1688,18.2725a.4486.4486,0,0,0,.7741.4525Z"/><path class="cls-3" d="M193.7875,67.6738c-9.2445,1.078-19.4912,6.54-24.1129,14.9083a20.4909,20.4909,0,0,0,2.537,22.9271c.6.6874,1.5673-.3071.9944-.9944a19.1034,19.1034,0,0,1-1.723-22.1893c4.8523-7.6407,13.9158-11.7869,22.4322-13.708.5175-.1167.4168-1.0073-.1277-.9438Z"/><path class="cls-3" d="M188.6094,116.3444a29.008,29.008,0,0,0-11.32-4.1553,10.7666,10.7666,0,0,1-2.8458-.4291,3.3077,3.3077,0,0,1-1.7651-3.1116,8.4181,8.4181,0,0,1,2.4444-5.2568,11.6462,11.6462,0,0,1,9.3058-3.6341c3.2111.2742,5.78,3.1544,9.0658,2.6522,6.1461-.9393,9.1367-10.6569,8.8638-15.8669-.3617-6.9038-6.5055-10.8946-12.9358-11.265-7.3828-.4253-16.9126,2.3162-20.86,9.0523-.4757.8118.7217,1.4794,1.2446.7275,4.5042-6.476,14.6441-9.4926,22.1968-7.8761,3.914.8377,7.6546,3.47,8.5706,7.5606.8887,3.9691-.4781,8.48-2.46,11.9326-.9713,1.692-2.4011,3.5889-4.3741,4.1435-2.2182.6235-4.0755-1.02-6.0132-1.7986a11.8619,11.8619,0,0,0-7.1981-.421c-4.402,1.0721-8.738,4.7189-9.2793,9.433-.3137,2.7322.8713,4.7143,3.5645,5.2844,1.996.4225,4.0165.537,6.0009,1.0751a48.2254,48.2254,0,0,1,7.2943,2.8084.4955.4955,0,0,0,.5-.855Z"/><path class="cls-3" d="M166.1246,88.8167c-4.859-3.29-5.4113-9.8853-2.3114-14.5468,2.948-4.4331,12.2677-9.4153,14.3158-1.55a.671.671,0,0,0,1.3121-.1776c-.1317-2.9439-2.7506-5.0955-5.5678-5.4515-3.8507-.4866-7.6387,1.9845-10.0311,4.7986-4.531,5.33-4.8346,13.9789,1.86,17.6507a.4193.4193,0,0,0,.4229-.7235Z"/><path class="cls-3" d="M204.0087,73.2071c-2.35.3091-5.1382,1.4554-7.193-.2808a5.1062,5.1062,0,0,1-1.1083-6.11,6.0545,6.0545,0,0,1,5.7681-2.7323c2.1618.18,3.6843,1.5883,5.4968,2.59,1.778.9821,3.7967.796,5.5876,1.6455a6.2313,6.2313,0,0,1,3.418,5.8281c-.1654,2.4572-2.3257,3.5661-4.5417,2.2931a26.6688,26.6688,0,0,1-2.4966-1.9045,6.09,6.09,0,0,0-4.5078-1.5573c-.9442.1079-.9868,1.5775,0,1.5117,3.7511-.25,5.6415,4.5436,9.494,4.22,2.3417-.1967,3.4781-2.4337,3.5857-4.563a7.8135,7.8135,0,0,0-3.0707-6.4423c-1.4008-1.0668-2.6766-1.1272-4.3406-1.5082-2.0549-.47-3.36-1.5991-5.1621-2.5612C200.87,61.4633,194.5149,62.92,193.7564,68.1a6.6058,6.6058,0,0,0,2.217,5.9183c2.4274,2.01,5.4891,1.01,8.1552.0753.4445-.1559.4164-.9568-.12-.8862Z"/><path class="cls-3" d="M182.1158,140.1245c9.4027,6.5123,22.6858,4.4971,32.7013.7586,8.4127-3.14,21.073-9.3268,19.3161-20.3984-.132-.8319-1.4336-.6084-1.4387.1947-.0712,11.3022-11.08,16.3118-20.3861,19.4633a46.2754,46.2754,0,0,1-14.4788,2.7019,34.5,34.5,0,0,1-15.1579-3.6713.5512.5512,0,0,0-.556.9512Z"/><path class="cls-3" d="M186.842,143.5939c-2.7122,8.1076,3.7816,17.334,12.6262,15.7291a10.61,10.61,0,0,0,8.4117-7.0264,6.4026,6.4026,0,0,0-.7162-5.6567,5.0534,5.0534,0,0,0-1.7215-1.504c-1.3091-.6757-4.04-.1336-4.4969-1.8829a.7448.7448,0,0,0-1.4351.3956,2.6764,2.6764,0,0,0,1.5794,2.013c2.1976,1.0537,4.7461.2115,5.5071,3.3075,1.02,4.1506-2.999,7.7649-6.6076,8.715-8.2442,2.1707-13.9441-6.2851-11.8306-13.7272a.6832.6832,0,0,0-1.3165-.3629Z"/><path class="cls-3" d="M206.4025,145.6187a21.035,21.035,0,0,0,1.668-2.6817.5717.5717,0,0,0-.9866-.5767,21.1046,21.1046,0,0,0-1.41,2.8325.4222.4222,0,0,0,.7286.4259Z"/><path class="cls-3" d="M206.9993,152.6639c3.7169,3.0349,9.7564,4.5668,13.4743.6246,3.53-3.7426,2.4781-10.3818-.21-14.2562a.7271.7271,0,0,0-1.2547.7334c1.8636,3.4973,3.3513,8.3683.7269,11.9229-3.0778,4.1687-8.4462,2.21-12.1189.1748-.4849-.2687-1.0825.4211-.6177.8006Z"/><path class="cls-3" d="M188.4148,98.5987a6.6777,6.6777,0,0,1-2.5414-4.1724c-.2833-1.3845-.4385-4.1921.83-5.2376,2.1867-1.803,4.3338,2.0528,4.8479,3.6942a8.4181,8.4181,0,0,1,.4007,2.5043,6.4017,6.4017,0,0,1-.1823,1.6766q-.3709,2.0832-2.978,1.2067a.6538.6538,0,0,0-1.1282.6595c1.283,2.4851,4.4085,1.1975,5.2451-.9374a9.1708,9.1708,0,0,0-2.8689-9.7714c-2.7691-2.0385-5.1422.1634-5.549,3.0606-.45,3.2058.6076,6.45,3.481,8.0759a.44.44,0,0,0,.4436-.7589Z"/><path class="cls-3" d="M186.7093,94.0685a2.54,2.54,0,0,1,.9571.8948,4.0458,4.0458,0,0,1,.357,1.2527.5877.5877,0,0,0,1.1244,0,2.7167,2.7167,0,0,0-2.0727-3.015.4768.4768,0,0,0-.3657.8675Z"/><path class="cls-3" d="M174.7864,101.197a4.5782,4.5782,0,0,1-2.5516-2.6552c-.4575-1.0946-1.0528-3.3148.005-4.3105,1.5463-1.4556,3.0244,1.0126,3.3789,2.1453.1237.3954.785,4.8259-.5467,4.2533-.7052-.3032-1.31.6343-.6181,1.0574,2.379,1.4548,2.8625-2.4123,2.7375-3.893-.1806-2.14-1.2959-4.9886-3.7785-5.1945-4.9927-.4141-3.154,9.32,1.137,9.4708.44.0154.6726-.6844.2366-.8735Z"/><path class="cls-3" d="M172.65,97.7836a5.2738,5.2738,0,0,1,.89,1.4648c.2395.5587,1.2071.1577.9906-.4176a3.5989,3.5989,0,0,0-1.3588-1.7236c-.4211-.2918-.83.3281-.5219.6764Z"/><path class="cls-3" d="M180.4406,100.3326c3.5882.6428,6.2155,3.7354,2.3564,6.3655-2.2526,1.5352-8.5031,3.3119-8.7816-1.1393a.6065.6065,0,0,0-1.1855-.16c-.5451,2.1688,1.1292,3.83,3.191,4.2587a10.3468,10.3468,0,0,0,7.771-2.0484c1.5336-1.1211,3.0516-2.758,2.3335-4.7761a5.4228,5.4228,0,0,0-5.5579-3.4379c-.4884.0509-.7021.835-.1269.938Z"/><path class="cls-3" d="M191.4424,111.5049A4.3834,4.3834,0,0,0,194.09,105.91a.6608.6608,0,0,0-1.2229.3312,3.8193,3.8193,0,0,1-1.8759,4.1927.5886.5886,0,0,0,.4515,1.0709Z"/><path class="cls-3" d="M184.8858,83.8375a7.1308,7.1308,0,0,1,3.48-.1,11.1769,11.1769,0,0,1,2.9248,1.4673c.5122.2927,1.2806-.3387.8738-.8738-1.6574-2.18-5.1776-2.7135-7.6293-1.7653a.66.66,0,0,0,.35,1.2713Z"/><path class="cls-3" d="M171.6416,87.6232a4.3015,4.3015,0,0,0-3.641,2.4736c-.3.71.65,1.3311,1.0675.624a4.0413,4.0413,0,0,1,2.7191-2.0215.55.55,0,0,0-.1456-1.0761Z"/><path class="cls-3" d="M39.91,123.6437c.684,5.2434-4.9544,8.98-2.8214,14.4625,1.7394,4.4708,6.3751,7.2333,7.3,12.1058a.6419.6419,0,0,0,.7822.4441q5.8391-1.706,11.525-3.8568a.6573.6573,0,0,0,.1546-1.1832c-2.9034-2.0132.6366-6.452.9519-9.0686a11.0442,11.0442,0,0,0-1.0357-5.99,11.2679,11.2679,0,0,0-3.9642-4.6176c-2.2267-1.4558-5.3789-1.2156-7.2755-3.0952l-.3083,1.1677a27.1321,27.1321,0,0,0,10.0983-5.0056c.3916-.3062.1863-.8839-.1439-1.1167a3.5964,3.5964,0,0,1-1.5028-1.8043l-.6185,1.0778a9.0589,9.0589,0,0,0,7.0232-3.5533.7437.7437,0,0,0-.1484-1.1517c-2.0019-.9274-2.1819-3.5368-4.3882-4.4383-1.73-.7067-2.6015-.994-3.3621-2.8422-.4806-1.1677-.727-2.4248-1.1429-3.615-1.839-5.2632-6.2063-5.595-11.1262-4.5068l.82.3339c-.8672-1.7936-2.1758-4.3929-.9131-6.3206,1.39-2.122,4.2135-1.2316,6.22-1.0086,2.1384.2376,4.2332-.0468,5.6624-1.7864a.7167.7167,0,0,0-.1428-1.1079q-3.5813-2.0691-7.1643-4.1355c-1.744-1.0015-3.8042-2.6907-5.9486-2.3689-3.63.5449-4.9086,5.3708-4.9748,8.42-.0476,2.1885.9048,4.2953.8334,6.4551a3.8725,3.8725,0,0,1-.3686,1.9224c-1.396,1.9749-3.3418.5411-4.1277-.668-1.0242-1.5756-.7144-3.4916-.3369-5.2417.904-4.19,2.6616-8.5468.2058-12.54a.7262.7262,0,0,0-1.3114.1714c-1.2542,4.89-7.5449,6.8115-6.1,12.663.7921,3.2079,3.3211,4.9254,4.974,7.5761,1.97,3.1584-2.4717,6.2137-3.5739,9.057-4.027,10.3885,6.641,19.9211,16.606,15.643.8791-.3774.1213-1.6717-.7541-1.29-5.4709,2.3848-12.4345-.045-14.5733-5.8023A11.526,11.526,0,0,1,24.79,109.51c.8257-2.5236,2.925-4.0221,4.022-6.3352,2.1245-4.48-4.2167-7.7281-5.1957-11.7043-1.2529-5.0891,4.9734-7.4623,6.1278-11.9077l-1.3114.1714c3.14,5.1392-1.6161,10.4834-.6952,15.83.4844,2.8122,3.7588,5.726,6.5549,3.6428,3.1828-2.3713.4136-7.85.7018-10.9708a8.8063,8.8063,0,0,1,1.9147-5.0612c1.8657-1.9984,4.1044-.3854,5.9424.6657q3.99,2.2816,7.99,4.5439l-.1428-1.1079c-2.9233,3.6086-8.2016-.9518-11.4031,2.1485-2.509,2.43-1.0967,6.0526.177,8.6981a.7373.7373,0,0,0,.82.3339c3.2349-.71,7.1489-1.2273,8.8706,2.3217.8836,1.8214,1.0812,3.9046,2.0027,5.7123.8194,1.6074,1.8221,2.0965,3.378,2.79a5.7537,5.7537,0,0,1,2.8,2.7366,4.2536,4.2536,0,0,0,1.8417,1.7069l-.1484-1.1517a7.655,7.655,0,0,1-5.9861,3.1578.7257.7257,0,0,0-.6185,1.0778,5.7393,5.7393,0,0,0,2.0221,2.3091l-.1439-1.1167a25.5187,25.5187,0,0,1-9.4643,4.6637.7049.7049,0,0,0-.3083,1.1677c1.83,1.805,4.3074,1.6748,6.5274,2.7046a9.8535,9.8535,0,0,1,5.3233,6.98c.6833,3.4181-1.2809,5.5791-1.8582,8.7347a4.2033,4.2033,0,0,0,1.6656,4.4823l.1546-1.1832q-5.6883,2.1541-11.5189,3.879l.7822.4441c-.9076-4.6856-5.0841-7.3353-7.09-11.4358-2.6747-5.4675,3.3307-9.5049,2.4611-14.94-.0965-.6028-1.1561-.4677-1.0761.1456Z"/><path class="cls-3" d="M49.4353,117.9052a3.9013,3.9013,0,0,0,2.705-4.7872,4.0131,4.0131,0,0,0-4.8814-2.72c-.5725.2037-.5306,1.1566.1519,1.1222,1.4514-.0732,3.0348.3691,3.51,1.9337a3.257,3.257,0,0,1-1.831,3.6318.45.45,0,0,0,.3454.8193Z"/><path class="cls-3" d="M51.5216,107.92c.0474.336-.5116.285-.6714.2109a1.6954,1.6954,0,0,1-.7078-.6727.8324.8324,0,0,1,.61-1.044c.6364-.1739.5372-1.2687-.1612-1.1912a1.9843,1.9843,0,0,0-1.2192,3.3,2.0937,2.0937,0,0,0,2.2865.8178,1.1651,1.1651,0,0,0,.618-1.7392.4153.4153,0,0,0-.755.3183Z"/><path class="cls-3" d="M46.2059,103.1052a2.1243,2.1243,0,0,1,.719-3c.7145-.3954.08-1.4731-.6388-1.0928a3.0582,3.0582,0,0,0-.83,4.6716c.3431.4137,1.0622-.1346.75-.5787Z"/><path class="cls-3" d="M59.8374,113.9322c3.6077.0636,1.94-4.8719.5941-6.4744-.762-.9072-2.3465-2.3471-3.6649-2.1287-1.5317.2538-1.0313,2.4573-.7,3.4505a.5777.5777,0,0,0,1.1131-.3069c-.1085-.802-.3814-1.86.7067-1.4845a4.6236,4.6236,0,0,1,1.7182,1.477,5.7794,5.7794,0,0,1,.989,1.8065c.31.9405.43,2.5912-.8709,2.8145-.4907.0842-.356.8377.1145.8459Z"/><path class="cls-3" d="M57.6235,110.38c.4516.161.4481.546.6863.8831.2031.2874.74.3985.9158,0,.4177-.9485-.5534-1.8476-1.47-1.8614a.5.5,0,0,0-.1324.9783Z"/><path class="cls-3" d="M59.1347,109.4813c.0927.0222.2532.5632.3844.7037a.8428.8428,0,0,0,.9062.2514.7529.7529,0,0,0,.1581-1.35.5424.5424,0,0,0-.5471.936l.0673.0416-.25-.3253q.6439-.1115.4344-.4a1.7651,1.7651,0,0,1-.0963-.1791,1.671,1.671,0,0,0-.2366-.3327.894.894,0,0,0-.6964-.26c-.5027.0293-.6588.7867-.1238.915Z"/><path class="cls-3" d="M38.2067,133.39a4.5481,4.5481,0,0,0,5.0407-.9413l-1.0671-.2817a37.6476,37.6476,0,0,1,1.9652,11.3357.6358.6358,0,0,0,1.1738.3179,2.5421,2.5421,0,0,1,3.5713-.7138.6389.6389,0,0,0,.9278-.7133c-.5119-1.8669-.9912-3.7415-1.416-5.63-.2963-1.3176-1.3586-4.09-.68-5.233.4672-.7874,1.7151-1.0678,2.4769-1.6453a7.5322,7.5322,0,0,0,2.2959-2.9305c.34-.73-.7276-1.3741-1.0928-.6388a6.6782,6.6782,0,0,1-2.07,2.5791,23.0694,23.0694,0,0,1-2.4451,1.1172c-.7434.4293-.8072.3987-.88,1.2274-.1327,1.5135.6334,3.4362.9572,4.9177.4822,2.2065,1.0366,4.3947,1.6355,6.5723l.9278-.7133a3.8931,3.8931,0,0,0-5.2967,1.1687l1.1738.3179a41.0928,41.0928,0,0,0-1.9937-11.6751.647.647,0,0,0-1.0671-.2817,3.5909,3.5909,0,0,1-3.8092.6521c-.7627-.2744-1.0428.8939-.3287,1.1922Z"/><path class="cls-3" d="M43.9655,150.8506a24.4894,24.4894,0,0,0-1.0272,6.8656.6.6,0,0,0,1.0143.42,2.6726,2.6726,0,0,1,3.8841-.3577c.4058.365,1.1643.0182.972-.5658-.7468-2.2688-1.3991-4.5276-.5731-6.87.2522-.715-.8459-.9855-1.1187-.3084-.9957,2.4707-.2317,5.0746.57,7.4873l.972-.5658a3.8562,3.8562,0,0,0-5.5468.34l1.0143.42c.1477-2.2667.5812-4.4794.84-6.73.0689-.5985-.8269-.6493-1.0013-.1355Z"/><path class="cls-3" d="M50.8707,149.1187a54.035,54.035,0,0,1-.1886,7.0935c-.049.48.6107.6859.9169.38.2759-.2757.8858-1.3513,1.1279-1.4362.6231-.2184,1.1576.4326,1.5754.7264a1.6249,1.6249,0,0,0,1.4874.35.5592.5592,0,0,0,.4083-.5363c-.2426-3.1619-.555-6.336-.9418-9.4835-.0934-.76-1.2876-.7922-1.2187,0,.2751,3.163.6293,6.3363,1.0482,9.4835l.4083-.5363c-.7271.1716-1.5761-1.3424-2.51-1.2751-1.0785.0776-1.49,1.28-2.1444,1.9479l.9169.38a32.6328,32.6328,0,0,0-.0536-7.0935c-.0647-.5143-.8482-.5505-.832,0Z"/><path class="cls-3" d="M51.13,152.7424a29.7289,29.7289,0,0,0,3.1783.0469.4778.4778,0,0,0,0-.9551,29.723,29.723,0,0,0-3.1783.0469.4309.4309,0,0,0,0,.8613Z"/><path class="cls-3" d="M44.7788,153.8548c.8825.0155,1.7709-.0718,2.65-.1411.6886-.0542.6806-1.1453,0-1.0723-.9211.0988-1.8568.1807-2.7648.3674-.4863.1-.36.8376.1145.8459Z"/><path class="cls-3" d="M55.1032,129.2a28.3426,28.3426,0,0,0,7.46-.8969l-.6185-1.0626c-1.1139,1.1569-2.4677,3.1649-.9211,4.5965a1.7869,1.7869,0,0,0,1.13.4844,9.8582,9.8582,0,0,0-1.2872-.23,6.4106,6.4106,0,0,0-3.4242.8825c-.7165.4166-.0878,1.4472.6417,1.0979a6.0752,6.0752,0,0,1,2.5331-.6988c.6132-.0137,1.209.2437,1.8059.2283a1.1733,1.1733,0,0,0,1.1919-.6163,1.251,1.251,0,0,0-.4551-1.5092c-.4619-.3791-1.198-.2828-1.4692-.9685-.3536-.894.6269-1.809,1.1529-2.3676.4014-.4264.0092-1.3047-.6185-1.0626a22.074,22.074,0,0,1-7.1221,1.2792.4221.4221,0,0,0,0,.8438Z"/><path class="cls-3" d="M57.6987,129.0817c.2462,1.0893.5591,2.1627.82,3.2491.16.6676,1.0876.364,1-.2757a9.1827,9.1827,0,0,0-1.0539-3.2962.4209.4209,0,0,0-.7657.3228Z"/><path class="cls-3" d="M44.9147,139.5218a5.6951,5.6951,0,0,0,3.301-.5306c.5279-.2474.1546-1.1441-.4-.9478a11.095,11.095,0,0,1-2.7776.5633c-.4791.0425-.6825.8312-.1238.915Z"/><path class="cls-3" d="M99.3253,99.3443c-4.1605-2.855-8.1444-5.2533-8.74-10.7127a.645.645,0,0,0-1.2891,0c-.3479,5.4984,4.9872,9.6508,9.476,11.6589a.5483.5483,0,0,0,.553-.9461Z"/><path class="cls-3" d="M88.8635,92.02c-1.5508,2.07-2.6926-1.1363-2.8963-1.8259a9.8348,9.8348,0,0,1-.2691-1.2222,5.9551,5.9551,0,0,1,.8626-4.7142c2.3522-2.8778,6.1337-1.2016,8.7606.2537a.6069.6069,0,0,0,.6122-1.0473c-4.02-2.59-10.822-3.2278-11.5534,3.0008-.2285,1.9461.0654,4.918,1.546,6.3791a2.1938,2.1938,0,0,0,3.6355-.4158.4046.4046,0,0,0-.6982-.4081Z"/><path class="cls-3" d="M113.6556,49.261c-8.28,6.2042-15.0666,15.3257-17.7863,25.3682-2.4179,8.9279-2.2595,22.7839,6.8338,28.1422a10.355,10.355,0,0,0,11.5917-.5367c3.8746-2.8192,5.7767-7.3227,6.9268-11.8222.7009-2.7419,1.1814-5.5371,1.9444-8.2637a61.4553,61.4553,0,0,1,3.7009-9.3511c2.1752-4.6624,4.7378-9.5217,5.2-14.7282.4047-4.5643-1.156-8.8842-5.5611-10.8007-3.5052-1.5249-9.1621-2.9679-11.8628.6095-.5764.7635.7087,1.4945,1.28.7482,2.5376-3.3146,10.3655-.639,12.6967,1.7929,2.8752,2.9995,2.312,7.9288,1.2439,11.5615-1.3685,4.6544-3.7445,8.9342-5.6722,13.3652a65.2591,65.2591,0,0,0-3.687,12.0919c-.9641,4.3357-2.1149,8.7985-5.2413,12.1241-3.5087,3.7323-8.5755,4.5081-12.8087,1.427-7.8485-5.7123-7.5166-18.5755-5.07-26.864,2.9058-9.8457,9.582-17.1831,16.9821-23.9439.4814-.44-.1713-1.324-.71-.92Z"/><path class="cls-3" d="M103.5837,54.8948c2.2159-3.2612,4.1336-6.6615,7.15-9.2869,1.58-1.3748,3.4917-2.91,5.5659-2.0315,2.0894.8854,3.7731,2.75,5.4472,4.219a.7857.7857,0,0,0,1.11-1.11,17.9514,17.9514,0,0,0-6.1513-5.031c-1.8465-.85-3.4611-.102-5.0833.9232-4.1993,2.6539-7.0377,7.287-9.1065,11.6935a.6187.6187,0,0,0,1.0675.624Z"/><path class="cls-3" d="M111.8322,59.9319c2.2144-5.1475,4.4872-10.7173,10.9177-10.8616a.8271.8271,0,0,0,.2189-1.6171c-7.1144-1.7785-10.841,6.6924-12.1432,12.0542-.14.5771.75,1.02,1.0067.4244Z"/><path class="cls-3" d="M120.0943,60.7214a14.5475,14.5475,0,0,0,5.5912-8.77c.4754-2.1816.6454-5.4263-2.0677-6.0658-.6412-.1511-1.27.7052-.6927,1.19,3.7177,3.1205-1.411,10.1505-3.5622,12.6979-.4088.4841.1327,1.3741.7314.9479Z"/><path class="cls-3" d="M123.2081,42.1575a4.0088,4.0088,0,0,1,.4676,3.2671.6451.6451,0,0,0,1.243.3427,4.4615,4.4615,0,0,0-.8456-4.2772c-.3908-.4894-1.1988.1454-.865.6675Z"/><path class="cls-3" d="M126.6394,47.05a2.7005,2.7005,0,0,1,1.7545-1.574.6774.6774,0,0,0-.36-1.3052,3.4263,3.4263,0,0,0-2.6321,2.5381.6422.6422,0,0,0,1.2374.3411Z"/><path class="cls-3" d="M127.7092,48.7336a5.34,5.34,0,0,1,2.8762-.423c.6761.0627.8224-1.0435.16-1.1855a5.3364,5.3364,0,0,0-3.6488.5611c-.6971.3639-.0845,1.3834.6122,1.0473Z"/><path class="cls-3" d="M124.7771,49.3212c1.037-.1019,1.6691,4.5419,1.7757,5.2524.28,1.865.1925,3.7274.3623,5.5949.0646.71,1.1955,1,1.3466.1822a19.3,19.3,0,0,0-.7934-8.6125c-.42-1.4529-.8842-3.9429-2.8463-3.5623-.6371.1236-.5022,1.21.155,1.1452Z"/><path class="cls-3" d="M104.22,74.0833c4.3026-.7535,5.9017-6.6488,5.9221-10.3917.0213-3.9064-2.9627-5.9871-6.4835-3.8466a11.89,11.89,0,0,0-5.293,10.5792c.3232,3.1,3.752,6.0548,6.54,3.4928.5628-.5171-.18-1.5122-.8272-1.0721-4.1137,2.7982-4.583-3.6511-3.8815-5.94a11.1928,11.1928,0,0,1,3.4219-5.3219c1.8357-1.5147,4.9276-1.6306,5.1943,1.4538a11.8014,11.8014,0,0,1-.2257,3.0847c-.5077,2.7228-1.7711,6.0767-4.6015,7.1145a.44.44,0,0,0,.2336.8475Z"/><path class="cls-3" d="M99.7927,66.8969a8.4179,8.4179,0,0,1,7.789,2.5224c.4815.47,1.3647-.15.9617-.742a7.8044,7.8044,0,0,0-9.1186-2.6532c-.5377.2315-.1179.9485.368.8728Z"/><path class="cls-3" d="M101.0659,71.2361a.8777.8777,0,0,1,.9895-.2844c.382.1622.3934.5427.6.843a.5413.5413,0,0,0,.9746-.1274c.3067-.8111-.5758-1.7-1.3086-1.8779a1.766,1.766,0,0,0-2.0139,1.0031.44.44,0,0,0,.7589.4436Z"/><path class="cls-3" d="M117.2972,63.54c-2.8434,2.6214-6.662,7.0295-5.8638,11.2517.6577,3.479,4.4242,4.0645,7.0374,2.2256,2.983-2.0991,6.2915-7.1835,5.2445-10.98-.7837-2.8417-4.52-4.5264-6.4524-1.7568-.4724.677.53,1.3391,1.0905.8414,2.017-1.79,4.0414.2995,4.0317,2.47a8.82,8.82,0,0,1-1.52,4.2441c-1.1558,1.9642-3.062,5.0159-5.6873,4.825-3.7429-.2721-2.3593-4.7879-1.3416-6.7323a38.9212,38.9212,0,0,1,4.1818-5.6679c.3945-.5054-.2249-1.1782-.7209-.7209Z"/><path class="cls-3" d="M114.0444,69.6388a5.1065,5.1065,0,0,1,2.8855,1.3449,6.2618,6.2618,0,0,1,1.4421,2.8206.589.589,0,0,0,1.1509-.1558c.2835-2.7083-2.8885-5.0648-5.3524-4.942-.5018.025-.6831.8514-.1262.9323Z"/><path class="cls-3" d="M113.83,73.9791c.6081-.3016,1.1832.2343,1.4364.7392.2835.5654,1.0564.1447.9585-.4041a1.9111,1.9111,0,0,0-2.8325-1.0839c-.4914.2742-.0585.9949.4377.7488Z"/><path class="cls-3" d="M95.7481,83.3059c3.599-4.0536,7.6227-6.7993,13.2593-4.9369,4.4588,1.4733,10.0824,5.4,10.9834,10.2383.1576.8462,1.3876.5871,1.4329-.1939.16-2.7544-1.8358-4.9234-3.7929-6.6137a24.325,24.325,0,0,0-8.1855-5.0193c-6.0935-1.9675-11.0013,1.0637-14.4427,5.95-.3093.4391.3887.977.7454.5751Z"/><path class="cls-3" d="M116.39,89.9476c1.4475,3.1453.387,6.1745-.3493,9.3239a.5747.5747,0,0,0,1.1074.3053c1.1112-3.2094,1.7444-7.0128.0969-10.129-.302-.5713-1.1171-.07-.855.5Z"/><path class="cls-3" d="M101.1084,90.96a2.7007,2.7007,0,0,0,.0062,2.0839.89.89,0,0,0,.8113.6177c.6336.0547.914-.6251.7843-1.1465-.1286-.5168-.2781-1.0331-.37-1.5551-.1228-.697-1.0217-.5076-1.2317,0Z"/><path class="cls-3" d="M106.5484,92.8283c.247.66.1977,1.4072.8628,1.8205a.6756.6756,0,0,0,.9855-.4009c.1457-.8-.41-1.2307-.7453-1.8846-.3073-.5986-1.3451-.1815-1.1031.465Z"/><path class="cls-3" d="M104.3941,42.706c-3.78-5.1009-8.1564-9.988-14.1124-12.53-5.945-2.5378-13.0556-2.93-17.71-7.8674l-.9364,1.2136a19.6738,19.6738,0,0,0,11.62,2.3864c4.44-.4926,8.5537-2.3285,12.9-3.2341,5.2486-1.0935,10.7958-.5309,14.0749,4.1938,2.9666,4.2746,3.1138,9.6751,3.2587,14.686.0295,1.02,1.6175,1.0238,1.5879,0-.2484-8.5863-1.8927-19.5371-12.31-20.831-4.563-.5668-8.9922.9353-13.3011,2.2172-5.85,1.74-11.5273,2.358-17.0513-.7528a.7762.7762,0,0,0-.9364,1.2136C75.5,27.77,81.4061,28.7814,86.8154,30.52c7.2195,2.3206,11.8238,7.3769,16.93,12.6865.3163.3289.9336-.1162.6488-.5006Z"/><path class="cls-3" d="M84.1012,28.1033c5.1891,1.2029,11.621,1.6053,15.6974,5.3514,3.9419,3.6225,5.4955,8.8718,8.5873,13.0992.5318.7271,1.7.097,1.2345-.7216-2.6945-4.7431-5.0468-10.3628-9.3675-13.8936-4.3363-3.5436-10.6118-3.79-15.9149-4.6943-.5544-.0945-.804.7273-.2368.8588Z"/><path class="cls-3" d="M131.0139,50.66c4.5564-1.4937,9.0157-3.26,13.5573-4.7952,4.6425-1.569,9.67-2.8276,14.46-1.1,4.2376,1.528,7.5015,4.8449,10.6086,7.9669q5.152,5.1765,10.32,10.3371l.6131-1.48c-9.4992.8313-15.6192-8.201-24.0951-10.7747-8.3684-2.541-15.6961,3.5408-23.9571,3.4306a.8267.8267,0,0,0,0,1.6523c9.0361.5564,16.5472-6.6677,25.63-2.61,7.5212,3.36,13.48,10.8163,22.4223,10.0361a.8786.8786,0,0,0,.6131-1.48c-3.8152-3.8341-7.6333-7.6774-11.5466-11.4118-2.9925-2.8557-6.2427-5.715-10.2153-7.0912-4.2668-1.4781-8.81-.8031-13.0335.4781-5.301,1.608-10.5377,3.7066-15.6662,5.7917-.6313.2567-.3927,1.2746.29,1.0509Z"/><path class="cls-3" d="M132.9817,55.8113c3.4636,1.8433,8.4753,1.7143,12.3,2.0638,4.598.42,9.1421-.663,13.5061-2.0721a.66.66,0,0,0-.35-1.2713c-4.1411.7528-7.9483,2.3073-12.2321,2.05-1.9983-.12-3.9942-.3622-5.9882-.542-2.1694-.1957-4.808-.0317-6.7888-.9919-.5072-.2458-.9539.4939-.4466.764Z"/><path class="cls-3" d="M132.2995,57.8866c5.4476,6.5983,4.5073,16.2488,7.5464,23.8521,1.3474,3.3709,3.8648,6.1232,5.4912,9.36a43.2249,43.2249,0,0,1,3.72,11.609c1.44,7.8015,2.8277,17.7843-3.2559,23.96-5.9555,6.0452-14.7129,6.4153-22.6293,5.4681-3.5645-.4265-7.3776-.7644-10.558,1.2472a9.2422,9.2422,0,0,0-2.87,3.2727c-.5982.9346-1.0478,1.6548-2.2592,1.69-1.2045.0354-2.9857-.7627-4.1722-1.0656l.4739,1.1649c2.83-4.8985,5.8211-9.8932,10.9068-12.7264.88-.49.0916-1.8418-.79-1.3509-5.3164,2.9617-8.512,8.1565-11.4866,13.2768a.8012.8012,0,0,0,.4739,1.1649c2.5742.6636,6.2189,2.7117,7.8345-.3122,1.1376-2.1292,1.9036-3.6447,4.36-4.5244,2.3-.8236,4.8061-.6,7.1846-.3388,8.0021.88,16.3668.933,22.9926-4.36,6.7691-5.4076,6.9026-13.2026,6.1533-21.2077a54.6913,54.6913,0,0,0-2.5-12.45,48.3774,48.3774,0,0,0-5.8314-11.1079c-3.0085-4.5823-3.4583-10.1472-4.8-15.3559-1.0686-4.1472-2.0332-8.9118-5.3593-11.8906a.4427.4427,0,0,0-.6256.6256Z"/><path class="cls-3" d="M135.857,116.4878c-2.52,3.3578-6.6285,4.075-10.3154,5.5492a17.2789,17.2789,0,0,0-3.8332,2.0295c-2.2185,1.62-4.58,5.0424-7.7863,3.5576l.3225.7925c.8945-2.7216,1.5488-7.5168,3.9722-9.2713,1.8442-1.3352,4.3119-1.4363,6.1739-2.8468,3.31-2.5073,4.7183-6.7569,5.5284-10.6646.898-4.3316,1.7991-9.4458-.2331-13.5922-1.6642-3.3956-5.6257-5.845-9.373-4.45-.9079.3379-.54,1.7878.4065,1.4747,5.8311-1.9293,8.7731,4.5732,8.6892,9.3048A31.6281,31.6281,0,0,1,126.67,111.13a10.3773,10.3773,0,0,1-4.1146,4.6741c-1.6009.8931-3.5131,1.1054-5.0538,2.1188-2.9983,1.9722-3.5814,6.9761-4.6109,10.1209a.7047.7047,0,0,0,.3225.7925,5.5261,5.5261,0,0,0,5.4531-.4847c2.5643-1.5809,4.3679-3.8106,7.2435-4.9767,3.9108-1.5859,8.64-2.3783,10.9839-6.2805.4086-.68-.5855-1.208-1.0372-.6063Z"/><path class="cls-3" d="M104.2833,121.5184c.37-.2394,2.237,2.7727,2.4181,3.1022a22.3038,22.3038,0,0,1,1.3891,4.0012.6506.6506,0,0,0,1.2718-.1721,10.3142,10.3142,0,0,0-2.211-5.714c-.6057-.8123-2.1446-3.0277-3.3885-2.1077-.5209.3853-.0483,1.2585.52.89Z"/><path class="cls-4" d="M82.3878,112.0963c2.5854-.2678,3.4832-2.4321,5.56.3074,1.6394-2.8739,3.1151-.7,2.2636-4.89-.5594-2.7524-1.182-4.5969-.8191-7.3406-1.7494-.4309-3.1134-1.4422-4.8533-.705,1.4565,2.3982,1.493,3.8432.4128,6.36a34.5877,34.5877,0,0,1-1.7718,3.087c-.4244.758-1.1946,3.2046-1.1447,2.123C81.637,112.5635,80.908,111.5428,82.3878,112.0963Z"/><path class="cls-4" d="M102.2262,136.8686c.5255.3656,4.3961-3.8853,5.2123-5.6738,1.7637-3.8645-1.2575-7.8128-3.26-10.9992.2119.3372,1.7886-2.07.82-3.4918-.8059-1.1829-3.8988-1.88-5.1736-2.2894-4.052-1.3026-13.6488-2.8072-15.7622,2.78-.8041,2.1258.83,2.7673.87,4.6422.0417,1.9882-.5339,2.4892-1.1648,4.3453-1.0344,3.0429-1.9311,5.9693-.089,8.9084C87.6888,141.4882,95.7907,139.2484,102.2262,136.8686Z"/><path class="cls-3" d="M101.9427,136.4444c-5.7043,1.9639-14.1379,3.855-17.9687-2.473-1.8178-3.0027-1.1768-6.5106.576-9.3475a7.484,7.484,0,0,0,1.2653-2.641c.178-1.1473-.3607-1.4563-.7017-2.3986-.5125-1.4167-.955.4342-.251-1.9981.4749-1.64.9665-1.65,2.4819-1.9841a26.0258,26.0258,0,0,1,5.0828-.5285,31.3264,31.3264,0,0,1,9.8493,1.3922q.6373.1909,1.2629.4178l.784,2.12a16.13,16.13,0,0,1-2.614.4975c-1.6839.3039-3.3763.5771-5.0823.7221a23.0518,23.0518,0,0,1-10.1-1.1491c-.974-.36-1.395,1.1977-.4284,1.5538a24.068,24.068,0,0,0,10.5283,1.1991c1.6993-.1476,3.39-.4069,5.0684-.7049,1.3078-.2322,3.3088-.2407,4.39-1.1248,1.3727-1.1219.6768-3.041-.575-3.9118-2.5119-1.7473-6.5537-2.1618-9.54-2.424-2.7005-.2371-15.8582-.5872-13.2127,5.4409a6.0357,6.0357,0,0,1,.8616,2.3319c.263,1.6837-.0418,1.759-.79,3.0546a10.9627,10.9627,0,0,0-1.41,4.1214,9.3817,9.3817,0,0,0,1.9656,7.15c4.72,5.7991,13.0356,4.5309,18.9235,1.5526a.4767.4767,0,0,0-.3657-.8675Z"/><path class="cls-3" d="M104.335,114.8394a52.0691,52.0691,0,0,1,2.223-5.39c.8138-1.5943,1.8954-3.0034,2.7633-4.5576a.5826.5826,0,0,0-.9111-.703,20.6369,20.6369,0,0,0-5.1544,10.3535.56.56,0,0,0,1.0792.2975Z"/><path class="cls-3" d="M87.369,93.5019a33.4962,33.4962,0,0,0,.2813,6.5135c.1074.5049.9668.5349,1.0509,0a20.982,20.982,0,0,0-.4863-6.628c-.0856-.4846-.85-.3618-.8459.1145Z"/><path class="cls-3" d="M85.5622,100.8639c1.42.1471,2.8426.19,4.2695.2109l-.5482-.9553c-.937,2.03-2.6858,4.3608-.9778,6.3753.666.7855,2.5809,1.9765,1.9569,3.3162-.3482.7476-.8971.4794-1.4919.7238a3.1721,3.1721,0,0,0-1.8666,1.6646l.8783-.23c-.7606-.5387-.6727-1.7677-1.7854-1.8622a1.3738,1.3738,0,0,0-.8364.2322c-.1666.088-.2427.3069-.4.391l-.4807.5749q-2.2166-.095-1.2683-1.1088c.1344-.9484,1.6026-2.4485,2.1382-3.2623a12.2965,12.2965,0,0,0,1.6793-2.6641c.5508-1.7569-1.5072-2.5873-1.5491-4.3884-.021-.9041-1.4369-.9056-1.4062,0a6.2921,6.2921,0,0,0,.6245,2.4036c.3535.8626,1.0161.5128.8256,1.9305-.0841.6262-.9861,1.5334-1.3181,2.05-.8567,1.3321-3.53,4.047-2.9341,5.886a2.0818,2.0818,0,0,0,2.67,1.1177c.6431-.2107,1.7488-1.6415,2.1456-1.5519.3829.0865.8207,1.0593,1.2475,1.3607a.6465.6465,0,0,0,.8783-.23c1.0705-2,2.0987-.3441,3.1734-1.39.55-.5346.4144-1.7473.3041-2.388a5.3149,5.3149,0,0,0-1.1445-2.4688c-.5757-.7-1.025-.8437-1.2822-1.7764-.3733-1.3537.7544-2.8325,1.3165-4.0642a.6434.6434,0,0,0-.5482-.9553c-1.4264-.0148-2.8472-.0079-4.2695.1037a.4779.4779,0,0,0,0,.9551Z"/><path class="cls-3" d="M85.8279,104.954c1.1463.0729,2.2935.0981,3.442.0968a.6654.6654,0,0,0,0-1.33c-1.1471-.0443-2.2942-.0622-3.442-.0323a.6332.6332,0,0,0,0,1.2656Z"/></g></svg>