<svg xmlns="http://www.w3.org/2000/svg" viewBox="0 0 436 220"><defs><style>.cls-1{fill:#f7fafc;}.cls-2{fill:#f2f6f9;}.cls-3{fill:#e93a1d;}.cls-4{fill:#ffefaf;}.cls-5{fill:#303030;}.cls-6{fill:#fff;}.cls-7{fill:#fce0de;}</style></defs><title>DN_Service-Ya1-img-10</title><g id="back"><path class="cls-1" d="M128.1922,218.7732a20.26,20.26,0,0,1-5.6023-.7969,20.38,20.38,0,0,1-14.896-1.5718c-.8979-.4375-1.91-.9844-3.1855-1.7207-1.82-1.0508-4.2632-2.5391-7.4683-4.5488-3.5481-2.2251-8.09-5.1294-13.5645-8.6733a20.0146,20.0146,0,0,1-31.9824,1.875s-11.2468-13.3345-22.491-26.7c-5.63-6.6919-11.259-13.3916-15.4792-18.4341-2.1323-2.5474-3.9087-4.6763-5.1514-6.1763-3.1875-3.8477-7.1545-8.6357-6.45-16.8423a19.9993,19.9993,0,0,1,7.0752-13.6133,20.9521,20.9521,0,0,1,9.7241-4.4014c-6.0227-9.4888-6.6145-14.2671-6.3738-19.1206A21.1847,21.1847,0,0,1,19.91,82.6854q.4834-.4058.9851-.7764a19.9981,19.9981,0,0,1,4.665-5.6738q.3358-.282.6875-.5493a20.07,20.07,0,0,1,2.7075-2.76q.5405-.4534,1.1086-.8652a21.3929,21.3929,0,0,1,1.915-1.8184A20,20,0,0,1,55.315,68.5276a21.18,21.18,0,0,1-.01-3.7173,20.0918,20.0918,0,0,1,7.0925-13.729c2.4766-2.0781,11.2056-8.1235,23.0364-2.2251A20.0006,20.0006,0,0,1,92.4666,35.64,20.6833,20.6833,0,0,1,108.21,31.098a19.9993,19.9993,0,0,1,6.4873-10.2363,20.96,20.96,0,0,1,11.99-4.6963,19.9891,19.9891,0,0,1,3.2937-3.5225c6.1272-5.1416,16.4121-7.1953,25.575-.1938.4934.377,1.21.9478,2.1289,1.7075,1.3364,1.1045,3.1626,2.6519,5.574,4.7231a21.5592,21.5592,0,0,1,7.2937-12.1973,19.9991,19.9991,0,0,1,26.9866,1.17c.19.1895,10.6138,10.5947,26.1431,25.8389a20.0107,20.0107,0,0,1,31.0459-6.5049l58.1875,49.9194a20.0052,20.0052,0,0,1,23.8777.3877c7.2451,5.5762,14.8186,11.35,22.322,17.0186q.3691-.3428.7573-.6689a20.0018,20.0018,0,0,1,24.6516-.8315,20.0179,20.0179,0,0,1,18.3364,14.124c4.1929,5.5078,15.7625,18.0933,25.4241,27.9351a20.0081,20.0081,0,0,1,3.6831,22.8315,19.9986,19.9986,0,0,1-7.0552,13.45c-2.2832,1.915-10.5786,7.7339-22.1067,2.792a20.01,20.01,0,0,1-29.8933,7.0762,20.8266,20.8266,0,0,1-6.5181,9.7422c-3.1687,2.66-11.9119,8.2085-24.6208,2.3306a50.18,50.18,0,0,1-5.7019-3.1562,21.3325,21.3325,0,0,1-5.5679,7.1685,19.9962,19.9962,0,0,1-26.1487-.3789q-5.3972-4.8025-11.09-9.8643a20.9751,20.9751,0,0,1-7.0684,11.752,20.0066,20.0066,0,0,1-21.877,2.5332c-3.842,2.7593-13.3047,7.4956-25.6418-.627-.9036-.5952-1.8723-1.2783-2.9331-2.0693a20.0256,20.0256,0,0,1-29.68,3.2007l-4.5491-3.9658c-.7114-.6211-1.4248-1.2432-2.1287-1.8574a20,20,0,0,1-6.5544,10.501c-10.551,8.854-23.1235,5.1113-34.6709-1.4917a20.1276,20.1276,0,0,1-20.55,13.1646,20.1154,20.1154,0,0,1-5.4053.1626A19.9372,19.9372,0,0,1,128.1922,218.7732Z"/><path class="cls-2" d="M116.72,210.1365a19.9589,19.9589,0,0,1-9.865-2.6045L93.31,199.847a19.9941,19.9941,0,0,1-3.2852,3.5122c-11.4541,9.6123-24.4514,2.4487-30.6978-.9937-.0969-.0532-.1943-.1074-.2925-.1616a20.0272,20.0272,0,0,1-25.85-9.4819c-2.6819-3.39-9.8037-11.4487-15.6763-17.8442a20.0005,20.0005,0,0,1,8.2441-32.4443,20.2732,20.2732,0,0,1,5.9783-8.5415,20,20,0,0,1,22.7244-2.0752l2.8528,1.6187a20.0011,20.0011,0,0,1,26.0864-10.6387,19.9237,19.9237,0,0,1,6.3628-11.6421,19.946,19.946,0,0,1,3.062-3.2178,20.7667,20.7667,0,0,1,12.7324-4.8076,20.675,20.675,0,0,1,6.5586-10.1445,19.9456,19.9456,0,0,1,7.998-4.082,20.0264,20.0264,0,0,1,9.9072-13.2681,18.5305,18.5305,0,0,1-3.4028-12.521A20.0306,20.0306,0,0,1,133.7186,49.13a22.6493,22.6493,0,0,1,2.7561-1.9829,20.0237,20.0237,0,0,1,16.6936-11.4785,19.9878,19.9878,0,0,1,3.395-3.6626,21.1267,21.1267,0,0,1,15.91-4.7334,20.6931,20.6931,0,0,1,15.5315-1.916,20.0337,20.0337,0,0,1,19.6577,10.5591c5.9973,8.0415,38.9456,46.79,68.7668,81.2656a19.9987,19.9987,0,0,1,3.1223,21.2661,20.3962,20.3962,0,0,1-3.6265,10.0835c.0044.5933-.0132,1.1855-.0493,1.78a20.993,20.993,0,0,1-7.4841,14.97q-.4314.3618-.8767.6953c-.0073.43-.0264.8638-.0566,1.3047a20.5018,20.5018,0,0,1-7.2212,14.2339,19.9407,19.9407,0,0,1-6.9045,3.7778,20.7817,20.7817,0,0,1-2.885,2.9526,20.0059,20.0059,0,0,1-20.7957,3.0381,20.0043,20.0043,0,0,1-3.9326,4.4517c-5.0527,4.2407-13.6655,6.9336-23.0127,2.1943q-.68.6921-1.4282,1.32c-1.9673,1.6509-12.1816,9.2207-24.9355.7109a19.99,19.99,0,0,1-3.3184,3.5566,20.7467,20.7467,0,0,1-9.6267,4.54c-10.7373,4.3838-22.6409-1.6021-30.6523-5.9443a20.2082,20.2082,0,0,1-3.1672,3.3447A19.99,19.99,0,0,1,116.72,210.1365Z"/></g><g id="Layer_2" data-name="Layer 2"><path class="cls-3" d="M78.8026,122.0648c4.2295.3562,4.5552-2.0332,6.5352-5.4294a31.1515,31.1515,0,0,1,6.4038-8,18.6619,18.6619,0,0,1,8.1855-4.293c1.6724-.3784,3.6738-.27,5.2549-.9814,2.15-.9673,3.2314-3.03,4.3076-4.9631,2.8228-5.07,5.2222-8.4832,11.291-9.12a37.064,37.064,0,1,0-52.5791,34.3484C70.77,121.2086,75.2133,121.7626,78.8026,122.0648Z"/><path class="cls-4" d="M79.3026,122.5648c4.2295.3562,4.5552-2.0332,6.5352-5.4294a31.1515,31.1515,0,0,1,6.4038-8,18.6619,18.6619,0,0,1,8.1855-4.293c1.6724-.3784,3.6738-.27,5.2549-.9814,2.15-.9673,3.2314-3.03,4.3076-4.9631,2.1187-3.8049,3.9985-6.6765,7.3691-8.1433.001-.0964.0073-.1914.0073-.2881,0-18.3013-14.8364-33.6375-33.1377-33.6375A33.9973,33.9973,0,0,0,50.5912,90.4659c0,15.0918,10.5928,27.8184,24.394,31.821C76.4481,122.2992,77.9374,122.45,79.3026,122.5648Z"/><path class="cls-5" d="M100.7328,52.2653c.51-.1582.3589,1.3625.3586,1.6176a8.749,8.749,0,0,0,.0792,1.83.5431.5431,0,0,0,1.04,0,10.1679,10.1679,0,0,0,.0793-2.1112,4.5672,4.5672,0,0,0-.1279-1.54,1.1449,1.1449,0,0,0-1.8764-.5649.4633.4633,0,0,0,.4475.7688Z"/><polygon class="cls-4" points="48.631 5.202 66.622 46.468 68.362 47.141 67.997 52.307 100.664 52.708 119.784 5.09 48.631 5.202"/><path class="cls-3" d="M81.1139,84.5593a12.5918,12.5918,0,0,1-6.699-1.1563c-2.0113-1.1066-3.53-3.3656-3.1655-5.6321a5.9844,5.9844,0,0,1,3.8261-4.2831,17.6551,17.6551,0,0,1,5.8961-.953l3.8893-.1815c2.7983-.1306,5.7115-.2413,8.28.8771s4.662,3.8617,4.0732,6.6005a6.1374,6.1374,0,0,1-4.1566,4.2048,15.8237,15.8237,0,0,1-6.1208.5025l-.964,5.8946A72.4423,72.4423,0,0,0,81.88,83.9547"/><path class="cls-5" d="M81.1139,83.8826c-2.507.0434-5.3179-.0532-7.3308-1.7773a4.4177,4.4177,0,0,1-1.18-5.7853c2.4348-3.7038,8.4123-3.0635,12.258-3.2281,3.9155-.1677,9.1627-.3395,11.2079,3.8077,2.926,5.9332-5.4025,7.072-9.132,6.8859a.7549.7549,0,0,0-.7261.5528q-.4724,2.951-.9285,5.9044l1.3091-.1711c-1.2757-2.2192-2.6307-4.3777-4.0991-6.4746-.52-.7419-1.749-.0348-1.2244.7157,1.4658,2.0968,2.835,4.25,4.0866,6.4819a.724.724,0,0,0,1.3091-.1711q.5114-2.9405.9995-5.8848l-.7261.5528c4.45.2505,11.73-.9149,11.079-7.0213-.6777-6.355-8.29-6.8679-13.1548-6.6551-4.6393.2029-13.219-.2888-14.3126,5.9626-1.0445,5.971,6.1186,7.8615,10.5656,7.6585a.6772.6772,0,0,0,0-1.3535Z"/><path class="cls-3" d="M81.588,96.8934l.0318-6.3249a11.199,11.199,0,0,1,3.6988,5.2732,1.6133,1.6133,0,0,0,.4907.8685,1.4607,1.4607,0,0,0,.82.189,36.1442,36.1442,0,0,1,5.0132.2006,5.5994,5.5994,0,0,1,4.7571,7.9915,6.0091,6.0091,0,0,1-1.9476,3.0042,7.8146,7.8146,0,0,1-4.1493,1.1955,60.4763,60.4763,0,0,1-13.0982-.3681c-2.0923-.2879-4.3513-.7886-5.6858-2.4256-1.6911-2.0744-1.2113-5.25.23-7.5054A4.5463,4.5463,0,0,1,73.5157,97.25a5.1813,5.1813,0,0,1,2.3508-.3532,27.1,27.1,0,0,1,4.798.5293"/><path class="cls-5" d="M82.0831,96.8934c.2154-2.087.1263-4.2276.1348-6.3249l-1.0211.4229a11.564,11.564,0,0,1,2.5092,2.87c.5108.8443.68,1.9042,1.2042,2.7106.6583,1.0131,1.4069.97,2.5567.9947,2.852.0619,6.2723-.1531,7.9514,2.6173a5.6356,5.6356,0,0,1-3.7546,8.2068,41.98,41.98,0,0,1-16.0143-.5164c-3.3134-.7711-5.1531-3.2467-4.1043-6.67,1.287-4.2,5.3686-3.6911,8.916-3.041.9622.1763,1.3748-1.2972.4065-1.4747-3.0565-.56-7.0578-1.5047-9.3,1.2431a8.0626,8.0626,0,0,0-1.5,7.54c.9994,2.6317,3.6641,3.6328,6.2316,4.0813a54.3488,54.3488,0,0,0,12.6.5654c2.9832-.1834,5.945-.4593,7.5513-3.3195,1.2642-2.251,1.613-5.4777.08-7.6862-1.654-2.3828-4.7028-2.8162-7.3863-2.8663-1.1229-.0209-2.3869.3623-3.2059-.5757a10.1575,10.1575,0,0,1-.6154-1.4945,12.356,12.356,0,0,0-3.28-4.0308.6063.6063,0,0,0-1.0211.4229c-.0126,2.0969-.1234,4.2363.0712,6.3249a.4954.4954,0,0,0,.99,0Z"/><path class="cls-5" d="M66.86,123.076C48.3143,114.3566,42.0853,88.7021,51.787,71.2591,61.368,54.0331,84.9,49.39,101.88,57.8044c11.626,5.7614,17.3118,18.2057,18.2176,30.6518.07.9571,1.57.9647,1.5,0-.81-11.1311-5.1537-22.2993-14.353-29.1224C99.0315,53.2422,87.8523,51.22,77.857,52.6295,68.0855,54.0072,58.8192,58.8577,52.863,66.84c-6.2221,8.3386-8.0528,19.364-6.498,29.5032,1.82,11.8668,8.6889,22.8333,19.7377,28.0279.8686.4084,1.631-.8843.7571-1.2952Z"/><path class="cls-5" d="M73.5828,121.0854c-5.2555-1.9-10.84-4.7134-14.5882-8.9709-3.538-4.0182-5.4177-9.8181-6.5793-14.966-2.2661-10.0423-.1994-21.8758,6.996-29.5513C69.8421,56.47,89.0738,53.8506,101.82,62.43c9.3995,6.3267,14.1919,16.7661,14.2962,27.9253a.75.75,0,0,0,1.5,0c-.0958-10.2543-3.9383-20.1094-11.8771-26.8219a33.0965,33.0965,0,0,0-23.6333-7.582,36.0937,36.0937,0,0,0-22.7107,9.53c-7.47,7.1858-10.353,18.3723-9.0555,28.4729.7866,6.1235,2.9194,13.1712,6.7129,18.1486,3.8782,5.0885,10.2455,8.3,16.1318,10.4288.9093.3288,1.3011-1.12.3988-1.4464Z"/><path class="cls-5" d="M68.253,51.4211c3.612-15.6257,7.9309-30.73,14.2363-45.5029.323-.7568-.7792-1.4252-1.1232-.6565A203.0463,203.0463,0,0,0,67.3716,51.1781c-.1056.5707.7474.8225.8814.243Z"/><path class="cls-5" d="M100.9672,51.9147c3.7716-7.1581,6.36-15.1445,9.4017-22.6378q4.772-11.7566,9.54-23.5148c.3127-.7721-.9394-1.108-1.2487-.3442Q113.9919,16.946,109.3388,28.48c-3.07,7.5991-6.826,15.2477-9.1266,23.1161a.4149.4149,0,0,0,.755.3183Z"/><path class="cls-5" d="M64.434,56.249c.57-2.0584-.3312-4.0008.0766-6.0306.4984-2.4808,2.2841-1.8641,4.0086-2.5066a.5923.5923,0,0,0-.3146-1.1413c-1.739.3811-3.2433.1143-4.2842,1.9066-1.3589,2.34.2959,5.1131-.21,7.5725a.3753.3753,0,0,0,.7232.1994Z"/><path class="cls-5" d="M102.3375,49.3521a9.3286,9.3286,0,0,1,2.277.1689c.92.4646.686,1.4988.67,2.3125a25.9229,25.9229,0,0,1-.6436,5.1566.5571.5571,0,0,0,1.0735.296c.579-2.2378,1.29-5.2377.7264-7.54-.46-1.88-2.5483-1.5153-4.103-1.4433a.5248.5248,0,0,0,0,1.0488Z"/><path class="cls-5" d="M67.1276,50.8539c-1.3628.9177-1.0237,3.5645-.614,4.9116a.5475.5475,0,0,0,1.07-.1449c-.028-.7647-.1969-1.5151-.1915-2.2848.0052-.7407.322-1.4154.3259-2.1429a.3955.3955,0,0,0-.5907-.339Z"/><path class="cls-5" d="M67.9972,52.8344c5.4557-.1291,10.8779-.5719,16.3432-.513,5.4679.0589,10.8731.6441,16.324.92.59.03.741-.9507.1417-1.0474A113.9357,113.9357,0,0,0,84.34,51.127a109.9969,109.9969,0,0,0-16.4834.6715c-.593.082-.4442,1.05.14,1.0359Z"/><path class="cls-5" d="M67.0742,46.3435c-1.3416-7.3556-4.8925-14.78-8.52-21.2621-1.9416-3.47-4.1448-6.7076-5.6086-10.428C51.59,11.2063,50.5392,7.6565,48.76,4.39c-.4048-.7431-1.5287-.0834-1.1333.6624,1.8955,3.5752,3.0062,7.4436,4.5826,11.1545a77.69,77.69,0,0,0,4.9036,8.68C61.164,31.8118,63.49,39.1033,66.17,46.5927a.4692.4692,0,0,0,.904-.2492Z"/><path class="cls-5" d="M78.0324,50.9055c2.5511-7.6668,4.6605-15.48,7.1765-23.1606,2.5172-7.6846,5.36-15.2429,8.0305-22.8723.2452-.7005-.8312-.9678-1.0961-.3022C89.1592,12.0675,86.591,19.7662,84.1024,27.44c-2.4859,7.6651-5.0059,15.4035-6.7932,23.2663a.3753.3753,0,0,0,.7232.1994Z"/><path class="cls-5" d="M89.667,51.6339c2.5786-7.5624,5.09-15.1424,7.9267-22.614S103.79,14.3032,106.71,6.8742c.2352-.5982-.7495-1.0089-1.0388-.438a224.2663,224.2663,0,0,0-9.0971,21.8077c-2.8891,7.6092-5.6265,15.2976-7.8505,23.13a.49.49,0,0,0,.9436.26Z"/><path class="cls-5" d="M59.9039,5.6668c1.6517,4.8054,3.5969,9.5209,5.43,14.26,1.7446,4.5109,3.2515,9.2285,5.3723,13.5765.2656.5445,1.1346.1616.9692-.4086-1.4232-4.9073-3.6061-9.6766-5.4407-14.4449-1.7254-4.4843-3.3657-9.0175-5.2594-13.4341-.26-.6069-1.286-.1741-1.0709.4515Z"/><path class="cls-5" d="M72.4255,10.3008a40.6524,40.6524,0,0,0,2.1034,6.26c.6553,1.8979,1.0963,3.8583,1.7736,5.7482.2575.7184,1.3946.426,1.1583-.3193-1.2739-4.0168-2.2139-8.2973-4.3017-11.998-.2367-.42-.8065-.1181-.7336.3093Z"/><path class="cls-6" d="M43.0828,147.36c1.9079-.2415,3.3659-1.4482,5.0394-2.3221a24.7926,24.7926,0,0,1,6.5945-2.3081,23.2692,23.2692,0,0,1,13.5692,1.3436,2.0539,2.0539,0,0,0,2.9487-1.2c2.311-6.2376,9.8319-9.3669,15.9626-7.2838a2.0756,2.0756,0,0,0,2.0614-.5449c2.6637-3.0092,7.0432-13.8331,12.5035-10.0721a2.1371,2.1371,0,0,0,3.1193-1.269c1.03-4.5326,4.8054-6.7806,9.222-6.921,2.1788-.0693,2.8939-3.5931.54-3.99-6.3269-1.0667-12.4734,3.6814-13.8572,9.782l3.1193-1.269c-3.1138-2.1426-7.0845-1.3339-9.9828.8082-3.4666,2.5621-4.8737,6.7835-7.66,9.9347l2.0614-.5449c-8.5542-2.9021-17.8915,2.0021-20.96,10.3026l2.9487-1.2a28.0239,28.0239,0,0,0-15.5477-1.94c-4.0789.65-11.4371,2.6413-12.9247,7.0616a1.2953,1.2953,0,0,0,1.243,1.6317Z"/><path class="cls-6" d="M119.0127,106.1658a31.8015,31.8015,0,0,1,4.0613-5.5413c.89-.8527,4.491-4.05,5.7754-2.7361a2.0678,2.0678,0,0,0,3.4915-1.4462c.0514-3.0782-.0327-7.3135,2.8748-9.2474,2.63-1.7491,4.6586,1.2986,7.255.1028,2.2215-1.0231,2.1711-4.6736,3.4093-6.5734a12.7324,12.7324,0,0,1,7.1335-5.0731,1.9158,1.9158,0,0,0-1.0177-3.6914,14.4756,14.4756,0,0,0-8.444,5.2022,15.584,15.584,0,0,0-2.5937,4.5084c-.166.4509-.2894,1.7708-.5792,2.0141.738-.62-.5943-.8644-1.2459-1.0577-3.154-.9358-6.4992.6967-8.4325,3.1846-2.3243,2.9913-2.4365,7.0051-2.45,10.6309l3.4915-1.4462c-2.78-2.7705-6.73-.9174-9.38,1.0747-3.0487,2.2919-5.5631,5.5183-6.0718,9.3578-.2074,1.5653,2.0056,1.8017,2.7224.7374Z"/><path class="cls-6" d="M112.6653,135.9376c2.7229-7.3384,10.9592-12.0531,18.6436-10.2505a1.9512,1.9512,0,0,0,2.3631-2.3631,10.7557,10.7557,0,0,1,7.5913-11.4734,2.0348,2.0348,0,0,0,1.3772-2.4255c-.575-3.8926,1.8077-7.53,4.8684-9.7045a20.839,20.839,0,0,1,4.8746-2.4971c.7922-.2922,6.6257-2.3853,6.5642-.5744-.0677,1.9961,3.2326,2.5292,3.56.4818,1.3455-8.4083-10.9019-4.0863-14.5834-2.2224-5.913,2.9935-10.0819,8.7674-9.0867,15.565l1.3772-2.4255a14.6125,14.6125,0,0,0-10.2479,16.2974l2.3631-2.3631c-9.6408-2.1559-20.02,3.48-22.8592,13.0748-.6139,2.0749,2.4642,2.8478,3.1942.8806Z"/><path class="cls-6" d="M31.0555,163.2367c.9774-1.8726,2.8457-2.4458,4.8328-2.6506.6716-.0692,6.7988.0169,6.0106,1.2433-.8617,1.3407.5862,3.386,2.1588,2.8081,3.9211-1.4409,8.3068-2.86,12.5023-1.783a8.9158,8.9158,0,0,1,6.7854,7.138c.3408,1.91,3.414,1.4508,3.3608-.4548-.1282-4.5872-3.4616-8.142-7.59-9.791-5.221-2.0854-11.02-.6715-16.0746,1.2041L45.2,163.7591a4.1533,4.1533,0,0,0-.8688-5.37c-1.6385-1.4363-4.144-1.53-6.2132-1.5626-4.0328-.0642-8.486.983-9.9041,5.2125a1.5615,1.5615,0,0,0,2.8416,1.198Z"/><path class="cls-6" d="M76.0489,157.7088a10.1377,10.1377,0,0,1,5.718-6.165c.9188-.4231,8.34-3.0228,8.5836-.8266a1.7988,1.7988,0,0,0,3.595,0c.9842-7.6769,10.425-9.9693,15.3919-4.4859a1.8575,1.8575,0,0,0,3.0805-.8133c1.8816-7.2381,9.34-10.1676,15.9358-7.1033,2.0391.9474,3.777-1.8589,1.79-3.0626-8.327-5.0447-18.9214.08-21.28,9.186l3.0805-.8133c-7.4064-8.1627-20.2361-3.4825-21.5934,7.0924h3.595c-.6005-5.5245-7.5243-4.5731-11.3173-3.3251-4.4536,1.4654-9.36,4.7415-9.5411,9.9159-.0625,1.7847,2.4117,1.9312,2.9618.4008Z"/><path class="cls-7" d="M61.45,136.4235c3.4236,2.6082,6.4894-3.9753,9.6815-2.2692a1.7578,1.7578,0,0,0,2.5513-1.0379c.5418-2.1034,2.41-2.8008,4.4046-2.427,1.7061.32,3.0707-2.1469,1.27-3.0129-3.7047-1.7821-8.0109.6863-9.0242,4.5165l2.5513-1.0379a5.7752,5.7752,0,0,0-5.3825-.1,25.6556,25.6556,0,0,0-2.7293,1.5987c-1.0821.642-2.3329.8323-3.3228,1.5845a1.2912,1.2912,0,0,0,0,2.1857Z"/><path class="cls-7" d="M88.4856,121.7553a12.8878,12.8878,0,0,1,6.0148-2.699c1.8527-.2046,3.7526.5457,5.43-.5244,1.5458-.9864,2.2191-2.7583,3.8936-3.69,1.91-1.0626,4.0747-1.2462,6.0658-2.0571,1.9238-.7835,1.8969-3.9565-.5275-3.8979a17.4658,17.4658,0,0,0-6.7407,1.7649,12.2929,12.2929,0,0,0-2.646,1.6432c-.8085.6657-1.3705,1.8284-2.1585,2.4242-.6548.4951-1.671.2433-2.551.3232a13.08,13.08,0,0,0-3.5.8139,11.2891,11.2891,0,0,0-5.2044,3.9752c-.8195,1.1194.8052,2.7279,1.924,1.924Z"/><path class="cls-7" d="M117.5146,96.715c1.7243-2.5783,4.6315-3.3294,7.5743-3.0746,1.8814.1629,1.9848-2.5291.42-3.1-4.0625-1.4814-8.7043.9372-10.5033,4.7076a1.4543,1.4543,0,0,0,2.5095,1.4668Z"/></g></svg>