<svg xmlns="http://www.w3.org/2000/svg" viewBox="0 0 224 206"><defs><style>.cls-1{fill:#f7fafc;}.cls-2{fill:#e93a1d;}.cls-3{fill:#ffefaf;}.cls-4{fill:#303030;}</style></defs><title>DN_Service-Ya1-img-7</title><g id="back"><path class="cls-1" d="M172.6478,193.0918c-12.5249.001-25.9194-9.7275-36.5066-17.4165q-.8613-.6255-1.7485-1.2783a19.9818,19.9818,0,0,1-2.8994,3.0015,20.3284,20.3284,0,0,1-19.4539,3.6377,20.0826,20.0826,0,0,1-3.2546-.34,19.7537,19.7537,0,0,1-5.3083.0337c-5.1177,2.0576-10.9131,1.7266-17.3049-1-1.4478-.6177-3.3745-1.49-5.8906-2.668q-1.9058-.8921-4.2993-2.0356a20.0046,20.0046,0,0,1-33.9229,5.6279s-8.7065-10.3223-17.4-20.6562c-4.3545-5.1758-8.7058-10.355-11.9617-14.2451-1.6506-1.9722-3.0234-3.6177-3.98-4.7734-.5266-.6357-.9385-1.1367-1.217-1.48-8.2849-10.2114-5.01-22.2422,2.2781-28.3774a20.63,20.63,0,0,1,9.3455-4.3657c-11.45-14.8291-12.9673-20.95-12.646-27.4238A21.2925,21.2925,0,0,1,12.151,65.87a20.002,20.002,0,0,1,4.2432-7.564A20.3568,20.3568,0,0,1,19.54,53.91a20.8214,20.8214,0,0,1,4.2415-4.8755A20.0038,20.0038,0,0,1,45.9757,46.666a20.5139,20.5139,0,0,1-.1106-4.5425,20.0949,20.0949,0,0,1,7.0925-13.73c2.4973-2.0957,11.5994-8.4141,23.9011-1.7715,1.4495.7827,3.0969,1.8037,5.1846,3.2134,1.8914,1.2764,4.1636,2.8862,6.87,4.8672a19.9107,19.9107,0,0,1,5.7234-7.91A20.242,20.242,0,0,1,116.7494,24.25a19.9291,19.9291,0,0,1,5.0371-6.376,20.2041,20.2041,0,0,1,20.5171-3.18,20.002,20.002,0,0,1,25.5149,3.0117c.4565.4844,11.3113,12.0068,22.3279,24.3511,24.2195,27.1392,27.3174,33.0459,26.7864,42.13A20.5743,20.5743,0,0,1,212.8634,95.3l3.7817,4.5068a19.9985,19.9985,0,0,1-2.4646,28.1743,20.845,20.845,0,0,1-6.136,3.5068,19.9993,19.9993,0,0,1-4.7908,24.7837,21.1,21.1,0,0,1-13.0747,4.6328A19.9981,19.9981,0,0,1,186.78,187.876,21.3455,21.3455,0,0,1,172.6478,193.0918Z"/></g><g id="Layer_2" data-name="Layer 2"><path class="cls-2" d="M128.829,163.0227c2.46.0877,3.907-20.1381,4.6126-22.2831.2738-.8323,3.91-11.5495,2.9447-11.5989-5.2806-.27-10.4891-.63-15.7267-1.3588-4.7818-.6658-9.6651.0057-14.4733-1.1243,1.3755.3233-2.2562,11.1766-2.6508,12.2254,1.6046-.1808,2.97.5045,4.5308.4232,1.4176-.0739,2.8667-.79,4.2677-1.0383,2.3693-.42,5.2138-.5671,4.7335,2.7134-.8552,5.8386-11.3857,8.0086-15.0274,3.8971-2.39,3.7919-3.5552,11.1638-3.2954,15.7507A297.8434,297.8434,0,0,0,128.829,163.0227Z"/><path class="cls-3" d="M116.2179,20.7745a21.94,21.94,0,0,0-3.4263.2943,11.9776,11.9776,0,1,0-11.4855,5.5983,21.8172,21.8172,0,0,0-3.5,27.8356c2.1561-11.8548,11.1477-20.751,21.9219-20.751,7.5526,0,14.2181,4.3832,18.28,11.08.0694-.71.1089-1.4293.1089-2.1575A21.8994,21.8994,0,0,0,116.2179,20.7745Z"/><path class="cls-4" d="M91.6476,144.1359c-.9151,4.8215-3.88,8.56-5.7244,13.0006-1.9084,4.5943-1.5423,9.7762-1.2671,14.6407a70.3241,70.3241,0,0,0,2.7927,15.8888A63.9922,63.9922,0,0,0,93.8736,203.2c.379.61,1.5006.2183,1.2155-.5125-1.966-5.0394-4.37-9.828-5.9335-15.0327a70.1957,70.1957,0,0,1-2.9-16.7421c-.2659-5.35-.3467-10.3984,2.1186-15.2854,1.8487-3.6646,4.2261-7.1124,4.4758-11.3288a.615.615,0,0,0-1.2027-.1628Z"/><path class="cls-4" d="M130.8681,150.01c7.8447,15.2163,4.4052,32.7072,2.7378,48.9352-.0986.9593,1.4021.9524,1.5,0,1.7011-16.5558,5.0537-34.1819-2.9426-49.6923-.4425-.8583-1.7373-.1-1.2952.7571Z"/><path class="cls-4" d="M126.4262,120.215c-.6124,2.655-.4465,5.2438-.6875,7.9345-.0861.9612,1.4144.9554,1.5,0,.2286-2.553.053-5.0173.6339-7.5357.2167-.9395-1.2292-1.3405-1.4464-.3988Z"/><path class="cls-4" d="M71.3353,90.239c11.2519.7856,22.58.8461,33.8558.9463,11.2851.1,22.58.0613,33.8593-.3476a.6391.6391,0,0,0,0-1.2773c-22.5912.5584-45.13-.1351-67.715-.2412a.46.46,0,0,0,0,.92Z"/><path class="cls-4" d="M71.6137,90.9842c-.3765,3.31-.59,6.6368-.8447,9.9583a.5588.5588,0,0,0,.55.55c6.7394.385,13.4866.8462,20.2356,1.0151.7381.0185.7221-1.0836,0-1.1367-6.7323-.4949-13.4915-.7-20.2356-.9788l.55.55c.242-3.3175.5269-6.6337.6467-9.9583.0213-.5924-.8383-.5628-.9023,0Z"/><path class="cls-4" d="M138.6463,90.31c.5489,3.1246,1.0752,6.2562,1.4967,9.401.1866,1.3918.4222,3.1192-1.374,3.5648a5.7613,5.7613,0,0,1-2.1469-.2331,12.6935,12.6935,0,0,0-2.6622-.346c-3.801.1593-5.5634,4.1911-5.56,7.5157a23.9331,23.9331,0,0,0,.3019,3.2861,14.5731,14.5731,0,0,1,.393,2.931c-.1123,1.4108-1.2862,1.9949-2.4335,2.4977a39.7623,39.7623,0,0,1-8.6827,2.3455c-3.3379.6108-16.4276,3.1388-16.7751-2.5949-.0428-.7059-1.1911-.9688-1.3178-.1784-.8855,5.5238,7.8551,5.2318,11.1368,5.0647a54.25,54.25,0,0,0,16.4264-3.467c.8848-.3356,2.1994-.6455,2.7478-1.5319.621-1.0037.2487-2.3942.104-3.4705-.292-2.1721-.8806-4.5125-.418-6.7033.4355-2.0626,1.8115-4.1949,4.0774-4.464,1.4511-.1724,2.8968.538,4.3476.5379,2.0192,0,3-1.1487,3.0172-3.1366.0317-3.63-1.2141-7.6811-1.87-11.2414-.0979-.5309-.9005-.3043-.808.2227Z"/><path class="cls-4" d="M83.1543,103.7257c-1.5519,6.7894-2.9019,13.6189-4.2629,20.4492-.7421,3.7241-3.48,9.9686,1.9822,10.9217,7.3607,1.2844,14.8019,3.1232,22.2424,3.8209.6575.0617.8164-1.0535.1573-1.1625-6.6221-1.0945-13.188-2.5193-19.8155-3.5813-2.176-.3487-4.3816-.3387-4.577-3.2055-.0928-1.3617.587-3.1449.855-4.5011l.8685-4.3944c1.1914-6.0287,2.3692-12.0556,3.392-18.115.0917-.5434-.7147-.7885-.8419-.2321Z"/><path class="cls-4" d="M102.799,138.6428c2.2691,1.9785,4.8688,1.5241,7.5866.8026,1.1635-.3089,2.3125-.6751,3.4873-.9414a3.0487,3.0487,0,0,1,2.2264-.0771c1.4242.8114.7309,2.3668.1737,3.3543a10.606,10.606,0,0,1-8.9169,4.9928,5.695,5.695,0,0,1-3.1715-.7957c-.7161-.4646-1.0086-1.4176-1.69-1.7973a10.7692,10.7692,0,0,0-2.9918-.52q-1.6076-.26-3.2154-.5182-6.7868-1.0909-13.5764-2.1645-3.1457-.5-6.2908-1.0047a18.8465,18.8465,0,0,1-3.7865-.61c-2.3952-.9713-2.1985-3.3454-1.8722-5.4136q2.4147-15.3058,4.7809-30.6188c.1061-.6917-.9489-.994-1.0622-.2928q-2.4316,15.0453-4.7831,30.1031c-.4642,2.9518-1.6984,6.2415,1.9725,7.2374,4.2722,1.159,8.9736,1.4552,13.3477,2.1474q6.8572,1.0851,13.7146,2.1686c1.0325.1645,2.4545.1686,3.3432.82.3873.2838.6641.7862,1.0545,1.0984a6.32,6.32,0,0,0,3.5988,1.2784c4.2089.2464,10.82-2.8445,11.2428-7.683a2.6807,2.6807,0,0,0-3.2412-2.9353c-3.5418.5129-8.0711,3.4864-11.2971.7363-.4357-.3714-1.071.2528-.6339.6339Z"/><path class="cls-4" d="M99.7647,137.9068a43.5978,43.5978,0,0,0,4.227-1.69c.5855-.2721.1708-1.2675-.4425-1.05a43.6332,43.6332,0,0,0-4.1977,1.76c-.5446.2606-.1615,1.1769.4131.98Z"/><path class="cls-4" d="M104.3264,139.1945c.5424-2.6975,1.0864-5.396,1.567-8.1054.2451-1.3817.174-3.4589,1.9362-3.8071,1.5777-.3117,4.1245.3937,5.7289.5437,7.7555.7251,15.5122,1.4485,23.2765,2.0666l-.6315-.8289c-2.9939,10.8643-5.8089,22.0579-7.0319,33.2814-.0677.6208.9718.7612,1.0934.148,2.2028-11.1059,4.1465-22.1578,7.2014-33.0812a.6647.6647,0,0,0-.6315-.8289c-9.2315-.92-18.4817-1.78-27.7336-2.4764-2.9988-.2256-3.5378.519-4.0745,3.3924-.5861,3.1377-1.2054,6.2733-1.644,9.4358-.0839.6054.8168.8908.9436.26Z"/><path class="cls-4" d="M100.6849,144.3506c-1.3274,5.3694-1.7256,10.9328-2.9111,16.3341a.6008.6008,0,0,0,.4155.7318c9.2922,1.4049,18.9659,2.6375,28.3785,2.3609a.61.61,0,0,0,0-1.2187c-9.4193-.8118-18.8215-1.1583-28.22-2.3107l.5736.753c1.0828-5.427,1.8178-10.9231,2.7582-16.3762.1107-.6417-.8324-.93-.9944-.2741Z"/><path class="cls-4" d="M84.9825,103.6468a70.4967,70.4967,0,0,1,7.68,24.3737c.0886.8006,1.3488.82,1.2715,0a57.9935,57.9935,0,0,0-7.9549-24.9563.5776.5776,0,0,0-.9967.5826Z"/><path class="cls-4" d="M138.87,103.4563c.3374,6.39,2.4807,12.6583,4.7115,18.6035,2.4316,6.48,5.117,12.87,7.7067,19.2884,2.3279,5.77,4.6233,11.6164,8.1329,16.7929,3.4239,5.05,7.5587,9.5034,10.45,14.9191.3536.6624,1.2754.08.9866-.5767-2.3523-5.3512-6.5273-9.5786-9.8527-14.31-3.7934-5.3969-6.219-11.5283-8.68-17.6067-4.9517-12.228-10.3147-24.1636-12.6254-37.223-.0827-.4674-.8536-.36-.8287.1122Z"/><path class="cls-4" d="M128.3923,107.9428a54.06,54.06,0,0,1,9.5045,16.5676c1.9688,5.876,3.0476,12.0085,5.2066,17.8271,4.1085,11.0726,10.983,21.0208,18.01,30.4226.4437.5937,1.4531.04,1.0169-.5944-7.1259-10.3693-14.7059-20.5651-18.6819-32.6581-1.941-5.9037-2.9687-12.082-5.2551-17.8762a41.802,41.802,0,0,0-9.13-14.36c-.4448-.4412-1.0426.2047-.6712.6712Z"/><path class="cls-4" d="M172.4664,177.6653c.2684,1.4072,1.1433,2.3425,1.8194,3.5638,1.291,2.3319.1521,4.0329-2.2959,4.7078-2.3864.6579-5.082.2861-6.7027,2.523-.3442.4751.4029,1.0226.8006.6177,2.5-2.5446,6.978-.9586,9.2418-3.8571,2.2137-2.8343-1.6039-5.1309-2.1061-7.764-.0946-.4958-.8514-.2858-.7571.2087Z"/><path class="cls-4" d="M166.5421,175.5891a3.4209,3.4209,0,0,0,.324,5.1719c.4245.3113.9454-.3753.5609-.727a2.5964,2.5964,0,0,1-.1682-3.7281.5071.5071,0,0,0-.7168-.7168Z"/><path class="cls-4" d="M170.0035,180.2716c2.1867-4.1139,4.2632-8.2881,6.3342-12.4611.3386-.6822-.6784-1.2849-1.0271-.6-2.1157,4.1535-4.2287,8.3122-6.228,12.5232-.2906.612.5949,1.1513.9208.5382Z"/><path class="cls-4" d="M160.8116,195.645c2.0356-2.7955,3.8356-5.7967,5.6845-8.7178.3892-.6149-.577-1.1711-.9714-.5678-1.89,2.892-3.8752,5.7727-5.5732,8.7829a.4984.4984,0,0,0,.86.5027Z"/><path class="cls-4" d="M161.8206,173.2195c-.403,3.3959.982,7.3181,2.3849,10.3594.248.5376,1.1692.1556.9639-.4063a44.6886,44.6886,0,0,1-1.55-4.9667c-.4018-1.6865-.477-3.439-.9412-5.1024a.4388.4388,0,0,0-.8575.116Z"/><path class="cls-4" d="M113.9133,65.9687c.67,4.552-1.9477,12.7621,4.8623,13.8329,3.4567.5435,6.4089-1.7544,9.7619-1.9357,4.0691-.22,6.24,3.5707,5.2246,7.1958-.1785.6371.783,1.0788,1.0924.4605,2.07-4.136-1.4117-9.0807-5.8863-9.0532-3.7479.023-7.9929,3.5559-11.55,1.3492-3.805-2.36-1.6245-8.3894-2.5835-12.1034-.1577-.6106-1.008-.3373-.921.2539Z"/><path class="cls-4" d="M111.6448,66.1456c6.4654,1.3363,13.0076-3.7911,13.9752-10.1536.1112-.7314-.9935-1.061-1.13-.3115-1.1224,6.1632-6.6492,9.85-12.7159,9.51a.4885.4885,0,0,0-.1293.9553Z"/><path class="cls-4" d="M103.1721,43.5363a3.6526,3.6526,0,0,0-1.5034-.9528,2.9659,2.9659,0,0,0-1.6239.03,3.2067,3.2067,0,0,0-1.9582,2.5943c-.4107,2.2679.6651,5.0147,2.9278,5.831.6089.22,1.04-.78.4447-1.0549a4.1609,4.1609,0,0,1-2.1917-3.8462,2.55,2.55,0,0,1,.9637-2.2392,3.18,3.18,0,0,1,2.527.3461c.4506.2976.8228-.3978.414-.7083Z"/><path class="cls-4" d="M126.2153,28.2738c1.7186-.9705,5.0886,2.4437,6.0369,3.433a18.6573,18.6573,0,0,1,3.48,5.1383,19.0693,19.0693,0,0,1,1.0411,12.6294.5894.5894,0,0,0,1.1357.3131,18.5039,18.5039,0,0,0-1.9777-15.4018,18.6993,18.6993,0,0,0-5.2048-5.6265c-1.41-.9888-3.444-2.4666-5.0438-1.1758-.3972.32.1108.9284.5325.69Z"/><path class="cls-4" d="M121.8976,24.396A13.3844,13.3844,0,0,1,135.7647,28.91c.4138.5076,1.31-.1727.9157-.7065-3.3567-4.5489-9.6353-6.789-15.03-4.7054a.4662.4662,0,0,0,.2477.8984Z"/><path class="cls-4" d="M122.6364,20.8977a10.2333,10.2333,0,0,0-12.5627-1.96c-.532.3045-.064,1.08.4761.8146a9.9755,9.9755,0,0,1,11.4733,1.759.4338.4338,0,0,0,.6132-.6132Z"/><path class="cls-4" d="M101.5841,22.1618A31.07,31.07,0,0,0,94.2418,42.85,16.5251,16.5251,0,0,0,97.8053,52.944c2.5846,3.42,4.7877,6.3492,5.068,10.7554.2877,4.5234-.046,9.9327-2.6268,13.8021a9.6615,9.6615,0,0,1-5.56,4.205c-2.211.5318-4.433-.1155-6.5723-.6587-2.6881-.6825-5.8005-1.4706-8.2261.3637-2.5216,1.907-2.6559,5.3457-2.2805,8.2105.0858.6548,1.1228.6768,1.0488,0-.236-2.1582-.2866-4.6,1.1245-6.396,1.7571-2.2367,4.4638-1.8718,6.924-1.2959,2.968.6948,5.9575,1.75,8.9844.7395,6.7751-2.2626,8.23-10.145,8.3809-16.3411.071-2.92-.0676-5.9476-1.47-8.5774-1.9313-3.6211-5.2807-6.3477-6.516-10.3434-1.2543-4.0571-.5792-8.4852.3253-12.54a27.7459,27.7459,0,0,1,5.9123-11.9687c.4288-.508-.293-1.2464-.7375-.7375Z"/><path class="cls-4" d="M112.6047,14.3878C115.7107,4.8352,100.8082-1.27,93.9628,3.6612A11.1267,11.1267,0,0,0,90.4661,8.755a31.1437,31.1437,0,0,0-2.4441,8.2766c-.4527,4.2837,1.54,9.2176,6.2572,9.8615.7111.0971,1.0455-.9654.3053-1.1074-4.7854-.9178-5.8424-6.1934-4.95-10.2843.7077-3.2442,1.97-7.7573,4.3888-10.1325,2.8428-2.7916,7.9869-2.2206,11.4615-1.0574,4.1658,1.3946,7.6665,5.2228,6.3517,9.8646a.3988.3988,0,0,0,.7684.2118Z"/><path class="cls-4" d="M92.93,20.5738a7.596,7.596,0,0,0,5.8139,3.0944c.7566.0356.72-1.0712,0-1.1543a7.8351,7.8351,0,0,1-4.9581-2.6c-.4092-.4479-1.2285.1572-.8558.66Z"/><path class="cls-4" d="M97.1713,18.7775a4.3732,4.3732,0,0,1,2.63,1.383c.4091.427,1.1924-.142.8374-.6461a3.9676,3.9676,0,0,0-3.34-1.6748c-.5138.01-.6791.8611-.1269.938Z"/><path class="cls-4" d="M107.441,18.8354a10.4142,10.4142,0,0,0,2.7251-7.2308.4808.4808,0,0,0-.9609,0,10.7061,10.7061,0,0,1-2.3732,6.6217c-.3371.4232.229,1.0283.6091.6091Z"/><path class="cls-4" d="M105.6853,24.0043a12.6219,12.6219,0,0,1,10.2058-2.1795A.563.563,0,0,0,116.19,20.74a12.14,12.14,0,0,0-11.0907,2.5051c-.4141.351.1379,1.08.5858.7592Z"/><path class="cls-4" d="M115.8869,31.762c-.2661,3.9018-4.1954,6.2871-7.3058,3.336a.5764.5764,0,0,0-.9726.4029c.048,4.059-2.0514,3.7414-5.1227,4.4462a3.0477,3.0477,0,0,0-2.575,3.4544.5189.5189,0,0,0,1.0371,0c.0752-3.113,3.038-2.2213,5.1328-3.0471,2.0236-.7977,2.6273-2.8364,2.6673-4.8534l-.9726.4029c3.4807,3.3932,9.899.9648,8.9345-4.2531-.09-.489-.7925-.334-.8229.1114Z"/><path class="cls-4" d="M113.3657,57.8123A3.9539,3.9539,0,0,0,117.14,59.509c.6922-.0747.7294-1.1041,0-1.1074a5.191,5.191,0,0,1-3.1212-1.2426c-.4076-.2856-.8755.2619-.6534.6534Z"/><path class="cls-4" d="M110.2626,39.2873a14.7434,14.7434,0,0,1,6.943-.0873.5249.5249,0,0,0,.2788-1.0114,10.3787,10.3787,0,0,0-7.4461.285c-.4867.2012-.3171.9567.2243.8136Z"/><path class="cls-4" d="M121.9912,39.7409c1.1126.4249,2.2236.8531,3.3672,1.1881.6756.1979.9022-.7776.2835-1.0283-1.1039-.4473-2.24-.8021-3.375-1.16-.6468-.2038-.8876.7664-.2757,1Z"/><path class="cls-4" d="M110.2336,46.6341c1.8534-1.6113,5.0354-2.1035,5.6685.9481.1294.6237,1.011.4291,1.0531-.1425a3.3111,3.3111,0,0,0-2.7541-3.24,4.9614,4.9614,0,0,0-4.5724,1.829.428.428,0,0,0,.6049.6049Z"/><path class="cls-4" d="M121.1843,48.4558c.5323-1.4649,2.1987-1.0844,2.72.1436.2451.5769,1.0314.131.9424-.3973-.4212-2.5015-4.0285-2.3385-4.5782.0014a.475.475,0,0,0,.9153.2523Z"/></g></svg>