<svg xmlns="http://www.w3.org/2000/svg" viewBox="0 0 264 205"><defs><style>.cls-1{fill:#f7fafc;}.cls-2{fill:#e93a1d;}.cls-3{fill:#ffefaf;}.cls-4{fill:#303030;}.cls-5{fill:#172df8;}.cls-6{fill:#777;}</style></defs><title>DN_Service-Ya1-img-5</title><g id="back"><path class="cls-1" d="M135.6927,202.45a20.4047,20.4047,0,0,1-6.1218-.95,20.8077,20.8077,0,0,1-15.0691-1.9038c-.9338-.4844-1.9924-1.0918-3.3318-1.9121-1.9409-1.1885-4.5513-2.8735-7.98-5.1509-3.6831-2.4463-8.3655-5.6147-13.9856-9.4639a20.0137,20.0137,0,0,1-31.9666,1.8516s-12.6433-14.99-25.2834-30.0151c-6.3279-7.5215-12.655-15.0522-17.3987-20.72-2.3938-2.86-4.3882-5.25-5.7834-6.9341-3.4656-4.1836-7.394-8.9248-6.689-17.1367a20.0011,20.0011,0,0,1,7.08-13.6172,20.9889,20.9889,0,0,1,9.7009-4.4043c-4.3992-7.31-5.9158-12.65-5.6431-18.1479a21.3122,21.3122,0,0,1,6.5464-14.501,20,20,0,0,1,3.637-6.1348,20.5117,20.5117,0,0,1,2.55-3.8389,21.1735,21.1735,0,0,1,4.8721-5.8652,19.9944,19.9944,0,0,1,18.7888-3.78,19.1539,19.1539,0,0,1-1.0359-8.2837A20.1044,20.1044,0,0,1,55.67,17.809c2.6055-2.1851,12.0811-8.7256,24.7976-1.2749.7192.4214,1.4868.9028,2.3276,1.4609A19.9994,19.9994,0,0,1,89.4994,6.8441c1.9783-1.6606,12.5129-9.4849,25.6592-.48,1.3291.91,2.87,2.0913,4.85,3.7168q.8276.679,1.7717,1.4746a19.9983,19.9983,0,0,1,3.32-3.5581,20.2451,20.2451,0,0,1,23.0388-2.02A28.0666,28.0666,0,0,1,151.08,7.8822c4.1746-2.5,12.6536-5.6724,22.62,1.1162.6753.46,1.6543,1.144,2.8921,2.022,2.2478,1.5938,5.4382,3.8882,9.2561,6.6509q2.14,1.5483,4.6345,3.3594a20.0121,20.0121,0,0,1,31.1,9.3618c3.3071,3.9492,10.6472,11.5352,15.3213,16.3662,18.8274,19.459,25.17,26.0146,24.6016,36.959a20.5434,20.5434,0,0,1-7.272,14.6318q-.6233.5237-1.2786.9883c5.0706,7.4849,7.18,13.0132,6.8169,19.2295a20.8687,20.8687,0,0,1-7.3567,14.7275q-.2728.2292-.5518.4468a19.9757,19.9757,0,0,1-7.083,16.8862,20.9106,20.9106,0,0,1-9.8254,4.4922,20,20,0,0,1-27.7874,19.6914q-.01.6658-.064,1.3345a19.9975,19.9975,0,0,1-7.0774,13.6943c-8.2234,6.9019-18.89,6.9438-31.7014.1265q-1.1342-.6035-2.3423-1.2959A20.1386,20.1386,0,0,1,145.0917,202.12c-.0413-.0034-.0818-.0073-.123-.0112a20.1252,20.1252,0,0,1-5.7844.0332A19.9439,19.9439,0,0,1,135.6927,202.45Z"/></g><g id="Layer_2" data-name="Layer 2"><path class="cls-2" d="M86.5445,68.213c-.2112-1.5273-1.05-3.9585-1.2277-5.8794-.0752-.8137.0352-3.2084-.6784-3.78-.617-.494-2.226-.2435-2.9857-.4172-1.1732-.2683-2.2048-.7994-3.3761-.9972-3.6844-.6224-3.3453.5433-2.6631,3.8736A44.57,44.57,0,0,0,79.9418,72.615C81.5825,71.7324,85.3679,70.6357,86.5445,68.213Z"/><path class="cls-2" d="M228.0132,35.5557c-2.6819-.23-4.6584-5.6964-2.1447-7.3229C229.039,26.1813,231.0739,35.4922,228.0132,35.5557Z"/><ellipse class="cls-2" cx="233.9613" cy="33.102" rx="1.3265" ry="1.782"/><ellipse class="cls-2" cx="210.0945" cy="104.9592" rx="2.7146" ry="2.3991"/><ellipse class="cls-2" cx="211.6125" cy="94.2487" rx="1.7772" ry="2.6512"/><ellipse class="cls-2" cx="219.1616" cy="94.1874" rx="1.9798" ry="2.9219" transform="translate(-18.9017 109.3179) rotate(-26.8928)"/><ellipse class="cls-2" cx="224.9102" cy="85.565" rx="2.9219" ry="1.9798" transform="translate(42.6074 242.6373) rotate(-61.5771)"/><path class="cls-2" d="M245.41,59.5491c-.2594-1.5208-.4684-3.0637-.508-3.3833-.2083-1.68-.5093-3.3474-.8355-5.0081-.2343-1.1926-2.04-5.4285.4666-4.8681.6349.1419.8371.3119,1.3312-.2245.701-.7609.0493-1.92.6109-2.6551.7568-.9911,2.2923.4241,3.07-.1744.7629-.5872.4928-1.7247,1.4171-1.2741.4985.243,1,1.2078,1.4338,1.5985a28.7551,28.7551,0,0,0,3.0248,2.12,17.5674,17.5674,0,0,1,2.4823,2.4671c.5181.5351,1.81.9058,1.6841,1.8074-.2609,1.8682-2.8078,2.9081-3.9486,4.1261-1.55,1.6543-2.0422,3.6677-3.49,5.11a20.155,20.155,0,0,1-5.8422,3.6362C246.0559,62.933,245.7013,61.2549,245.41,59.5491Z"/><path class="cls-3" d="M96.3641,88.9314c4.4995-3.4122,6.4845-4.0655,8.7091-9.376,1.8479-4.4113,1.4642-7.2061,2.0571-11.6469,1.9552-.8064,2.8642,1.2747,4.6258,1.7827,3.1841.9183,1.8147-1.4562,4.6347-1.7982.51,4.1108-3.3022,7.4212-2.9944,11.3331.2443,3.1052,3.7256,6.2626,4.7926,9.2789,1.319,3.7288.1608,4.2779-3.588,5.4874a21.688,21.688,0,0,1-10.0387.9655C101.5208,94.3826,98.7667,92.2545,96.3641,88.9314Z"/><path class="cls-3" d="M151.2422,113.6935c-.1658.3972.0349.6473-.41.961-4.5133-2.6473.8229-7.9775,2.7445-10.6948,2.051-2.9,2.7651-6.1481,4.5255-9.2893,1.7426-3.11,3.4244-6.0523,5.2194-9.1024,4.7094-8.0023,7.1288-19.3449,17.97-19.3932,2.3777-.0106,3.6985-.3621,5.8968.6291,1.521.6858,2.3827,2.0164,4.1407,2.4029,3.4063.7488,7.2947-.8908,10.776-.4271,1.4825.1981,3.87.4819,4.7753,1.576,2.6109,3.1548-.8472,10.2943-1.83,13.5362-.8157,2.69-.9662,4.1353-3.6248,3.8292-3.2491-.3742-6.7395-4.8535-9.5546-5.6619-5.2034-1.4942-8.135,14.7333-9.4141,18.4906-2.17,6.3757-4.5252,12.247-4.8294,19.1175-6.617,1.1134-10.5965,5.5728-16.2619,1.1933C158.8212,118.8943,154.2847,114.0267,151.2422,113.6935Z"/><path class="cls-3" d="M109.4144,61.827c-2.7872-.3131-6.4881-4.4685-1.7076-4.7687-2.0588-2.8194-8.72-.7569-9.959-4.55A48.5325,48.5325,0,0,0,109.9255,50.81c3.5213-.8857,4.6248-.17,5.8693,3.1971C112.54,52.599,111.2963,59.1641,109.4144,61.827Z"/><path class="cls-3" d="M177.6773,57.1423c-3.4614-3.02-1.6621-8.7489.7027-11.713-1.5607-3.299-3.0474-5.64,1.9065-6.6407.2452.3751.8519.9672,1.0039,1.2523-.0958-4.943-3.3536-16.3486,6.2331-14.0212,2.6518.6438,11.6735,6.619,13.61,2.01-6.4894-9.1562-15.92-12.17-26.7847-11.0425-1.7819.1849-4.5459-.6307-6.22,0-3.1482,1.1858-.9385,2.7392.1709,5.7368,2.7511,7.4333,2.1381,15.7739,1.6743,23.4748C169.8311,48.56,172.5055,56.8317,177.6773,57.1423Z"/><path class="cls-4" d="M185.79,66.1243c-13.9893-7.8446-21.7155,12.5325-25.68,22.058-1.8041,4.3345-3.5861,8.6812-5.6293,12.91-.936,1.9373-1.9233,3.85-2.9773,5.7261a8.1932,8.1932,0,0,1-2.19,2.9234c-.2643.1891-.6566.2351-.8779.4914-1.1452,1.326.9182,3.8093,1.93,4.6238,2.43,1.9569,5.7311,2.1968,8.17,4.223,2.7277,2.2659,5.7749,5.1257,9.5537,5.1345,4.1865.01,7.3636-3.5277,11.6-3.3449a.7162.7162,0,0,0,.7072-.7072c.1458-14.3389,6.0748-28.199,10.878-41.471.2322-.6415-.8415-1.106-1.1138-.47a184.1787,184.1787,0,0,0-7.3744,20.6018c-2.0286,6.9174-3.7373,14.0943-3.8042,21.3388l.7072-.7072c-2.7169-.1147-4.9563,1.0528-7.36,2.154-4.3206,1.98-7.4928.7853-11.0884-2.0879a21.8432,21.8432,0,0,0-5.9217-3.8664,16.7731,16.7731,0,0,1-3.7248-1.6273,5.1578,5.1578,0,0,1-1.6809-2.0182c-.5087-1.0342-.4-.4706-.047-.99.3771-.5536,1.2531-.9391,1.695-1.5607a42.1691,42.1691,0,0,0,2.901-5.2168c1.776-3.4608,3.3481-7.0206,4.8614-10.6027,2.6427-6.2555,4.9085-12.8555,8.4406-18.6844,3.8588-6.3679,9.8626-11.6038,17.4938-7.9207.6041.2915,1.1317-.5746.5323-.9107Z"/><path class="cls-4" d="M190.3773,82.5917c2.7332,1.497,5.564,2.83,8.3567,4.2118,1.3082.6474,4.5475,3.0919,6.1448,2.2967,1.5621-.7777,1.4862-4.3116,1.7549-5.7107q.9378-4.8839,1.8765-9.7676a.6726.6726,0,0,0-.4582-.8069c-5.8668-1.77-11.58-4.1862-17.459-5.8518-.6434-.1823-1.0888.7913-.465,1.1031,5.4425,2.72,11.7309,4.3828,17.5753,6.0139l-.4582-.8069q-.7025,3.7242-1.409,7.4477l-.5287,2.7928c-.13.6885-.213,3.2783-.7049,3.7237-1.3637,1.2348-5.5721-1.6183-6.9521-2.2819-2.2517-1.0828-4.4895-2.21-6.7823-3.2037-.5584-.2419-1.0542.5313-.4909.84Z"/><path class="cls-4" d="M180.9907,64.9055c1.8049-1.8988,2.4229-5.1149.4883-7.2034-.4536-.49-1.1684.1324-.8881.6852.9538,1.8811,1.2622,4.1336-.23,5.8885-.3665.431.23,1.0508.63.63Z"/><path class="cls-4" d="M177.053,56.3114c-8.4865-1.9081-7.2359-11.6452-6.2177-18.1081a28.08,28.08,0,0,0,.408-8.4947c-.4481-3.0076-1.9379-5.557-3.3057-8.2192a8.4309,8.4309,0,0,1-1.1295-2.4178c-.1911-2.1276,1.0955-1.8562,2.4342-1.9714,1.7093-.1471,3.4288-.2378,5.1429-.3031a45.7193,45.7193,0,0,1,11.4059.7406,24.57,24.57,0,0,1,8.0649,3.2409,18.6149,18.6149,0,0,1,3.7824,3.1673,14.0307,14.0307,0,0,1,1.6489,2.1827l.3747.635q1.4515,1.8234-.898,3.1823c-.8734-.245-1.1955,1.0348-.3692,1.3391a2.5666,2.5666,0,0,0,3.3828-2.6725c-.0548-2.6313-2.5744-5.35-4.3952-6.9934-4.8733-4.3973-11.4459-6.031-17.8589-6.2923a59.7793,59.7793,0,0,0-11.7822.4613c-2.3363.3816-3.0233,1.84-2.1658,4.0429,1.3468,3.46,3.7055,6.4076,4.2422,10.1676.6,4.2009-.5925,8.36-1.08,12.51-.6816,5.8005.811,14.4663,8.1769,14.8273a.5238.5238,0,0,0,.1386-1.0243Z"/><path class="cls-4" d="M198.842,31.61c1.8781,6.5006,4.6869,13.75,4.3985,20.61-.1462,3.4769-1.5594,7.0271-5.3628,7.7222-3.7746.69-7.4991-1.84-10.4525-3.8809-.6947-.48-1.5752.639-.9115,1.1813a6.6886,6.6886,0,0,1,2.1972,7.1161.6451.6451,0,0,0,1.243.3427,7.3944,7.3944,0,0,0-2.3765-8.5225l-.9115,1.1813c3.1378,2.1632,6.9539,4.5393,10.9428,4.0625a7.5574,7.5574,0,0,0,6.2692-5.2636c1.0577-3.1117.7117-6.5955.0683-9.756a103.2018,103.2018,0,0,0-4.302-15.0138c-.182-.4942-.9534-.3017-.8023.2212Z"/><path class="cls-4" d="M191.7683,49.9c-2.0715,1.6288-1.1846,5,.9256,6.1781,2.9175,1.6281,6.16-1.1071,6.7516-3.9356a.7505.7505,0,0,0-.5118-.9013,35.5058,35.5058,0,0,1-7.1255-3.3928c-.6573-.3721-1.465.5726-.8379,1.0859a22.0238,22.0238,0,0,0,7.5738,3.72l-.5118-.9013c-.43,1.8331-2.4365,4.0716-4.5153,3.0254a2.5777,2.5777,0,0,1-.8042-3.9337c.6151-.6345-.2859-1.4626-.9447-.9447Z"/><path class="cls-4" d="M199.5964,37.78a3.7165,3.7165,0,0,0-5.4763-1.883l.9977.5725a3.2541,3.2541,0,0,0-3.7443-3.2738c-2.5856.37-3.6228,3.3417-3.26,5.6054.4267,2.6585,2.673,6.808,5.4711,7.6353a3.11,3.11,0,0,0,4.1351-2.5494l-1.3014.1761c1.0339,3.7976,6.1062,4.3331,7.46.4478a.5767.5767,0,0,0-1.05-.4425c-1.1942,2.3718-4.4639,2.4271-5.1329-.3575-.1444-.6009-1.1779-.6618-1.2777,0-.4711,3.1242-3.79.6993-4.7173-.5377a16.2952,16.2952,0,0,1-1.3244-2.086,6.85,6.85,0,0,1-1.01-3.5393,3.7671,3.7671,0,0,1,1.0426-2.4328q2.8161-1.5489,3.3814,1.3545a.6686.6686,0,0,0,.9977.5725,2.8216,2.8216,0,0,1,4.0305,1.0653c.2315.4038.9614.13.7764-.3273Z"/><path class="cls-4" d="M193.7459,40.4659c.7889.8131.36,2.0773-.1265,2.9121a.5726.5726,0,0,0,.7776.7776,2.4872,2.4872,0,0,0,1.0588-2.1686,2.97,2.97,0,0,0-1.08-2.1509.4456.4456,0,0,0-.63.63Z"/><path class="cls-4" d="M199.9086,42.05a10.1316,10.1316,0,0,0-.7656,2.2817c-.0672.55.7512.698.9991.2706a10.17,10.17,0,0,0,.744-2.2829c.1843-.6382-.7494-.8675-.9775-.2695Z"/><path class="cls-4" d="M185.9059,33.0594a3.9639,3.9639,0,0,1,4.6037-3.0421c.6728.0732.7174-.9161.1511-1.1164-2.59-.9165-5.4629,1.2821-5.8114,3.8672-.0915.6787.9249.9975,1.0566.2913Z"/><path class="cls-4" d="M194.5322,31.9154a2.5265,2.5265,0,0,1,2.2775-.5192.6011.6011,0,0,0,.3193-1.1583,3.7387,3.7387,0,0,0-3.4545.82c-.5928.51.2684,1.3643.8576.8576Z"/><path class="cls-4" d="M197.9947,27.9155c-4.8516,2.4072-9.4763-4.6438-14.5593-2.8986-5.423,1.862-4.19,11.04-1.85,14.7276l1.2135-.7093c-2.3578-3.41-7.97-1.4132-6.5928,2.8916.3347,1.0465,1.1349,1.3254,1.7054,2.12,1.0858,1.5118-.53,2.738-1.3214,4.0854A9.9568,9.9568,0,0,0,175.6,55.799a.6744.6744,0,0,0,1.3-.3583,9.1332,9.1332,0,0,1,.9458-6.5752c.6447-1.0682,1.9631-1.9168,2.3109-3.1314a2.0736,2.0736,0,0,0-.3972-1.944,8.651,8.651,0,0,0-1.2839-1.1377c-2.4506-2.2778,1.056-5.8756,3.1109-2.9079.5084.7342,1.7044.0632,1.2135-.7093a12.8806,12.8806,0,0,1-1.283-9.9761c1.1311-3.6651,4.4839-3.1191,7.2518-1.9218,3.1006,1.3413,6.3935,3.46,9.7236,1.6282.5593-.3077.0665-1.1295-.4968-.85Z"/><path class="cls-4" d="M207.6083,74.7883c8.5411,1.3383,18.2076,2.3551,26.3249-1.3225,3.2684-1.4808,6.3837-3.8455,7.8855-7.19a37.48,37.48,0,0,0,1.44-4.4386c.1618-.5276.57-2.6995,1.5638-2.003.4565.32.6077,3.0778.6292,3.4507a.5848.5848,0,0,0,.87.4993c1.47-.85,3.0378-1.2187,4.3671-2.3071a14.4037,14.4037,0,0,0,3.1277-3.7193l-.9148.1179c3.9449,4.9754-1.1144,10.5325-5.3294,13.0375-4.4137,2.6231-9.1485,4.8016-13.72,7.1373A54.9439,54.9439,0,0,1,219.4371,83.55c-4.3018.8385-8.559.4577-12.89.1074-.8511-.0689-.8523,1.27,0,1.33,5.069.3586,9.8568.5519,14.8351-.6428,6.1335-1.4719,11.6669-4.5581,17.2261-7.4354,4.8592-2.5149,11.0488-4.7148,14.5729-9.1117,2.4877-3.1038,3.1049-7.523.5437-10.7453a.5869.5869,0,0,0-.9148.1179,13.0543,13.0543,0,0,1-2.9415,3.4876c-1.2386.9877-2.7749,1.3492-4.1312,2.1282l.87.4993c-.0716-1.3123-.38-6.3408-2.8528-4.8257-.9487.5813-1.3275,2.0866-1.6284,3.066-.7329,2.3857-1.2632,4.7865-2.9446,6.7323-7.4552,8.6277-21.4606,6.4459-31.4174,5.3739-.6535-.07-.8125,1.0539-.1565,1.1567Z"/><path class="cls-4" d="M177.6963,121.347c1.9787,4.2584,5.8087,6.9519,9.2824,9.9224a93.78,93.78,0,0,1,10.53,10.4739c6.5406,7.6916,11.5122,16.67,13.3139,26.6756.1581.878,1.4973.5062,1.3391-.3692-1.7052-9.435-6.2-17.9739-12.1524-25.4184a89.0059,89.0059,0,0,0-10.26-10.7433c-3.8808-3.4665-8.5436-6.4183-10.96-11.18-.3721-.7331-1.4317-.09-1.0928.6388Z"/><path class="cls-4" d="M196.5869,173.0634c-.1782-2.4286-1.3963-4.8726-2.4029-7.0682a52.3727,52.3727,0,0,0-4.2389-7.5138,72.2158,72.2158,0,0,0-11.04-12.56c-4.4973-4.1353-9.865-5.3754-15.1621-8.0825-4.5795-2.34-7.0415-7.1543-11.4812-9.6341a.7652.7652,0,0,0-.7719,1.3205c3.9367,2.5391,6.3823,6.7922,10.4427,9.19,5.0018,2.9537,10.7946,3.8717,15.3328,7.714A64.0528,64.0528,0,0,1,188.35,158.51a54.38,54.38,0,0,1,4.2042,7.0718c1.2268,2.4833,1.8779,5.3071,3.2305,7.6993a.4339.4339,0,0,0,.8025-.2174Z"/><path class="cls-4" d="M146.5395,114.63c-3.44,4.457-5.5518,10.167-6.7255,15.63a50.25,50.25,0,0,0-1.0142,8.1332c-.1593,3.2694-.2022,6.7181-2.0866,9.5408-3.3528,5.0222-11.1257,7.3575-16.5507,9.0829-6.1244,1.9477-12.447,2.88-18.6349,4.5256-.8583.2283-.4728,1.4119.3567,1.2939a112.731,112.731,0,0,0,19.492-4.7581c5.2474-1.7514,11.6118-3.9171,15.4306-8.128,3.833-4.2266,2.9773-10.0956,3.6014-15.3341.8477-7.115,3.6366-13.2492,6.9561-19.5039a.4779.4779,0,0,0-.8247-.482Z"/><path class="cls-4" d="M157.4228,138.1626c-.2513,5.5467-1.4256,10.6761-4.6155,15.3258-3.4,4.9562-8.3905,8.1344-13.9179,10.2884-5.61,2.1861-11.4866,3.7467-17.2366,5.5171l-4.7378,1.4588c-1.4394.4432-3.2483,1.3989-4.7378,1.4588-4.2639.1713-2.9478-7.084-1.9437-9.3564.3543-.8019-.734-1.4946-1.2041-.7038-1.9134,3.2182-2.2851,12.9117,3.5544,11.5351,4.1466-.9775,8.24-2.5593,12.31-3.8235,3.8533-1.1968,7.7354-2.3286,11.5509-3.6425,6.3689-2.1932,12.3954-5.2142,16.6035-10.6378,3.7255-4.8017,6.1649-11.2817,5.6345-17.42a.63.63,0,0,0-1.26,0Z"/><path class="cls-4" d="M100.5317,162.3177a81.66,81.66,0,0,0-1.9026,15.0533q-.1349,3.8756.0754,7.7521c.0771,1.4173.1012,3.1925,1.2055,4.27,2.24,2.186,3.4473-1.3668,4.0046-2.964,1.4023-4.02,2.5441-10.6639,7.3524-11.8978.7966-.2044.4511-1.3551-.3349-1.2148-2.4592.4389-4.0466,2.2481-5.17,4.382a30.6729,30.6729,0,0,0-1.6926,4.1857c-.57,1.6267-.9089,4.0746-1.898,5.4406-2.2192,3.0648-2.1914-3.3535-2.2264-4.6233q-.0867-3.15.0524-6.2994a101.4055,101.4055,0,0,1,1.653-13.7763c.1326-.7246-.9535-1.0447-1.1187-.3084Z"/><path class="cls-4" d="M194.8358,176.0211a25.6514,25.6514,0,0,0,15.4134-5.25c.4926-.3995-.137-1.1481-.66-.8558a37.7073,37.7073,0,0,1-14.753,5.0632c-.6492.0742-.6885,1.0476,0,1.043Z"/><path class="cls-4" d="M196.1083,179.7341c2.6648.5546,1.8312,5.5182,3.3836,7.3592,2.2458,2.6634,5.5845-.1913,8.16-.5561a.5777.5777,0,0,0,.3437-.8449q-.8967-1.2791-1.7938-2.5579L205.85,184q10.3259-2.2337,20.6587-4.4347a.6505.6505,0,0,0,.3829-.9412c-2.615-6.0137-10.8572-2.2689-14.8306-6.2448-.6311-.6315-1.5621.3172-.9737.9737,3.7739,4.2106,12.2738.4273,14.6978,5.9179l.3829-.9412q-10.325,2.2249-20.6312,4.5346a.5923.5923,0,0,0-.3519.8651q.9087,1.2721,1.8175,2.544l.3437-.8449c-1.8.2722-3.6945,1.8558-5.4837,1.7369-2.1358-.1419-2.3914-2.5645-2.7257-4.1552-.3721-1.7706-.7276-3.7864-2.7792-4.18-.5877-.1126-.8428.78-.2492.904Z"/><path class="cls-4" d="M198.67,68.7046a6.8019,6.8019,0,0,1,3.6551-.2393,7.5108,7.5108,0,0,1,3.1457,1.8637.5652.5652,0,0,0,.8834-.6817,5.5655,5.5655,0,0,0-3.6843-2.4329,5.6871,5.6871,0,0,0-4.33.7084c-.4146.2264-.1286.9645.33.7818Z"/><path class="cls-4" d="M209.87,68.5381a25.7479,25.7479,0,0,0,21.1119-15.4875c.232-.5536-.7144-.9541-.9746-.4109a26.5275,26.5275,0,0,1-20.2651,14.9546c-.531.0842-.4114.9876.1277.9438Z"/><path class="cls-4" d="M221.7287,72.2682a25.94,25.94,0,0,0,11.0344-14.08c.24-.79-.9171-1.0637-1.2091-.3333a28.991,28.991,0,0,1-10.3694,13.482c-.5623.3908-.0477,1.309.5442.9309Z"/><path class="cls-4" d="M229.7984,54.0849a26.1137,26.1137,0,0,1,.8951-12.6072l-1.0329.2727,3.3646,4.0549a.6241.6241,0,0,0,1.0373-.2739,7.1779,7.1779,0,0,1,6.0915-5.7981l-.7916-.603a28.8389,28.8389,0,0,1-5.8957,16.9456c-.3971.5472.5092,1.254.9433.7278A28.22,28.22,0,0,0,240.6131,39.13a.6353.6353,0,0,0-.7916-.603,8.3515,8.3515,0,0,0-6.9559,6.6742l1.0373-.2739-3.3683-4.0512a.6235.6235,0,0,0-1.0329.2727,25.0539,25.0539,0,0,0-.6751,13.2037c.1378.6406,1.0807.3619.9718-.2679Z"/><path class="cls-4" d="M86.467,98.7483c3.2191,2.0744,7.2195,5.0842,11.3059,4.4822,3.9986-.5891,6.1894-5.0763,5.8731-8.7663-.067-.7812-1.29-.7934-1.23,0,.3189,4.25-2.6357,8.4219-7.1949,7.5243C92.23,101.4,89.4744,99.5517,86.887,98.03a.4163.4163,0,0,0-.42.7184Z"/><path class="cls-4" d="M118.9216,91.524c3.4849,6.8776,8.54,16.6209,17.8444,15.0083l-.7776-.7776c-.2026,1.3415-.5817,4.8332-3.4748,3.2841-.3844-.2058-.5614-.8234-.9834-1.0458a1.3177,1.3177,0,0,0-1.571.0186c-1.3264.977-.7969,3.61-.0712,4.7275l1.0812-.632c-4.5888-6.6278-9.9555-14.1508-17.0993-18.2256-.5275-.3009-1.1667.4528-.671.87a88.982,88.982,0,0,1,8.9,7.9672,94.2419,94.2419,0,0,1,7.79,10.0207c.4529.6553,1.524.0512,1.0812-.632a3.2014,3.2014,0,0,1-.5234-2.0453c.1552-1.8138.5668-.6313,1.1785-.1338a2.7335,2.7335,0,0,0,2.2612.89c2.3632-.2656,3.0263-2.7809,3.322-4.7276a.6432.6432,0,0,0-.7776-.7776c-8.8553,1.5269-12.84-8.3094-16.6381-14.2979a.5043.5043,0,0,0-.87.5087Z"/><path class="cls-4" d="M114.9709,72.4154a20.2279,20.2279,0,0,1-1.5436,4.7515,3.7413,3.7413,0,0,0-.4662,2.18,6.4045,6.4045,0,0,0,1.5026,2.6864c1.7026,2.2253,3.568,4.682,4.28,7.4629.9576,3.7414-8.4074,4.8464-10.9237,4.8234a18.54,18.54,0,0,1-6.5339-1.2029c-2.0689-.8066-3.4651-2.526-5.4192-3.5207l.127.9859c2.2922-2.7952,6.1556-3.7133,8.333-6.6252,1.2165-1.6268,1.7552-3.8454,2.5823-5.6785a15.9949,15.9949,0,0,0,1.0373-2.8076,19.2279,19.2279,0,0,0,.9366-3.7314c-.0315-2.4767-3.34-3.1639-5.21-3.4156A22.3751,22.3751,0,0,1,96.8664,66.64a37.0541,37.0541,0,0,0-6.759-2.8462.6011.6011,0,0,0-.3193,1.1583c3.61,1.0447,6.7056,3.5178,10.4223,4.2252,1.38.2626,2.7942.29,4.1745.5465.7989.1485,2.1.3361,2.62,1.03.7674,1.0226.1187,2.4773-.1127,3.55a30.6165,30.6165,0,0,1-1.9752,5.3377c-.7261,1.7422-1.1988,3.3375-2.6308,4.6482-2.2384,2.0487-5.222,3.01-7.1806,5.4041a.6365.6365,0,0,0,.127.9859c2.0661,1.0486,3.5178,2.7978,5.7212,3.6394a19.8986,19.8986,0,0,0,6.8655,1.2392,18.3567,18.3567,0,0,0,12.3857-4.2727.5957.5957,0,0,0,.1548-.5855,25.1676,25.1676,0,0,0-2.2079-5.4239c-1.0233-1.8334-2.59-3.285-3.6141-5.0852-.72-1.2657-.3792-1.9152.1659-3.1432a16.3469,16.3469,0,0,0,1.2442-4.3635c.0926-.6328-.8654-.9181-.9775-.2695Z"/><path class="cls-4" d="M108.3953,96.4188c-1.6688,2.6649-3.2284,5.701-5.5928,7.8244-3.1974,2.8716-6.3513,1.7273-9.7458-.0533-1.9414-1.0184-4.0094-1.98-6.2606-1.624-2.756.4359-4.91,2.4819-6.8166,4.362l.9205.9205c2.4774-2.67,5.11-6.23,3.2-9.91l-.5657.9859c1.1885.0894,2.368.2019,3.56.1913.6286-.0056.82-1.0334.1542-1.1394-1.2332-.1963-2.4693-.27-3.7145-.3622a.6614.6614,0,0,0-.5657.9859c1.59,3.0568-.9963,6.1778-2.9887,8.3285a.6513.6513,0,0,0,.9205.9205c3.1131-3.0753,6.222-5.1265,10.5541-3.0655,2.3191,1.1033,4.5778,2.6891,7.2662,2.4988,5.38-.3808,8.1333-6.3591,10.4187-10.4283a.431.431,0,0,0-.7437-.4347Z"/><path class="cls-4" d="M105.8123,65.771a23.8693,23.8693,0,0,0-8.041-2.65c-2.5082-.3514-5.94.0372-7.4972-2.3892a.6743.6743,0,0,0-1.1637.68c1.1385,1.9318,3.1407,2.4667,5.2539,2.7209a42.7955,42.7955,0,0,1,11.1206,2.4151c.4485.1785.7481-.5536.3273-.7764Z"/><path class="cls-4" d="M75.5572,57.2243a37.4136,37.4136,0,0,1,5.5375.8678c1.1261.27,2.1806.3327,2.7289,1.5575a8.3265,8.3265,0,0,1,.281,1.737c.2587,1.4422.5813,2.8737.9559,4.29.5163,1.952,1.2406,2.68-.7849,3.7346-1.0242.5333-3.0356,2.1395-4.18,2.0823q-.582.4243-.6942-.2488a14.1981,14.1981,0,0,1-.8378-1.83c-.2687-.68-.4911-1.3788-.7018-2.0787-.4249-1.4111-.7615-2.8467-1.1057-4.279-.1267-.5274-1.5423-5.2775-.47-5.2661a.5946.5946,0,0,0,.1573-1.1625c-4.2514-1.3738-.2074,10.0912.2355,11.49.3765,1.189,1.19,4.7688,2.785,5.0487.84.1474,1.9534-.7318,2.6176-1.0876,1.6326-.8746,3.269-1.7458,4.8736-2.6711a.6146.6146,0,0,0,.2786-.6845c-.64-1.9513-1.1994-3.9224-1.6421-5.9279-.2793-1.265-.2231-3.4121-1.0283-4.51-1.4351-1.9559-6.9077-1.7988-9.006-1.8473-.5116-.0118-.4963.7426,0,.7852Z"/><path class="cls-4" d="M86.1674,67.1914a2.772,2.772,0,0,0,1.7345-4.1354.5747.5747,0,0,0-.9916.58,2.081,2.081,0,0,1-1.0972,2.7151c-.5053.2139-.1246.9363.3544.8407Z"/><path class="cls-4" d="M86.1474,62.4108a1.4233,1.4233,0,0,1,2.4449-.934.5306.5306,0,0,0,.75-.75,2.3381,2.3381,0,0,0-4.0972,1.6839.4515.4515,0,0,0,.9023,0Z"/><path class="cls-4" d="M117.72,67.5089a39.29,39.29,0,0,0,11.771-8.4051.5628.5628,0,0,0-.7955-.7955,87.2524,87.2524,0,0,1-11.49,8.32c-.5728.34-.0712,1.1563.5146.88Z"/><path class="cls-4" d="M115.3374,72.9046a145.1671,145.1671,0,0,0,14.4754-12.179c.5041-.4984-.2308-1.1742-.7582-.7582-4.8931,3.86-9.5744,8.1281-14.2284,12.2746-.3515.3132.126.9543.5112.6626Z"/><path class="cls-4" d="M129.6667,57.6321a5.1553,5.1553,0,0,1,1.2919-1.9774c.3708-.3408,1.2273-1.024,1.8035-.7671.9389.4185-.5267,1.7343-.9311,2.15a13.5412,13.5412,0,0,1-1.9268,1.6325c-.5718.402-.0286,1.3506.553.9461,1.1158-.7761,5.5643-4.1411,3.116-5.6226-2.13-1.289-4.3675,1.6451-4.7484,3.4067a.4369.4369,0,0,0,.8419.2321Z"/><path class="cls-4" d="M117.1375,53.7215c-.5036-3.3847-3.818-4.6409-6.9108-4.25-4.52.5715-9.012,4.5769-13.2625.9983-.4564-.3842-1.3112.1321-.8973.6923,5.2126,7.0539,16.5172-6.31,20.1157,2.8225a.4956.4956,0,0,0,.9549-.2632Z"/><path class="cls-4" d="M98.3652,51.1394c-.4863-.3368-.145,1.45-.1112,1.56a3.614,3.614,0,0,0,.647,1.1486,5.3433,5.3433,0,0,0,2.2087,1.5674c2.3358.9613,5.1088,1.0821,7.5911,1.4151l-.3386-.8174a6.3872,6.3872,0,0,1-3.42,1.3873.5263.5263,0,0,0-.4485.7816,3.8376,3.8376,0,0,0,2.3757,1.9116c.5139.1491.8915-.6679.3747-.8889a3.4936,3.4936,0,0,1-1.8535-1.547l-.4485.7816a7.46,7.46,0,0,0,4.0967-1.7489.4816.4816,0,0,0-.2113-.8c-2.08-.4417-4.2748-.6737-6.3158-1.2563a4.3977,4.3977,0,0,1-3.2229-2.4471c-.2552-.6283-.1931-.9448-.6666-1.4089a.5052.5052,0,0,0-.592-.0764.6392.6392,0,0,0-.4471.6111.4621.4621,0,0,0,.3089.544l.1453.0594c.4716.1928.6964-.5208.3273-.7764Z"/><path class="cls-4" d="M116.9772,57.9519a5.0053,5.0053,0,0,1-1.7641,4.8857c-.4471.3859.2008,1.024.6463.6463a5.8506,5.8506,0,0,0,1.8466-5.7329c-.1043-.4765-.8249-.2735-.7289.2009Z"/><path class="cls-5" d="M32.58,52.5668l-.796-.1683.4008,1.518c3.0979-2.807,7.2336-3.57,11.0433-4.9962q2.6216-.9814,5.1685-2.1494c1.0322-.4727,2.0411-.7508,2.0326-2.0048a.9387.9387,0,0,0-.6828-.8968l-.17-.0262a.9443.9443,0,0,0-.994.4045l-.1131.1472a.822.822,0,0,0,.1286.9969l.0858.0793A.7945.7945,0,0,0,50,44.7041l-.0281-.1129-.5745,1.0119-.5563-.1794-.1454-1.127c-.66,1.0206-4.1675,1.9357-5.1819,2.3332-1.7073.6692-3.4412,1.2445-5.1791,1.826-2.7338.9148-5.4933,1.9491-7.4348,4.1762a.9157.9157,0,0,0,.8836,1.518l.796-.2385a.703.703,0,0,0,0-1.3447Z"/><path class="cls-4" d="M33.2814,57.2208A427.8554,427.8554,0,0,1,80.3253,39.1647a.6011.6011,0,0,0-.3193-1.1583A234.0683,234.0683,0,0,0,32.7254,56.27c-.6386.33-.0782,1.2388.556.9512Z"/><path class="cls-4" d="M34.8394,60.318c5.7787-1.9092,11.3392-4.6743,17.0338-6.8456,5.7261-2.1833,11.515-4.2018,17.33-6.1335.7926-.2633.4609-1.512-.3474-1.26q-9.0014,2.8073-17.7959,6.21c-5.53,2.1291-11.4548,4.1562-16.6138,7.0968a.512.512,0,0,0,.3928.9317Z"/><path class="cls-4" d="M37.1484,63.9595c5.7983-2.1647,11.4574-4.8052,17.1358-7.2639.7323-.3171.1-1.3851-.627-1.0726-5.6367,2.4244-11.3893,4.71-16.8949,7.4208-.5027.2475-.1489,1.1154.386.9157Z"/><path class="cls-5" d="M12.269,129.0341c2.8121.9891,6.9119-.1727,9.8483-.48q5.0734-.5313,10.1362-1.159c6.5707-.8139,13.5707-1.27,19.94-3.1178a.8388.8388,0,0,0-.222-1.64c-6.8842.2571-13.8461,1.8379-20.6824,2.6818q-5.0636.6251-10.1383,1.1549c-2.79.2914-6.5723-.0476-9.04,1.35a.67.67,0,0,0,.1582,1.21Z"/><path class="cls-4" d="M13.2463,137.0539c12.2765-.7134,24.5472-2.393,36.7736-3.6918,12.2627-1.3027,24.5295-2.5794,36.7736-4.0479.9213-.11.951-1.562,0-1.4707-12.4357,1.1942-24.8522,2.5857-37.27,3.9485-12.1243,1.33-24.3689,2.3087-36.4184,4.2146-.5921.0937-.455,1.082.1417,1.0474Z"/><path class="cls-4" d="M13.6445,141.1618a657.1816,657.1816,0,0,0,83.3036-7.0786c.6906-.1074.5363-1.3142-.1667-1.2315-27.669,3.2543-55.29,5.9375-83.1369,7.1031-.7729.0324-.78,1.2278,0,1.207Z"/><path class="cls-4" d="M14.4905,148.1122a117.6984,117.6984,0,0,1,21.0822-2.9759c.832-.04.84-1.329,0-1.3008a95.3814,95.3814,0,0,0-21.3968,3.1354.5923.5923,0,0,0,.3146,1.1413Z"/><path class="cls-6" d="M15.4438,159.3248a66.96,66.96,0,0,0,13.57-1.1c.6653-.1155.5185-1.2792-.1612-1.1912-4.4643.5778-8.924.8985-13.4087,1.2479a.5218.5218,0,0,0,0,1.043Z"/><path class="cls-6" d="M41.4908,157.1036c5.6679-.5624,11.354-1.0218,17.0028-1.7546.6963-.09.7384-1.1758,0-1.125-5.6783.39-11.3394,1.0578-17.0028,1.62-.7993.0793-.8075,1.34,0,1.26Z"/><path class="cls-6" d="M68.6291,154.5472q8.79-.9353,17.47-2.6391c.7344-.145.4156-1.2339-.3069-1.1131q-8.6392,1.445-17.2866,2.8372c-.513.0822-.399.9706.1238.915Z"/><path class="cls-4" d="M25.1374,82.6676A85.6439,85.6439,0,0,1,25.3148,71.2l-1.0375.43a104.0675,104.0675,0,0,1,7.3208,8.2076l.1292-1.0026c-.9248.5856-2.0731,1.3618-2.2507,2.5493a2.3975,2.3975,0,0,0,.103,1.0525,4.5992,4.5992,0,0,0,.6408,1.1286,1.9723,1.9723,0,0,1-1.6995,2.0566l.7842.4453c-.392-1.3093-.5619-3.526-1.8355-4.3473-1.1265-.7264-2.4539-.1486-3.4933.4827a.645.645,0,0,0,.6506,1.1131c2.5138-1.2574,2.8759,1.2411,3.4487,3.09a.6426.6426,0,0,0,.7842.4453c1.0632-.4218,2.3867-.99,2.73-2.2064a2.1406,2.1406,0,0,0,.007-1.0544c-.076-.3251-.4013-.636-.4634-.9383a3.0352,3.0352,0,0,1,1.2382-2.715.6505.6505,0,0,0,.1292-1.0026,91.527,91.527,0,0,0-7.364-8.1643.6154.6154,0,0,0-1.0375.43,61.5921,61.5921,0,0,0,.0538,11.4679c.064.6167,1.0137.6439.9844,0Z"/><path class="cls-4" d="M30.1981,168.0936c.5229-4.713.9564-9.4324,1.3976-14.1535l-1.04.4307c2.7206,3.0974,5.4629,6.1774,8.1564,9.2984l.46-1.1116a2.4972,2.4972,0,0,0-2.5506,2.2127c-.2318,1.4677,2.6961,5.6988.7386,6.18-1.8967.4662-2.5181-5.1167-3.9945-6.0933-1.3125-.8683-2.5682.7973-3.45,1.63-.633.5976.316,1.5389.9529.9529.313-.288.7587-.8783,1.1516-1.038.8579-.3488.4445-.2232.9938.4856a23.0737,23.0737,0,0,1,1.8548,3.6817c.4887.9684.8833,2.24,2.1826,2.0027.737-.1345,2.5753-1.1851,2.8142-2.0178.3282-1.1436-3.821-6.5546-.6932-6.6941a.66.66,0,0,0,.46-1.1116c-2.7631-3.0572-5.4795-6.1577-8.2159-9.2389-.3811-.4291-.9975-.0535-1.04.4307-.4127,4.7167-.833,9.43-1.1637,14.1535-.0448.64.9159.6174.9844,0Z"/><path class="cls-4" d="M245.3644,59.0157A69.1094,69.1094,0,0,0,243.59,46.3126l-.4313.76c3.7294-.63,6.8845,2.1194,10.3341,3.0552l-.4826-.85a32.3246,32.3246,0,0,0-.9643,8.3239.6742.6742,0,0,0,1.3477,0,43.82,43.82,0,0,1,.9493-7.9565.7039.7039,0,0,0-.4826-.85c-3.7946-1.011-6.9145-3.7074-11.03-2.9136a.6271.6271,0,0,0-.4313.76c.9451,4.1238,1.5636,8.2985,2.1653,12.483.0656.4562.8151.3445.8-.1083Z"/><path class="cls-4" d="M246.7883,46.5649a23.0354,23.0354,0,0,1,.2849-3.6276l-.6559.3724c3.9122.9561,6.7071,3.9237,10.3041,5.5544l-.2334-.89a57.9349,57.9349,0,0,0-3.7438,8.9667c-.1844.6227.8063,1.0772,1.0763.4538,1.2669-2.9252,2.3918-5.8942,3.7908-8.7639a.6587.6587,0,0,0-.2334-.89c-3.6495-1.6537-6.5918-4.863-10.6772-5.4594-.2567-.0375-.61.0607-.6559.3724a22.5536,22.5536,0,0,0-.2469,3.9111.4954.4954,0,0,0,.99,0Z"/><path class="cls-4" d="M250.238,43.6971c.3113-.7867.598-1.5786.8849-2.3744l-1.003.2648c3.2285,2.7144,6.221,5.6656,9.186,8.6609v-.9758a37.4718,37.4718,0,0,0-6.6,8.39.66.66,0,0,0,1.1384.6654,40.2059,40.2059,0,0,1,6.4374-8.08.7023.7023,0,0,0,0-.9758,82.4632,82.4632,0,0,0-9.3131-8.5338.61.61,0,0,0-1.003.2648c-.2611.8018-.52,1.6-.7559,2.41-.1965.6738.7818.9065,1.0283.2835Z"/><path class="cls-4" d="M250.5736,54.3217a3.166,3.166,0,0,0-3.9909-1.1753c-1.63.93-1.4894,3.1766-.4482,4.4841,1.02,1.2812,3.1625,2.0457,4.5379.8412a3.0362,3.0362,0,0,0-.0623-4.3357.5622.5622,0,0,0-.8788.6781c.3755.78.9046,1.8848.1509,2.64-.7709.773-2.1254.1766-2.7281-.5125-.6847-.7828-.9943-2.3392.1677-2.861a2.5063,2.5063,0,0,1,2.5985.7448C250.2411,55.1544,250.8546,54.7146,250.5736,54.3217Z"/><path class="cls-4" d="M224.931,28.3095c-.7272,2.4356-.6039,6.1066,1.4914,7.9295,1.92,1.67,3.9-.5994,4.1412-2.4855.28-2.1908-.21-5.1927-2.2324-6.4629-2.5164-1.5808-4.0658.9888-4.09,3.3077a.5746.5746,0,0,0,1.1484,0c.0789-1.1636.3544-3.0133,2.1665-2.398a2.7232,2.7232,0,0,1,1.2082,1.3048,7,7,0,0,1,.6686,3.4508c-.04,1.3286-.5563,3.7732-2.7429,1.8527a4.2212,4.2212,0,0,1-.8245-1.8027,8.3974,8.3974,0,0,1-.11-4.4689.4281.4281,0,0,0-.8249-.2274Z"/><path class="cls-4" d="M232.5753,31.8258c-.4024,1.0445-.6962,2.2852.229,3.154a1.8176,1.8176,0,0,0,2.63-.406,2.6988,2.6988,0,0,0,.5932-2.9091,2.1444,2.1444,0,0,0-2.5366-1.1836.519.519,0,0,0,.2757,1c1.4193-.304,1.6053,1.4611.9257,2.29-.3678.4484-.9694.8534-1.3977.2288-.3875-.5651-.1381-1.3661.02-1.97a.3841.3841,0,0,0-.74-.2041Z"/><path class="cls-4" d="M207.6621,103.2761a2.8735,2.8735,0,0,0,.9024,4.3573c1.9781.9793,3.7645-.542,4.9091-2.049,1.3106-1.7256-.1936-3.44-2.0713-3.6589-2.1766-.2541-4.0976,1.3538-4.9513,3.2467a.63.63,0,0,0,1.0878.6358,6.1575,6.1575,0,0,1,2.2576-2.312c1.1169-.5085,3.6312-.3275,2.3608,1.6863a2.9732,2.9732,0,0,1-2.639,1.5084,1.8765,1.8765,0,0,1-1.1122-2.98c.3122-.4724-.4186-.8657-.7437-.4347Z"/><path class="cls-4" d="M216.2862,93.1458a5.7057,5.7057,0,0,0,2.1736,3.8317,2.1724,2.1724,0,0,0,3.396-.6947c1.1529-2.4964-2.2158-6.6827-4.8463-4.8885a.5835.5835,0,0,0,.5885,1.0068,1.9063,1.9063,0,0,1,2.3047.7238c.5446.6589,1.2979,1.9232.6995,2.7423-1.2545,1.7174-3.1088-2.1321-3.3781-2.98a.4868.4868,0,0,0-.9379.2586Z"/><path class="cls-4" d="M212.2928,90.822a4.0019,4.0019,0,0,0-3.0278,3.4147c-.2156,1.6479.7755,3.6122,2.6658,3.4817,1.6912-.1168,2.687-2.2,2.7174-3.7032a2.9833,2.9833,0,0,0-3.0887-3.1726.5863.5863,0,0,0,0,1.1719c3.2574.1347,1.4675,5.2793-.3211,4.326-1.0431-.556-.8989-2.1255-.4429-2.9933a4.2636,4.2636,0,0,1,1.8517-1.6846c.4782-.2681.1373-.9308-.3544-.8407Z"/><path class="cls-4" d="M224.8927,83.582c-1.3747-1.4484-2.7185,1.1148-2.841,2.2462-.183,1.69.9463,3.42,2.8333,2.911a4.1674,4.1674,0,0,0,2.835-4.62c-.3771-1.4906-2.3514-2.4681-3.5541-1.2672-.4128.4122.13,1.1707.639.8282a1.1774,1.1774,0,0,1,1.794.748,3.0238,3.0238,0,0,1-1.33,2.84c-.901.624-1.959.4129-2.079-.7749-.0227-.2249.3956-2.7288.9821-2.1911a.51.51,0,0,0,.7209-.7209Z"/><path class="cls-4" d="M250.372,51.2127c.2136.0418.41.164.233.3788a.5482.5482,0,0,0,.7748.7748,1.1986,1.1986,0,0,0-.8816-2.0859c-.4894.0491-.694.8213-.1262.9323Z"/><path class="cls-4" d="M245.0641,49.51a.71.71,0,0,1,.3813,1.0022c-.1934.5523.6093.8295.905.3815a1.5418,1.5418,0,0,0-.93-2.23c-.4861-.1-.85.5952-.3567.846Z"/><path class="cls-4" d="M247.8782,45.9277c.1738.0667.2326.2143.3293.3595.2675.4013.9929.2839.9663-.2617a1.1712,1.1712,0,0,0-1.02-1.0978.519.519,0,0,0-.2757,1Z"/><path class="cls-4" d="M253.4577,48.5112a1.2307,1.2307,0,0,1,.3689,1.1459c-.0511.5162.7645.6063.892.1207a1.833,1.833,0,0,0-.6435-1.8839c-.4272-.3468-1.038.2291-.6173.6173Z"/></g></svg>