<svg xmlns="http://www.w3.org/2000/svg" viewBox="0 0 244.3717 158.7941"><defs><style>.cls-1{fill:#f7fafc;}.cls-2{fill:#ffefaf;}.cls-3{fill:#e93a1d;}.cls-4{fill:#172df8;}.cls-5{fill:#303030;}</style></defs><title>DN_Service-Ya2-img-4</title><g id="Layer_2" data-name="Layer 2"><g id="back"><path class="cls-1" d="M174.5577,159.3627c-10.1658,0-20.8958-6.4136-30.2075-12.8953a19.9886,19.9886,0,0,1-4.3337,5.0979,20.3348,20.3348,0,0,1-15.5989,4.5188,20.0971,20.0971,0,0,1-4.67.0449,19.8841,19.8841,0,0,1-6.7566.2087,20.2381,20.2381,0,0,1-15.8613-.5464c-.8486-.3708-1.7979-.8323-2.9866-1.4521-1.6587-.8647-3.8774-2.0872-6.783-3.7373-3.0957-1.7581-7.0308-4.0369-11.7527-6.8057a20.0138,20.0138,0,0,1-32.2937,2.3616s-9.6611-11.4543-19.32-22.9355c-4.8372-5.75-9.6736-11.5061-13.3-15.8386-1.8352-2.1926-3.364-4.0251-4.4336-5.3159C3.3548,98.5607-.6242,93.7577.0826,85.5546a19.999,19.999,0,0,1,7.0781-13.61,20.6435,20.6435,0,0,1,9.4878-4.4072c-6.4443-9.3027-8.5811-15.332-8.2615-21.7759A21.4134,21.4134,0,0,1,14.5191,31.77a19.9013,19.9013,0,0,1,6.0059-8.8118,20.0894,20.0894,0,0,1,6.261-5.6089q.175-.1542.354-.3042a19.9989,19.9989,0,0,1,26.4175.6233q1.9556,1.8047,3.9075,3.5969.0161-.6053.0671-1.2341a20.0854,20.0854,0,0,1,7.092-13.7271C67.16,4.176,76.4027-2.2288,88.8592,4.717c1.5017.8374,3.2163,1.9336,5.3955,3.45,2.1738,1.5125,4.8281,3.4568,8.0342,5.8857a19.9993,19.9993,0,0,1,5.5571-7.5134c5.39-4.5225,14.6284-7.239,24.3933-1.3,1.1418.6943,2.4385,1.5774,4.0806,2.7786,2.3455,1.7161,5.5508,4.1985,9.7988,7.59q1.2151.97,2.5117,2.0127a20.0387,20.0387,0,0,1,1.7537-1.6616c5.3228-4.4651,14.4211-7.1926,23.9917-1.4548.8843.53,1.8936,1.1912,3.1763,2.08.91.6311,1.97,1.386,3.1975,2.2764a20.006,20.006,0,0,1,23.718,4.062c.3616.3835,8.9558,9.5063,17.6772,19.2791,18.1917,20.3848,22.7463,26.61,22.1814,36.2754a20.4616,20.4616,0,0,1-5.53,12.8127,19.9985,19.9985,0,0,1-5.2852,23.74,20.8825,20.8825,0,0,1-6.1787,3.5251,20.0022,20.0022,0,0,1-30.8164,24.384l-.9663-.8076a19.9986,19.9986,0,0,1-6.87,12.0186A21.3309,21.3309,0,0,1,174.5577,159.3627Z" transform="translate(0 -0.5686)"/></g><g id="Layer_2-2" data-name="Layer 2"><rect class="cls-2" x="94.0349" y="16.472" width="17.7808" height="8.678"/><rect class="cls-2" x="91.9809" y="56.4807" width="21.1796" height="7.7948"/><rect class="cls-2" x="127.4462" y="50.8338" width="17.6718" height="7.9013"/><rect class="cls-2" x="126.4345" y="66.2501" width="19.9515" height="11.2356"/><rect class="cls-2" x="150.8434" y="87.6254" width="20.8601" height="6.1551" rx="3.0775" ry="3.0775"/><polygon class="cls-2" points="91.497 41.115 103.303 47.251 114.769 37.682 102.126 34.259 91.497 41.115"/><path class="cls-3" d="M77.0247,93.7762c.2322-.3125.9932-.4711,1.1117-.7208.2436-.5132-.4035-1.717-.72-2.073-2.0048-2.2545-1.7715,1.1774-.95,2.4589C76.7985,93.959,76.5986,94.35,77.0247,93.7762Z" transform="translate(0 -0.5686)"/><path class="cls-4" d="M92.4958,77.8516l.0243.014c.2443.1378,2.178.1889,2.0085.7265.385-1.22-.0679-3.3407-1.4926-3.7087-1.2032-.3108-1.6042.8865-1.3318,1.8549A1.7886,1.7886,0,0,0,92.4958,77.8516Z" transform="translate(0 -0.5686)"/><path class="cls-4" d="M91.6364,90.3578c4.0545,10.7049,6.9915,21.8351,10.4449,32.7593,2.2017,6.9645,5.1616,13.82,7.0654,20.73,2.6187-.7251,5.4025-.6191,7.9217-1.2786,1.0348-.2709,1.8875-1.0742,2.94-1.0753-2.8717-7.1525-5.6071-13.7966-7.5467-21.2381-2.0929-8.03-4.3718-16.6028-7.2319-24.38-1.0811-2.94-2.5778-8.7963-5.9129-9.247-1.67-.2257-3.3645,1.0424-4.8253,1.6635C93.55,88.6913,91.9634,88.7,91.6364,90.3578Z" transform="translate(0 -0.5686)"/><path class="cls-3" d="M97.4351,156.1445c-.7317-2.0324-2.1965-3.4406-3.202-5.2962-1.5363-2.8354-2.21-6.23-3.3563-9.2373-1.689-4.4307-3.9778-8.7455-5.4641-13.2575a89.8847,89.8847,0,0,0-3.5694-9.951c-2.1542-4.6225-3.19-10.1946-6.209-14.252,2.5091-.1909,4.9548-1.5085,7.4229-2.1228,2.409-.6,1.8273-1.1826,3.4782.6874,2.435,2.7582,3.53,7.439,5.0363,10.7484a72.1942,72.1942,0,0,1,3.3555,9.5156c1.7943,6.0471,4.3538,11.3889,6.7105,17.1513,1.5364,3.7566,2.3175,7.6613,3.916,11.4028C105.6389,151.7325,98.1671,155.749,97.4351,156.1445Z" transform="translate(0 -0.5686)"/><path class="cls-5" d="M26.3256,132.8993q16.27-46.3849,29.4112-93.7943,3.7676-13.6014,7.2755-27.2727l-.7056.5372a94.4438,94.4438,0,0,1,16.4375,2.6992l-.5185-.9133A618.3033,618.3033,0,0,1,51.1341,110.43q-5.0641,13.63-10.77,27.0092l.88-.3581q-7.6379-2.0723-15.2735-4.1531a.7888.7888,0,0,0-.419,1.52q7.6392,2.0677,15.2782,4.1362a.7864.7864,0,0,0,.88-.3581A617.183,617.183,0,0,0,73.5026,42.6926Q76.9155,28.697,79.6575,14.55a.7574.7574,0,0,0-.5185-.9133,96.2073,96.2073,0,0,0-16.8322-2.7308.7365.7365,0,0,0-.7056.5372q-12.0836,47.644-27.2593,94.4328-4.366,13.42-8.96,26.763c-.2059.5973.7364.8508.9436.26Z" transform="translate(0 -0.5686)"/><path class="cls-5" d="M36.4278,130.8336a8.7273,8.7273,0,0,0,5.1752,1.1629c.6838-.0589.6763-1.1427,0-1.0664a7.8336,7.8336,0,0,1-4.7079-.8959.4632.4632,0,0,0-.4673.7994Z" transform="translate(0 -0.5686)"/><path class="cls-5" d="M38.2238,124.73c1.7974.4532,3.6211.8166,5.4308,1.2182.6934.1539.9855-.9242.2928-1.0622-1.8209-.3628-3.6393-.766-5.47-1.0769-.5939-.1009-.861.7679-.2539.921Z" transform="translate(0 -0.5686)"/><path class="cls-5" d="M42.0458,117.1112a15.37,15.37,0,0,0,6.829.2636c.6929-.1235.404-1.201-.2928-1.0622a14.9655,14.9655,0,0,1-6.2853-.1111.4721.4721,0,0,0-.2508.91Z" transform="translate(0 -0.5686)"/><path class="cls-5" d="M46.9488,105.1375a16.9281,16.9281,0,0,0,7.3851.2111c.7-.1369.3974-1.18-.2928-1.0622a16.9907,16.9907,0,0,1-6.8088-.1772c-.667-.1558-.9516.8636-.2835,1.0283Z" transform="translate(0 -0.5686)"/><path class="cls-5" d="M51.8416,94.2979c1.9771.467,3.9883.8129,5.9811,1.2071.7609.1505,1.0824-1.0231.3209-1.1639-2.0008-.37-4.0008-.7914-6.0138-1.0885-.67-.0989-.9842.8809-.2882,1.0453Z" transform="translate(0 -0.5686)"/><path class="cls-5" d="M54.715,85.0608q2.4569.3022,4.9152.5916c.7736.0919.7768-1.137,0-1.2187q-2.4572-.2587-4.9152-.51c-.7329-.074-.7129,1.049,0,1.1367Z" transform="translate(0 -0.5686)"/><path class="cls-5" d="M56.9838,73.9548a7.2016,7.2016,0,0,1,5.0312.2258.6505.6505,0,1,0,.5034-1.1941,7.9483,7.9483,0,0,0-5.8461-.1618c-.6939.2589-.425,1.3456.3115,1.13Z" transform="translate(0 -0.5686)"/><path class="cls-5" d="M60.7215,65.4182q2.7309.027,5.4619.0469a.6215.6215,0,0,0,0-1.2422q-2.731.0213-5.4619.0469a.5746.5746,0,0,0,0,1.1484Z" transform="translate(0 -0.5686)"/><path class="cls-5" d="M63.9986,54.512c1.4565.02,2.9129.0307,4.37.041a.6332.6332,0,0,0,0-1.2656c-1.4566.01-2.913.0209-4.37.041a.5922.5922,0,0,0,0,1.1836Z" transform="translate(0 -0.5686)"/><path class="cls-5" d="M65.0926,44.1917a10.141,10.141,0,0,1,4.74.5364c.8235.3017,1.19-1.026.3629-1.3165a10.66,10.66,0,0,0-5.2726-.4744c-.7032.1117-.5467,1.3357.17,1.2545Z" transform="translate(0 -0.5686)"/><path class="cls-5" d="M66.7353,35.3019l5.46.6215c.78.0888.7887-1.1585,0-1.23l-5.46-.4985c-.7148-.0653-.6966,1.0281,0,1.1074Z" transform="translate(0 -0.5686)"/><path class="cls-5" d="M69.3539,25.3924l3.2539,1.1656c.7261.26,1.0517-.9112.3193-1.1583l-3.2711-1.1034c-.6976-.2353-.9846.8517-.3022,1.0961Z" transform="translate(0 -0.5686)"/><path class="cls-5" d="M70.5529,19.0185a21.5152,21.5152,0,0,1,6.3892.5445c.7775.1858,1.1092-1.0168.33-1.1978a22.6428,22.6428,0,0,0-6.7194-.5479c-.7662.0524-.7743,1.2493,0,1.2012Z" transform="translate(0 -0.5686)"/><path class="cls-5" d="M162.6851,16.1016c2.9288,21.2951,5.6415,42.6554,8.9866,63.8893.1072.6805,1.3035.5278,1.2142-.1643-2.7539-21.3605-6.1484-42.6655-9.3194-63.9679-.0867-.5824-.96-.3308-.8814.243Z" transform="translate(0 -0.5686)"/><path class="cls-5" d="M158.6708,16.6988a374.3157,374.3157,0,0,1,8.2155,58.2464.6971.6971,0,0,0,.8681.6613q1.076-.2209,2.153-.4366c.8765-.176.5081-1.5343-.3707-1.3447q-1.073.2315-2.1469.4587l.8681.6613a329.8343,329.8343,0,0,0-8.6209-58.5128c-.155-.6285-1.102-.3615-.9662.2664Z" transform="translate(0 -0.5686)"/><path class="cls-5" d="M165.6948,14.5364Q187.51,33.71,210.869,51.008c.6536.4849,1.29-.6142.6388-1.0928q-23.2819-17.12-45.1625-36.0292c-.4454-.3842-1.0972.2579-.65.65Z" transform="translate(0 -0.5686)"/><path class="cls-5" d="M165.5366,10.9446c6.5713,5.8191,13.1939,11.588,20.2608,16.8045,3.4537,2.5494,7.0591,4.8441,10.6423,7.2019a54.5473,54.5473,0,0,1,5.6218,4.1826q1.3694,1.1779,2.653,2.4512c.4124.41,4.24,4.0815,1.9867,4.6467-.66.1656-.5428,1.2737.1643,1.2142a1.9541,1.9541,0,0,0,1.9759-1.6417c.3677-1.83-1.4272-3.3513-2.5554-4.5134-3.7351-3.8469-8.0745-6.73-12.5612-9.6094C183.9219,25.39,175.05,17.81,166.1456,10.3356c-.42-.3522-1.0279.2382-.6091.6091Z" transform="translate(0 -0.5686)"/><path class="cls-5" d="M160.1381,15.2081c-2.7372-1.1531-2.4161-5.3135.65-5.68A2.8615,2.8615,0,0,1,162.8667,14.6c-.63.5515.2942,1.4742.92.92,3.0387-2.6929.732-7.936-3.3756-7.1128a3.9876,3.9876,0,0,0-.508,7.6537c.5421.2023.7461-.6379.2352-.8532Z" transform="translate(0 -0.5686)"/><path class="cls-5" d="M157.4091,8.7387c-1.2962-2.04-2.6481-4.0562-3.8506-6.1532l-.1952.7444c.7747-.5207,1.53-1.07,2.29-1.6116L154.76,1.355a31.4682,31.4682,0,0,0,4.3824,8.0008c.4735.63,1.55.0185,1.0726-.627a34.1453,34.1453,0,0,1-4.2825-7.6971c-.1275-.3185-.5479-.6275-.8931-.3634-.7818.5982-1.57,1.1881-2.3358,1.807a.5427.5427,0,0,0-.0851.6593c1.4432,1.9457,2.7533,3.995,4.1072,6.0033.282.4183.9585.0342.683-.3992Z" transform="translate(0 -0.5686)"/><path class="cls-5" d="M169.3179,47.1343c6.6466-1.95,14.1515-4.4959,17.2626-11.258.334-.7259-.747-1.36-1.0777-.63-2.9431,6.4965-10.1074,8.9791-16.44,10.9613a.4809.4809,0,0,0,.2555.9266Z" transform="translate(0 -0.5686)"/><path class="cls-5" d="M189.3416,28.259a23.2854,23.2854,0,0,0,1.0313-16.2235c-.1976-.6638-1.2444-.3786-1.04.2866a22.5581,22.5581,0,0,1-.79,15.6006c-.19.4516.5994.7891.7979.3364Z" transform="translate(0 -0.5686)"/><path class="cls-5" d="M109.2319,142.44c-5.1387-16.3846-10.7313-32.6365-16.1333-48.9358-.2268-.6844-1.0335-2.123-.9353-2.822.2238-1.5925,1.3517-2.0043,2.6258-2.2756,1.8229-.3881,4.0509-1.238,5.9082-1.2281,1.6495.0088,2.2912,2.689,2.8967,4.0951.8257,1.9175,1.5685,3.8721,2.2586,5.8422,2.4718,7.0569,4.1837,14.3449,6.08,21.569,2.0894,7.9607,4.4562,15.8487,8.1579,23.2274l.3837-.9432a58.1906,58.1906,0,0,0-11.7642,2.8149c-.8253.294-.47,1.6193.3645,1.3221a58.0633,58.0633,0,0,1,11.7411-2.8988c.44-.0595.5458-.6195.3837-.9432-8.7775-17.5335-9.7266-37.815-18.7833-55.2418a.6062.6062,0,0,0-.6709-.273c-2.8051.5924-5.7112,1.025-8.4708,1.8-1.0748.3019-2.2481.8112-2.4333,2.0509-.1612,1.0795.5149,2.2936.84,3.268l1.5674,4.7009,2.978,8.9318c4.0226,12.0645,7.9308,24.1771,12.1471,36.1756.1879.5347,1.0321.3158.8588-.2368Z" transform="translate(0 -0.5686)"/><path class="cls-5" d="M91.6345,88.4144A15.9231,15.9231,0,0,0,92.7474,78.096l-.4124.7263c2.7355-.45,4.0948,2.58,5.181,4.5112a8.4163,8.4163,0,0,0,2.9454,3.3146.61.61,0,0,0,.6151-1.0524c-3.4473-2.072-3.8843-8.78-9.0555-7.9121a.5993.5993,0,0,0-.4124.7263,16.4664,16.4664,0,0,1-.772,9.668c-.177.4576.59.7849.7979.3364Z" transform="translate(0 -0.5686)"/><path class="cls-5" d="M92.5292,78.0088a3.2756,3.2756,0,0,1-.308-2.5628c.1244-.2774.2744-.1252.5179.0632a3.2168,3.2168,0,0,1,.9657,2.3244c.0783.6408,1.0966.6446,1.0137,0a4.3092,4.3092,0,0,0-1.3261-3.0664c-.5087-.4079-1.2477-.71-1.778-.1585-.8477.881-.4352,2.931.161,3.8408.306.4668,1.05.0417.7539-.4406Z" transform="translate(0 -0.5686)"/><path class="cls-5" d="M76.7944,106.6723q9.7655,25.2915,19.7182,50.511a.6555.6555,0,0,0,.9494.3863q4.02-2.5517,8.0323-5.1167a.6693.6693,0,0,0,.2989-.7346c-3.0327-11.5528-7.6235-22.5826-12.1376-33.6151l-3.2767-8.0083a79.7321,79.7321,0,0,0-3.16-7.7186c-.6363-1.1777-1.3436-1.3565-2.6193-1.0708-2.9645.6638-5.9129,1.9155-8.8013,2.8568-.807.263-.46,1.5441.352,1.2769,2.4859-.8174,5.3261-2.2572,7.9151-2.593a.9669.9669,0,0,1,1.6054.3168,1.4869,1.4869,0,0,1,.9078,1.0483,16.1137,16.1137,0,0,1,.9116,2.2242l1.6408,4.0035c2.2417,5.47,4.5035,10.9314,6.7139,16.4137,2.1388,5.3049,4.2019,10.6449,5.9948,16.078q.7461,2.261,1.4255,4.5435c.2988,1.0079,1.2648,3.07.9008,4.0176-.385,1.0024-2.4625,1.8341-3.3444,2.3962q-2.0079,1.28-4.0119,2.5657l.9494.3863q-10.0287-25.2152-20.168-50.387c-.1958-.4841-.99-.28-.7967.22Z" transform="translate(0 -0.5686)"/><path class="cls-5" d="M76.3835,103.402a13.2853,13.2853,0,0,0,.9381-5.2034c-.03-1.1275-1.3053-4.8215,1.073-4.0255.642.2149,1.5382,1.8726,1.96,2.4015l1.52,1.9044c1.3509,1.6926,2.6974,3.389,4.0555,5.0758.4974.6177,1.359-.2578.87-.87-1.8574-2.3259-3.7321-4.6382-5.5994-6.9562-.8986-1.1154-2.3081-3.6909-4.1343-3.1772-1.1085.3118-1.3519,1.4591-1.3,2.4771.0543,1.0647.382,2.1012.4378,3.17a15.663,15.663,0,0,1-.6347,4.9791c-.1464.5347.6211.72.8136.2243Z" transform="translate(0 -0.5686)"/><path class="cls-5" d="M76.8776,93.3774c-.1468-.5882-.8593-1.529-.4792-2.1047.2808-.4252.5006.2186.6234.47.1917.3927.3273.8011.4825,1.2086a.5483.5483,0,0,0,1.0566-.2913c-.2425-.9625-1.09-3.26-2.4756-2.4919a1.6534,1.6534,0,0,0-.7862,1.4171,7.3787,7.3787,0,0,0,.7254,2.027.4428.4428,0,0,0,.8532-.2352Z" transform="translate(0 -0.5686)"/><path class="cls-5" d="M215.36,72.5486q-41.5617,26.327-82.99,52.864a.6664.6664,0,0,0,0,1.14q24.8,12.0184,50.17,22.7945a.7021.7021,0,0,0,.946-.248q15.7858-37.1224,31.5823-74.24c.35-.8235-.8612-1.5407-1.2143-.71q-15.7767,37.1278-31.5621,74.252l.946-.248q-25.3645-10.7763-50.2015-22.7408v1.14q41.4173-26.5681,82.7941-53.2c.5014-.324.0389-1.127-.47-.8044Z" transform="translate(0 -0.5686)"/><path class="cls-5" d="M155.4864,125.2483a457.5175,457.5175,0,0,0,37.6949-26.2159l-.838-.838q-9.1921,17.8952-18.631,35.6622l.8845-.2319q-9.615-4.2538-19.2261-8.5162c-.7791-.3438-1.46.806-.6743,1.1535q9.6177,4.2537,19.2478,8.4791a.6605.6605,0,0,0,.8845-.2319q9.4216-17.7778,18.5723-35.6966a.6155.6155,0,0,0-.9619-.7422c-12.08,9.3507-24.5782,18.1134-37.3963,26.419-.4722.306-.04,1.0593.4436.7589Z" transform="translate(0 -0.5686)"/><path class="cls-5" d="M93.7118,16.4314c-.1465,1.4974-.3172,2.9921-.4619,4.49-.1244,1.288-.597,3.0577-.355,4.3239.2392,1.2516,1.0362,1.4913,2.1975,1.5778,3.1338.2334,6.3894-.0274,9.5328-.0409,1.5887-.0068,3.1777-.0047,4.7664-.02a4.2521,4.2521,0,0,0,2.5089-.3952c1.3464-1,.7307-3.6895.7356-5.0909.0048-1.361.6676-4.024-.7387-4.902a4.8351,4.8351,0,0,0-2.5768-.2171q-2.4655.0392-4.9308.0827L94.0349,16.42a.6215.6215,0,0,0,0,1.2422q6.41-.1263,12.82-.2526a18.0617,18.0617,0,0,1,2.9585-.0625c1.6086.2478,1.6515.3207,1.6546,2.006.003,1.5776.7564,5.5753-1.1234,6.273a12.2974,12.2974,0,0,1-2.86.0276l-2.86.0276-6.6729.0645c-.7775.0075-2.1951.322-2.86.0276-1.5842-.7016-1.1513-1.8107-1.0592-3.0562.155-2.0945.28-4.1906.4287-6.2854.0344-.4853-.7036-.4738-.75,0Z" transform="translate(0 -0.5686)"/><path class="cls-5" d="M101.815,27.2284l-.0293,5.6556a.472.472,0,0,0,.9434,0L102.7,27.2284a.4426.4426,0,0,0-.8848,0Z" transform="translate(0 -0.5686)"/><path class="cls-5" d="M113.0431,38.7828c5.5511-.4851,11.0988-1.008,16.65-1.4931,1.4323-.1252,2.635-.5749,3.7171.4386,1.22,1.1429,1.0569,3.1623,1.2645,4.7954.3169,2.4923.6137,4.9878.964,7.4757.0851.6047,1.1472.4686,1.0761-.1456-.3894-3.364-.8558-6.72-1.2917-10.0788-.2-1.5386-.2921-3.3032-2.0631-3.75-1.2491-.3154-2.8867.16-4.1426.2913q-2.616.2734-5.2328.5386c-3.6474.3685-7.2952.7328-10.9413,1.1139-.5137.0537-.5257.86,0,.8145Z" transform="translate(0 -0.5686)"/><path class="cls-5" d="M140.8226,50.4849a96.6509,96.6509,0,0,1-13.3763.3795.5506.5506,0,0,0-.538.538c-.3292,3.049-.61,6.1037-.9105,9.1557a.5631.5631,0,0,0,.5586.5586,171.9581,171.9581,0,0,0,18.5617-1.2411.5976.5976,0,0,0,.5719-.5719c.3278-2.5573.6294-5.61-1.4145-7.57a4.0217,4.0217,0,0,0-4.7663-.8143c-.6926.35-.0822,1.3964.6092,1.0422,2.308-1.1823,4.1351,1.1428,4.5167,3.1195a13.4763,13.4763,0,0,1-.089,4.2224l.5719-.5719a172.6968,172.6968,0,0,1-18.5617,1.2677l.5586.5586c.2925-3.0514.6053-6.1017.8692-9.1557l-.538.538a100.552,100.552,0,0,0,13.3763-.5648c.5609-.0623.5741-.9457,0-.8906Z" transform="translate(0 -0.5686)"/><path class="cls-5" d="M101.0146,33.7594c4.3412,2.1194,8.79,3.9992,13.3051,5.7152l-.2722-1.0308q-2.6459,2.0839-5.2777,4.1859c-1.5236,1.21-3.4241,3.4487-5.3074,3.8947a1.0714,1.0714,0,0,1-1.6209-.1445l-1.67-.8978-2.5044-1.3468-5.8436-3.1424.1326,1.0286a57.9383,57.9383,0,0,1,10.5644-6.6476c.75-.3743.0931-1.4529-.6506-1.1131a51.149,51.149,0,0,0-10.84,6.8345.6587.6587,0,0,0,.1326,1.0286l7.106,3.7985c1.2611.6741,3.5051,2.564,5.0757,2.3462,1.666-.231,3.5719-2.56,4.8112-3.5492,2.2555-1.8,4.5158-3.5943,6.7641-5.4034.3916-.3151.1189-.8922-.2722-1.0308-4.47-1.5841-8.8465-3.3738-13.1776-5.3049-.521-.2323-.9835.5214-.4554.7791Z" transform="translate(0 -0.5686)"/><path class="cls-5" d="M101.6779,48.81a43.92,43.92,0,0,0,.15,8.227.5162.5162,0,1,0,1.0186-.1379,43.3559,43.3559,0,0,1-.3956-8.0892c.0166-.5033-.7317-.4892-.7734,0Z" transform="translate(0 -0.5686)"/><path class="cls-5" d="M91.5619,57.0493c-.02,1.44-.0646,2.8831-.06,4.3236.0023.7718-.1771,1.8372.39,2.5037.9939,1.1685,3.3891.7654,4.6887.826q4.5446.2119,9.09.4084c1.76.0778,5.0935.9327,6.626-.3281,1.342-1.1041,1.1575-3.8881,1.309-5.3957.1473-1.4663.2925-2.709-1.3911-3.0549a15.1261,15.1261,0,0,0-3.628.1687l-4.8515.3088-9.703.6176c-.7793.05-.7838,1.2708,0,1.2188l11.6436-.7735,2.9109-.1934a12.1226,12.1226,0,0,1,2.9109-.1934c1.5086.519.9718,1.755.8516,2.886-.2007,1.8884.1606,3.2349-2.3726,3.8127-1.6373.3735-4.0469-.1577-5.741-.2237q-2.87-.1118-5.741-.2217c-1.6358-.0609-4.2734.361-5.43-.8383-1.18-1.2234-.6582-4.1659-.6642-5.8518a.4192.4192,0,0,0-.8379,0Z" transform="translate(0 -0.5686)"/><path class="cls-5" d="M101.45,66.099c.6293.56.0661,1.8846.2528,2.6252a2.7914,2.7914,0,0,0,.7985,1.3157,6.35,6.35,0,0,0,4.0056,1.3817c6.0672.4283,12.2905.081,18.3736.1123a.58.58,0,0,0,0-1.16L109.08,70.3356c-2.347-.0057-6.09.3844-6.3711-2.8225-.0872-.9966.1632-1.5095-.7082-2.1273-.4194-.2974-.9342.3718-.55.7132Z" transform="translate(0 -0.5686)"/><path class="cls-5" d="M135.1648,61.682q.2453,2.0564.5015,4.1114c.0774.6223,1.0672.625.9844,0q-.2805-2.1183-.5709-4.2352c-.0707-.5143-.9773-.3983-.915.1238Z" transform="translate(0 -0.5686)"/><path class="cls-5" d="M126.0361,66.8187a25.0484,25.0484,0,0,0,.5728,7.9693c.3493,1.4192.7447,2.8746,2.2,3.4913,2.0477.8677,5.16.3415,7.33.36,3.4161.0289,6.8317.0076,10.2475-.0415a.5526.5526,0,0,0,.5239-.3989c.616-2.6737,2.1643-9.3414-1.1131-10.8768-1.9779-.9266-4.9214-.7813-7.0424-.8734a55.9,55.9,0,0,0-9.2395.3548c-.756.0929-.7792,1.2865,0,1.207a63.2463,63.2463,0,0,1,12.01-.1877,11.5889,11.5889,0,0,1,3.2985.41c1.8459.8339,1.6278,2.593,1.6422,4.2026a13.1822,13.1822,0,0,1-.2678,3.7622c-.385,1.2023-.3877,1.1751-1.7636,1.3627-4.073.5554-8.5794.1327-12.6877.0785-1.3063-.0172-2.7936.1836-3.6875-1.2236a9.5208,9.5208,0,0,1-.8067-2.7149,24.4771,24.4771,0,0,1-.42-6.8809c.035-.5131-.7572-.5077-.7969,0Z" transform="translate(0 -0.5686)"/><path class="cls-5" d="M146.4685,72.8589a156.8135,156.8135,0,0,0,15.7987-1.8295l-.6938-.5285c-.23,5.7979-.3565,11.6042-.4968,17.4049a.6244.6244,0,0,0,1.248,0c.14-5.8.2949-11.6039.3449-17.4049a.5558.5558,0,0,0-.6938-.5285,149.4173,149.4173,0,0,1-15.5072,2.0193c-.5483.0477-.5629.8981,0,.8672Z" transform="translate(0 -0.5686)"/><path class="cls-5" d="M168.1131,88.0374a49.6552,49.6552,0,0,0-11.058-.0593c-1.9689.2261-4.3027.4645-5.8,1.9339a2.9008,2.9008,0,0,0-.4146,3.8927c1.109,1.4513,3.3137,1.587,4.9745,1.5445,3.5385-.0906,7.1007-.4844,10.6313-.7417,1.889-.1377,4.18-.1386,5.311-1.9355,2.1727-3.4526-2.1191-6.7445-5.1756-4.465-.6155.4591-.0144,1.5073.6092,1.0422q1.145-1.2322,2.3944.1056,1.7153.0546,1.4178,1.3807c.3176,1.6544-1.6082,2.37-2.9171,2.541-1.4713.1921-2.9781.2186-4.4584.3235-3,.2126-6.2594.8274-9.2554.5047-.51-.0549-1.7-.1513-2.0273-.5545l-.2475-2.7961a4.214,4.214,0,0,1,1.4609-.8556,16.3726,16.3726,0,0,1,4.8744-.9627,50.7347,50.7347,0,0,1,9.6807-.0783c.53.0458.5168-.7639,0-.82Z" transform="translate(0 -0.5686)"/></g></g></svg>