<svg xmlns="http://www.w3.org/2000/svg" viewBox="0 0 209 208"><defs><style>.cls-1{fill:#f7fafc;}.cls-2{fill:#e93a1d;}.cls-3{fill:#ffefaf;}.cls-4{fill:#303030;}</style></defs><title>DN_Service-Ya1-img-12</title><g id="back"><path class="cls-1" d="M118.0594,205.223a21.6189,21.6189,0,0,1-9.52-2.3125c-.8965-.4355-1.907-.9795-3.18-1.7129-1.8154-1.0449-4.2515-2.5244-7.4473-4.5234q-3.7438-2.3408-8.9458-5.6777a20.01,20.01,0,0,1-32.8652,3.3467S43.984,179.9769,31.87,165.5775c-6.0647-7.209-12.1289-14.4268-16.6753-19.8594-2.2954-2.7422-4.2075-5.0342-5.5454-6.6484-3.4236-4.1328-7.3042-8.8164-6.5986-17.0273a19.9986,19.9986,0,0,1,7.0811-13.6162,21.0045,21.0045,0,0,1,8.13-4.0693C7.3324,90.02,3.8226,82.182,4.2262,74.0491A21.4642,21.4642,0,0,1,8.89,61.5843a20.0024,20.0024,0,0,1,3.2249-7.6885,20.6043,20.6043,0,0,1,2.7583-5.042,21.1314,21.1314,0,0,1,5.4553-6.98,19.9988,19.9988,0,0,1,18.9814-3.72,19.2008,19.2008,0,0,1-.9592-8.0312,20.0966,20.0966,0,0,1,7.0955-13.7314c2.4993-2.0977,11.62-8.43,23.9431-1.7451,1.29.6992,2.7358,1.5879,4.5083,2.7705a19.9077,19.9077,0,0,1,6.57-10.56c5.2854-4.4346,14.3691-7.166,24.0112-1.5342,1.1006.6436,2.343,1.457,3.91,2.56,2.2073,1.5537,5.2178,3.7979,9.2034,6.8613q1.3656,1.0488,2.84,2.1924a20.05,20.05,0,0,1,25.1033-3.3887,19.9316,19.9316,0,0,1,13.9175,6.2705c.4277.4541,10.5959,11.2471,20.9158,22.8105,22.1472,24.8174,25.9436,30.8516,25.3882,40.3535a20.2929,20.2929,0,0,1-.2754,2.35,19.9994,19.9994,0,0,1-5.938,22.165,20.8224,20.8224,0,0,1-5.7148,3.3467l5.37,6.3994a19.998,19.998,0,0,1-2.4685,28.1768,21.1523,21.1523,0,0,1-12.8657,4.6484H183.69q.5149.5991,1.0234,1.19a19.9987,19.9987,0,0,1-2.3125,28.3555c-7.6782,6.4424-16.43,6.2207-25.0857,3.0693A20.1025,20.1025,0,0,1,139.9276,201.22a19.9,19.9,0,0,1-5.1382,1.15,20.0906,20.0906,0,0,1-8.9177,1.2207A19.7168,19.7168,0,0,1,118.0594,205.223Z"/></g><g id="Layer_2" data-name="Layer 2"><path class="cls-2" d="M111.5733,158.9288c.4531-8.0549.0894-11.3848,3.4609-14.2383,2.4023-2.0334,2.7251-10.8728,2.5854-16.3569a97.0508,97.0508,0,0,0,10.0859-2.4182l-2.894-13.2234c-18.01,6.53-34.4932,5.0925-49.6313-3.36L69.3487,122.684A83.3038,83.3038,0,0,0,82.6,127.31c-.9189,4.6528-2.8437,17.043,2.3418,18.626,3.1631,6.4055,3.8916,7.9639,3.0654,12.8145s-5.9214,12.82-7.3457,16.2024c6.5874,0,32.5815,1.2463,38.1006.89C116.8033,172.46,111.12,166.9838,111.5733,158.9288Z"/><path class="cls-3" d="M133.095,39.9487c1.3181-5.6276.451-12.2433-4.8622-15.5785-5.5543-3.4862-14.0568-1.3293-19.7738.5207-5.0416,1.6315-9.0216,3.6487-14.3968,4.1161-3.5635.31-6.9917.5307-10.2738,2.1248-10.3949,5.05-13.51,20.91-1.2719,25.7582a2.6632,2.6632,0,0,0,1.2629.195c.1442.0173.28.047.43.056,2.5727.1556,4.33-1.3276,6.238-2.7353,4.2835-3.1609,8.2271-5.871,13.9087-5.5218,5.3113.3264,10.9358,4.5327,14.8191,9.5146,1.0266,3.5692,3.7549,6.6,2.7455,10.8473-.8449,3.5554-3.3279,5.9246-3.5644,9.7241-.3576,5.7514,4.1492,11.7044-.8268,16.8286-1.7046,1.7552-.004,5.5281,2.5941,4.4563,6.6743-2.7533,8.02-7.5156,7.1962-14.4694-.3158-2.6669-1.2546-4.7882-.483-7.416.5224-1.7787,1.6888-3.0254,2.47-4.6607a15.1954,15.1954,0,0,0,1.0458-9.7417c-.9691-4.5967-3.4579-6.6783-2-11.349C129.6955,48.3134,132.0606,44.3656,133.095,39.9487Z"/><path class="cls-4" d="M118.9388,55.1211c-.409,7.9762-.6718,15.96-.9707,23.9412-.2422,6.4681-.31,15.2683-7.9537,17.3793-5.939,1.64-12.4285-1.6555-15.6441-6.6418-3.8192-5.9224-4.18-13.2583-4.2624-20.0971a.5922.5922,0,0,0-1.1836,0c-.2405,7.4282.3642,15.575,4.9108,21.7809a16.29,16.29,0,0,0,15.3446,6.54c6.7822-1.1428,9.3443-7.2822,9.8738-13.4893.83-9.7273.7862-19.6545.9752-29.4133a.5453.5453,0,0,0-1.09,0Z"/><path class="cls-4" d="M82.3486,58.0637a26.4151,26.4151,0,0,0,14.6428-7.2076c.5426-.5413-.25-1.2723-.82-.82a34.344,34.344,0,0,1-6.5161,4.3618c-2.4037,1.1422-4.9995,1.6778-7.4372,2.6994-.453.19-.4762,1.0465.1308.9668Z"/><path class="cls-4" d="M123.8285,95.81c2.3238-3.93,5.61-8.2546,4.786-13.1151-.4663-2.7514-2.5777-5.0373-2.2129-7.9257.3748-2.9677,3.0789-5.1789,5.2426-6.9687a.631.631,0,0,0,.0971-.7527c-1.1477-2.3813-2.322-4.7514-3.4463-7.1438-.8042-1.7113-1.6122-3.2077-.5977-5.0518A27.278,27.278,0,0,1,129.4,52.496a22.5145,22.5145,0,0,0,3.716-9.2745c.9981-6.1485-.4336-13.0158-4.7624-17.6691-7.5975-8.1668-23.937-3.2588-30.45,3.9486-.5308.5874.313,1.4462.8742.8742,4.3839-4.468,10.97-7.0091,17.1539-7.4141a16.59,16.59,0,0,1,8.9269,1.5462c3.1135,1.6782,5.1316,5.02,6.2449,8.2828a21.3694,21.3694,0,0,1,.6027,11.1416c-.7785,3.7483-2.5911,6.57-4.69,9.6759-2.0253,2.9973-.572,5.3321.8464,8.2663.6419,1.328,2.8793,4.4827,2.0686,5.749-.841,1.3136-2.4593,2.2308-3.37,3.5856-2.0516,3.0507-1.4772,5.7456-.0869,8.9242,2.4579,5.6195-.7824,10.3439-3.3991,15.2364a.4369.4369,0,0,0,.7539.4406Z"/><path class="cls-4" d="M91.1679,29.2664A15.6564,15.6564,0,0,0,73.9994,39.7057a15.7245,15.7245,0,0,0,8.0476,18.3819c.6854.3239,1.2857-.6533.6033-1.0321-5.7763-3.2061-9.2719-10.128-7.42-16.66,1.9045-6.7176,9.0213-10.9427,15.8131-10.2088.52.0562.647-.84.1246-.9208Z"/><path class="cls-4" d="M96.7154,48.2913c-1.1751-4.288,1.8834-9.05,4.5291-12.1729,2.8939-3.4164,6.6684-6.4321,11.3844-5.79,5.6758.7733,10.3616,5.52,11.6235,11.0176,1.4018,6.1071-1.0573,12.4269-5.0153,17.05-.495.5782.3208,1.4183.8452.8452,4.4529-4.8662,6.969-11.6669,5.4577-18.25A15.7867,15.7867,0,0,0,113.2378,29.09c-5.3029-.8855-9.6233,2.228-12.89,6.1317-2.9,3.466-6.043,8.6352-4.6154,13.3407a.51.51,0,0,0,.9831-.271Z"/><path class="cls-4" d="M97.0734,50.4459c-.3779-4.1525,2.4678-5.9155,5.69-7.5047,1.6909-.8338,6.351-3.5971,8.1884-2.1088.5461.4423,1.331-.3038.7872-.7872-2.3856-2.1206-6.8047.4411-9.1032,1.578-3.7384,1.8492-7.1706,4.0673-6.5472,8.8227.08.6115,1.0427.6408.9844,0Z"/><path class="cls-4" d="M86.7736,64.1443c-3.8729,3.1216-3.2577,9.7631,1.0337,12.2022a.5893.5893,0,0,0,.5944-1.0169,6.7725,6.7725,0,0,1-.8533-10.41c.5209-.4979-.2381-1.2073-.7748-.7748Z"/><path class="cls-4" d="M96.1927,57.4049a15.8744,15.8744,0,0,1,7.7346-.8466c.5854.0755.723-.9275.14-1.0359a13.3054,13.3054,0,0,0-8.2112,1.0846c-.4433.2073-.1282.9715.3364.7979Z"/><path class="cls-4" d="M110.2709,62.1466a7.4591,7.4591,0,0,1,6.4331.3492.5747.5747,0,0,0,.58-.9916,7.4649,7.4649,0,0,0-7.3988-.2732c-.4911.2613-.1524,1.1187.386.9157Z"/><path class="cls-4" d="M105.0887,79.1946l2.0135.8745a.5636.5636,0,0,0,.6412-.0827c.26-.2151.5045-.4424.7434-.68.4857-.4835-.2275-1.1533-.7375-.7375-.2615.2131-.5133.4332-.7542.6693l.5148-.1361-2.0849-.7052c-.4612-.156-.7931.5995-.3364.7979Z"/><path class="cls-4" d="M103.92,69.3025c-.9972-.8861-1.7076-2.4954-3.2075-2.6107a4.17,4.17,0,0,0-3.3664,1.8767.642.642,0,0,0,.5489.9565c.6244.0383,2.386-.1677,2.3355-1.0631l-1.1711.3172c.4062.6695.2336,1.6807,1.3078,1.7086a1.4116,1.4116,0,0,0,1.36-1.4985.6039.6039,0,0,0-1.207,0c-.0189.36-.0716-.0585-.1169-.1948a2.7955,2.7955,0,0,0-.2585-.65c-.31-.5-1.214-.3329-1.1711.3172q.3681-.558-.0544-.3563-.2072.0539-.4177.0923a2.3606,2.3606,0,0,1-.6064.0557l.5489.9565c.5767-.8313,1.9293-1.5166,2.8041-.8511.7473.5685,1.1761,1.3259,2.0436,1.7579.4981.248,1.0937-.401.6284-.8144Z"/><path class="cls-4" d="M117.0641,69.3025c-.9972-.8861-1.7076-2.4954-3.2075-2.6107a4.17,4.17,0,0,0-3.3664,1.8767.642.642,0,0,0,.5489.9565c.6244.0383,2.386-.1677,2.3355-1.0631l-1.1711.3172c.4062.6695.2336,1.6807,1.3078,1.7086a1.4116,1.4116,0,0,0,1.36-1.4985.6039.6039,0,0,0-1.207,0c-.0189.36-.0716-.0585-.1169-.1948a2.7955,2.7955,0,0,0-.2585-.65c-.31-.5-1.214-.3329-1.1711.3172q.3681-.558-.0544-.3563-.2072.0539-.4177.0923a2.3606,2.3606,0,0,1-.6064.0557l.5489.9565c.5767-.8313,1.9293-1.5166,2.8041-.8511.7473.5685,1.1761,1.3259,2.0436,1.7579.4981.248,1.0937-.401.6284-.8144Z"/><path class="cls-4" d="M107.7123,88.7394c-.486-.4657-1.2727-.4824-1.8688-.7833a6.6341,6.6341,0,0,1-1.7554-1.3707.65.65,0,0,0-1.0169.7846,4.7614,4.7614,0,0,0,2.0473,1.8264c.69.3268,1.7864.7821,2.4942.3161a.4983.4983,0,0,0,.1-.773Z"/><path class="cls-4" d="M94.9079,96.2c-.4927,2.304-.278,4.6936-1.0568,6.9694-.158.4616-.4854,1.6093-1.0278,1.7893-.9465.3141-1.8628-1.2757-2.2812-1.88-.8751-1.2643-1.56-2.7184-2.85-3.6309-2.4678-1.7469-6.2814-1.1971-8.5346.6486-2.6387,2.1615-3.71,5.9145-4.6076,9.0623-.2357.8265.9594,1.1123,1.26.3474,1.5324-3.9,2.6866-9.43,7.8457-9.6545,2.93-.1277,4.0938,1.4665,5.5924,3.636.6556.9492,1.469,2.3236,2.6527,2.6993,3.7577,1.1927,4.5914-7.818,3.8938-9.9865a.4639.4639,0,0,0-.8871,0Z"/><path class="cls-4" d="M106.7679,98.87c-.469,2.1713-2.046,10.65,2.2582,9.9834a5.1639,5.1639,0,0,0,2.9392-2.0286c1.9-2.39,3.2091-5.2179,6.924-4.7143,3.99.5409,4.0126,6.802,4.0333,9.8139.0053.7737,1.085.73,1.1719,0,.642-5.3926-1.4917-13.3087-8.4972-10.7306a7.38,7.38,0,0,0-3.8041,3.38c-.7664,1.2287-3.0921,4.5741-4.1774,2.0081-.8831-2.0878-.3525-5.301-.006-7.48.0863-.5427-.7212-.7906-.8419-.2321Z"/><path class="cls-4" d="M81.8819,127.8993c.5482,1.9445-.1723,4.74-.42,6.721-.3877,3.0964-1.3734,6.8.35,9.6735,1.3465,2.2447,3.9174,3.0277,6.3715,3.2852,3.4224.3592,6.8942.2335,10.3316.5445a44.8518,44.8518,0,0,0,12.9526-.4286,7.2234,7.2234,0,0,0,5.0359-3.5743c2.4674-4.5689.8892-10.5806,1.4323-15.5182.0736-.6694-1.0878-.8338-1.1855-.16-.6468,4.46.428,9.3136-.91,13.6492-.8687,2.8149-2.981,4.0874-5.822,4.4338a54.0747,54.0747,0,0,1-11.9648.1749c-2.7727-.2862-5.4593-.2941-8.2412-.4014-3.8158-.1472-7.3764-1.2663-7.5594-5.7226-.1048-2.5532.5244-5.1137.7839-7.65.17-1.662.6468-3.7557.1847-5.3961a.6949.6949,0,0,0-1.3391.3692Z"/><path class="cls-4" d="M117.4072,129a72.94,72.94,0,0,0,7.6266-1.1165c.8311-.1834,2.7916-.442,3.2076-1.4079.1982-.46.0363-.6255-.0722-1.1024-.3022-1.3275-.9091-2.6141-1.2209-3.9578-.68-2.9314-1.0266-5.9309-1.4991-8.9a.6694.6694,0,0,0-.8135-.4619c-4.4642,1.1012-8.7331,2.5822-13.306,3.2334a64.48,64.48,0,0,1-14.1858.577c-4.1849-.3341-8.0051-1.669-12.0772-2.4937-3.6089-.7309-7.8848-1.292-10.26-4.4379a.6966.6966,0,0,0-1.2524.1637c-1.0263,2.726-1.7866,5.4111-3.0692,8.03-.7071,1.444-2.0355,3.5867-1.8721,5.2853.1445,1.5012,1.5178,2.2942,2.8133,2.7409,2.6314.9073,5.4451,1.4133,8.1114,2.261a43.8408,43.8408,0,0,0,9.9721,1.66c3.7369.3173,7.4532.87,11.2008,1.0625,5.5073.2827,11.2432-.5949,16.697-1.2329.6305-.0738.6442-1.07,0-1.002-4.9685.5249-10.0155,1.0527-15.0174,1.0957a65,65,0,0,1-8.2164-.711c-3.41-.4075-6.9553-.4646-10.3185-1.1347-2.8624-.57-5.569-1.6983-8.3824-2.45-1.7709-.4733-5.5877-.5354-5.38-3.0217.1526-1.83,1.6049-3.8723,2.4051-5.5038,1.0516-2.1442,1.541-4.4849,2.3782-6.715l-1.2524.1637c2.17,2.8684,5.5056,3.89,8.8967,4.6185,4.0338.866,8.0171,2.164,12.1075,2.7032a60.3532,60.3532,0,0,0,15.2385-.1276c5.2207-.6426,10.0439-2.2317,15.1217-3.4892l-.8135-.4619c.6474,4.0439,1.0326,8.2272,2.4656,12.0924.4282,1.155.6658.8023-.31,1.27a9.0214,9.0214,0,0,1-1.9637.506c-2.2936.4926-4.6326.7846-6.9588,1.0687C116.656,127.8969,116.64,129.0862,117.4072,129Z"/><path class="cls-4" d="M127.6131,139.662c1.8128-6.6029,3.57-13.2267,5.796-19.7061a71.2961,71.2961,0,0,1,3.741-9.1768,8,8,0,0,1,4.678-4.3249c1.8622-.695,4.5416-2.0022,6.5075-2.1482l-.704-.704a4.6659,4.6659,0,0,1-.0693,1.7611.7138.7138,0,0,0,1.0361.7965c.959-.4666,3.0506.0265,4.126.0275,2.1883.002,4.9894.0965,5.7189,2.6446l.4879-.8594c-3.2011.6358-6.4087,1.2371-9.6122,1.86-2.307.4488-5.479.5344-7.3413,2.1784-1.4419,1.2729-1.77,3.3844-2.2139,5.155-.5819,2.3228-1.1334,4.6532-1.6783,6.9849-1.1667,4.9928-2.2934,9.9948-3.4575,14.9882-.5528,2.3714-1.1117,4.7415-1.6986,7.1048-.4272,1.72-.6385,3.191-2.68,3.8831a34.5615,34.5615,0,0,1-4.952.86l.8222.3346a44.7227,44.7227,0,0,1-7.2923-22.2806c-.0489-.9418-1.5206-.9473-1.4707,0a46.2576,46.2576,0,0,0,7.5057,23.0155.7618.7618,0,0,0,.8222.3346c2.0161-.3508,5.284-.2445,6.9422-1.5238,1.4363-1.1082,1.6151-3.8617,2.0134-5.4891,1.2114-4.9494,2.3371-9.92,3.4813-14.8847,1.0626-4.6111,2.107-9.23,3.2906-13.8125.484-1.8735,1.0549-3.6823,3.0683-4.3338a42.8507,42.8507,0,0,1,4.7525-.99c3.3577-.6736,6.71-1.3744,10.07-2.0379a.7059.7059,0,0,0,.4879-.8594c-.7613-2.67-3.3675-3.6338-5.9456-3.7031-1.7085-.0459-4.4067-.5686-5.9587.1845l1.0361.7965a5.0238,5.0238,0,0,0,.117-2.1361.7134.7134,0,0,0-.704-.704c-2.0113.1629-3.84,1.2215-5.7425,1.8578a11.47,11.47,0,0,0-4.71,2.4231c-2.2164,2.2672-3.2907,6.1317-4.38,9.0371a172.62,172.62,0,0,0-6.8,23.1952.4721.4721,0,0,0,.91.2508Z"/><path class="cls-4" d="M125.5153,128.1852l.0922-.095-.5552.0716c.3344.213.6037,1.5479.7369,1.9257.1729.49.3312.9859.4823,1.4833.3533,1.1632.5624,2.362.9079,3.524.1929.6488,1.2807.5607,1.2258-.1659a18.238,18.238,0,0,0-1.3572-5.1885c-.3453-.8755-.67-2.3219-1.7644-2.4325a.4608.4608,0,0,0-.3956.2269l-.0766.1071c-.2994.4185.3554.9024.704.5432Z"/><path class="cls-4" d="M71.25,138.4113c-1.7714-7.7242-5.4527-15.12-8.8709-22.2243-1.4706-3.0565-2.7327-6.8223-4.8638-9.4876-1.2505-1.564-3.0577-2.0235-4.8256-2.7732-1.9766-.8383-3.5511-2.05-5.7627-2.1316a.71.71,0,0,0-.6793.5172,6.9193,6.9193,0,0,0-.056,2.68l.68-.8925c-3.8587.1107-10.4036-1.9121-11.7084,3.3615a.7061.7061,0,0,0,.4877.859c3.52.6951,7.0309,1.4322,10.5494,2.1338a38.1556,38.1556,0,0,1,4.2727.894c2.0609.6666,2.5538,2.4337,3.0632,4.3,1.29,4.7268,2.96,9.3464,4.5979,13.9609,1.6951,4.7747,3.4443,9.5368,4.9438,14.3778.4982,1.6083.7044,4.0234,1.7641,5.3709,1.4393,1.83,5.3449,1.6725,7.4268,2.0347a.7636.7636,0,0,0,.8222-.3346,46.2552,46.2552,0,0,0,7.5057-23.0155c.05-.9457-1.4217-.9433-1.4707,0a44.7235,44.7235,0,0,1-7.2924,22.2806l.8222-.3346a34.06,34.06,0,0,1-4.952-.86c-2.0969-.711-2.2615-2.291-2.7738-4.0407-.6235-2.13-1.3212-4.2377-2.0366-6.3381-1.7244-5.0627-3.5794-10.08-5.3084-15.1408-.7561-2.2133-1.4947-4.4343-2.1514-6.6795-.5423-1.8542-.7929-4.1037-2.1392-5.5817-1.6157-1.7738-4.5009-1.8916-6.7-2.3241-3.5223-.6929-7.0515-1.35-10.5726-2.0494l.4877.859c1.0485-4.2178,7.2682-2.2372,10.3617-2.3226a.7181.7181,0,0,0,.68-.8925l.0548-1.93-.6793.5172c2.1516.0648,4.0972,1.5132,6.0591,2.31a8.0426,8.0426,0,0,1,4.8019,4.2359q2.341,4.4446,4.5061,8.9734c3.0607,6.4442,6.1065,13.0539,8.0464,19.9391a.4721.4721,0,0,0,.91-.2508Z"/><path class="cls-4" d="M71.3623,125.3236a11.8836,11.8836,0,0,0-.812,4.1361c-.16,1.5313-.8432,2.9395-1.0024,4.4692-.0755.7252,1.0228.8083,1.2258.1659a25.8537,25.8537,0,0,0,1.0653-4.01c.2139-1.4922.1679-3.0282.3585-4.5345.0555-.4383-.6531-.6155-.8353-.2262Z"/><path class="cls-4" d="M85.2992,146.3176c1.2023,5.2839,3.2849,11.2235,1.5432,16.6057-1.4475,4.4729-4.98,7.915-6.6746,12.2934-.2337.6036.7309.8576.9662.2664,1.9148-4.8124,6.1-8.5216,7.1285-13.7163,1.0392-5.2485-.7877-10.6629-2.1666-15.6688a.4134.4134,0,0,0-.7967.22Z"/><path class="cls-4" d="M112.3537,146.5727a44.027,44.027,0,0,0-.8623,17.7637,12.8978,12.8978,0,0,0,2.597,6.0423c1.7582,2.2895,3.9222,4.2013,4.6725,7.093.1887.7272,1.2708.4181,1.1187-.3084-.9683-4.6265-5.7274-7.0294-6.9256-11.5722-1.581-5.9944-.8307-12.78.2811-18.7755.1057-.57-.7332-.8207-.8814-.243Z"/></g></svg>