<svg xmlns="http://www.w3.org/2000/svg" viewBox="0 0 192.1444 219.2372"><defs><style>.cls-1{fill:#f7fafc;}.cls-2{fill:#ffefaf;}.cls-3{fill:#e93a1d;}.cls-4{fill:#303030;}.cls-5{fill:#172df8;}.cls-6{fill:#777;}</style></defs><title>DN_Service-Ya2-img-6</title><g id="Layer_2" data-name="Layer 2"><g id="back"><path class="cls-1" d="M118.203,219.2372a20.4451,20.4451,0,0,1-6.9453-1.2307,20.4966,20.4966,0,0,1-13.3333-1.4053c-.8535-.3772-1.8083-.8469-3.0054-1.4778-1.6733-.8821-3.9126-2.1292-6.8457-3.8125-3.52-2.02-8.1123-4.7124-13.7046-8.0344a20.0148,20.0148,0,0,1-31.8713,1.7085S33.04,193.7718,23.5846,182.5323c-4.7354-5.6289-9.47-11.2642-13.02-15.5056-1.7971-2.147-3.2942-3.9412-4.3416-5.2053C3.496,158.53-.6256,153.555.08,145.3541a20,20,0,0,1,7.0789-13.6135,20.7494,20.7494,0,0,1,8.5417-4.22C2.9494,110.8033,1.8451,104.6,2.1591,98.2687A21.3516,21.3516,0,0,1,6.2011,86.67,19.98,19.98,0,0,1,9.28,78.2635a20.6182,20.6182,0,0,1,2.0249-4.2693,21.0341,21.0341,0,0,1,6.1748-8.6633,19.9958,19.9958,0,0,1,17.5874-4.1125,19.32,19.32,0,0,1-2.0735-10.63A20.09,20.09,0,0,1,40.0856,36.86c2.4651-2.0684,11.4548-8.32,23.6375-1.9124.9043.4756,1.886,1.0432,3.0063,1.74a19.9137,19.9137,0,0,1,6.74-11.3174c5.1882-4.3538,14.12-7.1,23.627-1.751,1.0452.5879,2.2156,1.3259,3.6829,2.3225,2.0242,1.3748,4.7769,3.3547,8.4148,6.0537q.4493.3333.9121.6777a20.2128,20.2128,0,0,1,1.5481-1.4429,19.9979,19.9979,0,0,1,28.1743,2.4648L186.33,89.1134a19.998,19.998,0,0,1-2.4646,28.1741,20.6055,20.6055,0,0,1-4.7085,2.9236l8.3091,9.9023A19.9984,19.9984,0,0,1,185,158.2879a21.1937,21.1937,0,0,1-13.02,4.6492,19.9985,19.9985,0,0,1-2.6467,27.9543c-6.4031,5.373-13.5352,6.073-20.6877,4.3611a20.0835,20.0835,0,0,1-19.0845,22.8293,20.04,20.04,0,0,1-6.9531.6624A19.98,19.98,0,0,1,118.203,219.2372Z"/></g><g id="Layer_2-2" data-name="Layer 2"><path class="cls-2" d="M98.736,46.2479c-4.4341,1.0059-6.8228,6.8079-9.3125,10.1206-3.5015,4.6589-8.1792,9.2615-10.0332,14.88a3.7421,3.7421,0,0,0-.6489.2083c-7.08,3.0826-.4705,12.6326,3.9431,14.5044a10.3162,10.3162,0,0,1,3.1605,1.6051C90.1987,91.7813,84.1764,96.11,80,93.2843c-2.2639-1.5315-4.5738,1.79-2.8269,3.6655,3.0024,3.2231,7.8218,5.27,11.8381,2.3618,3.8992-2.8234,3.8263-6.7449,3.8167-11.1563-.0068-3.1358,2.0513-4.25,3.4873-6.6308,1.5064-2.4977,1.2378-5.767.99-8.536a2.3227,2.3227,0,0,0-4.2905-1.1621c-2.32,3.8818-6.1279,8.9023-10.6313,3.7368a2.5285,2.5285,0,0,0-.28-.271,2.7325,2.7325,0,0,0,.4648-2.1519c3.5845-2.5535,6.0186-6.3665,8.6411-9.8608,1.5273-2.0354,3.0669-4.064,4.541-6.1389,1.4541-2.0488,2.7056-5.0271,4.8843-6.3889A2.4757,2.4757,0,0,0,98.736,46.2479Z"/><path class="cls-2" d="M83.4692,48.3475a28.4585,28.4585,0,0,0-5.63,5.1951c-1.8318,2.0854-3.99,4.1912-5.18,6.727a2.6062,2.6062,0,0,0,2.2136,3.8579A2.2348,2.2348,0,0,0,75.95,63.93a2.4547,2.4547,0,0,0,1.006-.7421c.2115-.1677.6288-.5811.7119-.6613a16.4333,16.4333,0,0,0,1.15-1.2922c.8938-1.0751,1.7062-2.2211,2.5338-3.3465a39.731,39.731,0,0,1,4.9467-5.8751C88.2218,50.23,85.7043,46.8874,83.4692,48.3475Z"/><path class="cls-2" d="M73.1609,48.3284a2.235,2.235,0,0,0-3.3445-.2266c-.6794.7407-1.436,1.41-2.1311,2.1366A1.8771,1.8771,0,0,0,69.95,53.1736c.8706-.4995,1.701-1.0722,2.582-1.5525A2.2411,2.2411,0,0,0,73.1609,48.3284Z"/><path class="cls-3" d="M100.5972,48.0994c-3.2515,4.3359-6.0485,9.0074-9.0873,13.493-2.811,4.1494-5.9852,8.1831-7.9134,12.8258-1.2588,3.03,3.481,5.2038,5.3244,2.8334,3.7844-3.1053,6.6826-7.6586,9.4447-11.6516A109.4618,109.4618,0,0,0,106.92,51.7952C109.0354,47.4872,103.3931,44.3711,100.5972,48.0994Z"/><path class="cls-3" d="M89.7,46.9545a56.5206,56.5206,0,0,0-8.899,10.7427c-2.1119,3.0867-5.08,7.0159-4.1343,10.9566a1.4326,1.4326,0,0,0,1.75.9938c3.5735-1.2657,5.4285-5.2681,7.48-8.2116,2.6384-3.7859,5.7522-7.1675,8.5021-10.856C96.5345,47.7147,92.1044,44.8505,89.7,46.9545Z"/><path class="cls-3" d="M78.7852,48.3455a3.07,3.07,0,0,0-3.7013-.4774c-2.2484,1.592-4.0947,4.2787-5.5551,6.5966a2.75,2.75,0,0,0,.7107,3.5578,2.8073,2.8073,0,0,0,3.6211-.2156,33.41,33.41,0,0,0,2.7628-2.5849,15.5012,15.5012,0,0,0,2.64-3.1748A3.1378,3.1378,0,0,0,78.7852,48.3455Z"/><path class="cls-4" d="M75.635.4807c.1947,15.2157-.072,30.4822.5454,45.6932a.683.683,0,0,0,1.3652,0c-.1623-15.2258-.33-30.4831-.9145-45.6932a.4984.4984,0,0,0-.9961,0Z"/><path class="cls-4" d="M97.8317.3852c-1.0272,7.572-1.0611,15.356-1.3183,22.9817-.2648,7.85-.5617,15.7176-.5306,23.5729a.6185.6185,0,0,0,1.2363,0c.199-15.4768.2-31,1.51-46.433.0431-.5071-.8283-.6331-.8977-.1215Z"/><path class="cls-4" d="M69.6668,47.9714A83.3654,83.3654,0,0,0,94.818,48.11c2.2252-.3388,4.4612-1.0272,6.7043-1.1985,1.9158-.1463,3.9829.4142,4.06,2.734a7.0953,7.0953,0,0,1-.8321,3.0449c-1.8037,3.8786-4.4524,7.5622-6.78,11.1388Q94.4249,69.2788,90.6,74.54c-.6175.8493-1.2553,2.248-2.1518,2.786-2.0131,1.2084-2.9077-.0983-4.146-1.2751q-2.1281-2.0223-4.0724-4.224a67.9119,67.9119,0,0,1-7.3045-9.98q-1.5121-2.5163-2.8061-5.1532-.6476-1.3168-1.2407-2.6591-.4663-1.0592-.892-2.1352-.9953-1.7952,1.0712-3.39a.7183.7183,0,0,0,.7245-1.24c-2.2592-1.5155-4.1318,1.0473-3.8293,3.2245.5017,3.6109,3.0166,7.575,4.7979,10.6807a69.9517,69.9517,0,0,0,7.0608,10.1136q2.0194,2.41,4.2509,4.63c1.15,1.1448,2.6029,2.9744,4.2655,3.4132,3.098.8175,5.1991-3.5907,6.61-5.5677q4.1809-5.8587,8.0216-11.9506c1.9968-3.1687,11.0361-15.3186,2.0986-16.3065-1.914-.2116-3.9121.4373-5.7668.7978a83.5886,83.5886,0,0,1-9.323,1.2779A83.3791,83.3791,0,0,1,69.9207,47.05c-.598-.0827-.864.8278-.2539.921Z"/><path class="cls-4" d="M77.4418,71.08A10.0759,10.0759,0,0,0,81.29,86.0054a13.587,13.587,0,0,1,4.3512,2.7175,3.8387,3.8387,0,0,1,1.2159,2.5823c.0169,1.8691-2.1046,3.9667-4.05,3.0361-1.5862-.7586-3.07-3.2649-4.9739-1.8419-2.2664,1.6941-1.0252,5.0693.6111,6.703A9.0969,9.0969,0,0,0,91.882,97.8381c1.9357-2.94,1.502-6.488,1.2726-9.7815-.249-3.5748,3.9464-5.2857,4.944-8.6015,1.1044-3.6709.4482-7.5772-2.5765-10.089-.7455-.6191-1.8247.4312-1.0772,1.0772a7.9571,7.9571,0,0,1,1.6522,9.8259c-1.23,2.0762-3.6724,3.4628-4.4715,5.8192a3.8076,3.8076,0,0,0-.0361,2.0342,17.3066,17.3066,0,0,1-.0179,6.3821,6.8738,6.8738,0,0,1-6.1121,5.47,7.5382,7.5382,0,0,1-4.3132-.6582,6.4624,6.4624,0,0,1-1.6484-1.1687,5.1256,5.1256,0,0,1-.76-.9686c-.6374-1.0542-.6059-1.2409.14-2.3041.82-1.1686.6507-1.0272,1.592-.4328.4615.2914.8757.5843,1.3133.9215a3.1349,3.1349,0,0,0,2.0944.9113c1.8855-.0765,3.9538-2.2752,4.3612-4.0208.4421-1.8937-.6861-3.6956-2.0264-4.934-2.4146-2.2312-5.8485-2.6586-7.8272-5.4453a9.5433,9.5433,0,0,1-.114-10.31.4808.4808,0,0,0-.83-.485Z"/><path class="cls-4" d="M77.3039.9366c.739,14.1439.572,28.3264,1.3528,42.4684.0443.8029,1.3011.8069,1.2539,0-.8273-14.1412-.6537-28.3294-1.5227-42.4684-.0425-.692-1.1205-.7-1.084,0Z"/><path class="cls-4" d="M94.3925,1.6643c.46,12.8061.2638,25.6306.7369,38.4365.029.7859,1.2566.789,1.2246,0-.519-12.8051-.3808-25.6317-.9126-38.4365-.0279-.6721-1.0731-.6767-1.0488,0Z"/><path class="cls-4" d="M69.1076,55.4127a46.4217,46.4217,0,0,1,5.11-5.73c.5315-.5037-.2783-1.3144-.8038-.8038a43.3159,43.3159,0,0,0-5.1764,6.0255c-.38.5358.4873,1.0156.87.5087Z"/><path class="cls-4" d="M71.9706,61.028a68.3823,68.3823,0,0,0,8.25-9.9695c.4376-.6426-.6111-1.2531-1.0422-.6092A68.82,68.82,0,0,1,71.2,60.2574a.5452.5452,0,0,0,.7706.7706Z"/><path class="cls-4" d="M76.0751,66.2247C80.1589,61.37,83.96,56.2727,87.57,51.058c.458-.6617-.6238-1.2877-1.0777-.63C82.94,55.5762,79.1893,60.5607,75.3376,65.4872c-.4043.5171.2992,1.2585.7375.7375Z"/><path class="cls-4" d="M80.5325,69.7649l15.1153-21.28c.4562-.6423-.6079-1.2613-1.0574-.6181L79.6471,69.2473c-.38.5432.5067,1.0507.8854.5175Z"/><path class="cls-4" d="M83.6874,74.0731c5.6157-8.0119,11.354-15.9176,17.3916-23.6185a.5893.5893,0,1,0-.9295-.7172C94.1738,57.5247,88.3572,65.4537,82.883,73.6029c-.3369.5015.4639.9561.8044.47Z"/><path class="cls-4" d="M77.1681,97.968c-14.659,9.5643-30.1736,17.769-44.4172,27.9737-.6535.4682-.0243,1.5617.6358,1.0878,14.2345-10.219,29.7275-18.4684,44.3255-28.1306.5755-.3809.04-1.312-.5442-.9309Z"/><path class="cls-4" d="M84.9294,94.9458c20.017,10.1842,40.997,18.3573,60.62,29.3353.6787.38,1.289-.6648.6092-1.0422-19.652-10.91-40.5995-19.2018-60.7439-29.1228-.5515-.2716-1.0385.5481-.485.83Z"/><path class="cls-4" d="M3.8327,130.8387c.4113,18.2036.3045,36.4943-.9281,54.6668a.6008.6008,0,0,0,.5947.5947q41.4777-.1105,82.955-.35l41.2291-.1928c13.8239-.0646,27.671-.0751,41.4576-1.2186,3.2777-.2719,6.55-.6055,9.8132-1.02,1.6368-.2081,3.533-.3082,4.2248-2.09.88-2.2667-.2989-6.0541-.5727-8.3662l-1.229-10.38q-1.2-10.1339-2.41-20.2666-.5926-4.9433-1.1895-9.8861c-.1857-1.5323.1052-5.4009-1.2941-6.5131a4.4975,4.4975,0,0,0-2.23-.491c-1.6265-.17-3.2548-.3206-4.8836-.4668q-5.3736-.4822-10.754-.8835-10.271-.7653-20.5611-1.2251-20.0869-.8977-40.203-.6714a722.1533,722.1533,0,0,0-91.0957,6.8458c-.9445.131-.5427,1.5655.3956,1.4351a724.9976,724.9976,0,0,1,154.3983-4.7977q4.645.3513,9.2852.7633c1.9467.1732,4.1792-.1894,5.1818,2.05.61,1.3627.4592,3.9575.6309,5.4374q1.1186,9.6406,2.265,19.278l2.3492,19.7723.5286,4.4488a8.2361,8.2361,0,0,1,.2462,2.25c-.4564,2.3308-1.5716,2.2191-3.0832,2.4187-3.26.4306-6.5367.7518-9.8132,1.0243-12.962,1.0781-25.9786,1.1564-38.977,1.2231q-19.62.1008-39.2392.2-43.7129.2225-87.4257.4833l.5947.5947c.74-18.2294,1.1678-36.423.67-54.6668a.4661.4661,0,0,0-.9316,0Z"/><path class="cls-5" d="M28.9283,140.1632c.5169-1.7072.9769-3.432,1.5372-5.1257l-1.2077.1578a7.3009,7.3009,0,0,1,1.3194,3.56.74.74,0,0,0,1.2465.5163c1.5227-1.4458,2.7754,1.5728,4.0094,1.8321.8484.1783,1.2981-.3923,1.9778-.7408,3.55-1.82,7.8509.6136,11.651-.1621,1.6792-.3428-.0221-.7255,2.92-.4035.5443.06,1.0769.3165,1.6478.3536a34.0277,34.0277,0,0,0,6.0925-.6731c2.4267-.304,9.1377-2.3218,10.7581.3407a.8532.8532,0,0,0,1.4723-.8606c-1.563-3.13-5.8289-2.0686-8.5852-1.7164-2.5821.33-5.1627.6739-7.746.9948-2.0111.25-3.8474-.7511-5.7691-.2124-2.701.7571-5.2606.4275-8.0668.2159-1.7987-.1356-3.3839-.4813-4.9359.5806-1.2171.8327-1.0764.464-1.9875-.4435a3.2986,3.2986,0,0,0-1.2452-.9327,3.02,3.02,0,0,0-3.2253.7947l1.2465.5163a8.6058,8.6058,0,0,0-1.6387-4.227c-.3041-.419-1.08-.4491-1.2077.1578-.3665,1.7466-.8352,3.4695-1.246,5.206a.51.51,0,0,0,.9831.271Z"/><path class="cls-5" d="M76.532,137.0873a3.5758,3.5758,0,0,0,.4773,1.9257.6353.6353,0,0,0,.8532.2237,17.8719,17.8719,0,0,0,4.2976-3.11l-1.1105-.1431a3.491,3.491,0,0,0,2.6548,1.9272c1.4317.1762,2.79-.3305,4.2373-.1243,1.94.2766,3.5437-.5505,5.4656.2489,1.1719.4874,2.0125.7575,3.1624.1111a.8884.8884,0,0,0-.8961-1.533c-.9269.5166-2.2442-.6232-3.1923-.8307a7.0316,7.0316,0,0,0-2.6269.2314c-1.1556.1334-2.1936-.5026-3.3207-.4775-1.6088.0359-2.972,1.7808-4.2631-.2669a.7152.7152,0,0,0-1.1105-.1431A17.1209,17.1209,0,0,1,77.233,138.16l.8532.2237-.4234-1.2962a.5658.5658,0,0,0-1.1309,0Z"/><path class="cls-5" d="M101.7293,136.4121c.8362,1.0412,1.004,1.6959,2.552,1.2a11.8915,11.8915,0,0,0,1.7729-1.0523c1.5538-.805,2.0555-.1045,3.3694.391,1.9032.7177,3.9889.0032,5.8616-.429a30.0966,30.0966,0,0,1,9.8744-.2564c.95.0873,1.1053-1.3916.2212-1.6343a19.22,19.22,0,0,0-7.1376-.4194c-2.51.2782-5.5335,1.7588-7.9894,1.1038-1.4926-.3981-2.3123-1.4189-3.911-.7709a8.9581,8.9581,0,0,0-1.5279.9845c-1.0861.7217-1.2546.79-2.1119-.09-.6326-.65-1.5157.2987-.9737.9737Z"/><path class="cls-4" d="M28.242,149.2817c3.3369,1.3828,6.9754.3606,10.4356.0914a77.751,77.751,0,0,1,12.9583.1305c.8256.0738.8217-1.217,0-1.2891a85.8465,85.8465,0,0,0-11.9993-.2413c-3.5319.1846-7.6311,1.2942-11.0052-.1041-.87-.3605-1.2493,1.0562-.3894,1.4125Z"/><path class="cls-4" d="M60.6616,149.1834c5.87.3517,11.7565.477,17.635.3029a.6625.6625,0,0,0,0-1.3242c-5.8892.1465-11.7574.0524-17.635-.3556-.8826-.0613-.8835,1.324,0,1.377Z"/><path class="cls-4" d="M83.5438,149.227a15.87,15.87,0,0,1,8.4909.0473c.8741.2464,1.2536-1.15.3738-1.356a16.5152,16.5152,0,0,0-9.1265.36.4926.4926,0,0,0,.2617.9492Z"/><path class="cls-4" d="M95.3533,148.3255a70.3593,70.3593,0,0,1,13.4355-.6426c.8841.0311.8693-1.3056,0-1.3652a55.1046,55.1046,0,0,0-13.73.94c-.7063.13-.3985,1.176.2944,1.0679Z"/><path class="cls-4" d="M115.7688,147.5721l5.5105.0469a.6185.6185,0,0,0,0-1.2363l-5.5105.0469a.5716.5716,0,0,0,0,1.1426Z"/><path class="cls-4" d="M126.7166,147.9726c10.5437.0869,21.0747-.2226,31.5871-1.0517.94-.0741.941-1.5555,0-1.4707-10.5024.9466-21.0414,1.4442-31.5871,1.3681a.5775.5775,0,0,0,0,1.1543Z"/><path class="cls-4" d="M28.4368,156.147c6.503-.1394,12.9933-.4751,19.4721-1.0567.9284-.0833.9352-1.5457,0-1.459-6.4767.6-12.9682.9791-19.4721,1.086a.7153.7153,0,0,0,0,1.43Z"/><path class="cls-4" d="M54.4165,155.0659A112.6958,112.6958,0,0,0,68.01,155.42c.9163-.0351.9231-1.4551,0-1.43a122.2886,122.2886,0,0,1-13.5939-.3253c-.8978-.0751-.8935,1.3266,0,1.4Z"/><path class="cls-4" d="M74.2559,155.3737c5.3806-.0305,10.8087-.2358,16.1646-.7651.7862-.0777.81-1.3024,0-1.248-5.3961.3618-10.7549.6287-16.1646.6479a.683.683,0,0,0,0,1.3652Z"/><path class="cls-4" d="M97.0351,154.661c7.3437-.2259,14.703-.3326,22.0408-.7043a.6889.6889,0,0,0,0-1.377c-7.3474.1443-14.6977.5547-22.0408.8449-.7923.0313-.798,1.2609,0,1.2363Z"/><path class="cls-4" d="M122.6761,154.348c5.1389-.2309,10.302-.3382,15.43-.7556.8964-.073.9252-1.4308,0-1.418-5.1433.0714-10.2926.4559-15.43.7146-.9337.047-.9411,1.5013,0,1.459Z"/><path class="cls-4" d="M28.4368,162.0144q20.5686-1.11,41.1394-2.18c.9163-.0484.9194-1.4845,0-1.43q-20.5695,1.2256-41.1394,2.4435c-.7453.0435-.7517,1.2066,0,1.166Z"/><path class="cls-4" d="M73.8821,160.2788c3.673.1387,7.3577.3731,11.0332.3867a.6244.6244,0,0,0,0-1.248c-3.6686-.2085-7.36-.1976-11.0332-.2812a.5716.5716,0,0,0,0,1.1426Z"/><path class="cls-4" d="M87.8272,161.0619q14.8563-1.3558,29.7791-1.4523a.7592.7592,0,0,0,0-1.5176q-14.92.14-29.7791,1.5812c-.8806.0847-.8924,1.47,0,1.3887Z"/><path class="cls-4" d="M120.9037,159.5548c1.6492-.15,3.312-.2518,4.9508-.4919.6389-.0936.4939-1.1859-.1534-1.1337-1.6492.133-3.2923.4129-4.9314.6358-.5575.0758-.4315,1.0413.134.99Z"/><path class="cls-4" d="M128.26,159c7.1026.1327,14.2044.3127,21.3075.4142a.6977.6977,0,0,0,0-1.3945c-7.1018-.1434-14.2051-.2083-21.3075-.32a.6508.6508,0,0,0,0,1.3008Z"/><path class="cls-6" d="M28.4368,173.5518c8.7964-.2511,17.62-.952,26.4119-1.3914.9747-.0487.9834-1.5639,0-1.5234-8.7689.3605-17.71.79-26.4119,1.9539-.5911.0791-.638.9792,0,.9609Z"/><path class="cls-6" d="M71.3172,173.0261c9.6807.1737,19.3611.0483,29.0207-.6621.9784-.072.9889-1.6029,0-1.5352-9.6606.6617-19.3363,1.0326-29.0207.8262a.686.686,0,0,0,0,1.3711Z"/><path class="cls-6" d="M118.71,173.1008c10.4086-.2007,20.8181-.4087,31.2248-.695a.78.78,0,0,0,0-1.5586c-10.4095.2473-20.8178.573-31.2248.906a.6742.6742,0,0,0,0,1.3477Z"/><path class="cls-3" d="M15.3,136.8809a45.8049,45.8049,0,0,0-.1476,4.89.6285.6285,0,0,0,.6215.6215c1.53-.0714,3.06-.1668,4.59-.2522a.6768.6768,0,0,0,.6678-.6678q-.15-2.7508-.3081-5.5011a.7133.7133,0,0,0-.8844-.6737l-2.9271.3989c-.8974.1223-.5195,1.4958.377,1.3673l2.9216-.4188-.8844-.6737q.1792,2.751.37,5.5011l.6678-.6678c-1.53.1135-3.0608.2172-4.59.3447l.6215.6215a28.3594,28.3594,0,0,1-.0173-4.89c.0522-.6952-1.0156-.6838-1.0781,0Z"/><path class="cls-4" d="M79.6332,74.94a7.688,7.688,0,0,0,1.1545,7.32c.4328.5821,1.4219.0085.9815-.5737a7.5714,7.5714,0,0,1-1.26-6.5052.4545.4545,0,0,0-.8758-.2414Z"/><path class="cls-4" d="M84.607,99.0847A7.1213,7.1213,0,0,0,90.57,93.4966c.1276-.6047-.8064-.8608-.9266-.2555a6.4183,6.4183,0,0,1-5.2486,5.0752c-.5112.0872-.2846.8357.2118.7684Z"/></g></g></svg>