<svg xmlns="http://www.w3.org/2000/svg" viewBox="0 0 305 210"><defs><style>.cls-1{fill:#f7fafc;}.cls-2{fill:#e93a1d;}.cls-3{fill:#ffefaf;}.cls-4{fill:#303030;}</style></defs><title>DN_Service-Ya1-img-4</title><g id="back"><path class="cls-1" d="M139.7826,207.6112a20.1134,20.1134,0,0,1-3.4775-.3027,20.29,20.29,0,0,1-9.7144-.9355,20.8487,20.8487,0,0,1-14.5115-1.9023c-.9207-.4678-1.9624-1.0532-3.2783-1.8433-1.8967-1.1387-4.446-2.752-7.7937-4.9321-3.658-2.3828-8.3262-5.4814-13.9424-9.2554a20.0146,20.0146,0,0,1-31.9507,1.8271s-12.1113-14.3594-24.22-28.7524c-6.062-7.2056-12.1233-14.4194-16.6675-19.8491-2.2944-2.7412-4.2056-5.0317-5.5427-6.646-3.4233-4.1318-7.3032-8.8149-6.5977-17.0254a20,20,0,0,1,7.061-13.6,21.05,21.05,0,0,1,8.3645-4.146C8.7883,88.2186,5.92,81.0365,6.2873,73.639A21.39,21.39,0,0,1,12.6681,59.267,19.88,19.88,0,0,1,17.9106,51.3,20.2235,20.2235,0,0,1,21.6164,47.1a21.41,21.41,0,0,1,2.9758-3.0459,20.0044,20.0044,0,0,1,23.2454-1.7715,21.0634,21.0634,0,0,1-.0154-3.7681,20.1056,20.1056,0,0,1,7.0959-13.7344c2.6416-2.2168,12.2668-8.8462,25.1641-1.0586.7883.4761,1.6345,1.0244,2.5679,1.666a19.9973,19.9973,0,0,1,6.6506-10.9053c2.0313-1.7041,12.844-9.7163,26.27-.0635.3267.2349.6658.4858,1.0205.7559a20.1154,20.1154,0,0,1,26.5874-6.88A20.2185,20.2185,0,0,1,166.08,8.2011c.3987.2627.9785.6611,1.7229,1.1929,1.0271.7339,2.5151,1.8252,4.3972,3.2251,2.3193,1.7251,5.365,4.0127,9.0913,6.8291a21.0994,21.0994,0,0,1,6.4756-9.6362,20,20,0,0,1,26.3694.58q4.2089,3.8591,8.5725,7.8145a20.0028,20.0028,0,0,1,25.6091,2.9194c.5122.5415,12.6846,13.43,25.0386,27.2529,24.0918,26.9565,30.0732,35.1309,29.47,45.5591a20.6423,20.6423,0,0,1-5.4634,12.8218c3.4841,5.69,4.376,9.8765,4.1252,14.7056a21.0628,21.0628,0,0,1-7.4409,15.01,20.084,20.084,0,0,1-12.92,4.6787c3.2092,5.938,4.2087,10.3872,3.9348,15.0737a20.9112,20.9112,0,0,1-7.4575,14.9629,19.9255,19.9255,0,0,1-8.1138,4.1118,19.9929,19.9929,0,0,1-5.12,6.5522,20.6207,20.6207,0,0,1-21.1785,3.1543,20.0058,20.0058,0,0,1-31.7437,5.9546l-4.2207-3.81a20.0005,20.0005,0,0,1-6.7056,11.1563c-8.3713,7.0234-19.2537,6.9722-32.344-.1567q-2.2551-1.2283-4.7935-2.8027a20.1554,20.1554,0,0,1-20.4114,12.1489c-.1956-.0176-.3887-.0371-.5808-.0586A20.08,20.08,0,0,1,139.7826,207.6112Z"/></g><g id="Layer_2" data-name="Layer 2"><path class="cls-2" d="M181.8333,60.93c-2.2991.0079-11.6225,1.39-10.007-3.5194.8709-2.6464,5.2118-1.5321,7.188-1.6274,1.8436-.0889,2.6682-.8476,4.3348-1.5735,3.6936-1.6088,7.71-1.0831,11.6373-1.0952a54.7957,54.7957,0,0,1,8.6663.3812,87.1568,87.1568,0,0,0,9.2518.7194c1.9159.0662,3.4184-.4968,5.3049-.3049.6434,1.1254-.2638,1.4674-.7761,2.3926a9.0659,9.0659,0,0,0-1.0969,4.4943c-.0924,1.9249.6087,2.9228.9426,4.5682.2762,1.3608.7041.9429-1.2355.6325-.807-.1291-3.1154-.109-3.8052-.491-1.33-.7365-.72-1.1374-.5651-2.7819.3146-3.33-.4382-5.2993-1.85-8.0575a5.0484,5.0484,0,0,0-3.3987.3161c-.7276.2422-2.3217,1.3489-3.0513,1.1556-.7523-.1993-1.5523-1.8544-2.5093-2.2146a5.4735,5.4735,0,0,0-5.0249.8963,13.1538,13.1538,0,0,0-4.9434,5.9014c-.5154,1.5411.202,2.7875-1.0925,3.3544-.85.3721-5.3725-.6026-6.1385-1.0715C182.797,62.4739,182.8773,61.3312,181.8333,60.93Z"/><path class="cls-2" d="M204.7,128.87c-3.9572,1.5273-8.2881,3.1652-12.7172,3.4041-1.7163.0926-3.3623.2256-5.0536.3539-1.8275.1387-3.5722-.36-5.4308-.3652-4.5141-.0136-8.7881.8753-13.2506,1.2116a88.377,88.377,0,0,1-15.67-.07c-6.1638-.6333-6.6687-4.2577-3.8-9.6467,1.989-3.7359,5.603-5.0219,8.5741-7.6534a10.753,10.753,0,0,0-18.3477,7.4031c.0067,4.8381,3.28,9.8036,5.7473,13.7429,1.3234,2.1128,2.7686,5.1475,4.6622,6.7938,2.2189,1.9292,5.0106-.2987,7.5106.1012,2.1742.35,2.4827,2.5229,4.0073,3.3523,2.67,1.4527,2.719-.7845,4.5926-2.0942,2.5067-1.7522,4.1935-.0591,6.38.2606a12.3987,12.3987,0,0,0,5.5462-.8158c.6929-.3984.9857-1.3609,1.6182-1.6965,1.64-.87,3.3067-.4,4.9758.2508,3.4562,1.3476,7.1989-.7906,11.1458.5534,2.5306.8618,2.78,2.55,5.2171.9694a18.7239,18.7239,0,0,1,2.8747-1.7878,13.1669,13.1669,0,0,1,1.6757.017c1.1537-.9865.5662-2.2973.4618-4.0466C205.2176,135.7,204.84,132.2713,204.7,128.87Z"/><path class="cls-3" d="M217.3851,41.3848c1.2321-4.2693,3.8659-8.752,4.82-12.3661,1.6455-6.2357,2.2514-13.3355-1.06-19.1561-2.3115-4.0636-5.8137-4.8925-9.9836-5.9207-4.4593-1.1-8.6767-2.5155-13.2936-.9444-4.0147,1.3661-7.2461,3.7059-11.43,4.16a35.7341,35.7341,0,0,0-13.9707,4.93,6.336,6.336,0,0,0-.8165.57c-9.7223-2.0436-18.0621,5.2264-19.3388,14.7091-.6889,5.1171.9893,8.8411,3.5075,13.1023,1.188,2.01,1.5743,4.1239,3.985,5.0063,5.1728,1.8928,14.2863-1.5928,17.68-5.8286,1.0949-1.3665.985-3.4581,1.9831-4.9254,1.3642-2.0056,3.5033-1.764,5.71-2.095,4.0815-.6121,9.06-.6957,12.51,1.94,3.8545,2.9449,3.2582,8.6844,3.0928,12.9222-.0607,1.5544-.7942,4.5139.6114,5.55,1.7,1.2536,6.8393-.1066,8.9083-.0215,2.7985.1154,5.6454-.1292,8.3861.1844.8373.0958-1.669-5.5172-1.7359-5.8017A12.0018,12.0018,0,0,1,217.3851,41.3848Z"/><path class="cls-4" d="M196.8675,83.9674c-3.8631,10.4155-16.8831,10.2858-24.3029,3.8048C164.559,80.78,163.9095,68.75,164.03,58.8837a.75.75,0,0,0-1.5,0c-.1362,11.1924.9846,24.8834,11.2413,31.69,8.4986,5.64,20.73,4.0732,24.5431-6.208.3362-.9063-1.1131-1.2975-1.4464-.3988Z"/><path class="cls-4" d="M199.5433,40.8739l-.4187,11.8528c-.0341.9654,1.4659.9641,1.5,0l.4187-11.8528c.0341-.9654-1.4659-.9641-1.5,0Z"/><path class="cls-4" d="M161.5494,46.9986a33.0993,33.0993,0,0,0,17.8584-8.8654c.5445-.5337-.2531-1.2819-.82-.82a40.457,40.457,0,0,1-8.0682,5.4216c-2.9834,1.4213-6.1947,2.075-9.2315,3.315a.4927.4927,0,0,0,.2617.9492Z"/><path class="cls-4" d="M219.0542,51.29c-1.6716-3.4842-2.457-6.1185-.4363-9.6175,1.8706-3.2391,3.7914-6.23,4.8156-9.8758a28.3116,28.3116,0,0,0-.9426-18.1424A18.2085,18.2085,0,0,0,211.789,3.0124c-5.0575-1.7586-10.7255-1.3337-15.8148.0646a33.11,33.11,0,0,0-15.3343,8.786c-.6616.7024.3971,1.7651,1.0607,1.0607C190.2589,3.8383,209.916-1.8952,218.6684,9.86c4.7263,6.3476,5.4021,15.4315,2.9371,22.79-1.3092,3.9082-4.2809,7-5.5062,10.87-.9565,3.0209.3644,5.828,1.66,8.5277.4174.87,1.7112.11,1.2952-.7571Z"/><path class="cls-4" d="M172.2822,11.67c-8.9485-1.3859-18.2624,4.072-21.02,12.83a19.3019,19.3019,0,0,0,9.8551,22.54c.6856.3252,1.2887-.6615.6033-1.0321-7.2589-3.9253-11.5709-12.7069-9.23-20.8152,2.3939-8.2917,11.2485-13.5918,19.6673-12.602.52.0611.6467-.84.1246-.9208Z"/><path class="cls-4" d="M179.0478,35.0937c-1.51-5.2908,2.2926-11.2633,5.5586-15.1188,3.6179-4.2708,8.33-8.0639,14.2339-7.259,6.9987.9541,12.8327,6.7819,14.4459,13.5543,1.8186,7.6346-1.2041,15.6049-6.2065,21.3718-.5.5762.3216,1.4172.8452.8452,8.36-9.1329,10.4666-24.27.2039-32.9072-3.8741-3.2605-9.595-5.4016-14.6264-3.8243-4.5319,1.4207-8.3117,5.2231-11.0636,8.9424-2.9357,3.9678-5.9432,9.5929-4.3742,14.6665a.51.51,0,0,0,.9831-.271Z"/><path class="cls-4" d="M179.49,37.723c-.54-5.0684,3.0049-7.378,6.97-9.345,2.1292-1.0562,8.051-4.5977,10.38-2.6214.54.458,1.3217-.2983.7872-.7872-2.9166-2.6676-8.77.8256-11.5381,2.2131-2.07,1.0372-4.3335,1.9674-5.8025,3.8313a8.8158,8.8158,0,0,0-1.7636,6.84c.0756.5436,1.0256.4213.9668-.1308Z"/><path class="cls-4" d="M159.9834,52.11c-4.6879,3.8018-3.9531,11.8859,1.2555,14.8606a.5893.5893,0,0,0,.5944-1.0169,8.4589,8.4589,0,0,1-1.0751-13.0689c.526-.49-.2385-1.21-.7748-.7748Z"/><path class="cls-4" d="M182.5655,70.5189l2.4979,1.0613a.5638.5638,0,0,0,.6412-.0827c.3183-.2678.622-.5483.9194-.8388.4885-.4772-.23-1.1594-.7375-.7375-.32.2659-.6308.5391-.93.828l.5148-.1361-2.5693-.892c-.4607-.16-.7938.6035-.3364.7979Z"/><path class="cls-4" d="M171.7424,91.2539c-.3385,2.8237-.22,5.5619-1.0233,8.3447a15.2841,15.2841,0,0,1-4.9867,7.9467c-5.2771,4.1416-12.7014,1.4669-18.0442,5.5324-.6485.4935-.0745,1.5863.6595,1.1282,6.2385-3.8927,14.4252-1.1143,19.7267-6.9774,3.5305-3.9045,5.82-10.8733,4.5715-16.0969-.13-.5442-.846-.3574-.9035.1223Z"/><path class="cls-4" d="M186.1,94.3457c-1.4088,6.9448-.898,15.6158,7.6808,16.7441.9541.1255.9449-1.3757,0-1.5-7.4729-.9829-7.4082-9.0592-6.2344-14.8454.1912-.9424-1.2543-1.3456-1.4464-.3988Z"/><path class="cls-4" d="M155.6188,118.226c5.05.5485,10.1169.7349,15.1869.9924,4.2651.2166,8.6273.8842,12.9.6338,3.1235-.183,6.2636-1.0509,8.4536-3.4121,2.2531-2.4292,3.231-5.8641,3.8468-9.0361.6827-3.5165.8846-7.0969,1.2392-10.6547.4345-4.3589,1.2968-8.7248,1.1137-13.1223a24.0216,24.0216,0,0,0-3.3412-11.0317c-2.16-3.81-4.8518-7.8938-2.9307-12.3842a12.635,12.635,0,0,1,5.682-6.1482c2.5266-1.2835,4.8074-.7662,4.7545,2.4371-.0571,3.456-2.0874,7.1692-.3694,10.5531.8332,1.6411,2.1853,2.79,2.8581,4.5687a34.2482,34.2482,0,0,1,1.5551,5.7537c1.5429,8.1571,1.0369,16.652.3254,24.8713-.3209,3.7076-.8046,7.4058-1.076,11.1169-.2649,3.6232.0192,7.3011-.6833,10.8864-1.0193,5.2025-4.6935,7.0156-9.6764,7.39-4.8123.3612-9.6585.4743-14.4779.7738l-16.914,1.0509c-5.11.3175-10.8138,1.2823-15.8757.3288-.8094-.1525-1.1647,1.0634-.3442,1.2487,4.51,1.0185,9.039-.0142,13.5865-.0878,5.3858-.0873,10.7873-.6,16.1646-.9373,5.062-.3172,10.1247-.71,15.1944-.87,3.2818-.1036,6.9541-.2039,9.8091-2.043,5.7713-3.7178,4.1507-12.783,4.6575-18.5839.7541-8.6308,1.8323-17.2324,1.552-25.9163a55.7884,55.7884,0,0,0-1.532-12.0225,23.6939,23.6939,0,0,0-1.5864-4.7005,11.8565,11.8565,0,0,0-1.3829-1.9845,6.3529,6.3529,0,0,1-1.5157-4.5276c.0407-3.0952,3.289-12.3042-3.3314-11.2066-4.8454.8033-9.3105,6.457-9.3177,11.2537-.0058,3.8858,2.3848,7.19,4.1807,10.4534,2.6243,4.7683,3.1209,9.7032,2.6092,15.0435-.4684,4.8884-.9684,9.8083-1.5616,14.6837-.5838,4.7982-1.5409,10.9313-6.0938,13.61-4.263,2.5085-9.9995,1.32-14.6574,1.0285-6.3327-.3968-12.68-.5045-19.0024-1.0694-.6838-.0611-.6688.9879,0,1.0605Z"/><path class="cls-4" d="M206.3875,142.16a82.4963,82.4963,0,0,1-.48-15.0592c.0648-.9636-1.4355-.96-1.5,0a82.4963,82.4963,0,0,0,.48,15.0592c.11.9477,1.611.9588,1.5,0Z"/><path class="cls-4" d="M160.3134,116.3891c-5.597-4.2531-15.4193-5.2266-19.568,1.58-2.4008,3.9388-2.0736,9.3514-.3807,13.4816,1.9654,4.7948,5.6838,8.6179,8.4024,12.9722.51.8171,1.8084.0649,1.2952-.7571-4.4036-7.053-12.6905-14.8256-8.5245-23.9962,3.2162-7.08,12.838-5.9213,18.0184-1.9848.7685.584,1.5166-.7181.7571-1.2952Z"/><path class="cls-4" d="M155.7449,116.83c-5.6038.32-9.7435,5.3725-10.0576,10.8254-.3679,6.385,4.3338,12.0076,9.5887,15.014a.51.51,0,0,0,.5146-.88c-4.4811-2.8644-8.5926-7.2-8.9661-12.788-.3529-5.2793,3.4253-10.7708,8.92-11.1515.65-.045.6583-1.0571,0-1.02Z"/><path class="cls-4" d="M177.0473,80.5424a15.9594,15.9594,0,0,0,4.7449,2.8327c.71.2693,1.2216-.9228.5215-1.2369a29.3385,29.3385,0,0,1-4.5492-2.5252c-.5506-.375-1.228.49-.7172.9295Z"/><path class="cls-4" d="M206.6084,53.6384c-4.9529,1.0947-4.4777,10.0088-1.7572,12.98a3.6881,3.6881,0,0,0,5.9536-.3207,11.192,11.192,0,0,0,1.4711-9.58c-1.9884-5.3972-8.4519-4.3252-13.0444-4.377-2.9766-.0336-5.9549-.06-8.9314-.0055-1.9817.0364-4.4021-.1648-6.3183.4528-2.5261.8142-3.1619,4.403-2.9833,6.7142A5.2879,5.2879,0,0,0,182.82,63.58c2.1691,1.5495,4.9694.112,7.2966,1.0958.7468.3157,1.4-.7786.6447-1.1029a9.0073,9.0073,0,0,0-3.9961-.53c-1.8878.0252-3.713-.2279-4.26-2.386a7.9107,7.9107,0,0,1-.1818-2.3894c.0953-1.42.5881-3.5594,2.02-4.1685a7.5193,7.5193,0,0,1,2.2851-.2663c4.5015-.2985,9.0372-.1439,13.5446-.1062,1.451.0121,2.9011.0216,4.3517-.0092a7.7743,7.7743,0,0,1,4.9,1.06c2.0795,1.4661,2.1779,3.8482,2.02,6.1388-.1318,1.9127-.9576,5.86-3.5939,5.9817-2.1359.0988-3.21-2.4474-3.5581-4.149-.5-2.4462-.3423-7.2863,2.5983-8.0868a.5307.5307,0,0,0-.2819-1.0227Z"/><path class="cls-4" d="M182.4812,54.3686c-3.5085-.0056-10.3909-1.4385-10.9323,3.9667a3.1878,3.1878,0,0,0,2.2954,3.33c2.4054.8637,5.6764.7588,8.1924.7929.6273.0085.8073-1.0354.1527-1.1279-2.0425-.2888-10.1354.2444-9.3084-3.1973.9715-4.0431,6.7226-2.4534,9.6-2.6627a.5511.5511,0,0,0,0-1.1016Z"/><path class="cls-4" d="M218.2279,54.8856c-2.9889,2.1905-3.4377,7.66-1.2469,10.589,2.0182,2.6979,5.5594,1.9616,6.8862-.895,1.315-2.8311,1.1621-7.2747-.7885-9.804-1.4482-1.8779-3.8674-2.0672-6.0684-1.9555-4.2514.2157-8.4894-.087-12.7427-.1922a.6537.6537,0,0,0,0,1.3066c2.51.0917,5.0216.1932,7.5333.2432,2.2461.0448,4.5383-.2743,6.77-.15,3.9405.22,5.0131,3.6244,4.842,7.0377-.1259,2.5126-2.1366,7.0632-5.1938,4.0385-2.3281-2.3034-1.6472-7.3778.623-9.4225.42-.3785-.1454-1.14-.6142-.796Z"/><path class="cls-4" d="M218.9028,66.0372c-2.5433-1.0169-5.3719-1.1343-8.0735-1.3764-.673-.06-.8392,1.0934-.1612,1.1912,2.6673.3848,5.3583.3864,7.9419,1.2474.6851.2283.9356-.8052.2928-1.0622Z"/><path class="cls-4" d="M171.524,48.9865c2.749-3.3623,7.715,1.1926,11.0913,1.0313a.601.601,0,0,0,0-1.2012c-3.5692-.0466-8.8391-4.5054-11.7078-.3059-.2484.3637.3332.8224.6166.4757Z"/><path class="cls-4" d="M191.2443,49.6036a4.439,4.439,0,0,0,3.1192-.2795c1.29-.5161,2.85-1.4615,4.1173-.345a.49.49,0,0,0,.6919-.6919c-2.21-2.51-5.2547.8989-7.7119.531-.5044-.0755-.7349.6392-.2165.7854Z"/><path class="cls-4" d="M206.5441,113.3167c5.26.3212,11.2414-1.6763,15.9415-3.89,2.8631-1.3488,4.521-2.558,3.901-5.8019-.742-3.8823-2.6821-7.6424-4.3284-11.2007-2.2006-4.7566-4.56-9.4388-6.7179-14.2153-1.627-3.6008-4.0822-8.0578-3.8856-12.15a.6769.6769,0,0,0-1.3236-.1791c-.6095,2.7.9484,5.9707,1.9215,8.4067,1.7009,4.258,3.7125,8.3892,5.6926,12.5221,1.9887,4.151,4.0554,8.2893,5.7543,12.57.83,2.0911,2.9137,5.8769.7,7.6173-2.2789,1.7916-5.5077,2.7-8.24,3.5126a49.3719,49.3719,0,0,1-9.4152,1.86.4749.4749,0,0,0,0,.9492Z"/><path class="cls-4" d="M205.2221,129.1c6.0091-2.0315,12.1524-3.6061,18.1787-5.5787,5.5576-1.8191,12.0613-4.073,15.8754-8.7739,3.3522-4.1316,1.7041-8.61-.8166-12.6879-3.6349-5.88-7.2926-11.7881-11.0933-17.5623C224.511,80.16,218.617,72.69,221.2688,67.22c.3975-.82-.8029-1.543-1.2345-.7216-2.0688,3.9373.1727,8.7159,2.0773,12.271,2.7245,5.0855,6.1489,9.8792,9.2,14.7706,1.8135,2.9078,3.6735,5.7832,5.5067,8.6779,1.4625,2.3094,3.2668,5.0842,2.9652,7.9534-.6762,6.4322-10.2078,9.69-15.3446,11.4611-6.4918,2.2388-13.409,3.5308-19.6678,6.3969-.6012.2753-.1754,1.2829.4515,1.0709Z"/><path class="cls-4" d="M255.0539,144.0534c-1.036,1.1677-1.7753,1.7923-3.1888.8269-.4094-.28-.7211-.7111-1.1358-.9989a5.8169,5.8169,0,0,0-4.2548-.7612,13.7915,13.7915,0,0,1-7.0821-1.2218,11.38,11.38,0,0,0-5.7308-1.07,12.2827,12.2827,0,0,0-4.4449,1.8621,11.9122,11.9122,0,0,1-6.9858,2.0369c-2.0392-.0986-4.2-.7981-6.2357-.512-1.8.253-2.8006,1.8836-4.7486,1.7639l.7073.5385c-1.4921-3.74-6.2571-4.9014-9.9185-4.6479a.7847.7847,0,0,0-.7177.5464c-.59,1.4826-1.83,2.3148-2.9873,3.3025H199.39c-.8869-1.12-2.1882-1.7648-3.0887-2.8664a.7508.7508,0,0,0-.9082-.1172c-1.3708.9006-2.6176-.2937-4.2773-.1731a5.3125,5.3125,0,0,0-4.0772,2.5767l1.0234-.2683c-2.4422-1.3929-4.7056-3.7715-7.8389-3.0955-1.4127.3048-1.1495,1.2808-1.9267,2.1278-1.51,1.6452-6.3255-.2043-8.331-.1963-2.2726.0091-3.972.96-5.9791,1.8932-1.2458.5793-3.0014,1.65-3.99.2918-.4106-.5643-.4232-1.3155-.9308-1.8464-1.0241-1.0711-2.9881-.8308-4.3078-.6922-2.996.3146-5.8558,1.1813-8.8852,1.3225-2.922.1362-5.8478-.0568-8.77.068a35.4507,35.4507,0,0,0-7.1276,1.3053c-5.4036,1.3322-10.3041-2.02-15.6859-1.15-2.4772.4-4.5483,1.8211-6.9226,2.526-2.5093.7449-3.89-.0848-6.0636-.9756-1.7567-.72-3.7822-.377-5.5856-.0069a81.7125,81.7125,0,0,1-10.1321,1.68,55.4947,55.4947,0,0,1-10.5434-.1377c-3.0844-.3474-6.1-.9909-9.2142-1.0649-5.4265-.129-10.6066,1.3745-15.7731,2.8564a.7418.7418,0,0,0,.3941,1.4295c4.6869-1.2906,9.3647-2.7572,14.27-2.8153,5.7166-.0677,11.2892,1.4628,17.0319,1.3744a65.2843,65.2843,0,0,0,7.899-.6334c2.9941-.4124,6.1436-1.6851,9.1625-1.63,1.829.0336,2.757,1.0536,4.3881,1.5336a9.1407,9.1407,0,0,0,6.0723-.7609c2.5689-1.0537,4.8146-2.1765,7.6768-2.0256,2.8477.15,5.5315,1.2811,8.3519,1.6241a15.0588,15.0588,0,0,0,5.7765-.5835,33.1137,33.1137,0,0,1,8.7952-1.1017,72.514,72.514,0,0,0,8.3246-.2047c2.7245-.3091,5.4194-1.2915,8.176-1.2366,2.5232.05,1.5168,1.811,3.07,2.9515,1.0928.8025,2.8082.2363,3.9334-.2,1.1716-.4542,2.2424-1.123,3.3955-1.6158,2.0927-.8944,3.9787-.6965,6.17-.3832,1.6478.2356,4.5285,1.0011,6.0429.0048.4553-.3.4024-.64.7006-1.0273.7542-.9793-1.3948-.9257,1.9824-1.1423a8.3255,8.3255,0,0,1,1.6.2469c1.4592.5088,2.7023,1.8187,4.04,2.5821a.7667.7667,0,0,0,1.0234-.2683c1.52-2.1993,3.8429-2.1559,6.0172-1.0068a.7428.7428,0,0,0,.7563,0c.3591-.2686.6725-.6126,1.0457-.8576l-.9082-.1172c.9,1.1013,2.2012,1.7494,3.0891,2.866a.7613.7613,0,0,0,1.0594,0c1.4308-1.2262,2.6592-2.1876,3.3632-3.9663l-.7177.5464c2.87-.2045,7.2807.5012,8.5038,3.5494a.7734.7734,0,0,0,.7073.5385c1.9568.1163,2.65-.9268,4.3145-1.5914,2.1217-.847,5.204.358,7.4664.3232a11.9491,11.9491,0,0,0,5.7627-1.6171c2.2923-1.2849,4.2686-2.7659,7.0545-2.3441,2.4153.3657,4.538,1.7149,6.9269,2.19,2.292.4563,5.1-.8777,7.1471.3928.9317.5781,1.5742,1.796,2.72,2.0154,1.3708.2626,2.4638-1.0063,3.2732-1.9041.5221-.5792-.3391-1.4421-.8576-.8576Z"/><path class="cls-4" d="M103.7845,146.8845c.4569-2.7873.0893-5.764.0154-8.5817q-.1242-4.7315-.2639-9.4625l-.26-8.9645c-.0462-1.5972-.1587-3.2111-.1326-4.8088.0317-1.939,1.1349-6.3791,4.0133-4.299.6831.4937,1.3333-.6385.6595-1.1282a3.592,3.592,0,0,0-5.0774,1.1569c-1.8026,2.6715-.8553,7.0838-.7731,10.0752q.1779,6.4743.3558,12.9487c.119,4.2269-.2961,8.9337.6264,13.064.0894.4.7663.4268.8362,0Z"/><path class="cls-4" d="M110.0185,146.243c-.5015-22.9061-2.1175-45.8355-3.2565-68.7183q-.1983-3.9837-.3978-7.9673-.1005-1.9918-.2012-3.9837c-.0612-1.2114-.6869-3.6538-.2277-4.76l.9609-.8724q1.2479-1.8483,1.08.1073a8.7221,8.7221,0,0,1,.2342,1.9581q.2308,1.9546.4429,3.9113.4767,4.3869.8967,8.78,1.5771,16.4918,2.3517,33.05.884,19.0651.6632,38.157a.6625.6625,0,0,0,1.3242,0,645.08,645.08,0,0,0-3.3854-74.6182c-.3212-3.0953-.6677-6.1878-1.02-9.28-.1571-1.3788.2778-4.1734-1.3364-4.8287-4.49-1.8225-3.3694,6.7537-3.2888,8.396q.9281,18.9232,1.8869,37.8449c.7291,14.2669,1.1825,28.5814,2.2885,42.8245.0484.6232.9984.6412.9844,0Z"/><path class="cls-4" d="M108.8857,59.6525a12.6643,12.6643,0,0,1,7.0858-1.0935l-.3533-.8684a4.4581,4.4581,0,0,0-.6726,3.5845l.6088-.7992a8.2867,8.2867,0,0,0-4.312,1.3174c-.4828.3462-.2092,1.3112.4425,1.05a12.3186,12.3186,0,0,1,3.87-1.1042.6426.6426,0,0,0,.6088-.7992,3.6725,3.6725,0,0,1,.4759-2.6521.5994.5994,0,0,0-.51-.89,12.9457,12.9457,0,0,0-7.7161,1.4452c-.54.2919-.0658,1.0538.4732.81Z"/><path class="cls-4" d="M109.257,68.9164a19.44,19.44,0,0,1,4.343-6.168c.4516-.4375-.229-1.1116-.6878-.6878a18.547,18.547,0,0,0-4.4546,6.3886c-.23.54.5583,1.0144.7994.4673Z"/><path class="cls-4" d="M116.1172,53.9244c2.6679-3.306,2.3886,3.9178,2.371,5.0632l-.0418,2.7167-.0209,1.3584q.3564,1.5589-1.3824,1.5384a.5624.5624,0,0,0-1.0228.4312c.3344,2.0591,2.8754,1.1957,3.4114-.3107.6089-1.7113.27-3.9507.3046-5.7339.0332-1.72.341-3.75-.331-5.39-.76-1.8551-4.0028-3.2918-4.7884-.6642-.46,1.5378,1.0631,3.0127,2.1354,1.4811.26-.372-.3459-.8482-.635-.49Z"/><path class="cls-4" d="M78.2667,148.39c-.4091-3.0907-.7971-6.1817-1.2352-9.2688l-.6828-4.8115c-.1138-.8019-.23-1.6034-.3417-2.4056l-.2222-1.6354q-.513-2.433,2.9187-3.0728c.3671.3781,1.0545-.1212.7454-.5751a2.2408,2.2408,0,0,0-3.0031-.7466c-1.5287.7416-1.8069,2.4388-1.72,3.9851.3483,6.2008,1.8034,12.5038,2.7583,18.6366.0683.4388.8417.34.7826-.1059Z"/><path class="cls-4" d="M82.1671,147.2913c-1.9038-14.6065-3.7758-29.2042-5.5048-43.8328-.0807-.6831-1.1562-.7049-1.09,0,1.3833,14.685,3.2716,29.406,5.7545,43.9465.08.47.9026.3655.84-.1137Z"/><path class="cls-4" d="M85.9587,147.2973c-.4951-7.752-1.6034-15.4948-2.4723-23.2123-.8389-7.45-1.5063-14.95-2.6508-22.3609-.0877-.5678-1.0488-.4385-1.0071.1363.5625,7.7541,1.6382,15.4892,2.52,23.2123.85,7.4417,1.488,14.9547,2.6952,22.3484.0843.5162.9483.3982.915-.1238Z"/><path class="cls-2" d="M60.6144,113.5868c3.2148.2889,5.1871,4.8511,8.3661,4.2918,2.16-.38,3.142-2.9665,3.1641-5.16s-.4833-4.4945.376-6.5124c.9136-2.1454,3.1222-3.3912,5.1833-4.4818l25.5567-13.5224c-4.94-5.1631-8.984-11.1609-14.2089-16.0357S76.94,63.5122,69.8336,64.2634c-6.8827.7275-12.8983,5.82-15.5844,12.1989s-2.2843,13.8.2162,20.2539c1.7586,4.5388,4.3812,10.0721,1.211,13.7658l6.629,4.0162"/><path class="cls-4" d="M60.4859,114.0529c3.27.6041,5.2166,5.4047,8.9453,4.3666,3.9012-1.0862,3.2193-6.0115,3.2559-9.0224.0439-3.6118,2.1071-5.3322,5.0467-6.9233,2.7334-1.4795,5.4952-2.9087,8.2426-4.3619l17.6265-9.3237a.6856.6856,0,0,0,.1373-1.0654C94.8335,78.2819,86.6,63.6513,71.8757,63.4517,59.1934,63.28,51.0987,75.7425,51.7185,87.4261a35.7694,35.7694,0,0,0,2.7333,11.2277c1.4174,3.6137,3.2424,7.9865.598,11.4621a.7327.7327,0,0,0,.26.9928c2.2119,1.3348,4.4213,2.6738,6.64,3.9968a.7037.7037,0,0,0,.71-1.2143c-2.2-1.3544-4.41-2.6929-6.6176-4.0357l.26.9928c4.3644-5.7063-1.4123-13.4514-2.6034-19.3155-1.7441-8.5864.6465-18.0219,7.9892-23.3094,7.2853-5.2462,16.1885-3.5444,23.1436,1.3917C92.01,74.7092,96.81,82.3565,102.7809,88.6821l.1373-1.0654L87.0566,96.0118l-7.9308,4.1976a25.1718,25.1718,0,0,0-5.4563,3.33c-3.5132,3.2324-1.2479,7.1827-2.4808,11.1324-1.9233,6.1614-7.0733-1.0382-10.4457-1.5512-.603-.0917-.8756.818-.257.9323Z"/></g></svg>