<svg xmlns="http://www.w3.org/2000/svg" viewBox="0 0 239 212"><defs><style>.cls-1{fill:#f7fafc;}.cls-2{fill:#ffefaf;}.cls-3{fill:#e93a1d;}.cls-4{fill:#303030;}</style></defs><title>DN_Service-Ya1-img-11</title><g id="back"><path class="cls-1" d="M140.0452,209.25q-.9221,0-1.8528-.083a21.51,21.51,0,0,1-4.2251-.7725,20.105,20.105,0,0,1-5.27-.7783,20.4757,20.4757,0,0,1-8.8923-1.3662,20.54,20.54,0,0,1-13.6592-1.7822c-.8892-.4258-1.89-.957-3.15-1.6738-1.7913-1.0176-4.1938-2.458-7.3455-4.4033-3.6-2.2227-8.2422-5.1465-13.8591-8.7295a20.0139,20.0139,0,0,1-31.906,1.7607s-10.8635-12.88-21.71-25.7734c-5.4314-6.4561-10.8586-12.916-14.92-17.7676-2.053-2.4531-3.7607-4.501-4.9512-5.9375-.6433-.7764-1.1465-1.3887-1.4871-1.8086-8.34-10.2793-5.1047-22.3477,2.1731-28.4854a21.1391,21.1391,0,0,1,8.6807-4.2217C7.2153,93.0456,6.2661,87.1814,6.5613,81.23a21.3643,21.3643,0,0,1,4.792-12.5937,19.9979,19.9979,0,0,1,3.2456-7.5034,20.5911,20.5911,0,0,1,2.6677-4.8506A21.1388,21.1388,0,0,1,22.75,49.2453a19.9934,19.9934,0,0,1,18.3191-3.92,19.0909,19.0909,0,0,1-1.3567-9.0864,20.1112,20.1112,0,0,1,7.0962-13.7358c2.4912-2.09,11.324-8.2051,23.2781-2.1016A19.9983,19.9983,0,0,1,77.1038,7.3327c5.6658-4.7539,15.32-7.418,25.4219-.6377,1.2874.8638,2.7734,1.98,4.6777,3.5122q.4.3215.8271.67a20.0324,20.0324,0,0,1,3.4939-3.7935c5.5659-4.67,15.6738-7.5293,25.8438-.2129,1.1321.814,2.4683,1.8633,4.2048,3.3018q.9642.7991,2.0916,1.7563a19.9562,19.9562,0,0,1,17.2371-.4087,20.0168,20.0168,0,0,1,16.7617,14.8813c4.5845,5.8174,16.5542,18.1885,24.8152,26.7266,28.115,29.0586,34.7288,36.3613,34.1248,47.9922q-.0385.7412-.1292,1.4736a22.2762,22.2762,0,0,1,.085,3.7314,20.7779,20.7779,0,0,1-5.5828,12.9883,20.0081,20.0081,0,0,1-5.2017,23.9258,20.9286,20.9286,0,0,1-5.75,3.3721,19.9993,19.9993,0,0,1-3.248,27.1582,20.382,20.382,0,0,1-14.0518,4.6846,19.9973,19.9973,0,0,1-5.4541,23.3643c-8.3413,6.999-19.1785,6.9658-32.2109-.0977-2.0732-1.124-4.3228-2.4648-6.7686-4.0371A20.1431,20.1431,0,0,1,140.0452,209.25Z"/></g><g id="Layer_2" data-name="Layer 2"><path class="cls-2" d="M147.7614,38.2668c1.3181-5.6276.451-12.2433-4.8622-15.5785-5.5543-3.4862-14.0568-1.3293-19.7738.5207-5.0416,1.6315-9.0216,3.6487-14.3968,4.1161-3.5635.31-6.9917.5307-10.2738,2.1248-10.3949,5.05-13.51,20.91-1.2719,25.7582a2.6632,2.6632,0,0,0,1.2629.195c.1442.0173.28.047.43.056,2.5727.1556,4.33-1.3276,6.238-2.7353,4.2835-3.1609,8.2271-5.871,13.9087-5.5218,5.3113.3264,10.9358,4.5327,14.8191,9.5146,1.0266,3.5692,3.7549,6.6,2.7455,10.8473-.8449,3.5554-3.3279,5.9246-3.5644,9.7241-.3576,5.7514,4.1492,11.7044-.8268,16.8286-1.7046,1.7552-.004,5.5281,2.5941,4.4563,6.6743-2.7533,8.02-7.5156,7.1962-14.4694-.3158-2.6669-1.2546-4.7882-.483-7.416.5224-1.7787,1.6888-3.0254,2.47-4.6607a15.1954,15.1954,0,0,0,1.0458-9.7417c-.9691-4.5967-3.4579-6.6783-2-11.349C144.3619,46.6315,146.727,42.6837,147.7614,38.2668Z"/><path class="cls-3" d="M93.87,105.6556c11.1393,18.1807,31.4707,23.3724,60.1467,17.8793v15.1584H133.279v27.6791l-22.1878,6.5939-6.1144-19.2836a4.8882,4.8882,0,0,1-.8612.0847c-3.8525,0-6.9758-4.521-6.9758-10.0978a51.89,51.89,0,0,1,1.946-9.72c-6.8008-4.4873-11.46-15.31-12.3588-28.2606Z"/><path class="cls-4" d="M102.6633,53.4392c.1868,9.6405.1989,19.41.9426,29.0254.4889,6.32,2.9473,12.7045,9.9065,13.8772a16.2465,16.2465,0,0,0,15.1023-6.2241c4.76-6.2358,5.3979-14.5373,5.1531-22.0971a.5922.5922,0,0,0-1.1836,0c-.0807,6.7078-.421,13.897-4.0488,19.7656-3.1923,5.1641-9.7561,8.6585-15.8578,6.9734-7.4549-2.0589-7.6971-10.5222-7.935-16.88-.3049-8.1472-.5719-16.2976-.9895-24.44a.5453.5453,0,0,0-1.09,0Z"/><path class="cls-4" d="M97.015,56.3818a26.4151,26.4151,0,0,0,14.6428-7.2076c.5426-.5413-.25-1.2723-.82-.82a34.344,34.344,0,0,1-6.5161,4.3618c-2.4037,1.1422-4.9995,1.6778-7.4372,2.6994-.453.19-.4762,1.0465.1308.9668Z"/><path class="cls-4" d="M139.0605,106.7282c-7.0041-5.1257,1.7706-14.9813,3.6425-20.3828,1.12-3.2332.6565-5.8274-.6724-8.88-1.0767-2.4731-1.4482-4.6174.0763-7.0149a19.4549,19.4549,0,0,1,4.2067-4.3291.6355.6355,0,0,0,.0978-.758c-1.1492-2.38-2.324-4.75-3.4483-7.1426-.804-1.7106-1.6119-3.2064-.5978-5.05a27.2739,27.2739,0,0,1,1.7023-2.3562,22.5158,22.5158,0,0,0,3.7159-9.2751c.9989-6.1545-.42-13.02-4.7562-17.6772-3.6417-3.9119-9.4771-4.4317-14.488-3.7436-5.8455.8027-11.9423,3.2645-15.97,7.7-.5325.5864.3147,1.4472.8742.8742a26.7651,26.7651,0,0,1,20.7964-7.368c9.0393.9159,13.2014,9.9558,12.5118,18.2884-.3974,4.8023-2.4411,8.4241-5.0711,12.311-2.4519,3.6238.2721,7.0807,1.9247,10.5.3509.726,1.6047,2.4636,1.2669,3.2738-.3028.7264-1.885,1.6957-2.4173,2.2839a9.9451,9.9451,0,0,0-2.5585,4.5152,7.6111,7.6111,0,0,0,.5784,4.49c1.2044,3.0433,2.212,5.3485,1.1815,8.6536-1.8894,6.06-11.2293,16.3074-3.0367,21.8409.4719.3187.8859-.428.4406-.7539Z"/><path class="cls-4" d="M105.8343,27.5845A15.6564,15.6564,0,0,0,88.6657,38.0238a15.7245,15.7245,0,0,0,8.0476,18.3819c.6854.3239,1.2857-.6533.6033-1.0321-5.7763-3.2061-9.2719-10.128-7.42-16.66,1.9045-6.7176,9.0213-10.9427,15.8131-10.2088.52.0562.647-.84.1246-.9208Z"/><path class="cls-4" d="M111.3818,46.6094c-1.1751-4.288,1.8834-9.05,4.5291-12.1729,2.8939-3.4164,6.6684-6.4321,11.3844-5.79,5.6758.7733,10.3616,5.52,11.6235,11.0176,1.4018,6.1071-1.0573,12.4269-5.0153,17.05-.495.5782.3208,1.4183.8452.8452,4.4529-4.8662,6.969-11.6669,5.4577-18.25A15.7867,15.7867,0,0,0,127.9042,27.408c-5.3029-.8855-9.6233,2.228-12.89,6.1317-2.9,3.466-6.043,8.6352-4.6154,13.3407a.51.51,0,0,0,.9831-.271Z"/><path class="cls-4" d="M111.74,48.764c-.3779-4.1525,2.4678-5.9155,5.69-7.5047,1.6909-.8338,6.351-3.5971,8.1884-2.1088.5461.4423,1.331-.3038.7872-.7872-2.3856-2.1206-6.8047.4411-9.1032,1.578-3.7384,1.8492-7.1706,4.0673-6.5472,8.8227.08.6115,1.0427.6408.9844,0Z"/><path class="cls-4" d="M135.1436,63.2372a6.7733,6.7733,0,0,1-.8533,10.41.5893.5893,0,0,0,.5944,1.0169c4.2914-2.4391,4.9066-9.0807,1.0337-12.2022-.5364-.4324-1.296.2765-.7748.7748Z"/><path class="cls-4" d="M126.8356,57.6368a13.3077,13.3077,0,0,0-8.2112-1.0846c-.5765.1071-.4517,1.1122.14,1.0359a15.8733,15.8733,0,0,1,7.7346.8466c.4594.1717.7846-.5883.3364-.7979Z"/><path class="cls-4" d="M112.8071,57.13a7.4663,7.4663,0,0,0-7.3988.2732.5747.5747,0,0,0,.58.9916,7.4568,7.4568,0,0,1,6.4331-.3492c.5327.2008.8825-.6515.386-.9157Z"/><path class="cls-4" d="M117.2669,76.7149l-2.0849.7052.5148.1361c-.241-.2362-.4928-.4562-.7542-.6693-.51-.4156-1.2235.2537-.7375.7375.2389.2378.4837.4652.7434.68a.563.563,0,0,0,.6412.0827l2.0135-.8745c.4518-.1962.13-.9556-.3364-.7979Z"/><path class="cls-4" d="M111.9355,67.6206c-1.0219-.886-1.7553-2.4957-3.2712-2.6107a4.266,4.266,0,0,0-3.43,1.8767.6418.6418,0,0,0,.5488.9564c.6246.0375,2.4262-.1578,2.3738-1.063l-1.1712.3172c.4171.6722.2443,1.6791,1.325,1.7086a1.42,1.42,0,0,0,1.3769-1.4986.6039.6039,0,0,0-1.207,0c-.019.3715-.1-.0711-.1466-.1948a3.1905,3.1905,0,0,0-.2628-.65c-.3131-.4942-1.2153-.3374-1.1712.3172q.3592-.5591-.066-.3564-.2119.0538-.427.0926a2.4812,2.4812,0,0,1-.6238.0556l.5488.9564c.5981-.8437,1.9963-1.5134,2.89-.8511.7625.5651,1.2044,1.3287,2.0846,1.7579.4956.2417,1.1017-.4041.6284-.8144Z"/><path class="cls-4" d="M125.3746,67.6206c-1.0219-.886-1.7553-2.4957-3.2712-2.6107a4.266,4.266,0,0,0-3.43,1.8767.6418.6418,0,0,0,.5488.9564c.6246.0375,2.4262-.1578,2.3738-1.063l-1.1712.3172c.4171.6722.2443,1.6791,1.325,1.7086a1.42,1.42,0,0,0,1.3769-1.4986.6039.6039,0,0,0-1.207,0c-.019.3715-.1-.0711-.1466-.1948a3.19,3.19,0,0,0-.2628-.65c-.3131-.4942-1.2153-.3374-1.1712.3172q.3592-.5591-.066-.3564-.2119.0538-.427.0926a2.4812,2.4812,0,0,1-.6238.0556l.5488.9564c.5981-.8437,1.9963-1.5134,2.89-.8511.7625.5651,1.2044,1.3287,2.0846,1.7579.4956.2417,1.1017-.4041.6284-.8144Z"/><path class="cls-4" d="M115.0793,87.83c.7077.466,1.8062.01,2.4942-.3161a4.7624,4.7624,0,0,0,2.0473-1.8264.65.65,0,0,0-1.0169-.7846,6.64,6.64,0,0,1-1.7554,1.3707c-.5935.3-1.3857.32-1.8688.7833a.4983.4983,0,0,0,.1.773Z"/><path class="cls-4" d="M125.2258,94.5177c-1.3852,6.2822,2.1326,12.7491,7.42,15.9821,2.9036,1.7754,6.2,2.5918,9.3289,3.8541,3.9763,1.604,6.4379,3.9936,7.36,8.278.1521.7065,1.3762.564,1.2833-.1737-.8432-6.6963-6.32-8.8032-11.9724-10.8055-3.6383-1.2887-7.2168-2.884-9.6067-6.0481-2.5457-3.37-2.4967-6.9744-2.91-10.9648-.05-.4776-.7829-.6691-.9035-.1223Z"/><path class="cls-4" d="M113.411,97.4207c.4889,3.4368,1.0222,7.1117-1.3957,9.98a10.5685,10.5685,0,0,1-7.1549,3.516.5863.5863,0,0,0,0,1.1719,10.3082,10.3082,0,0,0,8.561-4.2235c2.403-3.21,1.7266-7.0273.8314-10.676-.1375-.56-.9186-.3074-.8419.2321Z"/><path class="cls-4" d="M152.9338,122.1465c-5.5635.5105-11.0508,1.6905-16.6261,2.1777a75.9149,75.9149,0,0,1-17.02-.1315,33.5948,33.5948,0,0,1-14.5943-5.2348,27.3571,27.3571,0,0,1-9.9969-13.93c-.2256-.6658-1.274-.39-1.0622.2928,3.48,11.22,12.2287,17.9424,23.6515,19.9348a70.0924,70.0924,0,0,0,17.7676.51,101.641,101.641,0,0,0,18.0016-2.7211c.4819-.13.405-.946-.1215-.8977Z"/><path class="cls-4" d="M153.5455,123.5351c.0623,2.4478.2946,4.8912.48,7.3321q.13,1.7112.2676,3.4217c.0711.8864.69,3.0865.3145,3.91-.6446,1.4128-5.168,1.4871-6.5383,1.6206a44.76,44.76,0,0,1-5.5094.1837c-3.7829-.0987-7.5406-.62-11.3-1.0148-3.7819-.3969-7.5786-.563-11.3635-.9167-10.3017-.9626-21.2925-3.4285-27.2242-12.74-3.8069-5.9761-5.1929-13.2218-5.9618-20.1575l-.5077.6669c2.7087-.5019,5.233.0086,7.9629-.0546a.6127.6127,0,0,0,0-1.2246c-2.8615-.1266-5.49-.58-8.3306-.0546a.6905.6905,0,0,0-.5077.6669c1.1309,10.2258,3.76,21.3828,12.61,27.7086,9.234,6.6005,21.32,6.2437,32.0967,7.2855,8.7.841,16.8209,1.6469,25.4429-.3893a.628.628,0,0,0,.4585-.6022c-.446-5.2493-.7324-10.5487-1.463-15.7673-.0742-.53-.94-.3977-.9265.1254Z"/><path class="cls-4" d="M141.0831,142.5895a93.8922,93.8922,0,0,1,1.8383,13.3709q.1844,3.0571.15,6.1216c-.0144,1.2073.1126,2.291-1.1195,2.9638-.9248.505-2.7549.4624-3.8056.6573a242.9336,242.9336,0,0,0-23.6269,5.9534c-2.6442.7707-6.049,1.5814-8.0419,3.6328-1.8457,1.9-2.0552,4.6873-3.5151,6.8088-1.4866,2.16-4.31,3.2164-5.33,5.7392-1.0591,2.62,1.2588,4.1832,1.6092,6.6336a.6312.6312,0,0,0,.6051.4607c4.4065.1554,7.3878-2.8014,10.3713-5.6459l-1.0966-.4542c.0176,1.097.7389,3.6351,2.2981,3.296.9654-.21,1.472-2.0455,1.7768-2.7883.82-1.9986,1.4854-4.06,2.1722-6.1069a8.2491,8.2491,0,0,1,.641-1.862c.6839-1.0171,2.2925-1.3422,3.4023-1.6232a90.7109,90.7109,0,0,1,20.4427-2.489c1.9813-.0385,3.963-.0473,5.9445-.0677,1.3759-.0142,3.0471.2238,4.362-.26,2.5356-.9321,2.5915-4.7829,2.8146-7.0166a133.7821,133.7821,0,0,0,.1763-14.171c-.0355-5.1542-.0013-10.3147-.1634-15.4667a.6479.6479,0,0,0-1.2949,0c-.16,9.4019.625,18.9034.0058,28.2883-.2116,3.2076-.0632,6.8553-4.0884,7.2231-2.0986.1918-4.2742.04-6.38.0711a99.6091,99.6091,0,0,0-12.5055.7965c-3.0115.4267-6.1174.98-9.0865,1.6669-1.67.3865-3.8951.875-4.8175,2.4863a29.8712,29.8712,0,0,0-1.6994,4.9819c-.3711,1.0743-.7457,2.1518-1.1794,3.203a7.1537,7.1537,0,0,1-.7064,1.5253,2.2076,2.2076,0,0,1-.2847.4232,1.8091,1.8091,0,0,0-.5455-2.1106.65.65,0,0,0-1.0966-.4542,26.9705,26.9705,0,0,1-4.88,4.1442,8.617,8.617,0,0,1-2.5,1.0266c-1.6707.3549-1.246.3076-1.814-.7161-1.0669-1.9227-2.25-3.6911-.5671-5.7373a38.2046,38.2046,0,0,1,3.2331-2.9289c2.3262-2.2476,2.365-5.756,4.5652-8.0067,2.6922-2.7539,7.9046-3.4245,11.4888-4.4812,4.3112-1.271,8.651-2.4416,13.0334-3.4421q3.52-.8036,7.0718-1.4561c1.3108-.24,3.8593-.1111,4.8155-1.2416.7458-.8817.5035-2.4308.515-3.4559q.0369-3.2973-.1837-6.5919a82.1735,82.1735,0,0,0-1.9828-13.1826c-.1561-.6675-1.16-.3829-1.0227.2819Z"/><path class="cls-4" d="M136.3256,141.5993a45.1257,45.1257,0,0,0-3.64,24.9368c.0977.6838,1.2517.525,1.2085-.1636a59.0809,59.0809,0,0,1,.3149-12.7271,64.14,64.14,0,0,1,3.1983-11.59c.22-.6266-.792-1.0631-1.0817-.456Z"/><path class="cls-4" d="M97.9717,136.1579c-.3807,4.8048-3.6916,11.9481,1.28,15.4032,3.5459,2.4641,8.4969,2.9681,12.6874,3.1424,5.73.2384,11.461-.37,17.1934-.3037a.5922.5922,0,0,0,0-1.1836c-9.0553-.5219-19.9557,2.3092-28.3613-2.1623-5.465-2.9073-1.8222-10.0747-1.81-14.8959a.4954.4954,0,0,0-.99,0Z"/><path class="cls-4" d="M104.4341,153.92a152.8241,152.8241,0,0,1,6.0384,19.2166c.1881.8092,1.3974.4628,1.2374-.3411a81.9156,81.9156,0,0,0-6.2263-19.3179c-.2781-.58-1.2792-.1692-1.05.4425Z"/><path class="cls-4" d="M108.2708,109.5318c-3.0475-3.5-8.4556-3.3571-12.6739-2.8568-.9469.1123-.9582,1.6136,0,1.5,3.8181-.4528,8.8435-.7636,11.6132,2.4175.6351.7294,1.6923-.3353,1.0607-1.0607Z"/><path class="cls-4" d="M86.47,108.0383c-3.7327-1.0811-7.4847-2.1081-10.8349-4.14a16.2706,16.2706,0,0,1-4.805-3.83,15.5174,15.5174,0,0,1-2.3089-5.9094c-1.1837-5.3121-2.328-10.6343-3.52-15.95a59.9866,59.9866,0,0,1-1.5875-9.52,10.2014,10.2014,0,0,1,.1544-3.2636c.4485-1.6157,1.6541-2.7138,1.8832-4.4417.2825-2.1312-.3568-4.2728-.4546-6.3934-.0373-.8091-.0766-1.5992-.1752-2.4055a55.4,55.4,0,0,0-1.1449-6.4608c-.188-.7666-.4819-2.914-1.5032-3.1405-1.25-.2772-1.3493,1.713-1.4293,2.4787-.2534,2.4252.24,4.9732-.6142,7.3084-.6487,1.7736-2.0895,2.5358-3.5376,3.569a5.0391,5.0391,0,0,0-2.3669,5.1851c.5766,5.0255,1.696,10.0019,2.3244,15.0294.534,4.2723.9508,8.5577,1.3782,12.8416.6769,6.7861.42,15.346,6.0607,20.1788,4.6272,3.9645,10.1276,7.0454,15.3059,10.2137,2.8494,1.7434,5.7138,3.4624,8.5576,5.2149a37.0243,37.0243,0,0,1,5,3.2594c.5944.5185,1.4681-.3483.87-.87-2.8661-2.5-6.4889-4.2981-9.7227-6.2609-5.0244-3.05-10.08-6.0717-14.9326-9.3914a33.4063,33.4063,0,0,1-5.17-4.0023c-3.0056-3.0823-3.5647-7.6682-4.0049-11.7512C59,87.3119,58.3164,79.0154,57.1021,70.7778c-.3252-2.2061-.6919-4.4036-1.08-6.5995-.3868-2.1913-1.316-4.7853.4712-6.559,1.6517-1.6392,3.7743-2.2116,4.7446-4.5278a12.8657,12.8657,0,0,0,.6771-4.965,26.1916,26.1916,0,0,1,.09-3.0639,4.5855,4.5855,0,0,0,.1524-.9746c-.0435-.2623-.4307-.3144-.43-.3a15.59,15.59,0,0,0,.69,2.0778c.2823,1.1171.5009,2.2517.7008,3.386a47.9357,47.9357,0,0,1,.6358,5.773c.1189,2.1807.971,4.504.2918,6.6651-.44,1.4-1.5,2.4206-1.7771,3.8946-.8939,4.7612.9433,10.4524,2.042,15.0335.6572,2.74,1.4175,5.46,2.0174,8.213.6955,3.1918,1.0151,6.4833,2.3078,9.5167,2.8042,6.58,11.3914,8.7286,17.6263,10.4422a.39.39,0,0,0,.2072-.7515Z"/><path class="cls-4" d="M110.2745,185.52a.39.39,0,0,0,0-.7793.39.39,0,0,0,0,.7793Z"/><path class="cls-4" d="M109.9658,185.1888a16.7465,16.7465,0,0,0-.2942,3.8168.428.428,0,0,0,.8555,0c.053-1.2382.0255-2.4836.1811-3.7164.0529-.4186-.677-.5213-.7424-.1Z"/></g></svg>