<svg xmlns="http://www.w3.org/2000/svg" viewBox="0 0 720 278"><defs><style>.cls-1{fill:#f7fafc;}.cls-2{fill:#f2f6f9;}.cls-3{fill:#ffefaf;}.cls-4{fill:#303030;}.cls-5{fill:#e93a1d;}.cls-6{fill:#fff;}</style></defs><title>DN_Service-Ya1-img-6</title><g id="back"><path class="cls-1" d="M178.69,275.8977c-12.4275.0015-25.6958-9.583-36.1882-17.1606q-1.49-1.0767-3.0581-2.2339a20.0089,20.0089,0,0,1-2.7087,2.7612,20.37,20.37,0,0,1-21.4731,2.8535,20.0237,20.0237,0,0,1-5.8777-1.4736,20.57,20.57,0,0,1-8.5144-1.9238c-3.8252.6528-8.4658.2339-13.96-2.2266-1.49-.667-3.4761-1.61-6.07-2.8823-2.25-1.1035-4.999-2.4756-8.2217-4.103a20.01,20.01,0,0,1-33.0825,3.7573s-8.38-9.9355-16.7578-19.894c-4.1965-4.9888-8.3928-9.9829-11.5388-13.7417-1.595-1.9062-2.9238-3.4985-3.8535-4.6206C4.8917,212,.7186,206.9631,1.4269,198.763a20.0021,20.0021,0,0,1,7.09-13.6167,20.5041,20.5041,0,0,1,10.24-4.4829c-6.3582-9.4214-7.2812-14.3413-7.0242-19.5249a21.1473,21.1473,0,0,1,7.4612-15.127c.1345-.1133.27-.2236.4067-.3325a19.93,19.93,0,0,1,5.0325-6.3652c.2869-.2407.5984-.4839.9324-.7256a20.0707,20.0707,0,0,1,4.7231-4.1382q.4742-.4526.9788-.8765a20,20,0,0,1,26.4177.6235c.0427.04.7808.72,2.1133,1.9409q.0033-.8313.0742-1.7061a20.0881,20.0881,0,0,1,7.0913-13.7275c2.5862-2.17,12.0078-8.6816,24.6648-1.3472,1.5774.9136,3.3882,2.1162,5.6992,3.7842q1.0975.7925,2.3506,1.7285a19.997,19.997,0,0,1,6.1582-9.1172c1.9978-1.6768,12.63-9.5664,25.8711-.3359a19.9917,19.9917,0,0,1,4.28-5.0054,20.22,20.22,0,0,1,19.2686-3.6646,20.1285,20.1285,0,0,1,25.0391-.45c.1968.1431.4326.3184.7053.5259a21.4621,21.4621,0,0,1,7.5989-14.4541,20.0047,20.0047,0,0,1,21.1775-2.8682,20.0045,20.0045,0,0,1,27.1909-15.979,20.0033,20.0033,0,0,1,25.792-15.9575,20.0041,20.0041,0,0,1,27.0952-11.1309,22.0539,22.0539,0,0,1,5.5515-7.0088,21.181,21.181,0,0,1,20.8784-3.5112,19.9687,19.9687,0,0,1,2.0127-1.9438,20.3239,20.3239,0,0,1,25.0435-.6953c.8423.5923,1.7668,1.3105,2.91,2.26q.6317.5237,1.3782,1.1646a19.9969,19.9969,0,0,1,4.52-5.416c2.0354-1.7075,12.6687-9.5581,26.3738-.3921A20.0065,20.0065,0,0,1,402.0836,33.71q7.4971,7.04,15.1448,14.17a20.0138,20.0138,0,0,1,29.9531-5.1177c5.6848,4.7256,11.822,9.813,18.1482,15.042q.1816-.16.3677-.3164a19.8752,19.8752,0,0,1,23.0652-1.8149,19.92,19.92,0,0,1,7.1318,3.001,19.9165,19.9165,0,0,1,12.0349,6.8721l38.46,45.8345a19.9988,19.9988,0,0,1,4.6743,12.4424,19.6268,19.6268,0,0,1,1.375,8.9419,19.999,19.999,0,0,1-6.5007,20.3491,18.5233,18.5233,0,0,1-2.0051,1.4478c6.3813,8.96,8.36,14.2441,7.9343,20.5869a20.6,20.6,0,0,1-7.2539,14.3418,21.0192,21.0192,0,0,1-7.8613,4.0615c3.7988,5.2119,5.72,9.4146,5.2068,15.6084a20.0692,20.0692,0,0,1-7.0879,13.6943,21.495,21.495,0,0,1-7.4084,3.9292,20.0127,20.0127,0,0,1-28.9094,8.6274,22.3981,22.3981,0,0,1-5.4934,6.8354c-2.4666,2.0688-10.8083,7.8345-22.4675,3.106a19.9981,19.9981,0,0,1-28,.4l-4.5142-4.3018a19.9887,19.9887,0,0,1-4.1611,4.8125c-2.6855,2.2534-12.4929,8.9814-25.9436.9517a77.4563,77.4563,0,0,1-8.0964-5.7568q-.4841-.3823-.9878-.7861-.6306.75-1.3455,1.4487a20.0006,20.0006,0,0,1-25.9619,1.6929,20.9249,20.9249,0,0,1-6.5283,9.729c-2.99,2.5093-11.0864,7.6973-22.8311,3.021a21.1429,21.1429,0,0,1-6.8621,10.709,19.9974,19.9974,0,0,1-25.7935-.0713c-4.3159-3.6621-8.8467-7.5049-13.5347-11.479a20.76,20.76,0,0,1-6.8232,10.86,20.0063,20.0063,0,0,1-22.126,2.4048c-3.8508,2.7339-13.1138,7.28-25.1477-.45-.87-.5591-1.8022-1.2007-2.8228-1.9443a20.0239,20.0239,0,0,1-29.7434,3.3647l-4.5022-3.91q-2.9066-2.5269-5.7383-4.9863a20,20,0,0,1-6.3152,9.623A21.3376,21.3376,0,0,1,178.69,275.8977Z"/><path class="cls-2" d="M437.8111,248.0061a19.9585,19.9585,0,0,1-13.0994-4.8867L411.985,232.0881a19.9937,19.9937,0,0,1-4.3062,5.0513c-5.9575,4.9985-13.8684,6.2769-21.7051,3.5073a38.3042,38.3042,0,0,1-7.9966-4.0747c-2.2837-1.4687-4.8816-3.3535-7.8552-5.7007a20.02,20.02,0,0,1-25.2969-13.0728c-6.76-9.69-35.207-42.0913-59.6079-68.665a20.0042,20.0042,0,0,1-1.2285-25.583c-4.1479-6.7559-5.2852-11.2676-4.9626-16.4131a20.8054,20.8054,0,0,1,7.3279-14.5869,19.9418,19.9418,0,0,1,8.679-4.2393A18.7836,18.7836,0,0,1,293.025,78.09a20.0369,20.0369,0,0,1,26.0408-17.8721,20.0136,20.0136,0,0,1,15.0029-17.3291A22.1,22.1,0,0,1,350.4874,41.76a34.8114,34.8114,0,0,1,7.9519,3.7075q1.1008.6709,2.302,1.479.56-.5449,1.1658-1.0527a19.9968,19.9968,0,0,1,27.0156,1.1987q5.9615,5.9788,12.0242,12.0273a19.9976,19.9976,0,0,1,25.3511.2422l20.2053,16.8838a21.44,21.44,0,0,1,19.68-3.5161,30.2436,30.2436,0,0,1,7.0425,3.2813c1.0415.6416,2.13,1.3721,3.2925,2.2109A19.9719,19.9719,0,0,1,492.4178,84.78c.4023.4448,9.9641,11.0244,19.6772,22.16,5.7839,6.6309,10.4131,12.0762,13.759,16.1846,6.1582,7.562,11.0225,13.5352,10.4111,22.4165a20.1275,20.1275,0,0,1-1.2083,5.6064,21.1364,21.1364,0,0,1,2.2922,11.2832,20.5715,20.5715,0,0,1-7.2456,14.31,20.06,20.06,0,0,1-3.5435,2.3813,20.0108,20.0108,0,0,1-8.6184,26.9766c-.0017.501-.0178,1.0034-.0461,1.51a21.15,21.15,0,0,1-7.55,15.1875,20.3658,20.3658,0,0,1-12.658,4.6563,19.9982,19.9982,0,0,1-6.5325,10.4126,22.0349,22.0349,0,0,1-6.3086,3.7148c-8.2095,5.0913-18.3738,4.2388-30.28-2.5522a21.2909,21.2909,0,0,1-3.9014,4.3A19.96,19.96,0,0,1,437.8111,248.0061Z"/></g><g id="Layer_2" data-name="Layer 2"><path class="cls-3" d="M101.6732,133.65A27.3419,27.3419,0,0,0,92.1,121.07c-5.9927-4.2242-13.6826-5.5517-20.9814-4.8564s-14.291,3.267-20.978,6.2741q2.0156,12.1115,4.0313,24.2231c.6157,3.6985,4.69,15.8276,2.7817,19.3424-1.45,2.67-6.5,1.5065-8.01,4.4493-1.0732,2.0922.9692,7.0349,1.2139,9.1906,2.7173-1.642,6.1528-1.8867,8.8906-3.393a22.7151,22.7151,0,0,1,1.4678,9.0145c-3.95.2156-6.64.9782-10.3975,1.6258-1.2207.21,1.979,10.055,2.3608,10.8556,2.187-.4755,6.7842-4.1895,8.8828-3.2006,2.9272,1.38,2.688,11.4753,3.1455,14.2234l1.0654-1.4352a34.5,34.5,0,0,0,11.9614-2.1262c-.9507-4.6035-.5762-8.507-.6958-13.17,3.61-.0444,6.688-1.68,10.019-2.74-1.9668-3.3092-3.7183-6.96-3.7441-10.9259-2.4341,2.4915-6.1606,3.7216-9.4521,4.4661a41.1938,41.1938,0,0,1-.3618-7.6671c9.9053-.7438,19.2158-4.946,24.9956-13.3218A31.0558,31.0558,0,0,0,101.6732,133.65Zm-11.7856,20.275A18.0105,18.0105,0,0,1,72.6688,163.96l-2.9214-2.36q-2.3372-13.4615-4.6733-26.923a4.2947,4.2947,0,0,1,.2358-3.08,3.809,3.809,0,0,1,1.7822-1.2772,17.5541,17.5541,0,0,1,22.7954,23.6049Z"/><path class="cls-4" d="M102.3964,133.45a27.827,27.827,0,0,0-21.2978-17.6116c-10.86-1.9176-21.5229,1.6246-31.3361,6.0014a.7631.7631,0,0,0-.3447.847c1.3427,8.0683,2.52,16.1849,4.0313,24.2231.8045,4.2786,2.22,8.4176,2.9132,12.7246.3106,1.93,1.0756,5.4187-.7787,6.823-1.702,1.2889-4.2316.9648-6.0013,2.2311-3.5454,2.5368-.6408,7.8961-.1479,11.2036a.7565.7565,0,0,0,1.1017.4482c2.8015-1.547,6.0364-1.9547,8.8906-3.393l-1.1017-.4482a24.9829,24.9829,0,0,1,1.441,8.8151l.75-.75a71.0646,71.0646,0,0,0-9.7475,1.5014c-1.5373.32-1.767.827-1.621,2.3734a33.7631,33.7631,0,0,0,2.6843,9.7352.7531.7531,0,0,0,.847.3447,33.8449,33.8449,0,0,0,5.2141-2.505c1.0754-.5117,2.5922-1.3141,3.6151-.3386a5.28,5.28,0,0,1,1.0655,2.4759c.9261,3.5542.6808,7.26,1.211,10.8668.1052.7157,1.0381.6274,1.3708.1792.2055-.2769.5789-1.0416.8879-1.196.4614-.2305,2.96-.0291,3.7469-.125a37.2851,37.2851,0,0,0,7.9439-1.8958.7737.7737,0,0,0,.5238-.9226c-.816-4.3-.5847-8.62-.669-12.97l-.75.75c3.6213-.1745,6.8258-1.6368,10.2184-2.7665a.76.76,0,0,0,.4482-1.1017c-1.9252-3.2931-3.4978-6.6752-3.6417-10.5474a.7592.7592,0,0,0-1.28-.53c-2.5267,2.4057-5.79,3.49-9.1212,4.2732l.9226.5238a44.1715,44.1715,0,0,1-.335-7.4677l-.75.75c9.6957-.8163,19.0149-4.8006,24.9591-12.7474a31.8719,31.8719,0,0,0,4.1376-29.7732c-.33-.8987-1.78-.51-1.4464.3988a30.44,30.44,0,0,1-3.5281,27.9894c-5.6265,7.8463-14.6913,11.8383-24.1222,12.6323a.7676.7676,0,0,0-.75.75,46.467,46.467,0,0,0,.3886,7.8664.76.76,0,0,0,.9226.5238c3.5938-.845,7.0652-2.0712,9.7831-4.6589l-1.28-.53c.1539,4.14,1.784,7.7764,3.8465,11.3044l.4482-1.1017c-3.2541,1.0836-6.3408,2.5453-9.82,2.713a.7622.7622,0,0,0-.75.75c.0869,4.4871-.1186,8.9358.7226,13.3692l.5238-.9226a36.7334,36.7334,0,0,1-10.8226,2.0879c-1.6034.0664-1.7123.5518-2.6524,1.8182l1.3708.1792c-.6194-4.2134.1376-9.3436-2.0662-13.1788-2.4953-4.3427-7.8131.7736-10.8848,1.6321l.847.3447a40.8393,40.8393,0,0,1-2.1754-7.36,5.95,5.95,0,0,1-.3383-1.9483c.15-.8841.342-.5979,1.3716-.75,2.8623-.4225,5.6276-1.1014,8.5311-1.2944a.7684.7684,0,0,0,.75-.75,26.1471,26.1471,0,0,0-1.4946-9.2138.7621.7621,0,0,0-1.1017-.4482c-2.8536,1.438-6.08,1.841-8.8906,3.393l1.1017.4482c-.3644-2.4451-1.5833-4.88-1.4912-7.3813.1162-3.1552,3.8619-2.955,6.0544-3.9039,3.5875-1.5526,2.8782-5.7972,2.3647-8.9725-.6964-4.3064-2.1149-8.445-2.9132-12.7246-1.5-8.041-2.6884-16.1541-4.0312-24.2231l-.3447.847c9.1705-4.09,19.1991-7.5,29.3744-5.982A26.402,26.402,0,0,1,100.95,133.849C101.3034,134.7347,102.7547,134.3483,102.3964,133.45Z"/><path class="cls-4" d="M89.24,153.546a17.4071,17.4071,0,0,1-8.116,8.0293,16.9393,16.9393,0,0,1-6.27,1.6529c-1.3825.0833-1.7073.16-2.754-.6859a11.691,11.691,0,0,1-1.0651-.86c-.6664-.6858-.4242-.2816-.7315-1.2425a51.391,51.391,0,0,1-1.1685-6.7308q-1.1684-6.7307-2.3366-13.4615c-.3474-2.0013-1.4708-5.1685-1.14-7.1682.4068-2.4612,4.3518-3.0542,6.3549-3.2635a17.69,17.69,0,0,1,10.8191,2.3912c7.203,4.3,9.7431,13.8005,6.4076,21.3395-.3871.8748.905,1.639,1.2952.7571A18.9405,18.9405,0,0,0,88.24,134.9783a18.68,18.68,0,0,0-17.508-6.49c-2.6219.4374-6.4572,1.3486-6.5739,4.59-.0722,2.0055.6034,4.1653.9435,6.1247l1.3351,7.6923q.6259,3.6058,1.2518,7.2115l.5842,3.3654c.2165,1.2473.1622,3.221.7512,4.3269a8.9056,8.9056,0,0,0,3.2661,2.8083c2.738,1.1539,7.4793-.66,9.9194-1.8959a18.7943,18.7943,0,0,0,8.3255-8.4089C90.9644,153.4416,89.6709,152.681,89.24,153.546Z"/><path class="cls-3" d="M222.4312,215.1682c-6.1743.75-12.6973,2.5515-17.8071,5.7694a28.0544,28.0544,0,0,0-7.722,7.2426c-.5561.7665-4.3378,8.8979-4.2382,8.8915l-3.9.2483a8.4518,8.4518,0,0,0-2.5194.4193c-1.9594.7552-3.051,2.8-3.9747,4.6859q4.826-.239,9.6506-.5044a24.618,24.618,0,0,0,.0769,3.44,48.4283,48.4283,0,0,1-9.7411.1306,24.9672,24.9672,0,0,1-5.3005,6.1221q7.8247-1.376,15.7242-2.2646a25.83,25.83,0,0,0,12.99,16.7,24.9271,24.9271,0,0,0,19.4726.9982c4.1182-1.4955,12.3281-4.5443,11.7034-10.11-2.8216-.4721-6.4032.7475-8.9486-.9437-6.0639,10.6769-27.6631,5.0868-28.077-6.8983-.0061-.1786,8.7416-1.0951,9.7-1.16,1.2484-.0841,4.0813-4.6981,4.0813-4.6981a75.86,75.86,0,0,0-13.58,1.0719,18.3406,18.3406,0,0,1-.1512-2.8383q7.6432-.4479,15.283-.9536a5.7145,5.7145,0,0,0,2.2371-.4561c1.6171-.8227,2.2215-3.0332,3.91-3.6955l-2.3451-.9688-18.3226,1.1667a17.9129,17.9129,0,0,1,7.2437-10.0856,32.9183,32.9183,0,0,1,24.466-5.0281c2.8031.4586,2.9829,1.2632,5.4471-.3869,1.6419-1.0995,2.93-2.9442,4.4865-4.3293-5.3044-.354-10.2936-2.2157-16.0317-1.902C225,214.9,223.7234,215.0113,222.4312,215.1682Z"/><path class="cls-4" d="M222.4312,214.4182c-8.69,1.12-17.5211,3.8823-23.7029,10.4009a23.6814,23.6814,0,0,0-4.279,6.5384c-.7729,1.6163-2.254,3.7232-2.5086,5.5149l.7232-.5506c-2.3514.15-5.29-.1276-7.4194,1.0675-1.7586.987-2.76,2.927-3.6218,4.6574a.7579.7579,0,0,0,.6476,1.1285q4.8259-.2406,9.6506-.5044l-.75-.75a32.6219,32.6219,0,0,0,.0769,3.44l.75-.75a53.6307,53.6307,0,0,1-9.7411.1306.7458.7458,0,0,0-.6476.3715,26.7345,26.7345,0,0,1-5.1833,5.97c-.6231.536.0658,1.369.73,1.2535q7.73-1.3446,15.5248-2.2378l-.7232-.5506c2.9874,11.1575,12.38,19.5773,24.1763,19.758a31.9542,31.9542,0,0,0,14.3916-3.66c3.4749-1.7,7.3358-4.3832,7.0715-8.7089a.7764.7764,0,0,0-.75-.75c-2.8466-.3377-5.9442.617-8.57-.8413a.7639.7639,0,0,0-1.0261.2691c-5.199,8.6753-20.1854,5.9569-25.1065-1.677a9.8556,9.8556,0,0,1-1.3582-3.1806c-.0557-.2488-.0481-1.7758-.6292-.99.0808-.1093.6814-.1264.8157-.1368,2.1743-.1685,4.35-.5281,6.5213-.7506,1.4371-.1472,2.5384-.09,3.6453-1.1066a19.62,19.62,0,0,0,3.1117-4.1573.757.757,0,0,0-.6476-1.1285,82.5958,82.5958,0,0,0-13.78,1.0987l.9494.7232a27.0841,27.0841,0,0,1-.1512-2.8383l-.75.75c4.7766-.2809,9.5547-.5573,14.328-.89a7.7282,7.7282,0,0,0,4.075-.9433c1.3574-.9406,1.9-2.5886,3.4061-3.3739a.76.76,0,0,0-.1792-1.3708,13.9428,13.9428,0,0,0-2.2443-.9272c-1.5245-.3215-3.5781.14-5.1219.2386l-13.5009.86.7232.9494c2.8934-9.3278,12.5773-14.1625,21.8235-14.9713a35.2125,35.2125,0,0,1,6.5938.0677c1.79.18,3.6348.8824,5.42.9379,3.2109.1,5.5658-3.6061,7.6132-5.5332a.7589.7589,0,0,0-.53-1.28c-3.4286-.2787-6.7636-1.1074-10.1644-1.5789a38.2746,38.2746,0,0,0-9.682.0128c-.9484.1071-.9593,1.6083,0,1.5a38.5484,38.5484,0,0,1,10.9614.1938c2.9613.4978,5.8867,1.1286,8.8849,1.3723l-.53-1.28c-1.675,1.5766-3.2195,4.0287-5.45,4.8353-1.6709.6043-3.9331-.3765-5.6727-.5846a34.64,34.64,0,0,0-13.1555.8361c-8.0108,2.1662-15.0233,6.9018-17.5583,15.0741a.7553.7553,0,0,0,.7232.9494l12.5365-.7982c1.7452-.1111,3.9954-.69,5.6875-.3536a13.4419,13.4419,0,0,1,2.2443.9272l-.1792-1.3708a7.6651,7.6651,0,0,0-2.3838,2.224c-1.6581,2.0243-3.854,1.8579-6.25,2.0133q-6.2078.4026-12.418.7654a.7643.7643,0,0,0-.75.75,27.0841,27.0841,0,0,0,.1512,2.8383.7677.7677,0,0,0,.9494.7232,80.19,80.19,0,0,1,13.3808-1.0451l-.6476-1.1285c-.8127,1.3124-1.9022,3.5177-3.313,4.2262-1.2508.6281-3.443.4276-4.8193.58-1.4846.1647-3.4945.07-4.9017.6219-1.2422.4872-.8471,1.7125-.5819,2.8688,1.7961,7.8307,11.3689,11.7566,18.6764,11.2076,4.294-.3226,8.2714-2.2229,10.53-5.9917l-1.0261.2691c2.9428,1.6343,6.1425.6683,9.3272,1.0461l-.75-.75c.2545,4.1647-4.1325,6.46-7.41,7.9166a29.5119,29.5119,0,0,1-13.3893,2.9271c-10.7957-.5066-19.1686-8.4524-21.894-18.6314a.7554.7554,0,0,0-.7232-.5506q-7.9948.9177-15.9236,2.2914l.73,1.2535a27.6091,27.6091,0,0,0,2.9-2.8448c.5515-.637,1.3921-2.3,2.081-2.743,1.0172-.6539,3.01-.1187,4.1739-.13,1.7914-.0168,3.5733-.1476,5.3563-.3157a.7612.7612,0,0,0,.75-.75,32.6219,32.6219,0,0,1-.0769-3.44.7558.7558,0,0,0-.75-.75q-4.8248.2621-9.6506.5044l.6476,1.1285c.7442-1.4938,1.5625-3.2657,3.0837-4.1193,1.8107-1.016,4.6191-.7326,6.6624-.8627a.7627.7627,0,0,0,.7232-.5506c.216-1.52,1.4861-3.3245,2.1336-4.687a23.833,23.833,0,0,1,3.713-6.1017c5.9218-6.62,14.6143-9.4578,23.1975-10.5643C223.3753,215.7965,223.3875,214.2949,222.4312,214.4182Z"/><path class="cls-3" d="M434.6326,49.214c-4.3995-.763-8.8852.2409-13.3373.5832s-9.3635-.1551-12.5755-3.257-3.2657-9.4759.7822-11.3607c2.6922-1.2535,5.8126-.1293,8.7468.3268s6.7476-.4244,7.31-3.34l-.2473-.3223c-5.3795-1.6851-11.53-2.749-16.673-.9531a28.528,28.528,0,0,0-3.396-4.3331,5.5037,5.5037,0,0,0-2.776-1.8248,2.17,2.17,0,0,0-2.595,1.5408,3.0313,3.0313,0,0,0,.4221,1.688,26.9085,26.9085,0,0,0,3.7141,5.6761,12.77,12.77,0,0,0,2.68,20.7412c6.166,3.2369,13.6653,1.01,20.6044,1.6a25.04,25.04,0,0,1,9.7609,2.9173,6.0272,6.0272,0,0,1,2.3987,1.99c1.6829,2.7583-1.0626,6.061-3.6372,8.0134-3.0959,2.3477-7.6211,4.5006-10.5465,1.944-1.69-1.477-2.6383-4.3826-4.8792-4.2521a3.3573,3.3573,0,0,0-2.6825,2.6012c-1.045,3.4681,1.0521,7.1974,3.864,9.4807a17.0137,17.0137,0,0,0,17.5136,2.0587,13.618,13.618,0,0,0,3.6294,3.5339,4.9177,4.9177,0,0,0,5.1435.14,10.7187,10.7187,0,0,0-4.6808-6.4659,16.69,16.69,0,0,0-8.5423-28.7256Z"/><path class="cls-4" d="M434.832,48.4908c-7.3075-1.0631-15.1348,2.3862-22.2143-.3748-3.3614-1.311-5.801-4.2613-5.4621-8.0009.4886-5.3923,5.69-4.86,9.684-4.1034,2.292.4341,4.72.6013,6.8665-.5031,1.1617-.5977,3.1331-2.3086,2.438-3.8019-.3713-.7976-1.5614-.8743-2.2689-1.071a41.1554,41.1554,0,0,0-5.1763-1.1094,22.7577,22.7577,0,0,0-10.26.641l.847.3447c-1.5935-2.4156-5.1091-8.1587-8.7634-6.1915-3.8218,2.0575,1.3478,7.8967,2.9546,9.8474V33.1073a13.7027,13.7027,0,0,0-.4564,19.4422c6.4754,6.6532,16.14,3.4651,24.2707,4.18a24.2443,24.2443,0,0,1,7.8516,2.0538c1.2054.5467,2.9778,1.2952,3.66,2.4816,1.1411,1.9836-.4475,4.1649-1.7667,5.56a15.8,15.8,0,0,1-6.0527,3.9427c-2.9982,1.0364-4.9464.0542-6.765-2.33-1.3513-1.772-3.3115-3.597-5.5606-1.95-2.6487,1.9395-2.2478,6.0108-.9594,8.5968,3.8878,7.8032,14.3777,9.5251,21.7627,6.2956l-.9089-.1173c2.3809,2.9806,5.7492,5.9159,9.6817,3.7908a.7607.7607,0,0,0,.3447-.847,12.0778,12.0778,0,0,0-5.0254-6.9142l.1518,1.1779c4.793-4.7588,6.9685-11.9836,4.6163-18.4681a18.1624,18.1624,0,0,0-13.49-11.511c-.9429-.1857-1.3465,1.26-.3988,1.4464a16.6777,16.6777,0,0,1,12.442,10.4634c2.1916,5.9867.1989,12.6109-4.2306,17.0087a.76.76,0,0,0,.1518,1.1779,10.4727,10.4727,0,0,1,4.3361,6.0177l.3447-.847c-3.3111,1.7893-5.99-1.21-7.864-3.5563a.7638.7638,0,0,0-.9089-.1173,16.6432,16.6432,0,0,1-12.0867.5243c-3.9074-1.3486-8.34-4.7932-8.4317-9.3176-.0318-1.5705.8093-4.8339,3.2934-3.6505.6577.3133,1.1992,1.2439,1.6219,1.7936a8.3975,8.3975,0,0,0,2.9534,2.8037c2.5814,1.216,5.6252.0852,7.93-1.2288,4.9756-2.8365,10.1092-9.2728,3.0665-12.9571a26.0289,26.0289,0,0,0-10.5953-2.8806c-4.2287-.2379-8.4523.4672-12.68.2154-4.9631-.2955-9.5215-2.3535-11.8729-6.9365a12.201,12.201,0,0,1,2.6344-14.2824.77.77,0,0,0,0-1.0607,28.7735,28.7735,0,0,1-2.3743-3.2873c-.8984-1.4711-2.2216-5.7415,1.155-3.9409,1.9423,1.0357,3.5106,3.6293,4.6721,5.39a.7683.7683,0,0,0,.847.3447,23.2713,23.2713,0,0,1,12.1228-.1593c.784.17,2.7469.3214,3.339.8645l.4879.0643a4.6269,4.6269,0,0,1-.8239,1.164,6.4166,6.4166,0,0,1-4.5035,1.3184c-3.1483-.091-6.2473-1.6738-9.4127-.6947a6.1488,6.1488,0,0,0-4.1178,4.3486c-1.3183,4.7492,1.6193,9.1333,5.9523,10.9031,7.269,2.9691,15.0718-.5738,22.5516.5144C435.3775,50.0746,435.7851,48.6295,434.832,48.4908Z"/><path class="cls-5" d="M657.2849,8.5461c-8.0817,4.84-19.8141,20.8979-3.3463,23.7278,11.473,1.9711,22.3473-14.2081,31.9052-8.8227,2.2644,1.2758,4.4546,3.7619,6.5619,7.9862,5.87,11.77-2.46,21.8683-9.3425,30.5131-8.9074,11.1886-44.9875,40.3156-18.7612,51.9711,2.0769.9232,4.7252,1.1419,6.4485-.34,3.2939-2.8322,4.77-15.09,7.3-19.6654,3.4116-6.1689,7.7179-10.4779,12.8067-15.2678,9.96-9.376,22.6529-16.1459,25.7523-30.6658C724.3684,11.63,687.4785-9.5376,657.2849,8.5461Z"/><path class="cls-4" d="M656.9064,7.8985c-5.6658,3.4831-16.5051,14.5341-10.3814,21.66,3.5321,4.11,10.2626,4.259,14.9788,2.5672,5.8749-2.1075,10.6842-6.511,16.6258-8.4127,8.0906-2.59,13.758,5.5144,15.2015,12.6456,1.8138,8.96-4.3985,17-9.6138,23.573-6.3943,8.0594-14.2019,14.8689-20.5661,22.9707-4.9634,6.3185-12.0537,16.2109-7.6834,24.5707,2.082,3.9826,7.304,7.7631,11.8479,7.9172,5.9294.2011,7.1583-7.3322,8.3462-11.7124a52.378,52.378,0,0,1,2.75-8.8191,41.96,41.96,0,0,1,7.5875-10.3714c5.3157-5.6459,11.3895-10.3553,17.23-15.4188,5.26-4.5606,10.13-9.7087,12.7165-16.2844a40.6136,40.6136,0,0,0,2.0859-19.9134,36.1376,36.1376,0,0,0-18.36-26.7794C689.3.39,676.7112-.1483,665.6373,3.7794a50.3053,50.3053,0,0,0-8.7309,4.119.7506.7506,0,0,0,.7571,1.2952c10.4826-6.1824,23.125-8.3681,34.8433-4.5721a34.9727,34.9727,0,0,1,22.7088,22.4806,40.0283,40.0283,0,0,1,1.0087,18.9454c-1.29,7.2967-4.9682,13.268-10.201,18.4231-4.7771,4.7061-10.2566,8.6188-15.1783,13.1645-5.2764,4.8732-11.089,10.3777-14.008,17.0869-2.2538,5.18-2.6255,11.0587-5.1194,16.1438-3.095,6.3107-11.7015.99-14.4539-3.2844-5.2026-8.08,2.8872-18.6086,7.8034-24.69,5.8643-7.2541,12.9368-13.4392,18.7622-20.7066,4.2571-5.3109,8.8847-10.926,10.6466-17.642,1.7731-6.7584-.4452-13.7855-4.9809-18.9917-8.5761-9.8439-19.6508,1.99-28.39,5.1283-4.47,1.6051-13.3058,1.5645-14.6023-4.4342-.9835-4.55,2.8606-9.5074,5.7533-12.5682a26.8352,26.8352,0,0,1,5.4074-4.4836C658.4844,8.689,657.7318,7.391,656.9064,7.8985Z"/><path class="cls-5" d="M654.7157,127.2038l1.587.4027c-3.2582,4.5379-5.6136,10.3556-3.88,15.6658s9.11,8.6343,13.2418,4.8744a10.3686,10.3686,0,0,0,2.8145-5.601c.9182-4.2559.4845-9.0122-2.1661-12.4665S658.4711,125.001,654.7157,127.2038Z"/><path class="cls-4" d="M654.5163,127.927l1.587.4027-.4482-1.1017c-3.5647,5.1011-6.7275,12.7488-2.8166,18.5623,2.5766,3.83,8.33,6.3067,12.5117,3.5417,4.9831-3.2952,5.2453-12.04,3.1248-17-2.3072-5.3963-8.6738-8.6355-14.1379-5.7757-.8556.4478-.0982,1.7428.7571,1.2952,5.16-2.7008,10.7315,1.1012,12.3967,6.13,1.4521,4.385,1.0224,12.7386-4.0659,14.6485-4.0741,1.5293-8.9569-1.674-10.2786-5.5566-1.79-5.257.8308-10.8334,3.8039-15.0879a.7552.7552,0,0,0-.4482-1.1017l-1.587-.4027A.7506.7506,0,0,0,654.5163,127.927Z"/><path class="cls-6" d="M360.35,62.0729c3.6088-.4666,6.9177-.0133,9.912,2.2245a11.8456,11.8456,0,0,1,3.3558,3.8359c.804,1.4974.8928,2.9887,1.365,4.58,1.1109,3.7433,4.8338,2.6137,7.8554,3.0612,2.8291.4191,10.9429,2.82,9.4718,6.9738a2.0149,2.0149,0,0,0,2.4567,2.4567c3.3805-.8216,8.7-2.1425,11.33.9742,2.4806,2.9393,1.541,7.9141,2.9176,11.3965.3988,1.0088,1.498,1.999,2.6938,1.5295,4.4013-1.7282,9.8181,1.4444,9.966,6.3291.0859,2.8368,4.4593,2.8555,4.4219,0-.0989-7.5408-8.4278-13.45-15.5522-10.5523l2.6938,1.5295c-1.9374-4.7324-.6742-10.6076-5.1373-14.1306-4.0713-3.2137-9.7886-2.1618-14.3952-.9274l2.4567,2.4567c1.44-4.39-2.42-7.8927-6.0114-9.638a22.1981,22.1981,0,0,0-6.5671-2.0337,31.3,31.3,0,0,0-3.5225-.24c-1.8411-.0575-1.5856-.4221-2.01-2.0346-1.9287-7.3244-10.58-13.1059-18.0868-10.645-1.4611.479-1.3224,3.0752.3863,2.8543Z"/><path class="cls-6" d="M435.48,99.9338c5.8733-3.07,13.9562-1.0616,17.4963,4.5491a2.1338,2.1338,0,0,0,3.3211.428,10.762,10.762,0,0,1,10.2694-4.0286c4.1529.8171,6.3753,3.8249,8.0728,7.4115,1.0608,2.2413,4.3643.6107,3.8554-1.6254-2.5981-11.4163-18.4659-13.3022-25.1881-4.748l3.3211.428c-4.9718-7.3683-15.0858-9.8117-22.6149-4.924a1.4542,1.4542,0,0,0,1.4668,2.5095Z"/><path class="cls-6" d="M394.7312,101.226c7.033-1.5619,15.0159,3.4227,15.7033,10.8418a2.0751,2.0751,0,0,0,3.07,1.762,19.5409,19.5409,0,0,1,10.3655-1.5522,19.8166,19.8166,0,0,1,4.7348,1.2131c1.37.5385,2.9977,2.036,4.42,2.2033,1.3373.1573,3.087-.894,4.4162-1.1565a17.4406,17.4406,0,0,1,14.11,3.4693,2.2236,2.2236,0,0,0,3.0494,0c4.5375-4.14,10.6149-.6772,10.9634,4.9806a2.0716,2.0716,0,0,0,4.1406,0,10.6334,10.6334,0,0,0-6.2771-10.24,11.0407,11.0407,0,0,0-11.8763,2.21H454.6a21.6266,21.6266,0,0,0-21.8569-3.39l1.6338.2137a23.6279,23.6279,0,0,0-22.9319-1.4748l3.07,1.762c-1.0493-9.5-11.194-17.0678-20.5944-13.78a1.5248,1.5248,0,0,0,.81,2.938Z"/><path class="cls-6" d="M343.2279,55.35c1.4658-3.154,7.27,2.5837,8.2847,3.8378,2.8677,3.5446,3.6354,7.4059,4.0506,11.7989.3692,3.9063,3.5734,4.9883,6.9288,5.74,1.857.4161,4.1353.8739,5.4853,2.3339,1.0676,1.1546,1.5114,3.317-.1387,4.1351-1.7411.8633-1.1373,3.402.5129,3.9242a41.6673,41.6673,0,0,1,9.5923,4.3924c1.5682.9813,3.224,1.9108,2.7338,4.0118-.3678,1.5766-1.6514,3.071-2.5868,4.3525-1.3839,1.896,1.6683,4.2068,3.2393,2.4994,2.9064-3.1588,5.6322-8.2075,2.18-12.0244-3.3762-3.7333-9.34-5.9046-14.0175-7.3724l.5129,3.9242c4.2926-2.1413,3.9114-8.16.74-11.1134-2.0406-1.9005-4.8269-2.6609-7.4773-3.2444-1.1645-.2563-2.82-.3321-3.3946-1.4714-.5449-1.0809-.33-3.0415-.5469-4.2694a21.6514,21.6514,0,0,0-8.3934-13.4164c-3.1083-2.31-8.5692-3.7905-10.3336.8537-.5737,1.51,1.941,2.5847,2.6274,1.1077Z"/></g></svg>