<svg xmlns="http://www.w3.org/2000/svg" viewBox="0 0 241.4196 188.1952"><defs><style>.cls-1{fill:#f7fafc;}.cls-2{fill:#ffefaf;}.cls-3{fill:#e93a1d;}.cls-4{fill:#303030;}</style></defs><title>DN_Service-Ya2-img-7</title><g id="Layer_2" data-name="Layer 2"><g id="back"><path class="cls-1" d="M115.595,188.1952a21.6153,21.6153,0,0,1-9.56-2.3342c-.8989-.4387-1.9124-.9873-3.19-1.7261-1.8235-1.0549-4.2712-2.5483-7.4827-4.5657-3.9009-2.4507-9.001-5.7222-15.218-9.7617A20.0161,20.0161,0,0,1,48.4979,171.19S37.54,158.1986,26.5853,145.1767c-5.4851-6.52-10.97-13.0479-15.0818-17.9607-2.0781-2.4829-3.8093-4.5579-5.02-6.02C3.3187,117.3769-.62,112.6234.0821,104.4218a20.0011,20.0011,0,0,1,7.073-13.6174A21.0226,21.0226,0,0,1,15.4864,86.68C5.7486,73.6293,2.5889,66.18,2.973,58.4416A21.3715,21.3715,0,0,1,8.6343,44.8292a19.881,19.881,0,0,1,4.9236-8.4351,20.2707,20.2707,0,0,1,4.1868-5.0012A21.3813,21.3813,0,0,1,20.76,28.2956a19.9988,19.9988,0,0,1,26.5168.7151c.4709.44.937.876,1.4077,1.3157q-.0022-.9174.0767-1.8916a20.0917,20.0917,0,0,1,7.0933-13.7292C58.386,12.581,67.6187,6.182,80.0638,13.1049c1.4258.793,3.043,1.8191,5.0688,3.2166a19.9981,19.9981,0,0,1,6.4941-10.26c5.5447-4.6519,15.0151-7.3413,24.9653-.9368,1.2158.7825,2.6089,1.7859,4.3843,3.158q.2373.1831.4849.3762A20.0158,20.0158,0,0,1,125.09,4.6715c5.4663-4.5869,15.4109-7.468,25.4492-.4927.4888.34,1.0161.7229,1.6,1.1631,6.335-3.7383,15.2126-4.3528,23.2068,2.0486A20.0217,20.0217,0,0,1,198.8382,20.538c3.4438,4.1365,11.2383,12.1921,16.1929,17.3132,20.0188,20.6907,26.0605,26.9351,25.4868,37.9846a20.5634,20.5634,0,0,1-1.4326,6.5369A22.3062,22.3062,0,0,1,241.38,93.5453a20.71,20.71,0,0,1-6.1609,13.5579,20.0039,20.0039,0,0,1-6.19,21.4368,20.9265,20.9265,0,0,1-8.9807,4.33,19.9989,19.9989,0,0,1-26.8933,21.3215q.015.9668-.0637,1.94a20,20,0,0,1-7.0776,13.6946c-8.9619,7.52-19.4009,5.9822-29.4739,1.2527a20.1175,20.1175,0,0,1-19.2974,15.7942,20.0512,20.0512,0,0,1-5.9648.5945,20.0585,20.0585,0,0,1-10.11-.0916A19.45,19.45,0,0,1,115.595,188.1952Z"/></g><g id="Layer_2-2" data-name="Layer 2"><ellipse class="cls-2" cx="201.6939" cy="82.3091" rx="29.9783" ry="30.6805"/><ellipse class="cls-2" cx="119.9473" cy="80.7055" rx="29.077" ry="30.2495"/><ellipse class="cls-2" cx="39.6733" cy="79.9215" rx="28.3462" ry="28.293"/><path class="cls-3" d="M47.1173,69.1486c-3.7462,4.2185-8.042,7.8062-11.49,12.39-1.224,1.6277-1.6359,4.4824.9648,4.9916,2.545.4982,2.6119-2.0689,3.42-3.81a52.7448,52.7448,0,0,1,3.2439-6.1361c1.7046-2.6556,5.5533-6.2869,5.8268-9.2743A12.61,12.61,0,0,0,47.1173,69.1486Z"/><path class="cls-3" d="M136.1085,72.1826c-3.1293.7107-6.22,2.58-8.9837,4.0278-3.1942,1.6725-6.737,2.3963-9.44,4.9725a3.1259,3.1259,0,0,0,.95,5.2178c2.7773,1.3477,5.3916-1.4817,7.3347-3.0681,3.4082-2.7834,10.2491-6.9477,11.4463-11.3751A12.0982,12.0982,0,0,0,136.1085,72.1826Z"/><path class="cls-3" d="M208.5716,65.6072c-2.7182,3.4094-4.0715,7.6654-7.0237,10.7693-2.7592,2.901-5.4716,5.9106-6.9778,9.6953a1.706,1.706,0,0,0,.77,1.8914,5.9932,5.9932,0,0,0,5.0527.814c1.5415-.6919,1.7715-2.5942,2.2329-4.0515,2.0034-6.3213,4.9209-12.1892,7.249-18.36C210.1418,65.6561,209.0518,65.0048,208.5716,65.6072Z"/><path class="cls-4" d="M36.7447,107.0815c-11.417-.3565-20.489-9.7661-24.1923-20.0053-3.7462-10.3579-2.3578-23.1838,8.4753-28.4327,10.0327-4.8611,24.9093-9.6968,35.02-2.73,9.2277,6.3581,11.1087,19.6594,9.4544,29.9418-1.0609,6.594-3.848,13.1979-9,17.6307a20.3661,20.3661,0,0,1-18.2738,4.7164.8034.8034,0,0,0-.4268,1.5481c12.4295,3.3817,23.7525-5.9154,27.6816-17.1873,3.8188-10.9555,3.1049-25.6647-4.887-34.6906-9.4792-10.7056-24.7862-6.7-36.3132-2.1831C18.59,57.92,13.63,60.9229,11.1323,66.7474c-2.1849,5.0943-2.2438,10.9272-1.0992,16.2845,2.6835,12.5605,13.1562,24.7461,26.7117,24.905a.428.428,0,0,0,0-.8555Z"/><path class="cls-4" d="M105.8,107.2677c-7.2372-.7546-11.3635-8.7592-13.0427-15.0169a45.154,45.154,0,0,1-.2287-20.1488c1.3362-6.9065,3.8539-12.7608,9.9347-16.708a30.34,30.34,0,0,1,16.4647-4.7284c11.4992-.0125,22.4357,6.09,27.4475,16.6029,5.0016,10.4917,3.9455,23.99-3.9155,32.8211a30.6437,30.6437,0,0,1-33.64,8.0417c-.8749-.35-1.2554,1.0659-.3894,1.4125,11.1276,4.4536,24.4213,1.6535,33.1477-6.4809,9.2033-8.5789,11.5217-22.5171,7.0721-34.0718-4.4995-11.6841-15.5618-19.0451-27.9525-19.6779a32.118,32.118,0,0,0-17.6619,4.1211c-6.3583,3.6835-9.7523,9.1975-11.3576,16.2716-1.78,7.8424-2.2078,16.2919.2245,24.0457,2.0358,6.49,6.4651,13.7417,13.8971,14.3777.5554.0475.544-.8046,0-.8613Z"/><path class="cls-4" d="M194.8634,110.8125c-13.2761.7445-21.3045-12.2157-22.2952-23.988a46.7316,46.7316,0,0,1,1.6874-17.681c1.9958-6.29,6.5723-9.8261,12.7873-11.5533,11.8065-3.2813,25.6073-4.8915,35.2955,4.0682,8.3952,7.7639,10.5915,19.7619,6.5583,30.3123-4.8622,12.7189-17.8411,20.16-31.1224,20.257a.7622.7622,0,0,0,0,1.5234c12.5052-.0969,24.9-6.4019,30.8858-17.6561,5.7143-10.7432,4.9089-24.1663-3.2547-33.426a26.9291,26.9291,0,0,0-14.2515-8.5822c-7.1281-1.55-14.8122-.0781-21.8293,1.443-5.8935,1.2775-11.6342,3.6347-14.7208,9.1316-3.1334,5.58-3.7031,12.839-3.57,19.1151.1524,7.2116,1.9806,14.6019,6.7353,20.1966a20.8342,20.8342,0,0,0,17.0947,7.7008c.5491-.0368.556-.8925,0-.8613Z"/><path class="cls-4" d="M52.9805,62.02C46.365,69.12,40.07,76.5294,33.6663,83.82a.6372.6372,0,0,0,0,.8891c1.0913.9449,3.2726,3.0508,4.9,2.5716,1.6074-.4731,2.4157-4.177,3.07-5.5071A78.1188,78.1188,0,0,1,52.2829,65.7813c.533-.6292-.3568-1.5434-.9156-.9156a71.7332,71.7332,0,0,0-7.9813,10.9326q-1.7708,2.9667-3.2565,6.0916c-.36.761-.69,2.2513-1.27,2.8362-1.5806,1.5939-2.98.2291-4.3042-.906v.8891c6.3719-7.33,12.8752-14.57,19.03-22.0842.3421-.4177-.2228-1.015-.6049-.6049Z"/><path class="cls-4" d="M115.29,82.3048c9.049-4.0592,18.0373-8.2522,27.0311-12.4319l-.746-.9668q-5.8749,4.8959-11.7145,9.834-2.8308,2.382-5.6559,4.7707c-.7948.6711-2.0414,2.2167-3.015,2.5459-2.5918.8766-2.9017-.91-3.2187-2.5531-.1528-.792-1.36-.4561-1.2091.3333.2873,1.507.9076,3.5766,2.5978,4.033,2.1329.576,4.3469-2.2774,5.7485-3.4557q8.6842-7.3,17.3375-14.6376c.5667-.4827-.155-1.2444-.746-.9668-8.9669,4.2114-17.9406,8.41-26.85,12.7412-.51.248-.0641.98.4406.7539Z"/><path class="cls-4" d="M210.2713,62.9444c-4.4967,6.2078-8.8139,12.5558-13.174,18.86-.9242,1.3363-2.3658,2.8318-2.97,4.3476a1.5567,1.5567,0,0,0-.1322,1.3758c.33.6611,1.3393.8355,1.9318,1.032,1.7119.5677,3.4348,1.1047,5.1518,1.6569a.67.67,0,0,0,.8142-.4623,130.7093,130.7093,0,0,1,10.1622-26.1052c.3957-.7618-.7551-1.4378-1.1535-.6743a128.5117,128.5117,0,0,0-10.2852,26.4275l.8142-.4623-3.8691-1.2235a5.9792,5.9792,0,0,1-1.72-.5438c-.6964-.6283-.3725-.5733.0868-1.4323a87.7354,87.7354,0,0,1,5.0633-7.4337c3.3635-4.96,6.7891-9.8845,10.0583-14.9073.3217-.4943-.4447-.9171-.7791-.4554Z"/><path class="cls-4" d="M35.5139,138.1534a11.933,11.933,0,0,0,3.7533,2.9367.7748.7748,0,0,0,1.0308-.27,56.3742,56.3742,0,0,1,6.9807-8.3681c.7653-.7581-.4058-1.926-1.1808-1.1808a45.5048,45.5048,0,0,0-7.101,8.7884l1.0308-.27a11.5757,11.5757,0,0,1-3.5858-2.5636c-.5978-.6145-1.4652.2915-.9281.9281Z"/><path class="cls-4" d="M38.1827,133.3026c-2.1531-.0662-7.183-1.3989-7.9029,1.5631-.5085,2.0921.0286,4.9069.2335,7.0274.1055,1.0926.0184,2.81.994,3.5822,1.151.9116,3.2717.34,4.5655.2623a22.3183,22.3183,0,0,0,5.7261-.6058c2.2307-.7544,3.9652-3.2906,2.3255-5.4325-.5837-.7625-1.8957-.0575-1.3256.7748,2.3331,3.4061-4.1412,3.5495-5.8195,3.6548A20.2133,20.2133,0,0,1,34.26,144.3q-1.6158.4775-2.1213-1.5063-.0828-.6745-.1464-1.3509c-.1318-1.3336-.8749-4.5935-.3108-5.8766.8163-1.8567,4.894-1.154,6.5013-1.1674a.5482.5482,0,0,0,0-1.0957Z"/><path class="cls-4" d="M117.2,138.1534a11.933,11.933,0,0,0,3.7533,2.9367.7748.7748,0,0,0,1.0308-.27,56.3742,56.3742,0,0,1,6.9807-8.3681c.7653-.7581-.4058-1.926-1.1808-1.1808a45.5048,45.5048,0,0,0-7.101,8.7884l1.0308-.27a11.5757,11.5757,0,0,1-3.5858-2.5636c-.5978-.6145-1.4652.2915-.9281.9281Z"/><path class="cls-4" d="M119.8689,133.3026c-2.1531-.0662-7.183-1.3989-7.9029,1.5631-.5085,2.0921.0286,4.9069.2335,7.0274.1055,1.0926.0184,2.81.994,3.5822,1.151.9116,3.2717.34,4.5655.2623a22.3183,22.3183,0,0,0,5.7261-.6058c2.2307-.7544,3.9652-3.2906,2.3255-5.4325-.5837-.7625-1.8957-.0575-1.3256.7748,2.3331,3.4061-4.1412,3.5495-5.8195,3.6548a20.2133,20.2133,0,0,1-2.7195.1707q-1.6158.4775-2.1213-1.5063-.0828-.6745-.1464-1.3509c-.1318-1.3336-.8749-4.5935-.3108-5.8766.8163-1.8567,4.894-1.154,6.5013-1.1674a.5482.5482,0,0,0,0-1.0957Z"/><path class="cls-4" d="M198.8863,138.1534A11.933,11.933,0,0,0,202.64,141.09a.7748.7748,0,0,0,1.0308-.27,56.3742,56.3742,0,0,1,6.9807-8.3681c.7653-.7581-.4058-1.926-1.1808-1.1808a45.5048,45.5048,0,0,0-7.101,8.7884l1.0308-.27a11.5757,11.5757,0,0,1-3.5858-2.5636c-.5978-.6145-1.4652.2915-.9281.9281Z"/><path class="cls-4" d="M201.5551,133.3026c-2.1531-.0662-7.183-1.3989-7.9029,1.5631-.5085,2.0921.0286,4.9069.2335,7.0274.1055,1.0926.0184,2.81.994,3.5822,1.151.9116,3.2717.34,4.5655.2623a22.3183,22.3183,0,0,0,5.7261-.6058c2.2307-.7544,3.9652-3.2906,2.3255-5.4325-.5837-.7625-1.8957-.0575-1.3256.7748,2.3331,3.4061-4.1412,3.5495-5.8195,3.6548a20.2133,20.2133,0,0,1-2.7195.1707q-1.6158.4775-2.1213-1.5063-.0828-.6745-.1464-1.3509c-.1318-1.3336-.8749-4.5935-.3108-5.8766.8163-1.8567,4.894-1.154,6.5013-1.1674a.5482.5482,0,0,0,0-1.0957Z"/><path class="cls-4" d="M16.1277,93.601A4.6231,4.6231,0,0,0,19.93,91.8554a.6593.6593,0,1,0-1.04-.8024,3.43,3.43,0,0,1-2.7628,1.3117.6185.6185,0,0,0,0,1.2363Z"/><path class="cls-4" d="M10.3808,75.1972q1.9079.87,3.8182,1.7352c.68.3084,1.2651-.7124.5856-1.0018q-1.9349-.8239-3.8714-1.6441c-.612-.2589-1.1563.6261-.5323.9107Z"/><path class="cls-4" d="M21.2553,59.7673c.1633.2035.34.3947.5142.5888.5154.5738,1.4193-.33.8452-.8452-.1941-.1743-.3853-.3509-.5888-.5142a.5453.5453,0,0,0-.7706.7706Z"/><path class="cls-4" d="M39.648,53.6551a3.14,3.14,0,0,1,1.2613,2.4176.5247.5247,0,0,0,1.0488,0,3.9145,3.9145,0,0,0-1.7955-3.298c-.5518-.37-1.0376.5021-.5146.88Z"/><path class="cls-4" d="M58.3246,62.0892c.7508-.3388,1.487-.7081,2.2268-1.07.6321-.3095.0724-1.2906-.556-.9512-.7226.39-1.4489.7736-2.1587,1.1866-.5489.3194-.068,1.0856.488.8348Z"/><path class="cls-4" d="M60.0862,84.2154l3.8456,1.1556a.6187.6187,0,0,0,.3287-1.1922L60.39,83.1136a.5718.5718,0,0,0-.3037,1.1018Z"/><path class="cls-4" d="M54.5759,101.8456a3.04,3.04,0,0,1,1.7728,1.8157c.2583.7272,1.4319.401,1.1583-.3193a4.3058,4.3058,0,0,0-2.63-2.5868c-.6912-.2454-.972.8355-.3006,1.09Z"/><path class="cls-4" d="M93.64,95.225q1.9332-.8257,3.864-1.6568c.68-.2922.0944-1.3072-.5856-1.0018q-1.9136.86-3.8255,1.7225c-.64.2891-.0834,1.2053.5471.936Z"/><path class="cls-4" d="M92.0911,74.7578q1.3693.313,2.7416.6119c.7575.1662,1.0743-1.0148.3193-1.1583q-1.3832-.2629-2.768-.5158c-.6874-.1245-.9922.9023-.2928,1.0622Z"/><path class="cls-4" d="M101.7737,55.7375l2.1595,3.3375c.4051.6261,1.417.036,1.0018-.5856l-2.21-3.3079c-.3911-.5854-1.3389-.0432-.9512.556Z"/><path class="cls-4" d="M123.5952,51.6614l-.0117,2.2059a.63.63,0,0,0,1.26,0l-.0117-2.2059a.6185.6185,0,0,0-1.2363,0Z"/><path class="cls-4" d="M137.2008,63.7526c1.5187-1.0284,2.9642-2.1652,4.4567-3.231a.6447.6447,0,1,0-.7846-1.0169c-1.4388,1.1357-2.9327,2.2069-4.343,3.3783-.4809.3994.1511,1.2217.671.87Z"/><path class="cls-4" d="M143.8991,80.3975l4.9531,1.139c.813.1869,1.1579-1.0753.3442-1.2487l-4.9749-1.06c-.76-.1618-1.0863.9939-.3224,1.17Z"/><path class="cls-4" d="M138.0916,99.5474l2.7325,2.2307c.6825.5572,1.6586-.4293.97-.97l-2.7822-2.181c-.6473-.5074-1.5736.386-.92.92Z"/><path class="cls-4" d="M178.1448,103.3877l3.3732-3.2433c.566-.5442-.3029-1.4141-.8618-.8618l-3.3277,3.2888c-.53.5234.28,1.3313.8162.8162Z"/><path class="cls-4" d="M172.7466,85.3561l4.4105-.5113a.6212.6212,0,1,0-.1659-1.2258l-4.3973.6091c-.6339.0878-.4911,1.2026.1527,1.1279Z"/><path class="cls-4" d="M175.9,64.3195a8.0314,8.0314,0,0,1,4.0554,2.1873c.6145.608,1.5664-.343.9488-.9488a8.8891,8.8891,0,0,0-4.677-2.425c-.77-.14-1.1084,1.0214-.3271,1.1865Z"/><path class="cls-4" d="M193.2,56.9153l1.6183,2.7786a.6567.6567,0,0,0,1.1333-.6624l-1.6739-2.746a.6245.6245,0,0,0-1.0777.63Z"/><path class="cls-4" d="M213.1181,56.8754a1.51,1.51,0,0,1-.4643,1.9158c-.6166.42-.0589,1.4109.5915,1.0119a2.6087,2.6087,0,0,0,.89-3.5221.5893.5893,0,0,0-1.0169.5944Z"/><path class="cls-4" d="M223.0639,69.2678c.9259-.344,1.8561-.6781,2.7729-1.0455.726-.291.4091-1.4816-.3271-1.1865-.9656.387-1.9171.8086-2.8725,1.22-.5707.2457-.1617,1.2306.4267,1.012Z"/><path class="cls-4" d="M224.9667,85.884a9.5539,9.5539,0,0,1,4.226,1.67c.7168.5035,1.4187-.6887.6891-1.1788a10.6866,10.6866,0,0,0-4.7469-1.7337c-.7012-.0852-.8742,1.1424-.1682,1.243Z"/><path class="cls-4" d="M218.0646,100.0886c1.0919.93,2.18,1.8659,3.2819,2.7843.6618.5515,1.62-.3969.9529-.9529-1.1039-.92-2.2218-1.8227-3.3357-2.73-.6255-.51-1.5273.3637-.8991.8991Z"/><path class="cls-4" d="M38.4027,114.3023c7.4.8288,14.8083-.2635,21.0963-4.4747C66.076,105.4228,70.2709,98.47,72.0679,90.85a41.9461,41.9461,0,0,0-1.4336-24.9719c-2.5727-6.6447-6.5855-13.637-12.64-17.6784-10.4144-6.9512-24.6674-5.0486-35.33.2764A37.9541,37.9541,0,0,0,8.9192,59.6693C4.4247,65.7948,2.9366,73.6147,3.7456,81.0787,5.7069,99.1735,20.68,112.4993,38.4027,114.66c.964.1175.9542-1.3941,0-1.5117C23.5193,111.3135,10.16,100.9958,6.2915,86.2639,4.32,78.7558,4.6224,70.3108,8.3925,63.395A32.3711,32.3711,0,0,1,20.012,51.7283c9.4089-5.8106,22.0121-8.7038,32.64-4.6471,6.2919,2.4016,10.3964,7.3147,13.6476,13.047a40.4467,40.4467,0,0,1,5.4583,23.3053c-.6877,8.87-3.7744,17.6848-10.7652,23.5415-6.2473,5.234-14.5572,7.2779-22.59,6.53C37.8892,113.4576,37.9007,114.2461,38.4027,114.3023Z"/><path class="cls-4" d="M136.0923,112.6937c14.6864-5.9033,19.81-25.0419,18.2928-39.455-.8017-7.6189-3.4665-15.5249-9.1853-20.8636-5.2889-4.9374-12.3818-7.54-19.416-8.7372-13.2923-2.2629-27.7308,2.9951-34.939,14.77-3.6081,5.8941-4.6267,12.96-5.0713,19.7471-.4777,7.2917-.0144,14.7852,3.56,21.2949,1.9706,3.5888,4.0367,7.1855,7.3623,9.6972a36.2766,36.2766,0,0,0,12.0127,5.572,42.81,42.81,0,0,0,27.4944-1.6244c.951-.3859.5378-1.9492-.43-1.5594a41.5678,41.5678,0,0,1-22.6974,2.5085c-7.4507-1.3008-15.4134-4.4553-19.7348-10.9542a34.6143,34.6143,0,0,1-6.1271-18.887c-.2038-6.49.2975-13.5912,2.4453-19.7648,4.2876-12.3246,17.053-19.8854,29.7883-19.88a40.5485,40.5485,0,0,1,19.7013,5.22c6.697,3.865,10.6972,10.0253,12.6545,17.42,4.0672,15.3658-.4213,37.3932-16.0133,44.7778C135.3931,112.164,135.6777,112.86,136.0923,112.6937Z"/><path class="cls-4" d="M179.0205,54.6c11.4554-6.622,28.3466-8.6156,39.7309-.7552a58.958,58.958,0,0,1,8.6882,7.4488c3.0292,3.1646,4.3895,7.3406,6.2483,11.2146,3.3543,6.9905,2.8621,15.429-.01,22.5055-5.027,12.3878-17.1874,19.4444-30.0688,20.9648-6.1523.7261-13.6062.8247-19.4184-1.5715-6.49-2.6758-11.2376-8.8532-14.3267-14.9472a39.8574,39.8574,0,0,1-3.6356-23.1425c1.1662-9.0145,5.2315-16.4414,12.9972-21.3657.8855-.5615.0721-1.9706-.8251-1.4116a28.55,28.55,0,0,0-13.0637,18.4646,43.0667,43.0667,0,0,0,.7659,22.6505,38.527,38.527,0,0,0,12.2863,18.18c5.6178,4.3949,12.7582,5.2068,19.7,5.1428,13.5388-.1248,27.5156-5.5993,34.729-17.6042a32.76,32.76,0,0,0,4.3881-21.6292c-.6543-4.3041-2.7053-8.142-4.5447-12.0387-1.9762-4.1864-4.6737-6.9526-8.2065-9.8684-3.1418-2.5932-5.9167-5.0838-9.7443-6.662a35.0921,35.0921,0,0,0-11.737-2.4868,42.7551,42.7551,0,0,0-24.3676,6.2028A.41.41,0,0,0,179.0205,54.6Z"/></g></g></svg>