<svg xmlns="http://www.w3.org/2000/svg" viewBox="0 0 241 232"><defs><style>.cls-1{fill:#f7fafc;}.cls-2{fill:#ffefaf;}.cls-3{fill:#e93a1d;}.cls-4{fill:#303030;}</style></defs><title>DN_Service-Ya1-img-3</title><g id="back"><path class="cls-1" d="M127.0623,230.4608a21.6231,21.6231,0,0,1-9.9827-2.5259c-.9307-.48-1.9851-1.082-3.3186-1.8945-1.93-1.1763-4.5254-2.8433-7.9343-5.0962q-3.6464-2.41-8.59-5.7539a20.01,20.01,0,0,1-32.925,3.4575S50.6993,202.5087,37.09,186.3314c-6.8123-8.0977-13.6238-16.2051-18.7307-22.3066-2.5757-3.0771-4.7212-5.6489-6.2222-7.46-3.7188-4.4888-7.5642-9.13-6.854-17.3516a20,20,0,0,1,7.0754-13.604,21.05,21.05,0,0,1,8.38-4.1421c-8.252-11.55-10.9832-18.5947-10.6245-25.8237a21.5942,21.5942,0,0,1,3.9609-11.5557,20.0008,20.0008,0,0,1,2.4031-7.5352,20.6618,20.6618,0,0,1,1.8171-4.6353,21.1639,21.1639,0,0,1,6.6575-10.0142A19.9915,19.9915,0,0,1,41.59,57.5839c-2.655-4.1484-4.0974-8.1323-3.6646-13.4414A20.1083,20.1083,0,0,1,45.02,30.4076a20.443,20.443,0,0,1,21.6074-2.8857,19.9434,19.9434,0,0,1,7.11-14.1655c5.4321-4.5581,14.5645-7.21,24.2378-1.3921a19.9951,19.9951,0,0,1,4.5867-5.5337c5.5227-4.6328,15.5308-7.4873,25.626-.3647,5.6963-3.4932,14.2947-4.8882,22.855,1.1982.5457.3882,1.3364.9644,2.3362,1.7046q.6727.498,1.4841,1.103A20.0165,20.0165,0,0,1,183.8844,20.58c3.1294,3.7075,9.895,10.7007,14.2144,15.1646,17.9775,18.5806,24.0339,24.84,23.4724,35.65a20.5562,20.5562,0,0,1-3.9763,11.1079c6.3623,8.6582,8.998,14.4927,8.5911,21.4526a20.8271,20.8271,0,0,1-5.17,12.55,19.9978,19.9978,0,0,1-2.8567,27.6919,20.8865,20.8865,0,0,1-5.71,3.356l1.0774,1.2842a19.9982,19.9982,0,0,1-2.46,28.17,20.4236,20.4236,0,0,1-13.3713,4.7012,19.9984,19.9984,0,0,1-4.447,25.3491c-8.0754,6.7759-17.3577,6.2153-26.5173,2.5581a20.1109,20.1109,0,0,1-18.448,17.5879,20.0127,20.0127,0,0,1-5.3918.8882,20.0817,20.0817,0,0,1-8.1646.8462A20.1306,20.1306,0,0,1,127.0623,230.4608Z"/></g><g id="Layer_2" data-name="Layer 2"><path class="cls-2" d="M66.626,142.8912c5.5588-1.3983,16.0344-5.3532,16.5338-12.2237-1.4836.167-2.3687-.9464-3.652-1.43a36.07,36.07,0,0,0-3.833-.73c-2.7757-.71-3.7488-2.0714-1.6624-4.53,1.201-1.4154,10.4121-.1939,10.4029-.0563a7.4673,7.4673,0,0,0-2.1944-5.9467c-.534-.4928-.9955-.1891-1.5934-.9976-.3448-.4663-.1347-1.1627-.6472-1.6076-1.6959-1.4722-4.2317.03-6.1829-.5325-1.6149-.4657-2.5753-2.555-4.3256-2.6246-2.1043-.0837-3.2164,1.2042-5.3338.53-1.6337-.52-3.2268-2.0692-5.1249-1.3328-1.9645.7621-2.2079,2.2306-4.4263,2.606-1.7562.2972-4.7471.109-6.22,1.2489-1.424,1.1018-1.9387,4.2256-2.3221,5.8764-.2577,1.11-2.55,12.764-2.267,12.91,3.57,1.841,7.9213,2.5285,11.7555,3.727a52.9956,52.9956,0,0,1,5.9877,2.1987C62.3236,140.3378,66.029,143.0385,66.626,142.8912Z"/><path class="cls-2" d="M174.6819,142.8991c-2.8368.1005-6.3049-1.994-8.7245-3.2629-3.4724-1.821-7.4994-4.6855-7.8111-8.9688,1.4836.167,2.3687-.9464,3.652-1.43a36.07,36.07,0,0,1,3.833-.73c2.7757-.71,3.7488-2.0714,1.6624-4.53-1.201-1.4154-10.4121-.1939-10.4029-.0563a7.4673,7.4673,0,0,1,2.1944-5.9467c.534-.4928.9955-.1891,1.5934-.9976.3448-.4663.1347-1.1627.6472-1.6076,1.6959-1.4722,4.2317.03,6.1829-.5325,1.6149-.4657,2.5753-2.555,4.3256-2.6246,2.1043-.0837,3.2164,1.2042,5.3338.53,1.6337-.52,3.2268-2.0692,5.1249-1.3328,1.9645.7621,2.2079,2.2306,4.4263,2.606,1.7048.2885,4.7565.0959,6.1321,1.3093,1.216,1.0726,1.4619,3.8989,1.7137,5.434.1729,1.0543,2.7261,13.45,3.04,13.3248-6.568,2.62-14.8312,3.1879-20.3681,7.8793A4.0535,4.0535,0,0,1,174.6819,142.8991Z"/><path class="cls-3" d="M66.3112,96.483c-1.9159-1.0166-4.8772-2.6262-3.1616-5.1794,1.11-1.6487,3.5442-1.9663,5.347-2.1052,1.3035-.1,1.3292-.3568,2.6594.0567.8016.2491,1.5491,1.62,2.5124,1.41,1.6288-.3553,1.7079-7.1954,1.83-8.541A38.8116,38.8116,0,0,1,83.31,61.3313c7.4372-9.8132,15.81-18.22,28.4737-19.2842,3.6208-.3041,2.759-.1925,3.1521-3.2061.8118-6.2228,8.5473,1.5452,5.17,2.6569.0682-.0224,8.9641,1.1285,9.8433,1.4347,2.5189.8773,4.9138,2.0716,7.415,2.994a37.4057,37.4057,0,0,1,18.8544,14.2779c3.1869,4.4276,6.3065,9.1771,7.9735,14.4192,1.203,3.7855-.399,9.2921,1.9227,12.6649,1.7482,2.54,9.2436,2.7963,6.5009,7.058-1.3433,2.0873-6.2048,2.5259-8.4028,3.1013-13.1032,3.43-26.6116,4.9016-40.1019,6.1629a145.7689,145.7689,0,0,1-21.5273.49c-5.1538-.2806-10.372-1.1843-15.5185-1.75C80.11,101.5866,72.4847,99.7579,66.3112,96.483Z"/><path class="cls-4" d="M74.9314,123.38c8.1616,1.5814,16.6677,1.7924,24.9557,2.1115,8.5264.3283,17.0615.4821,25.5941.5128,6.6874.0241,13.3774.0028,20.055-.3982,7.08-.4251,14.3967-.7626,21.2216-2.8441a.736.736,0,0,0-.391-1.4182c-6.98,1.9835-14.3374,2.38-21.55,2.7871-6.5984.372-13.2074.3684-19.814.3487q-12.3215-.0366-24.6357-.4324c-8.4617-.2657-16.87-1.179-25.3185-1.53-.4874-.02-.6081.768-.1168.8632Z"/><path class="cls-4" d="M167.7949,127.6783c-7.9157.8591-15.7587,2.1777-23.7044,2.8131q-11.3636.9086-22.7771.748c-15.9388-.2109-31.78-.7236-47.5882-2.8277-.7842-.1044-.9791,1.2775-.1885,1.3926,15.8259,2.305,31.8018,2.6757,47.7767,2.882,15.3925.1988,31.5852-.455,46.6108-4.0528.5206-.1247.4245-1.0154-.1293-.9553Z"/><path class="cls-4" d="M69.9474,142.1143c3.4529-2.01,7.1858-3.3991,10.6579-5.3147,1.9663-1.0848,2.7713-3.67,3.1669-5.756.1093-.5761-.744-1.0493-1.0228-.4312a16.9808,16.9808,0,0,0-.9263,2.2633c-.5949,2.0242-1.81,2.8077-3.6566,3.5911a47.4342,47.4342,0,0,0-8.71,4.8077c-.5055.3536-.0588,1.16.4909.84Z"/><path class="cls-4" d="M74.9682,131.3652a10.7665,10.7665,0,0,1,1.1475-10.8523c.4-.5789-.5343-1.3145-.9847-.76a11.1106,11.1106,0,0,0-1.1443,12.1858c.36.6588,1.2611.0794.9815-.5737Z"/><path class="cls-4" d="M69.702,116.1632c2.6732-.172,5.5165-1.1979,8.1708-1.0887,1.5377.0632,1.523,1.7657,1.7138,3.1069a28.6938,28.6938,0,0,1,.163,4.2814c-.0036.5842.9624.7552,1.0531.1425a16.4481,16.4481,0,0,0-.0172-4.6691c-.15-1.0872-.2234-3.0066-1.1311-3.7989-.8219-.7174-2.1541-.2847-3.0934-.1432-2.33.351-4.7029.6073-6.9977,1.1448a.5238.5238,0,0,0,.1386,1.0243Z"/><path class="cls-4" d="M84.5407,123.3939a7.0079,7.0079,0,0,0-.2461-2.3972,30.6643,30.6643,0,0,1-.3081-3.1347.6535.6535,0,0,0-.9691-.5561,5.7278,5.7278,0,0,0-2.6442,2.3669.6186.6186,0,0,0,1.0675.624,5.1194,5.1194,0,0,1,2.2268-1.8786l-.9691-.5561a25.401,25.401,0,0,0,.2848,3.0931,5.459,5.459,0,0,0,.8084,2.6367.45.45,0,0,0,.7492-.1978Z"/><path class="cls-4" d="M73.7548,114.1332c-.7506-4.2563-6.0563-2.4936-8.7021-1.5616-.75.2642-8.0364,2.0364-5.1483,3.8464.7252.4544,1.3451-.6557.6624-1.1333.8.56,4.89-1.4977,5.6678-1.7779,2.3288-.839,5.2555-1.8492,6.7651.9447.2359.4366.8321.1189.755-.3183Z"/><path class="cls-4" d="M65.5955,111.8211c-1.3681.2581-2.753-.72-4.1218-.8177a7.2359,7.2359,0,0,0-3.1922.5078,6.4677,6.4677,0,0,0-3.9147,3.9092.58.58,0,0,0,1.0549.4447c1.328-1.9884,2.9281-3.5449,5.4935-3.5839,1.7351-.0264,3.256,1.2271,4.9513.523a.51.51,0,0,0-.271-.9831Z"/><path class="cls-4" d="M55.5844,113.4788c-1.7636-.2378-4.6529-.8175-6.302.0145-1.4483.7307-2.2128,2.878-2.7267,4.2939-1.7473,4.8149-1.5287,10.0966-3.1636,14.9716-.2058.6138.7871,1.05,1.06.447,1.5058-3.3265,1.6725-6.9978,2.2387-10.5567a21.17,21.17,0,0,1,1.4925-5.51,4.05,4.05,0,0,1,3.4893-2.6365c1.235-.174,2.5382.0162,3.791-.1322.454-.0538.6762-.8171.1207-.892Z"/><path class="cls-4" d="M40.7319,135.4717c7.29-1.1118,14.5934,2.1868,20.6852,5.9109,2.7509,1.6817,5.4009,3.7956,6.8835,6.73,1.8207,3.6035,1.5309,7.6978.99,11.5659-.1.7138.9591,1.0507,1.1131.3069,1.5957-7.709-.4372-14.3478-7.0311-18.833-6.5407-4.449-14.9139-7.984-22.9238-6.7089-.6775.1078-.3875,1.1307.2835,1.0283Z"/><path class="cls-4" d="M38.3211,136.05A436.3046,436.3046,0,0,1,1.8333,166.1573c-.5973.4422-.0242,1.4561.5915,1.0119a342.8062,342.8062,0,0,0,36.4888-30.5269c.3907-.3748-.1973-.9577-.5925-.5925Z"/><path class="cls-4" d="M68.8791,159.4189a170.21,170.21,0,0,1-17.8279,18.3848c-.5675.5057.25,1.2756.82.82a101.59,101.59,0,0,0,17.8726-18.5377c.3715-.497-.4657-1.1481-.865-.6675Z"/><path class="cls-4" d="M49.73,150.22a29.1256,29.1256,0,0,1,11.2605,13.42c.2678.6088,1.3093.1743,1.0817-.456A27.7514,27.7514,0,0,0,50.351,149.1578c-.6766-.4164-1.292.644-.621,1.0625Z"/><path class="cls-4" d="M171.7278,141.2744a47.7513,47.7513,0,0,0-8.2936-4.6289c-1.719-.7435-3.1482-1.0939-3.8933-3.1239-.4709-1.283-.6142-2.6856-1.05-3.9836a.56.56,0,0,0-1.0792.2975c.3548,2.475.77,5.6431,3.1664,6.9649,3.4729,1.9156,7.2116,3.2893,10.6584,5.3138.5473.3214.9988-.4874.4909-.84Z"/><path class="cls-4" d="M167.1977,131.9389a11.11,11.11,0,0,0-1.1443-12.1858c-.4455-.5488-1.389.1746-.9847.76a10.7663,10.7663,0,0,1,1.1475,10.8523c-.2793.6525.6206,1.2334.9815.5737Z"/><path class="cls-4" d="M171.621,115.1389c-2.1607-.5061-4.3911-.7521-6.5847-1.0826-1.01-.1521-2.6071-.7037-3.5064.081-.8381.7313-.9246,2.4367-1.0766,3.4382a16.888,16.888,0,0,0-.0716,5.03c.09.6065,1.0567.448,1.0531-.1425a33.234,33.234,0,0,1,.0715-3.64c.1448-1.3993.1575-3.6892,1.8053-3.7478,2.662-.0947,5.4925.9164,8.1708,1.0887a.5238.5238,0,0,0,.1386-1.0243Z"/><path class="cls-4" d="M157.3928,123.5917a5.459,5.459,0,0,0,.8084-2.6367,25.4018,25.4018,0,0,0,.2848-3.0931l-.9691.5561a5.1194,5.1194,0,0,1,2.2268,1.8786.6186.6186,0,0,0,1.0675-.624,5.7289,5.7289,0,0,0-2.6442-2.3669.6535.6535,0,0,0-.9691.5561,30.6643,30.6643,0,0,1-.3081,3.1347,7.0079,7.0079,0,0,0-.2461,2.3972.45.45,0,0,0,.7492.1978Z"/><path class="cls-4" d="M168.1845,114.4515c1.4921-2.7614,4.4368-1.7835,6.7651-.9447.87.3136,4.8859,2.3251,5.6678,1.7779-.6819.4771-.0635,1.5882.6624,1.1333,2.91-1.8235-4.4448-3.5986-5.1483-3.8464-2.6508-.9338-7.9511-2.6971-8.7021,1.5616-.0764.4331.5172.7584.755.3183Z"/><path class="cls-4" d="M175.3178,112.8042c1.6917.7026,3.216-.5494,4.9513-.523,2.5665.0391,4.1622,1.5905,5.4935,3.5839a.58.58,0,0,0,1.0549-.4447,6.47,6.47,0,0,0-3.9147-3.9092,7.2453,7.2453,0,0,0-2.9134-.53c-1.4764.05-2.9455,1.1144-4.4006.84a.51.51,0,0,0-.271.9831Z"/><path class="cls-4" d="M185.7206,114.3708c2.6706.3164,5.3592-.6081,6.9975,2.1463a17.5041,17.5041,0,0,1,1.7752,6.132c.5661,3.5581.733,7.2305,2.2387,10.5567.27.5968,1.2684.1736,1.06-.447-1.6349-4.8748-1.4164-10.1569-3.1636-14.9716-.5128-1.4132-1.283-3.5657-2.7267-4.2939-1.635-.8247-4.5577-.25-6.302-.0145-.5509.0743-.338.8376.1207.892Z"/><path class="cls-4" d="M200.7359,134.4434c-8.0083-1.2748-16.3853,2.2614-22.9238,6.7089-6.59,4.4827-8.6262,11.1269-7.0311,18.833.1537.7426,1.2131.408,1.1131-.3069-.5109-3.6515-.795-7.42.7-10.893,1.4139-3.2837,4.19-5.5725,7.1728-7.4029,6.08-3.7313,13.4049-7.0213,20.6852-5.9109.67.1022.9621-.92.2835-1.0283Z"/><path class="cls-4" d="M202.2707,136.6422A342.8058,342.8058,0,0,0,238.76,167.1691c.615.4438,1.1894-.5692.5915-1.0119A436.3042,436.3042,0,0,1,202.8632,136.05c-.395-.3651-.9834.2175-.5925.5925Z"/><path class="cls-4" d="M171.44,160.0864a101.59,101.59,0,0,0,17.8726,18.5377c.57.455,1.3882-.3143.82-.82a170.2107,170.2107,0,0,1-17.8279-18.3848c-.395-.4754-1.2406.165-.865.6675Z"/><path class="cls-4" d="M207.2423,141.5958c-6.963-3.35-15.8132-1.5037-21.3795,3.66-.5911.5483.2733,1.3783.8742.8742,5.7968-4.8628,13.015-5.79,20.1237-3.6291.5265.16.8944-.6582.3815-.905Z"/><path class="cls-4" d="M178.2665,157.9063a11.4825,11.4825,0,0,0-2.7556,7.6881.6009.6009,0,0,0,1.2012,0,11.4926,11.4926,0,0,1,2.3964-7.0384c.36-.4868-.446-1.11-.842-.65Z"/><path class="cls-4" d="M45.36,119.3017c-2.9636-1.0069-6.6313-1.5315-9.6825-.6015-3.2509.9909-5.3345,3.84-6.7379,6.7866a20.9189,20.9189,0,0,0-2.0317,9.8493c.0834,1.9655.3315,3.9043.3826,5.8767a12.4,12.4,0,0,0,.9153,4.8133c.2581.5966,1.2488.1716,1.05-.4425-.9376-2.8889-.7211-6.0215-1.0168-9.022a19.9579,19.9579,0,0,1,1.3056-9.4013c1.2545-3.1373,3.33-6.525,6.8219-7.4,2.9771-.7457,5.9088.0947,8.8739.4271.53.0594.5748-.7317.12-.8862Z"/><path class="cls-4" d="M44.6423,124.9821c-4.1331-.6741-8.1545-1.78-11.02,2.0488-3.2085,4.2882-2.6371,9.711-2.0626,14.7038.0818.7108,1.1672.7523,1.1426,0-.1418-4.3357-.9686-8.6848,1.16-12.7175a6.28,6.28,0,0,1,4.1023-3.5266c2.0445-.4074,4.4938.2811,6.5421.487.5629.0566.699-.9035.1347-.9956Z"/><path class="cls-4" d="M194.2338,119.0161c3.6606-.8978,7.2244-2.2257,10.8136-3.3695,1.6414-.523,2.7877-1.218,4.4573.7521a6.6692,6.6692,0,0,1,.9019,2.218,19.925,19.925,0,0,1,.8632,5.0168c.3388,6.3742-1.4953,12.4893-2.6088,18.6935-.1331.7414.9646,1.0709,1.147.3162,1.7567-7.2721,3.8954-15.4629,2.1991-22.9334-.568-2.5016-1.5609-6.0757-4.6848-5.9718-2.0224.0673-4.2922,1.2577-6.1942,1.89-2.39.7947-4.81,1.5414-7.1373,2.5066a.4575.4575,0,0,0,.243.8814Z"/><path class="cls-4" d="M195.1643,124.6334c2.6753-1.3207,8.1539-5.383,10.4324-1.5867,2.5112,4.184-.2441,10.4978-1.505,14.6844-.21.6974.8247.9542,1.0735.296,1.6433-4.3479,4.762-12.5422.8126-16.5937-3.0826-3.1623-8.5569.4914-11.31,2.35a.4926.4926,0,0,0,.4968.85Z"/><path class="cls-4" d="M10.0108,160.6431c.9657-2.9622,1.0085-6.3089,1.185-9.3886.2747-4.7938.3518-9.5984.3868-14.3992q.0456-6.2725-.034-12.5451a26.1288,26.1288,0,0,0-.05-3.4412,2.34,2.34,0,0,1-.012-.6339c-.0214.1321-.3407.6179-.0174.2393,4.0585-4.7543,8.6156-9.1641,12.9132-13.7,5.8551-6.18,11.6961-12.3829,17.7093-18.41,2.512-2.5179,4.4281-4.323,8.12-5.0086,6.2616-1.1629,12.6161-.2043,18.9132-.674a.6274.6274,0,0,0,0-1.2539c-5.5651.0439-11.168-.3515-16.7144.2577-3.3937.3727-6.4785,1.1089-8.9915,3.4867-5.6927,5.3863-11.0062,11.21-16.4009,16.89q-7.8963,8.3134-15.734,16.6824a2.7429,2.7429,0,0,0-1.0963,2.4645q.0967,5.0857.1146,10.1727c.022,5.5347-.0184,11.07-.2006,16.6025-.1325,4.0244-.0216,8.463-1.1418,12.3694a.5454.5454,0,0,0,1.0509.29Z"/><path class="cls-4" d="M58.906,182.2025A12.3427,12.3427,0,0,1,70.41,179.2487c3.44.7623,6.6827,2.2238,10.1291,2.9679a16.2492,16.2492,0,0,0,9.4673-.4523c4.153-1.6358,7.4056-4.7979,11.8893-5.69,5.5982-1.1143,11.0925.5679,16.1852,2.7825,3.1562,1.3725,5.8172,1.6644,9.0268.3028,3.443-1.4605,6.5679-4.3422,10.4153-4.6723,4.0176-.3447,7.19,2.8,10.5958,4.39a8.9639,8.9639,0,0,0,4.4246.9883c2.2774-.16,4.0652-1.683,6.16-2.41,5.475-1.8993,11.36.3776,16.5032,2.2827.78.2889,1.0987-.94.3411-1.2374-4.2244-1.6557-8.7877-3.2856-13.3977-3.0235a14.1043,14.1043,0,0,0-5.1167,1.245c-2.6215,1.2074-4.6307,2.4415-7.5541,1.3313-3.427-1.3014-6.17-4.1431-9.8765-4.7679-3.2854-.5538-6.2665,1.0108-9.0322,2.5791a28.0344,28.0344,0,0,1-5.1609,2.56c-3.0667.9809-5.5338-.2346-8.3445-1.4154a28.0988,28.0988,0,0,0-13.5466-2.4661c-4.244.4228-7.4329,2.4512-11.0144,4.5587A15.96,15.96,0,0,1,79.6,180.74c-3.7117-.9586-7.2831-2.6028-11.1309-2.9752A12.8813,12.8813,0,0,0,58.1933,181.49c-.4808.44.23,1.14.7126.7126Z"/><path class="cls-4" d="M165.5851,83.3c4.5443.029,9.0878.2235,13.6269.4319q2.7231.125,5.4453.2683c.4986.0262,1.0269.1061,1.5245.0815.3755-.0186.7741.2062.1675-.12a19.5648,19.5648,0,0,1,2.7755,2.3121q3.1745,2.6323,6.3705,5.2383c5.8634,4.7819,11.77,9.5139,17.8009,14.084,4.5982,3.4847,9.2764,7.2634,14.4529,9.87,1.7811.8968,3.26,1.676,3.3878,4.0012.1012,1.84-.074,3.7469-.1152,5.5871l-.2589,11.5778c-.172,7.69-.0363,15.3332.02,23.0211a.6449.6449,0,0,0,1.2891,0c-.0091-7.3625-.1184-14.6922.0512-22.0563l.2222-9.6481.1222-5.3065c.0356-1.5447.3284-3.35-.1387-4.861-.8619-2.7878-4.4145-3.6829-6.6993-5.1031-2.709-1.684-5.3064-3.5507-7.8793-5.4335-6.56-4.8007-12.9481-9.8418-19.2921-14.9232q-3.77-3.02-7.5114-6.0759a28.386,28.386,0,0,0-3.6564-3.0029c-1.5557-.8645-4.27-.4608-6.0057-.5319-5.2294-.2141-10.4652-.4161-15.7-.4067a.4983.4983,0,0,0,0,.9961Z"/><path class="cls-4" d="M69.6275,88.34C70.5522,69.0665,82.692,51.046,101.148,44.5413c18.8817-6.6548,40.5178-.8681,53.0827,14.7921a50.4868,50.4868,0,0,1,10.788,29.4541.7006.7006,0,0,0,1.4,0c.2915-19.5257-13.1842-38.326-31.2367-45.2206-19.5631-7.4715-42.4435-1.6385-55.6289,14.6827A48.9113,48.9113,0,0,0,68.479,88.34a.5746.5746,0,0,0,1.1484,0Z"/><path class="cls-4" d="M115.4669,41.4732l-.0793.24.48-.3652c-1.4171.09-2.8736-2.04-2.8072-3.3243.11-2.137,2.4385-2.0365,3.8889-1.3618a4.8973,4.8973,0,0,1,2.732,2.7851,2.4011,2.4011,0,0,1-2.0659,3.0847c-.7671.1337-.4665,1.1535.1674,1.2373,2.4433.323,3.8792-2.6429,3.287-4.7048a6.6132,6.6132,0,0,0-6.3281-4.3167,3.472,3.472,0,0,0-2.7157,5.1453c.4811,1.0133,4.1121,4.4127,4.3618,1.7052.0506-.549-.7628-.6027-.9208-.1246Z"/><path class="cls-4" d="M66.8,91.1733c3.3031,2.6012,7.1672,3.999,11.1556,5.1982A139.0124,139.0124,0,0,0,91.865,99.7809a149.07,149.07,0,0,0,26.881,2.6436c18.305.1353,37.5307-2.8279,54.4694-9.9629.6995-.2946.4355-1.4391-.324-1.1752-17.1855,5.97-34.5253,9.7284-52.802,9.7664a147.1889,147.1889,0,0,1-26.9825-2.4193c-8.57-1.58-18.3482-3.3161-25.6641-8.293-.4911-.3341-1.118.4584-.6426.8328Z"/><path class="cls-4" d="M63.2844,90.7046c-5.4338,5.2848,11.7305,9.1162,14.1924,9.78a128.6286,128.6286,0,0,0,27.9442,4.149c19.0071.8186,38.3006-1.695,56.8322-5.8295a54.6984,54.6984,0,0,0,8.0216-2.3333c1.3629-.5324,3.0114-1.09,3.8557-2.3769,1.154-1.7588-.5772-4.5443-2.599-3.203-.6207.4118-.0516,1.41.5885,1.0068q1.15,2.1213-.454,2.6984-1.0493.4984-2.1382.9018c-1.156.44-2.3388.8124-3.5281,1.1514-2.3867.68-4.818,1.19-7.249,1.6827q-6.6511,1.347-13.3545,2.419a221.2806,221.2806,0,0,1-27.8148,2.7494,147.5845,147.5845,0,0,1-27.5789-1.57,117.2181,117.2181,0,0,1-13.0715-2.8258q-3.4488-.9585-6.8284-2.147c-1.8456-.65-8.5527-2.4423-6.1181-5.5526.3822-.4883-.23-1.1577-.7-.7Z"/><path class="cls-4" d="M112.6142,173.5551c-1.6319-5.9193-3.4151-11.7956-5.1241-17.6929-.9776-3.3737-2.0438-7.433-6.39-7.0866-3.7242.2968-5.9092,3.5372-6.9271,6.811-1.7875,5.7489-2.6411,11.9379-3.84,17.8332-.1561.7678,1.014,1.0987,1.1809.3255.9681-4.4862,1.9-8.98,2.8415-13.4717.8061-3.8457,1.6685-9.269,6.2605-10.2435,5.3283-1.1308,6.1349,7.1845,7.1549,10.7825,1.2339,4.3523,2.4768,8.7039,3.7925,13.0322a.5454.5454,0,0,0,1.0509-.29Z"/><path class="cls-4" d="M131.7035,171.3509c.761-3.7082,1.4233-7.4336,2.1387-11.1505.6287-3.2667,1.425-8.1138,4.4357-10.1088,4.6925-3.11,5.79,5.7108,6.3961,8.6076a90.56,90.56,0,0,1,1.5285,12.55.557.557,0,0,0,1.1133,0,64.7147,64.7147,0,0,0-2.1395-15.64c-.6464-2.5416-1.5-7.6236-5.06-7.55-3.3946.07-5.42,4.5147-6.2944,7.2274-1.6277,5.0488-2.2159,10.5831-3.0614,15.8042-.0987.61.8153.8852.9436.26Z"/><path class="cls-4" d="M163.96,171.7248a7.231,7.231,0,0,1,2.0373-5.6248.5833.5833,0,0,0-.8245-.8245,8.0093,8.0093,0,0,0-2.4433,6.4493c.0581.7847,1.2879.7917,1.23,0Z"/></g></svg>