<svg xmlns="http://www.w3.org/2000/svg" viewBox="0 0 360.2508 329.9218"><defs><style>.cls-1{fill:#f7fafc;}.cls-2{fill:#e93a1d;}.cls-3{fill:#ffefaf;}.cls-4{fill:#303030;}</style></defs><title>DN_Service-Ya2-img-2</title><g id="Layer_2" data-name="Layer 2"><g id="back"><path class="cls-1" d="M180.8325,329.9218a20.248,20.248,0,0,1-6.2075-.991,20.963,20.963,0,0,1-16.3918-2.8215c-1.0774-.657-2.324-1.4956-3.9233-2.6394-2.4351-1.7415-5.7312-4.2222-10.0771-7.584q-5.3126-4.11-12.76-10.0154a20.0135,20.0135,0,0,1-32.3569,2.4644s-19.1287-22.679-38.2524-45.4111c-9.57-11.3752-19.1382-22.7639-26.3123-31.335-3.6089-4.3123-6.6155-7.9155-8.719-10.4543-4.9392-5.9619-8.5081-10.27-7.7991-18.509a19.807,19.807,0,0,1,12.9514-16.9893c-16.6521-21.7627-19.7859-30.8918-19.3718-39.24a22.5806,22.5806,0,0,1,2.8147-9.9515,20.0942,20.0942,0,0,1,1.2832-8.6519,20.9553,20.9553,0,0,1,.8738-4.2913,21.901,21.901,0,0,1,7.6714-14.22,19.9623,19.9623,0,0,1,15.6785-4.4786c-5.5056-7.2091-8.17-12.01-7.594-19.0809A20.156,20.156,0,0,1,39.4426,71.97a20.5717,20.5717,0,0,1,13.6257-4.7383,19.9985,19.9985,0,0,1,4.9856-24.3572A21.042,21.042,0,0,1,69.9008,38.187q.0139-.2137.0327-.4277a19.9992,19.9992,0,0,1,7.0679-13.5767,20.5321,20.5321,0,0,1,11.1311-4.6692,19.9844,19.9844,0,0,1,3.696-4.0941c6.3506-5.3282,16.9336-7.2819,26.2625.364.5828.4777,1.4282,1.2017,2.5127,2.1628q.186.165.3831.34a22.2361,22.2361,0,0,1,7.6462-13.317A19.9984,19.9984,0,0,1,155.93,6.456c.103.1075,2.7678,2.8883,7.4,7.691a20.0045,20.0045,0,0,1,32.2366-9.2506l22.1038,19.1881a20.013,20.013,0,0,1,32.3943-2.4329l95.42,113.717a20.0094,20.0094,0,0,1-6.5381,30.8263c18.4978,23.8984,21.7463,32.74,21.2593,41.17A21.33,21.33,0,0,1,343.51,227.1972a25.8351,25.8351,0,0,1,1.6135,10.4849,22.04,22.04,0,0,1-7.8516,15.9338,19.9858,19.9858,0,0,1-16.6294,4.3206,24.7843,24.7843,0,0,1,.3113,5.7407,21.771,21.771,0,0,1-7.7285,15.593,19.9086,19.9086,0,0,1-9.9316,4.4663,19.9976,19.9976,0,0,1-4.2881,5.0212,20.3981,20.3981,0,0,1-20.52,3.4812,19.9924,19.9924,0,0,1-29.217,8.3254,19.9972,19.9972,0,0,1-7.02,13.1c-3.6028,3.0232-11.4109,7.5854-23.2266,4.1658a45.1188,45.1188,0,0,1-7.5178-3.0066,20,20,0,0,1-6.4146,9.9683,20.27,20.27,0,0,1-14.7017,4.6946,20.0966,20.0966,0,0,1-5.8474.08A19.6074,19.6074,0,0,1,180.8325,329.9218Z"/></g><g id="Layer_2-2" data-name="Layer 2"><path class="cls-2" d="M260.9675,130.6251c-2.2441-8.6777-8.3018-16.7251-15.2295-22.3521a27.8241,27.8241,0,0,0-11.8848-5.501c-14.2964-2.5752-25.2554,6.4937-34.6777,15.9692-4.397,4.4219-6.9512,9.3315-11.5576,13.3115-4.54,3.9219-10.5894,7.4746-13.4531,12.9761a10.1428,10.1428,0,0,0-.6113,1.4341c-1.5088,4.4531.1411,9.5024,1.2412,13.8916,1.3872,5.5332,1.0713,11.2813,2.2656,16.7422.3584,1.6372,4.7139,10.9316,2.7715,11.8955,3.4526-1.7134,7.3027-4.0352,10.8516-5.374,3.83-1.4453,7.4229,1.2012,11.2271-.2363,5.8184-2.1987,8.6914-6.0913,15.1973-7.043a122.2394,122.2394,0,0,0,17.9644-4.0444c11.0513-3.3843,23.0366-9.3511,26.6484-21.25C263.82,144.13,262.7639,137.57,260.9675,130.6251Zm-8.0952-8.4085a50.9455,50.9455,0,0,1,4.4095,8.485c2.6,6.5448,3.7984,14.0153.5367,20.5353-4.859,9.713-17.6807,11.2749-26.39,5.803-9.7209-6.1076-18.3656-17.1087-20.7334-28.4565-1.165-5.5833-.6062-12.1928,3.21-16.7359,4.796-5.7093,11.5115-5.9839,18.28-4.3759a24.7817,24.7817,0,0,1,8.0245,3.5436C245.7371,114.3538,249.2548,116.5627,252.8724,122.2166Z"/><path class="cls-3" d="M299.55,255.0348c2.7881-16.0347-2.63-35.6714-7.293-50.2148-.8423,2.1-1.21,4.707-1.8857,6.9727-5.5386-5.4731-3.522-19.77-10.0054-26.0239-1.7129,2.3408-1.9326,5.9707-2.6445,8.9067a13.2646,13.2646,0,0,1-2.2959-.0493c-1.7441-4.3477-9.6187-31.5215-14.0449-18.0088-2.269,6.9263,3.7266,18.084,4.4136,25.1548,1.6973,17.47,1.2632,35.6284,2.5283,53.2627h-87.67c.3745-16.3086.3364-32.6279-.2012-48.9321-.4907-14.8916-4.18-29.4307-6.6553-44.0825-1.0508-6.22-.1948-12.0767-1.5493-18.1577-3.0825-13.8374-10.2822-27.1514-18.7329-38.4053-8.8638-11.8013-10.52-.1724-8.189,7.7871,2.1133,7.2139,5.6436,13.9531,7.748,21.1489,4.6865,16.0254,8.9585,37.6313,7.0068,54.3213-.4541,3.8818-1.5391,9.83-6.6787,8.9053-3.4639-.6235-8.061-9.1074-11.0552-11.05-4.9268,4.5825,1.46,13.2139-.1455,18.9185-.76,2.6992-3.7549,6.2749-6.79,6.3467-6.2793.1489-5.083-6.9414-8.9-10.2666-7.9741,4.1157,1.5728,18.3652-10.0659,18.4961-4.7217.0532-6.9395-5.9355-11.4937-4.01-5.0942,2.1543-1.7124,9.7061-5.3911,12.875-12.12,10.44-9.09-14.24-13.939-15.2734-5.7861-1.2329-4.0913,12.3271-13.4683,11.4111.2676-4.5034-1.7837-12.8184-5.98-6.1509-3.2231,5.12.4058,13.3389-2.3877,17.6538-1.2212,1.8857-2.4019,2.5581-3.55,2.5947-2.7549.0889-5.3208-3.48-7.8047-2.707-1.9053.5933-2.9067,4.895-3.2158,6.39a38.6525,38.6525,0,0,0-.71,12.187h-10.62v42.5H311.7332v-42.5Z"/><path class="cls-4" d="M262.0156,140.8474c24.5016,31.5145,36.0963,71.98,36.9545,111.5363a.75.75,0,0,0,1.5,0c-.6871-31.6709-8.1843-63.5973-23.4872-91.457a159.674,159.674,0,0,0-13.9066-21.14c-.5918-.7612-1.6464.3072-1.0607,1.0607Z"/><path class="cls-4" d="M50.1182,256.5917c-4.4749-37.23,9.1942-72.9,28.6256-104.0308a91.0138,91.0138,0,0,1,8.8477-11.53c2.8074-3.2289,5.4105-6.6279,8.2894-9.7948a101.1123,101.1123,0,0,1,18.5337-16.0206A105.4952,105.4952,0,0,1,158.3734,98.69a122.9443,122.9443,0,0,1,27.2423-.7026,120.7807,120.7807,0,0,1,15.3784,2.4364c5.3991,1.1517,10.7958,2.25,15.94,4.3049.8964.3581,1.2857-1.0921.3988-1.4464a87.9168,87.9168,0,0,0-14.5811-4.0176c-4.4216-.9347-8.7548-1.8951-13.2512-2.3991a126.7414,126.7414,0,0,0-25.3349-.3384,108.9829,108.9829,0,0,0-45.1392,14.0394,101.93,101.93,0,0,0-19.3479,14.6112c-6.3232,6.08-11.8457,13.0685-17.4678,19.79a89.2326,89.2326,0,0,0-7.7876,11.7947q-3.7421,6.2765-7.1281,12.7568a198.8282,198.8282,0,0,0-11.21,25.6063c-6.9447,19.71-9.9688,40.6509-7.4668,61.4664.1138.9465,1.6151.958,1.5,0Z"/><path class="cls-4" d="M254.0383,161.87c11.0564,28.9235,12.9236,60.0428,14.7278,90.6461.0566.9594,1.5569.9659,1.5,0-1.8115-30.7268-3.68-62.0035-14.7814-91.0449-.3412-.8927-1.792-.5053-1.4464.3988Z"/><path class="cls-4" d="M206.0274,102.3783a71.318,71.318,0,0,1,8.2658,4.3809c.824.5081,1.5782-.7889.7571-1.2952a71.318,71.318,0,0,0-8.2658-4.3809c-.8736-.3917-1.6373.9005-.7571,1.2952Z"/><path class="cls-4" d="M210.1765,108.9388a55.8642,55.8642,0,0,0-49.9085-2.3062c-.8775.399-.116,1.6921.7571,1.2952,15.4269-7.0139,33.6487-5.8794,48.3944,2.3062.8447.4689,1.6021-.8261.7571-1.2952Z"/><path class="cls-4" d="M258.3462,252.2758c3.6747-29.3845-.03-59.3064-9.5007-87.2968-.3077-.9095-1.757-.5192-1.4464.3988,9.4335,27.88,13.1072,57.63,9.4472,86.8981-.1195.9554,1.3816.9468,1.5,0Z"/><path class="cls-4" d="M311.1455,292a20.6089,20.6089,0,0,0,.6412-5.7992c.1055-2.9906.2251-5.9806.31-8.9719.15-5.3159.32-10.6328.4179-15.95.0554-2.9959-.0015-6.86-3.1313-8.3375-2.8612-1.3509-6.402-.1687-9.4184-.2187-5.1972-.0862-10.3948-.3953-15.5958-.4742-18.8037-.2854-37.6147-.2028-56.42-.1083q-36.7316.1846-73.46.71-34.9033.4631-69.8029,1.1763c-14.8225.3166-29.6651.5534-44.4739,1.3009q-1.3748.0694-2.7488.155c-1.0709.0685-1.0786,1.7448,0,1.6758,12.9718-.83,26.0063-.9748,38.9976-1.2738q32.7933-.7548,65.5932-1.1865,36.5977-.5276,73.1992-.7961c20.0185-.1488,40.04-.26,60.0588-.1092,6.3111.0476,12.6247.1073,18.9331.311a73.0228,73.0228,0,0,0,8.0442.15,20.9094,20.9094,0,0,1,5.2184-.1672c3.1552.5611,3.4216,3.69,3.4215,6.3821,0,5.2524-.2119,10.512-.3011,15.764-.0452,2.6583-.0721,5.3164-.0953,7.975-.0214,2.4561.2327,5.1177-.4844,7.4907-.2127.704.8692.9938,1.0961.3022Z"/><path class="cls-4" d="M37.3363,254.8836c-1.4016,6.7475-1.2146,13.9144-1.0791,20.774.1417,7.1769.652,14.3576,1.4059,21.495.1121,1.0615,1.7891,1.073,1.6758,0q-1.11-10.5056-1.3724-21.0674c-.182-7.045.2665-14.0185.4862-21.0506a.5709.5709,0,0,0-1.1164-.1511Z"/><path class="cls-4" d="M181.6434,252.0086c-.1661-40.7636.14-83.7407-14.5713-122.3915A139.573,139.573,0,0,0,151.168,99.3332c-.6043-.866-2.0379-.04-1.4268.834,23.9207,34.2107,28.43,76.7222,29.785,117.3219.384,11.5053.5373,23.0162.9687,34.52a.5746.5746,0,0,0,1.1484,0Z"/><path class="cls-4" d="M254.6934,117.427c-6.4759-9.3964-17.8269-16.2684-29.5175-15.6255-13.2671.73-20.4171,12.856-19.504,25.3438a43.68,43.68,0,0,0,25.1961,35.7274c6.725,2.9794,14.738,4.3834,21.6973,1.4238A18.06,18.06,0,0,0,262.6721,153.38c3.9975-11.6389-.8782-26.4659-7.6776-36.1293-.6479-.9208-2.16-.0769-1.533.8961,5.4,8.3781,9.2844,18.6489,8.6,28.7554-.3259,4.8126-1.9946,9.6129-5.6749,12.8849-5.3409,4.7483-12.792,5.03-19.4192,3.3019-13.5162-3.5245-24.2828-15.0193-28.1828-28.2641-3.5152-11.9381-.7331-28.1687,13.3728-31.0975,11.8764-2.4659,24.8807,4.7427,31.6051,14.2436C254.159,118.5313,255.09,118.0022,254.6934,117.427Z"/><path class="cls-4" d="M251.8738,164.1216c-7.98,3.1884-15.809,6.8558-23.8632,9.846-4.9643,1.843-10.15,2.7863-15.2115.7411a28.8137,28.8137,0,0,1-9.9767-7.2414c-10.45-11.1586-16.3711-29.0126-7.482-42.7378,4.78-7.3812,12.1248-12.8564,19.7353-17.0487.9425-.5192.1034-1.9521-.8428-1.4419-14.04,7.5694-27.165,20.4976-24.7124,37.7081a46.4066,46.4066,0,0,0,9.9924,22.25c5.2833,6.5269,12.97,12.3108,21.8039,11.09,5.3739-.7428,10.3451-3.3191,15.2729-5.4451,5.2281-2.2557,10.4879-4.4461,15.6542-6.8417.4878-.2262.1372-1.0809-.37-.8782Z"/><path class="cls-4" d="M174.3985,153.0765c-1.3251-10.7433,8.2528-17.6089,16.5554-22.2371.8433-.47.0878-1.7662-.7571-1.2952-8.743,4.8737-18.6884,12.2617-17.2983,23.5323.1166.9457,1.6181.9574,1.5,0Z"/><path class="cls-4" d="M176.2722,169.0137a36.3071,36.3071,0,0,0,17.1612,14.7586,10.931,10.931,0,0,0,8.9893-.2265c4.3184-2.0471,8.5044-4.5409,12.7253-6.787.8525-.4536.0956-1.7489-.7571-1.2952-3.3991,1.8088-6.8316,3.5561-10.2054,5.4122-3.8513,2.1187-7.0128,3.0109-11.1754,1.0849a35.7461,35.7461,0,0,1-15.4426-13.704c-.5012-.8234-1.799-.07-1.2952.7571Z"/><path class="cls-4" d="M179.1689,190.1527a37.4185,37.4185,0,0,0,6.8866-2.8533c2.56-1.18,5.1524-2.3122,7.6638-3.5931.7513-.3832.0912-1.4245-.6477-1.108-4.8284,2.0685-9.4694,4.5594-14.2459,6.7406-.4749.2169-.1285.9241.3431.8139Z"/><path class="cls-4" d="M184.561,208.8808a229.3294,229.3294,0,0,0,34.8861.3866c.7723-.05.775-1.2633,0-1.207a225.0275,225.0275,0,0,1-34.8861-.1757c-.64-.053-.6341.9407,0,.9961Z"/><path class="cls-4" d="M186.2418,213.2478c9.8192.8753,19.6622,1.4977,29.5171,1.7731a.61.61,0,0,0,0-1.2187c-9.8536-.3033-19.6927-.82-29.5171-1.6442-.7-.0587-.6933,1.028,0,1.09Z"/><path class="cls-4" d="M219.2755,208.4074c-3.0545-6.0767-6.278-12.0724-9.4279-18.1-.3386-.6479-1.3254-.0731-.9815.5737,3.1912,6.0026,6.3142,12.048,9.6,18,.2935.5316,1.0789.0627.81-.4732Z"/><path class="cls-4" d="M216.7266,215.08a289.4139,289.4139,0,0,1-4.64,29.3281c-.1671.7679,1.0107,1.0964,1.1809.3255a207.6686,207.6686,0,0,0,4.5143-29.6537c.05-.6854-.98-.6612-1.0547,0Z"/><path class="cls-4" d="M219.8534,216.9964a275.2551,275.2551,0,0,0-5.7782,30.0928c-.1161.8114,1.1258,1.1619,1.243.3427,1.4513-10.139,3.44-20.1431,5.4788-30.1753.1243-.6115-.784-.8754-.9436-.26Z"/><path class="cls-4" d="M211.912,186.3633c2.9615,7.5446,5.7965,15.1131,8.2723,22.8333.2367.738,1.4105.4174,1.1639-.3209-2.5782-7.7188-5.3828-15.3876-8.6277-22.8534-.1975-.4545-.9921-.1267-.8086.3409Z"/><path class="cls-4" d="M194.0273,221.2718c4.1882,9.1438,8.5612,18.2028,12.7537,27.3452.3461.7548,1.47.0991,1.1181-.6536-4.2546-9.0963-8.4962-18.2187-13.0724-27.1589-.2747-.5367-1.0436-.066-.7994.4673Z"/><path class="cls-4" d="M203.5547,184.27a110.86,110.86,0,0,0-7.8192,19.9054.5952.5952,0,0,0,1.147.3162,112.2043,112.2043,0,0,1,7.5931-19.6834c.3054-.6115-.6093-1.1519-.9208-.5382Z"/><path class="cls-4" d="M224.2668,208.1266a213.5129,213.5129,0,0,0,22.16-7.6377c.64-.26.3544-1.3124-.2882-1.0453a219.381,219.381,0,0,1-22.1115,7.8128.4516.4516,0,0,0,.24.87Z"/><path class="cls-4" d="M222.4974,213.6026q11.23-4.709,22.5913-9.0926c.5857-.226.3285-1.18-.2617-.9492q-11.3974,4.4635-22.6614,9.2547c-.4437.1887-.1191.9763.3319.7871Z"/><path class="cls-4" d="M209.5363,123.914c-.6175,11.9186,7.1114,23.9079,16.3683,30.8924,8.2786,6.2464,20.9248,9.6765,29.604,2.1847,8.931-7.7091,5.0792-21.1974.8449-30.3925a38.5745,38.5745,0,0,0-24.0707-20.8554c-5.5037-1.5523-11.763-.5613-16.0917,3.2973a22.2134,22.2134,0,0,0-6.9536,14.8735c-.0681.9746,1.45.9705,1.5176,0,.7334-10.5362,9.3486-19.5532,20.3973-16.9091,9.4584,2.2635,18.0493,9.3823,22.6135,17.8386,4.3258,8.0145,8.9579,21.0221,2.6291,29.0875-6.8735,8.76-19.41,6.7468-27.71,1.3938-10.1791-6.5646-18.4029-19.074-18.2285-31.4108A.46.46,0,0,0,209.5363,123.914Z"/><path class="cls-4" d="M213.8072,128.9763a13.7872,13.7872,0,0,1,3.2795-11.3471c.5538-.6368-.3691-1.5713-.9322-.9322a14.5583,14.5583,0,0,0-3.4151,12.5737c.1369.707,1.1763.3972,1.0679-.2944Z"/><path class="cls-4" d="M250.4933,155.1193a12.8152,12.8152,0,0,0,5.37-13.2341c-.1692-.8709-1.51-.5041-1.3334.3676a11.8273,11.8273,0,0,1-4.6132,11.88c-.5739.43-.0451,1.4052.5767.9866Z"/><path class="cls-4" d="M218.4574,113.578a6.5468,6.5468,0,0,1,3.2951-1.2619c.835-.0632.8274-1.3848,0-1.3008a7.1746,7.1746,0,0,0-4.0087,1.6378c-.5025.4319.1616,1.3052.7136.9249Z"/><path class="cls-4" d="M163.8048,246.8622a187.5393,187.5393,0,0,0-4.6393-59.3338c-.2-.8472-1.5066-.4886-1.3052.36a206.5794,206.5794,0,0,1,4.96,58.974c-.0341.6383.93.6231.9844,0Z"/><path class="cls-4" d="M142.6917,247.9817a270.9574,270.9574,0,0,0-1.6066-49.605c-.0909-.7277-1.2469-.7361-1.1543,0a278.7776,278.7776,0,0,1,1.8,49.605c-.0329.6187.9246.615.9609,0Z"/><path class="cls-4" d="M122.7305,246.8625a280.2852,280.2852,0,0,1,.8551-35.518c.0645-.7354-1.0865-.7328-1.1484,0a278.8436,278.8436,0,0,0-.732,35.518c.0284.6571,1.0514.6614,1.0254,0Z"/><path class="cls-4" d="M102.7545,250.6944a86.7668,86.7668,0,0,1-1.383-20.7485c.04-.7568-1.1414-.7562-1.1777,0a88.0237,88.0237,0,0,0,1.5211,21.0351c.1321.6813,1.1678.3918,1.04-.2866Z"/><path class="cls-4" d="M81.9845,249.72a116.46,116.46,0,0,1,2.463-33.6736c.1744-.76-.9979-1.0843-1.17-.3224A105.7107,105.7107,0,0,0,80.9943,249.72c.0645.6218,1.0312.6446.99,0Z"/><path class="cls-4" d="M63.8168,254.192a134.3165,134.3165,0,0,1,5.0042-39.2808.5483.5483,0,0,0-1.0566-.2913A135.3158,135.3158,0,0,0,62.809,254.192a.5042.5042,0,0,0,1.0078,0Z"/><path class="cls-4" d="M53.7728,251.37a152.1277,152.1277,0,0,1,8.5719-50.5184c.2537-.7152-.8855-1.025-1.1357-.3131A145.4944,145.4944,0,0,0,52.8177,251.37a.4778.4778,0,0,0,.9551,0Z"/><path class="cls-4" d="M272.3782,185.4628a204.4983,204.4983,0,0,1,6.7946,56.8793.6244.6244,0,0,0,1.248,0,187.9921,187.9921,0,0,0-7.2007-57.1113.4369.4369,0,0,0-.8419.2321Z"/><path class="cls-4" d="M282.159,194.01a273.1264,273.1264,0,0,1,5.63,54.5366.5863.5863,0,0,0,1.1719,0,261.6639,261.6639,0,0,0-6.0108-54.7546c-.1125-.5167-.8975-.2971-.791.2181Z"/><path class="cls-4" d="M286.06,200.801a167.9434,167.9434,0,0,1,6.2514,46.6181.58.58,0,0,0,1.16,0,164.8207,164.8207,0,0,0-6.5923-46.8439.4252.4252,0,0,0-.8193.2259Z"/><path class="cls-4" d="M291.9524,217.6428a129.6151,129.6151,0,0,1,3.2028,26.9579.5013.5013,0,0,0,1.002,0A130.8237,130.8237,0,0,0,292.8,217.4091c-.1276-.5512-.9726-.3177-.8475.2336Z"/><path class="cls-4" d="M63.9854,228.9948c31.3649-1.5917,62.75-2.457,94.1571-2.3663a.5042.5042,0,0,0,0-1.0078c-31.3972-.0408-62.8118.7425-94.1571,2.5772-.5091.03-.5142.823,0,.7969Z"/><path class="cls-4" d="M143.4839,213.42l25.9324-1.1017c.5749-.0244.5776-.9221,0-.8965L143.4839,212.57c-.5445.0241-.5478.8729,0,.85Z"/><path class="cls-4" d="M270.8918,210.0523q6.2012.016,12.4024.0322a.4368.4368,0,0,0,0-.873q-6.2012.0163-12.4024.0322a.4045.4045,0,0,0,0,.8086Z"/><path class="cls-4" d="M272.0192,224.2075l16.3486-1.0865c.6482-.0431.6513-1.06,0-1.0137l-16.3486,1.1685c-.594.0425-.6.9715,0,.9316Z"/><path class="cls-4" d="M274.2742,239.9894c8.08.0533,16.1608.0451,24.241.0615a.5247.5247,0,0,0,0-1.0488c-8.08.0165-16.161.0083-24.241.0615a.4632.4632,0,0,0,0,.9258Z"/><path class="cls-4" d="M87.0086,64.25a15.0063,15.0063,0,0,1,6.7265-.3856.58.58,0,1,0,.155-1.1452,17.1289,17.1289,0,0,0-7.1213.6607.4516.4516,0,0,0,.24.87Z"/><path class="cls-4" d="M90.0014,60.4645l-.0645,5.5741a.4778.4778,0,0,0,.9551,0l-.0645-5.5741a.4133.4133,0,0,0-.8262,0Z"/><path class="cls-4" d="M174.1619,53.9981a13.7186,13.7186,0,0,1,6.1329-.5915c.7527.0952.7582-1.1062,0-1.1895a14.4408,14.4408,0,0,0-6.421.7357c-.6525.2283-.3789,1.2663.2882,1.0453Z"/><path class="cls-4" d="M177.0416,49.3155c.21,1.8589.4292,3.7165.648,5.5743.078.6618,1.13.661,1.043,0q-.3749-2.8509-.7587-5.7c-.0716-.5241-.9923-.4061-.9323.1262Z"/><path class="cls-4" d="M285.3923,101.3346a29.9765,29.9765,0,0,1,9.6193-.48c.8094.0883.8108-1.1917,0-1.2715a30.9629,30.9629,0,0,0-9.9293.6269c-.7331.1654-.4219,1.2812.31,1.1244Z"/><path class="cls-4" d="M288.9731,95.4317a40.5,40.5,0,0,1,.6267,10.3221c-.0454.6914,1.0393.6921,1.0781,0a41.3979,41.3979,0,0,0-.7669-10.5807c-.1241-.6147-1.0547-.3527-.9379.2586Z"/><path class="cls-4" d="M288.294,63.0851l5.5741.05a.58.58,0,0,0,0-1.16l-5.5741.05a.5306.5306,0,0,0,0,1.0605Z"/><path class="cls-4" d="M291.95,59.7677l-.7319,5.5741c-.093.7084,1.0348.7109,1.1191,0l.6616-5.5741c.08-.6722-.9625-.6578-1.0488,0Z"/><path class="cls-4" d="M213.623,79.6786q2.4247.4106,4.8462.8375c.7108.1267.9929-.98.296-1.0735q-2.4461-.33-4.8882-.685c-.5962-.0856-.8653.8174-.2539.921Z"/><path class="cls-4" d="M205.3945,75.7932q-.0286,2.787-.0527,5.5741a.49.49,0,0,0,.9785,0q-.0248-2.7871-.0527-5.5741a.4368.4368,0,0,0-.873,0Z"/><path class="cls-4" d="M239.2137,43.8193a3.666,3.666,0,0,0-5.2841,1.8734.5732.5732,0,0,0,.2628.6457c1.9546,1.0647,3.9336,2.0863,5.902,3.1254l-.2183-.8325A4.0165,4.0165,0,0,1,235.06,49.963c-.7449-.3254-1.39.7785-.6417,1.0979a5.3019,5.3019,0,0,0,6.5082-1.8153.612.612,0,0,0-.2183-.8325c-1.9781-1.023-3.9478-2.0648-5.939-3.0621l.2628.6457a2.6021,2.6021,0,0,1,3.6994-1.3527.4779.4779,0,0,0,.482-.8247Z"/><path class="cls-4" d="M235.0805,41.0343a87.7964,87.7964,0,0,1,1.7675,13.1615c.0395.6939,1.1262.6974,1.084,0a76.8819,76.8819,0,0,0-1.987-13.4c-.1359-.5633-.9828-.3235-.8645.2383Z"/><path class="cls-4" d="M121.7625,77.4583a4.1722,4.1722,0,0,0-5.052.9811.6147.6147,0,0,0,.1229.9537,13.99,13.99,0,0,1,5.1221,4.4921l.3964-.9744c-1.98.6032-3.9563,1.2186-5.9332,1.8319-.8331.2585-.4766,1.5731.3614,1.3108,1.9757-.6185,3.952-1.2349,5.9245-1.8635a.6694.6694,0,0,0,.3964-.9744,14.6143,14.6143,0,0,0-5.6546-4.8712l.1229.9537a2.9867,2.9867,0,0,1,3.6521-.914c.62.2781,1.1686-.6229.5412-.9259Z"/><path class="cls-4" d="M119.1068,73.6814a76.1652,76.1652,0,0,1,.394,14.6494c-.0548.7349,1.1042.7377,1.1484,0a70.0256,70.0256,0,0,0-.6045-14.7763c-.08-.5263-1.001-.4084-.938.1269Z"/><path class="cls-4" d="M151.9864,17.4046c-.9834-2.37-4.7469-2.22-4.8736.6122a2.6384,2.6384,0,0,0,1.9464,2.7212c.4169.1141.8725.0787,1.2836.1972,1.0335.298,1.5192,1.22.6685,2.0352-1.09,1.0444-2.8689.3075-4.0666-.144-.7665-.2889-1.1127.9556-.34,1.2317,1.4146.5053,3.1849,1.0746,4.6073.2623a2.8851,2.8851,0,0,0,1.4443-2.6961c-.14-1.1783-1.1138-1.6305-2.1584-1.8382-1.08-.2147-2.4367-.3994-2.2231-1.8541.2414-1.6434,2.2638-1.3371,2.86-.1685.2353.4615,1.0556.1332.8514-.3589Z"/><path class="cls-4" d="M148.176,12.9261a45.4228,45.4228,0,0,1,.4255,12.669c-.08.747,1.0974.7463,1.1719,0a42.002,42.002,0,0,0-.6764-12.9229c-.1287-.6073-1.0234-.3431-.921.2539Z"/><path class="cls-4" d="M196.1138,18.8428a13.5217,13.5217,0,0,0-.54,5.73.5629.5629,0,1,0,1.1107-.15,12.3233,12.3233,0,0,1,.3048-5.3387.4545.4545,0,0,0-.8758-.2414Z"/><path class="cls-4" d="M192.7486,22.2833c1.8609.0293,3.7221.0381,5.5832.0527a.5482.5482,0,0,0,0-1.0957c-1.8611.0146-3.7223.0234-5.5832.0527a.4954.4954,0,0,0,0,.99Z"/><path class="cls-4" d="M203.987,25.1381c-.0694,1.4855-.047,2.98-.0645,4.4666a.5511.5511,0,0,0,1.1016,0c-.0175-1.487.005-2.9811-.0645-4.4666a.4866.4866,0,0,0-.9727,0Z"/><path class="cls-4" d="M201.6817,28.3779l4.4666.0322a.4808.4808,0,0,0,0-.9609l-4.4666.0322a.4485.4485,0,0,0,0,.8965Z"/><path class="cls-4" d="M278.7731,18.9965c-.0487,1.8579-.0577,3.7252-.0176,5.5832a.5335.5335,0,0,0,1.0664,0c.04-1.858.0312-3.7253-.0176-5.5832a.5159.5159,0,0,0-1.0312,0Z"/><path class="cls-4" d="M276.4971,23.3384l6.1416.0322a.4661.4661,0,0,0,0-.9316l-6.1416.0322a.4339.4339,0,0,0,0,.8672Z"/><path class="cls-4" d="M112.9132,35.5907a8.9389,8.9389,0,0,0-.5632,4.777c.1065.7429,1.2544.4336,1.1357-.3131a7.83,7.83,0,0,1,.4954-4.17c.2645-.6663-.8-.9409-1.0679-.2944Z"/><path class="cls-4" d="M109.4282,38.4513a21.6334,21.6334,0,0,0,6.4087.0254c.6521-.0936.3782-1.0937-.2741-.9944a19.9749,19.9749,0,0,1-5.8744.0254c-.6141-.0882-.8837.8486-.26.9436Z"/><path class="cls-4" d="M.6244,303.348c21.89-3.956,44.1338-4.845,66.3283-5.3,22.5144-.4611,45.0323-.7867,67.5481-1.1741q67.8794-1.1679,135.7581-2.3733l76.863-1.3445a.7153.7153,0,0,0,0-1.43l-136.7563,2.419q-68.3175,1.2084-136.6346,2.4361C49.1879,297.035,24.5366,297.78.36,302.3875c-.6307.12-.3615,1.0737.2648.9605Z"/></g></g></svg>