<svg xmlns="http://www.w3.org/2000/svg" viewBox="0 0 183.887 200.6364"><defs><style>.cls-1{fill:#f7fafc;}.cls-2{fill:#ffefaf;}.cls-3{fill:#303030;}.cls-4{fill:#e93a1d;}</style></defs><title>DN_Service-Ya2-img-5</title><g id="Layer_2" data-name="Layer 2"><g id="back"><path class="cls-1" d="M68.3409,200.6364a19.9539,19.9539,0,0,1-15.2971-7.1052S40.95,179.1918,28.858,164.819c-6.0535-7.1958-12.1062-14.4-16.644-19.8215-2.2913-2.7375-4.2-5.0251-5.5352-6.6367C3.2567,134.23-.6222,129.5483.0841,121.3371a20.001,20.001,0,0,1,7.0789-13.6135,20.9957,20.9957,0,0,1,8.22-4.0872C3.9093,88.7841.2547,80.8671.6656,72.58A21.4492,21.4492,0,0,1,4.8753,60.72a19.9986,19.9986,0,0,1,3.988-9.4336,20.5242,20.5242,0,0,1,3.0649-4.9221,21.1079,21.1079,0,0,1,4.8691-5.8677A20.0016,20.0016,0,0,1,36.462,37.01a19.4657,19.4657,0,0,1-.6553-7.0947,20.0827,20.0827,0,0,1,7.0916-13.7261c2.39-2.0049,11.114-8.0952,23.0178-2.2329,1.0623.5232,2.23,1.1692,3.616,2.0012a19.9974,19.9974,0,0,1,6.7317-11.28,20.4339,20.4339,0,0,1,23.9468-1.5081c.87.5215,1.8188,1.1523,2.9651,1.9709a20,20,0,0,1,27.2668,3.1836l44.426,52.9448a19.9994,19.9994,0,0,1-1.8347,27.6233l6.1743,7.3582a19.9983,19.9983,0,0,1-2.4683,28.1772,20.779,20.779,0,0,1-13.0288,4.7087q1.38,1.6066,2.7573,3.2095A19.9979,19.9979,0,0,1,164.1566,160.7a21.63,21.63,0,0,1-17.7554,4.9084,19.9979,19.9979,0,0,1-5.8665,22.3523,20.3422,20.3422,0,0,1-3.6064,2.4238,19.92,19.92,0,0,1-5.752,3.2825,20.57,20.57,0,0,1-9.1582,3.3628,20.1731,20.1731,0,0,1-19.833.9312c-.8774-.41-1.8635-.9221-3.1028-1.6106-1.7524-.9734-4.1016-2.3506-7.1812-4.21q-2.3676-1.43-5.344-3.2607a20.018,20.018,0,0,1-18.2163,11.7573Z"/></g><g id="Layer_2-2" data-name="Layer 2"><path class="cls-2" d="M96.6652,144.2528c-1.4619-2.4407-4.5014-1.4679-6.3477-3.1629-2.0752-1.9057-3.11-7.2366-3.9874-9.8035q-4.4234-12.9466-8.8468-25.8929C72.2334,90.0279,66.95,74.5243,64.7452,58.3113c-.3007-2.2132-.8135-4.8336-2.7276-5.6612a5.3436,5.3436,0,0,0-2.5091-.23q-9.2326.6311-18.4609,1.3363a17.1857,17.1857,0,0,0,7.9113,5.669c-6.0347,14.3176-26.2841,67.8149-33.35,78.7591-3.0738,4.76-3.9834,1.3576-8.95,3.61-7.6868,3.4867-1.5437,4.7985,4.4607,3.9746,4.49-.6163,17.0556,1.7791,20.3-1.5056-1.9536-2.8034-6.2935-2.2373-9.4147-2.8724-1.4368-.2923,9.68-21.4888,9.68-21.4888l31.8685,1.0647s5.6885,16.4122,7.45,23.3916a5.4935,5.4935,0,0,0-5.7695,3.34C68.1124,148.0409,99.6663,149.2632,96.6652,144.2528ZM60.71,112.7583c-1.9584.7173-26.27.0277-26.27.0277S46.7837,80.1814,49.6329,75.93C53.8119,87.0626,60.4066,112.1874,60.71,112.7583Z"/><path class="cls-3" d="M97.3128,143.8742c-1.78-2.4344-4.9078-1.627-6.8014-3.663-2.0687-2.2243-2.4841-6.0993-3.3842-8.8981-2.8153-8.7534-5.9482-17.4176-8.9207-26.1191-2.8323-8.2912-5.6646-16.5895-8.0239-25.0306C68.96,75.7908,67.8654,71.3812,66.9668,66.93c-.7762-3.8444-.8611-8.1452-2.1471-11.8486-1.3151-3.787-4.2645-3.4857-7.7407-3.2444q-8.0177.5565-16.0313,1.1689a.761.761,0,0,0-.53,1.28,18.8282,18.8282,0,0,0,8.2423,5.8619l-.5238-.9226C41.11,76.1678,34.6925,93.4047,27.64,110.3787c-3.3483,8.0586-6.6645,16.2092-10.7061,23.9528-.579,1.1093-1.1659,2.2286-1.8482,3.2789-.6391.984-1.3835,2.1789-2.5909,2.5006a18.4425,18.4425,0,0,1-2.8943.0995c-1.6781.1644-9.6741,2.8577-6.65,5.5558,1.501,1.3393,4.64,1.0545,6.4474.9286a61.7694,61.7694,0,0,1,7.6535-.1427c4.3631.2273,11.3053,1.4854,14.899-1.7586a.7677.7677,0,0,0,0-1.0607,6.59,6.59,0,0,0-3.6544-2.2432,17.78,17.78,0,0,0-2.4552-.4c-.4722-.0534-3.093-.0957-3.125-.1248-.1043-.0948.0148.3815-.072-.0139a1.554,1.554,0,0,1,.0883-.3679,6.8183,6.8183,0,0,1,.3067-.9477c.3765-1.0794.8445-2.1295,1.3088-3.1731,2.1244-4.7755,4.5043-9.4422,6.8984-14.0869a7.4242,7.4242,0,0,0,.869-1.6775c.1446-.8119-.1434.0053-.2683-.04,1.0949.4,2.94.0982,4.0925.1367l15.8682.53,11.7464.3924-.7232-.5506c2.6722,7.7154,5.421,15.4783,7.45,23.3916l.7232-.9494a6.36,6.36,0,0,0-6.4171,3.7118.7617.7617,0,0,0,.6476,1.1285,124.6018,124.6018,0,0,0,19.8691.2c1.8626-.0961,14.6284-.25,12.21-4.7748-.4552-.8517-1.7506-.0949-1.2952.7571.9633,1.8022-13.6463,2.6317-14.8422,2.6577a122.06,122.06,0,0,1-15.9417-.34l.6476,1.1285a4.9021,4.9021,0,0,1,5.1219-2.9689.7561.7561,0,0,0,.7232-.9494c-2.029-7.9133-4.7777-15.6761-7.45-23.3916a.7778.7778,0,0,0-.7232-.5506l-31.8685-1.0647a.74.74,0,0,0-.6476.3715c-2.6211,5.0012-5.1884,10.0444-7.5335,15.1814-.7323,1.6041-2.63,4.53-2.3752,6.3938.1494,1.0916.8857,1.0709,1.8976,1.2061,2.76.3688,5.9416.1085,7.8632,2.4887V143.733c-1.6221,1.4642-4.3053,1.4882-6.36,1.5441-2.693.0733-5.3856-.1214-8.0735-.256a37.2584,37.2584,0,0,0-5.3361-.0023,31.4615,31.4615,0,0,1-4.0074.2287c-1.4113-.0477-4.041-.0281-2.2047-1.6856,3.2335-2.9187,7.7714-.4958,10.524-3.85a36.6683,36.6683,0,0,0,4.1259-7.2668C27.43,116.3069,33.8029,99.38,40.4284,82.7055c3.06-7.7015,6.0407-15.4414,9.2537-23.0811.166-.3946-.1842-.7985-.5238-.9226a17.453,17.453,0,0,1-7.58-5.4761l-.53,1.28q6.5567-.5,13.116-.9647c1.933-.1366,4.293-.7068,6.1962-.4132,2.9437.4541,3.2924,2.8985,3.6622,5.3825a185.9806,185.9806,0,0,0,5.4887,24.7611c4.771,16.3481,10.9647,32.2341,16.17,48.44.8882,2.7652,1.4181,5.7574,2.892,8.2967a5.6521,5.6521,0,0,0,2.3759,2.3822c1.7255.845,3.8107.52,5.0689,2.24C96.5816,145.4027,97.8838,144.6551,97.3128,143.8742Z"/><path class="cls-3" d="M60.5109,112.0351a18.81,18.81,0,0,1-5.05.2844c-2.96.037-5.92.0081-8.88-.0317q-6.0711-.0817-12.141-.2517l.7232.9494q3.15-8.3176,6.43-16.5858c1.6761-4.2311,3.369-8.4573,5.1561-12.643a48.3764,48.3764,0,0,1,3.5315-7.4483L48.91,76.1292c2.76,7.415,4.91,15.0674,7.0764,22.6715q1.4126,4.9575,2.785,9.9262a33.85,33.85,0,0,0,1.2915,4.41c.3836.8831,1.6763.12,1.2952-.7571-.4224-.9724-.8813-3.1213-1.2521-4.4532q-1.4094-5.0636-2.8432-10.12c-2.1151-7.4049-4.2186-14.8539-6.9065-22.0758a.761.761,0,0,0-1.3708-.1792,50.6424,50.6424,0,0,0-3.71,7.8677c-1.7022,4.0044-3.3274,8.0415-4.932,12.0858q-3.3785,8.5151-6.6264,17.082a.7562.7562,0,0,0,.7232.9494q6.329.1786,12.6607.2585c2.9272.037,5.8559.0643,8.7832.0192a18.691,18.691,0,0,0,5.0257-.3322C61.8292,113.1977,61.4369,111.7493,60.5109,112.0351Z"/><path class="cls-4" d="M34.0255,112.91,49.6328,75.93l-3.3589.0487L30.87,112.7521S33.74,112.8506,34.0255,112.91Z"/><path class="cls-4" d="M27.7934,119.4356,18.4569,141.391h3.5479l9.2879-22.0064C30.0792,119.4832,27.8764,119.4467,27.7934,119.4356Z"/><path class="cls-2" d="M127.1156,75.83c5.7487-1.6559,20.2175-.9712,23.7822-6.3178,2.1526-3.2313-.4642-12.755-.402-16.6429-4.816,11.5992-22.3633,8.6542-31.7066,13.8834q-.7662.4289-1.5118.9405c-4.8076,3.2913-8.8951,8.9567-11.3587,13.9549-3.1388,6.3684-3.9052,11.262-3.8861,17.8478.03,10.1385-2.3835,19.0009,1.4157,28.9744,3.9152,10.2788,14.1964,18.84,25.1141,17.5031,10.0547-1.2314,17.6358-10.3022,20.6853-19.9621,2.4967-7.91,2.3954-17.2636-2.8273-23.7076-4.3566-5.3753-11.6279-7.8006-18.5427-7.55-8.7416.3168-11.9509,5.0487-11.862-5.4985C116.0831,81.2732,119.8962,77.91,127.1156,75.83Zm-8.28,29.45a9.069,9.069,0,0,1,4.2223-2.5541c4.1645-1.1894,9.6972.211,11.6928,4.3546,3.1972,6.6388,1.7066,16.4-1.1152,22.83-1.22,2.78-2.6572,6.8082-5.8029,7.3659-3.0145.5344-6.17-2.0566-7.7263-4.3261C115.8512,126.7451,112.833,111.7144,118.8353,105.2805Z"/><path class="cls-3" d="M127.315,76.5535c6.9949-1.8956,15.27-.55,21.7078-4.3782,6.4935-3.8611,2.2584-13.377,2.223-19.3057-.0041-.691-1.0836-1.091-1.3976-.3785-3.1879,7.2326-11.4087,8.626-18.39,9.9063a61.1812,61.1812,0,0,0-10.0414,2.3585,24.3618,24.3618,0,0,0-9.6576,6.8773,40.22,40.22,0,0,0-10.4364,25.2552c-.2039,5.4334-.5165,10.863-.7171,16.2965a39.0745,39.0745,0,0,0,2.1195,15.4851c2.9007,7.6074,9.0308,14.3106,16.8108,17.0223,7.8866,2.7488,16.1535.2281,22.0158-5.4974,11.4316-11.165,15.65-35.4462-1.3706-43.685a26.23,26.23,0,0,0-13.5148-2.4327,39.3938,39.3938,0,0,0-4.758.7573c-1.0436.2179-2.6457.8288-3.6981.4222-1.3817-.5338-1.3516-2.7574-1.4121-3.9677a19.3387,19.3387,0,0,1,.6455-6.8724c1.47-4.5486,5.5754-6.5831,9.8715-7.8629a.7506.7506,0,0,0-.3988-1.4464C120.73,76.95,116.0693,80.4,115.3767,87.19c-.3864,3.789-.7319,10.2779,4.6565,9.5354,3.0237-.4166,5.8662-1.2529,8.9585-1.2366a23.4607,23.4607,0,0,1,13.2872,3.98c8.4395,5.9051,9.1012,17.2768,6.2455,26.3433-2.67,8.4774-9.0281,16.9055-18.0455,19.057-9.377,2.2374-18.5141-3.5492-23.52-11.1927-6.0641-9.26-4.78-19.6414-4.28-30.0986.2458-5.1417-.0146-10.2011,1.4031-15.2156a40.61,40.61,0,0,1,6.5438-12.9833c3.152-4.2445,7.1055-7.8858,12.21-9.5251a94.1915,94.1915,0,0,1,11.08-2.3936c6.7923-1.308,14.1888-3.318,17.2276-10.2123l-1.3976-.3785c.021,3.521.92,7.0014,1.1725,10.5084.1222,1.6967.33,3.8415-.4685,5.4123a7.0141,7.0141,0,0,1-3.7945,2.8692c-6.2768,2.5306-13.2914,1.7-19.7391,3.4476A.7506.7506,0,0,0,127.315,76.5535Z"/><path class="cls-3" d="M119.3657,105.8109a9.8461,9.8461,0,0,1,10.458-2.0765c4.1349,1.56,5.4589,5.7,5.8582,9.76.6635,6.747-1.0945,15.1793-5.0491,20.8141-3.1275,4.4562-8.0206,1.2133-10.2657-2.3334a26.7474,26.7474,0,0,1-3.117-7.8308c-1.44-5.7677-2.122-13.5227,2.1156-18.3338.6359-.7219-.4211-1.7868-1.0607-1.0607-3.9332,4.4655-4.0336,11.0262-3.15,16.6055.8885,5.6083,2.96,12.5984,8.2055,15.65,6.4413,3.7478,9.6069-3.203,11.5263-8.18,2.55-6.6132,3.7553-15.158.6584-21.7975-3.0387-6.5146-12.4663-7.0277-17.24-2.2783A.75.75,0,0,0,119.3657,105.8109Z"/><path class="cls-4" d="M138.5147,141.5446q-1.1072.8044-2.3114,1.559c1.0374-3.106,3.4765-6.1022,4.9618-9.059,3.3284-6.6258,6.1923-14.9542,4.2166-22.3653a27.8714,27.8714,0,0,0-4.7877-9.5471,32.93,32.93,0,0,0-4.9655-5.2728,14.2921,14.2921,0,0,1-2.3859-1.68c3.921-.1957,7.0716,2.2131,10.079,4.3134a15.2406,15.2406,0,0,1,3.9061,3.9654c3.5956,5.0286,4.4623,12.7091,3.409,18.6722A29.0139,29.0139,0,0,1,138.5147,141.5446Z"/><path class="cls-4" d="M122.5662,135.6708c-2.3848.0671-4.74-6.9576-5.4431-8.7441a25.4366,25.4366,0,0,1-1.4843-14.4244c.3665-1.674.535-4.148,1.3727-5.5757.179-.305,3.4113-3.6272,3.33-3.6484-3.9244-1.0218-6.9793,5.1684-8.0314,7.888-1.7236,4.4555-1.51,9.6626-.2279,14.2087C113.525,130.49,116.8031,135.833,122.5662,135.6708Z"/><path class="cls-4" d="M117.1544,96.3446c-3.9032.8775-5.7482-3.5874-5.3316-7.5779.5066-4.8522,3.708-8.6171,7.7075-11.1832,4.6253-2.9676,10.6861-4.2773,15.9537-5.0324,3.7847-.5426,8.0275-2.0893,10.0912-5.5191,1.3428-2.2317,1.944-12.8609,4.71-11.3926,1.133.6015.7745,5.9507.8885,7.1025.2463,2.4877,1.0935,5.0037-.4954,7.2751-3.2015,4.5767-12.1876,4.6028-17.0673,5.0545C123.3318,76.0231,113.1447,81.4295,117.1544,96.3446Z"/><polygon class="cls-4" points="54.5 52.378 62.018 52.65 89.092 141.09 96.665 144.253 92.981 148.08 83.962 147.95 54.5 52.378"/><path class="cls-3" d="M97.3128,143.8742c-1.78-2.4344-4.9078-1.627-6.8014-3.663-2.0687-2.2243-2.4841-6.0993-3.3842-8.8981-2.8153-8.7534-5.9482-17.4176-8.9207-26.1191-2.8323-8.2912-5.6646-16.5895-8.0239-25.0306C68.96,75.7908,67.8654,71.3812,66.9668,66.93c-.7762-3.8444-.8611-8.1452-2.1471-11.8486-1.3151-3.787-4.2645-3.4857-7.7407-3.2444q-8.0177.5565-16.0313,1.1689a.761.761,0,0,0-.53,1.28,18.8282,18.8282,0,0,0,8.2423,5.8619l-.5238-.9226C41.11,76.1678,34.6925,93.4047,27.64,110.3787c-3.3483,8.0586-6.6645,16.2092-10.7061,23.9528-.579,1.1093-1.1659,2.2286-1.8482,3.2789-.6391.984-1.3835,2.1789-2.5909,2.5006a18.4425,18.4425,0,0,1-2.8943.0995c-1.6781.1644-9.6741,2.8577-6.65,5.5558,1.501,1.3393,4.64,1.0545,6.4474.9286a61.7694,61.7694,0,0,1,7.6535-.1427c4.3631.2273,11.3053,1.4854,14.899-1.7586a.7677.7677,0,0,0,0-1.0607,6.59,6.59,0,0,0-3.6544-2.2432,17.78,17.78,0,0,0-2.4552-.4c-.4722-.0534-3.093-.0957-3.125-.1248-.1043-.0948.0148.3815-.072-.0139a1.554,1.554,0,0,1,.0883-.3679,6.8183,6.8183,0,0,1,.3067-.9477c.3765-1.0794.8445-2.1295,1.3088-3.1731,2.1244-4.7755,4.5043-9.4422,6.8984-14.0869a7.4242,7.4242,0,0,0,.869-1.6775c.1446-.8119-.1434.0053-.2683-.04,1.0949.4,2.94.0982,4.0925.1367l15.8682.53,11.7464.3924-.7232-.5506c2.6722,7.7154,5.421,15.4783,7.45,23.3916l.7232-.9494a6.36,6.36,0,0,0-6.4171,3.7118.7617.7617,0,0,0,.6476,1.1285,124.6018,124.6018,0,0,0,19.8691.2c1.8626-.0961,14.6284-.25,12.21-4.7748-.4552-.8517-1.7506-.0949-1.2952.7571.9633,1.8022-13.6463,2.6317-14.8422,2.6577a122.06,122.06,0,0,1-15.9417-.34l.6476,1.1285a4.9021,4.9021,0,0,1,5.1219-2.9689.7561.7561,0,0,0,.7232-.9494c-2.029-7.9133-4.7777-15.6761-7.45-23.3916a.7778.7778,0,0,0-.7232-.5506l-31.8685-1.0647a.74.74,0,0,0-.6476.3715c-2.6211,5.0012-5.1884,10.0444-7.5335,15.1814-.7323,1.6041-2.63,4.53-2.3752,6.3938.1494,1.0916.8857,1.0709,1.8976,1.2061,2.76.3688,5.9416.1085,7.8632,2.4887V143.733c-1.6221,1.4642-4.3053,1.4882-6.36,1.5441-2.693.0733-5.3856-.1214-8.0735-.256a37.2584,37.2584,0,0,0-5.3361-.0023,31.4615,31.4615,0,0,1-4.0074.2287c-1.4113-.0477-4.041-.0281-2.2047-1.6856,3.2335-2.9187,7.7714-.4958,10.524-3.85a36.6683,36.6683,0,0,0,4.1259-7.2668C27.43,116.3069,33.8029,99.38,40.4284,82.7055c3.06-7.7015,6.0407-15.4414,9.2537-23.0811.166-.3946-.1842-.7985-.5238-.9226a17.453,17.453,0,0,1-7.58-5.4761l-.53,1.28q6.5567-.5,13.116-.9647c1.933-.1366,4.293-.7068,6.1962-.4132,2.9437.4541,3.2924,2.8985,3.6622,5.3825a185.9806,185.9806,0,0,0,5.4887,24.7611c4.771,16.3481,10.9647,32.2341,16.17,48.44.8882,2.7652,1.4181,5.7574,2.892,8.2967a5.6521,5.6521,0,0,0,2.3759,2.3822c1.7255.845,3.8107.52,5.0689,2.24C96.5816,145.4027,97.8838,144.6551,97.3128,143.8742Z"/><path class="cls-3" d="M60.5109,112.0351a18.81,18.81,0,0,1-5.05.2844c-2.96.037-5.92.0081-8.88-.0317q-6.0711-.0817-12.141-.2517l.7232.9494q3.15-8.3176,6.43-16.5858c1.6761-4.2311,3.369-8.4573,5.1561-12.643a48.3764,48.3764,0,0,1,3.5315-7.4483L48.91,76.1292c2.76,7.415,4.91,15.0674,7.0764,22.6715q1.4126,4.9575,2.785,9.9262a33.85,33.85,0,0,0,1.2915,4.41c.3836.8831,1.6763.12,1.2952-.7571-.4224-.9724-.8813-3.1213-1.2521-4.4532q-1.4094-5.0636-2.8432-10.12c-2.1151-7.4049-4.2186-14.8539-6.9065-22.0758a.761.761,0,0,0-1.3708-.1792,50.6424,50.6424,0,0,0-3.71,7.8677c-1.7022,4.0044-3.3274,8.0415-4.932,12.0858q-3.3785,8.5151-6.6264,17.082a.7562.7562,0,0,0,.7232.9494q6.329.1786,12.6607.2585c2.9272.037,5.8559.0643,8.7832.0192a18.691,18.691,0,0,0,5.0257-.3322C61.8292,113.1977,61.4369,111.7493,60.5109,112.0351Z"/><path class="cls-3" d="M127.315,76.5535c6.9949-1.8956,15.27-.55,21.7078-4.3782,6.4935-3.8611,2.2584-13.377,2.223-19.3057-.0041-.691-1.0836-1.091-1.3976-.3785-3.1879,7.2326-11.4087,8.626-18.39,9.9063a61.1812,61.1812,0,0,0-10.0414,2.3585,24.3618,24.3618,0,0,0-9.6576,6.8773,40.22,40.22,0,0,0-10.4364,25.2552c-.2039,5.4334-.5165,10.863-.7171,16.2965a39.0745,39.0745,0,0,0,2.1195,15.4851c2.9007,7.6074,9.0308,14.3106,16.8108,17.0223,7.8866,2.7488,16.1535.2281,22.0158-5.4974,11.4316-11.165,15.65-35.4462-1.3706-43.685a26.23,26.23,0,0,0-13.5148-2.4327,39.3938,39.3938,0,0,0-4.758.7573c-1.0436.2179-2.6457.8288-3.6981.4222-1.3817-.5338-1.3516-2.7574-1.4121-3.9677a19.3387,19.3387,0,0,1,.6455-6.8724c1.47-4.5486,5.5754-6.5831,9.8715-7.8629a.7506.7506,0,0,0-.3988-1.4464C120.73,76.95,116.0693,80.4,115.3767,87.19c-.3864,3.789-.7319,10.2779,4.6565,9.5354,3.0237-.4166,5.8662-1.2529,8.9585-1.2366a23.4607,23.4607,0,0,1,13.2872,3.98c8.4395,5.9051,9.1012,17.2768,6.2455,26.3433-2.67,8.4774-9.0281,16.9055-18.0455,19.057-9.377,2.2374-18.5141-3.5492-23.52-11.1927-6.0641-9.26-4.78-19.6414-4.28-30.0986.2458-5.1417-.0146-10.2011,1.4031-15.2156a40.61,40.61,0,0,1,6.5438-12.9833c3.152-4.2445,7.1055-7.8858,12.21-9.5251a94.1915,94.1915,0,0,1,11.08-2.3936c6.7923-1.308,14.1888-3.318,17.2276-10.2123l-1.3976-.3785c.021,3.521.92,7.0014,1.1725,10.5084.1222,1.6967.33,3.8415-.4685,5.4123a7.0141,7.0141,0,0,1-3.7945,2.8692c-6.2768,2.5306-13.2914,1.7-19.7391,3.4476A.7506.7506,0,0,0,127.315,76.5535Z"/><path class="cls-3" d="M119.3657,105.8109a9.8461,9.8461,0,0,1,10.458-2.0765c4.1349,1.56,5.4589,5.7,5.8582,9.76.6635,6.747-1.0945,15.1793-5.0491,20.8141-3.1275,4.4562-8.0206,1.2133-10.2657-2.3334a26.7474,26.7474,0,0,1-3.117-7.8308c-1.44-5.7677-2.122-13.5227,2.1156-18.3338.6359-.7219-.4211-1.7868-1.0607-1.0607-3.9332,4.4655-4.0336,11.0262-3.15,16.6055.8885,5.6083,2.96,12.5984,8.2055,15.65,6.4413,3.7478,9.6069-3.203,11.5263-8.18,2.55-6.6132,3.7553-15.158.6584-21.7975-3.0387-6.5146-12.4663-7.0277-17.24-2.2783A.75.75,0,0,0,119.3657,105.8109Z"/></g></g></svg>