<?xml version="1.0" encoding="utf-8"?>
<!-- Generator: Adobe Illustrator 20.1.0, SVG Export Plug-In . SVG Version: 6.00 Build 0)  -->
<svg version="1.1" xmlns="http://www.w3.org/2000/svg" xmlns:xlink="http://www.w3.org/1999/xlink" x="0px" y="0px"
	 viewBox="0 0 675 258" enable-background="new 0 0 675 258" xml:space="preserve">
<g id="site_bg">
</g>
<g id="back">
	<g>
		<g>
			<path fill="#F7FAFC" d="M157.7408,256.311c-2.4072,0-5.0732-0.4394-7.9482-1.5742c-0.8135-0.3208-1.7178-0.7197-2.8457-1.2549
				c-1.5479-0.7344-3.6123-1.7715-6.3115-3.1714c-2.8232-1.4639-6.4004-3.3555-10.6846-5.6509
				c-1.1152,1.8901-2.5625,3.627-4.335,5.1221c-8.4414,7.1211-21.0596,6.0498-28.1807-2.3936c0,0-8.5518-10.1392-17.1016-20.3022
				c-4.2822-5.0908-8.5645-10.1875-11.7754-14.0234c-1.627-1.9443-2.9824-3.5693-3.9316-4.7139
				c-2.665-3.2173-6.6934-8.0791-5.9873-16.2769c0.4551-5.2905,2.9961-10.1831,7.0615-13.5986
				c1.3916-1.1685,4.8711-3.6792,9.7881-4.4497c-7.5-10.73-8.5762-16.0312-8.3008-21.5825
				c0.2158-4.3511,1.7539-8.5005,4.334-11.8828c0.2783-1.6782,0.7676-3.3037,1.4492-4.8403
				c0.1582-1.0854,0.4053-2.1528,0.7334-3.1914c0.499-5.6035,3.1846-10.8115,7.4434-14.3857
				c4.5645-3.8296,10.4043-5.3062,15.9561-4.438c-5.2588-6.6353-9.0068-11.5566-8.3428-19.7178
				c0.4336-5.3262,2.9961-10.292,7.0889-13.728c1.9023-1.5962,7.5664-5.5786,15.499-4.5796
				c-0.6094-2.248-0.8262-4.6064-0.6191-6.9717c0.4619-5.2842,3.0049-10.168,7.0674-13.5771
				c1.6279-1.3652,8.9766-6.8506,18.8027-3.8569c1.1758-3.0469,3.1172-5.8477,5.7959-8.0957
				c1.627-1.3652,8.6348-6.5786,18.0137-4.0464c0.1475-0.1313,0.2969-0.2603,0.4482-0.3872
				c6.0781-5.0986,16.2959-7.1743,25.4219-0.3149c0.4785,0.3594,1.1729,0.9038,2.0635,1.6279
				c0.1631,0.1323,0.334,0.272,0.5127,0.4185c0.7471-5.3901,3.3809-10.1953,7.5439-13.688
				c7.4805-6.2754,18.2979-6.1841,25.6504-0.0503c0.8252-3.4414,2.5732-6.7046,5.2393-9.396
				c7.5908-7.6641,19.8936-7.9272,27.8057-0.5889l22.9766,21.3081c0.9941-1.752,2.2715-3.3813,3.8262-4.8184
				c7.8408-7.2437,19.9893-7.0522,27.5957,0.4326c8.96,8.814,18.1045,17.752,27.2373,26.6245
				c0.668-0.7622,1.3975-1.4771,2.1826-2.1362c5.7451-4.8198,13.5156-5.9126,20.1836-3.2881c1.3076-2.896,3.25-5.4727,5.75-7.5703
				c2.8867-2.4224,6.9092-4.3433,11.5732-4.7241c1.2197-2.9004,3.1201-5.5034,5.5811-7.5684
				c2.6602-2.231,11.5723-8.3267,23.1572-1.8042c1.1963-2.689,3.0078-5.1548,5.4141-7.1738
				c1.4688-1.2334,7.4854-5.7197,15.874-4.5771c0.1299-0.1299,0.2617-0.2573,0.3955-0.3843
				c5.748-5.4341,13.9111-6.8149,20.8848-4.1509c0.9023-3.3379,2.6807-6.4824,5.3252-9.0674
				c7.6992-7.5278,19.9805-7.6074,27.7754-0.1772c0.6064,0.5781,1.2109,1.1528,1.8184,1.7324
				c0.8691-1.1245,1.8594-2.1597,2.957-3.0801c4.5645-3.8335,11.4102-5.7358,18.0273-3.981
				c4.626,0.1138,9.2139,1.8257,12.8789,5.1211c4.3955,3.9521,8.8389,7.939,13.293,11.9277
				c1.0078-1.4746,2.2314-2.8374,3.666-4.0415c12.2324-10.2661,26.1016-1.7876,30.6582,0.999
				c2.5664,1.5698,5.5811,3.5938,9.1113,6.1216c0.8867-1.1602,1.9033-2.228,3.0391-3.1812
				c3.4287-2.8779,12.8906-8.7583,26.6309-1.2402c0.9941,0.5444,2.0469,1.1719,3.1641,1.8882
				c7.2275-2.0234,15.2939,0.1221,20.5273,6.1714c0.1016,0.1162,10.1787,11.7627,20.1143,23.418
				c5.8701,6.8867,10.5557,12.4448,13.9277,16.5205c7.5928,9.1777,11.4043,13.7847,10.7266,22.3154
				c-0.2832,3.5542-1.5107,6.9434-3.5107,9.8286c1.6221,3.2666,2.333,6.9434,2.0098,10.6362
				c-0.4619,5.2842-3.0049,10.168-7.0674,13.5771c-3.0439,2.5532-6.5957,4.0933-10.3457,4.5859
				c3.8857,8.0459,1.9941,17.999-5.1631,24.0054c-1.9287,1.6182-7.4336,5.4771-15.0879,4.6084
				c-0.8965,4.7427-3.3555,8.9702-7.085,12.0996c-1.1426,0.959-2.3623,1.769-3.6348,2.4307
				c-1.7314,1.251-5.0996,3.2441-9.5557,3.7949c-0.7988,4.8535-3.3115,9.3198-7.0703,12.4736
				c-2.4834,2.0835-11.1895,8.0962-23.2666,2.3354c-1.2129,3.0898-3.1846,5.8628-5.7676,8.0308
				c-4.0117,3.3657-10.3291,5.7695-17.3877,4.231c-7.6504,6.9624-19.3926,6.9492-27.0293-0.1074
				c-3.665-3.3872-7.4941-6.9229-11.457-10.5781c-1.1055,1.6084-2.4346,3.0737-3.9697,4.3618
				c-2.5967,2.1777-12.0703,8.7383-24.9795,1.7031c-1.4277-0.7778-2.9209-1.728-4.5674-2.9106
				c-6.125,4.7373-14.4521,5.4741-21.2842,1.9951c-1.2227,2.6182-3.0098,4.9663-5.2656,6.8599
				c-2.1777,1.8276-9.1113,6.6572-18.877,4.001c-1.0332,2.6841-2.6631,5.1836-4.876,7.2896
				c-7.6494,7.2793-19.6416,7.3579-27.3848,0.1758l-2.0801-1.9282c-1.2695,3.4453-3.4033,6.499-6.2754,8.9087
				c-3.2021,2.687-12.042,8.2842-24.9062,2.2354c-2.8643-1.3472-6.0107-3.2661-9.9004-6.0391
				c-2.499-1.7812-5.3066-3.9194-8.457-6.4409c-0.9932,1.3403-2.1514,2.5723-3.4629,3.6729
				c-7.5557,6.3403-18.6045,6.2241-26.0273-0.271c-6.2275-5.4512-12.792-11.1934-19.5625-17.1128
				c-1.1982,3.7432-3.4121,7.0625-6.4834,9.6396c-6.2334,5.23-14.7803,6.0352-21.71,2.6157
				c-3.1836,2.3027-10.373,6.0732-19.9062,2.4209c-1.2373,2.6348-3.0459,4.9932-5.3291,6.8877
				c-5.1807,4.2988-13.5723,6.4678-21.4453,2.6187c-0.0117,0.249-0.0273,0.498-0.0469,0.7476
				c-0.4346,5.3276-2.9834,10.2593-7.0781,13.6948c-8.6064,7.2188-18.5029,5.9507-27.9277,1.854
				c-0.7705,4.6948-3.1982,8.9883-6.8799,12.0776c-3.2666,2.7407-7.7197,4.5923-12.5928,4.6865
				c-1.8604,0.4795-3.7715,0.6841-5.6777,0.6196c-2.5713,0.6826-5.416,0.8999-8.4004,0.4009
				C162.6607,255.793,160.354,256.3105,157.7408,256.311z"/>
		</g>
	</g>
	<g>
		<g>
			<path fill="#F2F6F9" d="M92.4556,234.2568c-3.9707,0-8.6465-1.1108-13.9932-4.1753c-0.7539-0.4321-1.5479-0.9126-2.3838-1.4443
				c-8.0439,3.8594-17.9717,1.9614-23.9668-5.1841c-1.5322-1.8267-2.6826-3.8477-3.46-5.9639
				c-5.3486-7.3638-25.0225-29.7256-41.7188-47.9097c-6.7383-7.3379-6.9824-18.396-0.9043-25.998
				c-3.5088-5.7412-4.792-10.1553-4.4736-15.2305c0.3506-5.604,3.001-10.8726,7.2705-14.4546
				c2.5732-2.1592,5.5596-3.5737,8.6748-4.2378c-1.6416-3.1504-2.3975-6.3833-2.1436-10.4146
				c0.3447-5.4614,2.9346-10.5947,7.127-14.1123c4.3359-3.6367,9.7998-5.1377,15.0605-4.5562
				c-0.5303-6.4595,2.0879-13.0435,7.5371-17.3472c0.6133-0.4849,1.2471-0.9282,1.8975-1.3301
				c0.2031-0.1855,0.4102-0.3672,0.6211-0.5444c4.2246-3.5444,9.5146-5.2251,15.0068-4.8862
				c1.2822-3.1074,3.2949-5.8706,5.9414-8.0913c4.4941-3.77,10.1924-5.2417,15.6162-4.4878
				c1.0986-1.7495,2.4717-3.3335,4.082-4.6851c6.2402-5.2334,14.8281-6.0498,21.791-2.5723
				c1.0215-1.4966,2.249-2.8608,3.6602-4.0454c4.6084-3.8672,10.5488-5.6631,16.7256-5.0537
				c0.9756,0.0962,1.9609,0.2437,2.9746,0.4619c6.5293-2.624,14.1455-1.6553,19.8506,2.856
				c4.5967-2.8374,13.9102-6.2295,25.957,1.5762c0.1836,0.1187,0.3682,0.2402,0.5537,0.3643
				c4.5479-0.7832,10.3457-0.2305,17.0078,3.8281c2.8135,1.7134,5.9355,4.085,9.8252,7.4639
				c0.3916,0.3398,0.791,0.6904,1.1982,1.0513c5.2461-0.9106,10.752,0.2979,15.1797,3.5195
				c3.9707,0.7979,7.7275,2.8032,10.6748,5.9697c5.252-0.6763,10.7139,0.7285,15.0674,4.2212
				c7.4658-2.3223,15.9219-0.1187,21.2617,6.2422c1.0986,1.3086,2.001,2.7168,2.71,4.1885
				c3.0557,3.6626,10.8975,12.0298,16.8154,18.3438c33.3555,35.5898,39.2373,42.8482,38.5449,54.4038
				c-0.1768,2.9526-0.9844,5.8135-2.3281,8.3892c2.1338,3.583,3.1094,7.77,2.7402,11.9775
				c-0.2568,2.9365-1.1562,5.7495-2.6025,8.2544c0.209,3.6685-0.5908,7.373-2.373,10.667c-1.0967,3.7778-3.293,7.1797-6.3516,9.7471
				c-0.6396,0.5366-1.3232,1.0396-2.0439,1.5024c-1.0889,3.9717-3.3643,7.5747-6.5342,10.2344
				c-2.0547,1.7241-4.5898,3.104-7.3916,3.9146c-0.6982,0.7871-1.458,1.5273-2.2783,2.2153
				c-4.96,4.1621-11.3926,5.5225-17.3037,4.1787c-0.1826,0.165-0.3682,0.3267-0.5576,0.4854
				c-4.1211,3.457-9.4658,5.1074-14.8115,4.5825c-1.0459-0.103-2.0742-0.2871-3.0781-0.5483
				c-6.542,3.3481-14.4854,2.8423-20.5664-1.4165c-0.8955,1.1821-1.9277,2.27-3.082,3.2388
				c-5.1768,4.3442-12.1387,5.7681-18.7109,3.9658c-0.8555,1.0581-1.8193,2.041-2.8867,2.936
				c-6.1572,5.1685-16.9971,7.2793-26.2334-0.2939c-0.5918-0.4844-1.249-1.0591-2.0352-1.7788
				c-0.8398,1.0635-1.792,2.0479-2.8457,2.9321c-4.4473,3.7324-10.0986,5.5034-15.9912,5.0259
				c-7.25,0.9346-14.5479-1.7607-20.2031-4.8481c-1.582-0.8633-3.2705-1.8633-5.0742-3.0063
				c-0.9482,1.2568-2.0459,2.4146-3.2822,3.4521c-7.207,6.0464-17.6514,6.252-25.0898,0.4985l-6.5254-5.0469
				c-1.2002,2.3076-2.8525,4.3828-4.8857,6.0894C103.0904,231.5752,98.6236,234.2563,92.4556,234.2568z M273.5943,71.5005
				c0.7812,2.2979,1.1279,4.6997,1.0508,7.084C274.7906,76.2163,274.4908,73.8037,273.5943,71.5005z"/>
		</g>
	</g>
</g>
<g id="Layer_2">
	<path fill="#E93A1D" d="M196.8282,149.2393c4.5005,1.2319,8.5975,3.9814,12.8607,5.7882
		c5.1124,2.1667,13.5746-1.3884,17.0917-5.3533c1.846-2.0811,3.4586-4.5314,4.9169-6.8645
		c1.2406-1.9848,2.2493-4.3175,2.6879-6.6166c0.2339-1.2259,0.7901-5.0793-0.4523-5.3661c0.3051,0.0704-3.0305,4.5057-3.3071,4.7823
		c-1.6917,1.692-3.5194,3.2757-5.5373,4.5689c-3.6322,2.3278-8.1463,3.7712-12.2346,1.698
		c-8.1744-4.1454-13.8213-11.7768-19.73-18.2598c0.5167,0.5669,0.1422,5.7496,0.409,6.9124
		c0.8714,3.7979,2.6577,7.8612,5.0958,10.9185c0.9812,1.2304,2.0582,2.498,2.8466,3.812c0.1695,0.2825-7.5605,3.1921-8.3219,3.399
		C194.4921,148.7211,195.7002,148.9305,196.8282,149.2393z"/>
	<path fill="#FFEFAF" d="M227.5174,145.0586c-3.4716,6.4879-18.848,10.0203-21.6146,1.0856
		c0.5294,0.036,0.8005-0.2637,1.2667-0.2989c0.0798-0.1966,0.1954-0.6008,0.2265-0.7891c-1.3462-1.5789-3.4263-2.2463-4.8923-3.8838
		c-1.0894-1.2168-2.1783-2.5724-3.0843-3.9115c-1.631-2.4112-3.1992-4.8162-4.05-7.6434c-0.342-1.1364-0.6387-2.9719-1.3747-3.8331
		c-0.7867,2.4768,0.3624,4.9481,1.2731,7.2151c1.04,2.5889,2.1187,5.0628,3.0435,7.7134c0.4753,1.3622,6.1503,7.5028,4.6771,8.0896
		c-0.2631,0.1048-1.9626-0.8652-2.3544-0.9908c-0.9697-0.311-2.2664-0.5604-3.2854-0.4498
		c-0.1141,0.0124-2.4112,0.5717-2.1523,0.7373c1.478,0.9453,3.7504,0.5846,5.3882,1.3616c1.5915,0.7551,2.9388,2.1315,4.4572,3.0044
		c3.4973,2.0103,9.0145,3.1865,12.981,2.2725c4.2839-0.9871,13.2431-7.3239,12.2575-12.5971
		C228.9697,142.2934,228.2099,143.7643,227.5174,145.0586z"/>
	<path fill="#E93A1D" d="M133.0611,134.1771c2.3554-0.2466,4.8179-1.4183,7.3149-0.8244c1.6035,0.3814,2.8608,1.9814,4.5869,2.1759
		c2.0687,0.2331,3.4701-1.204,5.3955-1.6951c3.4444-0.8785,5.8583,0.9905,8.4108,2.9873c1.0493,0.8209,3.5614,3.8754,4.9287,2.8453
		c2.5582-1.9273-2.6561-5.8227-4.0773-6.5839c-4.6046-2.4661-9.0268-0.4045-13.5776-2.3611
		c-2.3719-1.0198-5.3341-1.9286-7.903-1.1474C136.9418,129.938,131.7909,132.8816,133.0611,134.1771z"/>
	<path fill="#E93A1D" d="M630.018,47.8712c0.5579-1.2305,0.9853-2.7851,1.4768-4.6126c2.138-7.949,11.7718-27.5017,22.3214-26.7353
		c5.3378,0.3878,0.1359,7.9924-0.6909,11.292c-1.5953,6.3669-3.951,18.757,1.8374,23.1652
		c3.902,2.9716,10.6478,1.6502,15.1426,4.3594c2.9916,1.8032-13.11,8.9483-13.7444,9.285
		c-5.6945,3.0225-3.8221,8.9477-3.4791,14.6452c0.3302,5.4882,1.7245,11.091,1.2607,16.5804
		c-7.6454-0.147-14.9974-7.6238-17.9165-14.021c-1.8067-3.9595-2.1859-14.5947-7.0126-15.9639
		c-3.7716-1.0699-12.2667,3.8344-15.5392,5.5479c-0.4022-5.6706-0.105-11.6399,0.7951-17.0775
		c1.1048-6.6738,3.0603-4.3837,8.7486-3.433C627.1687,51.5632,628.8699,50.4032,630.018,47.8712z"/>
	<path fill="#FFEFAF" d="M653.2411,95.5813c-0.6833,2.237-5.268,0.1436-6.8732-1.0296c-3.7507-2.7411-8.9362-9.1495-11.4093-13.2667
		c-2.5658-4.2716-2.2396-13.8107-9.4821-12.787c-2.5254,0.3575-4.367,2.864-6.5656,3.9577
		c-1.0467,0.5207-5.3979,1.9929-6.0259,0.6474c-0.2784-0.5965-0.006-3.2633-0.0434-4.0131
		c-0.2416-4.8351-0.2857-9.0301,0.348-13.7576c0.4603-3.4339,1.2643-6.6259,5.4879-6.4073c2.6307,0.1362,6.139,2.5929,8.7302,1.6959
		c3.8519-1.3334,2.4941-7.0012,3.4395-10.1966c0.6859-2.3183,1.8147-5.5772,2.9396-7.779
		c2.3769-4.6521,3.8999-8.3175,8.6586-11.0972c3.0812-1.7999,7.9202-5.4715,11.6586-5.1662
		c-0.1592,3.0099-12.5029,6.2099-9.0724,9.3174c-3.157-1.648-6.6357,3.286-3.5634,5.6589c-2.5203,0.4873-7.6383,5.406-2.4366,6.2841
		c-4.8145-0.8128-5.7735,5.8594-1.3927,6.9763c-6.5568,0.34-5.5732,6.3947,0.4254,7.0655c-3.3383,2.273-7.5735,2.0151-11.392,1.5584
		c-2.2685-0.2714-7.7819-2.1086-9.4429-0.2362c-1.4414,1.6247,0.434,4.3363,2.3375,4.1624
		c-1.6714,1.0223-4.6006,1.9263-3.0706,4.4184c0.9325,1.5188,2.0326,0.915,3.423,1.0547c-1.396,0.7696-6.1034,5.3676-2.3857,6.2995
		c2.0665,0.5181,4.4766-2.4041,6.2134-3.3306c2.3638-1.2609,4.8058-3.0611,7.5615-3.2776c6.3436-0.497,11.8937,2.869,18.4351,1.1538
		c3.1639-0.8296,17.5519-7.6081,19.3585-5.5708c-4.7237,5.8343-8.1152,7.8251-15.6545,8.1055
		c-4.3701,0.1625-8.7267,0.6964-13.0588,1.1079c-1.4168,0.1346-4.1533-0.7168-4.5543,1.5458
		c-0.3646,2.0573,2.4551,3.0324,3.9767,3.2558c-3.6131,2.7368-0.1648,5.8475,2.446,7.3604
		c-2.8002,1.5688-2.6771,6.0101,1.3847,5.5622c-3.3237,0.3665,0.8243,6.2388,1.914,6.9574
		C647.2789,92.9478,654.0445,92.9505,653.2411,95.5813z"/>
	<g>
		<g>
			<path fill="#303030" d="M133.6005,133.4482c3.7954-4.4006,10.8604-5.0274,14.7846-0.4285
				c0.2102,0.2463,0.5916,0.2455,0.8564,0.1105c5.8929-3.0025,12.7405,0.5721,14.8053,6.5235
				c0.2727,0.7859,1.403,0.4728,1.243-0.3427c-1.4124-7.1997-10.59-10.6219-16.7617-7.4013
				c0.2855,0.0368,0.5709,0.0737,0.8564,0.1105c-4.19-4.8148-12.9891-4.7271-16.4374,0.9237
				C132.7061,133.3391,133.2868,133.8119,133.6005,133.4482L133.6005,133.4482z"/>
		</g>
	</g>
	<g>
		<g>
			<path fill="#303030" d="M218.5083,143.2425c4.1963-0.4693,8.3618-1.161,12.5258-1.8542c-0.2625-0.2625-0.525-0.525-0.7875-0.7875
				c-1.0397,7.6661-7.9753,13.4613-15.5642,14.0608c-4.1112,0.3248-7.4337-1.2893-10.8817-3.3202
				c-3.1603-1.8614-6.3196-3.5936-10.0865-2.8922c0.219,0.3762,0.438,0.7524,0.657,1.1286c1.4315-1.7651,3.339-2.2295,5.5101-1.6954
				c0.7876,0.1937,1.034-0.8866,0.3255-1.1809c-2.4726-1.0269-5.1455-0.1094-6.7906,1.9213
				c-0.4288,0.5293-0.0313,1.2572,0.657,1.1286c5.1541-0.9625,9.2561,3.4482,13.7192,5.2229
				c3.3036,1.3137,6.9958,1.3467,10.3998,0.4002c6.8156-1.8952,12.3633-7.4979,13.3119-14.6037
				c0.0605-0.4533-0.4551-0.6772-0.8104-0.6173c-4.1107,0.6932-8.2237,1.3867-12.2921,2.3005
				C217.969,142.5512,218.0533,143.2933,218.5083,143.2425L218.5083,143.2425z"/>
		</g>
	</g>
	<g>
		<g>
			<path fill="#303030" d="M219.7178,143.4422c-10.9753-3.8919-20.0483-11.7453-25.2565-22.1827
				c-0.2484-0.4977-1.1509-0.4135-1.2451,0.1627c-1.4176,8.668,1.2817,19.7188,8.7018,25.1726
				c0.5206,0.3826,1.0058-0.4066,0.6461-0.8374c-2.9008-3.4745-5.5045-6.6484-6.9817-11.0181
				c-1.4133-4.1804-1.7706-8.6042-1.0525-12.9549c-0.415,0.0542-0.8301,0.1085-1.2451,0.1627
				c5.3064,10.6737,14.7489,18.9882,26.112,22.659C220.142,144.8468,220.4428,143.6993,219.7178,143.4422L219.7178,143.4422z"/>
		</g>
	</g>
	<g>
		<g>
			<path fill="#303030" d="M222.0664,142.2958c5.414-2.6977,9.848-6.8142,13.303-11.7506c-0.3581-0.097-0.7163-0.194-1.0744-0.291
				c0.104,4.1225-1.1018,7.7276-3.2692,11.197c-0.3607,0.5774,0.5018,1.0354,0.8905,0.5205
				c2.5447-3.3718,3.6404-7.5273,3.5319-11.7175c-0.0155-0.5978-0.7535-0.7501-1.0744-0.291
				c-3.3653,4.8152-7.7054,8.6035-12.7036,11.6547C221.2354,141.8832,221.6165,142.5199,222.0664,142.2958L222.0664,142.2958z"/>
		</g>
	</g>
	<g>
		<g>
			<path fill="#303030" d="M618.9942,50.2533c2.8295,0.8184,6.5388,2.7389,9.2272,0.581c3.3733-2.7077,3.188-8.2872,4.3221-12.076
				c3.2009-10.6934,12.7095-19.6814,23.929-20.864c-0.2183-0.2865-0.4366-0.5731-0.6548-0.8596
				c-4.0906,11.6672-5.6154,23.4786-2.58,35.5747c0.0676,0.2695,0.3867,0.5612,0.6855,0.5219
				c3.3862-0.4446,6.9337-0.5947,10.2462,0.3906c2.923,0.8694,5.3487,2.8189,8.3376,3.5375c0-0.4549,0-0.9099,0-1.3648
				c-4.4174,1.1355-6.7435,5.3005-10.8503,6.8745c-2.9457,1.129-7.3477-0.0267-8.5675,3.7696
				c-0.54,1.6806-0.483,3.5607-0.5338,5.3023c-0.0722,2.4794-0.321,4.9447-0.3331,7.4282
				c-0.0294,6.0202,0.6856,12.0102,1.6122,17.9494c0.2907-0.2907,0.5814-0.5814,0.8721-0.8721
				c-7.5076-1.8126-13.8814-5.0517-17.5328-12.2224c-1.7762-3.4882-1.928-7.7338-3.2203-11.4138
				c-0.9791-2.7882-2.6498-6.062-6.0045-6.2242c-5.709-0.276-9.5961,5.8697-15.1014,6.5755c0.246,0.246,0.492,0.492,0.738,0.7379
				c-0.2181-4.8807-0.1318-9.7653,0.0666-14.6452c0.0867-2.1332,0.3373-4.305,0.2687-6.4386
				c-0.026-0.8092-0.2278-1.0858,0.3239-1.6562c1.0859-1.1227,3.3821-0.6422,4.677-0.3436
				c0.9137,0.2107,1.3038-1.1951,0.3878-1.4069c-1.8893-0.4368-4.5805-0.8027-6.2073,0.6154
				c-1.0432,0.9094-0.6362,2.0738-0.6405,3.3285c-0.0239,6.8625-0.6554,13.6705-0.3521,20.5465
				c0.0159,0.3599,0.3274,0.7903,0.7379,0.7379c2.474-0.3157,4.5612-1.4098,6.6553-2.7224
				c2.3683-1.4844,5.0945-3.7871,8.0256-3.8468c4.3702-0.089,5.4789,6.4521,6.239,9.6474
				c1.0389,4.3679,2.0606,7.7438,4.8591,11.3794c3.9149,5.0859,9.6487,7.2678,15.7031,8.7186
				c0.567,0.1359,0.9549-0.342,0.8721-0.8721c-0.8357-5.352-1.4803-10.7414-1.5557-16.1637
				c-0.0565-4.0666-0.1188-8.6376,0.5595-12.6703c0.7103-4.2229,5.6422-2.7324,8.6422-4.2083
				c3.6586-1.7999,5.9501-5.4912,10.0355-6.5399c0.6672-0.1713,0.6813-1.2008,0-1.3648c-3.2527-0.7832-5.9139-2.9737-9.1741-3.7588
				c-3.2023-0.7712-6.5459-0.6508-9.7859-0.2264c0.2285,0.174,0.457,0.348,0.6855,0.5219
				c-2.9703-11.853-1.4702-23.4029,2.5185-34.8357c0.1351-0.3872-0.2292-0.9051-0.6548-0.8596
				c-9.3696,1.0022-16.8882,6.574-21.6894,14.5177c-2.4331,4.0258-3.6827,7.8712-4.6202,12.4478
				c-0.5356,2.6148-1.2585,6.4286-4.2751,7.113c-2.1061,0.4778-4.6353-0.72-6.6505-1.2427
				C618.6671,49.224,618.4289,50.0898,618.9942,50.2533z"/>
		</g>
	</g>
	<g>
		<g>
			<path fill="#FFFFFF" d="M119.6182,148.2721c1.5581,0.9144,3.3012,0.4423,5.016,0.6522c2.0187,0.2471,3.9459,1.0032,5.6578,2.0881
				c3.3609,2.1298,5.885,5.6511,6.285,9.6655c0.1536,1.5413,1.7547,2.8288,3.2655,1.8739
				c4.7285-2.9886,10.4538-3.9827,15.8957-2.5744c4.7823,1.2375,11.1925,5.2926,10.3958,11.0706
				c-0.2698,1.9568,1.3821,3.3308,3.2341,2.4862c3.7893-1.7281,8.4184-1.4344,11.8501,0.9872
				c3.5218,2.4853,4.3132,5.9587,5.2752,9.8875c0.4497,1.8365,3.6695,2.0622,3.9475,0c0.7163-5.3133-2.7066-10.7893-6.991-13.7056
				c-4.8542-3.3042-11.0837-3.3599-16.3042-0.9711c1.078,0.8287,2.1561,1.6575,3.2341,2.4862
				c1.0262-7.5131-4.6627-13.2878-11.2987-15.7726c-7.0239-2.63-15.1387-1.6628-21.4292,2.3581
				c1.0885,0.6246,2.177,1.2492,3.2655,1.8739c-0.5514-5.2634-3.3124-9.7615-7.6414-12.8034
				c-2.1146-1.4859-4.5991-2.547-7.1473-2.9913c-2.1391-0.373-5.2954-0.7941-6.7997,1.1435
				C118.7743,146.7409,118.7456,147.7601,119.6182,148.2721L119.6182,148.2721z"/>
		</g>
	</g>
	<g>
		<g>
			<path fill="#FFFFFF" d="M192.0864,173.8733c0.0047,0.1118,0.0094,0.2235,0.0141,0.3353
				c0.2416-0.4211,0.4831-0.8423,0.7247-1.2634c0.3801,0.121,0.7601,0.2421,1.1402,0.3631c0.057,0.4355,0.1139,0.8709,0.1709,1.3064
				c0.1936-1.1617,2.4473-2.2921,3.3148-2.8472c1.1613-0.7431,2.3706-1.4088,3.6252-1.9812
				c2.4853-1.1339,5.1442-1.9167,7.8089-2.4962c4.1718-0.9073,13.3364-2.1048,13.5366,4.4704
				c0.0649,2.1321,3.0761,3.1521,4.166,1.1284c2.5105-4.6614,7.2617-7.1056,12.212-8.4457
				c5.4155-1.4661,12.476-2.3637,15.0203,3.8583c0.7949,1.9438,3.9363,1.8977,3.9132-0.5296
				c-0.0323-3.3934-2.4948-6.1239-5.43-7.5788c-3.8125-1.8897-8.2106-1.4823-12.2474-0.6651
				c-6.8939,1.3958-13.8737,4.6633-17.3288,11.1042c1.3887,0.3761,2.7773,0.7522,4.166,1.1284
				c-0.1339-4.17-3.0051-7.5484-6.9003-8.8954c-4.6581-1.6107-10.0966-0.4335-14.69,0.8674
				c-4.5771,1.2963-9.0551,3.3671-12.5823,6.6139c-1.1926,1.0978-2.6884,2.726-1.7683,4.4708
				c0.681,1.2913,2.212,1.4615,3.3499,0.6548c0.3967-0.2812,0.7788-0.7328,0.7247-1.2634
				c-0.0114-0.1118-0.0228-0.2235-0.0342-0.3353C194.8069,172.0514,192.0062,171.9722,192.0864,173.8733L192.0864,173.8733z"/>
		</g>
	</g>
	<g>
		<g>
			<path fill="#FFFFFF" d="M139.6622,187.6674c0.818-3.4672,10.1799-0.6397,12.2852-0.0419
				c5.1395,1.4593,8.3749,4.3258,10.8088,8.9987c0.751,1.4419,3.3097,0.8291,3.1592-0.8557
				c-0.6573-7.3566-8.6011-11.1774-14.9821-12.4904c-4.5428-0.9347-13.7013-2.8147-14.5857,3.9407
				C136.0996,189.1123,139.2313,189.4939,139.6622,187.6674L139.6622,187.6674z"/>
		</g>
	</g>
	<g>
		<g>
			<path fill="#FFFFFF" d="M179.3895,191.4289c-0.7193-0.3158,2.315-2.0244,2.4732-2.1039
				c0.7839-0.3943,1.5845-0.7477,2.4019-1.0669c1.6348-0.6385,3.3221-1.1393,5.0408-1.4957
				c3.2572-0.6753,6.6327-0.7835,9.9385-0.4359c6.9321,0.729,13.5025,3.7498,18.4523,8.6604
				c2.0577,2.0414,5.1269-1.0567,3.1703-3.1703c-2.623-2.8336,6.3612-3.9805,7.3961-4.0642
				c3.8212-0.3089,7.5382,0.2541,11.3273,0.632c2.2652,0.2259,2.3305-2.9981,0.5005-3.6984
				c-5.5048-2.1066-13.0507-2.1655-18.624-0.1911c-4.3336,1.5353-7.4236,6.5862-3.7703,10.492
				c1.0568-1.0568,2.1136-2.1136,3.1703-3.1703c-6.9807-6.8541-16.7891-10.4518-26.5502-9.9659
				c-4.694,0.2336-9.368,1.3508-13.5703,3.476c-1.9055,0.9637-4.4313,2.228-5.0205,4.4918
				c-0.5134,1.9725,0.6771,3.7247,2.6346,4.0522C179.7167,194.0976,180.8913,192.0884,179.3895,191.4289L179.3895,191.4289z"/>
		</g>
	</g>
	<g>
		<g>
			<path fill="#FFFFFF" d="M559.7535,90.7663c4.062,0.0719,15.5189,0.4015,12.7834,6.9313
				c-0.7164,1.7101,1.5623,3.0266,2.941,2.2609c2.8718-1.5947,6.2359-3.0199,9.449-1.5455
				c3.0063,1.3795,5.1849,4.4284,7.0918,6.9974c1.5893,2.1412,4.8201,0.349,3.6146-2.1128
				c-1.0439,1.9806-1.1884,2.7373-0.4332,2.2704c0.1013-0.0466,0.124-0.0624,0.0684-0.0475
				c0.2222,0.0071,0.7497-0.2381,0.963-0.2964c0.7601-0.2079,1.5391-0.3532,2.3143-0.4921c1.7241-0.309,3.465-0.5296,5.2089-0.6902
				c4.3275-0.3985,9.105,1.3939,11.6822,5.0043c1.5561,2.1799,4.9457,0.3045,3.6414-2.1284
				c0.0568,0.1059,0.0549,1.3053,0.0082,1.274c0.0532,0.0356,0.0165-0.1075,0.1475-0.0884c0.2605,0.038,1.045-0.5882,1.3138-0.7128
				c1.2437-0.5764,2.5774-0.982,3.8896-1.3696c2.962-0.8747,6.0138-1.5825,9.0737-2.0148c2.9601-0.4182,4.3677,0.049,7.1591,1.8299
				c3.8997,2.4878,7.1585,6.661,5.853,11.4756c-0.7126,2.6283,3.2076,3.6715,4.053,1.1174
				c1.9772-5.9736-1.6463-11.7463-6.324-15.2584c-3.586-2.6925-7.0961-3.935-11.4667-3.3086
				c-3.2788,0.4699-20.7153,2.9215-17.3486,9.1841c1.2137-0.7095,2.4276-1.419,3.6414-2.1284
				c-3.8165-5.3336-10.2169-7.6563-16.5806-6.9451c-2.4097,0.2693-12.8655,0.6923-10.4789,5.438
				c1.2049-0.7043,2.4098-1.4086,3.6146-2.1128c-2.6031-3.4505-5.4537-7.231-9.6204-8.8504
				c-4.3138-1.6766-8.7312-0.1094-12.5561,2.054c0.9803,0.7536,1.9607,1.5073,2.941,2.2609
				c4.0896-9.9793-10.0308-11.796-16.6445-11.777C557.3185,86.9921,557.3191,90.7232,559.7535,90.7663L559.7535,90.7663z"/>
		</g>
	</g>
	<g>
		<g>
			<path fill="#FFFFFF" d="M579.6624,68.6915c4.8083-2.5802,11.0862-1.6434,15.1542,1.9201
				c4.3572,3.8168,5.9046,9.8012,5.5511,15.3986c-0.0831,1.3145,1.3233,2.1969,2.4957,1.9012
				c3.3828-0.8532,6.8472-0.8642,10.2182,0.0789c0.9583,0.2681,9.5936,3.8088,6.7356,5.6229
				c-1.702,1.0803-0.6397,3.9135,1.4026,3.3271c2.2425-0.6439,3.4975-2.7896,3.0685-5.1042
				c-0.4739-2.5571-2.6703-4.229-4.7919-5.4597c-5.3497-3.1032-11.7306-3.8169-17.6812-2.2672
				c0.8319,0.6337,1.6638,1.2674,2.4957,1.9012c0.3887-7.0096-2.0182-14.4313-7.7897-18.7696
				c-5.2638-3.9567-12.6847-4.6339-18.152-0.7617C577.0395,67.4205,578.1861,69.4837,579.6624,68.6915L579.6624,68.6915z"/>
		</g>
	</g>
	<g>
		<g>
			<path fill="#FCE0DE" d="M129.2265,143.698c1.7472,0.504,3.6879,0.754,5.2077,1.8379c1.5553,1.1092,2.8832,2.7421,4.0827,4.2099
				c2.0016,2.4494,4.5697,4.5887,7.7715,2.9333c1.5355-0.7938,1.3594-3.7156-0.5188-3.9695
				c-1.0409-0.1407-1.8489-0.3456-2.683-1.0362c0.1875,0.7093,0.375,1.4187,0.5625,2.128c0.0357-0.1165,0.0714-0.233,0.1071-0.3496
				c-0.3349,0.4355-0.6698,0.871-1.0047,1.3066c-0.6826,0.1571-0.4969,0.3217,0.557,0.4939
				c0.6192,0.2387,1.2384,0.4774,1.8576,0.716c0.9288,0.358,1.8558,0.7209,2.7864,1.0741c2.1701,0.8235,4.3475,1.5901,6.6239,2.0626
				c1.8041,0.3745,2.9583-2.0365,1.2823-3.0415c-3.2763-1.9646-6.9259-3.2412-10.4668-4.6414
				c-2.1833-0.8633-5.0384-1.7401-5.961,1.2164c-0.2124,0.6806-0.0103,1.661,0.5625,2.128
				c1.6125,1.3148,3.1423,1.9469,5.1988,2.2091c-0.3654-1.349-0.7308-2.698-1.0961-4.0471
				c-0.7859,0.4139-2.803-2.5841-3.2397-3.0716c-0.9482-1.0586-2.0849-1.9615-3.3565-2.5975
				c-2.3787-1.1896-5.2155-2.4014-7.9247-2.1396C128.161,141.2566,127.7228,143.2643,129.2265,143.698L129.2265,143.698z"/>
		</g>
	</g>
	<g>
		<g>
			<path fill="#FCE0DE" d="M226.4617,161.8005c-4.6488-1.4763-9.9804-1.3449-14.8048-1.9278
				c-2.4884-0.3007-5.0409-0.9828-7.5516-1.0198c-2.3496-0.0346-4.1767,0.8786-6.0696,2.1828
				c-1.9524,1.3452-3.9151,2.5059-6.2082,3.1778c-0.5397,0.1581-1.0835,0.2958-1.6352,0.4058
				c-0.8961,0.1786-1.5243-0.1633-1.2843,0.816c0.2478,1.0114,1.1909-0.4276,1.623-1.0194
				c1.6644-2.2795,1.2485-6.0711-2.1002-6.1785c-2.8242-0.0905-2.7201,4.0602,0,4.3242c3.7457,0.3635,7.4578,0.3115,11.192-0.1566
				c-0.1901-1.4046-0.3802-2.8093-0.5703-4.2139c-2.4901,0.3528-4.9801,0.7056-7.4702,1.0584
				c-2.1117,0.2992-4.7448,0.255-6.701,1.1306c-1.5401,0.6893-2.0617,1.9788-1.9362,3.5874c0.191,2.4477,1.057,4.9942,1.5818,7.3925
				c0.227,1.0374,1.4992,1.7509,2.5028,1.421c4.0479-1.3307,8.1495-2.5301,12.0551-4.2377c1.911-0.8355,0.4957-3.6328-1.3605-3.2271
				c-4.0012,0.8745-7.8772,2.2908-11.7763,3.541c0.8343,0.4737,1.6685,0.9474,2.5028,1.421
				c-0.3899-1.846-0.4955-4.1141-1.2342-5.8432c-0.0686-0.3246-0.1371-0.6492-0.2057-0.9739
				c-0.6923,0.6654-0.7589,0.9103-0.1998,0.7347c0.4308,0.2366,2.0956-0.3025,2.635-0.3773
				c3.5823-0.4967,7.1647-0.9935,10.747-1.4902c2.368-0.3283,1.8333-4.508-0.5703-4.214c-3.7353,0.4569-7.4474,0.4977-11.192,0.123
				c0,1.4414,0,2.8828,0,4.3242c-0.6489-1.1279-1.1327-1.3408-1.4515-0.639c-0.3239,0.2825-0.6197,0.5918-0.8876,0.928
				c-0.4958,0.5951-0.9619,1.2765-1.1861,2.0276c-0.43,1.4402,0.0496,3.0013,1.3507,3.8164
				c2.9238,1.8315,8.4705-0.7389,11.1021-2.1815c1.815-0.995,3.3263-2.605,5.2292-3.4207c2.3847-1.0223,5.5986-0.3652,8.1059-0.1295
				c5.0183,0.4718,10.3782,1.8725,15.4152,1.4463C227.5737,164.2853,227.9451,162.2715,226.4617,161.8005L226.4617,161.8005z"/>
		</g>
	</g>
	<g>
		<g>
			<path fill="#FCE0DE" d="M649.9103,103.7627c-7.2838-4.7454-15.7351-8.6754-24.5714-9.0501
				c0.561,0.9777,1.1221,1.9555,1.6832,2.9332c2.9092-4.7846,1.2978-11.3322-3.5602-14.1571
				c-2.2874-1.3302-4.9879-1.7952-7.5723-2.1507c-2.5501-0.3508-5.9186-0.558-7.476-2.9502
				c-0.6001,0.7806-1.2003,1.5613-1.8004,2.3419c4.3926,1.6972,8.3409,4.1867,12.2452,6.7872
				c1.7073,1.1372,3.4245,2.2582,5.1158,3.4188c0.7819,0.5366,1.8297,1.0952,2.348,1.9317
				c0.4809,0.7761,0.5326,1.8692,0.9222,2.7076c2.4284,5.2258,9.3973,4.1371,13.1549,7.7639c1.6611,1.6032,3.8075-0.4106,2.994-2.31
				c-1.1919-2.7827-4.4895-3.7262-7.1652-4.4697c-1.2568-0.3493-2.5997-0.6314-3.7805-1.2054
				c-1.7286-0.8402-1.8348-2.1316-2.6102-3.7231c-1.6023-3.2888-6.3724-5.0678-9.3758-6.8566
				c-4.1285-2.4589-8.2294-4.9846-12.6199-6.9583c-1.3781-0.6195-3.0433,0.6944-2.1812,2.1812
				c2.3359,4.0289,6.6555,4.8452,10.9112,5.6987c2.1893,0.4391,4.7319,0.8895,6.3032,2.6234
				c1.8338,2.0235,2.0406,5.001,0.7809,7.3589c-0.6816,1.2757,0.1573,2.9534,1.6832,2.9332
				c8.528-0.1128,15.6707,4.062,23.2386,7.4315C650.1065,106.7235,651.3633,104.7094,649.9103,103.7627L649.9103,103.7627z"/>
		</g>
	</g>
	<g>
		<g>
			<path fill="#FCE0DE" d="M589.9601,95.5233c2.9117,3.6817,7.9846,5.1021,12.553,4.588c1.3304-0.1497,2.663-0.6008,4.0063-0.4666
				c1.2556,0.1254,2.0967,0.8068,3.0211,1.6189c1.5583,1.3692,2.9423,2.689,4.9925,3.2651
				c0.8181,0.2299,1.5795-0.1675,2.0375-0.8292c2.7698-4.0016-1.7255-7.8754-5.1268-9.3071
				c-2.2623-0.9522-4.63-1.3004-7.0746-1.2447c-2.8737,0.0654-5.8583,0.6657-8.4366-0.9296
				c-0.5526,1.3109-1.1053,2.6217-1.6579,3.9326c2.613,0.6542,5.2551,0.7451,7.9005,0.2068
				c1.2355-0.2514,2.4185-0.668,3.5629-1.1939c1.341-0.6162,2.0497-1.4667,2.9846-0.0052c1.2017,1.8788,1.5505,3.8702,3.4431,5.2916
				c1.7534,1.3169,3.8265,1.4933,5.4473-0.0943c1.2419-1.2164-0.0174-3.7033-1.7787-3.0555
				c-1.8491,0.6801-2.72-3.1322-3.4147-4.3028c-0.8474-1.4279-2.0737-2.723-3.761-3.0554
				c-1.9714-0.3884-3.4863,0.8403-5.2067,1.5471c-2.5875,1.0632-5.3318,1.1552-8.0333,0.5121
				c-2.3533-0.5602-3.7836,2.6489-1.6579,3.9326c3.1774,1.9189,6.6426,1.6508,10.2034,1.4202
				c1.9424-0.1258,3.8725-0.2531,5.7589,0.3516c1.3937,0.4468,5.0995,2.1724,3.7318,4.1727
				c0.6792-0.2764,1.3584-0.5528,2.0376-0.8292c-1.8798-0.5166-3.0917-2.1546-4.5933-3.2979
				c-1.6278-1.2393-3.3472-1.8201-5.4067-1.6562c-2.4757,0.197-4.7559,0.9656-7.2759,0.5389
				c-2.4719-0.4185-4.7378-1.6422-6.8645-2.9143C590.1535,93.0028,589.1968,94.5582,589.9601,95.5233L589.9601,95.5233z"/>
		</g>
	</g>
</g>
</svg>
