<?xml version="1.0" encoding="utf-8"?>
<!-- Generator: Adobe Illustrator 20.1.0, SVG Export Plug-In . SVG Version: 6.00 Build 0)  -->
<svg version="1.1" xmlns="http://www.w3.org/2000/svg" xmlns:xlink="http://www.w3.org/1999/xlink" x="0px" y="0px"
	 viewBox="0 0 820 223" enable-background="new 0 0 820 223" xml:space="preserve">
<g id="site_bg">
</g>
<g id="back">
	<g>
		<g>
			<path fill="#F7FAFC" d="M498.2596,222.5237c-3.6064,0.0005-7.7764-0.9321-12.3721-3.561
				c-0.8838-0.5059-1.7939-1.0767-2.749-1.7261c-7.584,5.9771-18.5664,5.7188-25.877-0.9868l-5.9238-5.4331
				c-1.082,1.6914-2.4229,3.2256-3.9902,4.5405c-2.6182,2.1968-12.1787,8.7803-25.2559,1.2939
				c-2.001-1.145-4.2539-2.6748-7.0703-4.8013c-0.5127,0.6577-1.0723,1.2896-1.6777,1.8921
				c-7.3662,7.3267-19.1143,7.7944-27.0371,1.0767l-25.5479-21.6611c-1.0312,1.4814-2.2559,2.8301-3.6514,4.001
				c-11.9316,10.0127-25.3887,1.9688-29.8105-0.6753c-1.7178-1.0269-3.6377-2.2544-5.7842-3.6992
				c-1.2041,2.0913-2.7676,3.9746-4.6377,5.5439c-7.2969,6.1216-17.8975,6.25-25.3369,0.3057
				c-3.5176-2.8096-7.1992-5.7495-11.0039-8.7856c-1.0225,4.3911-3.4326,8.3789-6.8857,11.2769
				c-6.5654,5.5088-15.7061,6.1143-22.8164,2.0259c-3.9531,2.7212-12.9873,6.9053-24.6533-0.4609
				c-1.6455-1.0386-3.5127-2.3726-5.7949-4.1416c-0.8564,1.1196-1.8457,2.165-2.9648,3.1138
				c-1.2969,1.1001-13.0645,10.4292-26.6465-0.625l-3.0996-2.5269c-5.7979-4.728-11.3027-9.209-16.5391-13.4629
				c-1.2197,2.5547-2.9805,4.8462-5.1914,6.7012c-12.6592,10.6245-28.083,2.5205-39.9043-4.4014
				c-1.209,2.394-2.8994,4.5449-4.998,6.3047c-3.0723,2.5776-7.2061,4.3833-11.7373,4.666
				c-1.1641,0.3457-2.3525,0.5825-3.5498,0.7114c-2.085,0.8242-4.4111,1.353-6.8848,1.4194
				c-5.3867,2.9595-11.6494,3.084-18.6689,0.3594c-1.3779-0.5347-3.209-1.2915-5.5977-2.313
				c-1.873-0.8013-4.1221-1.7798-6.7305-2.9292c-1.1904,2.6274-2.9707,5.0381-5.3223,7.022
				c-8.4414,7.1211-21.0596,6.0493-28.1807-2.3936c0,0-7.4258-8.8042-14.8496-17.6289c-3.7197-4.4214-7.4395-8.8481-10.2275-12.1797
				c-1.416-1.6924-2.5967-3.1064-3.4219-4.103c-2.4336-2.937-6.5059-7.853-5.7939-16.0547
				c0.4609-5.3037,3.0176-10.2056,7.1035-13.6187c2.0586-1.7202,6.6494-4.8154,13.0967-4.6445
				c-1.541-3.6938-1.9141-6.7256-1.7559-9.9194c0.2881-5.8037,2.9805-11.2524,7.3857-14.9492
				c1.791-1.5029,3.7744-2.6406,5.8545-3.4175c0.4102-0.4121,0.8428-0.8091,1.2959-1.1909
				c0.3965-0.3335,0.8076-0.6523,1.2324-0.9551c0.4619-0.5361,0.9531-1.0488,1.4717-1.5347c1-1.4023,2.1768-2.6831,3.5107-3.8022
				c5.8906-4.9419,13.9512-5.9849,20.7637-3.0488c-0.3936-1.7886-0.5469-3.7354-0.3701-5.8926
				c0.4346-5.3276,2.9951-10.2837,7.0898-13.7192c2.3828-1.999,10.7998-7.853,22.2656-2.585
				c0.0039-0.0459,0.0068-0.0913,0.0117-0.1372c0.4619-5.2837,3.0039-10.1675,7.0674-13.5767
				c1.9814-1.6621,12.5312-9.4961,25.6885-0.46c0.5488,0.3765,1.1328,0.7988,1.7686,1.2793
				c1.0693-1.6802,2.4111-3.2275,4.0176-4.5762c2.0967-1.7598,13.2471-10.0071,26.8242,0.502
				c1.3066,1.0117,2.8691,2.3281,4.8984,4.1294c5.8105-2.9849,13.6914-3.4961,20.9629,1.4814
				c0.416,0.2847,1.0215,0.7163,1.7979,1.292c1.0947,0.8115,2.6807,2.0186,4.6865,3.5654
				c3.6045,2.7817,8.8496,6.8813,15.5898,12.1855c2.0703,1.6294,4.2891,3.3784,6.6523,5.2432
				c1.251-2.3428,2.9385-4.4468,4.9951-6.1724c7.4912-6.2866,18.4316-6.2329,25.8623,0.1284
				c0.3379,0.2896,0.6777,0.5806,1.0166,0.8706c0.8193-3.186,2.4365-6.21,4.8496-8.7573
				c6.8125-7.1899,17.7568-8.2441,25.7685-2.7808c0.9365-3.5166,2.8428-6.8154,5.6904-9.4688
				c6.5459-6.0964,16.1406-6.9883,23.5762-2.7227c1.2119-2.4133,2.9102-4.5808,5.0156-6.3484
				c7.2959-6.1248,17.8252-6.2158,25.2051-0.4163c1.2432-2.113,2.8467-4.0139,4.7754-5.6326
				c4.4697-3.751,11.585-6.2668,19.626-3.8726c0.75-0.8982,1.583-1.7351,2.4932-2.4985c5.332-4.4724,14.0908-6.6694,22.4512-2.2812
				c1.2227-2.8435,3.1016-5.3921,5.5166-7.4189c1.458-1.2231,7.3457-5.6152,15.6074-4.6101c0.21-0.2134,0.4258-0.4233,0.6475-0.6292
				c7.1133-6.6133,17.8066-7.0784,25.4219-1.4985c1.0293-2.5923,2.6182-5.0078,4.7627-7.0588
				c7.209-6.8945,18.2598-7.3491,25.9736-1.4346c0.96-1.3267,2.0811-2.5391,3.3457-3.6001
				c3.7539-3.1479,8.8398-4.9922,14.0957-4.6787c5.9648-0.8115,12.1797,1.0723,16.7451,5.5706
				c27.9082,27.4998,57.3399,56.2336,83.8203,81.8069c7.3047-4.2695,16.0566-3.4199,26.0752,2.5469
				c3.5957,2.1416,8.1875,5.2812,14.0391,9.5977c2.6104,1.9258,5.3623,4.0034,8.2109,6.188
				c8.3096-5.1348,19.3467-3.5298,25.8105,4.1743l36.9512,44.0361c7.0996,8.4604,5.9961,21.0737-2.4629,28.1733
				c-2.3076,1.9365-5.9893,4.208-10.9053,4.6733c-0.2227,5.4224-2.6396,10.7358-7.125,14.4995
				c-2.8887,2.4263-13.3916,9.561-27.2119-0.4863c-1.0771-0.7837-2.3213-1.75-3.7568-2.9199
				c-1.1279,1.7397-2.5195,3.3184-4.1514,4.688c-4.127,3.4624-9.2559,4.9731-14.2295,4.6309
				c-4.7168,0.6533-10.6768-0.3428-17.3242-5.6001c-0.832,1.0308-1.7715,1.9888-2.8096,2.8599
				c-2.6836,2.2524-12.4912,8.9741-25.9834,0.9146c-1.2617-0.7539-2.6279-1.6592-4.165-2.7632
				c-1.168,2.0625-2.7021,3.9214-4.5488,5.4707c-1.7129,1.437-9.4756,7.209-19.791,3.6157
				c-7.6895,6.0508-18.7734,5.6689-26.0371-1.1484c-1.293,2.2979-2.9961,4.3589-5.0694,6.0981
				C509.9998,219.1023,505.1658,222.5232,498.2596,222.5237z"/>
		</g>
	</g>
	<g>
		<g>
			<path fill="#F2F6F9" d="M355.6726,211.5476c-3.7363,0-8.1016-0.9839-13.0664-3.6592c-2.709-1.46-5.9619-3.5581-9.9434-6.4146
				c-1.8252-1.3091-3.8311-2.7974-6.0107-4.46c-7.1475,1.7256-14.9795-0.5703-20.0273-6.5825
				c-1.2705-1.5142-2.2793-3.1626-3.0303-4.8877c-3.8213-5.0146-15.8105-18.6274-25.8574-29.5703
				c-6.6709-7.2651-6.9854-18.1914-1.0615-25.7979c-4.2959-6.3682-6.2363-11.4048-5.8652-17.3257
				c0.3506-5.5903,2.9961-10.8467,7.2578-14.4219c2.5234-2.1177,5.4482-3.5205,8.5039-4.2002
				c-1.8945-3.3398-2.8262-6.7773-2.5508-11.1465c0.3438-5.4609,2.9307-10.5894,7.1221-14.1069
				c4.5889-3.8521,10.4707-5.3223,16.0469-4.4253c-0.1602-6.0615,2.4297-12.1157,7.5215-16.1772
				c1.6455-1.313,3.4365-2.3247,5.3057-3.042c3.6777-2.3105,10.043-4.7285,18.4961-1.9604c1.1182-1.7554,2.502-3.3447,4.1143-4.6978
				c5.166-4.334,11.959-5.6475,18.1025-3.9797c0.9121-1.218,1.9668-2.3374,3.1514-3.3311
				c4.7314-3.9717,10.8525-5.417,16.5918-4.3289c1.2207-2.5486,2.9795-4.8359,5.1865-6.6868
				c2.665-2.2366,5.7939-3.7378,9.1387-4.4612c0.0537-0.0547,0.1064-0.1086,0.1611-0.1628
				c4.6797-4.6719,11.1201-6.5574,17.2285-5.604c0.3799-0.3745,0.7754-0.7349,1.1865-1.0801
				c2.2432-1.8818,9.4199-6.8794,19.3906-3.9932c4.3975-1.8647,10.9805-2.9258,18.8975,1.1941
				c1.0693,0.5569,2.1768,1.2117,3.3701,1.9951c5.2578-1.875,11.1025-1.4614,16.0508,1.1477
				c4.7861,0.6296,9.3604,2.9841,12.708,6.9744c1.5674,1.8687,2.7354,3.9399,3.5117,6.1094
				c5.0254,6.865,22.2822,26.3384,36.8623,42.0464c4.5068,4.8555,6.1416,11.3516,4.9805,17.3955
				c0.0957,1.1016,0.1016,2.2163,0.0127,3.3335c-0.3135,3.9224-1.7725,7.6323-4.1523,10.6899
				c0.5596,2.1201,0.7686,4.2871,0.6016,6.6265c-0.3174,4.4438-2.1191,8.6772-5.04,11.9819
				c-0.6465,5.3228-3.2109,10.0884-7.3125,13.5293c-1.9121,1.6045-4.0479,2.7949-6.2901,3.5732
				c-1.2373,3.0791-3.2139,5.8447-5.7773,7.9956c-3.1338,2.6294-6.8408,4.1348-10.627,4.5562
				c-0.1875,0.1689-0.377,0.335-0.5703,0.4971c-6.3408,5.3208-15.166,6.1074-22.2432,2.3413
				c-0.999,1.4331-2.1904,2.7412-3.5527,3.8838c-4.8232,4.0454-12.8105,6.6528-21.5967,2.8589
				c-0.5869,0.6357-1.2148,1.2358-1.8818,1.7954c-1.3486,1.1338-6.4111,4.939-13.4746,4.6782
				c-0.7568,2.5659-2.0215,4.9565-3.7207,7.0278c-1.168,2.1772-2.7617,4.1724-4.7695,5.8574
				c-3.251,2.7285-6.6748,4.2266-10.1572,4.8223c1.0439,3.1597,1.2119,5.7954,1.0371,8.5601
				c-0.3682,5.8359-3.0078,11.0947-7.4326,14.8076c-7.0605,5.9253-17.2578,6.2563-24.6895,0.8008l-3.29-2.415
				c-1.2227,2.6616-3.0273,5.0498-5.3174,6.9717C366.3055,208.8591,361.8484,211.5471,355.6726,211.5476z"/>
		</g>
	</g>
	<g>
		<g>
			<path fill="#FFFFFF" d="M529.0022,123.5388c-0.0191,0.0816-0.0381,0.1632-0.0573,0.2447
				c0.3914-0.3914,0.7827-0.7827,1.1741-1.1741c0.3106,0.0662,0.6212,0.1325,0.9318,0.1987
				c0.1573,0.5953,0.3147,1.1906,0.472,1.7859c0.0201-0.0848,0.0402-0.1696,0.0604-0.2544c-0.303,0.3941-0.606,0.7881-0.9091,1.1822
				c1.6057-1.1215,4.9195-0.046,6.5563,0.6593c2.28,0.9825,4.3096,2.6041,5.8147,4.5711c3.2958,4.3073,4.0179,9.8537,3.4767,15.1094
				c-0.1235,1.1997,1.1954,2.4993,2.3841,2.3841c9.8923-0.9586,19.7776,4.0945,24.4094,12.9765
				c0.5989,1.1484,2.2842,1.5695,3.3666,0.8828c3.4052-2.1606,7.3014-1.6997,10.8527-0.1059
				c2.0604,0.9247,7.4451,3.4968,5.9823,6.3903c-0.6775,1.34,0.1394,3.071,1.7539,3.0565c3.2739-0.0296,4.1915-3.2184,3.3322-5.9395
				c-0.9087-2.8773-3.3535-4.8209-5.8116-6.36c-5.5038-3.4461-12.8587-5.1511-18.5933-1.2908
				c1.1223,0.2943,2.2444,0.5885,3.3666,0.8828c-5.6429-10.1412-17.0219-16.4352-28.6588-15.2609
				c0.7947,0.7947,1.5894,1.5894,2.3841,2.3841c0.8885-8.9792-2.3163-18.7517-10.7035-23.1756
				c-3.0078-1.5865-8.278-3.3256-11.4981-1.3858c-2.8522,1.7182-0.6701,5.9502,2.3259,4.3817
				c0.5309-0.278,0.8127-0.8756,0.8325-1.4515c0.0029-0.0838,0.0058-0.1675,0.0087-0.2513
				C532.3192,122.1255,529.4294,121.7113,529.0022,123.5388L529.0022,123.5388z"/>
		</g>
	</g>
	<g>
		<g>
			<path fill="#FFFFFF" d="M606.848,162.7158c0.0243,0.068,0.0486,0.1359,0.0729,0.2039c0.262-0.6436,0.5239-1.2872,0.7858-1.9308
				c-0.0956,0.0574-0.1912,0.1148-0.2867,0.1722c0.5947,0,1.1895,0,1.7842,0c-0.0879-0.0465-0.1758-0.0931-0.2637-0.1396
				c0.28,0.6882,0.5601,1.3764,0.8401,2.0645c0.0972-0.6812,2.3116-1.6944,2.8738-2.0038c1.1538-0.6351,2.3595-1.1785,3.613-1.5839
				c2.6042-0.8422,5.3214-1.1807,8.053-1.0455c5.3958,0.267,10.4531,2.5807,14.0386,6.628
				c0.8073,0.9113,2.0914,0.8478,3.0917,0.3989c4.9487-2.2208,15.5761-6.1716,18.0508,1.6159
				c0.5811,1.8285,2.9313,2.5906,4.3453,1.1472c2.6362-2.691,6.9675-5.0589,10.7654-3.4026
				c3.9976,1.7434,3.3564,5.7659,2.7159,9.2089c-0.3959,2.1279,1.9546,3.6139,3.63,2.1131
				c4.7048-4.2143,1.6301-12.6699-3.0892-15.478c-5.8885-3.5039-13.2741-0.6304-17.6989,3.8819
				c1.4485,0.3824,2.8969,0.7648,4.3453,1.1472c-1.38-4.3498-5.1616-7.3098-9.6019-8.1597
				c-5.6275-1.0772-11.0298,1.2111-16.0382,3.5202c1.0306,0.133,2.0611,0.266,3.0917,0.3989
				c-4.8012-5.26-11.8749-7.9892-18.9543-7.8402c-3.4703,0.073-6.8546,0.8374-10.0088,2.2837
				c-2.4041,1.1023-6.9974,3.5938-6.8143,6.6838c0.0626,1.0558,0.7914,1.7337,1.8281,1.8281
				c0.7466,0.068,1.2936-0.1867,1.7607-0.7539c0.6341-0.77,0.6329-1.6414,0-2.4179c-0.0454-0.0557-0.0908-0.1114-0.1362-0.1671
				C608.5938,159.8027,606.3008,161.1854,606.848,162.7158L606.848,162.7158z"/>
		</g>
	</g>
	<g>
		<g>
			<path fill="#FFFFFF" d="M571.7115,174.909c7.5731-1.7934,15.1575-2.8156,22.9321-1.7951
				c3.8398,0.504,7.6472,1.4549,11.286,2.7761c1.8549,0.6735,3.6613,1.4604,5.4193,2.3573c0.7294,0.3721,1.4501,0.7615,2.1608,1.168
				c0.4742,0.2712,0.944,0.55,1.4092,0.8363c0.5276,0.8033,0.7808,0.6117,0.7596-0.5749c-2.1859,2.339,1.3239,5.8651,3.5205,3.5205
				c0.4751-0.5071,3.9602-4.0049,4.0153-1.5519c0.0455,2.0255,2.9409,2.9989,3.9599,1.0725
				c1.4877-2.8124-0.2772-5.812-3.2244-6.6742c-3.3322-0.9748-6.1649,1.3541-8.2713,3.633c1.1735,1.1735,2.347,2.347,3.5205,3.5205
				c6.735-7.3049-15.2985-13.2469-19.4672-14.0746c-9.7303-1.9321-20.2827-1.6066-29.4953,2.288
				C568.1752,172.282,569.6889,175.388,571.7115,174.909L571.7115,174.909z"/>
		</g>
	</g>
	<g>
		<g>
			<path fill="#FFFFFF" d="M517.2056,147.5836c3.7352-5.7264,12.1494,1.9791,15.1028,4.8877
				c1.9625,1.9326,3.7396,4.0507,5.2729,6.3394c1.6406,2.4486,2.7715,5.1567,4.327,7.6418c1.1872,1.8966,4.19,0.6848,3.627-1.5291
				c-1.8042-7.0945-8.0142-13.8663-13.6329-18.2525c-4.913-3.8353-13.1916-7.6535-17.3683-0.6488
				C513.5074,147.7442,516.1236,149.2424,517.2056,147.5836L517.2056,147.5836z"/>
		</g>
	</g>
	<g>
		<g>
			<path fill="#FFFFFF" d="M537.3193,91.1648c2.483-1.1094,5.8022-0.2637,7.9579,1.1737c2.3847,1.5902,3.5137,3.8425,4.0299,6.5944
				c0.429,2.2873,3.8895,1.6587,3.9439-0.5338c0.1019-4.1127-2.7142-7.7555-6.2086-9.6826
				c-3.7239-2.0537-7.5135-2.0306-11.2767-0.2096C533.9659,89.3779,535.5391,91.9602,537.3193,91.1648L537.3193,91.1648z"/>
		</g>
	</g>
	<g>
		<g>
			<path fill="#FCE0DE" d="M611.7444,153.1827c3.8214-0.6438,7.6519-1.3631,11.5452-1.3672
				c3.7343-0.0039,7.3315,0.9759,10.8594,2.1187c1.8442,0.5974,3.6868,1.2116,5.4575,2.0054
				c1.4039,0.6294,2.7991,1.4619,4.3717,1.56c3.1541,0.1968,5.5109-2.4409,4.7751-5.5145
				c-0.7968,1.0459-1.5934,2.0918-2.3902,3.1376c6.3466,0.2256,12.6442,0.9738,18.8505,2.329
				c6.1485,1.3425,12.0251,3.2694,18.0701,4.9436c1.9176,0.5311,3.145-2.2529,1.3666-3.2414
				c-11.3836-6.3271-25.4348-8.5483-38.2872-8.9887c-1.66-0.0569-2.7542,1.6253-2.3901,3.1376
				c-0.3193-1.3266-2.0133-1.6245-3.286-2.134c-1.4611-0.5849-2.9482-1.1027-4.478-1.4767
				c-2.8015-0.685-5.7512-0.9429-8.6295-0.9704c-5.7025-0.0544-11.4089,0.1375-16.6962,2.4189
				C609.6362,151.679,610.5986,153.3757,611.7444,153.1827L611.7444,153.1827z"/>
		</g>
	</g>
	<g>
		<g>
			<path fill="#FCE0DE" d="M595.4375,161.5065c0.9393,1.1845,0.9062,2.4263,0.3721,3.7446c-0.2348,0.5796,0.148,1.4672,0.706,1.7349
				c4.5479,2.1816,8.684,4.5283,13.7194,5.4671c2.1927,0.4088,4.4534,0.298,6.6297,0.7199c2.3221,0.4501,3.864,1.9397,5.0825,3.8892
				c1.133,1.8128,3.9811,0.6503,3.4556-1.4568c-1.1585-4.6455-5.4913-6.6926-9.9673-6.7613
				c-6.0453-0.0928-11.8907-1.9825-17.3691-4.511c0.2354,0.5783,0.4706,1.1566,0.706,1.7349
				c0.9272-2.3896,0.3742-4.7045-1.3129-6.5833C596.2051,158.0879,594.3216,160.0993,595.4375,161.5065L595.4375,161.5065z"/>
		</g>
	</g>
</g>
<g id="Layer_2">
	<path fill="#E93A1D" d="M816.4948,90.6268c-2.5693-7.0311-7.2708-13.3972-13.0073-17.7218
		c-11.3585-8.5629-32.3381-6.1432-45.672-4.6844c-13.804,1.5102-29.0453-1.1814-43.0145-1.558
		c-18.8286-0.5075-37.6678-0.8923-56.5033-0.5668c-9.4158,0.1628-18.8295,0.4982-28.2286,1.0893
		c-2.6332,0.1656-20.4547,1.6103-21.7492,0.1458c1.631,1.8452,2.3195,4.1723,1.513,6.577
		c7.1382-2.144,15.9948-0.0682,23.3708-0.1827c9.0644-0.1407,18.128-0.3257,27.1923-0.475
		c18.1331-0.2987,36.2737-0.4783,54.4051,0.0259c20.0248,0.5568,40.2651,2.9947,60.2581,2.9631
		c13.6263-0.0216,33.3271,2.6639,33.0901,20.5272c-0.1013,7.6282-0.7341,16.0569-2.7463,23.438
		c-2.0149,7.3914-12.6575,10.8926-19.1702,13.2046c-7.6536,2.7168-15.5308,4.0439-23.6568,3.6233
		c-40.1721-2.0786-80.6162,0.8223-120.8444-3.0827c-3.1437-0.305-31.9876,1.896-31.8705-0.4453
		c-0.1558,3.1158-0.5967,6.8872,0.5637,9.7199c17.4967,1.0627,34.9726-0.4644,52.47-0.4413
		c15.6165,0.0206,31.2349,0.3404,46.8501,0.3756c10.5341,0.0238,21.0499-1.2613,31.5869-0.8527
		c9.2702,0.3595,18.5247,2.1477,27.8282,1.6682c10.5048-0.5414,19.6088,0.291,29.4182-4.3025
		c13.1807-6.1722,15.0895-17.0472,18.8603-29.4071C819.3949,103.8509,818.8121,96.9684,816.4948,90.6268z"/>
	<g>
		<g>
			<path fill="#303030" d="M609.4861,67.0272c0.0745,12.5541,0.0472,25.099-0.1174,37.6526
				c-0.1644,12.5375-0.4653,25.1193,0.0155,37.6526c0.0314,0.8182,1.2833,0.8259,1.2773,0
				c-0.0908-12.5551-0.0727-25.0976,0.0764-37.6526c0.1489-12.5414,0.4407-25.1161-0.0565-37.6526
				C610.651,66.2617,609.4814,66.2541,609.4861,67.0272L609.4861,67.0272z"/>
		</g>
	</g>
	<g>
		<g>
			<path fill="#303030" d="M611.5576,67.5108c32.2069,0.3624,64.4199,0.3856,96.6284,0.5528
				c15.9387,0.0827,31.8774,0.1637,47.8161,0.2525c7.9694,0.0444,15.9387,0.0871,23.908,0.1332
				c6.8278,0.0395,14.0903-0.0459,20.4328,2.855c11.5826,5.2977,15.8384,20.3665,16.0225,32.124
				c0.1728,11.034-3.3538,22.6244-11.6991,30.212c-10.423,9.4765-25.3721,9.6411-38.6382,9.5328
				c-16.0963-0.1313-32.1925-0.2886-48.2888-0.4325c-35.9058-0.321-71.811-0.6935-107.7164-1.0499
				c-0.8259-0.0082-0.8267,1.2754,0,1.2832c33.5779,0.3149,67.1579,0.5383,100.7348,0.9481
				c16.7888,0.2049,33.5783,0.3564,50.3674,0.53c13.4099,0.1387,28.3456,0.9955,40.1674-6.5112
				c18.9184-12.013,21.1065-41.696,9.2839-59.3583c-8.1311-12.1475-22.632-11.3561-35.6471-11.4104
				c-16.7689-0.0699-33.5377-0.1411-50.3065-0.2174c-33.5375-0.1527-67.0753-0.3567-100.613-0.4487
				c-4.1508-0.0114-8.3013-0.0209-12.4521-0.0146C610.9014,66.4922,610.9009,67.5034,611.5576,67.5108L611.5576,67.5108z"/>
		</g>
	</g>
	<g>
		<g>
			<path fill="#303030" d="M608.3973,78.6249c-13.5886-0.2338-27.2244,0.0118-40.7987,0.6654
				c-0.3519,0.0169-0.7072,0.2998-0.6837,0.6837c0.4572,7.4697,0.4365,14.9912,0.4841,22.4715
				c0.0542,8.5325,0.3943,17.2419-0.3131,25.7541c-0.022,0.2654,0.2529,0.5279,0.5127,0.5127
				c14.1457-0.8272,28.2942,0.0912,42.4453,0.1201c0.8145,0.0017,0.8156-1.2631,0-1.2656
				c-14.137-0.0429-28.339-1.213-42.4453,0.1201c0.1709,0.1709,0.3418,0.3418,0.5127,0.5127
				c0.7119-8.5665,0.7145-17.1624,0.6583-25.7541c-0.049-7.4804-0.0291-15.0018-0.4873-22.4715
				c-0.2279,0.2279-0.4557,0.4558-0.6837,0.6837c13.5886-0.6563,27.1967-0.7646,40.7987-0.773
				C609.2086,79.8842,609.2084,78.6389,608.3973,78.6249L608.3973,78.6249z"/>
		</g>
	</g>
	<g>
		<g>
			<path fill="#303030" d="M583.5085,88.1432c0.1957,2.5472,0.4805,5.0881,0.6884,7.6347c0.0376,0.4613,0.407,0.7598,0.8694,0.6623
				c2.0572-0.4341,4.1404-0.5473,6.2241-0.2232c0.7372,0.1147,2.0212,0.6991,2.6415-0.0545
				c0.6365-0.7732,0.071-2.5917-0.0037-3.4888c-0.1137-1.3661-0.0325-3.1064-0.4766-4.4127
				c-0.5687-1.6731-2.8212-0.9916-4.2248-0.9473c-1.1447,0.0361-2.2911,0.0534-3.4351,0.1076
				c-0.551,0.0261-1.1404,0.2979-1.6387,0.3148c-0.5227,0.0177-0.5251,0.8323,0,0.8145c0.297-0.0101,0.6624,0.1848,0.9738,0.2152
				c0.7444,0.0727,1.5503-0.0555,2.2967-0.0932c0.8946-0.0451,1.7887-0.1006,2.6825-0.1602
				c0.5819-0.0388,1.8026-0.3928,2.2586,0.0694c0.2369,0.2401,0.0571,1.7422,0.0739,2.046c0.0378,0.6824,0.1068,1.3646,0.16,2.046
				c0.0477,0.6097,0.2938,1.47,0.16,2.046c0.0178,0.2273,0.0356,0.4547,0.0533,0.682c-0.3116-0.3394-0.6988-0.5031-1.1614-0.4913
				c-2.2367-0.5275-4.7316-0.257-6.9495,0.2053c0.2898,0.2208,0.5796,0.4415,0.8694,0.6623
				c-0.2062-2.6058-0.4196-5.2183-0.7959-7.806C584.6707,87.2577,583.453,87.4205,583.5085,88.1432z"/>
		</g>
	</g>
	<g>
		<g>
			<path fill="#303030" d="M585.1411,120.786c2.5472-0.1957,5.0881-0.4805,7.6347-0.6883c0.4613-0.0376,0.7598-0.4071,0.6623-0.8694
				c-0.4341-2.0572-0.5473-4.1404-0.2232-6.2242c0.1147-0.7372,0.699-2.0212-0.0545-2.6415
				c-0.7732-0.6364-2.5917-0.071-3.4888,0.0037c-1.3661,0.1137-3.1064,0.0325-4.4127,0.4766
				c-1.6731,0.5688-0.9916,2.8212-0.9473,4.2248c0.0361,1.1447,0.0534,2.2911,0.1075,3.4351
				c0.0261,0.551,0.2979,1.1404,0.3148,1.6386c0.0178,0.5227,0.8323,0.5251,0.8145,0c-0.0101-0.297,0.1848-0.6623,0.2152-0.9738
				c0.0727-0.7444-0.0555-1.5503-0.0932-2.2967c-0.0451-0.8946-0.1005-1.7887-0.1602-2.6825
				c-0.0388-0.5819-0.3928-1.8026,0.0695-2.2586c0.2401-0.2369,1.7422-0.0571,2.046-0.0739c0.6824-0.0378,1.3646-0.1067,2.046-0.16
				c0.6097-0.0477,1.47-0.2938,2.046-0.16c0.2274-0.0178,0.4547-0.0356,0.682-0.0533c-0.3394,0.3116-0.5032,0.6988-0.4913,1.1614
				c-0.5275,2.2367-0.257,4.7315,0.2054,6.9495c0.2208-0.2898,0.4415-0.5796,0.6622-0.8694
				c-2.6058,0.2062-5.2183,0.4196-7.806,0.7959C584.2557,119.6238,584.4185,120.8415,585.1411,120.786z"/>
		</g>
	</g>
	<g>
		<g>
			<path fill="#303030" d="M596.6089,123.6672c0.7183-0.0438,1.4302-0.1327,2.1512-0.0884
				c0.7178,0.0441,1.4206,0.2041,2.1345,0.2829c0.6288,0.0694,0.872-0.9202,0.3224-1.1901
				c-1.4072-0.6912-3.3098-0.7119-4.7584-0.115C595.9225,122.7774,595.9122,123.7097,596.6089,123.6672L596.6089,123.6672z"/>
		</g>
	</g>
	<g>
		<g>
			<path fill="#303030" d="M597.312,85.1102c1.2811-0.2311,2.457-0.1154,3.7126,0.1907c0.747,0.1821,1.0029-0.8619,0.3115-1.13
				c-1.3621-0.5284-2.9166-0.4859-4.2905-0.0269C596.4279,84.3504,596.681,85.224,597.312,85.1102L597.312,85.1102z"/>
		</g>
	</g>
	<g>
		<g>
			<path fill="#303030" d="M610.504,73.6572c17.324,0.0413,34.6474,0.2559,51.9707,0.39
				c29.0966,0.2252,58.1942,0.4304,87.2882,0.8956c9.8754,0.1579,19.7575,0.2887,29.6269,0.6844
				c8.9858,0.3603,18.5146,1.0337,24.8015,8.2991c5.6011,6.4728,6.8181,15.86,5.5629,24.0659
				c-1.4146,9.2477-5.9628,18.0117-14.2123,22.8611c-4.6796,2.7509-9.9507,3.9478-15.2946,4.5491
				c-6.6035,0.743-13.2644,0.9138-19.9045,0.9218c-17.3884,0.0208-34.7582,0.0635-52.1469,0.246
				c-13.843,0.1453-27.6714-0.5471-41.5006-1.0917c-7.7856-0.3066-15.5729-0.6243-23.3632-0.7868
				c-5.9427-0.124-11.907,0.4126-17.831,0.1512c-5.2195-0.2304-10.5123-0.7501-15.6394,0.5406
				c-0.8553,0.2153-0.4931,1.5356,0.3645,1.3221c5.8087-1.4458,11.8385-0.53,17.7402-0.446
				c2.8353,0.0403,5.6494-0.2871,8.4836-0.3167c6.8047-0.0711,13.6193,0.2193,20.4182,0.4612
				c15.2604,0.543,30.5545,1.5352,45.8287,1.4801c15.6489-0.0564,31.2925-0.5544,46.9424-0.4319
				c6.8083,0.0533,13.6196,0.1204,20.4243-0.1607c5.879-0.2428,12.0108-0.4808,17.7347-1.9615
				c8.8171-2.2809,16.1668-7.9701,19.9923-16.3084c6.2383-13.5976,5.2812-33.7026-9.6709-41.2129
				c-6.6071-3.3187-14.2964-3.2262-21.5324-3.4745c-4.7516-0.163-9.505-0.2735-14.2582-0.3737
				c-29.0339-0.612-58.0779-0.826-87.1169-1.0565c-21.0526-0.1672-42.1073-0.2575-63.1606-0.294
				c-0.5159-0.0009-1.0317-0.0025-1.5475-0.0017C609.8292,72.6094,609.8281,73.6556,610.504,73.6572L610.504,73.6572z"/>
		</g>
	</g>
	<g>
		<g>
			<path fill="#303030" d="M695.3624,113.605c3.7516,3.3953,9.1206,4.4899,12.3658,8.6025c0.2841,0.36,0.9796,0.2513,1.1695-0.1507
				c0.7008-1.4834,3.0886-2.6359,4.3969-3.4856c0.8757-0.5687,1.7639-1.1208,2.6699-1.6402
				c0.3234-0.1854,0.6985-0.3398,1.0029-0.5561c0.3801-0.2701,0.944-0.1706,0.4274-0.4604c0.6926,0.3885,1.295-0.3648,1.0103-1.0103
				c-0.765-1.7346-2.1724-2.9052-3.1031-4.5254c-1.3018-2.2659-0.9485-5.9693-0.4513-8.4739
				c0.2252-1.134,0.7083-2.1556,0.2015-3.2914c-0.6541-1.466-2.4824-2.3456-3.7466-3.1766
				c-1.5457-1.016-3.0198-2.4609-4.7918-3.0667c-2.003-0.6847-3.5182,0.0679-5.4499,0.5762
				c-3.2258,0.8488-5.5215,1.0622-6.8725,4.314c-0.6545,1.5753-1.4047,4.2719,0.1091,5.6275
				c1.8012,1.6129,2.8092-0.4843,3.5832-1.8671c0.2786-0.4978,0.5248-1.1679,0.9059-1.5945
				c1.0384-1.1625,2.7493-0.825,4.0775-0.4242c1.4575,0.4399,3.9186,2.7347,3.8687,4.5657
				c-0.1381,5.0649-7.1092,7.0454-9.6721,2.6469c-0.6359-1.0913-1.0628-2.813-2.5714-3.0575
				c-0.925-0.1499-1.5441,0.4082-1.9304,1.1942c-1.4653,2.9813,0.4637,7.3457,2.6058,9.4481
				c0.6572,0.645,1.6674-0.3635,1.011-1.0109c-1.5161-1.495-2.5308-3.8202-2.597-5.989c-0.0306-0.999-0.1652-1.6105,0.942-1.306
				c1.1024,0.3031,1.0616,1.2098,1.6867,2.071c1.3179,1.8156,3.723,2.7052,5.9111,2.5583c2.4002-0.1612,4.1064-1.5674,5.0958-3.6925
				c0.4374-0.9396,0.9975-2.0752,0.9977-3.1335c0.0002-1.2631-0.8024-1.8919-1.5015-2.8614
				c-0.5917-0.8205-1.1243-2.1736-2.0649-2.6607c-0.8035-0.4162-3.3487-0.6773-4.3621-0.5972
				c-2.6208,0.2071-2.7969,2.2438-4.1275,4.0005c-0.4257,0.5621-0.2418,0.9404-0.8683,0.4893
				c-0.6066-0.4366-0.4343-1.4513-0.3284-2.0806c0.1873-1.1136,0.6229-2.4078,1.3458-3.2923
				c1.285-1.5723,3.7247-1.5649,5.559-2.0861c1.3986-0.3973,2.3876-0.9041,3.8469-0.4874c1.2993,0.371,2.1857,1.069,3.2639,1.8541
				c1.7277,1.2581,5.2245,2.6686,4.7148,5.1616c-0.347,1.6972-0.459,3.3385-0.5455,5.0788
				c-0.0853,1.7155-0.0422,3.4314,0.7559,4.9881c0.8961,1.7479,2.4323,3.0248,3.2271,4.8459
				c0.3367-0.3368,0.6735-0.6735,1.0103-1.0103c-1.2141-0.6873-4.0465,1.6573-4.9554,2.2268
				c-1.6945,1.0617-4.6735,2.5151-5.5731,4.4391c0.3898-0.0502,0.7797-0.1005,1.1695-0.1507
				c-3.2944-4.1407-8.6812-5.3628-12.8863-8.2397C695.4841,112.6337,694.9933,113.271,695.3624,113.605z"/>
		</g>
	</g>
	<g>
		<g>
			<path fill="#303030" d="M698.5024,93.9989c-1.0327-0.9964-2.1472-1.4276-2.0896-2.9164
				c-0.2915-1.1928,0.1826-1.4643,1.4223-0.8145c0.458,0.0756,0.916,0.1512,1.374,0.2268c1.8668,0.3081,3.7993,0.5107,5.6403,0.9576
				c1.8943,0.4598,3.0774,1.3405,4.4889,2.6442c0.8894,0.8214,1.6938,1.4824,2.9103,1.7221c0.6931,0.1366,0.9106-0.7708,0.285-1.034
				c-2.2785-0.9584-3.515-3.2521-5.8736-4.1265c-2.8558-1.0588-6.395-1.3965-9.4098-1.7424
				c-1.2886-0.1479-3.0737-0.1063-3.1733,1.6139c-0.1099,1.9005,2.5491,3.3337,3.8503,4.2146
				C698.3769,95.0487,698.8863,94.3692,698.5024,93.9989L698.5024,93.9989z"/>
		</g>
	</g>
	<g>
		<g>
			<path fill="#303030" d="M700.5087,89.3495c-0.4912-0.4179-2.1987-2.111-1.4166-2.8314c0.1488-0.137,1.8539,0.7001,1.7714,0.6599
				c1.2036,0.5854,2.351,1.3621,3.4326,2.1465c3.0667,2.224,5.262,5.1288,7.6979,7.9748c0.4694,0.5483,1.3248-0.1547,0.9801-0.7562
				c-1.8928-3.3033-4.8947-6.2067-7.9786-8.4152c-1.8397-1.3175-4.6078-3.3738-7.0214-2.8613
				c-0.2626,0.0557-0.4968,0.3578-0.4786,0.6287c0.1237,1.8408,0.8264,3.2639,2.3102,4.3653
				C700.3314,90.6507,701.0094,89.7755,700.5087,89.3495L700.5087,89.3495z"/>
		</g>
	</g>
	<g>
		<g>
			<path fill="#303030" d="M706.1587,89.1008c0.0221-0.5894-0.1154-1.3383,0.5172-1.6126c0.5924-0.2569,0.8671,0.4815,1.2017,0.9871
				c0.5958,0.9003,1.0469,1.8893,1.5403,2.8468c1.2811,2.486,2.568,5.1246,4.2164,7.3863c0.3388,0.4648,1.2817,0.2058,1.0228-0.4312
				c-1.1178-2.7502-2.8066-5.2813-4.2262-7.8849c-0.9842-1.8052-1.8969-3.6009-3.6026-4.8211
				c-0.2049-0.1466-0.5883-0.0986-0.7514,0.097c-0.8279,0.993-1.0773,2.1574-1.09,3.4326
				C704.9792,89.8571,706.1305,89.8528,706.1587,89.1008L706.1587,89.1008z"/>
		</g>
	</g>
</g>
</svg>
