<?xml version="1.0" encoding="utf-8"?>
<!-- Generator: Adobe Illustrator 20.1.0, SVG Export Plug-In . SVG Version: 6.00 Build 0)  -->
<svg version="1.1" xmlns="http://www.w3.org/2000/svg" xmlns:xlink="http://www.w3.org/1999/xlink" x="0px" y="0px"
	 viewBox="0 0 285 304" enable-background="new 0 0 285 304" xml:space="preserve">
<g id="site_bg">
</g>
<g id="back">
	<g>
		<g>
			<path fill="#F2F6F9" d="M176.9227,302.2888c-4.7988,0.001-9.5908-1.7188-13.3877-5.1406l-11.3838-10.2559
				c-1.167,2.0664-2.7041,3.9297-4.5596,5.4873c-2.9053,2.4365-10.9004,7.6426-22.3975,3.3594
				c-2.6992-1.0049-5.4473-2.4756-8.6484-4.626c-2.9932-2.0107-6.4805-4.6953-10.5693-8.1377
				c-7.2422,1.8838-15.2432-0.3887-20.3711-6.499c-1.8887-2.251-3.1973-4.7959-3.9404-7.4541
				c-7.6025-11.1592-42.0391-50.4228-71.7383-82.7685c-6.4805-7.0576-6.9326-17.5137-1.627-25.0371
				c-5.3818-8.2842-6.8574-13.4072-6.499-19.123c0.3633-5.7842,2.9795-10.998,7.3682-14.6797
				c2.374-1.9922,5.0928-3.3467,7.9326-4.0664c-3.3252-4.7744-4.6045-8.6719-4.2715-13.9648
				c0.3447-5.4619,2.9453-10.6221,7.1367-14.1396c4.1162-3.4541,9.2324-4.9648,14.2207-4.6338
				c-0.9307-6.8145,1.6885-13.915,7.4658-18.4512c0.7773-0.6113,1.5879-1.1553,2.4229-1.6338
				c0.0439-0.0381,0.0879-0.0752,0.1318-0.1123c3.2236-2.7051,9.0156-6.0078,17.1934-4.707
				c1.2803-2.4639,3.042-4.6689,5.2305-6.5059c5.6348-4.7285,13.1533-5.835,19.6582-3.4902
				c0.7812-0.9512,1.6533-1.835,2.6104-2.6367c6.6123-5.54,15.8564-6.1211,23.0059-1.8984c0.96-1.3301,2.0879-2.5488,3.3652-3.6201
				c4.5625-3.8291,10.4482-5.6201,16.5625-5.0244c1.2402,0.1191,2.5088,0.3047,3.8652,0.6348
				c6.8633-2.5742,14.8496-1.2422,20.5459,3.9834c4.4561-2.6807,13.0664-5.7012,23.9473,0.9707
				c0.0967,0.0586,0.1934,0.1191,0.291,0.1797c4.9111-1.0762,10.7002-0.4482,16.6943,3.3066
				c4.791,0.626,9.3701,2.9785,12.7217,6.9697c0.8799,1.0488,1.6348,2.1621,2.2646,3.3203
				c5.4209,7.2061,33.71,40.4668,59.2266,69.9668c3.2744,3.7852,5.002,8.6494,4.8662,13.627
				c2.8906,4.8408,4.0449,8.876,3.6992,13.7197c-0.1113,1.5576-0.4043,3.0898-0.8643,4.5654
				c3.7949,6.8672,4.3682,11.1367,4.1025,15.5176c-0.2773,4.5625-1.915,8.7744-4.6904,12.1914
				c2.6162,4.999,3.2529,8.6445,2.9678,12.7891c-0.2441,3.5361-1.4062,6.9385-3.3125,9.8604
				c0.1465,1.3535,0.1631,2.6934,0.0703,4.0605c-0.3926,5.8057-3.0303,11.0352-7.4287,14.7246
				c-1.4082,1.1816-2.9375,2.1387-4.54,2.8721c0.751,2.4326,1.0391,5.0098,0.8193,7.5967
				c-0.4502,5.3027-2.9961,10.207-7.0732,13.6279c-0.9951,0.835-2.9062,2.2393-5.5547,3.3096
				c-0.7061,5.4219-3.334,10.2607-7.5078,13.7637c-3.4189,2.8711-8.2588,4.7754-13.4102,4.6543
				c-1.0977,3.7725-3.292,7.1709-6.3486,9.7354c-1.9912,1.6709-4.2188,2.96-6.6045,3.8438
				c-7.2178,4.3574-15.9268,4.208-25.998-0.4385c-1.2383,2.1543-2.8545,4.0898-4.8076,5.7295
				C186.0526,300.7342,181.4843,302.2888,176.9227,302.2888z M214.1034,67.0643c0.0156,0.0176,0.0312,0.0342,0.0469,0.0508
				c-0.2803-1.2705-0.6865-2.4873-1.2051-3.6191C213.4471,64.6561,213.8329,65.8514,214.1034,67.0643z"/>
		</g>
	</g>
</g>
<g id="Layer_2">
	<path fill="#E93A1D" d="M70.1066,226.0989c-0.4736,0.7629-0.789,1.627-0.8888,2.5578c-0.427,3.9831,1.794,11.3198,6.5303,11.6138
		c3.2494,0.2016,5.9337-2.1541,7.5929-4.6903c1.5749-2.4073,2.8057-6.8749,1.0589-9.5547c-1.2463-1.908-5.9846-3.1395-8.1564-3.2137
		C73.7978,222.7281,71.3802,224.0476,70.1066,226.0989z"/>
	<path fill="#FFEFAF" d="M121.4644,51.1109c-1.4247-1.4583-3.1791-2.4187-5.5504-2.4292c1.6175,3.4526-1.6098,7.8153-5.1457,8.5806
		c-3.5523,0.7686-6.4112-3.9525-9.9579-2.3369c-4.2103,1.9179-1.5683,6.5885-3.0406,9.738
		c-1.5421,3.2988-4.8235,3.3649-5.8359,6.333c-3.6716,10.7655,10.8471,5.9404,16.2312,5.2205
		c4.9514-0.6621,8.4792-1.0045,12.0393,2.8508c3.3236,3.5992,4.177,9.585,10.19,9.6652c5.4406,0.0725,9.8178-5.5553,15.5426-4.4905
		c5.6842,1.0573,6.0295,8.2621,1.5387,11.5636c-5.8531,4.303-9.1183-5.4848-12.2639,1.7234
		c-1.9415,4.4489,0.7569,7.9128-4.931,7.2153c-3.2126-0.394-8.6183-1.6298-11.3443-3.4388
		c-3.5692-2.3686-5.1741-7.0551-9.314-8.7607c-4.6301-1.9076-9.8947-1.5604-14.6481-2.7007
		c-4.6111-1.1061-9.6358-6.7566-12.8622-1.5257c-2.1233,3.4426,0.5767,8.2756-0.9708,11.6283
		c-1.5661,3.393-4.6721,2.5425-4.1485,6.7266c0.4802,3.8374,6.2598,8.147,8.2973,11.2695c1.9274,2.9538,4.6532,5.9499,6.1016,9.1062
		c1.445,3.1492,1.2296,5.5519,2.1576,8.6602c2.9681,9.9422,13.8944,5.4767,20.7184,10.2712
		c6.301,4.427,8.6766,13.6255,16.8318,9.6495c3.6095-1.7598,6.3663-5.013,10.8942-3.4469c3.4154,1.1814,5.7656,5.6703,8.9997,7.5096
		c5.7986,3.2979,14.9952,7.7867,21.6452,4.338c4.1693-2.1622,3.5729-5.515,5.6482-8.9102
		c2.1415-3.5034,7.1993-7.7935,11.0516-9.2662c4.4336-1.6949,9.276-0.158,13.7157-1.2322c0.2449-0.0593,0.4887-0.1265,0.7313-0.2027
		c4.2785-1.3443,9.5671-5.9452,11.8757-9.8033c3.1722-5.3014,0.4294-10.7314-1.6193-16.2547
		c-1.0875-2.9321-1.9877-5.8796-3.2078-8.8579c-2.2426-5.4743-0.6743-8.225-0.0457-13.8975
		c0.5537-4.996-2.0807-9.1827-2.8766-14.006c-0.8846-5.3613-1.3037-10.8341-1.8703-16.2359
		c-0.5775-5.5066-2.6749-6.8559-8.5578-6.5722c-5.6999,0.2749-3.9625,2.8678-7.7374,5.1311
		c-2.7087,1.6241-5.9261-0.8615-7.6605,1.9898c-0.7871,1.294-0.2914,5.9161-0.6246,7.5289
		c-1.5413,7.4594-13.0421,12.4756-18.8288,6.5928c-6.2321-6.3355,12.4029-11.0051,16.3067-15.1424
		c7.2854-7.7272,10.908-9.6635,8.6349-20.7862c-3.1442-15.3836-17.7761,6.9551-24.1268,8.0863
		c-7.3208,1.304-12.2718-5.5242-8.0875-11.7387c2.2297-3.3116,6.706-3.4626,9.7005-5.6759c5.5205-4.0803,3.661-5.6931-0.3473-9.2653
		c-7.1032-6.3305-11.8825-16.5163-20.8972-21.0147c-9.8509-4.9152-12.9958,10.0031-14.8359,16.2093
		c-2.3366,7.881-5.7407,12.8743-2.4142,21.2985c1.6379,4.148,3.6315,6.0667,7.1156,8.7628c5.4959,4.2528,6.6668,5.6886,1.9,11.6084
		c-2.79,3.4649-1.8743,4.3878-5.2668,1.8496C126.4951,61.3691,124.9879,54.7175,121.4644,51.1109z"/>
	<path fill="#E93A1D" d="M101.2329,95.7623c1.2028-1.361,2.9697-2.0562,5.2688-1.4536c1.9405,0.5086,4.3193,0.5795,6.0683,1.406
		c5.4619,2.5811,1.4995,9.9406-2.1568,11.8617C99.6769,113.2174,97.0603,100.4837,101.2329,95.7623z"/>
	<path fill="#E93A1D" d="M121.3716,125.5582c-3.1937,1.3718-4.5482,7.5023-1.6944,9.8944
		c2.5831,2.1652,7.8873,1.8103,10.4613-0.6832c2.6189-2.5369,2.5582-7.48-0.22-9.8887
		C126.8855,122.2511,124.1177,126.0038,121.3716,125.5582z"/>
	<path fill="#E93A1D" d="M170.0622,133.8602c-0.7071,2.0212-0.5876,5.3426,1.6098,6.5738c2.5108,1.4067,5.2712,0.0035,6.1585-2.4205
		c0.6133-1.6754,0.8079-5.3911-1.4908-5.4548C174.5776,132.5099,173.2783,134.3069,170.0622,133.8602z"/>
	<path fill="#E93A1D" d="M169.8378,82.2527c-4.4004,6.3943,10.4547,12.8132,12.5645,2.8734
		c0.7926-3.734-1.6026-5.9545-5.2151-4.8429c-1.6023,0.493-2.7269,1.0837-4.4493,1.2956
		C171.6945,81.7071,170.8329,81.3726,169.8378,82.2527z"/>
	<g>
		<g>
			<path fill="#303030" d="M174.8563,242.7567c-15.6405-26.7825-19.5232-57.9363-20.8535-88.3972c-0.042-0.9615-1.5422-0.9668-1.5,0
				c1.3416,30.7211,5.2859,62.1461,21.0582,89.1543C174.0477,244.347,175.3446,243.5929,174.8563,242.7567L174.8563,242.7567z"/>
		</g>
	</g>
	<g>
		<g>
			<path fill="#303030" d="M131.2242,240.9325c2.1716-2.3357,3.8118-4.414,5.0118-7.3762
				c1.3382-3.3033,2.2909-6.5778,3.1769-10.0387c1.9476-7.607,3.6015-15.2903,4.9268-23.0303
				c2.6084-15.2337,3.9403-30.6639,3.8603-46.1209c-0.005-0.965-1.505-0.967-1.5,0c0.0777,15.0016-1.1647,29.9805-3.646,44.775
				c-1.2192,7.2693-2.7285,14.4898-4.4996,21.6445c-0.8632,3.4869-1.6452,7.0642-2.9648,10.4073
				c-0.5436,1.3771-1.0472,2.8185-1.7384,4.1288c-0.9124,1.7295-2.368,3.1306-3.6876,4.5499
				C129.5068,240.5781,130.5652,241.6413,131.2242,240.9325L131.2242,240.9325z"/>
		</g>
	</g>
	<g>
		<g>
			<path fill="#303030" d="M68.4481,223.9706c-9.4487,6.6843,3.1502,22.0737,12.2557,16.1892
				c4.6431-3.0006,6.8334-9.8017,3.7376-14.6508c-1.8757-2.938-4.5498-2.2378-7.5854-2.3116
				c-3.0728-0.0747-5.8298-1.2957-8.4503,0.8904c-0.3595,0.2999,0.1001,0.7462,0.458,0.5936
				c2.5717-1.0965,4.5555-0.5193,7.1842-0.3592c2.9414,0.1792,6.0605-0.9704,7.8109,2.303
				c2.3971,4.4828,0.0218,10.5426-4.3112,12.8763c-4.0092,2.1593-8.4308-0.0926-11.0511-3.3281
				c-3.0053-3.711-3.3396-8.2872,0.4914-11.5035C69.3712,224.348,68.8618,223.6779,68.4481,223.9706z"/>
		</g>
	</g>
	<g>
		<g>
			<path fill="#303030" d="M77.3035,223.006c-0.3535-1.7494-1.2746-4.0057-1.2032-5.7951c0.0754-1.8904,0.9024-1.9058,2.0933-2.2422
				c1.7758-0.5016,3.5623-0.9731,5.3564-1.4049c0.6282-0.1512,1.4446-0.4742,2.0926-0.4579
				c0.2686-0.0118,0.2404-0.0456-0.0845-0.1014c-0.4167-0.2155-0.6322,0.0219-0.6464,0.7122
				c-0.4269,0.7048-1.0192,1.2614-1.7516,1.6393c-2.263,1.1678-4.9643,0.4805-7.2203-0.317
				c-0.5912-0.209-1.0083,0.7549-0.4312,1.0228c2.7004,1.2533,6.4558,1.7705,8.98-0.1752c0.9385-0.7234,3.492-4.1392,0.8569-3.8582
				c-2.6503,0.2827-5.4365,1.2784-7.9798,2.0532c-0.8227,0.2506-1.7042,0.4988-2.1686,1.2886
				c-0.5267,0.8956-0.1244,2.0204,0.0748,2.9444c0.356,1.6513,0.7443,3.2956,1.1277,4.9407
				C76.5371,223.846,77.4222,223.5935,77.3035,223.006L77.3035,223.006z"/>
		</g>
	</g>
	<g>
		<g>
			<path fill="#303030" d="M148.3715,158.5472c-1.5684-2.0503-5.3772-3.3142-6.0102-5.782
				c-0.3122-1.2172,0.1013-2.988-1.4251-3.5204c-2.2913-0.7991-3.6759,2.2764-5.1028,3.3097
				c-2.246,1.6266-4.9137,0.9972-7.0928-0.3701c-1.0942-0.6866-2.0204-1.8828-3.1888-2.4328
				c-1.7909-0.843-3.4323,0.8544-4.9411,1.6011c-3.8761,1.9182-8.6396,0.5733-12.0325-1.7627
				c-2.2944-1.5797-3.7732-4.2205-5.5666-6.3023c-1.2147-1.41-2.8049-3.253-4.861-3.0907
				c-0.7526,0.0594-1.5325,0.5599-2.2871,0.6705c-0.8853,0.1297-1.8437,0.0746-2.7353,0.0134
				c-2.0803-0.1427-4.1941-0.6074-6.0685-1.5399c-2.3879-1.1879-4.2839-3.2603-3.7919-6.0983
				c0.337-1.9442,1.3041-3.7592,1.9613-5.6065c0.1365-0.3836-0.231-0.9128-0.6564-0.8617
				c-6.2356,0.7492-11.9238-2.9197-12.7333-9.2386c-0.1503-1.1733-0.7237-12.2061,1.0969-11.3032
				c0.7766,0.3852,1.4289-0.7033,0.6835-1.1693c-3.6767-2.2984-3.5493-7.6885-2.547-11.3756
				c1.1155-4.103,3.9911-8.4258,8.6867-8.3854c0.7112,0.0061,0.86-0.8892,0.3402-1.256
				c-6.6174-4.6687,5.8321-12.6378,8.6506-16.1156c0.2285-0.2819,0.2878-0.6875,0-0.9645
				c-5.2219-5.0257,0.1526-12.1443,6.1203-12.8581c0.4005-0.0479,0.6353-0.2765,0.6821-0.6821
				c1.0263-8.8922,9.3974-11.8747,15.1039-17.4484c0.2651-0.259,0.2558-0.7029,0-0.9637c-1.8938-1.9307-4.4728-5.3329-1.6257-7.5625
				c1.1305-0.8853,0.9226-1.2916,1.2659-2.7457c0.8031-3.4018,2.4158-6.6619,4.2122-9.6396
				c3.5639-5.9077,10.7048-14.336,18.0343-8.784c0.2163,0.1639,0.653,0.107,0.8242-0.1063
				c5.0777-6.3258,15.5561-4.0836,17.2356,4.0091c0.076,0.366,0.4997,0.5619,0.8385,0.4761
				c3.4676-0.8777,10.2708-2.788,11.2553,2.2709c0.0905,0.4652,0.6398,0.5873,1.0063,0.4094
				c6.886-3.3424,11.4609,7.0845,13.4018,12.0064c0.11,0.2788,0.3408,0.5174,0.6654,0.5066
				c5.6924-0.1886,12.1799,5.1971,6.9254,10.5554c-0.3831,0.3907-0.1818,0.9916,0.3065,1.1607
				c3.2678,1.1321,5.5194,2.9535,6.4916,6.3203c0.595,2.0604,0.7612,4.2192,1.5247,6.2359
				c1.2154,3.2105,3.3631,4.1031,6.3597,5.3836c3.6825,1.5736,7.4847,2.9602,10.9592,4.974
				c1.3049,0.7563,3.0399,1.7167,3.7551,3.1219c0.8707,1.7106-0.6233,2.9069-1.9723,3.7692c-0.4275,0.2732-0.4872,0.9598,0,1.2189
				c3.2104,1.7072,5.6496,4.2422,2.2953,7.211c-2.221,1.9657-5.1679,3.1547-7.9451,4.0738
				c-0.2776,0.0919-0.5482,0.3674-0.5217,0.6853c0.2737,3.2848,2.0173,5.5676,3.8599,8.1751
				c2.4587,3.4794,3.2939,6.9634,1.3652,10.953c-1.0256,2.1215-2.8438,4.5748-2.4725,7.0888
				c0.1411,0.9551,0.6112,1.5866,1.3179,2.2192c1.2741,1.1407,2.5099,1.4096,0.4274,2.9614
				c-0.461,0.3435-0.4816,1.1518,0.1714,1.3114c6.4017,1.5643,10.8005,12.0577,3.8601,15.8212
				c-0.5775,0.3131-0.3794,1.1139,0.1711,1.3094c2.4563,0.8724,5.8607,2.477,4.9188,5.6582
				c-0.6998,2.3634-3.0125,4.2345-4.9464,5.5771c-2.6271,1.8239-5.4438,3.0546-8.6747,3.2469
				c-3.2414,0.1929-6.5061-0.3865-9.7285,0.1754c-2.7898,0.4865-4.1437,1.9827-5.9474,4.0481
				c-2.2587,2.5865-5.1156,3.6239-8.1779,4.9822c-2.43,1.0778-4.5253,2.4641-6.054,4.6803
				c-1.7521,2.5401-2.9624,6.2297-6.6356,6.2468c-2.9879,0.014-5.4796-2.4813-7.7382-4.1285
				c-2.0766-1.5145-4.2341-2.7156-6.8612-2.7425c-0.9581-0.0098-0.9585,1.4765,0,1.4883c5.8347,0.072,8.9596,7.0514,14.8755,6.8551
				c2.7795-0.0922,4.5434-1.9688,5.9311-4.1771c0.9566-1.5222,1.7233-3.1316,3.0482-4.3904
				c1.505-1.4299,3.3856-2.2414,5.2693-3.0423c3.1561-1.3417,5.5623-2.6781,7.8141-5.2792
				c1.3083-1.5112,2.4251-2.6523,4.4631-3.0901c2.3508-0.5049,4.8299-0.227,7.2089-0.1785
				c6.0106,0.1224,11.7898-2.1141,15.7333-6.8016c1.2937-1.5378,2.4236-3.5615,1.9115-5.6383
				c-0.6737-2.732-3.6409-4.0231-6.0293-4.8717c0.0571,0.4365,0.1141,0.8729,0.1711,1.3094
				c8.0273-4.3519,3.4115-16.5809-4.2018-18.4421c0.0571,0.4371,0.1143,0.8742,0.1714,1.3114
				c1.5549-1.1585,2.9639-2.6039,1.1973-4.2317c-1.0396-0.9579-2.2813-1.3136-2.2511-2.9519
				c0.0369-1.9967,1.4468-3.8687,2.2926-5.6023c1.4497-2.9716,1.8623-5.9495,0.5635-9.0727
				c-1.5889-3.8209-5.2399-6.4412-5.6033-10.7779c-0.1739,0.2284-0.3478,0.4568-0.5217,0.6853
				c3.4926-1.1576,7.9838-2.8311,10.0405-6.1105c2.2097-3.5232-1.1638-6.2275-4.056-7.7637c0,0.4063,0,0.8126,0,1.2189
				c8.8566-5.6669-5.3316-11.2021-9.7222-13.0328c-1.9461-0.8115-3.9376-1.5611-5.8153-2.5254
				c-2.0099-1.0322-2.7845-2.5024-3.3885-4.72c-0.6542-2.4019-0.8018-4.9721-1.9991-7.2017
				c-1.3843-2.578-3.8553-3.9559-6.5361-4.8832c0.1021,0.3869,0.2043,0.7738,0.3064,1.1607
				c2.3185-2.3666,3.1832-5.5959,1.3824-8.5584c-1.9386-3.1894-5.7191-4.4794-9.29-4.3593
				c0.2218,0.1689,0.4436,0.3377,0.6654,0.5066c-2.3152-5.8631-7.4265-16.7091-15.4241-12.8225
				c0.3354,0.1365,0.6708,0.2729,1.0063,0.4094c-1.1748-6.0219-8.6912-4.2987-12.9388-3.2214
				c0.2795,0.1587,0.559,0.3174,0.8385,0.4761c-1.8778-9.0266-13.8039-11.719-19.5121-4.6085
				c0.2747-0.0354,0.5495-0.0709,0.8242-0.1063c-8.0863-6.1261-16.1133,2.9127-20.0356,9.5053
				c-1.1291,1.8977-2.122,3.8796-2.9494,5.9274c-0.6705,1.6595-0.8207,3.6892-1.5371,5.2656
				c-0.2911,0.6405-0.9823,0.7723-1.5402,1.4693c-0.6364,0.7951-0.8825,1.7142-0.8207,2.728
				c0.1405,2.3055,1.7999,4.398,3.3461,5.9745c0-0.3212,0-0.6425,0-0.9637c-3.1692,3.0952-7.0611,5.2525-10.33,8.2168
				c-3.0375,2.7545-4.705,6.1304-5.1744,10.1953c0.2274-0.2274,0.4548-0.4547,0.6821-0.6821
				c-7.0738,0.8457-13.2512,9.2616-7.0849,15.1868c0-0.3215,0-0.643,0-0.9645c-3.4482,4.2616-16.5438,12.472-8.3664,18.244
				c0.1134-0.4187,0.2268-0.8373,0.3402-1.256c-9.5392-0.0843-15.0928,17.1061-6.8232,22.2782
				c0.2278-0.3898,0.4557-0.7795,0.6835-1.1693c-4.6629-2.314-3.4241,9.8354-3.2328,11.6404
				c0.2919,2.7545,0.7306,4.5549,2.4642,6.8025c2.8605,3.7087,7.0895,5.1851,11.7215,4.6296
				c-0.2188-0.2872-0.4376-0.5745-0.6564-0.8617c-0.9691,2.7222-2.779,5.7687-1.8934,8.7513c0.733,2.4686,3.1799,4.076,5.4416,4.988
				c2.818,1.1363,6.1268,1.5538,9.1404,1.1412c1.817-0.2488,2.7887-0.5838,4.2087,0.7605c1.1484,1.0872,2.1025,2.3871,3.0785,3.6244
				c3.5211,4.4637,8.6373,8.0232,14.6723,6.9053c1.7075-0.3163,2.9807-1.1189,4.4767-1.954
				c1.7803-0.9938,2.3278-0.1299,3.7053,0.9288c2.451,1.8838,5.3117,3.1518,8.3849,2.0518
				c1.6754-0.5996,2.1497-1.7729,3.4164-2.8454c0.6168-0.5223,0.2196-0.5082,1.359-0.5161
				c1.1908-0.0083,0.9239-0.0286,1.0359,0.9556c0.0439,0.386,0.0387,0.7849,0.1266,1.1654c0.6699,2.899,4.582,3.9263,6.2761,6.1077
				C147.7954,159.9184,148.8229,159.1373,148.3715,158.5472L148.3715,158.5472z"/>
		</g>
	</g>
	<g>
		<g>
			<path fill="#303030" d="M123.6265,125.8186c-0.9623-1.6752-2.8967-2.34-4.7412-1.7397
				c-2.1582,0.7024-3.2953,3.0183-3.3881,5.1684c-0.2125,4.9212,4.6427,9.2191,9.4881,8.5943
				c4.657-0.6005,8.2072-5.6496,7.1236-10.2403c-0.4967-2.1043-2.0405-4.2691-4.3153-4.6031
				c-2.0267-0.2976-3.8487,0.853-4.4542,2.7724c0.4135,0.056,0.8269,0.1119,1.2404,0.1679c0.2675-2.2914,0.535-4.5828,0.8025-6.8743
				c0.093-0.7969-1.1543-0.7885-1.248,0c-0.2725,2.2914-0.545,4.5828-0.8174,6.8743c-0.0872,0.7332,1.0346,0.8156,1.2404,0.1679
				c0.9369-2.9478,4.4195-1.8706,5.6069,0.0936c0.8417,1.3923,1.0036,3.1499,0.6175,4.7102
				c-0.7242,2.9267-3.3494,5.5664-6.4662,5.6882c-2.8977,0.1132-5.6889-1.7414-6.9155-4.3243
				c-0.7335-1.5447-0.872-3.2495-0.2293-4.8503c0.8833-2.2001,3.9127-3.4826,5.4946-1.0431
				C123.053,126.9785,123.9861,126.4445,123.6265,125.8186L123.6265,125.8186z"/>
		</g>
	</g>
	<g>
		<g>
			<path fill="#303030" d="M101.2985,93.2505c-4.2702,0.9294-6.297,5.743-4.7394,9.6736c1.7741,4.477,7.0126,6.836,11.6104,6.0728
				c4.37-0.7254,7.8391-4.1955,7.5994-8.7834c-0.2332-4.4631-4.4399-7.8486-8.8309-6.2849
				c-0.6313,0.2248-0.3778,1.105,0.2741,0.9944c4.4485-0.7548,8.0196,2.4275,7.2106,6.9907
				c-0.6344,3.5785-3.9325,5.7106-7.3888,5.9431c-3.3683,0.2266-7.0173-1.3485-8.7818-4.3218
				c-2.0395-3.4366-0.6806-8.0965,3.3299-9.2561C102.2443,94.0873,101.9671,93.1049,101.2985,93.2505L101.2985,93.2505z"/>
		</g>
	</g>
	<g>
		<g>
			<path fill="#303030" d="M168.6924,133.0784c-1.8336,4.0011,2.4115,9.0745,6.7163,7.7946
				c3.7888-1.1264,5.4145-6.7796,2.5155-9.5875c-0.5261-0.5096-1.2127,0.237-0.7831,0.7831
				c1.8477,2.3483,1.1689,6.328-1.7795,7.4917c-3.6145,1.4266-6.6124-2.8977-5.7803-6.1071
				C169.7143,132.94,168.9295,132.5611,168.6924,133.0784L168.6924,133.0784z"/>
		</g>
	</g>
	<g>
		<g>
			<path fill="#303030" d="M169.4199,81.0433c-1.7407,2.2784-1.4695,5.4436,0.3788,7.6051c2.183,2.5529,5.965,2.7073,8.8381,1.3263
				c2.7164-1.3057,5.1501-4.3291,4.5221-7.509c-0.5161-2.6132-3.3015-4.2287-5.752-3.1611
				c-0.4435,0.1932-0.1265,0.9542,0.3318,0.7871c3.582-1.3052,5.1313,2.7529,3.8793,5.3815
				c-0.9815,2.0607-2.9622,3.5197-5.1851,3.9949c-4.5228,0.9669-9.1253-3.5945-6.1833-7.9399
				C170.6037,81.0054,169.785,80.5653,169.4199,81.0433L169.4199,81.0433z"/>
		</g>
	</g>
	<g>
		<g>
			<path fill="#303030" d="M157.2038,84.2317c1.349,1.7635,3.5104,1.7613,5.497,1.0592c1.3812-0.4881,2.4725-1.4155,3.6721-2.2206
				c1.1145-0.7481,2.3139-1.5254,3.707-1.5725c1.0846-0.0366,1.9351,0.4811,2.9684,0.6131c3.0102,0.3845,4.9951-2.1456,6.8089-4.184
				c2.0667-2.3226,3.9168-4.9864,3.794-8.2206c-0.0272-0.7155-1.0891-0.7178-1.1133,0c-0.1092,3.2428-1.9281,5.701-4.0615,7.9968
				c-0.8564,0.9216-1.7837,2.1024-2.8852,2.7417c-1.7006,0.9869-3.0658,0.0897-4.7707-0.0817
				c-1.8868-0.1897-3.5222,0.6698-5.0392,1.6954c-2.0096,1.3586-5.6472,4.1841-7.8873,1.6407
				C157.5695,83.3308,156.8984,83.8326,157.2038,84.2317L157.2038,84.2317z"/>
		</g>
	</g>
	<g>
		<g>
			<path fill="#303030" d="M156.7398,132.8966c1.1046,2.0929,3.7802,3.0272,5.974,2.0555c2.0143-0.8922,2.4617-3.243,5.2365-2.1988
				c1.4856,0.5591,2.3197,1.9659,4.0309,2.1539c3.0541,0.3356,5.2942-2.6138,6.7112-4.9045
				c0.9004-1.4555,2.0033-2.0753,3.6847-2.391c0.7527-0.1413,1.3894-0.0726,2.0602-0.5063
				c0.9591-0.6201,1.3053-1.4379,1.0019-2.5212c-0.2214-0.7905-1.4065-0.4587-1.2261,0.338
				c0.3258,1.4383-3.7509,1.3056-4.5302,1.7128c-0.7647,0.3996-1.2228,1.1104-1.6722,1.8115
				c-1.9013,2.9662-4.1291,6.6179-8.0525,4.1396c-1.3982-0.8832-2.7596-2.1176-4.5161-1.4433
				c-1.1027,0.4234-1.5693,1.5417-2.4403,2.2405c-1.7812,1.429-4.233,0.8195-5.5031-0.9302
				C157.1712,132.0019,156.4707,132.3868,156.7398,132.8966L156.7398,132.8966z"/>
		</g>
	</g>
	<g>
		<g>
			<path fill="#303030" d="M177.6891,113.1129c6.1004-1.4318,7.072-8.1913,7.1042-13.4869c0.004-0.6635-0.9913-0.6558-1.0254,0
				c-0.2511,4.8306-0.6086,11.1727-6.3015,12.679C176.944,112.4431,177.1645,113.236,177.6891,113.1129L177.6891,113.1129z"/>
		</g>
	</g>
	<g>
		<g>
			<path fill="#303030" d="M98.0347,90.5844c1.7494,2.9887,5.1205,4.9324,8.6373,4.4801c2.4598-0.3163,5.3241-2.5437,7.8014-1.3307
				c2.2799,1.1164,2.6025,4.334,3.4338,6.4487c0.5231,1.3308,1.2485,2.7145,2.4326,3.575c1.9358,1.4068,4.2319,0.3429,6.1115,2.06
				c2.741,2.504,5.63,4.2004,9.4821,2.9226c0.7033-0.2333,0.4208-1.281-0.3069-1.1131c-2.3206,0.5356-4.7002,0.3188-6.6836-1.1023
				c-1.4693-1.0528-2.1156-2.8406-3.9952-3.2269c-0.9881-0.2031-1.975,0.2413-2.9707-0.0638
				c-1.0749-0.3294-1.8514-1.3533-2.3787-2.2717c-0.9081-1.5816-1.1664-3.4415-1.9157-5.0932
				c-1.141-2.5154-3.0723-4.0557-5.914-3.5605c-2.2528,0.3925-4.1332,1.7594-6.4943,1.7075
				c-2.7386-0.0602-5.1129-1.5383-6.5566-3.831C98.4473,89.7558,97.7761,90.1426,98.0347,90.5844L98.0347,90.5844z"/>
		</g>
	</g>
	<g>
		<g>
			<path fill="#303030" d="M118.8733,113.4625c2.116,2.35,4.2268,5.5908,7.4277,6.5343c2.2659,0.6678,4.6121,0.214,6.0155-1.7684
				c-0.3951-0.0516-0.7903-0.1033-1.1854-0.1549c0.7825,3.1221,3.1279,5.7306,6.3477,6.3823
				c0.7574,0.1533,1.0544-0.9087,0.3193-1.1583c-2.7377-0.9296-4.6904-2.7243-5.4163-5.5688
				c-0.1474-0.5779-0.8801-0.59-1.1854-0.1549c-1.9118,2.7248-5.5618,1.1113-7.4781-0.6253
				c-1.4911-1.3513-2.6782-2.987-4.2771-4.2221C119.0022,112.3871,118.5359,113.0878,118.8733,113.4625L118.8733,113.4625z"/>
		</g>
	</g>
	<g>
		<g>
			<path fill="#303030" d="M117.7612,69.4677c4.402,6.432,14.1137,7.2104,19.5781,1.6749c0.5061-0.5127-0.2599-1.2692-0.7872-0.7872
				c-5.1331,4.692-13.7862,4.5053-18.0016-1.349C118.2118,68.536,117.4255,68.9772,117.7612,69.4677L117.7612,69.4677z"/>
		</g>
	</g>
	<g>
		<g>
			<path fill="#303030" d="M138.5419,92.1888c-0.3656,4.3841,3.0619,8.2672,7.6044,7.6915c1.1301-0.1432,2.203-0.5499,3.1367-1.1976
				c0.331-0.2296,0.6141-0.5752,0.9495-0.7822c1.2289-0.7584,2.1694-0.3297,3.3915,0.0998
				c2.0377,0.7162,3.6672,1.0105,5.5441-0.3812c0.5609-0.4159,0.0649-1.3438-0.5619-0.9613
				c-1.3931,0.85-2.8627,1.0459-4.3661,0.2885c-0.508-0.256-0.9116-0.7003-1.4475-0.9079
				c-1.1539-0.4469-1.7731-0.3541-2.7508,0.3484c-2.0909,1.5026-3.5519,2.9472-6.3924,2.1741
				c-2.8604-0.7786-4.3956-3.5452-4.2111-6.3721C139.4762,91.6102,138.5894,91.6192,138.5419,92.1888L138.5419,92.1888z"/>
		</g>
	</g>
	<g>
		<g>
			<path fill="#303030" d="M183.2831,37.0886c-1.2597,1.6613-2.7588,2.6643-4.8232,3.0351
				c-1.1392,0.2046-2.3053,0.1715-3.3774,0.6692c-1.755,0.8147-2.6792,2.4991-3.599,4.104
				c-3.0132,5.2573-8.8606,6.9006-14.4178,4.5475c-0.6426-0.2721-1.2074,0.5933-0.5648,0.9663
				c4.3481,2.5241,10.838,1.5634,14.2276-2.1881c2.4853-2.7506,2.7184-6.2499,7.008-6.8207c2.6048-0.3466,5.1439-1.3214,6.26-3.8963
				C184.2092,37.0148,183.6061,36.6625,183.2831,37.0886L183.2831,37.0886z"/>
		</g>
	</g>
	<g>
		<g>
			<path fill="#303030" d="M103.2973,49.7778c0.1242,5.6631,6.8965,8.6925,11.8,7.0275c0.6972-0.2367,0.41-1.3315-0.3069-1.1131
				c-4.1141,1.2535-10.3407-0.9551-10.5966-5.9144C104.1643,49.2052,103.2846,49.1974,103.2973,49.7778L103.2973,49.7778z"/>
		</g>
	</g>
	<g>
		<g>
			<path fill="#303030" d="M138.9008,241.1034c2.5013-2.2699,4.746-4.8522,7.0636-7.3071c-0.364-0.2119-0.728-0.4238-1.0919-0.6357
				c-0.4455,2.1905-0.2698,4.303,0.6792,6.3347c0.2866,0.6135,1.3397,0.1781,1.1031-0.465
				c-0.6668-1.8121-0.9099-3.6165-0.5223-5.5223c0.123-0.6049-0.6165-1.1393-1.092-0.6357c-2.3191,2.4565-4.769,4.8482-6.8937,7.477
				C137.7215,240.8755,138.3825,241.5737,138.9008,241.1034L138.9008,241.1034z"/>
		</g>
	</g>
</g>
</svg>
