<?xml version="1.0" encoding="utf-8"?>
<!-- Generator: Adobe Illustrator 20.1.0, SVG Export Plug-In . SVG Version: 6.00 Build 0)  -->
<svg version="1.1" xmlns="http://www.w3.org/2000/svg" xmlns:xlink="http://www.w3.org/1999/xlink" x="0px" y="0px"
	 viewBox="0 0 55 88" enable-background="new 0 0 55 88" xml:space="preserve">
<g id="site_bg">
</g>
<g id="back">
</g>
<g id="Layer_2">
	<g>
		<path fill="#FFEFAF" d="M14.137,12.6263c-1.2344-0.2442-2.2402,0.05-3.3772,0.5105c-0.4812,0.1949-0.9963,0.3787-1.4978,0.5884
			c-0.251-0.0294-0.5081-0.0048-0.7585,0.0908c-0.4583,0.1749-0.821,0.3374-1.1621,0.7019
			c-0.0603,0.0644-0.4072,0.7074-0.5422,0.9502c-0.2852,0.6738-0.3706,1.5349,0.084,2.157l0.0803,0.1097
			c0.459,0.6279,1.1855,1.2785,2.0466,1.174c1.1484-0.1393,2.1892-0.5106,3.2693-0.91c1.3057-0.4828,2.3425-0.94,3.1943-2.0873
			C16.3043,14.7926,15.4539,12.8867,14.137,12.6263z"/>
		<path fill="#FFEFAF" d="M6.7991,15.468c0.0269-0.0641,0.0537-0.1288,0.084-0.1891C6.7129,15.6157,6.7193,15.6111,6.7991,15.468z"
			/>
	</g>
	<g>
		<path fill="#FFEFAF" d="M34.1597,8.4924c-0.0022,0.0005-0.0042,0.001-0.0061,0.0016C33.9954,8.6265,34.0706,8.5787,34.1597,8.4924
			z"/>
		<path fill="#FFEFAF" d="M36.1045,4.8207c-0.9255-1.1526-2.7109-1.0191-3.8726-0.3442c-0.3909,0.2272-0.7549,0.525-1.0486,0.8691
			c-0.2678,0.2697-0.4531,0.5876-0.5559,0.9537c0.1931-0.4322,0.1638-0.3558-0.0881,0.2292
			c-0.0647,0.1678-0.1145,0.3243-0.1445,0.5021c-0.1677,0.9854,0.179,1.9299,1.1477,2.3387
			c0.8872,0.3745,1.937,0.0533,2.4502-0.7761c0.0376-0.0291,0.075-0.0579,0.1125-0.087c0.0161-0.0041,0.0322-0.0081,0.0483-0.0124
			c0.0093-0.0078,0.0088-0.0081,0.02-0.0173c-0.0051,0.0052-0.0088,0.0106-0.0139,0.0157c0.0588-0.0159,0.1177-0.0325,0.1772-0.0456
			c0.0598-0.0131,0.4736-0.0688,0.1196-0.0282c0.1763-0.0237,0.3525-0.0474,0.5288-0.071c0.2461-0.0677,0.479-0.2075,0.7061-0.3212
			c0.5627-0.2817,0.8943-0.895,0.9744-1.4911C36.7584,5.8482,36.5272,5.3468,36.1045,4.8207z"/>
	</g>
	<path fill="#FFEFAF" d="M46.9383,11.5421c-0.3386-0.7705-1.0474-1.0184-1.8433-0.9047c-1.4592,0.2086-2.8101,0.932-4.1357,1.5429
		c-1.6509,0.7606-0.479,3.4145,1.2266,2.9094c1.4026-0.4153,2.8772-0.7874,4.1133-1.5965
		C46.9471,13.0691,47.2601,12.2735,46.9383,11.5421z"/>
	<path fill="#FFEFAF" d="M25.9774,19.071c-1.3442-0.8614-2.8274,0.1033-3.9629,0.8931c-0.9006,0.6262-1.9319,1.4863-2.2212,2.5873
		c-0.0542,0.0867-0.1101,0.1723-0.1621,0.2604c-0.7249,1.1962,0.7483,2.7626,1.9641,1.9641
		c0.0681-0.0459,0.1384-0.0883,0.2075-0.1327c0.8574-0.1752,1.6655-0.8086,2.3865-1.2393c1.03-0.6155,2.3623-0.8962,2.6362-2.2487
		C26.9954,20.3163,26.7044,19.537,25.9774,19.071z"/>
	<path fill="#FFEFAF" d="M13.7957,32.1661c-0.4199-0.9558-1.3037-1.2705-2.2925-1.1252c-1.0454,0.1536-2.0942,0.7936-3.0422,1.3885
		c-0.6655-0.0138-1.2893,0.4863-1.4814,1.1332c-0.2629,0.8849,0.2742,1.8109,1.1372,2.0991
		c0.7693,0.2569,1.5579,0.024,2.3191-0.1672c0.866-0.2178,1.8115-0.3976,2.5649-0.9016
		C13.8021,34.0569,14.1988,33.0828,13.7957,32.1661z"/>
	<path fill="#FFEFAF" d="M23.7642,38.081c-2.0173,0.4798-3.9119,2.1399-5.6038,3.2843c-1.915,1.2955-0.2737,4.0233,1.7939,3.0693
		c1.8647-0.8601,4.2383-1.6198,5.7007-3.1055C27.0438,39.9182,25.6326,37.6366,23.7642,38.081z"/>
	<path fill="#FFEFAF" d="M45.7176,26.4949c-0.8462,0.2438-1.5381,0.6938-2.2676,1.1674c-0.6997,0.4544-1.4294,0.9385-2.001,1.55
		c-1.313,1.4052-0.0295,3.8539,1.9194,3.2971c0.8115-0.2319,1.5701-0.6355,2.2983-1.0544c0.7451-0.4284,1.4888-0.8329,2.084-1.4672
		C49.1446,28.503,47.7796,25.9006,45.7176,26.4949z"/>
	<path fill="#FFEFAF" d="M42.658,48.5798c-0.2297-1.0389-1.3054-1.4075-2.2344-1.2686c-0.6714,0.1003-1.187,0.5702-1.5537,1.1088
		c-0.0679,0.0997-0.134,0.2005-0.2017,0.3004c-0.0034-0.0046-0.2136,0.2733-0.2244,0.2854
		c-0.3928,0.4506-0.968,1.0189-1.3135,1.2709c-0.6555,0.4781-1.0159,1.244-0.6672,2.0365c0.3052,0.6947,1.1465,1.2226,1.9238,0.9443
		C40.2889,52.5767,43.1898,50.9851,42.658,48.5798z"/>
	<path fill="#FFEFAF" d="M22.8145,56.7249c-1.1328,0.0058-1.9387,0.6688-2.7549,1.3729c-0.2607,0.2249-0.5337,0.4405-0.7759,0.685
		c-0.3633,0.367-0.5867,0.8923-0.8184,1.1994c-0.8147,1.0807,0.5378,2.6978,1.7537,2.281c0.3196-0.1096,0.8787-0.1816,1.3049-0.3915
		c0.3462-0.1704,0.6711-0.3782,1.0012-0.5783c0.9282-0.5623,1.7246-1.1528,2.0784-2.2198
		C24.9852,57.9224,23.9705,56.719,22.8145,56.7249z"/>
	<path fill="#FFEFAF" d="M14.9764,52.2008c-0.2947-0.6987-1.0496-1.2931-1.8472-1.2426c-1.3899,0.0879-3.2642,0.6246-4.0503,1.8772
		c-0.7874,1.2543,0.2368,2.9363,1.6787,2.9254c0.5488-0.0042,1.2026-0.1813,1.7417-0.3188
		c0.7842-0.2002,1.4224-0.5378,2.0591-1.0328C15.1849,53.9222,15.2545,52.8597,14.9764,52.2008z"/>
	<path fill="#FFEFAF" d="M11.8594,61.7254c-2.2004-1.2889-4.6321,0.8762-4.573,3.1539c0.0193,0.7411,0.5264,1.5132,1.2834,1.6856
		c0.7319,0.1667,1.6072-0.1002,1.9741-0.8033c0.01-0.0193,0.0291-0.0654,0.0505-0.111c0.0718-0.0465,0.1465-0.0914,0.2163-0.1394
		c0.2021-0.0775,0.6848-0.2734,0.3596-0.1461c-0.3906,0.153,0.3923-0.1619,0.4312-0.183c0.0903-0.0492,0.1707-0.1128,0.2578-0.1682
		C13.054,64.2547,13.1277,62.4684,11.8594,61.7254z"/>
	<path fill="#FFEFAF" d="M22.6248,67.0123c-0.6453,0.2924-1.2266,0.6685-1.8298,1.0392c-0.5383,0.3307-1.0977,0.6071-1.5981,0.9838
		c-0.7429,0.3765-1.2239,1.1308-0.9841,2.003c0.252,0.9166,1.2017,1.4097,2.1023,1.1936c0.3284-0.0787,0.7468-0.0574,1.1086-0.1676
		c0.4797-0.1461,0.9487-0.325,1.4055-0.5327c0.7991-0.3633,1.5364-0.8583,2.0913-1.5439
		C26.2918,68.2943,24.628,66.1044,22.6248,67.0123z"/>
	<path fill="#FFEFAF" d="M46.4466,57.7391c-0.4529-0.7744-1.301-1.0101-2.1394-0.8706c-0.8164,0.1358-1.5774,0.645-2.2778,1.0663
		c-0.6628,0.3988-1.2961,0.8242-1.9285,1.2698c-0.698,0.4919-1.0659,1.3209-0.7031,2.1463c0.322,0.7324,1.208,1.288,2.0276,0.9951
		c0.8303-0.2966,1.6411-0.6146,2.448-0.9711c0.8162-0.3605,1.6404-0.6922,2.2771-1.34
		C46.7398,59.4355,46.8733,58.4688,46.4466,57.7391z"/>
	<path fill="#E93A1D" d="M31.4202,11.9374c-0.8765-1.0118-2.4385-2.1371-3.979-2.5378c-0.4578-0.3535-1.0156-0.5219-1.6404-0.3502
		c-0.3293,0.0905-0.6609,0.3081-0.9226,0.5898c-0.4072,0.2462-0.7729,0.6087-1.0654,1.1391
		c-1.5649,2.8373,1.4375,5.6045,3.9585,6.2751c1.0884,0.2895,2.3911-0.3483,2.9207-1.3389
		C32.0416,15.0958,32.6111,13.3124,31.4202,11.9374z"/>
	<path fill="#E93A1D" d="M32.3995,31.6078c-0.4153-2.3046-2.1731-4.1439-4.2837-5.0517c-2.0337-0.8748-5.5293-1.1451-6.8804,1.0588
		c-1.8147,2.9602,1.9451,5.1252,3.9182,6.617c1.0972,0.8293,2.394,1.3704,3.7869,0.9961c0.6116-0.1643,1.1335-0.4741,1.5393-0.8843
		C31.8826,34.3027,32.6241,32.8542,32.3995,31.6078z"/>
	<path fill="#E93A1D" d="M23.3538,46.2673c-2.8335,0.7526-3.2485,3.9128-1.1702,5.7697c1.1516,1.0289,3.0908,2.2336,4.8005,2.1455
		c0.2637,0.1059,0.5303,0.2055,0.7998,0.2973c1.0466,0.3565,2.498-0.4124,2.6958-1.5305
		C31.1839,48.967,27.4036,45.1917,23.3538,46.2673z"/>
	<path fill="#E93A1D" d="M33.636,61.0194c-0.502-0.6301-1.4287-1.0477-2.24-0.7637c-0.9753,0.3416-1.9326,0.7712-2.8347,1.2766
		c-1.0298,0.5771-2.2168,1.2034-2.4968,2.4413c-0.302,1.3362,0.6006,2.4573,1.9399,2.5465c0.9661,0.0643,1.675-0.5296,2.4314-1.0327
		c0.3403,0.0319,0.6958,0.0005,1.0818-0.1232c0.9666-0.3098,1.8682-1.0403,2.2849-1.9781
		C34.1575,62.5869,34.2156,61.747,33.636,61.0194z"/>
	<g>
		<g>
			<path fill="#303030" d="M2.8328,74.4479c5.1615,4.6333,10.8047,8.7352,16.6265,12.4951c0.1581,0.1021,0.3795,0.0932,0.5385,0
				c10.6482-6.2443,21.7586-11.6541,33.2565-16.1423c0.4345-0.1696,0.5521-0.7326,0.1309-1.0013
				c-0.7387-0.4713-1.4591-0.9575-2.207-1.4145c-0.5808-0.3549-1.0872,0.5344-0.5294,0.9056
				c0.7297,0.4857,1.4442,0.9834,2.1833,1.455c0.0436-0.3338,0.0872-0.6676,0.1309-1.0013
				C44.2685,73.138,35.7545,77.013,27.54,81.4457c-2.1482,1.1592-4.254,2.6462-6.4795,3.6346
				c-2.2009,0.9774-3.7053-0.7618-5.5632-2.0394c-4.173-2.8696-8.1448-5.9947-12.0844-9.1731
				C3.0105,73.5432,2.4331,74.0891,2.8328,74.4479L2.8328,74.4479z"/>
		</g>
	</g>
	<g>
		<g>
			<path fill="#303030" d="M2.8328,70.0923c5.164,4.6311,10.8045,8.7345,16.6268,12.4945c0.1579,0.102,0.379,0.0931,0.5377,0
				c10.6287-6.2334,21.747-11.7325,33.2569-16.1417c0.4427-0.1696,0.5433-0.7283,0.1309-1.0013
				c-1.1289-0.7475-2.0612-1.6867-3.207-2.4145c-0.5757-0.3657-1.0789,0.5266-0.5294,0.9056
				c1.1136,0.768,2.0529,1.7065,3.1834,2.455c0.0436-0.3338,0.0872-0.6676,0.1309-1.0013
				c-8.6826,3.4528-17.1958,7.2639-25.4223,11.7027c-2.1482,1.1591-4.2542,2.6461-6.4797,3.6342
				c-2.2012,0.9773-3.706-0.7615-5.5641-2.0392c-4.1729-2.8696-8.1457-5.9936-12.0839-9.174
				C3.0105,69.1873,2.4331,69.7338,2.8328,70.0923L2.8328,70.0923z"/>
		</g>
	</g>
	<g>
		<g>
			<path fill="#303030" d="M6.7543,60.8156c-1.3473,0.6406-2.6882,1.2929-4.0244,1.9562c-0.2857,0.1418-0.2925,0.5381-0.0965,0.7486
				c4.92,5.2835,10.7789,9.4599,16.8246,13.3523c0.159,0.1024,0.3812,0.0938,0.541,0
				c10.5999-6.2192,21.7354-11.8381,33.2489-16.1675c0.4232-0.1591,0.5205-0.6997,0.1252-0.9577
				c-2.0486-1.3372-4.1085-2.6582-6.1952-3.9353c-0.58-0.3549-1.0896,0.5366-0.5294,0.9056
				c2.043,1.3458,4.1144,2.6487,6.1956,3.9345c0.0417-0.3192,0.0834-0.6385,0.1252-0.9577
				c-8.9607,3.6271-17.7476,7.4925-26.246,12.1207c-1.0875,0.5922-2.1701,1.1934-3.2477,1.8033
				c-0.843,0.4772-2.2747,1.7233-3.2179,1.8562c-1.8729,0.2639-4.4897-2.2872-5.9772-3.3316
				c-3.9408-2.7667-7.6436-5.8142-10.9731-9.2971c-0.0322,0.2495-0.0643,0.4991-0.0965,0.7486
				c1.325-0.6794,2.644-1.3692,3.9573-2.0711C7.6389,61.2724,7.2253,60.5915,6.7543,60.8156L6.7543,60.8156z"/>
		</g>
	</g>
	<g>
		<g>
			<path fill="#303030" d="M15.5907,47.4758c-4.391,2.0289-8.782,4.0518-13.2239,5.9679c-0.3423,0.1477-0.3211,0.7208,0,0.8756
				c3.0355,1.4634,5.2607,4.0381,7.8861,6.0816c2.9454,2.2926,6.0693,4.3793,9.2035,6.402c0.1598,0.1031,0.3836,0.0943,0.5442,0
				c10.6458-6.2499,21.7659-11.6357,33.2481-16.1672c0.412-0.1626,0.5378-0.7089,0.1259-0.9635
				c-4.6683-2.8854-9.7055-5.1709-13.9258-8.7355c-0.51-0.4307-1.2503,0.2887-0.7416,0.7416
				c4.196,3.7362,9.4168,5.9386,14.1354,8.9041c0.042-0.3211,0.0839-0.6423,0.1259-0.9635
				c-9.1463,3.5311-18.0499,7.6417-26.6529,12.346c-1.0865,0.5941-2.168,1.1971-3.2446,1.8089
				c-0.9622,0.5468-2.2261,1.6397-3.3333,1.611c-1.1105-0.0287-2.3152-1.191-3.2284-1.8102
				c-1.0249-0.695-2.041-1.4027-3.0482-2.1231c-3.5426-2.5338-6.6286-6.1206-10.5825-8.0081c0,0.2919,0,0.5837,0,0.8756
				c4.4283-1.9304,8.8212-3.9419,13.1261-6.1352C16.48,47.942,16.0632,47.2575,15.5907,47.4758L15.5907,47.4758z"/>
		</g>
	</g>
	<g>
		<g>
			<path fill="#303030" d="M12.8343,27.6949c-3.5747,2.0264-7.1929,3.9542-10.9042,5.7193c-0.3747,0.1782-0.2751,0.6681,0,0.8691
				c5.7756,4.2207,11.5136,8.4931,17.5271,12.3735c0.1594,0.1028,0.3825,0.094,0.5427,0
				c10.6462-6.2503,21.7671-11.6316,33.2494-16.1641c0.417-0.1646,0.5358-0.7081,0.1264-0.967
				c-4.7266-2.9882-9.3157-6.198-14.1299-9.0456c-0.5835-0.3452-1.0997,0.5474-0.5294,0.9056
				c4.7366,2.9754,9.4205,6.0287,14.1252,9.0536c0.0421-0.3223,0.0843-0.6446,0.1264-0.967
				c-8.8575,3.4188-17.4865,7.3835-25.836,11.9051c-1.989,1.0771-3.9855,2.5596-6.0732,3.4101
				c-1.5923,0.6487-1.9819,0.3573-3.4015-0.5833c-1.0379-0.6877-2.0679-1.3872-3.0926-2.0944
				c-4.0941-2.8253-8.0993-5.7768-12.1266-8.6958c0,0.2897,0,0.5794,0,0.8691c3.7026-1.7787,7.3184-3.7153,10.8102-5.8801
				C13.6963,28.1255,13.2955,27.4335,12.8343,27.6949L12.8343,27.6949z"/>
		</g>
	</g>
	<g>
		<g>
			<path fill="#303030" d="M53.3156,11.6172c-5.2933-3.1747-10.7833-6.0585-15.9493-9.4356
				c-1.7439-1.1401-1.6982-1.2945-3.807-0.5468c-3.4795,1.2338-6.9149,2.5876-10.3503,3.9379
				c-7.2706,2.8579-14.5405,5.7176-21.8109,8.5758c-0.3657,0.1438-0.5659,0.6068-0.2421,0.9171
				c5.5097,5.2789,11.8792,9.5069,18.2909,13.5975c0.166,0.1059,0.3965,0.0982,0.5631,0
				c10.6304-6.2627,22.0656-11.3093,33.3632-16.2389c0.6171-0.2693,0.0838-1.1732-0.5294-0.9056
				c-6.6236,2.8901-13.181,5.9262-19.6933,9.0597c-2.4311,1.1698-4.8518,2.3614-7.2492,3.599
				c-1.0652,0.5499-2.1263,1.1078-3.1801,1.6792c-0.7024,0.3809-2.0443,1.5525-2.8413,1.5897
				c-1.2272,0.0574-3.2119-1.908-4.2219-2.5759c-1.4703-0.9723-2.9315-1.9585-4.3702-2.9772
				c-3.2871-2.3276-6.4411-4.8212-9.356-7.6035c-0.0807,0.3057-0.1614,0.6114-0.2421,0.9171
				C8.6536,12.454,15.6175,9.702,22.5815,6.9499c3.1626-1.2499,6.3199-2.5151,9.51-3.6937c1.062-0.3924,2.5609-1.3005,3.5154-1.0158
				c0.6879,0.2052,1.5176,0.992,2.1104,1.3736c4.8939,3.1504,10.1058,5.8701,15.1842,8.7115
				C53.3629,12.5836,53.7688,11.889,53.3156,11.6172z"/>
		</g>
	</g>
	<g>
		<g>
			<path fill="#303030" d="M22.2728,12.1558c0.9743,2.3955,2.9863,4.4489,5.4926,5.2356c1.8419,0.5782,4.5619,0.1161,4.791-2.2329
				c0.2271-2.3276-2.4392-5.0864-4.3734-6.0012c-1.9078-0.9023-4.6545-0.6707-5.7003,1.3809
				c-0.2926,0.5739,0.4209,1.1689,0.9065,0.6994c2.5754-2.49,6.5914-0.4936,7.6438,2.6542
				c1.2733,3.8086-3.3601,2.3917-4.8123,1.4345c-1.3544-0.8927-2.3011-2.1321-3.0804-3.5363
				C22.8867,11.3331,22.0662,11.6477,22.2728,12.1558L22.2728,12.1558z"/>
		</g>
	</g>
	<g>
		<g>
			<path fill="#303030" d="M9.5,16.4784c0.8453-0.8173,1.8693-1.3656,3.0127-1.6339c0.7414-0.1739,0.4251-1.2874-0.3131-1.1357
				c-1.358,0.2792-2.5465,0.9657-3.4703,1.9989C8.2641,16.2282,8.9919,16.9697,9.5,16.4784L9.5,16.4784z"/>
		</g>
	</g>
	<g>
		<g>
			<path fill="#303030" d="M32.9255,7.5006c0.6554-0.7246,1.4728-1.2053,2.4141-1.4609c0.6566-0.1783,0.3778-1.145-0.2788-1.0114
				c-1.1363,0.2313-2.14,0.8331-2.9183,1.6892C31.6637,7.244,32.4464,8.0303,32.9255,7.5006L32.9255,7.5006z"/>
		</g>
	</g>
	<g>
		<g>
			<path fill="#303030" d="M43.4238,13.3873c0.6194-0.2638,1.2359-0.5268,1.8425-0.8191c0.51-0.2458,0.1513-1.111-0.3883-0.921
				c-0.6352,0.2237-1.2568,0.4751-1.8808,0.7281C42.2617,12.6733,42.6802,13.7039,43.4238,13.3873L43.4238,13.3873z"/>
		</g>
	</g>
	<g>
		<g>
			<path fill="#303030" d="M21.2065,23.9278c1.034-0.8487,2.2256-1.3433,3.5193-1.647c0.5934-0.1393,0.4811-1.1665-0.1472-1.0876
				c-1.5814,0.1984-2.968,0.8913-4.1386,1.9681C19.9182,23.6413,20.6769,24.3625,21.2065,23.9278L21.2065,23.9278z"/>
		</g>
	</g>
	<g>
		<g>
			<path fill="#303030" d="M21.8203,31.9341c2.3438,1.9766,9.5791,5.4925,11.7124,1.466c2.2193-4.1889-3.9273-7.2619-7.2547-6.1685
				c-0.7024,0.2308-0.4047,1.1923,0.2991,1.0848c1.7016-0.2599,3.4163-0.1485,4.7727,1.0341
				c1.8624,1.6237,1.5673,4.498-1.2843,4.5395c-2.7421,0.0399-5.3771-1.3775-7.6949-2.6691
				C21.9374,30.9795,21.4124,31.5901,21.8203,31.9341L21.8203,31.9341z"/>
		</g>
	</g>
	<g>
		<g>
			<path fill="#303030" d="M43.1497,31.1747c0.7256-0.3135,1.4631-0.619,2.1441-1.0227c0.5012-0.2971,0.1719-1.1941-0.4109-0.9746
				c-0.7846,0.2956-1.526,0.6945-2.2656,1.0866C42.0038,30.5893,42.5433,31.4368,43.1497,31.1747L43.1497,31.1747z"/>
		</g>
	</g>
	<g>
		<g>
			<path fill="#303030" d="M20.5059,42.1669c0.5135-0.6963,1.2543-1.1342,2.0842-1.346c0.6608-0.1686,0.3803-1.1592-0.2804-1.017
				c-1.1193,0.2409-2.0415,0.914-2.6993,1.8396C19.2208,42.1916,20.1155,42.6962,20.5059,42.1669L20.5059,42.1669z"/>
		</g>
	</g>
	<g>
		<g>
			<path fill="#303030" d="M9.1757,34.6752c0.7131-0.3412,1.4573-0.6375,2.1302-1.055c0.4534-0.2813,0.1584-1.1266-0.3815-0.9049
				c-0.7735,0.3175-1.4857,0.7568-2.2189,1.1555C8.173,34.1604,8.6411,34.931,9.1757,34.6752L9.1757,34.6752z"/>
		</g>
	</g>
	<g>
		<g>
			<path fill="#303030" d="M21.6136,51.3077c1.2883,2.119,3.6804,3.8584,6.1749,4.1859c2.2481,0.2951,4.3049-0.9084,4.3571-3.331
				c0.1174-5.4473-7.095-7.7926-10.6072-4.0017c-0.428,0.4619,0.2129,1.0831,0.6836,0.6836
				c1.5234-1.2929,3.477-2.0011,5.4506-1.3203c1.7952,0.6193,3.3725,2.3962,3.423,4.3501c0.0765,2.9607-3.0601,2.8271-4.9379,1.9769
				c-1.5509-0.7022-2.7159-1.8441-3.8355-3.0902C21.9784,50.3783,21.3491,50.8726,21.6136,51.3077L21.6136,51.3077z"/>
		</g>
	</g>
	<g>
		<g>
			<path fill="#303030" d="M40.4557,51.5666c0.5272-0.3591,1.0544-0.7183,1.5816-1.0774c0.4788-0.3261,0.0191-1.1131-0.4554-0.7791
				c-0.5223,0.3676-1.0446,0.7351-1.5669,1.1027C39.5606,51.1325,39.9878,51.8853,40.4557,51.5666L40.4557,51.5666z"/>
		</g>
	</g>
	<g>
		<g>
			<path fill="#303030" d="M20.4136,62.4523c0.3671-0.4421,0.8338-0.7334,1.3829-0.8995c0.5458-0.1651,0.4775-1.1061-0.141-1.0416
				c-0.8983,0.0937-1.5912,0.5358-2.0886,1.2879C19.234,62.3024,20.0197,62.9266,20.4136,62.4523L20.4136,62.4523z"/>
		</g>
	</g>
	<g>
		<g>
			<path fill="#303030" d="M9.3451,54.1647c0.6338-0.4221,1.2695-0.8386,1.8826-1.2905c0.4456-0.3285,0.0345-1.0787-0.4436-0.7589
				c-0.6343,0.4243-1.2427,0.8821-1.856,1.3361C8.5104,53.7605,8.8945,54.4647,9.3451,54.1647L9.3451,54.1647z"/>
		</g>
	</g>
	<g>
		<g>
			<path fill="#303030" d="M22.3764,70.3891c0.707-0.4901,1.4666-0.8148,2.3097-0.9864c0.5162-0.1051,0.2984-0.8997-0.2181-0.791
				c-0.9012,0.1897-1.7434,0.5546-2.4967,1.0843C21.5524,69.9903,21.9496,70.6849,22.3764,70.3891L22.3764,70.3891z"/>
		</g>
	</g>
	<g>
		<g>
			<path fill="#303030" d="M42.6133,61.4472c0.6246-0.35,1.2435-0.6999,1.8316-1.1092c0.5107-0.3555,0.0746-1.109-0.488-0.8348
				c-0.644,0.314-1.2511,0.6839-1.8611,1.0586C41.5339,60.9069,42.0357,61.7709,42.6133,61.4472L42.6133,61.4472z"/>
		</g>
	</g>
	<g>
		<g>
			<path fill="#303030" d="M8.3071,64.5537c0.3541-0.2656,0.7082-0.5312,1.0623-0.7967c0.3994-0.2996,0.0085-0.9815-0.3963-0.678
				c-0.3541,0.2656-0.7082,0.5312-1.0623,0.7967C7.5114,64.1753,7.9023,64.8573,8.3071,64.5537L8.3071,64.5537z"/>
		</g>
	</g>
</g>
</svg>
