<?xml version="1.0" encoding="utf-8"?>
<!-- Generator: Adobe Illustrator 20.1.0, SVG Export Plug-In . SVG Version: 6.00 Build 0)  -->
<svg version="1.1" xmlns="http://www.w3.org/2000/svg" xmlns:xlink="http://www.w3.org/1999/xlink" x="0px" y="0px"
	 viewBox="0 0 288 240" enable-background="new 0 0 288 240" xml:space="preserve">
<g id="site_bg">
</g>
<g id="back">
	<g>
		<g>
			<path fill="#F2F6F9" d="M192.0979,238.1651c-5.96,0-12.6025-2.1685-19.8809-6.5039c-1.0879-0.6479-2.2197-1.3555-3.3965-2.123
				c-0.8369,1.0225-1.7754,1.9736-2.8096,2.8413c-7.4658,6.2651-18.3623,6.2354-25.793-0.0708l-35.8311-30.4023
				c-0.3193,0.3066-0.6504,0.6035-0.9922,0.8901c-4.2432,3.5615-13.3652,8.4219-26.7715,0.9644
				c-2.8232-1.5708-6.2217-3.8315-10.3896-6.9111c-1.8271-1.3496-3.8262-2.8755-5.9912-4.5718
				c-7.0996,1.6553-14.8594-0.6494-19.8691-6.6177c-1.3252-1.5776-2.3643-3.2993-3.123-5.1035
				c-4.1055-5.4351-17.4473-20.5942-28.6641-32.8101c-6.6689-7.2632-6.9814-18.1792-1.0762-25.7788
				c-4.1709-6.29-6.0527-11.3149-5.6885-17.1221c0.3506-5.5977,2.998-10.8608,7.2637-14.4404
				c2.335-1.959,5.0059-3.3027,7.7998-4.0312c-7.2959-8.3193-10.3301-13.04-9.8398-20.8101
				c0.3438-5.4609,2.9404-10.6113,7.1309-14.1289c3.6396-3.0552,8.0645-4.5986,12.4922-4.6777
				c-2.1221-7.5718,0.3662-15.9893,6.9033-21.1265c1.5273-1.2007,3.1768-2.1436,4.8955-2.8354
				c4.4834-2.9761,11.9395-5.5581,22.1211-1.1177c0.8779-1.0996,1.8721-2.1196,2.9766-3.0459
				c7.3906-6.2031,18.0283-6.1782,25.3643-0.2852c0.3271-0.3154,0.666-0.6201,1.0166-0.9146
				c7.0244-5.894,17.0322-6.1914,24.3438-1.0522c0.8936-1.1782,1.9219-2.2632,3.0723-3.2285
				c4.5049-3.7803,10.2891-5.5552,16.3125-5.0078c5.001-2.7529,10.9307-3.2041,16.2344-1.3555
				c2.7051-2.1387,9.9375-6.6353,19.8486-3.4922c4.6211-1.8291,11.4443-2.6709,19.6221,1.959
				c1.0801,0.6123,2.2041,1.3252,3.4102,2.166c5.502-1.7866,11.5781-1.1064,16.5654,1.9238
				c4.2285,0.6924,8.2607,2.7412,11.3936,6.1045c0.5264,0.5654,1.0547,1.1313,1.5869,1.7017
				c6.2021-0.4751,12.5352,1.9575,16.8389,7.0874l42.3691,50.4941c4.7715,5.6855,5.8379,13.2476,3.4561,19.7505
				c1.0312,3.4175,1.123,7.0454,0.2949,10.4878c0.0176,0.7012-0.001,1.4062-0.0576,2.1118
				c-0.2988,3.7412-1.6396,7.2886-3.8281,10.2617c0.7812,2.5132,0.9824,4.897,0.79,7.5908
				c-0.2324,3.2505-1.2549,6.3887-2.9258,9.1343c0.1045,1.2495,0.0947,2.4517,0.0215,3.6611
				c-0.3311,5.4604-2.6113,10.4189-6.46,14.1133c0.3691,1.8823,0.4336,3.6938,0.2998,5.625
				c-0.3105,4.5151-2.124,8.8115-5.0723,12.1646c-0.4668,5.6421-3.0762,10.7178-7.3711,14.3223
				c-1.8848,1.5811-3.9844,2.7593-6.1885,3.5381c0.1621,1.3433,0.1875,2.7095,0.0713,4.0781
				c-0.4502,5.3027-2.9961,10.2075-7.0732,13.6279c-1.2783,1.0728-4.0801,3.0933-8.0166,4.1304
				c-1.1387,4.1943-3.501,7.9136-6.8838,10.752c-4.1074,3.4468-10.2305,5.5156-16.5928,4.3179
				c-1.2227,2.8037-3.085,5.3169-5.4736,7.3213c-2.8848,2.4204-6.2686,4.0352-9.9033,4.772
				C197.9651,237.608,195.1194,238.1646,192.0979,238.1651z"/>
		</g>
	</g>
</g>
<g id="Layer_2">
	<path fill="#E93A1D" d="M73.4245,127.2375c-3.035-6.878,1.998-7.4012,6.7032-9.9196c5.0748-2.7162,7.9626-5.4684,7.2522-12.4363
		c-0.4438-4.3528-4.313-10.6068-9.0347-10.697c-4.3679-0.0834-7.5658,5.1805-11.1082,6.9339
		c0.601-0.2975-11.0997-5.0218-13.8486-4.5101c-5.1964,0.9671-9.8602,4.1661-10.7282,9.633
		c-1.33,8.3779,2.6104,11.2703,9.9924,12.96C57.8555,120.3924,70.859,121.4234,73.4245,127.2375z"/>
	<path fill="#FFEFAF" d="M73.4246,151.1383c6.419-3.0079,18.6561-5.7548,9.8439-13.3362
		c-4.1578-3.5771-12.9111-4.3462-18.103-6.2767c-1.9437,6.4455-10.5681,6.3619-9.998,12.9686
		c0.6389,7.4035,11.7043,9.7209,16.8511,6.6444C74.2998,149.7747,70.7213,150.9787,73.4246,151.1383z"/>
	<path fill="#FFEFAF" d="M207.69,173.633c11.3307-8.3136,7.4907-22.608-4.1327-28.7682
		c-12.2689-6.5023-27.0807-5.0942-31.2081-21.805c-1.3325,3.0834-2.1632,6.8847-5.3946,9.2325
		c-4.1515,3.0163-6.6503,0.7873-11.3325,1.9588c-12.5221,3.1329-11.5149,18.0561-5.6418,26.3354
		c7.8495,11.0656,18.317,10.9525,30.737,13.7496C187.5734,175.88,197.1436,177.6817,207.69,173.633z"/>
	<path fill="#E93A1D" d="M192.1079,122.4805c-3.8476-2.9196-5.4084-8.806-9.3577-12.0383
		c-5.4867-4.4906-12.6032-7.093-18.9952-9.9771c-7.8881-3.5591-16.2248-8.8461-19.3628-17.4801
		c-3.9951-10.9923-0.9565-25.4814,9.8428-30.844c9.9046-4.9184,24.8764-8.1673,33.786,0.0014
		c4.1348,3.7909,7.2497,11.0105,12.7726,12.5616c6.7709,1.9016,13.1499-3.7608,20.2871-0.2046
		c10.3252,5.1446,13.2715,15.3697,11.4195,26.5746c-2.2731,13.753-14.0344,20.4724-26.8915,19.2652
		c-12.8039-1.2022-11.7647-0.932-12.8234,12.6084C192.5515,122.802,192.326,122.646,192.1079,122.4805z"/>
	<g>
		<g>
			<path fill="#303030" d="M49.0792,119.9629c-6.7946-3.8271-8.0924-12.6991-3.667-18.9041
				c2.4173-3.3894,6.8815-5.911,11.1001-5.7481c4.3984,0.1699,7.7935,3.8305,11.0176,6.4017
				c0.6397,0.5102,1.5066-0.2957,0.9183-0.9183c-0.6371-0.6742,2.9919-2.9644,3.4508-3.2445c2.04-1.2449,3.763-1.4805,6.1576-0.6851
				c5.5478,1.8428,8.8426,7.342,7.6731,13.0763c-0.4869,2.3878-1.7463,4.6602-3.5202,6.3312
				c-2.3646,2.2274-4.9743,1.7783-7.8112,2.6779c-4.8292,1.5315-2.5081,5.7253-2.1448,9.3891
				c0.3847-0.1593,0.7694-0.3187,1.1541-0.4781c-2.9341-2.334-5.3465-5.7128-9.0937-6.8036
				c-5.0686-1.4753-10.2565,0.757-15.3283-1.2539c-0.6592-0.2613-1.1128,0.8269-0.4831,1.1459
				c4.1413,2.0983,8.4646,0.8363,12.8791,1.0611c4.9639,0.2527,7.4817,3.9579,11.07,6.8066
				c0.4004,0.3179,1.2192,0.1717,1.1541-0.478c-0.1469-1.4668-0.5554-2.8494-0.8488-4.2866
				c-0.6183-3.0285,1.6666-3.8427,4.1204-4.2248c3.2485-0.5058,5.528-1.415,7.5888-4.0817
				c3.084-3.9907,3.7877-9.6144,1.3656-14.1053c-2.1679-4.0195-8.1623-8.1041-12.8441-6.1731
				c-1.5212,0.6274-7.6365,3.9427-5.4577,6.2447c0.3061-0.3061,0.6122-0.6122,0.9183-0.9183
				c-3.5197-2.8023-7.1357-6.6133-11.9359-6.7712c-4.4807-0.1474-9.1975,2.4177-11.868,5.9432
				c-5.0827,6.7098-3.8752,16.8946,3.9144,20.8872C49.1463,121.1545,49.6613,120.2908,49.0792,119.9629z"/>
		</g>
	</g>
	<g>
		<g>
			<path fill="#303030" d="M82.6855,135.0623c2.9216,1.7266,5.3145,4.8937,4.9205,8.4482c-0.3881,3.501-3.4051,5.6662-6.4773,6.8213
				c-6.1983,2.3304-14.1241,2.5639-20.5723,1.2176c-3.3644-0.7024-6.7335-2.5895-6.967-6.3976
				c-0.2074-3.3817,2.0909-7.65,5.49-8.5893c1.8342-0.5069,4.2132-0.2032,5.5819-1.7943c1.5204-1.7675,0.0882-4.4629-0.1257-6.429
				c-0.3841,0.1591-0.7683,0.3182-1.1524,0.4774c2.2757,1.8245,4.1652,4.432,7.0452,5.3562
				c4.041,1.2967,8.2554-0.4476,12.3506,1.049c0.666,0.2434,1.1122-0.8224,0.4831-1.1459c-3.2178-1.6545-6.5714-0.75-10.0214-0.864
				c-4.0321-0.1333-6.0125-3.0388-8.9029-5.3499c-0.396-0.3166-1.2239-0.1711-1.1524,0.4773
				c0.1838,1.6686,1.6475,4.6527,0.0482,5.9023c-1.3766,1.0756-3.7614,0.6583-5.3468,1.3083
				c-2.6761,1.0972-4.6079,4.0571-5.3092,6.7781c-1.9498,7.5657,5.1769,10.4349,11.3523,10.9896
				c6.8747,0.6175,16.712,0.5558,22.1823-4.4481c4.9884-4.5631,2.5984-11.8297-2.9064-14.6976
				C82.6194,133.8662,82.1109,134.7227,82.6855,135.0623z"/>
		</g>
	</g>
	<g>
		<g>
			<path fill="#303030" d="M148.3542,94.8031c-10.0271-9.7781-9.9444-25.0583-1.6948-35.9613
				c4.0826-5.3957,9.9402-9.3905,16.5613-10.8988c6.84-1.5581,14.5574-1.4811,20.4569,2.735
				c6.0038,4.2906,9.7229,11.3312,13.9178,17.2262c0.476,0.6689,1.568,0.0681,1.1213-0.6554
				c-1.8708-3.0306,11.4301-6.2279,13.4172-6.4925c4.2071-0.5603,8.7516,2.3898,11.7673,5.0349
				c3.4338,3.0118,6.2003,6.8615,7.6207,11.2236c2.5518,7.8366,0.6356,16.5337-4.4226,22.9469
				c-2.5629,3.2495-5.8678,5.8677-9.615,7.6249c-5.3443,2.5061-10.302,0.6317-15.842,0.4313
				c-3.428-0.124-7.0537,0.7367-8.4789,4.1789c-1.6666,4.0252-0.6949,8.8516-1.5674,13.0673
				c0.4119-0.0538,0.8238-0.1077,1.2357-0.1615c-5.0534-6.9747-7.9759-16.06-16.2598-20.0019
				c-9.2024-4.3789-20.0653-3.4224-28.1392-10.3762c-0.6049-0.521-1.4811,0.3279-0.8866,0.8866
				c7.0717,6.6461,16.9677,6.617,25.6864,9.6189c4.8348,1.6646,8.3947,4.6901,11.2162,8.912
				c2.5405,3.8013,4.5264,7.9352,7.2155,11.6431c0.3102,0.4277,1.1073,0.4604,1.2357-0.1615
				c0.45-2.1796,0.5727-4.3654,0.6607-6.5853c0.0907-2.2869-0.0128-4.955,1.1711-7.0024c2.9632-5.1243,11.5715-1.751,16.1891-1.6637
				c8.851,0.1674,17.018-7.3771,20.5574-15.0035c3.4952-7.531,3.3454-16.3986-0.8973-23.6049
				c-3.727-6.3304-11.6819-13.6136-19.6237-12.1212c-2.5594,0.481-16.3206,3.473-13.3619,8.2618
				c0.3738-0.2185,0.7475-0.437,1.1213-0.6554c-4.125-5.7922-7.7757-12.5004-13.4418-16.9728
				c-5.552-4.3823-12.4678-5.0691-19.29-4.1183c-14.2002,1.9791-25.5345,13.9503-26.6457,28.3093
				c-0.6188,7.9968,2.462,15.5942,8.2856,21.0654C148.108,95.986,148.8312,95.2682,148.3542,94.8031z"/>
		</g>
	</g>
	<g>
		<g>
			<path fill="#303030" d="M208.5148,144.439c7.5904,7.5453,9.407,21.2176-0.613,27.6208
				c-9.0118,5.7589-21.6483,3.7997-31.4693,1.757c-6.159-1.281-12.2048-3.1215-18.0275-5.5034
				c-5.138-2.1018-10.6586-4.7667-13.9122-9.4661c-6.4895-9.3734,1.3753-22.3146,11.3435-25.2349
				c4.8984-1.435,11.8463,2.7193,16.0963-1.0559c3.136-2.7857,1.8227-8.6072,2.5642-12.2681
				c-0.4113,0.0537-0.8226,0.1075-1.2339,0.1613c3.8959,5.402,6.2026,12.446,12.4781,15.6625
				c7.347,3.7656,16.1029,2.8721,22.6951,8.4056c0.6088,0.511,1.4819-0.324,0.8866-0.8867
				c-5.588-5.2817-13.3927-5.2749-20.3042-7.6325c-7.853-2.6788-10.1346-10.0609-14.5899-16.2304
				c-0.308-0.4265-1.1084-0.4603-1.2339,0.1613c-0.4911,2.4324-0.418,4.8725-0.625,7.3317
				c-0.3215,3.8193-2.2382,5.584-6.2292,5.4381c-3.026-0.1106-5.9641-1.0642-9.0139-0.7274
				c-2.598,0.2869-5.0831,1.5971-7.2018,3.0717c-8.0261,5.586-12.772,16.642-6.2423,25.1771
				c3.2235,4.2135,8.1131,6.7865,12.9004,8.8195c6.6374,2.8186,13.5815,4.9233,20.6602,6.2935
				c10.1658,1.9678,23.2619,3.7243,32.1936-2.9337c9.632-7.1802,7.6226-21.1157-0.3928-28.6901
				C208.7621,143.2544,208.0424,143.9694,208.5148,144.439z"/>
		</g>
	</g>
	<g>
		<g>
			<path fill="#FFEFAF" d="M153.2141,63.444c2.5915-3.2674,5.9158-6.0011,9.8945-7.3734
				c1.7705-0.6106,10.7151-2.9021,11.7699-0.3234c0.7952,1.9441,4.3076,1.999,4.0667-0.5504
				c-0.5539-5.8604-8.542-5.1359-12.8269-4.125c-6.2364,1.4714-11.5148,5.496-14.6957,10.9899
				C150.7967,63.1428,152.3868,64.487,153.2141,63.444L153.2141,63.444z"/>
		</g>
	</g>
	<g>
		<g>
			<path fill="#FFEFAF" d="M205.0302,72.5958c2.1314-1.2458,4.1411-2.6079,6.5341-3.3208c2.2675-0.6755,4.6074-0.4424,6.8581-1.0331
				c1.3075-0.3431,1.8207-2.5407,0.4106-3.1414c-5.1928-2.2123-12.714,1.0958-15.8444,5.4537
				C202.0854,71.8115,203.8156,73.3057,205.0302,72.5958L205.0302,72.5958z"/>
		</g>
	</g>
	<g>
		<g>
			<path fill="#FFEFAF" d="M191.7119,109.408c-2.3739-5.6191-6.3071-10.0001-11.6668-12.9792
				c-5.9489-3.3066-12.9359-3.8112-19.5003-5.1397c-1.8365-0.3717-3.3112,2.3635-1.3665,3.2414
				c5.094,2.2997,10.8647,1.86,16.0771,3.847c5.9956,2.2856,10.7677,7.0189,14.0011,12.4658
				C190.2193,112.4655,192.403,111.044,191.7119,109.408L191.7119,109.408z"/>
		</g>
	</g>
	<g>
		<g>
			<path fill="#FFEFAF" d="M200.7399,104.8237c4.6142,2.0671,9.9265,2.4901,14.6838,0.6498
				c2.0251-0.7834,1.2746-3.7302-0.9055-3.2846c-4.3101,0.881-8.26,0.8077-12.484-0.4352
				C200.2563,101.2305,198.9699,104.0308,200.7399,104.8237L200.7399,104.8237z"/>
		</g>
	</g>
	<g>
		<g>
			<path fill="#FFEFAF" d="M47.3028,114.2781c5.6792,3.7437,11.5806,7.2046,18.403,4.2347
				c1.6504-0.7184,0.4716-3.5428-1.2341-2.9273c-5.3966,1.9475-11.2045-0.8202-15.8914-3.4931
				C47.1542,111.2791,45.9501,113.3864,47.3028,114.2781L47.3028,114.2781z"/>
		</g>
	</g>
</g>
</svg>
