<?xml version="1.0" encoding="utf-8"?>
<!-- Generator: Adobe Illustrator 20.1.0, SVG Export Plug-In . SVG Version: 6.00 Build 0)  -->
<svg version="1.1" xmlns="http://www.w3.org/2000/svg" xmlns:xlink="http://www.w3.org/1999/xlink" x="0px" y="0px"
	 viewBox="0 0 266 259" enable-background="new 0 0 266 259" xml:space="preserve">
<g id="site_bg">
</g>
<g id="back">
	<g>
		<g>
			<path fill="#F2F6F9" d="M106.6288,216.8913c-4.3311,0-9.4951-1.3125-15.4541-5.0078c-2.3135-1.4341-4.9678-3.3096-8.041-5.6816
				c-7.584,2.5757-16.3018,0.4199-21.7588-6.084c-1.6543-1.9707-2.8623-4.167-3.6367-6.4663
				c-6.0898-8.564-30.1846-35.9829-50.7539-58.3853c-6.8506-7.4605-6.9775-18.7427-0.6279-26.3364
				c-2.2891-4.5107-3.0938-8.2905-2.8301-12.502c0.3535-5.6323,3.0137-10.9248,7.2998-14.521
				c2.5557-2.1445,5.5146-3.5522,8.6016-4.2227c-1.7568-3.2871-2.5342-6.5698-2.2764-10.6641
				c0.3447-5.4614,2.9375-10.6016,7.1289-14.1191c3.9512-3.3149,8.8232-4.8555,13.6426-4.6636
				c-1.2588-7.0449,1.3203-14.5205,7.3105-19.2402c0.3818-0.3013,0.7715-0.5859,1.168-0.855
				c0.3945-0.3921,0.8057-0.7686,1.2334-1.127c4.4326-3.7192,10.0205-5.3882,15.8252-4.8281c1.2891-2.8589,3.21-5.4067,5.6816-7.481
				c5.6729-4.7588,13.2676-5.856,19.8135-3.4316c0.7637-0.9224,1.6133-1.7798,2.542-2.5596
				c7.6543-6.4263,18.873-6.2144,26.2803,0.4917l0.873,0.79c0.7939-0.9785,1.6846-1.8862,2.6641-2.7075
				c4.2666-3.5806,12.75-8.0566,25.0146-2.3711c6.2656-1.5215,13.1279,0.0107,18.2197,4.6548l4.0742,3.7158
				c3.6221-2.0278,7.7881-2.9097,12.042-2.5093c3.3398,0.314,6.3008,1.1841,9.6016,3.1846c3.3252,1.04,6.4199,2.9624,8.9131,5.7471
				c0.1514,0.1699,15.3467,17.1543,30.3105,34.4033c8.8574,10.2109,15.9297,18.5464,21.0186,24.7749
				c9.2725,11.3491,14.3809,17.6006,13.7178,26.8799c-0.0234,0.3306-0.0557,0.6602-0.0957,0.9883
				c0.0518,0.9229,0.0439,1.8472-0.0127,2.7856c-0.3076,5.0757-2.4561,9.8765-5.9658,13.4443
				c0.6162,2.2891,0.7783,4.4888,0.6133,6.8892c-0.3145,4.5679-2.1768,8.9121-5.2021,12.2749
				c-0.5059,5.521-3.0879,10.4868-7.3086,14.0283c-1.6006,1.3433-3.3574,2.3965-5.2031,3.1606
				c0.4346,1.9585,0.5762,3.9888,0.4033,6.0249c-0.4502,5.3027-2.9961,10.2075-7.0732,13.6279
				c-1.5186,1.2749-3.1924,2.2979-4.9658,3.062c-0.4619,5.7896-3.1221,10.9888-7.5283,14.6865
				c-3.6387,3.0537-8.8955,5.0352-14.5039,4.5952c-1.1699,3.4116-3.252,6.4756-6.0635,8.8345
				c-3.25,2.7271-7.1377,4.416-11.2979,4.9609c-7.251,2.5015-15.79,0.9902-25.4912-4.5303
				c-1.332-0.7578-2.7354-1.6089-4.2129-2.5571c-0.9141,1.1787-1.96,2.2671-3.1289,3.248
				c-7.3662,6.1802-18.084,6.2441-25.5215,0.1567l-6.8105-5.5742c-1.2012,2.312-2.8545,4.3901-4.8916,6.0991
				C117.2938,214.2175,112.8084,216.8904,106.6288,216.8913z"/>
		</g>
	</g>
</g>
<g id="Layer_2">
	<path fill="#FFEFAF" d="M147.7323,94.7299c-3.4497-5.9279-8.5719-0.1741-12.5264-5.2478
		c-2.0986-2.6925-3.5658-6.4527-7.8303-4.6265c-3.0026,1.2905-3.7964,5.3613-4.3226,8.0635
		c0.5325-2.7343-8.9146,0.752-9.8012,1.7223c-2.1637,2.3679-2.9141,7.3452-1.5779,10.2827
		c3.7649,8.2768,17.7552,6.8905,24.8902,6.0113c7.3127-0.9011,15.6177-7.2783,11.5072-15.5737
		C147.9602,95.1375,147.8472,94.9272,147.7323,94.7299z"/>
	<path fill="#FFEFAF" d="M135.3676,80.5834c1.3261-6.7362,10.678-3.3371,15.0646-9.7413
		c5.4955-8.0233-1.6455-13.3704-9.0434-15.4092c-5.4795-1.5101-17.5448-2.9758-23.0258-0.0183
		c-6.5453,3.5318-7.7124,12.7401-1.4095,16.6864c3.2014,2.0045,7.3806-0.0753,10.4823,1.5413
		C130.7232,75.3555,131.1294,79.8851,135.3676,80.5834z"/>
	<path fill="#FFEFAF" d="M138.6572,147.673c-2.4913-4.0784-7.1615-9.1409-10.3695-8.3403c-3.469,0.8658-2.9574,4.719-4.2494,7.1189
		c-2.6624,4.9455-4.9676,7.817-4.464,13.7722c0.1707,2.0134,2.8381,3.6931,4.4178,1.8297
		c8.2684-9.7548,10.3593,15.0194,10.188,18.59c-0.2065,4.3045-1.3055,9.1061-0.277,13.3771c0.1746,0.725,4.5748,9.0609,5.057,7.8063
		c2.4944-6.4894-0.8438-19.8874-0.0513-27.8147c0.632-6.3217,2.9191-16.7652,1.3629-22.9061
		C140.048,150.2234,139.468,149.0003,138.6572,147.673z M131.2059,154.6916c0.2092-0.0059,0.4194-0.0159,0.6277-0.0127
		c-0.0056,0.1472-0.01,0.2944-0.0154,0.4415c-0.2959-0.0884-0.5935-0.1654-0.8943-0.2299
		C131.0196,154.8354,131.1124,154.7602,131.2059,154.6916z"/>
	<path fill="#E93A1D" d="M182.9217,65.7374c-8.4285-22.5807-28.875-35.3209-52.3264-37.4957
		c-10.8401-1.0052-22.5798,0.6021-31.8496,6.644C88.3849,41.639,81.817,53.4985,77.9422,64.9574
		c-8.2988,24.5416-1.2622,54.9672,22.4937,68.2247c1.303,0.7272,2.564,0.8628,3.677,0.5979
		c8.3418,5.0861,19.6487,6.0984,28.9429,5.3467c11.9939-0.9702,23.4504-5.2533,32.853-12.8203
		C183.4513,112.1882,190.8368,86.9421,182.9217,65.7374z M164.5038,113.7856c-7.689,8.483-18.5044,13.6995-29.8179,15.1243
		c-9.8935,1.246-18.4678-1.5188-27.6841-3.5906c-0.3499-0.4097-0.7849-0.7886-1.3137-1.1227
		c-16.5222-10.4406-23.554-29.9966-19.6067-48.9055c2.0208-9.6791,6.3218-19.8148,13.1465-27.1168
		c6.3379-6.781,15.3467-9.46,24.4229-9.6405c19.0476-0.3792,38.019,7.8043,47.2554,25.0458
		C179.5274,79.6728,176.7484,100.2772,164.5038,113.7856z"/>
	<g>
		<g>
			<path fill="#303030" d="M129.4815,247.3127c-2.8708-3.845-5.9456-7.5628-8.0667-11.8994
				c-2.4858-5.0821-3.1124-10.4212-2.9648-16.0226c0.2942-11.1617,1.0312-22.328,1.5583-33.4812
				c0.2564-5.426,0.2246-10.9618,0.8448-16.3601c0.333-2.8992,1.1727-5.8773,3.5161-7.7957
				c2.458-2.0122,5.5863-1.7243,7.8166,0.4762c4.0358,3.9817,2.9505,10.6872,2.687,15.8019
				c-0.2477,4.8069-0.5408,9.6251-0.2887,14.4383c0.2555,4.8784,1.1052,9.6761,3.1033,14.1585
				c2.4626,5.5245,3.4563,11.4742,5.6461,17.0896c0.3634,0.9319,1.8806,0.5358,1.5199-0.419
				c-2.0152-5.3345-2.9398-11.0201-5.2322-16.2547c-2.4259-5.5396-3.4355-11.084-3.5333-17.1309
				c-0.0894-5.5322,0.4092-11.0462,0.5865-16.5712c0.1479-4.6084-0.1954-9.7122-4.0559-12.838
				c-3.1678-2.5649-7.319-2.1374-10.0922,0.7871c-3.4511,3.6394-3.3595,9.0167-3.5781,13.7004
				c-0.6102,13.068-1.2209,26.136-1.8297,39.2041c-0.3006,6.4527-0.6643,12.978,1.7086,19.1205
				c2.1223,5.4938,5.7442,10.4369,9.8494,14.6175C129.0714,248.3363,129.8381,247.7903,129.4815,247.3127L129.4815,247.3127z"/>
		</g>
	</g>
	<g>
		<g>
			<path fill="#303030" d="M124.0287,149.7755c0.763-3.1063,1.3563-6.5595,1.4902-9.759c0.0286-0.6832-1.0267-0.824-1.1912-0.1612
				c-0.7673,3.0903-1.1707,6.6011-1.3118,9.7832C122.9902,150.219,123.8903,150.3393,124.0287,149.7755L124.0287,149.7755z"/>
		</g>
	</g>
	<g>
		<g>
			<path fill="#303030" d="M134.8011,149.3759c-0.0581-3.1339-0.0888-6.4453-0.5998-9.5397
				c-0.1254-0.7592-1.2686-0.5367-1.2948,0.1752c-0.1134,3.0741,0.2842,6.307,0.6172,9.3644
				C133.6106,150.1731,134.8167,150.2166,134.8011,149.3759L134.8011,149.3759z"/>
		</g>
	</g>
	<g>
		<g>
			<path fill="#303030" d="M138.251,168.5682c9.2956,7.2427,30.8154,17.3028,21.6323,32.1097
				c-0.349,0.5627,0.4543,1.1821,0.9156,0.7065c5.1289-5.2873,2.0637-13.9538-2.1036-18.7222
				c-5.4409-6.2258-13.1276-10.2482-19.9225-14.7704C138.3722,167.6251,137.8626,168.2656,138.251,168.5682L138.251,168.5682z"/>
		</g>
	</g>
	<g>
		<g>
			<path fill="#303030" d="M114.3309,184.5403c1.6759,2.1216,2.7082,4.5186,2.7673,7.2443c0.0574,2.6444-1.7,8.2924-5.4644,6.1627
				c-2.13-1.205-3.5601-4.4039-4.8692-6.3869c-1.5389-2.331-3.646-4.7833-4.6774-7.3879
				c-1.9901-5.0254,3.5251-9.9599,7.1043-12.7345c3.4167-2.6486,7.1191-4.4537,10.9956-6.2926
				c0.6944-0.3294,0.2009-1.417-0.5147-1.2209c-5.594,1.5334-11.3202,5.6579-15.2717,9.8176
				c-1.8865,1.9859-3.7649,4.5076-4.2002,7.2784c-0.5591,3.5591,2.1363,6.5029,3.965,9.2707
				c2.1517,3.2568,6.6992,13.0732,11.9245,8.356c4.215-3.8052,2.6576-11.3675-0.8516-15.0142
				C114.6507,183.0223,113.8327,183.9097,114.3309,184.5403L114.3309,184.5403z"/>
		</g>
	</g>
	<g>
		<g>
			<path fill="#303030" d="M101.9812,192.9596c-3.333,2.93-2.4211,7.7027-1.5039,11.5345c0.7638,3.1908,1.5516,6.3765,2.3425,9.5607
				c0.4672,1.881,0.951,4.0018,2.571,5.2527c2.9409,2.2708,7.0997,0.1744,8.6059-2.7721
				c2.5274-4.9444-0.1215-11.0763,0.3227-16.3052c0.064-0.7532-1.1541-0.9124-1.3178-0.1784
				c-0.8193,3.6732,0.4035,7.2147,0.5215,10.8909c0.0706,2.1979-0.221,4.7509-1.8804,6.3777
				c-1.8509,1.8145-4.8349,2.0887-6.3357-0.3459c-0.9801-1.5898-1.2478-3.8969-1.6941-5.69
				c-0.515-2.0694-1.0279-4.1393-1.5498-6.2069c-0.9205-3.6465-2.3136-8.2823,0.7219-11.3142
				C103.3076,193.2414,102.5265,192.4803,101.9812,192.9596L101.9812,192.9596z"/>
		</g>
	</g>
	<g>
		<g>
			<path fill="#303030" d="M100.8807,210.4524c-1.6375,3.2563,0.119,6.4623,1.6745,9.4033
				c2.3029,4.3541,4.7814,8.6076,7.3933,12.7831c0.2553,0.4081,0.7324,0.4188,1.0821,0.1394
				c2.5453-2.0337,4.6652-4.7581,5.4057-7.9819c0.1427-0.6212-0.8032-1.1039-1.087-0.4583
				c-1.2958,2.9475-2.7456,5.4131-5.293,7.4658c0.3607,0.0465,0.7214,0.093,1.0821,0.1394
				c-2.0354-3.2238-3.9891-6.4959-5.8582-9.819c-1.8142-3.2256-4.9944-7.4587-3.5267-11.304
				C101.9459,210.3164,101.1227,209.9712,100.8807,210.4524L100.8807,210.4524z"/>
		</g>
	</g>
	<g>
		<g>
			<path fill="#303030" d="M104.2087,226.4527c1.2602,3.4687,2.714,6.874,4.1176,10.2866c0.8078,1.964,1.5046,4.3197,3.7204,5.0885
				c4.8565,1.685,7.6805-3.8974,8.8083-7.5657c0.2296-0.747-0.8855-1.0247-1.1526-0.3178
				c-0.7213,1.9088-1.4051,4.1303-2.9939,5.5336c-0.8396,0.7415-2.0709,1.3128-3.2157,1.2708
				c-1.9853-0.0727-2.7221-1.6276-3.4004-3.1891c-1.6627-3.8275-3.111-7.7479-4.8557-11.5404
				C104.9727,225.4453,103.9908,225.8531,104.2087,226.4527L104.2087,226.4527z"/>
		</g>
	</g>
	<g>
		<g>
			<path fill="#303030" d="M140.6033,210.9775c1.0405-1.6771,1.4409-3.8191,1.4418-5.7766c0.0004-0.9038-1.2875-0.8637-1.377,0
				c-0.1908,1.8416-0.6078,3.6061-0.8949,5.4267C139.6964,211.1153,140.3151,211.4419,140.6033,210.9775L140.6033,210.9775z"/>
		</g>
	</g>
	<g>
		<g>
			<path fill="#303030" d="M161.7156,196.213c1.2678,2.279,2.5399,4.6923,3.2695,7.201c0.3943,1.3559,0.5957,2.7307,0.4511,4.1387
				c-0.0977,0.9505-0.4938,1.8409-0.5547,2.787c-0.1373,2.1315,1.5097,4.0146,1.5354,6.2529
				c0.0305,2.6498-0.8756,5.27-1.6064,7.7827c-3.0889,10.6194-6.5853,21.2658-9.0391,32.0509
				c-0.1835,0.8064,0.9638,1.1142,1.2317,0.3396c1.9465-5.6275,3.4111-11.4449,5.0493-17.1683
				c1.6638-5.8131,3.4098-11.6146,4.9411-17.4641c0.5741-2.1931,1.0615-4.4738,0.8038-6.7507
				c-0.0906-0.8-0.2604-1.5633-0.5498-2.3196c-0.6575-1.7181-0.7374-2.9356-0.4554-4.8243
				c0.6962-4.6625-1.8704-8.7587-4.3832-12.4309C162.1198,195.3856,161.4613,195.7558,161.7156,196.213L161.7156,196.213z"/>
		</g>
	</g>
	<g>
		<g>
			<path fill="#303030" d="M117.4458,240.7347c0.1383,5.2785,1.2157,10.6513,2.7854,15.6809
				c0.2517,0.8066,1.4951,0.4729,1.2713-0.3505c-1.3911-5.1169-2.2889-10.2268-3.0956-15.4604
				C118.3222,240.0558,117.4316,240.1916,117.4458,240.7347L117.4458,240.7347z"/>
		</g>
	</g>
	<g>
		<g>
			<path fill="#303030" d="M87.1814,122.4895c-8.1724-9.3786-13.1638-20.7744-13.5227-33.2998
				c-0.1981-6.9146,0.892-13.7929,2.5627-20.4848c1.5112-6.0528,3.3102-12.2255,6.4434-17.6598
				c3.3413-5.7952,8.313-9.6601,14.1273-12.7932c5.7826-3.116,11.8342-5.8066,18.1382-7.6778
				c11.0915-3.2922,22.5958-3.3886,33.5898,0.3261c20.0109,6.7615,35.8116,24.5624,37.8027,45.8962
				c1.9243,20.6176-7.9599,42.0658-25.7561,52.9659c-11.6768,7.1521-25.8832,10.5618-39.5118,8.9594
				c-6.4392-0.7571-12.7857-2.6141-18.6015-5.4817c-5.6627-2.7921-10.5114-6.6548-15.2825-10.7402
				c-0.5697-0.4878-1.2711,0.2393-0.8121,0.8121c7.2885,9.0943,19.3614,14.5566,30.6289,16.6105
				c12.3304,2.2476,24.8793,0.4158,36.3616-4.4856c20.9371-8.9373,34.4863-29.6329,34.9426-52.3584
				c0.4467-22.2406-13.1657-42.0903-33.1521-51.3436c-9.9318-4.5982-20.9638-6.3897-31.8095-4.7595
				c-6.9765,1.0486-13.6983,3.3504-20.1114,6.2462c-6.0847,2.7475-12.5329,5.8548-17.2643,10.6804
				c-4.7002,4.7937-7.3907,11.0996-9.3709,17.4168c-2.4403,7.7848-4.2548,15.9067-4.5356,24.0833
				c-0.4789,13.9415,4.2815,28.028,14.3004,37.9202C86.8938,123.8606,87.6753,123.0562,87.1814,122.4895z"/>
		</g>
	</g>
	<g>
		<g>
			<path fill="#303030" d="M162.5356,119.3969c-7.8531,6.7241-17.2294,10.9079-27.6555,11.2253
				c-5.7091,0.1739-11.3918-0.7086-16.9205-2.0771c-4.8895-1.2103-9.8836-2.6381-14.3219-5.0715
				c-9.3196-5.1097-14.1749-16.2593-17.2716-25.9623c-2.9394-9.21-3.3656-18.7895-0.4915-28.0663
				c5.2498-16.9453,20.0243-30.6364,37.9314-32.5651c17.1803-1.8505,35.2539,6.2066,44.4983,20.9725
				c6.0638,9.6856,9.0034,21.5577,7.7507,32.9387c-0.5851,5.315-2.0682,10.5649-4.3816,15.3867
				c-2.355,4.9084-5.6921,9.0525-9.1275,13.2294c-0.4772,0.5803,0.2312,1.2618,0.8121,0.8121
				c7.7213-5.9777,12.2805-16.3182,13.9697-25.733c1.8587-10.3592,0.2971-20.899-3.8599-30.5267
				c-7.5665-17.5242-25.0343-28.8435-44.101-29.0812c-18.8251-0.2347-35.4976,11.5241-43.0361,28.5672
				c-3.7791,8.5438-5.0412,17.9383-3.4139,27.1501c1.026,5.8082,3.0647,11.392,5.5622,16.7192
				c2.2601,4.8209,4.7781,9.8342,8.6888,13.5461c4.0938,3.8857,9.4225,6.0789,14.7425,7.7177
				c6.3809,1.9656,13.0167,3.4251,19.708,3.6562c11.6609,0.4026,23.5178-3.5651,31.7501-12.0052
				C163.9044,119.6801,163.1054,118.909,162.5356,119.3969z"/>
		</g>
	</g>
	<g>
		<g>
			<path fill="#303030" d="M120.5678,56.6784c6.2008-0.4028,12.5667-0.5066,18.7225,0.4685
				c5.5606,0.8809,12.4742,3.8675,12.6511,10.471c0.1608,6.0056-6.2307,7.9792-11.1541,7.9168
				c-1.4865-0.0188-3.4253-0.6554-4.4598,0.7526c-0.518,0.705-0.6295,1.7702-0.8473,2.5848
				c-0.4485,1.6773-0.8965,3.3549-1.3446,5.0323c0.3224-0.0851,0.6447-0.1702,0.9671-0.2553
				c-1.8398-1.9698-3.352-4.115-4.8783-6.3257c-0.3781-0.5476-1.2225-0.072-0.9006,0.5264c1.309,2.4329,3.0821,4.6036,4.9606,6.6175
				c0.2985,0.32,0.8571,0.1552,0.9671-0.2553c0.474-1.7695,0.7687-3.7958,1.4697-5.489c0.972-2.3475,2.5998-1.9898,4.7416-2.0298
				c2.095-0.0391,4.2267-0.3609,6.1682-1.1724c4.2067-1.7584,6.4243-5.9713,5.0249-10.4022
				c-1.6123-5.105-6.4529-7.7403-11.4067-8.7782c-6.7078-1.4054-13.9081-1.3212-20.6814-0.5176
				C120.035,55.8862,120.0081,56.7148,120.5678,56.6784L120.5678,56.6784z"/>
		</g>
	</g>
	<g>
		<g>
			<path fill="#303030" d="M124.4274,89.5247c-4.1818,0.6119-9.0083,0.1613-12.4258,3.1188
				c-2.8072,2.4294-3.766,6.4025-3.2492,9.9828c1.3409,9.2882,12.3184,9.6061,19.673,9.4892
				c7.7082-0.1225,20.5013,0.9482,23.6485-8.2916c1.2979-3.8104,0.257-8.0703-2.7467-10.7667
				c-3.1386-2.8174-7.2732-2.6744-11.2019-3.3172c-0.758-0.124-1.5799-0.1752-2.3158-0.3949
				c-0.7588-0.2265,0.0888,0.2631-0.4391-0.2259c-0.8939-0.8282-1.623-1.9651-2.3983-2.9038
				c-1.7121-2.073-3.4244-4.1459-5.1347-6.2204c-0.3662-0.4442-1.0493-0.055-1.068,0.4424c-0.1182,3.1559-0.209,6.3137-0.3288,9.469
				c-0.0291,0.7655,1.1604,0.7643,1.1895,0c0.1199-3.1562,0.269-6.3125,0.3906-9.469c-0.356,0.1475-0.712,0.2949-1.068,0.4424
				c2.4069,2.9258,4.757,5.9076,7.2189,8.7869c0.9789,1.1448,2.1048,1.0656,3.6109,1.3163
				c3.4059,0.567,7.3167,0.4328,10.1508,2.6209c4.0526,3.129,4.5544,9.2642,1.0067,13.0065
				c-2.9716,3.1346-7.6523,3.7574-11.7454,3.9619c-4.3004,0.2149-8.6438,0.4048-12.9485,0.2542
				c-3.7455-0.131-7.9517-0.4721-11.0633-2.7815c-3.8773-2.8778-4.4521-9.1999-1.7327-13.0901
				c3.014-4.3118,8.6783-3.5037,13.1812-4.6901C125.1219,90.1356,124.9025,89.4551,124.4274,89.5247L124.4274,89.5247z"/>
		</g>
	</g>
	<g>
		<g>
			<path fill="#303030" d="M120.3919,164.5688c0.1627-4.9865-0.1603-9.973-0.1016-14.9611c-0.224,0.224-0.4479,0.4479-0.6719,0.6719
				c6.245-0.1949,12.9191,1.621,19.0528-0.315c-0.2813-0.2143-0.5626-0.4286-0.8439-0.6429
				c0.3523,6.6857,0.0589,13.4473,0.0228,20.138c-0.051,9.4686-0.1333,18.9374-0.1281,28.4062
				c0.0015,2.8841-0.1624,5.869,0.2205,8.7358c0.0994,0.744,1.2006,0.8033,1.207,0c0.1301-16.1753,0.1568-32.3645,0.1245-48.541
				c-0.0058-2.9076,0.0528-5.8344-0.1134-8.7389c-0.0236-0.4128-0.4094-0.7821-0.8439-0.6428
				c-5.9903,1.9206-12.5919,0.0769-18.6983,0.2568c-0.3668,0.0108-0.6669,0.2992-0.6719,0.6719
				c-0.0674,4.9875,0.2039,9.9772,0.3615,14.9611C119.33,165.2661,120.3691,165.2671,120.3919,164.5688L120.3919,164.5688z"/>
		</g>
	</g>
</g>
</svg>
