<?xml version="1.0" encoding="utf-8"?>
<!-- Generator: Adobe Illustrator 20.1.0, SVG Export Plug-In . SVG Version: 6.00 Build 0)  -->
<svg version="1.1" xmlns="http://www.w3.org/2000/svg" xmlns:xlink="http://www.w3.org/1999/xlink" x="0px" y="0px"
	 viewBox="0 0 282 266" enable-background="new 0 0 282 266" xml:space="preserve">
<g id="site_bg">
</g>
<g id="back">
	<g>
		<g>
			<path fill="#F2F6F9" d="M141.6926,264.3858c-4.4805,0.001-8.9619-1.5-12.6445-4.5059l-15.1787-12.3887
				c-1.0479,1.5752-2.3232,3.0098-3.7998,4.249c-4.3564,3.6553-13.7197,8.5918-27.4971,0.5869
				c-2.4033-1.3965-5.2061-3.2871-8.5156-5.7451c-7.6416,2.7021-16.4795,0.5703-21.9951-6.002
				c-1.5-1.7881-2.6338-3.7607-3.4092-5.8281c-5.1514-7.0498-23.7051-28.1318-39.4238-45.25
				c-6.6152-7.2041-6.9688-17.9912-1.2354-25.5732c-5.0225-7.3623-6.7578-12.3271-6.3848-18.291
				c0.3525-5.6133,3.0059-10.8906,7.2803-14.4775c2.3447-1.9678,5.0322-3.3164,7.8428-4.043
				c-6.8574-7.8174-9.9609-12.5664-9.4727-20.3184c0.3447-5.4609,2.9385-10.6055,7.1299-14.123
				c3.0322-2.5449,6.6123-4.042,10.2871-4.5156c-0.3555-0.4805-0.5508-0.7461-0.5742-0.7764
				c-5.3203-7.2207-5.082-16.8662,0.0137-23.7539c1.2373-2.6084,3.0234-4.9502,5.2539-6.8223
				c1.7139-1.4375,4.1602-3.0498,7.3066-4.043c0.0078-0.2305,0.0176-0.4619,0.0303-0.6934
				c0.3398-6.0654,3.0498-11.5225,7.6299-15.3662c2.8271-2.3721,6.1289-3.832,9.5361-4.4033
				c1.1279-3.6436,3.2832-6.9229,6.2471-9.4121c4.7695-4.0049,10.9072-5.4287,16.6397-4.3262
				c1.2197-2.5352,2.9717-4.8125,5.166-6.6543c4.3633-3.6611,9.9082-5.4844,15.7295-5.1914
				c5.5381-3.1709,12.252-3.4717,18.0039-0.9375c5.4736-4.0732,12.4502-5.2285,19.3408-3.1611
				c0.3545,0.1074,0.71,0.2227,1.0654,0.3467c4.7705-1.6943,11.6318-2.2324,19.8418,2.5596
				c4.4375-1.627,9.2988-1.6094,13.6895-0.0254c4.3076,0.1943,8.5439,1.7734,11.9893,4.6826
				c4.6104-0.665,9.3916,0.2852,13.4365,2.7988c4.3203,0.8516,8.3906,3.1279,11.4414,6.7637
				c1.1963,1.4248,2.1592,2.9678,2.8936,4.582c3.5186,4.2822,13.1396,14.5459,20.3779,22.2705
				c38.3281,40.8936,44.8789,49.4531,44.7334,60.3213c2.3994,4.7119,2.7842,10.1182,1.2598,15.0186
				c3.207,4.1104,4.5684,9.1377,4.1455,14.0205c0.498,2.0488,0.6748,4.1816,0.5029,6.3232
				c-0.2656,3.3281-1.3574,6.5039-3.1357,9.2568c1.8555,4.0078,2.2471,7.1172,1.9883,10.7383
				c-0.2119,2.9756-1.082,5.8564-2.5029,8.4297c0.2109,1.626,0.2285,3.1367,0.1387,4.626
				c-0.335,5.5186-2.6055,10.5283-6.4365,14.2773c0.4287,2.0195,0.5391,3.9531,0.4014,5.9453
				c-0.3232,4.6992-2.1602,9.0176-5.2383,12.417c-0.5859,5.5146-3.1953,10.4561-7.4062,13.9893
				c-2.335,1.959-4.998,3.2988-7.7803,4.0264c-0.0049,0.5059-0.0283,1.0117-0.0713,1.5186
				c-0.4502,5.3027-2.9951,10.208-7.0723,13.6279c-1.9863,1.666-7.5869,5.5791-15.4512,4.6318
				c-1.1328,1.7236-2.5234,3.2891-4.1484,4.6523c-5.9609,5.001-16.1709,7.1006-25.1719,0.5293
				c-0.9414,1.2842-2.0391,2.4619-3.2793,3.5029c-3.4814,2.9209-7.6914,4.6602-12.1904,5.0899
				c-6.9795,2.1123-15.1221,0.6055-24.3164-4.5205c-1.1299,1.7402-2.5225,3.3184-4.1543,4.6875
				C150.8342,262.8243,146.2639,264.3858,141.6926,264.3858z M210.9045,29.502l0.0635,0.0713
				c-0.1377-0.9014-0.3516-1.7979-0.6514-2.6797C210.5715,27.752,210.7678,28.6241,210.9045,29.502z"/>
		</g>
	</g>
</g>
<g id="Layer_2">
	<g>
		<g>
			<g>
				<path fill="#303030" d="M226.687,99.886c0.3801-6.3777,0.4673-12.7284,0.309-19.1133c-0.0724-2.9224-0.1164-5.8444-0.076-8.7676
					c0.055-3.9798,0.576-8.0484,0.296-12.0179c-0.3363-4.7667-2.673-7.0671-7.135-8.1256
					c-5.0068-1.1878-10.3457-1.0815-15.4538-0.9257c-4.8082,0.1467-9.6005,0.5823-14.4064,0.7597
					c-8.1439,0.3005-16.372-0.1451-24.5202-0.257c-19.2713-0.2647-38.5421-0.5723-57.8136-0.8281
					c-9.5628-0.1269-19.1259-0.2339-28.6893-0.2947c-4.7815-0.0304-9.5631-0.0494-14.3448-0.0535
					c-1.5802-0.0014-2.2732-0.12-3.5187,0.8527c-1.2041,0.9403-2.1099,2.2498-2.7681,3.6154
					c-1.8208,3.7778-1.501,7.8624-1.5207,11.9274c-0.0199,4.1072-0.0517,8.2144-0.0851,12.3215
					c-0.1893,23.2782-0.4216,46.5562-0.4289,69.8354c-0.0065,20.8362-0.1952,41.7747,1.1295,62.5796
					c0.1005,1.5784,0.2174,3.1555,0.3609,4.7306c0.0375,0.4117,0.3134,0.7394,0.75,0.75
					c29.957,0.7247,59.9261,1.2397,89.8917,1.3592c10.2677,0.0409,20.5376,0.0361,30.8039-0.1622c0.964-0.0186,0.9672-1.5187,0-1.5
					c-36.7023,0.7091-73.4615-0.1745-110.1567-0.9603c-3.513-0.0752-7.026-0.1518-10.5388-0.2368c0.25,0.25,0.5,0.5,0.75,0.75
					c-1.669-18.3138-1.4063-36.8844-1.4719-55.2541c-0.0831-23.2746,0.1075-46.5493,0.3079-69.8229
					c0.0736-8.5498,0.1583-17.0997,0.1933-25.6498c0.0063-1.5348-0.0507-3.0833,0.0171-4.6166
					c0.1312-2.9682,1.4506-8.0458,4.7307-8.9255c2.0396-0.547,4.885-0.0893,6.9953-0.0827
					c2.3084,0.0072,4.6167,0.0175,6.9251,0.0307c4.6168,0.0263,9.2335,0.0637,13.8501,0.1093
					c18.6289,0.1841,37.2563,0.4966,55.8842,0.7616c9.2091,0.131,18.4183,0.2624,27.6275,0.3833
					c6.2883,0.0825,12.5877,0.345,18.8691-0.0327c5.0743-0.3051,10.1492-0.6576,15.2354-0.6553
					c4.4792,0.0021,9.9034-0.1432,14.0014,1.964c2.8637,1.4725,3.1197,4.7821,3.0686,7.7255
					c-0.0655,3.7691-0.3242,7.5308-0.3492,11.3027c-0.0345,5.2019,0.2432,10.3994,0.1971,15.6012
					c-0.0323,3.6444-0.1995,7.285-0.4162,10.9225C225.1295,100.8502,226.6297,100.8468,226.687,99.886L226.687,99.886z"/>
			</g>
		</g>
		<g>
			<g>
				<path fill="#303030" d="M66.9863,68.3238c39.1614,1.7548,78.466,1.7448,117.6557,1.2098
					c9.6643-0.1319,19.3287-0.3224,28.9881-0.6623c0.9625-0.0339,0.967-1.534,0-1.5c-39.1788,1.3788-78.4745,1.1808-117.6632,0.3549
					c-9.6626-0.2036-19.3252-0.4697-28.9805-0.9024C66.0212,66.7806,66.0233,68.2807,66.9863,68.3238L66.9863,68.3238z"/>
			</g>
		</g>
		<g>
			<g>
				<path fill="#303030" d="M78.2425,57.3774c-0.8467,0.1364-1.3791,0.0831-1.6271,1.014
					c-0.1613,0.6053-0.0751,1.2642,0.1811,1.8293c0.569,1.2548,1.965,1.8625,3.2519,1.3194
					c1.2465-0.5261,2.0592-1.9281,1.5785-3.253c-0.4679-1.2897-2.0348-2.1481-3.3434-1.6354
					c-0.5609,0.2197-0.3538,1.0268,0.2508,0.9097c1.8751-0.3632,3.1013,2.0947,1.1793,2.998
					c-0.7599,0.3571-1.5534,0.0395-1.945-0.6783c-0.1798-0.3295-0.2837-0.725-0.2215-1.1009
					c0.0878-0.5309,0.43-0.4751,0.9229-0.5777C79.0158,58.0887,78.776,57.2914,78.2425,57.3774L78.2425,57.3774z"/>
			</g>
		</g>
		<g>
			<g>
				<path fill="#303030" d="M86.5733,57.0503c-1.9867,1.063-1.4443,4.5618,0.8178,4.9017c2.2954,0.3449,3.9176-3.098,2.0462-4.559
					c-0.4985-0.3891-1.1704,0.2267-0.7126,0.7126c0.8029,0.8524,0.1697,2.9384-1.1782,2.6937
					c-1.2247-0.2224-1.4372-2.2399-0.4437-2.8434C87.6807,57.6047,87.1688,56.7316,86.5733,57.0503L86.5733,57.0503z"/>
			</g>
		</g>
		<circle fill="#E93A1D" cx="70.5734" cy="59.0727" r="2.8466"/>
		<g>
			<g>
				<path fill="#303030" d="M69.9928,87.1708c2.012,0.1431,4.0201,0.3366,6.0315,0.4763c0.613,0.0426,0.7405-0.932,0.1449-1.0704
					c-1.9983-0.4642-4.1336-0.5799-6.1764-0.4196C69.343,86.2081,69.3388,87.1243,69.9928,87.1708L69.9928,87.1708z"/>
			</g>
		</g>
		<g>
			<g>
				<path fill="#303030" d="M80.6211,87.139c1.2922,0.0968,2.6177,0.1724,3.9092,0.0498c0.651-0.0618,0.6522-0.9518,0-1.0137
					c-1.2915-0.1226-2.6169-0.047-3.9092,0.0498C80.0337,86.2689,80.0327,87.0949,80.6211,87.139L80.6211,87.139z"/>
			</g>
		</g>
		<g>
			<g>
				<path fill="#303030" d="M97.7162,87.1352c4.353-0.4494,8.4575-0.4605,12.8189-0.1269c0.5872,0.0449,0.7258-0.9262,0.1402-1.0359
					c-4.2566-0.7971-8.8561-0.6666-13.0744,0.3111C97.1346,86.3915,97.2233,87.1861,97.7162,87.1352L97.7162,87.1352z"/>
			</g>
		</g>
		<g>
			<g>
				<path fill="#303030" d="M134.6471,88.0792c2.2297-0.2365,4.4077-0.1141,6.6202,0.2337c0.5932,0.0932,0.8653-0.7871,0.2539-0.921
					c-2.2731-0.4976-4.5718-0.5221-6.8741-0.2151C134.0852,87.2518,134.0633,88.1411,134.6471,88.0792L134.6471,88.0792z"/>
			</g>
		</g>
		<g>
			<g>
				<path fill="#303030" d="M152.4196,88.503c1.3568-0.169,2.7213-0.3142,4.057-0.6121c0.5505-0.1228,0.4426-1.0604-0.1355-1.0013
					c-1.3636,0.1393-2.7032,0.4242-4.0461,0.6927C151.7849,87.6842,151.8919,88.5687,152.4196,88.503L152.4196,88.503z"/>
			</g>
		</g>
		<g>
			<g>
				<path fill="#303030" d="M165.9456,89.0037c2.8434,0.0732,5.6851,0.0765,8.5291,0.0527c0.7691-0.0064,0.7704-1.1889,0-1.1953
					c-2.844-0.0238-5.6857-0.0205-8.5291,0.0527C165.2445,87.932,165.2433,88.9857,165.9456,89.0037L165.9456,89.0037z"/>
			</g>
		</g>
		<g>
			<g>
				<path fill="#303030" d="M70.1432,97.5719c0.3805-0.1216,0.6813,0.0092,0.9968,0.2301c0.5626,0.3939,1.031-0.4208,0.6746-0.8743
					c-0.4624-0.5882-1.2977-0.7253-1.972-0.4463C69.1914,96.7509,69.4307,97.7996,70.1432,97.5719L70.1432,97.5719z"/>
			</g>
		</g>
		<g>
			<g>
				<path fill="#303030" d="M69.6409,101.6977c-0.5462,0.9026,0.6659,2.0433,1.4774,1.2796c0.378-0.3558-0.0199-0.938-0.4846-0.8324
					c-0.0896,0.0204-0.1365-0.0192-0.1146-0.077C70.7165,101.5463,69.9144,101.2457,69.6409,101.6977L69.6409,101.6977z"/>
			</g>
		</g>
		<g>
			<g>
				<path fill="#303030" d="M69.651,108.3465c0.1244,0.1153,0.2452,0.2273,0.3782,0.3326c0.4577,0.3623,1.0007-0.1799,0.6381-0.6381
					c-0.1053-0.133-0.2173-0.2538-0.3326-0.3782C69.9109,107.2056,69.1936,107.9226,69.651,108.3465L69.651,108.3465z"/>
			</g>
		</g>
		<g>
			<g>
				<path fill="#303030" d="M69.9928,115.008c0.1185-0.0039,0.2369-0.0078,0.3554-0.0117c0.7651-0.0252,0.7664-1.1642,0-1.1895
					c-0.1185-0.0039-0.2369-0.0078-0.3554-0.0117C69.2124,113.7694,69.2111,115.0338,69.9928,115.008L69.9928,115.008z"/>
			</g>
		</g>
		<g>
			<g>
				<path fill="#303030" d="M69.9928,121.7485c0.7654,0,0.7666-1.1895,0-1.1895C69.2275,120.559,69.2262,121.7485,69.9928,121.7485
					L69.9928,121.7485z"/>
			</g>
		</g>
		<g>
			<g>
				<path fill="#303030" d="M69.4479,127.5506c-0.0087,0.2952-0.0074,0.5584,0.0392,0.8502c0.0801,0.5006,0.9312,0.5009,1.0114,0
					c0.0468-0.2928,0.0479-0.5555,0.0392-0.8502C70.5171,126.8496,69.4686,126.8484,69.4479,127.5506L69.4479,127.5506z"/>
			</g>
		</g>
		<g>
			<g>
				<path fill="#303030" d="M69.9928,136.0135c0.8295,0,0.8308-1.2891,0-1.2891C69.1634,134.7244,69.162,136.0135,69.9928,136.0135
					L69.9928,136.0135z"/>
			</g>
		</g>
		<g>
			<g>
				<path fill="#303030" d="M80.8577,97.3682c0.6623-0.3825,1.359-0.2868,2.0195,0.0426c0.4594,0.2291,1.0195-0.3772,0.5822-0.7546
					c-0.8669-0.7482-2.1474-0.7305-3.0749-0.0975C79.8916,96.8951,80.3285,97.6739,80.8577,97.3682L80.8577,97.3682z"/>
			</g>
		</g>
		<g>
			<g>
				<path fill="#303030" d="M80.6211,103.5802c0.713,0.0166,1.4208,0.0459,2.1323-0.0146c0.6888-0.0586,0.6901-1.0136,0-1.0723
					c-0.7114-0.0605-1.4194-0.0312-2.1323-0.0146C79.9125,102.4951,79.9113,103.5636,80.6211,103.5802L80.6211,103.5802z"/>
			</g>
		</g>
		<g>
			<g>
				<path fill="#303030" d="M80.3771,110.2934c0.7461,0.3932,1.5988,0.3698,2.3065-0.0977
					c0.5478-0.3619,0.0652-1.2064-0.5175-0.8854c-0.4578,0.2522-0.9289,0.2666-1.4165,0.0996
					C80.2324,109.2327,79.8937,110.0386,80.3771,110.2934L80.3771,110.2934z"/>
			</g>
		</g>
		<g>
			<g>
				<path fill="#303030" d="M80.8932,116.9989c0.1868-0.1103,0.3285-0.0958,0.5065,0.0194
					c0.5909,0.3827,1.0983-0.5331,0.5441-0.9309c-0.4837-0.3473-1.1018-0.3495-1.5948-0.0194
					C79.7777,116.4505,80.2894,117.3556,80.8932,116.9989L80.8932,116.9989z"/>
			</g>
		</g>
		<g>
			<g>
				<path fill="#303030" d="M80.6211,122.7385c0.5964,0.0512,1.1791,0.0665,1.7769,0.0445c0.7199-0.0265,0.721-1.0922,0-1.1191
					c-0.5978-0.0224-1.1809-0.0074-1.7769,0.0434C79.9585,121.7637,79.9575,122.6815,80.6211,122.7385L80.6211,122.7385z"/>
			</g>
		</g>
		<g>
			<g>
				<path fill="#303030" d="M80.4731,129.0094c1.2841,0.2592,2.5864,0.3666,3.8805,0.1263
					c0.6316-0.1173,0.4509-1.0599-0.1464-1.0819c-1.1984-0.0441-2.3898-0.0235-3.5861-0.1378
					C79.9994,127.8566,79.8598,128.8856,80.4731,129.0094L80.4731,129.0094z"/>
			</g>
		</g>
		<g>
			<g>
				<path fill="#303030" d="M80.7566,137.2215c0.839-0.2736,1.7027-0.3384,2.5765-0.2154c0.6986,0.0983,1.0293-0.9325,0.3006-1.0905
					c-1.1317-0.2454-2.2159-0.0871-3.27,0.3742C79.8353,136.5211,80.2114,137.3993,80.7566,137.2215L80.7566,137.2215z"/>
			</g>
		</g>
		<g>
			<g>
				<path fill="#E93A1D" d="M96.6383,98.2952c4.3164-0.2009,8.6359-0.4092,12.9565-0.4923
					c4.3202-0.083,8.6586,0.1741,12.9723,0.0277c0.6663-0.0226,0.6442-0.9567,0-1.0195c-8.4807-0.8272-17.475-0.2162-25.9288,0.6696
					C96.1283,97.5342,96.1055,98.32,96.6383,98.2952L96.6383,98.2952z"/>
			</g>
		</g>
		<g>
			<g>
				<path fill="#E93A1D" d="M96.6383,103.6823c5.5552,0.4087,11.1241,0.8627,16.6918,1.053c0.7298,0.0249,0.7145-1.0713,0-1.125
					c-5.5503-0.417-11.1301-0.5729-16.6918-0.7718C96.0913,102.819,96.102,103.6429,96.6383,103.6823L96.6383,103.6823z"/>
			</g>
		</g>
		<g>
			<g>
				<path fill="#E93A1D" d="M96.6383,110.0954c7.6163,0.595,15.4672,1.0049,23.0969,0.4402c0.7368-0.0545,0.7554-1.1471,0-1.1602
					c-7.7-0.1326-15.392,0.0674-23.0969-0.1882C96.0486,109.1676,96.0622,110.0504,96.6383,110.0954L96.6383,110.0954z"/>
			</g>
		</g>
		<g>
			<g>
				<path fill="#E93A1D" d="M96.6383,116.8313c4.2639-0.2476,8.5263-0.2321,12.7881-0.429c0.7527-0.0348,0.7396-1.0998,0-1.1602
					c-4.2212-0.3447-8.5846-0.0475-12.7881,0.4114C95.9016,115.734,95.869,116.8759,96.6383,116.8313L96.6383,116.8313z"/>
			</g>
		</g>
		<g>
			<g>
				<path fill="#E93A1D" d="M96.6383,123.0317c4.9591,0.0091,10.1521-0.3067,15.0485-1.1111
					c0.6558-0.1077,0.501-1.1858-0.1565-1.1567c-4.9375,0.2183-9.9796,0.7315-14.8919,1.2893
					C96.0286,122.1224,95.9925,123.0305,96.6383,123.0317L96.6383,123.0317z"/>
			</g>
		</g>
		<g>
			<g>
				<path fill="#E93A1D" d="M96.4989,129.4946c5.2427,1.1205,10.9945,1.1784,16.2765,0.3152
					c0.6241-0.102,0.4802-1.1416-0.1495-1.1049c-5.408,0.3151-10.5943,0.1898-15.9875-0.2404
					C96.0511,128.4176,95.9223,129.3713,96.4989,129.4946L96.4989,129.4946z"/>
			</g>
		</g>
		<g>
			<g>
				<path fill="#E93A1D" d="M96.6383,136.3808c7.5876-0.0487,15.1881-0.5355,22.7627-0.9483c0.6922-0.0377,0.7012-1.1076,0-1.084
					c-7.5832,0.2556-15.1986,0.4409-22.7627,1.0597C96.0235,135.4584,96.0033,136.3848,96.6383,136.3808L96.6383,136.3808z"/>
			</g>
		</g>
		<g>
			<g>
				<path fill="#303030" d="M134.5248,97.9205c1.3501,0.2198,2.6866,0.5174,4.0579,0.5706
					c0.5686,0.0221,0.7007-0.8773,0.1355-1.0013c-1.3409-0.2943-2.7087-0.345-4.0711-0.4728
					C134.1362,96.969,134.0124,97.837,134.5248,97.9205L134.5248,97.9205z"/>
			</g>
		</g>
		<g>
			<g>
				<path fill="#303030" d="M134.503,105.435c1.5162,0.3528,3.0302,0.4525,4.5704,0.206c0.5864-0.0938,0.4539-1.0869-0.141-1.0416
					c-1.3957,0.1063-2.7681,0.0814-4.1413-0.2097C134.1125,104.2458,133.8204,105.2761,134.503,105.435L134.503,105.435z"/>
			</g>
		</g>
		<g>
			<g>
				<path fill="#303030" d="M134.6471,111.7563c0.7973,0.0581,1.501,0.2494,2.1882,0.6691
					c0.6478,0.3956,1.2011-0.5875,0.5885-1.0068c-0.8018-0.5488-1.7991-0.8672-2.7767-0.7931
					C133.9211,110.6804,133.9184,111.7032,134.6471,111.7563L134.6471,111.7563z"/>
			</g>
		</g>
		<g>
			<g>
				<path fill="#303030" d="M134.5132,117.8966c1.1199,0.1691,2.242,0.334,3.3707,0.4313c0.5695,0.0491,0.708-0.9133,0.1363-1.0071
					c-1.1184-0.1835-2.2454-0.3023-3.373-0.4141C134.0878,116.8514,133.9509,117.8118,134.5132,117.8966L134.5132,117.8966z"/>
			</g>
		</g>
		<g>
			<g>
				<path fill="#303030" d="M134.6471,123.1933c0.9971-0.105,2.0051-0.2086,2.9755-0.4666
					c0.5733-0.1524,0.4677-1.0677-0.1417-1.0474c-1.0039,0.0335-1.9981,0.2214-2.9833,0.4091
					C133.8827,122.2056,134.0136,123.26,134.6471,123.1933L134.6471,123.1933z"/>
			</g>
		</g>
		<g>
			<g>
				<path fill="#303030" d="M134.7733,130.4026c1.7381-0.2764,3.4686-0.2897,5.2193-0.1513c0.6953,0.0549,0.673-0.9964,0-1.0723
					c-1.8414-0.2076-3.6618-0.0688-5.4716,0.3083C133.9148,129.6136,134.1816,130.4967,134.7733,130.4026L134.7733,130.4026z"/>
			</g>
		</g>
		<g>
			<g>
				<path fill="#303030" d="M134.7904,136.9061c1.4818-0.3103,2.9775-0.3658,4.4854-0.2692
					c0.5874,0.0376,0.7356-0.9497,0.141-1.0416c-1.6653-0.2574-3.2829-0.1494-4.913,0.2712
					C133.8278,136.0409,134.1153,137.0475,134.7904,136.9061L134.7904,136.9061z"/>
			</g>
		</g>
		<g>
			<g>
				<path fill="#303030" d="M152.4196,98.5873c0.9455,0.052,1.8968,0.0438,2.843,0.0176c0.7086-0.0197,0.7098-1.0819,0-1.1016
					c-0.9461-0.0262-1.8977-0.0344-2.843,0.0176C151.734,97.5586,151.7327,98.5495,152.4196,98.5873L152.4196,98.5873z"/>
			</g>
		</g>
		<g>
			<g>
				<path fill="#303030" d="M152.4196,105.936c0.7404,0.0318,1.5197,0.1396,2.2538,0.0218c0.4363-0.07,0.4366-0.8113,0-0.8814
					c-0.7339-0.1178-1.5136-0.01-2.2538,0.0218C151.8807,105.1212,151.8798,105.9128,152.4196,105.936L152.4196,105.936z"/>
			</g>
		</g>
		<g>
			<g>
				<path fill="#303030" d="M152.2934,112.896c0.5867,0.1771,1.2647,0.2787,1.8777,0.2627c0.567-0.0148,0.7017-0.8474,0.1355-1.0013
					c-0.5945-0.1617-1.2726-0.2267-1.8871-0.1937C151.8912,111.9921,151.7678,112.7373,152.2934,112.896L152.2934,112.896z"/>
			</g>
		</g>
		<g>
			<g>
				<path fill="#303030" d="M152.4196,119.2052c0.5839,0.0688,1.1915,0.0905,1.7769,0.0322c0.7336-0.0731,0.7351-1.0694,0-1.1426
					c-0.5847-0.0582-1.1934-0.0365-1.7769,0.0322C151.7278,118.2085,151.7264,119.1235,152.4196,119.2052L152.4196,119.2052z"/>
			</g>
		</g>
		<g>
			<g>
				<path fill="#303030" d="M152.4196,123.5225c0.833,0.0635,1.6569,0.0481,2.4877-0.0322c0.7186-0.0695,0.72-1.0495,0-1.1191
					c-0.8305-0.0803-1.6551-0.0957-2.4877-0.0322C151.659,122.3968,151.6576,123.4644,152.4196,123.5225L152.4196,123.5225z"/>
			</g>
		</g>
		<g>
			<g>
				<path fill="#303030" d="M152.6931,131.5288c0.7021-0.3099,1.4792-0.3322,2.2309-0.2435
					c0.5937,0.0701,0.6736-0.8523,0.1371-1.0128c-0.9985-0.2988-1.9903-0.132-2.9151,0.3203
					C151.5116,130.9031,152.0668,131.8052,152.6931,131.5288L152.6931,131.5288z"/>
			</g>
		</g>
		<g>
			<g>
				<path fill="#303030" d="M152.4196,136.6364c0.8296,0.0159,1.6579,0.0214,2.4877,0.0176c0.7389-0.0034,0.7402-1.145,0-1.1484
					c-0.8298-0.0038-1.6581,0.0016-2.4877,0.0176C151.7034,135.5368,151.7022,136.6226,152.4196,136.6364L152.4196,136.6364z"/>
			</g>
		</g>
		<g>
			<g>
				<path fill="#303030" d="M165.9456,98.5419c1.8748,0.1646,3.6938,0.3518,5.5287,0.7941c0.7285,0.1756,1.0374-0.9324,0.31-1.1244
					c-1.8765-0.4953-3.8944-0.8105-5.8386-0.6835C165.2896,97.5711,165.2978,98.4851,165.9456,98.5419L165.9456,98.5419z"/>
			</g>
		</g>
		<g>
			<g>
				<path fill="#303030" d="M165.9456,105.6158c0.7133,0.0436,1.4175,0.075,2.1323,0.0586c0.6596-0.0151,0.6608-1.0103,0-1.0254
					c-0.7147-0.0164-1.419,0.015-2.1323,0.0586C165.3617,104.7432,165.3607,105.5801,165.9456,105.6158L165.9456,105.6158z"/>
			</g>
		</g>
		<g>
			<g>
				<path fill="#303030" d="M166.0873,114.469c1.1123-0.2584,2.176-0.1542,3.2437,0.2342c0.6134,0.2232,1.0379-0.7725,0.447-1.0602
					c-1.258-0.6126-2.6599-0.6973-3.9742-0.2023C165.17,113.6794,165.4077,114.6268,166.0873,114.469L166.0873,114.469z"/>
			</g>
		</g>
		<g>
			<g>
				<path fill="#303030" d="M166.0787,119.8471c1.0448-0.2461,1.9986-0.3042,3.0679-0.2932
					c0.5801,0.0059,0.7103-0.8746,0.1379-1.0186c-1.1751-0.2956-2.4978-0.1112-3.5918,0.3962
					C165.1604,119.1784,165.5472,119.9723,166.0787,119.8471L166.0787,119.8471z"/>
			</g>
		</g>
		<g>
			<g>
				<path fill="#303030" d="M166.0951,126.5895c0.6069-0.2487,1.2164-0.3601,1.8706-0.2499
					c0.6985,0.1176,0.9994-0.8638,0.2975-1.0792c-0.8793-0.2698-1.8062-0.1647-2.6015,0.301
					C165.132,125.8715,165.4884,126.8381,166.0951,126.5895L166.0951,126.5895z"/>
			</g>
		</g>
		<g>
			<g>
				<path fill="#303030" d="M165.9456,132.3308c0.8294,0.0586,1.6566,0.072,2.4877,0.0557c0.7351-0.0144,0.7363-1.1281,0-1.1426
					c-0.831-0.0163-1.6583-0.0029-2.4877,0.0557C165.2828,131.3464,165.2816,132.2839,165.9456,132.3308L165.9456,132.3308z"/>
			</g>
		</g>
		<g>
			<g>
				<path fill="#303030" d="M165.9456,138.0051c0.8293,0.0092,1.6583,0.0213,2.4877,0.0176c0.6711-0.0031,0.6722-1.0399,0-1.043
					c-0.8293-0.0038-1.6584,0.0083-2.4877,0.0176C165.2971,137.0045,165.2961,137.9979,165.9456,138.0051L165.9456,138.0051z"/>
			</g>
		</g>
		<g>
			<g>
				<path fill="#303030" d="M70.1432,143.2066c0.3805-0.1216,0.6813,0.0092,0.9968,0.2301c0.5626,0.3939,1.031-0.4208,0.6746-0.8742
					c-0.4624-0.5882-1.2977-0.7254-1.972-0.4463C69.1914,142.3856,69.4307,143.4343,70.1432,143.2066L70.1432,143.2066z"/>
			</g>
		</g>
		<g>
			<g>
				<path fill="#303030" d="M69.6409,147.3324c-0.5462,0.9026,0.6659,2.0433,1.4774,1.2796c0.378-0.3558-0.0199-0.938-0.4846-0.8324
					c-0.0896,0.0204-0.1365-0.0192-0.1146-0.077C70.7165,147.181,69.9144,146.8804,69.6409,147.3324L69.6409,147.3324z"/>
			</g>
		</g>
		<g>
			<g>
				<path fill="#303030" d="M69.651,153.9813c0.1244,0.1153,0.2452,0.2273,0.3782,0.3326c0.4577,0.3623,1.0007-0.1799,0.6381-0.638
					c-0.1053-0.133-0.2173-0.2538-0.3326-0.3782C69.9109,152.8404,69.1936,153.5573,69.651,153.9813L69.651,153.9813z"/>
			</g>
		</g>
		<g>
			<g>
				<path fill="#303030" d="M69.9928,160.6427c0.1185-0.0039,0.2369-0.0078,0.3554-0.0117c0.7651-0.0252,0.7664-1.1642,0-1.1895
					c-0.1185-0.0039-0.2369-0.0078-0.3554-0.0117C69.2124,159.4041,69.2111,160.6685,69.9928,160.6427L69.9928,160.6427z"/>
			</g>
		</g>
		<g>
			<g>
				<path fill="#303030" d="M69.9928,167.3832c0.7654,0,0.7666-1.1895,0-1.1895C69.2275,166.1938,69.2262,167.3832,69.9928,167.3832
					L69.9928,167.3832z"/>
			</g>
		</g>
		<g>
			<g>
				<path fill="#303030" d="M69.4479,173.1853c-0.0087,0.2952-0.0074,0.5584,0.0392,0.8502c0.0801,0.5006,0.9312,0.5009,1.0114,0
					c0.0468-0.2928,0.0479-0.5555,0.0392-0.8502C70.5171,172.4843,69.4686,172.4831,69.4479,173.1853L69.4479,173.1853z"/>
			</g>
		</g>
		<g>
			<g>
				<path fill="#303030" d="M69.9928,181.6482c0.8295,0,0.8308-1.2891,0-1.2891C69.1634,180.3592,69.162,181.6482,69.9928,181.6482
					L69.9928,181.6482z"/>
			</g>
		</g>
		<g>
			<g>
				<path fill="#303030" d="M80.8577,143.0029c0.6623-0.3825,1.359-0.2868,2.0195,0.0426c0.4594,0.2291,1.0195-0.3772,0.5822-0.7546
					c-0.8669-0.7482-2.1474-0.7305-3.0749-0.0975C79.8916,142.5299,80.3285,143.3086,80.8577,143.0029L80.8577,143.0029z"/>
			</g>
		</g>
		<g>
			<g>
				<path fill="#303030" d="M80.6211,149.2149c0.713,0.0166,1.4208,0.0459,2.1323-0.0146c0.6888-0.0586,0.6901-1.0136,0-1.0723
					c-0.7114-0.0605-1.4194-0.0312-2.1323-0.0146C79.9125,148.1299,79.9113,149.1984,80.6211,149.2149L80.6211,149.2149z"/>
			</g>
		</g>
		<g>
			<g>
				<path fill="#303030" d="M80.3771,155.9282c0.7461,0.3932,1.5988,0.3698,2.3065-0.0977
					c0.5478-0.3619,0.0652-1.2063-0.5175-0.8854c-0.4578,0.2522-0.9289,0.2666-1.4165,0.0996
					C80.2324,154.8675,79.8937,155.6734,80.3771,155.9282L80.3771,155.9282z"/>
			</g>
		</g>
		<g>
			<g>
				<path fill="#303030" d="M80.8932,162.6337c0.1868-0.1103,0.3285-0.0958,0.5065,0.0194
					c0.5909,0.3827,1.0983-0.5331,0.5441-0.9309c-0.4837-0.3473-1.1018-0.3495-1.5948-0.0194
					C79.7777,162.0852,80.2894,162.9903,80.8932,162.6337L80.8932,162.6337z"/>
			</g>
		</g>
		<g>
			<g>
				<path fill="#303030" d="M80.6211,168.3732c0.5964,0.0512,1.1791,0.0665,1.7769,0.0445c0.7199-0.0265,0.721-1.0922,0-1.1191
					c-0.5978-0.0224-1.1809-0.0074-1.7769,0.0434C79.9585,167.3984,79.9575,168.3163,80.6211,168.3732L80.6211,168.3732z"/>
			</g>
		</g>
		<g>
			<g>
				<path fill="#303030" d="M80.4731,174.6441c1.2841,0.2592,2.5864,0.3666,3.8805,0.1263
					c0.6316-0.1173,0.4509-1.0599-0.1464-1.0819c-1.1984-0.0441-2.3898-0.0235-3.5861-0.1378
					C79.9994,173.4913,79.8598,174.5203,80.4731,174.6441L80.4731,174.6441z"/>
			</g>
		</g>
		<g>
			<g>
				<path fill="#303030" d="M80.7566,182.8562c0.839-0.2736,1.7027-0.3384,2.5765-0.2154c0.6986,0.0983,1.0293-0.9325,0.3006-1.0905
					c-1.1317-0.2454-2.2159-0.0871-3.27,0.3742C79.8353,182.1558,80.2114,183.034,80.7566,182.8562L80.7566,182.8562z"/>
			</g>
		</g>
		<g>
			<g>
				<path fill="#E93A1D" d="M96.6383,143.9299c4.3164-0.2009,8.6359-0.4092,12.9565-0.4922
					c4.3202-0.083,8.6586,0.1741,12.9723,0.0277c0.6663-0.0226,0.6442-0.9567,0-1.0195c-8.4807-0.8272-17.475-0.2162-25.9288,0.6696
					C96.1283,143.1689,96.1055,143.9547,96.6383,143.9299L96.6383,143.9299z"/>
			</g>
		</g>
		<g>
			<g>
				<path fill="#E93A1D" d="M96.6383,149.3171c5.5552,0.4087,11.1241,0.8627,16.6918,1.053c0.7298,0.0249,0.7145-1.0713,0-1.125
					c-5.5503-0.417-11.1301-0.5729-16.6918-0.7718C96.0913,148.4538,96.102,149.2776,96.6383,149.3171L96.6383,149.3171z"/>
			</g>
		</g>
		<g>
			<g>
				<path fill="#E93A1D" d="M96.6383,155.7301c7.6163,0.595,15.4672,1.0049,23.0969,0.4402c0.7368-0.0545,0.7554-1.1471,0-1.1602
					c-7.7-0.1326-15.392,0.0674-23.0969-0.1882C96.0486,154.8024,96.0622,155.6851,96.6383,155.7301L96.6383,155.7301z"/>
			</g>
		</g>
		<g>
			<g>
				<path fill="#E93A1D" d="M96.6383,162.466c4.2639-0.2476,8.5263-0.2321,12.7881-0.429c0.7527-0.0348,0.7396-1.0998,0-1.1602
					c-4.2212-0.3447-8.5846-0.0475-12.7881,0.4114C95.9016,161.3687,95.869,162.5107,96.6383,162.466L96.6383,162.466z"/>
			</g>
		</g>
		<g>
			<g>
				<path fill="#E93A1D" d="M96.6383,168.6665c4.9591,0.0091,10.1521-0.3067,15.0485-1.1111
					c0.6558-0.1077,0.501-1.1858-0.1565-1.1567c-4.9375,0.2183-9.9796,0.7315-14.8919,1.2893
					C96.0286,167.7572,95.9925,168.6653,96.6383,168.6665L96.6383,168.6665z"/>
			</g>
		</g>
		<g>
			<g>
				<path fill="#E93A1D" d="M96.4989,175.1293c5.2427,1.1205,10.9945,1.1784,16.2765,0.3152
					c0.6241-0.102,0.4802-1.1416-0.1495-1.1049c-5.408,0.3151-10.5943,0.1898-15.9875-0.2404
					C96.0511,174.0524,95.9223,175.0061,96.4989,175.1293L96.4989,175.1293z"/>
			</g>
		</g>
		<g>
			<g>
				<path fill="#E93A1D" d="M96.6383,182.0155c7.5876-0.0487,15.1881-0.5355,22.7627-0.9483c0.6922-0.0377,0.7012-1.1076,0-1.084
					c-7.5832,0.2556-15.1986,0.4409-22.7627,1.0596C96.0235,181.0931,96.0033,182.0196,96.6383,182.0155L96.6383,182.0155z"/>
			</g>
		</g>
		<g>
			<g>
				<path fill="#303030" d="M134.5248,143.5552c1.3501,0.2198,2.6866,0.5174,4.0579,0.5707
					c0.5686,0.0221,0.7007-0.8773,0.1355-1.0013c-1.3409-0.2943-2.7087-0.345-4.0711-0.4728
					C134.1362,142.6038,134.0124,143.4718,134.5248,143.5552L134.5248,143.5552z"/>
			</g>
		</g>
		<g>
			<g>
				<path fill="#303030" d="M134.503,151.0697c1.5162,0.3528,3.0302,0.4525,4.5704,0.206c0.5864-0.0938,0.4539-1.0869-0.141-1.0416
					c-1.3957,0.1063-2.7681,0.0814-4.1413-0.2097C134.1125,149.8806,133.8204,150.9109,134.503,151.0697L134.503,151.0697z"/>
			</g>
		</g>
		<g>
			<g>
				<path fill="#303030" d="M134.6471,157.391c0.7973,0.0581,1.501,0.2494,2.1882,0.6691c0.6478,0.3956,1.2011-0.5876,0.5885-1.0068
					c-0.8018-0.5488-1.7991-0.8672-2.7767-0.7932C133.9211,156.3151,133.9184,157.3379,134.6471,157.391L134.6471,157.391z"/>
			</g>
		</g>
		<g>
			<g>
				<path fill="#303030" d="M134.5132,163.5314c1.1199,0.1691,2.242,0.334,3.3707,0.4313c0.5695,0.0491,0.708-0.9133,0.1363-1.0071
					c-1.1184-0.1835-2.2454-0.3023-3.373-0.4141C134.0878,162.4861,133.9509,163.4465,134.5132,163.5314L134.5132,163.5314z"/>
			</g>
		</g>
		<g>
			<g>
				<path fill="#303030" d="M134.6471,168.828c0.9971-0.105,2.0051-0.2086,2.9755-0.4666c0.5733-0.1524,0.4677-1.0677-0.1417-1.0474
					c-1.0039,0.0335-1.9981,0.2214-2.9833,0.4091C133.8827,167.8403,134.0136,168.8948,134.6471,168.828L134.6471,168.828z"/>
			</g>
		</g>
		<g>
			<g>
				<path fill="#303030" d="M134.7733,176.0374c1.7381-0.2764,3.4686-0.2897,5.2193-0.1514c0.6953,0.0549,0.673-0.9964,0-1.0723
					c-1.8414-0.2076-3.6618-0.0688-5.4716,0.3083C133.9148,175.2484,134.1816,176.1315,134.7733,176.0374L134.7733,176.0374z"/>
			</g>
		</g>
		<g>
			<g>
				<path fill="#303030" d="M134.7904,182.5408c1.4818-0.3103,2.9775-0.3658,4.4854-0.2692
					c0.5874,0.0376,0.7356-0.9497,0.141-1.0416c-1.6653-0.2574-3.2829-0.1494-4.913,0.2712
					C133.8278,181.6756,134.1153,182.6822,134.7904,182.5408L134.7904,182.5408z"/>
			</g>
		</g>
		<g>
			<g>
				<path fill="#303030" d="M152.4196,144.222c0.9455,0.052,1.8968,0.0438,2.843,0.0176c0.7086-0.0197,0.7098-1.0819,0-1.1016
					c-0.9461-0.0262-1.8977-0.0344-2.843,0.0176C151.734,143.1933,151.7327,144.1843,152.4196,144.222L152.4196,144.222z"/>
			</g>
		</g>
		<g>
			<g>
				<path fill="#303030" d="M152.4196,151.5707c0.7404,0.0318,1.5197,0.1396,2.2538,0.0218c0.4363-0.07,0.4366-0.8114,0-0.8814
					c-0.7339-0.1178-1.5136-0.01-2.2538,0.0218C151.8807,150.756,151.8798,151.5476,152.4196,151.5707L152.4196,151.5707z"/>
			</g>
		</g>
		<g>
			<g>
				<path fill="#303030" d="M152.2934,158.5308c0.5867,0.1771,1.2647,0.2787,1.8777,0.2627
					c0.567-0.0148,0.7017-0.8474,0.1355-1.0013c-0.5945-0.1617-1.2726-0.2267-1.8871-0.1937
					C151.8912,157.6269,151.7678,158.3721,152.2934,158.5308L152.2934,158.5308z"/>
			</g>
		</g>
		<g>
			<g>
				<path fill="#303030" d="M152.4196,164.8399c0.5839,0.0688,1.1915,0.0905,1.7769,0.0322c0.7336-0.0731,0.7351-1.0694,0-1.1426
					c-0.5847-0.0582-1.1934-0.0365-1.7769,0.0322C151.7278,163.8432,151.7264,164.7583,152.4196,164.8399L152.4196,164.8399z"/>
			</g>
		</g>
		<g>
			<g>
				<path fill="#303030" d="M152.4196,169.1572c0.833,0.0635,1.6569,0.0481,2.4877-0.0322c0.7186-0.0695,0.72-1.0495,0-1.1191
					c-0.8305-0.0803-1.6551-0.0957-2.4877-0.0322C151.659,168.0316,151.6576,169.0991,152.4196,169.1572L152.4196,169.1572z"/>
			</g>
		</g>
		<g>
			<g>
				<path fill="#303030" d="M152.6931,177.1635c0.7021-0.3099,1.4792-0.3322,2.2309-0.2435
					c0.5937,0.0701,0.6736-0.8523,0.1371-1.0128c-0.9985-0.2988-1.9903-0.132-2.9151,0.3203
					C151.5116,176.5378,152.0668,177.4399,152.6931,177.1635L152.6931,177.1635z"/>
			</g>
		</g>
		<g>
			<g>
				<path fill="#303030" d="M152.4196,182.2711c0.8296,0.016,1.6579,0.0214,2.4877,0.0176c0.7389-0.0034,0.7402-1.145,0-1.1484
					c-0.8298-0.0038-1.6581,0.0016-2.4877,0.0176C151.7034,181.1716,151.7022,182.2573,152.4196,182.2711L152.4196,182.2711z"/>
			</g>
		</g>
		<g>
			<g>
				<path fill="#303030" d="M165.9456,144.1767c1.8748,0.1646,3.6938,0.3518,5.5287,0.7941c0.7285,0.1756,1.0374-0.9324,0.31-1.1244
					c-1.8765-0.4953-3.8944-0.8105-5.8386-0.6835C165.2896,143.2059,165.2978,144.1198,165.9456,144.1767L165.9456,144.1767z"/>
			</g>
		</g>
		<g>
			<g>
				<path fill="#303030" d="M165.9456,151.2505c0.7133,0.0435,1.4175,0.075,2.1323,0.0586c0.6596-0.0151,0.6608-1.0103,0-1.0254
					c-0.7147-0.0164-1.419,0.015-2.1323,0.0586C165.3617,150.378,165.3607,151.2148,165.9456,151.2505L165.9456,151.2505z"/>
			</g>
		</g>
		<g>
			<g>
				<path fill="#303030" d="M166.0873,160.1037c1.1123-0.2583,2.176-0.1542,3.2437,0.2342c0.6134,0.2231,1.0379-0.7725,0.447-1.0602
					c-1.258-0.6127-2.6599-0.6973-3.9742-0.2023C165.17,159.3141,165.4077,160.2616,166.0873,160.1037L166.0873,160.1037z"/>
			</g>
		</g>
		<g>
			<g>
				<path fill="#303030" d="M166.0787,165.4819c1.0448-0.2461,1.9986-0.3042,3.0679-0.2933
					c0.5801,0.006,0.7103-0.8745,0.1379-1.0186c-1.1751-0.2956-2.4978-0.1112-3.5918,0.3962
					C165.1604,164.8131,165.5472,165.6071,166.0787,165.4819L166.0787,165.4819z"/>
			</g>
		</g>
		<g>
			<g>
				<path fill="#303030" d="M166.0951,172.2243c0.6069-0.2487,1.2164-0.3601,1.8706-0.25c0.6985,0.1176,0.9994-0.8638,0.2975-1.0792
					c-0.8793-0.2698-1.8062-0.1647-2.6015,0.301C165.132,171.5063,165.4884,172.4728,166.0951,172.2243L166.0951,172.2243z"/>
			</g>
		</g>
		<g>
			<g>
				<path fill="#303030" d="M165.9456,177.9655c0.8294,0.0586,1.6566,0.072,2.4877,0.0557c0.7351-0.0144,0.7363-1.1281,0-1.1426
					c-0.831-0.0163-1.6583-0.0029-2.4877,0.0557C165.2828,176.9811,165.2816,177.9186,165.9456,177.9655L165.9456,177.9655z"/>
			</g>
		</g>
		<g>
			<g>
				<path fill="#303030" d="M165.9456,183.6399c0.8293,0.0092,1.6583,0.0213,2.4877,0.0176c0.6711-0.003,0.6722-1.0399,0-1.043
					c-0.8293-0.0038-1.6584,0.0083-2.4877,0.0176C165.2971,182.6393,165.2961,183.6326,165.9456,183.6399L165.9456,183.6399z"/>
			</g>
		</g>
		<g>
			<g>
				<path fill="#303030" d="M70.1432,188.8414c0.3805-0.1216,0.6813,0.0092,0.9968,0.2301c0.5626,0.3939,1.031-0.4208,0.6746-0.8743
					c-0.4624-0.5882-1.2977-0.7254-1.972-0.4463C69.1914,188.0204,69.4307,189.0691,70.1432,188.8414L70.1432,188.8414z"/>
			</g>
		</g>
		<g>
			<g>
				<path fill="#303030" d="M69.6409,192.9672c-0.5462,0.9026,0.6659,2.0433,1.4774,1.2796c0.378-0.3558-0.0199-0.938-0.4846-0.8324
					c-0.0896,0.0204-0.1365-0.0192-0.1146-0.077C70.7165,192.8158,69.9144,192.5152,69.6409,192.9672L69.6409,192.9672z"/>
			</g>
		</g>
		<g>
			<g>
				<path fill="#303030" d="M69.651,199.616c0.1244,0.1153,0.2452,0.2273,0.3782,0.3326c0.4577,0.3623,1.0007-0.1799,0.6381-0.6381
					c-0.1053-0.133-0.2173-0.2538-0.3326-0.3782C69.9109,198.4751,69.1936,199.192,69.651,199.616L69.651,199.616z"/>
			</g>
		</g>
		<g>
			<g>
				<path fill="#303030" d="M80.8577,188.6377c0.6623-0.3825,1.359-0.2868,2.0195,0.0426c0.4594,0.2291,1.0195-0.3772,0.5822-0.7546
					c-0.8669-0.7482-2.1474-0.7305-3.0749-0.0975C79.8916,188.1646,80.3285,188.9434,80.8577,188.6377L80.8577,188.6377z"/>
			</g>
		</g>
		<g>
			<g>
				<path fill="#303030" d="M80.6211,194.8497c0.713,0.0166,1.4208,0.0459,2.1323-0.0146c0.6888-0.0586,0.6901-1.0136,0-1.0723
					c-0.7114-0.0605-1.4194-0.0312-2.1323-0.0146C79.9125,193.7646,79.9113,194.8331,80.6211,194.8497L80.6211,194.8497z"/>
			</g>
		</g>
		<g>
			<g>
				<path fill="#303030" d="M80.3771,201.5629c0.7461,0.3932,1.5988,0.3698,2.3065-0.0977
					c0.5478-0.3619,0.0652-1.2063-0.5175-0.8854c-0.4578,0.2522-0.9289,0.2666-1.4165,0.0996
					C80.2324,200.5022,79.8937,201.3081,80.3771,201.5629L80.3771,201.5629z"/>
			</g>
		</g>
		<g>
			<g>
				<path fill="#E93A1D" d="M96.6383,189.5647c4.3164-0.2009,8.6359-0.4092,12.9565-0.4923
					c4.3202-0.083,8.6586,0.1741,12.9723,0.0277c0.6663-0.0226,0.6442-0.9567,0-1.0195c-8.4807-0.8272-17.475-0.2162-25.9288,0.6696
					C96.1283,188.8036,96.1055,189.5895,96.6383,189.5647L96.6383,189.5647z"/>
			</g>
		</g>
		<g>
			<g>
				<path fill="#E93A1D" d="M96.6383,194.9518c5.5552,0.4087,11.1241,0.8627,16.6918,1.053c0.7298,0.0249,0.7145-1.0713,0-1.125
					c-5.5503-0.417-11.1301-0.5729-16.6918-0.7718C96.0913,194.0885,96.102,194.9124,96.6383,194.9518L96.6383,194.9518z"/>
			</g>
		</g>
		<g>
			<g>
				<path fill="#E93A1D" d="M96.6383,201.3649c7.6163,0.595,15.4672,1.0049,23.0969,0.4402c0.7368-0.0545,0.7554-1.1471,0-1.1602
					c-7.7-0.1326-15.392,0.0674-23.0969-0.1882C96.0486,200.4371,96.0622,201.3199,96.6383,201.3649L96.6383,201.3649z"/>
			</g>
		</g>
		<g>
			<g>
				<path fill="#303030" d="M134.5248,189.19c1.3501,0.2198,2.6866,0.5174,4.0579,0.5706c0.5686,0.0221,0.7007-0.8773,0.1355-1.0013
					c-1.3409-0.2943-2.7087-0.345-4.0711-0.4728C134.1362,188.2385,134.0124,189.1065,134.5248,189.19L134.5248,189.19z"/>
			</g>
		</g>
		<g>
			<g>
				<path fill="#303030" d="M134.503,196.7045c1.5162,0.3528,3.0302,0.4525,4.5704,0.206c0.5864-0.0938,0.4539-1.0869-0.141-1.0416
					c-1.3957,0.1063-2.7681,0.0814-4.1413-0.2097C134.1125,195.5153,133.8204,196.5456,134.503,196.7045L134.503,196.7045z"/>
			</g>
		</g>
		<g>
			<g>
				<path fill="#303030" d="M134.6471,203.0258c0.7973,0.0581,1.501,0.2494,2.1882,0.6691
					c0.6478,0.3956,1.2011-0.5875,0.5885-1.0068c-0.8018-0.5488-1.7991-0.8672-2.7767-0.7931
					C133.9211,201.9499,133.9184,202.9727,134.6471,203.0258L134.6471,203.0258z"/>
			</g>
		</g>
		<g>
			<g>
				<path fill="#303030" d="M152.4196,189.8568c0.9455,0.052,1.8968,0.0438,2.843,0.0176c0.7086-0.0197,0.7098-1.0819,0-1.1016
					c-0.9461-0.0262-1.8977-0.0344-2.843,0.0176C151.734,188.828,151.7327,189.819,152.4196,189.8568L152.4196,189.8568z"/>
			</g>
		</g>
		<g>
			<g>
				<path fill="#303030" d="M152.4196,197.2055c0.7404,0.0318,1.5197,0.1396,2.2538,0.0218c0.4363-0.07,0.4366-0.8114,0-0.8814
					c-0.7339-0.1178-1.5136-0.01-2.2538,0.0218C151.8807,196.3907,151.8798,197.1823,152.4196,197.2055L152.4196,197.2055z"/>
			</g>
		</g>
		<g>
			<g>
				<path fill="#303030" d="M152.2934,204.1655c0.5867,0.1771,1.2647,0.2787,1.8777,0.2627
					c0.567-0.0148,0.7017-0.8474,0.1355-1.0013c-0.5945-0.1617-1.2726-0.2267-1.8871-0.1937
					C151.8912,203.2616,151.7678,204.0068,152.2934,204.1655L152.2934,204.1655z"/>
			</g>
		</g>
		<g>
			<g>
				<path fill="#303030" d="M165.9456,189.8114c1.8748,0.1646,3.6938,0.3518,5.5287,0.7942c0.7285,0.1756,1.0374-0.9324,0.31-1.1244
					c-1.8765-0.4952-3.8944-0.8105-5.8386-0.6835C165.2896,188.8406,165.2978,189.7545,165.9456,189.8114L165.9456,189.8114z"/>
			</g>
		</g>
		<g>
			<g>
				<path fill="#303030" d="M165.9456,196.8853c0.7133,0.0436,1.4175,0.075,2.1323,0.0586c0.6596-0.0151,0.6608-1.0103,0-1.0254
					c-0.7147-0.0164-1.419,0.015-2.1323,0.0586C165.3617,196.0127,165.3607,196.8495,165.9456,196.8853L165.9456,196.8853z"/>
			</g>
		</g>
		<g>
			<g>
				<path fill="#303030" d="M166.0873,205.7384c1.1123-0.2584,2.176-0.1542,3.2437,0.2342c0.6134,0.2232,1.0379-0.7725,0.447-1.0602
					c-1.258-0.6126-2.6599-0.6973-3.9742-0.2023C165.17,204.9489,165.4077,205.8963,166.0873,205.7384L166.0873,205.7384z"/>
			</g>
		</g>
	</g>
	<path fill="#E6E6E6" d="M216.049,182.774c-2.5018-0.4588-4.5289,0.6758-5.4186,3.0765
		c-1.9288,5.2059-4.2346,10.4372-6.4657,15.7072c-0.5677-0.1581-1.1617-0.3044-1.8183-0.4216
		c-5.5767-0.9961-7.9384,6.8786-2.3703,8.5974c0.2566,0.0793,0.5236,0.1589,0.791,0.2386
		c-0.3324,0.8768-0.6633,1.7536-0.9763,2.6332c-1.1093-0.1634-2.2412-0.2505-3.4904-0.248
		c-4.8725,0.009-6.1423,7.5707-1.1746,8.6783c0.6594,0.1467,1.3221,0.3081,1.983,0.4621c-0.0838,0.344-0.1918,0.6856-0.2703,1.0304
		c-0.8525,3.7531,3.8836,5.5585,6.0218,2.5388c0.4361-0.6157,0.8253-1.2804,1.24-1.9186c2.6017,0.6059,5.2108,1.1628,7.8222,1.5918
		c0.7223,0.2464,1.5237,0.3056,2.3039,0.1532c0.103-0.02,0.2061-0.0405,0.3091-0.0605c2.6937-0.5271,3.398-3.7012,2.3697-5.8249
		c-1.0778-2.2271-4.0084-3.5324-7.3701-4.3921c0.3021-0.8302,0.5509-1.6481,0.7444-2.451
		c10.4249,1.6861,22.5641,1.0954,26.8246-8.6677C242.7766,190.4978,225.467,184.5014,216.049,182.774z M223.5705,203.3909
		c-3.1825,0.7587-6.641,0.7121-10.0825,0.268c1.4849-3.9095,2.872-7.8281,4.2397-11.6273c2.3809,0.507,4.7933,1.1942,6.6808,2.366
		C228.9351,197.2085,229.8934,201.8833,223.5705,203.3909z"/>
	<g>
		<g>
			<path fill="#303030" d="M243.1837,121.9867c0.7118,0.4467,1.5656,0.6486,2.3576,0.914c0.7776,0.2606,1.5463,0.6232,2.3694,0.6826
				c0.6971,0.0503,0.819-0.8819,0.3297-1.2174c-0.6704-0.4597-1.5426-0.631-2.3153-0.8576
				c-0.8022-0.2352-1.6324-0.5186-2.4753-0.5042C242.9197,121.013,242.7417,121.7093,243.1837,121.9867L243.1837,121.9867z"/>
		</g>
	</g>
	<g>
		<g>
			<path fill="#303030" d="M246.3693,113.5531c-4.5417-1.8842-9.1616-4.3523-14.0421-5.125
				c-6.4976-1.0288-13.1192-0.4289-19.6373-1.3969c-0.7612-0.1131-1.1172,1.0035-0.3271,1.1865
				c6.3167,1.463,12.9183,0.4769,19.3053,1.3844c4.913,0.6981,9.7727,3.1288,14.494,4.7025
				C246.6492,114.4669,246.8188,113.7396,246.3693,113.5531L246.3693,113.5531z"/>
		</g>
	</g>
	<g>
		<g>
			<path fill="#303030" d="M218.7722,115.1906c-0.7754,1.0731-3.8227,1.4347-5.0026,1.8069
				c-0.9128,0.288-2.3538,0.5542-2.986,1.3641c-0.1755,0.2248-0.2292,0.5374,0,0.758c1.8221,1.7539,4.6202,1.5597,6.9432,1.2046
				c3.4511-0.5275,6.4574-2.1122,9.7943-2.9285c1.4189-0.3471,3.0433-0.1902,4.1835,0.8434c1.8865,1.7101-0.26,3.5333-1.7925,4.5401
				c-2.9127,1.9135-4.6237,2.716-4.585,6.4697c0.0066,0.6388,0.8282,0.8222,1.1624,0.3148c1.9488-2.958,5.9156-2.9715,8.9418-4.1157
				c2.8564-1.08,5.1022-2.7591,8.169-3.3715c0.7216-0.1441,0.4054-1.2032-0.3006-1.0905
				c-3.7369,0.5968-6.5152,2.8728-10.1046,3.8618c-2.9479,0.8122-5.9905,1.3679-7.7827,4.0862
				c0.3875,0.1049,0.7749,0.2099,1.1624,0.3148c-0.0141-1.4101,0.0464-2.6645,1.1483-3.6911
				c1.1056-1.0301,2.7132-1.5155,3.9011-2.4709c1.1184-0.8996,2.2898-2.1671,2.0951-3.722
				c-0.3362-2.6841-3.8818-3.7121-6.1346-3.2508c-4.6476,0.9516-9.3482,4.3977-14.3346,3.1394
				c-1.6305-0.4115-1.3406-0.5116,0.0742-1.0356c0.9039-0.3348,1.8268-0.6177,2.7386-0.9293
				c1.0306-0.3521,2.7693-0.6952,3.433-1.6751C219.8014,115.162,219.0832,114.7602,218.7722,115.1906L218.7722,115.1906z"/>
		</g>
	</g>
	<g>
		<g>
			<path fill="#303030" d="M212.4149,112.797c-1.0374,0.2616-2.1689,0.2995-3.2259,0.472c-0.9399,0.1535-2.2976,0.173-3.1367,0.6787
				c-1.9227,1.1587,1.7036,3.2412,2.7577,3.3536c0.6765,0.0721,0.7038-0.904,0.1503-1.1107
				c-0.6171-0.2304-1.3324-0.6811-1.8299-1.1051c-0.088-0.075-0.4206-0.5213-0.4059-0.2071
				c0.0133,0.2853-0.0489,0.0497,0.1639,0.0801c0.3065,0.0438,0.7999-0.1769,1.1091-0.2383
				c1.5556-0.3087,3.2929-0.4682,4.7403-1.1574C213.177,113.3536,212.8622,112.6843,212.4149,112.797L212.4149,112.797z"/>
		</g>
	</g>
	<g>
		<g>
			<path fill="#303030" d="M217.601,110.1736c-4.0242-0.735-8.1483-0.6825-12.2057-1.1295
				c-0.5137-0.0566-0.7147,0.5588-0.5371,0.936c0.2909,0.6181,0.523,1.2405,0.9142,1.8041
				c0.4181,0.6022,1.2821,0.0894,0.9765-0.5708c-0.2849-0.6153-0.5287-1.2473-0.8165-1.8612c-0.179,0.312-0.3581,0.624-0.5371,0.936
				c4.0123,0.4484,8.0644,0.5465,12.0943,0.7083C217.9532,111.0151,218.0711,110.2594,217.601,110.1736L217.601,110.1736z"/>
		</g>
	</g>
	<g>
		<g>
			<path fill="#303030" d="M196.4439,225.3584c0.8365-1.9569,1.5368-3.9713,2.2012-5.9923c0.0763-0.2322-0.089-0.5319-0.3307-0.5824
				c-2.0088-0.4199-4.0179-0.8389-6.0271-1.2571c0.1079,0.2651,0.2157,0.5303,0.3236,0.7954
				c0.798-1.8788,1.5853-3.7619,2.3708-5.646c-0.2379,0.1351-0.4759,0.2702-0.7138,0.4053
				c1.2192,0.2365,2.4381,0.4748,3.6577,0.7093c0.6167,0.1185,2.049,0.6945,2.6857,0.3646c0.6521-0.3379,0.9895-1.7898,1.2454-2.381
				c0.4601-1.0627,0.9061-2.1319,1.3468-3.2028c0.1216-0.2954-0.1339-0.6719-0.421-0.7415
				c-1.7263-0.4184-3.4526-0.8369-5.179-1.2553c0.1416,0.2494,0.2832,0.4987,0.4247,0.7481
				c0.6367-1.923,1.2691-3.8475,1.9027-5.7716c-0.2486,0.1412-0.4972,0.2823-0.7458,0.4235
				c1.642,0.4036,3.2839,0.8073,4.9258,1.2109c0.3344,0.0822,0.6293-0.1068,0.7419-0.4212
				c1.1108-3.1031,2.2067-6.2127,3.3926-9.2877c0.901-2.3361,1.7529-4.6916,2.6405-7.0329
				c0.2801-0.7389,0.8128-3.4098,1.5195-3.8542c0.0197-0.0124,1.6714,0.3076,2.0586,0.3447c1.2393,0.119,2.4536,0.366,3.6565,0.6788
				c2.1789,0.5667,4.3419,1.2969,6.4621,2.0503c3.9845,1.4158,9.0264,3.4569,11.1958,7.3651
				c2.292,4.1289,1.236,10.3567-1.779,13.9034c-3.2173,3.7847-8.1864,4.0668-12.8024,3.9514
				c-3.0817-0.0771-5.7727-0.7769-8.72-1.5178c-1.0072-0.2532-1.9898-0.387-2.751,0.423c-1.2464,1.3263-1.7739,4.0873-2.3803,5.7704
				c-0.1299,0.3605,0.1478,0.845,0.5218,0.919c3.1968,0.6322,6.3921,1.2757,9.5957,1.8726
				c-0.1739-0.3063-0.3479-0.6127-0.5218-0.919c-0.3243,1.8809-1.2885,3.5368-1.6483,5.4076
				c0.3063-0.1739,0.6127-0.3479,0.919-0.5218c-3.2715-0.6618-6.518-1.4631-9.7666-2.228c-0.4304-0.1013-0.7587,0.1361-0.919,0.5218
				c-0.8454,2.0342-2.2568,4.3377-2.6291,6.5075c0.3063-0.1739,0.6127-0.3479,0.919-0.5218
				c-1.5952-0.3288-3.1559-0.7893-4.7136-1.2615c-0.9393-0.2847-1.9912-0.2617-2.8989-0.5663
				c-0.4909-0.1647-0.7014,0.6103-0.2134,0.7741c0.9324,0.3129,1.7426,0.9311,2.7151,1.233c1.5533,0.4823,3.12,0.933,4.7136,1.2615
				c0.3647,0.0752,0.8472-0.1033,0.919-0.5218c0.3723-2.1698,1.7837-4.4733,2.6291-6.5075
				c-0.3063,0.1739-0.6127,0.3479-0.919,0.5218c3.2486,0.7649,6.4951,1.5662,9.7666,2.228c0.3712,0.0751,0.8386-0.1037,0.919-0.5218
				c0.3598-1.8708,1.324-3.5267,1.6483-5.4076c0.064-0.371-0.0947-0.8394-0.5218-0.919c-3.2036-0.5969-6.3989-1.2404-9.5957-1.8726
				c0.1739,0.3063,0.3479,0.6127,0.5218,0.919c0.3303-0.9169,0.6695-1.8312,1.0257-2.7384c0.2356-0.6,0.4193-1.4217,0.8051-1.9396
				c0.0524-0.0703,0.1732-0.4835,0.2825-0.5617c0.4631-0.3313,2.7045,0.5737,3.3055,0.7312
				c4.4477,1.1655,9.9549,1.5219,14.4451,0.4102c7.695-1.9053,11.9041-11.436,8.8449-18.6159
				c-1.4931-3.5044-4.9395-5.6487-8.2466-7.2255c-4.2352-2.0193-9.1371-3.7446-13.7983-4.3665
				c-2.0808-0.2776-3.798-0.875-4.6316,1.1465c-0.8107,1.9659-1.5122,3.9812-2.2375,5.9795
				c-1.6509,4.5485-3.255,9.1138-4.8917,13.6678c0.2473-0.1404,0.4946-0.2808,0.7419-0.4212
				c-1.6414-0.4057-3.2828-0.8114-4.9241-1.2172c-0.3302-0.0816-0.6406,0.1052-0.7458,0.4235
				c-0.636,1.9233-1.2733,3.8463-1.9062,5.7707c-0.1003,0.3048,0.1168,0.6741,0.4247,0.748
				c1.7273,0.415,3.4545,0.8301,5.1818,1.2451c-0.1404-0.2472-0.2807-0.4943-0.421-0.7415
				c-0.3395,0.8297-0.6828,1.658-1.0338,2.4829c-0.2253,0.5294-0.5502,1.079-0.7091,1.6307
				c-0.196,0.6807-0.6463,0.751,0.0389,0.6744c-1.6975,0.1898-4.0637-0.7616-5.7605-1.0768
				c-0.3373-0.0627-0.5865,0.0929-0.7138,0.4053c-0.7517,1.8439-1.5018,3.6884-2.2414,5.5373
				c-0.1025,0.2563,0.1138,0.6169,0.3782,0.6661c0.7731,0.1439,1.5462,0.2879,2.3193,0.4316
				c0.8113,0.1509,2.3946,0.7843,3.1944,0.5925c0.8015-0.1922,0.117,0.6528,0.1985-0.4137
				c-0.0325,0.4255-0.2901,0.9389-0.4178,1.3407c-0.4843,1.524-0.9886,3.0424-1.5837,4.5272
				C195.5427,225.4674,196.2652,225.7763,196.4439,225.3584z"/>
		</g>
	</g>
	<g>
		<g>
			<path fill="#303030" d="M213.1175,204.6894c1.7313-3.5503,2.76-7.2133,3.6291-11.035c0.1932-0.8494,0.328-1.9266,1.1128-2.3785
				c0.7834-0.4511,1.9325-0.007,2.7767,0.1862c1.7958,0.411,3.6968,0.8057,5.3033,1.7466c4.1581,2.4351,3.422,8.9106-0.7933,10.8248
				c-3.4392,1.5618-7.4479,0.9818-10.971,0.0915c-0.9164-0.2315-1.2603,1.092-0.3863,1.4012
				c3.9457,1.396,9.4704,1.5933,13.1013-0.7576c3.5463-2.2961,4.436-7.7856,1.8096-11.1605
				c-1.3722-1.7633-3.7569-2.5571-5.8369-3.0887c-1.5319-0.3916-4.2978-1.4523-5.7968-0.5163
				c-1.3707,0.8558-1.5739,3.3767-1.8452,4.7751c-0.6366,3.281-2.0084,6.3431-3.1313,9.4778
				C211.876,204.8515,212.8379,205.2627,213.1175,204.6894L213.1175,204.6894z"/>
		</g>
	</g>
	<g>
		<g>
			<path fill="#777777" d="M222.9032,120.8194c5.6298,6.6938,13.9219,12.0689,21.9229,15.4343
				c0.7798,0.328,1.3359-0.9961,0.5779-1.3708c-3.853-1.905-7.6293-3.9173-11.184-6.3429
				c-3.7616-2.5667-7.0259-5.6157-10.4757-8.5617C223.159,119.4785,222.4098,120.2327,222.9032,120.8194L222.9032,120.8194z"/>
		</g>
	</g>
	<g>
		<g>
			<path fill="#777777" d="M191.9657,94.2689c4.5158,5.3738,10.1108,10.1181,16.1351,13.7189
				c0.7304,0.4366,1.3462-0.6586,0.6595-1.1282c-5.8271-3.985-11.0341-8.3762-15.9659-13.4193
				C192.2588,92.8926,191.4876,93.7,191.9657,94.2689L191.9657,94.2689z"/>
		</g>
	</g>
	<g>
		<g>
			<path fill="#777777" d="M228.7555,108.6475c5.1926-2.0902,10.2751-4.5904,15.2695-7.1129
				c0.7281-0.3677,0.0896-1.3959-0.6299-1.0777c-5.0705,2.2427-10.1829,4.5595-15.0459,7.2267
				C227.839,107.9635,228.191,108.8747,228.7555,108.6475L228.7555,108.6475z"/>
		</g>
	</g>
	<g>
		<g>
			<path fill="#777777" d="M187.5919,127.1529c3.5611-1.0212,6.9554-2.928,10.3968-4.3022
				c3.4964-1.3961,7.0447-2.6556,10.5903-3.9196c0.8205-0.2925,0.4885-1.586-0.3645-1.3221
				c-3.748,1.1596-7.4181,2.5346-11.0444,4.0304c-3.3041,1.3629-6.9902,2.6406-9.9191,4.7049
				C186.8604,126.6197,187.0819,127.2992,187.5919,127.1529L187.5919,127.1529z"/>
		</g>
	</g>
	<g>
		<g>
			<path fill="#777777" d="M244.4518,138.6809c-1.0078,9.0963-1.2196,18.3315-1.7537,27.4662
				c-0.5352,9.1527-1.0649,18.3062-1.4586,27.4662c-0.0313,0.7278,1.0747,0.7164,1.125,0
				c0.6427-9.1495,1.1497-18.308,1.6511-27.4662c0.4998-9.1286,1.3339-18.3224,1.356-27.4662
				C245.3732,138.0755,244.5155,138.106,244.4518,138.6809L244.4518,138.6809z"/>
		</g>
	</g>
	<g>
		<g>
			<path fill="#777777" d="M186.3304,133.1025c-0.13,26.8942,0.7049,53.8282,1.9973,80.689c0.0294,0.6111,0.978,0.6167,0.9551,0
				c-1.0009-26.8928-1.5356-53.7853-2.1086-80.689C187.1626,132.5604,186.333,132.5581,186.3304,133.1025L186.3304,133.1025z"/>
		</g>
	</g>
	<g>
		<g>
			<path fill="#777777" d="M192.1502,97.9089c-0.0325,7.0105-0.0887,14.0205-0.0469,21.0311c0.0038,0.6334,0.9806,0.6344,0.9844,0
				c0.0419-7.0106-0.0143-14.0206-0.0469-21.0311C193.0382,97.3359,192.1529,97.3349,192.1502,97.9089L192.1502,97.9089z"/>
		</g>
	</g>
	<g>
		<g>
			<path fill="#777777" d="M191.8748,128.3808c-0.2312,21.3006,0.3672,42.6604,0.8108,63.9566c0.0151,0.7227,1.1318,0.7259,1.125,0
				c-0.1998-21.3015-0.2473-42.6711-1.1213-63.9566C192.6678,127.859,191.8805,127.8541,191.8748,128.3808L191.8748,128.3808z"/>
		</g>
	</g>
	<g>
		<g>
			<path fill="#777777" d="M236.8513,139.1131c-0.763,14.8387-3.2255,29.5681-2.872,44.4589c0.0154,0.6472,1.0111,0.6505,1.0078,0
				c-0.0415-8.1163,0.5357-16.2098,1.3068-24.2847c0.6374-6.6749,1.6149-13.4558,1.4304-20.1742
				C237.7089,138.5493,236.8801,138.5532,236.8513,139.1131L236.8513,139.1131z"/>
		</g>
	</g>
	<g>
		<g>
			<path fill="#777777" d="M240.4993,104.3666c-0.132,1.4257-0.2628,2.8413-0.3035,4.2737c-0.0182,0.6407,0.9155,0.6137,0.9785,0
				c0.1462-1.4246,0.2016-2.8442,0.2566-4.2737C241.4542,103.7596,240.5537,103.7791,240.4993,104.3666L240.4993,104.3666z"/>
		</g>
	</g>
</g>
</svg>
