<?xml version="1.0" encoding="utf-8"?>
<!-- Generator: Adobe Illustrator 20.1.0, SVG Export Plug-In . SVG Version: 6.00 Build 0)  -->
<svg version="1.1" xmlns="http://www.w3.org/2000/svg" xmlns:xlink="http://www.w3.org/1999/xlink" x="0px" y="0px"
	 viewBox="0 0 347 261" enable-background="new 0 0 347 261" xml:space="preserve">
<g id="site_bg">
</g>
<g id="back">
	<g>
		<g>
			<path fill="#F2F6F9" d="M196.4278,259.3616c-6.0391,0-12.7783-2.2188-20.1699-6.6543c-1.5557-0.9331-3.1973-1.9858-4.9326-3.1621
				c-0.7217,0.8267-1.5127,1.6025-2.3691,2.3213c-7.4912,6.2856-18.4297,6.2334-25.8594-0.1265l-15.8516-13.5674
				c-1.0645,1.6313-2.3711,3.1128-3.8926,4.3887c-4.5723,3.8379-14.4209,8.9175-28.9902-0.1958
				c-3.4541-2.1602-7.6621-5.2979-12.8643-9.5928c-3.2588-2.6904-6.9473-5.8691-11.0449-9.5195
				c-6.5156,0.812-13.2803-1.5933-17.8096-6.9907c-1.5205-1.8125-2.6641-3.814-3.4404-5.9121
				c-5.2754-7.2466-24.5225-29.1211-40.8457-46.8975c-6.6279-7.2183-6.9609-18.0117-1.2285-25.5815
				c-4.1875-6.6304-5.6592-11.4331-5.3174-16.895c0.3545-5.644,3.0186-10.9468,7.3115-14.5483
				c2.3262-1.9526,4.9873-3.2939,7.7705-4.0239c-6.8926-7.939-9.7598-12.6455-9.2842-20.187
				c0.3438-5.4609,2.9414-10.6128,7.1328-14.1304c4.4863-3.7661,10.1602-5.2334,15.5723-4.4956
				c-0.3301-6.2861,2.3086-12.6187,7.6152-16.7886c1.5439-1.2129,3.2129-2.1636,4.9512-2.8569
				c3.6758-2.4272,9.3262-4.5723,16.8242-2.8623c1.2168-2.0605,2.7861-3.918,4.6738-5.501
				c5.4824-4.6021,12.7471-5.7734,19.127-3.6733c0.8242-1.0347,1.7549-1.9927,2.7832-2.8555
				c6.4375-5.4023,15.3623-6.0928,22.4219-2.2471c0.9893-1.4082,2.165-2.6948,3.5049-3.8193
				c4.6641-3.9136,10.6748-5.7314,16.9502-5.123c5.1562-2.6455,11.2012-2.8955,16.5137-0.7871
				c3.3027-2.5303,10.0117-6.1431,19.2725-3.5342c4.5068-1.7954,11.126-2.689,19.1846,1.3232
				c4.3066-1.6968,9.0488-1.8252,13.3887-0.4507c4.0869,0.0723,8.1367,1.3906,11.5322,3.9014
				c5.8203-0.9365,11.9697,0.7065,16.6338,4.9463l16.9131,15.3755c8.3564-5.4575,19.6602-3.9272,26.2344,3.9072
				c1.2705,1.5156,2.2793,3.1641,3.0293,4.8901c3.8262,4.7207,14.5908,16.2056,23.4199,25.6265
				c44.5586,47.5425,50.6201,55.7954,49.8936,67.9272c-0.3438,5.7495-3.0459,11.1489-7.4131,14.814
				c-0.1221,0.103-0.2461,0.2046-0.3711,0.3037l0.8926,1.0635c3.4092,4.0635,5.0654,9.3145,4.6025,14.5981
				c-0.3379,3.8687-1.792,7.5229-4.1406,10.541c-0.4219,3.0107-1.5283,5.936-3.3027,8.5225
				c-1.2207,2.9072-3.123,5.5127-5.584,7.5781c-0.6797,0.5703-1.4092,1.103-2.1787,1.5889
				c-1.1162,3.8965-3.3721,7.4238-6.4902,10.0405c-0.958,0.8042-2.0195,1.5327-3.1641,2.1636
				c-1.2559,2.2124-2.9043,4.1982-4.9023,5.8755c-2.5137,2.1089-5.4043,3.4985-8.4121,4.1821
				c-1.2139,2.2446-2.8516,4.2598-4.8643,5.9487c-2.4131,2.0239-5.2441,3.4292-8.249,4.1406
				c-0.6357,0.6982-1.3223,1.3579-2.0576,1.9751c-5.1836,4.3501-11.9814,5.644-18.1182,3.9756
				c-1.1855,2.1816-2.7783,4.1445-4.7178,5.7715c-2.3486,1.9702-9.7607,7.0786-19.9531,3.5845
				c-0.7383,0.8491-1.5488,1.6455-2.4277,2.3833c-6.04,5.0674-16.4102,7.147-25.4941,0.29
				c-0.9287,1.2544-2.0068,2.4053-3.2227,3.4253c-4.1943,3.52-9.4756,5.334-14.9863,5.228
				C199.2667,259.2357,197.8673,259.3616,196.4278,259.3616z M272.8644,50.3177c0.4541,1.7319,0.6689,3.5073,0.6514,5.2773
				C273.5763,53.8299,273.382,52.0496,272.8644,50.3177z"/>
		</g>
	</g>
</g>
<g id="Layer_2">
	<path fill="#777777" d="M289.8001,97.1557c2.6955-5.4506,7.3363-16.3044,14.6265-13.7212
		c8.8158,3.1238,3.019,16.1317,7.3745,22.6718c-1.7365-0.2604-2.8484-1.6698-4.3699-2.4725
		c-2.2783-1.2018-4.5124-1.6046-6.9339-2.3538C298.4184,100.6369,292.2961,97.4911,289.8001,97.1557z"/>
	<path fill="#777777" d="M235.8081,74.6591c0.4027-3.9382,2.2968-7.8034,2.7831-11.8008c0.4008-3.2949-0.8473-6.138-0.5334-9.3873
		c0.4572-4.7328,5.6838-5.7803,9.9527-3.9356c3.2386,1.3995,11.5689,9.8677,10.2182,14.2589
		c-0.8606,2.798-7.1538,2.5536-9.6832,3.3671C243.9783,68.6305,240.8154,71.9207,235.8081,74.6591z"/>
	<path fill="#777777" d="M236.558,117.7777c-3.2339-6.6713-5.2633-22.8987,0.012-28.4871c3.6348-3.8505,5.835-7.0643,10.8346-7.8631
		c3.7961-0.6065,6.9521-2.7726,10.5265-3.3926c3.381-0.5864,7.2812,1.1373,10.1399,2.7781
		c5.4062,3.1031,4.6796,11.4227,5.7976,17.2801c1.0641,5.5748,3.2296,12.1439-2.4421,14.8924
		c-4.0426,1.959-5.2937,1.5405-4.7896,6.1624c0.5161,4.7313,1.6451,9.0362,1.8107,13.7136
		c0.3748,10.5891,4.8477,19.8923,2.3231,30.8762c-1.0141,4.4119-2.0194,9.189-3.468,13.436
		c-0.9373,2.748-4.2639,5.3351-4.5074,8.094c-0.2061,2.3353,4.0569,5.0043,2.5572,7.0479c-1.1394,1.5526-5.756-0.2636-7.7024,0.4137
		c-1.1577-2.8463,0.8317-7.7923,0.6631-11.167c-0.2012-4.0279-0.2517-6.317,1.022-10.261
		c1.7261-5.3447,5.8193-18.7402-0.9567-22.3746c-2.1513,6.5059,0.4964,13.7821-0.4309,20.5193
		c-0.6281,4.5628-3.0349,7.3688-4.891,11.0515c-1.7903,3.5521-0.5136,8.2663-2.6079,11.1356
		c-1.934,2.6497-7.6169,3.3513-7.1774-0.441c0.2936-2.5332,3.8678-5.099,4.6255-7.6963c0.6809-2.334-0.063-4.4093-0.3823-6.5503
		c-0.6268-4.2026-1.2859-8.1802-1.5832-12.5392c-0.4206-6.1658,0.3013-12.743-0.844-18.7966
		c-0.7608-4.0215-1.1156-7.9788-1.3222-12.0843c-0.1885-3.7439,0.289-7.2096-0.4597-10.8721
		C242.4223,118.3323,240.4019,119.0512,236.558,117.7777z"/>
	<path fill="#777777" d="M179.2998,182.3252c-0.4176-2.2087-1.1008-4.5432-1.2012-6.6187c-0.1976-4.0884-0.0425-8.256-0.032-12.3591
		c0.0092-3.6147,0.4375-9.2336-0.7706-12.554c-1.1967-3.2891-3.093-5.1022-2.5386-9.3289c3.3042-0.8136,3.7789-3.3789,3.6274-6.3854
		c-5.0833-0.6832,0.0779-6.4474-0.7873-8.5837c-1.322-3.264-7.9748-3.8804-9.8449-7.593
		c-1.8932-3.7584,0.2704-11.1098,1.3153-15.3834c1.9015-7.7772,3.6159-21.6456,15.1866-19.2666
		c3.1713,0.652,5.6501,1.9899,9.1848,1.655c2.9926-0.2835,4.6053-1.6252,7.4976-1.8734
		c11.3369-0.973,13.7722,14.7442,16.2087,22.6635c1.6446,5.3446,3.0961,10.353,3.2898,15.9438
		c0.1821,5.2562-0.8182,11.4269,1.0695,16.3862c-1.9206-2.5795-4.9402-3.528-6.4081-6.6216
		c-1.3704-2.888-1.1395-6.2584-1.4424-9.3894c-0.3324-3.4327-0.907-14.9046-5.0635-16.2192
		c-4.9267-1.5581,0.1866,27.3074-0.9625,28.7043c-1.2868,1.5645-3.3901,2.9399-4.1304,5.0591
		c-0.9816,2.8101-0.0645,6.6533-0.0645,9.7411c0,3.9335-1.1741,14.5199,4.5204,15.0182c0.2134,4.2395-0.102,8.4274-1.6072,12.4376
		c-1.4378,3.8306-4.1395,5.42-3.3492,9.5377c0.5137,2.6766,3.309,5.6179,0.1992,7.646c-1.6284,1.062-5.1649,0.1046-7.0746,0.0181
		c0.1935-4.9333,3.8204-8.4336,2.9876-13.6428c-0.8143-5.0934-0.7959-10.4186-0.7959-15.7945
		c0.0001-4.8119,2.4215-16.0816-1.7216-19.702c-9.3974-8.2118-10.7551,23.419-11.0125,26.329
		c-0.1426,1.6125-2.2436,22.0075-2.6119,21.977c-2.5284-0.2096-5.1326,1.8327-7.8426,1.2083
		c-0.2425-3.4138,4.1218-5.9498,4.4607-9.2976C179.7012,184.8971,179.5471,183.6333,179.2998,182.3252z"/>
	<path fill="#E93A1D" d="M90.8211,7.3844c-0.2295-1.2697-0.7749-2.4938-1.3747-3.2115c-3.3043-3.954-10.6789-2.5981-14.6493-0.5381
		c-5.7063,2.9613-10.0814,9.5198-12.3567,15.3698c-0.5862,1.5073,1.099,2.6458,2.4113,2.2886
		c0.3675,0.0365,0.7512-0.0642,1.0702-0.3705c4.0258-3.8655,9.746-10.0523,15.7683-10.2246c2.2715-0.065,6.0897,2.0324,7.972,0.7796
		C90.898,10.6551,91.1101,8.9837,90.8211,7.3844z"/>
	<path fill="#E93A1D" d="M95.9547,165.7497c-2.0309-9.3374-3.0068-19.1507-4.4195-28.0648
		c-1.1712-7.3902-2.4138-16.1776-0.7704-23.5639c1.6697-7.505,3.5569-12.705,0.9103-20.2027
		c-0.0485,0.1539-0.2395,1.4225-0.204,1.4158c-3.4599,0.6551-5.0757-3.6417-1.8706-4.7615
		c-1.4778-5.7358-4.8104-9.7176-4.2372-15.9759c0.2592-2.8301,1.7544-5.4835,2.2167-8.2886
		c0.7461-4.5275-0.4395-6.7125,4.4012-8.9506c6.18-2.8573,6.3489-0.7803,5.6627-7.7374
		c-6.3388-0.3221-12.6037,0.8593-18.7999,0.8378c-5.396-0.0187-13.5352,2.059-18.1214-0.8575
		c0.7855,2.541-0.5272,6.2653,1.0895,8.274c0.7921,0.9841,3.5308,1.624,4.6234,2.5947c1.8073,1.6059,3.4253,4.1823,4.1837,6.462
		c2.6255,7.8922,0.325,15.1583-2.8432,21.7689c5.1204,1.486,8.7678,3.9022,2.6027,6.6879c-2.7465,1.241-3.2017,0.0414-4.7511,2.9902
		c-1.3694,2.606-1.0042,7.8425-0.979,10.6464c0.1111,12.3614,5.4218,23.6475,3.5589,36.2566
		c-2.6247,17.765-10.1059,32.2542-18.1812,47.8419c6.1414-4.3049,11.5349-0.9097,17.9176,0.6142
		c1.8718,0.4469,4.6174,1.5382,6.4494,1.1982c2.6732-0.4961,4.4806-3.3956,7.371-3.7514
		c6.0214-0.7414,18.3389,10.0102,23.4369,5.5707c3.5434-3.0857-1.77-10.2886-3.3162-13.3332
		C99.1402,178.0169,97.3119,171.9895,95.9547,165.7497z"/>
	<path fill="#FFEFAF" d="M77.1837,46.1055c-0.2564-0.2683-0.5027-0.5413-0.7402-0.8183c-0.0147-2.558-0.7232-4.7295-1.6352-7.1229
		c-1.4812-3.887-1.2758-6.5807-0.6714-10.5921c0.3793-2.5178,0.3565-8.1622-3.7999-7.4295c-1.2928,0.228-2.071,1.213-2.3966,2.4175
		c-0.2065,0.7637,0.043,1.539,0.0426,2.2991c-0.0008,1.6333-0.5516,2.9189-1.1006,4.4408c-0.6318,1.7515-1.2384,3.0309-1.083,4.9848
		c0.146,1.8363,1.0244,3.6749,1.2866,5.443c-0.1014,0.3097-0.2032,0.6308-0.3033,0.965c-1.1127,0.0656-2.1811,0.9727-1.7567,2.3446
		c0.1882,0.6085-1.2103,2.1805-1.2959,2.9384c-0.0989,0.8729,0.0914,1.7942,0.6893,2.473c1.455,1.6527,4.8014,1.5384,7.6949,1.2597
		c0.2111,0.0114,0.423-0.0102,0.6282-0.0626c1.2056-0.1261,2.3-0.2607,3.09-0.2786C77.5009,49.3298,78.3356,47.3116,77.1837,46.1055
		z"/>
	<path fill="#FFEFAF" d="M92.2978,20.6708c-0.3025-1.3551-2.4632-1.3709-2.7566,0c-0.4128,1.9309-0.2898,3.9732-0.6754,5.9282
		c-0.3289,1.6667,1.9676,2.2989,2.5384,0.6999C92.1277,25.2735,92.7773,22.8191,92.2978,20.6708z"/>
	<g>
		<g>
			<path fill="#303030" d="M59.8061,56.9091c-0.2426-3.0356-0.5178-6.0682-0.7937-9.101c-0.2494,0.19-0.4988,0.38-0.7483,0.57
				c13.1662,2.783,26.6323,3.1393,39.9216,1.0058c-0.2508-0.1424-0.5016-0.2848-0.7524-0.4272
				c0.5672,1.8047,1.5449,4.486,0.2679,6.2013c-1.3872,1.8634-2.9667,1.3656-4.8848,1.2784
				c-1.5856-0.0721-3.0619,0.331-3.6588,1.9425c-0.6372,1.7201,0.2471,3.5873,0.2752,5.3259
				c0.0649,4.0114-8.3402,3.0042-11.0619,3.0269c-0.7597,0.0063-0.7219,1.0742,0,1.1543c2.596,0.2881,5.2508,0.1191,7.8348-0.2269
				c1.1869-0.159,2.5574-0.2561,3.4901-1.1032c1.6775-1.5236,0.7606-3.9807,0.5677-5.8851
				c-0.1472-1.4535-0.2587-2.6361,1.8947-3.0276c0.8548-0.1554,1.8459,0.2325,2.7099,0.2382
				c1.0851,0.0072,2.0852-0.211,2.9375-0.9312c2.494-2.1074,1.6466-5.654,0.8073-8.3185c-0.1074-0.3409-0.4148-0.4816-0.7524-0.4272
				c-13.047,2.1032-26.3559,1.7927-39.2821-0.9662c-0.3431-0.0732-0.7847,0.1642-0.7483,0.57
				c0.2724,3.0348,0.5454,6.0694,0.8509,9.101C58.7526,57.6188,59.8643,57.6365,59.8061,56.9091L59.8061,56.9091z"/>
		</g>
	</g>
	<g>
		<g>
			<path fill="#303030" d="M86.3534,68.0398c-1.3317,3.6929-2.1861,7.6304-1.6037,11.5641
				c0.2722,1.8382,0.8607,3.6018,1.6232,5.2911c0.4296,0.9518,1.0751,1.8565,1.4499,2.8247
				c0.582,1.5034,0.2604,2.0544-0.7898,3.1371c-0.1564,0.1613-0.232,0.4754-0.0868,0.6724c0.8992,1.2205,1.7232,3.691,3.6592,3.3741
				c1.858-0.3041,2.809-2.9124,3.1353-4.4742c0.1407-0.6734-0.8241-0.9467-1.034-0.285c-0.4429,1.3967-0.6573,2.5713-2.1217,3.0575
				c-1.2964,0.4304-1.2219,0.0201-1.8482-0.9456c-0.3573-0.5508-0.501-0.6666-0.3924-1.1578
				c0.1265-0.5723,0.8967-1.0087,1.0216-1.6876c0.0901-0.4901-0.0035-0.886-0.1559-1.3515
				c-0.3327-1.0165-1.0322-1.9469-1.4966-2.9056c-1.0084-2.0818-1.7773-4.262-1.9998-6.5782
				c-0.3378-3.5161,0.5302-6.953,1.6115-10.2676C87.5282,67.6857,86.571,67.4364,86.3534,68.0398L86.3534,68.0398z"/>
		</g>
	</g>
	<g>
		<g>
			<path fill="#303030" d="M63.0446,93.9908c-2.337,4.8958-3.1449,10.156-2.8572,15.5538
				c0.3186,5.9786,2.1464,11.695,2.6718,17.6314c1.1165,12.6133-1.6535,25.041-4.7685,37.182
				c-0.24,0.9355,1.2063,1.3346,1.4464,0.3988c2.9112-11.3467,5.5446-22.9453,5.0114-34.739
				c-0.2677-5.9219-1.9203-11.5311-2.5958-17.3924c-0.7055-6.1214-0.2984-12.2519,2.387-17.8775
				C64.7536,93.881,63.4607,93.1191,63.0446,93.9908L63.0446,93.9908z"/>
		</g>
	</g>
	<g>
		<g>
			<path fill="#303030" d="M67.3246,66.9618c3.6085,6.6155,1.8344,14.5671-1.1924,21.0531
				c-0.4057,0.8694,0.8869,1.632,1.2952,0.7571c3.2655-6.9975,5.0777-15.4443,1.1924-22.5672
				C68.1574,65.357,66.8618,66.1132,67.3246,66.9618L67.3246,66.9618z"/>
		</g>
	</g>
	<g>
		<g>
			<path fill="#303030" d="M52.1635,196.1927c3.1071-5.8626,10.4478-3.0978,15.0951-1.1926
				c4.0724,1.6694,8.8959,3.217,12.973,0.7005c2.7967-1.7262,4.6039-3.4825,8.1528-2.4914c2.4311,0.6789,4.61,2.0645,6.9497,2.9847
				c4.5217,1.7784,9.2363,1.4626,13.629-0.4964c0.3463-0.1544,0.3558-0.6666,0.1167-0.9059
				c-8.9328-8.942-11.1951-21.9676-13.1742-33.9405c-0.1174-0.7104-1.1913-0.4069-1.0792,0.2975
				c1.9541,12.2719,4.3668,25.2699,13.4377,34.4586c0.0389-0.302,0.0778-0.6039,0.1167-0.9059
				c-3.0998,1.3604-6.6514,1.7776-9.9733,1.0747c-2.6638-0.5637-4.9967-1.952-7.4779-3.0041
				c-1.9245-0.816-4.0504-1.5375-6.1692-1.1402c-2.7896,0.5231-4.4332,3.0958-7.1334,3.8018
				c-5.9128,1.5458-11.1755-3.0179-16.7896-3.9218c-3.7223-0.5993-7.8884,0.533-9.6607,4.1042
				C50.8524,196.27,51.8169,196.8468,52.1635,196.1927L52.1635,196.1927z"/>
		</g>
	</g>
	<g>
		<g>
			<path fill="#303030" d="M57.0696,57.8814c-2.5602,2.2727-4.9189,4.7151-7.048,7.3989c-1.6302,2.055-3.516,4.2818-4.4641,6.7542
				c-2.1416,5.5847,4.5917,9.722,8.0111,12.9121c2.5051,2.3372,5.0899,4.6321,7.455,7.1115
				c1.6254,1.7039,3.1925,3.4543,5.6665,3.7088c1.5799,0.1625,3.2952-0.2288,4.8743-0.3625
				c0.5719-0.0484,1.3496-0.0266,1.8572-0.3511c1.1457-0.7323,0.8649-2.4134,0.8557-3.5634c-0.0056-0.7015-1.0801-0.7021-1.0898,0
				c-0.0096,0.6903,0.1993,2.1349-0.4823,2.6171c-0.4885,0.3455-2.0417,0.1853-2.6001,0.2381
				c-1.3358,0.1262-2.7544,0.4985-4.0916,0.1386c-1.3869-0.3733-2.4012-1.4399-3.3723-2.4242
				c-3.3449-3.3903-6.8105-6.6632-10.3259-9.8792c-1.7238-1.577-3.8089-3.0812-5.0769-5.081
				c-1.777-2.8025-0.486-5.2345,1.1778-7.675c2.694-3.9517,5.8891-7.5525,9.3578-10.8384
				C58.2427,58.1417,57.546,57.4584,57.0696,57.8814L57.0696,57.8814z"/>
		</g>
	</g>
	<g>
		<g>
			<path fill="#303030" d="M61.009,62.5967c-4.1025,3.4532-7.6305,7.4472-10.7346,11.8128c-0.111,0.1561-0.0938,0.3992,0,0.557
				c3.3379,5.6167,7.9358,10.5027,13.6224,13.775c0.567,0.3263,1.0459-0.5141,0.5087-0.8702
				c-4.6537-3.0853-8.7648-6.761-11.8958-11.418c-0.8997-1.3382-0.9953-1.9373,0.0085-3.2722
				c0.9433-1.2544,1.9279-2.4773,2.9587-3.661c1.9284-2.2144,4.0092-4.298,6.1578-6.2978
				C62.0569,62.8293,61.4387,62.2351,61.009,62.5967L61.009,62.5967z"/>
		</g>
	</g>
	<g>
		<g>
			<path fill="#303030" d="M67.9306,20.8971c2.5704-4.8114,6.5923-7.951,11.9918-8.7524c3.5274-0.5236,9.6265-0.3954,8.0486,4.7438
				c-0.2239,0.7292,0.8954,1.0267,1.1357,0.3131c1.7084-5.0736-3.1416-6.6718-7.3101-6.4459
				C75.2417,11.111,69.984,14.4335,67.116,20.421C66.8569,20.962,67.6414,21.4385,67.9306,20.8971L67.9306,20.8971z"/>
		</g>
	</g>
	<g>
		<g>
			<path fill="#303030" d="M71.8184,19.6129c4.2275-4.2545,11.3452-6.2321,16.3475-2.195c0.5179,0.418,1.2623-0.2893,0.7458-0.7458
				c-5.1904-4.587-13.4265-2.6322-17.6981,2.3358C70.8586,19.4208,71.4252,20.0086,71.8184,19.6129L71.8184,19.6129z"/>
		</g>
	</g>
	<g>
		<g>
			<path fill="#303030" d="M66.1628,20.6161c-2.1787-0.0607-5.4368,0.3045-5.1262-2.8444c0.1314-1.3322,0.8064-2.8752,1.385-4.0664
				c1.7152-3.5309,4.7471-6.1554,8.1522-8.0013c3.4412-1.8655,7.7032-3.3742,11.637-3.5897
				c2.4288-0.1331,5.2235,0.4289,6.5799,2.6962c1.4949,2.4988,0.3086,5.5393-0.4453,8.0668
				c-0.2394,0.8028,0.9296,1.0781,1.2261,0.338c1.923-4.7996,1.8825-10.7702-4.1335-12.2006
				c-5.1395-1.222-11.7315,1.3392-16.1463,3.9043c-4.2304,2.458-7.5239,6.0561-9.0302,10.7591
				c-0.4464,1.3937-1.0989,3.4661-0.1376,4.795c1.318,1.8219,4.2027,1.1454,6.0389,0.9692
				C66.6837,21.3923,66.7039,20.6312,66.1628,20.6161L66.1628,20.6161z"/>
		</g>
	</g>
	<g>
		<g>
			<path fill="#303030" d="M77.7105,16.2936c1.9917,3.1494,6.2688,4.7571,9.8551,4.8434c3.3507,0.0806,3.1612-2.4473,1.4268-4.5456
				c-0.4723-0.5713-1.3648,0.1615-1.0077,0.7775c0.5937,1.0242,1.478,2.0445-0.1349,2.3439
				c-1.1743,0.218-2.9145-0.3558-4.0355-0.7153c-2.0279-0.6504-3.8256-1.764-5.1744-3.421
				C78.2145,15.0538,77.3549,15.7312,77.7105,16.2936L77.7105,16.2936z"/>
		</g>
	</g>
	<g>
		<g>
			<path fill="#303030" d="M79.3048,36.8575c0.0064,1.5442,2.1527,1.6239,3.3039,1.4133c1.7823-0.3261,3.0569-1.6859,3.8919-3.2179
				c2.0057-3.6798,2.3304-8.3297,2.2656-12.4405c-0.0121-0.7666-1.1386-0.7564-1.1836,0c-0.1685,2.8355-0.3883,5.7218-1.0798,8.4837
				c-0.3509,1.4014-0.8111,2.8325-1.6369,4.0323c-0.4317,0.6273-0.9559,1.2226-1.6402,1.5827
				c-0.2669,0.1404-2.9287,0.8622-2.9834,0.1464C80.1969,36.2636,79.3023,36.2463,79.3048,36.8575L79.3048,36.8575z"/>
		</g>
	</g>
	<g>
		<g>
			<path fill="#303030" d="M89.3866,16.88c3.535,3.3776,3.8342,8.1424,0.4634,11.792c-0.4832,0.5232,0.2647,1.2762,0.7831,0.7831
				c3.9204-3.7294,3.6602-10.0273-0.6962-13.2883C89.5207,15.8553,89.0199,16.5296,89.3866,16.88L89.3866,16.88z"/>
		</g>
	</g>
	<g>
		<g>
			<path fill="#303030" d="M74.3838,20.8202c1.2558,2.859-0.9941,5.5411-1.6495,8.244c-0.4566,1.8831-0.3591,3.7343,0.2896,5.5622
				c0.7997,2.253,2.2448,4.2039,2.7986,6.5556c0.7264,3.0847,0.4458,6.309,0.5745,9.4452c0.0317,0.7733,1.1651,0.7729,1.2012,0
				c0.1304-2.7957,0.1292-5.667-0.2945-8.4391c-0.4118-2.6942-1.712-4.7569-2.7955-7.2008c-1.4652-3.305-0.651-5.8758,0.5583-9.065
				c0.7206-1.9002,1.0448-3.6864,0.0306-5.519C74.8337,19.9272,74.1752,20.3454,74.3838,20.8202L74.3838,20.8202z"/>
		</g>
	</g>
	<g>
		<g>
			<path fill="#303030" d="M65.8959,21.8063c3.4697,1.9234,0.6689,4.7241-0.4083,7.0777c-0.7551,1.6497-1.1386,3.4752-1.1172,5.2885
				c0.0294,2.4936,1.1023,4.873,0.9406,7.3677c-0.1656,2.5548-1.7747,4.6451-3.1923,6.6731
				c-0.3469,0.4963,0.459,1.1291,0.8466,0.6533c1.6681-2.0475,3.3181-4.291,3.5959-7.0004
				c0.3329-3.2463-1.2986-6.2827-0.7711-9.5645c0.2818-1.7529,0.9841-3.2375,1.913-4.7435c0.5343-0.8662,1.1231-1.7327,1.237-2.7728
				c0.1982-1.8099-0.9764-3.3834-2.6695-3.8679C65.7447,20.7669,65.4094,21.5366,65.8959,21.8063L65.8959,21.8063z"/>
		</g>
	</g>
	<g>
		<g>
			<path fill="#303030" d="M81.3189,37.5819c-0.4126,2.0481-0.391,5.7295,1.2814,7.2913c0.8895,0.8306,2.1702,0.8618,3.3004,0.673
				c1.1524-0.1925,2.2426-0.746,3.4259-0.767c1.9552-0.0347,2.1713,2.0583,2.7655,3.4693c0.2415,0.5734,1.1529,0.3734,0.9662-0.2664
				c-0.3705-1.2693-0.2304-2.808-1.3174-3.75c-0.9327-0.8082-2.3036-0.7964-3.4461-0.5918c-2.1691,0.3884-4.7947,1.661-5.5639-1.295
				c-0.3933-1.5115-0.3117-3.0711-0.3126-4.6146C82.4176,37.117,81.4465,36.9481,81.3189,37.5819L81.3189,37.5819z"/>
		</g>
	</g>
	<g>
		<g>
			<path fill="#303030" d="M92.9179,58.5196c0.1118,5.2793,1.534,10.5683,1.4105,15.8418c-0.11,4.6969-3.1944,8.6651-3.3453,13.365
				c-0.0205,0.6375,0.9425,0.6271,0.9844,0c0.3208-4.8041,3.2929-8.9159,3.3496-13.7795C95.376,68.9,94.637,63.3713,93.6948,58.4144
				C93.6109,57.9732,92.9086,58.0791,92.9179,58.5196L92.9179,58.5196z"/>
		</g>
	</g>
	<g>
		<g>
			<path fill="#303030" d="M90.8037,67.7141c0.1969,4.0315,0.0115,7.8671-0.7912,11.8349c-0.1379,0.6815,0.8856,0.977,1.0509,0.2897
				c0.9601-3.9921,1.2271-8.1758,0.615-12.243C91.6037,67.0994,90.7794,67.2169,90.8037,67.7141L90.8037,67.7141z"/>
		</g>
	</g>
	<g>
		<g>
			<path fill="#303030" d="M90.7895,94.1528c2.3448,3.3053,2.143,7.2788,1.2919,11.068c-0.8289,3.6903-1.8653,7.2831-2.3896,11.0411
				c-1.0182,7.2985-0.7747,14.7117,0.677,21.9316c0.1473,0.7326,1.2405,0.4167,1.1131-0.3069
				c-1.4929-8.4792-1.5657-17.1272,0.1049-25.5887c1.1961-6.0581,4.0746-12.9893-0.1345-18.5325
				C91.1603,93.3808,90.4996,93.7441,90.7895,94.1528L90.7895,94.1528z"/>
		</g>
	</g>
	<g>
		<g>
			<path fill="#303030" d="M175.3018,77.8987c5.6119-4.2186,5.3518-12.0143,8.5721-17.7176
				c2.3887-4.2305,6.8154-6.3561,11.5042-4.546c4.3828,1.6919,6.8091,6.2129,7.1905,10.714c0.1742,2.0564-0.158,4.106-0.0784,6.1623
				c0.0235,0.6051,0.0632,1.2274,0.1692,1.8262c0.0757,0.4279,0.8962,2.0924,0.8208,2.484
				c-0.3495,1.8147-3.3808-1.1451-4.1208-1.6231c-1.3579-0.8771-2.8269-1.5737-4.3495-2.1126
				c-6.1771-2.1864-13.3129-1.5143-18.8283,2.071c-0.7669,0.4985-0.0681,1.7193,0.7216,1.2345
				c6.1818-3.7955,14.0681-4.1815,20.4955-0.6775c1.7615,0.9603,4.0642,3.8403,6.3339,3.5732
				c2.6878-0.3164,0.8538-3.1633,0.4806-4.5392c-0.9463-3.4882,0.2348-7.2466-0.5738-10.8063
				c-0.6538-2.878-2.121-5.6461-4.378-7.5843c-4.3358-3.7234-10.9667-3.7268-14.8322,0.6436
				c-5.1119,5.7798-4.1548,14.5293-9.7948,20.0328C174.2004,77.4571,174.7906,78.283,175.3018,77.8987L175.3018,77.8987z"/>
		</g>
	</g>
	<g>
		<g>
			<path fill="#303030" d="M229.7009,75.7916c4.1229-4.6378,3.0178-11.0843,3.917-16.7526
				c0.5674-3.5766,2.2673-7.7055,6.0392-8.9022c3.9342-1.2482,7.6342,1.6063,10.091,4.3491
				c1.0602,1.1836,2.0192,2.4511,3.0392,3.6684c0.9588,1.1443,3.1286,2.6699,3.5634,4.1037
				c-0.0763,0.9406-0.1526,1.8812-0.2289,2.8218c-0.5609,0.5387-1.2191,0.9008-1.9746,1.0862
				c-1.1085,0.3156-2.3208,0.2834-3.4554,0.4282c-1.1703,0.1494-2.2478,0.4191-3.3292,0.901
				c-5.3505,2.384-10.4875,10.8082-17.1297,7.6599c-0.8841-0.419-1.6645,0.8815-0.7748,1.3256
				c8.0147,4.0006,13.0998-6.1168,19.7949-8.0706c2.8891-0.8431,7.5231-0.0005,8.8269-3.6597
				c1.1606-3.2575-3.0342-6.1986-4.7881-8.3202c-2.5223-3.0511-5.1142-6.4202-9.0863-7.5995
				c-3.2267-0.958-6.4159,0.0364-8.6411,2.5294c-5.9179,6.6302-1.7236,16.7048-6.5029,23.9381
				C228.8083,75.681,229.3928,76.1382,229.7009,75.7916L229.7009,75.7916z"/>
		</g>
	</g>
	<g>
		<g>
			<path fill="#303030" d="M283.9421,99.3337c3.1381-1.4628,6.3697-0.3971,9.562,0.3281c2.899,0.6585,5.7987,1.314,8.6986,1.9687
				c1.2757,0.288,2.6234,0.4732,3.8666,0.8797c1.8685,0.611,2.405,1.7901,3.583,3.1799c1.0025,1.1827,2.2138,1.8178,3.7513,1.3907
				c0.4397-0.1221,0.5941-0.6027,0.4018-0.9876c-1.4207-2.8432-2.4844-5.8302-3.0844-8.955c-0.6125-3.1899-0.2407-6.381-0.73-9.5512
				c-0.5582-3.6157-3.5382-6.1111-7.0383-6.7958c-3.861-0.7553-7.576,0.9032-10.2687,3.6333
				c-3.739,3.791-4.2359,9.189-7.5175,13.1686c-0.5743,0.6964,0.3934,1.7018,1.0068,1.0068
				c2.6405-2.9916,3.2663-7.0714,5.3706-10.3938c2.4893-3.93,6.7968-7.1313,11.6546-5.9181c2.0157,0.5034,3.921,1.7228,4.8829,3.612
				c1.182,2.3214,0.6005,5.4084,0.8218,7.9342c0.3973,4.5345,1.7076,8.8764,3.7411,12.9376
				c0.1339-0.3292,0.2679-0.6584,0.4018-0.9876c-2.099,0.5849-2.8989-2.0781-3.9723-3.1374
				c-0.6769-0.668-1.4223-1.0401-2.3267-1.3174c-2.9908-0.9169-6.1846-1.4032-9.2385-2.0793
				c-3.9106-0.8658-10.5862-3.7298-14.0814-0.5835C283.0461,99.0097,283.5307,99.5255,283.9421,99.3337L283.9421,99.3337z"/>
		</g>
	</g>
	<g>
		<g>
			<path fill="#303030" d="M182.0006,74.0938c-0.5081,3.267-0.7922,7.5185,1.9565,9.9344c1.4121,1.2411,3.2974,1.4847,5.093,1.7312
				c3.0477,0.4183,6.1018,0.5664,9.1757,0.5702c0.3493,0.0004,0.6224-0.2903,0.6325-0.6325
				c0.102-3.468,0.1849-6.9706,0.0779-10.4387c-0.0258-0.8345-1.2592-0.8325-1.2949,0c-0.1487,3.4665-0.1081,6.9697-0.0479,10.4387
				c0.2108-0.2108,0.4216-0.4216,0.6325-0.6325c-1.9949,0.0408-3.9853-0.0139-5.9746-0.1712
				c-2.1172-0.1674-4.9118-0.1463-6.8291-1.2336c-3.1624-1.7935-2.7791-6.3601-2.5469-9.4477
				C182.9125,73.7182,182.0781,73.5956,182.0006,74.0938L182.0006,74.0938z"/>
		</g>
	</g>
	<g>
		<g>
			<path fill="#303030" d="M186.6116,81.2482c-0.4458-1.5117,1.074-2.5807,2.4326-2.606c1.2746-0.0238,2.4299,0.611,3.5981,1.0261
				c0.6028,0.2142,0.977-0.7162,0.4312-1.0228c-1.6399-0.9209-3.874-1.7249-5.6992-0.8641
				c-1.4296,0.6742-2.3632,2.2073-1.8305,3.7612C185.7725,82.2102,186.8152,81.9388,186.6116,81.2482L186.6116,81.2482z"/>
		</g>
	</g>
	<g>
		<g>
			<path fill="#303030" d="M237.4013,75.4453c1.7192,0.6888,2.1972,2.6654,3.2747,3.9803c0.6864,0.8376,1.518,1.4749,2.512,1.9112
				c2.5368,1.1136,5.35,0.7398,7.8725-0.2005c1.8315-0.6828,4.9655-1.5069,5.4304-3.686c0.3115-1.4603-0.0522-3.4308-0.0927-4.911
				c-0.0556-2.0325-0.0588-4.0777-0.2498-6.1025c-0.0723-0.7666-1.1833-0.7929-1.2129,0c-0.1049,2.8081,0.0842,5.6414,0.1673,8.4497
				c0.0572,1.9318-0.1658,2.9845-2.0591,3.9122c-1.4395,0.7054-2.9273,1.3729-4.5034,1.7062
				c-3.2182,0.6806-5.8735-0.3404-7.7089-3.0472c-0.9003-1.3278-1.5694-2.4438-3.184-2.905
				C237.0605,74.385,236.8623,75.2294,237.4013,75.4453L237.4013,75.4453z"/>
		</g>
	</g>
	<g>
		<g>
			<path fill="#303030" d="M249.7214,71.5551c-2.2027-0.355-4.323,0.1883-6.0088,1.6687c-0.5292,0.4647,0.232,1.1885,0.7623,0.7624
				c1.473-1.1837,3.2486-1.7524,5.1343-1.6024C250.0775,72.421,250.1926,71.631,249.7214,71.5551L249.7214,71.5551z"/>
		</g>
	</g>
	<g>
		<g>
			<path fill="#303030" d="M182.8837,83.1473c-6.5811-0.9857-11.5862,3.9742-13.883,9.682
				c-1.6209,4.0281-2.2858,8.4088-3.1458,12.6435c-0.8311,4.0917-2.306,8.5185-2.5001,12.6814
				c-0.1509,3.2361,3.7522,4.8405,6.0079,6.3329c4.0082,2.6518,8.0163,5.3038,12.0244,7.9557
				c2.4935,1.6498,5.8357,4.8173,9.1388,4.4945c3.4857-0.3406,1.948-3.5431,3.1657-5.6773c0.287-0.503-0.4224-0.8739-0.7538-0.4406
				c-0.4617,0.6035-0.5853,1.1295-0.7547,1.8658c-0.3813,1.6568,0.0092,2.9127-2.6764,2.7724
				c-0.687-0.0359-1.4098-0.4412-1.9983-0.7447c-2.8977-1.494-5.582-3.6294-8.3024-5.4242
				c-2.7664-1.8251-5.5329-3.6502-8.2993-5.4753c-1.3817-0.9116-2.7907-1.7925-4.1496-2.7377
				c-1.3385-0.931-2.1447-2.0639-1.8762-3.7186c0.1304-0.8037,0.3198-1.6015,0.4792-2.3997
				c1.2372-6.1947,2.1512-12.5579,3.8466-18.6472c1.6712-6.0023,6.1208-12.9461,13.3253-11.886
				C183.3645,84.5467,183.7258,83.2734,182.8837,83.1473L182.8837,83.1473z"/>
		</g>
	</g>
	<g>
		<g>
			<path fill="#303030" d="M193.7735,131.3307c1.6112,0.6018,3.1034,0.828,4.8211,0.7818c0.4106-0.011,0.5949-0.4916,0.3264-0.7881
				c-1.7372-1.919-3.4889-3.8411-5.3387-5.6526c-1.1282-1.1049-2.3097-2.3632-3.8244-2.9215
				c-2.0481-0.7549-4.5388,0.1083-4.8717,2.4485c0.422-0.0552,0.8441-0.1103,1.2661-0.1655
				c-2.6582-3.5825-5.6172-6.9128-8.9426-9.8917c-1.1459-1.0265-1.7558-1.5147-1.5199-3.202
				c0.1648-1.1785,0.714-2.4166,1.0517-3.5598c0.7449-2.5215,1.5083-5.0374,2.1866-7.5778
				c0.2279-0.8536-1.0466-1.1954-1.3165-0.3629c-0.9065,2.7958-1.7129,5.6228-2.5455,8.4413
				c-0.4711,1.5947-1.6797,3.8043-0.7766,5.4467c0.9258,1.6837,3.3275,3.1026,4.6826,4.4609
				c2.1625,2.1677,4.1488,4.4943,5.9839,6.9445c0.3037,0.4054,1.1747,0.497,1.2661-0.1655
				c0.6508-4.7173,5.8961,0.4404,7.1796,1.6592c1.6455,1.5626,3.2737,3.1337,4.8664,4.7509
				c0.1088-0.2627,0.2176-0.5254,0.3264-0.7881c-1.6037,0.1025-3.0949-0.098-4.6217-0.5816
				C193.5066,130.4598,193.3285,131.1645,193.7735,131.3307L193.7735,131.3307z"/>
		</g>
	</g>
	<g>
		<g>
			<path fill="#303030" d="M197.8945,84.6301c5.2171-0.8819,10.1628,1.4616,12.6501,6.1469
				c2.1162,3.9864,3.0998,8.72,4.4392,13.0009c1.3635,4.3579,2.9482,8.7244,3.7057,13.2414
				c0.9048,5.3958,0.4079,10.7682,0.4315,16.1957c0.0032,0.7336,1.0489,0.7035,1.1191,0c0.573-5.7421,0.597-11.7989-0.5068-17.4793
				c-1.1102-5.7141-3.2194-11.2872-4.9643-16.8305c-1.3331-4.2347-2.4239-9.0973-5.7865-12.2545
				c-3.0514-2.865-7.2915-3.8714-11.3092-2.8229C197.1459,83.9654,197.3763,84.7177,197.8945,84.6301L197.8945,84.6301z"/>
		</g>
	</g>
	<g>
		<g>
			<path fill="#303030" d="M216.7505,135.5366c-3.6054-2.0709-8.0232-1.3681-10.7111,1.8651
				c-0.2246,0.2702-0.2779,0.8111,0.1265,0.9818c1.9769,0.8345,4.2702,0.9826,6.1435,2.0311
				c3.3015,1.8479,1.3514,4.6193,0.3537,7.1522c-0.7765,1.9716-0.3162,3.9366-0.2731,5.9913
				c0.0579,2.7602-0.3993,5.5381-1.387,8.1196c-0.8345,2.1811-3.0559,2.6504-4.7684,0.8671
				c-1.1514-1.199-1.4834-2.9825-1.6339-4.5738c-0.2322-2.4559-0.2458-4.9474-0.3572-7.4113
				c-0.2032-4.4951-0.8813-9.4087,2.6287-12.8382c0.4578-0.4473-0.1367-1.2491-0.6923-0.8973
				c-4.8659,3.0814-3.4204,10.9048-3.1945,15.6635c0.145,3.0535-0.2021,6.9237,1.3661,9.7032
				c1.0942,1.9394,3.4463,3.495,5.7022,2.6169c2.3064-0.8978,2.802-4.5994,3.1606-6.6657
				c0.6618-3.8137-0.6071-7.9214,1.1255-11.4348c0.9823-1.9921,1.7872-4.002,0.2605-5.964
				c-1.8764-2.4115-5.3535-2.4103-7.9526-3.5023c0.0919,0.3483,0.1839,0.6965,0.2758,1.0448
				c2.2678-2.7374,6.1582-3.606,9.3361-1.9093C216.8108,136.6708,217.2954,135.8496,216.7505,135.5366L216.7505,135.5366z"/>
		</g>
	</g>
	<g>
		<g>
			<path fill="#303030" d="M213.5869,160.3748c1.7097-4.08,3.6586-7.9875,5.6044-11.9548c0.3624-0.739-0.6755-1.3659-1.1131-0.6506
				c-2.3379,3.8216-4.1455,8.0664-5.5761,12.3064C212.265,160.7786,213.3158,161.0219,213.5869,160.3748L213.5869,160.3748z"/>
		</g>
	</g>
	<g>
		<g>
			<path fill="#303030" d="M221.6297,141.3371c5.7641,5.6266,6.6401,14.9727,8.2682,22.4466
				c0.9516,4.3681,2.0656,8.7318,2.8414,13.1345c0.403,2.2874,0.7062,4.9394-0.5141,7.0546
				c-1.1944,2.0703-3.47,2.8872-5.7215,3.1151c-3.7311,0.3776-7.4067-0.894-11.1384-0.5221
				c-1.192,0.1188-3.6141,1.4705-4.6752,1.1116c-2.035-0.6883-0.23-5.2878,0.1601-6.5967
				c2.0804-6.9805,6.2593-13.8378,5.6243-21.357c-0.067-0.7936-1.2368-0.8187-1.2539,0c-0.1664,7.958-4.1716,14.6164-6.1745,22.1348
				c-0.4436,1.6652-1.8182,5.4622-0.1063,6.8532c0.711,0.5777,1.6595,0.5313,2.5101,0.3808
				c1.9488-0.3449,3.5282-1.0918,5.5978-1.0944c5.3513-0.0067,13.3578,2.4658,16.4882-3.6935
				c1.3369-2.6305,0.8761-5.7417,0.3156-8.5149c-0.8996-4.4516-1.9464-8.8784-2.9222-13.314
				c-1.6776-7.6255-2.6786-16.1703-8.645-21.7933C221.8513,140.2743,221.2018,140.9194,221.6297,141.3371L221.6297,141.3371z"/>
		</g>
	</g>
	<g>
		<g>
			<path fill="#303030" d="M224.8356,158.0727c-2.6251,0.3987-8.0151,1.6109-5.9,5.488c0.801,1.4682,2.4486,2.2567,3.9093,2.8944
				c0.6497,0.2836,1.3076,0.5301,1.9185,0.8959c1.2706,0.7607,1.402,0.9336,1.2765,2.5213
				c-0.1365,1.7267-0.5336,1.8105-2.118,1.8515c-0.6374,0.0165-1.2739-0.0721-1.9041-0.1527
				c-0.8076-0.1034-1.0077,1.3168-0.1939,1.4329c2.6123,0.3729,7.6906-0.5224,5.9894-4.3811
				c-0.7642-1.7333-2.707-2.5894-4.3328-3.2808c-0.6578-0.2797-1.3095-0.548-1.9107-0.9405c-0.416-0.244-0.7917-0.543-1.1269-0.897
				c0.101-1.0252,0.202-2.0504,0.303-3.0755c0.7004-0.8598,3.3069-1.1626,4.3327-1.475
				C225.6549,158.7786,225.4047,157.9863,224.8356,158.0727L224.8356,158.0727z"/>
		</g>
	</g>
	<g>
		<g>
			<path fill="#303030" d="M222.592,159.1702c0.0469-1.6369,0.1951-3.3388,0.0029-4.9685c-0.0887-0.7519-1.083-0.7534-1.1719,0
				c-0.1922,1.6298-0.044,3.3312,0.0029,4.9685C221.4474,159.9202,222.5704,159.9215,222.592,159.1702L222.592,159.1702z"/>
		</g>
	</g>
	<g>
		<g>
			<path fill="#303030" d="M224.2781,172.834c-0.1374,0.8834-0.2559,1.6191-0.147,2.5348c0.0979,0.8236,0.2899,1.5912,0.6158,2.3536
				c0.3022,0.7069,1.3743,0.1901,1.2048-0.5079c-0.3335-1.374-0.6574-2.8189-0.6493-4.2419
				C225.3057,172.4041,224.3708,172.2385,224.2781,172.834L224.2781,172.834z"/>
		</g>
	</g>
	<g>
		<g>
			<path fill="#303030" d="M215.8741,148.6789c0.1833-2.2186,1.1288-4.0972,2.6142-5.7275c0.4522-0.4963-0.243-1.1949-0.7375-0.7375
				c-1.8178,1.6815-2.7839,4.0172-2.9431,6.465C214.7629,149.367,215.8181,149.3567,215.8741,148.6789L215.8741,148.6789z"/>
		</g>
	</g>
	<g>
		<g>
			<path fill="#303030" d="M213.4958,138.0378c1.3052,0.6181,2.6227,1.2069,3.9618,1.7476c0.5281,0.2132,0.913-0.6893,0.3905-0.9264
				c-1.3148-0.5966-2.6506-1.1432-3.9979-1.662C213.3672,137.0112,213.0253,137.815,213.4958,138.0378L213.4958,138.0378z"/>
		</g>
	</g>
	<g>
		<g>
			<path fill="#303030" d="M204.8392,104.4504c1.9774,4.7109,3.647,9.5222,4.7476,14.5175
				c1.1642,5.2842,1.4229,10.5356,1.7312,15.9108c0.0454,0.7917,1.1825,0.7918,1.2305,0
				c0.6272-10.3564-2.2324-21.5813-6.7722-30.8233C205.5242,103.5421,204.613,103.9114,204.8392,104.4504L204.8392,104.4504z"/>
		</g>
	</g>
	<g>
		<g>
			<path fill="#303030" d="M203.6626,102.8787c0.5422,10.2778,1.2936,20.6561,2.4496,30.8838c0.0843,0.7458,1.2377,0.7828,1.1953,0
				c-0.5569-10.285-1.5425-20.6512-2.7133-30.8838C204.5278,102.298,203.6304,102.268,203.6626,102.8787L203.6626,102.8787z"/>
		</g>
	</g>
	<g>
		<g>
			<path fill="#303030" d="M177.0242,129.2681c-0.8948,3.6013-1.4777,7.2904-2.1618,10.9364
				c-0.1411,0.7522,1.0124,1.0739,1.1526,0.3178c0.6855-3.6964,1.4754-7.3962,1.9472-11.1272
				C178.0303,128.8567,177.1517,128.7547,177.0242,129.2681L177.0242,129.2681z"/>
		</g>
	</g>
	<g>
		<g>
			<path fill="#303030" d="M173.9056,141.0894c5.852,1.0777,11.8296,1.9127,17.7566,2.4706
				c0.5797,0.0546,0.7185-0.9246,0.1386-1.0243c-5.8674-1.0091-11.8554-1.7643-17.7862-2.2519
				C173.5581,140.2462,173.4502,141.0056,173.9056,141.0894L173.9056,141.0894z"/>
		</g>
	</g>
	<g>
		<g>
			<path fill="#303030" d="M175.532,143.7102c-0.3965,6.0541-0.325,12.157-0.4266,18.2219
				c-0.1014,6.0506-0.454,12.1757-0.2191,18.2219c0.0303,0.7812,1.1545,0.772,1.207,0c0.4106-6.0376,0.2373-12.1702,0.3124-18.2219
				c0.0752-6.0636,0.3251-12.1606,0.1049-18.2219C176.4875,143.0771,175.573,143.0842,175.532,143.7102L175.532,143.7102z"/>
		</g>
	</g>
	<g>
		<g>
			<path fill="#303030" d="M189.6703,145.9444c-1.6873,1.1688-2.1486,2.9088-2.4353,4.8693
				c-0.4486,3.0678-0.7755,6.1587-1.0911,9.2426c-0.6996,6.837-1.4239,13.7842-1.4466,20.662c-0.0024,0.7302,1.0587,0.7077,1.1191,0
				c0.4781-5.5994,0.666-11.2232,1.1573-16.8248c0.2385-2.7194,0.5136-5.4349,0.805-8.1491
				c0.2878-2.6808-0.0348-7.1991,2.3765-8.9702C190.645,146.4145,190.1847,145.5881,189.6703,145.9444L189.6703,145.9444z"/>
		</g>
	</g>
	<g>
		<g>
			<path fill="#303030" d="M194.2138,145.926c0.0121,5.9793,0.1074,11.9568,0.2072,17.9351
				c0.0994,5.9507-0.0932,12.0033,0.3868,17.9351c0.0588,0.7268,1.1109,0.743,1.1426,0c0.2531-5.9454-0.1722-11.9853-0.301-17.9351
				c-0.1294-5.9795-0.2635-11.958-0.4806-17.9351C195.1466,145.3139,194.2125,145.3086,194.2138,145.926L194.2138,145.926z"/>
		</g>
	</g>
	<g>
		<g>
			<path fill="#303030" d="M175.3034,180.8527c1.263,2.1356,1.3398,4.8227,0.2577,7.0556
				c-1.2005,2.4774-3.4384,2.7189-5.3288,4.3221c-2.6342,2.234-0.7843,4.5608,2.0589,4.9909
				c2.1255,0.3215,4.1658-0.3367,6.1851-0.9065c1.3829-0.3902,2.7275-0.4915,4.1307-0.7342
				c0.4781-0.0827,1.0068-0.0994,1.3721-0.5006c1.0974-1.2054-0.2018-4.235-0.2365-5.5614
				c-0.0841-3.2147,0.8569-5.9928,2.2375-8.8475c0.35-0.7238-0.6362-1.3133-1.0827-0.6329c-2.192,3.34-2.9123,7.6359-2.346,11.5567
				c0.134,0.9278,0.7984,1.9864-0.2774,2.6363c-0.4571,0.2761-2.0605,0.2238-2.5858,0.3394
				c-2.2103,0.4862-4.3596,1.5353-6.6763,1.36c-0.8461-0.0327-1.6323-0.2663-2.3584-0.701
				c-0.0018-1.3719,0.5355-2.2513,1.612-2.6382c0.7506-0.5221,1.627-0.7671,2.354-1.3616c1.0409-0.8513,1.8322-1.9707,2.3243-3.2215
				c1.0221-2.598,0.7198-5.3302-0.8665-7.608C175.7524,179.9335,175.0051,180.3484,175.3034,180.8527L175.3034,180.8527z"/>
		</g>
	</g>
	<g>
		<g>
			<path fill="#303030" d="M195.6643,182.5176c2.443,1.809,0.0955,6.0332-0.7256,8.0983c-0.578,1.4537-2.2978,4.0277-1.26,5.6118
				c0.9115,1.3913,3.071,1.2386,4.4802,1.2088c2.9754-0.0629,5.9456-0.3791,8.8581-0.9932
				c0.4181-0.0881,0.6225-0.6353,0.4013-0.9864c-1.69-2.683-2.8584-5.7194-3.4951-8.8247
				c-0.2615-1.2751-0.7223-2.8254,0.1883-3.9889c0.268-0.3423,0.7786-0.5631,1.1069-0.8545
				c0.7375-0.6545,1.2944-1.3597,1.7247-2.2515c1.9283-3.9963,0.4253-8.768,2.5135-12.7522
				c0.3735-0.7127-0.6713-1.332-1.0827-0.6329c-2.7879,4.7379-0.106,11.1595-4.5219,15.0137
				c-1.9494,1.7015-1.7111,3.377-1.1923,5.8146c0.6975,3.2766,2.017,6.2225,3.599,9.1542c0.1338-0.3288,0.2675-0.6576,0.4013-0.9864
				c-2.9578,0.4844-5.955,0.9048-8.961,0.8802c-0.476-0.0039-1.4854,0.1522-1.9004-0.103c-1.0408-0.64-0.6371-2.0471-0.3105-2.872
				c0.4896-1.2367,0.983-2.472,1.4689-3.7102c1.0027-2.5552,2.1592-6.1132-0.6569-7.9135
				C195.6028,180.9841,195.028,182.0464,195.6643,182.5176L195.6643,182.5176z"/>
		</g>
	</g>
	<g>
		<g>
			<path fill="#303030" d="M190.1214,89.6122c-0.3196,2.5447,0.1967,5.2661,0.378,7.8207c0.1736,2.4463,0.3235,4.8945,0.4564,7.3433
				c0.2748,5.0633,0.3363,10.1369,0.6327,15.1982c0.0456,0.779,1.1961,0.7896,1.2188,0c0.1497-5.2251-0.139-10.4721-0.4344-15.688
				c-0.1479-2.6129-0.3333-5.2233-0.5452-7.8318c-0.1866-2.2972-0.1763-4.751-0.8949-6.9522
				C190.7801,89.0346,190.1778,89.163,190.1214,89.6122L190.1214,89.6122z"/>
		</g>
	</g>
	<g>
		<g>
			<path fill="#303030" d="M240.6779,82.2237c-3.2692,1.7958-6.2596,5.1904-8.7142,7.9657
				c-2.4336,2.7515-3.0722,5.4305-2.9769,9.0466c0.1252,4.7506,0.5268,9.4936,1.168,14.2019
				c0.3993,2.9318,0.304,7.6164,2.7345,9.7515c1.8744,1.6465,3.8775,0.8126,5.4108-0.8151
				c2.8415-3.0166,4.8943-6.8384,7.9459-9.6626c1.6798-1.5546,5.1741-3.3564,4.9747-6.0987c-0.0817-1.124-0.9729-1.6657-1.4375-2.55
				c-0.7298-1.3892,1.2995-2.6824,1.7423-4.0786c0.6247-1.97-0.6314-2.6976-2.3305-1.7059
				c-3.9743,2.3196-6.2771,6.8248-10.5271,8.6712c-0.7478,0.3249-0.1021,1.4232,0.6418,1.0979
				c3.1644-1.384,5.123-4.169,7.6352-6.4195c0.6454-0.5781,1.8152-1.7863,2.5568-2.0803c1.0791-0.4278,1.1141-0.1261,0.4807,0.8688
				c-0.551,0.8656-1.801,1.5273-1.9545,2.6447c-0.138,1.0041,0.348,1.1832,0.8118,1.9453c0.694,0.4451,0.896,1.0655,0.606,1.8612
				c0.1943,0.8784-0.0865,1.5752-0.8425,2.0904c-0.4989,0.523-1.0795,0.9584-1.6409,1.4098
				c-2.8656,2.3046-5.0174,5.243-7.3026,8.1112c-0.9656,1.212-1.9665,3.121-3.3676,3.8629
				c-3.4868,1.8461-3.9569-3.7042-4.2886-5.6825c-0.7218-4.3055-1.2233-8.6469-1.5069-13.0032
				c-0.1337-2.0539-0.2907-4.1419-0.24-6.2003c0.0684-2.7761,1.0677-4.6666,2.8811-6.6873c2.4924-2.7772,5.7295-4.9996,8.0482-7.887
				C241.4716,82.5255,241.1203,81.9807,240.6779,82.2237L240.6779,82.2237z"/>
		</g>
	</g>
	<g>
		<g>
			<path fill="#303030" d="M241.6872,96.1989c0.2948,2.9791,0.2553,5.8814,0.1778,8.8664c-0.0179,0.6915,0.9703,0.6514,1.0488,0
				c0.3572-2.9648,0.151-6.0484-0.2944-8.9925C242.5403,95.5489,241.6345,95.6662,241.6872,96.1989L241.6872,96.1989z"/>
		</g>
	</g>
	<g>
		<g>
			<path fill="#303030" d="M257.3381,77.4419c3.0262,0.0853,6.2176,0.3375,9.0302,1.5403c3.4475,1.4743,4.913,4.3997,5.6392,7.9344
				c0.705,3.4312,0.7586,6.9676,1.7544,10.3407c0.9143,3.097,2.4399,6.1776,2.2245,9.4907
				c-0.1137,1.7499-0.8156,3.6188-2.2512,4.6956c-1.5039,1.1279-3.2686,0.8738-5.0105,0.5228
				c-2.0095-0.4049-3.9281-1.0767-5.9958-1.081c-1.6304-0.0034-5.2129,0.6763-6.4442-0.7377
				c-0.8439-0.9692-0.2523-2.9964,0.0565-4.0777c0.5703-1.9968,2.3661-1.8954,4.1065-1.8826
				c0.2845,0.0021,0.612-0.2152,0.6689-0.5093c0.1423-0.735-0.0628-3.9246,0.9672-3.7694
				c-0.1691-0.2221-0.3382-0.4442-0.5072-0.6662c0.0133,1.7384-0.2683,3.3901,0.6185,4.9543c0.2,0.3529,0.6029,0.3912,0.942,0.247
				c2.3149-0.9842,5.6687,1.002,8.0889,1.147c0.6451,0.0387,0.8101-1.0492,0.155-1.1452c-2.8648-0.4198-6.0497-2.4157-8.9389-1.1908
				c0.314,0.0823,0.628,0.1647,0.942,0.247c-0.7262-1.2839-0.4163-2.8587-0.4257-4.2592c-0.0018-0.2734-0.2112-0.6213-0.5072-0.6662
				c-2.8751-0.4361-2.3116,2.8794-2.6724,4.7331c0.223-0.1697,0.4459-0.3395,0.6689-0.5093
				c-1.9822-0.0166-4.1046-0.1925-5.0853,1.8369c-0.6665,1.3792-1.2958,4.1968-0.6232,5.6847
				c0.7481,1.6549,2.9288,1.8942,4.5106,1.9697c2.7041,0.1291,5.0414,0.0122,7.7134,0.6532
				c2.2131,0.5309,4.8769,1.2366,6.9922,0.0187c2.0464-1.1783,3.1261-3.6227,3.3259-5.8866
				c0.314-3.5578-1.2623-6.8455-2.2601-10.1665c-1.1642-3.8749-1.0701-7.9916-2.1412-11.8921
				c-2.0409-7.4323-8.7948-8.4663-15.5421-8.449C256.7753,76.5703,256.7768,77.4261,257.3381,77.4419L257.3381,77.4419z"/>
		</g>
	</g>
	<g>
		<g>
			<path fill="#303030" d="M269.4664,104.3141c0.2592-3.5999-2.4206-7.1275-2.9871-10.6531
				c-0.1072-0.6675-1.2692-0.5191-1.1912,0.1612c0.2044,1.7828,0.752,3.4307,1.3792,5.1048
				c0.6824,1.8215,1.188,3.6933,1.8438,5.5163C268.698,104.9627,269.4263,104.8717,269.4664,104.3141L269.4664,104.3141z"/>
		</g>
	</g>
	<g>
		<g>
			<path fill="#303030" d="M241.9854,116.7996c-0.6177,2.8234-1.0899,5.6824-1.5802,8.5303
				c-0.2722,1.5811-0.7434,3.1207,0.71,4.2173c1.3544,1.022,3.5824,1.1563,5.2118,1.2733c2.7204,0.1953,5.5818-0.136,8.1047-1.1894
				c0.6168-0.2575,0.4044-1.2144-0.285-1.034c-2.0007,0.5235-3.937,1.0117-6.0213,1.0599
				c-1.6778,0.0388-6.3095,0.1403-6.8687-2.1479c-0.2015-0.8242,0.3746-2.3958,0.508-3.2202
				c0.1463-0.9038,0.2871-1.8086,0.4288-2.7131c0.2429-1.55,0.4861-3.0992,0.6723-4.6571
				C242.9258,116.4171,242.0925,116.3102,241.9854,116.7996L241.9854,116.7996z"/>
		</g>
	</g>
	<g>
		<g>
			<path fill="#303030" d="M254.7931,112.8371c-0.0583,2.7591-0.0447,5.5199-0.0232,8.2794c0.0173,2.2063-0.2173,4.5991,0.158,6.778
				c0.8118,4.7132,5.3832,2.0492,8.6263,2.7111c2.325,0.4745,5.5784,1.3411,6.1493-1.9166
				c0.3463-1.9761-0.1881-4.4902-0.4445-6.4713c-0.3557-2.7484-0.804-5.5537-1.7117-8.179c-0.26-0.752-1.3346-0.4507-1.1865,0.3271
				c0.659,3.4607,1.4806,6.8206,1.7914,10.3465c0.1778,2.0162,0.4962,4.9263-2.226,5.0836
				c-1.2347,0.0714-2.5766-0.6196-3.8497-0.665c-0.5888-0.021-1.1603,0.0887-1.7454,0.0937
				c-0.9057,0.0077-3.5338-0.1368-4.1163-1.0296c-0.6376-0.9773-0.2292-3.536-0.2535-4.6433
				c-0.0783-3.5719-0.1463-7.1462-0.3303-10.7146C255.6033,112.3011,254.8045,112.2946,254.7931,112.8371L254.7931,112.8371z"/>
		</g>
	</g>
	<g>
		<g>
			<path fill="#303030" d="M252.0838,81.9674c-0.0463-0.0451-0.0925-0.0902-0.1388-0.1353c0,0.2189,0,0.4378,0,0.6568
				c0.0531-0.0656,0.1061-0.1312,0.1592-0.1968c-0.2253,0-0.4506,0-0.6759,0c1.0361,1.2194,1.4555,4.1745,1.8772,5.6704
				c0.5139,1.8228,0.9745,3.6609,1.4078,5.5044c0.177,0.7532,1.3034,0.4311,1.1526-0.3178
				c-0.5477-2.7206-1.2513-5.3916-2.1124-8.0302c-0.3269-1.0017-0.5702-3.427-1.8602-3.6256
				c-0.2219-0.0341-0.414,0.0255-0.5397,0.2196c-0.046,0.0711-0.092,0.1421-0.138,0.2132
				c-0.1004,0.1552-0.0817,0.4412,0.0726,0.5628c0.0511,0.0403,0.1022,0.0805,0.1534,0.1208
				C251.888,82.9612,252.5139,82.3869,252.0838,81.9674L252.0838,81.9674z"/>
		</g>
	</g>
	<g>
		<g>
			<path fill="#303030" d="M242.4375,129.922c-1.6548,1.9366-2.753,4.1521-3.1118,6.6914
				c-0.4139,2.9295,0.5614,5.3811,1.1476,8.1968c0.7863,3.7768,0.4487,7.8546,0.4806,11.6907
				c0.0276,3.3214-0.0211,6.6582,0.2409,9.9718c0.2254,2.8512,0.6848,5.7105,1.7527,8.3779
				c0.9125,2.2791,4.0105,5.1271,3.6971,7.6275c-0.5129,4.0923-5.7587,5.8866-5.6109,10.3932
				c0.0088,0.2668,0.2001,0.6017,0.4926,0.6469c3.4319,0.531,9.355,2.6872,10.8147-1.9314
				c0.7132-2.2564-0.1698-4.4489-0.1788-6.7233c-0.0127-3.2244,2.8251-4.5428,4.2595-7.0417
				c1.2514-2.1803,1.2524-4.8947,1.4732-7.3255c0.2962-3.2601,0.5924-6.5202,0.8886-9.7803
				c0.6049-6.6587,1.2099-13.3174,1.8148-19.9761c0.0774-0.8522-1.253-0.8468-1.3301,0
				c-0.8733,9.5928-1.7466,19.1856-2.6199,28.7784c-0.226,2.4824-0.1222,5.4019-1.381,7.6287
				c-0.905,1.601-2.5187,2.6524-3.4936,4.2035c-0.7548,1.2009-1.0036,2.5096-0.9422,3.9157
				c0.0823,1.8857,1.3216,4.9956-0.0749,6.6636c-1.2848,1.5346-3.3773,1.1459-5.0657,0.8843
				c-0.6234-0.0966-2.4186-0.0623-2.9617-0.4588c-0.4486-0.3274-0.3153-0.0211-0.2513-0.7992
				c0.0293-0.3562,0.4012-1.0267,0.5135-1.2361c0.3989-0.744,0.9475-1.4034,1.4819-2.051c1.3836-1.6767,3.2558-3.4146,3.5137-5.698
				c0.1231-1.0896-0.1769-2.1103-0.722-3.05c-1.1452-1.9741-2.5356-3.5583-3.3319-5.7571c-1.453-4.012-1.5827-8.3629-1.6417-12.5838
				c-0.0691-4.9492,0.2941-10.0771-0.3258-14.9944c-0.3089-2.4508-1.3879-4.761-1.5188-7.233
				c-0.1597-3.0166,0.8863-5.9297,2.7242-8.2974C243.5696,130.1416,242.8791,129.4052,242.4375,129.922L242.4375,129.922z"/>
		</g>
	</g>
	<g>
		<g>
			<path fill="#303030" d="M267.563,131.4653c2.5273,6.3248,4.1342,12.4348,4.1025,19.3084
				c-0.0306,6.6329-1.2749,13.2307-3.1738,19.5698c-0.467,1.5592-0.8847,3.3056-1.6598,4.7454
				c-0.8093,1.5034-2.0982,2.2711-3.2614,3.4351c-1.5481,1.549-1.9185,3.4412-1.5722,5.5605
				c0.3467,2.1216,1.3723,3.6348,2.6873,5.2645c0.7105,0.4581,0.9634,1.0551,0.7586,1.7909
				c0.1964,0.8072-0.1221,1.034-0.9556,0.6803c-0.7516,0.1299-1.9693-0.1118-2.7329-0.1541
				c-1.8217-0.1011-3.6431-0.2138-5.4659-0.2917c0.2006,0.2634,0.4012,0.5267,0.6018,0.79
				c0.8675-3.6109,2.0331-7.1485,1.9546-10.9108c-0.0389-1.8642-0.4841-3.7071-0.4139-5.5742
				c0.076-2.0229,0.801-3.934,1.4371-5.8291c2.3108-6.8844,2.6143-14.283,0.5112-21.2666
				c-0.2179-0.7237-1.3373-0.4211-1.1357,0.3131c2.1177,7.7106,1.4073,14.7006-1.0122,22.2193
				c-1.0473,3.2546-0.7782,5.8689-0.5738,9.2266c0.2362,3.8803-0.7371,7.8345-1.971,11.4899
				c-0.138,0.4089,0.2218,0.7641,0.6018,0.79c3.3371,0.2277,6.6806,0.3848,10.0208,0.5593
				c0.2932,0.0153,0.5105-0.2092,0.6049-0.4606c0.7373-1.9631-0.6897-3.3213-1.8979-4.7184
				c-1.0096-1.1674-1.8975-2.4831-2.2014-4.0291c-0.4993-2.5406,0.6536-4.1281,2.5562-5.5936
				c4.0172-3.0942,4.9416-9.2153,5.9721-13.8982c2.344-10.6511,2.9345-23.6757-2.9034-33.3869
				C268.1722,130.6478,267.3541,130.9426,267.563,131.4653L267.563,131.4653z"/>
		</g>
	</g>
	<g>
		<g>
			<path fill="#303030" d="M177.205,189.3329c0.9871,0.0504,1.8529,0.4531,2.6398,1.0333c0.451,0.3326,0.9737-0.3842,0.5893-0.7638
				c-0.8713-0.8606-2.0145-1.2652-3.2291-1.289C176.5459,188.3004,176.5528,189.2996,177.205,189.3329L177.205,189.3329z"/>
		</g>
	</g>
	<g>
		<g>
			<path fill="#303030" d="M178.5111,186.1172c0.3265,0.0439,0.6179,0.159,0.8204,0.4348c0.382,0.5202,1.2525,0.0458,0.8854-0.5175
				c-0.3771-0.5786-0.888-0.8674-1.5656-0.9531C178.0672,185.0075,177.9223,186.038,178.5111,186.1172L178.5111,186.1172z"/>
		</g>
	</g>
	<g>
		<g>
			<path fill="#303030" d="M246.8125,187.7687c0.9361-0.2079,1.8757-0.4043,2.808-0.6283c0.5441-0.1308,0.5262-0.943,0-1.0838
				c-0.6549-0.1752-1.1577-0.5987-1.3565-1.2566c-0.1631,0.2141-0.3262,0.4282-0.4893,0.6423
				c0.7747-0.002,1.5501,0.013,2.3181-0.1006c0.5841-0.0864,0.3817-0.923-0.1308-0.9668c-0.7264-0.0621-1.4611,0.0094-2.1873,0.0526
				c-0.3028,0.018-0.6094,0.3135-0.4893,0.6423c0.3613,0.989,1.0383,1.714,2.0362,2.0706c0-0.3613,0-0.7225,0-1.0838
				c-0.9336,0.2151-1.8614,0.4582-2.7911,0.6894C245.8663,186.9113,246.148,187.9163,246.8125,187.7687L246.8125,187.7687z"/>
		</g>
	</g>
	<g>
		<g>
			<path fill="#303030" d="M259.6828,186.2465c0.3964-0.3202,0.7945-0.6387,1.1594-0.9952c0.4189-0.4092-0.141-1.1898-0.6426-0.8328
				c-0.4534,0.3227-0.875,0.6856-1.2957,1.0491C258.3611,185.9366,259.1407,186.6844,259.6828,186.2465L259.6828,186.2465z"/>
		</g>
	</g>
	<g>
		<g>
			<path fill="#303030" d="M296.0967,100.1058c1.1251,13.9745,1.8051,27.8824,1.5134,41.9057
				c-0.2915,14.0161-1.0617,28.0168-1.1631,42.0379c-0.0067,0.9205,1.4166,0.9206,1.4297,0
				c0.3979-28.0149,2.6974-56.0172-0.7254-83.9436C297.0708,99.4486,296.0414,99.4186,296.0967,100.1058L296.0967,100.1058z"/>
		</g>
	</g>
	<g>
		<g>
			<path fill="#303030" d="M298.505,102.0535c0.2808,7.4809,1.3076,14.9391,1.6263,22.4289
				c0.2655,6.2391,0.2862,12.484,0.1316,18.7264c-0.3408,13.7644-1.8101,27.5341-1.7576,41.3026
				c0.003,0.7786,1.1348,0.7579,1.1953,0c1.1022-13.8118,1.6847-27.7972,2.0068-41.6511c0.1454-6.2547,0.0834-12.5133-0.2106-18.763
				c-0.3457-7.3466-0.6735-14.9366-2.0424-22.1723C299.3531,101.3886,298.4847,101.5126,298.505,102.0535L298.505,102.0535z"/>
		</g>
	</g>
	<g>
		<g>
			<path fill="#303030" d="M285.5404,187.3383c2.5511-1.1874,5.1899-2.3239,8.0359-2.5043c2.631-0.1667,5.2693,0.4327,7.855,0.8421
				c2.1689,0.3435,4.3425,0.77,6.5232,1.0274c1.3998,0.1653,2.5048,0.1477,3.5324-0.8504c0.5207-0.5058-0.1922-1.5003-0.7988-1.0353
				c-1.9394,1.4868-6.1792-0.041-8.4091-0.3718c-1.9587-0.2906-3.9237-0.6557-5.8991-0.8104
				c-4.1388-0.3241-7.6664,1.0513-11.2654,2.9741C284.6292,186.869,285.0554,187.564,285.5404,187.3383L285.5404,187.3383z"/>
		</g>
	</g>
	<path fill="#777777" d="M181.8161,72.7843c3.9834-4.6116,2.4925-18.6773,12.5777-16.8755
		c8.2375,1.4717,9.5185,15.4357,9.1037,22.0754c-3.7436-1.4283-7.282-4.2984-11.3384-5.3867
		C189.4502,71.8708,184.8767,72.3223,181.8161,72.7843z"/>
</g>
</svg>
