<?xml version="1.0" encoding="utf-8"?>
<!-- Generator: Adobe Illustrator 20.1.0, SVG Export Plug-In . SVG Version: 6.00 Build 0)  -->
<svg version="1.1" xmlns="http://www.w3.org/2000/svg" xmlns:xlink="http://www.w3.org/1999/xlink" x="0px" y="0px"
	 viewBox="0 0 651 228" enable-background="new 0 0 651 228" xml:space="preserve">
<g id="site_bg">
</g>
<g id="back">
	<g>
		<g>
			<path fill="#F7FAFC" d="M308.259,226.4818c-5.2783,0-10.5332-2.0791-14.4473-6.165c-0.6426-0.6699-1.2842-1.3398-1.9277-2.0117
				c-4.5205,2.6982-13.2979,5.667-24.3789-1.7207c-1.6113-1.0732-3.4277-2.4248-5.5938-4.166
				c-0.9004,1.1592-1.9326,2.2236-3.085,3.1709c-6.4082,5.2705-17.416,7.2363-26.4492-0.9062l-5.0078-4.5439
				c-0.6084-0.5527-1.2236-1.1113-1.8271-1.6602c-1.0029,4.1104-3.292,7.8262-6.5742,10.5801
				c-8.5039,7.1367-19.584,6.998-32.9346-0.415c-2.3682-1.3154-4.957-2.9082-7.7949-4.7979
				c-1.2051,2.3496-2.875,4.4619-4.9404,6.1953c-4.1602,3.4912-9.4453,5.1357-14.8779,4.6533
				c-0.6641-0.0605-1.3096-0.1426-1.9414-0.251c-2.0264,0.1504-4.0645-0.0068-6.041-0.4658
				c-3.1602,0.3418-6.6162-0.043-10.1777-1.5146c-4.3564,0.874-9.418,0.3848-14.6611-2.5605
				c-0.9932-0.5576-2.1279-1.2627-3.5732-2.2178c-2.1426-1.415-5.0322-3.4258-8.834-6.1475
				c-4.9209-3.5215-11.4424-8.29-19.4512-14.2188c-0.8506,1.1006-1.8301,2.127-2.9365,3.0605
				c-8.4443,7.1211-21.0596,6.0498-28.1807-2.3936c0,0-14.0342-16.6396-28.0645-33.3174
				c-7.0234-8.3486-14.0459-16.7061-19.3105-22.9971c-2.6543-3.1709-4.8652-5.8213-6.4131-7.6895
				c-3.7529-4.5303-7.6348-9.2158-6.9258-17.4365c0.4551-5.2783,2.9863-10.1611,7.0371-13.5752
				c2.7354-2.3047,6.3242-4.0068,10.2715-4.5469c-3.6035-6.8818-4.0146-11.0205-3.8145-15.0547
				c0.3047-6.1514,3.0205-11.6768,7.6465-15.5586c0.9404-0.7881,1.9316-1.4756,2.9619-2.0635
				c0.9434-1.3018,2.0605-2.5098,3.3467-3.5908c0.9443-0.792,1.9844-1.501,3.0996-2.1133c0.2451-0.2266,0.4951-0.4482,0.751-0.6631
				c1.2822-1.0752,2.6826-1.9766,4.165-2.6914c7.8789-6.0469,19.0732-5.4062,26.208,1.6279
				c0.0537,0.0537,1.0703,1.0537,2.8936,2.8379c0.0068-0.5039,0.0322-1.0205,0.0752-1.5498
				c0.4346-5.3271,3.001-10.2988,7.0957-13.7344c2.6504-2.2227,12.3018-8.8721,25.2354-1.0166
				c1.6943,1.0283,3.6543,2.3916,6.1689,4.29c1.4102,1.0645,2.9932,2.2959,4.7617,3.7051c1.1729-3.0859,3.127-5.9238,5.835-8.1963
				c2.041-1.7109,12.8984-9.751,26.3731,0.0068c1.4795,1.0713,3.2168,2.4795,5.4678,4.4307
				c0.3203,0.2783,0.6523,0.5684,0.9951,0.8701c0.9326-1.2744,2.0322-2.458,3.2959-3.5176
				c2.0576-1.7275,12.6572-9.5547,25.8311-0.25c6.1416-3.7363,14.9736-4.6025,22.9707,1.3809
				c0.4746,0.3545,1.1641,0.8916,2.0479,1.6074c1.333,1.0791,3.1787,2.6123,5.6406,4.6846c1.7734,1.4932,3.874,3.2734,6.29,5.3301
				c1.1719-4.0996,3.5156-7.7334,6.8428-10.5264c7.8623-6.5986,19.4404-6.1729,26.7979,0.9824
				c1.2207,1.1865,2.4453,2.377,3.6738,3.5684c0.875-3.0391,2.4844-5.9121,4.8262-8.3389
				c7.1436-7.4043,18.6797-8.1406,26.6895-1.8828c0.9746-3.3994,2.8604-6.5781,5.6338-9.1465
				c4.7246-4.376,11.0244-6.0498,16.9443-5.042c1.0605-3.9277,3.3027-7.4756,6.458-10.124
				c6.1592-5.167,14.6182-6.0381,21.542-2.6992c1.3193-2.6182,3.1611-4.9541,5.4648-6.8877
				c5.2852-4.4326,14.2529-7.1377,24.0869-2.0723c0.3027-0.2891,0.6162-0.5684,0.9385-0.8398
				c5.8369-4.8955,15.7656-7.0605,24.7939-0.8652c0.8096,0.5557,1.6914,1.2236,2.7744,2.1016
				c1.4746,1.1953,3.4404,2.877,6.0107,5.1396c0.1211,0.1074,0.2441,0.2158,0.3682,0.3252
				c1.0811-1.6875,2.4189-3.2168,3.9814-4.5283c2.0654-1.7314,13.0664-9.8633,27.0645,0.1357
				c2.0234,1.4453,4.3486,3.3809,7.3184,6.0898c0.0146,0.0127,0.0293,0.0264,0.0439,0.04
				c7.2305-3.2217,15.9707-1.9336,21.9902,3.8457c5.5742,5.3525,11.2217,10.7539,16.8916,16.1562
				c0.8369-1.3848,1.8574-2.6885,3.0576-3.876c7.623-7.542,19.8369-7.7295,27.6885-0.4229
				c4.7764,4.4453,9.6113,8.9365,14.4639,13.4385c0.4873-0.5068,1.002-0.9893,1.5439-1.4434
				c5.0049-4.1943,17.2822-8.9961,28.2705,2.4502c3.2002,1.0293,6.1807,2.8799,8.6055,5.5273
				c7.8398,8.5586,15.9258,17.3359,23.8242,25.8613c5.2695,0.333,10.3994,2.7393,14.0615,7.1045l47.2842,56.3516
				c5.4707,6.5195,6.0713,15.5039,2.1875,22.5322c-0.2812,4.457-2,8.7012-4.8203,12.0693c-1.1445,1.9492-2.623,3.708-4.3877,5.1895
				c-1.8701,1.5684-11.0869,8.3984-22.9795,1.9863c-1.043,1.5352-2.2959,2.9307-3.7305,4.1348
				c-2.6338,2.21-12.2529,8.8213-25.46,1.1826c-2.1123-1.2227-4.5225-2.874-7.583-5.1982c-0.834-0.6328-1.7148-1.3154-2.6455-2.0488
				c-1.0273,1.5156-2.2646,2.8945-3.6885,4.0908c-4.1455,3.4785-10.7344,5.9199-18.0566,4.082
				c-7.7314,6.7568-19.3906,6.5703-26.9033-0.5449c-1.1055-1.0469-2.2246-2.1064-3.3574-3.1787
				c-1.2549,2.0996-2.8594,3.9893-4.7822,5.6025c-2.6318,2.2109-12.0879,8.7314-25.0762,1.7969
				c-6.498,5.8467-15.9619,6.7158-23.3457,2.457c-1.2148,2.4658-2.9375,4.6787-5.085,6.4805
				c-2.4492,2.0566-10.9297,7.9199-22.6914,2.6191c-0.9541,1.8291-2.208,3.5381-3.7578,5.0518
				c-7.4814,7.3086-19.3311,7.6182-27.1846,0.709l-0.4834-0.4258c-1.2295,3.6025-3.4043,6.7959-6.3818,9.2939
				c-3.1104,2.6094-11.6875,8.0771-24.1377,2.4932c-2.6162-1.1738-5.4648-2.8311-8.9551-5.21
				c-1.2656,2.3789-2.9863,4.5117-5.1152,6.2969c-7.542,6.3291-18.5703,6.2266-25.9932-0.2422
				c-3.8789-3.3799-7.8877-6.8721-11.9971-10.4512c-1.0205,4.4697-3.4268,8.4375-6.9766,11.416
				C317.3723,224.9368,312.8068,226.4808,308.259,226.4818z"/>
		</g>
	</g>
	<g>
		<g>
			<path fill="#F2F6F9" d="M353.9084,222.3372c-3.7705,0-8.1787-1.002-13.1973-3.7314c-1.584-0.8613-3.3525-1.9414-5.3428-3.2627
				c-7.9082,3.4297-17.4482,1.4375-23.2715-5.5059c-1.4121-1.6836-2.499-3.5312-3.2686-5.4678
				c-4.6465-6.2656-20.4932-24.2549-33.8564-38.8076c-7.208-7.8506-6.9932-19.9746,0.4883-27.5645
				c0.1074-0.1094,0.2158-0.2168,0.3252-0.3232c-0.5996-2.2217-0.8223-4.457-0.6709-6.8613
				c0.3496-5.5752,2.9902-10.8203,7.2441-14.3887c2.8301-2.375,6.167-3.8516,9.627-4.416c-0.8232-2.333-1.1914-4.8467-1.0068-7.7588
				c0.3457-5.4629,2.9336-10.5889,7.127-14.1055c3.7256-3.124,8.291-4.6748,12.8477-4.6748c0.0068,0,0.0137,0,0.0195,0
				c-1.7344-7.1309,0.5557-14.9043,6.4258-19.9248c0.8213-1.0283,1.7441-1.9775,2.7598-2.8291
				c2.1738-1.8242,6.7148-4.8066,13.2031-4.8818c1.2178-3.7285,3.4473-7.082,6.4658-9.6152
				c4.7656-3.999,10.8896-5.416,16.6162-4.3223c1.0303-1.5225,2.2744-2.9072,3.708-4.1094
				c6.2568-5.2432,14.8936-6.0596,21.8818-2.5205c1.0166-1.4834,2.2363-2.835,3.6377-4.0117
				c4.4766-3.7559,10.2393-5.5234,16.209-4.9795c0.126,0.0117,0.252,0.0234,0.3789,0.0361
				c4.749-2.5586,10.3096-3.0596,15.374-1.5029c2.043-1.6924,7.623-5.501,15.5352-4.7393c3.9775-2.25,10.8252-4.4893,19.5039-0.9023
				c4.7559-2.2383,10.1641-2.4746,15.0244-0.8027c4.8828,0.1689,9.6885,2.1172,13.3662,5.7588
				c5.8271-0.7783,11.9297,1.0264,16.4785,5.3887l14.0771,13.4971c7.1631-1.7529,15.0303,0.5391,20.0918,6.5713
				c1.1182,1.333,2.0322,2.7676,2.7461,4.2686c3.1523,3.79,11.3525,12.5391,17.5371,19.1377
				c34.418,36.7236,40.4883,44.1943,39.7881,55.8848c-0.2109,3.5234-1.3193,6.915-3.1621,9.8496
				c1.6416,3.2812,2.3633,6.9805,2.0381,10.6953c-0.4434,5.0664-2.7988,9.7646-6.5742,13.1484
				c-1.085,2.9043-2.8633,5.5986-5.3193,7.8203c-1.0693,0.9668-2.2148,1.7969-3.415,2.4902
				c-0.0762,0.0654-0.1523,0.1309-0.2285,0.1953c-3.9463,3.3105-9.5449,5.333-15.4805,4.5615
				c-4.6934,3.6631-11.6475,5.5771-18.5557,3.3066c-4.9365,2.1494-10.5322,2.2031-15.4785,0.2061
				c-2.9043,2.2051-6.3418,3.5615-9.9297,3.9512c-0.1738,0.1553-0.3496,0.3076-0.5283,0.458
				c-3.9863,3.3467-8.9277,4.8789-13.8213,4.6572c-1.1797,3.3477-3.2402,6.3525-6.0059,8.6738
				c-3.7676,3.1611-8.4668,4.7871-13.3252,4.7197c-1.2529,2.3223-2.9336,4.4072-4.9727,6.1191
				c-6.0615,5.0869-16.7695,7.2432-25.9434-0.0596c-0.1025-0.082-0.208-0.167-0.3154-0.2549
				c-0.8994,1.1914-1.9375,2.2871-3.0996,3.2627c-4.6162,3.873-10.5312,5.6133-16.6562,4.9023
				c-0.0723-0.0078-0.1445-0.0166-0.2178-0.0254c-7.665,0.7129-15.6504-2.6348-22.8838-6.9414
				c-1.0342,1.4746-2.2666,2.8213-3.6836,4.0107c-7.0215,5.8926-17.1494,6.2559-24.5762,0.8848l-7.8564-5.6826
				c-1.1777,2.1309-2.7461,4.0508-4.6494,5.6475C364.5402,219.6497,360.0812,222.3362,353.9084,222.3372z M535.3771,58.139
				c0.7432,2.2422,1.0732,4.582,1.002,6.9033C536.5158,62.7347,536.2297,60.386,535.3771,58.139z"/>
		</g>
	</g>
</g>
<g id="Layer_2">
	<path fill="#FFEFAF" d="M370.963,149.4944c-0.6235-0.0646-1.2494-0.1419-1.8784-0.2343c-3.274-0.4809-9.7131-2.4393-12.6247-0.0843
		c-2.0903,1.6907-1.0393,11.091-1.0714,13.6695c-0.049,3.9362,0.8972,7.4816,0.896,11.1928
		c5.0761,0.2861,10.1101-1.0287,15.1816-0.8435c5.0699,0.1852,8.9138,1.7025,14.1667,1.4065
		c13.0833-0.7373,26.1924-0.3243,39.2863-0.2529c10.4398,0.0569,20.5861-0.781,31.3043-0.2973
		c8.8979,0.4016,17.649-2.4824,26.7111-2.1024c4.1507-9.3746,0.681-18.8881,1.2468-28.121
		c-7.9327-2.8331-19.6779-0.1933-28.0304,0.3218c-10.6815,0.6588-21.2251,2.6154-31.8182,4.0351
		c-13.2516,1.776-26.649,1.7142-39.9912,1.6174C379.7836,149.7688,375.4321,149.9576,370.963,149.4944z"/>
	<path fill="#FFEFAF" d="M468.5699,48.5054c-1.6713-0.1913-3.3292-0.217-4.9598,0.0571c-4.6368,0.7795-9.0902,3.55-13.8902,0.642
		c-5.1606-3.1265-3.1738-10.3757-5.5225-15.1135c-2.6868-5.4192-7.4604-4.4053-13.4446-4.4053
		c-9.9211,0-27.3259-4.1399-31.0874,6.9939c-1.3774,4.0774,0.6394,11.4026-2.9261,14.5047
		c-4.3001,3.7375-13.2781,1.4339-18.1806,0.3963c-7.3756-1.561-13.5852-0.4996-21.0303-0.0949
		c-1.416,8.108-1.9795,18.1027-1.2456,26.487c4.0096,0.1108,8.113-1.6166,12.3932-1.6081
		c11.4651,0.0228,22.4139-1.0598,33.8948-0.2974c11.8988,0.7902,23.8868,1.5422,35.7613,0.015
		c10.8336-1.3933,21.8531,2.3428,32.8357,1.9445c4.3663-0.1584,8.743-0.4448,13.033-0.8935
		c-2.0121-8.1286-0.778-17.5611-1.2572-26.0631C478.2592,50.9619,473.3595,49.0536,468.5699,48.5054z M422.1786,51.7835
		c-7.3567,0.4232-14.9569,0.0194-17.2348-2.2017c2.0747-4.3193,1.5961-9.944,1.3175-14.5384
		c-0.0635-1.2564,17.2446-0.2005,18.6046-0.0768c2.7751,0.2524,7.9625-0.0346,10.2313,1.7892
		c1.7649,1.4187,4.7193,11.647,1.9894,12.7277C434.6656,50.4418,428.5123,51.4191,422.1786,51.7835z"/>
	<g>
		<g>
			<path fill="#303030" d="M362.6148,174.5341c-1.2075-0.038-3.0222,0.0746-4.0067-0.7283
				c-1.3395-1.0926-1.429-2.6785-1.4009-4.2365c0.0427-2.3676,0.1571-4.7371,0.247-7.1033
				c0.1599-4.2093,0.6154-8.5347,0.349-12.7384c-0.0533-0.8419-1.198-0.8148-1.2891,0c-0.641,5.7365-0.4276,11.7284-0.5388,17.5024
				c-0.0397,2.059-0.4397,4.7388,0.859,6.5356c1.3135,1.8174,3.7408,1.9262,5.7805,1.8937
				C363.3398,175.6475,363.3384,174.5568,362.6148,174.5341L362.6148,174.5341z"/>
		</g>
	</g>
	<g>
		<g>
			<path fill="#303030" d="M466.3105,173.1351c-16.0329,0.6133-32.0416,1.0614-48.0881,1.1413
				c-7.946,0.0396-15.8922,0.0375-23.8382,0.0406c-8.1021,0.0032-16.3983-0.4898-24.4768,0.1196
				c-0.8273,0.0624-0.831,1.2299,0,1.2891c7.9166,0.5636,16.0401,0.0482,23.9773,0.0177
				c8.1126-0.0312,16.2253-0.0564,24.3377-0.1248c16.0166-0.135,32.1025-0.2719,48.0881-1.3584
				C467.026,174.2115,467.0397,173.1072,466.3105,173.1351L466.3105,173.1351z"/>
		</g>
	</g>
	<g>
		<g>
			<path fill="#303030" d="M483.2119,148.894c-0.2849,7.8788-0.4483,15.7687-0.6217,23.6508
				c0.2364-0.2363,0.4727-0.4727,0.709-0.709c-2.999,0.2306-6.0535,0.2904-9.0264,0.75c-0.7366,0.1139-0.5308,1.2531,0.1714,1.266
				c2.9424,0.0544,5.9243-0.3425,8.8551-0.5979c0.3855-0.0336,0.7042-0.2977,0.709-0.709
				c0.0927-7.8815,0.3476-15.7689,0.3286-23.6508C484.3351,148.168,483.238,148.1717,483.2119,148.894L483.2119,148.894z"/>
		</g>
	</g>
	<g>
		<g>
			<path fill="#303030" d="M366.0401,50.3388c-2.7509-0.1926-5.5222-0.1452-8.2791-0.187
				c-0.3366-0.0051-0.5883,0.2808-0.6029,0.6029c-0.1956,4.3245-0.6538,8.6331-0.9194,12.9534
				c-0.2368,3.8526-0.8796,8.5441,0.3278,12.2859c0.187,0.5795,1.0817,0.493,1.0819-0.1464
				c0.0014-4.1906-0.3334-8.3118-0.0967-12.523c0.2357-4.1919,0.65-8.374,0.8123-12.5699c-0.201,0.201-0.4019,0.4019-0.6029,0.6029
				c2.7556,0.0237,5.5273,0.1136,8.2791-0.0579C366.6591,51.2612,366.6576,50.382,366.0401,50.3388L366.0401,50.3388z"/>
		</g>
	</g>
	<g>
		<g>
			<path fill="#303030" d="M468.6537,48.7443c-16.0926-0.5731-32.3116,0.2409-48.404,0.6153
				c-7.8659,0.183-15.7318,0.368-23.5985,0.5104c-8.2195,0.1488-16.5646-0.1997-24.7612,0.4013
				c-0.7068,0.0518-0.7104,1.0534,0,1.1016c8.0227,0.544,16.2328-0.0096,24.2684-0.1739
				c8.0311-0.1642,16.0612-0.3731,24.0914-0.5782c16.1257-0.4118,32.2869-0.3395,48.404-0.9157
				C469.2718,49.6831,469.2729,48.7663,468.6537,48.7443L468.6537,48.7443z"/>
		</g>
	</g>
	<g>
		<g>
			<path fill="#303030" d="M484.2637,74.3682c0.3325-3.1732,0.1862-6.4555,0.2601-9.6437
				c0.0861-3.7106,0.1912-7.4247,0.1532-11.1366c-0.0119-1.1643,0.3818-3.8348-0.6651-4.7024
				c-0.8448-0.7001-2.829-0.435-3.7959-0.4293c-1.5336,0.009-3.1989-0.0733-4.7043,0.2651c-0.5208,0.1171-0.5298,0.9507,0,1.0622
				c1.1496,0.242,2.3824,0.0664,3.5473,0.0392c0.701-0.0164,3.6662-0.3686,4.1123,0.1319c0.3469,0.3892,0.1686,1.8964,0.1859,2.3999
				c0.0472,1.3776,0.0492,2.7572,0.0468,4.1355c-0.0056,3.2219-0.0659,6.4436-0.1197,9.665
				c-0.045,2.6936-0.3196,5.5324,0.0184,8.2132C483.3797,74.9788,484.1983,74.9919,484.2637,74.3682L484.2637,74.3682z"/>
		</g>
	</g>
	<g>
		<g>
			<path fill="#303030" d="M398.6275,50.4722c0.2326-5.8722,0.3427-12.0477,3.0536-17.409
				c0.8506-1.6824,1.7751-2.9006,3.7818-3.1821c1.5138-0.2123,3.3355,0.068,4.8634,0.1034
				c3.3322,0.0771,6.6643,0.1542,9.9964,0.2313c3.1655,0.0732,6.331,0.1452,9.4966,0.2156c1.6661,0.037,3.3322,0.074,4.9982,0.1111
				c1.3569,0.0302,3.7116-0.352,4.9982,0.1111c2.3188,0.8345,2.2587,2.8215,2.6077,4.8542
				c0.2703,1.5746,0.5406,3.1491,0.8109,4.7237c0.5406,3.149,1.0739,6.2993,1.625,9.4465c0.1321,0.7541,1.2735,0.4325,1.147-0.3162
				c-0.692-4.0954-1.4084-8.1869-2.1142-12.28c-0.3308-1.9187-0.1884-5.8168-2.0135-7.1267
				c-0.9547-0.6852-2.4931-0.4946-3.5623-0.5184c-2.1659-0.0481-4.3318-0.0963-6.4977-0.1444
				c-4.1651-0.0926-8.3303-0.1834-12.4955-0.2722c-4.1651-0.0887-8.3302-0.1855-12.4955-0.2662
				c-2.6908-0.0521-4.1349,0.2566-5.5703,2.6399c-3.4161,5.6722-3.6907,12.64-3.7724,19.0784
				C397.4756,51.2098,398.5984,51.2051,398.6275,50.4722L398.6275,50.4722z"/>
		</g>
	</g>
	<g>
		<g>
			<path fill="#303030" d="M404.3693,49.4498c0.2138-2.3975,0.4333-4.7946,0.6375-7.1929c0.0933-1.0961,0.0615-2.2785,0.2709-3.3567
				c0.442-2.2749,1.1893-3.3087,3.4498-3.4253c4.5277-0.2336,9.114-0.0685,13.648-0.0668c2.2747,0.0009,4.5495,0.0061,6.8242,0.0165
				c1.9772,0.0091,5.8004-0.7548,6.8995,1.3012c0.8856,1.6565,1.0734,4.1195,1.4613,5.9562
				c0.5105,2.4167,0.8709,4.8581,1.3368,7.2825c0.117,0.6087,1.1542,0.4793,1.0934-0.148c-0.2729-2.8151-0.84-5.6038-1.4715-8.3583
				c-0.4127-1.7999-0.6185-4.8722-1.9724-6.2981c-1.2791-1.3472-3.7499-0.8648-5.3975-0.8733
				c-3.2496-0.0167-6.4992-0.0201-9.7488-0.0087c-3.2496,0.0114-6.4992,0.035-9.7487,0.0709
				c-1.8403,0.0203-4.3918-0.3779-6.0253,0.7259c-1.4481,0.9784-1.3353,2.7357-1.455,4.3049
				c-0.2561,3.3551-0.4752,6.7127-0.6989,10.0701C403.4342,50.0291,404.3186,50.018,404.3693,49.4498L404.3693,49.4498z"/>
		</g>
	</g>
	<g>
		<g>
			<path fill="#303030" d="M364.9252,77.1918c0.8279-4.6953,0.786-9.6448,1.043-14.3977c0.2718-5.0252,0.4458-10.0585,0.783-15.0797
				c-0.2444,0.1402-0.4887,0.2804-0.7331,0.4207c1.9091,1.2656,3.9466,1.5145,6.0992,0.717c-0.2231-0.17-0.4463-0.34-0.6694-0.51
				c-0.4476,9.9032-0.6761,19.8147-1.1021,29.7187c-0.0303,0.7051,1.0652,0.7035,1.0957,0
				c0.4291-9.9035,0.6566-19.8144,1.0641-29.7187c0.0132-0.3214-0.3521-0.629-0.6695-0.51
				c-1.8804,0.7053-3.6441,0.5302-5.3263-0.5384c-0.3331-0.2116-0.707,0.0717-0.7331,0.4207
				c-0.3655,4.8923-0.718,9.783-0.9927,14.6815c-0.2721,4.8516-0.8668,9.8222-0.7049,14.6815
				C364.0946,77.5396,364.8372,77.6905,364.9252,77.1918L364.9252,77.1918z"/>
		</g>
	</g>
	<g>
		<g>
			<path fill="#303030" d="M363.9431,148.1615c-0.3775,6.0849-0.884,12.1601-1.3184,18.241
				c-0.1183,1.6565-0.2303,3.3135-0.3343,4.9709c-0.0741,1.1817-0.4582,2.7719-0.0523,3.9139
				c0.56,1.5756,2.997,1.9726,4.4692,1.9655c5.2012-0.0252,4.8853-6.2742,4.9786-9.9525c0.149-5.869,0.6497-11.815,0.4353-17.6819
				c-0.0238-0.6514-0.9494-0.6373-1.002,0c-0.3553,4.3102-0.3092,8.687-0.4419,13.0112
				c-0.1188,3.8715,1.3894,14.0166-4.7354,13.3968c-1.9776-0.2001-2.7962-1.368-2.682-3.2886
				c0.0779-1.3111,0.1605-2.6219,0.248-3.9324c0.1458-2.1822,0.3055-4.3634,0.4687-6.5444
				c0.3516-4.6975,0.6729-9.3958,0.9274-14.0997C364.9375,147.5426,363.9812,147.547,363.9431,148.1615L363.9431,148.1615z"/>
		</g>
	</g>
	<g>
		<g>
			<path fill="#303030" d="M468.4021,76.679c0.4065-9.6513,0.3579-19.328,0.86-28.9716c-0.1852,0.1852-0.3704,0.3704-0.5555,0.5556
				c1.3637-0.1806,4.1729-0.8059,5.4269-0.1089c1.3333,0.7411,0.8824,3.275,0.857,4.5192
				c-0.0588,2.8808-0.1105,5.7618-0.1617,8.6427c-0.0516,2.9092-0.1019,5.8185-0.155,8.7278
				c-0.0502,2.752-0.4016,5.6945-0.0739,8.4277c0.0639,0.5329,0.9351,0.7879,1.0416,0.141
				c0.5365-3.2591,0.2398-6.8249,0.2939-10.1267c0.0625-3.8186,0.1215-7.6374,0.1862-11.456
				c0.0303-1.7903,0.0617-3.5806,0.0967-5.3709c0.0203-1.034,0.2972-2.4276-0.1535-3.3903c-1.1294-2.4124-5.5012-1.4225-7.506-1.097
				c-0.2385,0.0387-0.4059,0.3109-0.4079,0.5357c-0.0826,9.6544-0.4374,19.3166-0.616,28.9716
				C467.5246,77.2388,468.3787,77.235,468.4021,76.679L468.4021,76.679z"/>
		</g>
	</g>
	<g>
		<g>
			<path fill="#303030" d="M466.8486,144.7037c-0.4381,10.7515-0.8093,21.5072-1.0967,32.2639
				c-0.0077,0.2879,0.2639,0.5827,0.5615,0.5615c2.7478-0.1958,5.4974-0.3701,8.2457-0.5602
				c0.3147-0.0218,0.6138-0.2577,0.601-0.6009c-0.4157-11.1135,0.1306-22.0305,0.8139-33.1157c0.0449-0.7292-1.0421-0.7014-1.1191,0
				c-1.2076,10.9922-1.3722,22.0766-0.8966,33.1157c0.2003-0.2003,0.4006-0.4006,0.601-0.601
				c-2.7487,0.2096-5.4966,0.4351-8.2457,0.639c0.1872,0.1872,0.3744,0.3744,0.5616,0.5615
				c0.264-10.7545,0.6808-21.5064,0.794-32.2639C467.6745,144.174,466.87,144.1776,466.8486,144.7037L466.8486,144.7037z"/>
		</g>
	</g>
	<path fill="#E93A1D" d="M365.2305,50.7543c1.891-0.6663,4.2214-0.8528,6.3492-0.4968c1.2474,8.9529,0.4131,18.527-1.1705,27.343
		c-1.3315-0.0133-3.6956-0.2147-5.0902-0.5988C365.078,72.4004,363.2163,50.1235,365.2305,50.7543z"/>
	<path fill="#E93A1D" d="M369.1568,174.9287c2.4454-4.9586,2.7129-18.1129,2.2525-24.4917
		c-9.2506-1.1512-6.5365,6.5017-6.9042,13.9521C364.311,168.3215,360.7525,176.89,369.1568,174.9287z"/>
	<path fill="#E93A1D" d="M466.4652,146.537c0,7.9111-0.5181,15.979-0.4797,23.4167c0.0255,4.925-0.745,7.5971,4.1177,6.2027
		c5.7598-1.6517,3.9449-10.2041,4.1414-17.1679c0.1436-5.0896,0.5465-11.4534-0.5237-16.1553
		C471.867,142.6156,469.9629,142.5225,466.4652,146.537z"/>
	<path fill="#E93A1D" d="M467.7165,47.7937c2.1993,7.1128-1.9604,21.4307-0.4786,30.7216c5.9681-2.1292,7.5156,0.5651,8.5928-7.0153
		c0.9314-6.5543,1.4006-18.7389-0.6806-24.929C473.3563,46.4387,471.2773,46.1916,467.7165,47.7937z"/>
	<g>
		<g>
			<path fill="#FFFFFF" d="M480.4567,89.6644c2.8124-4.1354,7.4526-6.4886,12.426-6.5217c1.4424-0.0096,2.1059-1.2682,1.9349-2.54
				c-0.847-6.301,4.0829-11.2846,9.5067-13.3918c1.5418-0.599,1.5248-3.302-0.4258-3.1459
				c-8.2623,0.661-13.6622,9.2858-13.0225,17.0712c0.6689-0.6689,1.3377-1.3377,2.0066-2.0066
				c-6.5089-0.294-12.5322,2.9739-16.0418,8.4214C475.3699,89.8341,478.9539,91.874,480.4567,89.6644L480.4567,89.6644z"/>
		</g>
	</g>
	<g>
		<g>
			<path fill="#FFFFFF" d="M333.0897,74.9624c0.9361-1.38,5.642,2.052,6.5275,2.6755c2.1401,1.5068,4.0478,3.3466,5.859,5.2284
				c1.3933,1.4477,3.3019-0.6496,2.1434-2.1434c-2.3694-3.0551-13.2715-13.4293-16.918-7.1564
				C329.7972,75.1224,332.0996,76.4218,333.0897,74.9624L333.0897,74.9624z"/>
		</g>
	</g>
	<g>
		<g>
			<path fill="#FFFFFF" d="M502.8825,60.0788c-0.4728-1.1919,1.8114-2.4101,2.5931-2.8404
				c1.1272-0.6205,2.3241-1.0834,3.5693-1.4038c2.3321-0.6001,4.8711-0.6161,7.249-0.282c2.0677,0.2905,2.9517-2.4876,0.8806-3.1942
				c-4.0305-1.375-8.3809-0.9279-12.218,0.8695c-3.0456,1.4266-7.11,4.3897-5.1725,8.1573
				C500.6461,63.0618,503.5984,61.8834,502.8825,60.0788L502.8825,60.0788z"/>
		</g>
	</g>
	<g>
		<g>
			<path fill="#FFFFFF" d="M328.6005,63.3728c1.3626-2.5175,5.9253-1.8579,8.2107-1.3495c3.0545,0.6795,5.7965,2.2712,8.2034,4.2354
				c1.5938,1.3007,3.705-0.714,2.287-2.287c-2.9799-3.3058-7.164-5.2166-11.5629-5.7341c-3.5107-0.413-8.2741-0.2024-10.0255,3.4476
				C324.7935,63.6019,327.5643,65.2871,328.6005,63.3728L328.6005,63.3728z"/>
		</g>
	</g>
	<g>
		<g>
			<path fill="#FFFFFF" d="M337.3843,85.3159c3.7376-1.2471,7.6633-1.5645,11.5028-0.5686c1.9011,0.4931,3.6869,1.2696,5.3445,2.32
				c1.3264,0.8405,2.4901,1.8715,4.1004,2.0826c1.6649,0.2183,2.8107-0.5613,4.3124-1.1272
				c1.4446-0.5444,2.9874-0.6826,4.5095-0.4119c3.1278,0.5563,5.5963,2.5815,6.8239,5.4793c0.3898,0.9202,1.85,1.2103,2.63,0.6896
				c4.013-2.679,8.6002-4.3372,13.433-4.6364c2.2521-0.1394,4.5282-0.0256,6.7434,0.412c2.4317,0.4804,4.7072,1.5653,7.2263,1.3046
				c2.4652-0.2551,2.4932-4.1464,0-3.8906c-2.6333,0.2702-5.4179-1.1137-8.0476-1.4778c-2.5055-0.347-5.0238-0.3943-7.5381-0.1073
				c-4.9439,0.5642-9.6336,2.2928-13.7573,5.0759c0.8767,0.2299,1.7534,0.4597,2.63,0.6896
				c-2.7148-6.357-10.4935-9.0787-16.6933-6.3501c-1.321,0.5814-1.923,0.6418-3.2258-0.1193
				c-0.8932-0.5219-1.7059-1.1548-2.6292-1.6363c-1.7746-0.9255-3.6914-1.6327-5.6492-2.0486
				c-4.2335-0.8993-8.6131-0.6287-12.642,0.9606C334.4201,82.7598,335.2173,86.0389,337.3843,85.3159L337.3843,85.3159z"/>
		</g>
	</g>
	<g>
		<g>
			<path fill="#FFFFFF" d="M433.0644,93.8902c3.0854-5.2767,10.3421-6.9082,15.3123-3.3244
				c0.7522,0.5424,1.8028,0.2341,2.4331-0.3139c1.7324-1.5063,3.6841-3.1083,5.9319-3.7617
				c2.3626-0.6867,3.5367,0.397,5.4222,1.5223c2.5188,1.5034,6.0627,0.9225,6.3435-2.4207c0.1578-1.8782-2.3357-2.132-3.232-0.8754
				c-0.3875,0.5433-3.565-1.8336-4.1951-2.0625c-1.3969-0.5074-2.8539-0.5686-4.3126-0.3074
				c-3.3923,0.6075-6.2674,2.8538-8.7974,5.0659c0.811-0.1047,1.622-0.2093,2.433-0.3139c-6.59-4.7245-16.8776-2.396-20.4961,4.9463
				C428.8765,94.1365,431.8638,95.9435,433.0644,93.8902L433.0644,93.8902z"/>
		</g>
	</g>
	<g>
		<g>
			<path fill="#FCE0DE" d="M448.7476,84.2555c3.3779-0.2522,6.6888-1.0045,10.0905-1.0233
				c3.596-0.0199,7.3067,0.9912,10.5986,2.4523c2.648,1.1753,4.6386-2.1708,2.2718-3.8865
				c-0.8864-0.6425-1.7727-1.285-2.6591-1.9274c-0.5818,1.3801-1.1636,2.7601-1.7455,4.1401
				c1.9521,0.543,3.9048,1.0816,5.8623,1.6053c-0.1806-1.3816-0.3611-2.7633-0.5417-4.1449
				c-1.077,0.525-1.9572,1.1763-2.7598,2.0627c-1.9021,2.1008,1.0448,5.0809,3.1199,3.1199
				c1.0075-0.9521,2.0995-1.5134,3.4202-1.8973c1.6405-0.4769,2.2078-3.0461,0.5062-3.8727
				c-1.5941-0.7744-2.9558-1.0193-4.6712-0.4695c-2.544,0.8154-1.4803,4.3963,1.0884,3.9479
				c3.7077-0.6473,7.6342-1.3776,11.053-3.0066c1.5902-0.7577,0.3691-2.8577-1.1077-2.6274
				c-3.5497,0.5537-6.8742,1.4221-10.4895,1.613c0.1814,1.3403,0.3628,2.6807,0.5442,4.021
				c0.4813,0.0602,0.9626,0.1205,1.4439,0.1807c0.1687-1.2909,0.3374-2.5818,0.5061-3.8727
				c-2.0607,0.5539-3.759,1.5396-5.4136,2.8637c1.04,1.04,2.08,2.08,3.1199,3.1199c0.6291-0.5725,1.1685-0.9058,1.929-1.2664
				c1.8211-0.8634,1.2248-3.6517-0.5417-4.1449c-1.9517-0.5449-3.9067-1.0746-5.8637-1.6002
				c-2.5958-0.6971-3.7701,2.6999-1.7455,4.1402c0.8913,0.634,1.7826,1.2681,2.6739,1.9021
				c0.5781-1.3711,1.1561-2.7422,1.7342-4.1133c-3.9765-0.9919-7.7947-1.3421-11.8892-1.5297
				c-3.8139-0.1747-7.7211,0.0529-11.2241,1.6663C446.835,82.2709,447.4293,84.354,448.7476,84.2555L448.7476,84.2555z"/>
		</g>
	</g>
	<g>
		<g>
			<path fill="#FCE0DE" d="M355.1934,84.2439c3.4139,1.8472,8.2581,1.3484,11.6403-0.4699c-0.7908,0-1.5816,0-2.3724,0
				c3.1461,1.8479,6.9248,2.3887,10.4809,1.6058c-0.8716-0.664-1.7433-1.328-2.6149-1.9919
				c-0.0017,1.8577,1.0781,3.385,2.8914,3.9279c2.0962,0.6276,4.0087-0.4082,5.642-1.6393c1.0226-0.7707,1.3438-2.4699,0-3.1733
				c-3.2376-1.6947-7.6526-3.2079-11.1854-1.6515c-1.277,0.5626-0.9096,2.6941,0.3882,2.9701
				c3.1677,0.6736,5.928,0.2356,8.9423,1.8547c0-1.0578,0-2.1155,0-3.1733c-0.2023,0.1491-2.6676,1.999-2.5471,0.8847
				c0.1113-1.0293-1.0402-2.179-2.0657-2.0657c-2.8488,0.3146-5.1032-0.1404-7.5593-1.6068c-0.6809-0.4065-1.6969-0.4621-2.3724,0
				c-1.2457,0.8521-2.1384,1.6723-3.6629,1.9907c-1.5839,0.3308-3.3571,0.2246-4.9662,0.1794
				C354.5887,81.8504,354.0933,83.6486,355.1934,84.2439L355.1934,84.2439z"/>
		</g>
	</g>
	<g>
		<g>
			<path fill="#FFFFFF" d="M395.6558,82.4206c2.8976-0.8926,5.7036-1.6086,8.7576-1.0865c1.4685,0.251,2.9021,0.7182,4.2188,1.4149
				c1.038,0.5492,1.997,1.4831,3.15,1.7903c1.1261,0.3,2.2877-0.0496,3.3922-0.2574c1.9511-0.367,3.8993-0.697,5.8924-0.6839
				c3.1627,0.0208,5.3087,1.3714,8.1042,2.5431c1.4232,0.5965,2.6462-1.338,1.9322-2.5134
				c-1.5538-2.5576-4.7724-3.5752-7.5967-3.9551c-1.9314-0.2598-3.8257-0.1844-5.7507,0.073
				c-1.503,0.201-3.8948,1.2034-5.2284,0.7289c-1.4051-0.4999-2.6678-1.5821-4.1227-2.1022
				c-1.4897-0.5326-3.0443-0.8307-4.6187-0.967c-3.1942-0.2764-6.6663,0.2737-9.3884,2.0307
				C392.8967,80.4051,393.8173,82.9869,395.6558,82.4206L395.6558,82.4206z"/>
		</g>
	</g>
</g>
</svg>
