<?xml version="1.0" encoding="utf-8"?>
<!-- Generator: Adobe Illustrator 20.1.0, SVG Export Plug-In . SVG Version: 6.00 Build 0)  -->
<svg version="1.1" xmlns="http://www.w3.org/2000/svg" xmlns:xlink="http://www.w3.org/1999/xlink" x="0px" y="0px"
	 viewBox="0 0 290 246" enable-background="new 0 0 290 246" xml:space="preserve">
<g id="site_bg">
</g>
<g id="back">
	<g>
		<g>
			<path fill="#F2F6F9" d="M186.8517,244.4236c-5.8027,0.001-12.2539-2.0684-19.3076-6.2041
				c-1.9209-1.126-3.9805-2.4395-6.1924-3.9512c-0.7256,0.834-1.5215,1.6152-2.3838,2.3398
				c-7.4004,6.2109-18.1846,6.2412-25.6201,0.0752l-6.0879-5.0469c-1.208,2.3857-2.8955,4.5303-4.9863,6.2852
				c-4.5049,3.7783-14.1973,8.8115-28.5,0.0605c-0.2969-0.1816-0.5996-0.3711-0.9082-0.5674
				c-8.0439,3.8828-17.9922,1.9873-23.9951-5.1689c-1.6826-2.0049-2.9043-4.2422-3.6768-6.585
				c-6.2656-8.8574-31.4785-37.5557-53.0313-61.0273c-6.4814-7.0586-6.9453-17.542-1.5928-25.085
				c-6.9014-9.5039-9.2734-15.2549-8.8477-22.043c0.3535-5.6416,3.0176-10.9424,7.3086-14.543
				c2.332-1.957,5.001-3.3008,7.7939-4.0303c-5.6025-6.6494-8.1201-11.2412-7.6787-18.249
				c0.3438-5.4609,2.9385-10.6064,7.1299-14.125c3.1748-2.6641,6.9482-4.1797,10.8008-4.5752
				c-4.1709-7.7217-2.7939-17.3379,3.416-23.5771c1.042-1.5479,2.2979-2.9541,3.7402-4.1641
				c2.5381-2.1309,6.6787-4.6377,12.3213-4.9609c1.1865-3.9932,3.4941-7.5332,6.7432-10.2598
				c5.4541-4.5762,12.6709-5.7637,19.0264-3.7061c0.8311-1.0488,1.7715-2.0195,2.8105-2.8926
				c7.4395-6.25,18.2197-6.21,25.5967-0.1113c0.8438-1.0723,1.8008-2.0645,2.8623-2.9541c4.6025-3.8623,10.542-5.6543,16.707-5.0488
				c0.9521,0.0938,1.915,0.2363,2.9033,0.4463c5.331-2.1611,11.3965-1.9238,16.5596,0.6924
				c3.3545-2.3398,10.457-5.8281,19.8916-2.501c4.7334-1.7158,11.5742-2.3047,19.7344,2.4873
				c0.3438,0.2021,0.6914,0.4141,1.0459,0.6367c4.9111-1.7363,10.3291-1.4795,15.041,0.6875
				c4.6514,0.4629,9.1484,2.5479,12.5771,6.1943c5.291-0.6768,10.7793,0.7568,15.1113,4.25
				c4.4863,0.7783,8.7314,3.085,11.8877,6.8457c1.0332,1.2314,1.8926,2.5498,2.5811,3.9268
				c2.7588,3.2744,9.5342,10.5029,14.6582,15.9707c28.7354,30.6592,35.4912,38.3379,34.7969,49.9375
				c-0.0264,0.4473-0.0684,0.8916-0.124,1.334c0.7109,2.3896,0.9746,4.9121,0.7529,7.4434
				c-0.1523,1.7402-0.5303,3.4375-1.1143,5.0537c1.6162,3.6289,2.0889,7.623,1.4463,11.4551
				c0.1572,1.3125,0.1865,2.6475,0.0791,3.9854c-0.2764,3.4521-1.4404,6.7393-3.3379,9.5625
				c1.4463,3.4248,1.8564,6.4033,1.6133,9.8018c-0.2148,3.0127-1.1064,5.9277-2.5625,8.5254
				c0.2129,1.624,0.2266,3.1406,0.1348,4.6504c-0.3428,5.6621-2.7529,10.7871-6.8154,14.543
				c0.25,1.6025,0.2998,3.1748,0.1875,4.7998c-0.3457,5.0303-2.5469,9.7871-6.0996,13.2793
				c-0.874,4.8428-3.3584,9.1592-7.1436,12.335c-2.5078,2.1045-5.3965,3.4951-8.4043,4.1797
				c-0.0117,0.2168-0.0264,0.4346-0.0449,0.6523c-0.4502,5.3027-2.9951,10.207-7.0723,13.6279
				c-1.6826,1.4121-5.9756,4.4453-12.0283,4.7539c-1.2998,2.668-3.1523,5.0488-5.4893,7.0107
				c-5.042,4.2295-13.1133,6.3828-20.9287,2.9785c-1.124,1.8555-2.5537,3.5342-4.249,4.9561
				c-4.0645,3.4111-9.1221,5.2178-14.4746,5.2178c-0.0938,0-0.1875,0-0.2812-0.002
				C189.7472,244.2917,188.3195,244.4236,186.8517,244.4236z M239.592,34.5193l0.0801,0.0859
				c-0.1582-1.5537-0.5322-3.1016-1.1621-4.6006C239.049,31.4734,239.4093,32.99,239.592,34.5193z"/>
		</g>
	</g>
</g>
<g id="Layer_2">
	<path fill="#E93A1D" d="M253.4601,145.343c2.5645-7.3706,5.7068-12.7642,5.523-20.9536
		c-0.2366-10.5356-2.2561-20.5205-7.9983-29.4062c-7.2175-11.1685-23.8232-18.0181-36.4639-13.8164
		c-19.251,6.3979-30.4214,28.5439-26.7336,48.5059c2.2769,12.3193,8.9941,27.0068,21.6294,31.1558
		c0.5203,0.1709,1.0508,0.3237,1.5911,0.458c6.0256,1.4961,11.5962-0.6504,17.5857-0.9312
		c2.4307-0.1138,5.2864-0.5996,7.5627,0.5908c1.1252,0.5884,4.8262,6.0273,4.51,5.9976c4.8779,0.4585,19.6641,0.4712,17.5882-7.541
		C256.2568,151.6965,250.498,153.8572,253.4601,145.343z M242.489,127.1098c-3.0048,13.2457-10.7245,4.3123-18.745,8.8821
		c-4.2997,2.45-4.9952,7.1114,0.2523,9.6466c-4.8323,3.832-8.9218,1.9885-13.5682-1.4655
		c-7.0495-5.2403-7.0419-9.5481-7.9215-18.3734c-1.1851-11.8899,0.6763-20.8608,13.0401-25.2697
		c9.6824-3.4527,21.7444,3.0905,26.1357,12.5218C243.4657,116.8839,243.5571,122.3947,242.489,127.1098z"/>
	<path fill="#E93A1D" d="M52.2176,164.4803c0.1179-1.0936,0.3304-2.3603,0.4109-3.799c0.7409-13.2325-1.4112-26.8633-1.9015-40.1014
		c-0.3147-8.4959-2.5085-19.8051-1.2868-28.0095c1.7051-11.4507,22.3286-7.8379,30.8067-8.6617
		c3.8694-0.376,11.7796-3.3117,15.5559-1.331c3.8922,2.0415,6.2453,10.8334,5.0326,14.9538
		c-3.2367,10.9973-24.2371,7.1409-32.2366,7.3502c-0.3123,5.382-0.6126,10.8596-0.7909,16.2203
		c5.3574-1.2422,12.8829-1.3846,18.3771-1.5694c0.4088,7.0143,0.3568,14.3599,0.0147,21.3789
		c-6.2729,1.9383-10.9982-0.1586-16.9806,0.8416c0.825,4.7694,6.4867,21.6289,2.8037,25.0128
		c-0.8293,0.7619-15.5489,2.6493-16.1379,2.546C52.1856,168.6626,51.9408,167.0484,52.2176,164.4803z"/>
	<path fill="#E93A1D" d="M166.424,147.9387c-0.9736-5.5107-2.0754-11.0771-2.9912-16.644
		c-1.6982-10.3252-3.1392-20.7954-5.4573-30.9966c-0.6619-2.9126-1.4333-13.229-3.6819-15.3364
		c-4.3542-4.082-15.4324,0.1802-20.2988,1.5713c-2.5139,12.0942-6.1343,23.6616-10.9553,35.2061
		c-3.1692,7.5889-4.7007,14.8633-6.3752,22.7402c-1.3733,6.459-5.0842,12.9697-3.7158,19.4004
		c3.1035,1.0205,13.8501,0.9482,16.0247-0.002c3.9792-1.7388,4.7693-9.2661,5.6294-14.5055
		c4.566-0.2267,13.2491-3.4563,16.8802-0.2419c3.9029,3.455,1.4403,13.2616,3.3635,17.8602
		c4.1882-1.3862,13.9375-0.9738,15.2586-6.2877C170.6749,158.4092,166.9338,150.8235,166.424,147.9387z M147.152,139.8513
		c-3.083,0.5239-6.0649,0.6074-9.0425-0.0312c-1.1089,1.5425-4.1477,0.4053-3.6724-1.8901
		c0.0056-0.0259,0.0127-0.0518,0.0181-0.0781c-0.1411-0.3726-0.1675-0.7827-0.0181-1.1919
		c0.2217-0.6055,0.4602-1.2021,0.7073-1.7954c1.2898-5.4429,2.9561-10.7612,5.0071-15.9824c0.6738-1.7148,3.561-2.2148,4.0073,0
		c1.2495,6.1992,2.6543,12.3452,4.4446,18.4131C148.8962,138.2874,148.2467,139.6648,147.152,139.8513z"/>
	<g>
		<g>
			<path fill="#303030" d="M48.8016,168.1756c-0.2387-13.8514-1.091-27.7035-1.6403-41.5459
				c-0.5497-13.8518-1.0266-27.7064-1.4552-41.5625c-0.2052,0.2051-0.4103,0.4103-0.6155,0.6155
				c18.1556-0.891,36.3571-1.4002,54.535-1.4745c-0.1863-0.1863-0.3726-0.3726-0.5589-0.5589
				c-0.0823,2.9003-0.1646,5.8006-0.2469,8.7009c-0.0727,2.5637,0.5082,6.6236-0.9362,8.8813
				c-1.5445,2.4142-5.869,2.458-8.3769,2.9109c-3.0194,0.5453-6.039,1.0895-9.0566,1.6453
				c-2.8091,0.5174-5.6286,0.9955-8.4295,1.5552c-1.6193,0.3236-3.3145,0.7518-4.4874,1.9944
				c-1.2675,1.3428-1.4402,3.2305-1.6583,4.9792c-0.3788,3.0375-0.7377,6.0775-1.1009,9.1169
				c-0.0418,0.3498,0.3309,0.6467,0.6483,0.6483c4.2005,0.0209,8.401,0.0418,12.6016,0.0627
				c2.141,0.0107,4.6679-0.3259,6.7855,0.0338c1.6486,0.28,2.1501,0.7113,2.7716,2.2341c0.44,1.0782,0.4384,2.4712,0.5239,3.6411
				c0.2912,3.9845-0.8407,9.3101-5.3714,10.4751c-3.3703,0.8667-6.7153-1.4725-10.0746-0.0503
				c-5.0172,2.1241-5.5144,8.5409-4.7673,13.1589c0.5836,3.6074,3.4485,10.758-1.1452,12.5207
				c-3.9069,1.4991-8.6831,1.4465-12.7805,1.0296c-0.9313-0.0948-0.9297,1.3704,0,1.459c4.3629,0.4158,9.3093,0.2895,13.4774-1.2548
				c3.3277-1.233,3.365-4.2814,2.9833-7.4155c-0.5367-4.4064-2.3764-8.9277-1.0465-13.3586
				c0.6529-2.1754,2.0212-4.3676,4.3117-5.0717c2.3037-0.7082,4.6279,0.3724,6.9334,0.4856
				c3.2139,0.1578,5.8691-1.5497,7.421-4.3317c1.9775-3.5449,1.5508-7.8049,0.7949-11.6347
				c-0.2476-1.2544-0.3874-2.4969-1.6999-3.022c-1.7348-0.694-4.3804-0.1801-6.2091-0.1883
				c-5.1699-0.0232-10.3397-0.0463-15.5096-0.0695c0.2161,0.2161,0.4322,0.4322,0.6483,0.6483
				c0.3425-2.8784,0.6615-5.7602,1.0173-8.637c0.243-1.9646,0.3612-3.8393,2.0282-5.1343c0.982-0.7629,2.3687-0.9564,3.5648-1.1907
				c5.86-1.1481,11.7435-2.1856,17.6108-3.2971c3.6635-0.694,8.2531-0.8733,9.2264-5.2257c0.5098-2.2799,0.3302-4.7945,0.398-7.1148
				c0.0895-3.0614,0.1789-6.1228,0.2684-9.1842c0.0088-0.3014-0.2632-0.5599-0.5589-0.5589
				c-18.1942,0.0589-36.3593,0.4952-54.535,1.3614c-0.3248,0.0155-0.6257,0.2695-0.6155,0.6155
				c0.409,13.8568,0.901,27.7109,1.4614,41.5625c0.56,13.8434,0.9624,27.7361,2.1033,41.5459
				C48.0796,168.6568,48.8101,168.6726,48.8016,168.1756L48.8016,168.1756z"/>
		</g>
	</g>
	<g>
		<g>
			<path fill="#303030" d="M110.5991,162.292c4.189-16.4723,8.2727-32.9703,12.3325-49.4754
				c2.0107-8.1745,3.981-16.357,5.9317-24.5457c0.5717-2.4001,0.8798-5.1474,3.9597-5.1449
				c2.0952,0.0017,4.1909,0.0415,6.2861,0.0595c4.0799,0.035,8.2094-0.1484,12.2823,0.0848
				c3.0086,0.1723,3.6708,2.4372,4.264,4.9939c0.4596,1.9808,0.8787,3.969,1.2461,5.9692c0.7011,3.8166,1.2605,7.6561,1.743,11.5061
				c0.9139,7.2928,1.5893,14.6157,2.6633,21.8881c1.0712,7.2533,2.5503,14.4853,5.0865,21.3812
				c1.134,3.0832,2.9434,6.0604,3.6895,9.2635c0.4037,1.7332,0.5966,3.9794-1.1357,5.0958
				c-1.9086,1.2301-5.4115,0.8415-7.6509,1.0036c-3.3569,0.243-9.2524,1.8986-10.5798-2.3737
				c-0.8073-2.5984-0.3857-5.5143-1.5764-8.0103c-1.1844-2.4829-3.5415-2.8914-6.0638-2.7601
				c-2.0938,0.109-4.0137,0.3549-6.1102,0.0087c-1.8441-0.3045-3.4515-0.5998-5.3051-0.2047
				c-0.2294,0.0489-0.4196,0.2592-0.4795,0.4795c-0.7845,2.8849-1.7096,5.7697-2.1329,8.7368
				c-0.1028,0.7207,0.0087,1.8201-0.3029,2.4814c-0.5323,1.1298-2.0213,1.3478-3.1493,1.5707
				c-5.4842,1.0837-11.2185-0.128-16.7495-0.0909c-0.8895,0.006-0.8914,1.383,0,1.3828c4.4149-0.0007,8.8165,0.6239,13.2336,0.4569
				c2.2165-0.0838,6.4905-0.0705,7.7697-2.3342c0.455-0.8053,0.3874-1.8825,0.4923-2.7691
				c0.1508-1.2754,0.4324-2.5322,0.7374-3.7783c0.2727-1.1143,0.4615-3.5403,1.1871-4.4107
				c1.2906-1.5481,5.2814,0.1195,7.1562,0.112c2.0937-0.0084,4.6952-0.8301,6.6895,0.023c3.5238,1.5075,2.2473,7.2027,3.5326,10.241
				c1.1413,2.6979,3.6421,3.1404,6.3236,2.9622c2.5841-0.1717,5.1661-0.394,7.7491-0.5835
				c1.8741-0.1375,4.2159,0.0098,5.8912-1.0108c2.5122-1.5305,2.2794-4.7509,1.5596-7.2133
				c-1.2688-4.3401-3.5578-8.3529-4.8959-12.7017c-1.4387-4.6756-2.4552-9.4716-3.2572-14.294
				c-1.6029-9.6371-2.3386-19.3911-3.7261-29.0582c-0.6989-4.8693-1.4826-9.8058-2.8437-14.5404
				c-1.0692-3.719-3.0241-4.3762-6.6995-4.4189c-5.4797-0.0637-10.9604-0.1302-16.4405-0.1438
				c-1.3637-0.0034-2.8347-0.1372-3.8058,1.0064c-1.2253,1.4431-1.3751,4.0766-1.8298,5.8324
				c-6.2868,24.2802-12.2427,48.6526-18.1058,73.038C109.404,162.677,110.4286,162.9623,110.5991,162.292L110.5991,162.292z"/>
		</g>
	</g>
	<g>
		<g>
			<path fill="#303030" d="M135.4945,140.6127c1.7076-0.044,3.4152-0.0866,5.1227-0.1319c1.0722-0.0284,2.8303,0.2461,3.8416-0.1438
				c1.3402-0.5168,1.2656-1.627,1.1111-2.8909c-0.8412-6.8792-2.1859-13.7335-3.3017-20.5732
				c-0.076-0.4656-0.785-0.6399-1.0814-0.2855c-4.8257,5.7688-8.6939,13.6495-8.6123,21.3348
				c0.0067,0.6346,1.0431,0.829,1.1509,0.1558c1.2343-7.7052,3.2524-14.4749,8.3764-20.5755
				c-0.3605-0.0952-0.7209-0.1903-1.0814-0.2855c0.8219,5.1019,1.6528,10.2022,2.4862,15.3022
				c0.2083,1.2746,0.4174,2.5489,0.6344,3.822c0.1071,0.6364,0.2166,1.2723,0.3287,1.9078
				c-0.1307,0.9817-0.6387,1.3576-1.5239,1.1276c-1.0664,0.315-2.6092,0.1101-3.7256,0.1589
				c-1.2419,0.0543-2.4837,0.1088-3.7256,0.1632C134.9094,139.7242,134.9037,140.6279,135.4945,140.6127L135.4945,140.6127z"/>
		</g>
	</g>
	<g>
		<g>
			<path fill="#303030" d="M217.5218,163.2506c-8.2952-0.0869-15.3962-3.1938-20.7567-9.6117
				c-5.0321-6.0247-8.0354-13.5469-9.8137-21.1243c-3.0798-13.1237-1.4494-26.2818,6.8804-37.1999
				c7.312-9.5839,18.9764-16.0251,31.2243-15.0378c14.9841,1.2078,26.7114,12.9132,31.4637,26.6308
				c2.5148,7.2588,3.3072,15.1452,2.7146,22.79c-0.604,7.792-2.9075,15.8155-8.8156,21.256
				c-0.3509,0.3231-0.2531,0.9379,0.1503,1.1666c1.9611,1.1119,3.6203,3.2285,5.1108,4.8727
				c1.0307,1.1369,2.0433,2.3009,2.9552,3.5363c0.3396,0.46,1.7612,2.0473,1.5739,2.7244c-0.2228,0.8058-2.9604,1.334-3.5888,1.4048
				c-1.0758,0.1212-2.1731,0.0189-3.2491-0.0494c-1.849-0.1174-3.5542-0.0069-5.3757,0.3006
				c-2.7792,0.4691-5.2863,0.9106-7.3346-1.4415c-1.4184-1.6287-2.4214-3.579-3.8148-5.2281
				c-0.1687-0.1996-0.52-0.2263-0.7349-0.0948c-5.6122,3.4322-12.1659,4.4136-18.5895,5.1434c-0.5717,0.065-0.6024,0.8957,0,0.9141
				c3.8913,0.1187,7.7491-0.4932,11.4864-1.5786c1.5391-0.447,3.0544-0.9858,4.5113-1.656c0.5352-0.2462,2.0726-1.4277,2.602-1.3888
				c0.7823,0.0574,1.4341,1.5733,1.8598,2.2399c1.5206,2.3812,2.9083,4.6299,5.9824,4.8605c1.4729,0.1105,2.9527-0.204,4.3982-0.442
				c2.1155-0.3483,3.9875-0.2594,6.1117-0.1711c1.8041,0.0751,6.2899-0.0856,7.0787-2.3386
				c0.4179-1.1935-0.7631-2.6819-1.3926-3.5781c-2.2333-3.1792-5.3946-7.361-8.8405-9.3123
				c0.0501,0.3889,0.1002,0.7778,0.1503,1.1666c10.5045-9.6831,10.9481-27.2706,7.9549-40.2791
				c-3.4204-14.8651-13.9215-28.304-29.2041-32.005c-12.7327-3.0835-25.8505,2.0356-34.6379,11.4077
				c-9.3286,9.9492-13.1416,23.4459-10.9137,36.8195c2.8361,17.0242,12.7686,37.3829,32.8531,36.2936
				C218.1542,164.2065,218.1637,163.2573,217.5218,163.2506z"/>
		</g>
	</g>
	<g>
		<g>
			<path fill="#303030" d="M241.9652,116.0406c0.7355,5.6029,0.8237,11.144-1.2707,16.4931
				c-0.5647,1.4423-1.9713,5.7251-4.2029,4.5776c-1.2812-0.6588-1.7614-2.4312-3.2973-2.9128
				c-1.8246-0.5721-4.4283,0.3468-6.233,0.6797c-1.4969,0.2762-2.9912,0.5671-4.491,0.8277
				c-0.652,0.1133-1.3129,0.1907-1.9627,0.3123c-0.3458,0.0647-1.0873-0.0934-0.7574,0.1955
				c-0.4543-0.3977-1.4054-0.0245-1.131,0.6584c1.742,4.336,6.0366,6.6001,8.5257,10.4068
				c0.1354-0.3328,0.2708-0.6657,0.4062-0.9985c-6.7635,1.6812-13.8853-0.4885-18.4043-5.8596
				c-3.9993-4.7534-5.7904-12.0475-6.0559-18.1508c-0.2521-5.7948,1.2135-11.6664,5.0133-16.1573
				c4.6378-5.4815,11.4987-8.444,18.6349-6.8344c8.4837,1.9136,13.3246,8.8531,15.1841,16.9305
				c0.1564,0.6796,1.3362,0.5484,1.243-0.1682c-0.9582-7.3719-5.703-14.1806-12.6494-17.0577
				c-7.0587-2.9235-14.4388-1.607-20.3111,3.1425c-5.2768,4.2679-8.127,10.5394-8.4696,17.2605
				c-0.3452,6.7703,1.3904,14.8156,5.2929,20.4343c4.6917,6.7551,12.9436,9.7485,20.8834,7.771
				c0.4106-0.1023,0.6441-0.635,0.4062-0.9985c-2.397-3.6622-6.7297-5.9418-8.3945-10.0804c-0.377,0.2195-0.754,0.4389-1.131,0.6584
				c0.5585,0.4885,1.4751,0.2298,2.1326,0.1445c1.7128-0.2222,3.4119-0.5778,5.1087-0.8954c1.7693-0.3312,3.5496-0.7229,5.34-0.9235
				c2.2037-0.2469,2.8326,1.4666,4.3427,2.705c2.8147,2.3083,4.9759-2.306,5.8478-4.3866
				c2.3989-5.7243,2.6007-11.8693,1.5166-17.9253C242.9702,115.2669,241.8816,115.4034,241.9652,116.0406z"/>
		</g>
	</g>
	<g>
		<g>
			<path fill="#FFEFAF" d="M150.9048,89.0252c-2.2938,5.4472,0.2792,12.3054,1.3859,17.7867
				c1.5528,7.6908,3.2114,15.3446,5.0424,22.9739c0.5664,2.3602,4.0264,1.3394,3.5972-0.9917
				c-1.185-6.4365-2.4665-12.8438-3.87-19.2364c-1.2681-5.7761-4.7522-13.9462-3.5188-19.8055
				C153.9137,87.9843,151.5736,87.4371,150.9048,89.0252L150.9048,89.0252z"/>
		</g>
	</g>
	<g>
		<g>
			<path fill="#FFEFAF" d="M234.1403,87.3779c11.3265,7.8912,17.351,21.3384,15.8396,35.0259c-0.2015,1.8244,2.5973,1.7697,2.832,0
				c1.9522-14.7193-4.8634-29.3097-17.3211-37.3364C234.0276,84.1247,232.7443,86.4053,234.1403,87.3779L234.1403,87.3779z"/>
		</g>
	</g>
	<g>
		<g>
			<path fill="#FFEFAF" d="M190.3456,120.1848c-0.4225,2.7659-0.1265,5.4956,0.8109,8.1316
				c0.6703,1.8849,3.6626,1.1079,3.0322-0.8359c-0.7369-2.272-1.0035-4.5336-1.0233-6.914
				C193.1525,119.0114,190.5975,118.5353,190.3456,120.1848L190.3456,120.1848z"/>
		</g>
	</g>
	<g>
		<g>
			<path fill="#FFEFAF" d="M226.6688,139.6779c0.3309-0.1717,0.6658-0.3371,0.9931-0.5154
				c0.4169-0.2271,0.7744-0.5405,1.1424-0.8383c0.6179-0.5,0.7111-1.6381,0.2947-2.284c-0.4563-0.7077-1.2953-1.0895-2.1285-0.8662
				c-0.8365,0.2242-1.5816,0.6097-2.3522,0.996c-0.9519,0.4772-1.2968,1.898-0.7287,2.7791
				C224.5103,139.9119,225.6583,140.2022,226.6688,139.6779L226.6688,139.6779z"/>
		</g>
	</g>
	<g>
		<g>
			<path fill="#FFEFAF" d="M88.4507,87.9903c0.1727,2.2953,0.3207,4.5904,0.5923,6.8764c0.2608,2.1954,3.6266,2.3282,3.5352,0
				c-0.0902-2.2976-0.3049-4.5851-0.4946-6.8764C91.8922,85.6808,88.2746,85.6499,88.4507,87.9903L88.4507,87.9903z"/>
		</g>
	</g>
</g>
</svg>
