<?xml version="1.0" encoding="utf-8"?>
<!-- Generator: Adobe Illustrator 20.1.0, SVG Export Plug-In . SVG Version: 6.00 Build 0)  -->
<svg version="1.1" xmlns="http://www.w3.org/2000/svg" xmlns:xlink="http://www.w3.org/1999/xlink" x="0px" y="0px"
	 viewBox="0 0 324 302" enable-background="new 0 0 324 302" xml:space="preserve">
<g id="site_bg">
</g>
<g id="back">
	<g>
		<g>
			<path fill="#F2F6F9" d="M154.1161,299.7725c-4.6113,0-9.2217-1.5879-12.9551-4.7627l-10.915-9.2822
				c-1.1553,2.001-2.6601,3.8066-4.4648,5.3213c-4.5859,3.8467-14.457,8.9346-29.0732-0.2402
				c-3.2285-2.0264-7.1104-4.9033-11.8418-8.7764c-7.3252,2.0273-15.4785-0.2207-20.6787-6.4199
				c-1.6514-1.9678-2.8584-4.1611-3.6328-6.457c-6.0781-8.5459-30.1055-35.8867-50.6162-58.2246
				c-6.5615-7.1465-6.9531-17.7939-1.4023-25.3496c-5.4238-8.1025-6.8711-12.9951-6.5107-18.7393
				c0.3545-5.6494,3.0205-10.957,7.3164-14.5605c2.3311-1.9561,4.9971-3.2988,7.7861-4.0283
				c-7.0537-8.085-9.9854-12.7832-9.5029-20.4287c0.3438-5.4619,2.9414-10.6133,7.1338-14.1299
				c3.0439-2.5547,6.6387-4.0527,10.3252-4.5195c-0.1504-0.2041-0.2344-0.3184-0.249-0.3389
				c-5.3867-7.3252-5.0576-17.1367,0.251-24.0352c1.2295-2.4648,2.9531-4.6787,5.0811-6.4639
				c1.8203-1.5273,4.4639-3.248,7.8945-4.2188c0.3818-6.0059,3.0869-11.4033,7.6289-15.2148
				c2.875-2.4131,6.2412-3.8828,9.7109-4.4326c1.1436-3.5801,3.2822-6.7998,6.2061-9.252
				c4.7822-4.0098,10.9385-5.4199,16.6758-4.3057c1.2207-2.5254,2.9697-4.793,5.1572-6.6289
				c4.7002-3.9443,10.7705-5.7617,17.1055-5.1123c0.2568,0.0264,0.5137,0.0557,0.7725,0.0898
				c5.6025-2.6426,12.1602-2.5264,17.6631,0.2998c4.8936-3.4736,10.9199-4.6777,17.0117-3.4111
				c3.5996-1.6318,8.7822-2.8105,15.1113-0.9941c3.457-1.9395,7.3467-2.752,11.1455-2.498
				c3.2715-0.5537,6.6387-0.2852,9.7803,0.7764c6.7275-2.0137,14.2891-0.4111,19.6582,4.7832l4.5078,4.3613
				c7.6836-2.8105,16.6289-0.6973,22.1904,5.9307c1.2588,1.499,2.2588,3.1279,3.0068,4.834
				c3.8281,4.7041,14.71,16.3154,22.8848,25.0381c43.751,46.6807,49.7021,54.8018,48.9814,66.8398
				c-0.2148,3.5898-1.3496,7.042-3.2354,10.0205l2.9023,3.46c3.4102,4.0625,5.0654,9.3135,4.6025,14.5977
				c-0.1592,1.8193-0.5645,3.5898-1.1934,5.2705c1.54,3.8066,1.8516,7.9697,0.9668,11.9043c0.0381,0.832,0.0244,1.6689-0.043,2.5078
				c-0.3096,3.874-1.7373,7.541-4.0645,10.5762c0.5244,2.1885,0.6143,4.2295,0.4561,6.4434
				c-0.2969,4.1553-1.8721,8.125-4.4355,11.3369c-0.5469,5.8145-3.2451,11.0156-7.6514,14.7139
				c-0.5938,0.498-1.208,0.9561-1.8398,1.374c-0.5391,5.4092-3.0938,10.2734-7.2412,13.7539
				c-0.5078,0.4258-1.0332,0.8242-1.5752,1.1943c-1.2773,3.1602-3.3047,5.9668-5.9746,8.207
				c-3.5605,2.9883-7.8838,4.5342-12.2295,4.6699c-1.0654,3.8985-3.2979,7.4141-6.4375,10.0488
				c-1.7764,1.4893-6.4492,4.7754-13.0303,4.7764c-0.0029,0-0.0068,0-0.0098,0c-1.2725,2.3584-2.9893,4.4727-5.1016,6.2441
				c-4.3916,3.6875-11.0947,5.7979-17.915,4.0205c-1.2158,2.4717-2.9404,4.6904-5.0928,6.4971
				c-2.5928,2.1758-5.5898,3.6992-8.8086,4.5205c-6.9561,3.3047-15.1924,2.6689-24.5957-1.9004
				c-1.2246,2.1162-2.8174,4.0205-4.7412,5.6348C163.2528,298.2139,158.6844,299.7725,154.1161,299.7725z M222.3856,46.1719
				c0.4766,1.7793,0.7021,3.6064,0.6797,5.4268C223.1327,49.7833,222.9295,47.9512,222.3856,46.1719z"/>
		</g>
	</g>
</g>
<g id="Layer_2">
	<path fill="#E93A1D" d="M155.2113,211.9788c0.6454,2.0931,0.7496,5.0935,2.81,7.1062c2.032,1.9849,5.4511,1.5091,5.6151,4.6287
		c-5.9456,1.5831-11.7915-4.037-16.9325-1.8674c-1.6037-4.4499,0.3602-10.5915,5.6747-10.3396
		c0.2928-0.2783-4.2113,0.2872-3.5624,0.0142C150.0552,210.9998,154.127,211.5417,155.2113,211.9788z"/>
	<path fill="#E93A1D" d="M109.6199,248.3388c-0.7769,0.2362-10.0129-3.9763-10.8406-4.7076
		c-4.3406-3.8348-0.9798-10.5651,4.6614-9.7101C107.1984,234.4906,114.4011,246.8829,109.6199,248.3388z"/>
	<path fill="#FFEFAF" d="M98.4038,36.711c-0.6957-9.9137,4.9007-14.3936,13.8721-16.8267
		c6.2592-1.6975,15.881-2.8594,13.2748-12.2889c-2.643-9.5628-14.5013-4.0814-19.8042-0.8351
		c-6.16,3.7709-11.1228,7.1897-12.4093,14.6791C92.4783,26.4387,92.4053,32.8849,98.4038,36.711z"/>
	<path fill="#E93A1D" d="M97.9726,147.0921c-2.1033,0.1755-4.4097,1.2125-6.8336,0.7972c0.1895-3.9962,1.2759-8.2158,0.8195-12.3415
		c-0.4168-3.7678-2.4912-6.1276-3.9014-9.4874c-3.2902-7.8393-2.579-17.5079-1.2456-25.7877
		c1.0713-6.6518,2.2108-18.726,6.6832-24.0722c1.8506-2.2122,10.7017-7.1418,13.5326-6.717
		c5.9389,0.8911,10.4431,16.3704,13.2582,21.0902c1.5107-2.8648,0.8677-6.1075,0.2743-9.1672
		c-0.3695-1.9054-3.042-7.2-2.6657-8.9285c0.8444-3.8789,15.7399,2.2594,17.3913,5.1703
		c3.5562,6.2717-1.3549,14.2669-0.3459,20.9549c1.3244,8.7784,0.5498,17.6585,0.5453,26.5627
		c-0.0036,7.1594-2.9874,13.1571-11.1162,14.1874c-8.3032,1.0524-15.6695-3.9948-22.8915-6.8782
		c0.3842,2.0468,2.0946,3.5413,2.8119,5.6046C101.5034,139.3515,97.0451,141.5333,97.9726,147.0921z"/>
	<g>
		<g>
			<path fill="#303030" d="M128.7475,31.3931c1.4772,8.0723,4.2102,19.1052-3.0964,25.2593
				c-8.4405,7.1091-21.0984-4.2377-23.6404-12.4198c-0.1239-0.3988-0.5373-0.6552-0.952-0.5405
				c-2.3955,0.6627-5.1883,0.1163-5.1882-2.8609c0.0002-2.6515,2.1047-3.0816,4.0289-1.7069
				c0.7634,0.5453,1.4682-0.7038,0.7305-1.2497c-2.7382-2.0258-6.0804-0.9998-6.283,2.6593
				c-0.2316,4.181,3.6185,5.6261,7.1232,4.6507c-0.3173-0.1802-0.6347-0.3603-0.952-0.5405
				c2.6988,8.6395,14.8789,19.6951,24.3413,14.3729c9.8788-5.5563,7.0402-19.0082,4.9785-27.9245
				C129.6723,30.3762,128.6181,30.6861,128.7475,31.3931L128.7475,31.3931z"/>
		</g>
	</g>
	<g>
		<g>
			<path fill="#303030" d="M131.2803,28.3337c-0.8337-1.2619-2.9807-1.3158-4.3505-1.2737
				c-1.6156,0.0496-3.4243,0.5502-4.4313,1.8761c-0.3717,0.4895,0.2456,1.2286,0.7974,1.0372
				c1.1618-0.4031,2.0943-1.0894,3.3648-1.2031c1.0741-0.0962,2.8363-0.1424,3.7738,0.4093
				C130.9495,29.4824,131.6288,28.8612,131.2803,28.3337L131.2803,28.3337z"/>
		</g>
	</g>
	<g>
		<g>
			<path fill="#303030" d="M117.4671,30.6021c-2.5572-2.0964-6.9321-1.2596-9.2888,0.8069c-0.57,0.4998,0.0345,1.4511,0.7269,1.2486
				c1.2208-0.3569,2.2941-1.0603,3.5467-1.3498c1.531-0.3538,2.864-0.0508,4.2998,0.5233
				C117.4247,32.1003,118.0213,31.0564,117.4671,30.6021L117.4671,30.6021z"/>
		</g>
	</g>
	<g>
		<g>
			<path fill="#303030" d="M124.1459,18.1638c1.0493,2.0347,1.8166,4.0399,2.4767,6.2285c0.2059,0.6827,1.3062,0.5824,1.2775-0.1729
				c-0.0866-2.283-1.3544-5.049-2.7742-6.8118C124.6625,16.8321,123.8372,17.565,124.1459,18.1638L124.1459,18.1638z"/>
		</g>
	</g>
	<g>
		<g>
			<path fill="#303030" d="M116.9763,59.838c-0.5185,1.2439-0.4595,2.7751-0.6158,4.112c-0.1701,1.4553-0.3525,2.9086-0.3195,4.3763
				c0.0148,0.6562,1.0831,0.8658,1.197,0.162c0.233-1.4392,0.3349-2.8968,0.4802-4.347c0.1395-1.3928,0.4785-2.9392,0.1169-4.3033
				C117.7118,59.3729,117.1334,59.4609,116.9763,59.838L116.9763,59.838z"/>
		</g>
	</g>
	<g>
		<g>
			<path fill="#303030" d="M108.944,55.992c0.5062,4.198,0.1149,7.7148-0.588,11.8623c-0.1176,0.6942,0.8647,0.9959,1.0735,0.296
				c1.2271-4.1131,1.2973-8.091,0.5273-12.2953C109.8534,55.2907,108.8741,55.4127,108.944,55.992L108.944,55.992z"/>
		</g>
	</g>
	<g>
		<g>
			<path fill="#303030" d="M121.9351,149.3313c-1.8017,3.9458-2.6586,8.2986-3.3899,12.5493
				c-1.0226,5.9447-1.6684,11.954-2.21,17.9592c-1.1856,13.1462-1.7658,26.3355-2.5702,39.5079
				c-0.3229,5.2877-0.5899,10.6166-1.348,15.8643c0.3075-0.1746,0.6151-0.3492,0.9226-0.5238
				c-5.3025-0.7512-10.6051-1.5023-15.9076-2.2535c0.1835,0.2411,0.3671,0.4821,0.5506,0.7232
				c0.9678-10.1252,1.2479-20.3424,1.6823-30.5002c0.4402-10.295,0.9112-20.6004,1.0732-30.9045
				c0.0834-5.3032-0.0552-10.5971-0.107-15.8988c-0.0394-4.0287,0.3421-8.1516-1.2882-11.9417
				c-0.3803-0.8842-1.6729-0.1211-1.2952,0.7571c1.5872,3.69,1.0266,7.942,1.0951,11.8533
				c0.0874,4.9948,0.1723,9.9849,0.099,14.9809c-0.0592,4.0344-0.2008,8.0681-0.3388,12.1003
				c-0.4065,11.8783-0.8944,23.7557-1.5165,35.6247c-0.2434,4.6437-0.4613,9.2989-0.9039,13.929
				c-0.0277,0.2903,0.2507,0.6807,0.5506,0.7232c5.3025,0.7512,10.6051,1.5024,15.9076,2.2535
				c0.3604,0.0511,0.859-0.084,0.9226-0.5238c1.4863-10.2883,1.6618-20.8071,2.2574-31.1719
				c0.7543-13.1292,1.4514-26.3406,3.419-39.3559c0.7585-5.0173,1.565-10.3396,3.6906-14.9946
				C123.6284,149.2166,122.336,148.4534,121.9351,149.3313L121.9351,149.3313z"/>
		</g>
	</g>
	<g>
		<g>
			<path fill="#303030" d="M124.1914,37.4487c0.0752,0.1769,0.7717,1.2686,0.7158,1.3885
				c-0.1259,0.2703-1.0168,0.3743-1.2802,0.4509c-0.996,0.2897-2.0067,0.7111-3.0569,0.5087
				c-0.6321-0.1218-1.1451,0.8106-0.4718,1.1191c1.569,0.719,3.4969-0.2811,5.0118-0.7788
				c0.5279-0.1734,1.1881-0.3581,1.2197-1.0357c0.0328-0.7033-0.8269-1.6733-1.2227-2.188
				C124.6891,36.3697,123.9223,36.8156,124.1914,37.4487L124.1914,37.4487z"/>
		</g>
	</g>
	<g>
		<g>
			<path fill="#303030" d="M116.3869,49.419c1.5685,1.8996,4.3598,2.352,6.5448,1.3418c0.7072-0.327,0.2068-1.5182-0.5328-1.2637
				c-1.8676,0.6428-3.6532,0.3431-5.2124-0.8778C116.6166,48.1731,115.9163,48.849,116.3869,49.419L116.3869,49.419z"/>
		</g>
	</g>
	<g>
		<g>
			<path fill="#303030" d="M99.003,37.3803c1.5821-6.1812,1.3045-12.8629,8.5239-15.2502
				c4.2359-1.4007,8.8515-1.0025,13.1734-2.0559c3.3033-0.8051,6.985-2.5612,7.6848-6.2507
				c0.8924-4.7056-3.4732-8.5077-4.2279-12.9042c-0.0451-0.2629-0.35-0.4658-0.6047-0.4604
				c-10.0983,0.2155-20.5273,2.5503-27.9129,9.9026c-3.4999,3.4841-6.1259,7.5043-5.936,12.598
				c0.1935,5.1869,2.4062,10.2123,5.1255,14.5514c0.4674,0.7459,1.6531,0.0595,1.1839-0.692
				c-2.0565-3.2939-3.7444-6.8879-4.5278-10.7106c-0.9917-4.839,0.0485-8.7802,3.1462-12.5877
				c4.9255-6.0541,12.0437-9.412,19.5915-10.8674c1.8589-0.3584,3.74-0.6046,5.6269-0.7552
				c0.6168-0.0492,2.4022-0.4281,2.9592-0.1647c0.5314,0.2513,0.6294,1.4033,0.8555,1.9527
				c1.3044,3.17,4.5163,6.8143,3.3828,10.4469c-1.8864,6.0454-11.5864,5.3472-16.5132,6.1268
				c-3.5618,0.5636-7.1713,1.8919-9.2771,4.988c-2.3285,3.4236-2.4569,7.932-3.1525,11.8848
				C98.0025,37.7127,98.8518,37.9709,99.003,37.3803L99.003,37.3803z"/>
		</g>
	</g>
	<g>
		<g>
			<path fill="#303030" d="M101.7113,131.2891c6.467,3.2099,13.0322,6.2294,19.2372,9.9372
				c0.2657,0.1588,0.7315,0.0275,0.7821-0.3182c1.5652-10.7012,3.1463-21.9391,2.3563-32.7743
				c-0.3416-4.6848-2.2808-8.9142-4.5354-12.9641c-1.1117-1.997-2.2057-3.666-3.957-5.1593
				c-1.8325-1.5625-3.8966-2.8258-5.7326-4.3847c0,0.2773,0,0.5545,0,0.8318c1.5917-1.9407,4.2726-3.0545,4.9374-5.6412
				c0.0937-0.3644-0.1799-0.7611-0.5722-0.7511c-1.8194,0.0466-4.6386,1.2373-6.0544-0.1572
				c-1.934-1.9049-2.2648-4.8761-3.9132-6.9662c-1.433-1.8169-3.2819-1.8342-5.3779-1.2835
				c-2.2529,0.5919-5.5189,1.6858-7.2829,3.2323c-2.479,2.1734-2.5377,6.8963-3.1967,9.9015
				c-0.938,4.2776-1.8761,8.5551-2.8141,12.8327c-0.8667,3.952-1.9674,7.9386-2.2636,11.9861
				c-0.2788,3.811,0.6089,7.3652,1.932,10.9147c3.0868,8.2807,7.2112,16.0858,11.775,23.6356
				c0.1799,0.2975,0.6952,0.4352,0.9418,0.1214c1.3931-1.7727,3.0437-3.4102,4.7284-4.9085c0.7702-0.685,2.799-1.8206,2.8115-3.0652
				c0.0151-1.501-2.0817-3.135-2.6404-4.502c-0.8087-1.9785-0.9187-4.5716-1.3217-6.6852
				c-0.4825-2.5302-0.9367-5.0677-1.4477-7.5923c-0.5563-2.7485-2.142-6.465-5.6225-5.1626
				c0.2424,0.2424,0.4847,0.4847,0.7271,0.7271c0.4925-1.2763,0.2378-2.3459-0.673-3.3416
				c-0.1901,0.3266-0.3802,0.6532-0.5703,0.9797c1.0592,0.2726,2.1184,0.5452,3.1776,0.8177
				c0.2833,0.0729,0.6578-0.092,0.7146-0.4057c1.1937-6.5992,2.3634-13.2028,3.5374-19.8055
				c0.1125-0.6327-0.8521-0.9073-0.9718-0.2679c-1.2338,6.5872-2.4718,13.1737-3.6859,19.7646
				c0.2382-0.1352,0.4764-0.2705,0.7146-0.4057c-1.0583-0.276-2.1165-0.552-3.1748-0.828
				c-0.5819-0.1518-0.9588,0.5523-0.5703,0.9797c0.1207,0.7328,0.2414,1.4656,0.3621,2.1983
				c-0.1586,0.4072,0.3248,0.8762,0.7271,0.7271c4.3718-1.6199,4.9345,8.4306,5.4211,10.984
				c0.5019,2.634,0.6029,5.8971,1.8407,8.2705c0.3969,0.7609,0.9263,1.4857,1.3801,2.2136
				c0.4275,0.6858,0.8434,1.1357,0.6871,1.6541c-0.2102,0.6969-2.4332,2.0464-3.0088,2.5998
				c-1.3975,1.3439-2.7899,2.6786-3.9901,4.2056c0.3139,0.0405,0.6279,0.0809,0.9418,0.1214
				c-4.7811-7.9113-9.267-16.173-12.2301-24.9627c-1.7237-5.1132-1.4435-9.7537-0.3338-14.9599
				c1.047-4.912,2.152-9.8124,3.2284-14.7181c0.5214-2.3764,1.043-4.7527,1.5641-7.1291c0.6732-3.07,0.9663-5.6364,4.1554-7.1277
				c1.4307-0.6691,2.9067-1.3139,4.4275-1.7517c2.6176-0.7535,4.1373-0.107,5.3575,2.3213c1.0013,1.9926,1.8052,5.0604,3.9221,6.233
				c1.7133,0.9491,4.2636-0.1602,6.0691-0.209c-0.1907-0.2504-0.3814-0.5007-0.5722-0.7511
				c-0.5792,2.2674-3.2187,3.4054-4.6248,5.1249c-0.188,0.2299-0.2614,0.6104,0,0.8318c3.4461,2.9177,7.0286,4.8627,9.3122,8.9206
				c2.5787,4.5824,4.5362,9.131,4.6739,14.4553c0.266,10.2856-0.8638,20.624-2.3124,30.7916
				c0.2607-0.1061,0.5214-0.2121,0.7821-0.3182c-6.2171-3.6835-12.7801-6.7463-19.3399-9.7615
				C101.6494,130.3171,101.21,131.0403,101.7113,131.2891L101.7113,131.2891z"/>
		</g>
	</g>
	<g>
		<g>
			<path fill="#303030" d="M102.595,72.5282c0.9119-0.8254,1.6571-1.9018,2.593-2.6814c1.3923-1.1599,1.7138-0.4331,2.4862,0.7879
				c1.6525,2.6123,3.0292,5.3803,4.9388,7.8228c3.6116,4.6196,5.9171,9.8387,7.8141,15.3708
				c0.2284,0.6661,1.0983,0.5021,1.1754-0.1591c0.5042-4.3243,0.1627-8.749-0.4492-13.0448
				c-0.5977-4.1964-1.4097-8.708-3.509-12.4485c-0.3766-0.671-1.3527-0.0807-1.022,0.5974
				c3.5623,7.304,4.6659,16.8658,3.7835,24.8959c0.3918-0.053,0.7836-0.106,1.1754-0.1591
				c-1.2737-3.6355-2.6949-7.2441-4.5741-10.6152c-1.587-2.8471-3.7803-5.203-5.4917-7.9588
				c-1.059-1.7053-2.0401-3.4547-3.1289-5.1421c-0.378-0.5859-0.8446-1.5666-1.5591-1.792
				c-1.8344-0.5788-3.7517,2.9303-4.7918,3.9669C101.6727,72.3306,102.2191,72.8684,102.595,72.5282L102.595,72.5282z"/>
		</g>
	</g>
	<g>
		<g>
			<path fill="#303030" d="M122.6526,99.1724c1.5825-4.097,2.6816-8.2945,3.3041-12.6468c0.2033-1.4216,1.02-4.2491,0.3758-5.5972
				c-0.4917-1.0289-1.8852-1.5906-2.813-2.1758c0,0.3546,0,0.7093,0,1.0639c4.2811-2.7211,1.1765-7.924-1.448-10.5998
				c-0.2511,0.2511-0.5022,0.5022-0.7533,0.7534c1.6536,1.4058,3.8212,1.8889,5.8266,2.5935
				c3.0937,1.0871,5.3296,3.0203,7.4353,5.4968c2.8637,3.3679,3.3232,7.088,2.5795,11.3591
				c-0.6648,3.8176-1.4731,7.585-2.0488,11.4238c-1.0286,6.8587-0.2894,13.9215-0.0964,20.8262
				c0.1428,5.1079,0.5803,10.2301,0.5086,15.341c-0.0111,0.791,1.1662,0.7757,1.2188,0c0.376-5.5479-0.2676-11.1892-0.4311-16.7401
				c-0.1181-4.0104-0.3306-8.0185-0.4459-12.0279c-0.1154-4.0139,0.4624-7.9156,1.0701-11.8728
				c0.9813-6.3902,3.4361-12.7308-1.0164-18.3698c-1.5854-2.0079-3.5867-4.1285-5.8964-5.3056
				c-2.5344-1.2916-5.7827-1.5505-7.9505-3.4776c-0.5107-0.454-1.2258,0.2498-0.7533,0.7534
				c1.9493,2.0776,5.0877,6.5586,1.5795,8.7826c-0.3972,0.2518-0.3979,0.8122,0,1.0639c0.7562,0.4782,2.0338,1.0907,2.3143,2.0048
				c0.142,0.4627-0.1054,1.3681-0.1532,1.8529c-0.1921,1.9493-0.4744,3.8905-0.845,5.8139c-0.614,3.187-1.4765,6.3452-2.482,9.4304
				C121.5382,99.5121,122.4354,99.7347,122.6526,99.1724L122.6526,99.1724z"/>
		</g>
	</g>
	<g>
		<g>
			<path fill="#303030" d="M91.7597,134.3936c-0.5011,2.1-0.7867,4.2385-1.1076,6.3715c-0.2951,1.9611-1.0421,4.2228-0.9941,6.1989
				c0.0228,0.9382,0.2961,1.5267,1.2516,1.8123c1.0918,0.3263,2.5264,0.0903,3.6457,0.0727
				c1.6584-0.0262,3.3157-0.0758,4.9611-0.2901c0.6504-0.0847,0.7005-1.062,0-1.0547c-2.1519,0.0226-4.2975,0.1833-6.4512,0.1849
				c-1.4314,0.0011-2.0372-0.0183-2.1022-1.5899c-0.0261-0.6318,0.2355-1.3907,0.3321-2.0095
				c0.4905-3.143,0.9398-6.2951,1.3685-9.447C92.7422,134.0657,91.904,133.7888,91.7597,134.3936L91.7597,134.3936z"/>
		</g>
	</g>
	<g>
		<g>
			<path fill="#303030" d="M122.1357,130.3322c0.6981,2.9388,1.1407,5.9204,1.3516,8.9331
				c0.0226,0.3236,0.3241,0.6302,0.6729,0.5126c1.8723-0.6317,3.6326-1.4325,5.3238-2.4605
				c0.9963-0.6056,3.1536-1.5223,3.6871-2.5007c0.23-0.4218,0.1121-1.1745,0.1301-1.6244
				c0.1623-4.0666,0.3015-8.1342,0.4238-12.2022c0.1832-6.0943,0.3281-12.1901,0.3971-18.2869
				c0.065-5.7396,0.3496-11.6362-0.2467-17.3534c-0.0644-0.6175-0.9713-0.6471-0.9844,0
				c-0.2261,11.199,0.0718,22.4088-0.2303,33.6167c-0.1136,4.214-0.2472,8.4275-0.4022,12.6402
				c-0.0244,0.6646,0.2075,2.171-0.1061,2.7763c-0.2055,0.3968-1.9759,1.2054-2.5432,1.5656
				c-1.8189,1.1549-3.6912,2.0963-5.7317,2.8042c0.2243,0.1709,0.4486,0.3417,0.6729,0.5126
				c-0.245-3.118-0.7581-6.1451-1.5333-9.1761C122.8712,129.5186,121.9998,129.7599,122.1357,130.3322L122.1357,130.3322z"/>
		</g>
	</g>
	<g>
		<g>
			<path fill="#303030" d="M101.4761,118.4295c1.8123,0.6157,3.6472,1.2144,5.5021,1.687c0.6656,0.1696,0.9128-0.7901,0.2804-1.017
				c-1.8018-0.6463-3.6572-1.1774-5.5036-1.6813C101.0983,117.2389,100.8416,118.214,101.4761,118.4295L101.4761,118.4295z"/>
		</g>
	</g>
	<g>
		<g>
			<path fill="#303030" d="M100.9108,115.5056c1.1505-0.0187,2.3057-0.1283,3.4516-0.228c0.6561-0.0571,0.6725-1.0766,0-1.0371
				c-1.1493,0.0675-2.3094,0.127-3.4516,0.2749C100.3,114.5944,100.2536,115.5163,100.9108,115.5056L100.9108,115.5056z"/>
		</g>
	</g>
	<g>
		<g>
			<path fill="#303030" d="M118.7212,104.605c-0.5809,1.5043,1.5922,2.8909,2.7141,1.7418c0.4248-0.435-0.1453-1.2563-0.6746-0.8743
				c-0.3662,0.2643-1.0746-0.0705-0.9265-0.5607C120.0531,104.1873,118.9833,103.9262,118.7212,104.605L118.7212,104.605z"/>
		</g>
	</g>
	<g>
		<g>
			<path fill="#303030" d="M119.3531,115.5946c-0.7259,0.5589-0.7468,1.6958,0.0351,2.2417c0.7992,0.558,1.9212,0.098,2.1532-0.8283
				c0.1515-0.6049-0.7672-1.0549-1.0495-0.4425c-0.1993,0.4323-0.6096,0.22-0.3732-0.2054
				C120.3671,115.9132,119.824,115.232,119.3531,115.5946L119.3531,115.5946z"/>
		</g>
	</g>
	<g>
		<g>
			<path fill="#303030" d="M117.6062,125.8713c0.5031,1.4962,2.7937,1.8301,3.5416,0.3434
				c0.3394-0.6746-0.5533-1.1607-0.9916-0.5796c-0.3729,0.4943-1.2801,0.3071-1.5325-0.1926
				C118.3414,124.8838,117.4045,125.2717,117.6062,125.8713L117.6062,125.8713z"/>
		</g>
	</g>
	<g>
		<g>
			<path fill="#303030" d="M120.7688,155.5759c4.3052-0.6495,8.2665,1.3534,11.7906,3.6086
				c3.4005,2.1761,6.6555,4.5561,9.4807,7.4383c1.1105,1.1329,7.3463,5.9798,7.334,1.5533c-0.0021-0.7656-1.1805-0.7662-1.1894,0
				c-0.0186,1.6042-0.7854,2.9698-1.2279,4.4724c-0.1445,0.4907,0.436,0.9532,0.8776,0.6747
				c1.2851-0.8105,2.4101-1.8315,4.0305-1.8815c-0.2-0.2-0.4001-0.4001-0.6001-0.6001c-0.0345,2.115-2.012,3.014-3.1413,4.5239
				c-0.7747,1.0358-1.2116,2.2976-1.5457,3.5338c-0.9234,3.4165-1.2079,7.0993-1.6901,10.6027
				c-0.9851,7.1566-1.9226,14.3402-2.4282,21.549c-0.0236,0.3369,0.3048,0.623,0.6235,0.6235
				c5.2314,0.0091,10.4627,0.0209,15.6941,0.0315c0.2605,0.0005,0.5619-0.1964,0.6136-0.4672
				c1.7294-9.0535,3.0089-18.1985,3.7233-27.3895c0.3435-4.4186,0.557-8.8498,0.5766-13.2822
				c0.0112-2.55,0.5263-5.8911-0.4665-8.2994c-1.3664-3.3145-4.9637-6.1211-7.4986-8.4934
				c-4.1439-3.878-8.4646-7.5626-12.7202-11.3161c-2.0295-1.7901-4.0548-3.5893-5.996-5.4757
				c-1.1406-1.1085-2.6195-2.3203-3.2982-3.797c-0.3224-0.7016-1.3581-0.0919-1.0372,0.6062
				c0.7313,1.591,2.1781,2.9156,3.4025,4.1236c2.1755,2.1464,4.479,4.1653,6.7698,6.1866
				c5.1622,4.555,10.5014,8.9676,15.3156,13.8983c1.3636,1.3967,3.3502,3.1186,3.9559,5.0473
				c0.5508,1.7541,0.2398,4.0589,0.2536,5.889c0.021,2.7881-0.0401,5.5768-0.1624,8.3622
				c-0.2603,5.932-0.7943,11.853-1.5355,17.7437c-0.3703,2.9429-0.7932,5.8791-1.2671,8.8071
				c-0.2393,1.4781-0.4911,2.9543-0.7563,4.428c-0.1018,0.5656-0.1744,1.1905-0.3217,1.7517
				c-0.4546,1.731,0.8219-0.036,0.2063,0.4035c-0.479,0.3421-2.6386-0.0009-3.1907-0.0011
				c-1.7161-0.0006-3.4321-0.0012-5.1482-0.0018c-2.3709-0.0008-4.7418-0.0013-7.1127-0.0027
				c0.2078,0.2078,0.4157,0.4157,0.6235,0.6235c0.5227-7.5734,1.5093-15.1236,2.5557-22.6398
				c0.4856-3.4881,0.6453-7.3683,1.9456-10.6588c1.0498-2.6566,4.2109-3.857,4.2572-6.9108
				c0.0048-0.3168-0.2789-0.6104-0.6001-0.6001c-1.8442,0.059-3.1221,1.0945-4.6335,2.05c0.2925,0.2249,0.5851,0.4498,0.8776,0.6747
				c0.4833-1.6479,1.2469-3.0453,1.2652-4.7901c-0.3965,0-0.793,0-1.1894,0c0.0084,2.1668-5.4619-2.545-5.5762-2.6622
				c-2.0614-2.1146-4.3467-3.7841-6.7625-5.4763c-4.4601-3.1241-9.6449-6.306-15.3109-5.3093
				C119.9743,154.8271,120.2188,155.6589,120.7688,155.5759L120.7688,155.5759z"/>
		</g>
	</g>
	<g>
		<g>
			<path fill="#303030" d="M155.0496,212.4958c0.3836,2.9091,1.9412,5.1802,4.2714,6.923c1.2352,0.9238,2.5891,1.6174,4.0153,2.1869
				c0.569,0.1966,1.1334,0.4058,1.6931,0.6277c0.0395,0.961-0.3829,1.3425-1.2673,1.1446c-0.8882,0.313-2.2941,0.1073-3.2305,0.0845
				c-2.2601-0.0551-6.1523,0.0608-7.4685-2.0522c-0.4914-0.789-0.4167-1.5573-1.6064-1.6417
				c-0.4168-0.0296-0.7995,0.1062-1.1716,0.3147c-0.3248,0.182-0.8858,1.0842-1.1541,1.1474
				c-1.6765-0.4273-2.216-1.1715-1.6183-2.2325c0.323-0.7557,0.6499-1.5097,0.9809-2.2619
				c0.4036-0.9249,0.8085-1.8456,1.1875-2.7807c0.2503-0.6176-0.7932-1.0592-1.0816-0.456
				c-0.975,2.0387-3.5836,5.8483-2.4499,8.2526c1.001,2.1227,2.5082,1.2924,3.9065,0.4036c0.2039-0.5681,0.5676-0.7264,1.0912-0.475
				c0.5692-0.1208,0.8271,0.1053,0.7737,0.6782c0.1872,0.2246,0.2424,0.5813,0.464,0.7982
				c0.9043,0.8856,2.6933,1.0055,3.8327,1.2049c3.4896,0.6106,6.9783,0.5077,10.3994-0.4082
				c0.1689-0.0452,0.3537-0.2414,0.3284-0.4314c-0.2662-2.0038-2.2479-2.4575-3.8621-3.2053
				c-3.3058-1.5314-6.4065-3.9955-6.9205-7.8215C156.069,211.7969,154.956,211.7858,155.0496,212.4958L155.0496,212.4958z"/>
		</g>
	</g>
	<g>
		<g>
			<path fill="#303030" d="M106.8657,235.7229c-0.0977,1.664,0.3548,3.2443,1.234,4.662c1.2061,1.9449,3.8709,3.7332,2.9656,6.3113
				c0.2359-0.1339,0.4718-0.2679,0.7078-0.4019c-4.0968-0.8204-7.6305-2.6844-10.5969-5.6276
				c-0.5984-0.5937-1.5057,0.3163-0.9239,0.9239c3.0081,3.142,6.9121,5.1799,11.2149,5.8133c0.2988,0.044,0.629-0.07,0.7078-0.4019
				c0.4047-1.7062-0.0912-3.1473-1.0896-4.5495c-0.6422-0.9018-1.4342-1.6889-2.0233-2.6303
				c-0.823-1.3153-1.0938-2.7151-1.3389-4.2155C107.64,235.098,106.893,235.258,106.8657,235.7229L106.8657,235.7229z"/>
		</g>
	</g>
	<g>
		<g>
			<path fill="#303030" d="M98.2022,234.1508c-0.9876,2.2446-1.8528,5.1806-0.6476,7.5191
				c0.8878,1.7227,2.7534,2.9855,4.7065,2.3968c0.4802-0.1447,0.4193-0.9696-0.1238-0.915
				c-1.9221,0.1933-3.4068-1.0701-3.8285-2.9146c-0.4408-1.9279,0.3774-3.8504,0.8467-5.6844
				C99.2957,234.004,98.4482,233.5915,98.2022,234.1508L98.2022,234.1508z"/>
		</g>
	</g>
	<g>
		<g>
			<path fill="#303030" d="M129.4893,214.4924c-0.874-0.729-1.4089-1.4146-1.8244-2.4983c-0.3521,0.205-0.7043,0.41-1.0564,0.615
				c15.9299,12.962,32.2751,25.5559,48.7107,37.8699c0.5646,0.423,1.3138-0.5377,0.7598-0.9847
				c-15.9833-12.895-32.2173-25.6323-48.7046-37.8779c-0.5358-0.3979-1.1488,0.3551-0.8648,0.8648
				c0.5931,1.0647,1.3258,1.9446,2.2794,2.7114C129.2786,215.5862,129.9823,214.9037,129.4893,214.4924L129.4893,214.4924z"/>
		</g>
	</g>
	<g>
		<g>
			<path fill="#303030" d="M165.4404,211.5691c12.8603,6.2856,25.419,13.1074,37.7264,20.415
				c0.7058,0.4191,1.339-0.6709,0.6417-1.0979c-12.1981-7.4698-24.8412-14.2342-37.7944-20.2986
				C165.3581,210.2805,164.7794,211.246,165.4404,211.5691L165.4404,211.5691z"/>
		</g>
	</g>
	<g>
		<g>
			<path fill="#303030" d="M166.4711,184.3658c19.4717,8.9614,37.8503,20.557,56.0314,31.8462
				c0.7064,0.4386,1.333-0.6561,0.6477-1.108c-8.9805-5.9211-18.2044-11.4714-27.5338-16.8238
				c-9.3338-5.3549-18.7647-10.5193-28.681-14.7088C166.4021,183.3462,165.9269,184.1154,166.4711,184.3658L166.4711,184.3658z"/>
		</g>
	</g>
	<g>
		<g>
			<path fill="#303030" d="M188.8295,171.3015c17.7043,8.8699,36.166,15.9942,53.597,25.4585
				c0.7021,0.3812,1.3256-0.6798,0.627-1.0726c-17.2229-9.6842-35.6029-17.3921-53.6857-25.3068
				C188.7533,170.1117,188.2052,170.9887,188.8295,171.3015L188.8295,171.3015z"/>
		</g>
	</g>
	<g>
		<g>
			<path fill="#303030" d="M211.3693,158.1655c17.0127,6.6252,34.0258,13.4934,51.4476,18.9839
				c0.5732,0.1807,0.8181-0.7179,0.2477-0.8984c-17.4151-5.5102-34.4314-12.3694-51.4461-18.9895
				C211.0559,157.0425,210.8124,157.9486,211.3693,158.1655L211.3693,158.1655z"/>
		</g>
	</g>
	<g>
		<g>
			<path fill="#303030" d="M233.7717,145.0124c15.6994,5.8568,32.121,9.7155,48.2452,14.1935
				c0.5932,0.1647,0.8456-0.7545,0.2539-0.921c-16.1118-4.5323-32.5468-8.3111-48.2639-14.1257
				C233.4717,143.9613,233.2424,144.815,233.7717,145.0124L233.7717,145.0124z"/>
		</g>
	</g>
	<g>
		<g>
			<path fill="#303030" d="M256.1685,131.8792c16.2767,2.2341,32.4733,7.8402,47.2827,14.8486
				c0.6147,0.2909,1.1571-0.6156,0.5382-0.9208c-14.8084-7.3041-31.2922-12.7348-47.7049-14.7852
				C255.8011,130.9613,255.6813,131.8123,256.1685,131.8792L256.1685,131.8792z"/>
		</g>
	</g>
	<g>
		<g>
			<path fill="#303030" d="M278.5499,118.8024c14.6256,4.5378,29.1726,10.0622,43.2195,16.156
				c0.5928,0.2572,1.1156-0.6087,0.5146-0.8803c-14.0235-6.3369-28.7524-11.7448-43.4739-16.2192
				C278.2058,117.6752,277.9496,118.6161,278.5499,118.8024L278.5499,118.8024z"/>
		</g>
	</g>
	<g>
		<g>
			<path fill="#303030" d="M180.6949,251.7164c6.2435-1.1008,12.8165-1.8925,18.9132-3.6432
				c5.0906-1.4618,4.7638-5.7106,4.9961-10.2548c0.0799-1.5631,0.1599-3.126,0.2325-4.6895
				c0.0499-1.0771-0.0371-1.7773,0.6618-2.6876c0.871-1.1343,1.7714-0.9475,3.0961-1.0847c3.3088-0.3427,6.62-0.6628,9.93-0.9942
				c1.566-0.1568,3.674,0.0551,4.2767-1.7415c0.6941-2.0691-0.1842-5.5959-0.8379-7.6185
				c-0.2269-0.7019-1.1976-0.4051-1.0848,0.2991c0.265,1.654,0.5988,3.2929,0.7073,4.9682
				c0.0536,0.8279,0.1496,1.2896-0.3239,2.0038c-0.6416,0.9677-1.6738,0.7347-2.7373,0.8461
				c-2.8129,0.2946-5.627,0.5775-8.4405,0.8662c-1.5233,0.1563-4.526-0.0714-5.7226,1.1989
				c-0.9939,1.0551-0.7354,3.1324-0.8006,4.4133c-0.1353,2.6552-0.1902,5.3202-0.3763,7.9721
				c-0.1438,2.048-0.5291,3.7972-2.4413,4.791c-0.9548,0.4962-2.023,0.698-3.0677,0.9167
				c-5.7384,1.2012-11.4956,2.3034-17.2221,3.563C179.8768,250.9675,180.1272,251.8165,180.6949,251.7164L180.6949,251.7164z"/>
		</g>
	</g>
	<g>
		<g>
			<path fill="#303030" d="M225.2335,214.8311c3.4401-0.6294,6.855-1.3975,10.2753-2.1253c1.7625-0.375,3.6548-0.6054,5.3727-1.1482
				c0.5778-0.1826,1.18-0.3221,1.573-0.8304c0.5791-0.749,0.4384-1.8248,0.4531-2.6922c0.0287-1.6959,0.0172-3.394,0.0202-5.0902
				c0.0017-0.9738-0.3829-3.671,0.2337-4.4025c0.7482-0.8875,3.8462-1.0015,5.0067-1.2466
				c3.1844-0.6725,6.3701-1.3396,9.5534-2.0175c2.1889-0.4662,4.7439-0.7724,6.48-2.34c1.6216-1.4641,1.7482-3.4125,1.499-5.4644
				c-0.3735-3.0759-1.0236-6.1752-1.6726-9.2024c-0.157-0.7321-1.193-0.4006-1.0961,0.3022
				c0.3814,2.7665,0.9302,5.5004,1.3777,8.2556c0.3684,2.2687,0.5788,4.4497-1.8224,5.7859c-0.9722,0.541-2.131,0.754-3.2061,0.9857
				c-5.7272,1.2338-11.4703,2.3993-17.2042,3.6023c-0.2883,0.0605-0.4955,0.3684-0.4962,0.6517
				c-0.0048,2.1595-0.0125,4.3189-0.0121,6.4784c0.0002,1.1782,0.1915,2.5408,0.005,3.7019
				c-0.2816,1.7535-0.7987,2.2088-2.5008,2.5904c-4.7045,1.0546-9.4337,2.0477-14.1042,3.2452
				C224.3397,214.0319,224.6115,214.9449,225.2335,214.8311L225.2335,214.8311z"/>
		</g>
	</g>
	<g>
		<g>
			<path fill="#303030" d="M269.481,172.8049c2.2345-0.4146,4.4435-0.9381,6.6565-1.4528c1.4841-0.3451,3.8202-0.4619,5.1211-1.3841
				c0.9095-0.6448,0.9631-1.4276,1.0544-2.4834c0.1769-2.0451-0.0297-4.2685-0.2007-6.3092c-0.0615-0.7345-1.1173-0.7503-1.1543,0
				c-0.0666,1.3528-0.0521,2.7023-0.0275,4.0559c0.0107,0.593,0.2708,1.6891,0.0447,2.2533
				c-0.5154,1.2856-1.619,1.7543-2.8179,2.0518c-2.9863,0.741-5.9845,1.4566-8.9318,2.3419
				C268.626,172.0584,268.879,172.9166,269.481,172.8049L269.481,172.8049z"/>
		</g>
	</g>
	<g>
		<g>
			<path fill="#303030" d="M293.0141,157.2561c2.9188-0.2296,5.782-0.6812,8.6481-1.2745c0.2679-0.0555,0.4312-0.3289,0.4439-0.5831
				c0.0712-1.4198,0.0988-2.8262,0.0557-4.2471c-0.0217-0.7167-1.0442-0.7001-1.1016,0c-0.1162,1.4178-0.1614,2.8247-0.1635,4.2471
				c0.148-0.1944,0.296-0.3887,0.444-0.5831c-2.7346,0.7061-5.5198,1.1752-8.3266,1.4798
				C292.4105,156.3606,292.3907,157.3051,293.0141,157.2561L293.0141,157.2561z"/>
		</g>
	</g>
	<g>
		<g>
			<path fill="#303030" d="M318.4209,137.0397c1.0751,1.8812,1.5149,3.914,1.1559,6.065c-0.1273,0.7626,1.0094,1.1068,1.1808,0.3255
				c0.5318-2.4234,0.0991-4.9331-1.3705-6.9554C318.9724,135.9039,318.0556,136.4005,318.4209,137.0397L318.4209,137.0397z"/>
		</g>
	</g>
	<g>
		<g>
			<path fill="#303030" d="M171.2426,255.1205c0.167,4.5048,0.9293,9.0804,1.6043,13.5358c0.0999,0.6591,1.2461,0.5116,1.174-0.1589
				c-0.4816-4.4753-0.9131-9.1028-1.8978-13.4961C172.0129,254.51,171.2238,254.6149,171.2426,255.1205L171.2426,255.1205z"/>
		</g>
	</g>
	<g>
		<g>
			<path fill="#303030" d="M111.0557,37.2723c1.0052-0.4222,2.0072-0.7991,3.1056-0.8805c1.022-0.0758,1.9758,0.186,2.982,0.279
				c0.5539,0.0512,0.7282-0.7684,0.2765-1.0209c-1.9766-1.105-4.9845-0.5595-6.7253,0.7657
				C110.3182,36.702,110.5178,37.4983,111.0557,37.2723L111.0557,37.2723z"/>
		</g>
	</g>
	<g>
		<g>
			<path fill="#303030" d="M124.2833,34.782c1.3311-1.2711,2.9089-1.083,4.3855-0.2406c0.6618,0.3775,1.208-0.4593,0.7704-0.9985
				c-1.5451-1.9036-4.773-1.2588-6.09,0.5183C122.9359,34.6191,123.812,35.2321,124.2833,34.782L124.2833,34.782z"/>
		</g>
	</g>
</g>
</svg>
