<?xml version="1.0" encoding="utf-8"?>
<!-- Generator: Adobe Illustrator 20.1.0, SVG Export Plug-In . SVG Version: 6.00 Build 0)  -->
<svg version="1.1" xmlns="http://www.w3.org/2000/svg" xmlns:xlink="http://www.w3.org/1999/xlink" x="0px" y="0px"
	 viewBox="0 0 60 52" enable-background="new 0 0 60 52" xml:space="preserve">
<g id="site_bg">
</g>
<g id="back">
</g>
<g id="Layer_2">
	<path fill="#FFEFAF" d="M54.5424,32.034c0.1052-1.6557-1.998-3.0381-3.6577-1.6797c-0.9294,0.7607-1.6121,1.6028-2.3013,2.4988
		c-8.1782,4.2677-16.8765,7.2053-26.0271,8.6848c-2.3794,0.3847-1.9697,4.1589,0.2422,4.4113
		c0.0901,0.0978,0.1951,0.1858,0.3308,0.2497c5.1714,2.4377,13.7554,0.2702,18.9021-1.678
		c5.3831-2.0377,9.6677-5.3917,12.5178-10.4081C54.9586,33.3922,54.8873,32.6333,54.5424,32.034z"/>
	<path fill="#E93A1D" d="M15.2646,44.0429c1.5651-0.3011,2.7633-1.3468,4.2752-1.7378c1.7194-0.4446,3.5502-0.2188,5.2645-0.7199
		c2.2166-0.6479,4.4257-1.3033,6.6672-1.8564c2.5615-0.6321,4.9875-1.6543,7.5588-2.1464c2.2741-0.4352,4.6506-1.3479,6.6763-2.4515
		c0.8705-0.4743,2.3661-1.2083,2.7004-2.2469c0.464-1.4417-0.9983-2.1819-1.4026-3.4549c-0.3181-1.0015-0.244-2.6365-0.134-3.6675
		c0.2381-2.2327,1.2721-4.7862,2.9608-6.3174c0.7384-0.6695,2.098-1.6985,3.195-1.4301c1.2034,0.2945,1.2392,2.1869,2.718,2.2356
		c-0.0735-3.7954,6.1775-15.1021,1.1505-17.5528c-4.7546-2.3179-8.9601,0.4474-13.1342,2.3225
		c-5.5451,2.491-11.054,5.4202-16.1028,8.7873c-5.9865,3.9925-10.5955,9.6399-15.2455,15.0913
		c-2.4063,2.821-8.5194,8.5778-5.9465,12.8157C7.7069,43.7579,11.9546,44.6796,15.2646,44.0429z"/>
	<path fill="#FFEFAF" d="M50.2377,19.1755c-1.2903,1.474-2.2595,3.808-2.5642,5.7369c-0.2024,1.2808,0.3284,2.586,1.679,2.9571
		c1.1758,0.3231,2.7114-0.3975,2.957-1.679c0.364-1.8993,1.4863-3.5245,1.7104-5.4482
		C54.2411,18.8441,51.4389,17.8032,50.2377,19.1755z"/>
	<path fill="#777777" d="M54.3369,46.8789c1.8974-1.8266,3.2602-4.1403,3.1856-6.2515c-0.3352-9.4845-6.2622-0.9092-9.4535,1.0799
		c-1.8354,1.144-5.722,1.721-6.8673,3.6768c-2.0011,3.4173,3.9752,4.836,6.3189,4.8403
		C49.6683,50.228,52.3082,48.8319,54.3369,46.8789z"/>
	<g>
		<g>
			<path fill="#303030" d="M48.5888,20.7036c2.3743-2.5349,16.7047-18.3202,6.5619-19.4211
				C50.2576,0.7514,44.772,2.624,40.3886,4.5982c-5.0825,2.289-9.7271,5.4471-14.1573,8.8028
				C17.8282,19.766,8.1621,26.6201,2.5626,35.7509c-2.1378,3.4861-1.5695,7.484,2.4186,9.2744
				c4.5258,2.0318,9.6023-1.1238,13.5702-3.0949C29.6375,36.4232,40.2768,30.0157,48.5888,20.7036
				c0.3394-0.3802-0.1983-0.9297-0.5635-0.5635c-6.0856,6.1027-13.0893,11.2406-20.5385,15.5519
				c-3.7542,2.1728-7.6139,4.1586-11.5134,6.0563c-2.4162,1.1758-5.0017,2.576-7.7578,2.6154
				c-3.1802,0.0455-6.5357-2.4903-5.5172-5.9729c0.6728-2.3003,2.6543-4.5043,4.1584-6.2982
				c1.4687-1.7517,3.055-3.4001,4.709-4.9769c3.2046-3.0551,6.6557-5.839,10.0968-8.6201
				c6.9866-5.6466,14.331-11.4253,22.9326-14.3767c2.3728-0.8142,4.8329-1.3955,7.3297-1.6545
				c1.5622-0.1621,4.3453-0.5743,5.3585,1.0534c0.6538,1.0504,0.312,2.5476-0.0438,3.6322
				c-0.7834,2.388-2.5287,4.5436-3.9835,6.5561c-1.623,2.2452-3.3699,4.3831-5.2309,6.4341
				C47.682,20.5185,48.2365,21.0798,48.5888,20.7036z"/>
		</g>
	</g>
	<g>
		<g>
			<path fill="#303030" d="M56.9399,11.1448c-1.8182,4.2644-2.2321,8.8468-3.4574,13.2794
				c-1.4935,5.4028-4.764,9.1256-9.8762,11.3931c-4.8995,2.1731-10.3554,3.2975-15.542,4.5524
				c-5.9853,1.4482-12.0254,2.5813-18.0535,3.8262c-0.729,0.1506-0.4039,1.2003,0.3022,1.0961
				c6.4012-0.9446,12.7507-2.3898,19.0318-3.932c5.3372-1.3104,10.9666-2.4787,15.9162-4.9499
				c4.0915-2.0428,7.0959-5.1773,8.6874-9.4867c1.8447-4.9951,1.9712-10.4331,3.7894-15.4423
				C57.9046,11.0217,57.1344,10.6888,56.9399,11.1448L56.9399,11.1448z"/>
		</g>
	</g>
	<g>
		<g>
			<path fill="#303030" d="M20.9577,43.8858c-2.0924,1.603,0.035,3.8035,2.0628,3.8477c2.3624,0.0514,4.9386-0.8893,7.2384-1.357
				c2.8598-0.5816,5.7239-1.1451,8.5791-1.7489c4.3266-0.9149,8.9688-2.1042,12.2198-5.3032
				c2.7527-2.7086,4.2031-6.4662,3.111-10.2457c-0.1871-0.6477-1.1821-0.3763-1.0114,0.2788
				c1.953,7.4942-5.6702,11.9116-11.7445,13.4766c-2.8718,0.7399-5.8074,1.2606-8.7113,1.8573
				c-1.6814,0.3455-3.3628,0.691-5.0441,1.0364c-0.764,0.157-1.527,0.3231-2.2928,0.4711
				c-0.3057,0.0628-0.6114,0.1256-0.9171,0.1884c-1.4871,0.6308-2.4681,0.0331-2.943-1.7931
				C21.8186,44.2362,21.389,43.5554,20.9577,43.8858L20.9577,43.8858z"/>
		</g>
	</g>
	<g>
		<g>
			<path fill="#303030" d="M53.6012,35.5627c4.1049,4.1335,3.2772,11.4104-2.5158,13.5763
				c-5.133,1.9192-9.9841-1.5688-13.2089-5.2556c-0.5215-0.5962-1.3734,0.2707-0.8659,0.8659
				c3.9196,4.5974,10.6633,8.3869,16.3847,4.4461c4.9112-3.3827,5.216-10.3432,0.8772-14.3039
				C53.8228,34.4811,53.1681,35.1266,53.6012,35.5627L53.6012,35.5627z"/>
		</g>
	</g>
	<g>
		<g>
			<path fill="#303030" d="M53.4214,19.7651c0.516-0.8446-0.0917-1.8919-1.1103-1.9026c-1.6118-0.0169-2.5427,2.7126-2.9597,3.8289
				c-0.5242,1.403-1.4809,4.0952-0.5507,5.5161c0.5221,0.7975,1.6032,1.1564,1.9594,0.0853
				c0.1742-0.5238-0.6509-0.8816-0.8996-0.3793c-0.057-0.2395-0.1117-0.4795-0.1642-0.72c-0.1938-0.5389-0.1984-1.0875-0.0138-1.646
				c0.0962-0.584,0.2336-1.1655,0.4041-1.7322c0.2148-0.7136,0.4913-1.4085,0.8249-2.0749c0.0927-0.1747,0.1854-0.3493,0.2781-0.524
				c0.2111-0.5808,0.6515-0.9087,1.3211-0.9837C52.1565,19.814,53.0677,20.3441,53.4214,19.7651L53.4214,19.7651z"/>
		</g>
	</g>
</g>
</svg>
