<?xml version="1.0" encoding="utf-8"?>
<!-- Generator: Adobe Illustrator 20.1.0, SVG Export Plug-In . SVG Version: 6.00 Build 0)  -->
<svg version="1.1" xmlns="http://www.w3.org/2000/svg" xmlns:xlink="http://www.w3.org/1999/xlink" x="0px" y="0px"
	 viewBox="0 0 923 275" enable-background="new 0 0 923 275" xml:space="preserve">
<g id="site_bg">
</g>
<g id="back">
	<g>
		<g>
			<path fill="#F7FAFC" d="M378.2547,266.7325c-4.9502,0.001-9.8877-1.8281-13.7305-5.4551
				c-9.8428-9.291-20.3369-19.1894-31.1797-29.4101c-1.2852,3.2432-3.3477,6.1201-6.0801,8.4131
				c-6.9697,5.8496-16.8076,6.1553-24.0498,1.2568c-4.2393,2.7832-13.373,6.5752-25.1533-1.1846
				c-1.0859,1.6611-2.4238,3.165-3.9805,4.4541c-6.4375,5.3301-17.499,7.3145-26.5703-0.9307l-2.5488-2.3301
				c-0.8633,4.4932-3.2471,8.5781-6.7861,11.5469c-8.2188,6.8965-18.8779,6.9414-31.6807,0.1338
				c-0.8682-0.4619-1.7695-0.9629-2.7031-1.5029c-1.1797,3.335-3.2354,6.331-5.998,8.6504c-3.9307,3.2988-8.874,4.9404-13.9844,4.71
				c-2.0518,0.3965-4.1514,0.4668-6.21,0.2217c-3.3662,0.6484-7.1299,0.4854-11.0332-0.9756
				c-3.8164,0.8848-8.6396,0.8037-14.1133-1.9277c-0.9102-0.4551-1.9395-1.0244-3.2383-1.791
				c-1.8633-1.1006-4.3672-2.6602-7.6523-4.7666c-5.4482-3.4932-13.1807-8.582-22.9824-15.125
				c-3.666-2.4473-7.458-4.9883-11.2881-7.5605c-8.4131,6.2305-20.333,4.9258-27.1768-3.1875c0,0-7.832-9.2861-15.6523-18.5811
				c-3.917-4.6572-7.832-9.3174-10.7617-12.8174c-1.4873-1.7773-2.7246-3.2598-3.5869-4.3008
				c-0.4785-0.5781-0.8535-1.0332-1.1064-1.3457c-8.2529-10.1699-4.9766-22.1797,2.2969-28.3164
				c0.0312-0.0264,0.0625-0.0527,0.0938-0.0791c1.0059-0.8379,4.291-3.3086,9.0264-4.2451
				c-6.373-9.4307-8.5137-15.6436-8.1943-22.0898c0.25-5.0342,2.1328-9.6475,5.3691-13.2725
				c0.7393-2.8281,2.1035-5.5156,4.0713-7.8379c0.6855-1.3789,1.5234-2.6807,2.5-3.873c1.2539-2.3076,2.9385-4.376,5.0088-6.1123
				c4.5762-3.8398,10.4219-5.2998,15.9531-4.4385c-4.7031-6.1094-7.5889-10.9355-7.0039-18.1133
				c0.4336-5.3271,2.999-10.3008,7.0928-13.7363c1.9951-1.6738,7.9238-5.8301,16.2217-4.4863
				c-1.4727-6.9912,0.8584-14.5449,6.7139-19.459c1.8174-1.5254,10.5205-7.9863,21.8604-2.6855
				c1.1895-2.417,2.8896-4.6309,5.0859-6.4746c1.6924-1.418,9.0664-6.8838,18.9443-3.7432c0.0215-0.0176,0.043-0.0361,0.0645-0.0537
				c6.3135-5.2939,16.8467-7.2617,26.1465,0.2803c0.5654,0.459,1.3867,1.1543,2.4395,2.0781
				c1.6777,1.4707,4.0098,3.5693,7.1299,6.415c4.6289,4.2217,11.0059,10.1045,19.0039,17.5293
				c1.334-3.1338,3.3848-5.918,6.0605-8.1631c8.0312-6.7402,19.9043-6.1318,27.2061,1.3916
				c0.1406,0.1445,5.2939,5.4512,13.791,14.1152c0.9492-2.6758,2.4844-5.1895,4.6035-7.3398
				c7.5605-7.6709,19.834-7.9766,27.7666-0.6963l13.0908,12.0146c1.0801-2.3691,2.6426-4.5625,4.6777-6.4277
				c7.8867-7.2344,20.0713-6.9766,27.6455,0.5859c2.2285,2.2236,4.4668,4.4551,6.7139,6.6914
				c1.0791-1.6797,2.4121-3.2031,3.9678-4.5088c6.0234-5.0547,14.251-5.9971,21.0879-2.9092
				c1.3271-2.7021,3.2041-5.1094,5.5693-7.0938c4.6162-3.873,12.0352-6.4199,20.3896-3.6445
				c0.6738-0.7705,1.4102-1.4941,2.2051-2.1611c5.8916-4.9443,15.9014-7.0898,24.9854-0.7363c0.834,0.583,1.748,1.2891,2.876,2.2207
				c0.2051,0.1689,0.4189,0.3467,0.6416,0.5342c1.1738-2.1064,2.7305-4.0029,4.6133-5.583
				c1.9609-1.6445,11.8623-8.96,24.8379-1.3721c7.7373-4.6875,17.9141-3.6396,24.5322,3.0176
				c4.1494,4.1748,8.334,8.373,12.5342,12.5791c0.9648-1.8057,2.2246-3.4932,3.7773-4.9883
				c7.8027-7.5098,20.1631-7.4453,27.8867,0.1426c1.873,1.8408,3.7842,3.7168,5.7363,5.6338
				c0.7861-0.9629,1.6631-1.8545,2.6221-2.6592c3.6367-3.0508,8.0439-4.6104,12.4756-4.6914
				c6.0566-1.2705,12.5625,0.3027,17.4355,4.6572c1.2109-2.416,2.9111-4.584,5.0215-6.3545
				c3.2852-2.7578,12.3584-8.4844,25.5684-2.127c0.7354,0.3545,1.4863,0.7441,2.2598,1.1748
				c1.1943-2.5215,2.9395-4.832,5.2168-6.7432c4.6289-3.8848,10.6152-5.7012,16.8428-5.1201
				c1.7734,0.165,3.5791,0.4922,5.5137,1.0859c7.4355-3.5146,16.5586-2.1797,22.6797,3.9326
				c0.1152,0.1152,4.7715,4.7607,12.3438,12.1992c1.2051-3.1211,3.1855-5.9229,5.7998-8.1172
				c1.1816-0.9932,10.4609-8.2578,22.0156-2.5596c4.3848,0.3389,8.8818,2.1719,12.8193,5.9951
				c0.2842,0.2773,0.6562,0.6494,1.1074,1.1143c4.5449-0.625,9.752,0.2178,15.0146,3.667c1.5811,1.0361,3.2793,2.3584,5.3447,4.1611
				c1.2598,1.0977,2.6807,2.3975,4.2812,3.915c5.2031,0.3789,10.252,2.7803,13.8701,7.0928
				c2.1553,2.5684,3.5547,5.5215,4.2217,8.5859c3.7598,5.4365,13.1016,16.2031,22.7549,26.9639
				c7.3896,8.0273,14.6016,15.9512,20.7363,22.7295c0.9854,1.0674,1.8945,2.0498,2.709,2.9307
				c4.2754,4.627,7.9688,8.623,10.624,11.5576c5.2402,5.793,9.7656,10.7959,9.2139,19.5234
				c-0.1484,2.3545-0.7119,4.6416-1.6406,6.7637c0.8438,5.4248-0.5635,11.0918-4.0947,15.5303
				c-0.8076,3.749-2.5508,7.1631-5.0986,9.9775c-1.2539,2.1768-2.8896,4.1338-4.8691,5.7949
				c-5.1455,4.3174-11.1758,5.9014-18.0205,4.7559c-0.001,0.0107-0.002,0.0225-0.0029,0.0332
				c-0.4258,5.3398-3.0059,10.3535-7.1094,13.7969c-4.0947,3.4365-9.3926,5.0947-14.7148,4.5908
				c-0.1963-0.0176-0.3916-0.0391-0.5859-0.0635c-0.0029,0.0029-0.0068,0.0059-0.0098,0.0078
				c-5.4209,4.5498-14.8369,7.3076-24.999,1.4111c-1.9746-1.1455-4.125-2.6709-6.7676-4.7979
				c-1.5713-1.2646-3.3623-2.7822-5.3945-4.5723c-1.1611,2.0273-2.6787,3.8545-4.5029,5.3848
				c-2.2324,1.875-9.1396,6.6602-18.6094,3.8877c-1.2119,3.6523-3.3994,6.8936-6.4111,9.4209
				c-1.1982,1.0049-2.4795,1.8457-3.8164,2.5244c-3.0029,2.1201-10.3389,6.0439-19.6367,2.1738
				c-1.1475,1.877-2.6035,3.5732-4.3379,5.0273c-2.7129,2.2773-12.6299,9.0625-26.2979,0.7539
				c-2.252-1.3682-4.832-3.2148-8.0918-5.793c-1.0664,1.6348-2.374,3.1182-3.8926,4.3916
				c-1.9521,1.6377-11.7246,8.875-24.2324,1.5537c-7.6406,4.8145-17.8018,3.9512-24.5303-2.54
				c-3.1113-3.001-6.3262-6.1006-9.627-9.2803c-1.1719,1.7793-2.6064,3.3926-4.2793,4.7969
				c-2.7021,2.2676-12.5625,9.0615-26.0693,1.2627c-0.8672-0.5-1.7607-1.0635-2.6963-1.7012
				c-7.5967,5.9424-18.5644,5.6562-25.8554-1.0645l-2.0801-1.918c-1.1426,1.9336-2.6123,3.6797-4.3662,5.1504
				c-2.6553,2.2285-12.3066,8.8535-25.5449,1.1699c-0.8857,1.4482-1.9688,2.8047-3.25,4.0303
				c-7.5859,7.2539-19.4795,7.4082-27.2471,0.3711c-1.2451,3.6182-3.4336,6.8242-6.4219,9.332
				c-12.2441,10.2725-26.1572,2.2822-33.2715-2.6474c-1.2695,2.3017-2.9639,4.3681-5.0381,6.1084
				C387.3797,265.1817,382.8123,266.7325,378.2547,266.7325z"/>
		</g>
	</g>
	<g>
		<g>
			<path fill="#F2F6F9" d="M804.7049,252.4835c-4.4443,0-9.1865-1.4893-13.5645-5.1689c-0.7832-0.6592-1.6855-1.4795-2.8408-2.584
				c-1.6846-1.6094-4.0488-3.9609-7.2275-7.1895c-0.6016-0.6113-1.2285-1.249-1.8779-1.9121
				c-0.6182,0.6865-1.2871,1.332-2.0029,1.9336c-4.6855,3.9297-10.7021,5.6895-16.9395,4.9561
				c-2.4062-0.2832-4.7939-0.9482-7.2178-1.9883c-5.1484-0.6738-10.0713-2.7373-14.1533-4.998
				c-2.8008-1.5508-5.9258-3.5244-9.4326-5.958c-0.6807,0.7656-1.4219,1.4873-2.2217,2.1582
				c-7.2256,6.0645-17.708,6.2549-25.1484,0.4541l-20.4746-15.9561c-0.8242,1.0342-1.7549,1.9912-2.7842,2.8555
				c-4.1553,3.4834-13.0859,8.2832-26.2148,1.248c-1.5947-0.8545-3.3779-1.9307-5.3887-3.252
				c-7.9209,3.458-17.4805,1.4756-23.3174-5.4795c-1.3896-1.6572-2.4658-3.4727-3.2334-5.375
				c-4.5117-6.0576-19.6621-23.252-32.4209-37.1465c-6.9004-7.5156-7-18.9521-0.4238-26.5762
				c-2.1172-4.1045-3.0361-7.8652-2.7686-12.1328c0.3506-5.5801,2.9912-10.8272,7.2461-14.3984
				c2.6748-2.2441,5.7939-3.6836,9.041-4.3125c-1.2383-2.7832-1.7881-5.6963-1.5664-9.2158
				c0.3447-5.4609,2.9346-10.5947,7.126-14.1123c4.5527-3.8193,10.3418-5.2861,15.8438-4.4551
				c-0.2305-6.1719,2.3945-12.3555,7.5967-16.4609c1.0332-0.8154,2.124-1.5127,3.2529-2.0947
				c3.2891-2.585,8.8652-5.4609,16.5342-4.2422c1.2764-2.5049,3.0518-4.7451,5.2695-6.6064
				c5.5596-4.665,12.96-5.8066,19.4053-3.5791c0.8027-0.9912,1.7031-1.9092,2.6934-2.7402
				c7.8203-6.5527,19.3174-6.1729,26.6846,0.8857l1.126,1.0791c0.7842-0.958,1.6602-1.8477,2.6211-2.6533
				c4.5801-3.8447,10.4854-5.6396,16.6348-5.0352c3.7988,0.3691,7.8545,1.3486,13.9023,5.1709
				c5.6396-0.4941,11.4453,1.416,15.7783,5.6934l10.5645,10.4326c4.7695-2.4453,12.8955-4.4121,22.9531,1.832
				c2.1504,1.334,4.4844,3.0703,7.2363,5.3877c3.9199-0.3896,8.6279,0.29,13.9062,3.2559c1.6406,0.9219,3.3809,2.0762,5.3564,3.5596
				c3.4199-1.0029,7.04-1.0654,10.4658-0.2178c2.5322-0.0762,5.0889,0.3359,7.4932,1.2178
				c5.666-1.6084,11.9521-0.6963,17.0596,2.9287l2.0361,1.4463c8.3975-5.8252,20.0059-4.3877,26.7021,3.5977
				c0.8584,1.0244,1.5967,2.1084,2.2168,3.2373c2.0371,2.3564,6.4561,7.0713,9.8232,10.6641
				c20.709,22.0957,26.959,28.7637,26.2969,39.8076c-0.3291,5.4912-2.8799,10.6641-7.0117,14.2441
				c2.2383,7.2383,0.2285,15.4053-5.7012,20.7559c-0.9365,2.543-2.4033,4.9277-4.3936,6.9814
				c-1.0693,1.6465-2.3848,3.1406-3.916,4.4258c-0.5039,0.4229-1.4902,1.1885-2.877,1.9824
				c-1.083,3.2705-2.9863,6.2461-5.5381,8.5869c-1.0986,4.2354-3.4551,7.9932-6.8545,10.8457
				c-0.7012,0.5879-1.4326,1.1211-2.1865,1.5977c-0.6318,5.1367-3.1992,9.9092-7.1504,13.2236
				c-1.6846,1.4141-3.5732,2.5264-5.584,3.3105c-1.0371,1.4824-2.2744,2.8359-3.6963,4.0293
				c-4.5205,3.793-10.2725,5.2705-15.75,4.4678c-1.2246,2.7715-3.0742,5.2559-5.4395,7.2412
				c-2.3691,1.9873-9.9492,7.2227-20.3154,3.4473c-0.7031,0.7959-1.4717,1.5449-2.3008,2.2412
				C814.3328,250.5977,809.7078,252.4835,804.7049,252.4835z M881.0193,91.5733c1.2539,2.8652,1.7949,5.9463,1.6455,8.9883
				C882.908,97.5596,882.4598,94.4639,881.0193,91.5733z"/>
		</g>
	</g>
	<g>
		<g>
			<path fill="#F2F6F9" d="M108.5038,273.0235c-4.2686,0.001-9.3457-1.2764-15.1943-4.8574
				c-8.0947,4.0742-18.2129,2.2217-24.293-5.0205c-1.6924-2.0156-2.918-4.2676-3.6904-6.625
				c-6.3271-8.9599-31.9238-38.0967-53.8125-61.9346c-6.5684-7.1543-6.958-17.8252-1.374-25.3877
				c-5.2285-7.7002-7.0469-12.874-6.6689-18.8994c0.3525-5.6367,3.0146-10.9326,7.3018-14.5312
				c2.3467-1.9697,5.0352-3.3184,7.8496-4.0449c-6.834-7.7871-9.9258-12.5088-9.4355-20.2705
				c0.3447-5.4609,2.9395-10.6045,7.1318-14.1221c3.6904-3.0967,8.1924-4.6416,12.6875-4.6777
				c-1.4619-5.6123-0.4121-11.6523,2.9238-16.4551c1.2402-2.8398,3.1211-5.3906,5.5147-7.3994
				c2.1357-1.792,5.4131-3.8574,9.7666-4.6523c0.8359-5.0723,3.3906-9.5908,7.3418-12.9053
				c5.2002-4.3643,12.0078-5.6426,18.1406-3.9688c0.9082-1.21,1.958-2.3232,3.1348-3.3105
				c6.1533-5.1631,14.582-6.0254,21.4814-2.7305c1.0391-1.5469,2.2969-2.9551,3.749-4.1729
				c4.6738-3.9219,10.7178-5.7256,17.002-5.0957c2.0166,0.2051,4.1377,0.5937,6.6064,1.4902
				c6.748-1.7539,14.2158,0.0869,19.4043,5.4414l9.4287,9.7324c5.0723-2.7695,11.0859-3.3447,17.0371-1.5342
				c2.0078,0.6113,4.0264,1.501,6.1211,2.7002c4.7559-1.0264,11.0068-0.6504,18.2803,3.8447
				c0.8281,0.5117,1.6836,1.0791,2.5752,1.7109c5.043-1.4326,10.4951-0.832,15.1152,1.7061
				c2.4355,0.3447,4.7646,1.1318,6.8818,2.3037c4.0068,0.9688,7.75,3.1807,10.6025,6.5811l92.29,109.9873
				c2.2891,2.7266,3.7246,5.8848,4.3369,9.1514c3.5654,4.1104,5.1602,9.2734,4.8516,14.3213
				c0.6621,2.2939,0.9141,4.71,0.7197,7.1357c-0.4258,5.3301-2.9688,10.2676-7.0605,13.709
				c-0.5596,5.2275-3.1406,10.1055-7.1533,13.4727c-4.0205,3.3711-9.8662,5.4229-15.9551,4.4805
				c-6.0957,3.4131-13.5312,3.3584-19.5469-0.0215c-3.8682,2.627-8.5586,3.8242-13.248,3.3496
				c-0.0811-0.0088-0.1611-0.0166-0.2412-0.0264c-5.3047,3.3613-11.7939,3.9678-17.5088,1.9004
				c-1.125,1.8584-2.5566,3.5391-4.252,4.9619c-2.1406,1.7969-8.5176,6.2256-17.3652,4.3086
				c-0.9785,1.3076-2.1152,2.5117-3.3984,3.5889c-5.3604,4.4971-14.1787,6.6582-22.4541,2.2412
				c-1.0586,1.6123-2.3545,3.0762-3.8594,4.3389c-3.7979,3.1875-8.4658,4.9648-13.4268,5.165
				c-6.9971,1.7324-15.1143-0.0479-24.2539-5.3369c-1.5283-0.8848-3.1465-1.8896-4.8623-3.0205
				c-0.8379,1.0273-1.7783,1.9814-2.8154,2.8525c-7.3389,6.1592-18.0146,6.2471-25.4561,0.21l-2.208-1.792
				c-1.2236,2.7529-3.0654,5.2217-5.4209,7.1973C119.16,270.3497,114.6795,273.0235,108.5038,273.0235z"/>
		</g>
	</g>
</g>
<g id="Layer_2">
	<path fill="#172DF8" d="M899.9245,166.5118c0.1891-11.0201-2.4219-22.0354-1.3605-33.1871
		c1.141-11.9882,5.2606-24.015,9.0651-35.4648c3.6422-10.9612,15.6644-26.0317,1.6472-33.0346
		c-11.1899-5.5905-11.9751,1.0404-10.503,10.8238c2.5058,16.6531-4.3707,35.9772-6.8394,52.5662
		c-1.5897,10.6818-3.1566,20.5534-2.3276,31.4134c0.3879,5.0815-0.6512,15.0417,3.678,18.2795
		C895.5767,175.2004,896.1943,170.182,899.9245,166.5118z"/>
	<path fill="#FFEFAF" d="M825.3667,50.681c-0.3268-10.8672,8.4434-21.4563,6.5219-31.9343
		c-1.667-9.0904-14.1758-10.5475-21.8185-12.1496c-2.4742-0.5187-12.2355-5.288-14.0259-4.5415
		c-4.8107,2.0058-0.8058,10.7857,1.3373,13.2122c3.6,4.0758,12.1006,4.908,14.8847,9.4168c1.8632,3.0173,0.6303,6.814,1.8998,9.9038
		C821.8854,33.0954,817.281,45.1181,825.3667,50.681z"/>
	<path fill="#172DF8" d="M772.7766,250.3853c-0.4106-4.6459-0.5134-10.8451-4.113-14.3353
		c-5.6133-5.4427-10.0237,1.2379-15.04,3.5609c-2.7183,1.2588-6.0712,2.1808-8.9615,2.3029
		c0.6347-1.3393,2.2784-8.2743,1.2968-9.4303c-4.2674-5.0237-14.5831,4.0639-18.6014,5.1496
		c-3.0342,0.8198-6.137,1.2519-9.2825,1.5148c-2.8751,0.2404-8.6125-1.193-10.3837,1.2328
		c3.0272,3.2959,11.8437,4.0135,15.8874,2.9384c2.946-0.7833,3.7726-1.5175,6.105,0.7011c3.0368,2.8885,3.9384,5.6029,8.4174,6.918
		c6.3875,1.8754,13.3502-2.4797,19.6476-3.2107C762.4058,247.1874,765.0538,249.6634,772.7766,250.3853z"/>
	<path fill="#172DF8" d="M878.0168,165.4791c0.6298-13.0357-12.2833-25.6621-16.9311-37.1221
		c-6.39-15.7556-9.9448-32.4861-16.1284-48.3226c-1.8535-4.7533-0.7931-15.0512-4.4789-18.5887
		c-6.5776-6.313-15.5351,2.4516-21.1491,5.7734c-7.3329,4.3389-9.8565,11.1796-15.8489,16.1721
		c-5.8144,4.8443-17.0812,4.4137-24.2371,5.4429c-7.799,1.1217-15.1709,1.2601-22.7827,1.6298
		c-4.0728,0.1978-2.4468-2.3521-5.4294,0.6878c-1.558,1.588-3.2614,9.4809-2.1955,11.6409
		c3.0368,6.1545,16.7682,4.3677,22.5655,4.8456c11.0073,0.9074,22.9468-2.9031,33.595-1.7801
		c5.1194,0.5399,5.0626,0.516,6.7333,6.8068c0.5848,2.2021,5.6345,32.4622,4.4207,32.444
		c5.2231,0.0786,10.4292,1.377,15.3456,3.0567c5.4851,1.874,10.2632,5.2798,14.2266,9.4644
		c8.2896,8.7526,19.3266,12.6575,31.965,10.5452C877.866,167.2748,877.9734,166.376,878.0168,165.4791z"/>
	<path fill="#E93A1D" d="M44.7711,65.9502c1.594-2.7086,4.4165-4.5788,8.9704-5.1158c5.2066-0.6139,12.8076,1.0751,16.8389,4.5841
		c2.6229,2.283,4.4299,13.2372,3.5865,12.6843c-14.2886-9.3667-9.7281,30.4621-10.0219,35.871
		c-0.5804,10.6878-1.9378,20.3368-1.6596,31.3087c0.156,6.1523,0.3445,12.3929-0.5344,18.5061
		c-0.5735,3.9884-4.7767,11.6082-4.397,15.0546c-2.8077-25.4847,2.5705-50.5504-6.1674-75.5332
		C48.2071,94.2196,39.3284,75.1983,44.7711,65.9502z"/>
	<path fill="#FFEFAF" d="M129.5293,79.9386c-0.7874-3.3152-2.4098-7.4039-3.2509-8.8716
		c-2.5648-4.4752-6.8298-7.7582-9.7746-11.9643c-2.8233-4.0328-11.5431-17.7127-7.589-22.1195
		c3.6407-4.0575,12.0333-0.9399,16.6624-1.7528c6.6547-1.1686,8.0229-6.2212,12.824-9.4548
		c2.6575-1.7898,12.9439,3.0442,12.0726,4.1678c5.6723-7.3151-12.9303-15.2188-17.6561-18.0471
		c-8.2607-4.9438-19.9702-4.0104-28.4794,0.4929c-5.3314,2.8216-9.1625,10.0214-12.0393,15.0795
		c-4.5775,8.0483-5.4169,16.7724-4.1818,25.8264c1.3342,9.7803,5.1393,18.8318,5.6714,28.4425
		c2.8282-1.7101,6.2721-10.2191,10.5858-9.6155c4.9244,0.689,4.8129,10.5751,8.8369,12.9657
		c3.7665,2.2375,14.7958,4.1777,16.6289-1.0449C130.1279,83.2235,129.945,81.6889,129.5293,79.9386z"/>
	<path fill="#E93A1D" d="M173.5158,259.8437c-3.1982-5.8379-1.9005-12.8488-2.1785-19.1915
		c-0.399-9.1053-1.6522-18.1718-0.8638-27.297c0.3775-4.3699,6.3031-37.2173,2.9358-39.1273
		c-5.2615-2.9846-11.9866-5.4837-18.1203-5.6197c-1.5705,7.3746-9.8853,3.4863-14.4779,1.905
		c-5.7856-1.9967-12.9869-5.7043-18.9943-5.2166c-1.1079-11.6742-13.5988-15.1646-16.0006-26.8562
		c-2.4016-11.6905-4.414-23.1503-8.0243-34.221c4.1184-4.3428,10.7494-2.5362,15.7972-0.5974
		c0.6359,9.5158-1.0752,19.0433-1.3179,28.5686c-0.2183,8.5681,2.0874,7.0316,5.9242,13.7216
		c4.9-7.9814-0.3011-22.97,9.1714-30.0046c4.504-3.3448,6.8303-0.7452,8.6806-6.7934c0.6361-2.0793-0.0507-17.8762-1.4671-19.7258
		c-4.4677-5.8337-20.5361-0.9954-26.5951-0.9528c-5.9288,0.0417-20.2534-3.4512-24.5827,2.0572
		c-0.9018,1.1544-0.8293,12.8228-0.5602,15.0562c15.7932,3.5429,13.2104,25.8866,11.6281,38.1899
		c-1.6136,12.5462-9.4303,23.1138-11.7576,35.4096c-3.3845,17.8811,31.577,15.5908,43.8618,16.6802
		c1.965,15.7842-8.4127,30.1318-17.3176,41.64c-9.2088,11.901-24.054,21.2304-30.9146,34.3376
		c6.5581-2.1628,13.855-3.8032,20.9624-4.0371c3.3776-0.1112,6.926,0.5271,10.1215-0.6877
		c6.052-2.3008,6.3545-8.3382,11.1331-11.5332c12.8171-8.5694,2.2396,11.555,8.9715,13.8543
		c12.3272,4.2105,10.9413-24.5698,20.8201-25.3356c0.7531,8.5358-1.5031,20.2435,6.7229,23.1419
		C161.7677,268.8627,179.2723,270.3514,173.5158,259.8437z"/>
	<g>
		<g>
			<path fill="#303030" d="M753.1696,233.0518c3.8205-18.5459,7.246-37.1801,10.7579-55.7866
				c0.8496-4.5014,1.5742-9.0526,2.5738-13.5231c0.6463-2.8904,2.1134-4.3837,4.7957-5.4621
				c1.9711-0.7925,3.9736-1.5158,5.9846-2.2003c8.4361-2.8712,17.1675-4.8622,26.0083-5.9736
				c9.8191-1.2343,19.6994-1.2301,29.5491-0.3864c0.6896,0.0591,0.6703-0.9909,0-1.0664
				c-18.1241-2.0423-36.804,0.1521-54.0982,5.8728c-3.3784,1.1175-7.5038,2.0932-10.4233,4.2138
				c-3.0931,2.2468-3.1322,7.036-3.7889,10.4449c-1.9168,9.9499-3.8782,19.8912-5.7819,29.8437
				c-2.1541,11.2614-4.3699,22.5142-6.3737,33.8035C752.2812,233.3489,753.0615,233.5769,753.1696,233.0518L753.1696,233.0518z"/>
		</g>
	</g>
	<g>
		<g>
			<path fill="#303030" d="M752.1931,231.6692c5.1299,1.571,10.3519,2.7832,15.6547,3.6051
				c2.2378,0.3468,4.4864,0.6289,6.7409,0.8414c2.0951,0.1975,4.4485,0.598,6.52,0.0132c3.7676-1.0636,3.6168-4.789,3.8417-8.0401
				c0.3892-5.6257,0.7503-11.2535,1.1221-16.8804c0.3609-5.4613,0.7218-10.9226,1.0827-16.384
				c0.3365-5.0918-0.1058-11.2566,2.2108-15.943c4.0654-8.2245,16.3538-8.7547,24.22-9.9422
				c12.5936-1.9012,25.2129-2.6734,37.8625-0.8492c0.8395,0.1211,1.23-1.1322,0.3599-1.3052
				c-10.4459-2.0759-21.225-1.618-31.7442-0.3656c-4.9758,0.5924-9.934,1.3593-14.8696,2.2224
				c-3.748,0.6554-7.549,1.481-10.9475,3.2555c-8.1647,4.2631-8.0977,12.8035-8.5929,20.9413
				c-0.6847,11.2535-1.3914,22.5059-2.0522,33.7609c-0.1945,3.3121,0.3383,8.0687-4.0523,8.4585
				c-2.696,0.2393-5.5807-0.2686-8.2522-0.5944c-6.3669-0.7764-12.6378-2.129-18.7959-3.913
				C751.782,230.3421,751.4805,231.451,752.1931,231.6692L752.1931,231.6692z"/>
		</g>
	</g>
	<g>
		<g>
			<path fill="#303030" d="M733.7625,227.4622c4.7921-7.031,9.4048-14.1698,13.9505-21.3628
				c4.5077-7.1329,9.4756-14.2301,13.371-21.7173c0.4557-0.876-0.7541-1.5611-1.3104-0.766
				c-4.8491,6.9305-8.936,14.5114-13.4242,21.6862c-4.5073,7.2054-9.0643,14.3786-13.5533,21.595
				C732.4117,227.5152,733.3608,228.0515,733.7625,227.4622L733.7625,227.4622z"/>
		</g>
	</g>
	<g>
		<g>
			<path fill="#303030" d="M733.4677,229.3422c4.9727,2.679,11.0031,3.797,16.5439,2.4095
				c0.6804-0.1704,0.5605-1.3275-0.1698-1.2545c-5.5287,0.5521-10.6474,0.1031-15.762-2.2023
				C733.3832,227.9809,732.7673,228.9648,733.4677,229.3422L733.4677,229.3422z"/>
		</g>
	</g>
	<g>
		<g>
			<path fill="#303030" d="M761.6208,235.7005c-9.6843,5.2148-20.5497,7.6789-31.5307,6.9209
				c-0.3289-0.0227-0.5667,0.2379-0.6746,0.5136c-1.1108,2.8381,1.4344,4.9203,3.8325,5.9054
				c4.2026,1.7264,9.7274,1.4594,14.1603,1.1001c2.3253-0.1884,4.6409-0.5337,6.9192-1.0346
				c2.5119-0.5524,5.3441-2.0773,7.9139-2.0807c2.4102-0.0032,4.1019,2.3396,6.3349,3.0398
				c1.8854,0.5912,3.8274,0.4918,5.6976-0.089c0.3969-0.1233,0.5853-0.4974,0.5081-0.8949
				c-0.8137-4.1893-1.517-8.4229-2.519-12.5718c-0.2039-0.8441-1.3932-0.4662-1.2712,0.3505
				c0.6307,4.225,1.5678,8.4161,2.3871,12.6081c0.1694-0.2983,0.3387-0.5966,0.5081-0.8949
				c-2.3878,0.7446-4.7183,0.5195-6.8321-0.8353c-1.2695-0.8136-2.2375-1.8592-3.8016-2.1014
				c-3.1292-0.4845-6.719,1.5505-9.7493,2.1889c-4.0876,0.8611-8.274,1.1949-12.4467,1.0126
				c-2.5483-0.1114-12.1456-0.5813-10.2927-5.3307c-0.2249,0.1712-0.4497,0.3424-0.6746,0.5136
				c11.2122,0.7615,22.3508-1.739,32.0483-7.4346C762.7087,236.251,762.2019,235.3877,761.6208,235.7005L761.6208,235.7005z"/>
		</g>
	</g>
	<g>
		<g>
			<path fill="#303030" d="M734.3144,233.6225c-10.5775,4.2508-22.1412,5.8917-33.475,4.8078
				c-0.7-0.0669-0.9658,1.0134-0.3577,1.3206c6.4616,3.2654,13.8917,5.4545,21.1896,5.219c0.8285-0.0267,0.8148-1.2184,0-1.2773
				c-7.2565-0.5253-13.9318-1.8502-20.4742-5.1656c-0.1192,0.4402-0.2385,0.8804-0.3577,1.3206
				c11.6732,1.1294,23.0964-0.7152,33.8475-5.3417C735.184,234.2921,734.8237,233.4178,734.3144,233.6225L734.3144,233.6225z"/>
		</g>
	</g>
	<g>
		<g>
			<path fill="#303030" d="M828.2326,149.4371c9.3595-0.2761,15.0117,9.2943,21.7796,14.2723
				c3.774,2.7759,8.1011,4.8171,12.636,5.9912c3.8259,0.9905,8.3406,1.7684,12.2336,0.7303c2.9554-0.788,5.2791-2.8988,4.9736-6.16
				c-0.2467-2.6326-1.6885-5.2755-2.6989-7.6808c-1.0011-2.3831-2.0481-4.747-3.1438-7.088
				c-4.7353-10.1174-10.8125-19.455-16.0197-29.3156c-6.1797-11.7021-9.3737-23.795-10.5822-36.9252
				c-0.093-1.0103-1.6276-1.0503-1.6055,0c0.2109,10.007,2.7892,20.1298,6.6668,29.3178
				c3.9053,9.2535,9.4509,17.6609,14.3359,26.4017c2.5316,4.5298,4.8882,9.1608,7.0607,13.8734
				c1.2251,2.6574,2.3979,5.3416,3.4898,8.0565c1.1066,2.7512,1.904,5.9691-1.268,7.6022
				c-4.0025,2.0608-9.7924,0.7909-13.8653-0.3529c-4.8786-1.3701-9.429-3.7864-13.3101-7.0408
				c-6.098-5.1133-11.8065-13.3138-20.6827-12.8071C827.515,148.353,827.5041,149.4586,828.2326,149.4371L828.2326,149.4371z"/>
		</g>
	</g>
	<g>
		<g>
			<path fill="#303030" d="M832.3559,86.4341c-7.8665,13.1835-22.7815,17.9998-37.2762,19.5314
				c-7.6628,0.8097-15.3661,0.8901-23.0169-0.0811c-7.7742-0.9869-15.4362-2.4904-23.2617-3.1027
				c0.2536,0.3329,0.5071,0.6657,0.7607,0.9986c1.134-5.3419,1.0746-10.8105,1.2085-16.2436
				c-0.264,0.2641-0.5281,0.5281-0.7922,0.7922c6.7214,0.5458,13.4363,1.4157,20.1785,1.6625
				c7.1039,0.2601,14.2673-0.2935,21.3083-1.2169c6.3085-0.8273,12.5932-2.3151,17.9572-5.8848
				c5.6051-3.7302,9.3841-9.4444,15.5103-12.5209c3.3171-1.6658,7.554-3.2573,11.3155-3.3586
				c3.6313-0.0978,5.5931,2.7116,7.5094,5.4102c0.5509,0.7757,1.836,0.056,1.2952-0.7571c-1.401-2.1065-2.9701-4.4589-5.3334-5.577
				c-1.9564-0.9256-4.1432-0.6867-6.1968-0.2681c-6.4913,1.3232-12.2713,4.2241-17.1116,8.737c-2.9366,2.738-5.5117,5.657-9,7.7431
				c-3.186,1.9053-6.7045,3.1242-10.3169,3.9258c-7.5891,1.684-15.668,2.2368-23.4308,2.2451
				c-7.9175,0.0084-15.8046-1.0882-23.6849-1.7248c-0.4344-0.0351-0.7825,0.3916-0.7922,0.7922
				c-0.1282,5.2885-0.0437,10.6237-1.1455,15.8242c-0.1121,0.5294,0.2308,0.9573,0.7607,0.9986
				c12.9263,1.0059,25.5006,4.2888,38.5405,3.7168c11.2893-0.4953,23.222-2.1968,33.1315-7.9745
				c5.4235-3.1622,9.884-7.5568,12.9606-13.0376C833.8273,86.3626,832.7679,85.7436,832.3559,86.4341L832.3559,86.4341z"/>
		</g>
	</g>
	<g>
		<g>
			<path fill="#303030" d="M815.0054,103.2336c3.6208,15.1012,6.0464,30.1335,7.5284,45.5889c0.0838,0.874,1.4354,0.9046,1.3887,0
				c-0.7948-15.3968-3.488-31.1004-7.708-45.9222C815.9933,102.1233,814.8171,102.4484,815.0054,103.2336L815.0054,103.2336z"/>
		</g>
	</g>
	<g>
		<g>
			<path fill="#303030" d="M807.6572,107.9969c1.1783,6.2887,2.1769,12.5582,2.5323,18.9552
				c0.3401,6.1224,0.0861,12.2074-0.2706,18.3216c-0.0442,0.7575,1.064,0.7161,1.1543,0
				c1.5521-12.3122,0.6652-25.5339-2.3311-37.5759C808.5653,106.9875,807.5255,107.2938,807.6572,107.9969L807.6572,107.9969z"/>
		</g>
	</g>
	<g>
		<g>
			<path fill="#303030" d="M809.3883,186.1044c1.9931-3.6614,6.4669-4.7277,10.2952-5.1843
				c4.3958-0.5243,8.8623-0.5579,13.2699-0.1655c9.5153,0.8472,18.3763,4.4485,27.7213,6.1346
				c8.5753,1.5472,17.438,1.4543,25.9726-0.3175c5.3282-1.1061,11.989-3.6065,12.6148-9.8199
				c0.0804-0.799-1.2422-0.9759-1.4042-0.19c-1.6591,8.0477-13.4188,9.0476-19.9071,9.5434
				c-9.4489,0.722-18.445-0.9111-27.5201-3.3986c-8.4286-2.3103-16.7474-4.0809-25.5412-3.7308
				c-5.8677,0.2336-13.4077,0.7119-16.5283,6.5284C807.9996,186.1781,809.0215,186.7781,809.3883,186.1044L809.3883,186.1044z"/>
		</g>
	</g>
	<g>
		<g>
			<path fill="#303030" d="M843.2803,185.4353c-0.0859,2.9232-0.1121,5.8457-0.1229,8.7705
				c-0.0097,2.6335-0.3525,5.5175,0.0408,8.125c0.6458,4.2805,5.2916,2.8195,8.2819,2.3141
				c2.7478-0.4644,5.4979-0.9173,8.2437-1.3934c1.6306-0.2827,3.3801-0.5768,4.3937-2.0223
				c1.9842-2.8295-0.9163-6.3491-3.1272-8.0051c-0.6428-0.4814-1.4254,0.5645-0.8521,1.1043
				c0.9826,0.925,1.9933,1.8702,2.621,3.0861c1.4562,2.8207-1.06,3.9909-3.4306,4.4037c-3.2028,0.5577-6.4106,1.0885-9.6157,1.6327
				c-2.4401,0.4143-4.4449,0.9504-5.1368-2.4237c-0.3035-1.48-0.0094-3.3573-0.0136-4.8725
				c-0.0099-3.5743-0.0196-7.1469-0.1222-10.7195C844.4191,184.689,843.3023,184.6879,843.2803,185.4353L843.2803,185.4353z"/>
		</g>
	</g>
	<g>
		<g>
			<path fill="#303030" d="M847.2034,205.2229c-0.4336,10.9237-0.225,21.9025-0.2842,32.8342
				c0.1938-0.2546,0.3877-0.5092,0.5815-0.7638c-9.3305,2.0618-18.5761,4.4909-27.7028,7.3235
				c-4.2584,1.3216-8.4906,2.7267-12.6938,4.2145c-2.2946,0.8122-4.6592,1.5584-6.8912,2.5318
				c-0.9839,0.4291-1.9455,0.9057-2.5825,1.8087c-3.7491,5.3149,6.7258,10.8761,10.6414,11.1948
				c4.6324,0.377,9.9318-5.1087,5.9113-9.2679c-0.0543,0.4212-0.1086,0.8424-0.1628,1.2636
				c6.9202-3.4381,14.4041-4.6901,22.0898-4.286c0.8804,0.0463,0.8342-1.2404,0-1.3418c-7.8999-0.9604-15.8076,0.7094-22.902,4.2384
				c-0.4753,0.2365-0.5021,0.913-0.1628,1.2636c2.1067,2.1772-0.0125,5.6661-2.5255,6.381
				c-3.1808,0.9048-6.8886-1.2231-9.2638-3.1712c-1.1011-0.9031-2.7552-2.4576-2.6974-4.0497
				c0.0831-2.2879,2.8525-2.8009,4.4774-3.4026c2.9866-1.106,5.9888-2.1698,9.0055-3.1909
				c11.7678-3.9835,23.7505-7.2994,35.8804-9.9822c0.3384-0.0749,0.5798-0.4289,0.5815-0.7638
				c0.0571-10.9312,0.3828-21.9069,0.0653-32.8342C848.5431,204.3434,847.2383,204.3448,847.2034,205.2229L847.2034,205.2229z"/>
		</g>
	</g>
	<g>
		<g>
			<path fill="#303030" d="M846.3914,253.0017c-2.8576,2.6788-7.2003,8.3167-3.7238,12.134
				c3.8394,4.2158,9.483-0.7873,11.9877-3.9229c0.2477-0.3101,0.3078-0.7357,0-1.0415c-1.364-1.3548-2.0535-1.6934-1.3356-3.6418
				c0.5621-1.5254,1.1414-3.0436,1.617-4.5987c0.2142-0.7005-0.9072-1.2089-1.2101-0.5102
				c-0.9648,2.2251-1.7543,4.5243-2.5932,6.7991c-0.0885,0.24,0.0153,0.5432,0.1893,0.7161c0.7637,0.759,1.5275,1.518,2.2912,2.277
				c0-0.3472,0-0.6943,0-1.0415c-1.9203,2.4026-6.7831,7.469-9.9029,3.921c-2.7344-3.1099,1.5087-8.0235,3.6582-10.1128
				C848.0095,253.3571,847.0399,252.3938,846.3914,253.0017L846.3914,253.0017z"/>
		</g>
	</g>
	<g>
		<g>
			<path fill="#303030" d="M864.3013,241.4987c12.8007,3.3463,26.004,5.2542,39.1792,6.3454c0.9739,0.0807,0.9669-1.4351,0-1.5176
				c-13.1061-1.1179-26.0185-3.2548-38.9222-5.7601C863.9547,240.4492,863.6923,241.3394,864.3013,241.4987L864.3013,241.4987z"/>
		</g>
	</g>
	<g>
		<g>
			<path fill="#303030" d="M870.9998,251.9415c8.4952,1.1991,17.0475,1.8215,25.6224,2.036
				c-0.1178-0.435-0.2356-0.8699-0.3535-1.3049c-6.1005,3.3659-2.986,12.9596,3.9946,11.9938
				c7.7846-1.0771,7.9498-11.8003,0.8945-14.1599c-0.6736-0.2253-1.1476,0.8556-0.4899,1.162
				c4.8491,2.2593,6.2796,9.8318,0.0915,11.4374c-5.7116,1.482-8.9029-6.3732-3.7838-9.224
				c0.6207-0.3457,0.3249-1.2906-0.3535-1.3049c-8.5184-0.1794-17.0083-0.7985-25.4822-1.6713
				C870.5549,250.8454,870.4109,251.8584,870.9998,251.9415L870.9998,251.9415z"/>
		</g>
	</g>
	<g>
		<g>
			<path fill="#303030" d="M853.8599,206.3843c-1.6006,6.784-2.1384,13.8659-1.507,20.8086c0.0797,0.8759,1.4337,0.9036,1.3887,0
				c-0.3443-6.9133,0.072-13.6622,1.3444-20.4706C855.2343,205.9285,854.0499,205.5788,853.8599,206.3843L853.8599,206.3843z"/>
		</g>
	</g>
	<g>
		<g>
			<path fill="#303030" d="M900.4816,169.1797c-1.9705-18.0685-2.114-35.9332,1.1971-53.8728
				c3.2787-17.7639,9.4548-34.9224,18.1953-50.7287c0.246-0.445-0.0001-0.8779-0.4291-1.0546
				c-7.1601-2.9491-15.661-6.1756-23.2941-2.963c-6.0057,2.5276-9.3703,8.4594-11.6495,14.2485
				c-6.5023,16.5157-9.4455,35.1477-8.7405,52.8547c0.0324,0.8144,1.2712,0.8224,1.2715,0
				c0.0059-16.6199,2.2279-33.0515,7.5733-48.8282c2.1311-6.2898,5.0208-13.4574,11.3414-16.5909
				c7.3981-3.6677,16.0741-0.2305,23.1161,2.6635c-0.143-0.3515-0.286-0.7031-0.429-1.0546
				c-8.9806,15.9926-15.2091,33.4344-18.4751,51.4837c-3.1893,17.6255-3.9775,36.3051-0.7594,53.989
				C899.5095,169.9295,900.5491,169.7991,900.4816,169.1797L900.4816,169.1797z"/>
		</g>
	</g>
	<g>
		<g>
			<path fill="#303030" d="M907.8943,69.1109c-14.9073,30.513-21.9431,66.0692-18.1943,99.9352c0.0864,0.7809,1.3008,0.8141,1.248,0
				c-1.1027-17.0238-0.5953-34.0074,2.4604-50.8202c3.048-16.7702,8.373-33.0276,15.6596-48.4288
				C909.4391,69.0128,908.28,68.3214,907.8943,69.1109L907.8943,69.1109z"/>
		</g>
	</g>
	<g>
		<g>
			<path fill="#303030" d="M828.2026,59.8088c-1.7504-2.5652-3.4939-5.1362-5.3286-7.6423
				c-0.4935-0.6741-1.6251-0.0508-1.1434,0.6684c1.729,2.5815,3.5505,5.0992,5.364,7.6216
				C827.5696,61.1171,828.673,60.498,828.2026,59.8088L828.2026,59.8088z"/>
		</g>
	</g>
	<g>
		<g>
			<path fill="#303030" d="M821.1872,68.1692c-0.0062-4.3937-1.4711-9.3166-5.0258-12.1812
				c-0.5289-0.4262-1.5319,0.1488-1.0399,0.8024c2.6348,3.5001,4.6724,6.8603,4.8821,11.3788
				C820.0387,68.9261,821.1883,68.9356,821.1872,68.1692L821.1872,68.1692z"/>
		</g>
	</g>
	<g>
		<g>
			<path fill="#303030" d="M815.4213,42.4207c2.3575,2.8763,2.9023,6.9929,5.6357,9.6956c0.7725,0.7638,1.8033,1.4045,2.872,0.8161
				c1.9516-1.0744,0.7723-3.9507,1.0561-5.6414c0.5815-3.4641,3.2135-6.237,4.9978-9.1307
				c1.5537-2.5198,2.4802-5.2314,2.6476-8.1972c0.3112-5.5136-1.9058-11.4947-6.975-14.1978
				c-0.7389-0.394-1.3699,0.6811-0.6565,1.1232c4.9023,3.0381,6.9017,8.7478,6.1509,14.3389
				c-0.7277,5.4193-4.9184,8.8265-6.8269,13.7123c-0.3538,0.9057-0.6696,1.9018-0.7286,2.88
				c-0.0643,1.0663,0.5432,2.5284-0.0693,3.4661c-0.9998,1.5305-2.635-1.3674-3.2222-2.3039
				c-1.4332-2.286-2.3412-5.2742-4.169-7.2739C815.6894,41.2217,815.0175,41.9281,815.4213,42.4207L815.4213,42.4207z"/>
		</g>
	</g>
	<g>
		<g>
			<path fill="#303030" d="M832.4699,24.9599c3.8127-7.761-3.9485-13.7055-10.2238-16.4338
				c-8.8793-3.8606-18.5368-5.9586-28.1995-6.3608c-0.6407-0.0267-0.9278,0.6802-0.6821,1.1887
				c2.124,4.3968,2.6713,9.7996,0.7455,14.3852c-0.8286,1.9729-1.8881,3.8126-2.1909,5.975
				c-0.1157,0.8261-0.1683,1.775,0.2358,2.5405c0.1351,0.2561,0.6001,0.5744,0.6733,0.7994
				c0.2737,0.8408-0.317,2.2656-0.6588,3.0114c-1.5466,3.375-4.4911,5.8935-6.6274,8.8762
				c-0.2551,0.3562-0.0587,0.8984,0.2896,1.1045c1.7142,1.0142,4.3338,1.2045,4.4436,3.546
				c0.1033,2.2029-0.6318,4.4802-0.8693,6.6681c-0.4425,4.0768,0.4258,8.0124,4.8613,9.1261
				c4.4851,1.1261,9.9058,1.4641,14.3909,0.2651c2.1022-0.562,4.0988-1.5687,5.5093-3.2641
				c1.8288-2.1982,2.1674-4.9386,2.9833-7.5799c0.2692-0.8714-1.0463-1.2079-1.3504-0.3723
				c-0.9615,2.6422-1.3956,5.6395-3.5507,7.6377c-1.9061,1.7673-4.7179,2.3373-7.223,2.5401
				c-2.2192,0.1796-4.4677,0.0449-6.6749-0.2151c-2.1861-0.2575-5.1365-0.3646-6.5272-2.321
				c-2.33-3.2781-0.105-8.2655,0.0551-11.8811c0.1709-3.8598-2.48-3.9174-5.2332-5.5437c0.0965,0.3682,0.1931,0.7363,0.2896,1.1045
				c2.2499-3.146,5.3939-5.8,6.8718-9.4542c0.4536-1.1215,0.9398-2.7643,0.4766-3.9735c-0.1923-0.5019-0.6691-0.7266-0.8141-1.2802
				c-0.1864-0.712,0.1104-1.6183,0.295-2.3022c0.679-2.5147,2.1154-4.6553,2.6629-7.2219c0.9436-4.4236,0.2835-8.9268-1.6995-12.968
				c-0.2274,0.3962-0.4547,0.7925-0.6821,1.1887c7.9892,0.2831,15.8234,1.6775,23.3679,4.3399
				c6.4711,2.2836,18.6119,7.3768,14.4078,16.4962C831.6228,25.0141,832.2554,25.3966,832.4699,24.9599L832.4699,24.9599z"/>
		</g>
	</g>
	<g>
		<g>
			<path fill="#303030" d="M812.1766,35.0834c0.0766-2.1753,3.4828-1.9261,4.5175-0.6443c0.9853,1.2208,0.5093,3.0631-0.1846,4.2989
				c-0.3816,0.6795-0.8796,1.2887-1.4333,1.835c-0.2786,0.2748-0.5682,0.5253-0.878,0.7648
				c-0.1639,0.1415-0.3381,0.2685-0.5228,0.3809c-0.4286,0.3451-0.9354,0.3151-1.5202-0.09c0.5775-0.3726,0.2095-1.475-0.4966-1.178
				c-2.1353,0.898-0.5401,3.6309,1.4984,3.1362c2.8398-0.6892,5.4858-4.3529,5.5425-7.1952
				c0.0471-2.3659-1.5488-4.1218-3.9057-4.2963c-1.9135-0.1417-3.8759,0.8804-3.8533,2.9881
				C810.9488,35.8809,812.1486,35.8777,812.1766,35.0834L812.1766,35.0834z"/>
		</g>
	</g>
	<g>
		<g>
			<path fill="#303030" d="M796.5894,14.8461c2.5357,0.3388,5.1401,1.2812,7.5001,2.2397c2.7865,1.1317,6.0668,2.5825,6.209,6.0111
				c0.1565,3.7736-3.2615,9.1142,1.0475,11.6735c0.8038,0.4774,1.4794-0.7238,0.7245-1.2396
				c-2.6684-1.8231-0.8344-5.7279-0.4485-8.2652c0.3257-2.1412,0.2491-4.3441-1.2367-6.0568
				c-3.1252-3.6025-9.2823-4.8401-13.796-5.1478C796.074,14.0258,796.1039,14.7812,796.5894,14.8461L796.5894,14.8461z"/>
		</g>
	</g>
	<g>
		<g>
			<path fill="#303030" d="M790.6031,50.0825c1.9374,2.046,5.7524-0.0848,7.2624-1.6883c0.5983-0.6354-0.2878-1.4733-0.9405-0.9405
				c-1.7021,1.3893-3.6187,2.4003-5.843,1.8062C790.5998,49.1311,790.2676,49.7282,790.6031,50.0825L790.6031,50.0825z"/>
		</g>
	</g>
	<g>
		<g>
			<path fill="#303030" d="M793.211,27.157c1.3727,0.3073,2.6681,0.764,3.9734,1.281c0.6078,0.2407,1.022-0.7582,0.4448-1.0549
				c-1.2889-0.6626-2.6874-1.0866-4.1113-1.3392C792.7977,25.9162,792.4772,26.9927,793.211,27.157L793.211,27.157z"/>
		</g>
	</g>
	<g>
		<g>
			<path fill="#303030" d="M795.7339,33.4233c-0.149-0.1926-0.3804-0.6884-0.2535-0.9608c0.3519-0.7554,1.1613-0.1872,1.5233,0.113
				c0.5352,0.444,0.877,1.0722,1.3147,1.6033c0.6932,0.8411,1.5091,1.4651,2.6372,1.2501c0.5256-0.1002,0.5427-0.9931,0-1.0792
				c-2.2307-0.3538-2.6853-3.8876-5.2859-3.5321c-1.7077,0.2334-2.1938,2.919-0.3604,3.3352
				C795.7651,34.2564,795.9926,33.7576,795.7339,33.4233L795.7339,33.4233z"/>
		</g>
	</g>
	<g>
		<g>
			<path fill="#303030" d="M808.85,80.2334c0.5692-0.1046,2.1129-1.8308,2.5997-2.281c0.7344-0.6793,1.4633-1.3638,2.1898-2.0516
				c1.2103-1.146,2.421-2.2914,3.6238-3.4452c2.7659-2.6535,5.5241-5.315,8.2862-7.9725c1.3209-1.2709,2.6432-2.5404,3.9559-3.82
				c0.5765-0.562,1.2584-1.6009,1.9667-1.9198c1.5452-0.6954,3.236-0.3805,4.3876,0.7181c2.4876,2.3733,3.9964,5.6519,5.4692,8.6949
				c0.3264,0.6744,1.4788,0.1996,1.2209-0.5147c-1.2497-3.4616-3.603-7.8212-6.7085-9.9957
				c-3.6599-2.5627-6.2802,0.9131-8.8221,3.3586c-3.9626,3.8124-7.9225,7.6293-11.8577,11.47
				c-2.0247,1.9761-4.0811,3.9354-6.0298,5.9874c-0.7416,0.7809-1.3058,1.4573-0.8323,2.5215
				c0.0873,0.1964,0.3491,0.2626,0.5391,0.2194c0.0875-0.0199,0.1749-0.0398,0.2624-0.0597
				C809.6983,81.0072,809.4401,80.1249,808.85,80.2334L808.85,80.2334z"/>
		</g>
	</g>
	<g>
		<g>
			<path fill="#303030" d="M749.701,94.8036c-6.5591-0.64-13.6976-1.2088-19.4601-4.7233
				c-1.4598-0.8903-2.7996-1.9773-3.8915-3.2991c-0.6998-0.8471-1.5986-1.6975-0.2616-2.1749
				c0.4252-0.1518,1.0896-0.0193,1.5319,0.0074c2.7305,0.1649,5.3928,0.9207,8.1236,1.1018
				c0.8238,0.0547,0.9083-0.9974,0.3785-1.3976c-0.7703-0.5818-1.4803-1.24-2.2252-1.853c-0.1104,0.4178-0.2206,0.8357-0.331,1.2535
				c3.8463-0.6614,13.3213-3.0139,12.1851,3.8312c-0.0852,0.5131,0.203,0.8989,0.7232,0.9494
				c0.9384,0.091,1.8056,0.2828,2.7163,0.4963c0.939,0.2201,1.3397-1.2259,0.3987-1.4464c-1.038-0.2433-2.0555-0.4471-3.1151-0.5499
				c0.241,0.3165,0.4821,0.6329,0.7232,0.9494c1.4207-8.5584-8.8079-6.5744-14.0302-5.6763
				c-0.5343,0.0919-0.7483,0.91-0.3309,1.2535c0.8466,0.6967,1.6537,1.4266,2.5288,2.0876
				c0.1262-0.4659,0.2523-0.9317,0.3785-1.3976c-3.1955-0.212-7.024-1.7985-10.2167-1.0345
				c-3.254,0.7787-1.033,3.8576,0.3896,5.3596c5.939,6.2703,15.7115,6.9753,23.7849,7.763
				C750.6611,96.3973,750.6547,94.8966,749.701,94.8036L749.701,94.8036z"/>
		</g>
	</g>
	<g>
		<g>
			<path fill="#303030" d="M122.3248,147.564c-0.3997-5.3596,0.8677-11.0586,1.8888-16.2841
				c0.9996-5.1157,1.8743-11.3414,4.7392-15.8182c-0.2823,0.1149-0.5647,0.2298-0.847,0.3447
				c4.9411,1.1827,8.242-3.0641,9.2497-7.4604c0.6446-2.8123,0.2412-5.2063-0.7452-7.8753
				c-0.6614-1.7897-1.4625-3.5426-1.9132-5.4037c-0.2964-1.2237-0.1266-2.7449-0.6027-3.9134
				c-0.8489-2.0836-4.3946-1.7036-6.1501-1.8467c-4.4638-0.3638-8.4747-1.4947-12.8082-2.5109
				c-3.6898-0.8653-7.4423-1.3891-11.1969-1.879c-2.0453-0.2669-3.9087-0.3579-5.953-0.0906
				c-2.4594,0.3216-4.7743,0.7664-7.2346,0.1886c-0.5205-0.1223-0.8881,0.2337-0.9494,0.7232
				c-0.6974,5.5673-1.4814,11.1199-2.5755,16.6247c-0.087,0.4377,0.2035,0.9928,0.7232,0.9494
				c8.3167-0.6947,17.7954-2.1188,25.6674,1.438c0.8728,0.3944,1.6364-0.8979,0.7571-1.2952
				c-8.1891-3.7001-17.7625-2.3663-26.4245-1.6428c0.2411,0.3165,0.4821,0.6329,0.7232,0.9494
				c1.1202-5.6363,1.9151-11.3234,2.6291-17.0234c-0.3165,0.2411-0.6329,0.4821-0.9494,0.7232
				c3.1921,0.7497,6.0978-0.123,9.2907-0.3182c3.268-0.1998,6.6987,0.5482,9.9144,1.0782c3.317,0.5467,6.5362,1.353,9.7681,2.2663
				c2.9625,0.8371,5.9874,1.1079,9.0457,1.3527c1.5273,0.1223,3.7319-0.2122,4.406,1.3184c0.38,0.8629,0.2424,2.3629,0.4729,3.3068
				c0.7117,2.9145,2.4249,5.601,2.8643,8.5766c0.6496,4.3993-2.0964,11.6373-7.6104,10.3175
				c-0.3359-0.0804-0.6625,0.0564-0.847,0.3447c-2.9446,4.6015-3.8638,10.9224-4.8904,16.1765
				c-1.0429,5.3371-2.3505,11.2092-1.9424,16.6829C120.8961,148.5207,122.3967,148.5285,122.3248,147.564L122.3248,147.564z"/>
		</g>
	</g>
	<g>
		<g>
			<path fill="#303030" d="M153.9264,170.2019c4.866,0.2823,10.3477-0.1739,14.8492,2.0288
				c6.2451,3.0559,5.1722,11.7528,4.5133,17.5171c-0.829,7.2526-2.7353,14.3344-3.5472,21.5888
				c-0.9257,8.2707-0.4688,16.6176,0.4015,24.8718c0.974,9.237,2.4608,18.4157,3.1272,27.6849c0.0688,0.9572,1.5694,0.9648,1.5,0
				c-1.287-17.9021-5.7095-35.7953-3.3754-53.804c1.0124-7.8112,3.1413-15.4523,3.6669-23.332
				c0.3578-5.3634,0.5206-12.1328-4.6334-15.3282c-4.7859-2.9673-11.1184-2.4149-16.502-2.7272
				C152.962,168.646,152.9653,170.1462,153.9264,170.2019L153.9264,170.2019z"/>
		</g>
	</g>
	<g>
		<g>
			<path fill="#303030" d="M106.6285,163.3438c8.9867,0.6399,17.9379,1.6279,26.7984,3.2815
				c0.9435,0.1761,1.348-1.2693,0.3988-1.4464c-8.9916-1.6781-18.0772-2.6856-27.1971-3.335
				C105.6652,161.7752,105.6695,163.2755,106.6285,163.3438L106.6285,163.3438z"/>
		</g>
	</g>
	<g>
		<g>
			<path fill="#303030" d="M76.8882,264.3965c3.7098-13.6008,21.9337-13.2505,29.8154-23.1732
				c3.8259-4.8167,4.1764-11.2699,7.4884-16.3435c2.0472-3.136,5.4248-4.2771,8.0226-6.767
				c2.2974-2.202,3.1966-5.3264,4.0748-8.2877c1.2996-4.3821,2.561-8.7765,3.888-13.1504c1.1054-3.6436,2.6162-7.9384,6.6441-9.1335
				c0.6619-0.1964,0.3871-1.1944-0.285-1.034c-5.9726,1.426-7.2582,8.9477-8.7179,13.9309
				c-1.1578,3.9525-2.1532,8.0045-3.5242,11.8889c-0.8957,2.5376-2.1317,4.5827-4.3613,6.1586
				c-1.3785,0.9744-2.8913,1.7542-4.175,2.8624c-4.8816,4.2145-5.3501,11.1917-8.2656,16.591
				c-3.5781,6.6263-10.9152,9.2943-17.3678,12.2766c-6.1581,2.8462-12.5884,6.8883-14.3947,13.8613
				C75.536,264.8259,76.6846,265.1431,76.8882,264.3965L76.8882,264.3965z"/>
		</g>
	</g>
	<g>
		<g>
			<path fill="#303030" d="M127.1489,194.7173c-10.7785-0.4128-21.5547-0.8337-32.3362-1.1771
				c-5.0469-0.1607-10.9252,0.2093-14.6367-3.8617c-2.7248-2.9888-3.6616-7.3508-3.398-11.2953
				c0.6318-9.4544,7.8326-17.0281,11.4302-25.4431c3.1147-7.2853,4.915-15.1079,5.9315-22.9467
				c1.1553-8.9093,1.4426-18.2316-0.3199-27.0815c-0.1487-0.7467-1.2331-0.4157-1.1244,0.31
				c1.3101,8.7448,1.2785,17.6168,0.1611,26.3824c-1.1365,8.9156-3.2857,18.0134-7.401,26.0547
				c-4.0264,7.8677-10.4688,15.4288-10.0906,24.7716c0.3203,7.913,5.1396,13.5008,13.097,14.2385
				c6.3077,0.5847,12.7578,0.4412,19.0893,0.6038c6.5323,0.1677,13.0652,0.2646,19.5977,0.4054
				C127.7686,195.6916,127.7656,194.7409,127.1489,194.7173L127.1489,194.7173z"/>
		</g>
	</g>
	<g>
		<g>
			<path fill="#303030" d="M94.9761,84.8111c0.7545-6.7105,8.3839-9.1685,13.3522-5.165c0.5795,0.4669,1.4002-0.2989,0.8369-0.8369
				c-2.5244-2.4111-6.3527-3.219-9.6158-1.8859c-3.4346,1.4031-5.0976,4.4039-5.3819,7.8878
				C94.1248,85.3348,94.919,85.3189,94.9761,84.8111L94.9761,84.8111z"/>
		</g>
	</g>
	<g>
		<g>
			<path fill="#303030" d="M118.0448,61.8145c4.7739,4.8459,14.2874,10.689,19.8731,3.5685
				c2.7689-3.5297,3.6805-8.8935,4.4247-13.1854c0.9036-5.2111,1.1074-10.5018,0.6187-15.7666
				c-0.0678-0.7302-1.2093-0.7462-1.1543,0c0.6086,8.2513-0.1319,16.8088-3.0093,24.6188
				c-1.6893,4.5851-5.2319,7.1726-10.2107,6.1165c-3.9421-0.8362-6.9029-3.6859-10.0097-6.042
				C118.1718,60.8167,117.7047,61.4692,118.0448,61.8145L118.0448,61.8145z"/>
		</g>
	</g>
	<g>
		<g>
			<path fill="#303030" d="M138.8959,22.6045c4.2693-2.6659,10.1981-2.4328,13.8993,1.175
				c3.7318,3.6376,4.0102,9.3879,1.5453,13.7709c0.3752,0.049,0.7505,0.0981,1.1257,0.1471
				c-0.5698-1.5873-0.67-3.0423-0.4561-4.6856c0.0781-0.5998-0.98-0.7489-1.0646-0.1441c-0.2495,1.7836-0.123,3.4173,0.3329,5.1572
				c0.1398,0.5333,0.8448,0.5787,1.1257,0.1471c3.0378-4.6659,2.3244-11.4018-1.728-15.2735
				c-4.0873-3.9049-10.6461-4.234-15.2415-1.0834C137.9551,22.144,138.391,22.9197,138.8959,22.6045L138.8959,22.6045z"/>
		</g>
	</g>
	<g>
		<g>
			<path fill="#303030" d="M139.0136,23.034c3.2245-0.1757,6.1564,1.922,7.0253,5.0365c0.2024,0.7255,1.3273,0.4187,1.13-0.3115
				c-0.9733-3.6036-4.428-6.0497-8.1553-5.7504C138.3634,22.0609,138.3492,23.0702,139.0136,23.034L139.0136,23.034z"/>
		</g>
	</g>
	<g>
		<g>
			<path fill="#303030" d="M138.9501,16.5443c-2.9258-8.2609-14.2903-12.6159-21.6372-7.2151
				c-0.6526,0.4797-0.0737,1.5558,0.6506,1.1131c6.9929-4.2746,17.1512-1.6446,20.2181,6.3139
				C138.363,17.2266,139.1233,17.0332,138.9501,16.5443L138.9501,16.5443z"/>
		</g>
	</g>
	<g>
		<g>
			<path fill="#303030" d="M118.2965,12.3783c-10.9221-6.8461-23.0744,2.6157-27.2636,12.7948
				c-4.5966,11.1689-1.9776,23.8597,0.0421,35.3006c0.6257,3.5444,1.2582,7.0927,1.671,10.6696
				c0.5342,4.629-0.5528,9.1759-0.1142,13.7875c0.0701,0.7373,1.2061,0.7644,1.1719,0c-0.2023-4.515,0.8191-8.939,0.316-13.4607
				c-0.3585-3.2221-0.8941-6.4219-1.4509-9.6146c-1.2673-7.2661-2.7235-14.5663-2.799-21.9685
				c-0.0739-7.2441,1.4003-14.509,5.9059-20.3506c5.09-6.5993,14.1484-10.9357,22.024-6.3082
				C118.3482,13.5506,118.8322,12.7141,118.2965,12.3783L118.2965,12.3783z"/>
		</g>
	</g>
	<g>
		<g>
			<path fill="#303030" d="M133.9981,23.1597c-1.233,3.7139-4.2952,6.6641-8.0298,7.8359
				c-3.5558,1.1157-6.5743-0.6017-10.066-0.2646c-4.4545,0.43-6.436,4.4412-6.8373,8.4623
				c-0.4978,4.987,0.6986,10.2521,3.0236,14.657c2.8966,5.4879,7.638,9.6361,11.4685,14.4312
				c2.5648,3.2107,4.8264,6.7545,6.0182,10.7161c1.1374,3.7808,1.305,7.7448,1.3551,11.6668c0.0103,0.8102,1.2558,0.8122,1.2598,0
				c0.0292-6.0042-0.5897-11.8103-3.5273-17.1509c-3.1119-5.6573-7.8692-9.9934-11.8973-14.9532
				c-3.9028-4.8055-6.3977-10.4498-6.5848-16.6882c-0.075-2.4997,0.1479-5.2847,1.5574-7.4335
				c2.2122-3.3723,5.7738-2.4015,9.1585-1.9345c6.2119,0.8571,12.1341-3.195,13.8814-9.1293
				C134.9257,22.8722,134.1611,22.6688,133.9981,23.1597L133.9981,23.1597z"/>
		</g>
	</g>
	<g>
		<g>
			<path fill="#303030" d="M131.3876,60.3953c1.003,1.3678,2.8598,1.891,4.3604,1.0012c0.7176-0.4255,0.0892-1.4489-0.6447-1.103
				c-0.9838,0.4638-2.1497,0.2631-2.8874-0.5373C131.8183,59.3249,131.0289,59.9061,131.3876,60.3953L131.3876,60.3953z"/>
		</g>
	</g>
	<g>
		<g>
			<path fill="#303030" d="M136.5001,54.7158c0.9665,0.4669,2.1399,0.2623,2.7142-0.7186c0.5714-0.9758,0.1777-2.2089-0.7227-2.8141
				c-0.622-0.4181-1.1653,0.5632-0.5796,0.9916c1.0119,0.7403-0.0092,2.1372-1.0733,1.7378
				C136.3755,53.7387,136.0522,54.4994,136.5001,54.7158L136.5001,54.7158z"/>
		</g>
	</g>
	<g>
		<g>
			<path fill="#303030" d="M115.8578,46.2995c-0.3776-1.1862-1.6524-3.1858-3.0604-3.2607
				c-1.1523-0.0612-1.7176,1.3602-2.0696,2.2495c-1.3816,3.4904-0.4094,7.7687,2.539,10.1348
				c0.5628,0.4516,1.3531-0.2825,0.8121-0.8121c-1.7144-1.6783-2.7224-3.8068-2.6784-6.2343
				c0.0148-0.8172,0.1759-2.8547,0.8832-3.4057c1.1296-0.88,2.2175,1.1018,2.8836,1.7302
				C115.4551,46.9728,115.9877,46.7076,115.8578,46.2995L115.8578,46.2995z"/>
		</g>
	</g>
	<g>
		<g>
			<path fill="#303030" d="M125.8635,43.2868c2.2651-1.3982,4.6256-2.1951,7.1724-2.8958c0.6059-0.1667,0.3349-0.9991-0.2523-0.9153
				c-2.6458,0.3775-5.1546,1.5961-7.3311,3.1078C125.0279,42.8784,125.4113,43.566,125.8635,43.2868L125.8635,43.2868z"/>
		</g>
	</g>
	<g>
		<g>
			<path fill="#303030" d="M137.8638,39.8271c1.3812-0.9511,2.8798-1.4446,4.5367-1.6461c0.6029-0.0733,0.6419-0.995,0-0.9727
				c-1.8248,0.0635-3.5382,0.7557-4.9832,1.8548C136.9758,39.3989,137.3858,40.1563,137.8638,39.8271L137.8638,39.8271z"/>
		</g>
	</g>
	<g>
		<g>
			<path fill="#303030" d="M127.9171,48.8005c1.8981,0.1923,4.0445,0.0084,5.9257-0.3035c0.689-0.1142,0.5034-1.185-0.1612-1.1912
				c-1.8972-0.0177-4.0439,0.148-5.8813,0.6315C127.2923,48.071,127.4471,48.7529,127.9171,48.8005L127.9171,48.8005z"/>
		</g>
	</g>
	<g>
		<g>
			<path fill="#303030" d="M132.4772,47.767c0.9538-0.8556,0.9599-2.6442-0.3028-3.243c-0.5433-0.2576-1.2223,0.4473-0.6923,0.8973
				c0.4588,0.3896,0.8264,1.1783,0.3695,1.7201C131.4867,47.5742,132.0486,48.1515,132.4772,47.767L132.4772,47.767z"/>
		</g>
	</g>
	<g>
		<g>
			<path fill="#303030" d="M137.871,46.8212c0.9466-0.4,1.9195-0.3183,2.8872-0.0741c0.606,0.1529,1.0678-0.7907,0.4447-1.0549
				c-1.2607-0.5346-2.6248-0.3379-3.7608,0.3954C136.9699,46.3924,137.3789,47.0291,137.871,46.8212L137.871,46.8212z"/>
		</g>
	</g>
	<g>
		<g>
			<path fill="#303030" d="M140.2811,46.0805c0.7018-0.7611,0.9482-1.7589,0.6119-2.7479c-0.225-0.6615-1.2469-0.3952-1.0566,0.2913
				c0.1792,0.6462,0.064,1.32-0.3099,1.8744C139.2216,45.9502,139.9125,46.4802,140.2811,46.0805L140.2811,46.0805z"/>
		</g>
	</g>
	<g>
		<g>
			<path fill="#303030" d="M101.8581,76.7988c1.0141-2.4963,1.6468-5.0308,1.9828-7.7014
				c-0.2598,0.1491-0.5196,0.2982-0.7794,0.4473c6.0515,3.8228,5.9531,16.4833,14.8768,16.1666c0.727-0.0258,0.7125-1.0626,0-1.1191
				c-4.9922-0.3963-6.9487-4.9173-8.7963-8.8883c-1.3258-2.8495-2.8318-5.3714-5.5576-7.0537
				c-0.3662-0.226-0.7366,0.0786-0.7794,0.4473c-0.2987,2.5708-0.8913,5.0403-1.7435,7.4817
				C100.8831,77.09,101.6628,77.2795,101.8581,76.7988L101.8581,76.7988z"/>
		</g>
	</g>
	<g>
		<g>
			<path fill="#303030" d="M111.2556,205.3293c-8.0281,3.5231-17.6656,0.8484-25.9406-0.3519
				c-7.6535-1.1101-16.5026-1.4385-22.6169-6.7661c-0.6336-0.5521-1.5474,0.3345-0.9322,0.9322
				c6.2024,6.0273,16.0706,6.2056,24.1348,7.3616c8.3846,1.202,17.9067,3.7195,25.905-0.2349
				C112.4435,205.955,111.8847,205.0532,111.2556,205.3293L111.2556,205.3293z"/>
		</g>
	</g>
	<g>
		<g>
			<path fill="#303030" d="M58.4084,191.8003c9.5454-36.8264,7.9319-77.5864-4.0344-113.6697
				c-2.6293-7.9286-6.3424-15.856-13.527-20.6009c-0.3493-0.2307-0.8383,0.0016-0.9432,0.3837
				c-2.2287,8.1145-0.1051,16.2888,1.837,24.2302c2.138,8.7423,3.9493,17.5594,5.372,26.4468
				c2.8849,18.0224,4.2265,36.2955,4.0178,54.5458c-0.1059,9.262-1.9412,19.4252,1.1098,28.3743
				c0.2681,0.7863,1.5151,0.4555,1.2543-0.3458c-2.6585-8.1675-1.1272-17.1958-0.9658-25.6187
				c0.1662-8.6748-0.0218-17.3563-0.559-26.016c-1.0684-17.2218-3.5248-34.3595-7.3396-51.1875
				c-2.2048-9.7262-6.2623-20.0857-3.4882-30.0876c-0.3144,0.1279-0.6288,0.2558-0.9432,0.3837
				c6.8657,4.5674,10.3637,12.2693,12.8726,19.8511c2.794,8.4433,4.9127,17.1397,6.5231,25.8827
				c3.3599,18.2422,4.2715,36.9392,2.7397,55.424c-0.8863,10.6948-2.682,21.2359-5.0164,31.7033
				C57.1603,192.2068,58.2249,192.5084,58.4084,191.8003L58.4084,191.8003z"/>
		</g>
	</g>
	<g>
		<g>
			<path fill="#303030" d="M41.4038,59.1955c4.3187-0.202,8.6359-0.4199,12.9518-0.6748c3.9816-0.2352,8.2524-0.9001,12.2178-0.2368
				c4.4836,0.7499,6.6651,3.9535,8.4043,7.8349c1.7451,3.8945,3.0544,7.9609,4.0723,12.1015
				c0.1861,0.7572,1.3276,0.4355,1.1639-0.3209c-0.9586-4.4291-2.3736-8.7391-4.2844-12.8516
				c-1.4285-3.0744-3.2346-5.9818-6.5011-7.3111c-3.7838-1.5398-8.132-0.8648-12.0839-0.5928
				c-5.3163,0.3659-10.6294,0.7582-15.9407,1.1902C40.8584,58.3785,40.8446,59.2217,41.4038,59.1955L41.4038,59.1955z"/>
		</g>
	</g>
	<g>
		<g>
			<path fill="#303030" d="M85.7944,210.9734c1.6572,3.5862-0.6045,9.3023,3.1295,11.9906
				c1.3531,0.9742,3.0121,0.8923,4.6001,0.8293c3.0107-0.1194,6.0206-0.2614,9.0308-0.392c0.2683-0.0116,0.5545-0.1886,0.615-0.4682
				c0.7813-3.6096,1.041-7.2185,0.7117-10.9008c-0.0697-0.7793-1.2873-0.7953-1.2305,0c0.1069,1.4971,0.1547,2.9947,0.0952,4.4953
				c-0.0544,1.3737,0.0282,3.5487-0.534,4.7442c-0.6192,1.3168-2.0965,0.9622-3.4599,1.0227
				c-1.5843,0.0703-3.1686,0.1434-4.7531,0.2109c-1.8095,0.0772-3.7431,0.2653-5.0014-1.2849
				c-0.9001-1.1089-1.0899-2.6581-1.1721-4.0387c-0.1423-2.3922,0.0599-4.5648-1.1309-6.7347
				C86.367,209.8493,85.5175,210.3742,85.7944,210.9734L85.7944,210.9734z"/>
		</g>
	</g>
	<g>
		<g>
			<path fill="#303030" d="M89.7155,226.9863c-0.0805,4.2933-0.0795,8.6279,0.151,12.9162c0.0385,0.717,1.0932,0.7235,1.1191,0
				c0.1537-4.2914,0.0767-8.6252-0.0807-12.9162C90.877,226.223,89.7299,226.2181,89.7155,226.9863L89.7155,226.9863z"/>
		</g>
	</g>
	<g>
		<g>
			<path fill="#303030" d="M95.23,226.3057c-0.1758,4.9749-0.0932,9.9798-0.0322,14.9569c0.0099,0.8067,1.244,0.8081,1.2539,0
				c0.0609-4.9771,0.1436-9.9819-0.0322-14.9569C96.3924,225.5407,95.257,225.5394,95.23,226.3057L95.23,226.3057z"/>
		</g>
	</g>
	<g>
		<g>
			<path fill="#303030" d="M81.1009,247.5712c-0.7387,1.5641-4.1217,1.2498-5.552,1.4386c-1.7948,0.237-3.572,0.5914-5.3246,1.0444
				c-3.5313,0.9127-6.9505,2.2209-10.3116,3.6256c-4.6418,1.9399-12.0115,3.9063-11.6301,10.2364
				c0.2719,4.5125,5.1791,7.6224,9.3543,5.7766c4.0801-1.8038,4.9079-7.4943,0.7411-9.7221
				c-0.0508,0.3887-0.1016,0.7773-0.1524,1.166c4.4379-0.6328,8.9162-1.1107,13.3256-1.9198
				c0.6011-0.1103,0.471-1.1327-0.1456-1.0761c-4.4647,0.4094-8.9058,1.1562-13.3496,1.7428
				c-0.572,0.0755-0.937,0.8517-0.322,1.1888c3.0979,1.6983,2.6601,5.845-0.4253,7.3576c-2.5595,1.2548-5.8398,0.0692-7.1393-2.4331
				c-3.1605-6.0856,4.855-8.8171,8.9832-10.5874c4.4085-1.8905,8.9121-3.63,13.6106-4.653c2.1356-0.465,4.3138-0.5238,6.4494-0.9111
				c1.2598-0.2285,2.1643-0.5956,2.708-1.795C82.1697,247.5006,81.3632,247.0158,81.1009,247.5712L81.1009,247.5712z"/>
		</g>
	</g>
	<g>
		<g>
			<path fill="#303030" d="M82.2631,242.5508c-2.9611-0.8432-5.9611-1.851-8.9879-2.425c-1.6653-0.3158-3.487-0.337-4.8863,0.764
				c-2.1508,1.6924-1.5016,5.5727,1.6041,5.2865c0.7462-0.0688,0.7702-1.2228,0-1.1836c-1.4362-2.6903-0.9395-3.9932,1.4903-3.9087
				c0.4959,0.0484,0.9918,0.0969,1.4877,0.1453c1.0144,0.1658,2.015,0.4857,3.0083,0.7444c2.0044,0.5222,4.0092,1.0371,6.0205,1.532
				C82.6185,243.6579,82.8772,242.7257,82.2631,242.5508L82.2631,242.5508z"/>
		</g>
	</g>
	<g>
		<g>
			<path fill="#303030" d="M96.3545,101.9552c2.674,8.6246,4.8431,17.1406,5.3615,26.2037
				c0.3929,6.8699,0.1409,13.8804,4.702,19.5258c7.4133,9.1756,20.4565,11.142,28.3736,19.9019
				c0.4224,0.4673,1.2803-0.1686,0.888-0.6852c-7.0152-9.24-19.8657-10.8269-27.5439-19.268
				c-5.6218-6.1804-4.6234-14.5336-5.3108-22.2613c-0.717-8.0607-2.3897-16.3281-5.5923-23.7871
				C97.0173,101.0833,96.1951,101.4413,96.3545,101.9552L96.3545,101.9552z"/>
		</g>
	</g>
	<g>
		<g>
			<path fill="#303030" d="M110.4603,102.7112c-0.28,3.2274-0.0676,6.5517-0.172,9.797c-0.1065,3.3119-0.2486,6.626-0.2133,9.9404
				c0.0321,3.0193,0.1041,6.0128,0.0653,9.0332c-0.0332,2.5776,0.1995,5.1551,1.5514,7.4133
				c1.4584,2.4362,3.7487,4.2688,5.8644,6.1049c2.7648,2.3995,5.531,4.7973,8.2965,7.196
				c5.2826,4.5818,10.4001,9.6235,16.0275,13.7752c0.5873,0.4333,1.2518-0.4938,0.7633-0.9893
				c-4.6374-4.7031-10.0467-8.8044-15.0425-13.1258c-2.5173-2.1774-5.0345-4.3549-7.5518-6.5323
				c-2.4543-2.123-5.5257-4.2621-7.1671-7.1245c-1.6402-2.8603-1.3821-6.0734-1.3118-9.2448
				c0.0646-2.9126-0.1822-5.8222-0.1607-8.7372c0.0421-5.7138,1.043-11.9868-0.0744-17.6244
				C111.2313,102.0691,110.501,102.2422,110.4603,102.7112L110.4603,102.7112z"/>
		</g>
	</g>
	<g>
		<g>
			<path fill="#303030" d="M134.7396,167.573c0.7064,1.4846,2.5054,1.7334,3.946,2.2351c2.6179,0.9118,5.2352,1.8255,7.8541,2.7347
				c2.2757,0.79,4.4174,1.8457,6.6514,2.7015c1.1848,0.4539,2.4297,0.327,3.0676-0.8612c1.449-2.6992-1.7686-6.3055-3.5432-7.9329
				c-1.4033-1.2869-3.2651-2.9356-5.02-3.6759c-0.3861-0.1629-0.7635-0.2587-1.1725-0.2547c-1.8206,0.018-3.0597,0.97-5.0551,0.6381
				c-0.8535-0.142-1.2173,1.1674-0.3598,1.3052c1.1081,0.178,2.1601,0.2414,3.27,0.0216c0.5877-0.1164,1.2606-0.5624,1.8414-0.5836
				c1.0399-0.0381,1.8897,0.677,2.6828,1.2224c1.3186,0.9067,2.617,1.8572,3.7426,3.0002c0.7485,0.7602,3.2605,3.5556,2.6678,4.7921
				c-0.8067,0.2732-1.6135,0.5463-2.4202,0.8195c-0.3621-0.1958-0.7319-0.3755-1.1095-0.539
				c-0.4226-0.1927-0.8512-0.3713-1.2831-0.5422c-1.6238-0.6425-3.2932-1.1795-4.9428-1.7507
				c-1.4551-0.5039-2.9106-1.0066-4.3659-1.51c-1.3738-0.4751-4.7424-1.0404-5.4346-2.4144
				C135.4135,166.2977,134.4168,166.8946,134.7396,167.573L134.7396,167.573z"/>
		</g>
	</g>
	<g>
		<g>
			<path fill="#303030" d="M125.8551,119.5488c0.6061,8.0984,3.2534,16.1356,6.237,23.6367
				c1.5334,3.8549,3.2421,7.6441,5.1526,11.3272c1.7265,3.3282,3.5022,6.9415,5.9221,9.8272
				c0.4221,0.5033,1.1546-0.1382,0.8743-0.6745c-1.7463-3.3409-3.9262-6.4541-5.6681-9.8121
				c-1.9869-3.8303-3.7806-7.7616-5.3626-11.7762c-2.8953-7.3472-4.9357-14.872-6.2863-22.6458
				C126.6393,118.9432,125.8179,119.0519,125.8551,119.5488L125.8551,119.5488z"/>
		</g>
	</g>
	<g>
		<g>
			<path fill="#303030" d="M122.2476,140.0914c2.3384,5.2756,5.2058,10.3081,7.7588,15.4805
				c0.3227,0.6539,1.2718,0.0817,0.9714-0.5678c-2.421-5.2348-5.2354-10.2867-7.8701-15.4154
				C122.8099,139.0088,121.9933,139.5177,122.2476,140.0914L122.2476,140.0914z"/>
		</g>
	</g>
	<g>
		<g>
			<path fill="#303030" d="M121.5646,158.4091c-0.2921,1.7366-0.1065,4.2653,0.6983,5.8524c0.2667,0.526,1.0703,0.257,1.0755-0.2913
				c0.0084-0.8936-0.2707-1.7785-0.395-2.6629c-0.1357-0.9664-0.1634-1.9432-0.3731-2.8982
				C122.4641,157.9255,121.6506,157.8979,121.5646,158.4091L121.5646,158.4091z"/>
		</g>
	</g>
	<g>
		<g>
			<path fill="#303030" d="M107.8328,191.3258c8.7022-1.2055,17.2606-3.5176,25.4842-6.5851
				c0.6604-0.2464,0.3793-1.3126-0.2944-1.0679c-8.296,3.0134-16.7637,5.1597-25.4375,6.7546
				C106.9868,190.5375,107.2536,191.406,107.8328,191.3258L107.8328,191.3258z"/>
		</g>
	</g>
	<g>
		<g>
			<path fill="#303030" d="M117.4073,183.4856c1.9646,0.8537,4.0561,0.7981,5.9409-0.2403
				c0.5893-0.3247,0.0662-1.2142-0.5264-0.9006c-1.5289,0.8092-3.2907,0.9272-4.894,0.2504
				C117.3259,182.341,116.7969,183.2203,117.4073,183.4856L117.4073,183.4856z"/>
		</g>
	</g>
	<g>
		<g>
			<path fill="#303030" d="M101.6409,156.8448c3.4825,1.0306,6.1167,3.2668,8.0022,6.3327c0.3999,0.6502,1.355,0.0804,1.0169-0.5944
				c-1.7259-3.445-5.026-5.8688-8.7201-6.823C101.2379,155.5786,100.9466,156.6394,101.6409,156.8448L101.6409,156.8448z"/>
		</g>
	</g>
	<g>
		<g>
			<path fill="#303030" d="M108.8502,159.0683c1.0597,0.6119,1.8882,1.508,2.4159,2.6121c0.2787,0.5832,1.1168,0.074,0.8601-0.5027
				c-0.5694-1.2791-1.5426-2.3046-2.7939-2.9341C108.7869,157.9693,108.3132,158.7582,108.8502,159.0683L108.8502,159.0683z"/>
		</g>
	</g>
	<g>
		<g>
			<path fill="#303030" d="M829.5762,141.6847c1.1471,0.9234,3.0844,1.2262,4.4094,1.8808c1.262,0.6234,2.4796,1.3525,3.6172,2.1816
				c2.5259,1.841,4.6225,4.1059,6.4288,6.6469c0.4122,0.5797,1.3582,0.059,0.9714-0.5678c-2.1548-3.4919-5.1529-6.3585-8.6916-8.434
				c-1.553-0.9109-6.4622-4.109-7.8293-1.7562c-0.1642,0.2827-0.0469,0.5976,0.2035,0.7761
				c0.0708,0.0505,0.1416,0.101,0.2124,0.1514C829.4103,142.9287,830.072,142.0838,829.5762,141.6847L829.5762,141.6847z"/>
		</g>
	</g>
	<g>
		<g>
			<path fill="#303030" d="M833.7429,137.933c3.2303,1.0674,6.0547,2.7507,8.5587,5.0517c0.4898,0.4502,1.212-0.2629,0.7333-0.7333
				c-2.5365-2.4926-5.6192-4.2646-9.0381-5.2394C833.4019,136.8424,833.1627,137.7413,833.7429,137.933L833.7429,137.933z"/>
		</g>
	</g>
	<g>
		<g>
			<path fill="#303030" d="M847.4614,119.123c-3.2557-6.222-5.7995-12.6963-7.4893-19.5162
				c-0.1833-0.7401-1.3146-0.4268-1.1413,0.3146c1.6177,6.9195,4.1526,13.5821,7.6945,19.7486
				C846.8743,120.2775,847.7841,119.7396,847.4614,119.123L847.4614,119.123z"/>
		</g>
	</g>
	<g>
		<g>
			<path fill="#303030" d="M778.5728,177.3902c1.9006,0.4647,3.8227,0.8507,5.738,1.2504c0.3675,0.0767,0.6768-0.1065,0.8043-0.4567
				c0.5281-1.451-0.6448-1.815-0.9985-3.0452c-0.311-0.3262-0.2371-0.6964,0.2218-1.1106c-0.0111-0.7888,0.3055-1.0901,0.95-0.9038
				c0.7119-0.1593,1.4452,0.2866,2.1169,0.4625c0.9384,0.2458,1.6479,0.3089,2.598,0.0737c0.5892-0.1458,0.4708-1.0833-0.144-1.0646
				c-2.0753,0.0629-5.2458-1.9866-7.0353,0.0919c-1.7802,2.0675,1.6802,3.3488,1.0302,5.1484
				c0.2681-0.1522,0.5362-0.3044,0.8043-0.4567c-1.923-0.3804-3.847-0.7759-5.7819-1.0911
				C778.1671,176.1729,777.844,177.2121,778.5728,177.3902L778.5728,177.3902z"/>
		</g>
	</g>
	<g>
		<g>
			<path fill="#303030" d="M794.7787,89.8312c0.3708,1.5837,0.7515,3.1614,1.2157,4.7207c0.2126,0.7145,1.2729,0.4175,1.113-0.3069
				c-0.3506-1.5886-0.783-3.153-1.227-4.7176C795.6794,88.8187,794.6111,89.1154,794.7787,89.8312L794.7787,89.8312z"/>
		</g>
	</g>
	<g>
		<g>
			<path fill="#303030" d="M800.5616,89.9031c0.4008,0.9655,0.8687,1.899,1.3763,2.8127c0.347,0.6246,1.2251,0.0762,0.941-0.5501
				c-0.4122-0.9088-0.8566-1.8059-1.3696-2.6622C801.2201,89.0206,800.329,89.3427,800.5616,89.9031L800.5616,89.9031z"/>
		</g>
	</g>
	<g>
		<g>
			<path fill="#303030" d="M121.8216,113.4213c1.3876,1.389,3.3853,2.291,5.3581,2.2491c0.6694-0.0142,0.874-1.0812,0.1643-1.2142
				c-1.8-0.3376-3.2959-0.91-4.7626-2.0196C122.0039,111.9997,121.3313,112.9305,121.8216,113.4213L121.8216,113.4213z"/>
		</g>
	</g>
	<g>
		<g>
			<path fill="#FFFFFF" d="M149.3931,155.8289c-2.1286-7.0756,1.78-14.7859,8.9906-16.8559
				c2.4341-0.6988,1.3906-4.1657-1.0301-3.7366c-9.5059,1.6851-15.297,13.3011-11.1733,21.947
				C147.0423,158.9908,149.961,157.7168,149.3931,155.8289L149.3931,155.8289z"/>
		</g>
	</g>
	<g>
		<g>
			<path fill="#FFFFFF" d="M160.0199,155.9129c-1.4794,4.1434,0.7407,8.6073,4.7273,10.2111
				c1.8199,0.7322,2.7303-2.0312,1.2702-3.0129c-2.0321-1.3663-3.1674-3.8658-2.6677-6.2802
				C163.8023,154.6439,160.7667,153.8212,160.0199,155.9129L160.0199,155.9129z"/>
		</g>
	</g>
	<g>
		<g>
			<path fill="#FFFFFF" d="M149.9411,112.549c-1.2641-3.9697,0.2645-8.0898,3.786-10.3278
				c1.5065-0.9575,0.5496-3.7731-1.2823-3.0415c-5.7648,2.3022-8.3192,9.1097-5.6452,14.6937
				C147.6406,115.6296,150.529,114.3952,149.9411,112.549L149.9411,112.549z"/>
		</g>
	</g>
	<g>
		<g>
			<path fill="#FFFFFF" d="M147.5889,87.7573c-2.7704-7.0359,3.4234-12.4213,8.0296-16.7429
				c1.8016-1.6902-0.8008-4.0717-2.6406-2.6406c-6.2037,4.8257-12.8575,12.4665-8.5733,20.7259
				C145.2962,90.8187,148.3205,89.6152,147.5889,87.7573L147.5889,87.7573z"/>
		</g>
	</g>
	<g>
		<g>
			<path fill="#FFFFFF" d="M782.514,151.9574c1.2738-1.9333,2.5266-3.8673,3.7233-5.8493c1.015-1.6811-1.5586-3.1567-2.6174-1.5299
				c-1.2625,1.9397-2.4575,3.9088-3.6425,5.8966C779.0019,152.1116,781.4803,153.5261,782.514,151.9574L782.514,151.9574z"/>
		</g>
	</g>
	<g>
		<g>
			<path fill="#FFFFFF" d="M712.7208,93.9155c5.9999,3.9921,8.0316,11.1812,5.8367,17.8936
				c-0.6449,1.9722,2.4452,3.3175,3.3842,1.4267c3.8911-7.8347,0.326-18.3595-7.4781-22.302
				C712.4759,89.9296,710.8663,92.6816,712.7208,93.9155L712.7208,93.9155z"/>
		</g>
	</g>
	<g>
		<g>
			<path fill="#FFFFFF" d="M704.2457,105.822c7.7541-6.8069,7.9115-21.1714-2.106-26.1673
				c-1.6425-0.8192-3.5388,1.2839-2.0544,2.6626c3.0259,2.8106,5.5631,5.9275,6.0551,10.1735
				c0.4784,4.1279-1.0953,8.3262-3.8945,11.3314C700.9958,105.1642,702.8829,107.0183,704.2457,105.822L704.2457,105.822z"/>
		</g>
	</g>
	<g>
		<g>
			<path fill="#FFFFFF" d="M713.3581,78.2238c3.2345-2.7628,4.5419-7.1553,3.2026-11.208c-0.6531-1.9765-3.6393-1.1808-3.1339,0.864
				c0.7321,2.9621-0.0515,6.0313-2.2231,8.1896C709.7941,77.4702,711.8846,79.4824,713.3581,78.2238L713.3581,78.2238z"/>
		</g>
	</g>
	<g>
		<g>
			<path fill="#FFFFFF" d="M675.3517,105.6937c1.434,3.1676,5.2159-0.0221,6.3334-1.7181
				c2.1459-3.2568,2.0113-7.4422,0.5738-10.9381c-3.0625-7.448-10.9043-14.615-18.5992-16.973
				c-2.0057-0.6146-3.1096,2.2449-1.3967,3.3128c4.7394,2.9547,9.2268,5.692,12.8785,10.0237
				c1.7769,2.1078,3.4656,4.5571,4.0231,7.3054c0.2656,1.3086,0.277,2.6355-0.0963,3.9253c-0.145,0.5007-0.337,1.0128-0.5947,1.4668
				c-0.6851,1.2075-1.0769,0.7378-0.3292,1.9628C677.0386,102.2493,674.5081,103.8301,675.3517,105.6937L675.3517,105.6937z"/>
		</g>
	</g>
	<g>
		<g>
			<path fill="#FFFFFF" d="M694.0822,86.8476c4.5914-4.265,5.8559-11.0932,2.4185-16.489
				c-1.1536-1.8108-3.7998-0.2336-2.8603,1.6719c2.0023,4.0607,1.5158,9.3746-1.6464,12.7289
				C690.6871,86.1457,692.6885,88.1422,694.0822,86.8476L694.0822,86.8476z"/>
		</g>
	</g>
	<g>
		<g>
			<path fill="#FFFFFF" d="M702.3269,220.02c2.1127,1.4052,5.6218,0.8753,8.0221,0.552c2.6693-0.3595,5.3519-1.2104,7.5801-2.7584
				c3.7466-2.603,7.0892-7.9706,4.9691-12.537c-0.7974-1.7173-3.1848-0.6924-3.2902,0.8911
				c-0.1426,2.1428-0.0895,3.9213-1.3325,5.8071c-1.0493,1.5919-2.5422,2.822-4.2679,3.6254
				c-1.8926,0.8811-4.0282,1.2822-6.096,1.4618c-1.8907,0.1642-3.868-0.1863-5.5847,0.7048
				C701.4077,218.244,701.5571,219.508,702.3269,220.02L702.3269,220.02z"/>
		</g>
	</g>
	<g>
		<g>
			<path fill="#FFFFFF" d="M720.493,201.9049c4.0969,3.7005,10.5287,4.0306,15.0654,0.887
				c4.6595-3.2287,6.5264-9.3638,4.8334-14.6958c-0.6128,0.8044-1.2256,1.6089-1.8384,2.4133
				c7.4883-0.4018,16.7509-3.2539,17.5067-12.058c0.1656-1.9302-2.9998-2.3612-3.3915-0.459
				c-1.3856,6.7293-8.106,8.4341-14.1152,8.704c-1.1936,0.0536-2.2211,1.1805-1.8384,2.4133
				c1.1826,3.8088,0.0825,8.1966-3.2344,10.6003c-3.4078,2.4695-7.857,2.0796-11.3688,0.0967
				C720.8265,199.0809,719.3363,200.8602,720.493,201.9049L720.493,201.9049z"/>
		</g>
	</g>
	<g>
		<g>
			<path fill="#FFFFFF" d="M744.9739,180.3352c5.9894-0.4161,11.5799-4.2828,14.2397-9.6316
				c0.9658-1.9423-1.7195-3.5321-2.9142-1.7034c-2.8568,4.3727-6.7548,6.9466-11.7283,8.3579
				C742.978,177.8101,743.2198,180.457,744.9739,180.3352L744.9739,180.3352z"/>
		</g>
	</g>
	<g>
		<g>
			<path fill="#FFFFFF" d="M187.8461,238.7807c-2.6862-0.2739-2.7203-4.3772-2.5824-6.3448
				c0.1941-2.7698,1.1258-5.4866,2.4213-7.9261c1.2693-2.3903,2.871-4.5805,4.584-6.6691c1.1713-1.4281,3.9692-5.9714,6.1762-5.1772
				c2.2936,0.8254,3.2815-2.827,1.0052-3.6462c-3.7777-1.3595-6.5213,2.2254-8.6751,4.767
				c-2.8542,3.3681-5.5936,6.8879-7.3425,10.9738c-1.8624,4.3508-4.1195,18.4097,4.7498,16.5086
				C189.6771,240.9464,189.1709,238.9158,187.8461,238.7807L187.8461,238.7807z"/>
		</g>
	</g>
	<g>
		<g>
			<path fill="#FFFFFF" d="M190.5429,211.3185c0.6921,0.2415,0.7127,0.0892,0.0618-0.4567
				c-0.2619-0.5959-0.4877-1.2051-0.6772-1.8274c-0.2565-0.8698-0.4358-1.7523-0.5069-2.6581
				c-0.1516-1.9318,0.1135-3.9475,0.8217-5.7555c1.4648-3.7392,4.6606-6.3038,8.4205-7.4907
				c2.043-0.6449,1.2012-3.7885-0.8889-3.2243c-5.9892,1.6166-10.6846,6.688-11.5984,12.8624
				c-0.4388,2.9649-0.0666,6.3074,1.3192,8.9996c0.9178,1.783,2.8895,3.3702,4.686,1.6735
				C193.2855,212.3978,191.8465,210.4841,190.5429,211.3185L190.5429,211.3185z"/>
		</g>
	</g>
	<g>
		<g>
			<path fill="#FFFFFF" d="M191.9592,195.0037c-1.4374-6.6185-3.8573-15.2321,2.7134-20.0276
				c1.4619-1.0669,0.1439-3.4919-1.4511-2.4825c-7.947,5.0291-6.3543,15.6185-3.7031,23.183
				C190.0553,197.2087,192.3074,196.607,191.9592,195.0037L191.9592,195.0037z"/>
		</g>
	</g>
	<g>
		<g>
			<path fill="#FCE0DE" d="M181.6171,180.3575c-3.8125,17.9571-5.0248,36.1119-4.798,54.4471
				c1.3324-0.1803,2.6647-0.3606,3.9971-0.541c-0.9569-5.1124,0.4148-10.2962,3.6745-14.3302
				c2.312-2.8612,4.6716-7.2696,0.4786-9.7883c-1.1832-0.7108-2.5046,0.0119-2.938,1.1953
				c-1.2368,3.3768-2.4737,6.7536-3.7105,10.1304c-0.743,2.0285,1.9716,3.1368,3.3428,1.9459
				c4.3513-3.7795,4.1479-9.6422,3.0876-14.8267c-0.8234-4.0266-2.795-10.8222,1.7935-13.3552
				c-0.9121-0.9121-1.8243-1.8242-2.7364-2.7364c-2.1098,3.6871-3.6449,7.6007-4.5689,11.7483
				c-0.4715,2.1162,2.5518,3.6291,3.6468,1.5375c1.4441-2.7583,2.9039-5.5091,4.3324-8.2755
				c1.0998-2.1298,1.9975-4.2391,0.9588-6.5847c-1.1123-2.5117-2.5902-4.232-2.8575-7.1062
				c-0.2519-2.7081,0.0915-5.4455,0.4361-8.1289c-1.2753,0-2.5505,0-3.8258,0c-0.3951,6.687-0.8514,13.37-1.2949,20.0539
				c-0.4221,6.36-0.8947,12.3698,0.2178,18.6747c1.06,6.0073-2.8152,11.7381-3.5378,17.6768
				c-0.6245,5.1323,0.3954,10.2503,3.8517,14.2083c1.5092,1.7283,3.975-0.7826,2.508-2.508
				c-3.7442-4.404-3.2817-10.492-1.8247-15.705c0.7555-2.7031,1.9355-5.2825,2.639-7.9948
				c0.6705-2.5854,0.3604-5.0247-0.1137-7.6121c-1.0706-5.8431-0.2528-11.8335,0.1237-17.718
				c0.407-6.3594,0.8036-12.7193,1.2566-19.0757c0.1511-2.1198-3.4556-2.6539-3.7574-0.5085
				c-0.6212,4.4148-1.2613,9.118,0.4049,13.3898c0.3563,0.9135,0.7984,1.7553,1.3181,2.5857
				c1.1279,1.802,0.757,3.0122-0.1582,4.7851c-1.3528,2.6205-2.7487,5.2197-4.1228,7.8291c1.2156,0.5125,2.4312,1.025,3.6468,1.5375
				c0.8607-3.8201,2.2296-7.3907,4.1749-10.7902c1.0063-1.7587-0.9926-3.699-2.7364-2.7364
				c-4.1167,2.2725-5.1322,7.0399-4.7798,11.4185c0.4494,5.5824,4.2007,12.9489-0.9109,17.3889
				c1.1143,0.6486,2.2285,1.2973,3.3428,1.9459c1.2368-3.3768,2.4737-6.7536,3.7105-10.1304
				c-0.9793,0.3984-1.9587,0.7968-2.938,1.1953c1.59,0.9551-2.1779,4.5339-2.8142,5.4534
				c-1.0528,1.5213-1.8597,3.1998-2.4803,4.9399c-1.3082,3.668-1.4636,7.5465-0.7641,11.3533
				c0.4199,2.285,4.0175,1.7132,3.9971-0.541c-0.1635-18.0619,1.21-36.1798,2.9534-54.146
				C183.9653,179.3905,181.8809,179.1147,181.6171,180.3575L181.6171,180.3575z"/>
		</g>
	</g>
	<g>
		<g>
			<path fill="#FCE0DE" d="M161.1668,163.087c-0.4818-2.5438-0.6472-5.1349-1.14-7.6715c-0.3141-1.617-2.6625-1.1304-2.7469,0.3718
				c-0.1512,2.6911,0.5421,5.4521,1.3707,7.9934C159.1756,165.3906,161.4778,164.7292,161.1668,163.087L161.1668,163.087z"/>
		</g>
	</g>
	<g>
		<g>
			<path fill="#FCE0DE" d="M143.5477,152.3033c-0.044-2.8904,0.3205-5.7344,1.1873-8.4954
				c0.6476-2.0625,1.5027-4.1407,1.0671-6.3441c-0.4088-2.0676-1.7146-3.9695-2.7255-5.7819
				c-1.4003-2.5107-4.0941-5.7703-3.5085-8.7871c0.3224-1.6609-1.9953-2.8883-2.8834-1.2156
				c-2.2793,4.293-3.1292,9.0086-2.2352,13.8099c1.0212,5.484,2.8845,10.9048,4.3591,16.2826c0.3944,1.4383,2.866,1.6457,3.125,0
				c0.5051-3.2093,0.2771-6.315-0.3473-9.4933c-0.3421-1.7414-0.7903-3.4598-1.1926-5.1877
				c-0.3029-1.3012-1.5274-4.576-0.8008-5.7421c-1.0368-0.1355-2.0735-0.271-3.1103-0.4065
				c1.2915,3.5304,2.5251,7.0796,3.7979,10.6164c1.1685-0.3221,2.337-0.6443,3.5054-0.9664
				c-0.7886-1.9455-1.3615-3.9021-1.8406-5.944c-0.5428-2.3133-4.0056-1.3246-3.5407,0.9761
				c0.4152,2.0549,1.0642,4.0035,1.8759,5.9343c0.8828,2.0998,4.3475,1.2562,3.5054-0.9664
				c-1.334-3.5211-2.7058-7.0263-4.0215-10.5548c-0.5023-1.3472-2.3018-1.7223-3.1103-0.4065
				c-1.5761,2.5649,0.0634,6.5493,0.7219,9.2146c0.9777,3.9571,2.0641,7.9589,1.4326,12.0647c1.0417,0,2.0833,0,3.125,0
				c-1.2542-4.5121-2.5598-9.0137-3.7621-13.54c-1.3-4.8941-1.2357-9.5545,1.2376-14.0984
				c-0.9611-0.4052-1.9223-0.8104-2.8834-1.2156c-1.0335,5.0442,3.0469,9.7942,5.5181,13.8489
				c0.8801,1.444,1.3317,2.6674,1.0224,4.405c-0.2224,1.2494-0.7692,2.4389-1.0917,3.6656
				c-0.7227,2.749-0.8838,5.5037-0.5986,8.3278C141.5132,153.6642,143.5694,153.7291,143.5477,152.3033L143.5477,152.3033z"/>
		</g>
	</g>
	<g>
		<g>
			<path fill="#DFE4F7" d="M722.4814,215.6452c-1.9781,1.5282-2.3259,3.783-3.8051,5.6927c-1.9172,2.4752-4.9636,3.8768-8.0532,4.1
				c-3.2495,0.2347-6.1154-0.7917-9.0613-2.0049c-2.4188-0.9961-4.8044-1.6909-7.331-0.6702
				c0.7038,0.7038,1.4075,1.4075,2.1113,2.1113c0.9856-2.4523,4.4409-1.2798,6.2012-0.6727
				c1.8956,0.6537,3.7053,1.2645,5.7101,1.4628c2.3964,0.2371,2.3586-3.4746,0-3.732c-1.1462-0.1251-2.295-0.2163-3.4437-0.3143
				c0,1.3084,0,2.6168,0,3.9252c7.9131-0.1638,16.008-3.5078,21.0381-9.7513c1.4631-1.816-0.8641-4.3113-2.6164-2.6164
				c-3.9947,3.8639-8.1464,7.5761-12.2341,11.3414c-1.7048,1.5703,0.8416,4.1067,2.5411,2.5412
				c4.0888-3.7663,8.1301-7.6005,12.3094-11.2662c-0.8721-0.8721-1.7443-1.7443-2.6164-2.6164
				c-5.1801,4.822-11.2839,7.9796-18.4218,8.4425c-2.5095,0.1627-2.5419,3.8207,0,3.9252c1.1479,0.0472,2.295,0.1012,3.4437,0.1211
				c0-1.244,0-2.488,0-3.732c-3.458,0.057-6.4364-2.3107-9.9581-1.94c-2.4872,0.2618-4.3486,1.6669-5.2633,3.9694
				c-0.4583,1.1536,0.9498,2.586,2.1113,2.1113c3.0479-1.2456,6.1801,0.9535,9.0764,1.7899
				c2.8964,0.8363,5.9999,1.0313,8.9504,0.3694c2.4545-0.5506,4.7507-1.7691,6.5684-3.5105c0.881-0.8441,1.6712-1.844,2.258-2.9169
				c0.7307-1.336,1.0311-2.9278,2.1133-4.0491C725.1227,216.7063,723.7305,214.6802,722.4814,215.6452L722.4814,215.6452z"/>
		</g>
	</g>
	<g>
		<g>
			<path fill="#DFE4F7" d="M710.2878,226.0953c0.4005,0,0.801,0,1.2016,0c1.4176,0,1.4199-2.2031,0-2.2031
				c-0.4006,0-0.8011,0-1.2016,0C708.8701,223.8921,708.8678,226.0953,710.2878,226.0953L710.2878,226.0953z"/>
		</g>
	</g>
	<g>
		<g>
			<path fill="#DFE4F7" d="M804.5414,126.7418c0.1608-3.1882-0.3135-6.4633-1.0052-9.5723c-0.5206-2.34-1.214-4.5738-3.4219-5.8131
				c-2.0802-1.1676-4.6852-1.384-7.0098-1.65c-3.1328-0.3585-6.2995-0.1615-9.2794,0.9099c-1.4965,0.5381-1.867,3.0648,0,3.4211
				c6.3821,1.2182,13.8417,3.4056,15.8777,10.3972c0.638,2.1908,4.0451,1.2657,3.4261-0.9445
				c-0.6686-2.3877-1.7119-4.5977-3.2244-6.5697c-0.518-0.6753-1.4734-2.3637-2.1706-1.7027
				c-0.761,0.7216,1.0032,2.531,1.677,3.0652c1.7219,1.3652,4.1794-1.0595,2.4397-2.4397c-0.6124-0.4859-1.0182-0.9294-1.401-1.6118
				c-1.1216-1.9996-3.8452-0.242-2.9931,1.7495c0.2943,0.6877,0.6036,0.9823,1.2758,1.3042
				c1.8034,0.8637,3.389-1.1946,2.1041-2.7269c-0.325-0.3875-0.6498-0.775-0.9748-1.1625
				c-0.3709-0.2481-0.3378-0.5207,0.0994-0.8179c0.1237-0.6646,0.4066-1.0821,0.2894-1.7991
				c-0.2186-1.3375-1.0707-1.9931-2.3757-2.0984c-1.9326-0.156-2.4129,3.1376-0.4631,3.4221
				c1.8574,0.2711,3.8668,0.3742,5.6433,0.9806c-0.3502-0.2693-0.7004-0.5386-1.0506-0.8079
				c1.5071,2.1341,0.7333,6.6756,0.5038,9.1001c-0.1323,1.3967-0.2581,2.7863-0.1187,4.1876
				c0.0564,0.5676,0.132,1.1365,0.2653,1.692c0.1539,0.6414,0.119,1.3874,0.7346,1.0429c0.8492,0.3455,1.6985,0.691,2.5479,1.0366
				c-2.3425-7.1034-6.399-13.3456-12.2405-18.0615c-1.6966-1.3697-4.132,1.0285-2.4196,2.4196
				c5.3173,4.3196,9.3436,9.9762,11.3152,16.564c0.3318,1.1086,1.5449,1.5618,2.5479,1.0366
				c1.6969-0.8886,1.528-2.5535,1.1724-4.1849c-0.6514-2.9879-0.0436-5.7112,0.0302-8.7235
				c0.0537-2.1917,0.0458-5.2786-0.9418-7.2975c-1.137-2.3242-4.8748-2.0251-7.0629-2.3445
				c-0.1544,1.1407-0.3088,2.2814-0.4631,3.4221c0.1242,0.01,0.2485,0.0201,0.3727,0.0301
				c-0.5015-0.2876-1.0029-0.5752-1.5043-0.8629c-0.2287-0.3051-0.7129,2.3499-0.6215,2.6497
				c0.3515,1.1526,1.5101,2.1497,2.2592,3.0321c0.7014-0.909,1.4027-1.818,2.1041-2.7269
				c-0.0118-0.0184-0.0236-0.0369-0.0354-0.0553c-0.9977,0.5832-1.9954,1.1663-2.9931,1.7495
				c0.5234,0.9196,1.1233,1.6509,1.9544,2.302c0.8132-0.8132,1.6265-1.6265,2.4397-2.4397
				c-1.5048-1.1781-1.8128-3.337-3.8423-3.9076c-1.3837-0.389-3.1091,0.2084-3.6075,1.6615
				c-0.6199,1.8076,0.7172,3.0069,1.8204,4.2261c1.7206,1.9013,2.8367,4.1416,3.4816,6.6115
				c1.1421-0.3148,2.2841-0.6297,3.4261-0.9445c-2.2986-8.2875-10.7131-11.4195-18.3607-12.8738c0,1.1404,0,2.2807,0,3.4211
				c3.7876-1.3648,9.0747-1.6588,12.9926-0.5371c4.2145,1.2067,3.7095,9.7527,4.0931,13.2414
				C802.0399,128.433,804.4525,128.5045,804.5414,126.7418L804.5414,126.7418z"/>
		</g>
	</g>
	<g>
		<g>
			<path fill="#DFE4F7" d="M859.2928,116.5981c1.8959,4.0656,3.8538,8.1576,6.302,11.9258c1.4069,2.1656,4.0259,7.1788,7.093,6.5698
				c0.5787-0.1149,1.0214-0.6469,1.1847-1.1847c1.006-3.3132,0.5015-7.7133,0.201-11.1111
				c-0.3481-3.9381-1.1415-7.7381-2.3198-11.5106c-0.4537-1.4525-2.7075-1.2249-2.6993,0.3653
				c0.0117,2.2955-0.5571,5.3352-3.6592,3.9825c-0.9469-0.4129-1.9023-1.0305-2.9606-1.1055
				c-1.7117-0.1214-2.7546,1.1196-2.4059,2.7979c1.0427,5.0181,8.5712,6.8148,8.1721,12.2167
				c0.8616-0.4944,1.7232-0.9889,2.5848-1.4833c-0.5487-0.2968-0.7985-2.9641-0.9141-3.4601
				c-0.2098-0.9012-0.9844-2.9041-0.3127-3.7412c0.9291-1.158,0.3737-2.9097-1.2297-2.9687
				c-1.071-0.0394-2.1419-0.0787-3.2128-0.1181c0.152,1.1231,0.304,2.2462,0.456,3.3693c1.7887-0.6134,2.3026-0.9326,2.4254,1.1021
				c0.0848,1.4036,0.1695,2.8072,0.2543,4.2107c0.1323,2.1903,3.5675,2.1994,3.4219,0c-0.1523-2.3009-0.2711-4.5954-0.3494-6.9006
				c-0.0684-2.0145-3.1945-2.0268-3.1406,0c0.0612,2.303,0.0813,4.5975,0.0682,6.9006c1.1406,0,2.2812,0,3.4219,0
				c-0.0942-1.5595-0.1884-3.1191-0.2825-4.6786c-0.0682-1.1297,0.0529-2.6552-0.6785-3.6152
				c-1.307-1.7156-4.3876-0.8795-6.0526-0.327c-1.845,0.6123-1.502,3.2684,0.456,3.3693c1.0709,0.0552,2.1418,0.1104,3.2128,0.1656
				c-0.4099-0.9896-0.8198-1.9791-1.2297-2.9687c-1.4622,1.7686-1.4009,3.6353-0.936,5.7959c0.468,2.175,0.688,5.6797,2.888,6.8314
				c1.1937,0.6249,2.505-0.1596,2.5849-1.4833c0.1593-2.6399-1.0633-4.8692-2.8427-6.7472
				c-1.6257-1.7159-5.7122-3.8303-5.7725-6.5055c-0.2518,0.439-0.5037,0.8781-0.7555,1.3171
				c0.4669-0.3131,3.3587,1.3369,4.1719,1.4236c1.0175,0.1085,1.96-0.0759,2.8242-0.638c2.2551-1.4668,2.5051-4.2812,2.541-6.7414
				c-0.8998,0.1218-1.7996,0.2435-2.6993,0.3653c0.8741,3.5335,1.4727,7.1479,1.7347,10.7799
				c0.2215,3.0709,0.7071,7.2323-0.2369,10.2093c0.3949-0.3949,0.7898-0.7898,1.1847-1.1847
				c-0.1158,0.0215-0.2315,0.043-0.3473,0.0645c0.4362,0.0571,0.8724,0.1141,1.3087,0.1712
				c-2.5804-1.7238-4.473-5.5244-6.0245-8.1316c-1.7183-2.8873-3.3023-5.8491-5.0285-8.7323
				C860.76,113.6339,858.5469,114.9987,859.2928,116.5981L859.2928,116.5981z"/>
		</g>
	</g>
</g>
</svg>
