<?xml version="1.0" encoding="utf-8"?>
<!-- Generator: Adobe Illustrator 20.1.0, SVG Export Plug-In . SVG Version: 6.00 Build 0)  -->
<svg version="1.1" xmlns="http://www.w3.org/2000/svg" xmlns:xlink="http://www.w3.org/1999/xlink" x="0px" y="0px"
	 viewBox="0 0 541 282" enable-background="new 0 0 541 282" xml:space="preserve">
<g id="site_bg">
</g>
<g id="back">
	<g>
		<g>
			<path fill="#F7FAFC" d="M352.6967,278.1134c-2.6963,0-5.5615-0.5488-8.4883-1.8428c-6.7051,2.4111-14.3701,1.1016-19.917-3.7432
				c-6.915,1.6641-14.4863-0.4268-19.5596-6.0576l-6.1797-6.8613c-5.2979-0.3135-10.4609-2.7227-14.1416-7.1084
				c-2.7949-3.3311-4.3193-7.3066-4.623-11.3359c-1.791-2.9531-4.917-7.2158-9.0908-12.4795l-91.3623-101.4277
				c-7.3066-8.1123-6.7578-20.584,1.2334-28.0225c0.6582-0.6133,1.3467-1.1729,2.0605-1.6797
				c0.9648-1.3447,2.1006-2.5762,3.3887-3.6562c0.8242-0.6924,1.6904-1.3076,2.5869-1.8447c1.207-2.3252,2.8652-4.417,4.9033-6.127
				c0.5811-0.4873,1.8643-1.4766,3.7217-2.4307c0.9404-1.6689,2.1387-3.2275,3.5908-4.6182
				c4.5947-4.4004,10.7588-6.1816,16.625-5.3613c0.9688-4.5186,3.3711-8.5381,6.9473-11.5391
				c5.3691-4.5029,12.4121-5.7031,18.6533-3.8213c0.5254-0.5498,1.085-1.0742,1.6758-1.5703
				c5.1514-4.3213,11.8515-5.6104,17.9082-4.0332c5.1865-0.3008,10.4463,1.4297,14.5439,5.1367l19.7979,17.9111
				c1.1172-3.6807,3.2832-6.9941,6.2803-9.5098c2.3311-1.957,10.2793-7.5146,21.3135-3.5498
				c1.0771-1.5605,2.3701-2.9844,3.8623-4.2363c4.2002-3.5244,9.4463-5.0479,14.5527-4.6055
				c0.7246-0.8447,1.5195-1.6318,2.3779-2.3525c2.9229-2.4531,13.5039-9.6465,26.9639,0.7246
				c0.8057,0.6221,1.7734,1.3936,2.9258,2.334c1.2305-2.8604,3.1172-5.4307,5.5332-7.458
				c2.9541-2.4785,11.083-7.7197,22.7021-2.7764c2.0078,0.8535,4.1768,2.0176,6.8252,3.665
				c2.2568,1.4033,4.9092,3.1895,8.0186,5.3994c0.9102-1.2158,1.9629-2.333,3.1416-3.3223
				c4.4512-3.7344,11.5332-6.2881,19.584-4.085c4.9521-0.458,10.0713,0.9355,14.2412,4.2393l2.7568,2.1836
				c8.1475-4.2822,18.4492-2.4775,24.6074,4.8604c1.5078,1.7969,2.6455,3.7803,3.4209,5.8594
				c4.6924,6.3291,20.4932,24.1963,33.8408,38.5869c6.8018,7.334,7.1016,18.4971,0.8936,26.168
				c3.1016,4.7158,3.9717,10.3799,2.7314,15.6045c0.5283,2.0381,0.6572,4.1201,0.4668,6.5273
				c-0.4209,5.3447-2.9902,10.3418-7.0947,13.7891c-2.6367,2.2139-5.7012,3.6426-8.8896,4.2871
				c4.2852,4.9658,8.5625,9.9131,12.7939,14.7998c6.9043,7.9736,6.4297,19.9385-1.0859,27.3398
				c-2.5684,2.5293-5.6572,4.2285-8.9248,5.0889c1.6621,4.1328,2.1094,7.5664,1.9121,11.0352
				c-0.3457,6.1045-3.0713,11.5947-7.6758,15.458c-2.252,1.8896-4.8086,3.2021-7.4805,3.9463
				c-1.2695,2.9023-3.1895,5.5039-5.6377,7.5586c-3.2246,2.707-12.1309,8.4141-25.1621,2.958
				c-0.7471-0.3125-1.502-0.6582-2.2686-1.0401c-0.4746,0.4824-0.9756,0.9453-1.502,1.3867
				c-7.6504,6.4189-18.8652,6.21-26.2715-0.4893l-2.4482-2.2158c-0.4258,4.8194-2.5908,9.4932-6.4365,13.0049
				c-2.8232,2.5781-6.1904,4.1973-9.6953,4.8701c-4.0098,1.9463-9.9736,3.3936-17.5527,1.1289
				c-3.4258,2.71-13.8018,8.9609-27.0596-1.207c-1.0303-0.79-2.2412-1.7715-3.6611-2.9658
				c-1.1191,1.7891-2.5137,3.4062-4.1445,4.7744C362.5268,276.0499,357.9272,278.1134,352.6967,278.1134z"/>
		</g>
		<g>
			<path fill="#F7FAFC" d="M151.5903,279.9669c-0.6182,0-1.2393-0.0273-1.8623-0.084c-1.5361-0.1377-2.9639-0.3916-4.3652-0.8184
				c-1.8154-0.0361-3.625-0.3174-5.374-0.8418c-2.5811,0.1621-5.3311-0.1621-8.165-1.1631
				c-4.3535,1.0254-9.4805,0.7002-14.8145-2.1318c-0.9492-0.5039-2.0283-1.1387-3.3955-1.9951
				c-1.9951-1.249-4.6797-3.0215-8.208-5.418c-2.9551-2.0068-6.5352-4.4756-10.71-7.3848
				c-1.1221,1.9277-2.5898,3.7002-4.3926,5.2207c-8.4434,7.1221-21.0596,6.0498-28.1807-2.3936c0,0-14.0254-16.6289-28.0303-33.2764
				c-7.0098-8.332-14.0147-16.6699-19.2559-22.9326c-2.6436-3.1582-4.8418-5.7939-6.375-7.6445
				c-0.8145-0.9824-1.4512-1.7578-1.8818-2.2891c-0.3135-0.3848-0.5498-0.6836-0.708-0.8857
				c-6.7051-8.6162-5.501-20.8135,2.7393-27.7686c0.0283-0.0234,0.0566-0.0479,0.085-0.0713
				c1.0654-0.8887,4.6162-3.5557,9.6943-4.3828c-4.1484-7.0645-5.5859-12.3057-5.3193-17.6729
				c0.2705-5.4512,2.4473-10.4102,6.1787-14.1602c0.9561-2.8477,2.5635-5.5088,4.8018-7.7461
				c0.7275-1.1953,1.5762-2.3164,2.5352-3.3408c1.1572-1.8213,2.5977-3.4717,4.2979-4.8975
				c5.3359-4.4785,12.3867-5.7217,18.6709-3.8174c-0.9609-2.5693-1.3828-5.293-1.1221-8.4912
				c0.4355-5.3281,3.0039-10.3008,7.0996-13.7363c2.5928-2.1738,12.0566-8.708,24.7539-1.29
				c0.291,0.1699,0.5898,0.3496,0.8984,0.541c0.7939-4.4541,3.0947-8.666,6.8311-11.8018
				c1.9961-1.6758,12.6289-9.5713,25.873-0.3379c1.3701,0.9551,2.9639,2.1982,5.0176,3.9131
				c3.1055,2.5928,7.3789,6.3691,13.0664,11.5449c0.5332,0.4863,1.0762,0.9805,1.627,1.4844
				c0.5234-0.5527,1.0801-1.0781,1.6689-1.5713c6.5684-5.5098,15.7188-6.2393,23.3145-1.8594
				c1.0283,0.5928,2.0439,1.2803,3.1953,2.1641c1.2285,0.9404,2.6904,2.165,4.6025,3.8506
				c1.7285,1.5254,3.8037,3.4102,6.2686,5.6953c7.2383-2.5586,15.6221-0.8057,21.2266,5.1387
				c0.1855,0.1973,18.7803,19.9355,37.0723,40.4316c10.8604,12.1699,19.5352,22.2725,25.7842,30.0283
				c11.4365,14.1943,16.1318,21.5928,15.6016,30.665c-0.333,5.7002-3.0078,11.0537-7.3379,14.6885
				c-4.1084,3.4473-9.2275,4.9756-14.2246,4.6328c-0.3418,0.3311-0.6953,0.6504-1.0615,0.957
				c-2.0576,1.7275-8.1816,6.0029-16.8057,4.4072c-1.1318,3.6475-3.2949,6.9248-6.2695,9.4121
				c-3.8184,3.1943-9.3379,5.21-15.0986,4.5625c0.7432,2.4092,1.0322,4.96,0.8232,7.5215
				c-0.4346,5.3272-2.9834,10.2588-7.0771,13.6944c-8.3408,6.999-19.1738,6.9668-32.2002-0.0928
				c-0.8262-0.4482-1.6807-0.9297-2.5645-1.4482c-1.1904,3.2568-3.2197,6.1826-5.9277,8.4551
				C160.9116,278.3175,156.353,279.9669,151.5903,279.9669z"/>
		</g>
	</g>
	<g>
		<g>
			<path fill="#F2F6F9" d="M337.4858,275.006c-3.6162,0-7.8213-0.9199-12.5928-3.4023c-2.6006-1.3525-5.7139-3.2949-9.5176-5.9355
				c-0.207-0.1436-0.416-0.2891-0.627-0.4375c-7.6143,2.6475-16.4004,0.498-21.8877-6.0449
				c-1.2871-1.5342-2.3037-3.2051-3.0566-4.9551c-3.918-5.1582-16.3564-19.2842-26.791-30.6475
				c-7.1562-7.7939-7.0029-19.8135,0.3496-27.4229c0.1328-0.1377,0.2676-0.2734,0.4033-0.4062
				c-0.6699-2.3105-0.9512-4.6621-0.7939-7.1738c0.3486-5.5654,2.9854-10.8008,7.2324-14.3652
				c2.6416-2.2158,5.7275-3.6523,8.9434-4.293c-1.3135-2.8115-1.9512-5.8389-1.7178-9.5479
				c0.3447-5.4619,2.9297-10.584,7.1221-14.1016c4.3594-3.6582,9.876-5.1641,15.1875-4.542
				c-0.3994-5.3447,1.3545-10.7646,5.085-14.8945c1.1367-1.8887,2.5811-3.5928,4.2861-5.0225
				c1.0127-0.8496,2.5479-1.957,4.5605-2.9014c-0.457-2.0996-0.5713-4.0996-0.4561-6.1611
				c0.3271-5.8457,3.0566-11.3311,7.4893-15.0498c0.9346-0.7852,1.9219-1.4697,2.9482-2.0566
				c-0.2627-1.5752-0.3135-3.2656-0.1514-5.1816c0.4502-5.3018,2.998-10.2139,7.0732-13.6348
				c2.7578-2.3145,5.9746-3.7656,9.3057-4.3652c0.5674-5.1025,3.083-9.8203,7.0312-13.1338
				c0.7471-0.626,1.5293-1.1992,2.3408-1.7158c1.0498-2.417,2.5957-4.6641,4.6328-6.583c2.6543-2.5,5.8164-4.1357,9.1328-4.9131
				c1.2031-2.3154,2.8564-4.3965,4.8916-6.1045c3.5918-3.0137,7.9189-4.6914,12.4902-4.9385
				c2.7568-1.9854,8.4307-5.0234,16.0635-3.748c3.4092-2.3301,7.3418-3.4746,11.2578-3.4746c0.0264,0,0.0518,0,0.0771,0
				c3.3047-0.749,6.7441-0.6455,9.9814,0.2842c6.2256-2.0488,13.2939-0.9824,18.7354,3.3564l14.8809,11.8643
				c0.0332-0.0273,0.0654-0.0557,0.0977-0.082c7.8174-6.5625,19.2217-6.1328,26.5254,0.7236
				c3.1748,0.9131,6.166,2.627,8.6562,5.1406c0.4756,0.4795,11.7725,11.8906,23.2314,24.3721
				c21.2275,23.1221,28.208,32.6445,27.7109,43.4648c-0.0703,1.5254-0.3057,3.0264-0.6943,4.4775
				c-0.0039,0.083-0.0088,0.167-0.0137,0.25c-0.3398,5.6729-3.0127,11.0059-7.333,14.6309
				c-0.9121,0.7646-1.876,1.4365-2.8789,2.0146l0.9883,1.1787c4.7842,5.7012,5.8438,13.2881,3.4365,19.8027
				c1.1914,2.8564,1.6855,5.9219,1.4971,8.9453c0.6514,2.2803,0.8994,4.6797,0.7061,7.0898
				c-0.2129,2.6719-0.959,5.2451-2.1641,7.5811c7.2207,10.1045,8.6641,14.873,8.2285,20.9736
				c-0.1738,2.4355-0.7871,4.8076-1.7822,7.001c0.6436,2.6113,0.8545,5.0596,0.7061,7.5029
				c-0.3711,6.1221-3.1074,11.6191-7.7061,15.4785c-1.5117,1.2686-3.1582,2.2764-4.8867,3.0273
				c-1.1611,3.6904-3.3389,6.9707-6.3672,9.5117c-2.25,1.8877-4.8633,3.2373-7.6436,3.9883
				c-0.7373,0.8564-1.5498,1.6602-2.4326,2.4014c-6.0615,5.0869-14.3438,6.0029-21.1934,2.8623
				c-1.0527,1.5908-2.3359,3.0361-3.8242,4.2842c-5.8506,4.9102-13.9971,6.0879-21.2627,3.083
				c-1.3125-0.5439-2.5898-1.208-3.958-2.0605c-0.2451,0.2275-0.4961,0.4482-0.7539,0.6641
				c-6.2012,5.2041-16.5693,7.2539-25.75,0.0947c-0.5449-0.4258-1.1436-0.9229-1.8525-1.54
				c-0.8555,1.0977-1.8301,2.1104-2.9131,3.0195c-3.8418,3.2236-8.5889,4.96-13.6006,5.0225
				c-8.5732,1.9668-17.6455-1.7607-25.6826-6.5361c-1.0332,1.4766-2.2676,2.8262-3.6855,4.0166
				c-6.876,5.7715-16.7539,6.2529-24.1582,1.1807l-4.8291-3.3086c-1.2168,2.4873-2.9482,4.7207-5.1133,6.5371
				C348.1205,272.3155,343.6674,275.005,337.4858,275.006z"/>
		</g>
	</g>
</g>
<g id="Layer_2">
	<path fill="#FFEFAF" d="M449.9345,69.789c7.9087-5.4007-2.4511-10.1174-4.0667-13.1896
		c-2.0206-3.8425,5.4283-16.7605-0.6003-18.3501c0.3816,0.1006-7.1776,3.7745-6.86,3.5748
		c-3.3443,2.1031-5.7704,3.7694-8.4071,7.7353c-3.557,5.3501-9.4734,16.7746-16.7681,8.2332
		C411.8191,82.8039,434.1331,79.0836,449.9345,69.789z"/>
	<path fill="#FFEFAF" d="M459.3066,29.623c6.9762-3.3396,21.0379,7.8526,29.5361,8.1131c9.5035,0.2913,7.1949-9.5115-0.6493-9.5686
		c-4.5851-6.5581,0.8257-7.5735-9.1409-5.5484C473.0676,23.835,465.3488,22.6387,459.3066,29.623z"/>
	<path fill="#E93A1D" d="M444.7847,13.3474c4.6745-9.1392,14.4982-14.0544,24.4332-9.7181
		c2.2234,0.9705,3.3629,3.2046,5.2457,4.6102c0.7207,0.538,1.6184,0.6713,2.3117,1.1827c0.2795,0.2062,1.629,2.6764,1.1744,2.7131
		c-1.0083,0.0812-2.0904-0.5421-3.0789-0.68c-0.7721-0.1077-1.5826-0.29-2.3672-0.2261c-1.722,0.1402-2.248,1.3243-1.9136,2.9457
		c0.3769,1.8275,1.6724,3.8754,3.7917,3.5868c2.1841-0.2975,1.5394-4.1051,3.6381-4.4883c1.714-0.3129,2.4282,1.5425,2.9921,2.8185
		c0.7612,1.7225,2.2036,3.5653,1.8966,5.546c-0.5006,3.2308-4.9668,2.0431-7.2812,2.3144c-3.1159,0.3654-6.301,0.7145-9.4511,0.6854
		c-1.7963-0.0166-3.7953-0.6328-5.6091-0.2985c-5.006,0.9228-5.3588,5.3109-7.6438,8.8592
		c-2.4478,3.8011-7.5846,8.1181-12.1813,8.7443c1.5559-9.4813-0.5518-19.3554,3.9166-28.3453
		C444.7002,13.5138,444.7422,13.4304,444.7847,13.3474z"/>
	<path fill="#E93A1D" d="M463.0847,169.9089c-2.9321-4.3287-6.5542-8.4304-9.4092-12.1688
		c-2.6559-3.4777-4.5514-8.431-7.6036-11.3393c-3.0224-2.8799-4.2416-4.3693-3.4528-8.9327
		c0.5903-3.4153,2.0804-6.6955,3.6272-9.772c1.9871-3.9524,4.3954-7.7453,7.1637-11.1976c2.2418-2.7956,5.2439-4.409,7.5197-6.9057
		c6.1764-6.7762,14.2933-20.8342,12.9878-30.315c-2.5538-1.0127-5.2649-2.1994-7.764-3.3603
		c-5.0622,6.9408-13.0473,16.5301-22.5851,16.5817c-4.2324,0.0229-8.4424-2.1318-12.0866-4.0622
		c-0.6069-0.3215-9.21-5.6553-9.2677-5.6259c-3.2012,1.6345-6.1621,5.5315-7.6899,8.6979
		c3.4801,1.6816,7.9646,6.2676,10.4093,9.3543c3.5986,4.5476,2.4163,12.8258-1.8444,17.5392
		c-2.3699,2.6216-5.8572,3.7722-8.6119,6.0854c-2.9317,2.4618-5.5401,5.2856-6.6544,9.0074
		c-1.1653,3.8921-1.712,7.3599-4.7197,10.4001c-2.5428,2.5702-5.896,4.2274-9.0709,5.8659
		c-3.3235,1.7152-4.6158,4.876-7.6693,6.8197c-4.3456,2.7662-10.8469,4.1092-15.9713,3.3552
		c-4.836-0.7115-8.7874-5.3188-13.7919-5.0205c-6.3953,0.3813-9.0621,6.184-13.7239,9.426
		c-4.157,2.8909-10.2408,5.2373-15.1549,6.4008c-2.8696,0.6794-8.756,0.9353-10.2934,3.5972
		c3.4309,2.1991,12.5352-0.3704,16.7699-1.0143c5.51-0.8378,9.4821-2.1815,15.1276-0.7543
		c5.4359,1.3743,10.5727,4.1078,14.9918,7.5293c3.9525-2.0764,8.8727-2.192,13.2692-2.1891
		c4.8344,0.0031,8.4016,2.1927,12.9352,2.7714c3.2743,0.418,3.2844-1.602,6.6241-3.6984c3.6378-2.2798,8.0919-3.023,12.3128-2.7691
		c1.0513,0.0632,14.3598,4.123,12.481,5.7929c3.1321-2.7838,4.6335-2.9008,8.7689-2.4628c1.132,0.1199,1.6023,0.9323,2.6929,0.8893
		c0.3338-0.0132,2.0154-1.3347,2.5779-1.5202c5.6691-1.8694,10.2548,0.1595,14.4704,3.5436
		c5.8542-4.7265,10.7678-1.1772,17.1792-1.5245C466.7253,175.8499,465.0618,172.8278,463.0847,169.9089z"/>
	<g>
		<g>
			<path fill="#303030" d="M477.5565,40.3393c0-1.505,0-3.01,0-4.515c0-0.9652-1.5-0.9668-1.5,0c0,1.505,0,3.01,0,4.515
				C476.0565,41.3044,477.5565,41.306,477.5565,40.3393L477.5565,40.3393z"/>
		</g>
	</g>
	<g>
		<g>
			<path fill="#303030" d="M449.4516,56.3294c1.5178,7.3516,9.341,16.792,17.6945,15.249
				c9.8128-1.8126,10.029-14.8296,10.3436-22.5326c0.0394-0.9653-1.4607-0.9635-1.5,0c-0.2808,6.877-0.1739,18.8487-8.6815,20.9682
				c-7.7018,1.9187-15.0435-7.464-16.4101-14.0833C450.703,54.9859,449.2568,55.3858,449.4516,56.3294L449.4516,56.3294z"/>
		</g>
	</g>
	<g>
		<g>
			<path fill="#303030" d="M446.7028,46.5236c-2.5078,2.047-3.205,5.7195-1.916,8.66c1.2318,2.8099,3.8989,3.9564,5.8965,1.2437
				c0.3936-0.5345-0.4953-1.2252-0.9249-0.7136c-2.1909,2.6091-4.0117-0.735-4.2619-2.8439
				c-0.2504-2.1105,0.4352-4.1098,1.981-5.5715C447.9998,46.8046,447.2383,46.0865,446.7028,46.5236L446.7028,46.5236z"/>
		</g>
	</g>
	<g>
		<g>
			<path fill="#303030" d="M467.751,51.3117c0.6603,0.2873,1.3206,0.5746,1.9809,0.862c0.2382,0.1036,0.441,0.0828,0.6412-0.0827
				c0.2558-0.2115,0.4966-0.4353,0.7315-0.6695c0.4855-0.4841-0.2273-1.1527-0.7375-0.7375
				c-0.2575,0.2096-0.5054,0.426-0.7424,0.6586c0.1716-0.0454,0.3432-0.0907,0.5148-0.1361
				c-0.6841-0.2309-1.3682-0.4618-2.0523-0.6927C467.6261,50.3581,467.2943,51.1129,467.751,51.3117L467.751,51.3117z"/>
		</g>
	</g>
	<g>
		<g>
			<path fill="#303030" d="M453.2551,63.5504c-1.6071,4.0127-3.1432,8.6625-7.3052,10.7259
				c-3.1309,1.5522-6.8714,1.2809-10.2639,1.2358c-5.4602-0.0726-12.3578,0.1844-14.5868,6.2519
				c-0.2684,0.7305,0.8214,1.1163,1.2101,0.5102c2.2292-3.4755,4.8358-4.9303,8.9612-5.2097c3.328-0.2254,6.6706,0.155,9.9959-0.145
				c7.3151-0.6598,11.3759-6.2754,12.9547-13.1028C454.3698,63.1745,453.4904,62.963,453.2551,63.5504L453.2551,63.5504z"/>
		</g>
	</g>
	<g>
		<g>
			<path fill="#303030" d="M457.0132,41.579c3.0141-0.0879,5.8719,0.2199,8.6906,1.3363c0.4489,0.1778,0.8541-0.422,0.6154-0.8005
				c-0.493-0.7818-0.8282-1.5906-1.1441-2.4597c-0.2218-0.6102-1.1131-0.3748-0.9774,0.2695
				c0.2132,1.0131,0.6276,1.8636,1.1805,2.7403c0.2051-0.2668,0.4102-0.5337,0.6154-0.8005
				c-2.9117-1.1533-5.9883-1.6462-9.0917-1.1083C456.4338,40.8372,456.5467,41.5926,457.0132,41.579L457.0132,41.579z"/>
		</g>
	</g>
	<g>
		<g>
			<path fill="#303030" d="M473.2971,41.516c-0.9144,0.4345-1.575,1.0532-2.1478,1.8835c-0.2509,0.3636,0.089,0.8108,0.4756,0.8288
				c2.5578,0.1191,4.9252,0.7612,7.2891,1.7155c0.5107,0.2061,0.8611-0.6392,0.3747-0.8889
				c-2.3865-1.2252-4.9948-1.8039-7.6638-1.9281c0.1585,0.2763,0.317,0.5525,0.4756,0.8288
				c0.462-0.6849,0.9902-1.1583,1.6905-1.5945C474.3323,42.0237,473.8606,41.2482,473.2971,41.516L473.2971,41.516z"/>
		</g>
	</g>
	<g>
		<g>
			<path fill="#303030" d="M447.8569,44.4011c-0.3748-1.5986-0.423-3.2238-0.1992-4.8492c0.13-0.944-1.3151-1.3523-1.4464-0.3988
				c-0.2623,1.9049-0.241,3.7691,0.1992,5.6467C446.6308,45.7393,448.0775,45.3416,447.8569,44.4011L447.8569,44.4011z"/>
		</g>
	</g>
	<g>
		<g>
			<path fill="#303030" d="M489.6593,23.9987c-1.4242,0.3615-2.5536,0.8978-3.7339,1.7962c-0.2279,0.1734-0.2692,0.5034,0,0.6693
				c1.4408,0.8878,2.8351,0.8361,4.473,1.0004c1.6734,0.1678,4.6642,1.1946,4.3173,3.5248
				c-0.0651,0.437-0.5559,1.0394-0.7626,1.4258c-2.1214,3.9665-8.5663,4.5713-12.5226,3.7835
				c-2.3978-0.4774-4.6729-1.477-6.7127-2.8151c-0.8831-0.5793-1.6491-1.4053-2.6094-1.8594
				c-0.8615-0.4073-1.8171-0.5494-2.6946-0.935c-1.938-0.8515-3.6555-1.6039-5.7713-2.0084
				c-2.257-0.4315-4.5165-0.6866-6.7304-1.3294c-0.6828-0.1982-0.9701,0.8566-0.2928,1.0622
				c3.0064,0.9126,6.1735,1.0632,9.1759,1.9646c2.5427,0.7634,5.4904,2.1437,7.6796,3.5878
				c4.3294,2.856,9.4268,4.4306,14.5957,3.2089c2.9433-0.6957,6.7877-2.4305,7.4745-5.7834
				c0.2486-1.2138-0.7232-2.7026-1.6051-3.4519c-2.1824-1.8544-5.2725-0.6116-7.623-2.0447c0,0.2231,0,0.4462,0,0.6693
				c1.0906-0.8382,2.2005-1.3889,3.5436-1.7366C490.3309,24.6057,490.1317,23.8788,489.6593,23.9987L489.6593,23.9987z"/>
		</g>
	</g>
	<g>
		<g>
			<path fill="#303030" d="M438.9871,41.2475c0.7588,4.6522,7.1502-1.3438,8.51-2.4035c2.2316-1.7391,5.2208-3.3859,6.8828-5.6954
				c1.6054-2.2309,1.6687-4.8008,4.2296-6.4646c5.5699-3.6187,12.4465-1.0706,18.5642-1.7424
				c1.7956-0.1972,3.6474-0.6293,5.0557-1.8337c0.8094-0.6922,2.2213-2.5399,1.4429-3.7162c-0.247-0.3732-0.8289-0.3755-1.1122-0.69
				c-0.4683-0.52-0.6163-2.2213-0.972-2.9956c-1.1328-2.4668-3.0388-4.5884-4.8467-6.5793c-3.33-3.6671-7.1583-6.699-12.1637-7.5251
				c-9.3669-1.546-18.613,3.8473-23.1186,11.9311c-2.8215,5.0624-4.0019,10.9405-3.9492,16.7021
				C437.5445,34.0099,438.452,37.5422,438.9871,41.2475c0.0709,0.4907,0.8162,0.282,0.7458-0.2056
				c-0.9464-6.5538-1.5715-13.4224,0.0498-19.905c2.2357-8.9387,8.6348-16.5479,17.9632-18.3343
				c4.4365-0.8496,9.0692-0.2278,12.9038,2.239c3.8671,2.4877,8.1737,6.9571,10.0791,11.1667
				c0.2836,0.6266,0.4384,2.5084,0.9181,3.0671c0.1916,0.2232,0.5633,0.2472,0.7454,0.4583
				c2.0385,2.3633-3.7001,4.0462-5.2849,4.2297c-4.6995,0.5441-9.4303-0.7721-14.1134,0.0793
				c-3.4801,0.6327-6.8121,2.3915-8.2104,5.798c-0.5955,1.4508-0.9918,2.6905-2.1901,3.796
				c-1.1025,1.017-2.3801,1.8885-3.5552,2.8211c-1.2164,0.9654-2.4364,1.9265-3.6486,2.8972
				c-0.7181,0.575-5.1475,4.7015-5.6568,1.6869C439.65,40.5512,438.9077,40.7607,438.9871,41.2475z"/>
		</g>
	</g>
	<g>
		<g>
			<path fill="#303030" d="M437.961,40.3478c-4.3878,0.4685-6.2331,4.7574-7.4545,8.4757
				c-0.9945,3.0275-2.1061,6.4273-5.3422,7.6647c-2.8427,1.087-8.3787,1.3113-10.2147-1.6227c-0.209-0.3339-0.7039-0.3477-0.9098,0
				c-2.5691,4.3388-2.0923,9.781,0.669,13.9332c2.8912,4.3477,7.6898,6.8842,12.6149,8.2134
				c0.6205,0.1675,0.8781-0.7763,0.2648-0.9605c-4.296-1.2899-8.4877-3.328-11.3144-6.9236
				c-3.079-3.9166-3.9249-9.3507-1.3245-13.7306c-0.3033,0-0.6065,0-0.9098,0c2.4729,3.962,10.3141,3.6389,13.5607,0.925
				c4.5768-3.8259,3.3185-14.1594,10.3605-15.0663C438.5285,41.1829,438.5473,40.2852,437.961,40.3478L437.961,40.3478z"/>
		</g>
	</g>
	<g>
		<g>
			<path fill="#303030" d="M470.5858,58.7034c-3.1284-0.199-5.6928-3.6249-8.9726-3.1637
				c-3.0793,0.4331-3.5466,5.8147-3.3547,8.1859c0.022,0.2715,0.2111,0.4964,0.4995,0.4995
				c2.5034,0.0271,4.7985,1.373,7.1492,2.1326c0.3399,0.1098,0.6235-0.1796,0.649-0.4944c0.0981-1.2114,0.2239-2.2164,1.0597-3.2223
				c0.4015-0.4833-0.2716-1.1816-0.7002-0.7002c-1.0329,1.1601-1.2655,2.4056-1.3849,3.9225
				c0.2163-0.1648,0.4327-0.3296,0.649-0.4944c-2.4882-0.798-4.7536-2.1313-7.4218-2.1428c0.1665,0.1665,0.333,0.333,0.4995,0.4995
				c-0.1541-1.762,0.1411-3.5885,0.7544-5.2472c0.7982-2.1584,2.1723-2.3227,4.1401-1.5745
				c2.0911,0.7951,4.1407,2.4883,6.4338,2.6197C471.1138,59.554,471.1103,58.7368,470.5858,58.7034L470.5858,58.7034z"/>
		</g>
	</g>
	<g>
		<g>
			<path fill="#303030" d="M460.1779,69.9672c-2.2813,2.5764-3.5425,6.3619-1.2317,9.2995c0.3971,0.5047,1.2789-0.167,0.8972-0.6923
				c-1.9744-2.7176-0.4413-5.5507,1.0016-8.0925C461.0764,70.0746,460.5067,69.5959,460.1779,69.9672L460.1779,69.9672z"/>
		</g>
	</g>
	<g>
		<g>
			<path fill="#303030" d="M425.0167,102.0628c-2.2699-3.6574-5.6794-6.0607-8.9143-8.7964
				c-1.4579-1.2329-4.3849-3.197-3.7289-5.2192c0.3738-1.1523,2.0832-2.6947,2.9252-3.6843
				c0.9532-1.1203,1.9477-2.2016,2.963-3.2656c-0.2774,0-0.5548,0-0.8322,0c9.5115,10.0395,23.5629,15.9863,36.9448,10.1103
				c3.0563-1.342,5.9372-3.2552,8.1306-5.7936c0.9631-1.1146,1.7955-2.3362,2.4142-3.676c0.7831-1.6958,1.1008-3.8045,2.4767-5.1588
				c0.8388-0.8257,2.1905-1.8046,2.9143-0.5984c0.913,1.5214,0.5121,4.6137,0.3323,6.337
				c-0.3513,3.3664-1.2182,6.7219-3.1443,9.5453c-1.04,1.5245-2.8279,2.9198-2.1183,4.7697
				c1.9611,5.1126-0.6842,10.3824-6.0306,11.7436c-0.7635,0.1944-0.4402,1.3723,0.3256,1.1809
				c2.9294-0.7322,5.4647-2.6071,6.7627-5.3799c0.6442-1.3762,0.9388-2.9128,0.8858-4.4285
				c-0.0243-0.6932-0.112-1.3929-0.2778-2.0676c-0.1181-0.4807-0.8152-1.4944-0.7726-1.905
				c0.0799-0.7705,1.4322-2.0868,1.8702-2.7183c0.7639-1.1012,1.3791-2.1434,1.9179-3.3856
				c1.4195-3.2726,2.0685-7.0774,1.9083-10.6429c-0.0679-1.5123,0.0096-5.397-2.2126-5.1644
				c-1.9409,0.2032-3.7714,2.2556-4.5465,3.8618c-0.8705,1.8039-1.3365,3.7306-2.4704,5.4156
				c-1.3215,1.9637-3.1352,3.5968-5.0981,4.8975c-3.9071,2.5891-8.5747,4.0328-13.2444,4.2831
				c-10.0608,0.5394-19.373-4.9851-26.1355-12.0579c-0.2152-0.2251-0.6171-0.2274-0.8322,0
				c-2.464,2.606-4.7266,5.3636-6.8079,8.2835c-0.1063,0.1491-0.1071,0.4205,0,0.5696c3.7773,5.2536,10.1683,7.9251,13.7021,13.3498
				C424.6039,102.8983,425.291,102.5047,425.0167,102.0628L425.0167,102.0628z"/>
		</g>
	</g>
	<g>
		<g>
			<path fill="#303030" d="M459.1897,108.7432c-2.0229,2.2669-3.5502,4.8938-5.4397,7.2625
				c-1.7359,2.1762-4.0599,3.318-6.0022,5.2012c-1.7295,1.6769-2.1589,4.0769-2.8,6.3018c-0.939,3.2587-1.9446,6.521-2.3986,9.8917
				c-0.3863,2.8681-0.3593,5.4407,1.0569,8.0157c1.6041,2.9165,3.9738,5.5052,5.9721,8.1509
				c4.6627,6.173,9.2318,12.42,13.3221,18.9915c0.4114,0.6609,1.4543,0.0581,1.0473-0.6122
				c-3.5356-5.823-7.4657-11.3706-11.5417-16.825c-1.9344-2.5886-3.9261-5.1342-5.8631-7.7204
				c-2.3465-3.1331-3.206-5.9172-2.6812-9.8271c0.4258-3.1729,1.3558-6.2523,2.2422-9.32c0.8151-2.8206,1.3114-5.2983,3.8127-7.088
				c1.8245-1.3054,3.4403-2.5906,4.8424-4.3753c1.8424-2.345,3.3047-4.961,5.251-7.227
				C460.4925,109.002,459.6902,108.1823,459.1897,108.7432L459.1897,108.7432z"/>
		</g>
	</g>
	<g>
		<g>
			<path fill="#303030" d="M412.6361,90.7915c-3.8239,2.3306-7.1328,5.5556-11.3291,7.2201
				c-3.3257,1.3192-6.766,2.3691-10.1854,3.4146c-5.9533,1.8203-11.8537,3.7253-17.7376,5.766
				c-3.5598,1.2346-7.1165,2.4797-10.6911,3.6712c-2.9928,0.9976-5.8485,1.9545-9.0336,2.033
				c-2.5326,0.0624-4.7483,0.2288-6.4452,2.341c-1.5905,1.9797-2.6515,4.5845-1.8847,7.1006
				c0.6442,2.1138,2.5131,4.1759,4.8441,4.2782c3.2583,0.143,5.0846-3.357,5.8088-6.0339c0.2011-0.7436-0.8498-0.9871-1.1244-0.31
				c-1.0604,2.6148-3.28,6.8293-6.5884,4.2515c-2.515-1.9596-2.2259-5.0776-0.7194-7.555c1.7534-2.8834,4.0864-2.7014,7.0715-2.8524
				c2.4129-0.122,4.6357-0.8216,6.9149-1.5678c10.7165-3.5082,21.3399-7.2407,32.0894-10.6473
				c2.9565-0.937,5.934-1.8947,8.7871-3.1173c3.9719-1.702,7.0878-4.8916,10.643-7.2744
				C413.4968,91.2145,413.098,90.51,412.6361,90.7915L412.6361,90.7915z"/>
		</g>
	</g>
	<g>
		<g>
			<path fill="#303030" d="M419.2419,96.9346c-6.5638,2.81-12.3557,6.9872-18.676,10.262
				c-4.4358,2.2984-8.9921,3.6626-13.8579,4.5987c-8.2399,1.5853-16.6336,2.957-24.6931,5.3275
				c-1.0777,0.317-2.4649,0.5977-3.377,1.2999c-2.1088,1.6236-0.8084,4.88-2.7854,6.6774
				c-0.4988,0.4535,0.1484,1.2922,0.7207,0.9341c0.7221-0.4519,1.2139-0.9184,1.5609-1.7119
				c0.5772-1.3199,0.0869-3.1727,0.9036-4.3582c0.6325-0.9182,1.9672-1.1563,2.983-1.4671
				c3.9955-1.2223,8.1187-2.071,12.2019-2.9382c8.1301-1.7268,16.7787-2.6114,24.386-6.122
				c7.3143-3.3753,13.8082-8.27,21.0886-11.7231C420.2289,97.4617,419.7642,96.711,419.2419,96.9346L419.2419,96.9346z"/>
		</g>
	</g>
	<g>
		<g>
			<path fill="#303030" d="M471.3991,75.9166c2.8064-0.4049,5.6596-2.2015,8.1815-3.412c3.0088-1.4442,5.9898-2.9551,9.043-4.3045
				c3.2628-1.442,6.8359-2.2169,9.9591-3.9638c1.755-0.9815,3.305-2.3417,4.8221-3.6467
				c4.5357-3.9013,8.7642-8.2002,13.5419-11.8132c0.8609-0.651,1.8289-1.1567,2.687-1.7948
				c0.923-0.6862,0.7999-0.8752,1.1313-2.1446c0.4603-1.7632,0.416-3.7147,2.1274-4.547c2.2465-1.0925,4.3696-1.8932,5.1224,1.318
				c0.1439,0.6138,1.0812,0.3536,0.9436-0.2601c-1.0899-4.8604-4.8946-2.6999-8.0984-1.1936
				c-0.1627,0.0765-0.2433,0.2697-0.251,0.4376c-0.0618,1.3402-0.4732,4.5411-1.487,5.5144
				c-0.5153,0.4946-1.3552,0.8245-1.9451,1.2457c-1.7633,1.2592-3.4122,2.6797-5.0505,4.0944
				c-3.9526,3.4131-7.729,7.0967-11.9062,10.2391c-4.1483,3.1208-9.5168,4.166-14.1933,6.3355
				c-2.6835,1.2449-5.3294,2.5684-7.9958,3.8492c-2.2914,1.1007-4.7879,1.9427-6.9843,3.2109
				C470.5651,75.3594,470.9162,75.9862,471.3991,75.9166L471.3991,75.9166z"/>
		</g>
	</g>
	<g>
		<g>
			<path fill="#303030" d="M470.4377,88.8772c4.6555-2.7378,9.124-5.7828,13.7919-8.5055c2.4401-1.4233,4.9032-2.8238,7.4669-4.0145
				c2.774-1.2883,5.7326-2.0494,8.5489-3.2269c10.0034-4.1823,14.7745-15.398,23.1728-21.7148
				c0.4965-0.3734,0.0244-1.2225-0.4968-0.85c-9.0255,6.4505-13.7169,18.1841-24.5488,22.1701
				c-10.1567,3.7376-19.6354,8.9445-28.408,15.332C469.4873,88.4153,469.906,89.19,470.4377,88.8772L470.4377,88.8772z"/>
		</g>
	</g>
	<g>
		<g>
			<path fill="#303030" d="M529.8788,39.9778c0.9899,1.581,2.1163,3.8922,1.4888,5.8181c-0.6635,2.0363-4.559,2.4319-6.2692,3.0376
				c-0.6949,0.2462-0.4199,1.3235,0.3084,1.1187c1.7484-0.4917,3.7184-0.9506,5.3523-1.7535
				c0.8138-0.3999,1.3344-0.9346,1.6161-1.8077c0.7604-2.3565-0.2237-5.174-1.8845-6.8854
				C530.1859,39.1914,529.6414,39.5986,529.8788,39.9778L529.8788,39.9778z"/>
		</g>
	</g>
	<g>
		<g>
			<path fill="#303030" d="M421.8204,99.9963c1.5212,4.1743,1.7499,8.3897-0.5638,12.3186c-1.9155,3.2526-4.87,5.7735-7.5921,8.3277
				c-2.5935,2.4335-5.1951,4.9704-6.9809,8.0804c-2.4307,4.2329-1.3121,9.9362-5.0291,13.3956
				c-3.5512,3.305-8.6247,4.3662-12.5435,7.1403c-5.2491,3.7158-10.8271,9.9788-17.6741,10.2676
				c-6.0909,0.2569-10.3693-4.6787-16.131-5.2993c-5.067-0.5458-10.1371,1.9773-14.0297,5.007
				c-4.5461,3.5383-7.9053,8.2944-13.2722,10.7341c-2.1801,0.991-4.4528,1.848-6.7566,2.5043
				c-1.6722,0.4763-4.6149,1.4912-6.1784,0.295c-0.4946-0.3784-1.1659,0.4817-0.671,0.8696c2.5045,1.963,7.22,0.0271,9.7604-0.8576
				c4.2427-1.4774,7.95-3.3932,11.271-6.4763c4.8226-4.477,9.3289-9.4989,16.1523-10.7384
				c6.7481-1.2259,11.7256,4.558,18.2692,5.0888c6.0699,0.4924,11.2439-3.7646,15.7421-7.2816
				c2.3836-1.8637,4.687-3.7521,7.3928-5.1345c2.4215-1.2372,4.9751-2.2462,7.2598-3.7371
				c1.6515-1.0777,3.1984-2.4156,4.1284-4.1849c1.3227-2.5163,1.0638-5.465,1.8737-8.13c1.2804-4.2131,4.6367-7.515,7.7503-10.4578
				c3.0647-2.8965,6.4899-5.7324,8.4624-9.5405c2.076-4.0081,1.7549-8.2929,0.1115-12.3983
				C422.3894,99.3332,421.6464,99.5188,421.8204,99.9963L421.8204,99.9963z"/>
		</g>
	</g>
	<g>
		<g>
			<path fill="#303030" d="M458.1845,76.3714c2.6414,1.1627,5.8633,0.4326,8.6571,0.4837c0.7594,0.0139,0.7381-1.1053,0-1.166
				c-2.7798-0.2285-5.5387,0.3222-8.3139-0.1316C458.0763,75.4837,457.6829,76.1506,458.1845,76.3714L458.1845,76.3714z"/>
		</g>
	</g>
	<g>
		<g>
			<path fill="#FFFFFF" d="M480.8395,182.4161c0.8084,0.3094-0.1121,0.4715,0.519-0.0545c0.3214-0.2678,0.5387-0.6883,0.8906-0.9745
				c0.8455-0.6878,1.9306-1.2211,2.9328-1.6172c2.0261-0.8008,4.1801-1.0299,6.344-1.0058c1.8024,0.0201,2.3145-2.933,0.4382-3.238
				c-4.1807-0.6795-8.5492,0.374-11.8835,3.0506c-2.1846,1.7537-3.6458,5.8941-0.1301,7.0637
				C482.0201,186.3289,482.8143,183.1718,480.8395,182.4161L480.8395,182.4161z"/>
		</g>
	</g>
	<g>
		<g>
			<path fill="#FFFFFF" d="M476.1191,166.1882c4.9391-4.219,11.2702-1.6983,13.0504,4.1853
				c0.5802,1.9178,3.9261,1.6778,3.6677-0.4964c-1.0937-9.203-12.8624-12.9734-19.0934-6.0644
				C472.2827,165.4326,474.4817,167.5868,476.1191,166.1882L476.1191,166.1882z"/>
		</g>
	</g>
	<g>
		<g>
			<path fill="#FFFFFF" d="M307.1832,184.0779c1.822-1.0498,3.9787-0.0551,5.1116,1.5509c1.3758,1.9503,1.4148,4.4799,2.2276,6.6549
				c0.6345,1.6979,3.0036,1.4199,3.1459-0.4258c0.2732-3.5438-1.0247-7.8319-3.8811-10.1069
				c-2.5442-2.0263-6.0282-2.3849-8.5733-0.2254C303.7819,182.7409,305.6188,184.9793,307.1832,184.0779L307.1832,184.0779z"/>
		</g>
	</g>
	<g>
		<g>
			<path fill="#FFFFFF" d="M324.2991,193.7055c5.574-4.5312,12.6678-6.5876,19.8068-5.9857
				c3.4056,0.2871,6.8069,1.228,9.8378,2.8143c3.5761,1.8717,6.2875,4.9556,9.8719,6.7864c0.9444,0.4824,2.3628,0.3169,2.873-0.7533
				c2.704-5.672,10.3437-8.1549,15.7501-4.7032c2.8202,1.8005,5.789,4.2175,8.886,1.2769c1.1201-1.0635,1.7945-2.3021,3.278-2.9713
				c1.5089-0.6807,3.2669-0.7699,4.8462-0.3063c3.2817,0.9632,4.2708,4.7008,7.3405,6.0383
				c3.4904,1.5209,7.4479,0.1147,11.0553,1.6632c7.0034,3.0064,10.2358,10.1714,14.3481,16.024
				c1.4494,2.0627,4.3181,0.314,3.3325-1.9479c-2.4118-5.5347-6.6066-11.233-11.3541-14.9798
				c-2.2429-1.7701-4.7921-3.1889-7.5958-3.8325c-3.1103-0.714-7.3465,0.6274-9.6084-1.9453
				c-1.9375-2.2038-3.4698-4.18-6.4136-5.0268c-2.6376-0.7587-5.5935-0.5092-8.0522,0.7179
				c-1.0933,0.5457-2.0781,1.305-2.9059,2.2015c-0.6675,0.723-0.8293,1.3768-1.8881,1.3282
				c-1.055-0.0485-1.8279-0.925-2.6566-1.5015c-2.1433-1.491-4.636-2.2907-7.2354-2.4633
				c-5.9768-0.397-12.1468,2.8523-14.7531,8.3082c0.9577-0.2511,1.9153-0.5022,2.873-0.7533
				c-4.0094-2.0518-7.0035-5.513-11.1454-7.4217c-3.589-1.6539-7.4531-2.5945-11.3975-2.8209
				c-7.9196-0.4546-16.002,2.1071-21.9328,7.4146C319.5047,192.6156,322.3307,195.3057,324.2991,193.7055L324.2991,193.7055z"/>
		</g>
	</g>
	<g>
		<g>
			<path fill="#FFFFFF" d="M405.987,182.2102c8.7649-0.7619,17.231,2.093,22.0331,9.8975c0.5888,0.9569,1.9619,1.4296,2.9594,0.776
				c3.646-2.3888,8.0313-3.1843,12.285-2.1481c2.1335,0.5197,4.0547,1.4781,5.7781,2.8301c1.5495,1.2156,2.983,2.4095,5.063,2.3842
				c1.8929-0.0231,3.6141-1.0902,5.4464-1.4724c1.771-0.3694,3.6622-0.4028,5.4444-0.0956
				c3.7318,0.6432,6.6176,2.6246,8.1548,6.1121c0.9724,2.2061,4.7092,0.6353,3.9125-1.6495
				c-2.945-8.4459-13.403-10.6113-21.0819-7.8984c-1.587,0.5607-2.1927,0.7459-3.567-0.2783
				c-0.9203-0.6858-1.7662-1.4352-2.7538-2.0317c-2.0215-1.221-4.3276-2.0563-6.6558-2.4384
				c-4.9478-0.8119-10.0203,0.1685-14.209,2.9504c0.9865,0.2587,1.973,0.5173,2.9594,0.776
				c-5.2684-8.4437-16.3047-14.1111-26.2733-11.4431C403.4751,179.0183,403.8023,182.4001,405.987,182.2102L405.987,182.2102z"/>
		</g>
	</g>
	<g>
		<g>
			<path fill="#FFFFFF" d="M304.1537,170.4092c-0.0291,0.0471-0.0582,0.0942-0.0873,0.1413
				c0.5066-0.2061,1.0132-0.4123,1.5197-0.6184c-0.0782-0.0261-0.1564-0.0522-0.2346-0.0783c0.3167,0.3167,0.6334,0.6334,0.95,0.95
				c-0.0193-0.0724-0.0385-0.1449-0.0577-0.2174c-0.442,0.5802-0.8839,1.1604-1.3259,1.7405
				c-0.5888-0.3217-0.7053-0.3563-0.3497-0.1039c0.1809,0.1656,0.3933,0.2774,0.6371,0.3353
				c0.7536,0.3018,1.5378,0.4754,2.287,0.7993c1.1717,0.5065,2.3268,1.1888,3.326,1.9824c1.1982,0.9516,2.2458,2.1184,3.0677,3.407
				c0.6342,0.9944,0.9809,2.2565,1.8332,3.0915c0.7133,0.6987,1.761,1.1111,2.7721,0.8495
				c0.5304-0.1372,0.9469-0.7757,1.4189-0.8715c0.5128-0.104,1.1682,0.3282,1.6335,0.5035c3.2103,1.2093,6.068,3.0074,9.0771,4.6186
				c1.8565,0.994,4.0787-1.5402,2.3479-3.043c-2.5279-2.195-5.4944-3.7397-8.564-5.0404c-1.3268-0.5622-2.7831-1.2877-4.2383-1.417
				c-1.4881-0.1323-2.192,0.4979-3.3391,1.3031c0.5546-0.0726,1.1093-0.1451,1.6639-0.2177
				c0.1001,0.0177-1.133-2.1998-1.3626-2.5209c-0.6725-0.9403-1.4299-1.834-2.2711-2.6271c-1.6802-1.584-3.6581-2.867-5.8196-3.6841
				c-1.5173-0.5735-3.8149-1.4915-5.0286,0.082c-0.78,1.0112-0.4728,2.477,0.8613,2.7536c0.5414,0.1122,1.261-0.0633,1.5197-0.6184
				c0.0235-0.0504,0.047-0.1008,0.0705-0.1512C307.1776,170.2201,305.0728,168.922,304.1537,170.4092L304.1537,170.4092z"/>
		</g>
	</g>
	<g>
		<g>
			<path fill="#FCE0DE" d="M327.2112,179.3127c1.1526-0.3925,2.7356,1.225,3.6687,1.8247c1.2767,0.8204,2.2884,1.2094,3.8289,0.9927
				c2.1733-0.3057,3.3792-0.7112,5.5185,0.0076c1.7605,0.5915,3.4144,1.4183,5.253,1.7664c1.7019,0.3222,3.319,0.0963,5.0293,0.1289
				c1.8569,0.0353,2.0198,1.1439,3.3334,2.2874c1.0468,0.9113,2.3763,1.3864,3.6973,1.7439
				c0.5183,0.1403,2.3871,0.5159,2.4195,0.6249c0.5816,1.9559,3.2292,2.8412,4.7046,1.2421
				c2.0089-2.1775,5.1037-1.9473,7.8369-1.7999c1.935,0.1044,3.8718,0.1516,5.8086,0.211c1.9543,0.06,3.9686,0.3455,5.8716-0.1594
				c1.2049-0.3196,1.5631-2.1936,0.3639-2.7845c-2.1655-1.0669-4.7535-1.1754-7.1207-1.5779
				c-2.2106-0.3759-4.4236-0.7913-6.6631-0.957c-3.6583-0.2707-7.4695,0.2848-10.0781,3.0869
				c1.5682,0.414,3.1364,0.828,4.7046,1.2421c-0.4651-1.5902-1.4192-2.7225-2.8799-3.4784
				c-1.4223-0.7359-3.3333-0.6613-4.6594-1.4915c-1.5282-0.9567-2.1213-2.6657-3.9915-3.3439
				c-2.0403-0.7399-4.0813-0.2918-6.1772-0.3483c-4.4045-0.1186-7.8712-3.4993-12.3499-1.3471
				c-1.2998,0.6246-2.1811,1.3371-3.565,0.6443c-0.74-0.3704-1.3765-0.8836-2.1552-1.1922
				c-1.3952-0.553-2.4622-0.3555-3.6152,0.5878C325.0273,178.0151,326.0671,179.7023,327.2112,179.3127L327.2112,179.3127z"/>
		</g>
	</g>
	<g>
		<g>
			<path fill="#FCE0DE" d="M396.2065,184.5175c1.4297,0.2878,2.8845,0.4179,4.2682,0.9037c1.4833,0.5207,2.586,1.4144,3.865,2.2758
				c2.0061,1.3511,4.3299,1.9291,6.4779,0.5501c-1.1611-0.4724-2.3221-0.9447-3.4832-1.4171
				c0.9406,4.4088,5.858,4.5367,9.4283,5.2294c2.2562,0.4377,4.5752,0.9863,6.7242,1.8062c2.5069,0.9564,4.7183,2.478,7.0531,3.7722
				c1.7709,0.9816,3.3486-1.2479,2.0923-2.7117c-2.6498-3.0876-6.5218-5.114-10.2352-6.6477
				c-1.8991-0.7844-3.8405-1.2185-5.8732-1.496c-0.9863-0.1347-4.2712,0-4.6167-1.2131c-0.3817-1.3401-2.2192-2.3539-3.4832-1.4171
				c-1.4291,1.0592-4.3819-1.2882-5.839-1.8481c-2.0372-0.7827-4.2692-1.0974-6.3787-0.4536
				C394.9776,182.2257,394.8048,184.2353,396.2065,184.5175L396.2065,184.5175z"/>
		</g>
	</g>
	<g>
		<g>
			<path fill="#FCE0DE" d="M425.6416,181.6622c1.3203,2.7566,3.9211,4.9698,7.0497,5.2876
				c1.9714,0.2002,3.5251-0.7278,5.3965-1.0422c2.2496-0.3779,4.5271,0.3944,6.6841,0.9324
				c2.0325,0.507,4.0852,0.7687,6.1252,1.2339c1.7149,0.391,3.4895,0.8703,5.2536,0.5021c1.7534-0.366,3.2442-1.4086,5.0651-1.591
				c1.965-0.197,3.8265,0.4726,5.6349,1.1488c1.7081,0.6387,3.0556-1.8508,1.7635-3.0294
				c-2.5821-2.3552-6.2096-3.1244-9.6165-2.4539c-1.4377,0.2829-2.7923,1.2253-4.2617,1.2542
				c-1.9168,0.0376-4.1293-1.0809-5.9206-1.6802c-3.4628-1.1585-7.5467-2.043-11.1897-1.3456
				c-1.7357,0.3322-4.1787,2.4367-5.833,2.1154c-1.6319-0.3169-3.1612-2.0891-4.5262-2.9567
				C426.1891,179.3528,425.1631,180.6632,425.6416,181.6622L425.6416,181.6622z"/>
		</g>
	</g>
</g>
</svg>
