<?xml version="1.0" encoding="utf-8"?>
<!-- Generator: Adobe Illustrator 20.1.0, SVG Export Plug-In . SVG Version: 6.00 Build 0)  -->
<svg version="1.1" xmlns="http://www.w3.org/2000/svg" xmlns:xlink="http://www.w3.org/1999/xlink" x="0px" y="0px"
	 viewBox="0 0 67 60" enable-background="new 0 0 67 60" xml:space="preserve">
<g id="site_bg">
</g>
<g id="back">
</g>
<g id="Layer_2">
	<path fill="#E93A1D" d="M12.9496,28.1276c-3.2662-5.8818-14.2717,0.2682-10.4574,6.5098c3.3794,5.53,12.8237,1.0995,10.9864-5.2198
		C13.3383,28.9355,13.16,28.5065,12.9496,28.1276z"/>
	<path fill="#FFEFAF" d="M54.2983,8.5514c1.1418,3.1597,4.5396,6.4118,8.1617,5.2832c4.0293-1.2554,2.3528-5.9369,1.3926-8.8324
		C61.4637-2.2014,50.4597,4.7772,54.2983,8.5514z"/>
	<path fill="#FFEFAF" d="M61.3406,37.5333c2.5932-1.9397,4.8577-5.6049,3.4527-8.9374c-1.114-2.6422-6.1153-4.8836-8.8689-3.406
		C48.767,29.0307,54.6919,41.5994,61.3406,37.5333z"/>
	<path fill="#FFEFAF" d="M60.528,57.5768c4.7758-3.44,5.361-12.6476-2.5758-10.7086C52.6235,48.1701,53.716,56.5973,60.528,57.5768z
		"/>
	<g>
		<g>
			<path fill="#303030" d="M38.2342,52.0533c0.4214-4.7928,0.1759-9.705,0.193-14.5099c0.0274-7.7482,0.0054-15.4967,0.0026-23.2449
				c-0.0007-1.8322-0.0017-3.6645-0.002-5.4967c-0.0001-0.8445-1.3126-0.8459-1.3125,0
				c0.0016,12.5833-0.1157,25.1725,0.0564,37.7548c0.025,1.8244-0.012,3.6775,0.1484,5.4967
				C37.3719,52.6403,38.1825,52.6416,38.2342,52.0533L38.2342,52.0533z"/>
		</g>
	</g>
	<g>
		<g>
			<path fill="#303030" d="M37.7339,9.7025c0.0225-3.1289-5.0043-0.9384-6.2454-0.0843c-3.4762,2.3923-4.5787,6.3481-4.6477,10.3846
				c-0.064,3.7398,0.0605,8.7776,2.8772,11.6166c1.9781,1.9938,5.6332,2.7204,7.6628,0.4403
				c0.4962-0.5574-0.2441-1.2698-0.8079-0.8079c-2.4497,2.0066-5.5942,0.6325-7.0304-1.885
				c-1.342-2.3524-1.4339-5.4382-1.5105-8.0716c-0.0765-2.6304,0.0879-5.4971,1.423-7.8337
				c0.7024-1.2292,1.7452-2.2955,2.9371-3.0555c0.401-0.2557,4.4727-2.2208,4.5215-0.7036
				C36.9306,10.2288,37.7301,10.2324,37.7339,9.7025L37.7339,9.7025z"/>
		</g>
	</g>
	<g>
		<g>
			<path fill="#303030" d="M31.3765,31.9427c-2.17,6.4728-3.3057,13.3362-5.0547,19.9343c-0.1983,0.7481,0.949,1.0639,1.1583,0.3193
				c1.8469-6.5718,3.459-13.3059,4.8795-19.9825C32.4963,31.5713,31.5856,31.3191,31.3765,31.9427L31.3765,31.9427z"/>
		</g>
	</g>
	<g>
		<g>
			<path fill="#303030" d="M53.6764,4.9152c-1.5258,3.2796-0.276,7.4211,3.1046,8.983c3.3271,1.5371,7.632-0.3534,8.9547-3.7231
				c1.3621-3.4702-0.7899-7.7116-4.2929-8.8643c-3.8583-1.2696-7.9919,1.5758-8.7712,5.4003
				c-0.1352,0.6636,0.8661,0.9509,1.0227,0.2819c0.6976-2.9799,3.6467-5.5099,6.8529-4.82
				c3.2191,0.6927,5.4767,4.5422,4.1454,7.6353c-1.2431,2.8883-5.0512,4.5036-7.8863,2.8716
				c-2.5731-1.4811-3.4618-4.7988-2.3964-7.4555C54.578,4.8056,53.8679,4.5035,53.6764,4.9152L53.6764,4.9152z"/>
		</g>
	</g>
	<g>
		<g>
			<path fill="#303030" d="M44.2934,16.1164c4.0134-0.6545,7.6339-2.4538,10.5845-5.2506c0.4344-0.4118-0.216-1.0552-0.6546-0.6546
				c-2.8977,2.6459-6.2901,4.3776-10.1308,5.1764C43.6105,15.4878,43.8217,16.1933,44.2934,16.1164L44.2934,16.1164z"/>
		</g>
	</g>
	<g>
		<g>
			<path fill="#303030" d="M43.6662,32.6149c2.7015,0.5532,5.6522,0.5616,8.3866,0.2938c0.6987-0.0684,0.7303-1.1227,0-1.1133
				c-2.757,0.0356-5.5199-0.0733-8.2729-0.0207C43.3142,31.7836,43.1782,32.515,43.6662,32.6149L43.6662,32.6149z"/>
		</g>
	</g>
	<g>
		<g>
			<path fill="#303030" d="M44.3531,46.9184c2.876,1.3379,5.7894,2.6994,8.7674,3.7972c0.5655,0.2085,0.9619-0.7188,0.4131-0.9799
				c-2.8661-1.3639-5.8754-2.4974-8.8419-3.6205C44.2299,45.9404,43.9016,46.7084,44.3531,46.9184L44.3531,46.9184z"/>
		</g>
	</g>
	<g>
		<g>
			<path fill="#303030" d="M57.278,47.6357c-2.8844,1.1613-4.4408,4.5261-3.2318,7.4792c1.2372,3.0219,5.1763,4.3506,8.095,3.0471
				c2.9979-1.3389,4.3502-5.0996,3.2725-8.134c-1.1955-3.3663-4.9121-4.9385-8.2562-4.3201
				c-0.5767,0.1066-0.3336,0.9917,0.243,0.8814c2.8262-0.5407,6.1321,0.7977,7.1207,3.6848
				c0.8725,2.5481-0.2513,5.7012-2.7396,6.8551c-2.24,1.0387-5.3308,0.2423-6.5612-1.9846
				c-1.3584-2.4586-0.0092-5.5812,2.3713-6.7645C57.9983,48.1779,57.7093,47.462,57.278,47.6357L57.278,47.6357z"/>
		</g>
	</g>
	<g>
		<g>
			<path fill="#303030" d="M55.7164,26.4317c-3.0894,2.3098-3.8265,6.6736-1.5036,9.8149c2.0981,2.8374,6.7849,4.2323,9.4383,1.2908
				c2.4624-2.7297,2.4335-7.9453,0.218-10.7886c-2.0603-2.6442-6.2015-3.2791-8.5669-0.7183
				c-0.4185,0.4531,0.248,1.1266,0.6795,0.6795c2.1942-2.2735,5.9792-1.636,7.6026,0.9992c1.496,2.4283,1.4707,6.3324-0.3042,8.6398
				c-2.3175,3.0129-6.7516,1.777-8.5505-1.172c-1.6938-2.7769-0.7151-5.9641,1.4803-8.1057
				C56.5309,26.7582,56.0951,26.1486,55.7164,26.4317L55.7164,26.4317z"/>
		</g>
	</g>
	<g>
		<g>
			<path fill="#303030" d="M4.3341,26.5323c-6.646,4.674,3.1681,16.5376,9.0885,9.5642c2.2524-2.653,2.4385-7.0359-0.0866-9.5812
				c-2.4347-2.4541-6.6797-2.7564-9.3259-0.5151c-0.3999,0.3387,0.1299,1.0352,0.5645,0.7316
				c5.1441-3.5944,11.9191,1.6061,8.7949,7.4681c-4.2505,7.9753-14.2353-2.6122-8.5918-6.9086
				C5.2169,26.9569,4.8043,26.2017,4.3341,26.5323L4.3341,26.5323z"/>
		</g>
	</g>
</g>
</svg>
