<?xml version="1.0" encoding="utf-8"?>
<!-- Generator: Adobe Illustrator 20.1.0, SVG Export Plug-In . SVG Version: 6.00 Build 0)  -->
<svg version="1.1" xmlns="http://www.w3.org/2000/svg" xmlns:xlink="http://www.w3.org/1999/xlink" x="0px" y="0px"
	 viewBox="0 0 298 267" enable-background="new 0 0 298 267" xml:space="preserve">
<g id="site_bg">
</g>
<g id="back">
	<g>
		<g>
			<path fill="#F2F6F9" d="M142.144,264.8862c-4.4805,0.001-8.9619-1.5-12.6445-4.5049l-15.1787-12.3896
				c-1.0479,1.5762-2.3232,3.0098-3.8008,4.25c-4.3564,3.6553-13.7207,8.5928-27.4951,0.5859
				c-2.4043-1.3965-5.208-3.2871-8.5176-5.7451c-7.6396,2.7012-16.4824,0.5684-21.9971-6.0059
				c-1.499-1.7861-2.6309-3.7578-3.4062-5.8232c-5.1504-7.0498-23.7051-28.1318-39.4238-45.25
				c-6.6152-7.2051-6.9697-17.9912-1.2344-25.5732c-5.0234-7.3633-6.7588-12.3281-6.3857-18.291
				c0.3525-5.6133,3.0059-10.8906,7.2803-14.4775c2.3457-1.9688,5.0312-3.3164,7.8438-4.043
				c-6.8584-7.8174-9.9619-12.5674-9.4736-20.3184c0.3447-5.4609,2.9385-10.6055,7.1289-14.123
				c3.0322-2.5459,6.6133-4.043,10.2881-4.5166c-0.3555-0.4805-0.5508-0.7461-0.5742-0.7764
				c-5.3203-7.2207-5.082-16.8662,0.0137-23.7539c1.2373-2.6084,3.0234-4.9502,5.2539-6.8223
				c1.7139-1.4375,4.1602-3.0498,7.3066-4.043c0.0078-0.2305,0.0176-0.4619,0.0303-0.6934
				c0.3398-6.0654,3.0498-11.5225,7.6299-15.3662c2.8271-2.3721,6.1279-3.832,9.5361-4.4033
				c1.1289-3.6465,3.2871-6.9287,6.2549-9.4189c4.7676-4,10.9014-5.417,16.6318-4.3193c1.2197-2.5352,2.9717-4.8125,5.166-6.6543
				c4.3643-3.6611,9.9004-5.4834,15.7295-5.1914c5.5391-3.1709,12.252-3.4707,18.0039-0.9375
				c5.4736-4.0742,12.4512-5.2305,19.3408-3.1602c0.3545,0.1055,0.709,0.2207,1.0645,0.3447
				c4.7686-1.6943,11.6318-2.2324,19.8428,2.5596c4.4365-1.6221,9.2979-1.6094,13.6895-0.0244
				c4.3076,0.1943,8.5449,1.7744,11.9902,4.6836c4.6074-0.6621,9.3867,0.2842,13.4336,2.7979
				c4.3223,0.8506,8.3916,3.127,11.4434,6.7637c1.1963,1.4248,2.1592,2.9678,2.8936,4.582
				c3.5195,4.2822,13.1396,14.5479,20.3799,22.2715c38.3271,40.8945,44.877,49.4551,44.7314,60.3232
				c2.3984,4.7109,2.7822,10.1162,1.2588,15.0166c3.207,4.1084,4.5693,9.1367,4.1465,14.0195
				c0.498,2.0488,0.6748,4.1816,0.5029,6.3232c-0.2656,3.3291-1.3574,6.5039-3.1367,9.2578
				c1.8564,4.0068,2.248,7.1172,1.9893,10.7393c-0.2119,2.9746-1.083,5.8555-2.5029,8.4287c0.21,1.626,0.2285,3.1367,0.1387,4.626
				c-0.335,5.5186-2.6055,10.5283-6.4365,14.2773c0.4287,2.0195,0.5391,3.9521,0.4014,5.9443
				c-0.3232,4.6992-2.1602,9.0176-5.2383,12.417c-0.5859,5.5137-3.1953,10.4551-7.4062,13.9883
				c-2.335,1.96-4.998,3.2998-7.7803,4.0273c-0.0049,0.5049-0.0283,1.0117-0.0713,1.5176
				c-0.4502,5.3027-2.9941,10.207-7.0703,13.6279c-1.9854,1.667-7.5938,5.584-15.4531,4.6328
				c-1.1338,1.7236-2.5234,3.2891-4.1484,4.6523c-5.9609,5-16.1709,7.1015-25.1719,0.5293
				c-0.9414,1.2842-2.0391,2.4619-3.2793,3.5029c-3.4814,2.9209-7.6924,4.6601-12.1914,5.0898
				c-6.9805,2.1094-15.1211,0.6045-24.3154-4.5205c-1.1299,1.7392-2.5225,3.3183-4.1543,4.6875
				C151.2856,263.3246,146.7153,264.8862,142.144,264.8862z M211.3559,30.0034l0.0645,0.0713
				c-0.1377-0.9023-0.3525-1.7979-0.6523-2.6807C211.0239,28.2534,211.2192,29.1254,211.3559,30.0034z"/>
		</g>
	</g>
</g>
<g id="Layer_2">
	<rect x="106.443" y="111.9706" fill="#FFEFAF" width="33.0578" height="26.1281"/>
	<rect x="106.443" y="174.043" fill="#E93A1D" width="36.7064" height="20.1294"/>
	<rect x="106.2715" y="146.2011" fill="#E6E6E6" width="36.5299" height="19.89"/>
	<g>
		<g>
			<path fill="#303030" d="M167.943,83.8707c29.4883-0.056,58.9639-0.966,88.4456-1.4793c7.354-0.128,14.7084-0.2303,22.0633-0.2858
				c3.4114-0.0257,6.8852-0.2366,10.2896-0.0451c3.3777,0.19,4.9953,3.9502,5.6637,6.9008
				c0.7021,3.0994,0.3424,6.4937,0.3675,9.6456c0.0282,3.5393,0.0751,7.0784,0.1297,10.6174
				c0.1129,7.32,0.2609,14.6394,0.3395,21.9599c0.1725,16.0602-0.0465,32.1253-1.4999,48.1297c0.25-0.25,0.5-0.5,0.75-0.75
				c-31.2999,0.7572-62.6127,1.2955-93.9216,1.4187c-10.6699,0.042-21.3421,0.0365-32.0104-0.1698
				c-0.9656-0.0187-0.9656,1.4813,0,1.5c38.3195,0.7408,76.6986-0.1827,115.0107-1.0035c3.6405-0.078,7.281-0.1574,10.9213-0.2454
				c0.4329-0.0105,0.7125-0.3369,0.75-0.75c1.3671-15.0548,1.6486-30.1661,1.5269-45.2751
				c-0.0602-7.4724-0.2066-14.9437-0.3283-22.4153c-0.0602-3.6925-0.1147-7.385-0.1507-11.0778
				c-0.0337-3.4675,0.2817-7.0869-0.1773-10.5237c-0.476-3.5633-2.607-9.4052-6.8811-9.462
				c-7.6727-0.102-15.3614,0.0725-23.0334,0.1778c-15.2357,0.209-30.4687,0.5686-45.7021,0.8959
				c-17.5156,0.3764-35.0328,0.7037-52.553,0.737C166.9779,82.3725,166.9761,83.8725,167.943,83.8707L167.943,83.8707z"/>
		</g>
	</g>
	<g>
		<g>
			<path fill="#303030" d="M178.0692,99.3407c39.3363,1.764,78.733,1.956,118.0845,0.5713c0.9625-0.0339,0.9671-1.534,0-1.5
				c-39.3514,1.3847-78.7482,1.1928-118.0845-0.5713C177.1041,97.7974,177.1063,99.2975,178.0692,99.3407L178.0692,99.3407z"/>
		</g>
	</g>
	<g>
		<g>
			<path fill="#303030" d="M189.8188,87.9698c-0.8781,0.1423-1.4246,0.083-1.6821,1.0457c-0.167,0.6243-0.078,1.3092,0.1876,1.8918
				c0.5911,1.2966,2.0279,1.9303,3.3625,1.3684c1.2916-0.5438,2.1356-1.9961,1.6364-3.3686
				c-0.4861-1.3365-2.1053-2.2179-3.4611-1.6927c-0.5618,0.2177-0.353,1.029,0.2508,0.9097
				c1.9819-0.3916,3.2731,2.2123,1.2472,3.1673c-0.8033,0.3787-1.6456,0.0437-2.06-0.716
				c-0.1953-0.3581-0.2843-0.7573-0.2329-1.1628c0.0715-0.564,0.48-0.5145,0.9791-0.6178
				C190.5918,88.6817,190.3526,87.8833,189.8188,87.9698L189.8188,87.9698z"/>
		</g>
	</g>
	<g>
		<g>
			<path fill="#303030" d="M198.5176,87.6303c-2.0519,1.1009-1.4922,4.7208,0.8485,5.0703
				c2.3753,0.3546,4.0377-3.2044,2.1127-4.7169c-0.4976-0.391-1.1714,0.2287-0.7126,0.7126
				c0.8581,0.9052,0.1796,3.1126-1.2515,2.8505c-1.2989-0.2379-1.5235-2.3711-0.4677-3.0109
				C199.6253,88.1854,199.1127,87.3109,198.5176,87.6303L198.5176,87.6303z"/>
		</g>
	</g>
	<circle fill="#E93A1D" cx="181.812" cy="89.7208" r="2.9701"/>
	<g>
		<g>
			<path fill="#303030" d="M10.2721,209.3226c-1.2503-24.9843-1.4096-50.0734-1.3931-75.0837
				c0.0092-13.8868,0.1776-27.7691,0.519-41.6516c0.141-5.7354,0.3328-11.4702,0.5685-17.2025
				c0.0979-2.3806,0.208-4.7608,0.3416-7.1398c0.0631-1.1232,0.1046-2.254,0.2216-3.3729c0.385-3.681,2.1109-5.7403,5.9338-5.9181
				c4.9797-0.2316,10.1537,0.489,15.1323,0.7289c5.2985,0.2553,10.5982,0.4851,15.899,0.6888
				c10.7671,0.4137,21.5382,0.7213,32.3113,0.9223c21.3763,0.3987,42.773,0.417,64.1477-0.095
				c5.4692-0.131,10.9368-0.3039,16.4053-0.4581c3.1536-0.0889,5.7124,0.5232,6.4385,3.9712
				c0.3426,1.6272,0.2532,3.3302,0.2537,4.9841c0.0014,4.9555,0.0025,9.911,0.0035,14.8665
				c0.0027,13.1337,0.0047,26.2674,0.0068,39.4011c0.0041,26.4273,0.0143,52.8547-0.0017,79.282
				c-0.0013,2.1376-0.0026,4.2752-0.0037,6.4128c0.2016-0.2016,0.4032-0.4032,0.6049-0.6049
				c-40.215,1.3846-80.4628,1.6872-120.6927,0.807c-11.4227-0.2499-22.8432-0.5903-34.2605-1.0204
				c-0.7995-0.0301-0.7981,1.2118,0,1.2422c40.2091,1.5301,80.4593,1.9123,120.6902,1.1345
				c11.4236-0.2209,22.8447-0.5403,34.263-0.9536c0.3264-0.0118,0.6053-0.2675,0.6048-0.6049
				c-0.0316-25.9823-0.0337-51.9646-0.039-77.9469c-0.0029-14.0991-0.0057-28.1981-0.0092-42.2972
				c-0.0013-5.5671-0.0028-11.1342-0.0045-16.7014c-0.0015-4.7985,1.0258-12.7088-5.6336-13.1471
				c-5.4682-0.36-11.1567,0.2683-16.6371,0.3744c-5.6349,0.1091-11.2701,0.2082-16.9057,0.2754
				c-10.9398,0.1305-21.881,0.1509-32.8213,0.0612c-22.2119-0.1821-44.4199-0.8-66.6066-1.8777
				c-2.8147-0.1367-5.629-0.2806-8.4429-0.4318c-2.0795-0.1118-4.2551-0.3866-6.3258-0.0322
				c-3.5297,0.6041-5.0266,3.2167-5.4103,6.5699c-0.5759,5.0336-0.5532,10.2034-0.714,15.2628
				c-0.4268,13.422-0.4916,26.858-0.588,40.2855c-0.1976,27.5183-0.3543,55.0891,0.9015,82.5865
				c0.1018,2.229,0.2519,4.4568,0.4106,6.6825C9.4778,209.8518,10.2991,209.861,10.2721,209.3226L10.2721,209.3226z"/>
		</g>
	</g>
	<g>
		<g>
			<path fill="#303030" d="M17.8988,76.6799c17.1027,1.2211,34.345,1.4035,51.4851,1.5816
				c17.3326,0.1801,34.6706,0.0668,51.9983-0.3924c9.7386-0.2581,19.4723-0.6231,29.2016-1.1219
				c0.7044-0.0361,0.7115-1.1294,0-1.1016c-34.4831,1.3489-68.9802,1.8229-103.483,1.001
				c-9.7348-0.2319-19.4668-0.7137-29.2019-0.8926C17.2976,75.7431,17.3104,76.6379,17.8988,76.6799L17.8988,76.6799z"/>
		</g>
	</g>
	<g>
		<g>
			<path fill="#303030" d="M29.6484,65.5961c-0.8781,0.1423-1.4246,0.083-1.6821,1.0457c-0.167,0.6243-0.078,1.3092,0.1876,1.8918
				c0.5911,1.2966,2.0279,1.9302,3.3624,1.3684c1.2916-0.5438,2.1356-1.9961,1.6364-3.3686
				c-0.4861-1.3365-2.1053-2.2179-3.4611-1.6927c-0.5618,0.2177-0.353,1.029,0.2508,0.9097
				c1.982-0.3916,3.2731,2.2123,1.2472,3.1673c-0.8033,0.3787-1.6456,0.0437-2.06-0.716c-0.1953-0.3581-0.2843-0.7573-0.2329-1.1628
				c0.0715-0.564,0.48-0.5145,0.9791-0.6178C30.4214,66.308,30.1821,65.5096,29.6484,65.5961L29.6484,65.5961z"/>
		</g>
	</g>
	<g>
		<g>
			<path fill="#303030" d="M38.3471,65.2565c-2.0519,1.1009-1.4921,4.7208,0.8485,5.0703c2.3753,0.3546,4.0377-3.2044,2.1127-4.7169
				c-0.4976-0.391-1.1714,0.2287-0.7126,0.7126c0.8581,0.9052,0.1796,3.1126-1.2515,2.8505
				c-1.2989-0.2379-1.5235-2.3711-0.4677-3.0109C39.4549,65.8117,38.9423,64.9372,38.3471,65.2565L38.3471,65.2565z"/>
		</g>
	</g>
	<circle fill="#E93A1D" cx="21.6416" cy="67.3471" r="2.9701"/>
	<path fill="#E93A1D" d="M46.3127,90.4907c-6.1925-5.1308-18.8778-3.8072-26.3814-1.5849
		c-3.1428,0.3138-4.7536,6.1663,0.2828,6.8262c4.2294,0.5537,8.4974,0.1083,12.7497,0.2255
		c3.9366,0.1087,7.9644,1.2857,11.8138,0.3474C47.1678,95.7217,48.3405,92.1711,46.3127,90.4907z"/>
	<path fill="#E6E6E6" d="M128.6597,88.0003c-12.3579-0.4779-24.9976,0.2971-37.4485,0.0115
		c-11.7784-0.2703-25.5705-2.438-36.9601,0.8611c-2.7824,0.8061-2.6051,4.5894,0,5.4723
		c12.1829,4.1282,27.6592,2.2922,40.4084,2.5769c10.5596,0.2357,26.4453,3.6085,35.7559-2.4397
		C133.3218,92.5944,132.1631,88.1358,128.6597,88.0003z"/>
	<g>
		<g>
			<path fill="#777777" d="M20.949,116.0304c8.7379,0.583,17.6926-0.0293,26.4488-0.1134
				c8.7818-0.0844,17.6871,0.2333,26.4488-0.3681c0.7643-0.0525,0.7738-1.1584,0-1.1953
				c-8.7717-0.4181-17.6681,0.0868-26.4488,0.1866c-8.7577,0.0996-17.7236-0.3238-26.4488,0.4414
				C20.2797,115.0403,20.2693,115.985,20.949,116.0304L20.949,116.0304z"/>
		</g>
	</g>
	<g>
		<g>
			<path fill="#777777" d="M20.949,121.1878c12.5289,0.3838,25.1192,0.1749,37.6565,0.2954c0.7828,0.0075,0.7783-1.1836,0-1.2129
				c-12.4822-0.4696-25.1785-0.8181-37.6565-0.1255C20.2816,120.1818,20.274,121.1671,20.949,121.1878L20.949,121.1878z"/>
		</g>
	</g>
	<g>
		<g>
			<path fill="#777777" d="M20.949,136.1187c8.8864-0.7647,17.7482-1.5172,26.6695-1.7348
				c8.9232-0.2176,17.8155,0.1272,26.7305,0.4395c0.7455,0.0261,0.7194-1.0739,0-1.1426
				c-17.6124-1.6803-36.0364-1.1527-53.5426,1.3847C20.2134,135.1516,20.3475,136.1705,20.949,136.1187L20.949,136.1187z"/>
		</g>
	</g>
	<g>
		<g>
			<path fill="#777777" d="M20.949,140.3946c13.141,0.2975,26.3713-0.1217,39.4642-1.2863c0.7783-0.0692,0.7973-1.2806,0-1.2305
				c-13.1556,0.8277-26.2827,1.305-39.4642,1.3977C20.2281,139.2805,20.2288,140.3783,20.949,140.3946L20.949,140.3946z"/>
		</g>
	</g>
	<g>
		<g>
			<path fill="#777777" d="M20.949,154.709c18.8761,1.4671,38.0452,1.3265,56.942,0.358c0.8466-0.0434,0.8555-1.3563,0-1.3242
				c-19.0173,0.7135-37.9297,0.3933-56.942-0.1705C20.2106,153.5503,20.2279,154.6529,20.949,154.709L20.949,154.709z"/>
		</g>
	</g>
	<g>
		<g>
			<path fill="#777777" d="M20.949,161.5253c8.7446,0.8299,17.6898,0.7641,26.4438,0.1204c0.6993-0.0514,0.7146-1.1311,0-1.1016
				c-8.8342,0.3645-17.6077,0.2979-26.4438,0.1257C20.3898,160.6589,20.4105,161.4742,20.949,161.5253L20.949,161.5253z"/>
		</g>
	</g>
	<g>
		<g>
			<path fill="#777777" d="M20.949,174.578c13.8274,0.53,27.9572-0.4846,41.6693-2.2395c0.7932-0.1015,0.8234-1.3536,0-1.2715
				c-13.8964,1.386-27.7237,1.9381-41.6693,2.4387C20.2591,173.5305,20.2585,174.5515,20.949,174.578L20.949,174.578z"/>
		</g>
	</g>
	<g>
		<g>
			<path fill="#777777" d="M20.949,181.4484c4.9458-0.0689,9.8626,0.0932,14.7937,0.4834c0.7943,0.0629,0.7777-1.1526,0-1.2305
				c-4.917-0.492-9.8565-0.6285-14.7937-0.4131C20.2067,180.3206,20.1985,181.4589,20.949,181.4484L20.949,181.4484z"/>
		</g>
	</g>
	<g>
		<g>
			<path fill="#777777" d="M20.949,195.5998c15.0776,0.5326,30.2011,0.7072,45.2877,0.7766c0.7818,0.0036,0.7798-1.1917,0-1.2129
				c-15.0805-0.4108-30.2013-0.7179-45.2877-0.6653C20.2383,194.5007,20.2416,195.5748,20.949,195.5998L20.949,195.5998z"/>
		</g>
	</g>
	<g>
		<g>
			<path fill="#777777" d="M20.949,200.9519c8.7909,0.5689,17.6489,0.6237,26.4554,0.7815c0.812,0.0145,0.8095-1.2345,0-1.2598
				c-8.8015-0.2746-17.6495-0.6552-26.4554-0.5178C20.303,199.9659,20.3134,200.9107,20.949,200.9519L20.949,200.9519z"/>
		</g>
	</g>
	<g>
		<g>
			<path fill="#172DF8" d="M20.949,112.373c8.9574,0.2176,17.9395,0.0406,26.8977-0.0645c0.6145-0.0072,0.6155-0.9479,0-0.9551
				c-8.9582-0.1051-17.9403-0.282-26.8977-0.0645C20.2517,111.3059,20.2505,112.356,20.949,112.373L20.949,112.373z"/>
		</g>
	</g>
	<g>
		<g>
			<path fill="#172DF8" d="M20.949,130.4357c9.8605-0.2953,19.7367-0.775,29.5767-1.4767c0.6809-0.0486,0.6962-1.0956,0-1.0723
				c-9.8621,0.3303-19.7368,0.8866-29.5767,1.6232C20.3621,129.5538,20.3471,130.4537,20.949,130.4357L20.949,130.4357z"/>
		</g>
	</g>
	<g>
		<g>
			<path fill="#172DF8" d="M20.949,150.7406c11.0517,0.1538,22.1292,0.0717,33.1791-0.1756c0.8809-0.0197,0.8847-1.3666,0-1.3711
				c-11.0531-0.0562-22.1311,0.0535-33.1791,0.3983C20.2117,149.6152,20.2076,150.7303,20.949,150.7406L20.949,150.7406z"/>
		</g>
	</g>
	<g>
		<g>
			<path fill="#172DF8" d="M20.949,169.9234c8.6875-0.0013,17.333-0.0594,26.0204,0.2262c0.7846,0.0258,0.7646-1.1445,0-1.207
				c-8.5888-0.702-17.432-0.8544-26.0204-0.0622C20.2924,168.941,20.2658,169.9235,20.949,169.9234L20.949,169.9234z"/>
		</g>
	</g>
	<g>
		<g>
			<path fill="#172DF8" d="M20.949,190.9671c9.1222-0.619,18.2291-0.739,27.3663-0.4226c0.8033,0.0278,0.7927-1.1929,0-1.2422
				c-9.1164-0.5667-18.2847-0.3314-27.3663,0.6394C20.3058,190.0105,20.2817,191.0124,20.949,190.9671L20.949,190.9671z"/>
		</g>
	</g>
	<g>
		<g>
			<path fill="#303030" d="M104.6671,114.18c-0.035,4.3194-0.0249,8.635,0.0271,12.9543c0.025,2.0779,0.0166,4.1603,0.0883,6.2372
				c0.0432,1.2539,0.0994,2.5898,0.9089,3.6199c1.7304,2.2019,5.9277,2.0327,8.4237,2.1179
				c4.3781,0.1494,8.7819-0.0044,13.1613-0.0572c2.1443-0.0258,4.2885-0.0523,6.4326-0.0902
				c1.6663-0.0295,4.0305,0.3865,5.6077-0.255c2.2478-0.9143,1.3944-4.7994,1.3876-6.6567
				c-0.0163-4.4642-0.0326-8.9285-0.0488-13.3927c-0.007-1.9345,0.5248-5.0022-1.9607-5.5683
				c-2.3661-0.5389-5.1621-0.3467-7.5843-0.4786c-2.4945-0.1358-4.9889-0.2716-7.4834-0.4074
				c-5.1552-0.2806-10.3105-0.5613-15.4657-0.8419c-0.7835-0.0427-0.7817,1.1774,0,1.2188
				c8.979,0.4745,17.9575,1.0168,26.9403,1.4105c0.8313,0.0364,2.2853-0.2114,2.9934,0.1316
				c1.7863,0.8655,1.4719,2.5735,1.4785,4.0392c0.0105,2.3148,0.0209,4.6296,0.0314,6.9443
				c0.009,1.9841,0.0179,3.9682,0.0269,5.9523c0.006,1.3216,0.0412,2.6468,0.0233,3.9682c-0.019,1.4051,0.3889,2.3566-1.4927,2.8367
				c-1.8866,0.4814-4.4992-0.0124-6.4326-0.0141c-2.1442-0.0019-4.2885,0.006-6.4326,0.0138
				c-4.188,0.0153-8.4155,0.2247-12.597-0.0596c-3.1711-0.2156-6.4678-0.4817-6.6609-4.4315
				c-0.0936-1.9139-0.0588-3.8416-0.0948-5.7575c-0.084-4.4806-0.2067-8.956-0.3808-13.434
				C105.5412,113.6054,104.6717,113.6003,104.6671,114.18L104.6671,114.18z"/>
		</g>
	</g>
	<g>
		<g>
			<path fill="#303030" d="M105.7325,146.2011c-0.681,5.3846-1.2074,10.7868-1.7472,16.1873
				c-0.1399,1.3992-0.8599,3.5388,0.5603,4.4943c1.2808,0.8617,3.7541,0.234,5.1388,0.1597
				c5.3069-0.2846,10.6139-0.5692,15.9208-0.8539c2.5731-0.138,5.1463-0.2734,7.7192-0.4149
				c3.1079-0.1709,6.2482-0.4443,9.1833,0.8199c0.374,0.1611,0.8993-0.0159,0.8755-0.5024
				c-0.2578-5.2815-0.5007-10.5638-0.7503-15.8457c-0.1592-3.3693,0.1673-6.0123-3.6685-6.563
				c-10.0309-1.4401-20.7836-1.3835-30.8468-0.339c-0.7614,0.079-0.7899,1.262,0,1.2129
				c8.3733-0.5211,16.6937-0.7977,25.0761-0.2409c1.7516,0.1163,4.1476-0.128,5.7706,0.4867
				c3.2496,1.2309,2.5467,5.6956,2.6705,8.4144c0.1954,4.2915,0.3959,8.5828,0.5846,12.8747
				c0.2918-0.1675,0.5837-0.335,0.8755-0.5024c-3.7293-1.6634-7.7278-1.2095-11.7005-1.0013
				c-4.9854,0.2614-9.9706,0.525-14.9559,0.7876c-2.4122,0.127-4.8245,0.2541-7.2367,0.3811
				c-1.3197,0.0695-3.4241,0.7175-4.1437-0.915c-0.3066-0.6955,0.2672-2.6473,0.3466-3.4337
				c0.5113-5.0651,1.0279-10.1294,1.4058-15.2062C106.863,145.4971,105.8172,145.5307,105.7325,146.2011L105.7325,146.2011z"/>
		</g>
	</g>
	<g>
		<g>
			<path fill="#303030" d="M103.4274,173.8023c0.6265,5.6768,0.3504,11.015-0.0636,16.6801
				c-0.104,1.4232-0.1168,3.0787,0.8722,4.235c1.2517,1.4635,3.6388,1.5521,5.3969,1.7891
				c11.2069,1.5111,22.3394-1.5695,33.5164-1.9124c0.2149-0.0066,0.4391-0.1882,0.4216-0.4216
				c-0.5574-7.4377-0.9718-14.8858-1.568-22.3208c-0.0439-0.5468-0.8954-0.5571-0.8613,0
				c0.2176,3.5603,0.4846,7.1173,0.7399,10.6751c0.2274,3.1684,0.8462,6.5359,0.7175,9.7047
				c-0.0594,1.4629,0.0956,1.3225-1.3095,1.5746c-0.7488,0.1344-1.5682,0.0858-2.3264,0.1406
				c-1.7084,0.1236-3.416,0.2608-5.1209,0.4263c-3.2566,0.3161-6.5054,0.7132-9.7645,1.0036
				c-3.2257,0.2874-6.4671,0.4843-9.7066,0.3806c-3.1415-0.1005-9.6405,0.2034-9.9184-3.9657
				c-0.1906-2.8595,0.5737-5.8614,0.6083-8.7447c0.0377-3.1397-0.1874-6.2738-0.7187-9.3684
				C104.2546,173.1668,103.3697,173.2791,103.4274,173.8023L103.4274,173.8023z"/>
		</g>
	</g>
	<g>
		<g>
			<path fill="#303030" d="M140.1079,171.0967c-11.1768-0.1286-22.4983-0.6445-33.6648-0.1254
				c-0.6594,0.0307-0.6605,0.9945,0,1.0254c11.1663,0.5226,22.488,0.0103,33.6648-0.1148
				C140.6131,171.8762,140.6139,171.1025,140.1079,171.0967L140.1079,171.0967z"/>
		</g>
	</g>
	<g>
		<g>
			<path fill="#303030" d="M181.2063,119.016c2.1007,0.1429,4.194,0.3425,6.2932,0.4953c0.6125,0.0446,0.741-0.934,0.1449-1.0704
				c-2.086-0.4773-4.3066-0.5992-6.438-0.4386C180.5563,118.0512,180.5522,118.9715,181.2063,119.016L181.2063,119.016z"/>
		</g>
	</g>
	<g>
		<g>
			<path fill="#303030" d="M192.2957,118.9849c1.3492,0.0969,2.7303,0.1725,4.0788,0.0498c0.651-0.0592,0.6523-0.9543,0-1.0137
				c-1.3485-0.1227-2.7295-0.0471-4.0788,0.0498C191.7082,118.113,191.7072,118.9426,192.2957,118.9849L192.2957,118.9849z"/>
		</g>
	</g>
	<g>
		<g>
			<path fill="#303030" d="M210.1324,118.982c4.5403-0.4807,8.8254-0.4948,13.3751-0.1365c0.587,0.0462,0.726-0.9275,0.1402-1.0359
				c-4.444-0.8218-9.2258-0.6881-13.6306,0.3206C209.5504,118.2372,209.64,119.0341,210.1324,118.982L210.1324,118.982z"/>
		</g>
	</g>
	<g>
		<g>
			<path fill="#303030" d="M248.6656,119.9662c2.3282-0.2482,4.6029-0.1226,6.9129,0.2435c0.5935,0.094,0.865-0.788,0.2539-0.921
				c-2.3705-0.5158-4.7661-0.5436-7.1669-0.2248C248.1034,119.1385,248.0822,120.0284,248.6656,119.9662L248.6656,119.9662z"/>
		</g>
	</g>
	<g>
		<g>
			<path fill="#303030" d="M267.2092,120.4076c1.4135-0.1783,2.8346-0.3326,4.2271-0.6397
				c0.5509-0.1215,0.4422-1.0618-0.1355-1.0013c-1.4203,0.1486-2.8166,0.4427-4.2162,0.7202
				C266.5742,119.5881,266.6818,120.4741,267.2092,120.4076L267.2092,120.4076z"/>
		</g>
	</g>
	<g>
		<g>
			<path fill="#303030" d="M281.322,120.9268c2.9668,0.0732,5.9318,0.0765,8.8992,0.0527c0.7691-0.0062,0.7704-1.1891,0-1.1953
				c-2.9673-0.0238-5.9324-0.0205-8.8992,0.0527C280.6209,119.8543,280.6198,120.9095,281.322,120.9268L281.322,120.9268z"/>
		</g>
	</g>
	<g>
		<g>
			<path fill="#303030" d="M181.3566,129.8667c0.3975-0.13,0.7314,0.0081,1.0587,0.2429c0.558,0.4002,1.0306-0.4224,0.6745-0.8742
				c-0.476-0.6041-1.3409-0.7486-2.0339-0.4591C180.4065,129.0475,180.6455,130.0992,181.3566,129.8667L181.3566,129.8667z"/>
		</g>
	</g>
	<g>
		<g>
			<path fill="#303030" d="M180.8571,134.2057c-0.5543,0.9239,0.6739,2.0768,1.5082,1.3093
				c0.3808-0.3503-0.0219-0.9431-0.4846-0.8324c-0.1021,0.0244-0.1776-0.0229-0.1455-0.1067
				C181.9344,134.0558,181.1292,133.7521,180.8571,134.2057L180.8571,134.2057z"/>
		</g>
	</g>
	<g>
		<g>
			<path fill="#303030" d="M180.8645,141.1176c0.1295,0.1204,0.2555,0.2376,0.3936,0.348c0.4558,0.3644,1.0027-0.1818,0.638-0.638
				c-0.1104-0.1381-0.2276-0.2641-0.348-0.3936C181.1236,139.9774,180.4077,140.6929,180.8645,141.1176L180.8645,141.1176z"/>
		</g>
	</g>
	<g>
		<g>
			<path fill="#303030" d="M181.2063,148.0566c0.1236-0.0039,0.2472-0.0078,0.3708-0.0117c0.7651-0.0242,0.7664-1.1652,0-1.1895
				c-0.1236-0.0039-0.2472-0.0078-0.3708-0.0117C180.4258,146.819,180.4245,148.0813,181.2063,148.0566L181.2063,148.0566z"/>
		</g>
	</g>
	<g>
		<g>
			<path fill="#303030" d="M181.2063,155.0901c0.7654,0,0.7666-1.1895,0-1.1895
				C180.4409,153.9006,180.4396,155.0901,181.2063,155.0901L181.2063,155.0901z"/>
		</g>
	</g>
	<g>
		<g>
			<path fill="#303030" d="M180.6613,161.1697c-0.0086,0.3053-0.007,0.5791,0.0392,0.881c0.0766,0.5007,0.9347,0.501,1.0114,0
				c0.0464-0.3029,0.0478-0.5763,0.0392-0.881C181.7314,160.4686,180.6812,160.4675,180.6613,161.1697L180.6613,161.1697z"/>
		</g>
	</g>
	<g>
		<g>
			<path fill="#303030" d="M181.2063,169.9718c0.8295,0,0.8308-1.2891,0-1.2891
				C180.3768,168.6827,180.3754,169.9718,181.2063,169.9718L181.2063,169.9718z"/>
		</g>
	</g>
	<g>
		<g>
			<path fill="#303030" d="M192.5322,129.6602c0.6969-0.404,1.4332-0.307,2.1279,0.044c0.459,0.2319,1.0204-0.3804,0.5822-0.7546
				c-0.9013-0.7696-2.2211-0.7534-3.1833-0.0989C191.5655,129.1865,192.0037,129.9666,192.5322,129.6602L192.5322,129.6602z"/>
		</g>
	</g>
	<g>
		<g>
			<path fill="#303030" d="M192.2957,136.1354c0.7437,0.0166,1.4825,0.0459,2.2248-0.0146c0.6889-0.0562,0.6902-1.016,0-1.0723
				c-0.7423-0.0605-1.4811-0.0312-2.2248-0.0146C191.587,135.0497,191.5858,136.1196,192.2957,136.1354L192.2957,136.1354z"/>
		</g>
	</g>
	<g>
		<g>
			<path fill="#303030" d="M192.0517,143.1457c0.7677,0.4049,1.6578,0.3792,2.3848-0.1031c0.5465-0.3625,0.064-1.2097-0.5175-0.8854
				c-0.4806,0.268-0.9811,0.2848-1.4948,0.1049C191.9075,142.0813,191.5691,142.8912,192.0517,143.1457L192.0517,143.1457z"/>
		</g>
	</g>
	<g>
		<g>
			<path fill="#303030" d="M192.5677,150.14c0.2-0.1212,0.3621-0.1058,0.5521,0.0203c0.5871,0.3895,1.0933-0.5291,0.5442-0.9309
				c-0.4919-0.36-1.1393-0.3622-1.6404-0.0203C191.4571,149.5957,191.967,150.5041,192.5677,150.14L192.5677,150.14z"/>
		</g>
	</g>
	<g>
		<g>
			<path fill="#303030" d="M192.2957,156.1264c0.6228,0.0512,1.2297,0.0665,1.854,0.0445c0.7199-0.0254,0.721-1.0933,0-1.1191
				c-0.624-0.0224-1.2314-0.0074-1.854,0.0434C191.633,155.1493,191.632,156.0718,192.2957,156.1264L192.2957,156.1264z"/>
		</g>
	</g>
	<g>
		<g>
			<path fill="#303030" d="M192.1477,162.6685c1.3363,0.2667,2.6892,0.3757,4.0361,0.132c0.6308-0.1141,0.4518-1.0626-0.1464-1.0819
				c-1.2509-0.0403-2.4934-0.0216-3.7417-0.1435C191.6742,161.5143,191.534,162.546,192.1477,162.6685L192.1477,162.6685z"/>
		</g>
	</g>
	<g>
		<g>
			<path fill="#303030" d="M192.4312,171.2388c0.8794-0.2887,1.7844-0.3575,2.7007-0.2271
				c0.6992,0.0995,1.0289-0.9337,0.3006-1.0905c-1.1744-0.2527-2.2995-0.0906-3.3942,0.3858
				C191.5097,170.5372,191.8861,171.4178,192.4312,171.2388L192.4312,171.2388z"/>
		</g>
	</g>
	<g>
		<g>
			<path fill="#E93A1D" d="M209.0078,130.6273c4.5035-0.2154,9.0105-0.4336,13.5186-0.5207
				c4.5079-0.0871,9.0339,0.1795,13.5351,0.0316c0.6662-0.0219,0.6443-0.9573,0-1.0195c-8.852-0.8553-18.2293-0.2204-27.0537,0.6942
				C208.4974,129.8658,208.4754,130.6528,209.0078,130.6273L209.0078,130.6273z"/>
		</g>
	</g>
	<g>
		<g>
			<path fill="#E93A1D" d="M209.0078,136.2476c5.7966,0.4219,11.6069,0.8891,17.416,1.0926c0.7296,0.0256,0.7148-1.0719,0-1.125
				c-5.7916-0.4302-11.6131-0.5993-17.416-0.8114C208.461,135.3838,208.4713,136.2085,209.0078,136.2476L209.0078,136.2476z"/>
		</g>
	</g>
	<g>
		<g>
			<path fill="#E93A1D" d="M209.0078,142.9375c7.947,0.614,16.1382,1.0434,24.099,0.4538c0.7368-0.0546,0.7554-1.1472,0-1.1602
				c-8.0345-0.1376-16.0595,0.073-24.099-0.2019C208.4183,142.0091,208.4314,142.8929,209.0078,142.9375L209.0078,142.9375z"/>
		</g>
	</g>
	<g>
		<g>
			<path fill="#E93A1D" d="M209.0078,149.9597c4.4496-0.2601,8.8951-0.2464,13.3429-0.4472c0.7528-0.034,0.7395-1.1001,0-1.1602
				c-4.3989-0.3572-8.9639-0.0493-13.3429,0.4296C208.2711,148.8626,208.2385,150.0047,209.0078,149.9597L209.0078,149.9597z"/>
		</g>
	</g>
	<g>
		<g>
			<path fill="#E93A1D" d="M209.0078,156.4335c5.1774-0.0029,10.5808-0.3356,15.6946-1.1627
				c0.6556-0.106,0.5012-1.1874-0.1565-1.1567c-5.1553,0.2408-10.4071,0.7706-15.538,1.3409
				C208.3974,155.5229,208.3626,156.4339,209.0078,156.4335L209.0078,156.4335z"/>
		</g>
	</g>
	<g>
		<g>
			<path fill="#E93A1D" d="M208.8684,163.1761c5.4635,1.1649,11.4671,1.2218,16.9701,0.3273
				c0.6239-0.1014,0.4804-1.1427-0.1495-1.1049c-5.6491,0.339-11.0465,0.2048-16.6812-0.2525
				C208.4206,162.0983,208.2918,163.0531,208.8684,163.1761L208.8684,163.1761z"/>
		</g>
	</g>
	<g>
		<g>
			<path fill="#E93A1D" d="M209.0078,170.3619c7.9168-0.0562,15.8467-0.5645,23.7503-0.9919c0.6923-0.0374,0.7011-1.1079,0-1.084
				c-7.9122,0.2701-15.8575,0.463-23.7503,1.1032C208.3928,169.4391,208.3729,170.3664,209.0078,170.3619L209.0078,170.3619z"/>
		</g>
	</g>
	<g>
		<g>
			<path fill="#303030" d="M248.5434,130.2348c1.407,0.227,2.8005,0.5318,4.2287,0.5925c0.5685,0.0242,0.7009-0.8794,0.1355-1.0013
				c-1.3978-0.3014-2.8226-0.3595-4.2419-0.4947C248.1548,129.2826,248.0308,130.1521,248.5434,130.2348L248.5434,130.2348z"/>
		</g>
	</g>
	<g>
		<g>
			<path fill="#303030" d="M248.5216,138.0719c1.5778,0.3665,3.1534,0.4691,4.7564,0.2155c0.5864-0.0928,0.4539-1.088-0.141-1.0416
				c-1.4585,0.1136-2.8923,0.0857-4.3272-0.2191C248.131,136.8824,247.8389,137.9133,248.5216,138.0719L248.5216,138.0719z"/>
		</g>
	</g>
	<g>
		<g>
			<path fill="#303030" d="M248.6656,144.6656c0.8365,0.0584,1.5757,0.2599,2.2959,0.7008
				c0.6471,0.3961,1.2017-0.5881,0.5885-1.0068c-0.8347-0.57-1.8676-0.8987-2.8844-0.8249
				C247.9395,143.5875,247.9369,144.6147,248.6656,144.6656L248.6656,144.6656z"/>
		</g>
	</g>
	<g>
		<g>
			<path fill="#303030" d="M248.5317,151.0758c1.1668,0.1749,2.3356,0.3457,3.5111,0.4489c0.5694,0.05,0.708-0.9142,0.1363-1.0071
				c-1.1652-0.1893-2.339-0.3139-3.5134-0.4316C248.1064,150.03,247.9694,150.9915,248.5317,151.0758L248.5317,151.0758z"/>
		</g>
	</g>
	<g>
		<g>
			<path fill="#303030" d="M248.6656,156.599c1.0382-0.1112,2.0867-0.2209,3.0984-0.4848c0.5739-0.1497,0.4671-1.0706-0.1418-1.0474
				c-1.0452,0.0398-2.0799,0.2335-3.1062,0.4272C247.901,155.6101,248.0324,156.6668,248.6656,156.599L248.6656,156.599z"/>
		</g>
	</g>
	<g>
		<g>
			<path fill="#303030" d="M248.7918,164.1256c1.8153-0.2906,3.6224-0.3071,5.4512-0.1613c0.6949,0.0554,0.6733-0.9968,0-1.0723
				c-1.9195-0.2151-3.8166-0.073-5.7036,0.3183C247.9336,163.3359,248.1999,164.2204,248.7918,164.1256L248.7918,164.1256z"/>
		</g>
	</g>
	<g>
		<g>
			<path fill="#303030" d="M248.8089,170.9085c1.5483-0.3258,3.1105-0.3852,4.6862-0.2814c0.5875,0.0387,0.7355-0.9508,0.141-1.0416
				c-1.7325-0.2645-3.4181-0.1524-5.1138,0.2833C247.8464,170.0426,248.1338,171.0506,248.8089,170.9085L248.8089,170.9085z"/>
		</g>
	</g>
	<g>
		<g>
			<path fill="#303030" d="M267.2092,130.9266c0.9867,0.052,1.9789,0.0438,2.9664,0.0176c0.7086-0.0188,0.7098-1.0827,0-1.1016
				c-0.9873-0.0263-1.9799-0.0344-2.9664,0.0176C266.5236,129.8963,266.5223,130.8905,267.2092,130.9266L267.2092,130.9266z"/>
		</g>
	</g>
	<g>
		<g>
			<path fill="#303030" d="M267.2092,138.5992c0.7684,0.0316,1.585,0.1485,2.3463,0.0218c0.4362-0.0726,0.4365-0.8088,0-0.8814
				c-0.761-0.1267-1.5779-0.0099-2.3463,0.0218C266.6703,137.7834,266.6694,138.5769,267.2092,138.5992L267.2092,138.5992z"/>
		</g>
	</g>
	<g>
		<g>
			<path fill="#303030" d="M267.083,145.8595c0.6071,0.1849,1.3194,0.2846,1.9537,0.2719c0.5669-0.0114,0.702-0.851,0.1355-1.0013
				c-0.6164-0.1636-1.3263-0.2385-1.9631-0.2028C266.6808,144.9568,266.5576,145.6994,267.083,145.8595L267.083,145.8595z"/>
		</g>
	</g>
	<g>
		<g>
			<path fill="#303030" d="M267.2092,152.4388c0.6082,0.0686,1.2448,0.0938,1.854,0.0322c0.7336-0.0742,0.735-1.0682,0-1.1426
				c-0.6094-0.0616-1.2457-0.0364-1.854,0.0322C266.5173,151.4388,266.5159,152.3605,267.2092,152.4388L267.2092,152.4388z"/>
		</g>
	</g>
	<g>
		<g>
			<path fill="#303030" d="M267.2092,156.9411c0.8688,0.0635,1.7289,0.0481,2.5956-0.0322c0.7188-0.0666,0.7202-1.0524,0-1.1191
				c-0.8665-0.0803-1.7271-0.0957-2.5956-0.0322C266.4486,155.8131,266.4472,156.8855,267.2092,156.9411L267.2092,156.9411z"/>
		</g>
	</g>
	<g>
		<g>
			<path fill="#303030" d="M267.4828,165.3002c0.7369-0.326,1.5502-0.3522,2.3395-0.2561c0.5923,0.0721,0.675-0.854,0.1371-1.0128
				c-1.0363-0.306-2.0639-0.1356-3.0237,0.3329C266.3013,164.6738,266.8563,165.5773,267.4828,165.3002L267.4828,165.3002z"/>
		</g>
	</g>
	<g>
		<g>
			<path fill="#303030" d="M267.2092,170.6255c0.8656,0.0159,1.7299,0.0214,2.5956,0.0176c0.739-0.0033,0.7402-1.1452,0-1.1484
				c-0.8657-0.0038-1.73,0.0016-2.5956,0.0176C266.493,169.5254,266.4918,170.6123,267.2092,170.6255L267.2092,170.6255z"/>
		</g>
	</g>
	<g>
		<g>
			<path fill="#303030" d="M281.322,130.8805c1.9588,0.1657,3.859,0.3633,5.7753,0.8262c0.7284,0.176,1.0375-0.9327,0.31-1.1244
				c-1.958-0.5158-4.0568-0.8416-6.0852-0.7155C280.6662,129.9076,280.674,130.8256,281.322,130.8805L281.322,130.8805z"/>
		</g>
	</g>
	<g>
		<g>
			<path fill="#303030" d="M281.322,138.2635c0.7438,0.0435,1.4796,0.075,2.2248,0.0586c0.6596-0.0145,0.6608-1.0109,0-1.0254
				c-0.7452-0.0164-1.4809,0.0151-2.2248,0.0586C280.7382,137.3895,280.7371,138.2293,281.322,138.2635L281.322,138.2635z"/>
		</g>
	</g>
	<g>
		<g>
			<path fill="#303030" d="M281.4638,147.4982c1.1644-0.2738,2.2794-0.167,3.3973,0.2424c0.6129,0.2245,1.0385-0.7738,0.447-1.0602
				c-1.3082-0.6336-2.7612-0.721-4.1278-0.2105C280.5456,146.707,280.7849,147.6578,281.4638,147.4982L281.4638,147.4982z"/>
		</g>
	</g>
	<g>
		<g>
			<path fill="#303030" d="M281.4552,153.111c1.0912-0.2619,2.0888-0.3245,3.2068-0.3075c0.5799,0.0088,0.7107-0.8775,0.1378-1.0186
				c-1.2238-0.3015-2.5904-0.1126-3.7307,0.4104C280.537,152.4395,280.9234,153.2387,281.4552,153.111L281.4552,153.111z"/>
		</g>
	</g>
	<g>
		<g>
			<path fill="#303030" d="M281.4716,160.1434c0.6353-0.2641,1.2794-0.3795,1.9647-0.2607
				c0.6991,0.1212,0.9983-0.8646,0.2975-1.0792c-0.9085-0.2782-1.8741-0.1684-2.6956,0.3117
				C280.5083,159.425,280.8665,160.3949,281.4716,160.1434L281.4716,160.1434z"/>
		</g>
	</g>
	<g>
		<g>
			<path fill="#303030" d="M281.322,166.1349c0.8654,0.0586,1.7286,0.072,2.5956,0.0557c0.7351-0.0138,0.7363-1.1287,0-1.1426
				c-0.8669-0.0163-1.7302-0.0029-2.5956,0.0557C280.6592,165.1485,280.658,166.0899,281.322,166.1349L281.322,166.1349z"/>
		</g>
	</g>
	<g>
		<g>
			<path fill="#303030" d="M281.322,172.056c0.8652,0.0092,1.7303,0.0213,2.5956,0.0176c0.6711-0.0029,0.6722-1.0401,0-1.043
				c-0.8653-0.0038-1.7303,0.0083-2.5956,0.0176C280.6736,171.0551,280.6725,172.049,281.322,172.056L281.322,172.056z"/>
		</g>
	</g>
</g>
</svg>
