<?xml version="1.0" encoding="utf-8"?>
<!-- Generator: Adobe Illustrator 20.1.0, SVG Export Plug-In . SVG Version: 6.00 Build 0)  -->
<svg version="1.1" xmlns="http://www.w3.org/2000/svg" xmlns:xlink="http://www.w3.org/1999/xlink" x="0px" y="0px"
	 viewBox="0 0 330 297" enable-background="new 0 0 330 297" xml:space="preserve">
<g id="site_bg">
</g>
<g id="back">
	<g>
		<g>
			<path fill="#F2F6F9" d="M189.2151,296.6176c-6.0186,0.0005-12.7314-2.2051-20.0928-6.6138
				c-1.3916-0.8335-2.8525-1.7627-4.3887-2.7905c-0.7607,0.8901-1.6016,1.7236-2.5166,2.4912
				c-7.4434,6.2461-18.2998,6.2363-25.7314-0.019l-8.6553-7.2842c-1.1836,2.1729-2.7725,4.1299-4.707,5.7534
				c-4.5879,3.8491-14.4697,8.9365-29.0918-0.2485c-2.7158-1.7056-5.8945-4.0132-9.6514-7.0093
				c-7.458,2.3071-15.9014,0.103-21.2353-6.252c-1.6748-1.9956-2.8926-4.2217-3.666-6.5522
				c-6.2168-8.7744-31.1104-37.1084-52.3828-60.2754c-6.6396-7.231-6.9609-18.0483-1.2002-25.6191
				c-4.7158-7.4697-5.6553-11.8389-5.3408-16.8442c0.3535-5.6465,3.0195-10.9512,7.3135-14.5542
				c2.3955-2.0103,5.1455-3.373,8.0205-4.0874C5.2366,134.8861,0.8254,129.9169,1.4075,120.6918
				c0.3447-5.4614,2.9424-10.6133,7.1348-14.1309c2.9287-2.4575,6.3652-3.9365,9.9014-4.4614
				c-2.3281-3.147-3.6348-4.9282-3.7012-5.0181c-5.1758-7.0586-5.0518-16.416-0.2891-23.2539
				c1.2432-2.8301,3.123-5.3721,5.5098-7.3745c1.8271-1.5332,4.4707-3.251,7.9014-4.2246
				c0.4326-5.9819,3.1484-11.3496,7.6758-15.1479c2.9414-2.4683,6.3945-3.9492,9.9473-4.4683
				c1.1592-3.4854,3.2666-6.6182,6.124-9.0161c4.2734-3.5874,9.6436-5.0967,14.8262-4.583
				c1.2168-3.0356,3.1689-5.7607,5.7168-7.8989c3.167-2.6572,6.9502-4.3623,11.0176-5.0171
				c4.4033-3.7603,10.0205-5.2915,15.4043-4.6353c0.4775-0.4937,0.9824-0.9644,1.5127-1.4092
				c2.4834-2.0835,7.7441-5.4771,15.2246-4.9956c3.6846-2.1797,9.5332-4.1924,17.0957-2.1025
				c3.6377-2.0107,7.7363-2.7856,11.7188-2.376c1.5195-0.2144,3.0703-0.2549,4.6221-0.1118
				c1.7188,0.1582,3.3936,0.5361,4.9883,1.1143c6.5928-1.8896,13.9629-0.3281,19.2705,4.6904l7.4258,7.021
				c0.5586-0.5996,1.1553-1.167,1.7871-1.6973c8.0117-6.7212,19.8477-6.1367,27.1562,1.3408
				c1.5166,1.5522,3.043,3.1133,4.5723,4.6758c7.292-2.9922,15.9512-1.4775,21.8037,4.4277
				c0.1377,0.1396,8.7666,8.8555,20.5439,21.165c-0.1729-4.1533-1.5977-8.123-3.9512-11.1479
				c3.1318,4.0254,44.8223,53.5288,70.3652,83.7861c3.1055,3.6782,4.7686,8.3384,4.7158,13.1191
				c1.5215,3.8911,2.0801,7.3364,1.9209,10.814c-0.1738,3.7812-1.2559,7.3286-3.1318,10.4072
				c1.7227,4.1914,2.1768,7.6304,1.9678,11.105c-0.3594,6.0044-3.0547,11.4072-7.5908,15.2129
				c-0.9775,0.8208-2.0137,1.5332-3.0918,2.1372c4.2695,7.0688,3.709,16.0571-1.292,22.5317
				c-0.3652,2.7285-1.291,5.3887-2.7666,7.7939c-1.1826,3.3232-3.2354,6.3052-5.9854,8.6128
				c-0.0312,0.0259-0.0615,0.0518-0.0928,0.0776c-0.6084,5.0508-2.999,9.6011-6.8125,12.9443
				c-1.2539,3.9873-3.585,7.5107-6.8232,10.228c-1.2109,1.0156-2.5078,1.8643-3.8633,2.5479
				c-1.0527,4.2026-3.376,7.9395-6.7441,10.7651c-0.9795,0.8223-2.0283,1.542-3.1299,2.1548
				c-1.2656,2.4185-2.999,4.582-5.1436,6.3818c-3.668,3.0781-8.1426,4.6255-12.6172,4.6772
				c-1.1016,3.7578-3.292,7.1401-6.3359,9.6948c-2.0791,1.7446-8.0791,5.9116-16.4844,4.4775
				c-1.0576,1.4883-2.3115,2.8496-3.7461,4.0532c-6.7314,5.6489-16.1318,6.2505-23.6377,1.5952
				c-1.0039,1.4453-2.2021,2.7646-3.5742,3.916c-4.3643,3.6626-9.8535,5.499-15.667,5.2559
				C191.6243,296.5272,190.4338,296.6176,189.2151,296.6176z"/>
		</g>
	</g>
</g>
<g id="Layer_2">
	<path fill="#FFEFAF" d="M52.1357,110.9479c-1.3723-0.2737-2.6501-0.1404-3.8904,0.1885c-0.2471-0.127-0.4939-0.2542-0.741-0.3813
		c-0.7053-0.4426-1.4695-0.8088-2.2971-1.0603c-3.5977-1.0928-6.4675,1.8289-6.8811,4.9238
		c-4.2703-0.2046-8.2197,5.4404-4.3423,9.4246c4.2751,4.3923,12.2395,5.7173,16.2739,0.3938
		c2.0291,0.6782,4.0247,0.1863,5.7251-1.2537C60.6233,119.2533,57.4846,112.0145,52.1357,110.9479z"/>
	<path fill="#FFEFAF" d="M258.975,257.3517c-0.1963-0.9948,0.1547-2.049,1.5025-3.2141c2.9692-2.5665,6.3118-4.5414,7.1126-9.0181
		c1.8309-10.2416-8.6605-14.4239-17.1717-12.6132c-11.8921,2.5299-8.0142,13.9642-11.4447,22.7644
		c-0.8957,2.2977-1.4077,3.8991-3.8809,4.8106c-3.935,1.4502-10.327-4.3805-11.5601,2.7504
		c-0.4199,2.4281-0.2936,4.4754,1.253,6.4997c0.574,0.7515,1.4968,1.5625,2.3025,2.0244c0.438,0.1848,0.876,0.3696,1.314,0.5544
		c0.2524,0.1433,0.459,0.2429,0.6445,0.322c0.1204,3.9731,4.6228,6.6389,7.9058,5.0576c2.405,0.8545,2.9525,1.5124,4.8477,2.9672
		c1.167,0.8958,1.7133,0.9368,3.1477,0.9844c3.6639,0.1217,6.6151-2.0005,10.0634-2.7832c3.3722-0.7654,6.5486-0.1422,8.0021-4.226
		c1.196-3.3602,1.192-6.3236,0.6544-9.8189C263.2822,261.9039,259.4597,259.8087,258.975,257.3517z"/>
	<path fill="#E93A1D" d="M161.8137,216.33c-1.233,0.1654-2.3657,0.4007-3.0677,0.5825c-7.1218,1.8443-13.9702,3.6784-20.0004,8.1361
		c-6.5784,4.8628-9.0547,12.1379-10.8274,19.8328c-0.6982,3.0305,0.9263,5.7688,3.8413,6.7656
		c0.8477,0.2483,1.4883,0.762,1.9219,1.5408c2.48,2.906,5.6631,2.0674,7.5383-0.1587c-0.3464,7.9812-1.0344,15.9463-2.1272,23.8682
		c-0.9348,6.7773,8.917,10.0146,10.6072,2.9243c1.0503-4.4065,5.8069-5.4302,7.5789-9.5129
		c1.9724-4.545,0.8812-10.5912,0.9221-15.3968c0.0698-8.1898-1.3258-20.0183,1.7724-27.7795
		c1.3948-3.494,4.1425-4.2004,6.3908-6.6945C170.3864,215.9754,165.6221,215.8191,161.8137,216.33z"/>
	<path fill="#E93A1D" d="M203.571,232.962c-1.9551-5.2644-4.3997-9.4983-8.9541-12.8853c-2.8364-2.1096-7.3205,0.1123-8.0793,3.2868
		c-0.4123,1.7248-8.7997-1.6545-9.4243-1.7408c0.7514,2.6353,4.5875,5.092,5.0548,7.895c0.3343,2.0051-0.6428,4.195-0.8025,5.7303
		c-1.1909,11.4519-0.1203,23.3305-0.6399,34.8674c-0.0095,0.2114-0.0078,0.4155,0.0022,0.6143
		c-1.0586,3.9333-1.5825,7.9639-1.615,12.0986c-0.0505,6.449,9.0681,7.0269,10.7363,1.7231
		c2.4229,0.3145,5.0771-0.9792,6.0786-3.5061c0.8557-0.8923,1.3613-2.0974,1.2212-3.5854l-0.4326-4.5979
		c-0.0723-0.7671-0.2722-1.4373-0.543-2.0393c-0.2546-1.6912-0.509-3.3821-0.7637-5.0732c-0.21-3.5498-0.4241-7.1016-0.6602-10.6516
		c0.0906,0.0437,0.1682,0.1028,0.261,0.144c5.2124,2.3145,10.7168-1.2415,12.1057-6.4963
		C208.4966,243.5243,205.3511,237.7552,203.571,232.962z"/>
	<path fill="#FFEFAF" d="M185.3469,162.0785c0.0332-0.5579,0.0596-1.1155,0.0984-1.6733c0.3447-4.9587-6.4084-6.896-9.4375-4.1274
		c-2.0581,0.9761-3.3738,3.0557-2.3323,5.8159c-0.1123,0.0879-0.2373,0.1433-0.3784,0.1521
		c-0.3074,0.019-1.6516-1.594-1.9617-1.8425c-1.9729-1.582-4.2764-2.543-6.8499-2.1157c-1.8105,0.3005-3.3438,1.2092-4.5242,2.5391
		c-0.5745-0.1616-1.1677-0.272-1.7944-0.2759c-4.0471-0.0254-6.9485,3.5146-6.3049,7.4636c0.3076,1.8877,1.2847,3.55,1.6045,5.4866
		c0.3896,2.3613,0.7058,4.5532,1.6467,6.7737c1.8435,4.3511,4.8025,8.2371,7.3582,12.1921
		c1.9097,2.9556,5.2366,3.0659,7.6135,1.6941c5.9399,5.7126,12.7854-0.8425,14.4688-7.2859c0.1787-0.6843,0.303-1.376,0.4055-2.0703
		c1.3577-0.8799,2.3813-2.3774,2.5537-4.4463C188.033,174.1161,187.3103,167.9696,185.3469,162.0785z"/>
	<path fill="#FFEFAF" d="M110.2605,224.1014c-3.2573-5.0042-8.7092-5.113-13.2224-8.179
		c-4.1021-2.7864-7.7166-6.9189-12.9797-3.1804c-1.7861,1.2688-2.9922,3.3489-3.0947,5.5728
		c-1.0483-0.429-2.0627-0.8628-2.7021-1.6133c-1.2971-1.5227-1.4832-7.0239-1.9075-9.0684
		c-0.675-3.2532-1.3503-6.5063-2.0254-9.7598c-0.9963-4.8015-7.7244-4.9553-10.0417-1.6182c-0.9626,0.1936-1.8757,0.668-2.6106,1.51
		c-0.3315,0.3796-0.6406,0.7634-0.9351,1.1506c-1.1655-0.2598-2.4766-0.1094-3.8267,0.6335
		c-5.8633,3.2263-9.8098,8.2527-11.8525,14.5906c-1.9221,5.9641,6.1306,8.9116,9.5317,4.8909
		c0.3879,2.1218,0.9143,4.2385,1.6292,6.3572c1.6257,4.8169,9.0554,5.5352,10.5378,0.2097c0.4985,0.3132,1.031,0.5947,1.6035,0.8374
		c1.386,0.5876,3.092,0.6687,4.5989,0.2524c0.9529,0.4409,2.1113,0.6384,2.9351,1.1956c1.2383,0.8372,1.8552,2.2222,2.9341,3.2163
		c3.9578,3.6475,11.2893,4.6777,16.2622,6.3259c4.8721,1.6147,10.0884,3.6995,14.1821-0.717
		C112.4463,233.2889,112.7908,227.9881,110.2605,224.1014z"/>
	<g>
		<g>
			<path fill="#303030" d="M8.3673,36.6402c11.5487,9.9773,30.5508,8.1322,40.5816-3.1169
				c-0.3344-0.0431-0.6687-0.0862-1.0031-0.1293c8.8058,13.4662,30.6521,14.1655,40.3681,1.3904
				c-0.3521,0.0454-0.7041,0.0907-1.0562,0.1361c12.9319,13.0378,36.3754,12.3728,48.5119-1.4299
				c-0.3555-0.0458-0.7109-0.0916-1.0664-0.1374c3.4564,6.8463,11.0352,10.6672,18.5722,10.545
				c8.7842-0.1424,16.6028-5.3835,22.1174-11.8864c-0.3228,0-0.6456,0-0.9683,0c8.54,9.3508,24.5543,9.47,33.2444,0.2652
				c-0.3224,0-0.6448,0-0.9672,0c12.2151,11.6483,34.6699,8.0472,42.5664-6.9004c-0.4231-0.1146-0.8463-0.2292-1.2694-0.3438
				c0.2184,7.0628,6.445,12.2907,13.161,13.2021c8.6222,1.1701,16.4293-4.677,21.6223-10.9452
				c-0.2742,0.0354-0.5483,0.0708-0.8225,0.1061c6.7835,4.0475,14.0346,8.2784,21.9928,9.3813
				c7.6663,1.0624,14.7589-1.494,21.067-5.7354c0.6485-0.436,0.0519-1.4848-0.6181-1.0574
				c-6.4458,4.1114-13.5362,6.6619-21.2385,5.3039c-7.413-1.307-14.1414-5.2587-20.5182-9.0645
				c-0.238-0.1421-0.6342-0.1211-0.8225,0.1061c-4.5957,5.546-11.0747,10.7383-18.6523,10.6924
				c-6.6599-0.0404-13.5921-4.9571-13.8088-11.9894c-0.0199-0.6461-0.9411-0.9651-1.2694-0.3438
				c-7.4789,14.1533-28.8202,17.6877-40.4229,6.6208c-0.2616-0.2495-0.7083-0.2742-0.9672,0
				c-8.1995,8.6831-23.2562,8.5465-31.3089-0.2664c-0.235-0.2572-0.7365-0.2735-0.9683,0
				c-5.1398,6.064-12.2772,11.0575-20.4529,11.4684c-7.3097,0.3674-14.7339-3.1892-18.0957-9.844
				c-0.1896-0.3752-0.7881-0.4541-1.0664-0.1374c-11.6522,13.2584-34.156,13.9796-46.6007,1.4391
				c-0.3348-0.3374-0.8-0.201-1.0562,0.1361c-9.1089,11.9828-29.8624,11.1923-38.1038-1.3563
				c-0.2127-0.3238-0.716-0.4525-1.0031-0.1293c-9.8591,11.1008-27.4944,12.1855-39.1743,3.3667
				C8.4963,35.7036,8.011,36.3325,8.3673,36.6402L8.3673,36.6402z"/>
		</g>
	</g>
	<g>
		<g>
			<g>
				<path fill="#303030" d="M139.2952,279.2751c1.6416-6.0547,2.3462-12.4061,2.7993-18.6612
					c0.4436-6.124,0.957-12.7782-0.0453-18.8625c-0.1142-0.6931-1.1421-0.4815-1.174,0.1589
					c-0.3019,6.0619,0.208,12.1417-0.1992,18.2249c-0.4247,6.344-1.4883,12.5879-2.3413,18.8751
					C138.2514,279.6238,139.1218,279.9146,139.2952,279.2751L139.2952,279.2751z"/>
			</g>
		</g>
		<g>
			<g>
				<path fill="#303030" d="M198.7545,278.8923c-0.49-5.5069-1.1365-10.986-1.8289-16.4798
					c-0.6548-5.1956-0.9986-10.5592-2.0893-15.681c-0.1501-0.7049-1.2918-0.552-1.2603,0.1706
					c0.2396,5.4857,1.31,11.0326,2.0119,16.4798c0.6743,5.2334,1.3993,10.4363,2.2631,15.6327
					C197.9353,279.5215,198.8005,279.4089,198.7545,278.8923L198.7545,278.8923z"/>
			</g>
		</g>
		<g>
			<g>
				<path fill="#303030" d="M165.3707,215.6528c-1.4683,0.1672-2.5485-0.6056-3.9577-0.7319
					c-1.3254-0.1188-2.5963,0.3675-3.8165,0.8284c-3.4566,1.3056-7.0094,2.0808-10.4812,3.3155
					c-5.5399,1.97-10.6752,5.6195-13.1409,11.0952c-1.6198,3.5971-3.1708,7.1496-5.1156,10.5921
					c-1.4021,2.4819-2.9274,4.7381-2.3927,7.7309c0.4163,2.3303,2.7444,3.8096,4.6613,4.9294
					c2.672,1.5607,5.6272,2.2932,8.6985,2.4741c0.9643,0.0568,0.961-1.4434,0-1.5c-5.0291-0.2962-14.4236-3.3761-11.3141-10.0608
					c1.2326-2.6498,2.9582-5.1104,4.2455-7.7503c1.2521-2.5677,2.1326-5.4643,3.6803-7.8643
					c3.1471-4.8802,8.5173-7.6122,13.9714-9.083c2.744-0.74,5.3042-1.5987,7.9681-2.5748c1.5583-0.571,2.6379-0.7233,4.2164-0.2843
					c1.0245,0.2849,1.6915,0.5075,2.777,0.3839C166.3188,217.0448,166.3298,215.5436,165.3707,215.6528L165.3707,215.6528z"/>
			</g>
		</g>
		<g>
			<g>
				<path fill="#303030" d="M195.279,255.9795c3.6269-0.1323,7.8005-0.3892,10.8628-2.5644
					c3.0209-2.1458,3.3561-5.6147,2.5455-8.997c-1.4038-5.8573-4.2918-11.3423-6.8127-16.7747
					c-2.0253-4.3645-4.438-8.1794-8.9501-10.2403c-0.8717-0.3981-1.6349,0.8943-0.7571,1.2952
					c3.9115,1.7865,6.1507,4.9709,7.9607,8.7432c2.1862,4.5562,4.4655,9.1861,6.1044,13.9705
					c1.2612,3.6818,2.7112,8.4308-1.2506,10.9785c-2.7908,1.7946-6.4888,1.9719-9.7028,2.0891
					C194.3166,254.5146,194.312,256.0148,195.279,255.9795L195.279,255.9795z"/>
			</g>
		</g>
		<g>
			<g>
				<path fill="#303030" d="M163.0137,215.9897c1.0142-3.4087,1.4482-7.0069,2.1044-10.4968
					c0.1465-0.7789-1.0098-1.1213-1.2035-0.3318c-0.8474,3.4554-1.4466,7.0202-1.935,10.5435
					C161.8878,216.3677,162.8106,216.6723,163.0137,215.9897L163.0137,215.9897z"/>
			</g>
		</g>
		<g>
			<g>
				<path fill="#303030" d="M175.5353,214.855c-0.6264-3.5456-1.0375-7.1089-1.3367-10.6958c-0.0606-0.7261-1.1787-0.7471-1.1484,0
					c0.1494,3.69,0.5999,7.3844,1.4512,10.9808C174.6623,215.8202,175.6535,215.5242,175.5353,214.855L175.5353,214.855z"/>
			</g>
		</g>
		<g>
			<g>
				<path fill="#303030" d="M163.9553,208.9413c-8.1474-4.6935-8.551-16.6718-7.6978-24.9302c0.0713-0.6899-0.9774-0.6643-1.0664,0
					c-1.0964,8.1794-0.5853,21.6984,8.3117,25.7043C164.0177,209.9473,164.4663,209.2357,163.9553,208.9413L163.9553,208.9413z"/>
			</g>
		</g>
		<g>
			<g>
				<path fill="#303030" d="M153.7501,185.7515c-2.6759,0.0341-4.4396,3.1984-4.6528,5.5954
					c-0.1971,2.2167,2.0214,4.6061,4.1076,2.8868c0.4964-0.4091-0.1606-1.2697-0.6923-0.8973
					c-1.1239,0.7873-2.1552-0.3661-2.2226-1.4747c-0.0467-0.7677,0.2632-1.5554,0.5635-2.2441
					c0.5488-1.2586,1.3913-2.6749,2.8966-2.8466C154.3847,186.6987,154.4228,185.743,153.7501,185.7515L153.7501,185.7515z"/>
			</g>
		</g>
		<g>
			<g>
				<path fill="#303030" d="M161.9913,193.2249c-5.1648-4.3549-6.5465-11.5367-8.1071-17.8318
					c-1.5005-6.0526-2.1444-13.0644,4.2294-16.4598c-0.2478-0.1422-0.4955-0.2844-0.7433-0.4265
					c-0.1027,0.8887-0.8778,3.2641-0.03,4.0637c0.8027,0.757,2.3725-0.1794,3.0583-0.6477
					c1.8042-1.2322,1.7255-3.2048,2.8335-4.8736c1.8202-2.7415,4.4733-0.0515,6.0266,1.3584
					c1.9299,1.7518,4.5611,3.4335,6.6942,0.9301c2.3951-2.811,1.1945-8.2666,5.9974-8.6436
					c-0.0507-0.3748-0.1015-0.7496-0.1522-1.1244c-2.5455,0.6944,3.5487,15.5056,4.2078,17.5248
					c2.4245,7.4268-0.0688,16.3613-2.9986,23.3654c-3.1672,7.5716-15.3748,6.6281-21.1545,2.7534
					c-0.3892-0.2609-0.885,0.3635-0.5077,0.658c4.7937,3.7416,12.3084,4.3985,17.9045,2.1309
					c2.9706-1.2037,4.3815-3.5186,5.3888-6.441c1.3942-4.0449,2.7112-8.2817,3.3023-12.5235
					c0.7515-5.3932-0.656-9.8169-2.3542-14.7785c-0.7744-2.2625-1.534-4.5325-2.2095-6.8269
					c-0.2801-0.9514-0.5549-1.9073-0.776-2.8746c-0.1123-0.4912-0.1991-1.9665-0.4985-1.884
					c0.603-0.1662,0.5085-1.178-0.1522-1.1245c-3.0942,0.2509-4.4138,2.2419-5.2738,5.0209
					c-0.4345,1.4041-0.667,3.2689-1.807,4.3102c-1.85,1.6899-3.8171-0.3236-5.1973-1.5765
					c-1.8135-1.6462-4.3313-3.7043-6.6791-1.6181c-1.1198,0.995-1.169,2.5958-1.8497,3.8534
					c-0.4799,0.8866-2.4661,3.0797-3.1595,1.7325c-0.258-0.5013,0.2977-2.144,0.3744-2.7649
					c0.0497-0.4019-0.4479-0.575-0.7433-0.4265c-6.3096,3.1715-6.4026,10.0256-5.0668,16.1538
					c0.698,3.2021,1.742,6.3135,2.5411,9.4894c1.0337,4.108,2.8722,7.6801,6.3021,10.2791
					C161.8363,194.3396,162.4204,193.5866,161.9913,193.2249z"/>
			</g>
		</g>
		<g>
			<g>
				<path fill="#303030" d="M175.0343,209.596c2.9089-4.2264,5.2993-9.6369,5.8716-14.7639
					c0.072-0.6446-1.0262-0.7975-1.1394-0.1542c-0.8808,5.0023-2.9296,10.0999-5.6479,14.3829
					C173.7491,209.6429,174.6515,210.1522,175.0343,209.596L175.0343,209.596z"/>
			</g>
		</g>
		<g>
			<g>
				<path fill="#303030" d="M184.051,189.6208c2.4055,2.2532,1.8538,5.5632-0.8399,7.2429
					c-0.5815,0.3626-0.0753,1.1871,0.5294,0.9056c3.531-1.644,3.8158-6.3885,0.9362-8.7741
					C184.2457,188.6381,183.6285,189.2251,184.051,189.6208L184.051,189.6208z"/>
			</g>
		</g>
		<g>
			<g>
				<path fill="#303030" d="M129.312,252.5228c-0.994,2.59-1.5241,5.3693-1.8889,8.1136c-0.2001,1.505-1.097,4.6211-0.1112,5.9921
					c0.9179,1.2766,2.6394,0.6758,3.8694,0.3559c2.9511-0.7673,5.9288-1.5425,8.8246-2.4974
					c0.666-0.2196,0.3974-1.2022-0.2897-1.0509c-1.7934,0.3948-3.5564,0.8964-5.3269,1.3821
					c-1.6448,0.4513-5.5403,2.2648-6.1136-0.1108c-0.3984-1.6509,0.4343-4.5624,0.7142-6.1517
					c0.3423-1.944,0.8526-3.8452,1.2487-5.7774C130.3643,252.165,129.532,251.9494,129.312,252.5228L129.312,252.5228z"/>
			</g>
		</g>
		<g>
			<g>
				<path fill="#303030" d="M136.3085,260.2747c0.543-1.2563,1.052-2.5165,1.4991-3.8104c0.1945-0.563-0.7312-0.9675-0.9746-0.4109
					c-0.5484,1.2546-1.0359,2.5226-1.4884,3.8149C135.1498,260.4247,136.0703,260.8257,136.3085,260.2747L136.3085,260.2747z"/>
			</g>
		</g>
		<g>
			<g>
				<path fill="#303030" d="M207.4014,252.1714c-0.0496,2.4769,0.2061,5.019,0.0274,7.4859
					c-0.1231,1.6998-1.1989,2.7225-2.7518,3.2919c-2.033,0.7454-5.4974,0.9362-7.0825-0.8536
					c-0.4017-0.4536-1.2175,0.1561-0.8512,0.6568c1.7325,2.3689,5.9812,2.107,8.4069,1.1765
					c1.2904-0.495,2.5153-1.3542,3.042-2.6794c0.4118-1.0361,0.2717-2.1667,0.2478-3.2558
					c-0.0428-1.9414-0.0802-3.8829-0.1831-5.8222C208.2278,251.6244,207.4125,251.6173,207.4014,252.1714L207.4014,252.1714z"/>
			</g>
		</g>
		<g>
			<g>
				<path fill="#303030" d="M199.2931,255.1504c-0.0752,1.655-0.1147,3.3641,0.041,5.0141c0.07,0.7413,1.0842,0.7427,1.1543,0
					c0.1557-1.65,0.1162-3.359,0.041-5.0141C200.4933,254.3553,199.3293,254.354,199.2931,255.1504L199.2931,255.1504z"/>
			</g>
		</g>
		<g>
			<g>
				<path fill="#303030" d="M180.188,244.247c0.174,14.2191-2.412,28.3922-0.3947,42.5745
					c0.1354,0.9518,1.5809,0.5469,1.4464-0.3987c-1.9958-14.0312,0.6204-28.1062,0.4483-42.1758
					C181.6762,243.2825,180.1762,243.2799,180.188,244.247L180.188,244.247z"/>
			</g>
		</g>
		<g>
			<g>
				<path fill="#303030" d="M159.0002,237.2134c-0.9195-5.8572-0.2841-12.101,5.938-14.5818
					c5.5481-2.212,11.8348-1.0656,14.2459,4.8893c0.3576,0.8832,1.8092,0.4972,1.4464-0.3988
					c-2.7213-6.7209-9.6376-8.4371-16.0911-5.937c-7.0923,2.7476-8.0419,9.6982-6.9856,16.427
					C157.7031,238.563,159.1487,238.1593,159.0002,237.2134L159.0002,237.2134z"/>
			</g>
		</g>
		<g>
			<g>
				<path fill="#303030" d="M157.82,273.3509c0.3327-9.906,0.6654-19.812,0.9981-29.718c0.0324-0.9655-1.4676-0.9643-1.5,0
					c-0.3327,9.906-0.6654,19.812-0.9981,29.718C156.2875,274.3163,157.7876,274.3152,157.82,273.3509L157.82,273.3509z"/>
			</g>
		</g>
		<g>
			<g>
				<path fill="#303030" d="M157.8651,237.703c8.3127,0.8233,16.8571,0.4217,25.194,0.1687
					c-0.2153-0.2153-0.4307-0.4307-0.646-0.646c0.1181,1.3792,0.1262,2.7186-0.0508,4.0914
					c-0.2803,2.1749-1.0706,2.2249-3.1265,2.3549c-2.6593,0.1682-5.3305-0.1396-7.9662-0.4628
					c-4.9169-0.6029-9.8196-1.2741-14.6507,0.1913c0.3074,0.2341,0.6147,0.4683,0.9221,0.7025
					c-0.108-1.7809,0.1869-3.4043,0.6728-5.1081c0.1857-0.6513-0.8089-1.1082-1.1191-0.4718
					c-0.8793,1.8038-1.1318,3.5794-1.0106,5.5799c0.0275,0.4545,0.4454,0.8502,0.9221,0.7025
					c8.4289-2.6125,17.1431,1.4791,25.6912-0.3058c0.2154-0.045,0.4044-0.2478,0.457-0.457
					c0.5689-2.263,0.7556-4.4905,0.5507-6.8169c-0.0299-0.339-0.2718-0.6583-0.646-0.646c-8.3901,0.2753-16.8153-0.087-25.194,0.303
					C157.3298,236.9076,157.3457,237.6516,157.8651,237.703L157.8651,237.703z"/>
			</g>
		</g>
		<g>
			<g>
				<path fill="#303030" d="M178.4182,234.5254c-1.5826-0.4619-2.7722-1.9404-2.4028-3.6469
					c0.3595-1.661,2.4315-2.922,4.1015-2.5178c1.6423,0.3975,2.3656,2.4404,1.8313,3.9169
					c-0.5241,1.4485-1.8327,1.913-3.2189,2.1073c-0.6557,0.0919-0.4121,1.0111,0.1449,1.0704
					c5.0105,0.5332,6.117-7.8237,1.0389-8.3212c-2.265-0.2219-4.6851,1.3477-5.1049,3.6234
					c-0.4229,2.293,1.107,4.3015,3.3718,4.6323C178.7351,235.4709,178.9881,234.6917,178.4182,234.5254L178.4182,234.5254z"/>
			</g>
		</g>
		<g>
			<g>
				<path fill="#303030" d="M177.4573,230.7731c-0.2647-0.413-0.5312-0.8219-0.8143-1.2226
					c-0.3318-0.4697-1.1014-0.043-0.7842,0.4584c0.2623,0.4147,0.5386,0.8172,0.8193,1.2197
					C177.006,231.6984,177.7746,231.2681,177.4573,230.7731L177.4573,230.7731z"/>
			</g>
		</g>
		<g>
			<g>
				<path fill="#303030" d="M178.9611,229.7054c0.1427-0.4852,0.0471-0.9437-0.3277-1.2908
					c-0.3846-0.3562-1.0362,0.1002-0.7454,0.5751c0.0954,0.1558,0.1305,0.2654,0.0787,0.4415
					C177.779,230.0692,178.7739,230.3417,178.9611,229.7054L178.9611,229.7054z"/>
			</g>
		</g>
		<g>
			<g>
				<path fill="#303030" d="M181.3297,229.7606c0.2397-0.2996,0.4947-0.5866,0.677-0.9257
					c0.2624-0.4879-0.3758-1.0191-0.7822-0.6035c-0.2706,0.2766-0.4709,0.5989-0.6862,0.9186
					C180.2231,229.6178,180.9701,230.2101,181.3297,229.7606L181.3297,229.7606z"/>
			</g>
		</g>
		<g>
			<g>
				<path fill="#303030" d="M180.5648,234.8553c0.0868,0.6853,0.0654,1.3687,0.005,2.0552
					c-0.0538,0.6117,0.9816,0.7605,1.0819,0.1464c0.1306-0.7997,0.0587-1.5553-0.2064-2.3207
					C181.2917,234.2924,180.4975,234.3231,180.5648,234.8553L180.5648,234.8553z"/>
			</g>
		</g>
		<g>
			<g>
				<path fill="#303030" d="M168.2386,221.0234c0.0763-0.8832-0.0562-1.6774-0.3993-2.4954
					c-0.1825,0.2396-0.365,0.4791-0.5475,0.7187c1.6855-0.0652,3.3838,0.0006,5.0707,0.0094
					c-0.1865-0.1865-0.373-0.373-0.5594-0.5594c-0.0012,0.3724-0.0029,0.7316,0.0284,1.1028c0.0586,0.6949,1.0481,0.7069,1.0898,0
					c0.022-0.3717,0.0112-0.7307,0.0006-1.1028c-0.0087-0.3027-0.2493-0.5589-0.5594-0.5594
					c-1.6868-0.003-3.3857,0.0509-5.0707-0.0261c-0.3374-0.0154-0.685,0.3807-0.5475,0.7187
					c0.291,0.7156,0.4184,1.4189,0.4044,2.1936C167.136,221.7341,168.1791,221.7121,168.2386,221.0234L168.2386,221.0234z"/>
			</g>
		</g>
		<g>
			<g>
				<path fill="#303030" d="M167.8317,218.3078c-1.4333-0.3662-1.6329-2.2346-1.3206-3.4626
					c0.3642-1.4322,1.5776-1.9415,2.8763-2.2742c0.3904-0.1,0.9314-0.3137,1.34-0.2007c1.0969,0.3035,1.0069,1.394,1.1253,2.2283
					c0.1706,1.2022,0.3225,2.4084,0.535,3.604c0.1096,0.6167,1.1775,0.4824,1.1049-0.1495c-0.1444-1.2572-0.351-2.5067-0.5392-3.758
					c-0.1307-0.869-0.1361-1.9395-0.8598-2.5643c-1.1378-0.9823-3.0946-0.3188-4.287,0.1848
					c-1.7164,0.7249-2.5655,2.216-2.5162,4.0601c0.0381,1.4263,0.7247,3.296,2.4229,3.2068
					C168.1987,219.1571,168.3377,218.4371,167.8317,218.3078L167.8317,218.3078z"/>
			</g>
		</g>
		<g>
			<g>
				<path fill="#303030" d="M172.2248,214.2013c3.3618,2.0966,6.7529,4.5682,10.9475,4.0228
					c3.0188-0.3925,5.9979-2.8248,5.0468-6.1169c-0.1874-0.6487-1.1715-0.3779-1.0114,0.2788
					c1.101,4.5155-4.822,5.2259-7.7531,4.4703c-2.4939-0.6428-4.5302-2.2593-6.8187-3.3583
					C172.1676,213.2732,171.7745,213.9205,172.2248,214.2013L172.2248,214.2013z"/>
			</g>
		</g>
		<g>
			<g>
				<path fill="#303030" d="M172.8241,219.0018c3.5169,3.2293,8.0137,5.7818,12.9357,4.9104
					c4.1975-0.7432,7.8302-4.1941,8.0253-8.6036c0.3236-7.3139-10.2692-11.8534-16.4272-11.3495
					c-0.7177,0.0587-0.7058,1.0323,0,1.1074c5.0138,0.5339,13.4209,2.3624,15.0219,8.0725c1.3325,4.7527-2.8128,9.0109-7.242,9.6196
					c-4.7273,0.6496-8.0544-2.0878-11.774-4.4561C172.94,218.0326,172.4499,218.6583,172.8241,219.0018L172.8241,219.0018z"/>
			</g>
		</g>
		<g>
			<g>
				<path fill="#303030" d="M175.188,220.2472c0.3214-0.3492,0.6748-0.6854,0.9012-1.1068c0.2688-0.5002-0.3388-0.9112-0.75-0.5787
					c-0.3705,0.2996-0.632,0.7171-0.915,1.0961C174.0932,220.1015,174.8179,220.6494,175.188,220.2472L175.188,220.2472z"/>
			</g>
		</g>
		<g>
			<g>
				<path fill="#303030" d="M177.7415,221.9665c0.5085-0.3912,0.9096-0.8333,1.1801-1.4201
					c0.2736-0.5936-0.6019-1.1161-0.8854-0.5175c-0.2168,0.4577-0.4967,0.8479-0.8769,1.183
					C176.7566,221.5668,177.306,222.3015,177.7415,221.9665L177.7415,221.9665z"/>
			</g>
		</g>
		<g>
			<g>
				<path fill="#303030" d="M180.7069,222.5147c0.8177-0.7322,1.3639-1.7111,1.3329-2.8344
					c-0.0148-0.5385-0.8872-0.7127-0.9841-0.1332c-0.1405,0.8402-0.4173,1.6671-1.0284,2.2881
					C179.5904,222.2794,180.2484,222.9253,180.7069,222.5147L180.7069,222.5147z"/>
			</g>
		</g>
		<g>
			<g>
				<path fill="#303030" d="M182.9977,219.7728c0.3797,1.1109,0.3272,2.2003-0.131,3.2793
					c-0.2556,0.6019,0.564,1.1352,0.9056,0.5294c0.7332-1.3001,0.7174-2.838,0.0929-4.1744
					C183.6387,218.9224,182.8241,219.2647,182.9977,219.7728L182.9977,219.7728z"/>
			</g>
		</g>
		<g>
			<g>
				<path fill="#303030" d="M185.4941,220.2116c0.6145,0.606,0.703,1.3958,0.4769,2.1955
					c-0.1489,0.5266,0.6393,0.8837,0.8996,0.3793c0.5635-1.0921,0.2181-2.4654-0.7053-3.2459
					C185.7053,219.1516,185.0524,219.776,185.4941,220.2116L185.4941,220.2116z"/>
			</g>
		</g>
		<g>
			<g>
				<path fill="#303030" d="M188.2412,218.4135c1.0644,0.4675,1.6461,1.6245,1.3564,2.7575
					c-0.1679,0.6568,0.7573,0.88,0.9944,0.2741c0.6321-1.6147-0.3547-3.4331-1.9626-3.9527
					C188.0963,217.3203,187.713,218.1815,188.2412,218.4135L188.2412,218.4135z"/>
			</g>
		</g>
		<g>
			<g>
				<path fill="#303030" d="M190.4029,217.0008c0.3244,0.5203,0.7092,1.0013,1.1338,1.4429
					c0.452,0.4701,1.1065-0.2192,0.7043-0.7043c-0.3687-0.4447-0.7737-0.8511-1.2262-1.2108
					C190.6935,216.2731,190.1496,216.5944,190.4029,217.0008L190.4029,217.0008z"/>
			</g>
		</g>
		<g>
			<g>
				<path fill="#303030" d="M191.5193,214.2182c0.2056,0.4502,0.5319,0.7876,0.9756,1.007
					c0.5862,0.2899,1.1033-0.5891,0.5146-0.8803c-0.2893-0.1431-0.5056-0.325-0.6705-0.6058
					C192.0235,213.2024,191.27,213.6723,191.5193,214.2182L191.5193,214.2182z"/>
			</g>
		</g>
		<g>
			<g>
				<path fill="#303030" d="M175.1074,208.5529c4.1685,1.7733,8.0594,4.1552,11.9848,6.3974
					c0.5947,0.3397,1.076-0.5241,0.5294-0.9056c-3.6087-2.5184-7.896-5.1306-12.162-6.3271
					C174.9771,207.5823,174.6198,208.3455,175.1074,208.5529L175.1074,208.5529z"/>
			</g>
		</g>
	</g>
	<g>
		<g>
			<path fill="#303030" d="M187.9232,208.2695c9.4055,0.6017,18.8116,1.2993,28.1832,2.3078c0.4216,0.0454,0.7257-0.3814,0.75-0.75
				c1.4511-22.0214,6.7953-43.7273,11.1219-65.3125c0.1889-0.9426-1.2566-1.346-1.4464-0.3988
				c-4.3535,21.7195-9.7152,43.5513-11.1755,65.7112c0.25-0.25,0.5-0.5,0.75-0.75c-9.3716-1.0085-18.7776-1.706-28.1832-2.3078
				C186.9593,206.7079,186.963,208.2081,187.9232,208.2695L187.9232,208.2695z"/>
		</g>
	</g>
	<g>
		<g>
			<path fill="#303030" d="M159.4391,205.6142c-14.5726-0.1627-29.1622-0.5618-43.7193,0.3502c0.25,0.25,0.5,0.5,0.75,0.75
				c-2.7055-22.4432-4.7858-44.9569-6.2385-67.5159c-0.25,0.25-0.5,0.5-0.75,0.75c38.4079-3.6779,76.9989-1.6704,115.2866,2.4189
				c0.9587,0.1024,0.9515-1.3984,0-1.5c-38.2877-4.0893-76.8787-6.0968-115.2866-2.4189c-0.3831,0.0367-0.7781,0.3143-0.75,0.75
				c1.4527,22.559,3.533,45.0727,6.2385,67.5159c0.0461,0.3825,0.3066,0.7778,0.75,0.75
				c14.557-0.9119,29.1466-0.5129,43.7193-0.3502C160.4046,207.125,160.4053,205.625,159.4391,205.6142L159.4391,205.6142z"/>
		</g>
	</g>
	<g>
		<g>
			<path fill="#303030" d="M115.8965,146.103c-1.5866,2.8233-1.6542,5.9847-1.4044,9.1432
				c0.304,3.8445,0.7752,7.6831,1.1762,11.5187c0.8756,8.3761,1.7531,16.7521,2.6327,25.1278
				c0.2242,2.1354,0.4506,4.2709,0.6861,6.4051c0.0992,0.899,0.0574,2.0119,0.7254,2.7131c0.5112,0.5366,1.1508,0.5737,1.844,0.6419
				c2.0726,0.204,4.2464,0.0832,6.3273,0.125c8.2695,0.1662,16.5512,0.4749,24.8223,0.4508c0.7647-0.0022,0.7587-1.1502,0-1.1836
				c-7.1304-0.3139-14.2798-0.3481-21.4154-0.4979c-1.6224-0.0341-3.2448-0.0681-4.8671-0.1022
				c-1.4719-0.0309-4.2306,0.4181-5.4127-0.4635c-1.1477-0.856-0.9504-4.1371-1.1054-5.6252
				c-0.1882-1.8069-0.3818-3.6133-0.5745-5.4197c-0.7533-7.0621-1.5066-14.1241-2.2599-21.1862
				c-0.3855-3.6136-0.7922-7.2251-1.1709-10.8394c-0.3692-3.5229-0.6174-6.9624,0.9374-10.2578
				C117.1324,146.0281,116.2454,145.4822,115.8965,146.103L115.8965,146.103z"/>
		</g>
	</g>
	<g>
		<g>
			<path fill="#303030" d="M219.7084,147.7688c-3.0164,18.7305-5.9495,37.4049-9.7056,56.0096
				c-0.1453,0.7199,0.951,1.0306,1.1074,0.3053c3.9928-18.5116,7.4913-37.3513,9.5419-56.1871
				C220.7102,147.3632,219.7945,147.2341,219.7084,147.7688L219.7084,147.7688z"/>
		</g>
	</g>
	<g>
		<g>
			<path fill="#303030" d="M185.3696,105.6453c-2.217,1.8139-3.1578,4.819-2.3935,7.6003c0.7058,2.5684,3.1465,4.9761,5.987,4.543
				c2.5865-0.3944,4.2411-3.1503,4.2295-5.6118c-0.0163-3.4796-2.9249-6.0494-5.7576-7.5526
				c-0.5159-0.2737-0.9593,0.4789-0.4584,0.7842c2.055,1.2525,4.1709,2.9096,4.8922,5.3212
				c0.6472,2.1638-0.2806,5.1236-2.637,5.8494c-2.6804,0.8256-4.9099-1.8591-5.3343-4.2148
				c-0.413-2.2924,0.4251-4.5183,2.1557-6.0353C186.5266,105.9141,185.8437,105.2575,185.3696,105.6453L185.3696,105.6453z"/>
		</g>
	</g>
	<g>
		<g>
			<path fill="#303030" d="M185.174,122.0891c-1.8539,1.2181-0.4597,4.192,1.6745,3.6791c1.1248-0.2703,1.964-1.3397,1.993-2.4875
				c0.0334-1.3228-0.8759-2.5-2.0379-3.0407c-0.5233-0.2435-0.9615,0.4684-0.4584,0.7842c1.1317,0.7103,2.1821,2.378,0.7952,3.4341
				c-0.5173,0.394-1.2101,0.4604-1.5984-0.1294c-0.2683-0.4075-0.289-1.0624,0.1437-1.3646
				C186.2137,122.5954,185.7249,121.7271,185.174,122.0891L185.174,122.0891z"/>
		</g>
	</g>
	<g>
		<g>
			<path fill="#303030" d="M190.132,56.859c-1.9348,1.5314-2.0016,4.5669-0.2104,6.2341c0.1217,0.1133,0.3,0.1759,0.4647,0.1228
				c1.5614-0.5035,3.3455-1.5886,3.4893-3.4069c0.1161-1.4682-0.9653-3.0273-2.537-2.9046c-0.5678,0.0443-0.5847,0.895,0,0.8965
				c1.2518,0.0031,1.8644,1.4628,1.4026,2.5116c-0.4659,1.0581-1.5667,1.627-2.6087,1.9822
				c0.1549,0.0409,0.3098,0.0819,0.4647,0.1228c-1.4774-1.3298-1.4129-3.7219,0.0901-5.0034
				C191.0769,57.0819,190.5202,56.5517,190.132,56.859L190.132,56.859z"/>
		</g>
	</g>
	<g>
		<g>
			<g>
				<path fill="#303030" d="M53.4312,113.3074c1.756-1.7577,3.727-3.2486,5.591-4.8842c-0.3201-0.1326-0.6402-0.2652-0.9602-0.3978
					c-0.3531,5.2879,0.1199,10.5555,1.5761,15.6559c0.2697-0.2698,0.5395-0.5395,0.8092-0.8093
					c-1.6429-0.5534-3.2806-1.1266-4.9316-1.6553c-0.6004-0.1922-1.3194-0.568-1.9676-0.3133
					c-0.8498,0.3338-1.6111,1.9657-2.1433,2.5608c-0.9948,1.1125-2.2097,2.0309-3.5513,2.6828
					c-5.7216,2.78-14.1802-0.2019-17.4-5.6386c-0.0836,0.319-0.1673,0.6379-0.2509,0.9569
					c0.9523-0.5413,2.0553-0.5233,3.0245-1.0416c0.1922-0.1028,0.3477-0.3532,0.3299-0.5751
					c-0.1506-1.8782-1.3992-2.1372-2.3426-3.5205c-1.0644-1.5605,0.3093-2.3545,1.5534-3.3104
					c1.0097-0.7758,2.005-1.5861,3.0899-2.2542c5.3944-3.3217,13.2794-3.8524,16.6486,2.4968
					c0.3872,0.7296,1.4963,0.0818,1.108-0.6477c-3.624-6.8091-12.0988-6.7126-18.0967-3.2315
					c-1.7974,1.0431-6.1114,3.4429-6.2254,5.8537c-0.0448,0.9473,0.503,1.5655,1.1522,2.1917
					c0.5596,0.5397,1.3399,0.7974,1.1618,1.6445c-0.1558,0.741-1.385,0.7762-2.1096,1.1864
					c-0.3277,0.1855-0.4411,0.6344-0.2509,0.9569c2.8033,4.7525,9.6096,8.0535,15.0447,7.4467
					c2.5121-0.2805,4.8661-1.2983,6.7988-2.9285c0.7537-0.6358,2.3212-3.1789,3.2364-3.4562
					c0.4974-0.1507,1.9002,0.6186,2.4724,0.8036c1.0993,0.3553,2.1997,0.7072,3.2995,1.0607
					c0.4755,0.1529,0.95-0.3408,0.8093-0.8092c-1.5046-5.0064-2.0949-10.0914-1.7199-15.3061
					c0.0377-0.5238-0.6221-0.6914-0.9602-0.3977c-1.8676,1.6219-3.9374,3.0347-5.5372,4.9381
					C52.2616,113.0749,52.9462,113.7928,53.4312,113.3074L53.4312,113.3074z"/>
			</g>
		</g>
		<g>
			<g>
				<path fill="#303030" d="M36.0857,110.1659c-2.3354,0.2245-3.3899,3.2261-2.4974,5.1901
					c1.1261,2.478,4.2784,2.9869,6.3759,1.4476c1.8372-1.3483,2.9052-4.6632,1.3362-6.6048
					c-1.4498-1.794-4.7882-1.3763-6.0858,0.3091c-0.3459,0.4492,0.3838,0.9704,0.7684,0.5929
					c1.079-1.0589,3.7622-1.5573,4.762,0.006c0.9145,1.43-0.0552,3.7096-1.2179,4.6465c-1.2779,1.0297-3.1796,1.1327-4.3911-0.0716
					c-1.4281-1.4196-0.8582-4.0515,1.0581-4.716C36.5992,110.8253,36.5709,110.1192,36.0857,110.1659L36.0857,110.1659z"/>
			</g>
		</g>
		<g>
			<g>
				<path fill="#303030" d="M39.65,115.2041c0.0553-0.0045,0.1107-0.009,0.166-0.0135c-0.0226-0.0185-0.0452-0.037-0.0677-0.0556
					c0.0029-0.0194-0.0265-0.1769-0.03-0.2049c-0.0083-0.066,0.1102-0.1074,0.0237-0.1362
					c-0.0737-0.0246-0.0617,0.001-0.0925,0.0824c-0.1432,0.3786,0.3398,0.6823,0.6542,0.5029
					c1.062-0.606-0.3254-2.2153-1.3117-1.3619c-0.4381,0.3791-0.5803,1.0667-0.2854,1.5758
					c0.2904,0.5013,0.8976,0.7276,1.3841,0.3647C40.5436,115.6202,40.1675,114.9779,39.65,115.2041L39.65,115.2041z"/>
			</g>
		</g>
	</g>
	<g>
		<g>
			<g>
				<path fill="#303030" d="M56.603,196.8783c-1.6533,10.4522,0.3047,21.4727,4.9155,30.9543
					c0.6184,1.2716,1.3098,3.0365,2.8994,3.2976c1.8299,0.3006,4.1379-1.5379,5.6059-2.3683
					c2.3873-1.3504,4.6947-2.8324,6.9129-4.4458c2.3301-1.6949,4.362-3.8246,6.7037-5.4716
					c0.2734-0.1923,0.3869-0.6005,0.1103-0.8559c-8.0275-7.4099-9.3324-18.1548-8.7664-28.5408
					c0.0404-0.7407-1.0979-0.7327-1.1484,0c-0.7162,10.3939,0.7028,22.147,9.1442,29.3115c0-0.2569,0-0.5138,0-0.7706
					c-2.8819,3.3243-7.1998,5.9224-10.9232,8.2485c-0.9789,0.6115-1.9709,1.2016-2.9765,1.7681
					c-0.7882,0.4441-2.1562,1.5377-3.0543,1.6293c-3.283,0.3348-4.1567-3.4469-5.1202-5.8638
					c-3.4203-8.58-4.3021-17.6378-3.52-26.7864C57.4234,196.5419,56.6733,196.4335,56.603,196.8783L56.603,196.8783z"/>
			</g>
		</g>
		<g>
			<g>
				<path fill="#303030" d="M54.7771,196.4902c-1.4597,5.6899-2.2863,11.4743-2.448,17.3491
					c-0.0821,2.9806-0.0077,5.9655,0.227,8.9381c0.1782,2.2574,0.1965,4.7038,1.5008,6.6381
					c0.1948,0.2889,0.495,0.3428,0.8049,0.2111c1.5768-0.6702,3.1672-1.0712,4.8389-1.4028
					c0.5845-0.1159,0.4621-1.1172-0.1425-1.0531c-1.2262,0.13-2.3375,0.4599-3.5345,0.7468
					c-1.0027,0.2403-1.0042,0.5985-1.584-0.3477c-0.4639-0.7571-0.4408-2.0693-0.5342-2.9169
					c-0.3262-2.9611-0.4516-5.9527-0.4405-8.9306c0.0238-6.3912,0.7852-12.7651,2.0862-19.0187
					C55.6556,196.2017,54.9065,195.9857,54.7771,196.4902L54.7771,196.4902z"/>
			</g>
		</g>
		<g>
			<g>
				<path fill="#303030" d="M53.6856,195.3129c-5.3837,5.4557-8.9378,12.8191-10.6119,20.2528
					c-0.3318,1.4734-2.0957,6.7233-0.254,7.6862c0.8978,0.4694,2.4089-0.3573,3.1711-0.6459
					c2.0159-0.7631,4.0555-1.5988,5.8922-2.7308c0.5709-0.3519,0.073-1.1256-0.5116-0.8753
					c-1.6266,0.6964-3.1929,1.5158-4.8381,2.1749c-0.4181,0.1675-2.1098,1.0283-2.5551,0.9446
					c-0.9007-0.1692-0.5749-0.3486-0.6524-1.0704c-0.2972-2.767,1.0894-6.5842,1.9338-9.1926
					c1.9264-5.9503,5.1465-11.0948,8.9936-15.976C54.5642,195.4858,54.0586,194.9348,53.6856,195.3129L53.6856,195.3129z"/>
			</g>
		</g>
		<g>
			<g>
				<path fill="#303030" d="M39.6663,211.0164c4.1578-5.5809,8.321-11.1543,13.1745-16.16c0.4124-0.4254-0.2403-1.079-0.6505-0.6505
					c-4.8663,5.084-9.5188,10.3907-13.197,16.4172C38.7257,211.0616,39.3742,211.4084,39.6663,211.0164L39.6663,211.0164z"/>
			</g>
		</g>
		<g>
			<g>
				<path fill="#303030" d="M53.5578,193.7334c0.8824-1.0568,2.5031-1.5236,3.7437-0.8042
					c1.2763,0.7401,1.5838,2.3169,1.1211,3.6208c-0.1731,0.4879,0.6399,0.841,0.8461,0.3567
					c0.7206-1.6923,0.147-3.8302-1.5055-4.7674c-1.6824-0.9541-3.6981-0.3519-4.8174,1.1219
					C52.6803,193.6108,53.2746,194.0726,53.5578,193.7334L53.5578,193.7334z"/>
			</g>
		</g>
		<g>
			<g>
				<path fill="#303030" d="M57.8023,190.3226c2.291-0.4404,3.9814,1.8183,3.0638,3.9135c-0.2493,0.5693,0.5534,1.0765,0.855,0.4998
					c1.4784-2.8266-1.09-5.9223-4.1291-5.176C57.0931,189.6824,57.3076,190.4177,57.8023,190.3226L57.8023,190.3226z"/>
			</g>
		</g>
		<g>
			<g>
				<path fill="#303030" d="M60.0394,189.2819c1.0053-0.44,2.0885,0.2108,2.6484,1.0418c0.5458,0.8101,0.6994,1.7579,0.9919,2.6688
					c0.1976,0.6153,1.0463,0.3539,0.9492-0.2617c-0.2108-1.3366-0.7149-2.8629-1.7967-3.7477
					c-0.9243-0.7559-2.1384-0.9908-3.2068-0.4096C59.151,188.8316,59.5679,189.4883,60.0394,189.2819L60.0394,189.2819z"/>
			</g>
		</g>
		<g>
			<g>
				<path fill="#303030" d="M63.3542,187.4748c2.4845,0.3179,3.234,2.9073,1.8943,4.7953
					c-0.3213,0.4528,0.3975,1.0023,0.7684,0.5929c2.1608-2.3853,0.4487-6.051-2.6627-6.2261
					C62.8036,186.6059,62.8351,187.4084,63.3542,187.4748L63.3542,187.4748z"/>
			</g>
		</g>
		<g>
			<g>
				<path fill="#303030" d="M65.6203,186.8497c0.4683-0.0086,0.8495-0.1141,1.2533-0.3546
					c-0.1822-0.0235-0.3644-0.047-0.5466-0.0705c1.0504,1.0672,2.5936,2.7541,1.2486,4.2225
					c-0.4421,0.4826,0.2172,1.116,0.7085,0.7085c2.0487-1.6996,0.0958-4.2763-1.3193-5.5688
					c-0.1409-0.1287-0.3767-0.1843-0.5466-0.0705c-0.2254,0.1892-0.4914,0.2858-0.798,0.2898
					C65.0849,186.0443,65.0714,186.8597,65.6203,186.8497L65.6203,186.8497z"/>
			</g>
		</g>
		<g>
			<g>
				<path fill="#303030" d="M67.9036,185.5679c1.0425-0.4306,2.0616,0.3553,2.3603,1.3663c0.351,1.1881-0.1874,2.4192-0.493,3.551
					c-0.1418,0.5251,0.6804,0.9162,0.9103,0.3838c0.6656-1.5417,1.2469-3.5988,0.1844-5.1049
					c-0.7515-1.0652-2.0923-1.5672-3.2825-0.9565C67.1717,185.0186,67.4635,185.7497,67.9036,185.5679L67.9036,185.5679z"/>
			</g>
		</g>
		<g>
			<g>
				<path fill="#303030" d="M70.9313,184.4337c0.9071,0.0907,1.7276,0.7068,1.9548,1.6129
					c0.2256,0.8996-0.2013,1.6387-0.8186,2.2488c-0.3775,0.373,0.1233,1.0727,0.5822,0.7546
					c2.4491-1.6975,1.0929-5.3436-1.7185-5.4951C70.3594,183.524,70.3782,184.3784,70.9313,184.4337L70.9313,184.4337z"/>
			</g>
		</g>
		<g>
			<g>
				<path fill="#303030" d="M73.0852,183.1016c2.5427,0.3882,3.0122,3.3537,0.9881,4.7424
					c-0.4994,0.3426-0.0719,1.0711,0.4732,0.8095c1.3453-0.6458,2.1086-2.2782,1.7907-3.7343
					c-0.3339-1.5292-1.6419-2.4818-3.1406-2.6406C72.7316,182.2294,72.6181,183.0303,73.0852,183.1016L73.0852,183.1016z"/>
			</g>
		</g>
	</g>
	<g>
		<g>
			<path fill="#303030" d="M84.7665,214.8963c1.2132-2.2225,2.2659-4.5368,3.367-6.8165c-0.2653,0.0342-0.5307,0.0684-0.796,0.1026
				c7.862,7.5101,16.9833,13.2777,27.2394,16.9399c-0.117-0.2876-0.234-0.5753-0.3511-0.8629
				c-1.8795,3.7564-3.7777,7.5034-5.6706,11.253c-0.9787,1.9388-1.9294,5.4024-4.5561,5.6841
				c-1.7608,0.1888-4.0212-0.5524-5.718-0.9662c-7.6833-1.8737-13.9245-5.8632-19.8326-10.9756
				c-0.5168-0.4472-1.221,0.2429-0.7541,0.7541c5.7517,6.2969,14.3548,10.3757,22.6606,11.8824
				c3.3738,0.612,5.7002,0.9982,7.4723-2.3218c2.5842-4.8416,4.9289-9.8228,7.4127-14.7171
				c0.1816-0.3579,0.0183-0.7286-0.351-0.8629c-9.9478-3.6161-19.17-9.2019-26.835-16.5238
				c-0.2197-0.2099-0.6496-0.2006-0.796,0.1026c-1.1027,2.283-2.2617,4.5496-3.2506,6.8846
				C83.794,214.9571,84.4875,215.4074,84.7665,214.8963L84.7665,214.8963z"/>
		</g>
	</g>
	<g>
		<g>
			<g>
				<path fill="#303030" d="M240.6932,242.6066c0.7899-4.8937,3.2541-9.4635,8.39-10.7536
					c4.7569-1.1949,11.3512-0.7881,14.9831,2.8468c3.3135,3.3162,4.6971,9.4247,3.3211,13.883
					c-1.7041,5.5215-7.8534,7.9304-13.0274,5.8686c-0.8967-0.3574-1.2862,1.0928-0.3988,1.4464
					c5.4484,2.1712,11.9082-0.1497,14.3743-5.5933c2.2033-4.8635,0.8795-11.6151-2.3758-15.7168
					c-3.7745-4.7557-11.0088-5.4588-16.5961-4.3323c-5.977,1.2052-9.1952,6.2427-10.1168,11.9524
					C239.0944,243.1522,240.5395,243.5586,240.6932,242.6066L240.6932,242.6066z"/>
			</g>
		</g>
		<g>
			<g>
				<path fill="#303030" d="M239.6646,258.1131c0.1746-3.0598,0.3491-6.1196,0.5237-9.1793c0.055-0.9644-1.4452-0.9613-1.5,0
					c-0.1746,3.0598-0.3491,6.1196-0.5237,9.1793C238.1096,259.0775,239.6098,259.0744,239.6646,258.1131L239.6646,258.1131z"/>
			</g>
		</g>
		<g>
			<g>
				<path fill="#303030" d="M238.4919,258.4868c-1.6413,1.6405-3.4289,2.3285-5.8284,1.531
					c-1.3325-0.4428-2.4613-1.3067-3.8735-1.5325c-2.1328-0.3411-4.356,0.6296-5.6225,2.3722
					c-3.1411,4.3218,0.3519,10.317,5.2256,11.1356c0.7105,0.1193,0.9645-0.8105,0.2959-1.0735
					c-2.7447-1.08-5.2559-2.7932-5.3575-6.087c-0.0542-1.7583,0.8048-3.5391,2.3397-4.4457
					c1.8215-1.076,3.5139-0.4605,5.3068,0.3259c1.4868,0.6521,2.8206,1.1586,4.4625,0.8373
					c0.8097-0.1584,2.0134-0.5474,2.6911-1.0367c0.9571-0.6909,0.2485-0.1106,1.0458-1.4976
					C239.4235,258.5877,238.8459,258.1329,238.4919,258.4868L238.4919,258.4868z"/>
			</g>
		</g>
		<g>
			<g>
				<path fill="#303030" d="M227.7509,258.9817c0.5317-1.0106,0.7397-2.0381,0.5825-3.181
					c-0.2222-1.6152-1.4024-2.9285-1.4303-4.569c-0.2689,0.1543-0.5378,0.3086-0.8067,0.4629
					c3.1616,2.0144,4.5939,5.0353,5.1831,8.626c0.1007,0.6138,1.0638,0.4519,1.0646-0.1441
					c0.0051-3.8669-2.5057-7.4363-5.7065-9.4077c-0.348-0.2143-0.808,0.0633-0.8067,0.4629
					c0.0031,0.9584,0.291,1.7296,0.6733,2.6053c0.7511,1.7207,0.9221,2.9657,0.4756,4.8196
					C226.8714,259.1064,227.5206,259.4193,227.7509,258.9817L227.7509,258.9817z"/>
			</g>
		</g>
		<g>
			<g>
				<path fill="#303030" d="M241.6299,256.9307c-0.1176,3.0216-2.1457,5.2063-4.969,5.9902
					c-1.8944,0.526-3.4284,0.9223-4.9061,2.2804c-2.2324,2.0517-4.1136,5.5834-2.9163,8.6301
					c1.6607,4.2258,8.8058,5.5046,11.2419,1.4081c0.2824-0.4748-0.4191-0.8611-0.7285-0.4258
					c-1.6985,2.3887-4.9488,2.384-7.3157,0.9933c-3.8127-2.2404-2.4398-6.8867,0.2159-9.5741
					c2.1995-2.2258,5.2811-1.7661,7.6042-3.6099c1.8253-1.4487,2.5936-3.4157,2.5706-5.6921
					C242.4215,256.4164,241.6498,256.4191,241.6299,256.9307L241.6299,256.9307z"/>
			</g>
		</g>
		<g>
			<g>
				<path fill="#303030" d="M243.517,258.6802c-0.8019,5.8438-3.9609,11.3656-4.0519,17.3
					c-0.0623,4.0632,2.8813,7.6644,7.1884,7.2655c4.0974-0.3795,6.8831-4.5468,6.2513-8.504
					c-0.6586-4.125-4.7824-5.0352-7.7279-2.447c-0.36,0.3164-0.1093,0.8063,0.2528,0.9574
					c1.4116,0.7632,1.9332,1.8614,1.5648,3.2947c-0.1427,0.5026,0.6036,0.6951,0.7741,0.2134
					c0.6857-1.9374,0.02-3.6966-1.8975-4.5551c0,0.3297,0,0.6595,0,0.9893c1.9594-1.5018,4.8419-1.6886,5.7338,1.08
					c0.6129,1.9027,0.0118,4.2455-1.2684,5.7189c-3.2232,3.7099-9.13,1.6312-9.6614-3.1456
					c-0.6727-6.046,3.1055-12.0726,3.6072-18.064C244.3186,258.3516,243.5768,258.244,243.517,258.6802L243.517,258.6802z"/>
			</g>
		</g>
		<g>
			<g>
				<path fill="#303030" d="M227.4245,266.358c0.6059,0.4015,1.225,0.8723,1.9529,1.0223c0.4695,0.0967,0.8649-0.4697,0.4874-0.8373
					c-0.5676-0.5529-1.3387-0.8063-2.0542-1.1006C227.2615,265.2165,226.9773,266.0616,227.4245,266.358L227.4245,266.358z"/>
			</g>
		</g>
		<g>
			<g>
				<path fill="#303030" d="M240.5381,269.0056c-1.8746-0.3-3.7902,0.356-5.0685,1.7714c-0.4432,0.4907,0.234,1.1682,0.7251,0.7251
					c1.2057-1.0881,2.5997-1.5742,4.2165-1.5584C240.9329,269.9487,241.0822,269.0927,240.5381,269.0056L240.5381,269.0056z"/>
			</g>
		</g>
		<g>
			<g>
				<path fill="#303030" d="M248.5099,271.3275c-0.4788-4.4337-0.7445-8.7815-0.8667-13.2388c-0.0168-0.6136-0.8954-0.5997-0.9434,0
					c-0.3527,4.4049-0.0603,9.0385,0.7742,13.379C247.5848,272.0437,248.5741,271.9215,248.5099,271.3275L248.5099,271.3275z"/>
			</g>
		</g>
		<g>
			<g>
				<path fill="#303030" d="M252.2083,278.0491c0.9835,1.7914,3.3074,1.9665,5.0697,1.2074
					c2.0614-0.888,3.2052-2.9896,3.2929-5.1778c0.1049-2.6175-1.2954-5.0266-3.1693-6.764c-2.8733-2.664-7.5715-4.4193-6.5249-9.213
					c0.1158-0.5305-0.6667-0.936-0.9264-0.3905c-1.4684,3.0847,0.9074,6.0231,3.2677,7.8392
					c2.2702,1.7469,4.9523,3.2818,5.8808,6.1954c0.3949,1.239,0.4507,2.634,0.0173,3.8723
					c-0.8427,2.408-4.1623,4.0284-6.1809,1.8701C252.569,277.0965,251.9595,277.596,252.2083,278.0491L252.2083,278.0491z"/>
			</g>
		</g>
		<g>
			<g>
				<path fill="#303030" d="M252.4938,258.8863c0.3439,2.1914,1.6728,3.9573,3.6917,4.9017
					c2.9558,1.3826,6.7923,0.1944,8.1376,4.1793c0.9337,2.7657-1.7493,4.9133-1.436,7.669c0.2416,2.125,1.7926,3.7589,3.6834,4.5776
					c0.1066-0.3935,0.2131-0.7869,0.3197-1.1804c-2.8737,0.0376-4.9636-0.964-7.3659-2.4034
					c-0.5006-0.2999-1.0207,0.3874-0.6178,0.8006c2.0697,2.1227,5.0911,2.9032,7.9837,2.8697
					c0.5814-0.0067,0.924-0.9148,0.3197-1.1804c-1.6489-0.7248-3.1184-2.214-3.0595-4.1444
					c0.0394-1.2899,0.8509-2.3857,1.2798-3.5599c0.6375-1.7454,0.5329-3.5384-0.4727-5.1369
					c-2.9617-4.7077-10.2126-1.4228-11.7066-7.6014C253.1298,258.1764,252.4173,258.3988,252.4938,258.8863L252.4938,258.8863z"/>
			</g>
		</g>
		<g>
			<g>
				<path fill="#303030" d="M254.6631,256.4499c-0.0252,2.0136,1.29,3.8484,3.2367,4.4442c1.2144,0.3716,2.468,0.1743,3.7124,0.1315
					c3.7322-0.1283,3.6869,2.739,2.9098,5.4871c-0.145,0.5126,0.6284,0.8659,0.8782,0.3702
					c1.0382-2.0606,1.4374-5.2122-0.994-6.4991c-1.1347-0.6006-2.4837-0.4146-3.7047-0.3439
					c-2.6439,0.1531-4.7549-0.6734-5.1361-3.5899C255.4926,255.8924,254.6706,255.8502,254.6631,256.4499L254.6631,256.4499z"/>
			</g>
		</g>
		<g>
			<g>
				<path fill="#303030" d="M240.4424,242.1889c-4.276-0.6245-5.1724,7.2463-0.4912,7.3289
					c4.4643,0.0788,4.4538-7.1663,0.2522-7.5477c-0.6685-0.0607-0.7797,0.9816-0.1558,1.151
					c2.1859,0.5933,3.1429,4.399,0.4821,5.1414c-3.5294,0.9848-3.4794-5.1214-0.2011-5.2334
					C240.7854,243.0135,240.9402,242.2616,240.4424,242.1889L240.4424,242.1889z"/>
			</g>
		</g>
		<g>
			<g>
				<path fill="#303030" d="M238.175,244.8443c0.2018,0.0569,0.3989,0.0857,0.6075,0.1032
					c0.1934,0.0162,0.4011-0.1196,0.4932-0.2829c0.2381-0.4221,0.3154-0.8525,0.1012-1.2943
					c-0.2131-0.4395-0.7771-0.2377-0.9264,0.1211c-0.0979,0.2352-0.1265,0.4921-0.2188,0.7331
					c0.133-0.133,0.266-0.2659,0.3989-0.3989c-0.1626,0.0225-0.3004,0.0561-0.4557,0.1091
					C237.7454,244.0811,237.7088,244.713,238.175,244.8443L238.175,244.8443z"/>
			</g>
		</g>
	</g>
	<path fill="#E93A1D" d="M142.3318,147.6173c-4.8267-1.0979-9.6382-1.1912-14.509-0.3201c-1.8975,0.3394-1.0935,3.231,0.7976,2.8928
		c4.3286-0.7742,8.6274-0.6548,12.9138,0.3201C143.4138,150.9376,144.2166,148.046,142.3318,147.6173z"/>
	<g>
		<g>
			<path fill="#172DF8" d="M126.658,153.813c-0.0983,0.5558,9.8951,0.8217,10.8382,0.8555c3.6023,0.1293,7.2992,0.5,10.897,0.2664
				c0.9141-0.0594,0.8691-1.2744,0-1.3887c-4.379-0.5759-8.9599-0.4048-13.3736-0.5351c-2.1422-0.0633-4.2956-0.1712-6.4391-0.1528
				c-1.0894,0.0094-1.6864-0.0982-2.3433,0.7681c-0.163,0.2149-0.0659,0.5318,0.0919,0.7122
				c0.2671,0.3053,0.4185,0.3448,0.8199,0.3302c0.3194-0.0116,0.5035-0.2406,0.5407-0.5407
				c0.0071-0.0575,0.0143-0.1151,0.0214-0.1726C127.7848,153.3605,126.7631,153.2189,126.658,153.813L126.658,153.813z"/>
		</g>
	</g>
	<g>
		<g>
			<path fill="#172DF8" d="M126.592,164.8538c5.8971,1.3328,12.5488,1.2292,18.5439,0.7339c0.8629-0.0713,0.8895-1.3927,0-1.3652
				c-6.1822,0.1909-12.238-0.3439-18.3967-0.4563C126.1236,163.755,125.9753,164.7145,126.592,164.8538L126.592,164.8538z"/>
		</g>
	</g>
	<g>
		<g>
			<path fill="#172DF8" d="M126.7392,173.5901c6.8459,0.4197,13.7504,0.6044,20.6072,0.7857c0.8407,0.0222,0.8225-1.2342,0-1.2949
				c-6.8159-0.5035-13.7737-0.7826-20.6072-0.5924C126.0262,172.5083,126.0345,173.5469,126.7392,173.5901L126.7392,173.5901z"/>
		</g>
	</g>
	<g>
		<g>
			<path fill="#172DF8" d="M126.7392,184.0509c2.6827,0.0956,5.3815,0.098,8.0646,0.0234c0.8141-0.0226,0.8155-1.243,0-1.2656
				c-2.683-0.0745-5.3819-0.0722-8.0646,0.0234C125.9553,182.86,125.9539,184.0229,126.7392,184.0509L126.7392,184.0509z"/>
		</g>
	</g>
	<g>
		<g>
			<path fill="#172DF8" d="M126.7392,195.2672c4.4697-0.0503,8.9859-0.4859,13.4361-0.8887c0.8358-0.0756,0.8608-1.3699,0-1.3242
				c-4.4665,0.2373-9.0009,0.454-13.4361,1.041C126.0175,194.1908,125.9601,195.2759,126.7392,195.2672L126.7392,195.2672z"/>
		</g>
	</g>
	<g>
		<g>
			<path fill="#777777" d="M126.6223,157.0672c3.8814,0.6634,7.7838,0.9798,11.713,1.2268c4.143,0.2605,8.4483,0.6722,12.593,0.3618
				c0.863-0.0646,0.8469-1.2425,0-1.3301c-3.9983-0.4135-8.0916-0.2935-12.1091-0.4947c-4.0293-0.2018-8.0469-0.5284-12.0801-0.627
				C126.2559,156.1922,126.1254,156.9823,126.6223,157.0672L126.6223,157.0672z"/>
		</g>
	</g>
	<g>
		<g>
			<path fill="#777777" d="M126.7392,160.2209c2.8425-0.1381,5.5906,0.0288,8.3918,0.5549
				c0.7531,0.1414,1.0839-0.9723,0.3209-1.1639c-2.8456-0.7146-5.7948-0.9274-8.7127-0.5863
				C125.9955,159.1125,125.9541,160.259,126.7392,160.2209L126.7392,160.2209z"/>
		</g>
	</g>
	<g>
		<g>
			<path fill="#777777" d="M127.1875,168.675c6.5283,0.1651,13.1947-0.0928,19.7106-0.5076c0.8357-0.0532,0.8528-1.3059,0-1.3125
				c-6.5299-0.0502-13.2008,0.0665-19.7106,0.5955C126.411,167.5134,126.389,168.6548,127.1875,168.675L127.1875,168.675z"/>
		</g>
	</g>
	<g>
		<g>
			<path fill="#777777" d="M126.7392,176.6712c5.4664,0.1697,11.1279,0.0272,16.5747-0.4746c0.7735-0.0713,0.8009-1.2018,0-1.2246
				c-5.468-0.1558-11.1284,0.0645-16.5747,0.5801C126.0328,175.6189,126.0068,176.6485,126.7392,176.6712L126.7392,176.6712z"/>
		</g>
	</g>
	<g>
		<g>
			<path fill="#777777" d="M126.7392,178.7977c3.7829,0.324,7.6079,0.101,11.3627-0.4161c0.6861-0.0945,0.5317-1.2935-0.1651-1.22
				c-3.7376,0.3945-7.4433,0.4977-11.1975,0.5286C126.0166,177.6963,126.0384,178.7377,126.7392,178.7977L126.7392,178.7977z"/>
		</g>
	</g>
	<g>
		<g>
			<path fill="#777777" d="M126.7392,187.1638c5.0803,0.4518,10.3441,0.2632,15.3941-0.4258
				c0.6684-0.0912,0.5068-1.2011-0.1589-1.174c-5.086,0.2073-10.1474,0.3053-15.2353,0.3869
				C125.9473,185.9636,125.9721,187.0956,126.7392,187.1638L126.7392,187.1638z"/>
		</g>
	</g>
	<g>
		<g>
			<path fill="#777777" d="M126.7392,189.8284c2.8302,0.1154,5.6826,0.1303,8.5126,0.0146c0.7423-0.0303,0.7436-1.1239,0-1.1543
				c-2.83-0.1157-5.6824-0.1007-8.5126,0.0146C126.0156,188.7329,126.0144,189.7989,126.7392,189.8284L126.7392,189.8284z"/>
		</g>
	</g>
	<g>
		<g>
			<path fill="#777777" d="M126.7392,197.1482c5.8466,0.5787,11.8642,0.1208,17.6545-0.7839
				c0.7388-0.1154,0.5726-1.4156-0.1784-1.3178c-5.8387,0.7601-11.6002,0.896-17.4762,0.965
				C125.9944,196.0202,126.0238,197.0774,126.7392,197.1482L126.7392,197.1482z"/>
		</g>
	</g>
	<g>
		<g>
			<path fill="#777777" d="M198.622,156.3139c-0.4607,2.6172-0.8069,5.2552-1.1763,7.8867
				c-0.1277,0.9099-0.7025,2.5404-0.0226,3.4012c0.8769,1.1102,3.4693,1.0237,4.7128,1.2632
				c2.4184,0.4658,4.8369,0.9315,7.2553,1.3973c0.4444,0.0856,0.8538-0.1903,0.869-0.662c0.0793-2.4637,0.1611-4.9274,0.2431-7.391
				c0.0564-1.6938,0.7208-4.4508-0.0586-6.0282c-0.4927-0.9971-1.5717-1.2037-2.574-1.2822
				c-2.6647-0.2087-5.4267-0.0498-8.0999-0.0445c-0.9125,0.0018-0.9137,1.4124,0,1.418c1.7804,0.0108,3.5608-0.0007,5.3412-0.0006
				c0.6989,0,1.7521-0.2147,2.4278,0.0028c2.1512,0.6925,1.7231,1.6049,1.6735,3.163c-0.1077,3.3876-0.2147,6.7752-0.3261,10.1626
				c0.2897-0.2207,0.5793-0.4413,0.869-0.662c-1.8135-0.3506-3.627-0.7012-5.4405-1.0517c-1.3474-0.2605-3.848-0.2709-4.9871-0.9641
				c-1.2439-0.757-0.4518-3.1694-0.2759-4.5177c0.2578-1.9764,0.5275-3.951,0.7202-5.9351
				C199.8362,155.818,198.7365,155.6632,198.622,156.3139L198.622,156.3139z"/>
		</g>
	</g>
	<g>
		<g>
			<path fill="#777777" d="M197.4464,171.6642c3.2641,1.1946,6.9877,1.8907,10.4505,2.1705c0.6685,0.054,0.8172-1.0365,0.1589-1.174
				c-3.4072-0.7113-6.9111-1.4278-10.3555-1.9174C197.0996,170.6579,196.8572,171.4486,197.4464,171.6642L197.4464,171.6642z"/>
		</g>
	</g>
	<g>
		<g>
			<path fill="#777777" d="M197.487,175.5554c2.4943,0.5261,5.3147,0.7729,7.8581,0.7029c0.6734-0.0185,0.8925-1.1135,0.1667-1.2315
				c-2.5244-0.4103-5.3548-0.5627-7.9025-0.3749C197.1231,174.6877,196.948,175.4417,197.487,175.5554L197.487,175.5554z"/>
		</g>
	</g>
	<g>
		<g>
			<path fill="#777777" d="M197.1983,179.2347c1.2849,0.0849,2.5693,0.0958,3.8566,0.0703c0.769-0.0152,0.7703-1.1801,0-1.1953
				c-1.2873-0.0255-2.5717-0.0146-3.8566,0.0703C196.5204,178.2248,196.5192,179.1898,197.1983,179.2347L197.1983,179.2347z"/>
		</g>
	</g>
	<g>
		<g>
			<path fill="#777777" d="M197.0178,183.6882c-0.8277,3.0746-1.4745,6.1886-2.1438,9.301
				c-0.1189,0.5528,0.3385,1.0274,0.8982,0.8982c2.9-0.6693,5.7957-0.9288,8.767-0.7625c0.396,0.0222,0.7017-0.3459,0.7151-0.7151
				c0.0591-1.6325,0.1206-3.2648,0.1801-4.8973c0.0344-0.9426,0.4115-2.476-0.2222-3.3124
				c-0.5676-0.7491-1.7079-0.678-2.5345-0.7522c-1.667-0.1498-3.3841-0.445-5.0565-0.3563
				c-0.6685,0.0355-0.8728,1.0459-0.1643,1.2142c0.9455,0.2247,1.8928,0.2809,2.8611,0.3664
				c0.7591,0.0671,3.301-0.042,3.7514,0.7414c0.3486,0.6064-0.0867,2.4346-0.1114,3.1482
				c-0.0445,1.2826-0.0886,2.5653-0.1339,3.8479c0.2384-0.2384,0.4767-0.4767,0.7151-0.7151
				c-3.0914-0.1808-6.1411,0.0726-9.1552,0.7844c0.2994,0.2994,0.5988,0.5988,0.8982,0.8983
				c0.6437-3.1256,1.3078-6.2434,1.7921-9.398C198.1786,183.3007,197.2059,182.9896,197.0178,183.6882L197.0178,183.6882z"/>
		</g>
	</g>
	<g>
		<g>
			<path fill="#777777" d="M196.1918,196.7836c1.9133,0.4275,4.1849,1.0334,6.1493,0.9398c0.6899-0.0329,0.7823-0.936,0.1581-1.1682
				c-1.8346-0.6825-4.1959-0.7938-6.1454-0.9686C195.6696,195.5253,195.5257,196.6348,196.1918,196.7836L196.1918,196.7836z"/>
		</g>
	</g>
	<g>
		<g>
			<path fill="#777777" d="M196.1617,200.4438c1.7881,0.4169,3.7167,0.348,5.4488-0.2719c0.7211-0.2581,0.4383-1.2949-0.3162-1.147
				c-1.6801,0.3295-3.28,0.451-4.9877,0.3485C195.6941,199.3367,195.565,200.3047,196.1617,200.4438L196.1617,200.4438z"/>
		</g>
	</g>
	<path fill="#E93A1D" d="M177.394,235.8207c-0.1267-0.6304-1.0908-0.3638-0.9644,0.2659
		c3.4194,17.0144-2.0376,34.1453-0.6926,51.2559c0.05,0.6375,1.0505,0.6428,1,0
		C175.3845,270.1346,180.8337,252.9374,177.394,235.8207z"/>
	<path fill="#E93A1D" d="M161.2356,227.4369c-0.2886,17.0688-0.5769,34.1375-0.8652,51.2063c-0.0327,1.9312,2.9673,1.9316,3,0
		c0.2883-17.0688,0.5767-34.1375,0.8652-51.2063C164.2681,225.5057,161.2683,225.5052,161.2356,227.4369z"/>
</g>
</svg>
