<?xml version="1.0" encoding="utf-8"?>
<!-- Generator: Adobe Illustrator 20.1.0, SVG Export Plug-In . SVG Version: 6.00 Build 0)  -->
<svg version="1.1" xmlns="http://www.w3.org/2000/svg" xmlns:xlink="http://www.w3.org/1999/xlink" x="0px" y="0px"
	 viewBox="0 0 685 271" enable-background="new 0 0 685 271" xml:space="preserve">
<g id="site_bg">
</g>
<g id="back">
	<g>
		<g>
			<path fill="#F7FAFC" d="M497.049,269.0078c-3.6182,0-7.8193-0.959-12.46-3.6816c-2.1689-1.2725-4.6338-2.9951-7.7568-5.4209
				c-2.3799-1.8496-5.1357-4.1025-8.3086-6.7979c-0.0771,0.0781-0.1553,0.1562-0.2334,0.2334
				c-7.4443,7.3145-19.2617,7.6748-27.1387,0.8271l-24.0732-20.9316c-1.1045,1.6924-2.4531,3.2246-4.0146,4.5352
				c-12.6865,10.6455-27.2217,1.1025-31.998-2.0342c-3.3496-2.2002-7.3662-5.1152-12.1729-8.8389
				c-0.9492,1.2656-2.043,2.4268-3.2676,3.4531c-7.502,6.2969-18.4639,6.2324-25.8926-0.1562
				c-6.0898-5.2354-12.5107-10.7539-19.1426-16.4492c-1.1973,3.7109-3.3994,7.0029-6.4492,9.5625
				c-7.9307,6.6543-19.6084,6.1455-26.9316-1.1152c-4.4199,2.7031-13.1777,5.8369-24.2646-1.4199
				c-1.4883-0.9746-3.1543-2.1885-5.1221-3.7354c-0.8623,1.1309-1.8594,2.1865-2.9883,3.1436
				c-6.5791,5.5742-17.8125,7.1562-26.5518-0.6045l-4.8613-4.3447c-0.9854-0.8818-1.9629-1.7559-2.9336-2.625
				c-1.0352,4.0049-3.2959,7.6201-6.5078,10.3154c-8.374,7.0234-19.2549,6.9697-32.3428-0.1572
				c-2.5488-1.3877-5.3623-3.1035-8.4766-5.1709c-1.2051,2.3525-2.877,4.4668-4.9443,6.2021
				c-4.1523,3.4834-9.4258,5.1299-14.8496,4.6494c-1.5605-0.1406-3.0068-0.3994-4.4248-0.835
				c-1.8301-0.0391-3.6543-0.3281-5.415-0.8643c-2.4346,0.1504-5.0225-0.1396-7.6895-1.0234
				c-4.4658,1.1133-9.7568,0.8066-15.2578-2.1816c-0.9658-0.5244-2.0664-1.1846-3.4629-2.0781
				c-2.0498-1.3125-4.8125-3.1738-8.4434-5.6914c-0.5439-0.377-1.1074-0.7695-1.6924-1.1768
				c-1.1719,3.0166-3.0947,5.791-5.7432,8.0244c-8.4414,7.1211-21.0596,6.0498-28.1807-2.3936c0,0-16.5918-19.6719-33.1807-39.3906
				c-8.3018-9.8682-16.6025-19.748-22.8262-27.1836c-3.1338-3.7451-5.7451-6.874-7.5713-9.0781
				c-4.332-5.2285-8.0723-9.7441-7.3643-17.9736c0.4521-5.2676,2.9736-10.1436,7.0117-13.5576
				c1.1611-0.9814,5.2412-4.0791,11.0293-4.6377c-2.3281-4.9355-3.1523-9.0332-2.9453-13.2061
				c0.3027-6.1143,3.0049-11.6084,7.6084-15.4717c0.7676-0.6445,1.5703-1.2217,2.3994-1.7314
				c1.0361-1.5381,2.2891-2.9365,3.7354-4.1494c0.7773-0.6514,1.6201-1.2471,2.5176-1.7793
				c0.3896-0.3867,0.7959-0.7578,1.2188-1.1123c1.0674-0.8955,2.2178-1.6709,3.4277-2.3184
				c7.8486-6.5381,19.3672-6.1113,26.7109,0.999c0.0596,0.0576,1.3525,1.3086,3.6494,3.5127
				c0.0088-0.4434,0.0322-0.8955,0.0703-1.3584c0.4336-5.3262,2.9971-10.2949,7.0898-13.7305
				c2.6318-2.209,12.2021-8.8057,25.0352-1.1406c1.6494,0.9854,3.5527,2.2881,5.9902,4.0996
				c1.9482,1.4482,4.2363,3.2217,6.9033,5.3516c1.2188-2.9512,3.1387-5.5947,5.6289-7.6846
				c2.0195-1.6943,12.7715-9.666,26.1367-0.1553c1.4248,1.0146,3.0918,2.3428,5.2461,4.1787
				c0.7158,0.6094,1.4902,1.2803,2.3262,2.0146c0.917-1.2285,1.9795-2.3574,3.1738-3.3584
				c2.1094-1.7705,13.2812-10.0156,26.9258,0.5771c6.0879-3.5732,14.7266-4.3457,22.5762,1.4473
				c0.4639,0.3418,1.1367,0.8604,2,1.5498c1.293,1.0322,3.0791,2.4961,5.4619,4.4746c4.2373,3.5205,10.4053,8.7119,18.334,15.4287
				c2.8369,2.4033,5.9082,5.0098,9.2109,7.8174c1.2275-2.1436,2.8252-4.0723,4.7373-5.6768
				c7.749-6.502,19.1348-6.1934,26.5185,0.7168c5.165,4.834,10.4082,9.7109,15.6836,14.5918
				c0.9238-2.1787,2.252-4.2266,3.9824-6.0312c7.3828-7.6963,19.5059-8.2441,27.5537-1.2471l4.5088,3.9209
				c1.0576-2.9355,2.8184-5.6631,5.2646-7.915c6.585-6.0654,16.1914-6.8936,23.5986-2.583c1.2119-2.3984,2.9043-4.5527,5-6.3105
				c7.7422-6.4951,19.1133-6.1943,26.502,0.7031l1.6777,1.5664c1.1992-1.9102,2.6992-3.6367,4.4727-5.125
				c4.4053-3.6973,11.3789-6.1943,19.2773-3.9746c0.7832-0.957,1.6592-1.8467,2.6211-2.6533
				c2.6729-2.2432,11.6064-8.3496,23.2285-1.7627c1.2246-2.7373,3.0605-5.1914,5.4014-7.1553
				c1.6299-1.3672,8.8213-6.7178,18.6699-4.001c7.2939-6.1045,17.8799-6.1943,25.2676-0.3125
				c1.0088-2.4678,2.5293-4.7715,4.5566-6.7461c7.7246-7.5264,20.0205-7.5703,27.8008-0.1084
				c1.5332,1.4717,3.0684,2.9434,4.6104,4.4219c0.8037-0.9951,1.7041-1.916,2.6904-2.7441
				c5.0811-4.2656,12.9756-6.1377,20.2451-3.25c3.9326,0.4307,7.7598,2.0273,10.9316,4.7852
				c13.3877,11.6357,27.2324,23.5879,40.5186,34.9785c4.1953-3.3262,9.4287-4.8613,14.8232-4.3184
				c3.7295,0.373,6.8291,1.3135,10.4531,3.8467c2.5049,1.1943,4.7988,2.9307,6.6982,5.1953l6.1299,7.3037
				c2.6465,3.0303,5.6484,6.6201,9.1191,10.8682l34.3721,40.9639c2.668,3.1787,4.2617,7.0859,4.6074,11.166
				c0.7354,2.4219,1.0117,4.9834,0.7861,7.5527c-0.4619,5.2842-3.0049,10.168-7.0674,13.5771
				c-1.0537,0.8838-3.1953,2.4531-6.1846,3.54c1.8477,4.1895,2.2285,7.4756,2.0078,10.9941
				c-0.3662,5.8213-3.001,11.0684-7.4189,14.7754c-0.2637,0.2217-0.5312,0.4355-0.8027,0.6406
				c-0.4883,0.5068-1.0049,0.9893-1.5488,1.4463c-1.4707,1.2324-7.4131,5.6641-15.6143,4.4766
				c-1.2568,3.0693-3.2373,5.8223-5.7939,7.9678c-2.4814,2.0811-11.1504,8.0615-23.1768,2.3848
				c-1.2109,3.1045-3.1875,5.8906-5.7793,8.0674c-1.5186,1.2734-7.7822,5.9541-16.3496,4.5078
				c-0.0518,0.0508-0.1045,0.1006-0.1572,0.1504c-6.1182,5.7969-14.9873,6.9971-22.2471,3.5908
				c-1.3564,2.9688-3.3535,5.6064-5.9121,7.7539c-2.2207,1.8643-9.3145,6.8105-19.2959,4.1133
				c-0.3447,0.416-0.71,0.8232-1.0947,1.2168c-7.5928,7.7852-20.0166,8.0771-27.9658,0.6553l-4.0771-3.8076
				c-1.1152,1.8145-2.5225,3.4551-4.1836,4.8496C508.505,265.6768,503.7911,269.0069,497.049,269.0078z"/>
		</g>
	</g>
	<g>
		<g>
			<path fill="#F2F6F9" d="M524.1046,262.878c-4.6611,0.001-9.3193-1.6221-13.0713-4.8613l-20.0303-17.2959
				c-0.9688,1.3564-2.1123,2.5967-3.4121,3.6875c-4.5312,3.7998-14.2822,8.8467-28.6758-0.0312
				c-2.1855-1.3486-4.6777-3.0908-7.542-5.2773c-7.626,2.6689-16.4346,0.5303-21.9346-6.0264
				c-1.6445-1.96-2.8486-4.1426-3.623-6.4277c-6.0352-8.4756-29.79-35.5059-50.0615-57.5811
				c-6.5244-7.1055-6.9512-17.6787-1.4893-25.2305c-5.8867-8.4287-7.9277-13.8652-7.5303-20.2002
				c0.3535-5.6426,3.0176-10.9443,7.3096-14.5449c2.4609-2.0654,5.292-3.4453,8.25-4.1436
				c-2.3662-3.8652-3.3242-7.4092-3.0312-12.0488c0.3447-5.4609,2.9424-10.6113,7.1338-14.1289
				c4.9531-4.1562,11.3633-5.5166,17.2568-4.1885c0.1914-5.6963,2.8057-11.2656,7.6191-15.0547
				c1.6123-1.2686,3.3623-2.252,5.1855-2.9541c3.9658-2.5576,10.1709-4.7422,18.4229-2.1963
				c1.1191-1.7021,2.4932-3.249,4.0986-4.5967c6.2539-5.2461,14.8389-6.041,21.7812-2.5801
				c0.5908-0.6465,1.2266-1.2568,1.9043-1.8252c7.6221-6.3994,18.7822-6.2168,26.1914,0.4111
				c0.8223-1.0322,1.751-1.9873,2.7764-2.8477c4.3076-3.6133,12.9336-8.1562,25.3838-2.1562
				c4.7295-1.1094,9.7607-0.4697,14.0859,1.8633c3.8896,1.0039,7.5156,3.1865,10.2959,6.4961
				c0.3564,0.4238,0.6924,0.8594,1.0078,1.3027c1.7637,1.998,6.7822,7.3682,11.6504,12.5781
				c11.0195,11.793,27.6719,29.6143,41.2861,45.1904c22.8252,26.1123,28.3223,35.4531,28.6504,44.2119
				c0.958,2.7764,1.2812,5.4248,1.0801,8.3398c-0.2041,2.9629-1.0605,5.8311-2.4629,8.3975c0.6709,2.4502,0.918,4.876,0.7441,7.4453
				c-0.3867,5.7266-2.9971,10.8916-7.3486,14.543c-0.9932,0.834-2.0469,1.5557-3.1445,2.166
				c2.8545,3.8877,4.2178,8.6914,3.8076,13.5283c-0.4502,5.3018-2.9951,10.2061-7.0713,13.627
				c-1.8984,1.5938-4.0361,2.7939-6.3076,3.5869c-0.8389,5.0391-3.3828,9.5293-7.3125,12.8262
				c-3.7441,3.1416-9.1934,5.1416-14.9531,4.5557c-1.1895,3.2715-3.2246,6.2061-5.9395,8.4844
				c-2.1104,1.7705-4.4902,3.1064-7.0391,3.9775c-7.3301,4.2207-16.1807,3.8096-26.4043-1.2354
				c-1.2158,2.0762-2.7891,3.9463-4.6826,5.5352C533.2394,261.3203,528.67,262.878,524.1046,262.878z M545.4034,56.8057
				c0.0576,0.0645,0.1162,0.1299,0.1748,0.1953c-0.5293-2.0762-1.4375-4.0996-2.7764-5.9814
				C543.9972,52.834,544.8624,54.7901,545.4034,56.8057z"/>
		</g>
	</g>
</g>
<g id="Layer_2">
	<path fill="#E93A1D" d="M520.5535,177.2019c1.2551-12.1078,5.7158-23.9889,6.2781-36.1072
		c0.1812-3.9061-0.2455-10.4974-3.7398-12.9205c-2.8895-2.0008-8.6535,0.7146-11.4171-1.7799
		c-5.7631-5.2019,8.3481-4.5967,8.3514-3.8975c-0.0205-4.2882-6.8322-6.413-9.0953-9.4964
		c-3.2657-4.4493,0.0027-14.9932,3.3959-18.8797c1.6312-1.8684,4.3879-3.5917,6.3071-5.2067
		c0.8725-0.7341,8.2413-4.6722,8.2967-5.1161c0.4711-3.7777-1.9305-7.1469-1.8315-10.9035
		c-3.1898-0.1786-6.3655,1.9158-9.6259,2.2438c-3.5699,0.3592-7.2733,0.2545-10.8166,0.4499
		c-4.278,0.2359-8.3279-0.6089-12.535-0.5036c-3.7977,0.095-7.4782,1.0913-11.0969-0.2454
		c-0.4774,3.2796-0.575,6.9257-1.8438,9.8444c-0.2736,0.6294,3.2874,1.4259,3.5888,1.5814c2.051,1.0582,1.4936,0.4162,2.3546,2.2942
		c0.6924,1.5132,0.6424,3.2781,1.5774,4.6911c0.7744,1.1703,2.2675,1.5605,3.0231,2.6959c1.387,2.0841,1.5109,4.8496,1.4483,7.2571
		c-0.1526,5.8684-2.2781,11.4938-3.4362,17.1925c-2.0771,10.2211-1.3847,21.5246,0.0211,31.8067
		c0.6638,4.8551,1.1325,10.0503,1.0255,14.9427c-0.0666,3.0422-1.8634,7.9626-0.4173,10.7657
		c0.6162,1.1945,0.7591,0.1807,1.5773,0.8281c0.9241,0.7312,2.2682,0.6707,3.2807,1.2633c2.878,1.6842,5.0605,5.2567,8.2544,5.6702
		c2.9054,0.3761,6.3561-1.2125,9.3044-1.0409c2.5387,0.1477,5.0786,1.4445,7.5149,1.2566
		C520.1378,182.9757,520.2549,180.0824,520.5535,177.2019z"/>
	<path fill="#FFEFAF" d="M516.1151,66.377c-3.753-11.0969,4.6918-21.3363,7.3735-31.583
		c2.2474-8.5875,0.5656-17.5805-4.8412-24.5735c-4.7348-6.1239-10.4177-5.5825-17.8406-5.5582
		c-6.3565,0.0208-13.4236-3.6719-18.512,1.169c-4.6851,4.4573-10.6736,23.4066-2.2073,26.4055
		c2.6066-6.8382,7.7013-15.4818,16.1843-14.6433c7.5374,0.7451,12.2852,4.9761,14.7936,12.3867
		c1.7182,5.0761,0.6741,11.2963-2.3995,15.5692c-3.0218,4.2009-5.959,6.4011-3.705,12.1778
		C506.3516,61.2915,511.4258,63.8032,516.1151,66.377z"/>
	<g>
		<g>
			<path fill="#303030" d="M485.3502,35.4179c0.2128,5.9033,0.1263,14.9817,5.4798,18.8835
				c2.7006,1.9683,6.2385,1.5319,9.1462,0.2572c4.5167-1.9801,8.0005-6.8592,8.9943-11.6139
				c0.1969-0.9419-1.2487-1.3446-1.4464-0.3988c-0.9452,4.5221-4.3066,9.2261-8.7344,10.8785
				c-2.9987,1.1191-6.2321,1.074-8.3545-1.5841c-3.4546-4.3265-3.3954-11.1692-3.5848-16.4224
				C486.8155,34.4555,485.3153,34.4509,485.3502,35.4179L485.3502,35.4179z"/>
		</g>
	</g>
	<g>
		<g>
			<path fill="#303030" d="M484.9464,23.4c0.0577,1.6328,0.1154,3.2655,0.1731,4.8983c0.034,0.9625,1.5341,0.967,1.5,0
				c-0.0577-1.6328-0.1154-3.2655-0.1731-4.8983C486.4124,22.4375,484.9123,22.433,484.9464,23.4L484.9464,23.4z"/>
		</g>
	</g>
	<g>
		<g>
			<path fill="#303030" d="M510.425,35.466c1.2509,1.2005,1.8117,2.8305,1.6067,4.5536c-0.1982,1.6656-1.6237,4.3595-3.3681,2.3092
				c-0.4281-0.5032-1.3195,0.1704-0.9249,0.7136c1.6957,2.3343,4.0239,1.3843,5.0831-1.0294
				c1.0894-2.4825,0.5153-5.6032-1.622-7.3219C510.6631,34.2597,509.9044,34.9664,510.425,35.466L510.425,35.466z"/>
		</g>
	</g>
	<g>
		<g>
			<path fill="#303030" d="M496.1813,38.3282c-0.5703,0.187-1.1406,0.374-1.7109,0.561c0.1716,0.0454,0.3432,0.0907,0.5149,0.1361
				c-0.1959-0.1956-0.402-0.3744-0.6183-0.5468c-0.5124-0.4085-1.2202,0.2463-0.7375,0.7375
				c0.1937,0.1971,0.393,0.3834,0.6074,0.5577c0.2031,0.165,0.4054,0.1878,0.6413,0.0827c0.5465-0.2434,1.093-0.4869,1.6395-0.7303
				C496.9688,38.9251,496.6483,38.1751,496.1813,38.3282L496.1813,38.3282z"/>
		</g>
	</g>
	<g>
		<g>
			<path fill="#303030" d="M511.8626,35.012c1.3038-4.2393-1.2563-9.8271-3.7049-13.2529c-2.4985-3.4956-6.3557-5.9046-10.7556-5.36
				c-0.6487,0.0803-0.6812,1.0944,0,1.043c8.8514-0.6677,13.908,9.8813,13.5224,17.443
				C510.8965,35.4371,511.7084,35.5135,511.8626,35.012L511.8626,35.012z"/>
		</g>
	</g>
	<g>
		<g>
			<path fill="#303030" d="M508.6152,27.7951c-8.8291-1.8806-19.6998-0.8124-28.0484,2.6037
				c-0.6164,0.2522-0.3855,1.246,0.2835,1.0283c8.9503-2.9129,18.2906-4.0826,27.6637-2.8839
				C508.939,28.5975,509.032,27.8838,508.6152,27.7951L508.6152,27.7951z"/>
		</g>
	</g>
	<g>
		<g>
			<path fill="#303030" d="M492.4288,7.0658c5.0409-2.2856,11.9925-5.0625,17.5745-3.1858
				c6.8712,2.3103,12.8308,10.3417,14.4947,17.1816c2.0491,8.4229-2.4263,16.3659-5.65,23.8444
				c-1.4117,3.2751-2.4524,6.5411-2.9462,10.0831c-0.5766,4.1359-0.6821,8.3173-1.3511,12.443
				c-0.1181,0.7283,0.9918,1.0463,1.1187,0.3084c0.8074-4.6925,0.833-9.4805,1.6807-14.1626
				c0.7742-4.2764,2.5799-8.1421,4.3351-12.0817c3.4831-7.8177,6.351-16.055,2.6425-24.3376
				c-2.6739-5.9718-8.4071-13.4108-15.2719-14.6601c-2.9295-0.5331-6.091-0.0223-8.956,0.6502
				c-2.7599,0.6479-5.8942,1.4988-8.1433,3.3051C491.5858,6.7517,492.0588,7.2336,492.4288,7.0658L492.4288,7.0658z"/>
		</g>
	</g>
	<g>
		<g>
			<path fill="#303030" d="M497.7081,4.1097c-4.3555-1.9054-9.1061-3.3638-13.8716-2.2195
				c-4.2637,1.0238-7.1677,4.0155-8.6974,8.0471c-3.4116,8.9917-3.1933,20.9693,4.5051,27.7046
				c0.481,0.4209,1.1787-0.2579,0.7085-0.7085c-6.7595-6.4766-7.2206-16.3274-4.7489-24.8819
				c1.2773-4.4207,3.8305-7.9972,8.5156-9.1351c4.5208-1.098,9.0826,0.2617,13.2613,1.9697
				C497.8223,5.0667,498.1488,4.3025,497.7081,4.1097L497.7081,4.1097z"/>
		</g>
	</g>
	<g>
		<g>
			<path fill="#303030" d="M509.0724,28.7719c-0.3351,0.1218-0.8891,1.2698-1.1707,1.5864
				c-0.5329,0.599-1.1615,1.1176-1.8535,1.5271c-1.23,0.7278-2.6429,1.1212-4.0413,1.3709
				c-1.8528,0.3308-3.7108,0.5413-4.9583-1.1815c-0.8428-1.1638-1.3123-3.0337-1.9174-4.3322
				c-0.2229-0.4784-1.0601-0.1352-0.8621,0.3635c0.7116,1.7924,1.3692,4.8636,3.0202,6.0201
				c1.476,1.0339,4.0987,0.2842,5.7078-0.0846c2.2414-0.5138,4.288-1.5233,5.7805-3.3076c0.6483-0.7751,1.8097-1.9273,0.8081-2.8006
				c-0.1594-0.139-0.3358-0.1514-0.5229-0.0675c-0.1043,0.0468-0.2087,0.0936-0.313,0.1404
				C508.32,28.1988,508.6262,28.9342,509.0724,28.7719L509.0724,28.7719z"/>
		</g>
	</g>
	<g>
		<g>
			<path fill="#303030" d="M491.8072,28.6099c0.0988,2.8557-2.3694,7.8142-6.0471,5.3244
				c-1.6481-1.1158-3.0489-2.4537-4.8061-3.4413c-0.5478-0.3078-1.0202,0.5069-0.4909,0.8399
				c1.6726,1.0521,3.1447,2.2758,4.7162,3.461c1.2003,0.9053,2.3203,1.238,3.7675,0.6328c2.6491-1.108,4.1734-4.0262,3.8624-6.8167
				C492.7395,27.9853,491.7844,27.9513,491.8072,28.6099L491.8072,28.6099z"/>
		</g>
	</g>
	<g>
		<g>
			<path fill="#303030" d="M496.9964,45.5843c-0.8002,0.7841-1.7332,1.264-2.7792,1.6384c-0.5252,0.188-0.4979,1.1334,0.1425,1.0531
				c1.344-0.1684,2.5344-0.8965,3.3658-1.9623C498.1223,45.8049,497.4849,45.1056,496.9964,45.5843L496.9964,45.5843z"/>
		</g>
	</g>
	<g>
		<g>
			<path fill="#303030" d="M491.2026,17.2786c-1.8307,2.9908-4.7086,4.9937-8.1474,5.6704
				c-0.6883,0.1354-0.3914,1.1631,0.2882,1.0453c3.7039-0.6423,6.8565-2.9552,8.5624-6.3045
				C492.1428,17.2244,491.4781,16.8285,491.2026,17.2786L491.2026,17.2786z"/>
		</g>
	</g>
	<g>
		<g>
			<path fill="#303030" d="M522.6181,128.2558c7.1961,15.9797-2.633,31.7393-2.0298,48.0475c0.0286,0.7734,1.2103,0.7803,1.207,0
				c-0.0698-16.5062,9.1572-32.5363,1.9005-48.6774C523.367,126.8948,522.2905,127.5285,522.6181,128.2558L522.6181,128.2558z"/>
		</g>
	</g>
	<g>
		<g>
			<path fill="#303030" d="M491.3494,93.2195c-1.8758-0.2016-3.3901-0.9732-3.4579-3.0639
				c-0.0221-0.6816,0.096-1.3878-0.1882-2.0372c-0.4316-0.9859-1.3427-1.4238-2.3397-1.6241
				c-1.4263-0.2865-4.6009,0.6831-5.1601-0.7147c-0.3741-0.9351,0.0544-2.7908,0.1325-3.8019
				c0.1077-1.3959,0.234-2.7824,0.2578-4.1829c-0.2024,0.2024-0.4048,0.4048-0.6071,0.6071
				c3.9419-0.2238,7.89-0.2835,11.8228-0.6317c4.338-0.384,8.3063,0.0434,12.6178,0.4677
				c4.0486,0.3984,8.1354,0.5781,12.1904,0.1624c1.6096-0.165,3.1276-0.3709,4.6231-1.0135
				c1.6786-0.7212,3.2084-1.8769,5.0696-2.0772c-0.2092-0.2092-0.4184-0.4184-0.6276-0.6276c0.0007,2.777,3.1,5.241,2.4125,7.9136
				c-0.6855,2.665-4.2665,4.1824-6.5041,5.2652c-2.119,1.0254-4.2719,2.0212-5.7958,3.8809
				c-1.4514,1.7712-2.395,4.017-3.5236,5.9946c-2.3965,4.1992-4.8265,9.6784-2.2307,14.3245
				c2.411,4.3152,7.2191,6.5784,9.4673,11.076c0.3575,0.7153,1.4286,0.0869,1.0726-0.627
				c-2.1395-4.2894-6.4498-6.5244-9.0448-10.408c-3.7314-5.5842,1.0604-12.3312,3.7874-17.2708
				c1.2703-2.3008,2.7634-3.8051,5.1217-5.0192c2.0927-1.0773,4.2942-1.9541,6.1708-3.4075
				c1.3896-1.0762,2.7859-2.5811,2.8516-4.4428c0.0946-2.6798-2.5277-4.5899-2.5297-7.2795
				c-0.0002-0.3123-0.2886-0.6642-0.6276-0.6276c-3.2859,0.3551-5.866,2.6584-9.2264,3.0475
				c-4.2026,0.4867-8.4567,0.3024-12.6568-0.109c-4.1354-0.4051-7.9828-0.8789-12.1484-0.5051
				c-4.0908,0.367-8.1927,0.4502-12.2922,0.6998c-0.3309,0.0201-0.6027,0.2619-0.6071,0.6072
				c-0.0392,3.0531-0.6041,6.0943-0.2473,9.1445c0.0276,0.2355,0.1614,0.5245,0.4319,0.5673
				c1.3122,0.2075,2.5966,0.074,3.9155,0.0484c1.4523-0.0282,2.8476,0.2229,3.3143,2.0294c0.1257,0.4866-0.058,1.0846,0.0266,1.5936
				c0.3927,2.3623,2.3983,2.9316,4.5289,2.897C491.9115,94.0658,491.8858,93.2772,491.3494,93.2195L491.3494,93.2195z"/>
		</g>
	</g>
	<g>
		<g>
			<path fill="#303030" d="M489.2625,93.7892c0.3386,7.3055,0.1997,14.4764-1.1269,21.6845
				c-1.2063,6.5543-2.4209,12.7436-1.9217,19.4405c1.0645,14.2809,3.9343,28.3213,4.2344,42.6741
				c0.0146,0.701,1.0764,0.7024,1.0898,0c0.2733-14.3359-3.018-28.4304-4.1004-42.6741c-0.5349-7.0385,0.9048-13.5794,2.0846-20.472
				c1.1682-6.8246,1.3196-13.756,0.7598-20.653C490.2296,93.1436,489.2318,93.1272,489.2625,93.7892L489.2625,93.7892z"/>
		</g>
	</g>
	<g>
		<g>
			<path fill="#303030" d="M513.8715,89.6614c-2.3702,4.3138-8.0652,5.3921-12.0307,2.6778
				c-0.4774-0.3268-1.0803,0.4378-0.6248,0.8098c4.2655,3.4842,11.023,1.8446,13.3993-3.0529
				C514.8546,89.6028,514.1414,89.1702,513.8715,89.6614L513.8715,89.6614z"/>
		</g>
	</g>
	<g>
		<g>
			<path fill="#303030" d="M502.2859,53.1099c-0.3671,6.1013,1.8811,11.5224,7.8172,13.6801
				c2.5183,0.9154,5.1804,1.3622,7.6954,2.2861c3.1314,1.1504,4.7946,2.903,5.8056,6.0806c0.2163,0.6798,1.3524,0.6017,1.3005-0.176
				c-0.3378-5.0673-5.2975-7.0418-9.5085-8.2094c-2.5118-0.6965-5.2153-1.2049-7.4634-2.5925
				c-3.9068-2.4114-4.1543-6.9527-4.645-11.0689C503.2128,52.4807,502.3255,52.4517,502.2859,53.1099L502.2859,53.1099z"/>
		</g>
	</g>
	<g>
		<g>
			<path fill="#303030" d="M495.9824,56.5732c0.1946,2.7024,1.741,6.6939-0.0088,8.9997c-1.463,1.9279-4.9082,2.115-7.0201,3.0061
				c-3.755,1.5844-4.4182,4.3133-4.7953,8.1095c-0.0751,0.7563,1.0562,0.834,1.2718,0.1721
				c0.3982-1.2221,0.3161-2.529,0.7057-3.7477c0.5096-1.594,1.8202-2.5329,3.2864-3.1869c2.0317-0.9062,4.316-1.2017,6.2043-2.4376
				c3.8589-2.5257,2.1741-7.2934,1.2421-11.0352C496.7481,55.9695,495.9452,56.0576,495.9824,56.5732L495.9824,56.5732z"/>
		</g>
	</g>
	<g>
		<g>
			<path fill="#303030" d="M528.5709,83.9754c2.0012,3.9964,4.2324,7.8937,6.6094,11.678c1.1492,1.8297,2.3334,3.6373,3.5613,5.4151
				c0.5539,0.8019,1.5056,1.7633,1.8599,2.6548c0.4774,1.2013-0.3698,2.3406-0.8788,3.4019
				c-3.7503,7.8186-10.385,12.8239-16.0729,19.1188c-0.774,0.8566-1.4717,1.75-2.7755,1.5682
				c-0.7399-0.1032-1.4316-0.6432-2.1414-0.8885c-1.6802-0.5805-2.8135,0.2713-4.457,0.4202
				c-1.3606,0.1232-3.0421-0.3879-3.7727-1.6482c-0.8365-1.443,0.6021-2.1331,1.7969-2.9171
				c1.2576-0.8251,2.3414-1.516,3.891-1.0979c1.0688,0.2883,1.8805,0.9753,2.8915,1.3857c3.0271,1.2289,4.0309-0.7085,5.7869-2.8432
				c2.4474-2.9752,4.6095-6.1316,6.319-9.5925c0.8906-1.803,2.2839-4.2033,2.4662-6.2139c0.1206-1.3303-0.6438-1.976-1.4749-3.0048
				c-3.3293-4.1218-6.6571-8.2448-9.9916-12.3624c-0.4655-0.5748-1.2722,0.2421-0.8121,0.8121
				c3.2101,3.9766,6.7123,7.8347,9.6928,11.9838c0.507,0.7057,1.3602,1.7685,1.4155,2.6918
				c0.0212,0.3531-0.4385,1.2555-0.5882,1.6476c-0.5023,1.3156-1.0627,2.6109-1.6862,3.8738
				c-1.0975,2.2229-2.3718,4.3564-3.8087,6.3766c-1.1524,1.6202-2.4475,3.1346-3.6785,4.6928
				c-2.1299,2.6962-4.2939-0.2687-6.6782-0.7283c-1.5134-0.2918-2.6964,0.468-3.9257,1.2465
				c-0.9904,0.6272-2.9414,1.5815-3.204,2.8968c-0.3299,1.6523,2.5495,3.8164,4.0018,4.0037
				c0.8305,0.1071,1.6131-0.2666,2.3925-0.4621c1.614-0.405,2.7795-0.3095,4.2649,0.2775c1.0812,0.4273,2.0589,0.7234,3.1331,0.1208
				c1.2984-0.7283,2.1732-2.3058,3.1973-3.3521c1.7234-1.7607,3.4789-3.4918,5.2214-5.2335
				c3.2279-3.2265,6.2031-6.3874,8.3655-10.4468c0.6005-1.1272,1.1575-2.2766,1.7022-3.4316
				c0.248-0.526,0.8334-1.2396,0.7701-1.8274c-0.0677-0.6296-1.2718-1.9135-1.6343-2.4467
				c-0.7804-1.1476-1.5396-2.3098-2.2939-3.4747c-3.1068-4.798-5.9039-9.7629-8.6047-14.7973
				C529.1263,82.9046,528.2855,83.4054,528.5709,83.9754L528.5709,83.9754z"/>
		</g>
	</g>
	<g>
		<g>
			<path fill="#303030" d="M482.1379,87.4007c-0.9395,2.8472-1.8461,5.6957-2.9692,8.4783
				c-1.013,2.5099-2.2925,7.1384-4.7477,8.5344c-2.5413,1.4449-6.9605,0.9317-9.8411,0.8754
				c-3.1661-0.0619-6.2913-0.4881-9.4467-0.6434c-0.5798-0.0285-0.7106,0.8921-0.1378,1.0186
				c3.568,0.788,7.3646,0.8778,11.0067,0.8695c2.7293-0.0062,7.073,0.4952,9.4792-1.1625c2.1447-1.4775,3.1718-5.0993,4.1335-7.3539
				c1.4268-3.3453,2.6997-6.7935,3.591-10.322C483.3813,87.0002,482.3604,86.7264,482.1379,87.4007L482.1379,87.4007z"/>
		</g>
	</g>
	<g>
		<g>
			<path fill="#303030" d="M454.7133,104.8332c-2.0205-0.3963-3.632,0.5632-4.9448,2.0566
				c-1.6895,1.9219-3.3426,4.2006-4.6558,6.3899c-0.2667,0.4446,0.3748,0.9677,0.7316,0.5645
				c2.3322-2.6353,4.6497-8.5025,8.7646-8.2398C455.0463,105.6322,455.1492,104.9187,454.7133,104.8332L454.7133,104.8332z"/>
		</g>
	</g>
	<g>
		<g>
			<path fill="#303030" d="M488.2859,94.4298c-2.1022,3.1396-4.211,6.2735-6.2914,9.4277
				c-0.9945,1.5079-1.9891,3.0158-2.9836,4.5237c-0.8672,1.3149-1.3398,2.4831-3.2683,2.7332
				c-0.8199,0.1063-2.0409-0.1558-2.8634-0.2321c-3.7706-0.3497-7.5247-0.881-11.2446-1.5896
				c-1.9268-0.3671-3.3803-0.5634-5.3093-0.4622c-0.2811,0.0148-0.4671,0.2135-0.4899,0.4899
				c-0.261,3.1768-3.0443,2.988-5.3833,3.3627c-0.9783,0.1567-4.403,1.7289-5.2275,1.0806
				c-0.4407-0.3465-1.0629,0.2249-0.6339,0.6339c1.1696,1.115,2.6583,0.0697,3.9808-0.3118
				c2.1009-0.6061,4.9276-0.1506,6.7238-1.5994c0.5039-0.4064,1.087-1.1031,1.2538-1.7322
				c0.2664-1.0051-0.1916-0.7866,0.3348-0.9724c2.0513-0.7241,5.295,0.6221,7.3196,0.954c2.877,0.4716,5.7725,0.8398,8.6758,1.1041
				c1.935,0.1762,4.0323,0.7852,5.472-0.7815c1.9596-2.1325,3.3989-5.1353,4.9875-7.5545c1.8923-2.8817,3.7529-5.7829,5.6251-8.6776
				C489.2399,94.3993,488.5653,94.0125,488.2859,94.4298L488.2859,94.4298z"/>
		</g>
	</g>
	<g>
		<g>
			<path fill="#303030" d="M453.1479,108.8803c-11.1987,9.6418-21.7452,20.1335-32.5466,30.218
				c-10.8191,10.101-21.6236,20.2172-32.3838,30.3809c-0.6327,0.5976,0.317,1.5405,0.9529,0.9529
				c10.8727-10.0462,21.7013-20.1399,32.5155-30.2491c10.7927-10.089,21.9758-19.8954,32.3527-30.412
				C454.6152,109.1868,453.7562,108.3566,453.1479,108.8803L453.1479,108.8803z"/>
		</g>
	</g>
	<g>
		<g>
			<path fill="#FCE0DE" d="M479.8087,182.8891c7.9012,1.4698,14.8533,4.3799,20.3285,10.4457
				c0.5493,0.6086,1.6653,0.7553,2.3549,0.3039c4.0475-2.6497,8.9002-3.6292,13.6792-2.8573
				c5.0743,0.8195,8.3911,3.5605,12.2794,6.625c1.4474,1.1408,3.5146-0.2415,2.6135-2.0166
				c-2.5122-4.9489-8.9628-7.6709-14.1659-8.4866c-5.6854-0.8913-11.5458,0.186-16.3679,3.3795
				c0.785,0.1013,1.5699,0.2026,2.3549,0.3039c-5.6831-6.2293-14.1063-10.7776-22.6862-10.5825
				C478.6105,180.0402,478.1208,182.5751,479.8087,182.8891L479.8087,182.8891z"/>
		</g>
	</g>
	<g>
		<g>
			<path fill="#FFFFFF" d="M468.989,185.8251c2.912-0.2277,5.6924,0.0685,8.2823,1.5232c2.738,1.538,3.9941,3.7546,5.5598,6.3241
				c1.0582,1.7367,3.5339,0.5584,3.17-1.3364c-1.3642-7.104-10.9072-11.5724-17.4274-9.5801
				C466.9596,183.2491,467.163,185.9679,468.989,185.8251L468.989,185.8251z"/>
		</g>
	</g>
	<g>
		<g>
			<path fill="#FFFFFF" d="M513.8104,195.9351c3.7693-0.5181,7.2045,1.946,9.2296,4.9283c2.036,2.9984,2.5924,6.5207,4.2124,9.6815
				c0.9645,1.8819,3.3694,0.4393,3.1271-1.3184c-1.1203-8.1293-8.066-18.0885-17.3085-15.9733
				C511.2799,193.6631,512.0935,196.1711,513.8104,195.9351L513.8104,195.9351z"/>
		</g>
	</g>
	<g>
		<g>
			<path fill="#FFFFFF" d="M541.1226,207.668c2.4083,1.4523,3.9535,3.7498,4.618,6.4648c0.4847,1.9805,3.4096,1.1299,3.0284-0.8349
				c-0.6874-3.5435-2.9759-6.509-6.0929-8.2878C540.9518,204.0261,539.4256,206.6447,541.1226,207.668L541.1226,207.668z"/>
		</g>
	</g>
	<g>
		<g>
			<path fill="#FFFFFF" d="M556.2249,170.4821c0.8225,0.4787,4.399-2.8432,5.3806-3.4168c1.9343-1.1303,3.9759-1.9993,6.1432-2.5715
				c2.0892-0.5516,4.3948-0.9818,6.5639-0.7471c2.8364,0.3069,3.7893,1.6463,3.9863,4.3028
				c0.1512,2.0385,2.5153,2.5816,3.6832,0.9976c2.2855-3.0997-0.5558-7.2733-3.4814-8.7066
				c-3.5732-1.7504-8.2163-1.0293-11.8785,0.0669c-3.9075,1.1696-7.5961,3.1792-10.5925,5.9579
				c-1.6539,1.5337-4.5919,5.1739-1.3978,6.842C556.4263,174.1446,557.9901,171.5096,556.2249,170.4821L556.2249,170.4821z"/>
		</g>
	</g>
	<g>
		<g>
			<path fill="#FFFFFF" d="M573.8976,155.2829c3.7905-3.623,9.2034-2.6449,12.7446,0.6909c1.4814,1.3955,4.0844-0.4144,2.908-2.2438
				c-3.8702-6.0185-13.4188-5.8655-17.8734-0.6679C570.3739,154.5824,572.4177,156.6974,573.8976,155.2829L573.8976,155.2829z"/>
		</g>
	</g>
	<g>
		<g>
			<path fill="#FFFFFF" d="M582.4589,138.5061c4.4715,2.9588,8.9531,6.1917,13.7621,8.5733
				c1.5142,0.7499,3.4651-1.3309,1.9408-2.5154c-4.3524-3.3823-9.2972-6.1037-14.0311-8.9182
				C582.283,134.5472,580.6929,137.3376,582.4589,138.5061L582.4589,138.5061z"/>
		</g>
	</g>
	<g>
		<g>
			<path fill="#FFFFFF" d="M574.6832,205.1709c-0.6453-2.3724,3.5755-2.776,5.0211-2.6592
				c1.9503,0.1575,3.8254,0.9024,5.4336,2.0015c3.3345,2.2787,4.9793,5.7456,5.5612,9.6489
				c0.3087,2.0709,3.2892,1.364,3.4375-0.4652c0.5157-6.3614-4.5541-12.0218-10.2714-14.0715
				c-4.2991-1.5413-14.3334-0.4942-12.2255,6.3847C572.2328,207.9456,575.2189,207.1407,574.6832,205.1709L574.6832,205.1709z"/>
		</g>
	</g>
	<g>
		<g>
			<path fill="#FFFFFF" d="M421.7445,192.2036c3.5676-3.8642,9.6592,0.0262,12.3346,3.0676
				c3.4756,3.951,3.9998,8.5336,4.1158,13.5641c0.046,1.9932,2.7162,2.2403,3.3607,0.4548
				c2.2763-6.3053-1.4012-14.127-6.2081-18.2587c-4.0851-3.5113-12.4719-6.655-15.9221-0.6172
				C418.6112,191.8392,420.5813,193.4635,421.7445,192.2036L421.7445,192.2036z"/>
		</g>
	</g>
	<g>
		<g>
			<path fill="#FFFFFF" d="M444.7719,201.7065c3.3188-3.1903,8.6208-3.1728,12.5426-1.1624
				c2.2007,1.1282,4.0661,2.7759,5.7383,4.5775c1.7788,1.9165,3.202,4.3488,5.2656,5.9565
				c1.1018,0.8584,3.3328,0.1261,2.6899-1.5658c-3.752-9.8735-20.2802-20.6704-28.4573-9.5194
				C441.5764,201.3219,443.6522,202.7828,444.7719,201.7065L444.7719,201.7065z"/>
		</g>
	</g>
	<g>
		<g>
			<path fill="#FFFFFF" d="M578.8779,176.0118c-1.5936-4.7127,6.894-9.304,10.2917-10.7528
				c4.772-2.0347,10.003-2.5113,15.1266-1.9448c2.0476,0.2264,2.4838-3.1551,0.486-3.591
				c-6.7699-1.477-13.7862-0.1905-19.8122,3.1895c-4.1566,2.3314-12.5355,8.5495-8.5054,14.1165
				C577.277,178.1511,579.3945,177.5394,578.8779,176.0118L578.8779,176.0118z"/>
		</g>
	</g>
</g>
</svg>
