<?xml version="1.0" encoding="utf-8"?>
<!-- Generator: Adobe Illustrator 20.1.0, SVG Export Plug-In . SVG Version: 6.00 Build 0)  -->
<svg version="1.1" xmlns="http://www.w3.org/2000/svg" xmlns:xlink="http://www.w3.org/1999/xlink" x="0px" y="0px"
	 viewBox="0 0 337 262" enable-background="new 0 0 337 262" xml:space="preserve">
<g id="site_bg">
</g>
<g id="back">
	<g>
		<g>
			<path fill="#F2F6F9" d="M239.0713,260.6606c-4.0703,0.0005-8.8691-1.2554-14.168-4.9697
				c-0.1885-0.1318-0.3799-0.2676-0.5732-0.4082c-0.0234,0.02-0.0469,0.0396-0.0703,0.0586
				c-6.2734,5.2627-17.2725,7.3203-26.5986-0.5952c-0.8008-0.6797-1.7266-1.5298-2.9131-2.6748
				c-0.4824-0.4658-1.0186-0.9907-1.6123-1.5786c-0.7754,0.9419-1.6396,1.8169-2.5879,2.6123
				c-4.7314,3.9697-10.8145,5.7422-17.124,4.9941c-0.2627-0.0312-0.5264-0.0654-0.791-0.103
				c-5.7646,0.355-12.1934-1.4321-19.252-5.3721c-1.708-0.9536-3.5361-2.064-5.4971-3.3394
				c-0.8857,1.1226-1.8926,2.1616-3.0127,3.1016c-7.2295,6.0669-17.7168,6.2515-25.1563,0.4473l-9.1963-7.1748
				c-1.1631,2.0449-2.6895,3.8892-4.5283,5.4321c-4.3359,3.6377-13.6562,8.5591-27.3594,0.6577
				c-1.9561-1.1279-4.1787-2.5835-6.7266-4.4072c-7.7656,3.0156-16.9092,0.9429-22.5596-5.79
				c-1.5029-1.7905-2.6387-3.7676-3.415-5.8389c-5.166-7.0723-23.8086-28.2568-39.6064-45.4619
				c-6.8389-7.4482-6.9873-18.7266-0.6289-26.335c-2.5869-4.749-3.5332-8.6772-3.2549-13.1167
				c0.3516-5.6025,3.001-10.8696,7.2686-14.4512c2.3574-1.9775,5.0615-3.3306,7.8926-4.0547
				c-4.1094-5.2178-6.0654-9.4844-5.6719-15.73c0.3438-5.4609,2.9346-10.5972,7.125-14.1147
				c3.0225-2.5376,6.5928-4.0352,10.2598-4.5127c-0.5107-0.6885-0.791-1.0664-0.8174-1.103
				c-4.8027-6.5005-5.0928-14.9741-1.3818-21.6304c1.1533-3.6406,3.3232-6.9312,6.2676-9.4019
				c2.0527-1.7217,5.1592-3.6963,9.2637-4.5532c0.7344-5.3081,3.332-10.0454,7.4336-13.4863
				c4.1162-3.4531,9.2393-4.9731,14.2324-4.6309c1.1738-2.0996,2.7266-3.9902,4.6025-5.5645
				c5.5947-4.6943,13.0645-5.8291,19.5537-3.5264c1.1318-1.8828,2.5752-3.585,4.2871-5.022
				c4.4346-3.7212,10.083-5.561,16.0225-5.251c5.4238-3.0103,11.9219-3.291,17.5322-0.9048
				c3.5596-2.6685,10.7637-6.3442,20.7168-2.9512c4.207-1.457,8.8672-1.5732,13.499-0.2505
				c2.6455,0.7559,5.3057,1.9878,8.1279,3.7646c4.7109-1.4521,9.8203-1.1064,14.29,0.9561
				c5.2002,0.5234,9.9922,3.063,13.3467,7.0791c0.3408,0.4082,0.6787,0.813,1.0205,1.2217
				c5.5078-0.7026,11.251,0.8818,15.7168,4.7935l17.9424,15.7168c0.0244-0.0205,0.0488-0.041,0.0723-0.0615
				c7.8623-6.5952,19.3574-6.1328,26.6631,0.8535c4.3701,0.4946,8.6064,2.4272,11.9434,5.7944
				c0.6162,0.6226,15.2764,15.4316,30.1494,31.6318c31.7275,34.5591,34.9941,42.8149,34.5576,52.3106
				c-0.0107,0.2432-0.0264,0.4854-0.0459,0.7271c1.4697,3.6279,1.7793,6.6606,1.5811,9.9819
				c-0.3447,5.7515-3.0479,11.1523-7.415,14.8174c-0.9141,0.7666-1.8779,1.4385-2.8809,2.0161l3.9834,4.7471
				c5.542,6.604,6.085,15.7383,2.0342,22.8057c0.1885,3.0654-0.3281,6.1577-1.5322,9.0166
				c-0.7324,4.2144-2.7988,8.0903-5.9023,11.0488c-0.0098,0.3296-0.0264,0.6602-0.0508,0.9932
				c-0.3994,5.6021-2.9727,10.6611-7.2432,14.2451c-0.6816,0.5718-1.415,1.1055-2.1924,1.5923
				c-1.3193,2.6357-3.166,4.9854-5.4766,6.9238c-3.6816,3.0903-8.1709,4.6348-12.6543,4.6782
				c-0.8311,1.0278-1.7666,1.9824-2.8018,2.8511c-4.1514,3.4839-9.5371,5.1343-14.9277,4.5718
				c-0.0791-0.0083-0.1582-0.0171-0.2373-0.0264c-7.3623,4.6475-16.9873,3.998-23.667-1.731
				c-0.834,1.0532-1.7773,2.0269-2.8223,2.9033C250.3281,257.373,245.6543,260.6601,239.0713,260.6606z"/>
		</g>
	</g>
</g>
<g id="Layer_2">
	<path fill="#E93A1D" d="M201.8762,244.1357c-2.115-9.833-3.3191-19.4858-3.3018-29.5566
		c0.0262-15.2069,0.7273-30.2318,1.3777-45.3024c0.3799-8.807-0.0651-17.4537-0.2199-26.222
		c-1.7443-0.0734-3.5481-0.0774-5.2877,0.0104c1.241,3.0958-2.5054,24.0352-0.4228,24.8615
		c-3.9114-0.8076-8.918,0.5579-12.7688,1.0312c-4.4062,0.542-8.8455,0.6047-13.2283,1.3284
		c-1.3518,0.2231-0.9036,2.1643,0.3054,2.2559c4.302,0.3257,8.6118-0.0049,12.9229,0.1438c1.845,0.0635,3.6926,0.1804,5.5386,0.2122
		c2.707,0.0464,5.6294-1.252,6.771,1.8862c1.1182,3.074,0.6013,7.5432,0.6819,10.7996c0.1042,4.2268,0.0825,8.4646,0.0503,12.6929
		c-0.1165,15.3826-1.5957,32.1782,4.4929,46.7107C199.5659,246.8447,202.3222,246.2089,201.8762,244.1357z"/>
	<path fill="#E93A1D" d="M197.8984,110.2949c-2.0122,6.4834-2.8003,13.7625-2.3916,20.5322c0.1001,1.6621,2.5156,1.676,2.5938,0
		c0.3174-6.8242,0.9795-13.4793,1.8389-20.2561C200.0918,109.3703,198.2309,109.2236,197.8984,110.2949z"/>
	<path fill="#E93A1D" d="M168.5893,114.9211c-2.2029,3.8357-3.9263,9.2344-3.8345,13.6763c0.0332,1.6042,2.2539,1.863,2.7471,0.3718
		c0.7012-2.1206,0.9395-4.427,1.4937-6.6013c0.5571-2.1873,1.2637-4.3359,1.7356-6.5437
		C171.0007,114.5634,169.2766,113.7245,168.5893,114.9211z"/>
	<path fill="#E93A1D" d="M184.7937,210.4951c-0.449-7.7683-1.3992-15.5266-4.3894-22.7632c-0.4993-1.208-2.3726-0.7871-2.019,0.5566
		c2.1616,8.2136,2.7646,16.4094,2.7588,24.8716c-0.0051,7.3757-0.9097,15.4895,0.7959,22.7095
		c0.4758,2.0134,3.2991,1.4202,3.4375-0.4653C185.9707,227.3278,185.2622,218.5961,184.7937,210.4951z"/>
	<path fill="#E93A1D" d="M207.8791,106.6879c-0.2571-1.2671-2.0732-0.8809-2.1484,0.2908
		c-0.4412,6.8718-0.0635,13.8098-0.3787,20.7024c-0.1003,2.1914,3.3062,2.1865,3.4062,0
		C209.0732,120.7931,209.2551,113.4731,207.8791,106.6879z"/>
	<path fill="#FFEFAF" d="M204.728,46.3185c-0.9053-0.3096-1.8113-0.6294-2.7183-0.9553c-4.3274-3.4146-10.988-5.042-15.8203-6.9932
		c-1.3389-0.5405-2.5576-0.2588-3.5303,0.4463c-5.0044-1.1431-9.9253,1.5769-9.6475,7.2805c0.0305,0.6299,0.125,1.1985,0.25,1.7373
		c-0.1589,0.2383-0.2717,0.5276-0.3015,0.8792c-0.4395,5.1907,4.2366,6.9829,8.5986,7.3535
		c2.7773,0.2361,6.8557,0.6445,10.4219,1.7854c2.4231,1.77,4.3391,4.2146,5.7039,7.2258c0.4048,0.8938,0.9424,1.5125,1.5496,1.9211
		c-0.0974,0.5352-0.1973,1.0676-0.2957,1.6057c-0.5249,2.8716,3.4668,4.0356,4.405,1.2144c0.3323-0.999,0.5166-2.0044,0.5691-3.0002
		c0.0005-0.0027,0.001-0.0054,0.0015-0.0081c1.5222-0.9097,2.7537-2.49,2.978-4.2266c0.3369-2.605,0.5027-5.3264,0.1636-7.9277
		C209.9883,52.0114,207.9914,47.435,204.728,46.3185z"/>
	<g>
		<g>
			<path fill="#303030" d="M168.8608,66.5407c-2.0729,8.9645-4.8784,22.3088,4.9785,27.9245
				c9.4368,5.3763,21.656-5.7765,24.3413-14.3729c-0.3173,0.1802-0.6346,0.3603-0.952,0.5405
				c3.5047,0.9753,7.3548-0.4698,7.1232-4.6507c-0.2027-3.659-3.5448-4.6851-6.283-2.6593
				c-0.737,0.5452-0.0337,1.7956,0.7305,1.2497c1.9269-1.3765,4.0288-0.9471,4.0289,1.7069
				c0.0002,2.9763-2.7955,3.5228-5.1882,2.8609c-0.4127-0.1142-0.8279,0.141-0.952,0.5405
				c-2.541,8.1789-15.2022,19.5354-23.6404,12.4198c-7.3046-6.1598-4.5742-17.1835-3.0964-25.2593
				C170.0804,66.1356,169.0267,65.8233,168.8608,66.5407L168.8608,66.5407z"/>
		</g>
	</g>
	<g>
		<g>
			<path fill="#303030" d="M198.78,69.0411c-1.9711-4.0155,0.3618-9.402-4.672-11.3772c-4.4686-1.7534-9.798-1.226-14.4851-1.911
				c-2.1756-0.318-5.0055-0.7202-6.6308-2.3668c-2.5592-2.5927-0.9432-6.9347,0.7846-9.5008
				c1.0666-1.5841,2.1108-2.8857,3.8033-3.367c1.6291-0.4633,3.238-1.0885,4.8146-1.702c0.7859-0.3058,7.2363-2.6128,4.6924-4.1192
				c-0.2128,0.3641-0.4256,0.7281-0.6384,1.0922c3.7357,1.8017,6.7699,4.6696,10.4363,6.571
				c3.5945,1.8641,8.6004,1.7351,11.0859,5.333c2.0499,2.9672,1.2764,6.9504,0.229,10.1353
				c-1.5802,4.8045-4.217,9.2182-6.0741,13.916c-0.2186,0.5529,0.687,0.927,0.9585,0.4041
				c2.402-4.6257,4.8819-9.6182,6.4135-14.6171c0.955-3.1169,1.4978-6.7909-0.1311-9.7871
				c-1.9913-3.6629-5.7876-4.1039-9.3577-5.3428c-4.7926-1.6631-8.3874-5.5182-12.922-7.7046
				c-0.7251-0.3496-1.3482,0.672-0.6384,1.0922c-0.4017-0.2378,0.2262-0.3432-0.4411-0.0318
				c-0.2796,0.1305-0.5456,0.3242-0.8187,0.4714c-0.9332,0.5031-1.9321,0.897-2.9165,1.2854
				c-1.5701,0.6193-3.1653,1.1866-4.7723,1.7029c-0.2097,0.0674-1.0509,0.3941-0.8527,0.3135
				c0.0144-0.0058-0.9755,0.4811-1.3711,0.8023c-1.894,1.538-3.3459,3.7459-4.1781,6.0265
				c-4.1785,11.4512,11.1458,10.7773,18.0745,11.5659c2.6796,0.305,6.6711,0.6591,7.1662,3.9286
				c0.4252,2.8083,0.1241,5.0874,1.5608,7.7016C198.2185,70.1357,199.0667,69.6251,198.78,69.0411L198.78,69.0411z"/>
		</g>
	</g>
	<g>
		<g>
			<path fill="#303030" d="M170.9586,78.6113c0.5732,0.0906,1.2041,0.2745,1.7478,0.4865c0.5668,0.221,1.0462,0.564,1.632,0.7428
				c0.6407,0.1956,1.3416-0.609,0.9198-1.1964c-0.9075-1.2638-2.6135-1.6486-4.0792-1.6614
				C170.2738,76.9748,170.0134,78.462,170.9586,78.6113L170.9586,78.6113z"/>
		</g>
	</g>
	<g>
		<g>
			<path fill="#303030" d="M168.2642,64.6278c0.9071-0.5338,2.7374-0.5065,3.7738-0.4093c1.254,0.1177,2.212,0.8032,3.3648,1.2031
				c0.5476,0.19,1.1709-0.5453,0.7973-1.0372c-1.0066-1.3253-2.8173-1.8266-4.4313-1.8761
				c-1.3713-0.0421-3.5186,0.0145-4.3505,1.2737C167.0702,64.3091,167.7491,64.9309,168.2642,64.6278L168.2642,64.6278z"/>
		</g>
	</g>
	<g>
		<g>
			<path fill="#303030" d="M181.9471,67.2795c1.4448-0.5777,2.7552-0.8857,4.2998-0.5233c1.2482,0.2929,2.328,0.9935,3.5467,1.3498
				c0.692,0.2023,1.2975-0.7483,0.7269-1.2486c-2.3571-2.0668-6.732-2.903-9.2888-0.8069
				C180.6778,66.5045,181.2739,67.5487,181.9471,67.2795L181.9471,67.2795z"/>
		</g>
	</g>
	<g>
		<g>
			<path fill="#303030" d="M173.0265,54.0045c-1.2225,1.4995-2.2243,3.7023-2.228,5.6632c-0.0014,0.75,1.0537,0.8613,1.2775,0.1729
				c0.2727-0.8387,0.4203-1.7082,0.7217-2.5405c0.3228-0.8915,0.7772-1.6997,1.2088-2.5393
				C174.3116,54.1675,173.4981,53.4261,173.0265,54.0045L173.0265,54.0045z"/>
		</g>
	</g>
	<g>
		<g>
			<path fill="#303030" d="M180.8637,95.2863c-0.363,1.3692-0.0231,2.9064,0.1169,4.3033c0.1453,1.4502,0.2472,2.9077,0.4802,4.347
				c0.1128,0.6971,1.1821,0.5011,1.197-0.162c0.033-1.4678-0.1493-2.9209-0.3194-4.3763c-0.1562-1.3359-0.0981-2.8701-0.6158-4.112
				C181.5655,94.9096,180.9872,94.8203,180.8637,95.2863L180.8637,95.2863z"/>
		</g>
	</g>
	<g>
		<g>
			<path fill="#303030" d="M188.742,91.3033c-0.7698,4.2028-0.6995,8.1831,0.5273,12.2953c0.2085,0.6987,1.1913,0.3994,1.0735-0.296
				c-0.7028-4.1475-1.0942-7.6642-0.588-11.8623C189.8239,90.8674,188.8464,90.7328,188.742,91.3033L188.742,91.3033z"/>
		</g>
	</g>
	<g>
		<g>
			<path fill="#303030" d="M165.5229,131.5504c-2.0973-2.5746-4.9237-2.0419-7.9296-2.0865
				c0.203,0.2665,0.4061,0.5331,0.6091,0.7996c0.9626-4.7042,2.9693-9.0465,5.0447-13.3482
				c1.6515-3.4229,3.0357-7.9993,6.0148-10.5365c2.4276-2.0676,5.4249-1.4399,8.3148-1.1837
				c2.2042,0.1954,4.4174,0.284,6.6302,0.2502c4.6356-0.0708,9.2689-0.6587,13.7753-1.7474c2.5132-0.6072,6.047-2.12,8.2926-0.0882
				c1.6249,1.4701,1.7471,4.0462,1.8185,6.0702c0.0811,2.2991-0.0015,4.6057-0.0354,6.9051c-0.061,4.1412-0.06,8.2836-0.097,12.4251
				c0.2712-0.2066,0.5424-0.4132,0.8136-0.6197c-1.8627-0.2545-3.7774-0.3308-5.6504-0.1533
				c-1.1991,0.1136-2.5455,0.8379-3.667,0.8596c-0.7253,0.014-0.0758,0.4235-0.4615-0.0327
				c-0.2464-0.2915-0.1397-1.2237-0.1477-1.5967c-0.1026-4.7695,1.313-9.4328,1.8094-14.1443
				c0.0777-0.7379-1.1971-0.9188-1.3063-0.1768c-0.4955,3.3658-1.1596,6.7028-1.5458,10.0857
				c-0.2213,1.9387-1.1451,6.0685,0.7546,7.4998c0.1775,0.1337,0.4838,0.1132,0.6637,0c2.642-1.6624,6.3808-1.4799,9.3801-1.079
				c0.3465,0.0463,0.6409-0.332,0.6427-0.6427c0.0219-3.6654,0.0498-7.3321,0.0209-10.9974
				c-0.0188-2.3774-0.0949-4.7537-0.1374-7.1306c-0.0395-2.2124,0.0494-4.6479-0.9901-6.669
				c-1.2528-2.436-3.7479-3.0345-6.3012-2.6614c-4.5092,0.6589-8.7816,2.0788-13.3703,2.4637
				c-4.4484,0.3731-8.7874,0.102-13.2185-0.2939c-3.2587-0.2911-5.9704,0.3925-8.0838,2.987
				c-2.4232,2.9746-3.7921,6.9428-5.4354,10.3736c-1.981,4.1357-3.8533,8.3233-4.7463,12.8456
				c-0.0791,0.4004,0.1751,0.7961,0.6091,0.7996c2.6949,0.0214,5.0738-0.4554,7.2915,1.4613
				C165.3298,132.573,165.8877,131.9982,165.5229,131.5504L165.5229,131.5504z"/>
		</g>
	</g>
	<g>
		<g>
			<path fill="#303030" d="M198.5782,131.3921c-2.6562-3.4956-6.0531-3.7653-9.9198-2.0474
				c-2.556,1.1356-4.9595,2.5798-7.5281,3.7002c-3.1191,1.3606-6.3322,2.483-9.475,3.7842c-1.8597,0.77-3.6864,1.6228-5.6161,2.2107
				c-0.8078,0.2461-2.288,0.8459-3.1293,0.5692c-2.3021-0.7574-1.1513-4.5375-0.0101-5.7241
				c0.9635-1.0019,2.3562-1.2764,3.597-1.8438c1.4192-0.649,2.0439-1.2557,3.8149-0.9513c0.8608,0.1479,1.6742,0.5757,2.4448,0.9602
				c2.1547,1.0752,4.1947,2.4532,6.565,3.0224c0.8277,0.1987,1.1805-1.0701,0.352-1.2769c-3.2213-0.804-5.7751-3.2963-9.0077-3.9902
				c-2.5803-0.5539-5.0808,0.9573-7.3179,2.0693c-2.8647,1.424-5.0518,8.7773-0.4379,9.0697
				c2.2007,0.1395,4.5713-0.9502,6.5492-1.7661c2.9323-1.2096,5.8727-2.39,8.8155-3.5752c3.1788-1.2803,6.2285-2.7433,9.2661-4.3258
				c3.7025-1.9288,7.1692-2.9088,10.131,0.8145C198.0753,132.5988,198.9753,131.9147,198.5782,131.3921L198.5782,131.3921z"/>
		</g>
	</g>
	<g>
		<g>
			<path fill="#303030" d="M198.4284,130.0365c-0.5519,2.0305-0.6741,4.107-0.5834,6.2031
				c0.1988-0.1988,0.3976-0.3976,0.5964-0.5964c-2.2397-0.0497-4.4497-0.0831-6.6769-0.3561
				c-0.5852-0.0717-0.6677,0.8447-0.1355,1.0013c2.186,0.6432,4.557,0.5076,6.8124,0.5476
				c0.3112,0.0055,0.6116-0.2779,0.5964-0.5964c-0.0976-2.0452,0.0856-4.0474,0.3343-6.0754
				C199.4393,129.6176,198.5669,129.5271,198.4284,130.0365L198.4284,130.0365z"/>
		</g>
	</g>
	<g>
		<g>
			<path fill="#303030" d="M206.8472,129.0102c-0.3924,3.4656-0.6669,6.9423-0.9051,10.4215
				c-0.144,2.1029-0.1105,4.3974-2.8121,4.2932c-1.229-0.0474-2.4586-0.1476-3.6837-0.2529
				c-5.6776-0.4877-11.1691-1.6803-16.7848-2.4948c-0.7927-0.115-1.1001,0.9181-0.3333,1.2091
				c3.0429,1.1549,6.5434,1.4827,9.7487,1.91c3.3533,0.4471,6.7239,0.7811,10.1037,0.9409
				c2.3028,0.1089,4.3663,0.2789,4.8428-2.3743c0.7811-4.3498,0.5979-9.2421,0.6733-13.6528
				C207.7064,128.451,206.9072,128.4803,206.8472,129.0102L206.8472,129.0102z"/>
		</g>
	</g>
	<g>
		<g>
			<path fill="#303030" d="M168.436,130.3938c0.3505-4.5216,0.9699-8.981,1.7201-13.4524c0.1192-0.7103-0.9226-1.0311-1.1018-0.3037
				c-1.109,4.5023-1.7096,9.1276-1.9426,13.7562C167.0686,131.2506,168.3708,131.2354,168.436,130.3938L168.436,130.3938z"/>
		</g>
	</g>
	<g>
		<g>
			<path fill="#303030" d="M167.2071,147.8409c-1.073,1.3189-0.879,2.7804-0.9031,4.3984
				c-0.0459,3.0836-1.1673,6.2896-1.8472,9.2903c-0.3974,1.7542-1.8598,4.8928-1.0723,6.681
				c0.7012,1.5923,3.3304,1.7957,4.7559,2.0274c11.002,1.7884,21.8069-3.7525,32.7872-1.6911c0.4942,0.0928,0.8403-0.28,0.763-0.763
				c-0.5906-3.6929-1.187-7.385-1.7813-11.0774c-0.6373-3.9599-1.5915-7.9174-0.4575-11.871
				c0.2267-0.7902-0.9572-1.0997-1.2204-0.3365c-1.1979,3.4739-0.444,7.0977,0.1331,10.6214
				c0.7094,4.3311,1.4161,8.6627,2.1298,12.9932c0.2543-0.2543,0.5087-0.5087,0.763-0.763
				c-9.0824-1.6603-17.7632,1.3784-26.7922,1.8031c-2.3971,0.1128-4.814,0.018-7.1673-0.4805
				c-0.4482-0.0949-1.223-0.1543-1.6069-0.4057c-0.9697-0.635-0.8406-1.6121-0.7758-2.5093
				c0.0915-1.2666,0.5858-2.6229,0.863-3.8643c0.5897-2.6404,1.3939-5.3192,1.7617-7.9975
				c0.2449-1.7836-0.3858-3.8208,0.3667-5.5159C168.0922,147.9622,167.5549,147.4134,167.2071,147.8409L167.2071,147.8409z"/>
		</g>
	</g>
	<g>
		<g>
			<path fill="#303030" d="M165.2184,168.6491c-2.2904,2.9465-1.201,8.616-0.7464,11.9898
				c0.7343,5.4502,1.6091,10.8901,2.4475,16.3253c0.9398,6.0921,1.932,12.1763,2.9793,18.2509
				c1.0925,6.3365,1.8927,12.9178,3.5728,19.1264c0.1599,0.591,1.1795,0.4973,1.1049-0.1495
				c-0.6529-5.6632-2.0339-11.3047-3.018-16.9223c-1.0355-5.9112-2.0296-11.8295-2.9692-17.7567
				c-0.8524-5.3772-1.6134-10.7683-2.4632-16.1456c-0.4117-2.6052-0.8094-5.2212-0.8947-7.8613
				c-0.0737-2.2782,0.5452-4.3508,0.6823-6.5689C165.934,168.6071,165.4361,168.3691,165.2184,168.6491L165.2184,168.6491z"/>
		</g>
	</g>
	<g>
		<g>
			<path fill="#303030" d="M196.7027,167.6037c3.3857,10.5881,1.3764,22.1358,1.3335,33.0624
				c-0.0477,12.144-0.0361,24.7735,1.8093,36.8c0.0974,0.635,1.1411,0.4821,1.1164-0.1511
				c-0.2508-6.434-1.0099-12.8548-1.2945-19.2939c-0.2847-6.4419-0.3975-12.8911-0.3454-19.339
				c0.0483-5.9818,0.479-11.955,0.5347-17.9324c0.0409-4.3869-0.155-9.5649-2.249-13.5276
				C197.3474,166.7297,196.531,167.0668,196.7027,167.6037L196.7027,167.6037z"/>
		</g>
	</g>
	<g>
		<g>
			<path fill="#303030" d="M179.5585,186.849c6.7122,14.7962,4.0981,31.348,6.3107,47.0107c0.1345,0.9519,1.58,0.5469,1.4464-0.3988
				c-2.2406-15.8615,0.3413-32.3721-6.4619-47.369C180.4555,185.2141,179.1624,185.9757,179.5585,186.849L179.5585,186.849z"/>
		</g>
	</g>
	<g>
		<g>
			<path fill="#303030" d="M191.9499,134.7899c-7.992,4.1371-15.5619,9.3201-24.0546,12.4492
				c-2.0616,0.7596-4.255,1.3935-6.4577,1.5c-0.9763,0.0472-2.1679,0.0566-3.1008-0.2015
				c-2.2494-0.6224-2.7701-2.5716-2.7957-4.5825c-0.0581-4.5605,0.8972-8.8898,2.4787-13.1432
				c0.3561-0.9577-1.1311-1.3227-1.5086-0.4159c-2.0509,4.927-2.9622,10.5103-2.4625,15.8358
				c0.155,1.6518,0.5388,2.6816,2.1505,3.3463c1.9407,0.8005,4.2275,0.8752,6.2818,0.6217
				c5.0536-0.6235,9.8328-3.1817,14.3147-5.4502c5.3565-2.7113,10.7611-5.5826,15.8314-8.801
				C193.358,135.4846,192.7174,134.3926,191.9499,134.7899L191.9499,134.7899z"/>
		</g>
	</g>
	<path fill="none" stroke="#303030" stroke-width="1.5" stroke-miterlimit="10" d="M224.9608,52.9603
		c0.7024,0.2273,1.6353,0.0237,2.2371-0.3694c0.6643-0.4336,1.0884-1.03,1.3699-1.7617c0.2527-0.6572,0.1846-1.4409-0.1138-2.1113
		c-0.0864-0.8516-0.6255-1.6733-1.5151-1.9099c-1.6421-0.4363-3.2107,0.7454-3.6826,2.2859
		C222.8033,50.5724,223.3831,52.4498,224.9608,52.9603z"/>
	<path fill="none" stroke="#303030" stroke-width="1.5" stroke-miterlimit="10" d="M233.9106,41.4916
		c1.4692-2.4421,5.4919-2.9282,7.0425-0.2842c0.3025,0.5159,0.4385,1.0815,0.4392,1.6472c0.0833,0.1934,0.1445,0.4023,0.1685,0.6316
		c0.0813,0.7825,0.2134,1.5818,0.1584,2.3704c-0.0649,0.9395-0.6646,1.5964-1.4331,2.0876c-1.1108,0.71-2.5386,0.8552-3.7961,0.49
		C233.5868,47.591,232.3866,44.025,233.9106,41.4916z"/>
	<path fill="none" stroke="#303030" stroke-width="1.5" stroke-miterlimit="10" d="M234.1214,30.3748
		c0.9495,0.5352,1.9253,0.9495,2.9163,1.2546c-0.092,2.5549,1.5088,5.2661,4.2009,6.0652c4.2358,1.2573,7.436-2.9302,6.8689-6.7478
		c3.0935-1.2427,5.9243-3.2671,8.1096-5.78c3.4668-3.9868,6.1763-10.9209,3.1499-15.1069c-0.8545-1.9978-2.394-3.9268-4.7939-5.6694
		c-8.7866-6.3799-17.6619-1.9395-23.7612,5.8188C225.6507,16.7737,226.4205,26.0354,234.1214,30.3748z"/>
	<path fill="#E93A1D" d="M240.4918,24.4994c-1.6689,2.3275-4.9197-0.693-3.5583-3.2515c0.7683-1.4439,1.6631-2.7985,2.6309-4.0859
		c-1.0498-0.813-2.0952-1.6602-2.9304-2.6889c-1.1638-1.4335-0.3167-3.8494,1.3604-3.8893
		c1.9031-0.0451,3.4895,1.3572,5.0166,2.5848c1.1057-1.1305,2.2495-2.2,3.4045-3.1995c1.4189-1.2276,3.5293,0.4227,3.4697,2.3578
		c-0.0566,1.8328-0.7397,3.0113-2.0376,3.9706c-0.3315,0.2452-0.5056,0.2562-0.5515,0.2874c0.7512,0.6031,1.509,1.195,2.259,1.801
		c2.5415,2.0537,0.3643,6.4201-2.3997,4.862c-1.1421-0.6439-2.2378-1.4352-3.0754-2.4804c-0.1763-0.142-0.3525-0.2842-0.5286-0.4265
		C242.5125,21.6844,241.5101,23.0792,240.4918,24.4994z"/>
</g>
</svg>
