<?xml version="1.0" encoding="utf-8"?>
<!-- Generator: Adobe Illustrator 20.1.0, SVG Export Plug-In . SVG Version: 6.00 Build 0)  -->
<svg version="1.1" xmlns="http://www.w3.org/2000/svg" xmlns:xlink="http://www.w3.org/1999/xlink" x="0px" y="0px"
	 viewBox="0 0 60 57" enable-background="new 0 0 60 57" xml:space="preserve">
<g id="site_bg">
</g>
<g id="back">
</g>
<g id="Layer_2">
	<path fill="#FFEFAF" d="M25.1187,5.9326c-3.5178-4.0463-8.802-4.6684-13.8618-4.3537c-1.3806,0.0859-2.406,1.0643-2.4707,2.4707
		c-0.3508,7.6239-0.7166,15.2465-1.1094,22.8683c-0.0544,1.0594-0.1208,2.1248-0.1914,3.193
		c-1.5312,0.1534-3.053,0.3147-4.4844,0.6002c-2.7039,0.5393-2.3042,4.3355,0,5.0851c1.261,0.4102,2.6331,0.6403,4.0557,0.7291
		c-0.0537,0.8646-0.0974,1.7296-0.1394,2.5944c-1.395,0.2145-2.7388,0.5744-3.759,1.3441c-1.5676,1.183-1.4873,3.6046,0.5554,4.2481
		c1.0054,0.3167,2.0413,0.3019,3.0791,0.1582c0.0117,1.6464,0.0583,3.288,0.1973,4.9146c0.1626,1.9056,3.1609,2.6499,3.5869,0.4855
		c0.4111-2.0876,0.6899-4.2079,0.9028-6.3418c1.925-0.3799,3.8196-0.7106,5.8188-0.7291c1.9478-0.018,3.114-3.0914,1.0745-3.9672
		c-2.1931-0.9415-4.2397-0.9431-6.489-0.6875c0.041-0.748,0.0845-1.4959,0.1182-2.2441c3.1936-0.4628,6.3369-1.485,8.8555-2.8082
		c4.8704-2.5589,6.1655-7.6968,7.0884-12.7732C28.865,15.6648,28.6688,10.0161,25.1187,5.9326z M20.8963,22.6163
		c-1.2766,4.6339-4.6675,6.1782-8.6035,6.8945c0.0251-0.5332,0.0483-1.0678,0.0776-1.5986
		c0.3911-7.0748,0.7969-14.1485,1.207-21.2222c3.0437,0.3419,6.0935,1.2838,7.6064,4.1929
		C23.0423,14.4566,21.8907,19.0069,20.8963,22.6163z"/>
	<path fill="#E93A1D" d="M51.9687,52.4053c1.6083-0.0436,3.2075-0.1041,4.7908-0.1815c0.635-0.031,1.6315-15.8733,1.5379-17.3917
		c-1.396,0.3163-4.1691-1.0462-5.2821-0.371c-1.8275,1.1087,0.1057,1.5832-0.488,2.6259c-0.7112,1.2491-0.6716,1.7046-2.4463,0.9685
		c-0.8086-0.3354-1.8963-2.9187-1.9661-2.9338c-1.5156-0.3281-6.0321-2.2616-7.189-0.4767
		c-0.6735,1.0391,0.6354,3.0302,0.1059,4.348c-2.6762,0.3482-2.9528-2.0422-2.8241-4.1464
		c-0.935-0.2318-1.9001-0.4358-2.7386-0.5789c-0.0928,1.4499-1.27,17.9346-0.8388,17.9557
		C40.3113,52.5009,46.1981,52.5618,51.9687,52.4053z"/>
	<g>
		<g>
			<path fill="#303030" d="M43.6394,35.3523c1.8986,0.1081,3.8072,0.1006,5.7084,0.1235c0.9655,0.0116,0.9661-1.4884,0-1.5
				c-1.9012-0.0229-3.8097-0.0154-5.7084-0.1235C42.675,33.7974,42.6781,35.2976,43.6394,35.3523L43.6394,35.3523z"/>
		</g>
	</g>
	<g>
		<g>
			<path fill="#303030" d="M54.3438,35.4867c1.3366,0.0508,2.3957-0.076,3.6949-0.3895c-0.3165-0.2411-0.6329-0.4821-0.9494-0.7232
				c-0.0364,6.1038-0.3717,12.2125-0.7205,18.3055c0.25-0.25,0.5-0.5,0.75-0.75c-7.6576,0.0233-15.3161,0.0717-22.9737,0.0413
				c0.25,0.25,0.5,0.5,0.75,0.75c-0.1235-6.1602,0.4174-12.3696-0.0931-18.5194c-0.3165,0.2411-0.6329,0.4821-0.9494,0.7232
				c1.4602,0.5159,2.7519,0.6426,4.3056,0.5148c0.9553-0.0786,0.9637-1.5793,0-1.5c-1.3829,0.1137-2.5835,0.0064-3.9068-0.4612
				c-0.4361-0.1541-0.9881,0.2564-0.9494,0.7232c0.5105,6.1497-0.0305,12.3593,0.0931,18.5194c0.0082,0.4065,0.337,0.7484,0.75,0.75
				c7.6576,0.0304,15.3161-0.018,22.9737-0.0413c0.4226-0.0013,0.7267-0.3433,0.75-0.75c0.3488-6.093,0.6841-12.2017,0.7205-18.3055
				c0.003-0.5-0.4806-0.8363-0.9494-0.7232c-1.138,0.2745-2.1295,0.3802-3.2962,0.3359
				C53.3784,33.9501,53.38,35.4501,54.3438,35.4867L54.3438,35.4867z"/>
		</g>
	</g>
	<g>
		<g>
			<path fill="#303030" d="M40.2092,32.0032c-0.1139,2.0772,0.031,4.2956,0.3132,6.3559c0.1001,0.7309,1.2677,0.537,1.266-0.1713
				c-0.0049-2.0711-0.1905-4.2848-0.5894-6.3185C41.0849,31.2873,40.239,31.4611,40.2092,32.0032L40.2092,32.0032z"/>
		</g>
	</g>
	<g>
		<g>
			<path fill="#303030" d="M51.2537,31.9418c-0.4677,1.957-0.5065,4.2488-0.3166,6.2437c0.0845,0.8878,1.3755,0.9201,1.4062,0
				c0.0667-1.9989,0.1781-4.0904,0.0786-6.0856C52.3897,31.4552,51.4162,31.2617,51.2537,31.9418L51.2537,31.9418z"/>
		</g>
	</g>
	<g>
		<g>
			<path fill="#303030" d="M8.5577,51.2216c0.5894-8.5563,0.4373-17.2132,0.6-25.7872c0.0816-4.2979,0.1631-8.5957,0.2447-12.8936
				c0.0408-2.1489,0.0816-4.2979,0.1223-6.4468c0.0121-0.6377-0.2733-2.3146-0.0032-2.8394
				c0.2682-0.521,0.1662-0.3694,0.9009-0.4269c1.9706-0.1543,4.4431,0.8203,6.2934,1.422c2.6732,0.8693,4.4017,1.9687,5.3994,4.834
				c1.9915,5.7193,1.876,14.9159-1.8997,19.8851c-3.9788,5.2367-12.8485,3.6289-18.5192,3.3339
				c-1.1586-0.0603-1.1414,1.7086,0,1.793c5.8461,0.4321,13.7767,1.4483,18.6116-2.7077c5.1867-4.4585,5.093-13.7785,4.0737-19.912
				c-0.4829-2.906-1.6-6.1375-4.3297-7.6572c-2.0139-1.1212-4.5996-1.6717-6.8328-2.1274c-1.2302-0.251-3.7654-0.9905-4.8149,0.1072
				C7.591,2.6491,8.0266,4.5727,8.0077,5.5981c-0.0547,2.9754-0.1093,5.9509-0.164,8.9263
				c-0.224,12.1947-0.948,24.5055-0.5634,36.6972C7.3064,52.0494,8.5015,52.0372,8.5577,51.2216L8.5577,51.2216z"/>
		</g>
	</g>
	<g>
		<g>
			<path fill="#303030" d="M0.5874,43.1662c5.5956,0.2618,11.34,0.1338,16.9331-0.1744c1.0736-0.0592,1.0905-1.6712,0-1.6816
				c-5.6042-0.0538-11.3513,0.081-16.9331,0.5963C-0.211,41.9802-0.2342,43.1278,0.5874,43.1662L0.5874,43.1662z"/>
		</g>
	</g>
	<g>
		<g>
			<path fill="#303030" d="M40.7263,23.1759c0.7553-5.6488,0.8157-11.4941,0.2792-17.1678c-0.067-0.7085-1.1627-0.7326-1.125,0
				c0.2963,5.7527,0.2469,11.415-0.0389,17.1678C39.8125,23.7597,40.6533,23.7216,40.7263,23.1759L40.7263,23.1759z"/>
		</g>
	</g>
	<g>
		<g>
			<path fill="#303030" d="M36.528,12.9917c0.6539-1.0365,1.3076-2.073,1.967-3.106c0.2458-0.3851,1.5673-3.089,1.9457-3.1185
				c0.4633-0.0361,1.5003,1.4874,1.8071,1.8567c0.8051,0.9689,1.506,2.0149,2.3071,2.9854
				c0.4529,0.5488,1.3069-0.1548,0.9663-0.7456c-0.7543-1.3081-1.7794-2.4935-2.7966-3.6048
				c-0.5255-0.5741-1.3894-1.8851-2.3307-1.7838c-0.9235,0.0994-1.4029,1.5086-1.7869,2.1546
				c-0.9671,1.6269-1.9048,3.2714-2.858,4.9066C35.455,13.0403,36.2188,13.4817,36.528,12.9917L36.528,12.9917z"/>
		</g>
	</g>
	<g>
		<g>
			<path fill="#303030" d="M52.8478,6.0081c-0.7553,5.6488-0.8157,11.4941-0.2792,17.1678c0.067,0.7085,1.1627,0.7326,1.125,0
				c-0.2963-5.7527-0.2469-11.415,0.0389-17.1678C53.7615,5.4243,52.9207,5.4624,52.8478,6.0081L52.8478,6.0081z"/>
		</g>
	</g>
	<g>
		<g>
			<path fill="#303030" d="M57.0461,16.1924c-0.6539,1.0365-1.3076,2.073-1.967,3.106c-0.2458,0.3851-1.5673,3.089-1.9457,3.1185
				c-0.4633,0.0361-1.5002-1.4874-1.8071-1.8567c-0.8051-0.9689-1.506-2.0149-2.3071-2.9854
				c-0.4529-0.5488-1.3069,0.1548-0.9663,0.7456c0.7543,1.3081,1.7794,2.4935,2.7966,3.6048
				c0.5255,0.5741,1.3894,1.8851,2.3307,1.7838c0.9235-0.0994,1.4029-1.5086,1.7869-2.1546
				c0.9671-1.6269,1.9048-3.2714,2.858-4.9066C58.119,16.1438,57.3552,15.7024,57.0461,16.1924L57.0461,16.1924z"/>
		</g>
	</g>
</g>
</svg>
