<?xml version="1.0" encoding="utf-8"?>
<!-- Generator: Adobe Illustrator 20.1.0, SVG Export Plug-In . SVG Version: 6.00 Build 0)  -->
<svg version="1.1" xmlns="http://www.w3.org/2000/svg" xmlns:xlink="http://www.w3.org/1999/xlink" x="0px" y="0px"
	 viewBox="0 0 316 266" enable-background="new 0 0 316 266" xml:space="preserve">
<g id="site_bg">
</g>
<g id="back">
	<g>
		<g>
			<path fill="#F2F6F9" d="M162.4559,264.3863c-4.4805,0.001-8.9619-1.499-12.6445-4.5049l-15.1787-12.3896
				c-1.0479,1.5771-2.3232,3.0107-3.8018,4.251c-4.3555,3.6553-13.7197,8.5898-27.4951,0.5859
				c-2.4033-1.3965-5.2061-3.2871-8.5156-5.7451c-7.6367,2.7002-16.4756,0.5693-21.9912-5.999
				c-1.501-1.7881-2.6357-3.7617-3.4121-5.8301c-5.1504-7.0479-23.7051-28.1309-39.4248-45.252
				c-6.6152-7.2041-6.9688-17.9902-1.2344-25.5723c-5.0234-7.3633-6.7598-12.3291-6.3857-18.292
				c0.3525-5.6143,3.0068-10.8906,7.2822-14.4785c2.3447-1.9668,5.0303-3.3145,7.8408-4.04
				c-6.8574-7.8184-9.9609-12.5674-9.4727-20.3193c0.3447-5.4609,2.9385-10.6055,7.1299-14.123
				c3.0322-2.5449,6.6123-4.042,10.2871-4.5156c-0.3555-0.4805-0.5508-0.7461-0.5742-0.7764
				c-5.3203-7.2197-5.082-16.8643,0.0127-23.7519c1.2363-2.6084,3.0225-4.9512,5.2529-6.8232
				c1.7148-1.4385,4.1611-3.0508,7.3086-4.0439c0.0078-0.2314,0.0176-0.4629,0.0303-0.6943
				c0.3398-6.0654,3.0498-11.5225,7.6299-15.3662c2.8271-2.3721,6.1289-3.832,9.5371-4.4033
				c1.1279-3.6465,3.2871-6.9287,6.2559-9.4189c4.7676-4,10.9014-5.415,16.6309-4.3184c1.2207-2.5381,2.9746-4.8164,5.1719-6.6592
				c4.3564-3.6553,9.8975-5.4648,15.7207-5.1865c5.54-3.1729,12.2529-3.4727,18.0059-0.9385
				c5.4756-4.0752,12.4521-5.2305,19.3418-3.1602c0.3545,0.1064,0.709,0.2217,1.0645,0.3457
				c4.7705-1.6943,11.6328-2.2324,19.8418,2.5596c4.4375-1.625,9.2998-1.6094,13.6904-0.0254
				c4.3076,0.1943,8.5449,1.7744,11.9893,4.6836c4.6133-0.6641,9.3877,0.2842,13.4336,2.7979
				c4.3213,0.8506,8.3916,3.127,11.4434,6.7637c1.1963,1.4248,2.1592,2.9678,2.8936,4.5811
				c3.5186,4.2822,13.1387,14.5469,20.377,22.2705c38.3291,40.8955,44.8799,49.4561,44.7344,60.3252
				c2.3984,4.7109,2.7822,10.1162,1.2588,15.0166c3.207,4.1084,4.5693,9.1367,4.1465,14.0195
				c0.498,2.0488,0.6748,4.1816,0.5029,6.3232c-0.2656,3.3281-1.3574,6.5029-3.1357,9.2568
				c1.8555,4.0078,2.248,7.1172,1.9893,10.7383c-0.2119,2.9766-1.083,5.8574-2.5029,8.4326c0.21,1.625,0.2275,3.1348,0.1377,4.624
				c-0.335,5.5186-2.6055,10.5283-6.4365,14.2773c0.4287,2.0195,0.5391,3.9521,0.4014,5.9443
				c-0.3232,4.6982-2.1602,9.0166-5.2373,12.416c-0.5859,5.5146-3.1943,10.4561-7.4062,13.9893
				c-2.335,1.96-4.999,3.2998-7.7812,4.0283c-0.0049,0.5049-0.0283,1.0117-0.0713,1.5186
				c-0.4502,5.3027-2.9951,10.208-7.0723,13.6279c-1.9854,1.667-7.5957,5.5801-15.4512,4.6318
				c-1.1338,1.7236-2.5244,3.2891-4.1494,4.6523c-5.9531,5-16.1631,7.1074-25.1709,0.5283
				c-0.9404,1.2852-2.0391,2.4619-3.2783,3.5029c-3.4834,2.9229-7.6953,4.6621-12.1963,5.0908
				c-6.9814,2.1104-15.1182,0.6025-24.3115-4.5215c-1.1299,1.7402-2.5234,3.3184-4.1553,4.6885
				C171.5965,262.8248,167.0271,264.3863,162.4559,264.3863z M231.6678,29.5035l0.0645,0.0713
				c-0.1377-0.9023-0.3525-1.7988-0.6523-2.6816C231.3348,27.7535,231.5311,28.6255,231.6678,29.5035z"/>
		</g>
	</g>
</g>
<g id="Layer_2">
	<rect x="9.0744" y="128.1264" fill="#FFEFAF" width="19.0154" height="29.0258"/>
	<rect x="9.0744" y="172.921" fill="#FFEFAF" width="19.0154" height="6.0696"/>
	<rect x="112.996" y="125.2965" fill="#FFEFAF" width="19.2535" height="49.8575"/>
	<g>
		<g>
			<path fill="#303030" d="M3.7329,184.324c-0.9551-20.4975-1.5943-41.0109-0.9871-61.5297
				c0.1518-5.1278,0.3487-10.2551,0.649-15.3764c0.1403-2.3927,0.2114-4.8079,0.4547-7.1929
				c0.3783-3.7085,2.2594-5.703,6.052-5.6959c4.9568,0.0094,9.9613,0.5438,14.9136,0.7858
				c5.1336,0.2509,10.2684,0.4759,15.4047,0.6656c20.5436,0.7589,41.1026,1.099,61.6601,0.9997
				c10.2787-0.0497,20.5572-0.1949,30.832-0.4844c2.486-0.07,4.9718-0.1441,7.4574-0.2247
				c1.0022-0.0325,2.0659-0.1518,3.0703-0.0479c2.3984,0.2481,3.4825,1.7536,3.8573,3.9445
				c0.8028,4.6926,0.1926,9.9018,0.194,14.6546c0.007,23.2699,0.0171,46.5398,0.02,69.8097
				c0.1947-0.1947,0.3895-0.3895,0.5842-0.5842c-36.881,1.2938-73.8063,1.5253-110.7009,0.7147
				c-10.4239-0.229-20.8458-0.5406-31.2649-0.9322c-0.7995-0.03-0.7981,1.2118,0,1.2422c36.877,1.4048,73.8016,1.7857,110.6986,1.03
				c10.4245-0.2135,20.847-0.5163,31.2672-0.8862c0.3155-0.0112,0.5844-0.2586,0.5842-0.5842
				c-0.0122-22.2726-0.0174-44.5452-0.0256-66.8179c-0.002-5.3163,0.2015-10.6792-0.0271-15.9904
				c-0.1277-2.9668-1.0003-5.9724-4.2548-6.655c-2.0512-0.4302-4.412-0.0504-6.4883,0.0045
				c-2.9829,0.079-5.966,0.1465-8.9494,0.2049c-5.4699,0.1072-10.9396,0.2145-16.4102,0.2789
				c-22.0473,0.2598-44.1018,0.0435-66.1394-0.6583C35.083,94.6452,23.9869,94.1663,12.894,93.604
				c-3.2139-0.1629-7.2648-0.5482-9.067,2.7617c-0.7573,1.3908-0.8398,3.0652-0.9426,4.6089
				c-0.1979,2.9707-0.3162,5.948-0.4474,8.9223c-1.0933,24.7853-1.3827,49.6693,0.4639,74.4271
				C2.9403,184.8523,3.7581,184.8633,3.7329,184.324L3.7329,184.324z"/>
		</g>
	</g>
	<g>
		<g>
			<path fill="#303030" d="M10.6856,110.8296c20.1745,1.4887,40.5618,1.5298,60.7822,1.5354
				c20.268,0.0056,40.5399-0.4179,60.7817-1.4663c0.7042-0.0365,0.7116-1.129,0-1.1016
				c-20.2521,0.7803-40.5136,1.297-60.7817,1.3088c-20.2784,0.0119-40.5142-0.8797-60.7822-1.2022
				C10.0839,109.8943,10.0976,110.7862,10.6856,110.8296L10.6856,110.8296z"/>
		</g>
	</g>
	<g>
		<g>
			<path fill="#303030" d="M21.4408,100.6014c-0.8205,0.1313-1.3262,0.0838-1.5713,0.9817c-0.1589,0.582-0.072,1.2226,0.1746,1.7658
				c0.5497,1.211,1.8986,1.7947,3.1396,1.2696c1.2007-0.508,1.9816-1.859,1.5196-3.1355c-0.4495-1.2421-1.9631-2.0772-3.2238-1.5773
				c-0.5599,0.2221-0.3546,1.0243,0.2508,0.9097c1.7666-0.3345,2.9267,1.9752,1.1102,2.8261
				c-0.7158,0.3353-1.4597,0.0352-1.8282-0.6401c-0.1704-0.3122-0.2661-0.6822-0.2099-1.0381
				c0.0786-0.4979,0.4035-0.4402,0.8659-0.537C22.2143,101.3121,21.9741,100.5161,21.4408,100.6014L21.4408,100.6014z"/>
		</g>
	</g>
	<g>
		<g>
			<path fill="#303030" d="M29.3978,100.287c-1.9204,1.0245-1.3957,4.4003,0.7866,4.7305c2.2142,0.335,3.7958-2.9901,1.9785-4.3986
				c-0.4994-0.387-1.1692,0.2245-0.7126,0.7126c0.7508,0.8027,0.1583,2.7521-1.1037,2.5344
				c-1.1535-0.199-1.3447-2.1096-0.4194-2.6733C30.5048,100.8407,29.9937,99.9691,29.3978,100.287L29.3978,100.287z"/>
		</g>
	</g>
	<g>
		<g>
			<path fill="#303030" d="M37.656,128.9414c6.624-0.823,13.4999-1.1525,20.175-0.9328c6.7975,0.2238,13.3403,1.5222,20.0527,2.4074
				c0.8817,0.1163,0.9837-1.2491,0.2025-1.4962c-6.4008-2.025-13.5768-2.5363-20.2552-2.7419
				c-6.9127-0.2128-13.559,0.3738-20.3261,1.6471C36.8839,127.9418,37.0173,129.0208,37.656,128.9414L37.656,128.9414z"/>
		</g>
	</g>
	<g>
		<g>
			<path fill="#303030" d="M37.9068,137.0038c5.404-0.489,10.7958-1.0706,16.1749-1.8019c0.964-0.1311,0.7466-1.8309-0.2321-1.7149
				c-5.389,0.6387-10.7538,1.429-16.1063,2.3083C37.0651,135.9068,37.2159,137.0664,37.9068,137.0038L37.9068,137.0038z"/>
		</g>
	</g>
	<g>
		<g>
			<path fill="#303030" d="M37.8736,163.765c5.3194,0.0696,10.6821,0.3711,15.9973,0.0791c0.6706-0.0368,0.6717-1.0061,0-1.043
				c-5.3152-0.292-10.6779,0.0095-15.9973,0.0791C37.3043,162.8877,37.3034,163.7575,37.8736,163.765L37.8736,163.765z"/>
		</g>
	</g>
	<g>
		<g>
			<path fill="#303030" d="M39.0484,170.4814c3.2189,1.6594,6.5859,2.2913,10.138,1.2527c0.6882-0.2012,0.3969-1.193-0.2928-1.0622
				c-3.1368,0.595-6.4613,0.439-9.3868-0.9747C38.9853,169.4452,38.525,170.2116,39.0484,170.4814L39.0484,170.4814z"/>
		</g>
	</g>
	<g>
		<g>
			<path fill="#303030" d="M66.6688,165.4702c3.7316,0.025,7.4675,0.1051,11.1981,0c0.7048-0.0199,0.706-1.0758,0-1.0957
				c-3.7306-0.1051-7.4666-0.025-11.1981,0C65.9638,164.3792,65.9626,165.4655,66.6688,165.4702L66.6688,165.4702z"/>
		</g>
	</g>
	<g>
		<g>
			<path fill="#303030" d="M66.8404,176.4339c2.2377-1.4965,5.0544-1.8779,7.6577-1.3019c0.6747,0.1493,0.9573-0.8471,0.2866-1.0396
				c-3.0107-0.864-5.8719-0.2228-8.4057,1.5523C65.9029,175.9782,66.347,176.7639,66.8404,176.4339L66.8404,176.4339z"/>
		</g>
	</g>
	<g>
		<g>
			<path fill="#303030" d="M87.4653,166.9557c4.2431,0.1093,8.5594,0.3634,12.7979,0.0879c0.6704-0.0436,0.6716-0.9993,0-1.043
				c-4.2388-0.2756-8.554-0.0214-12.7979,0.0879C86.9074,166.1028,86.9065,166.9413,87.4653,166.9557L87.4653,166.9557z"/>
		</g>
	</g>
	<g>
		<g>
			<path fill="#303030" d="M90.6647,173.5157c3.1994,0.036,6.4,0.0302,9.5984-0.0674c0.6784-0.0207,0.6796-1.0339,0-1.0547
				c-3.1983-0.0976-6.399-0.1034-9.5984-0.0674C89.8995,172.3349,89.8982,173.5071,90.6647,173.5157L90.6647,173.5157z"/>
		</g>
	</g>
	<g>
		<g>
			<path fill="#303030" d="M86.8334,129.7757c0.3727,3.9326,0.738,7.8635,1.1529,11.7921c0.2076,1.966,0.4159,3.9322,0.6427,5.8961
				c0.1451,1.2567,0.159,2.7266,0.9541,3.7797c1.4767,1.9558,4.4308,1.3554,6.5433,1.2679
				c4.0552-0.168,8.1101-0.3494,12.1664-0.4895c0.3004-0.0104,0.6185-0.2635,0.5921-0.5921
				c-0.344-4.281-0.6986-8.5614-1.0614-12.8409c-0.1954-2.3047-0.3844-4.6102-0.5868-6.9143
				c-0.1085-1.235-0.1096-2.6033-0.7481-3.7051c-1.4054-2.4253-4.5308-1.5524-6.8085-1.2981
				c-4.091,0.4569-8.213,0.8023-12.2833,1.418c-0.5812,0.0879-0.4483,1.0722,0.1394,1.0301
				c3.2447-0.2322,6.4822-0.6762,9.7151-1.0349c1.6169-0.1794,3.2365-0.401,4.8576-0.539c1.3089-0.1115,1.32-0.1262,2.5201,0.8894
				c1.3904,1.1765,1.2491,1.5399,1.4067,3.2397c0.6099,6.5794,1.0899,13.1725,1.6649,19.7552
				c0.1974-0.1974,0.3948-0.3947,0.5921-0.5921c-3.0814,0.1503-6.1641,0.2728-9.2465,0.402
				c-1.4599,0.0612-2.9198,0.1273-4.3799,0.1836c-2.425,0.0934-4.3626-0.0954-4.7836-2.9767
				c-0.9047-6.1923-1.4546-12.4604-2.2468-18.6708C87.5723,129.2754,86.784,129.2547,86.8334,129.7757L86.8334,129.7757z"/>
		</g>
	</g>
	<g>
		<g>
			<path fill="#303030" d="M8.6818,128.1264c-0.0564,7.4993-0.0951,14.9976-0.0935,22.4979
				c0.0004,2.0108-0.3784,4.8241,1.3887,6.2787c1.67,1.3747,4.3439,0.575,6.2401,0.2919c3.2771-0.4892,7.2164-0.5225,10.3349-1.6539
				c2.0715-0.7515,2.3989-2.4864,2.4228-4.489c0.09-7.5374-0.2658-15.0979-0.3813-22.6347
				c-0.0046-0.3026-0.2347-0.4846-0.5165-0.5165c-6.419-0.7255-12.9125-0.5595-19.2421,0.7764
				c-0.6117,0.1291-0.3448,1.0276,0.2555,0.9266c6.3241-1.064,12.6063-1.3798,18.9867-0.67
				c-0.1722-0.1722-0.3443-0.3443-0.5165-0.5165c0.0953,5.5764,0.1568,11.1535,0.2518,16.73
				c0.0223,1.3122,0.0447,2.6243,0.067,3.9365c0.0111,0.6543,0.0475,1.3141,0.0335,1.9682
				c-0.0325,1.5186,0.0392,1.7697-1.2614,2.7892c-2.2065,1.7297-5.9907,1.6335-8.7447,2.0544
				c-1.3087,0.2-2.6162,0.4322-3.9285,0.6065c-0.5193,0.069-1.361,0.2999-1.8877,0.1371c-1.3709-0.4238-2.4059-2.0006-2.4959-3.337
				c-0.1792-2.6608-0.0141-5.3903-0.018-8.058c-0.0083-5.707-0.0617-11.4118-0.1098-17.1179
				C9.4627,127.6213,8.6856,127.6204,8.6818,128.1264L8.6818,128.1264z"/>
		</g>
	</g>
	<g>
		<g>
			<path fill="#303030" d="M10.2317,163.4456c0.5817,1.9112,1.192,3.8135,1.798,5.7171c0.0632,0.1986,0.26,0.3833,0.4831,0.3678
				c2.6232-0.1821,5.2464-0.3641,7.8696-0.5462c1.7033-0.1182,3.7996,0.0354,5.4164-0.6351
				c2.0727-0.8596,2.6666-2.8681,1.7559-4.863c-3.4376-7.5301-12.4172-1.9861-18.2131-4.0886
				c-0.5363-0.1945-0.9065,0.6742-0.3905,0.9264c5.3843,2.6316,12.3963-2.7868,16.7999,2.2245
				c1.4431,1.6422,1.8418,3.7555-0.4251,4.8435c-1.6084,0.7719-4.1671,0.534-5.9272,0.6566
				c-0.9837,0.0685-1.9674,0.1371-2.9511,0.2056c-0.6052,0.0422-2.3845,0.4059-2.9511,0.2056
				c-1.455-0.5143-1.912-3.9022-2.3721-5.2605C10.9349,162.6401,10.0567,162.8707,10.2317,163.4456L10.2317,163.4456z"/>
		</g>
	</g>
	<g>
		<g>
			<path fill="#303030" d="M12.0366,178.5681c5.3476,0.3543,10.7012,0.6316,16.0533,0.9085c0.2489,0.0129,0.5044-0.2335,0.486-0.486
				c-0.1817-2.4886-0.337-4.9791-0.5025-7.4688c-0.0128-0.1923-0.1401-0.4357-0.3562-0.4679
				c-4.7534-0.7077-9.5119-0.5047-14.1072,0.9538c-0.5868,0.1862-0.3458,1.0869,0.2555,0.9266
				c2.9752-0.7932,5.9871-1.3218,9.0755-1.308c1.4526,0.0065,3.6765-0.1818,4.2571,1.2958
				c0.3889,0.9898,0.3223,3.1475,0.2852,4.2012c-0.058,1.6479-0.697,1.2959-2.2263,1.1967
				c-1.4162-0.0919-2.8327-0.1781-4.2494-0.263c-2.99-0.1792-5.9794-0.3688-8.9709-0.5203
				C11.3712,177.5032,11.3783,178.5245,12.0366,178.5681L12.0366,178.5681z"/>
		</g>
	</g>
	<g>
		<g>
			<path fill="#303030" d="M113.4866,128.0953c0.6592,16.5446,1.6905,33.0764,2.5988,49.6088
				c0.0217,0.3949,0.436,0.6697,0.7982,0.4581c5.571-3.2539,12.0489-4.1497,18.2789-2.4463
				c0.2987,0.0817,0.6375-0.1526,0.6242-0.4755c-0.708-17.2922-1.8822-34.542-3.2777-51.7905
				c-0.0204-0.2528-0.2065-0.4997-0.4867-0.4867c-9.2116,0.4263-18.3789,1.4177-27.4304,3.2012
				c-0.6727,0.1326-0.3834,1.1402,0.2819,1.0227c6.7248-1.1882,13.4828-2.166,20.2881-2.7546
				c1.4684-0.127,2.9381-0.2432,4.4085-0.345c2.3694-0.164,2.0867,0.6523,2.2593,2.7778c0.2642,3.2522,0.4829,6.5085,0.7233,9.7625
				c0.9498,12.8582,1.6881,25.7315,2.2473,38.6125c0.2081-0.1585,0.4162-0.317,0.6242-0.4755
				c-6.4943-1.7593-13.2563-0.9089-19.0766,2.4812c0.2661,0.1527,0.5322,0.3054,0.7982,0.4581
				c-0.8886-16.537-1.6553-33.0867-2.7926-49.6088C114.3158,127.5439,113.4642,127.5332,113.4866,128.0953L113.4866,128.0953z"/>
		</g>
	</g>
	<circle fill="#E93A1D" cx="14.1146" cy="102.2402" r="2.7211"/>
	<g>
		<g>
			<path fill="#303030" d="M183.3574,59.3703c-0.4452,9.536-0.7701,19.077-1.0893,28.618c-0.077,2.3026-0.1514,4.6052-0.227,6.9078
				c-0.0591,1.7981-0.2738,3.7176,0.1775,5.4861c0.6911,2.7086,2.8671,3.5986,5.4321,3.9364
				c4.6484,0.612,9.3229,1.0674,13.9813,1.5992c2.2718,0.2594,4.5435,0.5187,6.8153,0.778
				c1.5735,0.1796,3.6531,0.7786,5.2132,0.1845c2.7535-1.0485,1.8575-5.8207,1.9297-8.0748
				c0.1575-4.9164,0.315-9.8328,0.4726-14.7492c0.3466-10.8158,0.6993-21.6315,1.0165-32.4482
				c0.0079-0.2682-0.2029-0.5558-0.4689-0.6159c-11.7921-2.6637-23.9735-2.8174-35.8225-0.4053
				c-0.4294,0.0874-0.611,0.6349-0.4021,0.9884c2.0117,3.4049,2.7347,7.0344,2.4431,10.9623c-0.0595,0.8012,1.1251,0.7592,1.2246,0
				c0.5393-4.1128-0.4063-8.0842-2.5058-11.6415c-0.134,0.3295-0.2681,0.659-0.4021,0.9884
				c10.2089-2.0732,20.7063-2.3184,30.9763-0.5037c0.8436,0.1491,2.9093,0.2391,3.438,0.9236
				c0.4967,0.6432,0.1328,2.3864,0.1027,3.2367c-0.0986,2.7859-0.1953,5.5718-0.2866,8.3579
				c-0.1665,5.0803-0.3329,10.1605-0.4994,15.2408c-0.1718,5.2442-0.3436,10.4883-0.5155,15.7325
				c-0.0806,2.4582-0.1622,4.9163-0.24,7.3746c-0.0481,1.521-0.3053,3.5286-2.137,3.4897
				c-1.3375-0.0284-2.6945-0.2882-4.0236-0.4378c-5.1926-0.5846-10.3852-1.1691-15.5778-1.7537
				c-2.2057-0.2483-5.5222-0.0305-7.4201-1.2837c-2.2794-1.5051-1.7097-5.0372-1.6386-7.3655
				c0.3615-11.8404,0.7379-23.6813,0.9359-35.5258C184.2695,58.7874,183.3844,58.7924,183.3574,59.3703L183.3574,59.3703z"/>
		</g>
	</g>
	<g>
		<g>
			<path fill="#303030" d="M260.294,137.6581c17.322,0.9934,34.6877,2.5991,51.7149,6.0241
				c0.4905,0.0987,0.9264-0.2122,0.9494-0.7232c0.1266-2.8102,0.2533-5.6203,0.38-8.4305c0.0435-0.9651-1.4566-0.9629-1.5,0
				c-0.1266,2.8102-0.2533,5.6203-0.38,8.4305c0.3164-0.2411,0.6329-0.4821,0.9494-0.7232
				c-17.157-3.4511-34.6599-5.0767-52.1137-6.0777C259.3296,136.1028,259.3327,137.603,260.294,137.6581L260.294,137.6581z"/>
		</g>
	</g>
	<g>
		<g>
			<path fill="#303030" d="M313.0237,130.6075c-17.8963-0.65-35.8004-1.068-53.702-1.5405c-0.9656-0.0255-0.965,1.4745,0,1.5
				c17.9016,0.4725,35.8057,0.8905,53.702,1.5405C313.9891,132.1426,313.9877,130.6425,313.0237,130.6075L313.0237,130.6075z"/>
		</g>
	</g>
	<g>
		<g>
			<path fill="#303030" d="M204.79,118.3602c0.3175-4.1407,0.4139-8.3487,0.266-12.4992c-0.0264-0.7405-1.1437-0.7457-1.1543,0
				c-0.0591,4.1639-0.1518,8.3354-0.1781,12.4992C203.7192,119.0542,204.7381,119.0368,204.79,118.3602L204.79,118.3602z"/>
		</g>
	</g>
	<g>
		<g>
			<path fill="#303030" d="M217.3405,64.0588c13.957,0.0143,27.9199-0.4983,41.8801-0.5304
				c13.962-0.0322,27.9259,0.0888,41.8838,0.4371c-0.212-0.212-0.424-0.424-0.6359-0.6359
				c0.4796,11.5638,0.1284,23.14-0.5003,34.6909c-0.5832,10.7166-1.8045,21.5413-1.606,32.2792c0.0121,0.6528,0.9495,0.6355,1.002,0
				c0.8857-10.725,1.3079-21.5322,1.9003-32.2792c0.6371-11.5585,0.9652-23.1201,0.4759-34.6909
				c-0.0148-0.3501-0.2795-0.6268-0.6359-0.6359c-13.9578-0.356-27.9219-0.4535-41.8838-0.4037
				c-13.9316,0.0497-27.9724-0.0793-41.8801,0.8256C216.7403,63.1545,216.7273,64.0582,217.3405,64.0588L217.3405,64.0588z"/>
		</g>
	</g>
	<g>
		<g>
			<path fill="#303030" d="M255.811,211.7893c-10.5208,1.0902-21.3327,0.8871-31.8951,1.1003
				c-7.1469,0.1443-14.2966,0.2492-21.4451,0.2155c-4.7293-0.0223-9.6281,0.14-14.3249-0.5282
				c-0.3779-0.0538-1.1073-0.0603-1.4251-0.296c-0.2683-0.199,0.1997,0.3791,0.0427,0.0415
				c-0.1009-0.2171-0.0336-0.6587-0.0445-0.8967c-0.0753-1.6358-0.1202-3.2731-0.1701-4.9099
				c-0.1701-5.5794-0.3212-11.1593-0.4606-16.7396c-0.3696-14.7961-0.6046-29.5945-1.0664-44.3885
				c-0.1984-6.3561-0.3976-12.7172-0.7936-19.0647c-0.0685-1.0976,0.2457-7.1135-1.3433-7.5125
				c-0.057,0.4214-0.1141,0.8427-0.1711,1.2641c22.0491,1.412,44.143-0.4604,66.1969,0.6973
				c2.4743,0.1299,6.5733-0.3321,8.344,1.7403c0.7043,0.8243,0.5312,3.2149,0.5797,4.288c0.0662,1.462,0.1287,2.9243,0.1864,4.3867
				c0.1956,4.9515,0.3421,9.9047,0.4405,14.8591c0.2056,10.3474,0.2366,20.6976,0.1149,31.0463
				c-0.0683,5.8132-0.1801,11.6257-0.3527,17.4368c-0.0798,2.687-0.1719,5.3737-0.2776,8.0598
				c-0.09,2.2881,0.6337,8.5991-2.319,9.0668c-0.88,0.1394-0.5011,1.4616,0.3676,1.3334c1.6471-0.2431,2.6067-0.8121,2.9795-2.4849
				c0.5519-2.4762,0.2903-5.3822,0.3898-7.9153c0.225-5.7258,0.3898-11.4539,0.5026-17.1829
				c0.2252-11.4348,0.2288-22.8741,0.0358-34.3094c-0.0971-5.7504-0.243-11.5005-0.4387-17.2484
				c-0.0898-2.6393-0.1819-5.2793-0.3058-7.9173c-0.088-1.8728-0.0826-4.0115-1.733-5.2455
				c-1.2714-0.9505-3.0536-0.9403-4.5633-1.0472c-3.288-0.2327-6.5825-0.3798-9.8772-0.476
				c-6.09-0.1778-12.1837-0.1635-18.2753-0.0956c-14.0004,0.1562-28.0084,0.5842-41.9952-0.279
				c-0.7272-0.0449-0.8701,1.0903-0.1711,1.2641c-0.5707-0.1419-0.1512-0.2528-0.1342,0.4298
				c0.0137,0.5517,0.1619,1.1303,0.2196,1.6824c0.1975,1.8904,0.3118,3.7905,0.4228,5.6875
				c0.3417,5.8406,0.5491,11.6894,0.7462,17.5363c0.4986,14.7921,0.896,29.5911,1.2014,44.3885
				c0.1152,5.5798,0.208,11.1606,0.3608,16.7396c0.0463,1.6885-0.7053,6.1918,1.1817,6.9648
				c1.1374,0.4659,2.672,0.4214,3.8742,0.5059c2.4587,0.1728,4.9261,0.2322,7.3899,0.277
				c6.7971,0.1237,13.599,0.0619,20.3958-0.0493c8.0359-0.1315,16.0711-0.3392,24.1029-0.6263
				c4.4812-0.1602,9.0517-0.1672,13.507-0.7322C256.4776,212.7712,256.5,211.7179,255.811,211.7893z"/>
		</g>
	</g>
	<g>
		<g>
			<path fill="#303030" d="M220.2359,203.6592c-3.6988,1.808-1.2714,7.7832,2.7417,6.4569c1.8247-0.6031,3.1603-2.507,2.8214-4.438
				c-0.3934-2.2417-2.4842-3.7647-4.6899-3.7911c-0.5697-0.0068-0.5696,0.8754,0,0.8848c1.6315,0.0269,3.2706,1.0704,3.7076,2.7119
				c0.419,1.5737-0.6321,3.1007-2.1317,3.5714c-2.8627,0.8987-4.4868-3.1897-1.9908-4.6116
				C221.2074,204.1512,220.7561,203.405,220.2359,203.6592L220.2359,203.6592z"/>
		</g>
	</g>
	<g>
		<g>
			<path fill="#303030" d="M196.1789,95.9113c-0.8415,1.5107-0.4595,3.4406,0.8235,4.5935
				c1.4139,1.2705,3.4801,0.9828,4.7377-0.3642c1.2592-1.3488,1.3951-3.4421,0.0279-4.7613
				c-1.1991-1.157-3.2728-1.5139-4.6483-0.4726c-0.4728,0.3579-0.0625,1.1396,0.4791,0.8196
				c2.4286-1.4349,5.5991,1.333,3.4434,3.7163c-2.1079,2.3306-5.4413-0.5097-4.0385-3.0493
				C197.3009,95.8551,196.4784,95.3735,196.1789,95.9113L196.1789,95.9113z"/>
		</g>
	</g>
	<g>
		<g>
			<path fill="none" stroke="#E93A1D" stroke-width="1.5" stroke-linecap="round" stroke-linejoin="round" d="M141.8876,85.2952
				c0.2139-0.2622,0.426-0.5205,0.637-0.7751"/>
			
				<path fill="none" stroke="#E93A1D" stroke-width="1.5" stroke-linecap="round" stroke-linejoin="round" stroke-dasharray="1.8878,4.7194" d="
				M145.6236,80.9568c9.9937-10.8667,17.6316-12.5627,33.7834-9.8452"/>
			<path fill="none" stroke="#E93A1D" stroke-width="1.5" stroke-linecap="round" stroke-linejoin="round" d="M181.7274,71.521
				c0.3257,0.0598,0.6543,0.1211,0.9866,0.1841"/>
			<g>
				<polygon fill="#E93A1D" points="145.7923,84.6876 142.2074,84.9847 141.9125,81.3995 140.5165,83.0467 140.8124,86.6307 
					144.3963,86.335 				"/>
			</g>
		</g>
	</g>
	<g>
		<g>
			<path fill="none" stroke="#E93A1D" stroke-width="1.5" stroke-linecap="round" stroke-linejoin="round" d="M185.2735,205.8279
				c-0.3276,0.071-0.6543,0.1396-0.9795,0.2053"/>
			
				<path fill="none" stroke="#E93A1D" stroke-width="1.5" stroke-linecap="round" stroke-linejoin="round" stroke-dasharray="2.0804,5.2011" d="
				M179.1603,206.8709c-12.5732,1.5356-23.2188-1.106-31.937-7.925"/>
			<path fill="none" stroke="#E93A1D" stroke-width="1.5" stroke-linecap="round" stroke-linejoin="round" d="M145.2291,197.2835
				c-0.2483-0.2202-0.4951-0.4443-0.74-0.6719"/>
			<g>
				<polygon fill="#E93A1D" points="148.4222,196.7935 144.8265,196.9005 144.9354,200.4962 143.3634,199.0159 143.2555,195.4212 
					146.8502,195.3133 				"/>
			</g>
		</g>
	</g>
	<rect x="187.0266" y="55.4238" fill="#E93A1D" width="24.2999" height="35.5233"/>
	<rect x="190.2666" y="126.7321" fill="#FFEFAF" width="63.1797" height="68.6891"/>
	<path fill="#E6E6E6" d="M220.5495,67.7417l-1.5997,42.6249h-10.3233v4.9804h47.1874c3.3112,0,6.1288,2.4124,6.6388,5.6841
		l0.7137,4.579h31.3198V67.7417H220.5495z"/>
</g>
</svg>
