<svg xmlns="http://www.w3.org/2000/svg" viewBox="0 0 17.2052 46.2286"><defs><style>.cls-1{fill:#303030;}</style></defs><title>DN_Arrow-Up</title><g id="Слой_2" data-name="Слой 2"><g id="Layer_2" data-name="Layer 2"><path class="cls-1" d="M10.3071,45.17c-.8621-1.8177-.63-3.9875-.6491-5.9484L9.6042,33.77,9.4966,22.8676,9.2812,1.0619a.7475.7475,0,0,0-1.4941,0L8.022,24.85l.1174,11.894c.0295,2.9843-.437,6.409.8775,9.18.4118.8683,1.7.1109,1.29-.7541Z" transform="translate(0 -0.0798)"/><path class="cls-1" d="M17.0888,12.844,12.0911,4.7848C11.3379,3.57,10.0875.0786,8.3867.08c-1.54.0011-2.2238,2.4433-2.66,3.5613C4.4381,6.9443,3.27,9.6991.3219,11.8671c-.7665.5638-.022,1.861.7541,1.29,3.416-2.5125,4.645-5.62,6.2144-9.4043.7026-1.6943,1.2867-1.8,2.2612-.2288l1.9991,3.2237,4.248,6.85c.5058.8156,1.7988.0662,1.29-.7541Z" transform="translate(0 -0.0798)"/></g></g></svg>