<svg xmlns="http://www.w3.org/2000/svg" viewBox="0 0 17.2052 46.2286"><defs><style>.cls-1{fill:#303030;}</style></defs><title>DN_Arrow-Down</title><g id="Слой_2" data-name="Слой 2"><g id="Layer_2" data-name="Layer 2"><path class="cls-1" d="M6.898,1.1382c.8621,1.8177.63,3.9875.6491,5.9484l.0538,5.4514.1077,10.9028.2153,21.8057a.7475.7475,0,0,0,1.4941,0l-.2349-23.788L9.0657,9.5645c-.0295-2.9843.437-6.409-.8775-9.18-.4118-.8683-1.7-.1109-1.29.7541Z"/><path class="cls-1" d="M.1164,33.4644,5.114,41.5236c.7533,1.2147,2.0037,4.7063,3.7045,4.705,1.54-.0011,2.2238-2.4433,2.66-3.5613,1.2886-3.3032,2.4572-6.058,5.4049-8.226.7665-.5638.022-1.861-.7541-1.29-3.416,2.5125-4.645,5.62-6.2144,9.4043-.7026,1.6943-1.2867,1.8-2.2612.2288L5.6545,39.5606l-4.248-6.85c-.5058-.8156-1.7988-.0662-1.29.7541Z"/></g></g></svg>