<svg xmlns="http://www.w3.org/2000/svg" viewBox="0 0 14.2054 15.7721"><defs><style>.cls-1{fill:#e93a1d;}</style></defs><title>DN_Chekbox-Marker</title><g id="Слой_2" data-name="Слой 2"><g id="Layer_2" data-name="Layer 2"><path class="cls-1" d="M14.1166,6.0847c-.0931-1.2644.1-5.3147-1.26-5.9191A3.579,3.579,0,0,0,11.0805.0578c-2.09.1867-4.19.1329-6.2852.2C3.5227.2992.1863-.0632.0377,1.8159A48.17,48.17,0,0,0,.4194,8.2015c.1209,2.153-.1931,4.2821.0963,6.4523a.7908.7908,0,0,0,.17.4642.81.81,0,0,0,.5267.1746c2.23.1875,4.494.4466,6.7329.4787,1.7.0243,3.5187-.47,5.244-.6139.24-.02.5257-.0717.6181-.2939a.6594.6594,0,0,0,.038-.19A49.9674,49.9674,0,0,0,14.1166,6.0847Z"/></g></g></svg>