<svg xmlns="http://www.w3.org/2000/svg" viewBox="0 0 22.4794 22.6911"><defs><style>.cls-1{fill:#303030;}</style></defs><title>DN_Chekbox-Nonactive</title><g id="Слой_2" data-name="Слой 2"><g id="Layer_2" data-name="Layer 2"><path class="cls-1" d="M.2827.5938c-.4445.67-.2147,1.935-.2436,2.671C-.0408,5.3028.0153,7.3276.087,9.3668a39.355,39.355,0,0,0,.5466,6.3C1.1,18.035.2858,20.0425,1.54,22.259a.8746.8746,0,0,0,.7533.4321q9.6543-.0349,19.3086-.059a.8812.8812,0,0,0,.7533-1.3127c-1.1577-2.08-.519-3.62-.11-5.7329a14.9006,14.9006,0,0,0,.1306-4.4235C22.0087,7.6963,20.9085,4.3842,21.0082.8661a.87.87,0,0,0-.8591-.8591q-5.09-.011-10.18-.0044C7.75.0059,5.531.0083,3.312.0307a6.3275,6.3275,0,0,0-1.8939.098c-.3.1051-1.1544.4494-.6247.37-.6169.0923-.3548,1.03.2586.9379-.6507.0974.0583.2264.5738.3394a9.4832,9.4832,0,0,0,2.0395.005c2.1845-.0239,4.3692-.0318,6.5537-.0393q4.965-.0172,9.93-.0167L19.29.8661c-.107,4.0838,1.4825,7.931,1.5066,11.9849.0208,3.4869-1.7983,6.0291.0516,9.3489l.7533-1.3127q-5.6758.0207-11.3516.0362-2.861.0077-5.7221.016c-1.1777.0035-1.7966.3864-2.1142-1.2783a9.8419,9.8419,0,0,1,.2223-2.1852c.0743-1.7841-.6041-3.5208-.6959-5.3233-.0687-1.35-.1021-2.7032-.1453-4.0542C1.7489,6.66,1.7033,5.225,1.6221,3.7891c-.0307-.5426-.3226-2.0313-.0594-2.4471C2.0764.5306.8071-.1962.2827.5938Z"/></g></g></svg>