<svg xmlns="http://www.w3.org/2000/svg" viewBox="0 0 22.4794 22.6911"><defs><style>.cls-1{fill:#303030;}.cls-2{fill:#e93a1d;}</style></defs><title>DN_Chekbox-Active</title><g id="Слой_2" data-name="Слой 2"><g id="Layer_2" data-name="Layer 2"><path class="cls-1" d="M.2827.5938c-.4445.67-.2147,1.935-.2436,2.671C-.0408,5.3028.0153,7.3276.087,9.3668a39.355,39.355,0,0,0,.5466,6.3C1.1,18.035.2858,20.0425,1.54,22.259a.8746.8746,0,0,0,.7533.4321q9.6543-.0349,19.3086-.059a.8812.8812,0,0,0,.7533-1.3127c-1.1577-2.08-.519-3.62-.11-5.7329a14.9006,14.9006,0,0,0,.1306-4.4235C22.0087,7.6963,20.9085,4.3842,21.0082.8661a.87.87,0,0,0-.8591-.8591q-5.09-.011-10.18-.0044C7.75.0059,5.531.0083,3.312.0307a6.3275,6.3275,0,0,0-1.8939.098c-.3.1051-1.1544.4494-.6247.37-.6169.0923-.3548,1.03.2586.9379-.6507.0974.0583.2264.5738.3394a9.4832,9.4832,0,0,0,2.0395.005c2.1845-.0239,4.3692-.0318,6.5537-.0393q4.965-.0172,9.93-.0167L19.29.8661c-.107,4.0838,1.4825,7.931,1.5066,11.9849.0208,3.4869-1.7983,6.0291.0516,9.3489l.7533-1.3127q-5.6758.0207-11.3516.0362-2.861.0077-5.7221.016c-1.1777.0035-1.7966.3864-2.1142-1.2783a9.8419,9.8419,0,0,1,.2223-2.1852c.0743-1.7841-.6041-3.5208-.6959-5.3233-.0687-1.35-.1021-2.7032-.1453-4.0542C1.7489,6.66,1.7033,5.225,1.6221,3.7891c-.0307-.5426-.3226-2.0313-.0594-2.4471C2.0764.5306.8071-.1962.2827.5938Z"/><path class="cls-2" d="M18.1534,9.6765c-.0931-1.2644.1-5.3147-1.26-5.9191A3.579,3.579,0,0,0,15.1174,3.65c-2.09.1867-4.19.1329-6.2852.2-1.2726.041-4.609-.3214-4.7576,1.5577a48.17,48.17,0,0,0,.3817,6.3856c.1209,2.153-.1931,4.2821.0963,6.4523a.7908.7908,0,0,0,.17.4642.81.81,0,0,0,.5267.1746c2.23.1875,4.494.4466,6.7329.4787,1.7.0243,3.5187-.47,5.244-.6139.24-.02.5257-.0717.6181-.2939a.6594.6594,0,0,0,.038-.19A49.9674,49.9674,0,0,0,18.1534,9.6765Z"/></g></g></svg>