<?xml version="1.0" encoding="utf-8"?>
<!-- Generator: Adobe Illustrator 20.1.0, SVG Export Plug-In . SVG Version: 6.00 Build 0)  -->
<svg version="1.1" xmlns="http://www.w3.org/2000/svg" xmlns:xlink="http://www.w3.org/1999/xlink" x="0px" y="0px"
	 viewBox="0 0 860 400" style="enable-background:new 0 0 860 400;" xml:space="preserve">
<style type="text/css">
	.st0{fill:none;stroke:#F7FAFC;stroke-width:39.9968;stroke-linecap:round;stroke-linejoin:round;}
	.st1{fill:none;stroke:#F2F6F9;stroke-width:39.9968;stroke-linecap:round;stroke-linejoin:round;}
	.st2{fill:#F7FAFC;}
	.st3{fill:#F2F6F9;}
	.st4{fill:#FFFFFF;}
	.st5{fill:#FCE0DE;}
	.st6{fill:#E6E6E6;}
	.st7{fill:#FFEFAF;}
	.st8{fill:#E93A1D;}
	.st9{fill:#303030;}
	.st10{fill:#E83D25;}
	.st11{fill:#B3B3B3;}
	.st12{fill:#666666;}
	.st13{fill:none;stroke:#E93A1D;stroke-width:1.5;stroke-linecap:round;stroke-linejoin:round;}
	.st14{fill:none;stroke:#E93A1D;stroke-width:1.5;stroke-linecap:round;stroke-linejoin:round;stroke-dasharray:2.0259,5.0648;}
	.st15{fill:none;stroke:#E93A1D;stroke-width:1.5;stroke-linecap:round;stroke-linejoin:round;stroke-dasharray:1.8929,4.7321;}
	.st16{fill:#777777;}
	.st17{fill:#172DF8;}
	.st18{fill:none;stroke:#E93A1D;stroke-width:1.5;stroke-linecap:round;stroke-linejoin:round;stroke-dasharray:1.9198,4.7994;}
	.st19{fill:none;stroke:#E93A1D;stroke-width:1.5;stroke-linecap:round;stroke-linejoin:round;stroke-dasharray:1.9197,4.7993;}
</style>
<g id="back">
	<g>
		<path class="st2" d="M533.8237,323.6636c-0.7539,0-1.5151-0.0303-2.2837-0.0928c-6.6553-0.5342-13.6802-3.5264-21.332-8.7422
			c-0.8887,1.1367-1.8965,2.1992-3.0195,3.1748c-4.9736,4.3242-11.3779,6.2334-18.0298,5.3818
			c-1.3896-0.1787-2.7808-0.4805-4.1797-0.9053c-2.6826,0.582-5.4961,0.6816-8.3506,0.2676
			c-5.666-0.8184-11.3306-3.7188-17.2773-8.6094c-3.2725-1.2031-6.6562-2.9404-10.1802-5.1875
			c-0.9839,1.3516-2.1318,2.6045-3.4355,3.7373c-4.6694,4.0596-14.8433,9.7168-30.5249,2.0186
			c-1.6689-0.8193-3.396-1.7881-5.1895-2.9131c-1.1538,1.8672-2.604,3.5742-4.3301,5.0742
			c-4.7979,4.1699-11.0386,6.166-17.5811,5.6045c-8.9854-0.7646-18.373-6.2803-29.2949-16.1611
			c-4.4341,3.3398-9.9473,4.9102-15.6816,4.4355c-4.4829-0.3691-9.0137-1.9551-13.7661-4.7041
			c-0.0591,0.0527-0.1187,0.1045-0.1787,0.1562c-4.5044,3.915-10.3608,5.8076-16.4844,5.3301
			c-6.604-0.5146-13.2959-3.7197-20.6851-9.4297c-3.9312,2.6406-8.6665,3.8789-13.5747,3.4961
			c-2.2329-0.1709-4.4741-0.6748-6.75-1.5029c-0.3164,0.3115-0.6436,0.6152-0.9829,0.9092
			c-3.3149,2.8818-12.5308,8.8633-26.4673,2.1982c-5.0239-2.4033-10.4175-6.2637-16.9644-12.1426
			c-3.3545,2.752-11.6826,7.6533-24.0649,2.1846c-4.4346-1.958-9.188-5.1006-14.959-9.8896
			c-6.2983-5.2275-13.3013-12.0371-20.4053-19.2129c-6.5522,4.0615-15.2656,2.8887-20.4858-3.1162
			c-1.9805-2.2783-3.2017-4.9561-3.6855-7.7266c-3.2153-3.3438-9.3999-8.7412-13.4189-12.249
			c-15.6533-13.6611-24.2764-21.1865-24.2661-31.9609c0.0049-5.0615,2.186-9.8584,5.9839-13.1602
			c2.7314-2.374,9.813-7.0684,20.4971-3.9883c1.1152-2.2227,2.6641-4.2344,4.5918-5.9102c3.251-2.8252,12.1577-8.627,25.6318-2.7139
			c0.8555-1.1396,1.8428-2.2002,2.9546-3.167c4.3042-3.7412,9.896-5.5596,15.7373-5.1084c2.082,0.1592,4.1699,0.6035,6.2861,1.3281
			c0.3477-0.3457,0.709-0.6816,1.0845-1.0078c4.3813-3.8096,10.0723-5.6592,16.0298-5.1865
			c0.2485,0.0195,0.4976,0.043,0.7466,0.0703c1.1475-1.9336,2.6191-3.6982,4.3906-5.2373c4.2798-3.7217,9.751-5.6543,15.5244-5.4805
			c1.2656-2.585,3.0596-4.9199,5.3345-6.8975c4.8755-4.2383,11.2251-6.2617,17.8691-5.6953
			c5.8066,0.4941,11.7656,2.9111,18.166,7.1494c0.1553-0.1426,0.312-0.2822,0.4717-0.4209
			c2.9214-2.5391,8.0049-5.7061,15.2476-5.8076c-0.0176-0.3516-0.0273-0.7012-0.0298-1.0508
			c-0.042-6.6807,2.6772-12.7432,7.6572-17.0723c5.0229-4.3672,11.3203-6.3818,18.2012-5.831
			c6.5283,0.5234,13.3394,3.4092,20.7905,8.5273c0.894-1.1416,1.9072-2.209,3.0352-3.1895
			c5.103-4.4365,11.6426-6.3408,18.418-5.3603c4.3154,0.623,8.6289,2.459,13.0703,5.4687c1.9453-0.2939,3.9619-0.3604,6.0303-0.1943
			c8.917,0.7158,18.3779,5.8789,29.3037,15.1543c0.6919-0.7822,1.4424-1.5264,2.25-2.2285
			c3.3608-2.9219,7.4053-4.8086,11.7671-5.5459c0.7837-5.2656,3.3521-9.9766,7.4302-13.5215
			c5.0234-4.3682,11.333-6.4102,18.2466-5.9014c7.3804,0.54,15.1733,4.042,23.8687,10.3154
			c1.2407-2.1553,2.8535-4.1152,4.8081-5.8144c5.1885-4.5107,11.7026-6.6069,18.8208-6.0547
			c8.4141,0.6484,17.436,5.1855,27.5767,13.1426c0.9131-1.1865,1.9556-2.293,3.1216-3.3066
			c5.1953-4.5156,11.9282-6.5859,18.9531-5.8418c4.5488,0.4844,9.1709,2.125,13.9888,4.8828
			c4.208-2.3281,9.0483-3.2187,14.0195-2.5215c2.5786,0.3604,5.1367,1.1377,7.7095,2.332c3.1226,0.1846,6.6011,0.9229,10.4434,2.457
			c1.2183-4.0312,3.5513-7.6387,6.8628-10.5176c3.9341-3.4199,11.8604-8.0034,23.9219-4.6362
			c-0.0088-0.2222-0.0146-0.4424-0.0171-0.6636c-0.0879-6.9619,2.7393-13.2954,7.9609-17.8345
			c3.5439-3.0811,10.2695-7.0991,20.3125-5.6455c-0.7686-2.5986-1.1489-5.1196-1.1631-7.6133
			c-0.0366-6.6812,2.6816-12.7417,7.6548-17.0645c4.2896-3.729,9.626-5.7427,15.2935-5.8252
			c4.9082-4.0127,11.1235-5.7881,17.5811-5.0068c4.3867,0.5308,8.7705,2.1812,13.373,5.0459
			c1.5596-0.1689,3.1558-0.1729,4.771-0.0078c11.0688,1.1362,21.873,9.939,36.0278,26.377
			c4.7114-0.1987,9.4575,1.6567,12.7881,5.4878c3.2998,3.7959,4.4927,8.7061,3.6777,13.3008
			c5.8955,7.2305,22.6733,20.9697,33.2217,29.6084c29.8638,24.4551,45.4575,37.916,45.6782,52.9258
			c0.0459,3.1211-0.5845,6.0986-1.8291,8.7949c7.7563,9.623,11.3096,17.4043,11.3311,24.9512
			c0.0098,3.4414-0.7378,6.7109-2.1685,9.6445c0.606,2.2832,0.9014,4.4961,0.9004,6.6709
			c-0.0029,6.4609-2.6406,12.3115-7.4268,16.4717c-5.1587,4.4854-11.8174,6.5029-18.7612,5.6797
			c-1.6465-0.1953-3.3022-0.5508-4.9712-1.0635c-5.0786,2.4541-12.5249,3.8223-22.415,0.0537
			c-0.2451,6.4707-3.0381,12.3232-7.9473,16.5908c-4.6694,4.0596-14.9009,9.7529-30.9585,2.2646
			c-1.019-0.4746-2.061-1.002-3.1265-1.582c-1.1216,4.4756-3.5771,8.4814-7.1919,11.624
			c-3.7583,3.2656-11.1187,7.5859-22.104,5.1074c0.2812,1.5098,0.4263,2.9951,0.4351,4.4688
			c0.041,6.6826-2.6787,12.7461-7.6577,17.0742c-5.0996,4.4326-11.709,6.4727-18.6064,5.7354
			c-7.7944-0.8311-15.8413-5.1816-24.7651-12.832c-3.6826,1.6016-7.7617,2.2617-12.0684,1.9297
			c-6.8843-0.5303-14.0903-3.6436-22.0293-9.1914c-1.1685,1.8564-2.623,3.5547-4.3438,5.0498
			c-5.1045,4.4375-11.5151,6.5068-18.5454,5.9971c-4.4888-0.3291-9.1719-1.7812-14.127-4.2842
			c-1.2944,3.3896-3.4082,6.4229-6.25,8.8926c-4.8618,4.2275-11.188,6.2305-17.8159,5.6475
			c-5.1157-0.4512-10.3804-2.4375-15.9897-5.8906c-0.3848,0.3848-0.7861,0.7578-1.2026,1.1201
			C545.708,321.5738,540.0386,323.6636,533.8237,323.6636z"/>
	</g>
	<g>
		<path class="st3" d="M660.2808,308.7701c-0.8896,0-1.7866-0.0306-2.6895-0.093c-7.29-0.5041-14.8433-3.0537-23.1558-7.5293
			c-3.0547,0.9717-6.3965,1.494-9.8608,1.5337c-4.543,2.0664-10.0083,2.9315-15.6523,2.4404
			c-6.6372-0.5743-13.1685-2.962-20.2256-7.1644c-0.6943,0.5437-1.457,1.0569-2.2856,1.537
			c-4.4429,2.5724-10.209,3.8056-16.2476,3.4752c-11.1758-0.614-22.7534-6.65-37.7773-17.4724
			c-4.1616,1.4114-10.7173,2.4248-19.2808-0.0579c-3.0093-0.8722-6.1592-2.1334-9.7183-3.898
			c-6.6694,3.7269-16.6206,3.2183-22.3555-1.1747c-2.4824-1.9018-3.772-4.2232-3.9121-6.5589
			c-4.2319-3.0407-13.4365-8.2129-19.3428-11.532c-20.8262-11.7025-30.8408-17.6773-30.9282-25.5526
			c-0.04-3.5767,2.2495-6.9667,6.2808-9.3011c0.5498-0.3181,1.2817-0.7018,2.1885-1.0927
			c-0.6992-1.4472-1.0825-2.9003-1.1396-4.3826c-0.1548-3.9962,2.1167-7.6718,6.4199-10.4322
			c-4.3877-4.4502-6.4414-8.3469-6.4565-12.1662c-0.0171-4.2629,2.5957-8.1284,7.3564-10.8849
			c3.6704-2.1249,8.188-3.3718,13.0229-3.6307c0.7119-3.6482,3.3286-6.9163,7.5503-9.3606
			c5.1406-2.9763,11.7661-4.3035,18.6626-3.7396c5.0161,0.4111,10.0859,1.8297,15.3867,4.2161
			c1.3662-0.1516,2.772-0.2208,4.1802-0.2244c1.0659-0.9903,2.3184-1.9067,3.7471-2.7337c4.96-2.8713,11.4292-4.245,18.2095-3.8642
			c0.3975,0.0221,0.7949,0.0501,1.1943,0.0842c1.3174-2.5357,3.6177-4.8057,6.7896-6.6418
			c5.1001-2.9529,11.7368-4.3335,18.6821-3.8912c0.6455,0.0413,1.293,0.0979,1.9438,0.1704c1.3037-1.5122,3-2.8872,5.0576-4.0785
			c5.3179-3.0785,11.9692-4.4727,19.2295-4.0392c7.2212,0.4338,14.8677,2.8037,23.2466,6.917
			c0.397-0.2641,0.8101-0.5207,1.2393-0.7691c5.1016-2.9542,11.7021-4.3,18.583-3.7861c3.6851,0.2742,7.4165,1.0787,11.2593,2.3975
			c3.6709-1.1568,7.7773-1.6492,12.124-1.443c7.6465,0.3659,15.6694,2.952,24.7344,7.6019
			c0.7554-0.5932,1.5879-1.1545,2.4946-1.6794c4.647-2.6905,10.7114-4.0034,17.0815-3.6941
			c5.4941,0.266,11.1763,1.722,17.3203,4.3068c0.8652-0.7584,1.8569-1.4648,2.9692-2.1087
			c4.479-2.5929,10.2896-3.8261,16.354-3.4775c10.8359,0.626,21.8008,6.2643,35.7529,16.3511
			c2.7246-0.6501,5.6694-0.8976,8.6831-0.7093c0,0,0.0024,0.0003,0.0034,0.0003c6.5186-2.5676,15.0591-1.7536,20.2051,2.189
			c2.4263,1.8589,3.7134,4.1185,3.9009,6.4012c4.8862,3.9094,17.6973,11.6046,25.7754,16.4561
			c26.3911,15.8515,37.0962,22.6088,36.9854,30.7619c-0.043,3.1513-1.9141,6.1459-5.1768,8.3495
			c-0.6147,2.6928-2.436,5.1462-5.3076,7.128c2.3232,2.9802,3.4014,5.7263,3.4072,8.4776
			c0.0083,4.0697-2.4907,7.7609-7.0381,10.3932c-4.6465,2.6908-10.7075,4.0047-17.0786,3.6938
			c-5.3257-0.2576-10.8306-1.6352-16.7598-4.0749c-0.9155,0.7844-1.958,1.5175-3.1226,2.1913
			c-3.6841,2.1334-8.2534,3.4102-13.1626,3.7133c0.0088,0.1548,0.0146,0.3109,0.0171,0.4657
			c0.0762,4.6083-2.7349,8.7977-7.915,11.7968c-3.8813,2.2472-8.6328,3.5617-13.7144,3.8329
			c-0.7378,0.5704-1.5459,1.1109-2.4204,1.6176c-5.3174,3.0798-11.9653,4.4775-19.2314,4.0398
			c-1.9658-0.1184-3.9639-0.3799-5.999-0.7812c-1.353,1.7165-3.1948,3.2684-5.4844,4.5933
			c-5.3535,3.0999-12.0396,4.497-19.335,4.0261c-6.2002-0.3954-12.6899-2.2231-19.6641-5.3621
			c-3.4004,1.8023-7.4346,2.9406-11.7578,3.3412c-0.3076,4.2837-3.106,8.1498-7.9712,10.9668
			C671.7383,307.41,666.1816,308.7701,660.2808,308.7701z"/>
	</g>
	<g>
		<g>
			<path class="st4" d="M528.4854,182.0449c0.9765-1.4712,1.5786-3.095,2.8129-4.3941c1.2869-1.3544,2.8724-2.3514,4.5441-3.1647
				c1.2547-0.6104,12.3464-4.497,11.9925-2.1343c-0.3654,2.4392,2.4589,3.7103,3.9555,1.6676
				c5.6547-7.7181,16.4053-13.6449,25.1528-7.0015c1.2373,0.9397,3.1838-0.0666,3.5219-1.4328
				c0.9064-3.6631,7.0521-1.6198,9.3528-0.9624c3.9781,1.1367,8.8206,1.6208,11.6792-2.0712
				c1.1457-1.4797-0.3009-4.0487-2.187-2.8344c-3.916,2.5212-9.7652-1.2103-14.0486-1.3815
				c-4.026-0.161-8.7316,1.4957-9.4202,5.9748c1.174-0.4776,2.3479-0.9552,3.5219-1.4328
				c-4.8436-3.5917-11.408-4.2794-17.0787-2.4135c-6.0277,1.9834-10.5997,6.3104-14.2316,11.3708
				c1.3185,0.5559,2.637,1.1117,3.9555,1.6676c0.4739-3.389-1.8118-6.1235-5.2926-6.3326
				c-3.2852-0.1973-6.9725,1.2275-9.9949,2.4245c-4.5927,1.8189-12.0394,6.0966-10.5488,12.1481
				C526.4462,182.8551,527.9089,182.9135,528.4854,182.0449L528.4854,182.0449z"/>
		</g>
	</g>
	<g>
		<g>
			<path class="st4" d="M579.3292,203.0941c1.7333-2.2403,1.6091-5.5363,2.5859-8.1747c1.0508-2.8381,2.696-5.4906,4.7402-7.7179
				c2.0364-2.2189,4.4199-4.0721,7.1384-5.3833c0.9157-0.4417,6.3035-2.8339,6.9512-0.9525
				c1.116,3.2418,5.4501,1.8656,5.0074-1.3805c-0.6033-4.4241,4.6555-7.6683,7.8034-9.7894
				c3.4268-2.309,8.5722-4.7847,11.8226-0.8707c1.1532,1.3886,3.5242,0.8724,4.3492-0.5604
				c1.8513-3.2155,5.4823-4.2261,8.9985-4.1384c2.0681,0.0516,4.0792,0.4574,6.0898,0.9109
				c0.8049,0.1815,1.7004,0.2992,2.4759,0.5945c0.4562,0.0573,0.8412,0.2516,1.155,0.5827
				c-0.0615-0.1643-0.0723-0.3278-0.0325-0.4904c-1.4633,1.5315,0.0614,3.5424,1.9079,3.2775
				c2.7019-0.3876,3.7796-3.9281,2.4508-6.1251c-1.7604-2.9105-6.6826-3.3493-9.6539-3.8345
				c-6.7894-1.1087-14.4378-0.0766-18.1737,6.4274c1.4497-0.1868,2.8995-0.3736,4.3492-0.5604
				c-4.8872-5.8728-13.0783-3.659-18.5255,0.0194c-4.8606,3.2823-12.6479,9.0386-10.0242,15.9373
				c1.6691-0.4602,3.3383-0.9203,5.0074-1.3805c-3.1891-8.7278-15.2144-2.3441-19.7949,1.4627
				c-3.165,2.6304-5.7808,6.062-7.4941,9.8024c-1.4258,3.1128-3.8394,8.8412-1.6251,12.0228
				C577.3514,203.5102,578.653,203.9681,579.3292,203.0941L579.3292,203.0941z"/>
		</g>
	</g>
	<g>
		<g>
			<path class="st4" d="M636.767,194.7841c1.0768-8.1261,7.1247-15.5407,15.2232-17.4104
				c8.0097-1.8492,16.6694,2.2569,20.7769,9.239c1.4783,2.513,5.265,0.8232,4.6234-1.9492
				c-1.7662-7.6306,8.2994-12.9991,14.0575-15.0978c7.152-2.6067,15.6895-2.679,20.7427,3.8441
				c1.2479,1.6109,4.0992,0.6363,4.5106-1.1909c0.6763-3.0034,3.5377-4.5878,6.4717-4.7552
				c4.1489-0.2367,7.7296,2.215,11.6311,3.1546c1.9825,0.4775,4.0112-2.2415,2.1663-3.7215
				c-7.1432-5.7302-22.8278-7.9324-25.4738,3.8871c1.5035-0.397,3.0071-0.7939,4.5106-1.1909
				c-6.6022-8.5012-18.4883-8.3141-27.6074-4.5665c-8.3025,3.412-18.598,10.6255-15.8878,20.9817
				c1.5411-0.6497,3.0822-1.2994,4.6234-1.9491c-5.3242-8.899-16.2642-13.7709-26.4305-11.3475
				c-9.9851,2.3801-17.7014,11.8189-17.8442,22.0724C632.8246,197.3755,636.4478,197.1931,636.767,194.7841L636.767,194.7841z"/>
		</g>
	</g>
	<g>
		<g>
			<path class="st4" d="M722.1718,189.4571c4.607-5.3456,10.6447-9.0032,17.566-10.4506c7.184-1.5023,13.4397,0.2298,20.2092,2.4823
				c1.63,0.5424,3.199-1.8962,1.7559-3.0163c-6.229-4.8348-15.3153-5.2695-22.7811-3.7155
				c-7.7982,1.6231-14.985,5.9652-19.5353,12.5511C718.2504,188.9524,720.8557,190.9842,722.1718,189.4571L722.1718,189.4571z"/>
		</g>
	</g>
	<g>
		<g>
			<path class="st4" d="M653.1674,167.4698c3.5486-1.3777,6.4027-0.958,9.8163,0.4821c2.9624,1.2497,5.3947,0.2969,8.0975-1.0927
				c2.963-1.5234,6.0314-2.7059,9.2982-3.3913c3.6048-0.7563,7.068-0.5405,10.706-0.6503c2.4075-0.0727,3.1072-3.7816,0.5877-4.3429
				c-6.6479-1.4811-14.4883,0.4125-20.4844,3.369c-1.6094,0.7935-3.164,2.1802-4.8813,2.6952
				c-1.7679,0.5302-3.4141-0.789-5.0852-1.1687c-3.1926-0.7256-6.368-0.2313-9.2227,1.3295
				C650.5297,165.5033,651.538,168.1024,653.1674,167.4698L653.1674,167.4698z"/>
		</g>
	</g>
	<g>
		<g>
			<path class="st4" d="M453.6177,209.1505c0.7401-5.6511,2.444-11.6553,6.9534-15.4734
				c4.1212-3.4894,10.2534-4.2567,14.7313-1.0741c1.2412,0.8822,3.2412-0.0097,3.5538-1.4458
				c1.9762-9.0785,11.062-14.0808,19.9236-13.0312c2.3432,0.2775,2.6228-3.3239,0.5379-3.9746
				c-10.8649-3.3908-22.8428,4.9465-25.1271,15.7196c1.1846-0.4819,2.3692-0.9639,3.5538-1.4458
				c-5.8574-4.1158-13.972-3.1569-19.4983,1.077c-5.9504,4.5588-8.7451,12.3345-8.644,19.6483
				C449.6389,211.8141,453.2922,211.6356,453.6177,209.1505L453.6177,209.1505z"/>
		</g>
	</g>
	<g>
		<g>
			<path class="st4" d="M516.1819,205.0195c-1.188-0.0755,2.4102-4.9899,2.7414-5.4159c1.2363-1.5901,2.5655-3.1066,4.0048-4.5167
				c2.6722-2.6181,5.6789-4.8703,9.0322-6.542c7.3029-3.6405,16.2402-3.9094,23.4352,0.1189
				c2.2936,1.2841,4.3094-2.1667,2.0583-3.5213c-9.6424-5.8024-21.8157-4.2963-30.9531,1.7852
				c-4.3194,2.8749-7.9942,6.6248-10.9953,10.845c-1.3396,1.8837-3.3589,4.3717-3.1362,6.8381
				c0.1803,1.9954,1.8082,3.5013,3.8127,3.3306C518.0466,207.7826,518.0755,205.1398,516.1819,205.0195L516.1819,205.0195z"/>
		</g>
	</g>
	<g>
		<g>
			<path class="st5" d="M590.4374,158.606c3.943,1.9002,8.0513,2.0697,12.3244,1.4871c1.6826-0.2294,1.674-3.1485,0-3.3888
				c-1.0306-0.1479-2.0605-0.294-3.0936-0.4231c0.1768,1.3064,0.3536,2.6128,0.5304,3.9193
				c2.6174-0.3766,5.2287-0.7905,7.8411-1.2003c1.1779-0.1848,1.5814-1.5315,1.4296-2.5178
				c-0.5203,0.9089-0.4061,1.3145,0.3427,1.217c-0.3026-1.1462-0.6052-2.2924-0.9078-3.4385
				c-0.7258,0.9106-1.4578,1.5802-2.573,1.996c-2.1216,0.7911-1.8868,3.9888,0.5487,4.0547
				c2.0962,0.0568,3.8776-0.6823,5.3282-2.1882c1.8552-1.926-0.9618-4.7136-2.9235-2.9235
				c-1.5426,1.4076-3.0806,2.8182-4.6525,4.1931c-1.5786,1.3806,0.0887,4.1775,2.0532,3.5271
				c2.958-0.9794,5.8969-2.0147,8.8378-3.0438c-0.558-1.3236-1.116-2.6473-1.6741-3.9709c-2.7697,1.4833-5.5392,2.9667-8.3089,4.45
				c-1.061,0.5683-1.339,1.9888-0.7853,2.9948c0.5117,0.9295,1.1263,1.5429,2.054,2.046c-0.2621-0.9997-0.5243-1.9995-0.7864-2.9992
				c-0.7752,1.0804-1.5504,2.1608-2.3255,3.2412c-1.1243,1.5671,0.7391,3.7879,2.4834,3.2303
				c2.7423-0.8767,5.4536-1.8387,8.1241-2.9153c2.122-0.8555,5.0497-1.6067,6.7045-3.2492
				c4.1727-4.1416-3.9938-8.0168-6.5892-9.8342c-0.7507,1.2842-1.5013,2.5683-2.2519,3.8525
				c3.0513,2.0753,6.8557,3.9945,9.4204,6.6593c2.0231,2.102,5.3295-0.5744,3.9675-3.0612
				c-4.0485-7.3922-15.795-6.7024-22.4412-4.1667c-3.1353,1.1962-1.9616,5.7592,1.3976,5.0695
				c0.4789-0.09,0.9619-0.1256,1.4488-0.1067c2.4113-0.0393,2.8653-3.4708,0.5649-4.1741
				c-0.4836-0.1167-0.9456-0.2912-1.3857-0.5238c-0.4423,1.6328-0.8845,3.2656-1.3268,4.8985
				c3.5928-0.28,7.0683-1.4075,10.7116-1.0675c3.0432,0.284,5.21,1.7293,7.5745,3.527c0.6488-1.539,1.2977-3.0781,1.9465-4.6171
				c-1.7637-0.7117-3.3884-2.1175-4.9626-3.1704c-1.5546-1.0398-3.1091-2.0795-4.6637-3.1193
				c-2.4008-1.6057-4.598,2.2368-2.2519,3.8525c1.4657,1.0094,3.0748,2.6187,4.7221,3.2678
				c0.2623,0.1817,0.5245,0.3634,0.7868,0.5451c0.3566-0.8628,0.2933-1.1155-0.1896-0.7581
				c-0.5054-0.0818-1.8544,0.8571-2.3721,1.0812c-3.3014,1.4296-6.6817,2.6622-10.1038,3.7693
				c0.8278,1.0768,1.6556,2.1535,2.4833,3.2303c0.7712-1.0827,1.5424-2.1655,2.3135-3.2482
				c0.6707-0.9417,0.1863-2.4761-0.7864-2.9992c-0.1622-0.1566-0.3245-0.3133-0.4867-0.4699
				c-0.2617,0.9983-0.5235,1.9966-0.7853,2.9948c2.7642-1.4927,5.5283-2.9855,8.2924-4.4782
				c2.1277-1.149,0.6781-4.8031-1.6741-3.9709c-2.9401,1.0402-5.8824,2.0743-8.8047,3.1639
				c0.6844,1.1757,1.3688,2.3514,2.0532,3.5271c1.5096-1.4411,3.0519-2.8451,4.5916-4.254c-0.9745-0.9745-1.949-1.949-2.9235-2.9235
				c-0.7524,0.7833-1.3241,1.011-2.4047,0.9833c0.1829,1.3516,0.3658,2.7031,0.5488,4.0547c1.7708-0.6631,3.204-1.569,4.385-3.0675
				c0.8594-1.0905,0.7786-3.1217-0.9078-3.4385c-2.7722-0.5208-5.9147,0.512-5.3839,3.8388
				c0.4766-0.8393,0.9531-1.6785,1.4296-2.5178c-2.6063,0.4236-5.2129,0.8429-7.8137,1.2997
				c-2.2256,0.3909-1.6935,3.9902,0.5305,3.9193c0.8764-0.028,1.7507-0.0719,2.6265-0.1158
				c-0.1557-1.1505-0.3115-2.301-0.4672-3.4516c-3.5198,0.9574-6.8687,0.3724-10.2463-0.8113
				C590.0086,155.3418,588.9182,157.8739,590.4374,158.606L590.4374,158.606z"/>
		</g>
	</g>
	<g>
		<g>
			<path class="st5" d="M613.0356,181.4789c1.4806-3.0296,4.1613-5.4614,7.3777-6.5244c1.5316-0.5062,3.1817-0.7279,4.7897-0.5326
				c1.4702,0.1786,2.8484,0.8747,4.3568,0.6793c2.9274-0.3792,3.7347-3.6867,6.5402-4.457
				c2.3217-0.6374,5.3784-0.0511,6.8698,1.9793c1.0245,1.3947,2.991,1.9421,4.3397,0.5592c2.48-2.5429,6.4131-1.3172,9.456-0.7571
				c3.8298,0.7048,7.5117,0.6215,11.3193-0.2066c7.8226-1.7013,15.6325-4.5202,22.8711-7.8577
				c2.078-0.9581,0.4917-3.7714-1.4508-3.4413c-4.4612,0.7581-8.6507,1.8225-12.9835,3.1329
				c-4.0114,1.2132-8.0865,2.7292-12.2649,3.2288c-7.0033,0.8373-15.0621-4.0726-20.8549,1.9934
				c1.4465,0.1864,2.8931,0.3728,4.3397,0.5592c-2.2771-3.0329-5.5754-4.8124-9.4286-4.7234
				c-1.8135,0.0419-3.6364,0.4713-5.2552,1.2941c-0.862,0.4381-1.6974,1.0204-2.4025,1.6843
				c-0.5793,0.5455-1.0994,1.7402-1.7207,2.1264c-0.9826,0.6109-3.9575-0.2919-5.422-0.1469
				c-1.9619,0.1944-3.8167,0.7374-5.5865,1.6016c-3.6713,1.7926-6.265,4.843-7.5035,8.7067
				C609.9348,181.8987,612.3181,182.9473,613.0356,181.4789L613.0356,181.4789z"/>
		</g>
	</g>
	<g>
		<g>
			<path class="st5" d="M704.1239,162.3544c2.1257-1.4482,4.3066-1.8563,6.7916-2.2745c1.7042-0.2868,1.6662-3.0863,0-3.4051
				c-3.2541-0.6227-6.5204,0.7433-8.8839,2.9679C700.6288,160.9631,702.4817,163.4731,704.1239,162.3544L704.1239,162.3544z"/>
		</g>
	</g>
	<path class="st2" d="M334.8349,331.6842c-4.4168,1.3784-5.2255,7.7444-3.2257,11.7356
		c2.8141,5.6161,17.6185,10.2942,23.6995,10.2284c4.7281-0.0512,3.9181,1.9651,6.4449-2.2578
		c2.47-4.128-3.0073-14.5544-5.7196-17.939C348.8986,324.5474,337.7897,317.627,334.8349,331.6842z"/>
	<path class="st2" d="M338.8027,367.8185c-2.2007-8.4352,8.6409-10.2234,13.0375-5.1346
		c11.688,13.5282-16.3661,19.9422-13.0375,4.3445C337.8178,369.0839,338.3495,365.3936,338.8027,367.8185z"/>
	<path class="st2" d="M350.5767,389.7935c6.1915,3.0759-1.2513,13.3063-7.8102,8.256c-3.541-2.7265-3.9174-8.5916,0.6989-9.8363
		C345.7004,387.6105,346.9277,387.9807,350.5767,389.7935z"/>
</g>
<g id="Layer_2">
	<g>
		<g>
			<path class="st8" d="M617.693,69.3897c3.066-13.115,10.485-23.48,20.692-30.573c-1.235-0.901-2.459-1.813-3.656-2.756
				c-2.173-1.712-4.342-3.684-6.601-5.561c-10.445,8.106-18.303,19.743-21.839,32.602c-0.303,1.101-0.57,2.212-0.822,3.327
				C609.489,67.5787,613.593,68.4786,617.693,69.3897z"/>
			<path class="st8" d="M610.66,119.8946c3.879-1.722,7.83-3.258,11.835-4.642c-1.755-2.484-3.147-5.267-4.031-8.423
				c-2.978-10.638-3.314-22.917-1.515-33.782c0.039-0.238,0.092-0.468,0.134-0.704c-4.096-0.907-8.204-1.779-12.233-2.904
				c-2.049,11.104-1.748,22.715,0,33.788C605.849,109.5517,607.773,115.0566,610.66,119.8946z"/>
			<path class="st8" d="M726.172,65.2337c-4.562-27.822-28.579-49.695-57.428-45.92c-1.58,0.207-2.544,1.253-2.865,2.428
				c-0.807-1.594-2.32-2.825-4.388-2.851c-11.281-0.14-21.859,3.532-30.783,9.715c1.061,0.882,2.09,1.771,3.082,2.634
				c2.345,2.039,4.824,3.938,7.361,5.773c6.403-3.902,13.749-6.618,21.706-8.027c2.496-0.442,3.628-2.342,3.676-4.376
				c0.495,0.516,1.224,0.873,2.21,0.92c20.813,0.983,37.728,15.258,43.653,34.95c5.637,18.736-0.052,37.871-13.561,51.774
				c-13.994,14.402-37.791,25.09-57.491,16.799c-6.406-2.696-12.43-6.271-16.842-11.251c-4.112,1.393-8.166,2.945-12.144,4.696
				c2.541,3.598,5.669,6.808,9.429,9.685c-2.186,2.809-3.685,6.34-5.367,9.39c-2.0588,3.7329-4.5922,7.4633-5.9036,11.5345
				c0.9081,0.1439,2.9847-0.2425,4.0406-0.2796c0.6242-0.0219,1.2509-0.0305,1.8737-0.0079
				c1.7034-2.7421,3.0465-5.7573,4.5312-8.592c1.553-2.966,3.6-6.055,4.782-9.287c0.226,0.144,0.44,0.294,0.67,0.436
				c13.078,8.124,27.025,10.924,42.146,7.653c11.753-2.543,22.754-8.1,32.113-15.59
				C719.339,112.5017,730.092,89.1366,726.172,65.2337z"/>
			<path class="st8" d="M689.5739,156.6605c0.0516,0.0081,0.1008,0.0093,0.1542,0.0225c1.204,0.2994,2.4147,0.5866,3.6337,0.8242
				c0.0551-0.0099,0.1096-0.0088,0.1646-0.0139c-0.1246-1.061-0.236-2.1238-0.3135-3.1907c-0.3439-4.735,0.0051-9.473-0.9869-14.142
				c-0.594-2.793-4.661-1.997-4.791,0.6479c-0.234,4.765,1.054,9.361,1.845,14.026
				C689.3831,155.4423,689.48,156.0512,689.5739,156.6605z"/>
			<path class="st8" d="M703.065,130.5616c0.506,4.56,1.1,9.124,2.03,13.618c0.362,1.748,3.256,1.378,3.137-0.425
				c-0.301-4.58-0.945-9.137-1.672-13.667C706.246,128.1296,702.843,128.5647,703.065,130.5616z"/>
			<path class="st8" d="M668.7283,60.1521c-0.4648,1.1279-1.0082,3.0299-1.7587,3.0909c-1.2706,0.1033,0.4464-3.9284,0.3671-4.684
				c-3.2338-0.4731-6.5255-0.8615-9.5734,0.7712c-1.5223,0.8154-2.8541,1.9543-4.0214,3.2188
				c-1.2067,1.3079-2.5483,2.9008-3.0606,4.6192c2.0845,1.2925,3.8268,2.973,5.8716,4.2765
				c1.1227,0.7157,2.3165,2.0719,3.6026,2.3277c0.2053-1.0133,0.2265-2.0447,0.2642-3.0741
				c0.0234-0.6368-0.2064-2.3877,0.1746-2.8998c0.813-1.0925,1.2674,0.7907,1.7843,1.4746c0.8774-0.802,1.9912-1.7288,3.102-2.2314
				c0.6737-0.3049,1.4658-0.4764,2.2043-0.4339c0.9752,0.0562,2.7878,0.8403,3.5667,1.3928
				c1.0426,0.7397,1.762,2.2274,2.2717,3.3548c1.1049,2.4433,1.6929,5.1943,1.8541,7.8655
				c0.1723,2.8555-0.1041,5.7651-0.8706,8.5235c-0.3278,1.1796-0.7748,2.3395-1.0515,3.5294
				c-0.318,1.3674-0.0901,2.8038,0.0313,4.1813c0.1461,1.6558,0.855,4.0974,0.2834,5.7205
				c-1.1397-0.3246-1.6208-3.4942-2.0163-4.6066c-0.2164-0.6088-2.951,1.5773-3.2787,1.7346c0.129,0.166,0.231,0.375,0.289,0.638
				c0.103,0.462,0.205,0.923,0.308,1.385c0.044,0.198,0.049,0.387,0.026,0.564c0.427,2.237,0.93,4.392,0.798,6.63
				c10.354-2.733,15.733-14.424,16.176-24.768c0.0771-1.8007-0.0488-3.6093-0.3055-5.3919
				c-0.7685-5.3378-2.6937-11.1585-6.6186-15.0291c-1.4819-1.4614-3.3233-2.5021-5.3516-2.979
				c-1.3109-0.3083-3.6234-1.1446-4.6971,0.0959C668.9797,59.5866,668.857,59.8396,668.7283,60.1521z"/>
			<path class="st8" d="M654.47,95.0967c0.905-1.71,1.895-2.359,3.42-3.203c-0.1371,0.0759-0.8432-2.7133-1.0035-2.8785
				c-0.5106-0.5257-0.9991,0.1384-1.5629-0.1777c-0.7588-0.4255,1.6139-5.8127,1.2284-5.8218c-1.94-0.046-3.829-0.103-5.739,0.429
				c-1.772,0.494-3.371,1.088-5.233,1.127c-0.146,0.003-0.283-0.02-0.413-0.055c-0.071,5.506,1.611,11.14,4.77,15.524
				C651.864,98.5346,653.191,97.5147,654.47,95.0967z"/>
			<path class="st8" d="M629.492,72.3227c3.236,0.965,6.382,1.822,9.613,2.5c1.336-5.219,3.55-10.124,6.538-14.028
				c3.147-4.111,7.36-7.17,12.148-8.938c-0.263,0.005-0.544-0.074-0.828-0.277c-3.475-2.476-7.063-4.841-10.629-7.237
				c-2.156,1.35-4.183,2.915-6.038,4.688c-6.204,5.93-10.45,14.047-12.676,22.755C628.246,71.9587,628.87,72.1377,629.492,72.3227z"
				/>
			<path class="st8" d="M634.258,111.6207c4.899-1.348,9.848-2.536,14.819-3.613c-4.237-2.376-8.055-5.645-9.607-10.168
				c-2.059-6.004-2.302-13.123-1.044-19.937c-3.873-0.745-7.588-1.991-11.381-3.096c-0.034-0.01-0.068-0.019-0.102-0.029
				c-1.713,8.583-1.508,17.557,0.763,25.482C628.931,104.5326,631.238,108.3516,634.258,111.6207z"/>
			<path class="st8" d="M681.5541,41.1613c-2.322-0.8406-4.8348-1.3828-7.1006-1.8586c-3.9234-0.824-8.0377-1.1109-11.9614-0.64
				c-4.6,0.552-9.069,1.908-13.171,3.993c2.918,1.954,5.836,3.898,8.677,5.906c0.522-0.892,1.564-1.157,2.432-0.42
				c0.781,0.663,1.174,1.607,2.014,2.22c0.089,0.065,0.189,0.112,0.284,0.166c0.23-0.037,0.462-0.076,0.689-0.104
				c-0.134-0.768-0.198-1.62-0.296-2.23c-0.181-1.125-0.292-2.242-0.287-3.382c0.009-1.816,2.455-1.987,3.021-0.409
				c0.6697,1.8672,1.8947,5.4523,3.7172,6.1689c1.2086,0.4752,1.8664-0.0757,2.7091-0.859c1.0696-0.9943,1.527-1.7013,2.8961-2.3149
				c0.2916-0.1307-0.5735,2.6503-0.4951,2.8229c0.2754,0.6064,1.7989,0.7782,2.3333,0.9835
				c1.0943,0.4203,2.1417,0.9544,3.2449,1.3531c9.1793,3.3175,12.225,16.3849,12.0535,25.0485
				c-0.248,12.48-6.575,26.137-17.98,32.08c-2.212,1.153-4.506,1.93-6.836,2.344c-0.009,0.531-0.231,1.084-0.671,1.423
				c-3.343,2.578-7.394,1.887-11.284,1.444c-1.087-0.124-2.099,0.05-2.82-0.914c-0.667-0.892-0.86-2.228-1.228-3.357
				c-4.923,1.042-9.83,2.183-14.69,3.478c9.858,8.657,25.063,12.344,36.905,8.393c17.787-5.935,28.256-24.015,29.488-42.064
				c0.5828-8.5209-1.6768-17.5697-5.7283-25.046c-1.4194-2.6192-3.1235-5.105-5.1873-7.2604
				c-2.0527-2.1438-4.4114-3.4626-6.844-5.076C684.2758,42.2793,682.9494,41.6664,681.5541,41.1613z"/>
		</g>
		<path class="st7" d="M669.6455,103.95c1.1205-2.5736-2.4592-4.3395-4.1877-2.0921c-0.1207,0.1569-0.2321,0.308-0.3476,0.4621
			c-1.2468,0.2852-2.4467,0.8322-3.6882,1.2264c-2.4253,0.7702-4.9167,1.2634-7.4405,1.5682
			c-1.1998,0.1449-2.3304,1.1503-1.9005,2.4948c0.0883,0.2762,0.189,0.6064,0.3033,0.9621
			c-0.3811,0.2912-0.7149,0.6569-0.9641,1.1586c-0.3682,0.7416-0.4928,1.6807,0,2.4131c2.7375,4.0687,8.179,2.8597,12.3494,2.3018
			c1.9616-0.2624,4.0945-0.4434,5.1786-2.353c1.1799-2.0784,0.8845-5.3004,0.7841-7.5829
			C669.7236,104.3089,669.6906,104.125,669.6455,103.95z"/>
		<path class="st7" d="M121.1118,194.912c-1.0111-1.5928-2.304-2.9865-3.5663-4.3882c0.6869-0.624,0.8358-1.8892,0.1785-2.7007
			c-0.2339-0.2957-0.4745-0.5859-0.7217-0.8705c-0.3984-0.4694-0.9364-0.5933-1.4515-0.4939
			c-0.8941-0.8809-1.5641-2.1116-2.4826-2.8937c-1.1449-0.9747-2.4273-1.5283-3.9434-1.3825
			c-1.3827,0.1329-2.4589,1.8807-1.2346,2.9805c2.3433,2.1049,3.3726,4.8409,3.0688,7.9684
			c-0.1706,1.7565,2.1866,2.1763,3.1086,1.0063c0.6761,0.3903,1.5409,0.3035,2.0785-0.2176c0.8824,0.9454,1.788,1.8707,2.806,2.6581
			C120.0832,197.4529,122.027,196.3534,121.1118,194.912z"/>
		<path class="st7" d="M601.2677,63.9622c-2.2043-0.2881-4.3953-0.6413-6.5823-1.0221c-0.4526-0.5131-0.8953-1.0333-1.3267-1.562
			c0.5809,0.1105,1.2178-0.1789,1.493-0.6422c0.587,0.3461,1.1862,0.59,1.8023,0.6521c0.4108,0.0414,0.8892-0.2631,1.0766-0.6176
			c0.0801-0.1516,0.1381-0.3102,0.1985-0.4681c0.5261,0.5965,1.0508,1.1943,1.5792,1.7889
			c1.0632,1.1965,2.7922-0.5558,1.7512-1.7512c-1.0294-1.1821-2.0645-2.3589-3.0996-3.536c-0.605-0.688-1.8925-0.3401-2.0834,0.55
			c-0.4142,1.9308-1.3536-0.3977-2.4828-1.3092c-0.9857-0.7957-2.0354-1.4335-3.1462-2.035
			c-0.5557-0.3009-1.2527-0.063-1.6389,0.3829c-0.3802-0.3275-0.7605-0.6551-1.1407-0.9826
			c-1.0179-0.8768-2.7725,0.248-1.9631,1.5146c1.6613,2.5997,3.3876,5.129,5.2934,7.5231
			c-0.0117,0.0039-0.0231,0.0082-0.0346,0.0124c-0.1914-0.0399-0.3963-0.0411-0.6118,0.054
			c-3.09,1.3635-6.2205,2.6125-9.3582,3.8599c-1.0176,0.4045-0.617,2.0491,0.4631,1.6799c0.5245-0.1792,1.044-0.3708,1.5649-0.5589
			c0.0804,0.555,0.5315,1.0343,1.2092,0.7976c0.4359-0.1522,0.8711-0.3059,1.3069-0.4583c0.0345,0.5509,0.4257,1.0598,1.1811,1.1089
			c2.3188,0.1507,4.9194,0.6986,7.2167,0.3298c2.5584-0.4107,5.253-1.9188,7.6645-2.8574
			C602.9578,65.8874,602.6734,64.146,601.2677,63.9622z"/>
		<path class="st7" d="M620.132,16.6942c0.0109-0.7571-0.0155-1.5137-0.0859-2.2903c-0.0547-0.603-0.444-1.0898-0.951-1.2507
			c-0.321-0.5605-0.7695-0.9851-1.3908-1.1847c-2.0405-2.7447-5.1136-5.0322-7.4964-7.3177
			c-0.6642-0.637-1.8937-0.3936-2.1183,0.5593c-0.3791,1.6085-0.5472,3.1633-0.2601,4.8118
			c0.1022,0.5874,1.3136,3.5309,1.3396,4.8012c-1.6933,0.1794-3.4235,0.068-5.0988-0.1782
			c-1.5731-0.2311-2.3231,1.8422-0.9434,2.484c0.0492,0.2123,0.1469,0.4097,0.2965,0.5597c1.3099,1.3128,2.766,1.6932,4.575,1.9743
			c2.8001,0.435,5.3274,1.4338,7.9766,2.4044c0.1979,0.0725,0.3795,0.0565,0.55,0.0083c0.3071,0.136,0.618,0.2612,0.9241,0.4003
			c0.7998,0.3634,2.1494-0.0389,2.0102-1.1536l-0.0004-0.0018c0.2689-0.1974,0.5291-0.4747,0.7753-0.8669
			C620.8087,19.5387,620.5917,18.0907,620.132,16.6942z"/>
		<path class="st7" d="M600.3831,123.7885c-0.8331-1.2969-2.9493-1.1442-4.2401-1.1483c-0.3406-0.0011-0.682,0.0082-1.023,0.0118
			c-0.176-0.1008-0.3773-0.1765-0.6282-0.1907c-3.8635-0.2179-7.715-0.2269-11.5793-0.0279
			c-1.0486,0.054-1.5267,1.0446-1.1198,1.9515c0.103,0.2296,0.2258,0.4366,0.3505,0.6414
			c-0.0145,0.5621,0.3157,1.1504,0.9389,1.3963c0.1539,0.0607,0.3209,0.1158,0.4791,0.1746
			c1.0906,0.8309,2.4534,1.3056,3.8986,1.5609c0.1383,0.0244,0.2786,0.0389,0.4176,0.0598c0.347,0.1578,0.6959,0.3142,1.015,0.4976
			c0.6672,0.3835,1.0949,0.8633,1.4574,1.3633c-0.9082,0.8757-1.5908,1.8756-1.8307,3.0317
			c-0.042,0.2023-0.0092,0.4048,0.0538,0.5991c-0.1303,0.2021-0.2653,0.3995-0.3932,0.6041
			c-0.0225,0.0359-0.0279,0.0731-0.046,0.1094c-0.6804,0.4388-1.296,0.9162-1.7794,1.4742
			c-0.8027,0.9267,0.4278,2.1737,1.3494,1.3494c0.4733-0.3885,0.9871-0.7404,1.5226-1.0724
			c0.1177,0.0065,0.2382-0.0013,0.3596-0.0313c2.0237-0.5005,4.8834-0.9156,6.5078-2.3422
			c1.7201-1.5105,2.2171-4.2324,3.8352-5.9938c0.4698-0.5115,0.4496-1.1306,0.1044-1.6166
			C600.5148,125.4013,600.9739,124.7084,600.3831,123.7885z"/>
		<path class="st7" d="M657.5732,77.8894c-1.9887-0.5073-4.0853-0.7489-6.1328-1.5233c-0.8812-0.3333-13.01-5.8008-10.4664-0.7899
			c0.3871,0.7627,1.0569,1.1057,1.7979,1.158c1.5805,0.7343,3.2538,1.4535,4.9484,1.8235
			c-0.1576,0.3926-0.1833,0.8177-0.0817,1.2349c-1.4291,0.3912-2.8297,0.8821-3.9556,1.7322
			c-0.9619,0.7263-1.1542,2.7184,0.3873,2.9637c2.9109,0.4633,6.0182-0.6262,8.8568-1.2676c0.1622-0.0367,0.301-0.076,0.4531-0.1136
			c1.0445,1.1705,3.2278,1.3131,3.5493-0.6475c0.0339-0.2065,0.0491-0.3794,0.0745-0.5546c-0.0015-0.0147-0.0024-0.03-0.0038-0.0447
			c0.0232-0.2682,1.6826-3.6513,1.6298-3.6683C658.2819,78.0795,657.9293,77.9802,657.5732,77.8894z"/>
		<path class="st7" d="M666.786,54.8513c-1.372-0.9276-2.6989-1.9248-3.8354-3.1318c-0.5638-0.5986-2.1555-3.6295-2.8922-3.6764
			c-0.929-0.0591-2.697,2.4094-3.2467,3.1566c0.7382,0.8307,1.9433,1.4852,2.8672,2.1205c1.1069,0.7611,0.5792,1.0027-0.4758,1.6407
			c-1.3403,0.8105-4.3212,1.8341-4.9161,3.3358c1.2328-0.0537,2.4869-0.6729,3.7285-0.4668
			c1.0767,0.1787,1.9464,0.3318,3.0932,0.3414c1.6998,0.0142,3.3945,0.0964,5.0897,0.2193
			c1.2858,0.0932,1.8315-1.4473,2.4098-2.3452C668.0002,55.6529,667.3888,55.2588,666.786,54.8513z"/>
		<g>
			<g>
				<path class="st9" d="M719.916,47.1297c-5.372-11.112-14.754-20.705-26.049-25.786c-11.083-4.986-23.551-5.529-35.412-3.574
					c-3.486,0.574-6.925,1.362-10.332,2.294c-0.574,0.157-0.332,1.04,0.246,0.893c11.961-3.055,24.673-4.533,36.795-1.481
					c11.733,2.954,21.573,10.192,28.735,19.848c15.825,21.335,12.554,51.607-1.324,73.039c-13.688,21.137-40.508,33.263-65.4,28.26
					c-12.3778-2.4879-24.0429-9.2969-31.8248-19.3066c-0.2336,0.2541-0.5461,0.4359-0.8843,0.4988
					c5.8643,7.593,13.8576,13.4395,22.8732,17.0148c24.166,9.584,53.055,1.07,70.139-17.985
					C724.697,101.6386,731.3669,70.8186,719.916,47.1297z"/>
				<path class="st9" d="M606.1899,76.0866c0.4323-1.9868,0.9282-3.9571,1.4859-5.9052c-0.2321,0.0106-0.4689,0.0029-0.7128-0.0344
					c-0.0849-0.0129-0.1617-0.041-0.2374-0.0707c-4.0811,13.9009-4.2095,28.4878,1.8663,41.9942
					c1.1521,2.5609,2.5294,4.9846,4.083,7.2754c0.2221-0.2634,0.5264-0.4594,0.8613-0.5381
					C605.1,106.3579,603.0233,90.6402,606.1899,76.0866z"/>
				<path class="st9" d="M631.1063,33.1491c-0.2684-0.1705-0.4741-0.4099-0.6035-0.6813c-2.6704,2.0404-5.1814,4.3031-7.4879,6.7909
					c-6.981,7.53-11.437,16.786-14.867,26.399c-0.1015,0.2845-0.19,0.5719-0.2883,0.8571c0.3193-0.0041,0.614,0.0969,0.8643,0.273
					c4.3475-13.199,11.7242-25.124,22.4499-33.5964C631.1513,33.1772,631.1287,33.1633,631.1063,33.1491z"/>
				<path class="st9" d="M653.624,21.5857c-7.4265,1.7314-14.4379,4.8202-20.6646,9.0953c0.0369,0.0229,0.0738,0.0457,0.1105,0.069
					c0.2441,0.155,0.4332,0.3688,0.5635,0.6101c3.153-2.2305,6.5571-4.1918,10.2515-5.8015c3.204-1.396,6.521-2.498,9.897-3.396
					C654.155,22.0627,653.998,21.4986,653.624,21.5857z"/>
			</g>
		</g>
		<g>
			<g>
				<path class="st9" d="M669.95,144.3406c20.414-1.696,38.521-13.775,49.553-30.832c11.641-17.997,13.896-40.677,6.928-60.862
					c-3.694-10.7-9.977-20.725-18.949-27.758c-0.429-0.336-1.044,0.254-0.61,0.61c15.667,12.889,23.298,33.786,22.498,53.77
					c-0.83,20.716-11.544,40.016-28.151,52.303c-9.097,6.73-19.956,11.226-31.269,12.25
					C669.62,143.8506,669.615,144.3686,669.95,144.3406L669.95,144.3406z"/>
			</g>
		</g>
		<g>
			<g>
				<path class="st9" d="M660.37,73.6627c-1.087,0.063-2.382-1.484-3.186-2.135c-1.104-0.893-2.209-1.784-3.315-2.675
					c-2.088-1.683-4.176-3.366-6.264-5.05c-0.448-0.361-1.013-0.021-0.929,0.541c0.526,3.488,1.055,6.975,1.588,10.461
					c0.228-0.228,0.456-0.456,0.684-0.684c-2.576-0.713-5.151-1.432-7.726-2.152c-0.304-0.085-0.558,0.107-0.666,0.378
					c-0.558,1.406-0.823,2.724-0.876,4.234c-0.008,0.213,0.171,0.484,0.395,0.519c2.585,0.409,5.097,1.031,7.573,1.876
					c-0.042-0.325-0.085-0.651-0.128-0.976c-2.544,1.957-4.537,4.291-6.023,7.141c-0.204,0.391,0.136,0.923,0.599,0.779
					c4.625-1.447,9.335-2.15,14.182-2.119c0.674,0.004,0.674-1.042,0-1.047c-4.932-0.033-9.754,0.683-14.464,2.144
					c0.2,0.26,0.399,0.519,0.599,0.779c1.398-2.667,3.256-4.918,5.647-6.754c0.364-0.28,0.337-0.817-0.128-0.976
					c-1.645-0.563-3.309-1.052-5.009-1.419c-0.706-0.153-1.764-0.051-2.136-0.788c-0.314-0.622,0.582-2.527,0.812-3.105
					c-0.222,0.126-0.444,0.252-0.666,0.378c2.574,0.724,5.147,1.449,7.718,2.179c0.446,0.127,0.744-0.283,0.684-0.684
					c-0.526-3.488-1.055-6.975-1.589-10.461c-0.31,0.18-0.619,0.36-0.929,0.541c2.954,2.37,5.906,4.743,8.862,7.11
					c1.052,0.843,3.281,3.644,4.848,2.553C660.766,74.0877,660.708,73.6426,660.37,73.6627L660.37,73.6627z"/>
			</g>
		</g>
		<g>
			<g>
				<path class="st9" d="M671.032,52.1377c-2.338-3.332-4.376-6.837-6.594-10.246c-0.218-0.335-0.809-0.32-0.904,0.118
					c-0.675,3.109-0.828,6.174-0.436,9.336c0.168-0.168,0.336-0.336,0.505-0.505c-2.046-0.126-2.596-3.507-4.686-4.087
					c-0.334-0.093-0.622,0.164-0.642,0.489c-0.095,1.528-2.384,2.146-2.122,3.776c0.26,1.615,3.248,2.827,4.401,3.613
					c0.041-0.312,0.081-0.623,0.122-0.935c-2.71,1.107-5.35,2.248-7.691,4.04c-0.396,0.303-0.275,0.907,0.256,0.945
					c4.388,0.32,8.778,0.573,13.175,0.726c0.671,0.023,0.671-1.022,0-1.043c-4.397-0.14-8.789-0.362-13.175-0.698
					c0.085,0.315,0.171,0.63,0.256,0.945c2.273-1.727,4.822-2.853,7.451-3.929c0.411-0.168,0.508-0.672,0.122-0.935
					c-0.868-0.591-1.937-1.134-2.708-1.844c-1.099-1.012-1.28-1.264-0.28-2.398c0.645-0.732,1.146-1.257,1.208-2.263
					c-0.214,0.163-0.428,0.326-0.642,0.489c2.313,0.639,2.315,3.957,4.956,4.117c0.249,0.015,0.537-0.245,0.505-0.505
					c-0.383-3.064-0.268-6.05,0.38-9.073c-0.301,0.039-0.603,0.079-0.904,0.118c2.244,3.43,4.202,7.064,6.752,10.284
					C670.645,53.0667,671.321,52.5496,671.032,52.1377L671.032,52.1377z"/>
			</g>
		</g>
		<g>
			<g>
				<path class="st9" d="M671.81,50.3416c-2.612,2.269-4.727,6.33-5.443,9.697c-0.101,0.476,0.621,0.858,0.839,0.354
					c0.728-1.685,1.302-3.409,2.175-5.034c0.869-1.618,2.019-3.045,2.929-4.631C672.496,50.4036,672.077,50.1097,671.81,50.3416
					L671.81,50.3416z"/>
			</g>
		</g>
		<g>
			<g>
				<path class="st9" d="M659.976,70.5476c-0.242,1.279-0.31,2.564-0.429,3.859c-0.186,2.029-0.698,3.192-1.827,4.797
					c-1.483,2.107-2.248,4.409-2.16,6.997c0.021,0.624,0.967,0.628,0.973,0c0.016-1.839,0.319-3.598,1.219-5.223
					c0.644-1.162,1.616-2.114,2.157-3.333c0.897-2.018,0.827-4.848,0.739-7.005C660.632,70.2716,660.051,70.1516,659.976,70.5476
					L659.976,70.5476z"/>
			</g>
		</g>
		<g>
			<g>
				<path class="st9" d="M650.388,101.5886c0.334-1.646,1.841-1.51,2.753-2.502c0.567-0.617,0.648-1.359,0.808-2.143
					c0.572-2.794,2.096-3.652,4.436-4.953c0.687-0.382,1.381-0.767,1.992-1.267c0.45-0.368,0.851-1.196,1.299-1.455
					c1.742-1.008,1.481,2.896,0.898,3.972c-0.526,0.971-1.201,1.603-1.536,2.682c-0.158,0.509,0.462,0.743,0.81,0.471
					c2.542-1.988,5.336-3.426,8.427-4.357c0.578-0.174,0.333-1.081-0.25-0.908c-3.266,0.969-6.177,2.48-8.862,4.58
					c0.27,0.157,0.54,0.314,0.81,0.471c0.626-2.014,2.584-3.142,2.203-5.435c-0.211-1.27-0.916-3.183-2.357-3.303
					c-0.163-0.014-0.335,0.1-0.413,0.237c-0.993,1.741-2.01,2.64-3.763,3.61c-1.225,0.677-2.571,1.317-3.493,2.41
					c-1.002,1.188-0.628,2.42-1.229,3.698c-0.799,1.698-3.371,2.032-3.123,4.113
					C649.834,101.8147,650.315,101.9517,650.388,101.5886L650.388,101.5886z"/>
			</g>
		</g>
		<g>
			<g>
				<path class="st9" d="M669.136,90.3417c1.401,3.021,2.311,5.851,2.688,9.166c0.064,0.559,0.908,0.592,0.898,0
					c-0.055-3.319-1.057-6.796-2.972-9.524C669.486,89.6056,668.944,89.9257,669.136,90.3417L669.136,90.3417z"/>
			</g>
		</g>
		<g>
			<g>
				<path class="st9" d="M668.157,97.7996c-0.185,1.407,0.604,2.754,1.006,4.069c0.747,2.443,0.75,5.07-0.03,7.506
					c-1.018,3.178-3.333,3.86-6.302,4.518c-2.817,0.624-5.448,0.766-8.163-0.324c-0.535-0.215-0.927,0.701-0.396,0.939
					c2.573,1.153,5.237,1.094,7.967,0.562c2.182-0.425,5.111-0.815,6.565-2.698c3.461-4.484,1.303-9.912,0.062-14.669
					C668.755,97.2777,668.206,97.4226,668.157,97.7996L668.157,97.7996z"/>
			</g>
		</g>
		<g>
			<g>
				<path class="st9" d="M668.867,108.1247c-2.489,0.152-4.891,0.595-7.152,1.696c-0.456,0.222-0.134,1.009,0.349,0.828
					c2.244-0.84,4.498-1.598,6.884-1.922C669.29,108.6807,669.21,108.1036,668.867,108.1247L668.867,108.1247z"/>
			</g>
		</g>
		<g>
			<g>
				<path class="st9" d="M669.348,103.2107c-2.604,0.225-5.247,0.929-7.568,2.145c-0.437,0.229-0.135,0.986,0.342,0.81
					c2.43-0.895,4.794-1.635,7.334-2.162C669.896,103.9137,669.805,103.1717,669.348,103.2107L669.348,103.2107z"/>
			</g>
		</g>
		<g>
			<g>
				<path class="st9" d="M671.811,95.8467c-1.5,0.189-2.904,1.214-4.232,1.892c-1.634,0.835-3.271,1.665-4.888,2.532
					c-0.529,0.284-0.063,1.06,0.467,0.799c1.572-0.771,3.126-1.576,4.682-2.378c1.346-0.694,3.119-1.27,4.158-2.395
					C672.136,96.1477,672.055,95.8157,671.811,95.8467L671.811,95.8467z"/>
			</g>
		</g>
		<g>
			<g>
				<path class="st9" d="M654.499,115.0207c0.175-3.466-0.361-6.93-1.609-10.173c-0.517-1.343-1.683-4.935-3.719-4.767
					c-1.791,0.148-1.114,2.004-0.614,3.046c1.864,3.885,3.061,7.79,3.753,12.039c0.081,0.499,0.947,0.388,0.89-0.12
					c-0.236-2.095-0.65-4.148-1.265-6.167c-0.343-1.127-0.745-2.233-1.196-3.321c-0.288-0.694-1.074-1.789-1.156-2.52
					c-0.793-0.969-0.434-1.218,1.078-0.746c0.254,0.438,0.487,0.887,0.7,1.347c0.593,1.249,1.064,2.558,1.427,3.892
					c0.669,2.458,0.879,4.952,0.845,7.49C653.624,115.5817,654.471,115.5756,654.499,115.0207L654.499,115.0207z"/>
			</g>
		</g>
		<g>
			<g>
				<path class="st9" d="M661.538,103.5676c0.349-0.085,0.684-0.192,1.011-0.343c0.485-0.224,0.126-0.918-0.346-0.821
					c-0.313,0.065-0.61,0.175-0.904,0.298C660.781,102.9186,660.958,103.7096,661.538,103.5676L661.538,103.5676z"/>
			</g>
		</g>
		<g>
			<g>
				<path class="st9" d="M661.567,108.5537c0.379-0.306,0.84-0.451,1.279-0.646c0.405-0.18,0.176-0.787-0.215-0.793
					c-0.673-0.011-1.244,0.337-1.736,0.768C660.431,108.2916,661.101,108.9307,661.567,108.5537L661.567,108.5537z"/>
			</g>
		</g>
		<g>
			<g>
				<path class="st9" d="M660.843,113.1126c0.595,0.143,1.182,0.07,1.679-0.3c0.336-0.25,0.152-0.95-0.318-0.753
					c-0.407,0.17-0.806,0.253-1.247,0.213C660.474,112.2286,660.379,113.0017,660.843,113.1126L660.843,113.1126z"/>
			</g>
		</g>
		<g>
			<g>
				<path class="st9" d="M649.634,108.1236c-10.101,2.143-20.063,5.015-29.822,8.383c-9.409,3.247-19.143,6.745-27.929,11.466
					c-0.498,0.268-0.15,1.16,0.394,0.935c9.426-3.895,18.598-8.172,28.261-11.503c9.633-3.321,19.441-6.003,29.355-8.339
					C650.508,108.9206,650.247,107.9936,649.634,108.1236L649.634,108.1236z"/>
			</g>
		</g>
		<g>
			<g>
				<path class="st9" d="M591.16,128.2686c-4.458-3.387-9.982-4.651-15.529-4.121c-0.695,0.066-0.712,1.151,0,1.1
					c3.942-0.28,7.349-2.328,11.174-3.118c4.68-0.967,9.38-0.322,13.78,1.457c0.537,0.217,0.932-0.707,0.397-0.942
					c-3.842-1.695-7.987-2.397-12.175-1.942c-4.583,0.497-8.599,3.115-13.176,3.446c0,0.367,0,0.733,0,1.1
					c5.418-0.526,10.515,0.873,15.199,3.584C591.205,129.0486,591.485,128.5156,591.16,128.2686L591.16,128.2686z"/>
			</g>
		</g>
		<g>
			<g>
				<path class="st9" d="M589.794,129.9106c-2.424,2.853-4.762,5.78-7.13,8.679c-0.306,0.375-0.033,1.037,0.508,0.872
					c2.617-0.799,5.213-1.666,7.781-2.611c1.209-0.444,2.411-0.905,3.607-1.381c0.837-0.334,2.578-0.705,3.251-1.342
					c0.915-0.866,1.203-3.297,1.797-4.449c1.151-2.23,2.773-4.133,4.604-5.832c0.451-0.419-0.203-1.033-0.663-0.663
					c-1.435,1.155-2.662,2.469-3.699,3.993c-1.144,1.682-1.629,3.478-2.51,5.255c-0.971,1.957-4.691,2.674-6.667,3.402
					c-2.569,0.946-5.165,1.807-7.778,2.622c0.169,0.291,0.339,0.582,0.508,0.872c2.354-2.916,4.741-5.809,7.038-8.771
					C590.792,130.1036,590.182,129.4547,589.794,129.9106L589.794,129.9106z"/>
			</g>
		</g>
		<g>
			<g>
				<path class="st9" d="M640.815,74.6087c-8.022-3.037-16.773-4.675-25.07-6.854c-8.38-2.201-16.76-4.401-25.149-6.566
					c-0.641-0.165-0.913,0.82-0.273,0.991c8.371,2.233,16.751,4.431,25.132,6.628c8.299,2.176,16.73,5.044,25.211,6.34
					C641.02,75.2017,641.155,74.7376,640.815,74.6087L640.815,74.6087z"/>
			</g>
		</g>
		<g>
			<g>
				<path class="st9" d="M657.554,48.7036c-7.283-5.907-14.744-11.59-22.398-17.007c-7.829-5.54-15.808-11.205-24.211-15.845
					c-0.486-0.269-0.886,0.433-0.432,0.739c7.75,5.213,15.745,10.023,23.394,15.399c7.862,5.525,15.533,11.317,23.012,17.349
					C657.365,49.6986,658.004,49.0687,657.554,48.7036L657.554,48.7036z"/>
			</g>
		</g>
		<g>
			<g>
				<path class="st9" d="M596.955,54.7356c-4.912-1.65-9.873-3.158-14.818-4.707c-0.4-0.125-0.81,0.372-0.564,0.734
					c2.645,3.876,5.298,7.747,7.952,11.618c0.104-0.256,0.208-0.512,0.313-0.769c-4.662,1.231-8.959,3.257-12.869,6.081
					c-0.427,0.309-0.284,0.966,0.27,0.997c5.575,0.312,11.107,0.981,16.594,2.017c1.902,0.359,2.195-0.825,3.862-1.9
					c2.47-1.593,5.276-2.278,8.178-2.433c0.576-0.031,0.581-0.879,0-0.898c-2.241-0.075-4.385,0.31-6.453,1.197
					c-1.855,0.796-3.771,2.985-5.759,2.898c-2.49-0.109-5.063-0.868-7.553-1.177c-2.947-0.366-5.904-0.613-8.869-0.774
					c0.09,0.332,0.18,0.665,0.27,0.997c3.831-2.776,8.033-4.78,12.607-5.996c0.308-0.082,0.506-0.488,0.313-0.769
					c-2.661-3.867-5.323-7.733-7.994-11.594c-0.188,0.245-0.376,0.489-0.564,0.734c4.953,1.517,9.894,3.076,14.878,4.49
					C597.232,55.6186,597.423,54.8937,596.955,54.7356L596.955,54.7356z"/>
			</g>
		</g>
		<g>
			<g>
				<path class="st9" d="M621.377,22.2206c-0.233-3.304-0.33-6.593-0.217-9.904c0.006-0.172-0.139-0.397-0.322-0.423
					c-2.764-0.4-4.849-2.884-6.843-4.654c-2.116-1.879-4.232-3.758-6.347-5.636c-0.318-0.282-0.811-0.088-0.829,0.343
					c-0.189,4.555,0.28,8.99,1.404,13.406c0.164-0.215,0.327-0.43,0.491-0.645c-2.891-0.009-5.776,0.081-8.661,0.269
					c-0.399,0.026-0.741,0.576-0.365,0.881c5.652,4.594,12.66,7.433,19.983,7.577c0.614,0.012,0.601-0.902,0-0.945
					c-7.115-0.515-13.682-2.849-19.253-7.362c-0.122,0.294-0.243,0.588-0.365,0.881c2.885-0.193,5.77-0.287,8.661-0.283
					c0.336,0.001,0.573-0.326,0.491-0.645c-1.106-4.315-1.573-8.686-1.415-13.135c-0.276,0.114-0.553,0.229-0.829,0.343
					c3.444,3.041,6.775,6.538,10.527,9.194c0.541,0.383,1.164,0.599,1.706,0.954c1.096,0.718,0.912,0.201,1.061,1.862
					c0.236,2.628,0.13,5.284,0.404,7.921C620.705,22.6717,621.41,22.6867,621.377,22.2206L621.377,22.2206z"/>
			</g>
		</g>
		<g>
			<g>
				<path class="st9" d="M694.2749,157.0388c-0.6172-6.1253-0.9716-12.2654-1.0689-18.4822c-0.01-0.647-0.985-0.646-1.003,0
					c-0.171,5.9611,0.0802,11.9909,0.6985,17.9764C693.3666,156.6933,693.823,156.8627,694.2749,157.0388z"/>
			</g>
		</g>
		<g>
			<g>
				<path class="st9" d="M621.427,130.7576c-2.344,3.088-4.133,6.691-6.096,10.031c-1.982,3.372-3.99,6.732-5.871,10.162
					c-0.292,0.532,0.493,0.99,0.813,0.475c2.062-3.325,4-6.725,5.961-10.109c1.94-3.348,4.201-6.685,5.736-10.241
					C622.131,130.7016,621.673,130.4336,621.427,130.7576L621.427,130.7576z"/>
			</g>
		</g>
		<g>
			<g>
				<path class="st9" d="M704.832,129.1776c1.523,7.015,3.147,13.795,3.838,20.973c0.064,0.66,1.093,0.679,1.047,0
					c-0.482-7.061-1.536-14.556-4.045-21.204C705.476,128.4267,704.711,128.6216,704.832,129.1776L704.832,129.1776z"/>
			</g>
		</g>
		<g>
			<g>
				<path class="st9" d="M623.699,132.1207c-3.772,5.762-6.933,11.956-9.412,18.38c-0.219,0.568,0.753,0.985,0.992,0.418
					c2.679-6.334,5.788-12.374,9.378-18.239C625.032,132.0676,624.088,131.5266,623.699,132.1207L623.699,132.1207z"/>
			</g>
		</g>
		<g>
			<g>
				<g>
					<path class="st9" d="M111.8375,197.478c-0.245-5.541-1.572-11.071-3.2-16.352c-0.241,0.185-0.483,0.371-0.724,0.556
						c4.848,2.929,9.691,5.869,14.567,8.75c0.579,0.342,1.1-0.553,0.526-0.901c-4.844-2.935-9.724-5.813-14.596-8.701
						c-0.361-0.214-0.854,0.142-0.724,0.556c1.667,5.321,2.571,10.695,3.475,16.182
						C111.2255,197.952,111.8545,197.862,111.8375,197.478L111.8375,197.478z"/>
				</g>
			</g>
			<g>
				<g>
					<path class="st9" d="M122.9855,189.569c-1.765-1.046-3.55-0.267-5.385,0.229c-0.4,0.108-0.459,0.565-0.225,0.853
						c1.387,1.708,2.777,3.415,4.167,5.121c0.035-0.27,0.07-0.54,0.104-0.81c-1.204,0.658-2.122,1.49-2.927,2.6
						c0.27-0.035,0.54-0.07,0.81-0.104c-1.795-1.739-3.591-3.478-5.386-5.217c-0.256-0.248-0.617-0.165-0.81,0.104
						c-1.102,1.541-1.818,3.235-1.928,5.138c-0.03,0.525,0.829,0.652,0.928,0.126c0.334-1.77,0.833-3.266,1.89-4.743
						c-0.27,0.035-0.54,0.07-0.81,0.104c1.795,1.739,3.591,3.478,5.386,5.217c0.257,0.249,0.615,0.164,0.81-0.104
						c0.708-0.977,1.499-1.651,2.557-2.23c0.316-0.173,0.306-0.563,0.104-0.81c-1.39-1.706-2.781-3.411-4.174-5.114
						c-0.075,0.284-0.15,0.569-0.225,0.853c1.461-0.4,3.162-1.215,4.631-0.387C123.0395,190.698,123.5155,189.883,122.9855,189.569
						L122.9855,189.569z"/>
				</g>
			</g>
		</g>
		<g>
			<g>
				<path class="st11" d="M43.5008,195.4326c-1.526,5.521-1.726,11.317-3.048,16.886c-0.107,0.451,0.362,0.81,0.77,0.592
					c4.47-2.397,8.941-4.794,13.411-7.191c0.436-0.234,0.265-0.806-0.125-0.96c-1.768-0.699-3.537-1.396-5.306-2.094
					c0.104,0.256,0.208,0.511,0.312,0.767c1.24-1.731,2.48-3.462,3.721-5.194c0.16-0.223,0.042-0.583-0.186-0.708
					c-0.893-0.488-1.785-0.976-2.678-1.464c-0.26-0.142-0.539-0.048-0.704,0.185c-1.263,1.778-2.316,3.679-3.96,5.147
					c0.284,0.075,0.568,0.15,0.852,0.225c-0.755-2.091-1.837-3.989-2.178-6.212c-0.097-0.635-1.048-0.36-0.961,0.265
					c0.316,2.25,1.395,4.105,2.155,6.218c0.133,0.37,0.553,0.491,0.852,0.225c1.715-1.526,2.809-3.497,4.129-5.349
					c-0.235,0.062-0.47,0.123-0.704,0.185c0.892,0.489,1.784,0.979,2.676,1.468c-0.062-0.236-0.124-0.472-0.186-0.708
					c-1.243,1.73-2.486,3.459-3.729,5.189c-0.216,0.301,0.03,0.655,0.312,0.767c1.768,0.701,3.536,1.402,5.304,2.101
					c-0.042-0.32-0.084-0.64-0.125-0.96c-4.47,2.398-8.94,4.796-13.41,7.194c0.257,0.197,0.513,0.394,0.77,0.592
					c1.323-5.576,1.717-11.327,2.837-16.944C44.4018,195.1346,43.6438,194.9126,43.5008,195.4326L43.5008,195.4326z"/>
			</g>
		</g>
		<g>
			<g>
				<g>
					<path class="st12" d="M51.195,118.5557c-2.273,2.402-4.107,5.327-6.074,7.986c-1.846,2.495-3.684,4.994-5.506,7.506
						c-3.116,4.296-6.182,8.627-9.155,13.023c-6.875,10.164-13.352,20.596-19.72,31.083c-0.332,0.546,0.514,1.035,0.853,0.499
						c6.509-10.286,12.99-20.592,19.908-30.61c2.944-4.263,5.949-8.485,8.99-12.68c1.726-2.38,3.463-4.751,5.207-7.117
						c2.153-2.922,4.673-5.786,6.484-8.928C52.534,118.7087,51.695,118.0277,51.195,118.5557L51.195,118.5557z"/>
				</g>
			</g>
			<g>
				<g>
					<path class="st12" d="M9.426,177.7037c1.004-0.353,0.654-1.451-0.285-1.555c-1.266-0.14-2.892,1.546-3.869,2.194
						c-2.032,1.348-4.061,2.7-6.09,4.054c0.25,0.25,0.5,0.5,0.75,0.75c2.28-3.99,4.557-8.005,7.33-11.681
						c2.924-3.877,6.821-8.629,12.198-8.073c0.521,0.054,0.646-0.834,0.125-0.921c-4.691-0.777-8.441,2.699-11.275,6.004
						c-3.685,4.296-6.524,9.222-9.324,14.117c-0.261,0.455,0.28,1.066,0.75,0.75c3.123-2.092,6.38-4.08,9.426-6.268
						C8.869,177.2856,9.031,177.8426,9.426,177.7037L9.426,177.7037z"/>
				</g>
			</g>
			<g>
				<g>
					<path class="st12" d="M11.535,179.0477c0.857,3.18,1.419,6.332,1.5,9.631c0.013,0.515,0.626,0.615,0.904,0.245
						c3.466-4.627,6.803-9.364,9.848-14.28c0.084-0.136,0.089-0.337,0-0.472c-1.397-2.13-1.784-4.42-1.238-6.896
						c0.124-0.56-0.727-0.8-0.863-0.238c-0.38,1.583-0.462,3.164-0.03,4.752c0.143,0.525,0.431,1.018,0.564,1.538
						c0.388,1.513,0.059,1.927-0.82,3.268c-2.643,4.033-5.411,7.978-8.299,11.839c0.301,0.082,0.602,0.163,0.904,0.245
						c-0.084-3.358-0.598-6.664-1.75-9.83C12.093,178.4046,11.408,178.5766,11.535,179.0477L11.535,179.0477z"/>
				</g>
			</g>
			<g>
				<g>
					<path class="st12" d="M45.7,113.2867c3.127-0.54,6.105-2.576,8.904-3.99c3.231-1.632,6.38-3.408,9.584-5.091
						c-0.264-0.152-0.529-0.304-0.793-0.455c-0.454,6.431-4.802,12.172-4.487,18.674c0.031,0.65,0.944,0.636,1,0
						c0.572-6.485,4.114-12.191,4.542-18.674c0.028-0.42-0.463-0.629-0.793-0.455c-3.073,1.616-6.087,3.335-9.184,4.907
						c-2.945,1.495-6.229,2.775-8.999,4.545C45.181,112.9347,45.376,113.3427,45.7,113.2867L45.7,113.2867z"/>
				</g>
			</g>
			<g>
				<g>
					<path class="st12" d="M46.697,113.2436c2.366,0.188,4.737,0.235,7.103,0.449c-0.119-0.288-0.239-0.576-0.358-0.865
						c-1.234,1.58-2.47,3.158-3.713,4.73c-0.211,0.267-0.184,0.584,0.101,0.785c1.099,0.773,2.197,1.547,3.299,2.316
						c0.238,0.166,0.55,0.028,0.697-0.183c1.292-1.853,2.535-3.755,3.883-5.566c-0.307-0.04-0.614-0.08-0.92-0.12
						c0.446,2.734,0.619,5.532,2.217,7.87c0.337,0.493,1.091,0.065,0.806-0.471c-1.294-2.437-1.568-4.978-2.052-7.667
						c-0.082-0.456-0.703-0.452-0.92-0.12c-1.238,1.889-2.597,3.71-3.892,5.561c0.232-0.061,0.464-0.122,0.697-0.183
						c-1.1-0.77-2.205-1.534-3.308-2.3c0.034,0.262,0.067,0.524,0.101,0.785c1.235-1.578,2.478-3.151,3.722-4.721
						c0.284-0.358,0.097-0.816-0.358-0.865c-2.346-0.252-4.752-0.41-7.103-0.166C46.232,112.5617,46.222,113.2057,46.697,113.2436
						L46.697,113.2436z"/>
				</g>
			</g>
		</g>
	</g>
</g>
</svg>
