<?xml version="1.0" encoding="utf-8"?>
<!-- Generator: Adobe Illustrator 20.1.0, SVG Export Plug-In . SVG Version: 6.00 Build 0)  -->
<svg version="1.1" xmlns="http://www.w3.org/2000/svg" xmlns:xlink="http://www.w3.org/1999/xlink" x="0px" y="0px"
	 viewBox="0 0 90 240" style="enable-background:new 0 0 90 240;" xml:space="preserve">
<style type="text/css">
	.st0{fill:none;stroke:#F7FAFC;stroke-width:39.9968;stroke-linecap:round;stroke-linejoin:round;}
	.st1{fill:none;stroke:#F2F6F9;stroke-width:39.9968;stroke-linecap:round;stroke-linejoin:round;}
	.st2{fill:#F7FAFC;}
	.st3{fill:#F2F6F9;}
	.st4{fill:#FFFFFF;}
	.st5{fill:#FCE0DE;}
	.st6{fill:#E6E6E6;}
	.st7{fill:#FFEFAF;}
	.st8{fill:#E93A1D;}
	.st9{fill:#303030;}
	.st10{fill:#E83D25;}
	.st11{fill:#B3B3B3;}
	.st12{fill:#666666;}
	.st13{fill:none;stroke:#E93A1D;stroke-width:1.5;stroke-linecap:round;stroke-linejoin:round;}
	.st14{fill:none;stroke:#E93A1D;stroke-width:1.5;stroke-linecap:round;stroke-linejoin:round;stroke-dasharray:2.0259,5.0648;}
	.st15{fill:none;stroke:#E93A1D;stroke-width:1.5;stroke-linecap:round;stroke-linejoin:round;stroke-dasharray:1.8929,4.7321;}
	.st16{fill:#777777;}
	.st17{fill:#172DF8;}
	.st18{fill:none;stroke:#E93A1D;stroke-width:1.5;stroke-linecap:round;stroke-linejoin:round;stroke-dasharray:1.9198,4.7994;}
	.st19{fill:none;stroke:#E93A1D;stroke-width:1.5;stroke-linecap:round;stroke-linejoin:round;stroke-dasharray:1.9197,4.7993;}
</style>
<g id="back">
</g>
<g id="Layer_2">
	<path class="st7" d="M48.2583,14.4733c-0.791,0-1.5618,0.0798-2.3193,0.1992c0.772-1.2419,1.2255-2.7026,1.2255-4.2725
		c0-4.4805-3.6322-8.1128-8.1127-8.1128c-4.4806,0-8.1128,3.6323-8.1128,8.1128c0,4.1804,3.1627,7.6196,7.2253,8.062
		c-2.9036,2.7061-4.7301,6.5527-4.7301,10.8352c0,2.9524,0.8732,5.6965,2.361,8.0071c1.4595-8.0247,7.546-14.0466,14.8392-14.0466
		c5.1124,0,9.6244,2.967,12.3743,7.5c0.047-0.4807,0.0737-0.9675,0.0737-1.4604C63.0824,21.11,56.4453,14.4733,48.2583,14.4733z"/>
	<g>
		<polygon class="st3" points="32.9128,92.2819 39.7861,92.2819 41.681,86.3107 56.7265,86.1286 56.7265,70.2575 64.5913,70.2575 
			64.5913,61.9992 18.3706,61.9992 18.3706,70.2575 27.8547,70.2575 		"/>
		<path class="st3" d="M62.5617,230.9118c-3.2148-2.5664-4.0728-4.0493-5.1487-8.0063c-0.9116-3.3525-1.7524-6.6089-2.0361-10.0889
			c-0.28-3.4346-0.8105-6.666-1.6012-10.0215c-1.3538-5.749-0.6803-12.3398-0.2622-18.1709
			c0.4746-6.6196,1.2092-13.2192,2.0878-19.7969c1.4376-10.7646,3.3195-21.4565,5.1895-32.1523
			c2.5605-14.6465-0.7596-29.2012-0.7596-29.2012l-4.7668,7.3875l-19.1027-1.574l2.6121-10.9446l-6.7476-0.2542
			c0,0-8.8035,11.2834-3.6538,25.4636s9.0261,28.9446,9.0261,28.9448c-0.808,5.8804-1.616,11.7607-2.4238,17.6409
			c-0.4067,2.96-1.0225,6.0132-1.3431,8.9351c-0.7667,6.9839,0.6898,13.9219-1.1292,20.8506
			c-1.7001,6.4756-2.6849,13.1709-6.4576,18.8501c-4.0708,6.1284-10.4619,10.3213-14.9683,15.7676
			c3.7754-1.1895,8.0637-2.4834,11.4386-4.7402c2.6234-1.7539,4.8219-3.7192,6.7972-6.1611
			c1.1401-1.4092,3.6232-5.2769,5.4847-5.7324c3.8008-0.9292,1.1261,6.356,1.3973,8.0371c0.3545,2.1992,2.4066,3.6572,3.0396,5.8413
			c0.7019,2.4219,0.5286,3.0947,2.5353,4.603c1.4203,1.0674,2.0565,1.8408,2.9222-0.4814c0.6714-1.8013,0.2946-4.2578,0.6437-6.1758
			c0.5355-2.9419,2.4572-6.3276,5.1404-2.8628c1.2794,1.6523,2.2374,3.2373,3.6969,4.7139
			c2.4337,2.4624,4.0562,4.5815,7.4646,4.1167C65.6989,235.1457,65.8947,233.5719,62.5617,230.9118z"/>
	</g>
	<g>
		<g>
			<path class="st9" d="M31.4356,97.9257c-0.7049,4.3617-4.1796,7.6136-4.7386,12.0396
				c-0.6163,4.8801,0.0232,10.2206,1.1449,14.9816c1.2301,5.2211,3.4388,9.9331,5.7014,14.7597
				c2.5907,5.5264,3.3911,11.1706,2.7331,17.2235c-0.634,5.8316-2.2523,11.4996-3.0528,17.3055
				c-0.7992,5.7962,0.1945,11.5353,0.1585,17.3415c-0.0572,9.2322-3.0312,18.2935-8.0382,26.0139
				c-5.8052,8.9513-14.3344,15.7653-24.2187,19.7318c-0.7734,0.3104-0.4787,1.5534,0.3536,1.2826
				c17.1807-5.5908,30.0813-21.9874,32.9879-39.6397c0.8478-5.149,0.5701-10.211,0.2671-15.3952
				c-0.3763-6.4368,0.7309-12.4147,1.9722-18.6964c1.0816-5.4733,2.0288-11.0899,1.2659-16.672
				c-0.7801-5.7081-3.7543-10.4265-5.91-15.6545c-2.5524-6.1902-3.8919-12.6773-3.9564-19.3753
				c-0.0308-3.1989,0.6051-5.7151,2.1143-8.5267c1.1502-2.1427,2.1433-4.1108,2.4183-6.5571
				C32.7147,97.409,31.5457,97.2444,31.4356,97.9257L31.4356,97.9257z"/>
		</g>
	</g>
	<g>
		<g>
			<path class="st9" d="M57.9659,102.0771c3.7151,7.2953,3.5951,15.4944,2.8441,23.4483
				c-0.7747,8.2043-1.8387,16.3447-3.2088,24.4701c-2.6858,15.9282-5.8482,31.9963-5.3141,48.2283
				c0.2993,9.0984,1.8707,18.0808,5.0651,26.6193c0.3352,0.896,1.7857,0.508,1.4464-0.3988
				c-6.0055-16.0527-5.7941-33.194-3.6046-49.966c2.1374-16.3737,5.5622-32.4958,7.1161-48.9531
				c0.7788-8.2478,0.7952-16.6569-3.0489-24.2054C58.823,100.4596,57.5284,101.2179,57.9659,102.0771L57.9659,102.0771z"/>
		</g>
	</g>
	<g>
		<g>
			<path class="st9" d="M54.9347,81.7215c-0.4196,1.8194-0.309,3.5922-0.474,5.4354c-0.0861,0.9612,1.4144,0.9554,1.5,0
				c0.1528-1.706,0.0325-3.3544,0.4204-5.0366C56.5978,81.1807,55.1519,80.7797,54.9347,81.7215L54.9347,81.7215z"/>
		</g>
	</g>
	<g>
		<g>
			<path class="st9" d="M18.2564,237.4152c3.5456-0.4285,6.8262-1.6665,9.6606-3.8643c2.8418-2.2035,6.0576-7.8611,9.9423-3.9698
				c2.4706,2.4748-0.8493,6.2672,2.0841,8.4702c2.0315,1.5257,4.7514,0.7601,6.609-0.6083c1.6713-1.2312,2.8941-3.0507,4.7305-4.062
				c2.5936-1.4283,4.449-0.3393,5.8601,1.9835c1.1282,1.8571,2.3301,3.4948,4.7547,3.0659
				c6.4225-1.1363,12.124-7.2189,14.7863-12.8327c0.2958-0.6236-0.2985-1.2115-0.9205-0.9205
				c-6.0865,2.847-13.405,5.3227-19.7469,1.8432c-0.7207-0.3954-1.3622,0.6982-0.6447,1.103
				c6.7578,3.8116,14.5247,1.1798,21.0707-1.7843c-0.3068-0.3068-0.6137-0.6137-0.9205-0.9205
				c-1.6917,3.4789-4.104,6.5291-7.2308,8.83c-1.5403,1.1335-3.2385,2.0993-5.0186,2.7997
				c-0.9962,0.392-2.1328,0.8821-3.2234,0.3284c-0.812-0.4122-1.2719-1.4619-1.7239-2.2033
				c-1.1014-1.8066-2.3135-3.4151-4.639-3.3984c-3.2178,0.0232-5.1723,2.7926-7.3961,4.6543
				c-2.3806,1.9929-6.6549,2.6622-6.2139-1.8896c0.1141-1.1781,0.4085-2.1787,0.0131-3.3591
				c-0.6778-2.0235-2.698-3.5287-4.8032-3.7429c-3.0085-0.3061-4.5222,2.1167-6.3987,4.0209
				c-2.9186,2.9616-6.6972,4.7242-10.779,5.3632C17.4955,236.4177,17.6325,237.4906,18.2564,237.4152L18.2564,237.4152z"/>
		</g>
	</g>
	<g>
		<g>
			<path class="st9" d="M17.8766,61.6433c7.5897,0.7013,15.3005,0.6336,22.9174,0.7059c7.6386,0.0725,15.2858,0.0524,22.9198-0.243
				c0.8183-0.0317,0.8253-1.2952,0-1.2773c-7.6396,0.1654-15.2784,0.2376-22.9198,0.1957
				c-7.6329-0.0418-15.2873-0.4409-22.9174-0.3012C17.2755,60.7344,17.2955,61.5896,17.8766,61.6433L17.8766,61.6433z"/>
		</g>
	</g>
	<g>
		<g>
			<path class="st9" d="M17.9193,61.9992c-0.2893,2.2383-0.4289,4.4912-0.6038,6.7409c-0.0241,0.3096,0.2722,0.5329,0.5502,0.5502
				c4.5571,0.2834,9.1313,0.6316,13.6977,0.693c0.7412,0.01,0.7187-1.0756,0-1.1367c-4.5498-0.3871-9.1355-0.4908-13.6977-0.6567
				c0.1834,0.1834,0.3668,0.3668,0.5502,0.5502c0.1617-2.2456,0.3595-4.4894,0.4057-6.7409
				C18.834,61.4018,17.9914,61.4417,17.9193,61.9992L17.9193,61.9992z"/>
		</g>
	</g>
	<g>
		<g>
			<path class="st9" d="M63.3098,61.579c0.3221,1.8621,1.0773,4.2251,0.9623,6.129c-0.2368,3.9186-2.0076,1.8294-4.1675,2.043
				c-2.2415,0.2216-3.5264,2.2719-3.7783,4.3626c-0.1082,0.8977-0.004,1.8126,0.1046,2.7035
				c0.1609,1.3197,0.6813,2.2144-0.2542,3.2395c-1.2244,1.3417-4.0235,1.6475-5.7698,2.0138
				c-2.4303,0.5097-11.5635,2.442-12.1194-1.5033c-0.0909-0.6455-1.1927-0.6359-1.2939,0
				c-1.118,7.0271,18.1503,3.0834,20.6492,0.5007c1.1789-1.2184,0.1198-3.7476,0.0358-5.1516
				c-0.1232-2.0599,0.3003-4.4915,2.6818-4.7567c1.0809-0.1204,2.0661,0.2551,3.1199,0.1452
				c1.1973-0.1249,1.8705-0.8187,1.9486-2.0306c0.1605-2.4912-0.8577-5.4779-1.3111-7.9178
				C64.019,60.8248,63.2188,61.0525,63.3098,61.579L63.3098,61.579z"/>
		</g>
	</g>
	<g>
		<g>
			<path class="st9" d="M25.7411,70.5866c-1.1898,4.6319-2.054,9.3454-2.99,14.0337c-0.4692,2.3502-2.2424,6.393,1.0518,7.3601
				c2.54,0.7456,5.44,0.9163,8.0432,1.4105c2.498,0.4743,5.0049,1.045,7.5433,1.2463c0.6588,0.0522,0.8146-1.0407,0.1573-1.1625
				c-4.45-0.8244-8.8959-1.7223-13.3656-2.4348c-1.7496-0.2789-2.9249-0.2911-2.8477-2.7922
				c0.0556-1.8024,0.7623-3.8647,1.1118-5.6367c0.7729-3.9188,1.5771-7.8364,2.1378-11.7923
				C26.6593,70.2801,25.8851,70.026,25.7411,70.5866L25.7411,70.5866z"/>
		</g>
	</g>
	<g>
		<g>
			<path class="st9" d="M39.0724,94.3623c1.3397,1.116,2.6721,1.1772,4.3542,0.8225c1.3402-0.2826,5.9474-2.3939,4.8088,0.9549
				c-0.8084,2.3774-4.7035,3.8532-6.9433,3.36c-1.0909-0.2402-1.454-1.2983-2.3666-1.7079
				c-1.4137-0.6344-3.6355-0.5902-5.1717-0.8374c-2.9569-0.4758-5.9149-0.9445-8.8724-1.4159
				c-1.7-0.2709-3.4021-0.5326-5.0998-0.8173c-1.2812-0.2149-1.4301,0.0219-1.9009-1.3984
				c-0.4222-1.2736-0.2792-1.7371-0.0759-3.0244c1.0466-6.6291,2.0866-13.2589,3.0915-19.8945
				c0.1046-0.6908-0.9474-0.9949-1.0622-0.2928c-0.7735,4.7282-1.5332,9.4582-2.2792,14.1908
				c-0.3483,2.2093-0.6943,4.419-1.0415,6.6285c-0.1432,0.9111-0.6815,2.5698-0.2078,3.5062
				c0.4353,0.8606,1.321,1.0706,2.1871,1.2652c2.1328,0.4793,4.364,0.6991,6.5251,1.0417c2.0618,0.3268,4.1238,0.6524,6.1861,0.9764
				c2.1112,0.3317,5.029,0.2842,6.9438,1.2292c1.0124,0.4997,1.6543,1.3708,2.8435,1.6432
				c1.1332,0.2596,2.3563,0.0745,3.4528-0.2549c2.0541-0.6171,4.1484-2.0415,4.9362-4.131c0.4666-1.2377,0.1627-2.819-1.3709-3.0904
				c-2.8335-0.5015-5.4897,2.8785-8.3026,0.6125C39.2633,93.3714,38.6261,93.9905,39.0724,94.3623L39.0724,94.3623z"/>
		</g>
	</g>
	<g>
		<g>
			<path class="st9" d="M37.167,93.9287c0.9889-0.3084,1.9794-0.6932,2.9089-1.1508c0.581-0.2861,0.1751-1.2535-0.4425-1.0495
				c-0.982,0.3243-1.9597,0.7483-2.8796,1.2204C36.2145,93.2256,36.5874,94.1095,37.167,93.9287L37.167,93.9287z"/>
		</g>
	</g>
	<g>
		<g>
			<path class="st9" d="M40.3612,94.6754c0.3837-1.7634,0.7432-3.5339,1.0566-5.3113c0.1928-1.0932,0.0133-2.142,1.3527-2.5755
				c0.9252-0.2995,2.9048,0.2918,3.8887,0.3858c5.1791,0.4945,10.3631,1.04,15.555,1.3739c-0.2105-0.2763-0.421-0.5526-0.6315-0.829
				c-2.01,7.3429-4.0619,14.9805-4.7358,22.5848c-0.0554,0.6246,0.9587,0.7572,1.0934,0.148
				c1.6537-7.4794,2.8359-14.9883,4.9053-22.3846c0.1254-0.4481-0.2186-0.7815-0.6315-0.829
				c-3.2341-0.3718-6.4787-0.629-9.7219-0.9098c-3.1801-0.2753-6.8338-1.1117-10.0071-0.8188
				c-1.619,0.1494-1.7263,1.1328-1.9942,2.594c-0.3929,2.143-0.8201,4.2786-1.091,6.4415
				C39.3317,95.0922,40.2449,95.2097,40.3612,94.6754L40.3612,94.6754z"/>
		</g>
	</g>
	<g>
		<g>
			<path class="st9" d="M37.5831,98.0793c-0.9357,3.6214-1.2006,7.396-1.9952,11.0499c-0.0623,0.2865,0.0841,0.6797,0.4155,0.7318
				c6.2842,0.9877,12.8908,1.8999,19.2609,1.6097c0.7969-0.0363,0.7696-1.1386,0-1.2188
				c-6.3536-0.6614-12.7453-0.8288-19.1027-1.5594c0.1912,0.251,0.3824,0.502,0.5736,0.753
				c0.72-3.6733,1.2641-7.3941,1.8424-11.0921C38.6775,97.7143,37.7532,97.4212,37.5831,98.0793L37.5831,98.0793z"/>
		</g>
	</g>
	<g>
		<g>
			<path class="st9" d="M26.9536,70.6648c2.575,5.2915,4.4616,10.53,5.1544,16.4047c0.094,0.797,1.3486,0.8224,1.2715,0
				c-0.5549-5.915-2.2314-11.932-5.4292-16.9873C27.5496,69.4487,26.6303,70.0004,26.9536,70.6648L26.9536,70.6648z"/>
		</g>
	</g>
	<g>
		<g>
			<path class="st9" d="M63.4552,70.4417c0.3232,8.8665,5.1512,17.7813,8.4066,25.8546c1.542,3.824,3.0682,7.6932,5.3753,11.1349
				c2.3306,3.4768,5.1077,6.5596,7.1797,10.2195c0.3727,0.6583,1.2662,0.0798,0.9866-0.5767
				c-1.5929-3.7401-4.5545-6.6473-6.8305-9.9571c-2.4585-3.5753-4.0564-7.6092-5.6778-11.6085
				c-3.3695-8.3108-6.8246-16.3598-8.6113-25.1788C64.1894,69.8632,63.4379,69.9685,63.4552,70.4417L63.4552,70.4417z"/>
		</g>
	</g>
	<g>
		<g>
			<path class="st9" d="M56.3167,73.4911c2.5195,3.3597,4.778,6.6404,6.206,10.6326c1.4354,4.0129,2.1396,8.244,3.5809,12.2566
				c2.7548,7.6695,7.4705,14.6268,12.3806,21.07c0.4464,0.5858,1.4497,0.0485,1.0169-0.5944
				c-4.9225-7.3127-10.2432-14.3637-12.8795-22.9043c-2.3156-7.5017-3.5937-15.3613-9.5596-21.0357
				C56.6898,72.5618,55.9807,73.0431,56.3167,73.4911L56.3167,73.4911z"/>
		</g>
	</g>
	<g>
		<g>
			<path class="st9" d="M86.2113,120.7084c0.1837,0.9629,0.7885,1.6045,1.2331,2.4493c0.7851,1.492,0.0756,2.5203-1.4799,2.9471
				c-1.6476,0.4521-3.5581,0.192-4.6328,1.7937c-0.3312,0.4936,0.3919,1.005,0.8006,0.6177
				c1.7388-1.6476,4.7366-0.6437,6.2752-2.6226c1.5814-2.0341-1.0828-3.526-1.4391-5.394
				C86.8738,120.0039,86.117,120.2139,86.2113,120.7084L86.2113,120.7084z"/>
		</g>
	</g>
	<g>
		<g>
			<path class="st9" d="M82.2076,119.1535c-1.0865,1.0378-0.98,2.8854,0.2596,3.7458c0.4355,0.3023,0.9346-0.3669,0.5609-0.727
				c-0.6346-0.6115-0.7456-1.6525-0.1038-2.302C83.384,119.4051,82.6795,118.7027,82.2076,119.1535L82.2076,119.1535z"/>
		</g>
	</g>
	<g>
		<g>
			<path class="st9" d="M84.8151,122.5259c1.5099-2.7678,2.9105-5.5978,4.3049-8.4251c0.3365-0.6823-0.6763-1.2848-1.0271-0.6003
				c-1.439,2.8078-2.876,5.6222-4.1986,8.4872C83.6117,122.5998,84.481,123.1385,84.8151,122.5259L84.8151,122.5259z"/>
		</g>
	</g>
	<g>
		<g>
			<path class="st9" d="M78.5832,132.9266c1.4241-1.8474,2.6261-3.9166,3.8659-5.8907c0.3875-0.6169-0.5753-1.1691-0.9714-0.5678
				c-1.2811,1.9449-2.6663,3.8951-3.7546,5.9557C77.4149,133.0076,78.2016,133.4217,78.5832,132.9266L78.5832,132.9266z"/>
		</g>
	</g>
	<g>
		<g>
			<path class="st9" d="M79.0019,117.5492c-0.4965,2.2751,0.6075,5.1846,1.5927,7.2145c0.2591,0.5338,1.1581,0.1594,0.9639-0.4063
				c-0.381-1.1098-0.7506-2.2269-1.0235-3.3691c-0.2699-1.1301-0.2775-2.3608-0.6912-3.439
				C79.7028,117.1819,79.1022,117.0895,79.0019,117.5492L79.0019,117.5492z"/>
		</g>
	</g>
	<g>
		<g>
			<path class="st9" d="M46.5324,44.9799c0.2746,2.9452-1.2263,7.7741,2.3558,9.3682c1.4061,0.6257,3.0247,0.3015,4.4373-0.1183
				c1.1618-0.3452,2.4193-0.9694,3.6606-0.8978c2.5134,0.1451,3.4187,2.4881,2.9618,4.6067
				c-0.1353,0.6273,0.7774,1.0996,1.0924,0.4605c1.3521-2.7431-0.6278-6.1442-3.6651-6.4224
				c-2.2952-0.2102-4.7701,1.9193-6.9427,1.3604c-3.9412-1.0138-2.1816-5.5864-2.962-8.4844
				C47.3348,44.3492,46.4812,44.4301,46.5324,44.9799L46.5324,44.9799z"/>
		</g>
	</g>
	<g>
		<g>
			<path class="st9" d="M45.1209,45.3371c4.4495,1.0791,9.0424-2.6296,9.6843-6.9743c0.1077-0.7286-0.9855-1.0634-1.13-0.3115
				c-0.7984,4.1543-4.3786,6.3972-8.425,6.3305C44.7069,44.3729,44.583,45.2066,45.1209,45.3371L45.1209,45.3371z"/>
		</g>
	</g>
	<g>
		<g>
			<path class="st9" d="M39.5773,29.8308c-0.1299-0.1019-0.1732-0.2843-0.2956-0.403c-0.1516-0.1469-0.4077-0.2412-0.604-0.3117
				c-0.3832-0.1377-0.8058-0.1931-1.2089-0.1081c-0.9143,0.1928-1.4678,0.9801-1.6604,1.8514
				c-0.3657,1.6537,0.4342,3.715,2.1089,4.2801c0.6131,0.2069,1.0354-0.7669,0.4447-1.0549
				c-0.93-0.4534-1.4234-1.5369-1.3738-2.5477c0.0274-0.5585,0.221-1.229,0.8662-1.313c0.2691-0.035,1.0545,0.1418,1.2259,0.2511
				C39.4649,30.7203,39.9481,30.1218,39.5773,29.8308L39.5773,29.8308z"/>
		</g>
	</g>
	<g>
		<g>
			<path class="st9" d="M54.9923,19.7166c2.2284-0.9182,5.4467,3.9642,6.1996,5.5529c1.2932,2.729,1.4297,5.6646,0.7971,8.5807
				c-0.1617,0.7454,0.8829,1.0256,1.1357,0.3131c1.2595-3.5513,0.5503-7.5734-1.4305-10.7332
				c-1.0608-1.6922-4.7211-6.1836-7.0405-4.5167C54.2854,19.1781,54.4952,19.9214,54.9923,19.7166L54.9923,19.7166z"/>
		</g>
	</g>
	<g>
		<g>
			<path class="st9" d="M52.143,17.0699c3.5642-0.6948,6.827,0.2103,9.2136,3.0434c0.4216,0.5005,1.3063-0.1692,0.9157-0.7065
				c-2.2791-3.1343-6.6809-4.7793-10.3769-3.2352C51.3513,16.3988,51.5403,17.1874,52.143,17.0699L52.143,17.0699z"/>
		</g>
	</g>
	<g>
		<g>
			<path class="st9" d="M52.7021,14.4577c-2.1451-2.445-5.8856-3.0149-8.6798-1.3595c-0.5297,0.3138-0.0657,1.0713,0.4761,0.8146
				c2.6022-1.2329,5.4667-0.7832,7.5905,1.1581C52.5034,15.4498,53.0694,14.8763,52.7021,14.4577L52.7021,14.4577z"/>
		</g>
	</g>
	<g>
		<g>
			<path class="st9" d="M38.2333,15.2933c-3.2368,3.7266-4.9126,8.539-5.0342,13.4686c-0.0645,2.6143,0.5631,4.9831,2.0768,7.1249
				c1.7284,2.4455,3.538,4.3932,3.745,7.5217c0.222,3.3558-0.0201,7.5219-2.3462,10.1648c-2.706,3.0745-5.6986,1.7063-9.0738,1.1296
				c-4.3113-0.7367-6.1549,2.4293-5.6479,6.3742c0.084,0.6535,1.1145,0.6804,1.0488,0c-0.1207-1.251-0.264-3.0103,0.5884-4.0418
				c1.4774-1.7878,3.5613-1.2366,5.4712-0.7666c2.021,0.4973,3.9775,0.9295,5.9597,0.0419
				c3.9791-1.7817,5.0232-6.386,5.1851-10.3246c0.0825-2.0078,0.0938-4.1755-0.7442-6.0491
				c-1.0068-2.2508-2.9519-3.9019-4.0761-6.0705c-2.817-5.4341-0.0375-13.4505,3.585-17.8357
				C39.3926,15.5201,38.6775,14.7818,38.2333,15.2933L38.2333,15.2933z"/>
		</g>
	</g>
	<g>
		<g>
			<path class="st9" d="M45.9366,10.1843c2.036-6.6355-8.0155-10.9546-12.8738-7.4645c-2.5914,1.8616-3.93,6.624-4.1312,9.5947
				c-0.1992,2.9413,1.3037,6.011,4.4267,6.4795c0.7108,0.1066,1.0422-0.9359,0.3053-1.1074
				c-5.5739-1.297-3.1876-9.9583-0.63-13.0354c3.5257-4.2419,13.6005-0.6416,12.1346,5.3213
				C45.0456,10.4713,45.7861,10.6747,45.9366,10.1843L45.9366,10.1843z"/>
		</g>
	</g>
	<g>
		<g>
			<path class="st9" d="M32.3423,14.4263c0.9467,1.3462,2.4454,2.1418,4.0875,2.1922c0.764,0.0234,0.7121-1.0605,0-1.1543
				c-1.2746-0.1679-2.3505-0.7801-3.2317-1.6983C32.7797,13.33,31.9797,13.9107,32.3423,14.4263L32.3423,14.4263z"/>
		</g>
	</g>
	<g>
		<g>
			<path class="st9" d="M35.3244,13.2704c0.6839,0.1265,1.2023,0.4327,1.6994,0.9092c0.423,0.4055,1.1819-0.1245,0.8374-0.6461
				c-0.5298-0.8022-1.4541-1.2496-2.4098-1.201C34.943,12.3582,34.7675,13.1673,35.3244,13.2704L35.3244,13.2704z"/>
		</g>
	</g>
	<g>
		<g>
			<path class="st9" d="M42.4155,13.2591c1.2786-1.368,1.9388-3.1231,1.9015-4.993c-0.0123-0.6183-0.9475-0.6191-0.9609,0
				c-0.0363,1.6705-0.5996,3.1538-1.6169,4.4711C41.4391,13.1258,42.0859,13.6117,42.4155,13.2591L42.4155,13.2591z"/>
		</g>
	</g>
	<g>
		<g>
			<path class="st9" d="M41.2074,16.7945c2.0494-1.406,4.3314-1.9137,6.7813-1.4349c0.7031,0.1374,1.0041-0.8859,0.2991-1.0848
				c-2.7032-0.7625-5.5633-0.0946-7.6662,1.7605C40.2144,16.3945,40.7526,17.1066,41.2074,16.7945L41.2074,16.7945z"/>
		</g>
	</g>
	<g>
		<g>
			<path class="st9" d="M47.8989,21.9109c-0.2951,2.4276-2.6069,4.0079-4.6798,2.128c-0.3555-0.3224-0.9779-0.1098-0.9727,0.4029
				c0.0306,3.0156-1.6285,2.2398-3.6328,2.9134c-1.1627,0.3908-1.5967,1.2337-1.5614,2.4346c0.0197,0.6694,1.0041,0.6657,1.0371,0
				c0.1008-2.0329,2.2423-1.3301,3.5827-2.0047c1.2729-0.6407,1.665-2.0095,1.7139-3.3432
				c-0.3242,0.1343-0.6485,0.2686-0.9727,0.4029c2.5188,2.3562,7.0395,0.6871,6.3086-3.0451
				C48.6231,21.2956,47.951,21.4822,47.8989,21.9109L47.8989,21.9109z"/>
		</g>
	</g>
	<g>
		<g>
			<path class="st9" d="M46.1944,39.6226c0.412,0.9459,1.7411,1.3756,2.6883,1.2495c0.6855-0.0912,0.7355-1.0831,0-1.1074
				c-0.3694-0.0122-0.7449-0.0801-1.0868-0.2233c-0.3489-0.1461-0.6208-0.3935-0.9481-0.5721
				C46.3977,38.7236,46.011,39.2015,46.1944,39.6226L46.1944,39.6226z"/>
		</g>
	</g>
	<g>
		<g>
			<path class="st9" d="M44.2633,27.1363c1.5795-0.3639,3.0339-0.2935,4.6185-0.0271c0.671,0.1128,0.9059-0.7604,0.2788-1.0114
				c-1.6812-0.673-3.6013-0.4642-5.2224,0.2674C43.4866,26.5691,43.8172,27.2391,44.2633,27.1363L44.2633,27.1363z"/>
		</g>
	</g>
	<g>
		<g>
			<path class="st9" d="M52.1218,27.4735c0.7496,0.2985,1.4976,0.6004,2.2781,0.8088c0.5619,0.15,0.9813-0.7275,0.4109-0.9746
				c-0.7847-0.3399-1.5947-0.5892-2.4132-0.8343C51.7435,26.2776,51.517,27.2327,52.1218,27.4735L52.1218,27.4735z"/>
		</g>
	</g>
	<g>
		<g>
			<path class="st9" d="M44.3051,32.0758c1.2411-1.0241,3.058-1.2528,3.5723,0.5901c0.1311,0.4699,0.9568,0.5496,1.034,0
				c0.1672-1.1908-0.7198-2.1941-1.8515-2.4886c-1.2954-0.3371-2.5242,0.3424-3.3597,1.2936
				C43.3325,31.8895,43.8829,32.4241,44.3051,32.0758L44.3051,32.0758z"/>
		</g>
	</g>
	<g>
		<g>
			<path class="st9" d="M51.7679,33.2519c0.3501-0.8737,1.2292-0.5001,1.5498,0.1405c0.2199,0.4395,1.0199,0.2503,0.9609-0.2602
				c-0.2228-1.9268-3.0288-2.0211-3.4259-0.1326C50.7245,33.6088,51.5438,33.8112,51.7679,33.2519L51.7679,33.2519z"/>
		</g>
	</g>
</g>
</svg>
