<?xml version="1.0" encoding="utf-8"?>
<!-- Generator: Adobe Illustrator 20.1.0, SVG Export Plug-In . SVG Version: 6.00 Build 0)  -->
<svg version="1.1" xmlns="http://www.w3.org/2000/svg" xmlns:xlink="http://www.w3.org/1999/xlink" x="0px" y="0px"
	 viewBox="0 0 662 384" style="enable-background:new 0 0 662 384;" xml:space="preserve">
<style type="text/css">
	.st0{fill:none;stroke:#F7FAFC;stroke-width:39.9968;stroke-linecap:round;stroke-linejoin:round;}
	.st1{fill:none;stroke:#F2F6F9;stroke-width:39.9968;stroke-linecap:round;stroke-linejoin:round;}
	.st2{fill:#F7FAFC;}
	.st3{fill:#F2F6F9;}
	.st4{fill:#FFFFFF;}
	.st5{fill:#FCE0DE;}
	.st6{fill:#E6E6E6;}
	.st7{fill:#FFEFAF;}
	.st8{fill:#E93A1D;}
	.st9{fill:#303030;}
	.st10{fill:#E83D25;}
	.st11{fill:#B3B3B3;}
	.st12{fill:#666666;}
	.st13{fill:none;stroke:#E93A1D;stroke-width:1.5;stroke-linecap:round;stroke-linejoin:round;}
	.st14{fill:none;stroke:#E93A1D;stroke-width:1.5;stroke-linecap:round;stroke-linejoin:round;stroke-dasharray:2.0259,5.0648;}
	.st15{fill:none;stroke:#E93A1D;stroke-width:1.5;stroke-linecap:round;stroke-linejoin:round;stroke-dasharray:1.8929,4.7321;}
	.st16{fill:#777777;}
	.st17{fill:#172DF8;}
	.st18{fill:none;stroke:#E93A1D;stroke-width:1.5;stroke-linecap:round;stroke-linejoin:round;stroke-dasharray:1.9198,4.7994;}
	.st19{fill:none;stroke:#E93A1D;stroke-width:1.5;stroke-linecap:round;stroke-linejoin:round;stroke-dasharray:1.9197,4.7993;}
</style>
<g id="back">
	<g>
		<g>
			<path class="st2" d="M276.5077,382.7387c-4.3096,0-9.4502-1.2861-15.3896-4.8984c-2.2935-1.3945-4.9321-3.2188-7.9824-5.5215
				c-1.2021,1.8906-2.6968,3.6016-4.458,5.0801c-3.2832,2.7539-12.3379,8.5205-25.4824,2.5947
				c-2.5664-1.1582-5.2383-2.7256-8.229-4.8398c-6.313,4.1328-14.3613,4.6602-22.02,1.3301
				c-2.7651-1.2021-5.5796-2.9043-8.7832-5.3174c-7.376,4.1904-16.7925,3.3057-23.2837-2.5654
				c-8.4985-7.6865-17.3252-15.5625-26.1968-23.3789c-1.1538,3.5088-3.2676,6.6602-6.1431,9.0723
				c-2.3389,1.9609-10.8897,7.9365-22.7358,2.4092c-1.3735-0.6406-2.9331-1.4775-4.9087-2.6348
				c-2.9009-1.6992-6.751-4.1201-11.7705-7.4023c-3.0298-1.9814-6.4795-4.2734-10.3335-6.8652
				c-0.2588,0.2803-0.5269,0.5547-0.8047,0.8232c-6.9614,6.7266-17.5889,7.4121-25.2998,2.0518
				c-5.689-0.0156-11.3315-2.4453-15.2744-7.1455c-1.687-2.0107-2.9106-4.2559-3.6826-6.6055
				c-4.3071-5.7139-16.8691-19.5674-27.3877-30.4941c-5.4229-5.6328-6.8931-13.6377-4.4438-20.5566
				c-0.0879-1.0391-0.0957-2.1143-0.0166-3.2363c0.3823-5.4229,2.9844-10.5322,7.1392-14.0195
				c3.2012-2.6865,7.0513-4.2256,10.9966-4.5938c-2.9395-3.9277-4.3408-8.8125-3.9111-13.7256
				c0.4624-5.2842,3.0049-10.168,7.0684-13.5771c5.8989-4.9492,12.2749-5.625,17.8188-4.6953
				c-0.3716-1.9766-0.4287-3.8389-0.3081-5.7656c0.3672-5.8506,3.0122-11.1221,7.4482-14.8447
				c4.8096-4.0352,10.9468-5.6943,17.2441-4.8428c0.7686-0.9316,1.6333-1.8066,2.5913-2.6113
				c5.1807-4.3467,13.9976-7.1094,23.6274-2.3428c0.5063-0.5303,1.0444-1.0352,1.6123-1.5117
				c6.3057-5.2891,16.8638-7.2559,26.2349,0.2695c0.8257,0.6631,1.7944,1.501,3.0488,2.6367
				c0.2031,0.1846,0.415,0.3779,0.6367,0.5801c1.1826-3.5244,3.3169-6.7041,6.1831-9.1094
				c3.3579-2.8164,12.6592-8.6807,26.4736-2.3203c2.4272,1.1182,4.9907,2.5859,7.8486,4.5039
				c0.6631-0.7324,1.3804-1.4229,2.1499-2.0684c5.7461-4.8232,13.4805-5.8906,20.1001-3.3242
				c1.1572-2.0156,2.667-3.834,4.4805-5.3574c0.6719-0.5635,2.2144-1.7461,4.4268-2.7852
				c0.9736-4.5957,3.4062-8.6797,7.0342-11.7236c2.5059-2.1025,5.6821-3.6797,9.1904-4.3477
				c-2.3945-7.499-0.207-16.0332,6.1963-21.4082c3.6113-3.0303,8.5664-4.9746,13.8848-4.6963
				c-0.002-0.3379,0.0044-0.6768,0.02-1.0156c0.251-5.5928,2.8345-10.8232,7.123-14.4219c2.1338-1.791,4.5532-3.1182,7.1396-3.9473
				c0.3237-0.3096,0.6587-0.6094,1.0049-0.9004c5.1455-4.3164,11.8442-5.6094,17.9062-4.0312
				c0.8091-1.0684,1.7388-2.0723,2.7861-2.9893c8.1865-7.166,20.6016-6.4756,27.9399,1.5605c0.1162,0.127,3.0737,3.3633,8.2349,8.96
				c-0.0249-5.6533,2.335-11.2783,6.9482-15.251c4.377-3.7686,9.9209-5.3145,15.2505-4.7236
				c5.291-1.9404,12.4639-2.208,19.749,3.1182c0.959-1.7012,2.1846-3.2891,3.6753-4.7012
				c7.6836-7.2803,19.6597-7.2861,27.3481-0.1504c1.2134-2.4512,2.9292-4.6523,5.0674-6.4473
				c3.4663-2.9072,12.999-8.8184,26.6284-0.8955c2.7617,1.6055,5.9331,3.8389,9.9805,7.0283
				c0.1543,0.1211,0.3091,0.2441,0.4653,0.3682c1.2168-2.4912,2.9502-4.7266,5.1147-6.543c2.6699-2.2422,12.4438-8.9717,26.0898-1.5
				c0.9062,0.4971,1.8384,1.0557,2.811,1.6875c4.8628-2.0303,12.3115-3.0205,21.269,2.708
				c2.3872,1.5254,5.0776,3.6006,8.4673,6.5293c0.0127,0.0107,0.0254,0.0215,0.0386,0.0332
				c2.7842-0.9844,5.7783-1.3447,8.7769-1.0273c5.4053,0.5771,10.3428,3.3301,13.6763,7.624
				c0.0273,0.0361,0.3281,0.4229,0.877,1.1279c0.5264,0.0244,1.0547,0.0674,1.585,0.1279
				c8.7451,1.002,17.6616,6.0527,39.3945,29.6348c0.4399-0.4453,0.9023-0.873,1.3862-1.2783
				c5.4712-4.5889,14.9053-7.4072,24.9834-1.5488c0.5547,0.3223,1.1128,0.6709,1.6802,1.0498
				c4.7656,0.5312,9.356,2.7686,12.7773,6.6484c0.1587,0.1797,16.0376,18.1924,31.6816,36.3682
				c9.2432,10.7393,16.6177,19.457,21.9194,25.9121c9.5078,11.5771,14.21,17.3018,14.2739,25.3652
				c3.8931,6.4678,5.1128,11.1064,4.8257,16.1904c-0.3262,5.7676-3.022,11.1797-7.3955,14.8496
				c-1.1567,0.9707-2.4878,1.8984-3.9985,2.6855c0.5015,0.6641,0.7759,1.0293,0.8022,1.0645
				c5.5322,7.3613,5.2275,17.3281-0.1958,24.293c-1.2598,2.5908-3.0508,4.915-5.2808,6.7861
				c-0.8506,0.7139-1.7471,1.3545-2.6807,1.9199c-0.4146,0.4082-0.8481,0.8027-1.2988,1.1807
				c-2.7578,2.3145-5.9609,3.7588-9.2734,4.3584c-1.1274,1.7197-2.5098,3.2793-4.1245,4.6348
				c-1.4087,1.1816-2.9326,2.1367-4.5278,2.8682c-1.0518,3.1748-2.9141,6.127-5.5645,8.5254
				c-4.7822,4.3262-11.1021,5.918-17.0146,4.8447c0.0171,0.8037-0.0073,1.5957-0.0586,2.3936
				c-0.377,5.9082-3.0396,11.2217-7.4976,14.9629c-2.9072,2.4385-10.2686,7.1426-21.0518,3.9609
				c-1.3994,2.8145-3.3579,5.3164-5.8125,7.377c-4.3311,3.6328-13.2505,8.3203-26.4541,1.8281
				c-0.9033,1.333-1.9829,2.5771-3.2368,3.6992c-4.3462,3.8877-9.9243,5.5332-15.3066,4.9941
				c-4.6108,1.9688-11.1445,2.9473-19.5449-0.1533c-3.9561-1.4609-8.3892-3.8506-13.5474-7.3018
				c-1.2241,2.7422-3.0625,5.2012-5.4072,7.168c-2.7388,2.2979-12.5527,8.9932-26.1895,1.0752
				c-0.0078,0.0059-0.0156,0.0127-0.0234,0.0195c-4.7192,3.96-10.7866,5.7822-17.0918,5.1279
				c-1.0376-0.1074-2.0825-0.2793-3.1465-0.5283c-6.438,1.4717-13.4282-0.2891-18.4438-5.1885
				c-1.4175-1.3848-2.8442-2.7783-4.2896-4.1895c-1.1963,2.6074-2.9756,4.998-5.3193,6.9648
				c-4.5435,3.8115-14.3516,8.9277-29.0015,0.377c-0.6226-0.3633-1.2661-0.7559-1.9312-1.1787
				c-0.7568,1.0781-1.6318,2.0957-2.6245,3.0361c-6.1904,5.8652-15.1567,7.0039-22.4209,3.5127
				c-5.9785,4.9443-15.998,7.0098-25.0283,0.5195c-0.0674-0.0488-0.1353-0.0977-0.2041-0.1484
				c-0.9326,1.2676-2.019,2.4307-3.2441,3.46c-5.6147,4.7119-15.2168,7.4473-25.3511,1.0059
				c-0.895-0.5693-1.8276-1.2256-2.835-1.999c-1.1606,2.0322-2.6807,3.8643-4.5088,5.3984
				C287.2039,380.0669,282.7181,382.7387,276.5077,382.7387z"/>
		</g>
	</g>
	<g>
		<g>
			<path class="st3" d="M443.6532,358.2368c-4.2612,0.001-9.0161-1.4092-13.7456-5.3633c-0.8931-0.7461-1.9771-1.7129-3.4111-3.042
				c-1.4727-1.3643-3.3457-3.1406-5.6689-5.3779c-0.9648,1.3438-2.1006,2.5732-3.3896,3.6553
				c-5.2524,4.4072-14.3599,7.1953-24.1665,1.8076c-1.7979-0.9883-3.7046-2.2793-6.001-4.0635
				c-3.0322-2.3555-7.0171-5.7949-12.1826-10.5156c-0.9629-0.8799-1.9556-1.7939-2.9771-2.7402
				c-0.0449,0.0381-0.0903,0.0762-0.1357,0.1143c-8.459,7.1016-21.0742,5.9971-28.1743-2.4648l-75.7563-90.2832
				c-3.4092-4.0625-5.0649-9.3145-4.6025-14.5977c0.4624-5.2842,3.0049-10.168,7.0684-13.5771
				c0.6284-0.5273,1.6851-1.3291,3.1216-2.1338c-1.9727-2.4492-3.6772-4.5986-5.1035-6.4326
				c-5.873-7.5566-10.1167-13.0156-9.4424-21.5303c0.4238-5.3438,3.0088-10.3721,7.1152-13.8184
				c2.1704-1.8213,5.479-3.8936,9.811-4.5879c0.0083-0.2373,0.019-0.4756,0.0332-0.7129c0.3525-6.0127,3.04-11.416,7.5674-15.2158
				c1.9375-1.625,7.5156-5.5283,15.4946-4.8213c1.2363-2.6211,3.0283-4.9746,5.2744-6.8594c1.9229-1.6143,4.082-2.8447,6.3877-3.665
				c6.9268-5.6553,16.6304-5.9443,23.8203-1.0908c0.8433-1.0439,1.793-2.0137,2.8433-2.8945
				c2.853-2.3945,13.2769-9.4707,27.5688,0.0234c2.6162,1.7383,5.668,4.1299,9.605,7.5264
				c0.3921,0.3379,0.7925,0.6855,1.2017,1.0439c0.1499-0.1455,0.3027-0.2891,0.458-0.4307
				c7.9199-7.2275,20.1318-6.9219,27.6807,0.6943l15.3457,15.4795c3.4302-1.7832,7.332-2.5557,11.2427-2.1504
				c2.3374,0.2373,4.5898,0.8818,6.665,1.8818c6.2549-1.5029,13.0737,0.0527,18.1201,4.627l2.8687,2.6006
				c0.8184-1.0225,1.7402-1.9697,2.7563-2.8223c4.2319-3.5518,9.5303-5.0645,14.6631-4.5986
				c5.665-3.5703,14.1929-5.4326,25.9883,0.7109c1.1475-3.2617,3.1553-6.2676,5.9927-8.6533
				c1.9819-1.666,4.1929-2.8818,6.5083-3.6572c1.2065-0.6992,2.4722-1.2744,3.7832-1.7217
				c4.0391-1.9023,10.1084-3.1533,17.6958,0.0771c1.3442,0.5723,2.8813,1.3252,4.8384,2.3701
				c1.2241,0.6523,2.6191,1.4238,4.2021,2.3232c1.001-4.4541,3.4248-8.5,6.9282-11.4395
				c6.1416-5.1553,14.5586-6.0244,21.4585-2.7393c6.6821-1.0352,13.728,1.3486,18.3931,6.9092l41.126,49.0117
				c4.1548,4.9512,5.5127,11.3535,4.1924,17.2432c5.4971,7.2607,5.4307,17.4834-0.4648,24.7051
				c-3.8276,4.6875-9.3862,7.2217-15.062,7.3467c7.6343,9.6982,12.0649,16.5156,14.5898,21.7305
				c4.2026,5.876,4.7842,13.3096,2.0952,19.5537c-0.7871,2.4717-2.001,4.7617-3.6011,6.7871
				c-1.2129,2.4404-2.9229,4.6318-5.0498,6.417c-4.6343,3.8896-11.9492,7.1348-22.2891,3.7441
				c-1.0044,4.7549-3.5112,8.9717-7.2549,12.1133c-4.5884,3.8506-10.4292,5.3057-15.9551,4.4365
				c-6.481,3.4805-14.4868,3.1426-20.688-1.0723c-0.9912,1.3457-2.1509,2.583-3.4663,3.6865
				c-3.1074,2.6084-6.8193,4.2627-10.7959,4.8643c-2.5112,1.7021-5.3198,2.7686-8.2031,3.2031
				c-1.165,2.0537-2.6953,3.9033-4.5386,5.4502c-1.3643,1.1436-6.6108,5.0693-13.9653,4.7295
				c-1.0454,3.9863-3.3047,7.5977-6.499,10.2793c-5.459,4.584-12.7075,5.7783-19.0898,3.6904
				c-1.1104,1.7969-2.5083,3.4219-4.1562,4.8057c-3.5737,2.998-7.9634,4.6729-12.5894,4.8457
				c-4.7422,2.1104-12.1401,3.3604-21.0869-2.0283c-0.6191,0.6875-1.2886,1.335-2.0054,1.9365
				C453.9222,355.8403,449.2074,358.2368,443.6532,358.2368z"/>
		</g>
	</g>
	<g>
		<g>
			<path class="st4" d="M315.212,150.905c1.3955-4.1979,5.1772-7.6334,9.6718-8.0756c4.714-0.4637,9.0768,2.3863,11.1039,6.5346
				c0.8935,1.8284,4.2417,1.0287,3.9795-1.0779c-0.426-3.4223,1.9863-6.0668,5.2682-6.8291
				c4.0336-0.9369,7.7204,1.121,11.6763,1.2021c1.8567,0.0381,2.3661-2.4285,0.9109-3.363
				c-4.2887-2.754-11.2888-3.4492-15.9391-1.2978c-4.146,1.9181-7.0901,6.2241-6.111,10.8555
				c1.3011-0.5485,2.6021-1.097,3.9032-1.6456c-2.8644-5.6486-9.1283-9.2349-15.4798-8.4241
				c-6.013,0.7676-11.0359,5.3029-12.5395,11.1405C311.0604,152.2377,314.4668,153.1465,315.212,150.905L315.212,150.905z"/>
		</g>
	</g>
	<g>
		<g>
			<path class="st4" d="M388.5197,158.2216c1.3017-2.3383,3.9613-3.2117,6.5356-2.883c3.0376,0.3878,5.4447,2.5834,7.3437,4.8305
				c4.0613,4.8056,6.5366,10.6352,12.066,14.0725c0.8581,0.5334,1.8551,0.2663,2.5745-0.3322
				c5.257-4.3732,12.5401-5.24,19.0489-3.7271c3.2754,0.7613,6.4673,2.0406,9.0248,4.2761
				c2.8221,2.4668,3.8254,5.0616,3.5406,8.7365c-0.1465,1.8901,2.897,2.7875,3.6833,0.9976
				c3.8113-8.6765-6.5964-15.7871-13.6586-17.8105c-8.4554-2.4225-17.8072-1.2162-24.6434,4.5229
				c0.8582-0.1107,1.7163-0.2215,2.5745-0.3322c-6.7716-4.127-8.959-12.7495-15.595-17.1322
				c-4.8779-3.2215-12.9163-3.0229-15.598,2.9673C384.4928,158.4712,387.3701,160.2866,388.5197,158.2216L388.5197,158.2216z"/>
		</g>
	</g>
	<g>
		<g>
			<path class="st4" d="M457.2468,171.2992c2.3977-1.229,4.1416-3.5957,6.5667-4.932c2.5019-1.3785,5.2897-2.2574,8.1288-2.5841
				c5.6517-0.6505,11.5256,0.7186,15.9089,4.445c0.9558,0.8125,2.7958,0.9379,3.4161-0.4402
				c2.1658-4.8112,6.6322-8.4076,11.9882-8.8751c2.5843-0.2256,5.2502,0.3392,7.5554,1.5165
				c2.697,1.3774,4.1108,3.5007,6.2262,5.5022c1.3787,1.3045,4.0324,0.0295,3.3558-1.9535
				c-2.1787-6.3858-10.8671-9.9602-17.1374-9.5028c-6.8152,0.4972-12.9799,4.8829-15.7444,11.117
				c1.1387-0.1467,2.2774-0.2935,3.4161-0.4402c-5.3571-4.5027-12.3296-6.4427-19.2664-5.5654
				c-3.3641,0.4254-6.6556,1.4485-9.6136,3.123c-2.5699,1.4548-6.1927,3.9216-6.9122,6.9661
				C454.8386,170.9302,456.1253,171.8741,457.2468,171.2992L457.2468,171.2992z"/>
		</g>
	</g>
	<g>
		<g>
			<path class="st4" d="M527.209,154.0928c2.9257-1.482,5.3743-3.9057,8.2437-5.54c3.0505-1.7374,6.4844-3.0974,10.0207-3.312
				c5.5043-0.3341,11.7947,2.1823,13.9238,7.6171c0.5408,1.3806,2.2944,2.1389,3.4637,0.9145
				c7.2676-7.6099,19.6849-6.9877,26.3788,0.9561c6.4509,7.6555,7.8231,18.28,14.1434,26.0573
				c1.4195,1.7467,4.3397-0.5288,3.1166-2.4047c-6.0804-9.3259-8.0466-21.9654-16.8497-29.3533
				c-8.6134-7.2287-22.0366-6.3577-29.72,1.8138c1.1545,0.3048,2.3091,0.6096,3.4637,0.9145
				c-2.6937-6.7228-9.4732-10.478-16.5772-10.5456c-4.011-0.0382-7.9616,1.195-11.4988,3.0209
				c-3.5879,1.852-7.7709,4.5138-10.0436,7.9268C524.4382,153.4136,526.0344,154.6877,527.209,154.0928L527.209,154.0928z"/>
		</g>
	</g>
	<g>
		<g>
			<path class="st4" d="M544.1681,182.2355c3.3901-0.2823,5.9307-2.9429,9.4461-3.1024c3.2606-0.1479,6.4579,1.0672,9.0831,2.9467
				c5.8798,4.2097,8.2611,11.5891,9.7744,18.3296c0.3915,1.7441,2.4283,1.8852,3.6101,0.9531
				c5.7674-4.5488,13.6861-0.9652,15.0403,5.923c0.313,1.5923,2.5743,2.1119,3.6339,0.9594
				c5.0969-5.5441,14.4924-4.416,19.3665,0.9006c6.3525,6.9292,3.8306,17.239-0.6321,24.3654
				c-1.1667,1.8631,1.6121,4.0985,3.092,2.3858c6.983-8.0806,8.2171-22.0349,0.4205-30.0687
				c-6.5442-6.7434-18.7082-7.8686-25.3217-0.6578c1.2113,0.3198,2.4225,0.6396,3.6339,0.9594
				c-2.0636-10.4319-14.1982-14.2175-22.2879-7.8217c1.2034,0.3177,2.4067,0.6354,3.6101,0.9531
				c-1.8354-8.1309-5.0784-16.6107-12.4125-21.2955c-3.2076-2.0489-7.1473-3.3044-10.9769-3.0177
				c-3.6576,0.2739-8.2861,1.9302-10.2805,5.1952C542.4489,180.9919,543.1058,182.324,544.1681,182.2355L544.1681,182.2355z"/>
		</g>
	</g>
	<g>
		<g>
			<path class="st4" d="M584.4001,231.9262c5.4175,0.7981,10.7613,1.0408,15.8568,3.3036c4.7008,2.0875,8.7081,5.3674,11.157,9.9371
				c2.3764,4.4343,2.9048,9.5814,0.911,14.2538c-1.8969,4.4452-5.7017,8.6971-5.4191,13.7994
				c0.1134,2.0477,2.7675,2.3225,3.4681,0.4694c1.0885-2.8791,2.3091-5.5253,3.8214-8.2129
				c1.4056-2.4981,2.7941-5.0808,3.4022-7.9077c1.1232-5.2214-0.0732-10.695-2.7382-15.2667
				c-5.7142-9.8027-18.8658-15.2955-29.992-13.8288C583.128,228.7027,582.2335,231.607,584.4001,231.9262L584.4001,231.9262z"/>
		</g>
	</g>
	<g>
		<g>
			<path class="st4" d="M490.8519,202.8493c4.972-3.6953,11.8616-0.9542,11.3876,5.6597c-0.1049,1.4639,1.7274,2.4228,2.918,1.6745
				c6.2032-3.8985,15.4499-0.8003,17.7815,6.2487c0.3936,1.19,1.7526,1.8531,2.8928,1.1769
				c10.8782-6.4519,26.143-9.3366,37.2048-1.6777c5.9232,4.1011,9.3854,10.7891,10.9823,17.6685
				c1.9786,8.5241,0.7029,17.0999,0.2459,25.7004c-0.105,1.9763,3.0802,2.4402,3.4835,0.4715
				c3.278-16.0012,2.2581-36.7887-12.3909-47.105c-12.2576-8.6323-29.3734-5.698-41.5135,1.5416
				c0.9643,0.3923,1.9286,0.7846,2.8928,1.1769c-3.1171-9.3488-15.119-13.869-23.5368-8.5507
				c0.9727,0.5582,1.9453,1.1163,2.918,1.6745c0.6367-9.1906-10.546-14.9554-17.3111-8.3101
				C487.4828,201.4997,489.2771,204.0197,490.8519,202.8493L490.8519,202.8493z"/>
		</g>
	</g>
	<g>
		<g>
			<path class="st4" d="M434.5901,207.6053c6.9379-3.9,15.3915-6.8568,23.0922-3.0996c3.1038,1.5144,5.667,4.0268,7.2941,7.0675
				c1.7509,3.272,1.6403,6.4379,1.5544,10.032c-0.0396,1.6566,2.4061,2.3839,3.1883,0.8635
				c4.0296-7.8326-2.7649-17.7924-9.6687-21.3347c-8.7599-4.4946-20.0763-2.2282-27.581,3.7227
				C430.8759,206.1203,432.9118,208.5487,434.5901,207.6053L434.5901,207.6053z"/>
		</g>
	</g>
	<g>
		<g>
			<path class="st4" d="M557.1544,254.0049c0.0776-0.136,3.043,4.3435,3.333,4.8906c1.0085,1.9026,1.9176,3.8615,2.6301,5.895
				c1.5071,4.3009,2.2571,8.9044,1.6698,13.4519c-0.9827,7.6103-5.8881,14.036-12.9303,17.0316
				c-1.8248,0.7762-0.4925,3.5569,1.3124,3.1129c10.426-2.565,16.1425-13.9009,15.7823-24.0246
				c-0.2164-6.0825-2.2305-12.0919-5.274-17.3316c-1.1694-2.0132-2.4142-4.4906-4.5911-5.5757
				c-1.6517-0.8233-3.481-0.6037-4.3472,1.1382C553.9446,254.1916,556.2539,255.5835,557.1544,254.0049L557.1544,254.0049z"/>
		</g>
	</g>
	<g>
		<g>
			<path class="st5" d="M306.6789,115.9093c1.6604-2.5501,2.2632-5.5723,4.0579-8.0965c1.7963-2.5266,4.1241-4.6116,6.8729-6.0524
				c1.4919-0.782,3.2466-1.4813,4.9386-1.6302c0.9005-0.0792,4.2272,0.3649,3.3193,2.1147c-0.495,0.954-4.0648,1.1667-5.0226,1.4091
				c-2.2038,0.5575-4.4032,1.1331-6.6047,1.6995c0.7613,1.3078,1.5226,2.6156,2.2839,3.9234
				c1.3843-1.6222,2.8819-3.1282,4.5869-4.4152c1.5641-1.1806,3.3973-1.8743,4.4762-3.5521
				c0.8193-1.2741-0.2616-2.9021-1.6797-2.9272c-2.1801-0.0385-3.9923,1.4914-5.6603,2.7673
				c-1.8619,1.4242-3.5269,3.0204-5.0428,4.8075c-1.468,1.7306-0.1066,4.5461,2.2839,3.9234
				c3.2992-0.8594,6.6073-1.6904,9.8891-2.6146c2.1354-0.6014,4.1373-1.505,4.7433-3.8486
				c1.3418-5.1894-4.0001-8.0453-8.3811-7.4451c-4.6595,0.6383-9.1027,3.4139-12.2318,6.8503
				c-2.8726,3.1547-6.2076,8.3531-4.9992,12.8031C304.7862,116.6483,306.1336,116.7467,306.6789,115.9093L306.6789,115.9093z"/>
		</g>
	</g>
	<g>
		<g>
			<path class="st5" d="M463.2248,148.5993c1.8589-1.6793,5.1113-1.6564,6.5241,0.5821c0.6089-1.0611,1.2178-2.1222,1.8268-3.1833
				c-1.051,0.0955-2.102,0.1909-3.153,0.2864c-1.9247,0.1748-3.131,2.9309-1.0765,3.9744c2.1186,1.0761,4.1947,2.3506,6.5752,2.6404
				c1.5748,0.1917,2.155-1.9653,1.2209-2.9474c-1.5133-1.5911-3.6999-2.4156-5.6431-3.3762
				c-0.3588,1.3248-0.7177,2.6496-1.0765,3.9744c1.051-0.1069,2.102-0.2139,3.153-0.3208c1.4879-0.1514,2.7763-1.7145,1.8267-3.1833
				c-2.9455-4.5561-9.7387-5.1273-12.9998-0.624C459.1547,148.1452,461.7831,149.9017,463.2248,148.5993L463.2248,148.5993z"/>
		</g>
	</g>
	<g>
		<g>
			<path class="st5" d="M581.689,138.7852c0.2988-1.644,2.4121,0.7292,2.7383,1.201c0.7445,1.077,1.356,2.2163,2.2111,3.2174
				c1.9368,2.2675,4.6201,3.6302,7.1057,5.1898c2.69,1.6878,4.6647,3.5826,4.576,6.8497c-0.0629,2.3137,1.7301,3.9259,4.1146,3.3766
				c6.7912-1.5645,0.4675-10.3349-1.5955-13.2097c-1.7314-2.4128-3.6304-4.7148-5.7034-6.8421
				c-2.0751-2.1295-4.4837-4.8225-7.3141-5.8624c-1.6314-0.5994-3.3134,1.5777-2.3116,3.0069
				c1.2114,1.7279,3.0629,2.9057,4.5997,4.3479c1.4174,1.3301,2.767,2.7321,4.0394,4.2016
				c1.3278,1.5334,2.5589,3.1422,3.6948,4.8225c0.622,0.9202,1.2166,1.8589,1.7821,2.8148c0.2828,0.478,0.5584,0.9601,0.8267,1.4464
				c0.1561,1.1061,0.8331,1.5573,2.031,1.3534c0.0765,0.5851,0.1531,1.1702,0.2296,1.7554c0.8277-3.5608-0.608-6.8327-3.1677-9.3217
				c-2.73-2.6546-6.6078-3.764-9.2547-6.4786c-2.2497-2.3072-3.2806-5.903-6.8988-6.4202
				c-2.7324-0.3906-5.2353,1.2037-5.4323,4.0467C577.8138,140.3912,581.3047,140.8997,581.689,138.7852L581.689,138.7852z"/>
		</g>
	</g>
	<g>
		<g>
			<path class="st6" d="M343.553,135.6727c1.1859-1.1591,4.7048-5.4242,6.2139-2.4134c0.725,1.4464,2.7539,1.209,3.5369,0
				c0.5105-0.7882,1.1802-1.0796,1.9254-1.5982c1.3906-0.9678,1.0591-3.6132-0.9424-3.4794
				c-2.0575,0.1375-3.4395,1.3043-4.52,3.0102c1.179,0,2.358,0,3.5369,0c-1.1556-2.2486-3.6741-3.2614-6.1252-2.8573
				c-2.8705,0.4732-5.0052,2.78-6.4355,5.17C339.6923,135.2607,342.1035,137.0894,343.553,135.6727L343.553,135.6727z"/>
		</g>
	</g>
	<g>
		<g>
			<path class="st6" d="M370.4138,138.8866c3.5791-3.9838,10.3025,0.4718,14.4578,0.8496c1.9294,0.1754,2.4877-2.6337,0.9542-3.5231
				c-2.9955-1.7375-7.2739-2.7997-10.7449-3.009c-3.1512-0.19-5.7988,0.8037-7.7101,3.3346
				C366.0464,138.2925,368.9544,140.5111,370.4138,138.8866L370.4138,138.8866z"/>
		</g>
	</g>
	<g>
		<g>
			<path class="st6" d="M392.0015,137.367c0.6634,1.3043,1.5201,2.7036,2.6035,3.7011c0.5613,0.5169,1.4093,0.6075,2.0208,0.1203
				c0.6498-0.5176,0.7047-1.2562,0.3964-1.9854c-0.5693-1.3465-1.6343-2.6255-2.628-3.6822
				C393.1649,134.2137,391.2416,135.8729,392.0015,137.367L392.0015,137.367z"/>
		</g>
	</g>
	<g>
		<g>
			<path class="st6" d="M410.3935,157.7469c0.6071-0.259,1.3855,0.199,1.8149,0.603c0.589,0.5541,0.7156,1.1411,0.5846,1.7905
				c-0.401,1.9866,2.0753,3.025,3.2271,1.3605c1.3999-2.0229,0.2831-4.5928-1.4797-5.9686
				c-1.7854-1.3934-4.1419-1.5931-5.8889-0.0432c-0.5357,0.4753-0.5249,1.3528-0.1124,1.8875
				C409.0113,157.9886,409.7225,158.0332,410.3935,157.7469L410.3935,157.7469z"/>
		</g>
	</g>
	<g>
		<g>
			<path class="st6" d="M459.7653,162.3773c0.4579-0.6149,1.5311-0.8113,2.1214-0.6755c2.3307,0.5362,3.2841-2.8854,0.9886-3.5859
				c-2.4292-0.7413-4.9199,0.3027-6.2536,2.4239c-0.5234,0.8324-0.1758,2.0057,0.653,2.4905
				C458.2029,163.5733,459.1764,163.1683,459.7653,162.3773L459.7653,162.3773z"/>
		</g>
	</g>
	<g>
		<g>
			<path class="st6" d="M425.3062,158.6218c1.7599-0.9167,3.9349-2.7901,6.066-2.2327c1.7156,0.4487,2.3543,2.3595,4.2459,2.6696
				c1.6985,0.2784,2.9246-0.5279,4.407-1.1564c2.3259-0.9861,4.7353-0.7916,6.9247,0.4276c0.1835-1.404,0.367-2.808,0.5505-4.212
				c-4.9307,0.9734-9.9605,1.4258-14.9872,1.3394c-1.7211-0.0296-3.4525-1.0241-5.1049-0.2486
				c-1.6189,0.7597-2.1629,2.37-1.7456,4.0022c0.5573,2.18,3.4212,1.8638,4.1133,0c-0.5696,0.2987-0.623,0.4556-0.1599,0.4706
				c0.2901,0.0676,0.5839,0.1142,0.8812,0.1397c0.8187,0.0939,1.6698,0.1096,2.4914,0.1432
				c1.743,0.0711,3.4875,0.0701,5.2301-0.0122c3.5359-0.167,7.0423-0.6751,10.507-1.39c1.9462-0.4016,2.2334-3.2937,0.5505-4.212
				c-2.2637-1.2352-4.7429-1.8586-7.3292-1.579c-1.2054,0.1303-2.3532,0.4295-3.4649,0.9105
				c-0.3432,0.1485-1.8444,1.0896-2.189,1.0392c-0.3898-0.0571-0.8548-0.763-1.1414-0.9945
				c-3.947-3.1889-9.2022-0.6433-11.7908,2.9501C422.4707,157.912,424.1523,159.2228,425.3062,158.6218L425.3062,158.6218z"/>
		</g>
	</g>
	<g>
		<g>
			<path class="st6" d="M479.5141,158.597c0.0946-0.6036,3.741,0.5021,4.5499,0.431c1.5-0.1318,2.4966-1.0282,3.6194-1.9215
				c1.5744-1.2525,3.0114-2.3037,4.9134-1.1331c1.3507,0.8313,2.3578,1.3316,4.0003,0.8109c3.4813-1.1036,5.9001-4.08,8.3569-6.5324
				c0.7615-0.7601,0.946-0.8492,1.8964-0.9996c1.0198-0.1613,2.0292-0.0211,3.0514-0.3247
				c1.6328-0.4849,2.7448-1.5683,3.7274-2.9155c0.8494-1.1647-0.5851-3.1161-1.9587-2.5478
				c-2.1304,0.8813-3.8878,0.8377-6.108,0.9323c-2.1578,0.0919-3.1696,1.6537-4.6591,2.9472
				c-1.4384,1.2492-2.9878,2.4912-4.5608,3.5704c-0.4485,0.2994-0.9005,0.5935-1.3558,0.8823c0.9727,0.388,1.073,0.334,0.3008-0.162
				c-0.7239-0.5874-1.7142-0.8807-2.6126-1.0356c-1.8442-0.3179-3.7839,0.1754-5.3572,1.164
				c-0.561,0.3525-1.1282,0.8205-1.6172,1.2656c-0.5773,0.5254-1.2373,1.7234-1.9243,2.0575
				c-1.559,0.7582-3.5273-0.7874-5.3103,0.0198c-1.2975,0.5874-2.0528,1.655-1.9596,3.0839
				C476.611,159.7948,479.2303,160.4068,479.5141,158.597L479.5141,158.597z"/>
		</g>
	</g>
	<g>
		<g>
			<path class="st6" d="M518.6956,142.5248c0.952-0.3792,1.9839-0.6745,2.7511-1.3811c0.5225-0.4812,0.6488-1.4251,0.2614-2.026
				c-0.4335-0.6724-1.1214-0.8925-1.8881-0.7683c-0.8575,0.1389-1.6532,0.7333-2.3947,1.1625
				c-0.7123,0.4123-0.9888,1.3135-0.6744,2.0585C517.0409,142.2576,517.9303,142.8297,518.6956,142.5248L518.6956,142.5248z"/>
		</g>
	</g>
	<g>
		<g>
			<path class="st6" d="M540.7037,141.6625c0.6204-0.4472,1.6554-1.374,2.4124-1.4905c0.5798-0.0892,1.2227,0.303,1.7916,0.3677
				c0.9561,0.1088,1.7098-0.0551,2.5859-0.4429c1.2413-0.5494,0.8322-0.5415,1.8884-0.2156
				c1.3967,0.4309,2.4806,0.3576,3.8773-0.052c6.0139-1.7635,11.6825-4.439,18.0533-3.3354
				c1.6898,0.2927,3.4617-1.8305,1.8623-3.1991c-2.5975-2.2227-5.9676-2.0164-9.1434-1.3288
				c-3.6098,0.7816-7.1823,1.9873-10.6358,3.2833c-0.7435,0.279-1.6075,0.8194-2.4054,0.8421
				c-0.6154,0.0175-1.1246-0.3565-1.7551-0.4237c-1.1581-0.1235-1.8704,0.421-2.83,0.9253c-1.2586,0.6614-2.0769-0.013-3.441,0.1483
				c-1.6874,0.1996-3.0225,1.2651-4.1445,2.4794C537.6829,140.451,539.2053,142.7426,540.7037,141.6625L540.7037,141.6625z"/>
		</g>
	</g>
</g>
<g id="Layer_2">
	<g>
		<g>
			<path class="st9" d="M346.7092,30.9002c0.1982,21.6098,0.5012,43.2178,0.8219,64.8262c0.0052,0.3483,0.2869,0.6284,0.6352,0.6352
				c11.7249,0.2266,23.4474,0.256,35.173,0.0434c3.6867-0.0669,8.39,0.3829,11.5561-1.9423
				c3.7039-2.7202,2.4538-8.5891,2.4005-12.5284c-0.1576-11.6496-0.1717-23.3117-0.5119-34.9575
				c-0.1588-5.434-0.474-10.8921-1.3737-16.2604c-0.2345-1.3988-0.4077-2.8182-1.9217-3.3321
				c-1.9845-0.6737-5.2164,0.1225-7.2635,0.2343c-13.4149,0.7329-26.8298,1.466-40.244,2.2113
				c-0.9487,0.0527-0.9547,1.5359,0,1.4824c10.4703-0.5863,20.9402-1.1795,31.4099-1.7755
				c2.4539-0.1397,4.9078-0.2794,7.3617-0.4191c1.1452-0.0652,2.2903-0.1304,3.4355-0.1956
				c1.2806-0.0729,3.3041-0.6057,4.5273-0.2387c1.9895,0.597,1.7902,5.3361,1.9639,6.9195
				c0.2933,2.6745,0.4729,5.3608,0.5943,8.0481c0.4579,10.141,0.3906,20.3188,0.5279,30.4682
				c0.0685,5.0607,0.634,10.3938,0.1614,15.4324c-0.5759,6.1397-8.1341,5.3852-12.6236,5.4725
				c-11.7211,0.2278-23.451,0.2531-35.173,0.0669c0.2117,0.2117,0.4235,0.4234,0.6352,0.6352
				c-0.3557-21.6099-0.7292-43.2188-1.2075-64.8262C347.5814,30.3319,346.704,30.3293,346.7092,30.9002L346.7092,30.9002z"/>
		</g>
	</g>
	<g>
		<g>
			<path class="st9" d="M364.8881,41.1621c3.3452,0.0957,6.8588-0.6412,10.1723-0.1478c0.9219,0.1373,1.3286-1.1368,0.3941-1.4295
				c-1.5584-0.4879-3.239-0.2009-4.8474-0.1085c-1.9062,0.1096-3.8246,0.1726-5.719,0.4143
				C364.0992,39.9913,364.0452,41.138,364.8881,41.1621L364.8881,41.1621z"/>
		</g>
	</g>
	<g>
		<g>
			<path class="st9" d="M360.0128,44.682c6.5125,0.0471,13.3681-0.0406,19.8111-1.0394c0.6518-0.1011,0.4832-1.139-0.1534-1.1337
				c-6.5098,0.0544-13.1663,0.7848-19.6577,1.3176C359.4716,43.8709,359.4542,44.678,360.0128,44.682L360.0128,44.682z"/>
		</g>
	</g>
	<g>
		<g>
			<path class="st9" d="M356.4193,52.5564c-0.089-0.0398-0.178-0.0795-0.2671-0.1193c-0.1856,0.3234-0.3712,0.6469-0.5568,0.9703
				c5.0804,0.0062,10.1653-0.2076,15.2461-0.2631c5.0686-0.0553,10.1916,0.1767,15.2497-0.1566
				c0.7638-0.0503,0.7588-1.1231,0-1.1836c-5.0466-0.4023-10.1913-0.1543-15.2497-0.0879
				c-5.0764,0.0666-10.1784,0.0815-15.2461,0.4015c-0.8404,0.0531-0.8175,1.2033,0,1.2897
				c0.3607,0.0381,0.4571,0.0175,0.8239-0.0318C356.8338,53.3199,356.8156,52.6295,356.4193,52.5564L356.4193,52.5564z"/>
		</g>
	</g>
	<g>
		<g>
			<path class="st9" d="M355.5954,56.5058c9.6553,0.0754,19.3556,0.1734,29.0095,0.0803c0.7621-0.0074,0.7448-1.1164,0-1.1719
				c-9.5508-0.712-19.4583-0.621-29.0095,0.0603C354.9404,55.5212,354.9241,56.5005,355.5954,56.5058L355.5954,56.5058z"/>
		</g>
	</g>
	<g>
		<g>
			<path class="st9" d="M355.5954,59.9467c9.9267-0.6281,19.8602-0.4926,29.7911-0.0563c0.6973,0.0306,0.6866-1.0299,0-1.0781
				c-9.926-0.6966-19.873-0.4629-29.7911,0.2379C355.024,59.0906,355.0174,59.9833,355.5954,59.9467L355.5954,59.9467z"/>
		</g>
	</g>
	<g>
		<g>
			<path class="st9" d="M355.5954,62.3366c9.6334-0.4793,19.1628-0.8766,28.8136-0.6137c0.7654,0.0209,0.7562-1.1406,0-1.1836
				c-9.5708-0.5438-19.4279-0.4158-28.9335,0.911C354.9723,61.5206,355.0918,62.3617,355.5954,62.3366L355.5954,62.3366z"/>
		</g>
	</g>
	<g>
		<g>
			<path class="st9" d="M355.5954,65.6717c1.9453,0.045,3.8983-0.0379,5.8459-0.0106c0.7789,0.0109,0.7654-1.1521,0-1.2012
				c-1.9767-0.1268-4.0266-0.1438-5.9893,0.1529C354.8344,64.7062,355.0098,65.6582,355.5954,65.6717L355.5954,65.6717z"/>
		</g>
	</g>
	<g>
		<g>
			<path class="st9" d="M357.0895,77.9346c1.9209,0.047,4.1494,0.1557,6.0271-0.2694c0.8186-0.1853,0.525-1.2573-0.1823-1.3466
				c-1.8492-0.2335-3.9958,0.0927-5.8448,0.3152C356.2797,76.7313,356.2295,77.9136,357.0895,77.9346L357.0895,77.9346z"/>
		</g>
	</g>
	<g>
		<g>
			<path class="st9" d="M377.3221,77.8678c2.1467-0.1551,4.3057-0.4721,6.446-0.7157c0.818-0.0931,0.8611-1.3538,0-1.3125
				c-2.1754,0.1045-4.4914,0.3435-6.5978,0.9061C376.5639,76.9076,376.6651,77.9153,377.3221,77.8678L377.3221,77.8678z"/>
		</g>
	</g>
	<g>
		<g>
			<path class="st9" d="M380.0603,79.6904c1.1551-0.1306,2.308-0.2624,3.4589-0.4264c0.6279-0.0895,0.4866-1.1799-0.1511-1.1164
				c-1.1056,0.11-2.2059,0.2523-3.3078,0.3943C379.3414,78.6346,379.3214,79.7739,380.0603,79.6904L380.0603,79.6904z"/>
		</g>
	</g>
	<g>
		<g>
			<path class="st17" d="M370.1908,76.1441c-2.799,0.525-4.0135,3.7278-3.936,6.3083c0.0992,3.3055,2.6125,4.7087,5.6278,5.0457
				c2.8625,0.32,6.2788-0.8536,6.8261-4.042c0.5474-3.189-2.1232-5.7941-5.0937-6.2836c-0.8801-0.1451-1.2635,1.0932-0.3754,1.3617
				c2.1458,0.6487,4.573,2.1791,3.994,4.8347c-0.6006,2.755-3.988,2.9713-6.1839,2.5291c-2.4693-0.4973-3.6628-2.0289-3.3812-4.5835
				c0.209-1.8967,1.0424-3.5813,2.8608-4.3671C371.0143,76.7378,370.6462,76.0587,370.1908,76.1441L370.1908,76.1441z"/>
		</g>
	</g>
	<g>
		<g>
			<path class="st17" d="M368.9084,82.889c1.6832-0.9242,3.4164-1.7055,5.2673-2.2277c-0.1638-0.3887-0.3277-0.7774-0.4916-1.1661
				c-1.7841,1.0845-3.1986,2.7392-4.2446,4.527c-0.3057,0.5225,0.1969,1.0865,0.7472,0.972
				c1.7375-0.3616,3.3701-0.9718,4.9119-1.8499c0.7128-0.406,0.0791-1.484-0.6418-1.0979
				c-1.4676,0.7861-2.9914,1.3399-4.6219,1.6717c0.2491,0.324,0.4981,0.648,0.7472,0.972c1.0144-1.7164,2.3241-2.969,3.8751-4.1929
				c0.5007-0.3951-0.0412-1.2703-0.6207-1.0663c-1.9083,0.6717-3.7374,1.4814-5.4427,2.5777
				C367.8434,82.3626,368.3301,83.2065,368.9084,82.889L368.9084,82.889z"/>
		</g>
	</g>
	<g>
		<g>
			<path class="st9" d="M412.706,30.7756c-0.1702,20.6972,0.1284,41.4027,0.1867,62.1003c0.0013,0.4616,0.413,0.6915,0.8242,0.6279
				c14.607-2.2603,29.2739-1.0491,43.9049,0.283c0.3369,0.0307,0.668-0.3227,0.6498-0.6498
				c-1.0614-19.031-1.1988-38.1314-0.6057-57.1807c0.0574-1.8455,1.1014-5.8277-1.545-6.31
				c-2.0668-0.3767-4.868,0.4047-6.9742,0.5516c-2.4341,0.1697-4.8701,0.3111-7.3082,0.4085
				c-9.4307,0.3768-18.8759,0.1479-28.2821-0.6165c-0.925-0.0752-0.919,1.3652,0,1.4414
				c8.7596,0.7265,17.5458,0.9616,26.3312,0.6606c4.2285-0.1449,8.4514-0.411,12.6641-0.8052
				c0.7486-0.0701,2.2838-0.5529,2.9149-0.292c1.4348,0.5932,0.9803,1.8538,0.9425,2.9903
				c-0.0765,2.2999-0.1417,4.6001-0.195,6.9006c-0.4038,17.4276-0.0687,34.8413,0.758,52.2514
				c0.2166-0.2166,0.4332-0.4332,0.6497-0.6498c-14.7911-1.4697-29.4855-2.5655-44.2511-0.2392
				c0.2747,0.2093,0.5495,0.4186,0.8242,0.6279c-0.1154-20.6976,0.0092-41.4051-0.3346-62.1003
				C413.848,30.0334,412.7121,30.0312,412.706,30.7756L412.706,30.7756z"/>
		</g>
	</g>
	<g>
		<g>
			<path class="st9" d="M473.7051,30.4529c3.8512,19.8219,0.5593,40.1385,1.314,60.136c0.012,0.3187,0.2911,0.6984,0.6526,0.6526
				c13.9923-1.7736,28.1296-1.6509,42.1037,0.2207c0.3993,0.0535,0.7289-0.3802,0.735-0.735
				c0.35-20.1904,0.431-40.3954,0.05-60.5861c-0.0073-0.3871-0.325-0.7266-0.7222-0.7222
				c-14.1212,0.1566-28.244,0.1651-42.3654,0.3117c-0.9382,0.0097-0.9407,1.4634,0,1.459
				c14.122-0.0661,28.2434-0.2702,42.3654-0.3262c-0.2407-0.2407-0.4815-0.4815-0.7222-0.7222
				c0.2371,20.1973,0.2763,40.3895-0.0756,60.5861c0.245-0.245,0.49-0.49,0.735-0.735c-13.99-1.875-28.108-1.8451-42.1037-0.056
				c0.2176,0.2175,0.4351,0.4351,0.6526,0.6526c-0.7824-20.1614,2.214-40.3984-1.8395-60.351
				C474.3811,29.7273,473.6064,29.9446,473.7051,30.4529L473.7051,30.4529z"/>
		</g>
	</g>
	<g>
		<g>
			<path class="st9" d="M534.8403,30.9388c0.0086,20.3335,2.4073,40.5823,1.4471,60.9314c-0.0225,0.4771,0.4484,0.722,0.8569,0.6527
				c10.9767-1.8621,21.9459-0.6712,32.9854-0.3012c2.6959,0.0903,5.394,0.1264,8.0901,0.028
				c1.5377-0.0561,4.5024,0.3369,5.7731-0.8035c1.0667-0.9574,0.5629-3.0711,0.5244-4.3004
				c-0.0881-2.8141-0.1763-5.6283-0.2644-8.4424c-0.3525-11.2563-0.6886-22.5131-1.032-33.7697
				c-0.0859-2.8141-0.1718-5.6283-0.2576-8.4424c-0.0404-1.3243-0.0799-2.6487-0.1235-3.9729
				c-0.0289-0.8785,0.1839-2.2868-0.1804-3.129c-0.4287-0.9914-1.1988-0.9841-2.184-0.9819
				c-2.956,0.0067-5.9238,0.1826-8.8786,0.2716c-12.6602,0.3813-25.3203,0.7627-37.9805,1.144
				c-0.9142,0.0275-0.9179,1.4523,0,1.4238c10.1939-0.3162,20.3878-0.6324,30.5817-0.9486c4.9325-0.153,9.8649-0.3129,14.7975-0.459
				c1.6373-0.0485,2.1775-0.4819,2.3837,1.1893c0.1402,1.1359,0.0648,2.33,0.0999,3.4763c0.0809,2.6486,0.163,5.2972,0.2446,7.9458
				c0.3159,10.2633,0.6319,20.5267,0.9478,30.79c0.0764,2.483,0.1517,4.9661,0.2261,7.4492
				c0.0748,2.4945,0.6287,5.4894,0.2382,7.9458c-0.1816,1.1424,0.3871,0.6127-0.783,1.4386
				c-0.7533,0.5317-1.3643,0.4882-2.2348,0.5376c-1.1069,0.0628-2.215,0.1022-3.3235,0.1231
				c-2.5397,0.0477-5.0798,0.0036-7.6182-0.0865c-10.7827-0.3829-21.7185-1.6269-32.3919,0.5691
				c0.2856,0.2176,0.5712,0.4352,0.8568,0.6527c0.9502-20.2882-0.8222-40.67-1.758-60.9314
				C535.8525,30.2718,534.8401,30.2635,534.8403,30.9388L534.8403,30.9388z"/>
		</g>
	</g>
	<g>
		<g>
			<path class="st9" d="M350.2344,122.8893c-0.0067-4.0123-0.1562-8.0272-0.3027-12.0366
				c-0.2157,0.2157-0.4314,0.4314-0.6472,0.6472c13.1006-0.003,26.2014,0.0679,39.3019,0.1141
				c1.8921,0.0067,3.7842,0.0108,5.6762,0.0261c-0.2262-0.2262-0.4523-0.4523-0.6785-0.6785
				c-0.1909,6.7581-0.3013,13.5649,0.0329,20.3187c0.0443,0.8951,1.4246,0.9059,1.4004,0
				c-0.1811-6.773-0.1907-13.5443-0.0763-20.3187c0.0062-0.3659-0.3159-0.6797-0.6785-0.6785
				c-13.0996,0.0427-26.2024,0.0118-39.3019-0.0488c-1.8921-0.0088-3.7842-0.0192-5.6763-0.0288
				c-0.3418-0.0017-0.6581,0.2979-0.6472,0.6472c0.1253,4.0125,0.2483,8.0307,0.5131,12.0366
				C349.196,123.5786,350.2356,123.5941,350.2344,122.8893L350.2344,122.8893z"/>
		</g>
	</g>
	<g>
		<g>
			<path class="st9" d="M414.9293,152.1709c0.6565-13.8025,0.6074-27.6389,0.9764-41.4508
				c-0.1889,0.1889-0.3778,0.3778-0.5667,0.5667c10.5742,0.0554,21.217,0.0674,31.7643-0.7492
				c1.7283-0.1338,3.4508-0.3232,5.1723-0.5262c1.9425-0.2291,5.2335-1.216,5.3084,1.547c0.065,2.3964,0.0864,4.795,0.1141,7.1921
				c0.0771,6.6726,0.0119,13.3482,0.0041,20.021c-0.0074,6.2554-0.1645,12.5432,0.2172,18.7901c0.0433,0.7089,1.119,0.7229,1.1133,0
				c-0.103-12.8478-0.0845-25.6984-0.0919-38.5469c-0.0014-2.54,0.0179-5.0834-0.0712-7.6224
				c-0.0318-0.9057,0.0728-2.0169-0.6657-2.6806c-1.3912-1.2503-4.3321-0.1896-5.9283-0.0008
				c-7.0686,0.8365-14.175,1.0564-21.2861,1.2296c-5.2154,0.127-10.4334,0.2039-15.6505,0.2128
				c-0.3109,0.0005-0.5607,0.2593-0.5667,0.5667c-0.273,13.8139-0.9653,27.6329-0.9503,41.4508
				C413.8226,152.8869,414.8955,152.8801,414.9293,152.1709L414.9293,152.1709z"/>
		</g>
	</g>
	<g>
		<g>
			<path class="st9" d="M478.0054,152.1709c0.2012-11.2334-0.3481-22.4737-0.0437-33.7087c0.0347-1.2825,0.0762-2.565,0.1366-3.8466
				c0.0227-0.4824-0.1599-2.6888,0.1884-3.0077c0.2213-0.2027,3.2076-0.114,3.7043-0.1519c1.1674-0.089,2.3366-0.1502,3.5066-0.1914
				c2.3819-0.0839,4.766-0.0789,7.1487-0.0445c9.2464,0.1335,18.557,0.7745,27.7053-0.9401
				c-0.2819-0.2147-0.5637-0.4294-0.8455-0.6441c-0.4733,8.4376-0.2316,16.9147-0.4094,25.3626
				c-0.0157,0.7459,1.0769,0.7205,1.1426,0c0.7677-8.4232,0.1292-16.9204,0.6027-25.3626c0.0261-0.4655-0.4457-0.7191-0.8456-0.6441
				c-14.0273,2.6291-28.3764-0.3135-42.461,1.7174c-0.2791,0.0402-0.4314,0.3468-0.4516,0.5932
				c-0.5757,7.0069-0.4412,14.1235-0.4554,21.1482c-0.0132,6.5644-0.0779,13.1614,0.2284,19.7205
				C476.8913,152.9062,477.9921,152.9139,478.0054,152.1709L478.0054,152.1709z"/>
		</g>
	</g>
	<g>
		<g>
			<path class="st9" d="M539.9407,135.2024c0.0299-5.8176-0.1121-11.6373-0.2134-17.4538c-0.0254-1.4545-0.0507-2.909-0.0761-4.3634
				c-0.0176-1.0097-0.545-3.5692-0.076-4.3634c0.6547-1.109,3.2283-0.5261,4.2393-0.4961c1.4579,0.0433,2.9161,0.0765,4.3746,0.0901
				c11.6699,0.1089,23.3364-0.5979,34.9133-2.0612c-0.2268-0.2268-0.4537-0.4537-0.6805-0.6805
				c-0.123,6.5151-0.4783,13.0747-0.2805,19.5888c0.022,0.7259,1.0682,0.7139,1.1191,0c0.4639-6.5023,0.3784-13.0724,0.5224-19.5888
				c0.0074-0.3351-0.3196-0.725-0.6805-0.6805c-13.2,1.6255-26.4771,2.2991-39.7739,2.0425
				c-1.2077-0.0233-3.8488-0.6592-4.7419,0.6252c-0.4052,0.5826-0.2362,1.4877-0.2308,2.1303
				c0.0137,1.616,0.0563,3.2325,0.0845,4.8483c0.1183,6.7867,0.1744,13.5801,0.4458,20.3627
				C538.913,135.878,539.9371,135.8845,539.9407,135.2024L539.9407,135.2024z"/>
		</g>
	</g>
	<g>
		<g>
			<path class="st9" d="M430.0374,40.851c2.2173,0.4697,4.542,0.588,6.794,0.3516c0.8798-0.0923,0.9221-1.4389,0-1.4062
				c-2.2314,0.0791-4.3994-0.0102-6.6188-0.2402C429.475,39.4798,429.3146,40.6979,430.0374,40.851L430.0374,40.851z"/>
		</g>
	</g>
	<g>
		<g>
			<path class="st9" d="M426.6333,43.9654c4.5717,0.8431,9.394,1.2296,14.0348,1.4105c0.9734,0.038,0.9238-1.3756,0-1.4824
				c-4.5598-0.5271-9.3333-0.8872-13.9226-0.7568C426.2906,43.1497,426.1469,43.8757,426.6333,43.9654L426.6333,43.9654z"/>
		</g>
	</g>
	<g>
		<g>
			<path class="st9" d="M447.8213,37.9335c1.2944,0.2315,2.569,0.194,3.803-0.2849c0.6688-0.2595,0.4232-1.2509-0.3006-1.0905
				c-1.108,0.2456-2.2158,0.346-3.3458,0.2186C447.3232,36.703,447.1688,37.8168,447.8213,37.9335L447.8213,37.9335z"/>
		</g>
	</g>
	<g>
		<g>
			<path class="st9" d="M418.7266,55.0375c9.4828,0.0143,19.0886-0.6253,28.5503-1.2431c0.779-0.0509,0.7948-1.2455,0-1.2246
				c-9.4807,0.2494-19.1061,0.4927-28.5503,1.372C418.037,54.006,418.0086,55.0364,418.7266,55.0375L418.7266,55.0375z"/>
		</g>
	</g>
	<g>
		<g>
			<path class="st9" d="M418.7266,57.8714c4.4938,0.2784,9.0807-0.0525,13.5819-0.1342c4.5287-0.0822,9.0554-0.1699,13.5819-0.3334
				c0.7622-0.0275,0.7688-1.1951,0-1.1895c-4.5288,0.0334-9.0545,0.1425-13.5819,0.2573
				c-4.5029,0.1141-9.1022-0.0159-13.5819,0.4565C418.1299,56.991,418.1105,57.8333,418.7266,57.8714L418.7266,57.8714z"/>
		</g>
	</g>
	<g>
		<g>
			<path class="st9" d="M418.7266,60.9116c8.6539,1.106,17.7841,0.715,26.4604,0.0636c0.7811-0.0586,0.7978-1.2672,0-1.2305
				c-8.8391,0.4064-17.63,0.0472-26.4604,0.1943C418.0823,59.9496,418.1233,60.8345,418.7266,60.9116L418.7266,60.9116z"/>
		</g>
	</g>
	<g>
		<g>
			<path class="st9" d="M418.7266,64.1607c9.3632,0.5853,18.8269,0.5828,28.2013,0.302c0.8345-0.025,0.8401-1.3085,0-1.3008
				c-9.4054,0.0864-18.7974-0.0524-28.2013-0.1028C418.0122,63.0553,418.0242,64.1168,418.7266,64.1607L418.7266,64.1607z"/>
		</g>
	</g>
	<g>
		<g>
			<path class="st9" d="M418.7266,67.38c4.615,0.4285,9.2912,0.4834,13.9235,0.5448c0.7608,0.0101,0.7546-1.1439,0-1.1777
				c-4.6253-0.2073-9.2945-0.4246-13.9235-0.2635C418.1417,66.5038,418.1589,67.3272,418.7266,67.38L418.7266,67.38z"/>
		</g>
	</g>
	<g>
		<g>
			<path class="st9" d="M418.7266,73.0071c8.6447,0.6876,17.8683,0.1701,26.458-0.9374c0.7457-0.0961,0.7961-1.2478,0-1.207
				c-4.4077,0.2257-8.8047,0.594-13.2155,0.7742c-4.4108,0.1802-8.8367,0.0544-13.2425,0.2745
				C418.0167,71.9468,418.0269,72.9514,418.7266,73.0071L418.7266,73.0071z"/>
		</g>
	</g>
	<g>
		<g>
			<path class="st9" d="M418.7266,75.8564c3.2374,0.1888,6.5055,0.1042,9.7476,0.0967c0.7917-0.0018,0.7931-1.2286,0-1.2305
				c-3.2419-0.0075-6.5103-0.0921-9.7476,0.0967C418.0598,74.8582,418.0586,75.8175,418.7266,75.8564L418.7266,75.8564z"/>
		</g>
	</g>
	<g>
		<g>
			<path class="st9" d="M418.7266,83.5593c2.786-0.0565,5.5706-0.1931,8.3512-0.3707c0.765-0.0489,0.778-1.2304,0-1.2012
				c-2.7861,0.1046-5.5721,0.2508-8.3512,0.4762C418.0338,82.5198,418.0121,83.5738,418.7266,83.5593L418.7266,83.5593z"/>
		</g>
	</g>
	<g>
		<g>
			<path class="st9" d="M440.7069,84.9626c0.8788-1.1987,1.7296-2.4172,2.5867-3.6316c-0.3736-0.0488-0.7471-0.0976-1.1207-0.1465
				c0.3467,0.8473,0.5739,1.6583,0.6709,2.5753c0.0315,0.2978,0.1799,0.5237,0.4715,0.6193
				c1.3821,0.4529,2.0627-0.8299,3.313-1.0185c1.1132-0.1679,2.175,0.8058,2.9328-0.4076c0.4383-0.7018-0.6035-1.2454-1.0777-0.6299
				c-0.0155,0.0201-1.7697-0.4372-2.1459-0.3653c-0.867,0.1657-1.7956,1.4682-2.6808,1.1827
				c0.1572,0.2064,0.3143,0.4128,0.4715,0.6193c-0.1207-1.0936-0.3785-2.0464-0.8346-3.0478c-0.2026-0.4449-0.8318-0.3509-1.0589,0
				c-0.8048,1.2439-1.6158,2.4836-2.398,3.7418C439.4872,85.0162,440.3319,85.4742,440.7069,84.9626L440.7069,84.9626z"/>
		</g>
	</g>
	<g>
		<g>
			<path class="st9" d="M481.7443,40.3733c1.2043-0.1431,2.4075-0.2871,3.6089-0.4528c0.5695-0.0786,0.4414-1.0749-0.1371-1.0128
				c-1.1592,0.1243-2.3151,0.2706-3.4718,0.4168C481.0854,39.4078,481.0723,40.4532,481.7443,40.3733L481.7443,40.3733z"/>
		</g>
	</g>
	<g>
		<g>
			<path class="st9" d="M482.4404,42.8431c1.94-0.0667,3.8575-0.0473,5.7831,0.2355c0.6678,0.0981,0.9795-0.8918,0.2866-1.0396
				c-2.0628-0.4402-4.1218-0.5775-6.2169-0.2835C481.6729,41.8425,481.8247,42.8643,482.4404,42.8431L482.4404,42.8431z"/>
		</g>
	</g>
	<g>
		<g>
			<path class="st9" d="M501.2393,41.1815c3.0162-0.0508,6.0369-0.2003,9.0488-0.3654c0.8194-0.0449,0.83-1.3117,0-1.2832
				c-3.0157,0.1036-6.0389,0.2239-9.0488,0.4416C500.4736,40.0298,500.4538,41.1947,501.2393,41.1815L501.2393,41.1815z"/>
		</g>
	</g>
	<g>
		<g>
			<path class="st9" d="M503.5068,42.9149c1.4346,0.3153,2.8822,0.419,4.3416,0.2238c0.6802-0.091,0.7236-1.153,0-1.1016
				c-1.3631,0.0968-2.7137,0.0877-4.0674-0.1166C503.1418,41.824,502.845,42.7694,503.5068,42.9149L503.5068,42.9149z"/>
		</g>
	</g>
	<g>
		<g>
			<path class="st9" d="M480.0011,50.7404c3.8115,0.1447,7.6815,0.0098,11.4893-0.1969c0.905-0.0491,0.9195-1.4174,0-1.418
				c-3.8153-0.0024-7.6887,0.0713-11.4893,0.4196C479.2447,49.6144,479.2205,50.7107,480.0011,50.7404L480.0011,50.7404z"/>
		</g>
	</g>
	<g>
		<g>
			<path class="st9" d="M480.0011,55.8619c9.7741-0.5852,19.4564-0.5354,29.2267,0.1059c0.6689,0.0439,0.65-0.966,0-1.0312
				c-9.677-0.971-19.547-0.9645-29.2267-0.0238C479.4034,54.9708,479.3839,55.8988,480.0011,55.8619L480.0011,55.8619z"/>
		</g>
	</g>
	<g>
		<g>
			<path class="st9" d="M480.1133,58.5968c3.4913-1.3572,8.0037-0.3795,11.642-0.1145c4.1071,0.2991,8.2113,0.6373,12.315,0.9796
				c0.6912,0.0577,0.6782-1.0041,0-1.0723c-4.4262-0.4452-8.8596-0.7892-13.3012-1.0406
				c-3.5021-0.1982-7.5454-0.9658-10.8801,0.4342C479.4002,57.9883,479.6009,58.7959,480.1133,58.5968L480.1133,58.5968z"/>
		</g>
	</g>
	<g>
		<g>
			<path class="st9" d="M479.8796,60.458c9.1082,1.4078,18.8319,1.1136,27.9806,0.2852c0.7664-0.0694,0.7867-1.2612,0-1.2129
				c-9.344,0.5735-18.5235,0.1699-27.8591,0.0299C479.5011,59.5528,479.3595,60.3776,479.8796,60.458L479.8796,60.458z"/>
		</g>
	</g>
	<g>
		<g>
			<path class="st9" d="M480.0011,63.8762c8.3297,0.4229,16.7346,0.4001,25.0694,0.1457c0.6994-0.0214,0.7038-1.085,0-1.0898
				c-8.3501-0.0574-16.7202-0.1271-25.0694,0.0067C479.395,62.9484,479.4005,63.8457,480.0011,63.8762L480.0011,63.8762z"/>
		</g>
	</g>
	<g>
		<g>
			<path class="st9" d="M480.0011,66.0294c9.6013,0.533,19.2788,0.5865,28.8936,0.6262c0.8307,0.0034,0.8291-1.2688,0-1.2891
				c-9.6099-0.2346-19.2831-0.4577-28.8936-0.1985C479.4443,65.1831,479.4493,65.9988,480.0011,66.0294L480.0011,66.0294z"/>
		</g>
	</g>
	<g>
		<g>
			<path class="st9" d="M480.0011,68.9114c8.2124,0.365,16.4988,0.2168,24.717,0.1055c0.8256-0.0112,0.827-1.272,0-1.2832
				c-8.2181-0.1113-16.5046-0.2596-24.717,0.1055C479.3116,67.8698,479.3103,68.8807,480.0011,68.9114L480.0011,68.9114z"/>
		</g>
	</g>
	<g>
		<g>
			<path class="st9" d="M480.6971,75.3817c-0.5433,0.5238-0.6153,1.1195-0.2641,1.7764c0.1542,0.2884,0.4929,0.3132,0.7606,0.1994
				c2.1774-0.9254,4.4241-1.5063,6.7603-1.8563c-0.2679-0.109-0.5359-0.2181-0.8038-0.3271
				c0.3765,0.7074,0.8102,1.1599,1.5574,1.4887c0.7554,0.3323,1.352-0.6375,0.6536-1.1181
				c-0.4459-0.2562-0.7731-0.6193-0.9817-1.0891c-0.1632-0.3004-0.495-0.3761-0.8039-0.3271
				c-2.437,0.3863-4.7378,1.1709-6.943,2.2691c0.2535,0.0665,0.507,0.133,0.7606,0.1994c-0.0027-0.1758-0.0054-0.3517-0.0081-0.5275
				C481.7994,75.6046,481.1513,74.9438,480.6971,75.3817L480.6971,75.3817z"/>
		</g>
	</g>
	<g>
		<g>
			<path class="st9" d="M483.9584,82.8995c0.196-0.1064,0.3921-0.2128,0.5881-0.3192c-0.1971-0.2588-0.3943-0.5176-0.5914-0.7764
				c-0.4719,1.1774,0.2978,2.3255,1.507,2.604c1.1372,0.2619,2.2645-0.3496,3.3572-0.5381
				c1.8889-0.3258,3.6651,0.1035,5.4177,0.7704c0.6529,0.2484,1.0724-0.7905,0.4718-1.1191
				c-1.2031-0.6583-2.4837-1.0499-3.8576-1.1282c-0.5554-0.0317-1.11-0.0089-1.6616,0.0566
				c-0.4102,0.0486-4.4863,1.1625-4.0518-0.3194c0.1015-0.3462-0.1913-0.8247-0.5914-0.7764
				c-0.7687,0.0929-1.1735,0.289-1.5089,1.0076C482.7518,82.9736,483.6027,83.5003,483.9584,82.8995L483.9584,82.8995z"/>
		</g>
	</g>
	<g>
		<g>
			<path class="st9" d="M553.456,41.3391c3.1331,0.0309,6.2662,0.0784,9.3995,0.0645c0.6824-0.003,0.6835-1.0575,0-1.0605
				c-3.1332-0.014-6.2664,0.0336-9.3995,0.0645C552.8566,40.4134,552.8556,41.3332,553.456,41.3391L553.456,41.3391z"/>
		</g>
	</g>
	<g>
		<g>
			<path class="st9" d="M550.0374,43.6733c-0.05-0.0269-0.1-0.0538-0.1501-0.0807c-0.2229-0.1198-0.4664-0.0443-0.6065,0.159
				c-0.0422,0.0613-0.0845,0.1225-0.1268,0.1838c-0.1187,0.1722-0.057,0.4089,0.0713,0.5525
				c1.0399,1.1635,4.2386,0.5126,5.653,0.5249c3.2399,0.0283,6.4792,0.0433,9.7177-0.0638c0.7687-0.0254,0.7703-1.1709,0-1.1953
				c-2.5922-0.0822-5.181-0.0766-7.7742-0.062c-1.2958,0.0073-2.5914,0.0167-3.8871,0.039
				c-0.648,0.0053-1.2958,0.0184-1.9435,0.0393c-0.738-0.2331-1.1674-0.0012-1.2879,0.6958
				C550.1616,44.649,550.4646,43.903,550.0374,43.6733L550.0374,43.6733z"/>
		</g>
	</g>
	<g>
		<g>
			<path class="st9" d="M543.0093,50.7346c9.1683,0.5169,18.698,0.4662,27.8501-0.2885c0.7638-0.063,0.7881-1.1974,0-1.207
				c-9.2413-0.1125-18.6138,0.0794-27.8501,0.4232C542.3171,49.6881,542.3215,50.6958,543.0093,50.7346L543.0093,50.7346z"/>
		</g>
	</g>
	<g>
		<g>
			<path class="st9" d="M543.0093,53.6338c10.355,0.0201,20.6465-0.0073,30.9926,0.5904c0.838,0.0484,0.8308-1.2449,0-1.3008
				c-10.2625-0.6901-20.7219-1.0155-30.9926-0.3092C542.3615,52.6588,542.346,53.6325,543.0093,53.6338L543.0093,53.6338z"/>
		</g>
	</g>
	<g>
		<g>
			<path class="st9" d="M543.0093,56.6979c8.3467,0.0132,16.7277-0.5406,25.0646-0.9185c0.8331-0.0378,0.8392-1.3337,0-1.3008
				c-8.3431,0.3269-16.7446,0.4835-25.0646,1.1997C542.3657,55.7338,542.3428,56.6968,543.0093,56.6979L543.0093,56.6979z"/>
		</g>
	</g>
	<g>
		<g>
			<path class="st9" d="M543.9733,59.8574c-0.1876-0.2954-0.365-0.5968-0.5323-0.9042c-0.1439,0.2508-0.2878,0.5015-0.4317,0.7523
				c10.1248,0.2199,20.1526,0.0009,30.275,0.7333c0.9037,0.0654,0.8878-1.3195,0-1.4004
				c-9.9091-0.9028-20.3633-1.4673-30.275-0.3328c-0.4312,0.0494-0.6583,0.5094-0.3535,0.8534
				c0.2349,0.2563,0.4609,0.5203,0.678,0.7919C543.6308,60.71,544.2113,60.2465,543.9733,59.8574L543.9733,59.8574z"/>
		</g>
	</g>
	<g>
		<g>
			<path class="st9" d="M543.1301,64.8013c5.1079-1.3827,10.5446-1.0315,15.7885-0.9936
				c5.2831,0.0382,10.5649,0.1902,15.8458,0.3449c0.8665,0.0254,0.8588-1.298,0-1.3418c-5.598-0.2857-11.2015-0.3771-16.8064-0.3538
				c-4.9914,0.0207-10.3111-0.2814-15.0693,1.4685C542.3486,64.1242,542.5565,64.9566,543.1301,64.8013L543.1301,64.8013z"/>
		</g>
	</g>
	<g>
		<g>
			<path class="st9" d="M543.0093,67.4825c4.0584,0.0631,8.1302-0.1098,12.1844-0.2824c0.7087-0.0302,0.7162-1.118,0-1.1074
				c-4.0585,0.0602-8.1352,0.1217-12.1844,0.4172C542.3915,66.555,542.3761,67.4727,543.0093,67.4825L543.0093,67.4825z"/>
		</g>
	</g>
	<g>
		<g>
			<path class="st9" d="M545.5696,75.7764c-0.7162,0.1956-0.8036,0.2787-1.2144,0.896c-0.2561,0.385,0.0103,0.8871,0.4122,1.0131
				c2.0807,0.6523,4.046,0.1568,5.664-1.2733c-0.4121-0.1707-0.8242-0.3414-1.2363-0.5121
				c0.1017,0.9362,0.5303,1.5588,1.4918,1.8096c1.1197,0.2921,3.9155-1.5618,4.564-0.6427
				c0.3911,0.5542,1.3778,0.2419,1.1566-0.4876c-0.2401-0.7919-0.6954-1.208-1.5297-1.3624
				c-0.6924-0.1281-4.1729,1.2361-4.2344,0.6831c-0.0695-0.6249-0.7394-0.9536-1.2363-0.5121
				c-1.2362,1.0985-2.7059,1.3833-4.2731,0.9674c0.1374,0.3377,0.2748,0.6754,0.4122,1.0131
				c0.1628-0.163,0.3256-0.3261,0.4883-0.4891C546.6636,76.5842,546.2156,75.6,545.5696,75.7764L545.5696,75.7764z"/>
		</g>
	</g>
	<g>
		<g>
			<path class="st9" d="M546.6159,83.2221c-0.2168-0.1887-0.42-0.391-0.6095-0.6071c-0.5332-0.5682-1.5143,0.1719-1.0874,0.839
				c0.6855,1.0714,1.7423,1.4547,2.9967,1.3398c0.8836-0.0809,1.7031-0.4738,2.5799-0.5881
				c1.2239-0.1596,2.1938,0.2482,3.1953,0.923c0.6564,0.4423,1.4397-0.5683,0.8485-1.0997
				c-0.8795-0.7904-1.9583-1.2753-3.1497-1.3436c-1.4473-0.0829-4.2683,1.5266-5.275,0.0697
				c-0.3625,0.2797-0.725,0.5593-1.0874,0.839c0.2339,0.1691,0.4554,0.3531,0.6647,0.5519
				C546.3168,84.7014,547.2354,83.7989,546.6159,83.2221L546.6159,83.2221z"/>
		</g>
	</g>
	<g>
		<g>
			<path class="st9" d="M569.4697,75.9488c1.7885,0.0825,3.7033-0.0624,5.3824-0.7247c0.7285-0.2874,0.4623-1.3457-0.3271-1.1865
				c-1.6937,0.3415-3.3181,0.6774-5.0552,0.7042C568.69,74.7538,568.6956,75.9131,569.4697,75.9488L569.4697,75.9488z"/>
		</g>
	</g>
	<g>
		<g>
			<path class="st9" d="M366.5041,121.5889c3.5019-0.0423,6.8992,0.4589,10.2683,1.4016c0.7282,0.2038,1.033-0.9137,0.3115-1.13
				c-3.4526-1.0353-6.9796-1.4422-10.5799-1.3321C365.8238,120.5492,365.8192,121.5972,366.5041,121.5889L366.5041,121.5889z"/>
		</g>
	</g>
	<g>
		<g>
			<path class="st9" d="M366.8619,124.6162c2.4319,0.1993,4.8695,0.3279,7.3076,0.4213c0.7705,0.0295,0.7566-1.1348,0-1.1895
				c-2.4328-0.1757-4.8693-0.3166-7.3076-0.3861C366.1111,123.4405,366.131,124.5563,366.8619,124.6162L366.8619,124.6162z"/>
		</g>
	</g>
	<g>
		<g>
			<path class="st9" d="M368.1581,131.9771c4.429-0.0034,8.8973-0.474,13.3228-0.6647c0.8101-0.0349,0.818-1.2857,0-1.2656
				c-4.4299,0.1089-9.0885,0.074-13.4684,0.8542C367.3943,131.0111,367.5538,131.9776,368.1581,131.9771L368.1581,131.9771z"/>
		</g>
	</g>
	<g>
		<g>
			<path class="st9" d="M432.2962,119.2685c3.3602,0.2484,6.734,0.5273,10.1039,0.5781c0.7619,0.0115,0.7348-1.0981,0-1.166
				c-3.3549-0.31-6.7376-0.3948-10.1039-0.5078C431.5856,118.149,431.6,119.2171,432.2962,119.2685L432.2962,119.2685z"/>
		</g>
	</g>
	<g>
		<g>
			<path class="st9" d="M432.8666,120.7148c2.5675,0.4448,5.1945,0.6772,7.7896,0.8935c0.7859,0.0655,0.7513-1.1111,0-1.207
				c-2.5314-0.3233-5.0957-0.6414-7.6471-0.7396C432.4171,119.6389,432.2634,120.6103,432.8666,120.7148L432.8666,120.7148z"/>
		</g>
	</g>
	<g>
		<g>
			<path class="st9" d="M423.5962,129.2858c8.3273,0.5743,16.7284,0.7616,25.0736,0.6161c0.7576-0.0132,0.759-1.1652,0-1.1777
				c-8.3571-0.1382-16.7163-0.2929-25.0736-0.4051C422.9685,128.3105,422.9811,129.2433,423.5962,129.2858L423.5962,129.2858z"/>
		</g>
	</g>
	<g>
		<g>
			<path class="st9" d="M422.9094,132.9979c3.5909,0.2353,7.1941,0.3253,10.7921,0.3325c0.7674,0.0015,0.7551-1.1374,0-1.1836
				c-3.5913-0.2199-7.1935-0.3583-10.7921-0.3501C422.1299,131.7985,422.144,132.9478,422.9094,132.9979L422.9094,132.9979z"/>
		</g>
	</g>
	<g>
		<g>
			<path class="st9" d="M483.4906,118.9258c2.6194,0.1973,5.3796-0.001,7.9969-0.2045c0.7834-0.0609,0.8063-1.2308,0-1.2363
				c-2.6768-0.0182-5.4893-0.0067-8.1402,0.3819C482.7114,117.9601,482.9248,118.8832,483.4906,118.9258L483.4906,118.9258z"/>
		</g>
	</g>
	<g>
		<g>
			<path class="st9" d="M484.0452,121.1181c1.4343,0.25,2.8676,0.4696,4.312,0.6528c0.5388,0.0684,0.67-0.8671,0.1293-0.9553
				c-1.4367-0.2343-2.8737-0.4278-4.3197-0.5952C483.6591,120.1616,483.5383,121.0297,484.0452,121.1181L484.0452,121.1181z"/>
		</g>
	</g>
	<g>
		<g>
			<path class="st9" d="M483.4917,129.7491c7.8838-0.064,15.7838-0.2942,23.6601-0.6399c0.7836-0.0344,0.792-1.2397,0-1.2246
				c-7.8847,0.1507-15.7857,0.4186-23.6601,0.8508C482.845,128.7709,482.8344,129.7544,483.4917,129.7491L483.4917,129.7491z"/>
		</g>
	</g>
	<g>
		<g>
			<path class="st9" d="M485.2115,132.4514c3.1323,0.3235,6.2843,0.1621,9.4022-0.2308c0.7016-0.0884,0.7301-1.1932,0-1.125
				c-3.1339,0.2929-6.2582,0.3354-9.4022,0.3831C484.5733,131.4884,484.6003,132.3883,485.2115,132.4514L485.2115,132.4514z"/>
		</g>
	</g>
	<g>
		<g>
			<path class="st9" d="M507.2804,119.6574c1.6762-0.4319,3.3682-0.612,5.0969-0.6075c0.7135,0.0019,0.7125-1.0917,0-1.1074
				c-1.8294-0.0405-3.6098,0.2344-5.3586,0.7657C506.4139,118.892,506.6645,119.8161,507.2804,119.6574L507.2804,119.6574z"/>
		</g>
	</g>
	<g>
		<g>
			<path class="st9" d="M558.1293,117.6381c2.9604-0.4545,5.9144-0.5834,8.9038-0.6479c0.7498-0.0162,0.7435-1.1219,0-1.1602
				c-3.0893-0.1588-6.1685,0.1638-9.2091,0.7007C557.0919,116.6599,557.4102,117.7485,558.1293,117.6381L558.1293,117.6381z"/>
		</g>
	</g>
	<g>
		<g>
			<path class="st9" d="M559.0129,120.5523c2.496,0.2978,5.0185,0.0452,7.4573-0.525c0.6791-0.1587,0.3891-1.1771-0.2866-1.0396
				c-2.3842,0.4852-4.745,0.6433-7.1707,0.6974C558.4408,119.6978,558.472,120.4877,559.0129,120.5523L559.0129,120.5523z"/>
		</g>
	</g>
	<g>
		<g>
			<path class="st9" d="M547.8872,128.5759c8.55,0.2592,17.2112,0.2808,25.7583-0.0628c0.726-0.0292,0.73-1.1104,0-1.1309
				c-8.551-0.2398-17.2117-0.1127-25.7583,0.2503C547.2817,127.6582,547.2782,128.5574,547.8872,128.5759L547.8872,128.5759z"/>
		</g>
	</g>
	<g>
		<g>
			<path class="st9" d="M549.4681,130.9153c1.494,0.4811,2.9923,0.451,4.4665-0.0947c0.6118-0.2265,0.3719-1.1879-0.2742-0.9944
				c-1.2863,0.3853-2.6291,0.4648-3.9509,0.2133C549.1393,129.931,548.9059,130.7342,549.4681,130.9153L549.4681,130.9153z"/>
		</g>
	</g>
	<g>
		<g>
			<path class="st17" d="M435.8395,85.6376c-1.8593,1.3087-2.7297-1.8935-2.9664-2.8472c-0.3199-1.2893-0.4518-2.6752-0.0537-3.9682
				c0.4275-1.3886,1.5161-2.7577,2.9923-3.1052c1.8291-0.4306,3.53,0.8798,3.6114,2.7402c0.0336,0.7673,1.1699,0.7715,1.1953,0
				c0.0688-2.0906-1.5022-3.845-3.5921-4.1061c-2.265-0.283-4.3197,1.3544-5.1938,3.3493c-1.0077,2.3-0.6362,5.346,0.5201,7.5342
				c0.8492,1.607,2.5703,2.6552,4.0549,1.1392C436.7668,86.007,436.2884,85.3217,435.8395,85.6376L435.8395,85.6376z"/>
		</g>
	</g>
	<g>
		<g>
			<path class="st17" d="M433.8697,81.4667c1.733-0.502,3.5497-1.5958,4.7363-2.9647c0.5082-0.5864-0.2463-1.3045-0.8369-0.8369
				c-1.3851,1.0966-2.7295,2.0602-4.2583,2.9502C433.0585,80.8786,433.3565,81.6154,433.8697,81.4667L433.8697,81.4667z"/>
		</g>
	</g>
	<g>
		<g>
			<path class="st17" d="M434.6271,83.7397c1.1802-0.664,2.3491-1.3423,3.4984-2.0587c0.5807-0.362,0.055-1.2726-0.5382-0.9208
				c-1.1654,0.6911-2.306,1.4173-3.4392,2.1599C433.6398,83.2532,434.0904,84.0417,434.6271,83.7397L434.6271,83.7397z"/>
		</g>
	</g>
	<g>
		<g>
			<path class="st17" d="M500.2089,76.2005c-2.2135,1.3221-2.0791,4.2648-0.3014,5.9163c2.2014,2.0451,6.7566,2.6746,9.2555,0.8726
				c2.3667-1.7066,2.0181-4.8359,0.1486-6.7922c-1.9604-2.0513-5.1519-2.6964-7.6772-1.3859
				c-0.5524,0.2866-0.171,1.2287,0.4289,1.0174c2.9401-1.0357,9.0023,0.6719,7.2013,4.8955
				c-1.0228,2.3987-4.0643,2.3284-6.2591,1.6894c-2.0279-0.5904-5.2519-3.4845-2.3293-5.4137
				C501.1696,76.6741,500.7251,75.8922,500.2089,76.2005L500.2089,76.2005z"/>
		</g>
	</g>
	<g>
		<g>
			<path class="st17" d="M502.3403,79.6779c1.4765,0.8377,2.9792,1.726,4.5417,2.3937c0.6196,0.2648,1.1596-0.5672,0.5442-0.9309
				c-1.4656-0.8661-3.0755-1.5516-4.6275-2.247C502.2772,78.66,501.8205,79.383,502.3403,79.6779L502.3403,79.6779z"/>
		</g>
	</g>
	<g>
		<g>
			<path class="st17" d="M503.0196,78.3128c1.0786,0.5076,2.1619,0.9959,3.2771,1.4173c0.5696,0.2152,0.9588-0.7119,0.4154-0.9853
				c-1.0649-0.5358-2.1601-0.999-3.2635-1.4494C502.8687,77.0587,502.4501,78.0448,503.0196,78.3128L503.0196,78.3128z"/>
		</g>
	</g>
	<g>
		<g>
			<path class="st17" d="M505.5612,76.582c-0.2101,0.7047-0.4265,1.3947-0.5562,2.1199c-0.1205,0.6733,0.8392,0.9627,1.0396,0.2866
				c0.2098-0.7075,0.326-1.4228,0.4546-2.148C506.6068,76.2332,505.7431,75.9721,505.5612,76.582L505.5612,76.582z"/>
		</g>
	</g>
	<g>
		<g>
			<path class="st17" d="M564.2973,77.7875c-2.2745-0.7384-4.674,0.9172-4.7932,3.3371c-0.1525,3.0979,2.8546,5.15,5.6969,5.0382
				c2.4939-0.0981,5.653-1.5535,5.735-4.4091c0.09-3.1316-2.9492-4.6637-5.6478-4.849c-0.7408-0.0509-0.7106,1.0541,0,1.1367
				c1.679,0.1953,4.1501,0.9995,4.3855,3.0087c0.2501,2.1354-1.4613,3.3398-3.3157,3.7703
				c-1.8929,0.4395-4.1283-0.0023-5.2047-1.769c-1.2899-2.1171,0.2865-5.0081,2.9072-4.4051
				C564.6203,78.7751,564.8427,77.9645,564.2973,77.7875L564.2973,77.7875z"/>
		</g>
	</g>
	<g>
		<g>
			<path class="st17" d="M561.4103,80.427c0.6351,0.9522,0.4742,3.3054,2.2715,3.0181c0.4559-0.0729,0.7722-0.3693,0.9907-0.7688
				c0.1761-0.322,0.2288-1.4094,0.5793-1.5126c-0.254-0.1442-0.508-0.2884-0.762-0.4326c0.1534,0.8657,0.597,2.0079,1.6182,2.107
				c1.2667,0.123,2.3946-1.7523,3.0797-2.5561c0.5169-0.6065-0.3102-1.4679-0.8867-0.8866
				c-0.4366,0.4403-0.9246,1.2257-1.4457,1.5441c-0.2361,0.5162-0.5756,0.5486-1.0183,0.0971
				c-0.0731-0.2063-0.124-0.4178-0.1526-0.6347c-0.0597-0.3239-0.463-0.5229-0.762-0.4326c-0.8159,0.2465-0.8423,0.8107-1.15,1.4936
				c-0.035,0.0777-0.0555,0.4759-0.1302,0.5095c-0.7137,0.3202-0.6637-0.5251-0.7791-0.816
				c-0.2162-0.5454-0.2571-0.8862-0.6797-1.3255C561.803,79.4351,561.0953,79.9547,561.4103,80.427L561.4103,80.427z"/>
		</g>
	</g>
	<g>
		<g>
			<path class="st9" d="M420.9929,140.1505c4.1513-0.6988,8.5902-0.4036,12.7931-0.512c4.1677-0.1075,8.3356-0.2165,12.5021-0.3638
				c0.8414-0.0298,0.8477-1.3295,0-1.3125c-4.4886,0.0899-8.9764,0.2221-13.4638,0.3587c-3.841,0.1169-8.4429-0.4298-12.1149,0.8013
				C420.0496,139.3434,420.3225,140.2633,420.9929,140.1505L420.9929,140.1505z"/>
		</g>
	</g>
	<g>
		<g>
			<path class="st9" d="M422.3493,142.2744c0.078-0.6162,12.1635-0.3765,13.325-0.3937c4.2787-0.0634,8.556-0.1252,12.8318-0.2972
				c0.7206-0.029,0.7277-1.1228,0-1.125c-5.7589-0.0175-11.5164,0.1505-17.2736,0.2794c-2.6132,0.0585-5.8641-0.3832-8.39,0.2266
				c-0.8103,0.1956-1.4196,0.3815-1.3897,1.3099C421.4719,142.867,422.2786,142.8323,422.3493,142.2744L422.3493,142.2744z"/>
		</g>
	</g>
	<g>
		<g>
			<path class="st9" d="M421.2339,145.0192c7.718-0.2269,15.4403-0.4234,23.1519-0.8165c0.7-0.0357,0.7092-1.1126,0-1.0957
				c-7.7206,0.1842-15.4373,0.5656-23.1519,0.9161C420.5965,144.052,420.5902,145.0381,421.2339,145.0192L421.2339,145.0192z"/>
		</g>
	</g>
	<g>
		<g>
			<path class="st9" d="M419.9658,147.3478c10.0894,0.3158,20.4126-0.1744,30.4428-1.2793c0.7033-0.0775,0.7354-1.167,0-1.125
				c-10.1509,0.5797-20.2867,1.0087-30.4428,1.4551C419.3567,146.4253,419.3529,147.3286,419.9658,147.3478L419.9658,147.3478z"/>
		</g>
	</g>
	<g>
		<g>
			<path class="st9" d="M482.1196,140.6453c8.4054,0.4752,16.9514,0.2144,25.3684,0.1172c0.8256-0.0095,0.827-1.2737,0-1.2832
				c-8.417-0.0972-16.9631-0.358-25.3684,0.1172C481.4453,139.6346,481.4441,140.6071,482.1196,140.6453L482.1196,140.6453z"/>
		</g>
	</g>
	<g>
		<g>
			<path class="st9" d="M482.4337,143.5157c6.2386,0.0114,12.4763-0.0516,18.7144-0.1239c0.7386-0.0086,0.7403-1.1603,0-1.1484
				c-6.239,0.1002-12.4773,0.2096-18.7144,0.3934C481.8697,142.6535,481.8661,143.5147,482.4337,143.5157L482.4337,143.5157z"/>
		</g>
	</g>
	<g>
		<g>
			<path class="st9" d="M483.3818,146.7974c5.2859-0.029,10.5912-0.3227,15.8658-0.6541c0.6826-0.0429,0.6954-1.0916,0-1.0723
				c-5.2849,0.1467-10.5969,0.3346-15.8658,0.783C482.7863,145.9047,482.7653,146.8008,483.3818,146.7974L483.3818,146.7974z"/>
		</g>
	</g>
	<path class="st8" d="M328.3402,76.759c-1.564-2.0444-4.1216-1.4849-6.3093-1.2397c-4.156,0.4658-8.3157,0.7378-12.5009,0.7007
		c-2.4102-0.021-6.1078-1.1069-8.2078,0.6084c-1.7847,1.4575-1.5018,4.5488-1.2548,6.9634
		c-0.1266,0.3945-0.2358,0.8066-0.3065,1.2578c-0.2416,1.5391,0.6207,3.0288,2.3257,3.0527
		c5.0378,0.0723,10.0758,0.1274,15.1139,0.1836c2.8959,0.0327,6.9426,0.9019,9.6084-0.2695
		C330.1569,86.5456,330.278,79.2927,328.3402,76.759z"/>
	<path class="st8" d="M527.5526,24.1401c-0.7983-2.1421-1.3542-4.2075-1.6143-6.4912c-0.1377-1.2104-0.8901-2.1323-2.1831-2.1831
		c-6.7192-0.2637-13.3897-0.8638-20.0555-1.7441c-0.5256-0.0693-1.0662,0.1797-1.4912,0.5693
		c-1.0046-0.0283-2.1021,0.647-2.0774,1.8301c0.0566,2.7451-0.5327,7.3325,0.8032,9.8252c1.0012,1.8682,2.3977,1.6348,4.4124,1.6719
		c4.2798,0.0781,8.5706-0.0093,12.8506-0.0142c2.9497-0.0029,5.644,0.1973,8.365-1.0308
		C527.3593,26.2138,527.8571,24.9575,527.5526,24.1401z"/>
	<path class="st8" d="M532.9379,38.477c-0.3638-2.3032-0.7097-4.6099-1.0422-6.9175c-0.1274-0.8833-1.1772-1.5312-2.0054-1.5269
		c-1.418,0.0083-2.835,0.0146-4.2524,0.0464c-1.2019,0.0264-2.605-0.1577-3.7703,0.1807c-2.1775,0.6318-2.2971,3.1958-1.6875,5.0083
		c0.0603,0.1797,0.1414,0.3413,0.2195,0.5049c-0.2258,1.4111,0.0303,2.8354,1.1489,3.8008c1.0308,0.8887,2.511,0.8286,3.7881,0.9453
		c1.8894,0.1729,3.7791,0.3364,5.6694,0.4937C532.4323,41.1318,533.1224,39.6445,532.9379,38.477z"/>
	<path class="st8" d="M474.5672,119.5873c-0.167-1.0581-1.4746-1.6035-2.4055-1.3657c-1.0605,0.2705-2.1443,0.5166-3.2217,0.7905
		c-1.2466-0.0127-2.4937-0.0259-3.7402-0.0391c-1.3186-0.0137-2.7524-0.0991-3.79,0.8794
		c-1.8281,1.7241-0.8853,5.9492-0.8354,8.1294c0.0261,1.1445,0.9392,2.0796,2.0959,2.0957
		c3.5554,0.0498,7.1143,0.2681,10.6646,0.458c1.074,0.0571,2.0017-0.9614,1.9961-1.9961
		C475.3145,125.5263,475.037,122.562,474.5672,119.5873z"/>
	<path class="st8" d="M495.776,104.3789c-6.3767-0.3872-13.6504-1.042-20.2354-0.2471c-0.9341-0.187-1.9199-0.2544-2.8386-0.3691
		c-1.1077-0.1387-2.3323-0.2119-3.178,0.6689c-0.6953,0.7236-0.7126,1.6919-0.5049,2.6016
		c-0.9216,1.8369-0.7598,4.3813-0.1216,6.5571c-0.2202,0.4307-0.2021,0.9531,0.2688,1.3364
		c1.5642,1.2739,3.4441,1.2061,4.9629-0.1147c1.8137-1.5767,1.6829-4.2773,1.0527-6.4258c1.6775-0.3179,3.6643-0.104,4.9976-0.1484
		c5.2043-0.1738,10.4001-0.0649,15.5964,0.2505C498.4176,108.6489,498.4081,104.539,495.776,104.3789z"/>
	<path class="st8" d="M594.2142,99.707c-7.1428-0.6128-15.3142,0.1138-22.4114,1.0679c-1.9233,0.2588-1.3147,3.1411,0.4382,3.2383
		c4.6531,0.2573,9.3562-0.0527,14.0164-0.271c-0.0073,0.0547-0.0281,0.1016-0.0327,0.1577
		c-0.1899,2.3545-1.5674,6.917,0.7163,8.7583c1.9956,1.6089,6.3853,0.4639,8.668,0.377c1.0215-0.0386,1.6865-0.7847,1.7729-1.7729
		C597.7567,106.9873,600.2697,100.2265,594.2142,99.707z"/>
	<path class="st8" d="M627.891,100.0317c0.009-1.0527-0.9326-2.0708-2.0183-2.0186c-7.6523,0.3687-15.2559,1.0386-22.8726,1.8496
		c-0.9055,0.0962-2.0237,0.7891-1.8801,1.8804c0.1511,1.147,0.2893,2.2964,0.4316,3.4453c-0.627,2.1484-0.7952,4.895-0.1689,6.1445
		c1.3376,2.668,5.6184,1.5347,7.8367,1.3965c5.7268-0.356,11.4539-0.7007,17.1824-1.0298c0.9858-0.0566,2.1428-0.8799,2.0093-2.0093
		C628.0302,106.4706,627.8629,103.2744,627.891,100.0317z"/>
	<path class="st8" d="M611.9825,116.9775c-0.167-0.6396-0.7139-1.2031-1.3613-1.3608c-2.8105-0.6855-6.1655-0.1396-9.0398-0.0142
		c-3.656,0.1597-7.3103,0.3506-10.9634,0.5674c-0.8611,0.0513-1.5952,0.5337-1.9216,1.2725
		c-0.177,0.2188-0.2827,0.5103-0.2585,0.8828c0.1382,2.1406,0.0193,5.6655,2.0325,7.0405
		c2.5361,1.7319,7.9463,0.3672,10.7949,0.2256c2.6255-0.1304,7.8892,0.7637,10.0032-1.0103
		C612.9569,123.164,612.4513,118.7753,611.9825,116.9775z"/>
	<path class="st7" d="M332.0819,56.0566c-1.8899-0.5664-3.7573-0.8076-5.6194-0.8579c-0.2247-2.27-0.4818-4.5273-0.6517-6.811
		c-0.1268-1.7056-2.786-2.3291-3.1766-0.4302c-0.5032,2.4463-0.9438,4.9619-1.0876,7.4741
		c-2.0083,0.2129-4.0276,0.5234-6.0798,0.7803c-1.0447,0.1304-1.5435,1.811-0.2761,2.041c2.1719,0.394,4.3015,0.8457,6.4263,1.1772
		c0.2832,2.7788,1.0608,5.0317,2.0725,7.8652c0.5574,1.5605,2.9624,1.3828,2.9772-0.4028c0.02-2.4194,0.1696-4.6494,0.1263-6.9888
		c1.7396,0.0146,3.4958-0.145,5.2891-0.5776C333.755,58.9228,333.6341,56.5219,332.0819,56.0566z"/>
	<path class="st7" d="M636.6386,140.1289c-1.8899-0.5664-3.7573-0.8076-5.6194-0.8579c-0.2247-2.27-0.4818-4.5273-0.6517-6.811
		c-0.1268-1.7056-2.786-2.3291-3.1766-0.4302c-0.5032,2.4463-0.9438,4.9619-1.0876,7.4741
		c-2.0083,0.2129-4.0276,0.5234-6.0798,0.7803c-1.0447,0.1304-1.5435,1.811-0.2761,2.041c2.1719,0.394,4.3015,0.8457,6.4263,1.1772
		c0.2832,2.7788,1.0608,5.0317,2.0725,7.8652c0.5574,1.5605,2.9624,1.3828,2.9772-0.4028c0.02-2.4194,0.1696-4.6494,0.1263-6.9888
		c1.7396,0.0146,3.4958-0.145,5.2891-0.5776C638.3117,142.9951,638.1909,140.5942,636.6386,140.1289z"/>
	<path class="st7" d="M413.8675,14.333c-1.7434-0.7847-3.5925-1.2388-5.4849-1.4814c-0.2053-2.064-0.55-4.1621-0.8521-6.3848
		c-0.1812-1.333-2.1985-0.9233-2.2559,0.3057c-0.092,1.9829-0.4688,3.9048-0.7468,5.8423
		c-1.9692-0.0083-3.9404,0.1235-5.8472,0.2764c-1.2656,0.1011-1.5688,1.8315-0.3032,2.2402
		c1.8801,0.6079,3.8428,1.2144,5.8389,1.6694c-0.0112,2.189,0.1582,4.4561,0.4905,6.5737c0.2307,1.4697,2.2605,1.1475,2.6667,0
		c0.7217-2.0386,1.0535-3.978,1.1531-5.8916c1.6624,0.1284,3.3247,0.0801,4.9602-0.2373
		C414.7716,16.9965,415.1036,14.8891,413.8675,14.333z"/>
	<path class="st7" d="M614.5169,36.6159c-1.7434-0.7847-3.5925-1.2388-5.4849-1.4814c-0.2053-2.064-0.55-4.1621-0.8521-6.3848
		c-0.1812-1.333-2.1985-0.9233-2.2559,0.3057c-0.092,1.9829-0.4688,3.9048-0.7468,5.8423
		c-1.9692-0.0083-3.9404,0.1235-5.8472,0.2764c-1.2656,0.1011-1.5688,1.8315-0.3032,2.2402
		c1.8801,0.6079,3.8428,1.2144,5.8389,1.6694c-0.0112,2.189,0.1582,4.4561,0.4905,6.5737c0.2307,1.4697,2.2605,1.1475,2.6667,0
		c0.7217-2.0386,1.0535-3.978,1.1531-5.8916c1.6624,0.1284,3.3247,0.0801,4.9602-0.2373
		C615.421,39.2795,615.753,37.1721,614.5169,36.6159z"/>
	<path class="st7" d="M468.1855,12.9269c-0.6313-0.2031-1.3355-0.2694-2.0351-0.2856c-0.1377-1.097-0.307-2.188-0.3756-3.2477
		c-0.0512-0.7917-1.1802-0.7932-1.2316,0c-0.0692,1.0681-0.2405,2.168-0.3788,3.2735c-0.8754,0.0052-1.7538-0.0139-2.6024,0.2202
		c-0.7266,0.2005-0.6143,1.1219,0,1.3662c0.7562,0.301,1.5925,0.4028,2.4172,0.4893c-0.0368,0.9419,0.0113,1.8763,0.2334,2.7867
		c0.2279,0.935,1.6648,0.9359,1.893,0c0.2026-0.8308,0.2619-1.6819,0.2428-2.5402c0.6183,0.0382,1.2371,0.0327,1.8371-0.0888
		C469.2312,14.6884,469.0837,13.2166,468.1855,12.9269z"/>
	<path class="st7" d="M392.5137,5.0522c-0.6313-0.2031-1.3355-0.2694-2.035-0.2856c-0.1378-1.097-0.307-2.188-0.3756-3.2477
		c-0.0512-0.7917-1.1802-0.7932-1.2316,0c-0.0692,1.0681-0.2405,2.168-0.3788,3.2735c-0.8754,0.0052-1.7538-0.0139-2.6024,0.2202
		c-0.7267,0.2005-0.6143,1.1219,0,1.3662c0.7561,0.301,1.5924,0.4028,2.4172,0.4893c-0.0367,0.9419,0.0113,1.8763,0.2334,2.7867
		c0.2279,0.935,1.6648,0.9359,1.893,0c0.2025-0.8308,0.2619-1.6819,0.2428-2.5402c0.6183,0.0382,1.2371,0.0327,1.8371-0.0888
		C393.5594,6.8136,393.412,5.3418,392.5137,5.0522z"/>
	<path class="st7" d="M530.8416,104.9603c-0.6313-0.2031-1.3354-0.2694-2.035-0.2856c-0.1378-1.097-0.3071-2.188-0.3756-3.2477
		c-0.0513-0.7917-1.1802-0.7932-1.2316,0c-0.0692,1.0681-0.2405,2.168-0.3788,3.2735c-0.8754,0.0052-1.7538-0.0139-2.6024,0.2202
		c-0.7266,0.2005-0.6143,1.1219,0,1.3662c0.7562,0.3009,1.5925,0.4028,2.4172,0.4893c-0.0367,0.9419,0.0113,1.8763,0.2334,2.7867
		c0.2279,0.935,1.6648,0.9359,1.893,0c0.2026-0.8308,0.2619-1.6819,0.2428-2.5402c0.6182,0.0382,1.2371,0.0327,1.8371-0.0888
		C531.8873,106.7218,531.7399,105.25,530.8416,104.9603z"/>
	<path class="st7" d="M587.6144,20.092c-0.6313-0.2031-1.3354-0.2694-2.035-0.2856c-0.1378-1.097-0.3071-2.188-0.3756-3.2477
		c-0.0513-0.7917-1.1802-0.7932-1.2316,0c-0.0692,1.0681-0.2405,2.168-0.3788,3.2735c-0.8754,0.0052-1.7538-0.0139-2.6024,0.2202
		c-0.7266,0.2005-0.6143,1.1219,0,1.3662c0.7562,0.301,1.5925,0.4028,2.4172,0.4893c-0.0368,0.9419,0.0112,1.8763,0.2333,2.7867
		c0.2279,0.935,1.6648,0.9359,1.893,0c0.2026-0.8308,0.2619-1.6819,0.2428-2.5402c0.6182,0.0382,1.2371,0.0327,1.8371-0.0888
		C588.6601,21.8535,588.5127,20.3817,587.6144,20.092z"/>
	<path class="st7" d="M340.9919,88.0384c-0.6313-0.2031-1.3355-0.2694-2.0351-0.2856c-0.1377-1.097-0.307-2.188-0.3756-3.2477
		c-0.0512-0.7917-1.1802-0.7932-1.2316,0c-0.0692,1.0681-0.2405,2.168-0.3788,3.2735c-0.8754,0.0052-1.7538-0.0139-2.6024,0.2202
		c-0.7266,0.2005-0.6143,1.1219,0,1.3662c0.7562,0.301,1.5925,0.4028,2.4172,0.4893c-0.0367,0.9419,0.0113,1.8763,0.2334,2.7867
		c0.2279,0.935,1.6648,0.9359,1.893,0c0.2026-0.8308,0.2619-1.6819,0.2428-2.5402c0.6183,0.0382,1.2371,0.0327,1.8371-0.0888
		C342.0376,89.7999,341.8902,88.3281,340.9919,88.0384z"/>
	<path class="st7" d="M284.4229,66.0582c-0.6313-0.2031-1.3355-0.2694-2.0351-0.2856c-0.1377-1.097-0.307-2.188-0.3756-3.2477
		c-0.0512-0.7917-1.1802-0.7932-1.2316,0c-0.0692,1.0681-0.2405,2.168-0.3788,3.2735c-0.8754,0.0052-1.7538-0.0139-2.6024,0.2202
		c-0.7266,0.2005-0.6143,1.1219,0,1.3662c0.7562,0.3009,1.5925,0.4028,2.4172,0.4893c-0.0367,0.9419,0.0113,1.8763,0.2334,2.7867
		c0.2279,0.935,1.6648,0.9359,1.893,0c0.2026-0.8308,0.2619-1.6819,0.2428-2.5402c0.6183,0.0382,1.2371,0.0327,1.8371-0.0888
		C285.4686,67.8196,285.3212,66.3478,284.4229,66.0582z"/>
</g>
</svg>
