<?xml version="1.0" encoding="utf-8"?>
<!-- Generator: Adobe Illustrator 20.1.0, SVG Export Plug-In . SVG Version: 6.00 Build 0)  -->
<svg version="1.1" xmlns="http://www.w3.org/2000/svg" xmlns:xlink="http://www.w3.org/1999/xlink" x="0px" y="0px"
	 viewBox="0 0 82 60" style="enable-background:new 0 0 82 60;" xml:space="preserve">
<style type="text/css">
	.st0{fill:none;stroke:#F7FAFC;stroke-width:39.9968;stroke-linecap:round;stroke-linejoin:round;}
	.st1{fill:none;stroke:#F2F6F9;stroke-width:39.9968;stroke-linecap:round;stroke-linejoin:round;}
	.st2{fill:#F7FAFC;}
	.st3{fill:#F2F6F9;}
	.st4{fill:#FFFFFF;}
	.st5{fill:#FCE0DE;}
	.st6{fill:#E6E6E6;}
	.st7{fill:#FFEFAF;}
	.st8{fill:#E93A1D;}
	.st9{fill:#303030;}
	.st10{fill:#E83D25;}
	.st11{fill:#B3B3B3;}
	.st12{fill:#666666;}
	.st13{fill:none;stroke:#E93A1D;stroke-width:1.5;stroke-linecap:round;stroke-linejoin:round;}
	.st14{fill:none;stroke:#E93A1D;stroke-width:1.5;stroke-linecap:round;stroke-linejoin:round;stroke-dasharray:2.0259,5.0648;}
	.st15{fill:none;stroke:#E93A1D;stroke-width:1.5;stroke-linecap:round;stroke-linejoin:round;stroke-dasharray:1.8929,4.7321;}
	.st16{fill:#777777;}
	.st17{fill:#172DF8;}
	.st18{fill:none;stroke:#E93A1D;stroke-width:1.5;stroke-linecap:round;stroke-linejoin:round;stroke-dasharray:1.9198,4.7994;}
	.st19{fill:none;stroke:#E93A1D;stroke-width:1.5;stroke-linecap:round;stroke-linejoin:round;stroke-dasharray:1.9197,4.7993;}
</style>
<g id="back">
</g>
<g id="Layer_2">
	<path class="st7" d="M31.9137,27.8348C28.8136,27.0731,7.2919,47.3269,4.374,52.5814c-1.0826,1.9345,1.341,4.9981,3.7674,2.9111
		c4.2299-3.6386,8.0711-9.5994,13.2385-11.9854c2.2677-1.0467,5.1959-0.8377,7.6349-1.1678
		c3.0538-0.4134,9.7018-2.8106,10.4198-3.182c1.7284-0.8948,1.6541-3.1458,0.4374-4.4368
		C39.1415,33.9455,34.7314,28.5271,31.9137,27.8348z"/>
	<path class="st8" d="M67.5864,37.5442c-1.3565-0.9343-2.7233-1.7367-4.1281-2.4373c0.806-1.2282,0.3642-3.3795-1.3082-3.9735
		c-1.4202-0.504-2.6689-0.5795-3.802-0.3213c-1.8807-0.1141-3.7585-0.1652-5.6377-0.17c-0.173-0.6686-0.591-1.2593-1.2004-1.5613
		c0.0121-0.0939,0.0172-0.1872,0.0254-0.2808c4.3821-0.3249,8.7705-0.5336,13.1592-0.7619c3.0814-0.1604,3.0814-4.6167,0-4.7885
		c-3.1781-0.1773-6.3561-0.3545-9.5342-0.5318c-0.3941-0.4478-0.9422-0.7559-1.6229-0.7658l-0.2331-0.0033
		c2.7305-1.7551,5.5187-3.416,8.3924-4.9664c2.6143-1.4109,0.315-5.218-2.3084-3.949c-2.4781,1.1989-4.9746,2.3503-7.5357,3.3629
		c-1.0119,0.4001-5.603,2.7227-6.4416,2.4738c0.5587,0.1658,4.6922-3.9231,7.5752-6.8067c0.8936-0.8398,1.7699-1.7026,2.6215-2.5986
		c1.9858-2.0891-1.0572-5.1246-3.1593-3.1593c-2.3479,2.1948-5.1056,4.351-7.6527,6.6611
		c-0.7926,0.5804-1.6046,1.1415-2.4298,1.6929c-0.1412-1.3061-1.3973-2.0903-2.4794-1.9088
		c1.0192-1.8916,1.9567-3.8246,2.8427-5.7337c0.0225-0.0483,0.0322-0.0945,0.0516-0.1425c0.307-0.3503,0.6129-0.7018,0.9244-1.0503
		c1.8664-2.0882-1.0358-5.0383-3.0885-3.0887c-0.2476,0.2352-0.4821,0.4826-0.724,0.7229c-0.5209,0.1504-1.0248,0.4817-1.4329,1.063
		c-0.4987,0.7103-1.0003,1.419-1.5013,2.1281c-2.7242,3.2339-5.0801,6.7859-7.2027,10.4275
		c-1.1918,2.0447,0.7637,3.6929,2.5406,3.3197c0.8745,0.5895,2.0293,0.6577,2.8602-0.3651
		c0.1289-0.1585,0.2485-0.3264,0.3749-0.4877c0.152,0.8347,0.7053,1.5905,1.7794,1.9034c1.7032,0.4962,4.4315,1.5999,5.7869,2.838
		c1.4121,1.2899,1.1434,2.9308,1.558,4.7187c-2.2682,1.5895-4.3265-1.1865-6.5627-1.3899c-3.3633-0.3058-3.1405,2.122-2.9377,4.2467
		c0.0707,0.7411,0.439,1.4543,1.1929,1.9122c2.9552,1.795,7.5742,4.4268,11.5169,7.5843c1.143,2.1447,3.6277,3.8174,5.4426,5.5861
		c1.114,1.6174,1.8644,3.3013,2.0012,5.0331c0.2078,2.6257,4.5618,3.7035,4.9851,0.6746c0.0329-0.2365,0.039-0.4539,0.0906-0.6746
		c-0.0039-0.0507-0.0172-0.0987-0.0217-0.1492c0.1474-2.2567-0.462-4.0058-1.7074-5.6975c-1.1548-2.2289-2.793-4.2857-4.7118-6.1765
		c0.6749-0.8169,10.3852,1.8838,11.7296,2.1275C68.4461,42.5836,69.9627,39.1803,67.5864,37.5442z"/>
	<g>
		<g>
			<g>
				<path class="st9" d="M2.0584,43.8274c4.249-2.3585,8.4281-4.9046,12.5615-7.4605c1.8893-1.1682,1.8275-2.9667,2.1428-5.0789
					c0.2425-1.6241,0.4575-3.2522,0.7079-4.8752c0.2099-1.3606,0.1973-3.7761,1.0739-4.856
					c1.2892-1.5883,4.4888-2.0087,6.4069-2.2019c2.0729-0.2087,4.1661-0.1847,6.2448-0.3083
					c-0.2602-0.2602-0.5204-0.5204-0.7805-0.7805c-0.0053,0.8693,0.0137,0.9845,0.1686,1.8371
					c0.1445,0.7952,1.468,0.6179,1.4157-0.1916c-0.0629-0.5477-0.0706-1.0962-0.0232-1.6455
					c0.0145-0.4051-0.3697-0.8033-0.7805-0.7805c-3.8881,0.2149-7.9317-0.013-11.5764,1.59
					c-1.3398,0.5893-2.3699,1.0032-2.8291,2.3564c-0.519,1.5292-0.6388,3.3144-0.88,4.9058
					c-0.2436,1.6075-0.4568,3.2194-0.6995,4.8269c-0.1399,0.9269-0.1224,2.5706-0.6582,3.3795
					c-0.5276,0.7967-2.407,1.485-3.2253,1.98c-1.1112,0.6723-2.2203,1.3482-3.3305,2.0224
					c-2.2199,1.348-4.4605,2.6686-6.6365,4.0866C0.6181,43.1171,1.2748,44.2623,2.0584,43.8274L2.0584,43.8274z"/>
			</g>
		</g>
		<g>
			<g>
				<path class="st9" d="M44.4574,29.5454c-0.5236-2.5508-0.8419-6.6647-3.9396-7.3886c-3.7527-0.877-8.4986,0.5718-12.2518,1.0904
					c-0.952,0.1315-0.5468,1.5771,0.3988,1.4464c3.1771-0.439,6.343-1.046,9.5577-1.1263c2.1917-0.0547,3.2436,0.4439,3.9416,2.5821
					c0.4012,1.229,0.5876,2.5315,0.847,3.7947C43.2049,30.8891,44.6511,30.4892,44.4574,29.5454L44.4574,29.5454z"/>
			</g>
		</g>
		<g>
			<g>
				<path class="st9" d="M37.5944,33.5034c-0.9231,0.6554-1.6406,1.3683-2.2649,2.315c0.4659,0.1262,0.9317,0.2524,1.3976,0.3785
					c-0.0113-0.9436-0.2595-1.7528-0.6965-2.5812c-0.5141-0.9745-1.4742-1.9789-1.2806-3.1514
					c0.1901-1.1516,1.4699-2.0999,2.4818-2.5504c0.3691-0.1643,0.9971-0.4762,1.3822-0.2744
					c0.2869,0.1504,0.6681,1.9821,0.7757,2.3296c0.2845,0.9193,1.733,0.5271,1.4464-0.3988
					c-0.304-0.982-0.6938-1.9179-0.8948-2.9286c-0.0449-0.2261-0.288-0.4915-0.5238-0.5238
					c-2.1998-0.3015-4.6431,1.0426-5.7387,2.9651c-1.5534,2.7258,1.5172,4.5262,1.5483,7.1139
					c0.0092,0.7677,0.995,0.989,1.3976,0.3785c0.5055-0.7665,0.9782-1.2453,1.7268-1.7768
					C39.1322,34.2443,38.3838,32.9429,37.5944,33.5034L37.5944,33.5034z"/>
			</g>
		</g>
		<g>
			<g>
				<path class="st9" d="M9.6819,58.7325c4.0804-4.7939,7.5371-11.9752,13.8171-14.2039c3.1365-1.1131,6.6517-0.5112,9.8819-1.543
					c3.5665-1.1391,6.6866-3.247,9.6567-5.4741c0.7631-0.5723,0.0163-1.8751-0.7571-1.2952
					c-3.2448,2.4331-6.6671,4.7381-10.6627,5.7059c-3.3001,0.7993-6.6813,0.1882-9.8108,1.6977
					c-5.8601,2.8264-9.1353,9.2934-13.1857,14.052C7.9989,58.403,9.055,59.469,9.6819,58.7325L9.6819,58.7325z"/>
			</g>
		</g>
		<g>
			<g>
				<path class="st9" d="M37.7282,21.9738c-0.3828-1.958-2.691-2.6354-4.4145-2.466c-2.7446,0.2699-5.4055,1.2203-8.1491,1.4308
					c-0.7671,0.0589-0.7803,1.2535,0,1.207c1.864-0.1109,3.7061-0.6372,5.5324-0.9935c1.6902-0.3298,5.2419-1.4097,6.0142,1.102
					C36.9124,22.9087,37.8576,22.6359,37.7282,21.9738L37.7282,21.9738z"/>
			</g>
		</g>
		<g>
			<g>
				<path class="st9" d="M29.5543,18.6515c1.639-2.7329,3.8845-5.0199,5.533-7.7326c0.8491-1.3971,0.8771-2.8831,1.3773-4.4134
					c1.226-3.7512,4.7246-4.1348,8.1542-3.7896c1.3411,0.135,2.822,0.3879,3.9021,1.2469c0.865,0.6879,1.1955,1.6217,1.8813,2.4492
					c0.8987,1.0845,2.0187,1.4447,3.3862,1.0888c1.0296-0.268,1.9758-1.1387,3.0251-1.2619c1.6924-0.1986,2.3937,1.06,3.2112,2.199
					c0.8187,1.1407,1.5715,2.11,3.0226,2.3619c0.8529,0.1481,1.2044-1.0325,0.3614-1.3108c-2.052-0.6775-2.4709-3.271-4.2358-4.3591
					c-1.5109-0.9315-2.9988-0.3292-4.4794,0.3299c-1.2848,0.5719-2.2827,0.5313-3.4342-0.5105
					c-0.3144-0.2845-0.5118-0.8993-0.7965-1.2479c-0.6035-0.7391-1.3244-1.2694-2.1902-1.6662
					c-1.9719-0.9037-4.5226-1.0547-6.6555-0.9152c-2.0184,0.132-3.9963,0.7393-5.3143,2.353
					c-1.4732,1.8038-1.3111,4.0733-2.2158,6.0804c-0.8105,1.7981-2.3875,3.3345-3.5684,4.8923
					c-0.829,1.0937-2.0833,2.4501-2.0178,3.9203C28.5253,18.9187,29.2581,19.1455,29.5543,18.6515L29.5543,18.6515z"/>
			</g>
		</g>
		<g>
			<g>
				<path class="st9" d="M50.8709,6.4923c-1.799,1.799-3.4522,3.7694-5.1191,5.6903c-0.525,0.605,0.3432,1.4903,0.8866,0.8866
					c1.7034-1.8923,3.4568-3.7777,5.0238-5.7856C52.0925,6.7323,51.3957,5.9675,50.8709,6.4923L50.8709,6.4923z"/>
			</g>
		</g>
		<g>
			<g>
				<path class="st9" d="M61.6484,9.6514c-3.055,2.0899-5.9636,4.4569-8.6885,6.958c-0.5505,0.5052,0.2496,1.2658,0.8079,0.8079
					c2.8333-2.3236,5.7116-4.5805,8.5871-6.8503C62.8713,10.1594,62.1935,9.2785,61.6484,9.6514L61.6484,9.6514z"/>
			</g>
		</g>
		<g>
			<g>
				<path class="st9" d="M52.0995,23.2374c7.3129-0.6333,14.6218-1.36,21.9174-2.1687c0.8227-0.0912,0.8426-1.3865,0-1.3066
					c-7.3132,0.6933-14.6228,1.4702-21.9174,2.3387C51.3887,22.1853,51.3617,23.3013,52.0995,23.2374L52.0995,23.2374z"/>
			</g>
		</g>
		<g>
			<g>
				<path class="st9" d="M58.596,31.2368c7.0608,0.3999,13.9969,0.9667,21.011,1.8952c0.7284,0.0964,0.899-1.1521,0.1745-1.2891
					c-6.9003-1.3042-14.1678-1.9335-21.1855-1.6491C57.9231,30.2211,57.9265,31.1988,58.596,31.2368L58.596,31.2368z"/>
			</g>
		</g>
		<g>
			<g>
				<path class="st9" d="M37.6964,34.624c4.7145,2.1386,8.7065,5.5956,12.3252,9.2447c3.6415,3.6721,7.1177,7.7368,9.5677,12.3166
					c0.2322,0.434,0.9034,0.527,1.2378,0.1595c1.4449-1.5882,2.8901-3.1761,4.3346-4.7646
					c0.9107-1.0015,2.3858-2.1002,2.9065-3.3825c0.3486-0.8584,0.0763-1.3983-0.4095-2.118
					c-0.3491-0.5172-1.1552-1.0502-1.4007-1.6408c-0.8655-2.0817,0.3279-2.1788,1.7299-2.7728
					c2.246-0.9517,4.7819-1.8306,5.7778-4.2972c0.4136-1.0243-0.2306-2.8656,0.3942-3.6273
					c0.5858-0.7143,1.668-0.7032,2.2714-1.6009c0.4392-0.6535-0.5582-1.4202-1.0905-0.8414
					c-1.4183,1.5421-2.904,0.9091-3.0889,3.2709c-0.0813,1.0387,0.0615,2.2452-0.6011,3.2682
					c-0.4886,0.7543-1.503,1.2169-2.2984,1.5909c-1.4508,0.6821-3.0281,1.0745-4.3484,2.0174
					c-1.6355,1.1679-1.3564,2.2837-0.1748,3.7315c0.8001,0.9803,1.7983,1.8264,1.22,3.09c-0.359,0.7845-1.4153,1.5541-2.0015,2.1981
					c-1.4454,1.5877-2.89,3.1761-4.335,4.7643c0.4126,0.0532,0.8252,0.1063,1.2377,0.1595
					c-2.5644-4.7936-6.2612-9.0487-10.1179-12.8428c-3.5845-3.5263-7.8287-7.3597-12.7138-8.9242
					C37.5382,33.4369,37.1248,34.3647,37.6964,34.624L37.6964,34.624z"/>
			</g>
		</g>
		<g>
			<g>
				<path class="st9" d="M54.5959,39.4367c3.6971,1.5738,7.4501,3.0291,11.205,4.4584c0.7682,0.2924,1.0897-0.9305,0.338-1.2261
					c-3.69-1.4508-7.395-2.8846-11.1389-4.1908C54.4468,38.2852,54.0467,39.2029,54.5959,39.4367L54.5959,39.4367z"/>
			</g>
		</g>
		<g>
			<g>
				<path class="st9" d="M63.8378,35.1323c2.8757,0.0826,5.7593,0.1054,8.6348,0.0176c0.7349-0.0224,0.7362-1.1201,0-1.1426
					c-2.8754-0.0878-5.7592-0.065-8.6348,0.0176C63.1255,34.0453,63.1243,35.1118,63.8378,35.1323L63.8378,35.1323z"/>
			</g>
		</g>
		<g>
			<g>
				<path class="st9" d="M38.9573,31.0324c2.8961-1.1258,6.6689-0.5592,9.6839-0.306c0.7778,0.0653,0.9668-1.2458,0.1861-1.3754
					c-2.9764-0.4941-7.595-0.994-10.247,0.7872C38.1503,30.427,38.4095,31.2454,38.9573,31.0324L38.9573,31.0324z"/>
			</g>
		</g>
		<g>
			<g>
				<path class="st9" d="M39.9725,33.3544c2.5454,0.4726,4.7035,1.3977,6.7084,3.0572c0.539,0.4462,1.271-0.2516,0.7789-0.7789
					c-1.8739-2.0081-4.5835-3.2784-7.3401-3.366C39.508,32.2473,39.3501,33.2388,39.9725,33.3544L39.9725,33.3544z"/>
			</g>
		</g>
		<g>
			<g>
				<path class="st9" d="M46.0014,26.6733c1.0866-0.3015,2.18-0.5424,3.2908-0.7376c0.5924-0.1041,0.4494-1.0579-0.141-1.0416
					c-1.1851,0.0328-2.343,0.2568-3.4552,0.6718C45.0158,25.8197,45.2763,26.8745,46.0014,26.6733L46.0014,26.6733z"/>
			</g>
		</g>
		<g>
			<g>
				<path class="st9" d="M37.7191,19.3993c0.5714-1.28,1.3167-2.4655,2.2104-3.5455c0.376-0.4544-0.2489-1.1083-0.6588-0.6588
					c-1.0076,1.105-1.7997,2.3377-2.4067,3.7045C36.6079,19.4765,37.4593,19.9812,37.7191,19.3993L37.7191,19.3993z"/>
			</g>
		</g>
	</g>
</g>
</svg>
