<?xml version="1.0" encoding="utf-8"?>
<!-- Generator: Adobe Illustrator 20.1.0, SVG Export Plug-In . SVG Version: 6.00 Build 0)  -->
<svg version="1.1" xmlns="http://www.w3.org/2000/svg" xmlns:xlink="http://www.w3.org/1999/xlink" x="0px" y="0px"
	 viewBox="0 0 700.0356 328.0197" style="enable-background:new 0 0 700.0356 328.0197;" xml:space="preserve">
<style type="text/css">
	.st0{fill:none;stroke:#F7FAFC;stroke-width:39.9968;stroke-linecap:round;stroke-linejoin:round;}
	.st1{fill:none;stroke:#F2F6F9;stroke-width:39.9968;stroke-linecap:round;stroke-linejoin:round;}
	.st2{fill:#F7FAFC;}
	.st3{fill:#F2F6F9;}
	.st4{fill:#FFFFFF;}
	.st5{fill:#FCE0DE;}
	.st6{fill:#E6E6E6;}
	.st7{fill:#FFEFAF;}
	.st8{fill:#E93A1D;}
	.st9{fill:#303030;}
	.st10{fill:#E83D25;}
	.st11{fill:#B3B3B3;}
	.st12{fill:#666666;}
	.st13{fill:none;stroke:#E93A1D;stroke-width:1.5;stroke-linecap:round;stroke-linejoin:round;}
	.st14{fill:none;stroke:#E93A1D;stroke-width:1.5;stroke-linecap:round;stroke-linejoin:round;stroke-dasharray:2.0259,5.0648;}
	.st15{fill:none;stroke:#E93A1D;stroke-width:1.5;stroke-linecap:round;stroke-linejoin:round;stroke-dasharray:1.8929,4.7321;}
	.st16{fill:#777777;}
	.st17{fill:#172DF8;}
	.st18{fill:none;stroke:#E93A1D;stroke-width:1.5;stroke-linecap:round;stroke-linejoin:round;stroke-dasharray:1.9198,4.7994;}
	.st19{fill:none;stroke:#E93A1D;stroke-width:1.5;stroke-linecap:round;stroke-linejoin:round;stroke-dasharray:1.9197,4.7993;}
</style>
<g id="back">
	<path class="st2" d="M325.724,323.0197c-0.1201,0-0.2397-0.001-0.3599-0.0034c-8.2822-0.1494-13.5771-4.0127-30.667-20.9546
		c-3.3867,0.6094-7.1196,0.3398-10.916-1.1772c-1.6294,0.6548-3.4438,1.1362-5.3984,1.3198
		c-0.6831,0.5513-1.4131,1.062-2.1855,1.5249c-0.813,3.6826-2.6929,7.0977-5.4224,9.7334c-5.2144,5.0361-14.7783,8.335-25.043,1.708
		c-4.6714,4.1982-14.9844,8.6011-26.127,0.1221c-1.4849-1.1299-3.2383-2.625-5.5186-4.7051
		c-0.2612-0.2383-0.5293-0.4844-0.8052-0.7388c-4.2554,2.3447-9.665,3.2334-15.3037,1.4448
		c-5.98,5.0933-15.8081,6.9976-25.2139,0.0688c-0.0229-0.0171-0.0464-0.0347-0.0693-0.0518
		c-5.7876,3.1929-13.6636,3.6787-21.3101-1.5991c-4.9536,1.1768-10.729,0.457-16.3579-3.4243
		c-1.2612-0.8701-2.6714-1.9805-4.436-3.4941c-2.4204-2.0752-5.6514-5.0352-9.8691-9.0415
		c-0.1387,0.1426-0.2793,0.2832-0.4229,0.4219c-5.7886,5.5908-15.9692,8.1016-25.6597,1.105
		c-1.2412-0.896-2.6538-2.0464-4.4458-3.6201c-2.4277-2.1328-5.6553-5.1372-9.8442-9.1646
		c-4.4253,0.5518-9.9346-0.4458-16.1162-5.1865c-1.5044-1.1533-3.3916-2.7026-5.9385-4.8745
		c-2.4697-2.106-5.3115-4.5884-8.2788-7.2012c-3.4697-0.7939-6.7549-2.5703-9.4116-5.3218
		c-1.0728-1.1113-1.9834-2.3203-2.7319-3.5962c-1.332-1.2505-3.291-2.9907-4.6162-4.1675
		c-8.2935-7.3672-13.773-12.2344-13.9634-21.3921c-0.041-1.9722,0.2251-3.9233,0.7705-5.7861
		c-6.1538-6.1812-10.6382-10.9141-11.124-18.3931c-3.625-4.6436-4.9336-8.1646-4.8979-13.1606
		c0.0366-5.1069,2.1514-10.0513,5.8252-13.5991c5.5254-5.335,15.2847-7.9648,24.6318-1.8057
		c0.502,0.3311,1.0244,0.6982,1.583,1.1147c0.6675-4.0361,2.6226-7.8149,5.5811-10.6724
		c5.6831-5.4878,15.6792-8.0635,25.1963-1.4395c0.9688,0.6743,2.0195,1.4922,3.2559,2.5356
		c3.7876-1.9917,8.4458-2.8423,13.3296-1.7085c0.9092-3.2803,2.6792-6.3042,5.1475-8.688
		c1.1333-1.0938,10.7817-9.8018,23.5732-2.5449c2.1118-0.6313,4.4702-0.9517,7.0044-0.7466
		c3.7256-2.0117,8.436-3.0015,13.5825-1.7563c5.3047-2.3882,12.8027-3.0264,20.6899,2.918
		c4.0542-2.415,9.9575-4.0107,16.5225-1.6118c0.7002-1.0034,1.4971-1.9419,2.3838-2.7979c0.9868-0.9531,2.0576-1.7886,3.1953-2.5
		c0.293-0.3247,0.5972-0.6401,0.9126-0.9448c5.9058-5.7031,16.2725-8.1489,26.1167-0.7559
		c0.9912,0.7446,2.1069,1.6606,3.4443,2.8311c2.0151-1.0654,4.418-1.9038,7.0854-2.1904c0.9976-2.6611,2.5742-5.0981,4.6357-7.0889
		c5.4224-5.2363,15.5649-8.6006,26.3052-0.8569c1.6196,1.1675,3.4883,2.71,5.873,4.8467c4.9351-4.625,13.6015-7.6646,23.1035-2.5737
		c1.2974-0.877,2.6904-1.5859,4.1509-2.1177c5.1626-3.5552,12.8574-5.2227,21.1167-0.6045
		c3.6475,0.2402,7.5195,1.5244,11.3369,4.2202c1.5596,1.1011,3.335,2.5469,5.5874,4.5493c1.9937,1.7725,4.4072,4.0249,7.2954,6.8101
		c2.8838-1.3936,6.2158-2.124,9.7339-1.8452c0.667-0.3926,1.3623-0.748,2.084-1.0625c0.1265-5.0068,2.2422-9.8418,5.8398-13.3164
		c1.0054-0.9702,8.6006-7.833,19.061-4.4951c3.4307-2.6382,7.6382-4.0312,12.0386-3.9502
		c7.7939,0.1396,12.1143,3.021,27.064,17.8228c4.0908-0.667,8.6538-0.0229,13.2065,2.5693
		c6.0386-3.9766,14.8291-4.9062,23.2354,1.3535c1.2173,0.9067,2.6177,2.0703,4.3901,3.6489
		c1.1729,0.1167,2.3672,0.3457,3.5713,0.6982c0.5996-1.5884,1.4053-3.0962,2.397-4.4775c0.9741-2.9053,2.6323-5.5713,4.854-7.7173
		c5.7773-5.5801,16.0015-8.0869,25.8208-1.105c1.4351,1.02,3.0718,2.3496,5.1504,4.1841c2.3833,2.103,5.4258,4.9419,9.2393,8.6226
		c0.7622-1.1509,1.6494-2.2231,2.6519-3.1909c4.3677-4.2188,14.6934-9.0923,25.9409-0.9639
		c1.3076,0.1475,2.6401,0.4336,3.9824,0.8755c1.0537-0.125,2.1372-0.1641,3.2402-0.1104c4.1411-1.1172,8.8735-0.8916,13.6143,1.4458
		c1.6289-0.5405,3.3643-0.8735,5.1699-0.9512c5.6768-3.8193,14.3218-5.3486,23.3721,1.1089c1.5127,1.0796,3.25,2.4956,5.4678,4.457
		c3.3027,2.9209,7.7686,7.1436,13.6519,12.9092c0.5156,0.5054,1.0381,1.0186,1.5674,1.5396
		c4.3281-0.46,9.1128,0.5396,13.7876,3.7549c1.1465,0.7886,2.4175,1.7817,3.9985,3.1255c0.5396,0.458,1.1245,0.9653,1.7573,1.5239
		c3.1133,0.3799,6.3501,1.5596,9.5312,3.7778c1.1084,0.7734,2.3281,1.7397,3.8374,3.0415c2.0479,1.7661,4.7939,4.2944,8.395,7.7295
		c1.8721,1.7861,3.9189,3.7632,6.083,5.8696c1.854,0.4609,3.8091,1.2373,5.8418,2.4258c0.9692,0.0176,1.9775,0.1152,3.0215,0.3101
		c6.1299-1.2222,12.7349,0.603,17.3994,5.4331c1.0586,1.0957,1.959,2.2866,2.7017,3.5435c2.1899,2.2549,6.7729,6.5664,9.979,9.5825
		c15.3667,14.4556,20.0044,18.8184,20.0659,28.1533c0.022,3.3706-0.8564,6.6777-2.4893,9.5733
		c0.1411,0.9409,0.2153,1.9204,0.2168,2.9468c0.0078,5.1855-2.1221,10.2217-5.8438,13.8159
		c-2.6553,2.564-6.2505,4.4932-10.2925,5.1455c-2.2314,1.8857-5.0703,3.3569-8.2305,4.0684
		c-0.9697,2.8711-2.6143,5.5068-4.8193,7.6362c-5.4355,5.251-15.5645,8.6108-26.2202,0.8018
		c-0.75-0.5503-1.5635-1.188-2.4717-1.9404c-0.0093,0.0088-0.0181,0.0171-0.0273,0.0259c-3.6929,3.5669-9.125,5.8516-15.1025,5.2632
		c-2.6279,2.5234-7.3555,5.272-13.0889,5.3423c-1.7925,0.6182-3.7852,1.021-5.9229,1.0615
		c-4.54,3.0498-11.9556,5.2925-20.1567,1.0708c-0.3413,0.3887-0.6987,0.7637-1.0723,1.124
		c-5.7578,5.5605-15.9863,8.0718-25.8525,1.1504c-0.5762-0.4043-1.1816-0.8555-1.8306-1.3643
		c-3.5708-0.3423-7.4185-1.729-11.3433-4.6123c-1.4839-1.0903-3.2046-2.5132-5.3867-4.4541
		c-0.8916,1.5625-2.0024,3.0029-3.3086,4.2642c-4.2119,4.0679-10.7451,6.4985-17.7388,4.8374
		c-0.6128,0.8223-1.293,1.5967-2.0356,2.314c-1.2393,1.1973-12.5312,11.3726-27.0205,0.1997
		c-1.6826-1.2969-3.7051-3.0381-6.3657-5.4785c-0.4189-0.3843-0.854-0.7861-1.3047-1.2056
		c-4.5454,2.3472-10.2817,3.02-16.1567,0.6299c-5.7612,2.3545-13.083,2.0801-20.1538-3.2163
		c-0.6465-0.4844-1.3438-1.0391-2.1157-1.6846c-3.2075,1.8359-7.2007,2.9297-11.6025,2.4346
		c-0.7583,1.1431-1.6401,2.207-2.6343,3.1675c-2.6182,2.5278-6.1221,4.4194-10.0723,5.0947
		c-0.8101,1.2881-1.7749,2.4829-2.8789,3.5493c-3.8911,3.7578-10.25,6.5576-17.5371,4.9429
		c-4.5352,0.8696-10.3184,0.2314-16.7393-4.5815c-1.6572-1.2422-3.6143-2.8989-6.1577-5.2144
		c-1.5854-1.4429-3.4038-3.1475-5.4751-5.1328c-0.1489-0.0356-0.2979-0.0732-0.4473-0.1128
		c-0.6855,0.9712-1.4624,1.8809-2.3242,2.7134c-3.5308,3.4111-10.9531,7.2451-19.604,4.2935
		c-0.0288,0.0034-0.0586,0.0063-0.0874,0.0093c-0.9995,2.4624-2.5034,4.7173-4.4326,6.5806
		C335.5062,321.1086,330.7601,323.0197,325.724,323.0197z"/>
	<path class="st3" d="M221.6737,315.7058c-3.1152,0-6.2847-0.7578-9.2715-2.3066c-1.2881-0.668-2.54-1.4741-3.939-2.5366
		c-1.3945-1.0586-3.0273-2.4429-5.1216-4.3423c-4.3838,2.521-9.2065,2.8984-13.6621,1.8921
		c-5.6445,5.3506-15.3149,7.7583-24.7358,1.5742c-5.5649,3.1899-13.1396,3.8652-20.5869-0.792
		c-5.0088,1.2739-10.8843,0.6113-16.6074-3.3247c-1.2456-0.8569-2.6348-1.9478-4.3711-3.4331
		c-2.0527-1.7559-4.6987-4.1577-8.0503-7.3091c-0.167,0.1738-0.3364,0.3442-0.5103,0.5117
		c-5.7759,5.5781-15.9282,8.0967-25.585,1.1494c-1.2144-0.874-2.5918-1.9917-4.3354-3.5181
		c-2.2324-1.9541-5.1606-4.6646-8.9209-8.2588c-4.3179,0.5679-9.6719-0.3374-15.6689-4.7798
		c-1.3506-1.0005-3.0327-2.3345-5.2939-4.1982c-2.6538-2.1875-5.7905-4.8477-9.0176-7.603
		c-3.3677-0.8237-6.5498-2.5776-9.1362-5.2559c-0.9453-0.979-1.7646-2.0337-2.458-3.1436
		c-0.7754-0.6816-1.6924-1.4663-2.3555-2.0332c-6.1372-5.2495-11.9346-10.2075-12.21-19.3501
		c-0.04-1.3364,0.0601-2.6636,0.2925-3.9609c-0.2422-0.9956-0.4092-2.0366-0.4893-3.1313
		c-0.6338-0.6274-1.2427-1.2339-1.8228-1.8154c-6.2549-6.2725-10.8843-10.9136-11.4419-18.4966
		c-4.3379-5.2261-5.8701-8.8867-5.8315-14.313c0.0366-5.1064,2.1499-10.0479,5.8232-13.5952
		c5.2021-5.0229,14.166-7.6538,22.9907-2.793c0.4731-4.4404,2.5049-8.6465,5.7275-11.7588
		c5.6748-5.4814,15.6528-8.0591,25.1519-1.4648c0.8467,0.5874,1.7549,1.2847,2.7954,2.147
		c3.8516-2.0469,8.6113-2.9126,13.5977-1.6987c0.9185-3.2334,2.6753-6.2114,5.1128-8.5659
		c1.1445-1.1045,10.9697-9.9805,23.9189-2.3379c2.5474-0.7378,5.2393-0.938,7.9233-0.5781
		c3.8813-1.9287,8.7412-2.7417,14.0083-1.167c5.3096-2.2163,12.6392-2.6182,20.3062,3.2876
		c0.3032,0.2339,0.6196,0.4849,0.9512,0.7554c4.5068-2.6357,11.2246-4.2427,18.5576-0.5781
		c0.5591-0.7236,1.1704-1.4082,1.8325-2.0474c1.458-1.4082,3.2622-2.6826,5.3315-3.6416
		c5.9399-5.1455,15.7163-7.1528,24.9829-0.3027c1.1558,0.8545,2.48,1.9482,4.167,3.4429c0.3691,0.3271,0.7588,0.6763,1.1689,1.0469
		c3.229-1.7173,7.0732-2.5874,11.1362-2.1006c0.8892-1.5522,1.9946-2.9834,3.293-4.2373
		c5.7515-5.5522,15.9072-8.0796,25.6333-1.2119c1.3687,0.9663,2.9141,2.2153,4.8633,3.9307
		c1.1621,1.0225,2.4932,2.2339,4.0078,3.6484c1.3579,0.2324,2.7368,0.6182,4.123,1.1753
		c5.8496-4.3252,14.8125-5.7788,23.4399,0.1753c1.2817,0.8853,2.7168,2.0171,4.5166,3.562
		c0.5938,0.5098,1.2349,1.0713,1.9263,1.6875c4.8223-2.7021,11.1406-3.5527,17.5132-0.6611
		c4.9482,0.019,9.8828,1.959,13.5923,5.7988c1.0244,1.0601,1.9009,2.2085,2.6294,3.4204
		c3.7002,4.1196,15.6714,15.9282,24.604,24.7388c7.2642,7.1655,14.7759,14.5747,20.4326,20.332
		c10.0972,10.2764,14.73,14.9907,14.7251,23.6709c1.5156,2.8735,2.21,5.7026,2.1914,9.0703
		c-0.0254,4.5171-1.6797,8.919-4.5894,12.333c0.5913,1.8442,0.8491,3.7451,0.8354,5.8916
		c-0.0337,5.1113-2.1504,10.0645-5.8276,13.6147c-2.0298,1.9604-4.6235,3.5493-7.5586,4.4746
		c-6.0098,4.0991-14.8926,5.1709-23.4072-1.0654c-0.9697-0.7104-2.0464-1.5767-3.3203-2.6724
		c-0.8301,1.3457-1.8271,2.5923-2.9751,3.7002c-3.0361,2.9326-7.2598,5.0107-11.9805,5.3276
		c-0.397,4.5869-2.4541,8.9502-5.7734,12.1553c-5.3882,5.2041-15.4575,8.5835-26.0947,0.98
		c-1.5757-1.1265-3.3853-2.6113-5.6948-4.6733c-2.6582-2.3735-6.0508-5.5806-10.2988-9.7373
		c-2.3892,0.4639-4.9531,0.4883-7.5889-0.0591c-1.0259,0.5386-2.1128,0.9907-3.2485,1.3418
		c-0.3706,0.4277-0.7603,0.8398-1.1689,1.2349c-0.3672,0.354-0.751,0.6958-1.1523,1.0239
		c-0.1665,4.9805-2.2832,9.7739-5.8608,13.2295c-4.8315,4.6665-13.397,7.8511-22.769,3.0151
		c-0.0396,0.0391-0.0791,0.0776-0.1191,0.1162C231.2455,313.8659,226.5263,315.7058,221.6737,315.7058z"/>
	<path class="st2" d="M357.5267,67.8796c-2.4302,0-5.272-0.7153-8.5557-2.5723c-1.3296-0.752-3.1294-1.8379-5.5034-3.3198
		c-1.1841-0.7397-2.4644-1.5483-3.8203-2.4111c-5.8813,4.7954-12.2661,2.1235-18.4521-0.4634
		c-3.1328-1.3101-7.0835-3.0264-11.0039-4.7344c-3.5659,1.5371-7.3184,0.9648-10.999,0.2822
		c-0.334,0.4194-0.6968,0.8188-1.0854,1.1948c-4.9653,4.7974-12.8779,4.6606-17.6753-0.3042
		c-0.4141-0.4292-0.792-0.8799-1.1328-1.3491c-0.604-0.5933-1.5596-1.4966-2.251-2.1509
		c-5.0825-4.8057-8.1499-7.7065-8.1812-13.4058c-0.0186-3.4126,1.373-6.7231,3.8267-9.0947
		c4.7759-4.6084,10.0684-3.6025,14.3203-2.793c0.8071,0.1533,1.7251,0.3335,2.7158,0.5312
		c0.0742-0.0757,0.1499-0.1509,0.2266-0.2246c2.1021-2.0293,4.2554-3.0327,6.4097-3.3774c0.4536-2.6294,1.7378-5.103,3.6665-6.9653
		c1.4009-1.353,2.9219-2.3164,4.5581-2.8901c0.0161-3.3691,1.4126-6.647,3.8359-8.9878c2.9688-2.8662,8.1782-5.4448,16.1548-1.4741
		c1.2271,0.6113,2.8726,1.4932,5.0293,2.6968c0.7271,0.4058,1.4917,0.8364,2.29,1.2891c4.9854-4.229,12.4658-3.9111,17.0703,0.8589
		c0.7856,0.814,1.4385,1.7065,1.96,2.6519c1.5728,1.6157,4.8257,4.6377,7.105,6.7544c10.4751,9.731,13.6362,12.6675,13.6968,18.9414
		c0.0337,3.4629-1.3726,6.8252-3.8569,9.2246c-0.3691,0.3564-0.7739,0.7085-1.2153,1.0435c2.1055,2.77,3.1001,5.2271,3.0874,8.5239
		c-0.0127,3.3745-1.4131,6.666-3.8398,9.0103C364.0106,66.1965,361.2528,67.8796,357.5267,67.8796z"/>
	<path class="st2" d="M230.81,93.6522c-2.5586,0-5.0474-0.668-7.2783-1.2666c-1.4746-0.396-3.2578-0.8931-5.1689-1.4321
		c-4.9717,3.7354-12.062,3.2651-16.4907-1.3247c-0.3994-0.4136-0.7642-0.8477-1.0952-1.2988
		c-0.4526-0.4341-1.0747-1.0137-1.5371-1.4453c-3.999-3.728-7.1572-6.6724-7.2085-12.335
		c-0.0312-3.4277,1.3594-6.7534,3.8242-9.1357c5.2764-5.0942,11.228-3.5083,16.479-2.1084
		c1.7393,0.4634,3.7954,1.0356,5.9341,1.6387c4.9229-3.2168,11.5879-2.5952,15.8228,1.793c0.4526,0.4688,0.8613,0.9644,1.2261,1.481
		c0.335,0.3037,0.7163,0.6431,0.9961,0.8926c3.314,2.9517,6.7412,6.0039,6.8564,11.7617c0.0693,3.4785-1.3325,6.8789-3.8359,9.2949
		C236.5806,92.8275,233.6523,93.6522,230.81,93.6522z"/>
	<g>
		<g>
			<path class="st4" d="M11.699,207.3946c0.0437,0.0861,0.0873,0.1722,0.131,0.2584c0-0.55,0-1.1,0-1.65
				c-0.0699,0.0975-0.1398,0.195-0.2097,0.2925c0.8957-0.1154,1.7914-0.2309,2.6872-0.3463
				c-0.3918-0.4588-0.26-2.5675-0.2489-3.1769c0.0206-1.1316,0.1992-2.2204,0.5114-3.3084
				c0.6528-2.2753,1.8757-4.3847,3.6471-5.9716c3.824-3.4257,8.4506-3.1276,13.1971-2.7357
				c2.2178,0.1831,2.7938-2.963,1.0844-4.0036c-6.0549-3.6856-14.8705-0.6984-19.1619,4.4388
				c-2.2512,2.6949-3.625,5.908-4.0098,9.3967c-0.3244,2.9405-0.3258,7.4486,2.8926,8.6687c1.2531,0.475,2.6088-0.7412,2.591-1.9738
				c0.0024-0.007,0.0049-0.0139,0.0073-0.0209c0.1099-0.5499,0.0343-1.1972-0.4204-1.5904
				c-0.0732-0.0633-0.1464-0.1266-0.2197-0.1899C12.8225,204.3105,10.8706,205.7601,11.699,207.3946L11.699,207.3946z"/>
		</g>
	</g>
	<g>
		<g>
			<path class="st4" d="M37.0485,195.9668c0.6141-6.5451,3.7531-12.8607,9.4402-16.4275c4.8734-3.0564,11.9997-3.895,16.1073,0.8375
				c0.6854,0.7897,2.2647,1.0374,3.136,0.4046c2.6818-1.9478,6.4719-1.3714,8.1717,1.5867
				c1.1859,2.0638,4.0303,1.4098,4.7644-0.6227c-1.1946-0.0919-1.5798,0.1246-1.1555,0.6495
				c0.1533,0.276,0.3366,0.5313,0.5501,0.7661c0.3946,0.4258,0.9838,0.852,1.54,1.0144c1.2392,0.3618,2.2481-0.1532,3.1754-0.9107
				c0.7197-0.588,0.8028-1.621,0.649-2.4552c-0.0169-0.0916-0.0338-0.1832-0.0507-0.2748c-0.143-0.7752-0.8999-1.4397-1.6334-1.6334
				c-0.0818-0.0216-0.1637-0.0432-0.2455-0.0648c-1.7446-0.4608-2.9089,1.0806-2.6717,2.6717c0.0134,0.09,0.0268,0.18,0.0403,0.2701
				c0.3583-0.8804,0.7165-1.7607,1.0748-2.6411c-0.3908,0.2473-0.2773,0.255,0.3406,0.0233
				c0.6018,0.2493,1.2036,0.4985,1.8054,0.7478c-0.603-0.6049-0.8195-1.423-1.5466-1.96c-0.798-0.5895-1.7742-0.854-2.7609-0.8137
				c-2.0519,0.084-3.4571,1.3721-4.1382,3.2251c1.5881-0.2076,3.1763-0.4151,4.7644-0.6227
				c-2.9752-5.2462-10.3489-7.0549-15.2855-3.4244c1.0453,0.1349,2.0906,0.2698,3.136,0.4046
				c-5.429-6.1802-15.0337-5.8543-21.6611-1.8758c-7.1552,4.2953-12.15,12.685-11.5618,21.1255
				C33.2141,198.5673,36.8081,198.5301,37.0485,195.9668L37.0485,195.9668z"/>
		</g>
	</g>
	<g>
		<g>
			<path class="st4" d="M83.4867,188.849c0.6843-5.0951,1.1338-9.8039,4.7928-13.7958c3.4566-3.7711,8.0959-5.2301,12.9791-6.1617
				c2.5278-0.4823,1.6086-3.897-0.5608-4.1434c-6.1854-0.7026-12.5429,2.7055-16.4099,7.4145
				c-3.6427,4.4359-6.4037,11.4664-4.3155,17.162C80.6994,191.3072,83.2207,190.8296,83.4867,188.849L83.4867,188.849z"/>
		</g>
	</g>
	<g>
		<g>
			<path class="st4" d="M109.2037,176.191c-0.1814-4.9001,4.8717-9.6764,8.7-12.1719c3.0867-2.0121,9.0403-2.8584,9.8151,2.0584
				c0.3066,1.9455,3.1959,2.5724,4.4289,1.1693c1.9588-2.229,4.3642-3.6912,7.2882-4.2901c2.9797-0.6103,5.5391,0.235,8.4281,0.7849
				c2.0249,0.3854,4.1627-2.2352,2.2347-3.839c-6.2721-5.2174-16.836-2.1142-21.6985,3.5968
				c1.4763,0.3898,2.9526,0.7795,4.4289,1.1693c-1.264-7.2807-10.0883-8.8617-15.7828-5.994
				c-3.4796,1.7523-6.4043,4.7871-8.7864,7.8084c-2.3746,3.0118-3.9515,6.3678-3.0923,10.2541
				C105.6662,178.9924,109.2894,178.5066,109.2037,176.191L109.2037,176.191z"/>
		</g>
	</g>
	<g>
		<g>
			<path class="st4" d="M42.3488,250.6881c-1.7503,2.1978-6.1304-5.9253-6.5702-7.268c-1.1338-3.4619-1.2372-7.1301-0.1842-10.623
				c1.0818-3.5883,3.2453-6.7417,5.9752-9.2808c1.2881-1.1981,2.6981-2.2259,4.2167-3.1144c0.9074-0.5309,5.279-2.94,4.9554-0.5076
				c1.8372-0.2486,3.6744-0.4973,5.5116-0.7459c-1.9262-5.3009,1.5984-10.0889,5.749-13.1072
				c3.8591-2.8063,9.4837-6.6151,14.4735-5.148c2.6369,0.7753,3.902-2.8172,1.794-4.2552
				c-6.3237-4.3139-14.933,1.311-20.0852,5.2304c-5.6989,4.3354-10.0252,11.4907-7.3426,18.7719
				c1.1395,3.093,5.1103,2.3763,5.5116-0.7459c0.3925-3.0535-1.997-5.7599-4.8771-6.46c-3.4139-0.8298-7.0113,1.124-9.7566,2.9609
				c-5.2055,3.4832-9.4428,8.5474-11.272,14.5994c-1.7527,5.7987-1.0693,12.4396,2.1159,17.6296
				c2.2286,3.6312,9.0196,10.0008,12.6562,4.2793C46.3107,251.1875,43.6584,249.0436,42.3488,250.6881L42.3488,250.6881z"/>
		</g>
	</g>
	<g>
		<g>
			<path class="st4" d="M86.4685,223.4319c-0.0293-0.0001-0.0586-0.0002-0.0879-0.0003c0.3242,0.4216,0.6485,0.8433,0.9727,1.2649
				c-1.1269-6.6837,0.6327-13.7404,6.0612-18.1508c5.4489-4.427,13.3686-4.8927,19.4441-1.535
				c1.3841,0.7649,3.5643,0.1542,3.8881-1.5818c1.423-7.6291,9.0156-11.1739,16.2059-10.7156
				c2.0999,0.1339,4.1577,0.5993,6.1615,1.2297c1.7917,0.5637,3.5008,1.5018,5.3327,1.9106
				c3.4448,0.7688,6.4831-0.8886,6.9589-4.4581c0.3255-2.4413-3.332-3.0784-4.4258-1.1987
				c-0.7386,1.2693-3.3795-0.3819-4.3506-0.7523c-1.9182-0.7316-3.8954-1.3119-5.9179-1.6726
				c-4.0145-0.7158-8.2057-0.7483-12.132,0.4723c-6.3254,1.9665-11.7428,7.1198-12.9371,13.7775
				c1.296-0.5273,2.5921-1.0545,3.8881-1.5818c-9.0882-4.9409-21.3055-3.3583-28.02,4.838
				c-3.1227,3.8118-5.0025,8.5468-5.2436,13.4798c-0.1104,2.2587,0.029,4.9772,1.0047,7.0642
				c0.9487,2.0294,3.4265,2.0899,5.1372,0.929C90.4581,225.3599,88.6939,222.3306,86.4685,223.4319L86.4685,223.4319z"/>
		</g>
	</g>
	<g>
		<g>
			<path class="st4" d="M140.5396,188.2003c0.9185-3.6501,2.502-6.8888,5.78-8.9785c3.5487-2.2622,8.1008-2.3915,11.8707-0.5956
				c1.5811,0.7532,3.1824-0.1695,3.3297-1.9107c0.3102-3.6649,3.7278-6.3241,7.0083-7.3118
				c4.1644-1.2538,8.8701-0.6163,13.0586,0.1984c1.7338,0.3373,3.35-0.7465,3.4021-2.5916c0.1114-3.9435,5.5073-3.618,8.1611-3.0679
				c3.5495,0.7357,6.3275,2.57,9.5805,3.9856c2.4275,1.0564,4.9812-1.684,2.9538-3.8283
				c-6.0077-6.354-25.7275-10.1839-26.0707,2.9106c0.8959-0.8959,1.7917-1.7917,2.6876-2.6876
				c-5.8514-0.6428-11.8627-1.5434-17.387,1.1163c-4.4807,2.1573-7.564,6.2928-7.8201,11.2763
				c1.1099-0.6369,2.2198-1.2738,3.3297-1.9107c-9.7828-4.7588-23.1565,1.1603-23.3526,12.9262
				C137.0384,189.7101,140.0503,190.1443,140.5396,188.2003L140.5396,188.2003z"/>
		</g>
	</g>
	<g>
		<g>
			<path class="st4" d="M66.3607,270.2136c-0.1444,0.1189-0.2888,0.2378-0.4332,0.3567c0.4065-0.1684,0.813-0.3368,1.2195-0.5051
				c-1.0238,0.0653,0.4674-5.4699,0.7223-6.0428c0.931-2.0924,2.4578-3.8101,4.1038-5.3686
				c1.6946-1.6046-0.4681-4.2822-2.4521-3.178c-4.3095,2.3986-6.7631,7.1873-7.0406,12.0286
				c-0.1099,1.9166,0.087,4.4034,1.7618,5.6566c1.6734,1.2521,3.5903,0.584,4.7197-0.9402
				C70.1618,270.6015,67.6987,269.1118,66.3607,270.2136L66.3607,270.2136z"/>
		</g>
	</g>
	<g>
		<g>
			<path class="st4" d="M34.101,210.1853c0.3676,0.7439,0.599,0.8656,0.6943,0.365c0.0924-0.3233,0.2607-0.6078,0.5048-0.8533
				c0.2975-0.4423,0.6838-0.8539,1.0427-1.2477c0.9397-1.0313,1.9882-1.9383,3.1682-2.6841
				c2.2105-1.397,4.7104-2.1905,7.2842-2.5832c2.4441-0.373,1.882-4.4903-0.5857-4.3276c-4.9006,0.3232-9.474,2.4975-12.7784,6.1675
				c-1.3421,1.4906-2.8819,3.3811-2.881,5.4895c0.0008,1.8752,1.1559,3.3096,3.0526,3.3569
				C35.6804,213.9201,36.1985,210.6223,34.101,210.1853L34.101,210.1853z"/>
		</g>
	</g>
	<g>
		<g>
			<path class="st4" d="M100.1572,191.4808c0.8232-2.8958,3.3047-3.9533,5.9944-4.6158c1.7109-0.4214,1.8192-3.2175,0-3.5708
				c-4.5393-0.8818-8.7882,2.8678-9.7611,7.1482C95.835,192.8863,99.4666,193.9101,100.1572,191.4808L100.1572,191.4808z"/>
		</g>
	</g>
	<g>
		<g>
			<path class="st4" d="M200.2787,182.3924c-0.13,0.0011-0.2599,0.0023-0.3898,0.0034c0.4649,0.1926,0.9297,0.3851,1.3946,0.5777
				c0.4613,0.5937,1.7804-1.8435,2.0376-2.2001c0.691-0.9583,1.4627-1.8557,2.2883-2.7007c1.7008-1.7408,3.6097-3.2361,5.729-4.4341
				c3.2223-1.8216,8.5372-3.8846,11.3264-0.3484c1.1588,1.4692,3.8369,0.6193,4.1984-1.1084
				c0.8792-4.2023,4.3263-7.1085,8.3246-8.3508c5.2439-1.6293,10.3985-0.0865,15.6885-0.5987
				c2.3405-0.2266,2.8341-3.2765,0.5545-4.0974c-10.2268-3.6826-26.9109-0.6998-29.4119,11.7114
				c1.3995-0.3695,2.7989-0.739,4.1984-1.1084c-5.0384-6.292-14.5733-2.5003-19.8104,1.3996
				c-3.1214,2.3244-5.832,5.2434-7.7661,8.6359c-0.8186,1.4358-1.6114,2.9487-1.0529,4.6189
				c0.4954,1.4813,1.7061,2.1347,3.2041,1.7906C202.9251,185.6928,202.4411,182.3734,200.2787,182.3924L200.2787,182.3924z"/>
		</g>
	</g>
	<g>
		<g>
			<path class="st5" d="M81.1614,177.3554c3.784-5.8297,9.303-11.913,16.851-11.8186c3.0098,0.0376,5.4535,2.0037,8.4507,1.5798
				c2.383-0.337,4.9473-1.3518,6.8835-2.7941c0.9789-0.7292,1.6039-2.0615,0.8446-3.2211c-1.1293-1.7246-3.0416-2.038-4.9634-2.2218
				c-2.3797-0.2277-4.5256-0.4815-6.889-0.9217c-0.6902-0.1285-2.8753-0.793-3.5715-0.3833
				c-0.6791-0.0779-0.4792,0.2261,0.5997,0.9121c0.0253-0.1329,0.0505-0.2658,0.0758-0.3987
				c-1.227,0.2687-1.4145,0.4845-0.5626,0.6474c0.169,0.0807,0.338,0.1614,0.5069,0.2421c2.4303,1.0349,4.8662,1.4303,7.4863,1.6737
				c1.8388,0.1708,4.0208,0.4944,5.5512-0.7985c1.7526-1.4806,1.3738-3.988-0.3972-5.2543
				c-1.3792-0.9862-3.2058-1.1353-4.8319-1.382c-1.8417-0.2794-5.5165-0.3526-6.7556-1.9948
				c-1.823-2.416-5.8729-0.2754-4.1824,2.4447c2.4771,3.9858,7.5999,3.816,11.6899,4.6449c0.0547,0.0111,1.1952,0.366,1.2557,0.3276
				c0.1241-0.9195,0.2482-1.8391,0.3723-2.7586c-0.3034,0.0218-0.6072,0.0247-0.9112,0.0086
				c-0.8557-0.1928-1.842-0.1371-2.7179-0.2254c-1.3932-0.1405-2.7905-0.386-4.1018-0.89
				c-1.0989-0.4224-2.1145-1.0405-3.3314-1.0643c-4.4433-0.087-5.6761,7.5905-1.2218,8.5488
				c1.0474,0.2253,2.1522,0.096,3.2106,0.2276c1.4621,0.1819,2.8786,0.6341,4.3341,0.8516c0.99,0.148,1.9836,0.1479,2.9815,0.1905
				c0.5595,0.0239,1.1323,0.1136,1.6894,0.1078c0.4437-0.0046,1.1064,0.5758,0.6185-0.1576
				c0.2815-1.0737,0.5631-2.1474,0.8446-3.2211c-1.9756,1.4939-4.6448,2.8547-7.0316,1.8924
				c-3.3023-1.3314-6.9981-1.3988-10.4262-0.5028c-7.0827,1.8512-12.0521,7.7365-15.1977,14.045
				C77.3694,177.587,79.9994,179.1455,81.1614,177.3554L81.1614,177.3554z"/>
		</g>
	</g>
	<g>
		<g>
			<path class="st5" d="M104.7793,172.6514c2.8268-5.7878,7.2492-9.2934,13.3605-11.1848c1.9246-0.5957,1.6997-3.9516-0.5005-3.6984
				c-7.3409,0.8448-13.8562,6.5107-15.93,13.5889C101.1855,173.1448,103.9294,174.3914,104.7793,172.6514L104.7793,172.6514z"/>
		</g>
	</g>
	<g>
		<g>
			<path class="st5" d="M95.6942,189.9972c1.0283-1.982,2.2716-3.773,3.913-5.2992c1.6306-1.5161,3.6217-2.4446,5.4961-3.6064
				c1.8337-1.1366,0.5865-3.695-1.4087-3.3414c-5.2618,0.9327-9.5468,6.0784-11.2276,10.8864
				C91.8087,190.5202,94.7749,191.7691,95.6942,189.9972L95.6942,189.9972z"/>
		</g>
	</g>
</g>
<g id="Layer_2">
	<g>
		<path class="st8" d="M111.8345,155.6752c0.6798-10.8161,4.0124-20.4422,6.7938-30.8294
			c2.2587-8.4353,4.3158-17.2947,0.8462-25.7153c-7.4427-18.0637-16.6923-8.8385-12.4413-41.1859
			c0.0585-0.4451-3.2947-3.6639-3.2311-4.1239c5.3659-2.6875,17.4854-5.9846,17.4854-5.9846l-3.8317-6.8612L77.3665,52.4702
			l16.9118,29.7752c0,0-9.4621,18.3521-8.4558,24.6624c1.3085,8.2018,3.7163,16.3486,5.7576,24.3876
			c1.2534,4.9359,2.6953,9.8294,3.9235,14.7695c0.4196,1.6877,0.4132,4.6648,1.4515,6.0726
			c1.8606,2.5229,4.7398,1.2435,7.2779,2.178c1.6308,0.6004,1.9753,1.6693,3.4865,1.8367
			C109.2765,156.3245,110.1908,154.9346,111.8345,155.6752z"/>
		<path class="st7" d="M107.3793,14.3387c0.4616-0.754,0.9543-1.5136,1.0315-2.543c0.1312-1.7498-1.2364-2.8014-2.5926-3.6488
			c-2.178-1.3608-5.0326-0.8615-7.1433-2.1938c-2.9399-1.8557-4.3754-3.9801-8.1706-2.5503
			c-2.3893,0.9001-4.5999,2.2711-5.8791,4.5169c-2.0011-0.905-5.1429,1.7703-5.9358,3.587
			c-1.6897,3.8715-1.0067,10.8331,0.0998,14.7544c1.0378,3.6778,6.2815,38.5428,15.3649,34.249
			c2.1267-1.0057,3.4178-5.7009,4.2554-7.6223c0.7198-1.651,0.3913-3.0186,0.706-4.7129c0.4496-2.4211,1.7399-5.0961,2.9881-7.2289
			c-3.5526-0.7369-7.5578-2.5793-8.7408-6.2863c-0.7721-2.4196-1.09-5.1684-1.0705-7.7016
			c0.0204-2.6485-0.0841-5.3828,0.2004-8.0297c0.1583-1.4724,0.221-3.0373,0.7672-4.4314c0.1342-0.3424,1.9859-2.8771,1.9567-2.906
			c1.02,1.0101,1.9189,2.1141,1.9821,3.6771c1.5486-0.1121,2.2353-3.5181,2.3738-4.9199c1.1576,0.2435,3.3017,1.5332,4.1013,2.3553
			c1.2668,1.3025,0.8725,3.1676,0.6202,4.9059c-0.2457,1.6931,0.0736,3.215-0.0556,4.8909
			c-0.1252,1.624-0.5634,3.6771,0.0144,5.2755c0.3759,1.0397,1.2231,1.4608,2.3255,2.1971
			c0.7188-2.0774,2.6516-3.2699,0.9837-5.3632c-0.4964-0.623-1.4295-1.002-1.507-1.8478c-0.0659-0.7191,0.9091-1.769,1.0473-2.5184
			c0.2709-1.4688-0.7506-2.62-0.536-4.0173C106.6755,15.5158,107.0179,14.9289,107.3793,14.3387z"/>
		<g>
			<g>
				<path class="st9" d="M83.3934,44.8043c-3.0712,1.7446-6.2493,2.8136-9.6735,3.6243c-0.4156,0.0984-0.6395,0.4881-0.6722,0.8829
					c-0.6346,7.6673,0.9803,15.3527,4.6547,22.119c1.9051,3.5082,4.5087,6.6286,6.1501,10.282
					c1.8957,4.2196,2.2261,8.8204,2.7735,13.3501c0.1028,0.8505,1.3386,0.9024,1.3652,0c0.1149-3.8894-0.2471-7.9015-1.4085-11.6317
					c-1.1421-3.6678-3.2672-6.775-5.3113-9.9842c-4.6323-7.2728-6.789-15.5234-6.3925-24.1352
					c-0.2241,0.2943-0.4481,0.5886-0.6722,0.8829c3.5187-0.9704,7.075-2.0659,9.911-4.4514
					C84.6479,45.2969,83.9687,44.4775,83.3934,44.8043L83.3934,44.8043z"/>
			</g>
		</g>
		<g>
			<g>
				<path class="st9" d="M100.6979,47.862c5.4644-0.5093,9.8797-2.0932,14.7992-4.4595c-0.4738-0.1927-0.9476-0.3855-1.4213-0.5782
					c0.8272,2.2669,1.9849,4.9819,4.101,6.303c0.697,0.4352,1.3627-0.4005,1.0502-1.0502
					c-0.9741-2.0254-2.4717-3.6067-3.2852-5.7673c-0.2299-0.6105-0.8238-0.8732-1.4213-0.5782
					c-2.3762,1.1731-4.7733,2.5302-7.3369,3.2604c-2.2032,0.6275-4.4869,0.8785-6.6484,1.6673
					C99.935,46.8782,99.9614,47.9306,100.6979,47.862L100.6979,47.862z"/>
			</g>
		</g>
		<g>
			<g>
				<path class="st9" d="M118.3632,47.7356c-2.9387,0.8312-5.8024,1.9197-8.6703,2.9643c-1.4775,0.5382-2.9548,1.077-4.4349,1.6084
					c-1.1815,0.4241-2.6905,0.6966-3.6966,1.4612c-0.5907,0.4489-0.4643,1.503,0.4052,1.4959
					c2.5715-0.0212,5.8155-1.9053,8.214-2.7963c2.8711-1.0666,5.7451-2.127,8.5844-3.2757
					C119.6414,48.8388,119.3256,47.4634,118.3632,47.7356L118.3632,47.7356z"/>
			</g>
		</g>
		<g>
			<g>
				<path class="st9" d="M101.1033,42.6607c1.7184-0.4374,3.0482-1.7533,4.7617-2.1662c3.0622-0.738,3.4324,2.2113,3.9044,4.4175
					c0.1776,0.8302,1.4507,0.6248,1.4559-0.197c0.0144-2.2427-0.8343-5.2204-3.3022-5.8396
					c-2.7067-0.6791-5.0252,1.616-7.3074,2.6287C99.9443,41.802,100.4303,42.832,101.1033,42.6607L101.1033,42.6607z"/>
			</g>
		</g>
		<g>
			<g>
				<path class="st9" d="M106.2903,57.7398c-1.0945,6.7319-1.2464,13.5983,0.1443,20.3045c0.7556,3.6437,2.014,7.2256,3.926,10.4295
					c2.0189,3.3831,4.947,5.9745,7.2908,9.1046c0.5272,0.704,1.5575,0.1196,1.1839-0.692
					c-1.5221-3.3066-4.3337-5.6925-6.2671-8.7336c-1.9872-3.1256-3.2992-6.6243-4.1161-10.2269
					c-1.5356-6.7726-0.8693-13.1633-0.6482-19.9813C107.8313,57.0962,106.4318,56.8694,106.2903,57.7398L106.2903,57.7398z"/>
			</g>
		</g>
		<g>
			<g>
				<path class="st9" d="M76.8041,53.6424C75.7539,59.58,78.6464,65.713,81.856,70.5306
					c3.6972,5.5496,8.1989,10.4892,11.7925,16.1234c0.5091,0.7981,1.6699,0.1037,1.2598-0.7364
					c-2.6202-5.368-6.8481-9.7225-10.3304-14.5186c-3.909-5.3838-6.2833-10.8823-6.4559-17.5783
					C78.1033,53.0976,76.941,52.8685,76.8041,53.6424L76.8041,53.6424z"/>
			</g>
		</g>
		<g>
			<g>
				<path class="st9" d="M93.5373,85.4864c0.1631,0.0667,0.3262,0.1334,0.4894,0.2c-0.0369,0.2863-0.0739,0.5725-0.1108,0.8588
					c0.9898-1.1142,2.8682-1.8546,4.229-2.3705c0.7572-0.287,1.5416-0.5231,2.3301-0.7069c0.563-0.1312,2.9889-1.0556,1.6645-0.1137
					c-2.7928,1.9863-5.9286,3.6635-8.8335,5.5046c-0.7755,0.4915-0.3989,1.5392,0.4409,1.6278
					c1.9717,0.2081,3.6608-0.3159,5.5581-0.7673c2.3668-0.5631,4.7376-0.7757,7.168-0.7027
					c-0.2517-0.4387-0.5034-0.8773-0.7552-1.316c-0.777,1.3461-4.4233,2.1216-5.8509,2.6755
					c-1.6204,0.6287-3.241,1.2706-4.7874,2.0681c-2.5976,1.3397-5.0142,3.0834-6.5242,5.6297
					c-0.4229,0.7132,0.6141,1.5724,1.1779,0.9089c2.682-3.1564,5.8936-5.0524,9.7133-6.5749
					c2.2251-0.8868,6.4821-1.5726,7.7816-3.8246c0.3388-0.5871-0.0957-1.2963-0.7552-1.316
					c-1.9496-0.0582-3.8856,0.0405-5.8079,0.3786c-2.3279,0.4094-4.5164,1.3466-6.9181,1.0935
					c0.147,0.5426,0.2939,1.0852,0.4409,1.6278c2.9994-1.9016,6.3413-3.6198,9.1344-5.8107
					c0.8313-0.6521,1.7345-1.7795,0.7419-2.7494c-1.1785-1.1516-4.3612,0.0811-5.5957,0.493
					c-1.7828,0.5948-4.7881,1.612-5.6656,3.3864c-0.1628,0.3292-0.1047,0.784,0.2542,0.9696
					c0.0583,0.0301,0.1166,0.0603,0.1749,0.0904c0.2529,0.1307,0.5964,0.1187,0.8005-0.1033
					c0.0364-0.0396,0.0727-0.0791,0.1091-0.1187C94.5321,86.0998,94.1564,85.2653,93.5373,85.4864L93.5373,85.4864z"/>
			</g>
		</g>
		<g>
			<g>
				<path class="st9" d="M88.5724,59.3018c0.1504,5.1819,4.1182,10.6992,7.9249,13.9222c0.7324,0.6201,1.7852-0.3909,1.0689-1.0689
					c-1.97-1.8651-3.7294-3.8966-5.0842-6.2582c-1.2642-2.2037-1.8276-4.5962-2.8451-6.8834
					C89.4015,58.4843,88.5568,58.7644,88.5724,59.3018L88.5724,59.3018z"/>
			</g>
		</g>
		<g>
			<g>
				<path class="st9" d="M87.9743,99.1888c-6.419,7.4258-0.6027,17.821,2.0528,25.4634c3.1382,9.0317,2.1614,19.1775,6.2804,27.8638
					c0.3731,0.7868,1.5733,0.2226,1.3708-0.5779c-1.1195-4.4254-2.1215-8.7516-2.7102-13.2847
					c-0.5238-4.0339-1.0765-8.0555-2.2094-11.9734c-2.5495-8.8177-8.9768-17.531-3.6802-26.6391
					C89.4688,99.3699,88.5095,98.5696,87.9743,99.1888L87.9743,99.1888z"/>
			</g>
		</g>
		<g>
			<g>
				<g>
					<path class="st9" d="M93.3204,33.5654c3.5583,2.8343,7.9944,2.7971,10.2274-1.5867c1.2083-2.3721,1.1274-5.0008,0.9875-7.5906
						c-0.1975-3.6547,0.3885-6.8311,1.0193-10.4029c0.1483-0.8399-0.9321-1.1096-1.2543-0.3458
						c-1.6773,3.9759-1.4633,7.9085-1.3039,12.1178c0.087,2.2984-0.0245,4.6304-1.4012,6.5676
						c-2.0257,2.8505-5.1118,2.1086-7.7493,0.5597C93.4352,32.6433,92.9256,33.2509,93.3204,33.5654L93.3204,33.5654z"/>
				</g>
			</g>
			<g>
				<g>
					<path class="st9" d="M92.7439,19.9331c1.9829-0.3761,4.0474-1.0522,5.906,0.0252c0.5991,0.3473,1.1307-0.4283,0.7101-0.9203
						c-1.7025-1.9911-4.8581-0.6556-6.8575,0.0193C91.9451,19.2455,92.171,20.0418,92.7439,19.9331L92.7439,19.9331z"/>
				</g>
			</g>
			<g>
				<g>
					<path class="st9" d="M98.4933,21.9472c-1.1265-1.3873-2.9373-1.2577-4.5258-0.9365c-0.2693,0.0544-0.4675,0.3478-0.4661,0.6122
						c0.0031,0.6087-0.0675,1.0558,0.2634,1.5975c0.3364,0.5509,1.3362,0.1946,1.087-0.4583
						c-0.1454-0.381-0.0778-0.7404-0.0806-1.1393c-0.1554,0.2041-0.3107,0.4081-0.4661,0.6122
						c1.1501-0.2349,2.4923-0.3935,3.4259,0.4745C98.2492,23.1914,98.924,22.4775,98.4933,21.9472L98.4933,21.9472z"/>
				</g>
			</g>
			<g>
				<g>
					<path class="st9" d="M107.3472,37.0763c1.32-1.1386,2.777-2.8566,1.9546-4.7062c-0.3384-0.7611-1.1348-1.129-1.5443-1.8027
						c-1.0046-1.6526,0.3878-2.0584,1.0927-3.2046c0.6652-1.0817,0.7014-2.0942-0.3133-2.9825
						c-0.9557-0.8367-2.3217-0.7553-1.8015-2.5538c0.256-0.8851,1.0213-1.5759,1.2449-2.4888
						c0.1196-0.4882,0.1477-0.9496-0.008-1.4277c-0.3787-1.1626-1.6164-1.1635-0.5076-2.4544
						c1.0679-1.2433,1.9326-1.9809,1.8986-3.8234c-0.0809-4.3864-4.8764-5.8741-8.5181-5.3818
						c-0.6895,0.0932-0.5149,1.2165,0.1628,1.2027c2.5278-0.0512,5.9643,0.2569,6.8492,3.1605
						c0.4977,1.6332-0.0451,2.8259-1.3156,3.8438c-0.4495,0.3601-1.0012,0.3517-1.2634,0.9765
						c-0.4025,0.959,0.2267,1.3363,0.6936,2.0421c1.2976,1.9614-0.2155,2.5267-0.703,4.4007
						c-0.2361,0.9075-0.096,1.7221,0.5699,2.4031c0.4036,0.4127,1.0797,0.4995,1.4634,0.8831
						c1.3217,1.3212,0.0122,1.8218-0.6565,2.7428c-0.5496,0.7569-0.8828,1.5143-0.5867,2.451
						c0.1415,0.4475,0.4718,0.7946,0.7726,1.1367c0.2709,0.2591,0.5422,0.5176,0.814,0.7757
						c0.392,1.6985,0.0426,3.0509-1.0484,4.0573C106.1413,36.8398,106.8308,37.5217,107.3472,37.0763L107.3472,37.0763z"/>
				</g>
			</g>
			<g>
				<g>
					<path class="st9" d="M101.6476,11.3009c0.8264,2.2457,3.2237,4.0124,5.6378,3.9714c0.6591-0.0112,0.8303-1.0122,0.1589-1.174
						c-2.0987-0.5056-3.5925-1.4181-4.8274-3.206C102.299,10.4322,101.4261,10.6992,101.6476,11.3009L101.6476,11.3009z"/>
				</g>
			</g>
			<g>
				<g>
					<path class="st9" d="M99.0609,9.3417c-0.3025,2.2685-1.013,4.114-2.8973,5.5543c0.3267,0.0857,0.6533,0.1713,0.98,0.257
						c-0.5537-1.03,1.0695-4.4985-1.8113-3.72c-1.4884,0.4022-2.3086,2.8-3.1817,3.8495c-1.4322,1.7216-3.2011,2.884-5.0819,4.0528
						c-0.7583,0.4712-0.0975,1.4934,0.6802,1.1637c2.3521-0.9973,4.4136-2.8285,5.9463-4.8517
						c0.3052-0.4029,0.5669-0.9229,0.9031-1.3042c0.0748-0.4995,0.3319-0.7383,0.7714-0.7163
						c0.4544-0.2078,0.5491-0.0695,0.2842,0.4149c0.2111,0.6531-0.1147,1.1529,0.2529,1.8344
						c0.1674,0.3103,0.6793,0.4875,0.98,0.257c2.2017-1.688,3.554-4.1003,3.1641-6.9252
						C99.9655,8.5904,99.1278,8.8396,99.0609,9.3417L99.0609,9.3417z"/>
				</g>
			</g>
			<g>
				<g>
					<path class="st9" d="M97.7424,3.458c-2.7131-3.4496-7.7468-1.151-10.6575,0.8687c-3.166,2.1969-5.3021,6.0142-3.477,9.753
						c0.3187,0.6529,1.3915,0.1958,1.1727-0.4944c-1.0578-3.3369,0.6236-6.3065,3.3899-8.1504
						c2.4261-1.6171,6.2044-3.5183,8.7184-1.1234C97.4667,4.862,98.2112,4.054,97.7424,3.458L97.7424,3.458z"/>
				</g>
			</g>
			<g>
				<g>
					<path class="st9" d="M81.5813,7.3924c-3.8621,1.8271-5.1688,7.0707-4.9963,10.9772
						c0.2497,5.6546,2.9124,10.9127,4.1525,16.3755c2.0397,8.9856,2.6027,19.6617,10.3452,25.8853
						c0.5805,0.4666,1.4111-0.3141,0.8369-0.8369c-6.718-6.1172-7.6572-15.2277-9.4147-23.6342
						c-0.959-4.5872-2.711-8.8981-3.8374-13.4311c-0.6854-2.7583-1.021-5.6453-0.3293-8.4383
						c0.6358-2.5674,2.0376-4.2634,3.8751-6.0784C82.6551,7.775,82.0974,7.1482,81.5813,7.3924L81.5813,7.3924z"/>
				</g>
			</g>
			<g>
				<g>
					<path class="st9" d="M92.6837,15.1478c-2.4438,9.1571-2.7743,24.705,9.5078,26.4204c0.7586,0.106,1.1197-0.9981,0.3271-1.1865
						c-11.8329-2.8134-9.7032-15.7725-9.012-25.1225C93.5419,14.7822,92.8035,14.6988,92.6837,15.1478L92.6837,15.1478z"/>
				</g>
			</g>
			<g>
				<g>
					<path class="st9" d="M96.4849,30.5597c0.643,0.7483,1.6791,1.0031,2.6189,0.7983c0.6664-0.1452,0.501-1.1613-0.1581-1.1682
						c-0.6618-0.0069-1.2026-0.1961-1.7685-0.5273C96.5947,29.3215,96.074,30.0814,96.4849,30.5597L96.4849,30.5597z"/>
				</g>
			</g>
			<g>
				<g>
					<path class="st9" d="M80.9233,10.9419c-3.1043,2.8232-2.2555,7.2476-1.0454,10.7801c0.2822,0.8238,1.544,0.4953,1.3165-0.3629
						c-0.8562-3.2289-1.926-6.7821,0.5783-9.5678C82.2898,11.216,81.4972,10.42,80.9233,10.9419L80.9233,10.9419z"/>
				</g>
			</g>
			<g>
				<g>
					<path class="st9" d="M102.6912,26.4321c-0.4747-0.4808-0.7575-1.1568-0.9316-1.8005
						c-0.1259-0.4654-0.3946-1.3266-0.2691-1.8073c0.1008-0.3861-0.2046,0.0036,0.0964-0.1652
						c0.1607-0.0901,0.5697-0.0282,0.7625-0.0583c0.7567-0.1184,1.33-0.4689,1.8959-0.9695
						c0.4669-0.4129-0.1562-1.2438-0.6746-0.8742c-0.5685,0.4053-1.1042,0.6504-1.8005,0.7149
						c-0.2552,0.0236-0.5315,0.0028-0.7726,0.1066c-0.548,0.2358-0.7134,0.777-0.7831,1.3329
						c-0.1849,1.4751,0.5271,3.564,1.8837,4.289C102.5817,27.4588,103.0907,26.8367,102.6912,26.4321L102.6912,26.4321z"/>
				</g>
			</g>
		</g>
		<g>
			<g>
				<path class="st9" d="M104.2719,55.326c2.6898,3.6736,5.1771,7.3338,7.174,11.4412c1.9426,3.9955,3.0647,8.3873,5.1969,12.277
					c3.9463,7.1991,10.7304,13.4395,17.6051,17.8159c0.6842,0.4355,1.5459-0.6312,0.884-1.1457
					c-6.7612-5.2557-13.988-10.8776-17.8534-18.7478c-1.8629-3.7929-3.0434-7.8837-4.9713-11.6695
					c-1.9158-3.7623-4.1758-7.6302-7.2164-10.603C104.6839,54.2961,103.9107,54.8327,104.2719,55.326L104.2719,55.326z"/>
			</g>
		</g>
		<g>
			<g>
				<path class="st9" d="M111.7092,50.8913c2.5018,7.5149,5.2036,15.1574,8.4077,22.404
					c3.0124,6.8129,7.4234,14.4752,13.8198,18.6503c0.6408,0.4182,1.3054-0.5061,0.7988-1.0353
					c-2.905-3.0346-5.9049-5.717-8.2873-9.2273c-2.0983-3.0917-3.8079-6.4272-5.3105-9.8431
					c-3.0729-6.9855-4.9869-14.5618-8.5771-21.3074C112.3154,50.0717,111.5411,50.3863,111.7092,50.8913L111.7092,50.8913z"/>
			</g>
		</g>
		<g>
			<g>
				<path class="st9" d="M135.7682,94.0924c1.6385,0.907,2.4958,1.9202,3.0225,3.7065c0.4033,1.3676,0.8719,2.7176,1.8193,3.806
					c0.4674,0.5369,1.1556-0.1476,0.9111-0.703c-0.432-0.9811-0.9546-1.8879-1.2837-2.9168
					c-0.2135-0.6672-0.3569-1.3683-0.6434-2.0101c-0.6236-1.3966-1.9431-2.4772-3.4329-2.8144
					C135.6147,93.037,135.2442,93.8023,135.7682,94.0924L135.7682,94.0924z"/>
			</g>
		</g>
		<g>
			<g>
				<path class="st9" d="M134.6297,96.7583c0.3916,2.5357,1.7504,4.3682,3.9237,5.7163c2.6194,1.6247,5.4531,3.1423,8.1805,4.5856
					c0.3756,0.1988,0.9575-0.04,0.9162-0.5257c-0.1687-1.982-2.8929-2.7363-2.8761-4.5617
					c0.0053-0.5764,0.5354-0.7644,0.1129-1.4664c-0.3754-0.6239-1.0217-0.7184-1.6591-0.5089
					c0.2562,0.1952,0.5125,0.3904,0.7687,0.5856c-0.0411-1.0093,1.5648-1.8752,0.1211-2.7407
					c-0.3685-0.2209-1.5784,0.0982-1.7325-0.2539c0.1266,0.2892,1.0683-1.1172,1.146-1.324
					c0.1281-0.3406-0.1475-0.6432-0.4326-0.7618c-0.7565-0.3147-0.8311-0.2752-1.5502,0.0993
					c-0.6852,0.3568-0.0834,1.315,0.5944,1.0169c0.0486-0.4463-0.0649-0.4391-0.3406,0.0216
					c-0.0982,0.1093-0.1963,0.2186-0.2945,0.3279c-0.1098,0.1655-0.3077,0.3612-0.3398,0.5657
					c-0.0651,0.4138,0.0396,0.6456,0.2978,0.9355c0.3004,0.3373,1.8952,0.416,1.9211,0.4579
					c0.0149,0.0241-0.616,1.393-0.6048,1.6555c0.0159,0.3744,0.3779,0.7148,0.7687,0.5856c0.274-0.0906-0.1998,0.8334-0.2019,0.9814
					c-0.0053,0.3647,0.102,0.6514,0.2663,0.9771c0.5924,1.1746,2.7036,2.06,2.8173,3.4073
					c0.3054-0.1752,0.6108-0.3505,0.9162-0.5257c-2.0465-1.0847-3.9717-2.3757-6.0276-3.4445
					c-2.7507-1.43-4.8685-2.9564-5.8438-6.0395C135.3028,95.9735,134.5449,96.2097,134.6297,96.7583L134.6297,96.7583z"/>
			</g>
		</g>
		<g>
			<g>
				<path class="st9" d="M98.7387,110.1145c3.0084,2.2266,6.8505,3.4072,10.5556,3.6457c0.7687,0.0495,0.9645-1.2547,0.1846-1.3639
					c-3.678-0.5147-6.8062-1.6888-10.0837-3.405C98.6381,108.5949,98.0766,109.6245,98.7387,110.1145L98.7387,110.1145z"/>
			</g>
		</g>
		<path class="st9" d="M97.9002,112.1426c-1.4767,0.8325-3.049,1.1511-4.7352,1.0125c-0.337-0.0277-0.4167,0.5328-0.0805,0.5947
			c1.8151,0.3336,3.6121-0.0113,5.1785-0.9866C98.655,112.5192,98.3049,111.9145,97.9002,112.1426z"/>
	</g>
</g>
</svg>
