<?xml version="1.0" encoding="utf-8"?>
<!-- Generator: Adobe Illustrator 20.1.0, SVG Export Plug-In . SVG Version: 6.00 Build 0)  -->
<svg version="1.1" xmlns="http://www.w3.org/2000/svg" xmlns:xlink="http://www.w3.org/1999/xlink" x="0px" y="0px"
	 viewBox="0 0 880 310" style="enable-background:new 0 0 880 310;" xml:space="preserve">
<style type="text/css">
	.st0{fill:none;stroke:#F7FAFC;stroke-width:39.9968;stroke-linecap:round;stroke-linejoin:round;}
	.st1{fill:none;stroke:#F2F6F9;stroke-width:39.9968;stroke-linecap:round;stroke-linejoin:round;}
	.st2{fill:#F7FAFC;}
	.st3{fill:#F2F6F9;}
	.st4{fill:#FFFFFF;}
	.st5{fill:#FCE0DE;}
	.st6{fill:#E6E6E6;}
	.st7{fill:#FFEFAF;}
	.st8{fill:#E93A1D;}
	.st9{fill:#303030;}
	.st10{fill:#E83D25;}
	.st11{fill:#B3B3B3;}
	.st12{fill:#666666;}
	.st13{fill:none;stroke:#E93A1D;stroke-width:1.5;stroke-linecap:round;stroke-linejoin:round;}
	.st14{fill:none;stroke:#E93A1D;stroke-width:1.5;stroke-linecap:round;stroke-linejoin:round;stroke-dasharray:2.0259,5.0648;}
	.st15{fill:none;stroke:#E93A1D;stroke-width:1.5;stroke-linecap:round;stroke-linejoin:round;stroke-dasharray:1.8929,4.7321;}
	.st16{fill:#777777;}
	.st17{fill:#172DF8;}
	.st18{fill:none;stroke:#E93A1D;stroke-width:1.5;stroke-linecap:round;stroke-linejoin:round;stroke-dasharray:1.9198,4.7994;}
	.st19{fill:none;stroke:#E93A1D;stroke-width:1.5;stroke-linecap:round;stroke-linejoin:round;stroke-dasharray:1.9197,4.7993;}
</style>
<g id="back">
	<g>
		<g>
			<path class="st2" d="M542.8143,305.4335c-3.8408,0-8.3413-1.0684-13.3394-4.1494c-2.4531-1.5117-5.2739-3.583-8.8765-6.5176
				c-4.7744-3.8877-10.8359-9.2285-18.4384-16.248c-7.6001,6.1631-18.6777,5.9424-26.0391-0.7549l-15.5127-14.1152
				c-1.2627,2.4414-3.0039,4.626-5.1685,6.4424c-3.126,2.6211-11.7432,8.1104-24.2505,2.4551
				c-2.6768-1.209-5.5967-2.9238-9.1895-5.3955c-0.1401-0.0967-0.2817-0.1943-0.4243-0.293
				c-1.2529,2.2793-2.9292,4.3271-4.9844,6.0518c-7.5166,6.3076-18.499,6.2305-25.9258-0.1836
				c-0.8833-0.7627-1.7695-1.5283-2.6665-2.3027c-0.6099,5.4785-3.2119,10.3779-7.4058,13.8975
				c-3.875,3.252-8.6484,4.7734-13.3584,4.6729c-0.7827,0.958-1.667,1.8574-2.6494,2.6826
				c-2.502,2.0996-10.8589,7.8281-22.4097,2.6455c-1.2095,2.3271-2.8765,4.415-4.9292,6.1289
				c-6.6509,5.5527-17.9355,7.0293-26.6382-0.8896l-5.1416-4.709c-2.0864-1.9141-4.1396-3.7959-6.1704-5.6553
				c-1.103,3.75-3.291,7.126-6.3315,9.6768c-8.4365,7.0781-19.415,6.9844-32.6294-0.2832
				c-5.7319-3.1514-12.7812-7.9473-21.5513-14.6602c-5.0254-3.8467-10.6338-8.3418-16.7993-13.4629
				c-5.2988,4.2139-13.4688,6.1279-21.5249,2.3398c-1.7783-0.1943-3.5322-0.626-5.2119-1.293
				c-2.4727,0.043-5.106-0.4277-7.7871-1.502c-3.6333,0.7959-8.1592,0.7109-13.2876-1.6582
				c-0.8726-0.4033-1.8521-0.9062-3.083-1.582c-1.7358-0.9541-4.062-2.3037-7.1113-4.125
				c-2.7847-1.6641-6.2144-3.748-10.2559-6.2324c-1.1279,1.9561-2.6084,3.752-4.4336,5.291
				c-8.4424,7.1221-21.0591,6.0498-28.1807-2.3936c0,0-10.873-12.8916-21.7432-25.8125
				c-5.4429-6.4697-10.8853-12.9473-14.9653-17.8223c-2.062-2.4639-3.7803-4.5234-4.9819-5.9736
				c-3.1592-3.8135-7.0908-8.5586-6.3857-16.7637c0.4561-5.3105,3.0132-10.2197,7.1035-13.6367
				c1.7344-1.4492,6.4878-4.8115,13.0889-4.6689c-1.1978-3.4033-1.4028-6.1445-1.2642-8.9453
				c0.293-5.9092,3.0234-11.4482,7.4912-15.1982c1.5527-1.3027,3.249-2.3311,5.0259-3.0869
				c0.5957-0.6523,1.2378-1.2676,1.9224-1.8418c1.0972-0.9189,2.5513-1.8701,4.2686-2.6729c1.3359-1.0908,2.772-1.9795,4.271-2.6719
				c7.7559-5.7451,18.5938-5.1357,25.6592,1.5713c-0.0132-0.7148,0.0107-1.4541,0.0732-2.2217
				c0.4336-5.3262,2.9985-10.2969,7.0918-13.7334c2.6685-2.2393,12.3721-8.915,25.3696-0.9453
				c0.6226,0.3828,1.2812,0.8096,1.9897,1.292c0.9087-4.1758,3.1567-8.0938,6.6831-11.0537
				c1.9307-1.6211,11.7373-8.8926,24.1904-1.4404c1.1719-2.0889,2.7197-3.9707,4.5898-5.5391
				c1.6831-1.4121,9.0684-6.8994,18.9033-3.7734c0.0229-0.0195,0.0459-0.0391,0.0688-0.0586
				c6.0356-5.0596,16.1973-7.1484,25.2925-0.4043c0.4668,0.3457,1.1445,0.8701,2.0142,1.5674
				c1.3052,1.0469,3.1094,2.5322,5.5166,4.54c0.0034,0.0029,0.0068,0.0059,0.0103,0.0088
				c0.9707-4.7939,3.4829-9.0547,7.2642-12.2266c7.8789-6.6133,19.4907-6.1699,26.8428,1.0273
				c0.0688,0.0674,1.5879,1.5527,4.2764,4.1689c0.8955-3.0557,2.5352-5.9385,4.915-8.3643
				c7.5312-7.6738,19.7812-8.0186,27.7329-0.7852l5.2065,4.7373c1.0864-2.9746,2.8965-5.7324,5.4092-7.9922
				c8.0132-7.207,20.2964-6.7686,27.7749,0.9941c0.5825,0.6045,1.1655,1.209,1.7495,1.8145
				c1.1367-1.9062,2.5928-3.6289,4.3223-5.0801c7.8398-6.5762,19.3794-6.1758,26.7412,0.9277l3.1445,3.0342
				c1.186-1.8291,2.6465-3.4854,4.3579-4.9219c5.6665-4.7549,15.521-7.4971,26.187-0.9404c0.3154,0.1934,0.6353,0.3965,0.96,0.6104
				c0.0073-0.0068,0.0142-0.0127,0.0215-0.0186c2.9873-2.5078,13.7925-9.8359,27.4297,1.1123
				c1.4341,1.1514,3.3438,2.7695,5.8384,4.9453c2.5801,2.251,5.8408,5.1484,9.7451,8.6602c0.8477-1.084,1.8198-2.0967,2.916-3.0166
				c2.0225-1.6963,12.8013-9.6816,26.4604-0.2178c1.834,1.2715,3.9194,2.9531,6.562,5.293
				c0.3438,0.3047,0.6978,0.6211,1.0625,0.9492c6.9189-3.1279,15.2808-2.1338,21.334,3.1084
				c4.2524,3.6826,8.564,7.4023,12.894,11.124c0.7236-1.1914,1.5825-2.3223,2.5767-3.373
				c7.1958-7.6045,19.0376-8.3721,27.1538-1.7617c4.1445,3.375,8.3413,6.7852,12.5444,10.1953
				c0.3999-0.3984,0.8174-0.7812,1.252-1.1465c4.251-3.5654,10.1895-5.4258,16.1851-4.3867c3.979-0.2021,8.021,0.7861,11.5728,2.998
				c5.8013,3.6123,11.7656,7.3076,17.6484,10.9326c0.5068-0.5303,1.0474-1.0371,1.6216-1.5195
				c4.9678-4.1699,13.0137-6.7568,21.5571-2.8896c4.2505,0.8789,8.2466,3.1426,11.2534,6.7266l26.3481,31.4004
				c3.4097,4.0635,5.0649,9.3154,4.6025,14.5996c-0.2549,2.9072-1.1396,5.6943-2.5605,8.1797
				c-1.21,3.0938-3.1826,5.8662-5.7734,8.0391c-3.8994,3.2715-7.9126,4.5107-11.6133,4.6719
				c-0.0039,0.4873-0.0229,0.9814-0.0547,1.4854c-0.3511,5.584-2.9966,10.8369-7.2583,14.4131
				c-0.5654,0.4746-1.1499,0.9121-1.7495,1.3145c-0.2349,0.2168-0.4751,0.4287-0.7212,0.6348
				c-1.3115,1.0996-6.502,5.0117-13.7964,4.6611c-1.1704,3.6279-3.3398,6.9014-6.2808,9.3672
				c-1.979,1.6611-8.1646,6.0137-16.9409,4.3926c-0.7603,4.7295-3.2021,9.0625-6.895,12.1631
				c-1.499,1.2578-3.3247,2.3838-5.3921,3.2188c-0.9976,3.1045-2.7676,6.0029-5.2925,8.3916
				c-3.2314,3.0576-7.2314,4.835-11.3535,5.3291c-0.311,6.5361-3.1587,12.3809-8.0225,16.4629
				c-1.5005,1.2588-5.1885,3.8945-10.4736,4.6865c-0.9585,2.6396-2.4902,5.1182-4.5952,7.2412
				c-7.7012,7.7695-20.2158,7.9092-28.0889,0.3125l-0.4521-0.4365c-1.1592,2.0215-2.6738,3.8438-4.4932,5.3711
				C554.2982,302.1132,549.5828,305.4325,542.8143,305.4335z"/>
		</g>
	</g>
	<g>
		<g>
			<path class="st3" d="M238.8573,301.6005c-5.7607,0-12.1597-2.042-19.1543-6.125c-5.8481-3.4131-12.9937-8.5762-21.835-15.7783
				c-7.3037,5.5566-17.5166,5.4404-24.7056-0.3965l-14.8394-12.0469c-1.0527,1.5928-2.3384,3.042-3.8291,4.293
				c-4.3926,3.6855-13.8369,8.6455-27.7354,0.4619c-1.2568-0.7402-2.6216-1.6143-4.1084-2.6328
				c-7.9062,3.415-17.4292,1.4209-23.2466-5.5146c-1.5684-1.8701-2.7363-3.9434-3.5127-6.1133
				c-5.5723-7.7207-26.5312-31.5527-44.3506-50.958c-6.7886-7.3936-6.9824-18.5557-0.7769-26.1562
				c-2.7744-4.9287-4-9.2266-3.7021-13.9736c0.3521-5.6113,3.0049-10.8867,7.2788-14.4727
				c2.8457-2.3877,6.1948-3.8633,9.6611-4.4219c-0.7812-2.3086-1.0918-4.7441-0.9126-7.582
				c0.3447-5.4619,2.937-10.5996,7.1294-14.1172c5.9536-4.9941,14.0088-5.9502,20.7515-3.0557
				c0.8047-4.7168,3.2954-9.1592,7.3398-12.3438c2.0288-1.5986,4.2744-2.7422,6.6108-3.4443
				c3.7407-2.0801,9.0854-3.584,15.918-1.834c1.1899-1.9658,2.7065-3.7402,4.5195-5.2617
				c4.5527-3.8193,10.3389-5.2754,15.8262-4.458c1.0845-1.6973,2.4287-3.2373,3.9995-4.5557
				c5.4253-4.5518,12.625-5.7627,18.9902-3.7178c1.1558-1.9971,2.6587-3.7988,4.4595-5.3086
				c4.604-3.8623,10.5518-5.6553,16.7295-5.0488c0.146,0.0137,0.292,0.0293,0.439,0.0459
				c7.3418-3.7217,16.4741-2.6094,22.7231,3.2637c4.0645-2.4385,11.5518-5.1377,21.2056-0.7383
				c3.6313-1.0527,8.2935-1.3477,13.7212,0.6123c2.9229-1.4834,6.1147-2.1826,9.2876-2.1514
				c2.5811-0.5645,5.2407-0.6084,7.8208-0.1475c6.8467-2.7656,14.9292-1.6016,20.7715,3.5771l2.2183,1.9668
				c0.7124-0.832,1.4941-1.6084,2.3408-2.3184c7.397-6.208,18.0698-6.1904,25.4224-0.2383
				c7.4258-3.4209,16.5005-2.043,22.5786,4.0908c0.1289,0.1299,0.6982,0.7051,1.6436,1.665
				c3.8291-2.3105,8.2983-3.3115,12.8735-2.8477c1.9927,0.2031,3.8638,0.6475,5.688,1.3545
				c3.2573,0.3037,6.6074,1.4531,9.7979,3.7168c5.312-1.7061,12.8311-1.7832,22.0435,4.291
				c0.3086,0.2031,0.6216,0.4141,0.939,0.6338c6.5952-3.6631,14.4165-3.1182,23.3149,1.6357
				c2.6826,1.4336,6.0859,3.459,10.3872,6.1826c0.6699-0.7646,1.3994-1.4795,2.1836-2.1377
				c7.3169-6.1377,17.8848-6.2109,25.2661-0.3613c6.4556-0.749,13.1509,1.665,17.6387,7.0176
				c0.854,1.0186,1.5889,2.0967,2.2065,3.2188c2.8848,3.6582,11.7354,13.7891,17.2114,20.0586
				c3.7627,4.3076,7.3164,8.375,9.981,11.4902c5.5991,6.5459,9.6445,11.2764,8.9839,19.8379
				c-0.4131,5.3477-2.9644,10.3223-7.0674,13.7764c-0.8027,1.7637-1.8755,3.4375-3.2192,4.959
				c-4.7896,5.4209-11.9233,7.6641-18.6338,6.4248c-0.9194,4.4219-3.3062,8.4648-6.7896,11.3877
				c-2.8374,2.3809-9.355,6.5107-18.668,4.4609c-0.3115,0.2969-0.6333,0.585-0.9644,0.8633
				c-1.4878,1.249-7.4917,5.7197-15.7666,4.5273c-2.4038,1.374-5.0474,2.2441-7.8018,2.5713
				c-2.7256,0.9922-6.0298,1.5225-9.8921,0.998c-0.3447,0.3301-0.7017,0.6504-1.0713,0.96
				c-0.7773,0.6533-5.2925,4.2109-11.6992,4.6514c-0.5508,0.5801-1.1377,1.1328-1.7603,1.6553
				c-4.2153,3.5371-9.5181,5.0625-14.6699,4.5967c-1.2178,2.9746-3.146,5.6396-5.6533,7.7432
				c-1.5137,1.2705-3.3403,2.4053-5.4097,3.2539c-0.4888,0.5508-1.0122,1.0801-1.5713,1.585
				c-0.8608,0.7783-1.772,1.4678-2.7207,2.0684c-0.2651,0.249-0.5381,0.4912-0.8184,0.7256
				c-1.4326,1.2031-3.0835,2.2354-4.8887,3.0254c-1.2432,2.6113-3.0327,4.9541-5.2666,6.8291
				c-1.0933,0.917-2.3213,1.7363-3.6538,2.4238c-1.208,2.0186-2.7539,3.8379-4.604,5.3896
				c-3.355,2.8154-7.3833,4.3496-11.4692,4.6318c-0.9688,1.3359-2.1001,2.5576-3.3745,3.627
				c-3.0903,2.5938-6.8667,4.1719-10.8198,4.5762c-0.1489,0.1318-0.2998,0.2627-0.4526,0.3906
				c-4.709,3.9512-10.7554,5.3906-16.4312,4.3574c-1.2217,2.5889-2.9966,4.9111-5.2319,6.7871
				c-1.9468,1.6338-7.4419,5.4756-15.1025,4.6719c-1.1533,1.8096-2.5884,3.4502-4.2803,4.8701
				c-5.3359,4.4805-14.1357,6.6494-22.3955,2.2715c-1.0615,1.6201-2.3623,3.0928-3.874,4.3604
				c-4.3291,3.6328-9.7803,5.4307-15.5229,5.1367C241.3202,301.5048,240.1034,301.6005,238.8573,301.6005z"/>
		</g>
	</g>
	<g>
		<g>
			<path class="st4" d="M63.7856,187.95c-0.0084,0.0042,0.0395-2.9034,0.073-3.1402c0.1139-0.8059,0.2642-1.605,0.4467-2.3981
				c0.3893-1.6923,0.9101-3.377,1.5784-4.9808c1.3105-3.1449,3.1861-6.0842,5.4595-8.6184c4.647-5.1802,10.9734-8.93,17.9301-9.8463
				c1.039-0.1368,1.8869-0.7637,1.908-1.908c0.164-8.9082,6.041-16.9691,14.359-20.0898c2.1828-0.8189,1.3142-4.2909-0.9803-3.5558
				c-10.1344,3.2468-17.0994,13.0517-17.1946,23.6455c0.4669-0.6133,0.9338-1.2265,1.4007-1.8398
				c-9.5979,1.3196-18.0802,7.1562-23.319,15.2323c-2.5372,3.9113-4.2499,8.3532-4.8403,12.9818
				c-0.2673,2.0958-0.5071,4.3699,0.8688,6.1514c1.1025,1.4277,2.5834,1.6139,3.9764,0.5256
				C66.7463,189.0983,65.0995,187.2994,63.7856,187.95L63.7856,187.95z"/>
		</g>
	</g>
	<g>
		<g>
			<path class="st4" d="M125.5335,146.2344c-0.2227-8.8194,1.6344-18.5079,8.5253-24.6321
				c6.0322-5.3611,16.2659-6.6109,22.4695-0.8947c0.9581,0.8828,2.8583,0.6333,3.1339-0.8274
				c1.3111-6.9507,7.168-11.0662,12.8564-14.5247c3.4343-2.088,7.1416-4.5237,11.2356-4.9518
				c3.0715-0.3211,6.8962,0.8167,8.1654,3.9088c0.7437,1.8118,3.2768,2.0532,3.9393,0c1.2872-3.9893,4.9125-7.1141,9.1654-7.4098
				c4.1851-0.291,8.1304,2.2471,10.3652,5.6683c1.2357,1.8917,3.7994,0.2577,2.9547-1.7271
				c-2.2967-5.3961-8.2133-8.6209-14.0233-7.9905c-5.8477,0.6345-10.6266,4.8385-12.4013,10.3731c1.3131,0,2.6262,0,3.9393,0
				c-1.573-3.8123-4.8756-6.1433-8.9353-6.7637c-5.0189-0.767-9.7722,1.4843-13.9992,3.9445
				c-7.3307,4.2668-16.0374,9.7055-16.9452,18.9744c1.0669-0.4419,2.1339-0.8839,3.2008-1.3258
				c-7.265-6.5226-18.5322-5.8722-26.0786-0.1198c-8.4929,6.4739-11.4435,18.1007-10.1616,28.2983
				C123.1413,147.8377,125.5769,147.9514,125.5335,146.2344L125.5335,146.2344z"/>
		</g>
	</g>
	<g>
		<g>
			<path class="st4" d="M173.4897,142.5458c2.9753-7.6342,9.657-13.6663,17.8036-15.1444
				c8.3473-1.5145,16.8973,2.1399,22.0938,8.6998c1.5092,1.9051,4.0188-0.5228,3.1412-2.4237
				c-2.4393-5.2831,6.171-7.4756,9.5933-8.1221c5.4201-1.0238,11.0263-0.745,16.3862,0.4838
				c2.3448,0.5376,3.3355-2.978,0.9969-3.6161c-7.2995-1.9915-15.4069-2.1274-22.6487,0.2611
				c-5.558,1.8331-10.6658,6.832-7.7816,13.0121c1.0471-0.8079,2.0941-1.6158,3.1412-2.4237
				c-6.0972-7.6327-16.3413-11.4912-25.9553-9.6186c-9.2633,1.8043-17.2055,9.0039-19.8441,18.0443
				C169.8294,143.7084,172.761,144.4156,173.4897,142.5458L173.4897,142.5458z"/>
		</g>
	</g>
	<g>
		<g>
			<path class="st4" d="M250.0762,113.2263c4.6064-5.9266,11.2926-10.1886,18.8938-10.786
				c7.8107-0.6138,15.4423,2.5369,20.7829,8.2057c1.1654,1.2371,3.5472,0.3222,3.4507-1.4293
				c-0.3461-6.2762,11.1331-7.0873,15.2398-7.0981c6.657-0.0176,13.0492,2.7526,16.1414,8.8913
				c0.9282,1.8426,4.1615,0.5415,3.3842-1.4267c-3.3199-8.4066-12.3981-11.8665-20.9348-11.4817
				c-6.4104,0.2889-18.3635,2.4069-17.8733,11.1153c1.1502-0.4764,2.3004-0.9529,3.4507-1.4293
				c-12.545-13.2858-34.9736-12.0882-45.247,3.3467C246.2953,112.7404,248.8649,114.7848,250.0762,113.2263L250.0762,113.2263z"/>
		</g>
	</g>
	<g>
		<g>
			<path class="st4" d="M342.5157,96.8435c-0.7902-2.6424,9.4117-0.5874,10.4648-0.18c3.6022,1.3936,6.6655,3.9818,8.8418,7.1518
				c1.3059,1.9022,4.2961,0.2271,3.1301-1.8296c-2.9382-5.1825-8.2298-8.8105-14.078-9.9264
				c-2.6731-0.51-5.8317-0.7546-8.425,0.2366c-2.2098,0.8447-4.1807,2.981-3.1881,5.4448
				C340.0502,99.6987,343.1544,98.9794,342.5157,96.8435L342.5157,96.8435z"/>
		</g>
	</g>
	<g>
		<g>
			<path class="st4" d="M260.6979,140.7068c2.7641-6.0329,8.2679-9.7909,14.1897-12.3768
				c5.6076-2.4487,16.0079-6.6009,19.0874,1.3393c0.6967,1.7965,3.9582,1.7881,3.6984-0.5005
				c-0.4405-3.8797-3.6133-6.6706-7.2709-7.6883c-4.7749-1.3285-9.842,0.4468-14.2668,2.1867
				c-7.7346,3.0413-15.3997,7.6104-18.2936,15.8355C257.2614,141.1532,259.9574,142.3229,260.6979,140.7068L260.6979,140.7068z"/>
		</g>
	</g>
	<g>
		<g>
			<path class="st4" d="M109.0015,160.3726c-10.8264,0.0622-26.4054,10.3888-20.5569,22.7277
				c0.8616,1.8178,4.0139,0.5249,3.2842-1.3846c-1.8233-4.7717,0.4872-9.7995,4.3667-12.798
				c4.0941-3.1643,9.1867-3.6066,13.596-5.9974C110.8949,162.2678,110.3336,160.3649,109.0015,160.3726L109.0015,160.3726z"/>
		</g>
	</g>
	<g>
		<g>
			<path class="st4" d="M74.091,215.8662c-1.6826-6.14,1.4979-13.2827,7.5398-15.6547c2.0485-0.8042,1.2094-4.1283-0.9263-3.3599
				c-7.8274,2.8162-12.4568,11.8597-9.3407,19.7664C72.0152,218.2706,74.5839,217.6648,74.091,215.8662L74.091,215.8662z"/>
		</g>
	</g>
	<g>
		<g>
			<path class="st5" d="M53.0717,171.2249c-0.379-4.3797,0.6103-8.7031,3.075-12.3685c2.6449-3.9335,6.1893-5.6988,10.5959-6.9231
				c4.943-1.3733,4.7762-7.4864,5.6591-11.6319c0.9795-4.5986,3.2311-10.992,8.9563-10.8819
				c-0.7662-1.3352-1.5324-2.6705-2.2986-4.0057c-5.1006,6.7156-8.564,14.6387-9.855,22.9851
				c-0.0533,0.3446-0.677,2.7533,0.0637,2.2298c-0.2441,0.1725-1.5799,0.0435-1.814,0.0566
				c-1.9678,0.1104-3.8752,0.5353-5.6982,1.2786c-3.0526,1.2448-6.8259,3.5575-7.5569,7.0086
				c-0.3787,1.7882,1.4193,3.2615,3.0757,2.3645c1.7013-0.9213,2.9154-2.4883,4.5647-3.5045
				c1.4728-0.9074,3.1582-1.5408,4.8806-1.7587c1.7254-0.2182,3.548,0.1477,5.1341-0.7682
				c1.4381-0.8305,2.0073-2.2514,2.2838-3.8043c1.539-8.6443,4.1792-16.3052,9.5187-23.4003
				c1.2702-1.6878-0.4696-3.9786-2.2986-4.0057c-5.512-0.0815-9.9993,3.8769-12.1351,8.7398
				c-1.2782,2.9103-1.7953,6.0202-2.3191,9.1326c-0.2296,1.3644-0.2339,3.7791-0.972,4.9803
				c-0.5804,0.9445-2.2763,0.9837-3.2859,1.3608c-9.0448,3.3785-15.5372,13.7458-12.6128,23.3272
				C50.52,173.231,53.2281,173.0326,53.0717,171.2249L53.0717,171.2249z"/>
		</g>
	</g>
	<g>
		<g>
			<path class="st5" d="M216.0559,87.294c1.1807-1.3635,3.0128-1.3081,4.6839-1.3455c2.0649-0.0463,4.1875-0.0974,6.2361,0.2221
				c3.4816,0.543,6.986,2.2222,7.8534,5.9099c0.3197,1.359,2.0136,1.9885,3.1785,1.2931
				c6.6523-3.9709,15.3703-3.9995,21.5571,0.9801c0.8215-1.4113,1.6431-2.8226,2.4646-4.2339
				c-6.1803-1.5236-13.0432-2.802-19.2226-0.5714c-5.038,1.8186-9.1882,5.462-10.7508,10.6835
				c-0.8234,2.7513,3.5006,4.7219,4.7452,2.0005c2.3091-5.0487,8.5669-8.1039,13.8977-5.8398c0-1.4966,0-2.9932,0-4.4898
				c-4.5748,1.9784-8.2832,5.1276-11.225,9.1239c-1.7988,2.4436,2.0259,5.1306,4.087,3.1534
				c4.4715-4.2894,11.0371-10.57,17.8244-7.4772c1.7046,0.7767,3.9794-0.1105,3.922-2.2506
				c-0.1512-5.633,5.6693-8.5886,10.6165-7.3837c2.5552,0.6223,4.1915-2.9505,1.818-4.3123
				c-7.8329-4.4943-17.8756,3.3081-17.6475,11.6961c1.3073-0.7502,2.6147-1.5004,3.922-2.2506
				c-9.3678-4.2646-17.6177,2.0415-24.1356,8.2983c1.3623,1.0511,2.7247,2.1023,4.087,3.1534
				c2.417-3.2857,5.6328-5.6494,9.3555-7.2608c1.6945-0.7335,1.7129-3.763,0-4.4898c-7.7561-3.291-17.4034-0.1743-21.0056,7.7089
				c1.5817,0.6668,3.1635,1.3337,4.7452,2.0005c2.9854-9.9887,15.8656-8.4608,23.6197-6.6071
				c2.2444,0.5365,4.5826-2.5611,2.4646-4.2339c-7.7151-6.0935-19.1932-7.1231-27.3237-1.1343
				c1.0595,0.431,2.119,0.8621,3.1785,1.2931c-1.6199-4.8825-6.044-7.7664-10.9745-8.5749
				c-2.7564-0.452-5.6486-0.4509-8.4308-0.2679c-2.3483,0.1545-4.6503,0.6342-6.1817,2.5662
				C211.955,86.4957,214.4573,89.1402,216.0559,87.294L216.0559,87.294z"/>
		</g>
	</g>
	<g>
		<g>
			<path class="st6" d="M278.7485,93.6092c2.0648-5.3776,9.1581-8.0057,14.0949-4.9834c0.8658,0.53,1.9841,0.3182,2.7004-0.3484
				c6.2074-5.7776,14.9969-0.5518,20.801,3.0441c0.9827,0.6088,2.6393,0.2864,3.1514-0.8263
				c0.9995-2.1717,2.9413-3.3894,5.3196-3.5898c2.5756-0.217,4.191,0.9077,6.0475,2.4936c1.4204,1.2134,4.3548,0.0956,3.5125-2.0447
				c-3.1029-7.8848-15.7358-6.0741-18.8574,0.8158c1.0505-0.2754,2.101-0.5509,3.1514-0.8263
				c-7.7814-4.7608-18.4221-9.6953-26.2775-2.2177c0.9001-0.1161,1.8003-0.2323,2.7004-0.3484
				c-7.2496-4.327-17.7916-0.5304-19.8398,7.868C274.6901,94.9533,277.9253,95.753,278.7485,93.6092L278.7485,93.6092z"/>
		</g>
	</g>
</g>
<g id="Layer_2">
	<path class="st7" d="M307.2295,54.4394c-8.2311-4.6716-16.0847-12.0905-18.3704-21.1598c-1.963-0.1069-2.8334-1.0145-4.6549-1.322
		c-1.4152-5.9601,14.8275-35.4861,19.85-28.3987c4.416,6.2317,10.4545,2.6388,16.4206,1.7955
		c10.4136-1.4719,15.9097-0.9232,24.8007,4.555c6.5095,4.0108,11.1921,9.114,14.9768,15.9001
		c5.0865,9.1203,12.6698,13.9829,18.4556,22.1943c-14.15-4.0537-34.2187-13.1294-49.5233-13.7208
		c1.3607,6.7016,10.5618,15.0816,16.4681,18.9201c-4.8812-1.9832-9.8367-3.8923-14.445-6.7404
		c0.1602,2.5906,0.1024,6.1617,0.8152,8.8117c-6.7297-11.2066-14.5367-33.148-35.8649-23.9452
		c2.1943,10.7174,11.3104,19.0993,18.7404,26.6514C312.4109,57.0909,309.8018,55.8993,307.2295,54.4394z"/>
	<path class="st8" d="M871.0644,267.6896c-1.7871-1.3335-4.0383-1.9143-6.2488-1.3645c-0.9895,0.2461-1.7886,0.7031-2.595,1.2998
		c-0.0505,0.0352-0.0935,0.0789-0.1428,0.1152c0.27-0.6851,0.1772-1.5637-0.3059-2.6514c0.4058-2.3647-2.6475-4.9949-4.5562-2.6523
		c0.9521-1.1687,2.0168-2.8035,1.8503-4.6555c-0.1287-1.4304-1.1001-2.6074-2.6279-2.6279
		c-2.3726-0.0317-3.9873-2.1213-6.2896-0.0764c-0.967,0.8586-0.9673,2.1211-1.6143,3.1277
		c-0.7485,1.1638-2.0889,1.6799-2.5698,3.0464c-0.3667,1.0427,0.2734,1.844,0.1323,2.7715
		c-0.3293,2.1641-1.6783,3.4549-1.7613,5.823c-0.0131,0.3738-0.7692,6.0375-1.3229,5.5105c1.6367,1.558,3.6266,2.4084,5.0781,4.1526
		c1.5812,1.9004,5.0831,4.1591,7.7148,3.3273c2.5711-0.8129,4.6326,0.3182,7.1411-0.2956c2.2595-0.553,2.2493-1.9131,3.4468-3.4883
		c0.1133-0.188,0.1528-0.3025,0.1492-0.3743c0.262-0.0352,0.5181-0.0947,0.7607-0.2078c0.6948-0.4453,1.2869-0.5723,1.8896-1.2009
		c0.8721-0.9092,1.2078-4.4434,1.8716-4.7957C873.0754,271.4062,872.6213,268.8515,871.0644,267.6896z"/>
	<path class="st8" d="M65.7653,117.6066c0.0031,0.012,0.0062,0.0241,0.0093,0.0362c1.8813,7.4073-7.4218,7.5843-10.0083,11.9613
		c2.9985,1.819,3.1183,6.3434,1.0359,8.7973c-2.5674,3.0254-6.433,1.7283-9.6464,1.4401c-1.4392,2.8388-0.8736,5.7253-4.5158,6.1725
		c-3.1615,0.3882-5.0149-2.7359-8.0072-3.3586c-3.1012-0.6454-5.5595,1.4802-8.6592,0.9809
		c-4.0694-0.6555-4.0351-4.3667-6.9598-6.4393c-2.2727-1.6105-4.8806-0.1075-6.9275-2.6511
		c-2.5388-3.1549,0.1971-7.0453-2.9474-9.9849c-2.1925-2.0496-4.1943-1.6611-5.3995-4.5452
		c-0.9336-2.234,0.6853-4.8753,0.3032-7.1451c-0.2767-1.6437-1.5311-2.8679-1.828-4.3298
		c-1.8283-9.0022,7.7099-9.6447,14.6586-11.3381c-0.8809,4.9416-5.4403,7.7236-4.6914,13.3106
		c4.2585-0.2763,10.3499-8.7277,14.2819-11.4997c2.0411,2.1282,4.0796,5.0828,3.3415,8.5443
		c1.6198-3.3604,2.3117-8.701,4.9718-11.3361c3.1258,1.9477,6.9134,0.3478,10.3278-0.1184
		c-2.672-3.1506-14.7075-6.0319-5.8974-10.1983c2.6092-1.2328,8.5816-1.2086,11.1392,0.227
		c3.9281,2.2049,3.1859,7.3858,6.5213,10.1231c1.8549,1.5222,3.8587,0.619,5.5278,2.819c1.7893,2.3584,1.3656,4.5657,0.6247,7.167
		c-0.7554,2.6521-2.181,3.1719-1.4032,5.5452C62.5249,114.5567,65.0324,114.8032,65.7653,117.6066z"/>
	<g>
		<g>
			<g>
				<path class="st9" d="M851.4045,281.2836c-2.0598,0.0044-3.7983-1.2955-3.6863-3.4661c0.0148-0.2863-0.2263-0.618-0.5139-0.675
					c-1.8495-0.3666-3.2136-2.7893-1.2036-4.2381c0.4892-0.3526,0.5121-1.0011,0-1.3497c-2.434-1.6567-1.9967-4.7848,0.5934-5.99
					c0.3796-0.1766,0.4686-0.7204,0.2766-1.0547c-0.7997-1.3916-0.6377-3.2155,0.5439-4.3684
					c0.6166-0.6017,1.679-0.6562,2.215-1.3282c0.4186-0.5248,0.3712-1.451,0.5593-2.0453c0.8918-2.8172,4.3469-3.3966,6.1779-0.98
					c0.5867,0.7743,1.9151,0.0139,1.3205-0.7719c-2.5005-3.3043-7.8148-3.0303-9.0583,1.3244
					c-0.3173,1.1111-0.2554,1.2196-1.2256,1.9205c-0.749,0.5411-1.4178,1.0398-1.8929,1.863
					c-0.9467,1.6401-0.8979,3.5456,0.0291,5.1641c0.0922-0.3515,0.1843-0.7031,0.2766-1.0546
					c-3.7398,1.7285-3.9343,6.4078-0.6042,8.6708c0-0.4499,0-0.8998,0-1.3497c-3.0063,2.1887-2.0867,6.697,1.8063,6.9629
					c-0.2333-0.2334-0.4667-0.4667-0.7-0.7c0.0203,2.7136,2.419,5.1125,5.204,4.3351
					C852.0004,282.019,851.9083,281.2825,851.4045,281.2836L851.4045,281.2836z"/>
			</g>
		</g>
		<g>
			<g>
				<path class="st9" d="M850.7528,282.261c2.0082,2.6675,6.0112,2.7275,8.2116,0.2582c-0.3192,0-0.6384,0-0.9575,0
					c3.443,3.1299,8.4329,1.1158,8.8889-3.4634c-0.2354,0.2354-0.4707,0.4707-0.7061,0.706
					c1.6369-0.0524,3.0693-0.6837,4.0742-2.0235c0.5186-0.6915,0.7457-1.3973,0.9368-2.2349c0.2745-1.2028,0.5876-1.874,1.2404-2.95
					c1.7937-2.9564,0.7804-6.3416-2.7382-7.248c-0.9282-0.2391-1.3246,1.1991-0.3956,1.4351
					c2.8721,0.7296,3.1736,3.2907,1.5464,5.3697c-0.3624,0.4631-0.7512,0.5215-0.9885,1.1183
					c-0.1826,0.4592-0.0521,0.9201-0.0779,1.387c-0.1171,2.1195-1.3787,3.651-3.5977,3.7343
					c-0.4086,0.0153-0.6691,0.3128-0.7061,0.7061c-0.3221,3.4251-4.0073,4.7644-6.5193,2.5059
					c-0.2686-0.2415-0.6918-0.2742-0.9575,0c-1.8052,1.863-4.4464,1.6872-6.2464-0.0782
					C851.2609,280.9935,850.3008,281.6605,850.7528,282.261L850.7528,282.261z"/>
			</g>
		</g>
		<g>
			<g>
				<path class="st9" d="M848.3231,268.0163c-1.0182,1.1132-1.8847,2.8712-1.4844,4.4122c0.3449,1.328,1.5262,2.3934,2.9319,2.071
					c0.7448-0.1708,0.5024-1.1829-0.169-1.2488c-2.6992-0.265-0.8474-3.4319-0.3334-4.6842
					C849.4863,268.0349,848.6852,267.6204,848.3231,268.0163L848.3231,268.0163z"/>
			</g>
		</g>
		<g>
			<g>
				<path class="st9" d="M850.7916,276.9523c-0.3312,4.035,5.1753,4.5505,6.1941,0.8335c-0.395,0.1043-0.79,0.2086-1.185,0.3128
					c1.7134,1.7417,4.1041,2.2532,6.3474,1.2641c0.6934-0.3057,0.2003-1.4664-0.517-1.2263
					c-1.7928,0.6004-3.4642,0.3455-4.8278-1.0405c-0.3748-0.3809-1.0447-0.1988-1.1849,0.3129
					c-0.5976,2.1803-3.5075,1.62-3.7135-0.4565C851.8344,276.2419,850.8508,276.2314,850.7916,276.9523L850.7916,276.9523z"/>
			</g>
		</g>
		<g>
			<g>
				<path class="st9" d="M858.1379,270.7501c-0.187,0.8184-0.2708,1.4608,0.1085,2.2573c0.3323,0.6977,0.8819,1.2754,1.5789,1.614
					c1.377,0.669,3.2853,0.3921,4.1745-0.9219c0.406-0.6-0.3836-1.3204-0.97-0.97c-0.7817,0.467-1.6088,0.9244-2.525,0.479
					c-0.7733-0.3759-1.3536-1.4553-1.3022-2.3143C859.2389,270.2858,858.2738,270.1552,858.1379,270.7501L858.1379,270.7501z"/>
			</g>
		</g>
		<g>
			<g>
				<path class="st9" d="M863.1469,276.9548c0.8126,1.2542,2.8058,1.382,3.7523,0.2008c0.53-0.6615-0.3188-1.5761-0.9529-0.9529
					c-0.5264,0.5174-1.3708,0.562-1.9527,0.0989C863.5526,275.9507,862.7855,276.397,863.1469,276.9548L863.1469,276.9548z"/>
			</g>
		</g>
		<g>
			<g>
				<path class="st9" d="M850.1688,262.0207c-1.4409,1.0389-2.1288,2.9174-1.4019,4.606c0.7158,1.6625,2.6391,2.5835,4.3718,2.1234
					c0.7487-0.1988,0.6264-1.4752-0.1885-1.3926c-1.1219,0.1136-2.2927-0.2157-2.8137-1.3091
					c-0.5141-1.0792-0.0577-2.2844,0.8132-3.0154C851.5043,262.5676,850.7642,261.5913,850.1688,262.0207L850.1688,262.0207z"/>
			</g>
		</g>
		<g>
			<g>
				<path class="st9" d="M852.3805,270.8403c-1.0032,1.8886,0.313,4.3014,2.2447,4.9045c0.7332,0.2289,1.2535-0.9313,0.5328-1.2637
					c-1.3883-0.6402-1.847-1.8989-1.702-3.3495C853.5137,270.5545,852.6379,270.3558,852.3805,270.8403L852.3805,270.8403z"/>
			</g>
		</g>
		<g>
			<g>
				<path class="st9" d="M852.7964,256.5031c-3.3472,2.356-0.2063,7.0625,3.378,5.2854c-0.3395-0.261-0.679-0.5219-1.0185-0.7829
					c-0.6511,2.1904,0.3649,4.468,2.5068,5.3152c0.7295,0.2886,1.1949-0.8813,0.5283-1.253
					c-1.4015-0.7815-2.139-2.0973-1.698-3.6937c0.1671-0.6049-0.4929-1.0563-1.0185-0.7829
					c-2.3494,1.222-3.8246-1.7044-2.0994-3.3382C853.7604,256.8882,853.2471,256.1859,852.7964,256.5031L852.7964,256.5031z"/>
			</g>
		</g>
		<g>
			<g>
				<path class="st9" d="M863.6553,269.3003c1.4902,1.92,5.5062,1.7451,6.3311-0.7773c0.2245-0.6864-0.6669-1.1001-1.1458-0.667
					c-0.6235,0.5638-1.0826,1.0832-1.961,1.2206c-0.8383,0.1311-1.7068-0.0995-2.3708-0.6297
					C863.895,267.9567,863.1787,268.6863,863.6553,269.3003L863.6553,269.3003z"/>
			</g>
		</g>
		<g>
			<g>
				<path class="st9" d="M861.2875,261.0844c-0.176,2.5223-0.2433,5.0526-0.3745,7.5777c-0.0376,0.7233,1.06,0.8502,1.2468,0.1688
					c1.5007-5.4756,8.2482-1.4638,11.1627-0.0251c0.7238,0.3572,1.354-0.6856,0.6388-1.0928
					c-2.5759-1.4668-5.5203-3.4016-8.6374-2.8952c-2.0966,0.3406-3.8297,1.5749-4.3882,3.6757
					c0.4156,0.0562,0.8312,0.1125,1.2468,0.1687c0.1116-2.5235,0.2188-5.0517,0.1479-7.5777
					C862.3115,260.408,861.3339,260.4189,861.2875,261.0844L861.2875,261.0844z"/>
			</g>
		</g>
		<g>
			<g>
				<path class="st9" d="M860.5911,260.6603c-1.5251,0.1038-2.7537,0.4527-4.0547,1.2689c0.2744,0.3556,0.5488,0.7112,0.8232,1.0669
					c0.935-0.9131,1.8763-1.8202,2.8052-2.7394c0.1062-0.1051,1.0008-0.8902,1.0869-1.2351c0.2372-0.95-0.5404-1.8481-1.0126-2.6152
					c-1.7629-2.8639-3.6781-5.4972-6.4481-7.4676c-0.2255,0.3857-0.4509,0.7715-0.6764,1.1572
					c3.9003,2.0904,7.2816,4.7746,10.1917,8.1066c0.4999,0.5725,1.2242-0.0657,1.1385-0.6628
					c-0.2534-1.7665-0.5067-3.5331-0.7601-5.2996c-0.3814,0.222-0.7628,0.4441-1.1442,0.6661
					c2.0872,1.973,3.1413,4.3477,3.5715,7.1459c0.109,0.709,1.2989,0.5452,1.2545-0.1698
					c-0.1939-3.1226-1.5964-5.8119-3.8578-7.9443c-0.5361-0.5055-1.2381,0.0176-1.1443,0.6661
					c0.2556,1.7659,0.5111,3.5319,0.7667,5.2978c0.3795-0.2209,0.7591-0.4419,1.1386-0.6628
					c-2.9802-3.4036-6.4815-6.1829-10.4787-8.3003c-0.7722-0.409-1.3754,0.6651-0.6764,1.1572
					c2.1267,1.4974,3.7184,3.4368,5.1423,5.5975c0.7798,1.1831,1.7692,2.1028,0.9761,3.6314
					c-0.4962,0.9562-2.0487,1.9595-2.834,2.7106c-0.5659,0.5413,0.1557,1.4369,0.8232,1.0669
					c1.0859-0.6019,2.1161-0.973,3.369-1.1001C861.4353,261.9164,861.4626,260.601,860.5911,260.6603L860.5911,260.6603z"/>
			</g>
		</g>
		<g>
			<g>
				<path class="st9" d="M866.8691,262.2048c2.3926,0.4578,4.5275,1.2478,6.504,2.6978c0.097-0.3582,0.1941-0.7165,0.2911-1.0747
					c-0.8969,0.0128-1.7945,0.015-2.6906,0.0557c-0.7311,0.0333-0.7396,1.1366,0,1.1426c0.897,0.0073,1.7939-0.0241,2.6906-0.0448
					c0.6048-0.0139,0.7414-0.7505,0.2911-1.0747c-2.0504-1.4767-4.4227-2.4662-6.9546-2.6743
					C866.4489,261.1869,866.3205,262.0998,866.8691,262.2048L866.8691,262.2048z"/>
			</g>
		</g>
		<g>
			<g>
				<path class="st9" d="M865.0853,262.5635c2.0756-1.8343,4.0463-3.7229,6.3844-5.2358c1.0165-0.6577,2.0703-1.2615,3.1537-1.8025
					c0.4816-0.2405,0.9693-0.4715,1.4629-0.6865c0.5435-0.2382,1.0949-0.4556,1.6542-0.6524
					c0.5299-0.0495,0.5521-0.2993,0.0665-0.7493c-0.1818,0.7747,0.8312,1.5002,1.42,0.8266
					c0.0649-0.0742,0.1298-0.1484,0.1946-0.2227c0.2726-0.3118,0.3616-0.7491,0.1445-1.1204
					c-1.265-2.1633-5.5186,0.8079-6.9244,1.6134c-3.2141,1.8415-6.3243,4.2792-8.4261,7.3585
					C863.8445,262.4364,864.6366,262.9601,865.0853,262.5635L865.0853,262.5635z"/>
			</g>
		</g>
	</g>
	<g>
		<g>
			<g>
				<path class="st9" d="M36.3923,87.2475c1.8912-2.4356,7.1318-4.5696,7.7795-0.0508c0.0967,0.6748,1.0664,0.6784,1.3708,0.1792
					c3.636-5.9624,9.6889,1.2727,8.8225,5.9788c-0.0867,0.4707,0.2021,0.9514,0.7232,0.9494
					c3.1822-0.0125,7.6067,2.638,8.2778,5.9437c0.6331,3.1184,0.2629,6.1924-1.87,8.6216
					c-0.5248,0.5977,0.1784,1.7095,0.9089,1.1779c0.8479-0.6171,4.0282,4.1862,4.3999,5.019
					c0.9421,2.1112,0.6569,5.2306-0.4737,7.2279c-0.9906,1.7499-2.7555,2.29-4.3909,3.2259
					c-2.4509,1.4026-3.1879,3.3392-2.9204,6.1038c0.2345,2.4239,0.6194,4.3339-1.1897,6.3344
					c-1.9633,2.1711-4.6202,3.1348-7.4729,2.4438c-0.444-0.1076-0.9839,0.2194-0.9494,0.7232
					c0.2703,3.9508-4.4202,6.3852-7.7964,4.7141c-2.7209-1.3468-3.5886-4.7043-4.1652-7.4375
					c-0.1371-0.6498-1.055-0.7072-1.3708-0.1792c-2.5374,4.2419-12.9952,5.277-12.4878-1.4325
					c0.0487-0.6438-0.8574-0.9961-1.2803-0.5303c-2.7665,3.0468-7.0381,2.6084-9.1716-1.0526
					c-1.3677-2.3469-0.9231-5.2502-0.432-7.7795c0.1166-0.6004-0.3417-1.0119-0.9226-0.9226
					c-3.4254,0.5265-6.0207-1.9075-6.5377-5.2526c-0.3706-2.3982,1.0083-4.7768,1.5183-7.0801
					c0.0929-0.4195-0.1258-0.7787-0.5238-0.9226c-7.6252-2.7562-2.6156-10.71,1.9695-13.8091
					c0.7954-0.5377,0.0456-1.8378-0.7571-1.2952c-5.8028,3.9223-10.5757,13.3105-1.6112,16.5508
					c-0.1746-0.3075-0.3492-0.6151-0.5238-0.9226c-0.8424,3.8047-2.6186,6.762-0.5576,10.5254
					c1.6036,2.9282,4.147,4.1558,7.4221,3.6525c-0.3075-0.3075-0.6151-0.6151-0.9226-0.9226
					c-0.7141,3.6785-1.046,7.7998,1.919,10.6139c3.1896,3.0273,7.2733,2.8917,10.1917-0.3224
					c-0.4268-0.1768-0.8536-0.3536-1.2803-0.5303c-0.6278,8.3022,12.0094,7.6622,15.283,2.1896
					c-0.4569-0.0597-0.9139-0.1194-1.3708-0.1792c0.8131,3.8537,2.5004,8.4087,6.9694,9.0093
					c4.0115,0.5391,8.2294-2.436,7.9387-6.6846c-0.3165,0.2411-0.6329,0.4821-0.9494,0.7232
					c4.2155,1.0211,9.5667-1.3397,10.672-5.8555c0.6295-2.5718-1.2662-5.9586,0.6425-8.1697
					c1.4958-1.7328,4.1457-1.9706,5.6711-3.7867c2.4833-2.9566,2.4821-7.8255,0.4043-10.9604
					c-0.8655-1.306-3.6416-5.8223-5.7004-4.3241c0.303,0.3926,0.6059,0.7853,0.9089,1.1779c1.2358-1.4075,2.194-2.8938,2.45-4.7851
					c0.2202-1.6267,0.2843-4.3363-0.2186-5.8811c-1.1766-3.6142-6.1039-6.4739-9.6999-6.4598
					c0.2411,0.3165,0.4821,0.6329,0.7232,0.9494c1.1836-6.4289-6.9987-14.6211-11.5641-7.1346
					c0.4569,0.0597,0.9139,0.1194,1.3708,0.1792c-0.8122-5.6658-7.6721-3.9782-10.2866-0.6111
					C34.7466,86.9403,35.8007,88.0094,36.3923,87.2475L36.3923,87.2475z"/>
			</g>
		</g>
		<g>
			<g>
				<path class="st9" d="M9.4903,111.4542c1.0351,3.5535,5.1219,5.8968,8.6408,6.1314c3.9472,0.2632,7.973-1.9371,9.7267-5.4974
					c0.3232-0.6561-0.5617-1.1694-0.9765-0.5708c-2.0865,3.0115-5.2303,5.1031-9.0201,4.7317
					c-3.5584-0.3487-5.5724-2.5737-7.6707-5.2026C9.9213,110.7093,9.3801,111.076,9.4903,111.4542L9.4903,111.4542z"/>
			</g>
		</g>
		<g>
			<g>
				<path class="st9" d="M39.9496,114.1098c5.417,2.0283,12.3403,1.8361,15.7344-3.5985c2.4248-3.8825,1.1475-9.9713-3.6612-11.2474
					c-0.6599-0.1751-1.1405,0.8326-0.4808,1.1406c4.3095,2.0118,5.219,7.1145,1.9786,10.6125
					c-3.4429,3.7166-8.8377,3.5261-13.3125,2.155C39.6007,112.9857,39.3731,113.8939,39.9496,114.1098L39.9496,114.1098z"/>
			</g>
		</g>
		<g>
			<g>
				<path class="st9" d="M44.9067,105.3918c9.798,0.479,10.608-17.5235,0.4512-17.0487c-0.8355,0.0391-0.8145,1.2076,0,1.2832
					c8.2522,0.7661,7.4299,14.3554-0.4512,14.8924C44.3483,104.5568,44.3418,105.3642,44.9067,105.3918L44.9067,105.3918z"/>
			</g>
		</g>
		<g>
			<g>
				<path class="st9" d="M23.8213,107.1692c1.2315,5.8779,9.8886,8.3639,14.805,6.2559c2.533-1.0861,4.197-3.2489,4.0531-6.0621
					c-0.1211-2.3692-1.5185-4.73-3.8302-5.4856c-0.6841-0.2236-1.0541,0.7666-0.4763,1.1299
					c1.9584,1.2314,3.3171,3.2035,2.8176,5.635c-0.5917,2.8805-3.7503,4.0841-6.3953,4.1636
					c-2.1672,0.0652-4.3378-0.6048-6.1489-1.7821c-1.7813-1.1579-2.6945-2.7608-4.0318-4.3165
					C24.2832,106.322,23.7319,106.7425,23.8213,107.1692L23.8213,107.1692z"/>
			</g>
		</g>
		<g>
			<g>
				<path class="st9" d="M5.2676,99.2978c6.0153-3.1373,12.5344-5.6853,19.4503-5.4593c0.6942,0.0227,1.0454-0.885,0.5633-1.3598
					c-1.472-1.4498-3.0824-2.766-4.6439-4.1179c-0.13,0.4925-0.26,0.9849-0.3901,1.4774c2.3073-0.5342,4.5644,0.3444,6.8737,0.0504
					c2.0183-0.257,3.2152-1.4149,4.3709-3.0013c3.1633-4.3421,6.8002-8.2667,11.93-10.2324c-0.276-0.4741-0.552-0.9482-0.828-1.4224
					c-3.5444,3.8023-6.8624,9.0335-7.3812,14.341c-0.1643,1.6805,0.4742,2.7613,2.1119,3.1788
					c1.2156,0.3099,2.487,0.2997,3.7034,0.6817c1.7329,0.5442,3.2756,1.3909,4.7395,2.4525
					c0.2799-0.4789,0.5599-0.9578,0.8398-1.4367c-1.3636-0.634-2.7348,0.0674-4.0239,0.6069
					c-2.9573,1.2377-5.9395,0.8312-8.992-0.0264c-0.4681-0.1315-0.8471,0.1652-1.0162,0.577
					c-0.8592,2.0915-1.4237,4.3447-1.9957,6.5271c-0.4425,1.6883-1.3056,3.9179-0.9382,5.6939
					c0.527-0.1453,1.0539-0.2906,1.5809-0.4358c-0.8614-2.5034-1.438-5.7973-2.9384-8.0035
					c-0.8631-1.2691-2.084-1.5007-3.4684-0.9321c-2.3205,0.9531-4.5573,3.0903-6.3508,4.7952
					c-2.0812,1.9782-3.889,4.1985-5.4973,6.5725c0.4523,0.1907,0.9047,0.3814,1.357,0.5721
					c1.0631-4.8066,3.3385-9.0267,6.7748-12.5528c0.5061-0.5194-0.0012-1.4073-0.7085-1.2171
					c-3.0318,0.8154-6.2673,0.9789-9.3871,1.2075c-1.9801,0.1451-3.9918,0.5614-5.9664,0.6353c-0.5563,0.0208-0.559,0.8881,0,0.8672
					c5.2639-0.1969,10.569,0.0562,15.7407-1.3056c-0.2362-0.4057-0.4723-0.8114-0.7085-1.2171
					c-3.6188,3.6746-6.0571,8.153-7.1768,13.1879c-0.1856,0.8346,0.8826,1.2707,1.357,0.5721
					c2.3161-3.4103,5.1024-6.4326,8.3916-8.9252c0.6986-0.5294,1.7263-1.5696,2.5931-1.7707
					c1.6644-0.386,1.985,0.7909,2.4042,2.0162c0.6757,1.975,1.3258,3.9592,2.003,5.9341c0.3426,0.999,1.7941,0.6007,1.5809-0.4358
					c-0.3452-1.6775,0.7998-4.3235,1.2362-5.9028c0.5032-1.821,0.989-3.693,1.7101-5.4432
					c-0.3387,0.1923-0.6775,0.3847-1.0162,0.577c2.3874,0.6731,5.2547,1.2718,7.7352,0.8054
					c1.2842-0.2415,3.6903-2.0969,4.8801-1.5424c0.9772,0.4554,1.7073-0.8064,0.8398-1.4367
					c-1.5743-1.1438-3.271-2.0515-5.1357-2.625c-2.108-0.6483-5.0922-0.4004-4.2649-3.6216
					c1.1419-4.4464,3.4324-8.4497,6.5907-11.7672c0.5464-0.5739,0.0102-1.7335-0.828-1.4224
					c-4.201,1.5595-7.6488,4.2978-10.5175,7.7119c-1.6411,1.953-2.9703,5.0171-5.6969,5.3926
					c-2.3481,0.3234-4.6061-0.5448-6.9778,0.0154c-0.6182,0.146-0.8926,1.0461-0.3901,1.4774
					c1.6241,1.3938,3.2184,2.831,4.9287,4.1189c0.134-0.4948,0.268-0.9896,0.4021-1.4844
					c-7.0765,0.5775-14.0423,2.003-19.9116,6.2631C4.3366,98.8494,4.7364,99.5748,5.2676,99.2978z"/>
			</g>
		</g>
		<g>
			<g>
				<path class="st9" d="M29.5368,94.8407c-0.8657-3.6496-2.2679-7.197-3.3113-10.8051c-1.0384-3.5909-1.8324-7.2345-2.7257-10.847
					c-0.1338-0.541-1.0589-0.5979-1.1526,0c-0.5933,3.7848,0.4386,7.4172,1.7033,11.0185c1.3047,3.7151,2.8311,7.4984,4.6884,10.97
					C28.9782,95.6243,29.6485,95.3115,29.5368,94.8407L29.5368,94.8407z"/>
			</g>
		</g>
		<g>
			<g>
				<path class="st9" d="M10.9501,127.6552c2.55-0.712,5.7319-2.9995,6.3204-5.7519c0.1577-0.7378-0.7582-1.0937-1.1834-0.4989
					c-0.7391,1.0339-1.231,2.1092-2.1513,3.0323c-0.9314,0.9342-2.083,1.5854-3.3018,2.0715
					C9.9414,126.7844,10.1935,127.8664,10.9501,127.6552L10.9501,127.6552z"/>
			</g>
		</g>
		<g>
			<g>
				<path class="st9" d="M22.8581,137.1123c1.1073-1.0741,2.3445-2.1851,3.1974-3.4787c0.3765-0.5711-0.4185-1.0468-0.8788-0.6781
					c-1.1715,0.9382-2.1295,2.243-3.0685,3.4069C21.6885,136.8827,22.3567,137.5987,22.8581,137.1123L22.8581,137.1123z"/>
			</g>
		</g>
		<g>
			<g>
				<path class="st9" d="M50.5548,139.9717c-0.796,0.0326-1.6401-0.3817-2.2237-0.9099c-0.6365-0.576-0.8263-1.2635-1.1088-2.0386
					c-0.1751-0.4804-0.995-0.6078-1.1074,0c-0.2149,1.1624,0.4739,2.3271,1.3595,3.0432c0.9689,0.7836,1.9903,0.9631,3.1981,0.7743
					C51.1662,140.7635,51.048,139.9515,50.5548,139.9717L50.5548,139.9717z"/>
			</g>
		</g>
		<g>
			<g>
				<path class="st9" d="M53.9766,128.003c2.6165,0.2704,5.4621-0.0431,7.9765-0.8062c0.7834-0.2377,0.4474-1.3314-0.3318-1.2035
					c-2.5507,0.4189-5.0767,0.7327-7.6447,1.0194C53.3433,127.0835,53.3375,127.9369,53.9766,128.003L53.9766,128.003z"/>
			</g>
		</g>
		<g>
			<g>
				<path class="st9" d="M31.8608,131.2408c0.467,4.4497,4.9569,7.2468,9.2342,6.8765c5.0238-0.435,8.7556-4.826,10.2637-9.3391
					c0.206-0.6164-0.7978-1.0588-1.0656-0.4492c-1.5752,3.5854-4.0634,7.1769-8.0852,8.204
					c-4.0382,1.0313-8.3438-1.3295-9.2824-5.4363C32.792,130.5131,31.7962,130.6253,31.8608,131.2408L31.8608,131.2408z"/>
			</g>
		</g>
		<g>
			<g>
				<path class="st9" d="M41.6236,125.7388c6.8983,3.4804,14.9228-1.442,14.6443-9.2473c-0.0289-0.8112-1.2662-0.8181-1.2656,0
					c0.0047,6.7505-6.6341,11.1892-12.8582,8.3568C41.55,124.578,41.0235,125.4361,41.6236,125.7388L41.6236,125.7388z"/>
			</g>
		</g>
		<g>
			<g>
				<path class="st9" d="M21.0084,127.3568c0.6276,2.9172,3.2112,5.8637,6.4037,5.7848c2.7156-0.0672,5.2032-2.4514,4.6054-5.2293
					c-0.1275-0.5923-1.1214-0.4721-1.0704,0.1449c0.2272,2.749-2.6582,4.4637-5.1029,3.5176
					c-2.0266-0.7843-3.0884-2.7283-4.0326-4.5566C21.5739,126.5579,20.9076,126.8881,21.0084,127.3568L21.0084,127.3568z"/>
			</g>
		</g>
		<g>
			<g>
				<path class="st9" d="M29.7778,118.9978c-2.6521,4.1451,2.0506,7.9048,5.9307,7.9733c4.6475,0.082,8.8643-3.0956,10.3209-7.4316
					c0.1947-0.5795-0.7445-0.9924-1.0013-0.4222c-1.3078,2.9038-3.5834,5.2284-6.6844,6.163
					c-1.4703,0.4431-3.14,0.5279-4.6183,0.0695c-2.866-0.8887-3.5492-3.2882-3.1497-6.0156
					C30.6446,118.8635,30.0615,118.5543,29.7778,118.9978L29.7778,118.9978z"/>
			</g>
		</g>
		<g>
			<g>
				<path class="st9" d="M17.6093,124.6092c0.4502,1.7959,2.2027,3.0882,4.0794,2.7899c1.8949-0.3012,3.162-2.1363,2.9702-3.9976
					c-0.0691-0.6713-1.0925-0.7034-1.0723,0c0.0365,1.2719-0.7549,2.5519-2.0582,2.8247c-1.3126,0.2747-2.5817-0.6533-2.9982-1.8709
					C18.3328,123.778,17.4584,124.0072,17.6093,124.6092L17.6093,124.6092z"/>
			</g>
		</g>
	</g>
	<path class="st8" d="M266.6714,60.358c-0.8545,0.4355-2.3356,2.7822-2.8768,2.8613c-1.7179,0.2512-1.5369-3.7583-2.046-5.0874
		c-0.7368-1.9241-2.0098-2.9302-3.4254-4.3738c-1.8523-1.8884-3.2388-3.7683-4.1904-6.1223c0.179-0.6567,0.127-1.3647-0.2754-1.8955
		c-0.0887-0.1172-0.1775-0.2341-0.2661-0.3511c-0.7642-1.0078-1.8217-1.4316-2.8701-1.1494
		c-0.3125-0.3936-1.968-0.6157-3.4475-0.8435c0.5841-0.3555,1.1674-0.9912,1.5048-1.3291c1.2623-1.2639,0.7947-3.0706-0.5192-4.0286
		c-1.5874-1.1577-3.1682-2.3247-4.7522-3.4871c1.5955-0.3879,2.8353-2.0095,1.7067-3.7393
		c-2.4135-3.6987-6.6718-5.5586-10.8595-3.4778c-1.0615,0.5273-1.9956,1.2793-2.7346,2.2102
		c-0.4712,0.5933-0.7644,1.9285-1.287,2.2659c-1.4868,0.9597-3.0382,0.1709-4.3899,1.8848
		c-1.2233,1.551-1.0621,3.4453-1.1669,5.2935c-0.1614,2.8462-1.2979,5.1484-2.1423,7.7139
		c-0.6313,0.6665-0.8667,1.7502-0.7057,2.5896c0.006,0.0312,0.0114,0.0667,0.0172,0.0981
		c-0.4105,2.5515-0.0712,5.2559,1.3774,7.2312c0.5237,1.606,1.2938,3.0203,2.5261,3.8398c1.0977,0.73,2.2031,0.6094,3.423,0.8376
		c2.8344,0.5305,5.236,2.0493,7.9713,2.8313c4.0518,1.1582,7.1319-0.2788,10.8113-1.8269c3.4932-1.4698,6.4683-0.4051,9.6204-3.187
		c1.7867,1.2237,0.4195,4.6443-0.9229,5.7821c-2.5426,2.1552-5.3618,0.6292-7.9906,1.1845
		c-2.2735,0.4803-4.1884,2.7687-6.8168,3.1341c-5.8078,0.8074-5.1585,0.3239-4.9314,6.2414
		c0.1709,4.4539,2.1692,3.4135,5.5439,4.7719c2.4177,0.9732,4.1472,3.1722,6.618,4.0787c3.6625,1.3438,6.4422-1.0047,9.9497-0.3685
		c3.7263,0.676,5.2494-0.3926,7.8704-3.1804c3.02-3.2129,7.1816-6.6067,8.7423-10.8545
		C277.8407,64.18,273.037,57.1136,266.6714,60.358z"/>
	<g>
		<g>
			<g>
				<path class="st9" d="M381.6407,48.687c-7.0278-4.7007-13.1859-10.281-18.0851-17.2012
					c-0.2185,0.3808-0.437,0.7616-0.6555,1.1424c1.4145,0.0324,2.8291,0.0648,4.2436,0.0972
					c0.5545,0.0127,0.9837-0.667,0.659-1.1484c-3.3972-5.0372-7.8878-9.0753-13.2806-11.8795
					c-0.203,0.4816-0.406,0.9631-0.6091,1.4447c1.5263,0.2296,3.0526,0.4592,4.5789,0.6888
					c0.8122,0.1222,1.291-0.6885,0.7781-1.3367c-3.0203-3.8174-8.7522-9.2404-14.0314-8.8679
					c0.0726,0.5363,0.1452,1.0726,0.2178,1.609c0.7949-0.2213,1.516-0.6005,2.3064-0.8447c0.5445-0.1682,0.8592-0.9565,0.3622-1.372
					c-3.2984-2.7576-7.2953-5.6701-11.4413-6.9696c-3.5738-1.1202-7.3996-0.5025-11.0764-0.7528
					c0.0742,0.5487,0.1485,1.0975,0.2228,1.6462c1.6618-0.2391,3.0669-0.7637,4.4754-1.6619
					c0.5954-0.3797,0.5204-1.3462-0.2009-1.5368c-8.9491-2.3645-18.5712,1.0019-27.0662,3.6856
					c0.3165,0.4117,0.6331,0.8234,0.9496,1.2352c0.9433-1.3298,2.0079-2.5511,2.6976-4.0396c0.33-0.712-0.2094-1.3357-0.9495-1.2352
					c-7.0631,0.9591-13.763,5.8097-18.2413,11.1742c-2.1658,2.5944-3.6424,5.4395-4.1093,8.8118
					c-0.5435,3.9253,0.0286,7.9154-0.3138,11.8594c-0.6432,7.4077-1.4912,14.5763,3.0537,21.0084
					c4.5847,6.4884,11.6673,10.5326,18.6313,14.001c0.6815,0.3394,1.6776-0.4079,1.1487-1.1486
					c-1.166-1.6331-2.332-3.2661-3.498-4.8992c-0.4392,0.3389-0.8784,0.6778-1.3177,1.0167
					c3.7682,3.0958,7.9831,5.3709,12.6489,6.7919c0.5635,0.1716,1.2729-0.4286,1.0305-1.0305
					c-0.5145-1.2773-1.0289-2.5546-1.5434-3.8318c-0.3434,0.3433-0.6867,0.6867-1.03,1.03
					c5.8369,2.0222,11.8875,3.0417,18.0635,3.0599c0.6792,0.002,0.9803-0.7002,0.7216-1.2575
					c-0.6569-1.4155-1.3139-2.8311-1.9708-4.2466c-0.3144,0.409-0.6288,0.818-0.9433,1.227
					c5.6658,1.9639,11.5638,2.6512,17.5299,2.0431c0.6172-0.0629,1.029-0.6508,0.7104-1.2379
					c-0.8338-1.5364-1.6675-3.0727-2.5013-4.6091c-0.2355,0.4104-0.471,0.8207-0.7065,1.2311
					c4.4692-0.1578,8.8183-0.895,13.0949-2.2073c0.5634-0.1729,0.774-0.8868,0.3475-1.3163
					c-0.834-0.8402-1.6681-1.6803-2.5021-2.5205c-0.1842,0.4447-0.3684,0.8894-0.5526,1.334
					c4.5427,0.0294,8.8845-0.9071,13.0262-2.7698c0.6776-0.3047,0.3608-1.2023-0.1852-1.4169
					c-1.2231-0.4807-2.1039-1.3849-2.5648-2.6139c-0.2495,0.3275-0.499,0.6551-0.7485,0.9826
					c5.9683-0.2034,11.8706-0.9848,17.6756-2.3909c0.9572-0.2318,0.5518-1.6981-0.4065-1.4747
					c-5.6841,1.3251-11.4351,2.1118-17.2691,2.3131c-0.4628,0.016-0.9336,0.4895-0.7485,0.9826
					c0.6884,1.8334,1.8279,2.9812,3.6496,3.6963c-0.0617-0.4723-0.1235-0.9446-0.1852-1.4169
					c-3.8915,1.7522-7.9773,2.588-12.2436,2.5457c-0.6829-0.0068-1.0234,0.8565-0.5526,1.334
					c0.8311,0.843,1.6623,1.6861,2.4934,2.5291c0.1158-0.4388,0.2317-0.8776,0.3475-1.3163
					c-4.1418,1.2553-8.3503,1.9445-12.6762,2.0898c-0.6295,0.0211-1.0064,0.6761-0.7065,1.2311
					c0.8311,1.5379,1.6623,3.0758,2.4935,4.6136c0.2368-0.4126,0.4736-0.8253,0.7104-1.2379
					c-5.829,0.584-11.5506-0.0889-17.0858-2.0086c-0.7537-0.2614-1.2229,0.6242-0.9433,1.227
					c0.6567,1.4157,1.3134,2.8314,1.9701,4.247c0.2405-0.4192,0.4811-0.8383,0.7216-1.2575
					c-6.0343-0.0189-11.9185-1.0275-17.6183-3.0034c-0.5648-0.1958-1.2657,0.4445-1.03,1.03
					c0.5142,1.2774,1.0284,2.5547,1.5427,3.832c0.3435-0.3435,0.687-0.687,1.0305-1.0305
					c-4.3875-1.3372-8.3636-3.4499-11.9078-6.3628c-0.6739-0.5539-1.916,0.1783-1.3177,1.0167
					c1.1657,1.6332,2.3314,3.2665,3.4971,4.8997c0.3829-0.3829,0.7657-0.7657,1.1486-1.1486
					c-6.5547-3.2659-13.3441-7.0198-17.7725-13.0414c-4.4043-5.9888-3.8145-12.7236-3.1536-19.7111
					c0.6831-7.2223-1.0478-14.2355,4.0058-20.2891c4.3293-5.186,10.6743-9.8149,17.4992-10.7417
					c-0.3165-0.4117-0.633-0.8234-0.9495-1.2352c-0.6895,1.4879-1.7541,2.7094-2.6976,4.0396
					c-0.4269,0.6018,0.2805,1.4465,0.9496,1.2352c8.1882-2.5869,17.5475-5.9644,26.1721-3.6856
					c-0.067-0.5123-0.1339-1.0245-0.2008-1.5368c-1.3029,0.8308-2.5636,1.2784-4.0723,1.4977
					c-0.9836,0.1429-0.6623,1.5872,0.2228,1.6462c3.2876,0.2191,6.746-0.3343,9.9686,0.4881
					c4.0603,1.0363,8.2213,4.0792,11.3882,6.7191c0.1207-0.4573,0.2415-0.9147,0.3622-1.372
					c-0.7853,0.2439-1.5121,0.6261-2.3055,0.8481c-0.8625,0.2414-0.7289,1.6771,0.2177,1.609
					c4.8194-0.347,10.1217,4.8772,12.9005,8.3607c0.2594-0.4456,0.5187-0.8911,0.7781-1.3367
					c-1.528-0.2236-3.0559-0.4473-4.5839-0.6709c-0.8092-0.1184-1.4793,0.9966-0.6091,1.4447
					c5.1727,2.6634,9.4968,6.4653,12.7604,11.2848c0.2197-0.3828,0.4394-0.7656,0.659-1.1484
					c-1.4145-0.0297-2.8291-0.0595-4.2436-0.0892c-0.5407-0.0114-0.9932,0.6674-0.6555,1.1424
					c4.9923,7.0235,11.285,13.1841,18.7603,17.5226C381.7127,50.1856,382.3095,49.1344,381.6407,48.687L381.6407,48.687z"/>
			</g>
		</g>
		<g>
			<g>
				<path class="st9" d="M356.5111,41.8281c-11.3664-5.6226-24.0018-9.3058-36.4893-11.4137
					c-6.1137-1.032-12.3252-1.728-18.5273-1.8441c-3.2242-0.0604-6.45,0.0754-9.6503,0.4811
					c-2.7717,0.3514-5.9802,0.6927-8.4441,2.0771c-0.6438,0.3617-0.4001,1.5407,0.3963,1.4631
					c2.7863-0.2714,5.5074-1.2919,8.2957-1.7084c3.2597-0.4869,6.5714-0.6452,9.8645-0.6362
					c6.2267,0.0169,12.4738,0.6211,18.6181,1.6081c12.3849,1.9894,23.9575,5.8438,35.4485,10.8078
					C356.5805,42.9036,357.0789,42.1089,356.5111,41.8281L356.5111,41.8281z"/>
			</g>
		</g>
		<g>
			<g>
				<path class="st9" d="M317.6753,55.8736c-11.895-5.4504-18.4509-16.5842-25.0875-27.2384
					c-0.3464-0.5561-1.2024-0.0602-0.8803,0.5146c6.1427,10.9618,13.5437,22.5311,25.6495,27.4789
					C317.7867,56.8042,318.1003,56.0683,317.6753,55.8736L317.6753,55.8736z"/>
			</g>
		</g>
		<g>
			<g>
				<path class="st9" d="M307.0153,55.7533c-1.2922-2.0918-2.1795-4.3331-2.6933-6.7362c-0.1347-0.6299-1.1025-0.3636-0.9662,0.2664
					c0.5372,2.4826,1.5033,4.7914,2.8753,6.9282C306.5454,56.7012,307.3243,56.2535,307.0153,55.7533L307.0153,55.7533z"/>
			</g>
		</g>
		<g>
			<g>
				<path class="st9" d="M344.3911,49.8733c-7.6389-4.5649-14.2566-9.9488-19.7896-16.9572
					c-0.4058-0.514-1.3158,0.1778-0.9156,0.7065c5.3202,7.0301,12.2573,13.199,20.2233,17.0754
					C344.4563,50.9643,344.9251,50.1925,344.3911,49.8733L344.3911,49.8733z"/>
			</g>
		</g>
		<g>
			<g>
				<path class="st9" d="M338.7243,53.3868c-2.9862-3.2836-5.2173-7.0336-6.7319-11.2032
					c-0.2276-0.6266-1.2282-0.3672-1.0114,0.2788c1.4727,4.3874,3.8512,8.2761,7.043,11.6245
					C338.4661,54.5506,339.1516,53.8566,338.7243,53.3868L338.7243,53.3868z"/>
			</g>
		</g>
		<g>
			<g>
				<path class="st9" d="M318.7913,13.3731c-8.8755,1.537-17.6576,6.667-23.0449,13.9514
					c-0.4107,0.5554,0.4992,1.2517,0.9571,0.7385c6.1649-6.9101,13.2785-11.5769,22.3121-13.8762
					C319.5502,14.0506,319.3172,13.282,318.7913,13.3731L318.7913,13.3731z"/>
			</g>
		</g>
		<g>
			<g>
				<path class="st9" d="M342.3089,22.1458c-7.6457-1.0217-16.2709,2.9922-22.1078,7.6721
					c-0.4951,0.397,0.1559,1.2441,0.6816,0.8834c6.0874-4.176,13.8022-8.3337,21.4261-7.6474
					C342.9,23.1072,342.8728,22.2212,342.3089,22.1458L342.3089,22.1458z"/>
			</g>
		</g>
	</g>
	<g>
		<g>
			<g>
				<path class="st9" d="M239.6709,26.3133c-2.7081-0.7115-6.2565-0.866-8.5392,1.05c-1.7932,1.5052-2.4765,3.7942-1.4392,5.9137
					c0.2508-0.3262,0.5016-0.6524,0.7523-0.9787c-4.958-0.816-8.6573,3.5035-6.9828,8.2805
					c0.2592-0.3403,0.5185-0.6806,0.7777-1.0209c-5.9246,0.4291-3.8649,7.5355-3.8116,11.2737
					c0.0317,2.2254-0.4103,4.7451,1.3531,6.4642c1.1959,1.1658,2.8389,1.5299,4.2638,0.6c-0.4267-0.328-0.8533-0.656-1.28-0.984
					c-0.5354,1.8985,0.1646,3.6742,1.7549,4.8499c2.3508,1.7379,5.1206,0.2926,7.4038,1.9983
					c3.3501,2.5027,7.7778,3.0165,11.5959,1.2078c0.8815-0.4176,1.5526-1.0473,2.3669-1.5403
					c1.1202-0.6783,1.803-0.307,3.1432-0.3336c2.0952-0.0415,4.2454-0.7078,5.8393-2.1032
					c2.8466-2.4922,3.3397-7.3524,0.3514-9.9208c-0.8091-0.6954-1.9534,0.408-1.185,1.185
					c3.1476,3.1827,0.7978,7.8296-3.1212,8.8394c-1.2839,0.3308-2.494,0.2656-3.7924,0.1028
					c-0.3743-0.0469-0.7761-0.2745-1.1597-0.1575c-1.0777,0.3287-1.9563,1.7335-3.0332,2.272
					c-3.2381,1.6193-7.0012,1.2111-9.8841-0.8972c-0.9964-0.7287-1.7901-1.416-3.0657-1.5111
					c-0.7561-0.0563-1.4943,0.2064-2.2437,0.1839c-1.9507-0.0587-3.8882-1.5884-3.2898-3.7123
					c0.199-0.7062-0.6334-1.4062-1.28-0.984c-0.8263,0.5395-2.1118-0.1027-2.5741-0.825c-0.5491-0.858-0.475-2.034-0.4626-3.0121
					c0.0167-1.3063,0.0397-2.5486-0.1346-3.8493c-0.3464-2.5853-1.2701-7.0348,2.4598-7.5624
					c0.3969-0.0561,0.7151-0.6262,0.5633-0.9921c-1.4798-3.5675,1.1128-7.1809,5.0732-6.5669
					c0.577,0.0895,1.0284-0.4277,0.7523-0.9787c-1.2622-2.5193,1.1042-4.7748,3.3947-5.3287
					c1.7262-0.4174,3.563-0.0604,5.3125-0.0705C240.0576,27.2023,240.1728,26.4451,239.6709,26.3133L239.6709,26.3133z"/>
			</g>
		</g>
		<g>
			<g>
				<path class="st9" d="M226.1709,45.3634c-4.7627,4.292,0.2842,11.3522,5.9722,9.4003c-0.2843-0.3698-0.5685-0.7395-0.8528-1.1093
					c-1.4455,2.902,1.0468,6.8472,4.4314,5.959c0.7529-0.1976,0.6184-1.422-0.1869-1.3811
					c-1.9486,0.0989-3.9726-1.7116-2.9404-3.8156c0.2658-0.5418-0.1829-1.3437-0.8528-1.1093
					c-4.8068,1.6821-7.5114-3.595-4.6965-7.2694C227.4459,45.5148,226.6159,44.9623,226.1709,45.3634L226.1709,45.3634z"/>
			</g>
		</g>
		<g>
			<g>
				<path class="st9" d="M232.1935,36.5566c-4.1978,2.2614-4.3488,8.73,0.3785,10.5476c0.7004,0.2693,1.0222-0.7625,0.4808-1.1406
					c-3.0801-2.1511-3.7468-6.2006-0.3566-8.5469C233.2186,37.0552,232.765,36.2487,232.1935,36.5566L232.1935,36.5566z"/>
			</g>
		</g>
		<g>
			<g>
				<path class="st9" d="M236.8868,49.0331c-4.6841,2.8338-0.6302,9.3586,4.1852,7.3091c-0.3513-0.3514-0.7027-0.7027-1.0541-1.0541
					c-1.5934,3.5998,1.9476,7.5356,5.5981,5.3561c0.6532-0.39,0.2164-1.5944-0.5395-1.2798
					c-2.23,0.9283-4.9139-0.6322-3.7282-3.2986c0.3252-0.7313-0.3289-1.3657-1.0541-1.0541
					c-1.5179,0.6524-3.3517-0.0004-3.8165-1.6483c-0.3758-1.3322,0.1863-2.4371,1.1901-3.3181
					C238.2218,49.5593,237.5069,48.658,236.8868,49.0331L236.8868,49.0331z"/>
			</g>
		</g>
		<g>
			<g>
				<path class="st9" d="M244.0699,52.6546c-0.0475,4.8514,6.8639,6.8337,8.8675,2.1344c0.3366-0.7895-0.6904-1.4491-1.1788-0.6891
					c-1.8531,2.8838-6.1664,2.2356-6.3938-1.4454C245.3138,51.8294,244.0781,51.8137,244.0699,52.6546L244.0699,52.6546z"/>
			</g>
		</g>
		<g>
			<g>
				<path class="st9" d="M237.7652,30.1078c-5.6307,1.6336-4.0291,9.4398,1.6383,9.3967c-0.1252-0.4622-0.2504-0.9245-0.3756-1.3867
					c-3.0001,1.3951-3.7722,5.8188-1.116,7.9516c0.7119,0.5717,1.7139-0.3597,1.0275-1.0275
					c-1.7492-1.7018-1.4378-4.564,0.8397-5.6389c0.6843-0.323,0.3277-1.3961-0.3756-1.3867
					c-4.382,0.0584-4.9528-5.2361-1.2207-6.9178C238.7483,30.8436,238.3451,29.9395,237.7652,30.1078L237.7652,30.1078z"/>
			</g>
		</g>
		<g>
			<g>
				<path class="st9" d="M244.7244,44.1601c0.7777,2.9767,3.856,4.7157,6.8269,4.1209c0.8454-0.1693,0.4793-1.4251-0.3536-1.2826
					c-2.2918,0.3923-4.596-0.9818-5.4789-3.1125C245.4724,43.2913,244.5513,43.4976,244.7244,44.1601L244.7244,44.1601z"/>
			</g>
		</g>
		<g>
			<g>
				<path class="st9" d="M248.4931,29.7672c-1.7355-3.0004-4.5557-4.7938-7.9758-5.2781c-0.562-0.0796-0.9856,0.5108-0.5679,0.9755
					c2.6685,2.9682,4.6326,6.2622,5.864,10.0636c0.2795-0.2795,0.5589-0.5589,0.8384-0.8384
					c-1.7697-0.5738-3.5387-1.1496-5.3104-1.7174c-0.7867-0.2521-1.1795,0.8585-0.5404,1.2818
					c3.308,2.1909,6.6159,4.3818,9.9239,6.5728c-0.048-0.3727-0.0961-0.7454-0.1441-1.1181
					c-1.0801,0.8623-2.1965,1.6893-3.1933,2.6474c-0.5141,0.4941,0.1599,1.4088,0.774,1.0031
					c1.2047-0.7959,2.3-1.7412,3.4262-2.6437c0.3796-0.3042,0.2-0.8911-0.1441-1.1181c-3.3115-2.1848-6.623-4.3696-9.9346-6.5544
					c-0.1801,0.4273-0.3603,0.8545-0.5404,1.2818c1.7722,0.5645,3.5469,1.1209,5.3209,1.6793
					c0.4808,0.1513,1.002-0.3506,0.8384-0.8384c-1.3292-3.9629-3.431-7.5307-6.353-10.5267
					c-0.1376,0.3321-0.2751,0.6642-0.4127,0.9963c3.1031,0.2853,5.6623,2.0019,7.3366,4.596
					C248.0182,30.7264,248.7917,30.2834,248.4931,29.7672L248.4931,29.7672z"/>
			</g>
		</g>
		<g>
			<g>
				<path class="st9" d="M248.2825,44.4221c1.526-0.9392,3.6482-0.8612,4.9234,0.4977c1.3027,1.3882,1.1798,3.3896,0.2152,4.9031
					c-0.495,0.7766,0.6767,1.3971,1.2041,0.7038c1.4531-1.9103,1.2389-4.8778-0.4348-6.5915
					c-1.7086-1.7494-4.5456-1.9244-6.5379-0.5908C246.9911,43.7873,247.5918,44.8472,248.2825,44.4221L248.2825,44.4221z"/>
			</g>
		</g>
		<g>
			<g>
				<path class="st9" d="M254.3053,37.7831c4.7464-1.4538,9.4622-2.7242,14.3793-3.4638c2.5536-0.3841,5.1227-0.6611,7.6955-0.8794
					c2.3533-0.1998,4.8252-0.0887,7.14-0.5225c0.9569-0.1793,0.6604-1.5623-0.2189-1.6171
					c-2.5232-0.1572-5.2749,0.356-7.7971,0.6193c-2.4138,0.252-4.8236,0.5578-7.2185,0.9523
					c-4.8806,0.8042-9.8572,1.9125-14.3234,4.0972C253.5077,37.1915,253.8261,37.9299,254.3053,37.7831L254.3053,37.7831z"/>
			</g>
		</g>
		<g>
			<g>
				<path class="st9" d="M267.948,50.6857c2.6677-2.9832,4.9525-6.2585,7.4746-9.3601c1.1382-1.3997,2.3218-2.7722,3.6216-4.0254
					c1.5348-1.4799,3.4522-2.5092,4.9251-4.0177c0.5432-0.5564,0.0018-1.5665-0.7753-1.3319
					c-3.5583,1.0743-6.6928,4.8839-8.8947,7.7063c-2.5899,3.3196-4.8153,6.9019-7.2761,10.3153
					C266.6328,50.5135,267.5046,51.1815,267.948,50.6857L267.948,50.6857z"/>
			</g>
		</g>
		<g>
			<g>
				<path class="st9" d="M249.5423,32.364c1.1888-1.2515,2.2155-2.6011,3.0792-4.0975c-0.3281,0-0.6562,0-0.9843,0
					c1.4961,2.5402,1.4077,4.964,0.7561,7.7398c-0.1333,0.5679,0.6941,0.9769,0.9799,0.4131
					c1.3915-2.7448,0.8018-6.1878-0.7517-8.7283c-0.2183-0.3569-0.772-0.3821-0.9843,0c-0.7963,1.4331-1.6878,2.7669-2.7412,4.0265
					C248.5246,32.1618,249.1308,32.7973,249.5423,32.364L249.5423,32.364z"/>
			</g>
		</g>
		<g>
			<g>
				<path class="st9" d="M254.7207,41.6289c1.857,1.4104,2.18,3.4973,2.1663,5.6463c-0.0043,0.6796,0.9458,0.7707,1.1509,0.1558
					c0.8505-2.549-0.8068-5.2359-2.8647-6.5762C254.6781,40.5324,254.2743,41.2898,254.7207,41.6289L254.7207,41.6289z"/>
			</g>
		</g>
		<g>
			<g>
				<path class="st9" d="M261.6121,46.0389c0.8718-0.6007,1.5311-1.2524,2.2723-2.0179c-0.3882-0.1608-0.7764-0.3216-1.1646-0.4824
					c0.1216,1.965,0.2008,3.9245,0.2044,5.8936c0.0009,0.4687,0.4441,0.7742,0.8836,0.6731
					c3.3535-0.7716,6.5859-0.4742,9.7623,0.8297c-0.0562-0.4302-0.1125-0.8604-0.1687-1.2906
					c-1.6463,1.1408-3.3387,2.0322-5.2296,2.7175c-0.7466,0.2706-0.6368,1.3557,0.189,1.3963
					c4.5531,0.224,8.5241,2.9714,10.2801,7.1955c0.2953-0.2954,0.5907-0.5907,0.8861-0.8861
					c-3.7942-1.3769-7.7255-1.8924-11.7417-1.3996c-0.8831,0.1084-0.9139,1.5002,0,1.4121
					c3.9188-0.3779,7.649,0.0285,11.3587,1.3767c0.4821,0.1752,1.0928-0.3882,0.8861-0.8861
					c-2.0065-4.833-6.4287-7.9846-11.6693-8.2342c0.063,0.4654,0.126,0.9309,0.189,1.3963c1.9947-0.7264,3.8183-1.6551,5.5644-2.869
					c0.5307-0.3689,0.4004-1.058-0.1687-1.2906c-3.4188-1.3973-6.9153-1.6469-10.5088-0.8142
					c0.2945,0.2244,0.5891,0.4487,0.8836,0.6731c-0.0067-1.9696-0.0739-3.9303-0.236-5.8936
					c-0.0456-0.5522-0.7331-0.9469-1.1646-0.4824c-0.7268,0.7822-1.3539,1.4765-1.9088,2.3815
					C260.7895,45.7988,261.2437,46.2928,261.6121,46.0389L261.6121,46.0389z"/>
			</g>
		</g>
		<g>
			<g>
				<path class="st9" d="M265.5467,59.1378c-0.61,1.8456-1.6751,3.4001-3.2528,4.5498c0.3299,0.2536,0.6597,0.5071,0.9896,0.7607
					c0.5912-2.7346,0.5196-5.8812-0.8405-8.3905c-0.331-0.6107-1.3112-0.1947-1.1191,0.4718
					c0.7445,2.5831,1.209,4.8715,0.6605,7.5605c-0.1039,0.5097,0.4771,1.1439,0.9896,0.7607
					c1.8407-1.3762,3.1255-3.1634,3.6915-5.4047C266.8492,58.7182,265.7801,58.4316,265.5467,59.1378L265.5467,59.1378z"/>
			</g>
		</g>
		<g>
			<g>
				<path class="st9" d="M236.8885,67.7231c-1.9905,2.6562-0.1329,6.3476,2.8365,7.2057c-0.1185-0.2912-0.237-0.5824-0.3554-0.8737
					c-1.0525,1.5057-0.882,3.4241,0.3199,4.8167c1.6209,1.8779,4.2732,1.7869,6.4588,1.1667
					c-0.2449-0.1391-0.4899-0.2781-0.7348-0.4172c1.6566,4.2311,6.1894,5.9542,10.3897,4.6693
					c1.8428-0.5637,3.7343,0.4475,5.7652-0.0535c2.2155-0.5466,4.2397-2.0054,5.2993-4.0443
					c0.6831-1.3146,0.6422-0.9724,2.045-1.4454c1.0171-0.3429,1.9329-0.9606,2.6848-1.7183
					c0.759-0.7648,1.3606-1.6893,1.7254-2.7059c0.2781-0.7751,0.0785-2.3799,0.4224-2.9313c0.3722-0.5967,1.6028-1.1477,2.109-1.775
					c0.7188-0.8908,1.2001-1.9528,1.4508-3.0662c0.4738-2.1042,0.0548-4.2292-1.3227-5.8914
					c-0.4473-0.5398-1.3711,0.1698-0.9755,0.7527c2.1259,3.132,1.2186,7.4475-2.376,9.0366
					c-0.2763,0.1222-0.3349,0.463-0.2939,0.7222c0.5361,3.3818-2.0865,6.5093-5.4809,6.6641
					c-0.2753,0.0126-0.5242,0.1845-0.5997,0.4566c-0.6071,2.1886-2.2522,3.8923-4.4243,4.6025
					c-1.0309,0.337-2.1959,0.4879-3.2719,0.2841c-0.6451-0.1222-1.3122-0.6458-1.9579-0.5994
					c-0.6231,0.0448-1.3173,0.6581-1.9477,0.8208c-1.0228,0.2639-2.127,0.2529-3.1541,0.017
					c-2.229-0.5118-4.0936-1.9659-4.9353-4.1127c-0.1171-0.2986-0.3971-0.5132-0.7348-0.4172
					c-1.4891,0.4233-2.9286,0.6313-4.3106-0.1934c-1.4978-0.8938-2.2249-2.4605-1.1235-4.0376
					c0.2301-0.3295-0.0166-0.7654-0.3554-0.8736c-2.5199-0.8051-3.2393-3.4455-2.4084-5.7449
					C237.8025,67.5671,237.1423,67.3844,236.8885,67.7231L236.8885,67.7231z"/>
			</g>
		</g>
		<g>
			<g>
				<path class="st9" d="M241.8709,69.2883c-1.789,1.5848-1.1107,4.7393,0.9648,5.7826c0.5679,0.2855,1.052,0.2925,1.6631,0.3036
					c0.6738,0.0122,1.7047-0.136,2.2966,0.1942c0.385,0.2148,0.6142,0.8739,0.8458,1.2468
					c0.7417,1.1941,1.7853,2.2957,3.2965,1.7601c0.7517-0.2664,0.444-1.4556-0.3333-1.2091
					c-1.3621,0.432-2.0728-1.8323-2.7615-2.5585c-0.5077-0.5354-1.0995-0.8306-1.8447-0.8647
					c-1.1858-0.0543-2.2728,0.486-3.2234-0.5218c-0.873-0.9254-1.0069-2.4384-0.2118-3.4414
					C242.9483,69.494,242.3525,68.8617,241.8709,69.2883L241.8709,69.2883z"/>
			</g>
		</g>
		<g>
			<g>
				<path class="st9" d="M248.2855,66.5813c-0.8597,2.832,0.5883,5.8013,3.2965,6.9359c0.5948,0.2492,1.0354-0.7831,0.4425-1.0495
					c-2.1537-0.9678-3.4094-3.3127-2.8406-5.6388C249.3264,66.2459,248.4598,66.0071,248.2855,66.5813L248.2855,66.5813z"/>
			</g>
		</g>
		<g>
			<g>
				<path class="st9" d="M254.8863,71.2176c-2.1288,0.6619-2.4738,3.2927-1.4772,5.0532c1.42,2.5081,4.9743,2.585,7.4625,2.1457
					c0.6322-0.1116,0.4446-1.0498-0.1457-1.0761c-1.8339-0.0817-4.2549,0.253-5.7139-1.1572
					c-0.9649-0.9326-1.3373-3.2147,0.192-3.8129C255.9036,72.0967,255.6365,70.9844,254.8863,71.2176L254.8863,71.2176z"/>
			</g>
		</g>
		<g>
			<g>
				<path class="st9" d="M259.2799,73.1744c1.7276,2.5381,5.3233,3.2568,7.8749,1.523c0.6326-0.4298,0.0581-1.449-0.6063-1.0372
					c-2.1507,1.333-4.8407,0.8018-6.4128-1.1462C259.7494,72.0353,258.9326,72.664,259.2799,73.1744L259.2799,73.1744z"/>
			</g>
		</g>
		<g>
			<g>
				<path class="st9" d="M254.0451,65.0957c-0.8004,1.6774-0.3772,3.7611,1.2906,4.7572c1.5514,0.9265,4.015,0.5132,4.9117-1.1451
					c0.324-0.5992-0.4334-1.1796-0.9341-0.7207c-0.9241,0.847-2.108,1.4496-3.3393,0.7738
					c-1.139-0.6252-1.5428-2.1587-1.1311-3.3288C255.0056,64.97,254.2588,64.648,254.0451,65.0957L254.0451,65.0957z"/>
			</g>
		</g>
		<g>
			<g>
				<path class="st9" d="M264.3104,66.5705c0.6435,2.6626,4.509,3.5775,6.2451,1.4316c0.412-0.5092-0.3125-1.2392-0.7251-0.7251
					c-1.2733,1.587-4.1445,1.0611-4.6895-0.9355C264.9949,65.8062,264.1801,66.0314,264.3104,66.5705L264.3104,66.5705z"/>
			</g>
		</g>
	</g>
</g>
</svg>
