<?xml version="1.0" encoding="utf-8"?>
<!-- Generator: Adobe Illustrator 20.1.0, SVG Export Plug-In . SVG Version: 6.00 Build 0)  -->
<svg version="1.1" xmlns="http://www.w3.org/2000/svg" xmlns:xlink="http://www.w3.org/1999/xlink" x="0px" y="0px"
	 viewBox="0 0 47 56" style="enable-background:new 0 0 47 56;" xml:space="preserve">
<style type="text/css">
	.st0{fill:none;stroke:#F7FAFC;stroke-width:39.9968;stroke-linecap:round;stroke-linejoin:round;}
	.st1{fill:none;stroke:#F2F6F9;stroke-width:39.9968;stroke-linecap:round;stroke-linejoin:round;}
	.st2{fill:#F7FAFC;}
	.st3{fill:#F2F6F9;}
	.st4{fill:#FFFFFF;}
	.st5{fill:#FCE0DE;}
	.st6{fill:#E6E6E6;}
	.st7{fill:#FFEFAF;}
	.st8{fill:#E93A1D;}
	.st9{fill:#303030;}
	.st10{fill:#E83D25;}
	.st11{fill:#B3B3B3;}
	.st12{fill:#666666;}
	.st13{fill:none;stroke:#E93A1D;stroke-width:1.5;stroke-linecap:round;stroke-linejoin:round;}
	.st14{fill:none;stroke:#E93A1D;stroke-width:1.5;stroke-linecap:round;stroke-linejoin:round;stroke-dasharray:2.0259,5.0648;}
	.st15{fill:none;stroke:#E93A1D;stroke-width:1.5;stroke-linecap:round;stroke-linejoin:round;stroke-dasharray:1.8929,4.7321;}
	.st16{fill:#777777;}
	.st17{fill:#172DF8;}
	.st18{fill:none;stroke:#E93A1D;stroke-width:1.5;stroke-linecap:round;stroke-linejoin:round;stroke-dasharray:1.9198,4.7994;}
	.st19{fill:none;stroke:#E93A1D;stroke-width:1.5;stroke-linecap:round;stroke-linejoin:round;stroke-dasharray:1.9197,4.7993;}
</style>
<g id="back">
</g>
<g id="Layer_2">
	<path class="st8" d="M28.5285,11.4733c-1.1505-0.7182-3.9378,0.8171-4.5442,1.8137c-0.9904-0.2833-2.1423-0.5069-3.209-0.7672
		C18.9767,12.0809,8.1485,7.1668,7.106,10.0044c-0.9722,2.6484,3.3339,3.0213,4.7617,3.5256
		c2.637,0.9342,5.3296,1.9564,7.7771,3.3206c1.3033,0.7265,3.2643,1.4662,4.174,2.6628c1.2421-0.7203,2.4326-1.6994,3.0711-2.9968
		c0.0467-0.0949,0.0613-0.1395,0.0901-0.2063c0.0788-0.0456,0.1877-0.1223,0.3406-0.2469c1.0101-0.8228,2.6506-3.256,1.357-4.4753
		C28.6317,11.5449,28.5819,11.5067,28.5285,11.4733z"/>
	<path class="st7" d="M34.6194,32.9421c0.2718-1.3026-0.4695-2.9107-0.7441-4.162c-0.3123-1.4226-0.538-2.6969-0.4631-4.22
		c0.1098-2.2355,0.6464-5.3879-0.158-7.5283c-0.5928-1.5773-2.5033-3.1932-4.1058-2.2846
		c-0.9915,0.5622-1.9204,1.7823-2.8036,2.5336c-1.6343,1.3904-2.4165,2.9826-4.4541,1.0526
		c-1.7386-1.6468-3.4408-2.3165-5.6446-3.3353c-2.2837-1.0558-4.2654-2.4013-6.817-2.8259
		c-1.2986-0.2161-2.5229,0.2013-3.7492,0.6537c-0.9658,0.3563-0.9668,0.3227-1.6697,0.9991
		c-1.4827,1.4268-2.0532,4.7241-1.713,6.6473c0.3949,2.2322,2.3722,6.4918,4.8594,7.019c1.8988,0.4023,3.6525-0.4209,5.4498-0.8712
		c1.702-0.4264,1.8734-0.7835,2.8942-2.2976c1.1397-1.6904,3.4234-2.5867,5.288-3.2781c1.9284-0.715,4.6535-0.6784,6.4837,0.3798
		c1.7851,1.0321,2.3256,3.4344,2.782,5.3317c0.5064,2.1053,0.5149,4.6828,2.0849,6.3688
		C33.2475,34.315,34.2588,34.6705,34.6194,32.9421z"/>
	<g>
		<g>
			<g>
				<path class="st9" d="M29.1318,25.0142c-0.3068,5.2977-0.4798,10.6033-0.6837,15.9057
					c-0.1755,4.5634,0.1496,11.3633-5.3057,13.0176c-4.2215,1.2802-8.8346-1.1-11.1039-4.6592
					c-2.6233-4.1144-2.8247-9.2369-2.9325-13.9669c-0.0174-0.7632-1.1531-0.7606-1.1836,0
					c-0.2186,5.45,0.2692,11.4992,3.8073,15.9312c2.4565,3.0772,6.6739,4.912,10.6075,4.2787
					c4.6857-0.7544,6.7118-4.8128,7.1822-9.1677c0.7574-7.0119,0.6126-14.2907,0.7023-21.3393
					C30.2306,24.3083,29.1721,24.3184,29.1318,25.0142L29.1318,25.0142z"/>
			</g>
		</g>
		<g>
			<g>
				<path class="st9" d="M7.4501,28.7368c3.7472-0.347,7.8669-2.4099,10.461-5.114c0.4356-0.4541-0.1571-1.3214-0.703-0.9111
					c-1.5179,1.141-2.9703,2.3032-4.6961,3.1242c-1.7174,0.817-3.5967,1.1847-5.3104,1.9836
					C6.7672,28.0222,6.972,28.7811,7.4501,28.7368L7.4501,28.7368z"/>
			</g>
		</g>
		<g>
			<g>
				<path class="st9" d="M6.9058,11.1016c-3.7202,0.834-6.477,4.6169-6.5721,8.4087c-0.0988,3.94,3.4197,7.7338,6.8148,9.2503
					c0.6879,0.3073,1.2768-0.6246,0.6033-1.0321c-2.6325-1.5929-5.5122-4.1363-5.9743-7.3557
					c-0.492-3.4278,2.1283-7.3367,5.3775-8.3672C7.7306,11.8231,7.4955,10.9694,6.9058,11.1016L6.9058,11.1016z"/>
			</g>
		</g>
		<g>
			<g>
				<path class="st9" d="M6.4636,31.2723c-2.8606,2.2246-2.3873,7.1571,0.7565,8.8802c0.6731,0.3689,1.2114-0.589,0.5944-1.0169
					c-2.364-1.6398-2.5955-5.0889-0.5761-7.0885C7.7546,31.5359,7.0037,30.8523,6.4636,31.2723L6.4636,31.2723z"/>
			</g>
		</g>
		<g>
			<g>
				<path class="st9" d="M13.8168,36.451c1.5773-0.2871,3.0799-0.1858,4.6651-0.1555c0.5866,0.0112,0.727-0.9025,0.1402-1.0359
					c-1.6498-0.3749-3.4348-0.122-5.0436,0.3269C13.0149,35.7438,13.2567,36.553,13.8168,36.451L13.8168,36.451z"/>
			</g>
		</g>
		<g>
			<g>
				<path class="st9" d="M18.0446,49.0021c1.5085,0.8865,3.3718,0.7507,4.685-0.4187c0.5786-0.5153-0.2595-1.3208-0.8411-0.8411
					c-0.9301,0.7671-2.236,0.8756-3.2969,0.3238C17.975,47.7454,17.4396,48.6466,18.0446,49.0021L18.0446,49.0021z"/>
			</g>
		</g>
		<g>
			<g>
				<path class="st9" d="M23.0712,36.3203c1.3012,0.2045,2.6249,0.3551,3.9314,0.5302c0.7323,0.0982,0.7901-1.0102,0.1659-1.2258
					c-1.2573-0.4341-2.7974-0.5462-4.0973-0.248C22.6228,35.4796,22.5866,36.2442,23.0712,36.3203L23.0712,36.3203z"/>
			</g>
		</g>
		<g>
			<g>
				<path class="st9" d="M13.2631,28.6655c1.7757-0.6301,3.5619-0.7852,5.428-0.5666c0.5876,0.0688,0.7209-0.9209,0.1402-1.0359
					c-2.0411-0.4039-4.0399-0.1054-5.9045,0.8046C12.4865,28.0826,12.7955,28.8315,13.2631,28.6655L13.2631,28.6655z"/>
			</g>
		</g>
		<g>
			<g>
				<path class="st9" d="M23.2099,28.4089c1.534-0.5316,2.9572-0.5053,4.4187,0.2504c0.6566,0.3395,1.2047-0.5925,0.5796-0.9916
					c-1.5951-1.0186-3.7274-1.1141-5.3843-0.1744C22.3412,27.767,22.6629,28.5985,23.2099,28.4089L23.2099,28.4089z"/>
			</g>
		</g>
		<g>
			<g>
				<path class="st9" d="M19.4465,42.1251c0.4694,0.2137,0.9388,0.4274,1.4082,0.6411c0.2381,0.1084,0.4408,0.0788,0.6412-0.0827
					c0.1861-0.1499,0.3575-0.3098,0.5234-0.4819c0.4793-0.4973-0.2225-1.1401-0.7375-0.7375
					c-0.1885,0.1473-0.3656,0.3012-0.5342,0.4711c0.1716-0.0454,0.3432-0.0907,0.5148-0.1361
					c-0.4932-0.1573-0.9864-0.3145-1.4795-0.4718C19.3204,41.1798,18.9912,41.9178,19.4465,42.1251L19.4465,42.1251z"/>
			</g>
		</g>
		<g>
			<g>
				<path class="st9" d="M6.039,12.5113c6.1926,1.5007,11.929,4.1843,17.0387,7.9291c0.617,0.4522,1.2204-0.4885,0.774-1.0031
					c-1.9607-2.2597-4.8872-3.6594-7.5939-4.8107c-3.1787-1.352-6.6187-2.8222-10.095-3.0303
					C5.6377,11.5649,5.5311,12.3882,6.039,12.5113L6.039,12.5113z"/>
			</g>
		</g>
		<g>
			<g>
				<path class="st9" d="M24.1147,20.9203c1.1795-0.5995,2.0703-1.9632,2.9845-2.9085c1.0429-1.0785,2.1177-2.1256,3.1669-3.1979
					c0.5962-0.6093-0.2983-1.4827-0.9281-0.9281c-1.1841,1.0429-2.2922,2.1609-3.3743,3.3087
					c-0.8924,0.9467-2.1044,1.9433-2.5463,3.1898C23.2695,20.802,23.7738,21.0936,24.1147,20.9203L24.1147,20.9203z"/>
			</g>
		</g>
		<g>
			<g>
				<path class="st9" d="M29.7083,13.3653c-1.276-3.8005-2.8937-8.6421-5.7517-11.5555c-0.5446-0.5552-1.2917,0.2542-0.8328,0.8328
					c2.6193,3.3028,3.7054,7.4319,5.6742,11.1065C29.0611,14.2401,29.8897,13.9055,29.7083,13.3653L29.7083,13.3653z"/>
			</g>
		</g>
		<g>
			<g>
				<path class="st9" d="M23.9356,15.0591c0.3288-4.4776-0.3032-9.2051-0.6811-13.6702c-0.0647-0.7644-1.2527-0.7822-1.207,0
					c0.2653,4.5412,0.2108,9.3073,0.9904,13.7917C23.1311,15.717,23.9002,15.5419,23.9356,15.0591L23.9356,15.0591z"/>
			</g>
		</g>
		<g>
			<g>
				<path class="st9" d="M21.3975,0.7175C17.271,0.5549,12.9469,1.6548,9.3487,3.6607C8.783,3.976,9.1753,5.0011,9.8025,4.737
					c3.8331-1.614,7.4475-2.4803,11.595-2.8594C22.1319,1.8105,22.1549,0.7473,21.3975,0.7175L21.3975,0.7175z"/>
			</g>
		</g>
		<g>
			<g>
				<path class="st9" d="M9.4787,4.052c-1.4925,2.0025-2.4165,4.365-2.804,6.8253c-0.116,0.7365,0.9858,1.072,1.1413,0.3146
					c0.4875-2.3734,1.3572-4.5167,2.5532-6.6194C10.7056,3.9809,9.866,3.5323,9.4787,4.052L9.4787,4.052z"/>
			</g>
		</g>
		<g>
			<g>
				<path class="st9" d="M35.1589,41.3477c-2.8714-2.1114,0.7626-6.2114,0.4292-8.8669c-0.1418-1.1295-0.7313-1.8591-1.3204-2.7924
					c-1.2713-2.0143-1.0892-3.7056-0.4255-5.9186c1.1807-3.9368,0.8903-9.5267-4.0573-10.6767
					c-0.7278-0.1692-1.2824,0.9259-0.535,1.2691c3.5089,1.6111,4.4734,4.7178,3.5518,8.2988
					c-0.5955,2.3137-1.4942,4.5114-0.2308,6.7769c1.0178,1.825,1.9833,2.8624,1.4983,5.1882
					c-0.2495,1.1968-0.9192,2.2593-1.0849,3.4891c-0.2237,1.6611,0.1531,3.2347,1.6866,4.0675
					C35.2296,42.4859,35.6512,41.7097,35.1589,41.3477L35.1589,41.3477z"/>
			</g>
		</g>
		<g>
			<g>
				<path class="st9" d="M25.0636,19.2828c0.6577,2.1928,2.3896,4.0943,4.4108,5.1232c0.6722,0.3422,1.2267-0.6,0.5915-1.0119
					c-1.8083-1.1725-3.0139-2.6465-4.0598-4.5086C25.722,18.3799,24.8943,18.7183,25.0636,19.2828L25.0636,19.2828z"/>
			</g>
		</g>
	</g>
</g>
</svg>
