<?xml version="1.0" encoding="utf-8"?>
<!-- Generator: Adobe Illustrator 20.1.0, SVG Export Plug-In . SVG Version: 6.00 Build 0)  -->
<svg version="1.1" xmlns="http://www.w3.org/2000/svg" xmlns:xlink="http://www.w3.org/1999/xlink" x="0px" y="0px"
	 viewBox="0 0 44 64" style="enable-background:new 0 0 44 64;" xml:space="preserve">
<style type="text/css">
	.st0{fill:none;stroke:#F7FAFC;stroke-width:39.9968;stroke-linecap:round;stroke-linejoin:round;}
	.st1{fill:none;stroke:#F2F6F9;stroke-width:39.9968;stroke-linecap:round;stroke-linejoin:round;}
	.st2{fill:#F7FAFC;}
	.st3{fill:#F2F6F9;}
	.st4{fill:#FFFFFF;}
	.st5{fill:#FCE0DE;}
	.st6{fill:#E6E6E6;}
	.st7{fill:#FFEFAF;}
	.st8{fill:#E93A1D;}
	.st9{fill:#303030;}
	.st10{fill:#E83D25;}
	.st11{fill:#B3B3B3;}
	.st12{fill:#666666;}
	.st13{fill:none;stroke:#E93A1D;stroke-width:1.5;stroke-linecap:round;stroke-linejoin:round;}
	.st14{fill:none;stroke:#E93A1D;stroke-width:1.5;stroke-linecap:round;stroke-linejoin:round;stroke-dasharray:2.0259,5.0648;}
	.st15{fill:none;stroke:#E93A1D;stroke-width:1.5;stroke-linecap:round;stroke-linejoin:round;stroke-dasharray:1.8929,4.7321;}
	.st16{fill:#777777;}
	.st17{fill:#172DF8;}
	.st18{fill:none;stroke:#E93A1D;stroke-width:1.5;stroke-linecap:round;stroke-linejoin:round;stroke-dasharray:1.9198,4.7994;}
	.st19{fill:none;stroke:#E93A1D;stroke-width:1.5;stroke-linecap:round;stroke-linejoin:round;stroke-dasharray:1.9197,4.7993;}
</style>
<g id="back">
</g>
<g id="Layer_2">
	<path class="st7" d="M40.5122,33.3206c0.0156-2.0545-0.1631-4.4951-1.7601-5.9623c0.6188-0.8602,0.7063-2.0659,0.5162-3.0479
		c-0.126-0.6523-0.2936-1.272-0.4822-1.8737c3.1744-3.8109,3.8312-9.8846,1.3363-14.2702c-2.3232-4.0835-6.523-5.813-10.2531-4.7917
		c-0.8898-0.2951-1.9473-0.2564-3.0749,0.2919c-0.7282,0.3542-1.4389,0.7283-2.1527,1.0991
		c-3.9539-0.7009-7.6564,0.5459-11.3508,2.6729c-0.169,0.0974-0.3216,0.209-0.4669,0.3263
		C2.3649,5.5664-2.795,20.775,6.5633,25.8848c0.6654,0.3633,1.4095,0.3254,2.0402,0.0446c0.301,0.088,0.6192,0.1689,0.9767,0.2336
		c2.2533,0.4076,4.2779-0.7734,5.659-2.4167c0.5962-0.7094,1.0091-2.076,1.3793-3.5913c0.1772-0.0345,0.3499-0.0494,0.5338-0.1168
		c3.9884-1.4592,8.846-1.3278,12.0127,1.1456c-0.0089,0.2079-0.0208,0.4124-0.0374,0.6081
		c-0.1138,1.3282,0.6313,2.4805,1.6888,3.1921c-0.4559,0.689-0.7691,1.5241-0.7458,2.6142c0.0463,2.1591,2.0465,3.218,3.0643,4.4296
		c-0.0519,0.7623,0.0126,1.3968,0.2454,1.9505c-0.0352,0.0509-0.0645,0.0902-0.1021,0.1461
		c-0.3167,0.4698-0.3998,2.2713-0.3885,2.5054c0.2237,4.6604,4.1576,4.4711,2.9468,11.027
		c-0.3872,2.0953,2.5741,2.9708,3.2254,0.8892c0.7386-2.3611,1.2669-4.3811,0.8307-6.834c-0.3707-2.0839-1.425-3.5674-1.1609-5.5011
		C39.7419,35.6764,40.5018,34.6787,40.5122,33.3206z"/>
	<g>
		<g>
			<g>
				<path class="st9" d="M28.6555,23.8971c-0.3068,5.2977-0.4798,10.6032-0.6837,15.9057
					c-0.1755,4.5634,0.1496,11.3633-5.3057,13.0176c-4.2215,1.2802-8.8346-1.1-11.1039-4.6592
					c-2.6233-4.1144-2.8247-9.2369-2.9325-13.9669c-0.0174-0.7632-1.1531-0.7606-1.1836,0
					c-0.2186,5.45,0.2692,11.4992,3.8073,15.9312c2.4565,3.0772,6.6739,4.912,10.6075,4.2787
					c4.6857-0.7543,6.7118-4.8128,7.1822-9.1677c0.7574-7.0119,0.6126-14.2907,0.7023-21.3393
					C29.7543,23.1913,28.6958,23.2013,28.6555,23.8971L28.6555,23.8971z"/>
			</g>
		</g>
		<g>
			<g>
				<path class="st9" d="M6.9738,27.6198c3.7472-0.347,7.8669-2.4099,10.461-5.114c0.4356-0.4541-0.1571-1.3214-0.703-0.9111
					c-1.5179,1.141-2.9703,2.3032-4.6961,3.1242c-1.7174,0.817-3.5967,1.1847-5.3104,1.9836
					C6.2909,26.9051,6.4957,27.664,6.9738,27.6198L6.9738,27.6198z"/>
			</g>
		</g>
		<g>
			<g>
				<path class="st9" d="M36.8186,62.9863c-4.7179-3.6488,0.9926-10.0854,2.4352-13.8718c0.7167-1.8811,0.8764-3.7313,0.1894-5.6384
					c-0.6455-1.792-1.5369-3.2164-0.8587-5.1682c0.5451-1.5686,2.0982-2.794,3.333-3.8247c0.2232-0.1863,0.2115-0.5226,0.0978-0.758
					c-0.7722-1.5999-1.7172-3.2054-2.3477-4.8641c-0.4784-1.2586-1.0061-2.5322-0.2904-3.8812
					c0.2894-0.5455,0.7562-0.9991,1.1017-1.5123c1.3492-2.0039,2.2155-4.3094,2.5671-6.6971
					c0.6452-4.3826-0.4244-9.3616-3.6235-12.5854c-5.5527-5.5955-16.9415-2.1349-21.5927,2.9912
					c-0.5324,0.5868,0.3062,1.4391,0.8742,0.8742c4.3649-4.3405,14.3541-7.8341,19.5904-3.1077
					c3.2538,2.9369,4.1838,8.0502,3.4182,12.19c-0.3771,2.0393-1.1627,3.9787-2.3208,5.6992
					c-0.8368,1.2431-1.9514,2.306-1.8345,3.907c0.1116,1.5284,1.1628,3.0358,1.8107,4.3759
					c0.3993,0.8259,1.3644,2.0474,1.0749,2.9767c-0.2015,0.647-1.7185,1.6235-2.1665,2.2381
					c-0.83,1.1384-1.3994,2.4219-1.2935,3.8593c0.1516,2.0579,1.7019,3.6577,1.712,5.767
					c0.0249,5.2368-9.1151,13.0758-2.4052,17.7157C36.6922,63.9503,37.212,63.2905,36.8186,62.9863L36.8186,62.9863z"/>
			</g>
		</g>
		<g>
			<g>
				<path class="st9" d="M13.2385,7.0062C8.0722,6.2113,2.7647,9.0976,0.9957,14.1403c-1.795,5.1169,0.7948,11.2147,5.6764,13.5033
					c0.686,0.3216,1.2778-0.6361,0.6033-1.0321c-4.0366-2.3698-6.4779-7.1521-5.069-11.7893
					C3.5936,10.2563,8.5151,7.519,13.1138,7.927C13.6342,7.9731,13.7619,7.0868,13.2385,7.0062L13.2385,7.0062z"/>
			</g>
		</g>
		<g>
			<g>
				<path class="st9" d="M17.2638,20.5342c-1.7123-7.0016,4.5945-11.1494,10.7758-11.7667c0.7505-0.075,0.7849-1.1875,0-1.1953
					c-6.9069-0.0684-14.274,5.8593-11.7589,13.2331C16.4911,21.4223,17.421,21.1773,17.2638,20.5342L17.2638,20.5342z"/>
			</g>
		</g>
		<g>
			<g>
				<path class="st9" d="M17.5168,22.0956c-0.2099-2.9527,1.8835-4.1355,4.1598-5.2371c1.2115-0.5862,4.1889-2.3414,5.4935-1.3491
					c0.5007,0.3808,1.1498-0.4614,0.6746-0.8742c-1.7893-1.5541-4.8492,0.1878-6.5851,1.0468
					c-2.7251,1.3485-5.1688,2.9568-4.7271,6.4136C16.6104,22.7058,17.5626,22.7406,17.5168,22.0956L17.5168,22.0956z"/>
			</g>
		</g>
		<g>
			<g>
				<path class="st9" d="M5.9873,30.1553c-2.8606,2.2246-2.3873,7.1571,0.7565,8.8802c0.6731,0.3689,1.2114-0.589,0.5944-1.0169
					c-2.364-1.6398-2.5955-5.0889-0.5761-7.0885C7.2784,30.4189,6.5274,29.7353,5.9873,30.1553L5.9873,30.1553z"/>
			</g>
		</g>
		<g>
			<g>
				<path class="st9" d="M12.7868,27.5485c1.7757-0.6301,3.5619-0.7852,5.428-0.5666c0.5876,0.0688,0.7209-0.9209,0.1402-1.0359
					c-2.0411-0.4039-4.0399-0.1054-5.9045,0.8046C12.0102,26.9655,12.3192,27.7144,12.7868,27.5485L12.7868,27.5485z"/>
			</g>
		</g>
		<g>
			<g>
				<path class="st9" d="M22.7336,27.2918c1.534-0.5316,2.9572-0.5053,4.4187,0.2504c0.6566,0.3395,1.2047-0.5925,0.5796-0.9916
					c-1.5951-1.0186-3.7274-1.1141-5.3843-0.1744C21.865,26.6499,22.1866,27.4814,22.7336,27.2918L22.7336,27.2918z"/>
			</g>
		</g>
		<g>
			<g>
				<path class="st9" d="M18.9702,41.0081c0.4694,0.2137,0.9388,0.4274,1.4082,0.6411c0.2381,0.1084,0.4408,0.0788,0.6412-0.0827
					c0.1861-0.1499,0.3575-0.3098,0.5234-0.4819c0.4793-0.4973-0.2225-1.1401-0.7375-0.7375
					c-0.1885,0.1473-0.3656,0.3012-0.5342,0.4711c0.1716-0.0454,0.3432-0.0907,0.5148-0.1361
					c-0.4932-0.1573-0.9864-0.3145-1.4795-0.4718C18.8441,40.0628,18.5149,40.8008,18.9702,41.0081L18.9702,41.0081z"/>
			</g>
		</g>
		<g>
			<g>
				<path class="st9" d="M21.3402,47.5249c0.0295-0.0073-0.3716,0.1316-0.1409,0.0586c-0.8998,0.2846-0.3879,1.5971,0.5115,1.2133
					c0.6435-0.2746,1.2206-0.5026,1.7736-0.9475c0.4786-0.3851-0.0381-1.2723-0.61-1.0479
					c-0.3638,0.1427-0.7145,0.2952-1.0662,0.4665c-0.2926,0.1426-0.6656,0.2552-0.9018,0.4863
					c0.3475,0.2681,0.6951,0.5363,1.0426,0.8044c-0.0267,0.0539-0.0678,0.093-0.1234,0.1175
					C22.4137,48.2879,22.0518,47.3482,21.3402,47.5249L21.3402,47.5249z"/>
			</g>
		</g>
		<g>
			<g>
				<path class="st9" d="M34.9141,37.3802c1.182-0.8691,2.5267-1.9952,2.6265-3.5775c0.1016-1.6096-1.43-2.7174-2.1595-3.986
					c-1.0854-1.8877-0.4904-3.1182,0.9531-4.4505c0.6991-0.6452,1.3148-1.3716,1.8502-2.1573
					c1.1789-1.7298,1.791-3.6076,2.0328-5.6727c0.0998-0.8526-1.3577-1.055-1.5077-0.2041
					c-0.4183,2.3723-1.2966,4.604-2.9234,6.4161c-0.9134,1.0174-2.3148,1.7764-2.5691,3.2248
					c-0.1957,1.1143,0.319,2.2566,0.8548,3.2032c0.3681,0.6502,0.9851,1.1843,1.3331,1.8256
					c1.0008,1.8441,0.347,3.4015-1.0589,4.6421C33.9531,36.9907,34.482,37.6979,34.9141,37.3802L34.9141,37.3802z"/>
			</g>
		</g>
	</g>
	<path class="st9" d="M29.0975,30.5479c-7.3226-0.7923-15.3819-1.0732-22.7228-0.4264c-0.4326,0.0381-0.6172,0.7565-0.1119,0.8272
		c1.5096,0.2108,3.0482,0.355,4.598,0.4687c0.2433,1.4923,0.678,4.6004,2.1425,5.4426c1.0151,0.5838,4.7042,0.6275,5.6659-0.2036
		c1.0104-0.873,0.8223-2.7959,1.739-3.6877c1.3296-1.2933,1.1383,1.037,1.4903,2.2992c0.6403,2.2964,1.6221,1.992,3.9895,2.3081
		c0.23,0.0308,0.4911-0.1528,0.5984-0.3431c1.0114-1.797,1.9355-3.6412,2.8745-5.4768c0.0256-0.05,0.0311-0.0983,0.046-0.1475
		C29.8135,31.3559,29.6949,30.6125,29.0975,30.5479z"/>
</g>
</svg>
