<?xml version="1.0" encoding="utf-8"?>
<!-- Generator: Adobe Illustrator 20.1.0, SVG Export Plug-In . SVG Version: 6.00 Build 0)  -->
<svg version="1.1" xmlns="http://www.w3.org/2000/svg" xmlns:xlink="http://www.w3.org/1999/xlink" x="0px" y="0px"
	 viewBox="0 0 470 280" style="enable-background:new 0 0 470 280;" xml:space="preserve">
<style type="text/css">
	.st0{fill:none;stroke:#F7FAFC;stroke-width:39.9968;stroke-linecap:round;stroke-linejoin:round;}
	.st1{fill:none;stroke:#F2F6F9;stroke-width:39.9968;stroke-linecap:round;stroke-linejoin:round;}
	.st2{fill:#F7FAFC;}
	.st3{fill:#F2F6F9;}
	.st4{fill:#FFFFFF;}
	.st5{fill:#FCE0DE;}
	.st6{fill:#E6E6E6;}
	.st7{fill:#FFEFAF;}
	.st8{fill:#E93A1D;}
	.st9{fill:#303030;}
	.st10{fill:#E83D25;}
	.st11{fill:#B3B3B3;}
	.st12{fill:#666666;}
	.st13{fill:none;stroke:#E93A1D;stroke-width:1.5;stroke-linecap:round;stroke-linejoin:round;}
	.st14{fill:none;stroke:#E93A1D;stroke-width:1.5;stroke-linecap:round;stroke-linejoin:round;stroke-dasharray:2.0259,5.0648;}
	.st15{fill:none;stroke:#E93A1D;stroke-width:1.5;stroke-linecap:round;stroke-linejoin:round;stroke-dasharray:1.8929,4.7321;}
	.st16{fill:#777777;}
	.st17{fill:#172DF8;}
	.st18{fill:none;stroke:#E93A1D;stroke-width:1.5;stroke-linecap:round;stroke-linejoin:round;stroke-dasharray:1.9198,4.7994;}
	.st19{fill:none;stroke:#E93A1D;stroke-width:1.5;stroke-linecap:round;stroke-linejoin:round;stroke-dasharray:1.9197,4.7993;}
</style>
<g id="back">
	<g>
		<g>
			<path class="st2" d="M138.6795,277.9527c-2.0879,0-4.2773-0.3271-6.522-1.0732c-4.3779,1.0801-9.5557,0.8018-14.9453-2.0312
				c-0.9429-0.4961-2.0137-1.1191-3.3691-1.96c-1.9722-1.2236-4.6255-2.959-8.1118-5.3047
				c-4.3501-2.9268-10.0703-6.8564-17.0635-11.7217c-0.9146,1.2412-1.9893,2.3965-3.2197,3.4346
				c-8.4429,7.1221-21.0601,6.0498-28.1807-2.3936c0,0-12.4004-14.7021-24.7979-29.4385
				c-6.2065-7.3779-12.4126-14.7637-17.0654-20.3232c-2.3481-2.8057-4.3047-5.1504-5.6733-6.8027
				c-3.4463-4.1592-7.3525-8.874-6.6475-17.084c0.4546-5.3008,3.0029-10.2021,7.0801-13.6191
				c0.9517-0.7969,3.897-3.0273,8.1499-4.0859C7.615,150.6324,6.5774,144.4507,6.8728,138.4957
				c0.186-3.7529,1.2695-7.2725,3.1372-10.3281c0.002-0.5625,0.0273-1.127,0.0767-1.6924c0.2065-2.3496,0.8242-4.6201,1.8042-6.7168
				c0.2754-1.5732,0.7329-3.1035,1.3569-4.5596c0.9917-4.7188,3.4771-8.9033,7.1934-12.0215
				c4.6543-3.9053,10.6079-5.3477,16.2168-4.3955c-3.5703-5.0684-5.4834-9.4189-4.9927-15.4404
				c0.4341-5.3271,3.002-10.3047,7.0957-13.7402c2.0171-1.6914,8.0068-5.8799,16.3862-4.4609
				c-0.3691-1.8467-0.4785-3.752-0.3115-5.6621c0.4624-5.2842,3.0049-10.168,7.0679-13.5771
				c1.4858-1.2461,7.5474-5.7627,15.8857-4.5195c1.0254-3.8242,3.1938-7.3828,6.4575-10.1221
				c1.3457-1.1289,6.2905-4.7988,13.2144-4.6934c0.8062-0.999,1.7124-1.9258,2.7114-2.7637
				c6.2031-5.2041,16.5889-7.2256,25.8047-0.0107c0.519,0.4062,1.2729,1.0225,2.2393,1.8408
				c0.2231,0.1895,0.4595,0.3896,0.709,0.6035c0.8311-5.2969,3.4678-10.0078,7.5723-13.4521
				c7.9927-6.708,19.7983-6.1416,27.1143,1.2969c0.0635,0.0654,1.2188,1.2393,3.291,3.3369
				c0.8823-3.1406,2.5454-6.1055,4.9863-8.5898c7.5396-7.6729,19.7974-8.0068,27.7437-0.7568l6.9517,6.3428
				c1.0713-2.7783,2.7812-5.3584,5.1133-7.5049c7.8638-7.2383,20.0288-7.0156,27.6206,0.5068
				c1.8398,1.8223,3.687,3.6514,5.5405,5.4824c1.0918-1.7246,2.4497-3.2861,4.0396-4.6211
				c7.6216-6.3975,18.7881-6.2168,26.2007,0.4229l9.0938,8.1475c1.0361-1.4404,2.2578-2.7598,3.6523-3.9297
				c5.353-4.4893,14.6465-7.2734,24.6812-1.6201c1.9775,1.1143,4.0918,2.5908,6.6543,4.6455
				c0.5815,0.4658,1.1934,0.9688,1.8364,1.5078c3.52-2.4688,12.9116-7.3447,24.353,0.4844c1.0371,0.71,2.3916,1.6875,4.1396,2.9902
				c2.8984,2.1582,7.0488,5.335,12.3364,9.4404c0.6953-0.8047,1.4634-1.5654,2.3047-2.2715
				c5.269-4.4199,14.3423-7.1758,24.0054-1.6455c1.332,0.7627,2.7798,1.7266,4.5557,3.0342
				c1.8433,1.3564,4.1514,3.1689,7.0093,5.5029c7.793-3.2441,17.1074-1.29,22.8887,5.4736
				c0.0986,0.1143,9.9487,11.6387,19.6646,23.1104c5.7275,6.7617,10.2969,12.1924,13.5806,16.1406
				c8.0254,9.6484,11.3472,13.6426,10.6465,22.0635c-0.4429,5.3193-2.9976,10.249-7.0894,13.6777
				c-0.2959,0.248-0.606,0.4922-0.9302,0.7305c0.1304,5.2305-1.7837,10.4873-5.6938,14.4854
				c-3.5288,3.6094-8.1187,5.6152-12.8267,5.9629c-0.2925,6.2021-3.0205,11.7715-7.6846,15.6846
				c-1.4829,1.2441-5.2354,3.9375-10.6011,4.6748c-0.9194,2.4912-2.3525,4.8379-4.3003,6.876
				c-4.647,4.8662-11.1787,6.8857-17.3882,5.9717c-0.9946,4.1357-3.2905,7.876-6.5903,10.6445
				c-2.0386,1.71-8.2271,6.0371-17.0015,4.4297c-0.9712,3.1426-2.73,6.084-5.2598,8.5107
				c-5.8555,5.6162-14.2925,6.9941-21.415,4.083c-1.0044,4.627-3.4609,8.7305-7.1113,11.7939
				c-2.9482,2.4746-10.6562,7.4062-21.8877,3.4824c-1.124,4.3594-3.5425,8.2236-7.041,11.1592
				c-7.2124,6.0527-17.5864,6.2119-24.9526,0.6064c-0.4365,5.9033-3.1187,11.1982-7.5767,14.9385
				c-3.894,3.2676-8.6816,4.8125-13.4185,4.6709c-0.7832,0.957-1.6587,1.8447-2.6191,2.6504
				c-2.3867,2.0039-9.9941,7.2197-20.6406,3.3799c-1.1753,2.5576-2.9116,4.9072-5.1934,6.8535
				c-6.7368,5.7451-18.1694,7.2715-26.9878-0.9297l-0.8809-0.8232c-0.8032,4.6328-3.2188,8.8564-6.8501,11.9033
				c-8.5425,7.1709-19.6797,7.0039-33.103-0.4893c-0.9033-0.5039-1.8389-1.0488-2.8081-1.6348
				c-1.2119,3.041-3.1641,5.7695-5.7231,7.917c-4.1641,3.4941-9.4512,5.1396-14.8936,4.6543
				c-0.1069-0.0098-0.2129-0.0205-0.3188-0.0312c-1.8086,0.2549-3.6426,0.2598-5.4453,0.0205
				C141.1155,277.8374,139.9158,277.9527,138.6795,277.9527z"/>
		</g>
	</g>
</g>
<g id="Layer_2">
	<g>
		<path class="st7" d="M319.1313,238.3458c-1.0266-1.6355-3.0427,3.1284-3.3081,3.7019c-0.6375,1.3777-1.1338,2.5505-1.2534,3.7888
			c-0.6587,0.3545-1.1121,1.1082-0.9033,1.976c-0.178-0.7145-0.6624-0.9532-1.4526-0.7167
			c-1.228-0.1069-2.0984,1.4961-1.4302,2.4922c0.9773,2.8411,0.6096,4.3806-1.0967,4.6248
			c-0.2205-0.1418-0.4412-0.2836-0.6616-0.4254c-0.51-0.328-1.0569-0.295-1.512-0.0621c-1.4033,0.0906-2.5103,2.0139-1.2202,3.0556
			c0.0439,0.0355,0.0908,0.0574,0.1353,0.0911c-1.0669,2.2715-6.3608,3.9552-7.6423,4.3154c-1.7708,0.498-2.9199,0.97-4.3132,2.2317
			c-1.4614,1.3231,0.1387,3.2572,1.7471,3.0012c0.9983-0.2589,1.7632-0.4406,2.3428-0.5608c0.1213,0.1299,0.27,0.2495,0.4653,0.3469
			c0.0776,0.0388,0.1553,0.0775,0.2329,0.1162c0.7739,0.3864,1.6865,0.2001,2.1558-0.5653
			c0.0598-0.0975,0.1196-0.1949,0.1794-0.2925c0.1086-0.1771,0.1599-0.405,0.1833-0.6412c0.1204-0.0402,0.2417-0.0728,0.3606-0.1226
			c1.376-0.5764,2.4949-1.8823,3.5398-2.8827c1.3369-1.2797,2.8127-2.4442,3.6113-3.8876c1.3713,0.0446,2.7559-0.4973,3.9761-1.5835
			c1.9883-1.7693,2.2788-3.925,1.571-6.0504c0.5012-0.1107,0.9583-0.2836,1.3264-0.5474c1.229,0.2574,2.6331-0.8243,2.1697-2.1774
			c-0.8796-2.5681,0.9836-5.0229,2.5752-6.5139c0.3933-0.3683,0.9836-0.4712,1.373-0.9373
			c0.9341-1.1182,0.7234-2.4772,0.0056-3.6204C321.0402,234.5123,317.8754,236.3452,319.1313,238.3458z"/>
		<path class="st7" d="M325.986,224.6785c-1.0776,0.7067-2.0645,1.3075-3.3433,1.5724c-1.5862,0.3286-1.2607,3.0603,0.3884,2.8698
			c1.7517-0.2025,3.5217-0.7852,4.7632-2.0985C328.9184,225.8329,327.4531,223.7164,325.986,224.6785z"/>
		<path class="st7" d="M327.3828,214.1487c-1.2175-0.2598-2.3389-0.1056-3.4578,0.4288c-0.668,0.3191-0.9634,1.2341-0.7778,1.9121
			c0.0613,0.2245,0.1599,0.4221,0.2734,0.6069c0.0684,0.416,0.2981,0.8127,0.7061,1.0782c0.772,0.5026,1.6953,0.4799,2.5068,0.1117
			c0.2126-0.0964,0.3557-0.2758,0.4661-0.4769c0.3005-0.1968,0.5549-0.451,0.7461-0.7435
			C328.9623,216.388,328.7031,214.4304,327.3828,214.1487z"/>
		<path class="st7" d="M327.4221,201.6015c-0.9736,0.7426-1.7861,1.5938-2.6895,2.4127c-0.8684,0.7874-1.8057,1.4937-2.7212,2.2241
			c-1.1167,0.8909,0.0891,2.8765,1.3987,2.4026c2.3911-0.8654,4.9702-2.5981,6.1177-4.9337
			C330.1286,202.484,328.7643,200.5775,327.4221,201.6015z"/>
		<path class="st7" d="M323.7809,196.5524c1.384,0.0798,2.8293-0.4858,3.939-1.2832c0.616-0.4426,0.9136-1.2249,0.5044-1.9241
			c-0.3682-0.6296-1.2869-0.9242-1.9238-0.5045c-0.9109,0.6001-1.8284,0.8966-2.856,1.2257
			C322.0673,194.5074,322.3498,196.4697,323.7809,196.5524z"/>
		<path class="st7" d="M325.163,180.9811c-0.6384-0.3734-1.343-0.1056-1.7424,0.4568c-0.2546,0.3589-0.5093,0.7179-0.7642,1.0768
			c-0.4104,0.5784-0.1025,1.4603,0.4709,1.7958c0.6287,0.3677,1.4192,0.1321,1.7957-0.4709
			c0.2324-0.3721,0.4646-0.744,0.6968-1.1161C325.9841,182.1399,325.7443,181.321,325.163,180.9811z"/>
		<path class="st7" d="M323.3676,170.4483c-0.3618,0.7474-0.979,1.2301-1.7864,1.2449c-1.6465,0.0305-1.6528,2.585,0,2.5625
			c1.6592-0.0223,3.3123-0.968,3.999-2.5139c0.2808-0.632,0.1838-1.3767-0.4597-1.7531
			C324.5588,169.6603,323.6703,169.8229,323.3676,170.4483z"/>
		<path class="st7" d="M322.9885,156.8578c-0.8713,0.366-1.7271,0.7524-2.5505,1.2169c-0.6941,0.3915-0.928,1.3395-0.5298,2.0201
			c0.4377,0.7484,1.2903,0.8582,2.0203,0.5298c0.7458-0.3354,1.4658-0.7197,2.168-1.1395c0.6099-0.3647,0.8748-1.1428,0.5881-1.795
			C324.4265,157.1034,323.6574,156.5766,322.9885,156.8578z"/>
		<path class="st7" d="M319.4135,150.9392c1.9431-0.4852,3.6667-1.5913,4.7102-3.3219c0.762-1.2637-0.9819-2.5823-2.0244-1.562
			c-0.9854,0.9641-2.0701,1.9076-3.3586,2.4431C317.28,149.1053,317.7831,151.3463,319.4135,150.9392z"/>
		<path class="st7" d="M319.4125,138.432c1.4392-0.0394,2.9219-0.6938,3.8171-1.8489c0.4338-0.5597,0.5457-1.3105,0-1.8562
			c-0.5017-0.5016-1.355-0.5044-1.8562,0c-0.6602,0.6646-1.3728,1.1401-2.2683,1.4338
			C317.9089,136.553,318.0563,138.4691,319.4125,138.432z"/>
	</g>
	<path class="st7" d="M312.5744,116.577c-2.6162,0.3569-7.2456,0.689-9.0198,3.0068c-0.5413,0.707-0.3318,1.6575-0.7581,2.2747
		c-0.9861,1.4285-3.251,2.679-4.6152,3.7483c-4.1133,3.2247-8.3838,6.2153-12.8037,9.0039
		c-3.2104,2.0256-7.2168,3.4581-9.314,6.7056c-0.5149,0.7974,0.167,1.7993,1.0457,1.8221c3.8818,0.101,7.3396-2.6448,10.561-4.6056
		c3.8538-2.3457,7.5779-4.912,11.1824-7.6237c2.6748-2.0121,6.417-4.1464,8.0278-7.1798c0.3003-0.5657,0.7786-1.8478,0.3774-1.4706
		c1.0657-1.002,4.9292-1.2191,6.3962-1.7644C316.1545,119.5653,315.1349,116.2276,312.5744,116.577z"/>
	<path class="st7" d="M369.6086,100.3755c-9.281,2.6544-19.1318,4.8674-28.0203,8.6429c-1.2859,0.5463-0.6636,2.88,0.7295,2.6934
		c9.5469-1.2792,19.1653-4.6865,28.3042-7.66C372.9401,103.2975,371.985,99.6957,369.6086,100.3755z"/>
	<path class="st7" d="M389.2057,86.5615c-14.5728,5.266-29.3291,9.944-43.9792,14.9778c-1.3779,0.4735-0.832,2.5587,0.6064,2.1998
		c15.0002-3.7424,29.7146-8.792,44.2119-14.134C391.9321,88.9095,391.1259,85.8677,389.2057,86.5615z"/>
	<path class="st7" d="M219.5346,164.641c-0.0051-0.0361-0.0286-0.0674-0.0374-0.1028c0.5977-3.3071-3.2876-12.8409-7.2129-8.7374
		c-1.5601,1.6309-0.8726,4.536-0.1636,6.3945c0.8638,2.2644,2.3293,3.9935,4.2476,5.4381c0.8755,0.6594,2.3328,0.1501,2.822-0.74
		C219.6359,166.0826,219.6599,165.5305,219.5346,164.641z"/>
	<path class="st7" d="M65.8283,171.1859c-0.8948-4.1387-2.522-8.0874-3.2927-12.292c-0.3556-1.9392-3.4727-1.4771-3.4174,0.4625
		c0.0536,1.8773-0.1987,3.7087-0.6285,5.5354c-0.3523,1.4965-0.7881,2.6134-0.5798,4.1392
		c0.1504,1.1019,1.5508,1.1252,2.2197,0.5861c0.2847-0.2294,0.5311-0.4977,0.7551-0.7874c0.427,1.3164,0.9449,2.5879,1.6166,3.7588
		C63.5574,174.4299,66.2558,173.1629,65.8283,171.1859z"/>
	<path class="st7" d="M66.3304,188.9702c-3.4266-2.4956-6.8149-4.4479-9.3746-7.962c-1.3469-1.8196-4.4275-0.1162-3.0983,1.811
		c0.2722,0.3945,0.5597,0.7915,0.8561,1.1877c0.7776,1.1355,1.4697,2.3247,2.0354,3.5857c0.6707,1.4956,0.8572,3.6217,2.1627,4.6871
		c0.5691,0.4644,1.6134,0.5513,1.9878-0.2562c0.2592-0.5588,0.3363-1.1315,0.3165-1.707c1.1975,0.7614,2.4698,1.3684,3.8141,1.738
		C66.978,192.5901,67.8121,190.0492,66.3304,188.9702z"/>
	<path class="st7" d="M64.5076,232.4095c-0.662-2.2534-1.9879-4.2878-3.0177-6.3903c-0.4445-0.9076-0.855-1.8289-1.2649-2.7504
		c-0.1193-1.9534-0.6194-3.9358-2.4075-4.7687c-1.1531-0.5372-2.8425,0.3685-2.3496,1.8063
		c0.4553,1.3276,0.9475,2.7535,1.4878,4.193c-0.0349,0.7662-0.1111,1.4608-0.1277,1.8091
		c-0.0315,0.6608-0.2738,1.6057-0.1797,2.2316c0.0259,0.1724,0.1256,0.2212,0.1997,0.2385
		c-0.1626,0.0466-0.3125,0.1365-0.4299,0.2822c-0.2216,0.2749-0.3809,0.5112-0.5017,0.8459
		c-0.3813,1.0568,0.5874,1.8542,1.5002,1.9696c1.1445,0.1447,1.8125-0.5187,2.2109-1.4725c0.7122,1.261,1.498,2.4412,2.399,3.4498
		C63.0258,234.9724,64.914,233.7933,64.5076,232.4095z"/>
	<path class="st7" d="M64.8584,150.4657c-1.1106-4.0281-3.6208-8.1196-5.5549-11.8132c-0.8457-1.6152-2.969-0.4141-2.6851,1.1382
		c-0.014,0.0039-0.0282,0.0077-0.0422,0.0116c0.0693,0.1666,0.1382,0.3409,0.2073,0.5101c1.151,2.7972,1.0942,5.8721,1.043,8.8385
		c-0.0239,1.3873,1.9609,1.5924,2.3633,0.3198c0.0757-0.2391,0.1233-0.4769,0.183-0.7155c0.5204,1.0166,1.0804,1.9905,1.7013,2.8843
		C63.0214,153.0036,65.3405,152.2145,64.8584,150.4657z"/>
	<path class="st8" d="M370.55,153.8695c-0.8921-0.4412-1.6802-0.2839-2.4238,0.3413c-0.0032,0.0027-0.0039,0.0061-0.0068,0.0085
		c-1.7329-0.2543-3.4172,0.0005-5.1162,0.2349c-0.1494-0.1646-0.3328-0.303-0.5554-0.384
		c-1.2759-0.4641-2.3293-0.1082-3.4895,0.5012c-0.0701,0.0369-0.1353,0.0981-0.2021,0.1521
		c-1.8145,0.2797-1.6658,3.3076,0.4058,3.4507c0.3899,0.027,0.7827,0.0229,1.1772,0.0002c0.6165,0.1111,1.3008,0.1312,1.9817,0.1589
		c2.0696,0.084,5.5308,0.5093,7.2708-0.8142c0.4187-0.3185,0.6775-0.7795,0.7571-1.252c0.3875-0.1492,0.7-0.426,0.8225-0.8713
		C371.3215,154.8478,371.0807,154.1322,370.55,153.8695z"/>
	<path class="st8" d="M403.6098,141.1781c-2.1375-0.2933-4.3323-0.1521-6.3894,0.5269c-1.2026,0.3967-0.9917,2.1594,0.2988,2.2097
		c1.9021,0.0741,3.8469,0.0273,5.7417-0.1584C404.5976,143.6251,405.1945,141.3956,403.6098,141.1781z"/>
	<path class="st8" d="M349.0405,118.1075c-0.0112-0.0435-0.0178-0.0851-0.0288-0.1283c-0.0105-0.2797-0.0701-0.5505-0.1785-0.797
		c-0.3298-1.5522-0.4731-3.0569-0.4121-4.6877c0.0654-1.739-2.4841-2.9941-3.6643-1.5178c-0.0688,0.0863-0.1396,0.1667-0.209,0.2515
		c-3.4163,0.4358-7.7678,0.3167-6.5471-4.7773c0.6699-2.7952,2.4875-3.604,4.8208-4.8323c1.3979-0.7358,1.3296-2.8674,0-3.6211
		c-4.9697-2.8174-10.0898-0.9731-11.1226,4.9893c-0.9087,5.2476,0.1401,15.7563,4.4219,19.3907
		c0.624,0.5297,1.4033,0.5448,2.0088,0.2494c2.3877,0.8025,5.5669-0.6514,8.2954-1.9829c0.022,0.0039,0.0425,0.0107,0.0645,0.0144
		C348.019,120.9126,349.4665,119.7538,349.0405,118.1075z"/>
	<path class="st8" d="M196.4865,262.1301c-0.5369-0.7483-1.0708-1.4987-1.6118-2.244c-0.627-0.8643-1.6646-1.2496-2.6589-0.6973
		c-0.9143,0.5078-1.5989,1.1937-2.2278,2.0161c-0.2183,0.2855-0.2815,0.6711-0.2397,1.0487
		c-0.1484-0.5671-0.6331-0.996-0.8931-1.3168c-0.1562-0.1926-0.3779-0.6521-0.426-0.7969c-0.4983-1.5022-2.1155-1.7974-3.281-0.8662
		c-0.1821,0.1455-0.364,0.2908-0.5461,0.4363c-0.7219,0.2972-1.3455,0.7905-1.7283,1.5317
		c-0.4436,0.8584-0.2969,1.9147,0.5012,2.511c0.5789,0.4324,1.198,0.4814,1.7854,0.2737c0.1226,0.1265,0.2458,0.252,0.375,0.3779
		c0.709,0.6899,1.604,0.6687,2.2773,0.2656c0.0757,0.0046,0.146,0.0273,0.2244,0.0236c1.2678-0.0601,1.9026-1.0719,1.7595-2.2408
		c0.0627,0.2971,0.1714,0.5815,0.3347,0.7865c0.5012,0.6293,1.1575,0.7606,1.9253,0.6564c0.2351-0.032,0.5403-0.0176,0.8552,0.0186
		c0.0493,0.073,0.0986,0.146,0.1479,0.219c0.5989,0.8872,1.7473,1.2778,2.7148,0.7119
		C196.6337,264.3426,197.1147,263.0055,196.4865,262.1301z"/>
	<path class="st8" d="M76.2039,82.294c0.3949-0.4233,0.6409-0.981,0.6083-1.6322c-0.3169-6.3339-3.7451-13.516-10.9565-13.934
		c-3.1565-0.1829-5.7891,0.8982-7.9453,2.6694c-0.3645-0.0067-0.7471,0.0905-1.1255,0.335
		c-0.8234,0.5319-1.4614,1.2329-1.9834,2.0397c-1.7437,2.1864-2.7284,4.6354-3.158,7.5179
		c-0.006,0.0181-0.0132,0.0361-0.0193,0.0542c0.0037,0.0005,0.0072,0.001,0.0107,0.0015c-0.0291,0.1987-0.0667,0.3906-0.0906,0.5936
		c-0.0626,0.5306,0.0542,0.9584,0.2777,1.2924c-0.4342,1.5583-0.9779,3.0154-1.8314,4.1875
		c-0.764,1.0497,0.6921,2.2767,1.6997,1.6997c1.656-0.9487,2.5037-2.1844,3.2417-3.8096c1.3241-0.0837,2.2739-0.4858,3.3894-1.4536
		c0.0376-0.0327,0.0649-0.0688,0.0989-0.103c1.0358-0.1005,2.0518-0.2622,3.062-0.5135c1.1653,0.0216,2.323,0.1173,3.376,0.1427
		c3.6155,0.0876,7.5754-0.2429,9.7195,3.2677c0.6841,1.12,2.3667,0.3795,2.0847-0.8789
		C76.5422,83.233,76.3844,82.7479,76.2039,82.294z"/>
	<path class="st8" d="M156.9133,255.1875c0.0464-1.2305-0.1688-2.4818-0.5648-3.5347c-1.6352-4.347-4.5911-8.0535-6.4967-12.2704
		c-1.0103-2.2356-1.9299-4.5098-2.8432-6.7863c-0.9216-5.8989-1.7646-11.7954-1.875-17.8949
		c-0.1969-10.8816,0.6631-21.7666,2.0847-32.5487c1.3787-10.4565,3.4028-20.7894,5.1141-31.1909
		c1.4836-9.0176,0.5152-19.8889-3.1468-28.3548c-2.0514-4.7424-5.5601-9.0932-6.39-14.3011
		c-0.9529-5.98,1.9028-12.6663,3.6295-18.2779c2.5707-0.0179,5.1436-0.1051,7.7209-0.3055
		c1.6898-0.1315,3.2814-1.6785,2.6725-3.5083c-0.922-2.77-0.3501-4.4319-3.6707-5.3672c-4.4805-1.2622-9.96-1.0336-14.5981-1.5044
		c-9.7133-0.9858-20.5535-3.5413-30.2524-2.157c-1.7305,0.2471-1.7966,2.1675-0.9371,3.2938
		c-0.4615,2.1659-1.2804,5.0509,0.6234,6.5815c2.6847,2.1583,9.5543,1.3047,12.7584,1.5577
		c0.1642,0.0129,0.3281,0.0265,0.4923,0.0396c0.7086,4.8281,0.8984,9.4868,0.8042,14.3762
		c-0.0677,3.5118-0.48,7.1704-0.0806,10.6841c-1.1077,3.1586-2.2777,6.2991-3.1523,9.533
		c-1.7953,6.637-1.8132,13.1707-0.4773,19.8939c1.3774,6.9324,3.8137,13.611,5.3353,20.5138
		c1.4823,6.7244,2.4027,13.5579,2.7688,20.4336c1.3763,25.8535-5.4683,50.4248-19.2528,72.0968
		c-0.4045,0.0188-0.7864,0.2101-0.9832,0.6449c-0.1255,0.2773-0.2399,0.5374-0.3496,0.7924
		c-0.5928,0.4225-0.8047,1.1201-0.7098,1.7836c-0.0236,0.0638-0.0461,0.1218-0.0701,0.1875
		c-0.5874,1.6147,1.7678,2.9395,2.8856,1.6797c0.0776-0.0876,0.1514-0.1782,0.2288-0.2661
		c3.4897-0.3071,7.0073-1.2128,10.5371-2.3235c6.5247-0.5022,13.0739-2.9853,19.6662-2.9978
		c3.8848-0.0088,7.0424-0.2106,10.6962,1.2084c1.7589,0.6831,3.6231,1.4687,3.4291,3.7248
		C155.5908,260.2112,156.8168,257.7441,156.9133,255.1875z"/>
	<g>
		<g>
			<path class="st9" d="M128.7816,268.9652c7.6004-0.6956,14.9674-2.9474,21.6337-6.678c1.7608-0.9854,6.3614-2.7918,5.8088-5.4561
				c-0.463-2.2324-3.2569-3.4618-5.2438-3.8681c-3.4434-0.7042-7.1819-0.1657-10.6387,0.167
				c-4.0952,0.3941-8.1742,0.9719-12.2173,1.7332c-8.593,1.6179-16.9954,4.0724-25.1326,7.2673
				c0.2569,0.3342,0.5139,0.6685,0.7708,1.0027c6.351-13.1161,14.6538-25.2528,18.3127-39.5237
				c3.3275-12.9782,3.7229-26.671,1.8754-39.909c-0.9837-7.0485-2.7945-13.8346-4.8673-20.6296
				c-2.3197-7.6042-4.7051-15.3675-4.856-23.383c-0.1333-7.0759,2.0905-13.0865,4.9029-19.4368
				c2.3181-5.2342,4.6068-10.7001,4.2976-16.5449c-0.219-4.1415-1.0819-8.567-1.9651-12.608
				c-0.2582-1.1812-0.486-3.2447-1.5068-4.0883c-0.6835-0.565-1.7874-0.3216-2.5975-0.3761
				c-1.9292-0.1298-3.7287-0.3505-5.6484-0.0196c0.2942,0.2241,0.5884,0.4482,0.8826,0.6724
				c-0.0969-0.9963-0.4313-1.9518-0.675-2.9183c-0.4967-1.9699-1.001-3.3765,1.622-3.767c1.8417-0.2741,4.389,0.4921,6.297,0.5451
				c2.1822,0.0606,4.3655,0.0872,6.5482,0.1201c4.8376,0.0727,9.6553,0.3836,14.4878,0.4943
				c2.2683,0.052,4.4048-0.2833,6.6538-0.4663c1.937-0.1575,3.8156,0.1974,5.7-0.3876c-0.2854-0.162-0.5707-0.324-0.8561-0.4861
				c0.666,1.6232,1.9374,5.6542,0.2249,6.8331c-1.4341,0.9873-3.727,0.6004-5.3352,1.1712
				c-3.0168,1.0708-2.4849,4.7676-2.8037,7.4046c-0.308,2.5473-1.2784,4.9773-1.6493,7.522
				c-0.4213,2.8907-0.1121,5.7161,0.7531,8.4964c1.7021,5.4698,4.9991,10.2737,6.5096,15.8218
				c3.4347,12.6159,1.2018,25.54-1.5136,38.0477c-2.7359,12.6023-4.6155,25.0677-4.4649,38.0044
				c0.1656,14.2302,2.4665,28.4835,7.6224,41.7813c0.2722,0.7019,1.4096,0.4113,1.147-0.3162
				c-4.4958-12.4516-6.9256-25.4642-7.3414-38.6943c-0.4214-13.4068,1.3184-26.4241,4.1639-39.4931
				c2.5659-11.7849,4.7752-23.664,2.608-35.7055c-0.9997-5.5546-3.325-10.2698-5.6338-15.3554
				c-1.3007-2.8651-2.4953-5.9039-2.658-9.0844c-0.178-3.4782,1.1168-6.6025,1.7081-9.9577
				c0.3312-1.8796,0.0513-4.071,0.7137-5.8653c0.7328-1.985,3.7362-1.6066,5.4763-2.0656c4.1083-1.0835,3.1007-5.7802,1.8151-8.915
				c-0.1391-0.3392-0.4614-0.6085-0.8561-0.4861c-2.2411,0.6953-4.9492,0.29-7.3111,0.5866
				c-2.9901,0.3755-5.9643,0.1765-8.9617-0.0101c-5.5727-0.3468-11.1667-0.2349-16.747-0.3895
				c-2.2284-0.0617-4.4528-0.5835-6.6741-0.5426c-0.9695,0.0178-2.2065,0.0722-2.7912,0.9714
				c-1.2702,1.9533,0.6314,5.0977,0.8268,7.1059c0.0468,0.4812,0.4057,0.7546,0.8826,0.6724
				c1.9173-0.3305,4.2924-0.248,6.2109,0.1317c1.039,0.2056,0.9775,0.2866,1.2975,1.2761c0.5844,1.8073,0.8707,3.7309,1.1794,5.6006
				c0.6272,3.7988,1.5427,7.8727,1.2091,11.7136c-0.5232,6.0222-3.5321,11.4589-5.833,16.9333
				c-2.3061,5.4867-3.523,11.0131-3.2843,16.9936c0.5408,13.5487,6.7342,26.0865,9.0892,39.3208
				c2.3454,13.1804,2.3811,26.9434-0.4503,40.0515c-3.3476,15.498-12.1182,28.3911-18.9155,42.4642
				c-0.2289,0.4739,0.1645,1.2415,0.7708,1.0027c13.0237-5.1283,26.7499-8.3131,40.7171-9.3151
				c2.8843-0.2069,6.2912-0.5965,8.9245,0.8788c1.14,0.6387,1.4082,0.9181,1.2888,2.2682c-0.1237,1.3976-0.483,1.4495-1.5364,2.1386
				c-1.4491,0.948-2.9425,1.829-4.4755,2.6345c-6.0646,3.1866-12.6951,5.1172-19.4914,5.8996
				C128.1455,268.0248,128.126,269.0252,128.7816,268.9652L128.7816,268.9652z"/>
		</g>
	</g>
	<g>
		<g>
			<path class="st9" d="M122.9526,93.1725c1.254,2.8879,5.184,3.2915,7.9435,3.3374c4.5111,0.0752,8.9621-1.2472,13.1562-2.7851
				c0.756-0.2772,0.4621-1.4529-0.338-1.2261c-3.2209,0.9131-6.4188,1.9802-9.75,2.4152c-3.0989,0.4047-8.1683,0.7441-10.187-2.2236
				C123.4249,92.1725,122.7107,92.6156,122.9526,93.1725L122.9526,93.1725z"/>
		</g>
	</g>
	<g>
		<g>
			<path class="st9" d="M113.025,79.7297c0.2507-1.1278,0.4115-2.3735,0.9802-3.3985c0.9368-1.6883,2.6996-2.1448,4.4768-2.2831
				c1.9831-0.1543,3.9714,0.0735,5.9429-0.2879c1.5489-0.2839,3.0869-0.8712,4.2751-1.9345
				c1.1903-1.0652,1.4429-2.6793,2.7705-3.4445c1.0501-0.6052,1.3395-0.457,2.5313-0.4831
				c2.0532-0.0449,1.8837-0.1571,3.3818,2.4499c0.6469,1.1257,0.8799,1.8859,2.1591,2.5103
				c1.9614,0.9574,4.1812,0.3245,6.213,0.9635c2.6539,0.8347,4.0132,3.1387,4.4854,5.7239
				c0.1207,0.6607,1.1788,0.5017,1.1624-0.1573c-0.1089-4.3771-3.771-6.941-7.8195-7.2106
				c-2.375-0.1582-4.0711,0.0937-4.9802-3.0364c-0.2644-0.9103-0.2298-1.437-1.066-2.0321
				c-0.5241-0.3729-1.1602-0.5206-1.7881-0.5818c-1.235-0.1203-2.6951-0.1106-3.9273-0.1026
				c-1.5279,0.0099-1.9992,0.8279-2.5278,2.1335c-1.5261,3.7697-5.2709,4.2147-8.9298,4.299
				c-4.7517,0.1095-7.6164,1.783-8.1685,6.76C112.1439,80.0905,112.9228,80.1899,113.025,79.7297L113.025,79.7297z"/>
		</g>
	</g>
	<g>
		<g>
			<path class="st9" d="M50.0938,89.4367c2.1499-0.739,2.6539-3.3278,4.2146-4.7881c2.411-2.256,6.2365-2.1877,9.3213-2.2631
				c2.9761-0.0727,6.4678-0.3634,9.1768,1.1208c2.4396,1.3366,2.6479,4.2373,4.7432,5.8453
				c0.6201,0.4759,1.2005-0.4908,0.7775-1.0077c-1.9776-2.4169-2.4542-5.1616-5.5711-6.4756
				c-2.8401-1.1973-6.1181-0.9891-9.1263-0.8982c-2.7994,0.0846-5.8413,0.1222-8.3994,1.418
				c-2.583,1.3083-4.0276,4.1188-5.6427,6.3903C49.3635,89.0934,49.7364,89.5596,50.0938,89.4367L50.0938,89.4367z"/>
		</g>
	</g>
	<g>
		<g>
			<path class="st9" d="M49.4881,89.3914c2.8664-4.3217,1.8084-9.6382,3.7333-14.2369c1.9643-4.693,6.7318-8.2712,11.9394-7.9886
				c5.1406,0.279,9.5317,3.8886,10.591,8.9417c0.9616,4.5868-0.2102,9.6821,1.9848,13.9879
				c0.323,0.6336,1.3515,0.1942,1.1459-0.4831c-1.6637-5.4813-0.2431-11.8381-2.85-17.018
				c-2.0272-4.0282-6.4255-6.5761-10.8717-6.782c-4.5808-0.2121-8.8845,2.2766-11.5159,5.9391
				c-1.4803,2.0603-2.2995,4.358-2.6778,6.8562c-0.2633,1.7384-0.3475,3.5016-0.7104,5.2251
				c-0.3773,1.7918-1.0941,3.4529-1.6361,5.1928C48.4546,89.5587,49.2005,89.825,49.4881,89.3914L49.4881,89.3914z"/>
		</g>
	</g>
	<g>
		<g>
			<path class="st9" d="M51.1661,88.5576c0.4226,3.2091,0.6976,6.4221,0.8776,9.6532c0.0392,0.703,1.1236,0.713,1.1016,0
				c-0.1015-3.2844-0.4663-6.546-1.0354-9.7809C52.0172,87.9031,51.0952,88.0192,51.1661,88.5576L51.1661,88.5576z"/>
		</g>
	</g>
	<g>
		<g>
			<path class="st9" d="M75.1986,88.1971c-1.1009,3.5779-1.335,7.085-1.0631,10.8014c0.239-0.182,0.478-0.3641,0.7169-0.5461
				c-0.8812-0.2954-1.6313-0.2931-2.5187-0.0097c0.2388,0.1356,0.4775,0.2711,0.7163,0.4067
				c-0.3927-1.0878,0.054-1.8327,1.3401-2.2347c0.6005,0.2306,0.8596-0.6446,0.4086-0.9692
				c-0.7515-0.5409-1.6807-0.4295-2.3498,0.2429c-0.8628,0.8669-0.6871,2.1765-0.5219,3.2707
				c0.0455,0.3015,0.4446,0.496,0.7163,0.4067c0.6329-0.2845,1.2689-0.2915,1.908-0.021c0.3228,0.0974,0.7573-0.1793,0.7169-0.5462
				c-0.3893-3.5408,0.0522-7.0792,1.0039-10.5055C76.4645,87.8003,75.4089,87.5137,75.1986,88.1971L75.1986,88.1971z"/>
		</g>
	</g>
	<g>
		<g>
			<path class="st9" d="M73.5618,98.9469c-0.1541,2.2756,0.1246,4.6495,0.7481,6.8399c0.2111,0.7417,1.2799,0.4257,1.1413-0.3146
				c-0.4078-2.1783-0.63-4.3141-0.7351-6.5253C74.6807,98.2011,73.6119,98.2073,73.5618,98.9469L73.5618,98.9469z"/>
		</g>
	</g>
	<g>
		<g>
			<path class="st9" d="M126.671,190.7579c0.9699,10.5251,0.0678,20.99-2.5449,31.2277c-0.1707,0.6689,0.8475,0.9503,1.034,0.285
				c2.871-10.2411,3.6769-20.9449,2.5188-31.5128C127.6093,190.1233,126.6111,190.1075,126.671,190.7579L126.671,190.7579z"/>
		</g>
	</g>
	<g>
		<g>
			<path class="st9" d="M144.6381,243.0694c-2.0928-6.5318-3.0894-13.2722-3.0571-20.1297c0.0034-0.7208-1.1059-0.7204-1.1191,0
				c-0.1279,6.9672,0.9286,13.8054,3.0745,20.4335C143.7618,244.0695,144.8634,243.7728,144.6381,243.0694L144.6381,243.0694z"/>
		</g>
	</g>
	<g>
		<g>
			<path class="st9" d="M133.841,143.901c-0.5778,6.7226-0.1956,13.5735,0.6302,20.2582c0.0826,0.669,1.1412,0.6861,1.0664,0
				c-0.7367-6.7582-0.8478-13.4691-0.8528-20.2582C134.6844,143.3503,133.8869,143.3674,133.841,143.901L133.841,143.901z"/>
		</g>
	</g>
	<g>
		<g>
			<path class="st9" d="M178.4185,264.4993c1.0724-3.3508,1.2747-6.7973,0.5235-10.2395c-0.1619-0.7416-1.2488-0.4181-1.1244,0.31
				c0.5574,3.2619,0.4008,6.4355-0.546,9.6133C177.0519,264.9199,178.186,265.2256,178.4185,264.4993L178.4185,264.4993z"/>
		</g>
	</g>
	<g>
		<g>
			<path class="st9" d="M176.2629,248.9039c-1.0488,1.0796-1.2367,2.5261-0.3616,3.796c0.5167,0.7498,1.3132,1.1998,2.0084,1.7637
				c1.2648,1.0259,2.206,2.2612,2.9489,3.707c0.6486,1.2625,1.0849,2.6068,1.5234,3.951c0.2113,0.6476,0.3286,1.4783,0.8885,1.949
				c1.4109,1.186,4.9412,1.1083,6.7039,1.196c0.6509,0.0324,0.7915-0.9913,0.1542-1.1394c-1.4044-0.3264-5.4238-0.246-6.3458-1.637
				c-0.702-1.059-0.8851-2.7592-1.4103-3.9429c-0.5568-1.2548-1.2299-2.4621-2.1263-3.5083
				c-1.4412-1.682-4.7635-3.0039-3.3206-5.6238C177.1525,249.0029,176.6046,248.5522,176.2629,248.9039L176.2629,248.9039z"/>
		</g>
	</g>
	<g>
		<g>
			<path class="st9" d="M190.1872,264.1478c-0.3343-1.37-0.759-2.7379-1.2003-4.0776c-0.264-0.8015-0.6157-1.5422-1.431-1.8873
				c-1.7254-0.7302-3.5544,0.6382-4.4058,2.0638c-0.324,0.5424,0.393,1.0277,0.8374,0.6461
				c1.0101-0.8672,2.7351-2.9707,3.7613-0.8285c0.6517,1.3604,0.9328,2.9388,1.4835,4.3466
				C189.46,264.9929,190.3417,264.7808,190.1872,264.1478L190.1872,264.1478z"/>
		</g>
	</g>
	<g>
		<g>
			<path class="st9" d="M183.9429,258.2182c-1.1623-1.4694-2.0701-3.1522-2.501-4.9824c-0.2841-1.2064-0.2737-2.4497-0.9943-3.5094
				c-1.032-1.5177-2.9727-2.3563-4.756-1.8791c-0.5419,0.145-0.442,1.0072,0.134,0.9898c1.2691-0.0384,2.5166,0.1603,3.4079,1.1662
				c0.9568,1.0798,0.8688,2.5363,1.2163,3.845c0.5134,1.9331,1.5073,3.5452,2.9174,4.9458
				C183.7489,259.1735,184.2598,258.6189,183.9429,258.2182L183.9429,258.2182z"/>
		</g>
	</g>
	<g>
		<g>
			<path class="st9" d="M183.5659,248.9039c-1.0488,1.0796-1.2367,2.5261-0.3616,3.796c0.5167,0.7498,1.3132,1.1998,2.0084,1.7637
				c1.2648,1.0259,2.206,2.2612,2.9489,3.707c0.6487,1.2625,1.0849,2.6068,1.5234,3.951c0.2113,0.6476,0.3286,1.4783,0.8885,1.949
				c1.4109,1.186,4.9412,1.1083,6.7039,1.196c0.6509,0.0324,0.7915-0.9913,0.1542-1.1394c-1.4044-0.3264-5.4238-0.246-6.3458-1.637
				c-0.702-1.059-0.8852-2.7592-1.4104-3.9429c-0.5568-1.2548-1.2299-2.4621-2.1263-3.5083
				c-1.4412-1.682-4.7635-3.0039-3.3206-5.6238C184.4556,249.0029,183.9076,248.5522,183.5659,248.9039L183.5659,248.9039z"/>
		</g>
	</g>
	<g>
		<g>
			<path class="st9" d="M197.4903,264.1478c-0.3343-1.37-0.759-2.7379-1.2003-4.0776c-0.264-0.8015-0.6158-1.5422-1.431-1.8873
				c-1.7254-0.7302-3.5544,0.6382-4.4058,2.0638c-0.324,0.5424,0.393,1.0277,0.8374,0.6461
				c1.0101-0.8672,2.7351-2.9707,3.7613-0.8285c0.6518,1.3604,0.9328,2.9388,1.4835,4.3466
				C196.763,264.9929,197.6448,264.7808,197.4903,264.1478L197.4903,264.1478z"/>
		</g>
	</g>
	<g>
		<g>
			<path class="st9" d="M191.2459,258.2182c-1.1623-1.4694-2.0701-3.1522-2.501-4.9824c-0.2841-1.2064-0.2737-2.4497-0.9943-3.5094
				c-1.032-1.5177-2.9727-2.3563-4.756-1.8791c-0.5419,0.145-0.4419,1.0072,0.134,0.9898c1.2691-0.0384,2.5166,0.1603,3.4079,1.1662
				c0.9568,1.0798,0.8688,2.5363,1.2163,3.845c0.5134,1.9331,1.5073,3.5452,2.9173,4.9458
				C191.0519,259.1735,191.5629,258.6189,191.2459,258.2182L191.2459,258.2182z"/>
		</g>
	</g>
	<g>
		<g>
			<path class="st9" d="M181.8806,77.8461c-1.0806,12.1926-1.6078,24.4099-1.5916,36.6502
				c0.0004,0.3109,0.2616,0.5689,0.5715,0.5715c17.4689,0.1473,34.9683,0.587,52.4364,0.3323c0.7059-0.0103,0.705-1.0759,0-1.0957
				c-17.4632-0.4917-34.967-0.2898-52.4364-0.3797c0.1905,0.1905,0.381,0.381,0.5715,0.5715
				c-0.0563-12.2266,0.3627-24.4554,1.2455-36.6502C182.7147,77.3322,181.9254,77.3403,181.8806,77.8461L181.8806,77.8461z"/>
		</g>
	</g>
	<g>
		<g>
			<path class="st9" d="M181.2577,78.3269c13.3729,2.0937,27.1989,2.3097,40.6954,1.6348c2.9513-0.1476,9.3474-1.8496,9.6033,2.5323
				c0.1943,3.3266,0.0657,6.7081,0.1041,10.0411c0.0817,7.079-0.2478,14.3146,0.3501,21.3685c0.0586,0.6912,1.0422,0.7032,1.084,0
				c0.4576-7.7068-0.1124-15.5913-0.2194-23.3111c-0.0269-1.9426-0.0489-3.8853-0.0832-5.8278
				c-0.0224-1.266,0.1337-2.811-0.2864-4.0457c-0.686-2.016-2.5076-2.3204-4.4346-2.3021
				c-7.6931,0.0731-15.3415,0.7105-23.0504,0.5513c-7.9124-0.1634-15.7615-0.8787-23.6423-1.5333
				C180.8744,77.393,180.7504,78.2474,181.2577,78.3269L181.2577,78.3269z"/>
		</g>
	</g>
	<g>
		<g>
			<path class="st9" d="M204.7119,92.9897c-1.5184,0.8951-2.0615,2.8495-1.397,4.4628c0.6856,1.6646,2.5106,2.3455,4.1801,1.786
				c1.6762-0.5617,2.8642-2.2511,2.3684-4.0324c-0.4955-1.7804-2.5247-3.2061-4.3538-2.5749
				c-0.5416,0.1869-0.5033,1.1403,0.1449,1.0704c1.3015-0.1403,2.6848,0.4557,3.0541,1.8229
				c0.3231,1.1959-0.5426,2.247-1.6513,2.5842c-2.5894,0.7874-3.8126-2.7644-1.8131-4.2083
				C205.7835,93.5109,205.3089,92.6377,204.7119,92.9897L204.7119,92.9897z"/>
		</g>
	</g>
	<g>
		<g>
			<path class="st9" d="M234.1974,85.5355c3.3643-4.0411,8.9463-6.0111,14.0532-4.3826c4.8483,1.5461,8.5639,6.191,8.9195,11.2801
				c0.4282,6.1258-4.6119,7.8381-8.5685,11.0596c-3.0677,2.4977-4.533,6.1801-4.5791,10.0932
				c-0.0553,4.6899,1.9356,9.048,3.9093,13.1917c1.2528,2.6301,2.7253,5.7588,0.987,8.525c-1.2234,1.9469-3.6134,2.9074-5.806,3.157
				c-5.0413,0.574-7.853-3.2094-12.114-4.9936c-3.564-1.4923-7.723-1.4413-11.3058-0.0375
				c-8.1248,3.1834-11.398,13.1368-7.3046,20.706c0.3286,0.6076,1.2246,0.0721,0.9208-0.5382
				c-2.4921-5.0074-1.9738-11.399,1.8271-15.6439c3.4603-3.8644,9.2252-5.3245,14.1615-3.8392
				c4.3986,1.3235,7.2985,5.3602,12.1032,5.5911c3.0708,0.1476,6.5611-0.9687,8.3658-3.5963
				c2.5769-3.752,0.0946-7.9422-1.5495-11.5071c-2.4641-5.3431-4.6181-12.0611-1.2312-17.5265
				c2.3752-3.8327,7.2011-4.9563,9.7963-8.5641c2.5313-3.519,1.7896-8.4592-0.2786-12.016
				c-4.9621-8.5338-16.8802-9.3254-23.1228-1.775C232.9117,85.2871,233.7209,86.1078,234.1974,85.5355L234.1974,85.5355z"/>
		</g>
	</g>
	<g>
		<g>
			<path class="st9" d="M212.8611,155.5787c4.2748-3.8538,10.9917,13.0851,3.5504,10.8007
				c-4.4306-1.3601-5.5192-8.1491-3.8595-11.6844c0.2792-0.5948-0.4837-1.0259-0.8702-0.5087
				c-2.2359,2.9919-1.1327,7.242,0.7419,10.1385c1.5106,2.3342,4.9493,4.9507,7.5286,2.4175
				c4.171-4.0967-4.6222-16.8664-7.7537-11.6749C211.9436,155.4899,212.513,155.8925,212.8611,155.5787L212.8611,155.5787z"/>
		</g>
	</g>
	<g>
		<g>
			<path class="st9" d="M212.3119,162.0653c2.1122-0.5189,4.0988-1.4373,5.8261-2.7629c0.5492-0.4215,0.0418-1.3677-0.5589-0.9562
				c-1.7291,1.1843-3.5387,2.0947-5.5445,2.7134C211.3942,161.2572,211.6578,162.226,212.3119,162.0653L212.3119,162.0653z"/>
		</g>
	</g>
	<g>
		<g>
			<path class="st9" d="M212.1929,155.5673c0.5336,1.2033,1.087,2.3927,1.6979,3.559c0.3012,0.5751,1.125,0.0703,0.8601-0.5027
				c-0.5515-1.1929-1.1559-2.3545-1.7839-3.5087C212.6855,154.5974,211.9644,155.0519,212.1929,155.5673L212.1929,155.5673z"/>
		</g>
	</g>
	<g>
		<g>
			<g>
				<path class="st9" d="M57.2158,152.0113c0.3276-5.6819,0.376-11.3703,0.417-17.0596c-0.3002,0.0406-0.6004,0.0813-0.9006,0.1219
					c0.7936,2.181,2.4021,3.7323,4.1424,5.2056c2.2551,1.9091,4.3058,3.882,6.3347,6.0302
					c0.3615,0.3827,1.0669-0.1314,0.7454-0.5751c-2.9717-4.1023-8.1623-6.4242-10.3845-11.0139
					c-0.2016-0.4164-0.8634-0.2059-0.8544,0.2314c0.1173,5.6897-0.0723,11.3753-0.2968,17.0596
					C56.3986,152.5257,57.1864,152.5207,57.2158,152.0113L57.2158,152.0113z"/>
			</g>
		</g>
		<g>
			<g>
				<path class="st9" d="M57.4328,152.9808c1.174-1.3824,1.9933-3.1387,2.8665-4.7199c0.2623-0.475-0.4292-0.8727-0.7235-0.4229
					c-0.9901,1.5133-2.1545,3.058-2.8285,4.7437C56.5959,152.9603,57.1757,153.2836,57.4328,152.9808L57.4328,152.9808z"/>
			</g>
		</g>
		<g>
			<g>
				<path class="st9" d="M62.9046,146.9136c1.4181-0.3928,2.8094-0.5865,4.2822-0.5491c0.6499,0.0165,0.6282-0.939,0-0.9961
					c-1.5888-0.1444-3.1597,0.1042-4.6276,0.726C62.085,146.2952,62.4265,147.046,62.9046,146.9136L62.9046,146.9136z"/>
			</g>
		</g>
		<g>
			<g>
				<path class="st9" d="M59.9228,147.7541c0.6755,1.7114,1.6619,3.4064,2.7442,4.8922c0.3396,0.4663,1.0828,0.0635,0.7893-0.4613
					c-0.8896-1.5907-1.7778-3.218-2.7356-4.7672C60.4726,147.0166,59.734,147.2756,59.9228,147.7541L59.9228,147.7541z"/>
			</g>
		</g>
		<g>
			<g>
				<path class="st9" d="M62.32,146.9966c1.0184,0.9948,1.7906,2.142,2.3615,3.4436c0.1861,0.4243,0.9207,0.12,0.755-0.3183
					c-0.5405-1.4299-1.3975-2.6859-2.5364-3.7053C62.5091,146.0666,61.9394,146.6248,62.32,146.9966L62.32,146.9966z"/>
			</g>
		</g>
		<g>
			<g>
				<path class="st9" d="M63.5568,153.0691c0.4616-0.7475,1.1603-1.2428,2.0025-1.4793c0.5768-0.1619,0.3341-1.0497-0.2477-0.8984
					c-1.0725,0.279-1.9545,0.9809-2.5037,1.94C62.5297,153.1173,63.2637,153.5436,63.5568,153.0691L63.5568,153.0691z"/>
			</g>
		</g>
	</g>
	<g>
		<path class="st9" d="M319.663,109.0375c-0.1384,0.0217-0.2195,0.1116-0.2605,0.2212c-0.0437-0.5419-0.209-1.0508-0.4897-1.5051
			c1.3525-0.3202,2.73-0.6616,4.0527-1.0663c0.3938-0.1205,0.3992-0.7305,0.0491-0.8417c0.001-0.0956-0.0276-0.1954-0.1079-0.2874
			c-0.6904-0.7908-1.3923-1.7018-2.1829-2.4617c1.7134,0.4827,3.438,0.7812,5.1987,1.0878
			c1.4707,0.2561,3.2749,0.4374,4.7517,0.9503c-2.2676,1.9102-4.7019,3.6133-6.9983,5.4906
			c0.103-0.7046,0.1299-1.4141,0.0391-2.1683c-0.0239-0.2002-0.1404-0.3311-0.2815-0.3997
			c-0.1018-0.1716-0.313-0.2745-0.5413-0.1426C321.8791,108.5008,320.8171,108.8565,319.663,109.0375z M331.7819,104.5989
			c-1.4536-0.6737-3.2305-0.7627-4.7969-1.043c-2.2646-0.4054-4.5298-0.7777-6.7422-1.4222
			c-0.2124-0.0619-0.366,0.0458-0.4395,0.1976c-0.0242-0.0167-0.0454-0.0397-0.0698-0.056
			c-0.3455-0.2323-0.7678,0.2217-0.561,0.5613c0.3816,0.6271,0.9512,1.142,1.4556,1.6708c0.4709,0.494,0.9717,0.9596,1.4668,1.4298
			c-1.2751,0.1974-2.5767,0.551-3.7515,1.0148c-0.0303,0.0118-0.0498,0.0316-0.0754,0.047
			c-0.3794-0.1779-0.8174,0.3357-0.4812,0.7023c0.4761,0.5189,0.7007,1.1537,0.7119,1.8538c0.009,0.5702,0.8323,0.5925,0.916,0.0757
			c0.062,0.1346,0.1846,0.2343,0.3582,0.2183c1.052-0.0975,2.0459-0.4077,2.9651-0.9027c-0.0598,1.0249-0.1936,1.9946-0.4956,2.9941
			c-0.168,0.556,0.5325,0.8926,0.9268,0.5393c2.8022-2.5107,5.8691-4.7054,8.7029-7.1814
			C332.0746,105.1212,332.0334,104.7154,331.7819,104.5989z"/>
		<path class="st9" d="M316.326,118.4622c-0.1384,0.0217-0.2195,0.1116-0.2605,0.2212c-0.0437-0.5419-0.209-1.0508-0.4897-1.5051
			c1.3525-0.3202,2.73-0.6616,4.0527-1.0663c0.3938-0.1205,0.3992-0.7305,0.0491-0.8417c0.001-0.0956-0.0276-0.1954-0.1079-0.2873
			c-0.6904-0.7908-1.3923-1.7018-2.1829-2.4617c1.7134,0.4827,3.438,0.7812,5.1987,1.0878
			c1.4707,0.2561,3.2749,0.4374,4.7517,0.9503c-2.2676,1.9101-4.7019,3.6133-6.9983,5.4906
			c0.103-0.7046,0.1299-1.4141,0.0391-2.1683c-0.0239-0.2002-0.1404-0.3311-0.2815-0.3997
			c-0.1018-0.1716-0.313-0.2745-0.5413-0.1426C318.5421,117.9255,317.48,118.2813,316.326,118.4622z M328.4449,114.0236
			c-1.4536-0.6737-3.2305-0.7627-4.7969-1.043c-2.2646-0.4054-4.5298-0.7777-6.7422-1.4222
			c-0.2124-0.0619-0.366,0.0458-0.4395,0.1976c-0.0242-0.0167-0.0454-0.0397-0.0698-0.056
			c-0.3455-0.2323-0.7678,0.2217-0.561,0.5613c0.3816,0.6271,0.9512,1.142,1.4556,1.6708c0.4709,0.494,0.9717,0.9596,1.4668,1.4298
			c-1.2751,0.1974-2.5767,0.551-3.7515,1.0148c-0.0303,0.0118-0.0498,0.0316-0.0754,0.047
			c-0.3794-0.1779-0.8174,0.3357-0.4812,0.7023c0.4761,0.5189,0.7007,1.1537,0.7119,1.8538c0.009,0.5702,0.8323,0.5925,0.916,0.0757
			c0.062,0.1347,0.1846,0.2343,0.3582,0.2183c1.052-0.0975,2.0459-0.4077,2.9651-0.9027c-0.0598,1.0249-0.1936,1.9946-0.4956,2.9941
			c-0.168,0.556,0.5325,0.8926,0.9268,0.5393c2.8022-2.5107,5.8691-4.7055,8.7029-7.1814
			C328.7376,114.5459,328.6964,114.1401,328.4449,114.0236z"/>
		<path class="st9" d="M314.5187,128.5771c-0.1384,0.0217-0.2195,0.1116-0.2605,0.2212c-0.0437-0.5419-0.209-1.0508-0.4897-1.5051
			c1.3525-0.3202,2.73-0.6616,4.0527-1.0663c0.3938-0.1205,0.3992-0.7305,0.0491-0.8417c0.001-0.0956-0.0276-0.1954-0.1079-0.2873
			c-0.6904-0.7908-1.3923-1.7018-2.1829-2.4617c1.7134,0.4827,3.438,0.7812,5.1987,1.0878
			c1.4707,0.2561,3.2749,0.4374,4.7517,0.9503c-2.2676,1.9101-4.7019,3.6133-6.9983,5.4906
			c0.103-0.7046,0.1299-1.4141,0.0391-2.1683c-0.0239-0.2002-0.1404-0.3311-0.2815-0.3997
			c-0.1018-0.1716-0.313-0.2745-0.5413-0.1426C316.7348,128.0405,315.6728,128.3962,314.5187,128.5771z M326.6376,124.1385
			c-1.4536-0.6737-3.2305-0.7627-4.7969-1.043c-2.2646-0.4054-4.5298-0.7777-6.7422-1.4222
			c-0.2124-0.0619-0.366,0.0458-0.4395,0.1976c-0.0242-0.0167-0.0454-0.0397-0.0698-0.056
			c-0.3455-0.2323-0.7678,0.2217-0.561,0.5613c0.3816,0.6271,0.9512,1.142,1.4556,1.6708c0.4709,0.494,0.9717,0.9596,1.4668,1.4298
			c-1.2751,0.1974-2.5767,0.551-3.7515,1.0148c-0.0303,0.0119-0.0498,0.0316-0.0755,0.047
			c-0.3794-0.1779-0.8174,0.3357-0.4812,0.7023c0.4761,0.5189,0.7007,1.1537,0.7119,1.8538c0.009,0.5702,0.8323,0.5925,0.916,0.0757
			c0.062,0.1347,0.1846,0.2343,0.3582,0.2183c1.052-0.0975,2.0459-0.4077,2.9651-0.9027c-0.0598,1.0249-0.1936,1.9946-0.4956,2.9941
			c-0.168,0.556,0.5325,0.8926,0.9268,0.5393c2.8022-2.5107,5.8691-4.7055,8.7029-7.1814
			C326.9303,124.6608,326.8891,124.2551,326.6376,124.1385z"/>
		<path class="st9" d="M313.9421,139.2571c-0.1384,0.0217-0.2195,0.1115-0.2605,0.2212c-0.0437-0.5419-0.209-1.0508-0.4897-1.5051
			c1.3525-0.3202,2.73-0.6616,4.0527-1.0663c0.3938-0.1205,0.3992-0.7305,0.0491-0.8417c0.001-0.0956-0.0276-0.1954-0.1079-0.2873
			c-0.6904-0.7908-1.3923-1.7018-2.1829-2.4617c1.7134,0.4827,3.438,0.7812,5.1987,1.0878
			c1.4707,0.2561,3.2749,0.4374,4.7517,0.9503c-2.2676,1.9101-4.7019,3.6133-6.9983,5.4906
			c0.103-0.7046,0.1299-1.4141,0.0391-2.1683c-0.0239-0.2002-0.1404-0.3311-0.2815-0.3997
			c-0.1018-0.1717-0.313-0.2745-0.5413-0.1426C316.1582,138.7205,315.0962,139.0762,313.9421,139.2571z M326.061,134.8185
			c-1.4536-0.6737-3.2305-0.7627-4.7969-1.043c-2.2646-0.4054-4.5298-0.7777-6.7422-1.4222
			c-0.2124-0.0619-0.366,0.0458-0.4395,0.1976c-0.0242-0.0167-0.0454-0.0397-0.0698-0.056
			c-0.3455-0.2323-0.7678,0.2217-0.561,0.5613c0.3816,0.6271,0.9512,1.142,1.4556,1.6708c0.4709,0.494,0.9717,0.9596,1.4668,1.4298
			c-1.2751,0.1974-2.5767,0.551-3.7515,1.0148c-0.0303,0.0119-0.0498,0.0316-0.0755,0.047
			c-0.3793-0.1779-0.8173,0.3357-0.4811,0.7023c0.4761,0.5189,0.7007,1.1537,0.7119,1.8538c0.009,0.5702,0.8323,0.5925,0.916,0.0757
			c0.062,0.1347,0.1846,0.2343,0.3582,0.2183c1.052-0.0975,2.0459-0.4077,2.9651-0.9027c-0.0598,1.0249-0.1936,1.9946-0.4956,2.9941
			c-0.168,0.5561,0.5325,0.8926,0.9268,0.5394c2.8022-2.5107,5.8691-4.7055,8.7029-7.1814
			C326.3537,135.3409,326.3125,134.9351,326.061,134.8185z"/>
		<path class="st9" d="M314.297,150.377c-0.1384,0.0217-0.2195,0.1115-0.2605,0.2212c-0.0437-0.5419-0.209-1.0508-0.4897-1.5051
			c1.3525-0.3202,2.73-0.6616,4.0527-1.0663c0.3938-0.1205,0.3992-0.7305,0.0491-0.8417c0.001-0.0956-0.0276-0.1954-0.1079-0.2873
			c-0.6904-0.7908-1.3923-1.7018-2.1829-2.4617c1.7134,0.4827,3.438,0.7812,5.1987,1.0877
			c1.4707,0.2561,3.2749,0.4374,4.7517,0.9503c-2.2676,1.9101-4.7019,3.6133-6.9983,5.4906
			c0.103-0.7046,0.1299-1.4141,0.0391-2.1683c-0.0239-0.2002-0.1404-0.3311-0.2815-0.3997
			c-0.1018-0.1717-0.313-0.2745-0.5413-0.1426C316.5131,149.8404,315.451,150.1962,314.297,150.377z M326.4159,145.9384
			c-1.4536-0.6737-3.2305-0.7627-4.7969-1.043c-2.2646-0.4054-4.5298-0.7777-6.7422-1.4222
			c-0.2124-0.0619-0.366,0.0457-0.4395,0.1976c-0.0242-0.0167-0.0454-0.0396-0.0698-0.056
			c-0.3455-0.2323-0.7678,0.2217-0.561,0.5612c0.3816,0.6271,0.9512,1.142,1.4556,1.6708c0.4709,0.494,0.9717,0.9596,1.4668,1.4298
			c-1.2751,0.1974-2.5767,0.551-3.7515,1.0148c-0.0303,0.0119-0.0498,0.0316-0.0755,0.047
			c-0.3793-0.1779-0.8173,0.3357-0.4811,0.7022c0.4761,0.5189,0.7007,1.1537,0.7119,1.8538c0.009,0.5702,0.8323,0.5925,0.916,0.0757
			c0.062,0.1347,0.1846,0.2343,0.3582,0.2183c1.052-0.0975,2.0459-0.4077,2.9651-0.9027c-0.0598,1.0249-0.1936,1.9947-0.4956,2.9941
			c-0.168,0.5561,0.5325,0.8926,0.9268,0.5394c2.8022-2.5107,5.8691-4.7055,8.7029-7.1814
			C326.7086,146.4608,326.6674,146.055,326.4159,145.9384z"/>
		<path class="st9" d="M315.2842,161.8118c-0.1384,0.0217-0.2195,0.1115-0.2605,0.2212c-0.0437-0.5419-0.209-1.0508-0.4897-1.5051
			c1.3525-0.3202,2.73-0.6616,4.0527-1.0663c0.3938-0.1205,0.3992-0.7305,0.0491-0.8417c0.001-0.0956-0.0276-0.1954-0.1079-0.2873
			c-0.6904-0.7908-1.3923-1.7018-2.1829-2.4617c1.7134,0.4827,3.438,0.7812,5.1987,1.0877
			c1.4707,0.2561,3.2749,0.4374,4.7517,0.9504c-2.2676,1.9101-4.7019,3.6132-6.9983,5.4906
			c0.103-0.7046,0.1299-1.4141,0.0391-2.1683c-0.0239-0.2002-0.1404-0.3311-0.2815-0.3997
			c-0.1018-0.1717-0.313-0.2745-0.5413-0.1426C317.5003,161.2752,316.4383,161.6309,315.2842,161.8118z M327.4031,157.3732
			c-1.4536-0.6737-3.2305-0.7627-4.7969-1.043c-2.2646-0.4053-4.5298-0.7777-6.7422-1.4222
			c-0.2124-0.0619-0.366,0.0457-0.4395,0.1976c-0.0242-0.0167-0.0454-0.0396-0.0698-0.056
			c-0.3455-0.2323-0.7678,0.2217-0.561,0.5612c0.3816,0.6271,0.9512,1.142,1.4556,1.6708c0.4709,0.494,0.9717,0.9596,1.4668,1.4298
			c-1.2751,0.1974-2.5767,0.551-3.7515,1.0148c-0.0303,0.0119-0.0498,0.0316-0.0755,0.047
			c-0.3793-0.1779-0.8173,0.3357-0.4811,0.7022c0.4761,0.5189,0.7007,1.1537,0.7119,1.8538c0.009,0.5702,0.8323,0.5925,0.916,0.0757
			c0.062,0.1347,0.1846,0.2343,0.3582,0.2183c1.052-0.0975,2.0459-0.4077,2.9651-0.9027c-0.0598,1.0249-0.1936,1.9947-0.4956,2.9941
			c-0.168,0.5561,0.5325,0.8926,0.9268,0.5394c2.8022-2.5107,5.8691-4.7055,8.7029-7.1814
			C327.6959,157.8955,327.6546,157.4898,327.4031,157.3732z"/>
		<path class="st9" d="M316.6046,173.4362c-0.1384,0.0217-0.2195,0.1115-0.2605,0.2212c-0.0437-0.5419-0.209-1.0508-0.4897-1.5051
			c1.3525-0.3202,2.73-0.6616,4.0527-1.0663c0.3938-0.1205,0.3992-0.7305,0.0491-0.8417c0.001-0.0956-0.0276-0.1954-0.1079-0.2873
			c-0.6904-0.7908-1.3923-1.7018-2.1829-2.4617c1.7134,0.4827,3.438,0.7811,5.1987,1.0877
			c1.4707,0.2561,3.2749,0.4374,4.7517,0.9504c-2.2676,1.9101-4.7019,3.6132-6.9983,5.4905
			c0.103-0.7046,0.1299-1.4141,0.0391-2.1683c-0.0239-0.2003-0.1404-0.3311-0.2815-0.3997
			c-0.1018-0.1717-0.313-0.2745-0.5413-0.1426C318.8207,172.8996,317.7587,173.2554,316.6046,173.4362z M328.7235,168.9976
			c-1.4536-0.6737-3.2305-0.7627-4.7969-1.043c-2.2646-0.4053-4.5298-0.7777-6.7422-1.4222
			c-0.2124-0.062-0.366,0.0457-0.4395,0.1976c-0.0242-0.0167-0.0454-0.0396-0.0698-0.056c-0.3455-0.2324-0.7678,0.2217-0.561,0.5612
			c0.3816,0.6271,0.9512,1.142,1.4556,1.6708c0.4709,0.494,0.9717,0.9597,1.4668,1.4298c-1.2751,0.1974-2.5767,0.551-3.7515,1.0148
			c-0.0303,0.0119-0.0498,0.0316-0.0755,0.0471c-0.3793-0.1779-0.8173,0.3357-0.4811,0.7022
			c0.4761,0.5189,0.7007,1.1537,0.7119,1.8538c0.009,0.5703,0.8323,0.5925,0.916,0.0757c0.062,0.1347,0.1846,0.2343,0.3582,0.2183
			c1.052-0.0975,2.0459-0.4077,2.9651-0.9027c-0.0598,1.0249-0.1936,1.9947-0.4956,2.9941
			c-0.168,0.5561,0.5325,0.8926,0.9268,0.5394c2.8022-2.5107,5.8691-4.7055,8.7029-7.1814
			C329.0163,169.52,328.975,169.1142,328.7235,168.9976z"/>
		<path class="st9" d="M317.959,185.1252c-0.1384,0.0217-0.2195,0.1115-0.2605,0.2212c-0.0437-0.5419-0.209-1.0508-0.4897-1.5051
			c1.3525-0.3202,2.73-0.6616,4.0527-1.0663c0.3938-0.1205,0.3992-0.7305,0.0491-0.8417c0.001-0.0956-0.0276-0.1954-0.1079-0.2873
			c-0.6904-0.7908-1.3923-1.7018-2.1829-2.4617c1.7134,0.4827,3.438,0.7811,5.1987,1.0877
			c1.4707,0.2561,3.2749,0.4374,4.7517,0.9504c-2.2676,1.9101-4.7019,3.6132-6.9983,5.4906
			c0.103-0.7046,0.1299-1.4141,0.0391-2.1683c-0.0239-0.2002-0.1404-0.3311-0.2815-0.3997
			c-0.1018-0.1717-0.313-0.2745-0.5413-0.1426C320.1751,184.5886,319.1131,184.9444,317.959,185.1252z M330.0779,180.6866
			c-1.4536-0.6737-3.2305-0.7627-4.7969-1.043c-2.2646-0.4053-4.5298-0.7777-6.7422-1.4222
			c-0.2124-0.0619-0.366,0.0457-0.4395,0.1976c-0.0242-0.0167-0.0454-0.0396-0.0698-0.056
			c-0.3455-0.2323-0.7678,0.2217-0.561,0.5612c0.3816,0.6271,0.9512,1.142,1.4556,1.6708c0.4709,0.494,0.9717,0.9596,1.4668,1.4298
			c-1.2751,0.1974-2.5767,0.551-3.7515,1.0148c-0.0303,0.0119-0.0498,0.0316-0.0756,0.047
			c-0.3793-0.1779-0.8173,0.3357-0.4811,0.7022c0.4761,0.5189,0.7007,1.1537,0.7119,1.8538c0.009,0.5702,0.8323,0.5925,0.916,0.0757
			c0.062,0.1347,0.1846,0.2343,0.3582,0.2183c1.052-0.0975,2.0459-0.4077,2.9651-0.9027c-0.0598,1.0248-0.1936,1.9947-0.4956,2.9941
			c-0.168,0.5561,0.5325,0.8926,0.9268,0.5394c2.8022-2.5107,5.8691-4.7055,8.7029-7.1814
			C330.3707,181.209,330.3294,180.8032,330.0779,180.6866z"/>
		<path class="st9" d="M319.0482,196.7537c-0.1384,0.0217-0.2195,0.1115-0.2605,0.2212c-0.0437-0.5419-0.209-1.0508-0.4897-1.5051
			c1.3525-0.3202,2.73-0.6616,4.0527-1.0663c0.3938-0.1205,0.3992-0.7305,0.0491-0.8417c0.001-0.0956-0.0276-0.1954-0.1079-0.2873
			c-0.6904-0.7908-1.3923-1.7018-2.1829-2.4617c1.7134,0.4827,3.438,0.7811,5.1987,1.0877
			c1.4707,0.2561,3.2749,0.4374,4.7517,0.9504c-2.2676,1.9101-4.7019,3.6132-6.9983,5.4905
			c0.103-0.7046,0.1299-1.4141,0.0391-2.1683c-0.0239-0.2003-0.1404-0.3311-0.2815-0.3997
			c-0.1018-0.1717-0.313-0.2745-0.5413-0.1426C321.2643,196.217,320.2023,196.5728,319.0482,196.7537z M331.1671,192.3151
			c-1.4536-0.6737-3.2305-0.7627-4.7969-1.043c-2.2646-0.4053-4.5298-0.7777-6.7422-1.4222
			c-0.2124-0.062-0.366,0.0457-0.4395,0.1976c-0.0242-0.0167-0.0454-0.0396-0.0698-0.056c-0.3455-0.2324-0.7678,0.2217-0.561,0.5612
			c0.3816,0.6271,0.9512,1.142,1.4556,1.6708c0.4709,0.494,0.9717,0.9597,1.4668,1.4298c-1.2751,0.1974-2.5767,0.551-3.7515,1.0148
			c-0.0303,0.0119-0.0498,0.0316-0.0756,0.0471c-0.3793-0.1779-0.8173,0.3357-0.4811,0.7022
			c0.4761,0.5189,0.7007,1.1537,0.7119,1.8538c0.009,0.5703,0.8323,0.5925,0.916,0.0757c0.062,0.1347,0.1846,0.2343,0.3582,0.2183
			c1.052-0.0975,2.0459-0.4077,2.9651-0.9027c-0.0598,1.0248-0.1936,1.9947-0.4956,2.9941
			c-0.168,0.5561,0.5325,0.8926,0.9268,0.5394c2.8022-2.5107,5.8691-4.7055,8.7029-7.1814
			C331.4599,192.8374,331.4186,192.4316,331.1671,192.3151z"/>
		<path class="st9" d="M319.5731,208.1964c-0.1384,0.0217-0.2195,0.1115-0.2605,0.2212c-0.0437-0.5419-0.209-1.0509-0.4897-1.5051
			c1.3525-0.3202,2.73-0.6615,4.0527-1.0663c0.3938-0.1205,0.3992-0.7305,0.0491-0.8417c0.001-0.0956-0.0276-0.1954-0.1079-0.2873
			c-0.6904-0.7908-1.3923-1.7019-2.1829-2.4617c1.7134,0.4827,3.438,0.7811,5.1987,1.0877
			c1.4707,0.2561,3.2749,0.4375,4.7517,0.9504c-2.2676,1.9101-4.7019,3.6132-6.9983,5.4905
			c0.103-0.7046,0.1299-1.4141,0.0391-2.1683c-0.0239-0.2003-0.1404-0.3311-0.2815-0.3997
			c-0.1018-0.1717-0.313-0.2745-0.5413-0.1426C321.7892,207.6598,320.7271,208.0156,319.5731,208.1964z M331.692,203.7578
			c-1.4536-0.6737-3.2305-0.7627-4.7969-1.043c-2.2646-0.4053-4.5298-0.7777-6.7422-1.4222
			c-0.2124-0.062-0.366,0.0457-0.4395,0.1976c-0.0242-0.0167-0.0454-0.0396-0.0698-0.056c-0.3455-0.2324-0.7678,0.2217-0.561,0.5612
			c0.3816,0.6271,0.9512,1.142,1.4556,1.6708c0.4709,0.4939,0.9717,0.9597,1.4668,1.4298
			c-1.2751,0.1974-2.5767,0.5509-3.7515,1.0148c-0.0303,0.0119-0.0498,0.0316-0.0756,0.0471
			c-0.3792-0.1779-0.8172,0.3357-0.481,0.7022c0.4761,0.5189,0.7007,1.1537,0.7119,1.8538c0.009,0.5703,0.8323,0.5925,0.916,0.0757
			c0.062,0.1347,0.1846,0.2343,0.3582,0.2183c1.052-0.0975,2.0459-0.4077,2.9651-0.9027c-0.0598,1.0248-0.1936,1.9947-0.4956,2.9941
			c-0.168,0.5561,0.5325,0.8927,0.9268,0.5395c2.8022-2.5107,5.8691-4.7055,8.7029-7.1814
			C331.9847,204.2802,331.9435,203.8744,331.692,203.7578z"/>
		<path class="st9" d="M319.2344,219.3284c-0.1384,0.0216-0.2195,0.1115-0.2605,0.2212c-0.0437-0.5419-0.209-1.0509-0.4897-1.5051
			c1.3525-0.3202,2.73-0.6615,4.0527-1.0663c0.3938-0.1205,0.3992-0.7305,0.0491-0.8417c0.001-0.0956-0.0276-0.1954-0.1079-0.2873
			c-0.6904-0.7908-1.3923-1.7019-2.1829-2.4617c1.7134,0.4827,3.438,0.7811,5.1987,1.0877
			c1.4707,0.2561,3.2749,0.4375,4.7517,0.9504c-2.2676,1.9101-4.7019,3.6132-6.9983,5.4905
			c0.103-0.7046,0.1299-1.4141,0.0391-2.1683c-0.0239-0.2003-0.1404-0.3311-0.2815-0.3997
			c-0.1018-0.1717-0.313-0.2745-0.5413-0.1426C321.4505,218.7917,320.3885,219.1475,319.2344,219.3284z M331.3533,214.8898
			c-1.4536-0.6737-3.2305-0.7627-4.7969-1.043c-2.2646-0.4053-4.5298-0.7777-6.7422-1.4222
			c-0.2124-0.062-0.366,0.0457-0.4395,0.1976c-0.0242-0.0167-0.0454-0.0396-0.0698-0.056c-0.3455-0.2324-0.7678,0.2217-0.561,0.5612
			c0.3816,0.6271,0.9512,1.142,1.4556,1.6708c0.4709,0.4939,0.9717,0.9597,1.4668,1.4298
			c-1.2751,0.1974-2.5767,0.5509-3.7515,1.0148c-0.0303,0.0119-0.0498,0.0316-0.0756,0.0471
			c-0.3792-0.1779-0.8172,0.3357-0.481,0.7022c0.4761,0.5189,0.7007,1.1537,0.7119,1.8538c0.009,0.5703,0.8323,0.5925,0.916,0.0757
			c0.062,0.1347,0.1846,0.2343,0.3582,0.2183c1.052-0.0975,2.0459-0.4077,2.9651-0.9027c-0.0598,1.0248-0.1936,1.9947-0.4956,2.994
			c-0.168,0.5561,0.5325,0.8927,0.9268,0.5395c2.8022-2.5107,5.8691-4.7055,8.7029-7.1814
			C331.646,215.4121,331.6048,215.0063,331.3533,214.8898z"/>
		<path class="st9" d="M317.733,230.0244c-0.1384,0.0216-0.2195,0.1115-0.2605,0.2212c-0.0437-0.5419-0.209-1.0509-0.4897-1.5051
			c1.3525-0.3202,2.73-0.6615,4.0527-1.0663c0.3938-0.1205,0.3992-0.7305,0.0491-0.8417c0.001-0.0956-0.0276-0.1954-0.1079-0.2873
			c-0.6904-0.7909-1.3923-1.7019-2.1829-2.4617c1.7134,0.4827,3.438,0.7811,5.1987,1.0877
			c1.4707,0.2561,3.2749,0.4375,4.7517,0.9504c-2.2676,1.9101-4.7019,3.6132-6.9983,5.4905
			c0.103-0.7046,0.1299-1.4141,0.0391-2.1682c-0.0239-0.2003-0.1404-0.3311-0.2815-0.3997
			c-0.1018-0.1717-0.313-0.2745-0.5413-0.1426C319.9491,229.4878,318.8871,229.8436,317.733,230.0244z M329.8519,225.5858
			c-1.4536-0.6737-3.2305-0.7627-4.7969-1.043c-2.2646-0.4053-4.5298-0.7777-6.7422-1.4221
			c-0.2124-0.062-0.366,0.0457-0.4395,0.1975c-0.0242-0.0167-0.0454-0.0396-0.0698-0.0559
			c-0.3455-0.2324-0.7678,0.2217-0.561,0.5612c0.3816,0.6271,0.9512,1.142,1.4556,1.6708c0.4709,0.4939,0.9717,0.9597,1.4668,1.4298
			c-1.2751,0.1974-2.5767,0.5509-3.7515,1.0148c-0.0303,0.0119-0.0498,0.0316-0.0756,0.0471
			c-0.3792-0.1779-0.8172,0.3357-0.481,0.7022c0.4761,0.5189,0.7007,1.1537,0.7119,1.8538c0.009,0.5703,0.8323,0.5925,0.916,0.0757
			c0.062,0.1347,0.1846,0.2343,0.3582,0.2183c1.052-0.0974,2.0459-0.4077,2.9651-0.9027c-0.0598,1.0248-0.1936,1.9947-0.4956,2.994
			c-0.168,0.5561,0.5325,0.8927,0.9268,0.5395c2.8022-2.5107,5.8691-4.7055,8.7029-7.1814
			C330.1446,226.1081,330.1034,225.7024,329.8519,225.5858z"/>
		<path class="st9" d="M314.7697,240.1593c-0.1384,0.0216-0.2195,0.1115-0.2605,0.2212c-0.0437-0.5419-0.209-1.0509-0.4897-1.5051
			c1.3525-0.3202,2.73-0.6615,4.0527-1.0663c0.3938-0.1205,0.3992-0.7305,0.0491-0.8417c0.001-0.0956-0.0276-0.1954-0.1079-0.2872
			c-0.6904-0.7909-1.3923-1.7019-2.1829-2.4617c1.7134,0.4827,3.438,0.7811,5.1987,1.0877
			c1.4707,0.2561,3.2749,0.4375,4.7517,0.9504c-2.2676,1.91-4.7019,3.6132-6.9983,5.4905c0.103-0.7046,0.1299-1.4141,0.0391-2.1682
			c-0.0239-0.2003-0.1404-0.3311-0.2815-0.3998c-0.1018-0.1717-0.313-0.2745-0.5413-0.1426
			C316.9858,239.6227,315.9238,239.9785,314.7697,240.1593z M326.8886,235.7207c-1.4536-0.6737-3.2305-0.7627-4.7969-1.043
			c-2.2646-0.4053-4.5298-0.7777-6.7422-1.4221c-0.2124-0.062-0.366,0.0457-0.4395,0.1975
			c-0.0242-0.0167-0.0454-0.0396-0.0698-0.0559c-0.3455-0.2324-0.7678,0.2217-0.561,0.5612
			c0.3816,0.6271,0.9512,1.142,1.4556,1.6708c0.4709,0.4939,0.9717,0.9597,1.4668,1.4298
			c-1.2751,0.1974-2.5767,0.5509-3.7515,1.0148c-0.0303,0.0119-0.0498,0.0316-0.0757,0.0471
			c-0.3792-0.1779-0.8172,0.3357-0.481,0.7022c0.4761,0.5189,0.7007,1.1537,0.7119,1.8538c0.009,0.5703,0.8323,0.5925,0.916,0.0757
			c0.062,0.1348,0.1846,0.2344,0.3582,0.2183c1.052-0.0974,2.0459-0.4077,2.9651-0.9027c-0.0598,1.0248-0.1936,1.9947-0.4956,2.994
			c-0.168,0.5561,0.5325,0.8927,0.9268,0.5395c2.8022-2.5107,5.8691-4.7056,8.7029-7.1814
			C327.1813,236.2431,327.1401,235.8373,326.8886,235.7207z"/>
		<path class="st9" d="M310.0453,249.6081c-0.1384,0.0216-0.2195,0.1115-0.2605,0.2212c-0.0437-0.5419-0.209-1.0509-0.4897-1.5051
			c1.3525-0.3202,2.73-0.6615,4.0527-1.0663c0.3938-0.1205,0.3992-0.7305,0.0491-0.8417c0.001-0.0956-0.0276-0.1954-0.1079-0.2872
			c-0.6904-0.7909-1.3923-1.7019-2.1829-2.4617c1.7134,0.4827,3.438,0.781,5.1987,1.0877c1.4707,0.2561,3.2749,0.4375,4.7517,0.9504
			c-2.2676,1.91-4.7019,3.6132-6.9983,5.4905c0.103-0.7046,0.1299-1.4141,0.0391-2.1682c-0.0239-0.2003-0.1404-0.3311-0.2815-0.3998
			c-0.1018-0.1717-0.313-0.2745-0.5413-0.1426C312.2614,249.0715,311.1994,249.4273,310.0453,249.6081z M322.1642,245.1695
			c-1.4536-0.6737-3.2305-0.7627-4.7969-1.043c-2.2646-0.4053-4.5298-0.7777-6.7422-1.4221
			c-0.2124-0.062-0.366,0.0457-0.4395,0.1975c-0.0242-0.0167-0.0454-0.0396-0.0698-0.0559
			c-0.3455-0.2324-0.7678,0.2217-0.561,0.5612c0.3816,0.6271,0.9512,1.142,1.4556,1.6708c0.4709,0.4939,0.9717,0.9597,1.4668,1.4298
			c-1.2751,0.1974-2.5767,0.5509-3.7515,1.0148c-0.0303,0.0119-0.0498,0.0316-0.0757,0.0471
			c-0.3792-0.1779-0.8172,0.3357-0.481,0.7022c0.4761,0.5189,0.7007,1.1537,0.7119,1.8538c0.009,0.5703,0.8323,0.5925,0.916,0.0757
			c0.062,0.1348,0.1846,0.2344,0.3582,0.2183c1.052-0.0974,2.0459-0.4077,2.9651-0.9027c-0.0598,1.0248-0.1936,1.9947-0.4956,2.994
			c-0.168,0.5561,0.5325,0.8927,0.9268,0.5395c2.8022-2.5107,5.8691-4.7056,8.7029-7.1814
			C322.457,245.6919,322.4157,245.2861,322.1642,245.1695z"/>
		<path class="st9" d="M303.2607,258.2456c-0.1384,0.0216-0.2195,0.1115-0.2605,0.2212c-0.0437-0.5419-0.209-1.0509-0.4897-1.5051
			c1.3525-0.3202,2.73-0.6615,4.0527-1.0663c0.3938-0.1205,0.3992-0.7305,0.0491-0.8417c0.001-0.0956-0.0276-0.1954-0.1079-0.2872
			c-0.6904-0.7909-1.3923-1.7019-2.1829-2.4617c1.7134,0.4827,3.438,0.781,5.1987,1.0877c1.4707,0.2561,3.2749,0.4375,4.7517,0.9504
			c-2.2676,1.91-4.7019,3.6132-6.9983,5.4905c0.103-0.7046,0.1299-1.4141,0.0391-2.1682c-0.0239-0.2003-0.1404-0.3311-0.2815-0.3998
			c-0.1018-0.1718-0.313-0.2745-0.5413-0.1426C305.4768,257.709,304.4148,258.0648,303.2607,258.2456z M315.3796,253.807
			c-1.4536-0.6737-3.2305-0.7627-4.7969-1.043c-2.2646-0.4053-4.5298-0.7777-6.7422-1.4221
			c-0.2124-0.062-0.366,0.0457-0.4395,0.1975c-0.0242-0.0167-0.0454-0.0396-0.0698-0.0559
			c-0.3455-0.2324-0.7678,0.2217-0.561,0.5612c0.3816,0.6271,0.9512,1.142,1.4556,1.6708c0.4709,0.4939,0.9717,0.9597,1.4668,1.4298
			c-1.2751,0.1974-2.5767,0.5509-3.7515,1.0148c-0.0303,0.012-0.0498,0.0316-0.0757,0.0471
			c-0.3792-0.1779-0.8172,0.3357-0.481,0.7021c0.4761,0.5189,0.7007,1.1537,0.7119,1.8538c0.009,0.5703,0.8323,0.5925,0.916,0.0757
			c0.062,0.1348,0.1846,0.2344,0.3582,0.2183c1.052-0.0974,2.0459-0.4077,2.9651-0.9027c-0.0598,1.0248-0.1936,1.9948-0.4956,2.994
			c-0.168,0.5562,0.5325,0.8927,0.9268,0.5396c2.8022-2.5107,5.8691-4.7056,8.7029-7.1814
			C315.6724,254.3293,315.6311,253.9236,315.3796,253.807z"/>
		<path class="st9" d="M294.1167,265.9467c-0.1384,0.0216-0.2195,0.1115-0.2605,0.2212c-0.0437-0.5419-0.209-1.0509-0.4897-1.5051
			c1.3525-0.3202,2.73-0.6615,4.0527-1.0663c0.3938-0.1205,0.3992-0.7305,0.0491-0.8417c0.001-0.0956-0.0276-0.1954-0.1079-0.2872
			c-0.6904-0.7909-1.3923-1.7019-2.1829-2.4617c1.7134,0.4827,3.438,0.781,5.1987,1.0876c1.4707,0.2561,3.2749,0.4375,4.7517,0.9504
			c-2.2676,1.91-4.7019,3.6132-6.9983,5.4905c0.103-0.7046,0.1299-1.4141,0.0391-2.1682c-0.0239-0.2003-0.1404-0.3311-0.2815-0.3998
			c-0.1018-0.1718-0.313-0.2745-0.5413-0.1426C296.3328,265.41,295.2708,265.7659,294.1167,265.9467z M306.2356,261.5081
			c-1.4536-0.6737-3.2305-0.7627-4.7969-1.043c-2.2646-0.4053-4.5298-0.7777-6.7422-1.4221
			c-0.2124-0.062-0.366,0.0457-0.4395,0.1975c-0.0242-0.0167-0.0454-0.0396-0.0698-0.0559
			c-0.3455-0.2324-0.7678,0.2217-0.561,0.5612c0.3816,0.6271,0.9512,1.142,1.4556,1.6708c0.4709,0.4939,0.9717,0.9597,1.4668,1.4298
			c-1.2751,0.1974-2.5767,0.5509-3.7515,1.0148c-0.0303,0.012-0.0498,0.0316-0.0757,0.0471
			c-0.3792-0.1779-0.8171,0.3357-0.481,0.7021c0.4761,0.5189,0.7007,1.1537,0.7119,1.8538c0.009,0.5703,0.8323,0.5925,0.916,0.0757
			c0.062,0.1348,0.1846,0.2344,0.3582,0.2183c1.052-0.0974,2.0459-0.4077,2.9651-0.9027c-0.0598,1.0248-0.1936,1.9948-0.4956,2.994
			c-0.168,0.5562,0.5325,0.8927,0.9268,0.5396c2.8022-2.5107,5.8691-4.7056,8.7029-7.1814
			C306.5284,262.0304,306.4871,261.6246,306.2356,261.5081z"/>
	</g>
	<g>
		<g>
			<g>
				<path class="st9" d="M57.5056,171.7025c1.0549-5.59,1.8342-11.2219,2.6054-16.8561c-0.2947,0-0.5895,0-0.8842,0
					c0.5085,2.1909,1.8532,3.9014,3.337,5.5413c1.9968,2.207,3.8128,4.4286,5.5626,6.8404
					c0.3527,0.4861,1.1172,0.0687,0.8196-0.4791c-2.3939-4.4061-7.2372-7.3721-8.835-12.1464
					c-0.1709-0.5106-0.8455-0.3849-0.9006,0.1219c-0.6116,5.6191-1.5259,11.196-2.4732,16.7662
					C56.6523,171.9899,57.41,172.2094,57.5056,171.7025L57.5056,171.7025z"/>
			</g>
		</g>
		<g>
			<g>
				<path class="st9" d="M57.6468,172.6023c1.3398-1.205,2.3765-2.8746,3.4401-4.322c0.28-0.3811-0.3492-0.8682-0.658-0.5077
					c-1.1702,1.3662-2.5548,2.7501-3.4263,4.3327C56.7741,172.5203,57.3016,172.9128,57.6468,172.6023L57.6468,172.6023z"/>
			</g>
		</g>
		<g>
			<g>
				<path class="st9" d="M63.8702,167.3121c1.4081-0.201,2.7846-0.2151,4.1923,0.0041c0.6181,0.0963,0.9028-0.8181,0.2648-0.9605
					c-1.5532-0.3468-3.1589-0.337-4.6954,0.0919C63.0602,166.6073,63.3154,167.3913,63.8702,167.3121L63.8702,167.3121z"/>
			</g>
		</g>
		<g>
			<g>
				<path class="st9" d="M60.7599,167.829c0.4555,1.7756,1.2279,3.5948,2.1073,5.202c0.2422,0.4426,1.0314,0.1372,0.8353-0.3522
					c-0.6932-1.7301-1.3848-3.4851-2.1448-5.1862C61.3513,167.0304,60.6408,167.3645,60.7599,167.829L60.7599,167.829z"/>
			</g>
		</g>
		<g>
			<g>
				<path class="st9" d="M63.2581,167.3707c0.857,1.0886,1.4563,2.3015,1.8464,3.6278c0.1501,0.5105,0.92,0.2981,0.7967-0.2196
					c-0.3547-1.489-1.0672-2.8304-2.063-3.9883C63.4884,166.384,62.9389,166.9652,63.2581,167.3707L63.2581,167.3707z"/>
			</g>
		</g>
		<g>
			<g>
				<path class="st9" d="M63.6324,173.5536c0.5837-0.7187,1.3592-1.1302,2.2715-1.2631c0.5138-0.0748,0.3978-0.9809-0.1238-0.915
					c-1.1638,0.147-2.1207,0.7198-2.8286,1.6527C62.6564,173.4168,63.322,173.9357,63.6324,173.5536L63.6324,173.5536z"/>
			</g>
		</g>
	</g>
	<g>
		<g>
			<g>
				<path class="st9" d="M60.504,193.8291c-2.4898-5.1182-5.2263-10.1059-7.9697-15.0906c-0.24,0.1852-0.4801,0.3704-0.7201,0.5556
					c1.7184,1.4572,3.779,2.0466,5.9612,2.4801c2.9643,0.5888,5.784,1.3024,8.67,2.2054c0.5031,0.1574,0.8608-0.6401,0.3657-0.8675
					c-4.5959-2.1106-10.2651-1.6277-14.4412-4.5381c-0.388-0.2704-0.8483,0.251-0.6273,0.6273
					c2.8814,4.9072,5.493,9.9606,8.0734,15.03C60.0496,194.6903,60.7269,194.2872,60.504,193.8291L60.504,193.8291z"/>
			</g>
		</g>
		<g>
			<g>
				<path class="st9" d="M61.1713,194.5732c0.3324-1.7885,0.2055-3.7126,0.195-5.5241c-0.0031-0.5442-0.801-0.5334-0.8379,0
					c-0.1223,1.769-0.3755,3.6484-0.1628,5.4151C60.4156,194.8788,61.0787,195.0714,61.1713,194.5732L61.1713,194.5732z"/>
			</g>
		</g>
		<g>
			<g>
				<path class="st9" d="M62.9834,186.6066c1.041-1.0393,2.1689-1.8921,3.4746-2.5734c0.579-0.3021,0.0705-1.1132-0.5027-0.8601
					c-1.4509,0.6405-2.7094,1.6341-3.6758,2.8903C61.9639,186.4736,62.6326,186.9569,62.9834,186.6066L62.9834,186.6066z"/>
			</g>
		</g>
		<g>
			<g>
				<path class="st9" d="M60.7922,188.8003c1.4247,1.163,3.1138,2.1597,4.7832,2.9272c0.5261,0.2419,0.9721-0.4757,0.4613-0.7893
					c-1.5533-0.9535-3.1231-1.9396-4.7156-2.8235C60.9059,187.8842,60.3942,188.4755,60.7922,188.8003L60.7922,188.8003z"/>
			</g>
		</g>
		<g>
			<g>
				<path class="st9" d="M62.5144,186.9674c1.3756,0.373,2.605,0.9951,3.7412,1.8511c0.3719,0.2802,0.8596-0.3479,0.5006-0.6488
					c-1.1731-0.9833-2.5308-1.6576-4.0237-1.9933C62.2195,186.061,62.0022,186.8285,62.5144,186.9674L62.5144,186.9674z"/>
			</g>
		</g>
		<g>
			<g>
				<path class="st9" d="M66.5574,191.6532c0.0388-0.8783,0.4083-1.6448,1.0267-2.263c0.425-0.4249-0.2265-1.0747-0.6588-0.6588
					c-0.8017,0.7712-1.223,1.8132-1.2351,2.9217C65.684,192.2134,66.5328,192.2088,66.5574,191.6532L66.5574,191.6532z"/>
			</g>
		</g>
	</g>
	<g>
		<g>
			<g>
				<path class="st9" d="M57.2158,233.044c0.3276-5.6819,0.376-11.3703,0.417-17.0596c-0.3002,0.0406-0.6004,0.0813-0.9006,0.1219
					c0.7936,2.181,2.4021,3.7323,4.1424,5.2056c2.2551,1.9091,4.3058,3.882,6.3347,6.0302
					c0.3615,0.3827,1.0669-0.1314,0.7454-0.5751c-2.9717-4.1023-8.1623-6.4242-10.3845-11.0139
					c-0.2016-0.4164-0.8634-0.2059-0.8544,0.2314c0.1173,5.6897-0.0723,11.3753-0.2968,17.0596
					C56.3986,233.5584,57.1864,233.5534,57.2158,233.044L57.2158,233.044z"/>
			</g>
		</g>
		<g>
			<g>
				<path class="st9" d="M57.4328,234.0135c1.174-1.3824,1.9933-3.1387,2.8665-4.7199c0.2623-0.475-0.4292-0.8727-0.7235-0.4229
					c-0.9901,1.5132-2.1545,3.0579-2.8285,4.7437C56.5959,233.993,57.1757,234.3163,57.4328,234.0135L57.4328,234.0135z"/>
			</g>
		</g>
		<g>
			<g>
				<path class="st9" d="M62.9046,227.9463c1.4181-0.3928,2.8094-0.5865,4.2822-0.5491c0.6499,0.0165,0.6282-0.939,0-0.9961
					c-1.5888-0.1444-3.1597,0.1042-4.6276,0.726C62.085,227.3279,62.4265,228.0787,62.9046,227.9463L62.9046,227.9463z"/>
			</g>
		</g>
		<g>
			<g>
				<path class="st9" d="M59.9228,228.7868c0.6755,1.7114,1.6619,3.4064,2.7442,4.8922c0.3396,0.4663,1.0828,0.0635,0.7893-0.4613
					c-0.8896-1.5907-1.7778-3.218-2.7356-4.7672C60.4726,228.0493,59.734,228.3083,59.9228,228.7868L59.9228,228.7868z"/>
			</g>
		</g>
		<g>
			<g>
				<path class="st9" d="M62.32,228.0293c1.0184,0.9948,1.7906,2.142,2.3615,3.4436c0.1861,0.4243,0.9207,0.12,0.755-0.3183
					c-0.5405-1.4299-1.3975-2.6859-2.5364-3.7053C62.5091,227.0993,61.9394,227.6575,62.32,228.0293L62.32,228.0293z"/>
			</g>
		</g>
		<g>
			<g>
				<path class="st9" d="M63.5568,234.1018c0.4616-0.7475,1.1603-1.2428,2.0025-1.4793c0.5768-0.1619,0.3341-1.0497-0.2477-0.8984
					c-1.0725,0.279-1.9545,0.9809-2.5037,1.94C62.5297,234.15,63.2637,234.5763,63.5568,234.1018L63.5568,234.1018z"/>
			</g>
		</g>
	</g>
	<g>
		<g>
			<path class="st9" d="M365.4325,106.867c-1.1735,16.2454-1.4647,32.5638-0.7802,48.8382c0.0316,0.7508,1.1984,0.7562,1.1719,0
				c-0.571-16.2884-0.4059-32.569,0.5869-48.8382C366.4495,106.2365,365.4776,106.2429,365.4325,106.867L365.4325,106.867z"/>
		</g>
	</g>
	<g>
		<g>
			<path class="st9" d="M368.447,105.1625c9.3637,13.0919,20.0073,25.2698,31.7279,36.3011
				c0.5239,0.4931,1.312-0.2901,0.7914-0.7914c-11.5501-11.1209-22.1362-23.1236-31.7249-35.9741
				C368.8934,104.232,368.0992,104.6763,368.447,105.1625L368.447,105.1625z"/>
		</g>
	</g>
	<g>
		<g>
			<path class="st9" d="M362.4277,104.8112c-0.3967,16.2595-0.1891,32.5809-0.0498,48.8439c0.0058,0.6748,1.043,0.6759,1.0488,0
				c0.1394-16.263,0.3469-32.5844-0.0498-48.8439C363.362,104.2005,362.4426,104.1995,362.4277,104.8112L362.4277,104.8112z"/>
		</g>
	</g>
	<g>
		<g>
			<path class="st9" d="M396.8234,143.9669c2.14,0.253,4.208,0.0437,6.2351-0.6902c0.5873-0.2126,0.3506-1.1411-0.2617-0.9492
				c-1.9523,0.612-3.9371,0.8422-5.9734,0.6375C396.1784,142.9001,396.1933,143.8924,396.8234,143.9669L396.8234,143.9669z"/>
		</g>
	</g>
	<g>
		<g>
			<path class="st9" d="M343.8911,112.1612c13.2232-3.1562,26.4897-6.2391,39.6199-9.7649
				c0.6719-0.1804,0.3886-1.1945-0.2866-1.0396c-13.2499,3.0385-26.4127,6.5317-39.5716,9.9401
				C343.0937,111.4416,343.33,112.2952,343.8911,112.1612L343.8911,112.1612z"/>
		</g>
	</g>
	<g>
		<g>
			<path class="st9" d="M383.259,101.4145c0.366-0.3527,0.6479-0.5058,0.8625-1.0147c0.2013-0.4771,0.3073-0.9908,0.3042-1.5099
				c-0.0061-1.0229-0.3914-2.0275-1.1601-2.7139c-1.5403-1.3755-4.136-1.2043-5.4445,0.4068
				c-0.4266,0.5253,0.289,1.2796,0.7582,0.7582c0.9695-1.0774,2.8631-1.4253,3.9012-0.2088
				c0.4616,0.541,0.6732,1.2989,0.6207,1.9998c-0.0384,0.5127-0.2577,1.3117-0.5692,1.7215
				C382.2059,101.2825,382.8933,101.7668,383.259,101.4145L383.259,101.4145z"/>
		</g>
	</g>
	<g>
		<g>
			<path class="st9" d="M348.1258,105.237c-0.0065-0.0825-0.0129-0.1649-0.0193-0.2474c-0.0153-0.1959-0.1303-0.3913-0.3349-0.4398
				c-0.778-0.1844-1.7176,0.3885-1.3256,1.2838c0.8719,1.9914,5.8607-0.5067,7.0643-0.8665
				c8.1946-2.4497,16.3837-4.9194,24.5588-7.4334c0.7183-0.2209,0.4146-1.3465-0.3116-1.13
				c-5.0441,1.5036-10.0811,3.0297-15.1161,4.5632c-1.3004,0.396-15.3715,4.5622-15.396,4.3893
				C347.3158,105.8528,348.1651,105.7395,348.1258,105.237L348.1258,105.237z"/>
		</g>
	</g>
	<g>
		<g>
			<path class="st9" d="M347.4496,103.9725c18.5473-6.3111,37.0789-12.6693,55.5945-19.0726
				c0.6339-0.2192,0.3621-1.2318-0.2788-1.0114c-18.5301,6.3739-37.045,12.7931-55.5432,19.259
				C346.7065,103.3279,346.9254,104.1509,347.4496,103.9725L347.4496,103.9725z"/>
		</g>
	</g>
	<g>
		<g>
			<path class="st9" d="M342.0333,102.6755c18.0996-5.0816,35.9568-11.1393,53.5746-17.6864c0.6966-0.2588,0.3976-1.384-0.31-1.1244
				c-17.6732,6.4845-35.5514,12.2771-53.5341,17.8333C341.1429,101.8898,341.4018,102.8527,342.0333,102.6755L342.0333,102.6755z"/>
		</g>
	</g>
	<g>
		<g>
			<path class="st9" d="M396.7782,82.83c1.6004-2.1625,2.8805-4.5703,4.2215-6.8994c0.2286-0.397-0.0547-1.0273-0.5626-0.9804
				c-3.8315,0.3541-7.5487,1.2995-11.1121,2.7503c0.1863,0.3201,0.3726,0.6401,0.559,0.9602
				c4.4613-4.3198,10.1558-6.8565,16.3568-7.241c-0.2011-0.2011-0.4023-0.4022-0.6034-0.6033
				c0.0897,0.798,0.1475,1.5656,0.0704,2.3688c-0.0832,0.4659-0.1664,0.9319-0.2497,1.3978
				c-0.1098,1.2468-0.7301,1.1745-1.8609-0.2168c-0.1579-0.5596-1.0221-0.5902-1.1645,0c-0.4308,1.7855-0.2949,3.4905,0.4792,5.1696
				c0.3579,0.7764,0.8269,1.4962,1.4161,2.1159c0.2625,0.2762,0.6506,0.4907,0.8694,0.7851
				c1.1685,1.5725-2.3344,0.6475-1.7559-0.3218c0.3445-0.5772-0.5183-1.0607-0.8904-0.5205
				c-1.6329,2.3706,1.3829,4.6311,3.3354,2.6164c0.6269-0.6468,0.9677-1.7017,0.3851-2.4454
				c-0.4908-0.6265-1.3085-0.8491-1.8245-1.598c-1.1421-1.6574-1.3146-3.5614-0.8498-5.4803c-0.3882,0-0.7764,0-1.1645,0
				c0.4159,1.4791,1.5417,2.3077,3.0887,2.156c0.2951-0.0289,0.4763-0.1734,0.5836-0.4444c0.7298-1.8417,0.9651-3.6101,0.739-5.5824
				c-0.0352-0.3075-0.2481-0.6262-0.6033-0.6033c-6.5163,0.4187-12.5021,3.0633-17.1692,7.6353
				c-0.3839,0.3761,0.007,1.1819,0.5589,0.9602c3.5022-1.4071,7.047-2.2193,10.8066-2.5551
				c-0.1875-0.3268-0.3751-0.6536-0.5626-0.9804c-1.3485,2.3255-2.7952,4.637-3.8704,7.1046
				C395.7733,82.9073,396.4319,83.2979,396.7782,82.83L396.7782,82.83z"/>
		</g>
	</g>
	<g>
		<g>
			<path class="st9" d="M344.4579,100.3772c-1.4024-1.1751-2.2734-3.3945-4.0405-4.0869c-1.5448-0.6053-4.1484,0.1791-5.591,0.7773
				c-3.6551,1.5156-4.5581,7.1784-4.4286,10.6351c0.1019,2.7195,0.7812,5.3952,1.6964,7.9463
				c0.7985,2.226,1.7037,5.6124,3.2506,7.3979c1.2434,1.4351,3.4468,0.5229,5.0117,0.1749
				c3.2715-0.7276,6.4604-1.7378,9.5737-2.9753c0.3355-0.1334,0.6507-0.5702,0.379-0.9315
				c-1.9306-2.5675-2.0458-5.2673-1.1304-8.2522c0.1756-0.5726-0.6902-0.9488-0.9746-0.4109
				c-1.5875,3.0034-0.9706,6.6436,1.0098,9.3032c0.1263-0.3105,0.2527-0.621,0.379-0.9315
				c-1.9833,0.7803-3.9869,1.4903-6.0374,2.075c-1.6303,0.4649-3.6341,1.2914-5.3245,1.2654
				c-2.4216-0.0373-2.4966-1.3049-3.2729-3.0436c-0.4669-1.0459-0.9266-2.0958-1.3389-3.1646
				c-0.6949-1.8013-1.2958-3.6431-1.658-5.5424c-0.6925-3.6305-0.6787-8.9183,2.2368-11.689
				c1.2796-1.216,4.9351-2.2425,6.5423-1.1433c1.1923,0.8154,1.8828,2.3721,3.0215,3.2923
				C344.2477,101.4659,344.9471,100.787,344.4579,100.3772L344.4579,100.3772z"/>
		</g>
	</g>
	<g>
		<g>
			<path class="st9" d="M338.7951,102.8561c0.0192,0.1053,0.0383,0.2106,0.0575,0.3158c-0.1587-0.1208-0.3173-0.2416-0.476-0.3624
				c0.0933,0.4979-0.7672,1.3306-0.9975,1.7784c-0.229,0.4453-0.3681,0.9241-0.4353,1.4199
				c-0.1378,1.0171,0.0365,2.0516,0.4435,2.9899c0.8109,1.8693,2.4285,3.1453,4.4903,3.2169c0.8548,0.0297,0.838-1.2569,0-1.3184
				c-1.8944-0.1388-3.3139-1.8359-3.5471-3.66c-0.1118-0.8745,0.0306-1.7047,0.5117-2.4531
				c0.4665-0.7259,0.9273-1.0557,0.8453-1.9572c-0.0308-0.3376-0.2727-0.6658-0.6494-0.6493
				c-0.5454,0.0238-0.9384,0.2483-1.1351,0.7604c-0.0738,0.192,0.0526,0.3975,0.2044,0.5023
				c0.0517,0.0357,0.1034,0.0713,0.1551,0.107C338.6681,103.8261,339.1908,103.163,338.7951,102.8561L338.7951,102.8561z"/>
		</g>
	</g>
	<g>
		<g>
			<path class="st9" d="M337.3534,96.5169c-3.1256,1.1356-6.6756,1.5151-9.9414,2.0444c-3.7904,0.6143-7.3419,0.5693-10.2967,3.2924
				c-3.053,2.8138-4.4878,5.8104-3.9658,9.9774c0.2525,2.0155,0.7507,3.9966,1.1108,5.9943
				c0.4843,2.6874,0.8964,5.4804,1.5718,8.1244c0.1891,0.7402,1.3082,0.4268,1.1413-0.3146
				c-0.5129-2.2788-0.7426-4.6188-1.2322-6.9102c-0.3857-1.8052-0.7339-3.6454-1.0595-5.4628
				c-0.4652-2.5958-0.7285-5.0991,0.6994-7.4435c1.0032-1.647,2.731-3.5213,4.4254-4.476c1.564-0.8812,3.4391-0.8582,5.1761-1.1342
				c1.7108-0.2718,3.4201-0.5537,5.1247-0.8618c2.5416-0.4593,5.2819-0.7925,7.6141-1.957
				C338.1995,97.151,337.865,96.331,337.3534,96.5169L337.3534,96.5169z"/>
		</g>
	</g>
	<g>
		<g>
			<path class="st9" d="M313.2992,110.9735c-3.1734,0.9852-6.7,2.0229-9.5141,3.8582c-0.8166,0.5326-1.7954,1.2525-2.015,2.2763
				c-0.1501,0.6997,0.254,0.9797,0.2106,1.5852c-0.1251,1.7423-0.8069,1.8871-2.0754,2.4535
				c-8.7881,3.9243-17.745,7.6068-26.354,11.9092c-0.2136,0.1067-0.2812,0.3687-0.2376,0.5838
				c0.7899,3.8916,1.6119,7.7766,2.4231,11.6639c0.0726,0.3479,0.5295,0.5184,0.8211,0.334
				c5.9989-3.7927,11.9456-7.6794,17.7618-11.748c2.8618-2.0019,6.0321-3.9107,8.6512-6.223
				c0.4363-0.3852,0.9686-0.6969,1.1887-1.2775c0.352-0.9285-0.64-2.4318-0.1816-3.086c0.3176-0.4532-0.4126-0.8586-0.7336-0.4288
				c-0.3792,0.5077-0.3417,0.5198-0.2928,1.1792c0.0858,1.1574,0.9916,0.9683-0.0224,2.3981
				c-0.4118,0.5807-1.4427,1.0523-2.0396,1.474c-2.7656,1.9541-5.5637,3.8624-8.3563,5.7774
				c-5.4568,3.742-10.9659,7.4036-16.5397,10.9692c0.2737,0.1114,0.5474,0.2227,0.8211,0.3341
				c-0.8312-3.8813-1.6516-7.7649-2.504-11.6415c-0.1204,0.212-0.2407,0.424-0.3611,0.636
				c8.3921-3.3252,16.5688-7.2663,24.8089-10.9518c1.3071-0.5846,3.5616-1.0811,4.4494-2.3135
				c0.6613-0.918,0.2213-1.9578,0.2503-3.0015c0.0419-1.5069,0.8645-1.7963,2.0948-2.437c0.9474-0.4934,1.936-0.9075,2.9271-1.3031
				c1.6915-0.6751,3.4182-1.264,5.14-1.8564C314.3476,111.8871,314.0478,110.7411,313.2992,110.9735L313.2992,110.9735z"/>
		</g>
	</g>
	<g>
		<g>
			<path class="st9" d="M306.2503,123.6794c3.2239-0.7877,6.3849-1.559,9.2187-3.348c0.6007-0.3792,0.0502-1.3327-0.5589-0.9562
				c-2.8026,1.7322-5.8462,2.3254-8.9184,3.3663C305.4024,122.9411,305.6371,123.8292,306.2503,123.6794L306.2503,123.6794z"/>
		</g>
	</g>
	<g>
		<g>
			<path class="st9" d="M306.0635,131.6565c2.1825-0.3931,4.3726-0.7252,6.572-1.0085c0.3309-0.0426,0.6032-0.2445,0.6089-0.6089
				c0.0384-2.4583,0.2258-5.0174-0.024-7.4639c-0.0718-0.7027-1.0111-0.6978-1.0898,0c-0.2758,2.4444-0.116,5.0046-0.1039,7.4639
				c0.149-0.1957,0.298-0.3914,0.447-0.5871c-2.2404,0.3352-4.4526,0.7854-6.6501,1.3344
				C305.2527,130.929,305.5002,131.7579,306.0635,131.6565L306.0635,131.6565z"/>
		</g>
	</g>
	<g>
		<g>
			<path class="st9" d="M306.0647,124.2591c0.139,0.3344,0.0649,0.4804-0.2224,0.4379c0.0319,0.1204,0.0502,0.2429,0.0547,0.3674
				c0.0318,0.2415,0.0445,0.4851,0.1117,0.7209c0.1165,0.4088,0.3221,0.7881,0.5812,1.1225
				c0.5887,0.7595,1.3857,1.1611,2.333,1.2698c0.7142,0.082,0.879-1.1255,0.1706-1.2603c-0.7417-0.1411-1.4254-0.6009-1.7259-1.3155
				c-0.264-0.6278-0.1064-1.3954-0.6583-1.8928c-1.0186-0.918-2.4022,0.8129-1.2802,1.3738
				C305.9255,125.3309,306.5616,124.6478,306.0647,124.2591L306.0647,124.2591z"/>
		</g>
	</g>
	<g>
		<g>
			<path class="st9" d="M300.89,128.8118c-0.1097,1.6197-0.1631,3.2329-0.1046,4.8559c0.0276,0.7663-0.1878,2.3333,0.2806,3.0034
				c0.8678,1.2412,3.5161-0.0496,4.5827-0.3978c1.6354-0.5338,1.365-1.5646,1.1233-3.1621
				c-0.4163-2.7513-1.2658-5.5838-2.7492-7.9551c-0.3988-0.6376-1.2617-0.0827-0.9815,0.5737
				c0.6733,1.5776,1.3902,3.1155,1.8595,4.7708c0.2057,0.7255,0.3782,1.4638,0.5144,2.2055
				c0.0883,0.4671,0.1582,0.937,0.2095,1.4096c0.2922,0.6259,0.0657,0.9751-0.6797,1.0475
				c-0.3198,0.2142-1.9645,0.6848-2.2227,0.5919c-0.9124-0.328-0.7266-1.2951-0.7755-2.0874
				c-0.0997-1.6163-0.128-3.2369-0.1076-4.8559C301.847,128.1957,300.9309,128.2077,300.89,128.8118L300.89,128.8118z"/>
		</g>
	</g>
	<g>
		<g>
			<path class="st9" d="M365.0107,154.6398c1.4155-0.0061,3.4983-0.2954,4.8296,0.2538c1.0037-0.0198,1.0893,0.1664,0.2568,0.5584
				c-0.3533,0.2854-0.7334,0.5289-1.1402,0.7305c-0.7556,0.3967-1.6061,0.6641-2.4278,0.8785
				c-1.5789,0.412-3.208,0.5418-4.8356,0.5075c-0.7081-0.0149-1.414-0.0617-2.1186-0.1333c-1.3338-0.1356-2.722-0.6765-0.32-1.3498
				c0.7304-0.2047,0.4114-1.229-0.3069-1.1131c-1.533,0.2476-4.2412,1.9081-1.977,3.3004c1.0256,0.6307,3.1556,0.5782,4.2983,0.6173
				c1.8834,0.0643,3.7818-0.0877,5.6093-0.561c1.151-0.2981,5.7151-1.71,5.1258-3.7339c-0.5788-1.9879-5.7388-1.24-7.1418-1.0488
				C364.232,153.6324,364.3985,154.6424,365.0107,154.6398L365.0107,154.6398z"/>
		</g>
	</g>
</g>
</svg>
