<?xml version="1.0" encoding="utf-8"?>
<!-- Generator: Adobe Illustrator 20.1.0, SVG Export Plug-In . SVG Version: 6.00 Build 0)  -->
<svg version="1.1" xmlns="http://www.w3.org/2000/svg" xmlns:xlink="http://www.w3.org/1999/xlink" x="0px" y="0px"
	 viewBox="0 0 44 82" style="enable-background:new 0 0 44 82;" xml:space="preserve">
<style type="text/css">
	.st0{fill:none;stroke:#F7FAFC;stroke-width:39.9968;stroke-linecap:round;stroke-linejoin:round;}
	.st1{fill:none;stroke:#F2F6F9;stroke-width:39.9968;stroke-linecap:round;stroke-linejoin:round;}
	.st2{fill:#F7FAFC;}
	.st3{fill:#F2F6F9;}
	.st4{fill:#FFFFFF;}
	.st5{fill:#FCE0DE;}
	.st6{fill:#E6E6E6;}
	.st7{fill:#FFEFAF;}
	.st8{fill:#E93A1D;}
	.st9{fill:#303030;}
	.st10{fill:#E83D25;}
	.st11{fill:#B3B3B3;}
	.st12{fill:#666666;}
	.st13{fill:none;stroke:#E93A1D;stroke-width:1.5;stroke-linecap:round;stroke-linejoin:round;}
	.st14{fill:none;stroke:#E93A1D;stroke-width:1.5;stroke-linecap:round;stroke-linejoin:round;stroke-dasharray:2.0259,5.0648;}
	.st15{fill:none;stroke:#E93A1D;stroke-width:1.5;stroke-linecap:round;stroke-linejoin:round;stroke-dasharray:1.8929,4.7321;}
	.st16{fill:#777777;}
	.st17{fill:#172DF8;}
	.st18{fill:none;stroke:#E93A1D;stroke-width:1.5;stroke-linecap:round;stroke-linejoin:round;stroke-dasharray:1.9198,4.7994;}
	.st19{fill:none;stroke:#E93A1D;stroke-width:1.5;stroke-linecap:round;stroke-linejoin:round;stroke-dasharray:1.9197,4.7993;}
</style>
<g id="back">
</g>
<g id="Layer_2">
	<path class="st10" d="M6.4936,1.9148c-1.1202-0.6679-2.682-0.4681-3.5964,0.464C1.6194,3.6814,0.9698,5.4746,1.2932,7.2867
		C1.4715,8.2851,2.0717,9.037,2.8586,9.5046c0.5449,0.5946,1.3083,0.977,2.1949,0.9696c2.2502-0.0189,4.1417-1.8603,4.2039-4.1186
		C9.3099,4.4466,8.0672,2.8531,6.4936,1.9148z"/>
	<path class="st7" d="M40.8238,51.3135c0.0156-2.0545-0.1631-4.4951-1.7601-5.9623c0.6188-0.8602,0.7063-2.0659,0.5162-3.0479
		c-0.126-0.6523-0.2936-1.272-0.4822-1.8737c3.1744-3.811,3.8312-9.8847,1.3363-14.2702c-2.3232-4.0835-6.523-5.813-10.2531-4.7917
		c-0.8898-0.2951-1.9473-0.2564-3.0749,0.2919c-0.7282,0.3542-1.4389,0.7283-2.1527,1.0991
		c-3.9539-0.7009-7.6564,0.5459-11.3508,2.6729c-0.169,0.0974-0.3216,0.209-0.4669,0.3263
		c-10.459-2.1984-15.6189,13.0101-6.2606,18.12c0.6654,0.3633,1.4095,0.3254,2.0402,0.0446c0.301,0.088,0.6192,0.1689,0.9767,0.2336
		c2.2533,0.4076,4.2779-0.7734,5.659-2.4167c0.5962-0.7094,1.0091-2.076,1.3793-3.5913c0.1772-0.0345,0.3499-0.0494,0.5338-0.1168
		c3.9884-1.4592,8.846-1.3278,12.0127,1.1456c-0.0089,0.2079-0.0208,0.4124-0.0374,0.6081
		c-0.1138,1.3282,0.6313,2.4805,1.6888,3.1921c-0.4559,0.689-0.7691,1.5241-0.7458,2.6142c0.0463,2.1591,2.0465,3.218,3.0643,4.4296
		c-0.0519,0.7623,0.0126,1.3968,0.2454,1.9505c-0.0352,0.0509-0.0645,0.0902-0.1021,0.1461
		c-0.3167,0.4698-0.3998,2.2713-0.3885,2.5054c0.2237,4.6604,4.1576,4.4711,2.9468,11.027
		c-0.3872,2.0953,2.5741,2.9708,3.2254,0.8892c0.7386-2.3611,1.2669-4.3811,0.8307-6.834c-0.3707-2.0839-1.425-3.5674-1.1609-5.5011
		C40.0535,53.6694,40.8134,52.6717,40.8238,51.3135z"/>
	<g>
		<g>
			<g>
				<path class="st9" d="M28.9671,41.8901c-0.3068,5.2977-0.4798,10.6033-0.6837,15.9057
					c-0.1755,4.5634,0.1496,11.3633-5.3058,13.0176c-4.2215,1.2802-8.8346-1.1-11.1039-4.6592
					c-2.6233-4.1144-2.8247-9.2369-2.9325-13.9669c-0.0174-0.7632-1.1531-0.7606-1.1836,0
					c-0.2186,5.45,0.2692,11.4992,3.8073,15.9312c2.4565,3.0772,6.6739,4.912,10.6075,4.2787
					c4.6857-0.7543,6.7118-4.8128,7.1822-9.1677c0.7574-7.0119,0.6126-14.2907,0.7023-21.3393
					C30.0659,41.1843,29.0074,41.1943,28.9671,41.8901L28.9671,41.8901z"/>
			</g>
		</g>
		<g>
			<g>
				<path class="st9" d="M7.2854,45.6127c3.7472-0.347,7.8669-2.4099,10.461-5.114c0.4356-0.4541-0.1571-1.3214-0.703-0.9111
					c-1.5179,1.141-2.9703,2.3032-4.6961,3.1242c-1.7174,0.817-3.5967,1.1847-5.3104,1.9836
					C6.6025,44.8981,6.8073,45.657,7.2854,45.6127L7.2854,45.6127z"/>
			</g>
		</g>
		<g>
			<g>
				<path class="st9" d="M37.1302,80.9792c-4.7179-3.6488,0.9926-10.0854,2.4352-13.8718c0.7167-1.8811,0.8764-3.7313,0.1894-5.6384
					c-0.6455-1.792-1.5369-3.2164-0.8587-5.1682c0.5451-1.5686,2.0982-2.794,3.333-3.8247c0.2232-0.1863,0.2115-0.5225,0.0978-0.758
					c-0.7722-1.5999-1.7172-3.2054-2.3477-4.8641c-0.4784-1.2586-1.0061-2.5322-0.2904-3.8813
					c0.2894-0.5455,0.7562-0.9991,1.1017-1.5123c1.3492-2.0039,2.2155-4.3094,2.5671-6.6971
					c0.6452-4.3826-0.4244-9.3616-3.6235-12.5854c-5.5527-5.5955-16.9415-2.1349-21.5927,2.9912
					c-0.5324,0.5868,0.3062,1.4391,0.8742,0.8742c4.3649-4.3405,14.3541-7.8341,19.5904-3.1077
					c3.2538,2.9369,4.1838,8.0502,3.4182,12.19c-0.3771,2.0393-1.1627,3.9787-2.3208,5.6992
					c-0.8368,1.2431-1.9514,2.306-1.8345,3.907c0.1116,1.5284,1.1628,3.0358,1.8107,4.3759
					c0.3993,0.8259,1.3644,2.0474,1.0749,2.9767c-0.2015,0.647-1.7185,1.6235-2.1665,2.2381
					c-0.83,1.1384-1.3994,2.4219-1.2935,3.8593c0.1516,2.0579,1.7019,3.6577,1.712,5.767
					c0.0249,5.2368-9.1151,13.0758-2.4052,17.7157C37.0038,81.9432,37.5236,81.2835,37.1302,80.9792L37.1302,80.9792z"/>
			</g>
		</g>
		<g>
			<g>
				<path class="st9" d="M13.55,24.9992c-5.1663-0.7949-10.4737,2.0914-12.2427,7.1341c-1.795,5.1169,0.7948,11.2147,5.6764,13.5033
					c0.686,0.3216,1.2778-0.6361,0.6033-1.0321c-4.0366-2.3698-6.4779-7.1521-5.069-11.7893
					c1.3872-4.5659,6.3087-7.3032,10.9074-6.8952C13.9457,25.9661,14.0735,25.0797,13.55,24.9992L13.55,24.9992z"/>
			</g>
		</g>
		<g>
			<g>
				<path class="st9" d="M17.5754,38.5272c-1.2898-5.1456,5.345-12.8853,10.568-12.5184c3.966,0.2787,7.3171,3.4734,8.4122,7.1828
					c1.2913,4.3741-0.5518,9.0267-3.3444,12.3871c-0.484,0.5824,0.3192,1.4212,0.8452,0.8452
					c3.2304-3.5371,5.0451-8.4318,3.8781-13.2088c-1.0226-4.1859-4.6185-7.7577-8.9301-8.4196
					c-3.706-0.5689-6.7441,1.5918-9.0499,4.3024c-2.1576,2.5364-4.3695,6.2486-3.3623,9.7001
					C16.776,39.4278,17.7353,39.1651,17.5754,38.5272L17.5754,38.5272z"/>
			</g>
		</g>
		<g>
			<g>
				<path class="st9" d="M17.8284,40.0886c-0.2099-2.9527,1.8835-4.1355,4.1598-5.2371c1.2115-0.5862,4.1889-2.3414,5.4935-1.3491
					c0.5007,0.3808,1.1498-0.4614,0.6746-0.8742c-1.7893-1.5541-4.8492,0.1878-6.5851,1.0468
					c-2.7251,1.3485-5.1688,2.9568-4.7271,6.4136C16.922,40.6988,17.8742,40.7336,17.8284,40.0886L17.8284,40.0886z"/>
			</g>
		</g>
		<g>
			<g>
				<path class="st9" d="M6.2989,48.1483c-2.8606,2.2246-2.3873,7.1571,0.7565,8.8802c0.6731,0.3689,1.2114-0.589,0.5944-1.0169
					c-2.364-1.6398-2.5955-5.0889-0.5761-7.0885C7.5899,48.4119,6.839,47.7282,6.2989,48.1483L6.2989,48.1483z"/>
			</g>
		</g>
		<g>
			<g>
				<path class="st9" d="M13.6521,53.3269c1.5773-0.2871,3.0799-0.1858,4.6651-0.1555c0.5866,0.0112,0.727-0.9025,0.1402-1.0359
					c-1.6498-0.3749-3.4348-0.122-5.0436,0.3269C12.8502,52.6197,13.092,53.4289,13.6521,53.3269L13.6521,53.3269z"/>
			</g>
		</g>
		<g>
			<g>
				<path class="st9" d="M17.8799,65.8781c1.5085,0.8866,3.3718,0.7507,4.685-0.4187c0.5786-0.5153-0.2595-1.3208-0.8411-0.8411
					c-0.9301,0.7671-2.236,0.8756-3.2969,0.3238C17.8103,64.6213,17.2749,65.5225,17.8799,65.8781L17.8799,65.8781z"/>
			</g>
		</g>
		<g>
			<g>
				<path class="st9" d="M22.9065,53.1962c1.3012,0.2045,2.6249,0.3551,3.9314,0.5302c0.7323,0.0982,0.7901-1.0102,0.1659-1.2258
					c-1.2573-0.4341-2.7974-0.5462-4.0973-0.248C22.4581,52.3555,22.4219,53.1201,22.9065,53.1962L22.9065,53.1962z"/>
			</g>
		</g>
		<g>
			<g>
				<path class="st9" d="M13.0984,45.5415c1.7757-0.6301,3.5619-0.7852,5.428-0.5666c0.5876,0.0688,0.7209-0.9209,0.1402-1.0359
					c-2.0411-0.4039-4.0399-0.1054-5.9045,0.8046C12.3218,44.9585,12.6308,45.7074,13.0984,45.5415L13.0984,45.5415z"/>
			</g>
		</g>
		<g>
			<g>
				<path class="st9" d="M23.0452,45.2848c1.534-0.5316,2.9572-0.5053,4.4187,0.2504c0.6566,0.3395,1.2047-0.5925,0.5796-0.9916
					c-1.5951-1.0186-3.7274-1.1141-5.3843-0.1744C22.1765,44.6429,22.4982,45.4744,23.0452,45.2848L23.0452,45.2848z"/>
			</g>
		</g>
		<g>
			<g>
				<path class="st9" d="M19.2818,59.0011c0.4694,0.2137,0.9388,0.4274,1.4082,0.6411c0.2381,0.1084,0.4408,0.0788,0.6412-0.0827
					c0.1861-0.1499,0.3575-0.3098,0.5234-0.4819c0.4793-0.4973-0.2225-1.1401-0.7375-0.7375
					c-0.1885,0.1473-0.3656,0.3012-0.5342,0.4711c0.1716-0.0454,0.3432-0.0907,0.5148-0.1361
					c-0.4932-0.1573-0.9864-0.3145-1.4795-0.4718C19.1557,58.0557,18.8265,58.7938,19.2818,59.0011L19.2818,59.0011z"/>
			</g>
		</g>
		<g>
			<g>
				<path class="st9" d="M7.7085,10.0473c3.2093,5.6538,6.2779,11.2864,8.9745,17.2087c0.2704,0.5938,1.3191,0.1629,1.0656-0.4492
					c-2.4808-5.9895-5.4931-11.9193-9.18-17.2622C8.2087,9.0231,7.3876,9.4819,7.7085,10.0473L7.7085,10.0473z"/>
			</g>
		</g>
		<g>
			<g>
				<path class="st9" d="M6.1861,9.8286c-1.8476,1.2069-3.9845-0.428-4.1328-2.4275C1.935,5.8043,2.7015,4.044,3.8334,2.9362
					c1.7334-1.6964,4.0711-0.7487,4.7554,1.4105c0.591,1.8649-0.2683,3.7887-0.9659,5.4874
					c-0.2594,0.6317,0.7947,1.0697,1.1031,0.465c1.2782-2.5063,2.1022-5.7726,0.0742-8.1275
					C7.0039,0.0857,4.2788,0.3949,2.5556,2.3857C0.9431,4.2486-0.0528,7.4696,1.4522,9.6808
					c1.2187,1.7906,3.6546,2.3083,5.3517,0.9483C7.2549,10.2677,6.6676,9.514,6.1861,9.8286L6.1861,9.8286z"/>
			</g>
		</g>
	</g>
</g>
</svg>
