<?xml version="1.0" encoding="utf-8"?>
<!-- Generator: Adobe Illustrator 20.1.0, SVG Export Plug-In . SVG Version: 6.00 Build 0)  -->
<svg version="1.1" xmlns="http://www.w3.org/2000/svg" xmlns:xlink="http://www.w3.org/1999/xlink" x="0px" y="0px"
	 viewBox="0 0 86 66" style="enable-background:new 0 0 86 66;" xml:space="preserve">
<style type="text/css">
	.st0{fill:none;stroke:#F7FAFC;stroke-width:39.9968;stroke-linecap:round;stroke-linejoin:round;}
	.st1{fill:none;stroke:#F2F6F9;stroke-width:39.9968;stroke-linecap:round;stroke-linejoin:round;}
	.st2{fill:#F7FAFC;}
	.st3{fill:#F2F6F9;}
	.st4{fill:#FFFFFF;}
	.st5{fill:#FCE0DE;}
	.st6{fill:#E6E6E6;}
	.st7{fill:#FFEFAF;}
	.st8{fill:#E93A1D;}
	.st9{fill:#303030;}
	.st10{fill:#E83D25;}
	.st11{fill:#B3B3B3;}
	.st12{fill:#666666;}
	.st13{fill:none;stroke:#E93A1D;stroke-width:1.5;stroke-linecap:round;stroke-linejoin:round;}
	.st14{fill:none;stroke:#E93A1D;stroke-width:1.5;stroke-linecap:round;stroke-linejoin:round;stroke-dasharray:2.0259,5.0648;}
	.st15{fill:none;stroke:#E93A1D;stroke-width:1.5;stroke-linecap:round;stroke-linejoin:round;stroke-dasharray:1.8929,4.7321;}
	.st16{fill:#777777;}
	.st17{fill:#172DF8;}
	.st18{fill:none;stroke:#E93A1D;stroke-width:1.5;stroke-linecap:round;stroke-linejoin:round;stroke-dasharray:1.9198,4.7994;}
	.st19{fill:none;stroke:#E93A1D;stroke-width:1.5;stroke-linecap:round;stroke-linejoin:round;stroke-dasharray:1.9197,4.7993;}
</style>
<g id="back">
</g>
<g id="Layer_2">
	<path class="st7" d="M64.2367,37.8468l-27.7728-3.7302l-13.6661,15.581l3.7627,4.2969l5.8067-2.324l-3.3942,5.7192
		c0,0,18.6431,5.0076,24.8932,1.7315C60.1165,55.8451,64.2367,37.8468,64.2367,37.8468z"/>
	<path class="st8" d="M64.1301,25.8111c-0.9353-0.26-1.8729-0.5015-2.8127-0.7244c-1.7219-0.4358-3.4502-0.8335-5.1855-1.187
		c0.1489-0.3784,0.2836-0.7766,0.3881-1.2158c0.9294-3.9043,2.4618-6.8374,4.1969-10.4307
		c0.4336-0.8979,0.8218-1.8076,1.1415-2.7319c0.4646-0.0176,0.9147-0.1787,1.2518-0.553c0.8749-0.9707,1.0728-1.6797,0.7935-2.9727
		c-0.1327-0.6145-0.6448-1.1797-1.2531-1.4778c-0.0109-0.2178-0.0148-0.4341-0.0392-0.6543
		c-0.2031-1.8303-2.5286-3.3438-4.0117-1.6619c-1.5929,1.8062-2.0276,3.8577-0.8667,5.8977
		c-0.8235,2.8579-2.8688,5.4841-4.0449,8.1689c-0.5735,1.3091-0.682,3.1221-1.3263,4.312c-0.6971,1.2878-1.5084,1.9507-2.424,2.2151
		c-1.5861-0.2319-3.1792-0.4309-4.7808-0.5962c-1.1631-0.1201-1.9229,0.4929-2.2687,1.3337
		c-0.4471,0.0361-0.8934,0.0581-1.3414,0.106c-1.1426,0.1221-2.2839,0.917-2.2164,2.2163c0.0853,1.6431,0.2872,2.1846,1.4305,3.3564
		c1.2083,1.2388,3.1958,0.2881,3.489-1.1028c5.2397,0.1404,10.3562,0.698,15.4536,1.8899c1.0195,0.2534,2.0393,0.5029,3.0554,0.7856
		C65.9614,31.6761,67.3286,26.7005,64.1301,25.8111z"/>
	<g>
		<g>
			<g>
				<path class="st9" d="M41.4069,29.4056c4.0472,0.6905,8.1169,1.2434,12.1803,1.8288c2.315,0.3335,13.39,0.6314,11.6037,4.86
					c-0.3264,0.7726,0.6384,1.3727,1.1384,0.6654c0.8688-1.2292,0.6398-2.7513-0.3014-3.9055
					c-1.3615-1.6696-3.7222-1.8485-5.7046-2.1278c-6.2429-0.8798-12.4894-1.8097-18.7566-2.5005
					C40.8995,28.1523,40.7399,29.2918,41.4069,29.4056L41.4069,29.4056z"/>
			</g>
		</g>
		<g>
			<g>
				<path class="st9" d="M39.5425,28.152c-1.924-7.9917,13.5401-4.9782,17.5087-4.3359c2.7812,0.4501,5.8904,0.8471,8.4292,2.1486
					c2.6451,1.356,4.8696,5.3098,1.6522,7.4128c-0.7957,0.5201-0.1051,1.6912,0.7423,1.2699
					c2.6668-1.3258,2.9479-4.9929,1.4757-7.3382c-2.3555-3.7525-7.9637-4.3374-11.8967-4.9541
					c-4.6891-0.7352-10.557-1.8753-15.2163-0.5415c-2.7756,0.7945-5.6179,4.0097-3.459,6.783
					C39.0774,28.9804,39.6397,28.5557,39.5425,28.152L39.5425,28.152z"/>
			</g>
		</g>
		<g>
			<g>
				<path class="st9" d="M55.2166,21.6305c1.0689-2.581,2.0465-5.1997,3.0715-7.7984c0.6186-1.5682,1.3054-2.8738,0.4893-4.4464
					c-0.4979-0.9594-1.3681-1.4746-1.3723-2.6849c-0.005-1.4277,1.1789-2.9116,2.5248-3.2899
					c1.6221-0.456,3.3672,0.5514,4.3217,1.7981c0.4567,0.5966,0.8255,1.2726,0.8916,2.0362
					c0.0902,1.0429-1.2684,4.4065-2.8462,2.2885c-0.5552-0.7454-1.8051-0.0748-1.28,0.7482
					c1.6658,2.6108,5.1662,1.1613,5.6522-1.5809c0.5548-3.1306-2.0026-6.2416-5.026-6.7724
					C58.6094,1.396,55.8265,3.9135,55.967,6.99c0.0919,2.0122,1.8599,3.0649,1.5845,5.1134
					c-0.2016,1.4993-1.0988,3.2047-1.6022,4.6437c-0.5408,1.5459-1.091,3.0873-1.5972,4.6451
					C54.1693,21.9546,55.0025,22.1475,55.2166,21.6305L55.2166,21.6305z"/>
			</g>
		</g>
		<g>
			<g>
				<path class="st9" d="M62.2991,10.5648c-1.4716,3.0787-2.6064,6.3214-3.7744,9.5264c-0.2982,0.8182,0.9847,1.1489,1.2939,0.3567
					c1.2204-3.1272,2.4939-6.2614,3.4069-9.4926C63.3775,10.4172,62.5523,10.0351,62.2991,10.5648L62.2991,10.5648z"/>
			</g>
		</g>
		<g>
			<g>
				<path class="st9" d="M5.3652,53.3049c-2.1884-3.0916-4.1927-6.7915-3.0879-10.6876c1.0711-3.7772,6.3877-6.2674,8.8118-2.1543
					c0.2769-0.3601,0.5537-0.7203,0.8306-1.0804c-1.7349-0.5083,0.049-2.9881,1.0797-3.293
					c0.8036-0.2377,1.647-0.2344,2.4673-0.1315c1.8269,0.2292,3.2874,1.1109,4.5499,2.4317
					c0.6246,0.6535,1.5582-0.3116,0.9819-0.9819c-2.2473-2.614-6.5572-4.1053-9.7314-2.1836
					c-2.201,1.3325-2.5292,4.7645,0.2616,5.5767c0.6144,0.1788,1.1585-0.5329,0.8306-1.0804
					c-2.215-3.6988-7.4419-3.5342-10.0022-0.2915c-3.5967,4.5552-1.081,10.4524,1.9761,14.4791
					C4.7876,54.5069,5.8161,53.9419,5.3652,53.3049L5.3652,53.3049z"/>
			</g>
		</g>
		<g>
			<g>
				<path class="st9" d="M20.4169,43.8872c-0.6511-2.9263,1.9512-5.6176,4.8343-5.4619c0.8515,0.046,0.802-1.1923,0-1.2949
					c-3.7378-0.4781-6.8467,3.5274-5.8626,7.0403C19.5744,44.8342,20.5656,44.5555,20.4169,43.8872L20.4169,43.8872z"/>
			</g>
		</g>
		<g>
			<g>
				<path class="st9" d="M70.4875,53.8046c2.0491-4.3378,8.3189-2.004,6.7322,2.6287c-0.1153,0.3367,0.134,0.8437,0.5079,0.8946
					c1.3306,0.181,2.7201,0.3423,3.936,0.9475c1.7475,0.8697,3.5189,3.71,0.9958,4.9992c-0.8195,0.4187-0.1008,1.5897,0.7127,1.2193
					c1.9617-0.893,2.4118-3.2373,1.5535-5.1153c-1.1754-2.5717-4.3191-3.1178-6.8113-3.4532
					c0.1693,0.2982,0.3386,0.5964,0.5079,0.8946c2.1031-6.1701-6.668-9.4724-9.1843-3.4579
					C69.1887,53.9581,70.2103,54.3915,70.4875,53.8046L70.4875,53.8046z"/>
			</g>
		</g>
		<g>
			<g>
				<path class="st9" d="M37.0375,29.7482c-1.6666,3.9444-3.1378,7.7118-5.842,11.1032c-1.0965,1.3752-2.3143,2.6583-3.626,3.8301
					c-1.4208,1.2692-3.4002,2.1472-4.6993,3.4936c-1.7136,1.7761,0.2487,4.4889,1.9002,5.6797
					c2.8397,2.0476,5.9783-0.1435,8.2061-2.0286c-0.4079-0.2375-0.8158-0.4749-1.2238-0.7124
					c-0.5318,2.557-1.9316,4.4837-4.2198,5.755c-0.7226,0.4015-0.2375,1.6132,0.57,1.3519c1.2863-0.4161,3.3296,0.511,4.563,0.8678
					c1.6759,0.4849,3.3478,1.1075,5.0625,1.444c4.6942,0.9212,10.3325,1.1703,14.9511-0.2697
					c3.8372-1.1964,6.4376-4.2737,8.1057-7.8099c2.1825-4.6268,3.8462-10.0357,4.8982-15.0223
					c0.1825-0.8652-0.9808-1.1517-1.2995-0.3583c-1.8744,4.6663-2.6721,9.7212-4.7517,14.3203
					c-2.2126,4.8931-5.7218,7.6488-11.1221,8.1697c-4.2191,0.4069-8.6692,0.0951-12.7368-1.106
					c-2.1897-0.6465-5.7429-2.4179-8.0636-1.6623c0.19,0.4506,0.38,0.9013,0.57,1.3519c2.5961-1.4487,4.2839-3.7249,4.8852-6.643
					c0.1516-0.7359-0.6614-1.19-1.2238-0.7124c-2.0154,1.712-4.669,3.6931-7.0798,1.1053c-1.5175-1.6289-1.0342-2.602,0.6196-3.7523
					c2.0106-1.3986,3.8592-3.0312,5.4964-4.8522c3.2255-3.5875,6.2492-8.2991,7.0027-13.146
					C38.0605,29.627,37.2855,29.1611,37.0375,29.7482L37.0375,29.7482z"/>
			</g>
		</g>
		<g>
			<g>
				<path class="st9" d="M59.9951,35.5229c-2.1285,7.0052-3.7429,14.6304-8.65,20.3053c-0.4662,0.5391,0.2784,1.3095,0.7914,0.7914
					c2.4209-2.4456,3.867-5.3627,5.069-8.5482c1.5207-4.03,3.1853-8.1179,3.6873-12.427
					C60.9543,35.117,60.1391,35.0489,59.9951,35.5229L59.9951,35.5229z"/>
			</g>
		</g>
		<g>
			<g>
				<path class="st9" d="M34.7522,54.3503c1.6244-2.1103,2.7726-4.4656,3.4395-7.0425c0.1588-0.6137-0.7807-0.873-0.9492-0.2617
					c-0.6843,2.4826-1.7691,4.7568-3.2644,6.8518C33.638,54.3744,34.4088,54.7964,34.7522,54.3503L34.7522,54.3503z"/>
			</g>
		</g>
		<g>
			<g>
				<path class="st9" d="M49.4575,54.9819c3.1116-4.7033,5.1574-9.9674,6.249-15.4897c0.1304-0.6599-0.8655-0.947-1.017-0.2804
					c-1.2327,5.4215-3.2859,10.4764-5.9959,15.3236C48.4135,55.0362,49.1448,55.4544,49.4575,54.9819L49.4575,54.9819z"/>
			</g>
		</g>
		<g>
			<g>
				<path class="st9" d="M45.8485,55.336c2.0162-2.5671,3.5244-5.3649,4.5227-8.4728c0.189-0.5884-0.7238-0.8318-0.921-0.2539
					c-1.0054,2.9465-2.4504,5.6845-4.315,8.1764C44.8293,55.1946,45.5299,55.7416,45.8485,55.336L45.8485,55.336z"/>
			</g>
		</g>
		<g>
			<g>
				<path class="st9" d="M38.0903,54.3841c0.5475-1.0941,1.094-2.1875,1.6195-3.2923c0.2497-0.5249-0.514-0.988-0.7893-0.4613
					c-0.5662,1.0835-1.1105,2.177-1.655,3.2716C36.9928,54.4505,37.8147,54.9348,38.0903,54.3841L38.0903,54.3841z"/>
			</g>
		</g>
	</g>
</g>
</svg>
