<?xml version="1.0" encoding="utf-8"?>
<!-- Generator: Adobe Illustrator 20.1.0, SVG Export Plug-In . SVG Version: 6.00 Build 0)  -->
<svg version="1.1" xmlns="http://www.w3.org/2000/svg" xmlns:xlink="http://www.w3.org/1999/xlink" x="0px" y="0px"
	 viewBox="0 0 60 59" style="enable-background:new 0 0 60 59;" xml:space="preserve">
<style type="text/css">
	.st0{fill:none;stroke:#F7FAFC;stroke-width:39.9968;stroke-linecap:round;stroke-linejoin:round;}
	.st1{fill:none;stroke:#F2F6F9;stroke-width:39.9968;stroke-linecap:round;stroke-linejoin:round;}
	.st2{fill:#F7FAFC;}
	.st3{fill:#F2F6F9;}
	.st4{fill:#FFFFFF;}
	.st5{fill:#FCE0DE;}
	.st6{fill:#E6E6E6;}
	.st7{fill:#FFEFAF;}
	.st8{fill:#E93A1D;}
	.st9{fill:#303030;}
	.st10{fill:#E83D25;}
	.st11{fill:#B3B3B3;}
	.st12{fill:#666666;}
	.st13{fill:none;stroke:#E93A1D;stroke-width:1.5;stroke-linecap:round;stroke-linejoin:round;}
	.st14{fill:none;stroke:#E93A1D;stroke-width:1.5;stroke-linecap:round;stroke-linejoin:round;stroke-dasharray:2.0259,5.0648;}
	.st15{fill:none;stroke:#E93A1D;stroke-width:1.5;stroke-linecap:round;stroke-linejoin:round;stroke-dasharray:1.8929,4.7321;}
	.st16{fill:#777777;}
	.st17{fill:#172DF8;}
	.st18{fill:none;stroke:#E93A1D;stroke-width:1.5;stroke-linecap:round;stroke-linejoin:round;stroke-dasharray:1.9198,4.7994;}
	.st19{fill:none;stroke:#E93A1D;stroke-width:1.5;stroke-linecap:round;stroke-linejoin:round;stroke-dasharray:1.9197,4.7993;}
</style>
<g id="back">
</g>
<g id="Layer_2">
	<rect x="1.4098" y="17.9585" class="st7" width="13.4884" height="13.4884"/>
	<rect x="22.9649" y="31.8086" class="st7" width="12.6073" height="12.6073"/>
	<rect x="44.8623" y="7.6947" class="st7" width="12.3021" height="12.3021"/>
	<g>
		<path class="st8" d="M7.9484,17.174c1.316-4.0233,2.0641-10.1306-0.2568-13.9087C6.6822,1.6222,4.4098,2.4233,4.2521,4.1969
			c-0.1699,1.9119,0.3326,3.8352,0.302,5.763c-0.0329,2.0785-0.4518,4.0073-0.9666,6.0119
			C2.8594,18.8062,7.0467,19.9302,7.9484,17.174z"/>
		<path class="st8" d="M7.1491,41.6388c-0.7657,4.6998-2.3473,10.1348-1.3209,14.9255c0.4152,1.9375,3.0212,1.5981,3.5969,0
			c1.5911-4.4192,0.7518-9.9739,0.6283-14.5326C10.0103,40.4433,7.4281,39.9278,7.1491,41.6388z"/>
		<path class="st8" d="M28.6806,4.7652c-1.498,8.4075-0.9591,17.31-1.657,25.8265c-0.2301,2.8087,4.1785,2.8078,4.3872,0
			c0.6234-8.3864,1.7317-17.5174,0.0838-25.8265C31.2216,3.3876,28.9314,3.3574,28.6806,4.7652z"/>
		<path class="st8" d="M30.3303,53.0861c-2.6987,0-2.703,4.1939,0,4.1939C33.029,57.28,33.0334,53.0861,30.3303,53.0861z"/>
		<path class="st8" d="M54.5549,30.6128c-0.1622-2.9667-4.7864-2.9914-4.6383,0c0.3683,7.4336,0.4661,15.0662,1.6822,22.4159
			c0.356,2.1531,3.5069,1.4737,3.6253-0.4904C55.6614,45.2877,54.9517,37.8601,54.5549,30.6128z"/>
		<path class="st8" d="M51.8966,6.6919c0.7861-0.3316,1.4178-1.1593,1.3779-2.0487c-0.0815-1.8264-1.9562-2.6843-3.4118-1.8554
			c-0.0704,0.0097-0.1407,0.0193-0.2111,0.029c-0.7803,0.1075-1.424,1.0787-1.3906,1.8264c0.034,0.7568,0.5558,1.7113,1.3906,1.8264
			c0.0627,0.0085,0.1253,0.0172,0.188,0.026C50.4619,6.8755,51.1818,6.9935,51.8966,6.6919z"/>
	</g>
	<g>
		<g>
			<g>
				<path class="st9" d="M1.0533,19.7069c1.2386,6.6312,1.3441,13.7662-0.5136,20.2966c-0.1154,0.4057,0.2146,0.9038,0.6638,0.8714
					c4.7551-0.3434,9.4339-0.425,14.1892-0.0259c0.4774,0.0401,0.8819-0.5194,0.7321-0.961
					c-2.4732-7.2894-0.6917-14.8192-0.4745-22.2911c0.015-0.5177-0.4695-0.7542-0.9106-0.6937
					c-4.4159,0.6055-8.9009-0.1624-13.3298,0.3523c-0.8888,0.1033-0.8979,1.5121,0,1.4062
					c4.4893-0.5291,9.023,0.0907,13.5211-0.3455c-0.2398-0.2398-0.4796-0.4796-0.7194-0.7194
					c-0.4787,7.568-2.0814,15.3231,0.4491,22.6948c0.244-0.3203,0.4881-0.6407,0.7321-0.961
					c-4.7444-0.3812-9.4578-0.3893-14.1892,0.1675c0.2213,0.2905,0.4425,0.5809,0.6638,0.8714
					c1.3403-7.0535,1.6541-13.8484,0.011-20.89C1.7519,18.9383,0.9533,19.1718,1.0533,19.7069L1.0533,19.7069z"/>
			</g>
		</g>
		<g>
			<g>
				<path class="st9" d="M22.6084,33.5569c1.2386,6.6312,1.344,13.7662-0.5136,20.2966c-0.1154,0.4057,0.2146,0.9038,0.6638,0.8714
					c4.7551-0.3434,9.4339-0.425,14.1892-0.0259c0.4774,0.0401,0.8819-0.5194,0.7321-0.961
					c-2.4732-7.2894-0.6917-14.8192-0.4745-22.2911c0.015-0.5177-0.4695-0.7542-0.9106-0.6937
					c-4.4159,0.6055-8.9009-0.1624-13.3298,0.3523c-0.8888,0.1033-0.8979,1.5121,0,1.4062
					c4.4893-0.5291,9.023,0.0907,13.5211-0.3455c-0.2398-0.2398-0.4796-0.4796-0.7194-0.7194
					c-0.4787,7.568-2.0814,15.3231,0.4491,22.6948c0.244-0.3203,0.4881-0.6407,0.7321-0.961
					c-4.7444-0.3812-9.4578-0.3893-14.1892,0.1675c0.2213,0.2905,0.4425,0.5809,0.6638,0.8714
					c1.3403-7.0535,1.6541-13.8484,0.011-20.89C23.307,32.7884,22.5084,33.0219,22.6084,33.5569L22.6084,33.5569z"/>
			</g>
		</g>
		<g>
			<g>
				<path class="st9" d="M44.5057,9.443c1.2386,6.6312,1.3441,13.7662-0.5136,20.2966c-0.1154,0.4057,0.2146,0.9038,0.6638,0.8714
					c4.7551-0.3434,9.4339-0.425,14.1892-0.0259c0.4774,0.0401,0.8819-0.5194,0.7321-0.961
					C57.104,22.3347,58.8856,14.805,59.1027,7.333c0.015-0.5177-0.4695-0.7542-0.9106-0.6937
					c-4.4159,0.6055-8.9009-0.1624-13.3298,0.3523c-0.8888,0.1033-0.8979,1.5121,0,1.4062
					c4.4893-0.5291,9.023,0.0907,13.5211-0.3455c-0.2398-0.2398-0.4796-0.4796-0.7194-0.7194
					c-0.4787,7.568-2.0814,15.3231,0.4491,22.6948c0.244-0.3203,0.4881-0.6407,0.7321-0.961
					c-4.7444-0.3812-9.4578-0.3893-14.1892,0.1675c0.2213,0.2905,0.4425,0.5809,0.6638,0.8714
					c1.3403-7.0535,1.6541-13.8484,0.011-20.89C45.2044,8.6745,44.4058,8.908,44.5057,9.443L44.5057,9.443z"/>
			</g>
		</g>
		<g>
			<g>
				<path class="st9" d="M6.0444,17.4803C5.5169,14.7828,5.19,12.0628,5.2417,9.3106C5.2592,8.3761,5.3162,7.444,5.4048,6.5137
					c0.0834-0.8752,0.002-3.4235,0.8184-4.0918C9.4072-0.1842,8.264,7.162,8.1865,7.8603c-0.2917,2.6261-0.6328,5.249-0.7771,7.8882
					c-0.0351,0.6423,1.0314,0.8049,1.1394,0.1542c0.3347-2.0149,0.5444-4.0408,0.7661-6.0704
					C9.5323,7.8421,9.9999,5.7191,9.8812,3.709C9.7869,2.1127,9.0478,0.035,7.0926,0.2212c-2.4159,0.23-2.7395,3.5709-2.9755,5.3643
					c-0.5385,4.0906-0.2702,8.2302,0.7013,12.2329C5.0129,18.62,6.2,18.276,6.0444,17.4803L6.0444,17.4803z"/>
			</g>
		</g>
		<g>
			<g>
				<path class="st9" d="M5.5705,40.864C5.2471,45.1201,4.7945,49.5516,4.9,53.8198c0.046,1.8606,0.8033,4.5043,3.201,4.2878
					c2.7614-0.2494,2.3995-3.9878,2.3984-5.8759c-0.0024-4.0256,0.1274-8.0817-0.0886-12.1019
					c-0.0421-0.7828-1.1803-0.7859-1.2188,0c-0.1141,2.3312-0.0585,4.669-0.0473,7.0023c0.0053,1.1091,0.0107,2.2181,0.0158,3.3272
					c0.0046,0.9853,0.409,3.1575,0.0086,3.993c0.0876,0.6765-0.3903,0.8566-1.4338,0.5402
					c-1.1394,0.6634-1.635,0.5049-1.4868-0.4753c-0.1657-0.5899-0.0392-1.3523-0.0149-1.959
					c0.0501-1.2476,0.1105-2.4948,0.1657-3.7422c0.1173-2.6496,0.2525-5.3001,0.2962-7.9521
					C6.7076,40.1325,5.6248,40.1501,5.5705,40.864L5.5705,40.864z"/>
			</g>
		</g>
		<g>
			<g>
				<path class="st9" d="M28.5221,30.9987c-0.0079-4.7307-0.1827-9.462-0.3013-14.1909c-0.0605-2.4139-0.093-4.8311,0.0505-7.243
					c0.0536-0.9006,0.1302-1.7986,0.2372-2.6946c0.0925-0.8401,0.2204-1.6746,0.3838-2.5034
					c0.0467-1.2814,0.8819-1.4165,2.5055-0.4054c0.4312,0.543,0.1139,3.1094,0.1348,3.8373c0.0265,0.9269,0.0495,1.854,0.0686,2.781
					c0.0495,2.3958,0.0661,4.7923,0.0447,7.1886c-0.0409,4.5785-0.5931,9.2385-0.2919,13.802
					c0.0375,0.5677,0.9439,0.7778,1.0589,0.1433c1.0771-5.9449,0.7408-12.387,0.6575-18.4116
					c-0.0428-3.0941-0.0011-6.2601-0.308-9.3406c-0.1341-1.3459-0.4696-2.9192-2.0811-3.0846
					c-3.9981-0.4104-3.8004,8.1767-3.8817,10.4945c-0.2284,6.513,0.0213,13.1176,0.2869,19.6273
					C27.124,31.9179,28.5236,31.9273,28.5221,30.9987L28.5221,30.9987z"/>
			</g>
		</g>
		<g>
			<g>
				<path class="st9" d="M26.5448,54.7188c-0.3507,1.8678,1.2922,3.6879,3.1811,3.647c1.785-0.0387,3.6397-2.0784,2.9782-3.884
					c-0.216-0.5897-1.0396-0.4888-1.0876,0.1472c-0.086,1.1389-0.5275,2.415-1.8905,2.5168
					c-1.3012,0.0973-2.115-1.1528-2.2086-2.2954C27.475,54.3339,26.655,54.1317,26.5448,54.7188L26.5448,54.7188z"/>
			</g>
		</g>
		<g>
			<g>
				<path class="st9" d="M49.5803,7.6601c-0.1509-1.6138-0.4306-4.0811,1.3985-4.8892c1.3095-0.5785,1.2294,0.8371,1.2835,1.6891
					c0.05,0.7874,0.0528,1.596,0.2392,2.3645c0.1622,0.6686,1.0685,0.4575,1.1279-0.1526c0.0773-0.7945-0.0462-1.6179-0.1073-2.4129
					c-0.0455-0.5912-0.0263-1.2573-0.2471-1.8182c-0.3914-0.9943-1.4476-1.2407-2.4105-0.9615
					c-2.7454,0.796-2.8037,4.0571-2.3027,6.3186C48.686,8.359,49.6352,8.2482,49.5803,7.6601L49.5803,7.6601z"/>
			</g>
		</g>
		<g>
			<g>
				<path class="st9" d="M48.5763,30.555c0.1944,6.0197,1.04,11.9084,0.8087,17.9646c-0.0884,2.3134-1.3713,8.9525,2.9773,8.6107
					c1.2544-0.0986,1.8231-1.0389,2.038-2.171c0.4388-2.3119-0.0442-5.0982-0.1169-7.4409
					c-0.1795-5.7796-0.4759-11.5542-0.4901-17.3379c-0.0021-0.8557-1.3322-0.8573-1.3301,0
					c0.0098,3.9958,0.1472,7.9861,0.3113,11.978c0.0797,1.9382,0.1681,3.8768,0.2188,5.8161
					c0.0283,1.084,0.032,2.1678,0.0367,3.2521c0.0025,0.5731,0.3166,2.5991,0.0066,2.9098
					c-1.7633,0.3021-2.5799-0.0779-2.4498-1.1398c-0.0004-0.3585,0.0159-0.7164,0.0488-1.0736
					c0.0498-0.9726,0.1203-1.9436,0.1588-2.9169c0.0898-2.2705,0.101-4.5444,0.0339-6.8156
					c-0.1147-3.8805-0.233-8.0013-1.1988-11.7781C49.4811,29.8326,48.5566,29.9447,48.5763,30.555L48.5763,30.555z"/>
			</g>
		</g>
		<g>
			<g>
				<path class="st9" d="M4.8439,26.3623c1.974-0.1318,3.9313-0.085,5.9054-0.1223c0.6345-0.012,0.8205-1.0101,0.155-1.1452
					c-2.0431-0.4149-4.1886-0.2293-6.1905,0.3065C4.194,25.5403,4.2813,26.3998,4.8439,26.3623L4.8439,26.3623z"/>
			</g>
		</g>
		<g>
			<g>
				<path class="st9" d="M6.0314,29.7011c1.1524,0.1544,2.3711,0.1311,3.5303,0.0703c0.7949-0.0417,0.7963-1.1946,0-1.2363
					c-1.1589-0.0607-2.3779-0.0841-3.5303,0.0703C5.3289,28.6995,5.3274,29.6067,6.0314,29.7011L6.0314,29.7011z"/>
			</g>
		</g>
		<g>
			<g>
				<path class="st9" d="M5.7543,32.7324c1.3822-0.4178,2.7022-0.416,4.0783,0.0327c0.5768,0.1881,0.9886-0.7406,0.4199-0.996
					c-1.5872-0.7128-3.3151-0.7253-4.9,0.0101C4.8135,32.0294,5.1952,32.9014,5.7543,32.7324L5.7543,32.7324z"/>
			</g>
		</g>
		<g>
			<g>
				<path class="st9" d="M27.8056,40.6187c1.1051-0.6654,2.3356-0.8581,3.583-0.5092c0.6747,0.1887,0.9516-0.8366,0.2882-1.0453
					c-1.5537-0.4887-3.1574-0.1752-4.425,0.8366C26.8419,40.2281,27.3691,40.8816,27.8056,40.6187L27.8056,40.6187z"/>
			</g>
		</g>
		<g>
			<g>
				<path class="st9" d="M27.7435,43.5096c1.1465,0.5057,2.2927,0.6566,3.5201,0.3742c0.5255-0.1209,0.4242-1.0319-0.1301-0.961
					c-1.0243,0.131-2.0526,0.0697-3.0379-0.2485C27.612,42.5181,27.2647,43.2985,27.7435,43.5096L27.7435,43.5096z"/>
			</g>
		</g>
		<g>
			<g>
				<path class="st9" d="M27.3375,47.0838c1.5349-0.2358,3.0133-0.3717,4.5673-0.2961c0.775,0.0377,0.7482-1.1149,0-1.1895
					c-1.604-0.1598-3.3082-0.0279-4.8368,0.5081C26.4419,46.3259,26.6998,47.1818,27.3375,47.0838L27.3375,47.0838z"/>
			</g>
		</g>
		<g>
			<g>
				<path class="st9" d="M49.6323,15.6443c1.3423,0.2582,2.6936,0.429,4.0569,0.5273c0.65,0.0469,0.8111-1.0455,0.1558-1.1509
					c-1.3507-0.2173-2.7037-0.367-4.0709-0.4237C49.1828,14.5724,49.0359,15.5296,49.6323,15.6443L49.6323,15.6443z"/>
			</g>
		</g>
		<g>
			<g>
				<path class="st9" d="M50.7946,19.2513c0.6109-0.314,1.3114-0.3995,1.9831-0.2591c0.6485,0.1356,0.928-0.8372,0.2757-1.0001
					c-0.9619-0.2401-1.9024-0.0964-2.7526,0.4142C49.758,18.7323,50.2362,19.5383,50.7946,19.2513L50.7946,19.2513z"/>
			</g>
		</g>
		<g>
			<g>
				<path class="st9" d="M49.5742,22.3615c1.4368,0.0861,2.8775,0.1083,4.3148,0.0293c0.6743-0.0371,0.6755-1.0117,0-1.0488
					c-1.4372-0.079-2.8781-0.0568-4.3148,0.0293C48.9377,21.4094,48.9365,22.3233,49.5742,22.3615L49.5742,22.3615z"/>
			</g>
		</g>
	</g>
</g>
</svg>
