<?xml version="1.0" encoding="utf-8"?>
<!-- Generator: Adobe Illustrator 20.1.0, SVG Export Plug-In . SVG Version: 6.00 Build 0)  -->
<svg version="1.1" xmlns="http://www.w3.org/2000/svg" xmlns:xlink="http://www.w3.org/1999/xlink" x="0px" y="0px"
	 viewBox="0 0 45 64" style="enable-background:new 0 0 45 64;" xml:space="preserve">
<style type="text/css">
	.st0{fill:none;stroke:#F7FAFC;stroke-width:39.9968;stroke-linecap:round;stroke-linejoin:round;}
	.st1{fill:none;stroke:#F2F6F9;stroke-width:39.9968;stroke-linecap:round;stroke-linejoin:round;}
	.st2{fill:#F7FAFC;}
	.st3{fill:#F2F6F9;}
	.st4{fill:#FFFFFF;}
	.st5{fill:#FCE0DE;}
	.st6{fill:#E6E6E6;}
	.st7{fill:#FFEFAF;}
	.st8{fill:#E93A1D;}
	.st9{fill:#303030;}
	.st10{fill:#E83D25;}
	.st11{fill:#B3B3B3;}
	.st12{fill:#666666;}
	.st13{fill:none;stroke:#E93A1D;stroke-width:1.5;stroke-linecap:round;stroke-linejoin:round;}
	.st14{fill:none;stroke:#E93A1D;stroke-width:1.5;stroke-linecap:round;stroke-linejoin:round;stroke-dasharray:2.0259,5.0648;}
	.st15{fill:none;stroke:#E93A1D;stroke-width:1.5;stroke-linecap:round;stroke-linejoin:round;stroke-dasharray:1.8929,4.7321;}
	.st16{fill:#777777;}
	.st17{fill:#172DF8;}
	.st18{fill:none;stroke:#E93A1D;stroke-width:1.5;stroke-linecap:round;stroke-linejoin:round;stroke-dasharray:1.9198,4.7994;}
	.st19{fill:none;stroke:#E93A1D;stroke-width:1.5;stroke-linecap:round;stroke-linejoin:round;stroke-dasharray:1.9197,4.7993;}
</style>
<g id="back">
</g>
<g id="Layer_2">
	<path class="st8" d="M13.2316,39.3186c-3.8924,0-3.8987,6.0493,0,6.0493C17.1241,45.3679,17.1306,39.3186,13.2316,39.3186z"/>
	<path class="st8" d="M27.7394,40.588c-3.8926,0-3.8989,6.0493,0,6.0493C31.6318,46.6374,31.6383,40.588,27.7394,40.588z"/>
	<path class="st7" d="M41.9719,33.3206c0.0156-2.0545-0.1631-4.4951-1.7601-5.9623c0.6188-0.8602,0.7063-2.0659,0.5162-3.0479
		c-0.126-0.6523-0.2936-1.272-0.4822-1.8737c3.1744-3.8109,3.8312-9.8846,1.3363-14.2702c-2.3232-4.0835-6.523-5.813-10.2531-4.7917
		c-0.8898-0.2951-1.9473-0.2564-3.0749,0.2919c-0.7282,0.3542-1.4389,0.7283-2.1527,1.0991
		c-3.9539-0.7009-7.6564,0.5459-11.3508,2.6729c-0.169,0.0974-0.3216,0.209-0.4669,0.3263
		C3.8246,5.5664-1.3353,20.775,8.023,25.8848c0.6654,0.3633,1.4095,0.3254,2.0402,0.0446c0.301,0.088,0.6192,0.1689,0.9767,0.2336
		c2.2533,0.4076,4.2779-0.7734,5.659-2.4167c0.5962-0.7094,1.0091-2.076,1.3793-3.5913c0.1772-0.0345,0.3499-0.0494,0.5338-0.1168
		c3.9884-1.4592,8.846-1.3278,12.0127,1.1456c-0.0089,0.2079-0.0208,0.4124-0.0374,0.6081
		c-0.1138,1.3282,0.6313,2.4805,1.6888,3.1921c-0.4559,0.689-0.7691,1.5241-0.7458,2.6142c0.0463,2.1591,2.0465,3.218,3.0643,4.4296
		c-0.0519,0.7623,0.0126,1.3968,0.2454,1.9505c-0.0352,0.0509-0.0645,0.0902-0.1021,0.1461
		c-0.3167,0.4698-0.3998,2.2713-0.3885,2.5054c0.2237,4.6604,4.1576,4.4711,2.9468,11.027
		c-0.3872,2.0953,2.5741,2.9708,3.2254,0.8892c0.7386-2.3611,1.2669-4.3811,0.8307-6.834c-0.3707-2.0839-1.425-3.5674-1.1609-5.5011
		C41.2016,35.6764,41.9615,34.6787,41.9719,33.3206z"/>
	<g>
		<g>
			<g>
				<path class="st9" d="M30.1152,23.8971c-0.3068,5.2977-0.4798,10.6032-0.6837,15.9057
					c-0.1755,4.5634,0.1496,11.3633-5.3057,13.0176c-4.2215,1.2802-8.8346-1.1-11.1039-4.6592
					c-2.6233-4.1144-2.8247-9.2369-2.9325-13.9669c-0.0174-0.7632-1.1531-0.7606-1.1836,0
					c-0.2186,5.45,0.2692,11.4992,3.8073,15.9312c2.4565,3.0772,6.6739,4.912,10.6075,4.2787
					c4.6857-0.7543,6.7118-4.8128,7.1822-9.1677c0.7574-7.0119,0.6126-14.2907,0.7023-21.3393
					C31.214,23.1913,30.1555,23.2013,30.1152,23.8971L30.1152,23.8971z"/>
			</g>
		</g>
		<g>
			<g>
				<path class="st9" d="M8.4335,27.6198c3.7472-0.347,7.8669-2.4099,10.461-5.114c0.4356-0.4541-0.1571-1.3214-0.703-0.9111
					c-1.5179,1.141-2.9703,2.3032-4.6961,3.1242c-1.7174,0.817-3.5967,1.1847-5.3104,1.9836
					C7.7506,26.9051,7.9554,27.664,8.4335,27.6198L8.4335,27.6198z"/>
			</g>
		</g>
		<g>
			<g>
				<path class="st9" d="M38.2783,62.9863c-4.7179-3.6488,0.9926-10.0854,2.4352-13.8718c0.7167-1.8811,0.8764-3.7313,0.1894-5.6384
					c-0.6455-1.792-1.5369-3.2164-0.8587-5.1682c0.5451-1.5686,2.0982-2.794,3.333-3.8247c0.2232-0.1863,0.2115-0.5226,0.0978-0.758
					c-0.7722-1.5999-1.7172-3.2054-2.3477-4.8641c-0.4784-1.2586-1.0061-2.5322-0.2904-3.8812
					c0.2894-0.5455,0.7562-0.9991,1.1017-1.5123c1.3492-2.0039,2.2155-4.3094,2.5671-6.6971
					c0.6452-4.3826-0.4244-9.3616-3.6235-12.5854c-5.5527-5.5955-16.9415-2.1349-21.5927,2.9912
					c-0.5324,0.5868,0.3062,1.4391,0.8742,0.8742c4.3649-4.3405,14.3541-7.8341,19.5904-3.1077
					c3.2538,2.9369,4.1838,8.0502,3.4182,12.19c-0.3771,2.0393-1.1627,3.9787-2.3208,5.6992
					c-0.8368,1.2431-1.9514,2.306-1.8345,3.907c0.1116,1.5284,1.1628,3.0358,1.8107,4.3759
					c0.3993,0.8259,1.3644,2.0474,1.0749,2.9767c-0.2015,0.647-1.7185,1.6235-2.1665,2.2381
					c-0.83,1.1384-1.3994,2.4219-1.2935,3.8593c0.1516,2.0579,1.7019,3.6577,1.712,5.767
					c0.0249,5.2368-9.1151,13.0758-2.4052,17.7157C38.1519,63.9503,38.6717,63.2905,38.2783,62.9863L38.2783,62.9863z"/>
			</g>
		</g>
		<g>
			<g>
				<path class="st9" d="M7.447,30.1553c-2.8606,2.2246-2.3873,7.1571,0.7565,8.8802c0.6731,0.3689,1.2114-0.589,0.5944-1.0169
					c-2.364-1.6398-2.5955-5.0889-0.5761-7.0885C8.7381,30.4189,7.9871,29.7353,7.447,30.1553L7.447,30.1553z"/>
			</g>
		</g>
		<g>
			<g>
				<path class="st9" d="M20.4299,41.0081c0.4694,0.2137,0.9388,0.4274,1.4082,0.6411c0.2381,0.1084,0.4408,0.0788,0.6412-0.0827
					c0.1861-0.1499,0.3575-0.3098,0.5234-0.4819c0.4793-0.4973-0.2225-1.1401-0.7375-0.7375
					c-0.1885,0.1473-0.3656,0.3012-0.5342,0.4711c0.1716-0.0454,0.3432-0.0907,0.5148-0.1361
					c-0.4932-0.1573-0.9864-0.3145-1.4795-0.4718C20.3038,40.0628,19.9746,40.8008,20.4299,41.0081L20.4299,41.0081z"/>
			</g>
		</g>
		<g>
			<g>
				<path class="st9" d="M14.8194,30.3873c0.7113,0.0727,1.4161,0.1968,2.0978,0.4151c0.566,0.1813,1.1066,0.4896,1.6941,0.5915
					c0.7075,0.1227,1.4733-0.0791,1.783-0.7766c0.2404-0.5414-0.4278-1.2132-0.8927-0.6888
					c-0.5682,0.6409-1.6167-0.0563-2.2802-0.2296c-0.79-0.2064-1.5871-0.2821-2.402-0.2549
					C14.2018,29.4646,14.2247,30.3265,14.8194,30.3873L14.8194,30.3873z"/>
			</g>
		</g>
		<g>
			<g>
				<path class="st9" d="M24.5923,30.2456c-0.3787,0.6945,0.0665,1.3337,0.7924,1.4744c1.058,0.2052,2.2555,0.0252,3.2781-0.2628
					c0.6784-0.191,0.3775-1.1255-0.2835-1.0283c-0.3088,0.0454-2.9403,0.4578-2.9899,0.0325
					C25.3442,30.0742,24.8153,29.8367,24.5923,30.2456L24.5923,30.2456z"/>
			</g>
		</g>
		<g>
			<g>
				<path class="st9" d="M15.4541,34.3263c-0.0109-0.0725-0.0218-0.145-0.0326-0.2175c-0.3298,0.1391-0.6597,0.2781-0.9895,0.4172
					c0.9909,1.8143,5.5561,2.5206,5.767-0.2192c0.037-0.4813-0.681-0.8007-0.9953-0.4122c-1.2267,1.5162-2.7035,0.8706-4.031-0.1092
					c-0.5827-0.4301-1.2049,0.6804-0.4172,0.9895c0.0599,0.0235,0.1198,0.047,0.1796,0.0705
					C15.27,34.9766,15.4959,34.6048,15.4541,34.3263L15.4541,34.3263z"/>
			</g>
		</g>
		<g>
			<g>
				<path class="st9" d="M24.578,34.3362c-0.0587,0.758,0.7464,1.4003,1.3715,1.6667c0.7789,0.3319,1.7172,0.3004,2.404-0.2168
					c0.4449-0.335,0.2149-1.2024-0.4154-0.9853c-1.0445,0.3599-1.7538,0.1637-2.4102-0.7219
					C25.2258,33.6713,24.6187,33.8095,24.578,34.3362L24.578,34.3362z"/>
			</g>
		</g>
		<g>
			<g>
				<path class="st9" d="M17.0158,47.9086c0.2029-0.3953,0.346-0.9029,0.62-1.2535c0.4988-0.6384,0.8719-0.1586,1.4033,0.274
					c0.7909,0.6437,1.5617,1.3407,2.427,1.8834c0.4395,0.2757,0.889-0.3415,0.5432-0.704c-0.6314-0.6619-1.3741-1.2133-2.081-1.792
					c-0.4951-0.4053-1.1065-1.1493-1.7552-1.2931c-1.1491-0.2547-1.8147,1.7059-1.998,2.5308
					C16.0671,48.0405,16.7669,48.3937,17.0158,47.9086L17.0158,47.9086z"/>
			</g>
		</g>
		<g>
			<g>
				<path class="st9" d="M21.2081,48.1864c-1.4501-0.4135-2.9107-0.6624-4.4148-0.7611c-0.5785-0.0379-0.5795,0.8707,0,0.9023
					c1.4203,0.0776,2.8219,0.2877,4.203,0.6271C21.4941,49.0772,21.7022,48.3273,21.2081,48.1864L21.2081,48.1864z"/>
			</g>
		</g>
		<g>
			<g>
				<path class="st9" d="M11.2473,8.0339C8.1662,7.8854,4.6792,8.9235,2.791,11.5564c-0.5988,0.8349-0.9683,1.7943-0.7378,2.8377
					c0.12,0.5431,1.3834,1.7507,1.3017,2.0665c-0.1795,0.6935-2.5881,0.649-2.9639,1.6786
					c-0.2765,0.7575,0.1847,1.0461,0.5262,1.5867c0.1744,0.1541,0.3689,0.2708,0.5834,0.3502
					c0.8875,1.008,0.9765,1.9015,0.267,2.6807c-0.155,0.4996-0.3946,0.7466-0.4247,1.2648
					c-0.0514,0.8831,0.2923,1.4545,1.0314,1.883c0.6972,0.4042,1.2903-0.6351,0.627-1.0726
					c-0.989-0.6523,1.6892-3.7089,0.5806-5.0961c-0.3393-0.4246-1.1016-0.4849-1.3404-0.9831
					c-0.6713-0.4657-0.3678-0.7454,0.9107-0.839c0.2312-0.0963,0.4624-0.1926,0.6936-0.2889
					c0.1872-0.1222,0.4328-0.1536,0.6014-0.316c0.9142-0.8806,0.2354-1.2373-0.1619-2.0527
					c-2.1482-4.409,3.7566-6.1898,6.9622-6.2203C11.8951,9.0297,11.8893,8.0648,11.2473,8.0339L11.2473,8.0339z"/>
			</g>
		</g>
		<g>
			<g>
				<path class="st9" d="M8.0989,20.391c-1.2424,0.2874-4.3413,1.665-3.6484,3.4213c0.2612,0.6622,1.0839,1.002,1.6957,1.2332
					c0.1266,0.0479,0.6697,0.1249,0.7448,0.2375c0.3377,0.5063-0.2382,0.9299-0.5334,1.2043
					c-0.6449,0.5992-1.3453,1.0521-2.1239,1.4539c-0.6878,0.3549-0.0836,1.3646,0.6033,1.0321
					c1.1174-0.541,4.159-2.2588,3.5639-3.9038c-0.2364-0.6535-0.9333-0.8239-1.5115-1.038
					c-0.9204-0.3407-1.5331-0.5655-0.7269-1.5196c0.5313-0.6287,1.4395-0.9582,2.2013-1.1605
					C8.9848,21.1866,8.7227,20.2467,8.0989,20.391L8.0989,20.391z"/>
			</g>
		</g>
		<g>
			<g>
				<path class="st9" d="M19.6634,21.0781c-2.0032-1.0712,4.1258-6.4394,4.9375-6.893c1.1616-0.6492,2.4343-1.1173,3.7601-1.2574
					c3.7329-0.3946,4.6836,3.044,3.6953,6.0266c-0.141,0.4255,0.3103,0.8614,0.7302,0.7302c1.0096-0.5397,1.77-0.2264,2.2812,0.9399
					c0.9884,0.3802,1.3657,0.9852,1.1317,1.8148c-0.0486,0.5764,0.8131,0.5499,0.8848,0c0.3556-2.7276-2.0014-4.6609-4.6132-3.8994
					c0.2434,0.2434,0.4868,0.4868,0.7302,0.7302c0.7682-2.2657,0.9182-5.0163-1.1254-6.6914
					c-2.0292-1.6633-5.0123-0.9183-7.1619,0.0772c-2.4131,1.1176-4.4584,3.0059-5.7347,5.3424
					c-0.6395,1.1708-1.6413,3.2941,0.1367,3.9046C19.7993,22.0688,20.1124,21.3182,19.6634,21.0781L19.6634,21.0781z"/>
			</g>
		</g>
		<g>
			<g>
				<path class="st9" d="M11.9223,15.3011c1.4594-2.1888,4.3767-2.496,6.0451-0.3103c0.3855,0.505,1.0663,0.3135,1.1484-0.311
					c0.2774-2.1087,1.5421-3.6404,3.4476-4.5032c0.6064-0.2746,0.1648-1.3483-0.4583-1.087
					c-2.432,1.0198-3.8947,2.9732-4.2219,5.5902c0.3507-0.1453,0.7014-0.2905,1.0521-0.4358
					c-2.1627-2.7957-6.1369-2.535-7.8681,0.5574C10.7533,15.3622,11.5708,15.8283,11.9223,15.3011L11.9223,15.3011z"/>
			</g>
		</g>
		<g>
			<g>
				<path class="st9" d="M39.1,32.7904c-0.646-2.1649-1.8064-3.9984-3.3715-5.6164c-0.0357,0.2771-0.0714,0.5541-0.1071,0.8312
					c5.7772-2.9116,6.7783-13.2513,1.4405-17.001c-0.4777-0.3356-1.0794,0.4348-0.6284,0.8144
					c4.2682,3.5925,4.1087,12.6808-1.3463,15.2726c-0.316,0.1502-0.3273,0.6045-0.1071,0.8312
					c1.479,1.5231,2.4548,3.1442,3.2385,5.111C38.4305,33.5654,39.2724,33.3682,39.1,32.7904L39.1,32.7904z"/>
			</g>
		</g>
	</g>
	<g>
		<g>
			<path class="st9" d="M27.8785,35.3937c-0.0102,0.0063-0.0204,0.0125-0.0307,0.0188c-0.3418-0.1941-0.6836-0.3881-1.0254-0.5822
				c-0.0008,0.0008-0.0015,0.0016-0.0023,0.0023c-0.0774,1.0756,1.7049,1.0962,1.6875,0c-0.0039-0.2433-0.0671-0.424-0.1616-0.6447
				c-0.1386-0.3239-0.6228-0.4829-0.9414-0.3831c-0.207,0.0648-0.3628,0.1509-0.5172,0.3043
				C26.2282,34.7642,27.0707,35.8608,27.8785,35.3937L27.8785,35.3937z"/>
		</g>
	</g>
	<g>
		<g>
			<path class="st9" d="M19.4841,34.998c0.0635-0.0627,0.1305-0.1212,0.2012-0.1757c0.2443-0.2007,0.2752-0.5527,0.2213-0.8372
				c-0.1235-0.6521-0.8824-0.9705-1.4619-0.7032c-0.607,0.28-0.813,0.9467-0.7093,1.5652c0.0837,0.4997,0.701,0.779,1.1531,0.6547
				c0.5237-0.1439,0.7464-0.6534,0.6547-1.1531c-0.005-0.0273-0.01-0.0546-0.015-0.0818c0,0.166,0,0.332,0,0.4981
				c0.0415-0.1753-0.0192-0.1343-0.1822,0.1231c-0.1544,0.0418-0.3089,0.0836-0.4633,0.1253
				c-0.0248-0.0074-0.0495-0.0148-0.0743-0.0222c-0.1296-0.0755-0.2591-0.151-0.3887-0.2265
				c0.0163,0.0192,0.0326,0.0385,0.0488,0.0577c-0.084-0.2028-0.168-0.4056-0.252-0.6084
				c-0.0004,0.0843-0.0063,0.1682-0.0176,0.2518C18.1283,35.1555,19.0475,35.4036,19.4841,34.998L19.4841,34.998z"/>
		</g>
	</g>
</g>
</svg>
