<?xml version="1.0" encoding="utf-8"?>
<!-- Generator: Adobe Illustrator 15.0.2, SVG Export Plug-In . SVG Version: 6.00 Build 0)  -->
<!DOCTYPE svg PUBLIC "-//W3C//DTD SVG 1.1//EN" "http://www.w3.org/Graphics/SVG/1.1/DTD/svg11.dtd">
<svg version="1.1" id="Слой_1" xmlns="http://www.w3.org/2000/svg" xmlns:xlink="http://www.w3.org/1999/xlink" x="0px" y="0px"
	 width="800px" height="600px" viewBox="0 0 800 600" enable-background="new 0 0 800 600" xml:space="preserve">
<g id="back">
	<g>
		<g>
			<path fill="#F7FAFC" d="M369.711,432.632c-14.675,9.925-41.521,5.75-45.092-14.262c-8.409,10.17-41.593,8.514-46.028-5.205
				c-10.396-0.555-38.46,7.144-43.021-6.522c-3.352,4.69-9.747,8.502-15.326,11.723c-17.175,9.914-16.638-0.599-30.533-6.596
				c-5.622,9.553-20.834,14.532-30.978,15.914c-9.832,1.339-22.765,7.605-32.165,6.856c-8.401-0.67-12.753-6.884-20.307-7.659
				c-10.665-1.096-15.201,0.596-25.746-4.927c-14.036,8.915-46.322-0.234-42.96-20.512c-18.07,12.88-44.879-26.655-25.876-40.225
				c-2.039,1.456-9.149-15.782-9.495-17.681c-1.208-6.625-0.027-13.18,2.755-19.255c5.692-12.435,19.281-22.548,28.471-32.541
				c11.208-12.19,22.26-23.323,22.725-23.791c7.94-7.992,20.638-8.382,29.039-1.141c7.502-6.367,15.011-12.853,22.125-19.112
				c5.23-4.602,12.119-6.2,18.501-4.857c1.174-0.838,2.292-1.594,3.36-2.271c16.313-10.339,27.301-4.705,32.396-0.427
				c0.85,0.713,1.637,1.486,2.357,2.312c4.777-3.919,8.847-7.057,12.301-9.486c5.451-3.834,22.041-15.506,36.399-3.459
				c1.717,1.44,3.178,3.127,4.349,4.989c3.827-3.591,7.636-7.168,11.414-10.722c4.046-3.808,9.227-5.75,14.433-5.794
				c6.421-1.575,13.388-0.122,18.775,4.395c1.032,0.867,1.976,1.829,2.82,2.867c1.958-1.916,3.879-3.798,5.76-5.642
				c8.246-8.082,21.425-8.135,29.735-0.123c1.796,1.73,3.223,3.702,4.28,5.815c2.906-2.885,5.801-5.763,8.682-8.631
				c6.99-6.961,17.641-8.097,25.828-3.299c14.235-8.875,25.163-0.807,27.295,0.981c1.766,1.481,3.262,3.225,4.448,5.151
				c1.964-1.756,3.555-3.141,4.827-4.204c1.234-1.029,2.231-1.808,3.138-2.448c9.665-6.833,20.33-4.62,26.663,0.619
				c0.375-0.25,0.744-0.488,1.107-0.714c11.516-7.165,22.136-4.248,28.234,0.872c1.825,1.531,3.383,3.296,4.647,5.246l3.403-3.293
				c7.852-7.6,20.177-8.035,28.547-1.011c1.844,1.548,3.396,3.385,4.609,5.418c0.628-0.653,1.26-1.31,1.887-1.961
				c7.971-8.29,21.077-8.769,29.633-1.082c2.717,2.442,4.666,5.43,5.82,8.651l5.303-4.997c8.399-7.918,21.57-7.718,29.725,0.449
				c2.656,2.66,4.466,5.849,5.426,9.231c2.624-2.696,4.091-4.21,4.168-4.29c7.787-8.042,20.463-8.697,29.037-1.502
				c4.085,3.428,6.805,8.033,7.867,13.222c2.094-1.84,3.742-3.271,5.006-4.345c1.039-0.882,1.848-1.545,2.406-1.983
				c9.844-7.731,20.938-5.575,27.564-0.009c0.012,0.01,0.024,0.021,0.036,0.031c10.552-3.376,18.439,2.471,20.243,3.985
				c2.024,1.698,3.653,3.692,4.877,5.866c13.334-8.021,23.819-0.251,25.893,1.489c3.746,3.145,6.141,7.301,7.116,11.734
				c0.797-0.545,1.534-1.026,2.23-1.454c13.884-8.535,24.249-1.404,27.098,0.988c4.366,3.665,7.101,8.967,7.563,14.647
				c0.066,0.804,0.091,1.578,0.079,2.327c7.479-7.259,19.026-8.011,27.349-1.993c1.57,0.7,3.063,1.594,4.438,2.668
				c1.837,0.811,3.525,1.857,4.993,3.091c0.646,0.542,1.251,1.115,1.815,1.715c2.002,0.816,3.912,1.954,5.653,3.415
				c4.806,4.032,7.743,9.998,8.058,16.368c0.125,2.502,0.041,4.984-0.809,8.026c7.674-0.353,13.203,3.797,14.612,4.985
				c4.309,3.632,7.005,8.822,7.501,14.436c0.775,8.777-3.543,13.991-6.697,17.798c-1.213,1.464-2.946,3.541-5.026,6.027
				c-4.114,4.916-9.603,11.447-15.091,17.971c-10.961,13.028-21.923,26.025-21.923,26.025c-7.596,9.007-21.056,10.147-30.06,2.554
				c-0.418-0.353-0.816-0.716-1.199-1.092c-0.934,0.649-1.86,1.295-2.779,1.935c-11.034,7.674-19.736,13.643-25.867,17.74
				c-3.688,2.465-6.494,4.289-8.582,5.575c-1.437,0.886-2.572,1.542-3.572,2.064c-4.559,2.38-8.966,3.047-12.93,2.644
				c-4.258,2.749-8.479,3.886-12.379,3.94c-2.139,0.938-4.404,1.514-6.699,1.718c-2.169,0.934-4.323,1.41-6.754,1.625
				c-5.779,0.514-11.383-1.249-15.803-4.956c-1.242-1.044-2.352-2.215-3.313-3.488c-8.132,6.082-14.788,10.517-20.294,13.522
				c-13.999,7.645-25.633,7.711-34.58,0.203c-3.035-2.547-5.273-5.864-6.513-9.558c-3.423,3.14-6.915,6.348-10.49,9.634
				l-5.487,5.036c-9.357,8.536-21.458,6.889-28.57,0.849c-1.01-0.858-1.922-1.792-2.732-2.783c-2.934,2.456-5.32,4.3-7.396,5.721
				c-12.51,8.554-22.298,4.835-27.022,1.851c-7.817,6.257-19.146,6.286-27.027-0.328c-3.793-3.182-6.375-7.42-7.488-12.198
				c-4.82,4.404-9.525,8.704-14.086,12.874c-4.066,3.718-9.227,5.589-14.396,5.589C399.615,452.181,373.886,449.646,369.711,432.632
				z M763.225,341.896c-0.008-0.007-0.016-0.014-0.024-0.021C763.209,341.883,763.217,341.89,763.225,341.896z"/>
		</g>
	</g>
	<g>
		<g>
			<path fill="#F2F6F9" d="M575.521,425.805c-6.082,0.481-11.92-0.971-16.495-4.114c-1.048-0.721-1.995-1.521-2.832-2.387
				c0,0-9.093,7.354-12.357,5.969c-3.225-1.369-3.849-6.041-6.659-8.154c-4.096-3.079-3.01-0.927-7.877,2.973
				c-7.785,6.236-16.561,5.194-23.46-2.855c-4.57-5.334-4.017-13.161-8.274-18.174c-10.264,5.185-11.531,15.9-25.119,10.539
				c-7.602-2.999-11.967-10.471-13.306-18.334c-5.222,7.728-21.444,9.25-29.112,3.267c-4.801-3.745-4.438-10.886-8.967-14.678
				c-9.256,14.587-27.24,17.11-36.826-0.329c-9.893,7.12-32.719,17.591-34.684-2.569c0.765,7.844-15.63,0.755-17.699-1.085
				c-10.109-8.987,1.2-20.232-2.185-31.452c-2.101-6.964-4.859-11.424,2.648-16.801c3.734-2.675,8.217-3.521,12.568-2.094
				c-3.842-13.606,15.693-21.324,26.165-22.367c7.264-0.724,20.41,6.899,25.602,2.287c5.642-5.014,3.671-14.598,11.537-19.479
				c5.166-3.206,13.031-4.874,17.834-8.21c2.527-1.754,5.253-2.878,8.009-3.476c3.7-2.12,6.978-3.007,10.862-3.319
				c4.34-0.35,8.598,0.395,12.286,2.118c3.514-2.947,5.696-4.752,5.969-4.978c5.99-4.95,14.887-6.121,22.249-3.48
				c0.182-0.151,0.361-0.301,0.543-0.451c7.326-6.071,19.117-6.522,27.102-1.037c0.669,0.46,1.297,0.952,1.883,1.475l6.078-4.558
				c5.213-3.91,12.31-5.149,18.717-3.741c2.922-0.953,6.078-1.328,9.198-1.104c3.826-0.528,7.821-0.146,11.461,1.181
				c7.204-2.537,13.167-1.859,17.354-0.523c9.066-2.207,15.803,0.54,19.039,2.395c5.281-2.157,11.496-2.288,16.9-0.368
				c0.711-0.104,1.408-0.182,2.102-0.238c6.201-0.507,12.164,0.97,16.784,4.144c1.217,0.836,2.297,1.78,3.227,2.809
				c7.237-3.798,16.841-3.43,23.652,1.248c0.951,0.653,1.819,1.372,2.597,2.146c6.518-1.934,14.057-1.025,19.701,2.852
				c1.768,1.215,3.254,2.628,4.43,4.19c7.661-1.663,13.479,0.026,17.069,1.795c1.999,0.584,3.916,1.438,5.671,2.573
				c4.253,2.746,6.785,6.628,7.447,10.714c6.512-1.925,14.038-1.01,19.672,2.859c4.195,2.882,6.79,7.093,7.135,11.568
				c0.072,0.933,0.064,1.812-0.02,2.652c4.356,0.114,8.676,1.391,12.219,3.826c4.278,2.939,6.935,7.265,7.287,11.865
				c0.152,1.982-0.065,3.852-0.717,5.784c7.659,6.186,7.979,16.244,0.686,22.75c-17.336,15.459-37.74,34.455-43.218,40.651
				c-0.776,1.761-1.938,3.441-3.495,4.959c-5.162,5.037-13.232,6.895-20.518,5.298c-0.374,0.249-0.743,0.493-1.107,0.732
				c-4.885,3.214-8.844,5.564-12.105,7.188c-14.236,7.085-23.893,2.974-28.379-0.11c-1.357-0.932-2.543-1.998-3.539-3.164
				l-17.324,11.676c-7.441,5.017-18.197,4.977-25.586-0.099c-0.791-0.544-1.525-1.128-2.201-1.748c-3.157,1.8-6.008,3.29-8.593,4.49
				c-6.653,3.092-12.757,4.637-18.274,4.637C577.341,425.938,576.424,425.894,575.521,425.805z"/>
		</g>
	</g>
	<g>
		<g>
			<path fill="#FFFFFF" d="M761.074,304.151c0.273,0.553,1.155,0.798,1.666,0.437c2.717-1.926,1.869-6.208,0.757-8.845
				c-1.45-3.437-4.108-6.116-7.655-7.31c-2.109-0.709-3.237,2.384-1.463,3.473c2.301,1.413,4.371,3.127,5.418,5.688
				C760.668,299.724,760.081,302.133,761.074,304.151L761.074,304.151z"/>
		</g>
	</g>
	<g>
		<g>
			<path fill="#FFFFFF" d="M754.583,342.425c0.328,2.178,3.349,1.353,3.536-0.479c1.109-10.802-10.82-18.442-20.498-17.936
				c0.876,0.876,1.752,1.752,2.629,2.629c-0.112-5.569-0.607-11.516-4.752-15.682c-1.708-1.718-3.924-3.061-6.303-3.587
				c-2.46-0.545-4.813,0.172-7.264,0.038c-1.98-0.109-2.603,2.332-1.502,3.627c1.409,1.661,2.898,1.638,4.928,1.477
				c2.014-0.16,3.714,0.096,5.393,1.349c3.963,2.958,4.084,8.29,4.242,12.778c0.047,1.314,1.178,2.763,2.629,2.629
				C745.908,328.503,753.34,334.172,754.583,342.425L754.583,342.425z"/>
		</g>
	</g>
	<g>
		<g>
			<path fill="#FFFFFF" d="M726.235,353.791c-2.145-0.725-3.577,2.687-1.541,3.655c3.001,1.429,5.431-1.076,5.729-4.05
				c0.382-3.797-0.394-8.569-1.686-12.131c-2.436-6.709-8.99-12.105-16.447-11.018c-0.942,0.138-1.928,0.701-2.826,0.791
				c-0.705,0.071-0.326,0.711-0.535-0.506c-0.295-1.722-1.773-3.742-2.744-5.153c-1.981-2.878-4.404-5.374-7.184-7.487
				c-5.777-4.391-14.375-8.213-21.73-6.667c-2.015,0.424-1.958,3.56,0,4.018c3.106,0.727,6.281,0.934,9.354,1.872
				c2.817,0.86,5.484,2.134,7.945,3.752c2.504,1.647,4.779,3.698,6.624,6.064c1.698,2.178,2.532,4.637,3.87,6.991
				c1.502,2.64,3.774,2.568,6.293,1.606c2.751-1.051,5.754-0.402,8.194,1.139c2.847,1.797,4.456,4.667,5.323,7.857
				c0.431,1.587,0.711,3.217,0.892,4.85C725.844,350.068,725.717,353.615,726.235,353.791L726.235,353.791z"/>
		</g>
	</g>
	<g>
		<g>
			<path fill="#FFFFFF" d="M707.293,306.818c0.665,3.147,5.321,1.777,4.773-1.316c-0.906-5.12-4.197-9.351-8.479-12.184
				c-2.102-1.392-4.549-2.434-7.01-2.98c-2.234-0.496-5.668,0.19-7.223-1.499c-3.582-3.893-7.061-6.85-12.223-8.507
				c-4.541-1.459-10.875-2.247-15.26,0.049c-2.1,1.1-1.1,4.448,1.194,4.41c2.323-0.037,4.56-0.627,6.909-0.53
				c2.339,0.097,4.686,0.607,6.871,1.445c2.041,0.783,4.01,1.904,5.674,3.327c1.555,1.33,2.561,3.145,4.076,4.473
				c1.799,1.579,3.941,1.4,6.176,1.503c2.275,0.104,4.54,0.726,6.559,1.775C703.34,298.868,706.351,302.357,707.293,306.818
				L707.293,306.818z"/>
		</g>
	</g>
	<g>
		<g>
			<path fill="#FFFFFF" d="M658.734,332.807c-0.275,1.969,1.947,2.932,3.152,1.329c2.963-3.935,0.168-8.982-2.831-11.977
				c-3.688-3.681-8.793-6.086-13.597-7.93c-5.359-2.057-11.095-3.176-16.825-3.438c-3.995-0.183-9.429-0.042-11.392,4.171
				c1.353-0.175,2.705-0.349,4.057-0.523c-8.074-7.938-21.484-9.266-31.125-3.448c1.053,0.136,2.104,0.271,3.157,0.407
				c-8.279-9.182-25.163-10.075-34.001-1.183c-2.289,2.303,1.104,5.549,3.512,3.513c7.491-6.339,20.117-6.086,26.805,1.354
				c0.76,0.845,2.213,0.975,3.157,0.407c7.634-4.59,18.396-3.684,24.843,2.603c1.094,1.066,3.342,1.029,4.057-0.522
				c1.24-2.689,6.943-1.707,9.236-1.509c4.051,0.349,8.045,1.258,11.892,2.563C648.625,320.59,659.82,325.073,658.734,332.807
				L658.734,332.807z"/>
		</g>
	</g>
	<g>
		<g>
			<path fill="#FFFFFF" d="M628.223,272.109c1.307,1.045,3.578-0.307,2.5-1.93c-3.505-5.272-10.239-7.331-16.225-8.09
				c-6.336-0.805-13.283-0.191-18.862,3.139c0.937,0.121,1.873,0.242,2.81,0.362c-4.623-4.759-11.181-7.534-17.698-8.357
				c-3.181-0.401-6.536-0.31-9.58,0.785c-3.55,1.277-6.696,4.267-10.589,2.466c-1.723-0.796-4.316,1.011-2.931,2.931
				c4.824,6.684,12.978-1.17,18.716-1.517c6.624-0.4,14.094,2.264,18.803,6.971c0.715,0.714,1.938,0.901,2.811,0.362
				C606.854,263.756,620.307,265.782,628.223,272.109L628.223,272.109z"/>
		</g>
	</g>
	<g>
		<g>
			<path fill="#FFFFFF" d="M683.902,302.351c-1.332-0.697-2.979,0.746-2.133,2.132c0.057,0.092,0.111,0.184,0.168,0.275
				c0.406,0.665,1.121,0.892,1.861,0.758c5.148-0.936-0.527-7.489-2.191-8.872c-3.84-3.192-8.637-5.09-13.326-6.659
				c-4.684-1.567-10.132-2.79-14.97-1.164c-5.144,1.729-6.735,6.504-10.478,9.868c1.229,0.159,2.459,0.317,3.688,0.476
				c-3.254-6.228-8.852-10.945-15.284-13.665c-5.347-2.26-14.222-4.616-18.545,0.793c0.98-0.127,1.962-0.253,2.942-0.38
				c-1.408-0.77-2.846-1.417-4.313-2.065c-2.512-1.109-4.528,2.153-2.179,3.728c1.327,0.89,2.641,1.756,4.04,2.531
				c0.871,0.482,2.265,0.46,2.943-0.38c3.195-3.954,11.068-0.893,14.715,0.911c4.904,2.426,8.914,6.144,11.625,10.897
				c0.776,1.359,2.592,1.482,3.688,0.476c2.58-2.371,3.938-6.097,6.879-8.04c3.049-2.014,7.145-1.522,10.508-0.746
				c3.536,0.815,7.076,2.071,10.366,3.601c1.468,0.683,2.914,1.442,4.245,2.369c0.313,0.219,4.098,3.52,4.043,3.566
				c0.666-0.086,1.332-0.172,1.998-0.258C684.096,302.451,683.999,302.401,683.902,302.351L683.902,302.351z"/>
		</g>
	</g>
	<g>
		<g>
			<path fill="#FFFFFF" d="M728.799,391.871c-1.988,1.13-0.236,4.029,1.775,3.037c5.957-2.939,3.168-9.786-0.879-12.928
				c-5.676-4.408-12.704-6.67-19.786-7.322c-2.114-0.195-2.578,3.368-0.501,3.699c4.679,0.744,9.322,2.116,13.546,4.284
				C725.281,383.836,734.053,388.888,728.799,391.871L728.799,391.871z"/>
		</g>
	</g>
	<g>
		<g>
			<path fill="#FFFFFF" d="M501.648,301.172c1.471,2.203,4.773,0.286,3.555-2.078c-3.098-6.005-7.986-11.436-13.535-15.285
				c-2.674-1.855-5.898-3.32-9.206-3.37c-1.569-0.023-3.027,0.347-4.464,0.944c-0.997,0.415-1.594,1.063-2.716,0.504
				c-0.469-0.234-0.855-0.881-1.214-1.244c-4.885-4.963-10.375-2.761-16.539-2.727c-3.246,0.018-6.178-1.878-9.441-1.523
				c-2.372,0.259-4.795,1.636-5.186,4.167c-0.308,1.999,2.47,3.604,3.534,1.49c1.271-2.523,5.367-0.348,7.276,0.117
				c2.621,0.639,5.247,0.453,7.898,0.148c2.303-0.265,5.221-0.912,7.373,0.225c1.95,1.029,2.896,3.271,5.059,4.072
				c2.882,1.067,4.709-0.938,7.391-1.402c2.919-0.506,5.969,1.219,8.254,2.845C494.553,291.517,498.361,296.248,501.648,301.172
				L501.648,301.172z"/>
		</g>
	</g>
	<g>
		<g>
			<path fill="#FFFFFF" d="M559.244,283.435c1.841,1.677,4.26-0.831,2.698-2.699c-8.362-10.007-22.796-19.324-35.198-10.259
				c-0.488,0.357-2.991,2.551-3.451,2.386c-0.623-0.222-1.861-2.469-2.42-2.995c-1.954-1.842-4.388-3.159-6.969-3.88
				c-4.557-1.271-11.602-0.952-14.791,3.11c-1.42,1.81,0.301,4.098,2.424,3.141c2.336-1.053,4.203-2.269,6.861-2.417
				c2.357-0.132,4.754,0.361,6.846,1.463c2.369,1.246,3.262,3.091,4.996,4.938c1.882,2.004,4.345,1.152,6.339-0.165
				c2.573-1.7,4.724-3.773,7.817-4.512c3.184-0.761,6.529-0.36,9.598,0.692C550.109,274.338,554.591,279.195,559.244,283.435
				L559.244,283.435z"/>
		</g>
	</g>
	<g>
		<g>
			<path fill="#FCE0DE" d="M630.458,280.458c-2.074-0.358-2.818,2.38-0.864,3.133c5.158,1.989,9.867,4.445,13.854,8.337
				c1.001,0.977,3.102,0.661,3.371-0.89c1.143-6.593-4.24-10.656-9.153-13.916c-0.381,1.406-0.761,2.812-1.142,4.218
				c6.017,0.415,11.678,1.846,17.021,4.688c2.23,1.188,4.359-1.157,3.319-3.32c-4.507-9.37-16.503-9.472-22.315-17.29
				c-0.133,1.02-0.264,2.039-0.395,3.059c1.061-1.186,8.061,3.943,9.152,4.664c3.431,2.269,6.65,4.797,9.722,7.53
				c2.498,2.223,6.04-1.253,3.69-3.691c-1.316-1.366-2.633-2.733-3.95-4.1c-0.159-0.165-1.722-2.111-1.976-2.051
				c-2.376,0.574,0.269,1.362,0.564,1.504c2.744,1.311,4.483,4.223,4.625,7.205c1.709-0.463,3.417-0.926,5.126-1.389
				c-0.378-0.696,0.181-0.453,0.41-0.042c0.749,1.345,2.446,1.645,3.735,0.979c8.37-4.314,14.102,5.687,21.136,7.786
				c3.497,1.044,7.146,0.501,10.63,1.879c3.34,1.319,6.189,3.548,8.483,6.281c1.804,2.149,5.578-0.78,3.888-2.999
				c-2.578-3.383-5.688-6.058-9.596-7.802c-1.926-0.859-3.918-1.489-6.001-1.825c-2.12-0.342-4.485-0.059-6.478-0.896
				c-2.096-0.882-3.814-2.648-5.646-3.964c-1.961-1.408-4.018-2.649-6.271-3.533c-4.255-1.668-8.786-1.686-12.901,0.358
				c1.246,0.326,2.49,0.652,3.736,0.979c-1.484-2.761-5.07-4.107-7.905-2.499c-2.89,1.64-3.477,5.32-1.972,8.074
				c1.284,2.348,5.263,1.344,5.127-1.389c-0.293-5.846-4.832-12.989-11.38-13.025c-2.977-0.016-5.769,2.391-4.748,5.561
				c0.509,1.58,1.884,2.727,3.009,3.868c1.555,1.576,3.109,3.153,4.663,4.729c1.229-1.23,2.46-2.46,3.69-3.69
				c-4.361-3.785-9.022-7.241-13.978-10.211c-3.324-1.992-8.745-5.7-12.157-1.861c-0.686,0.772-1.086,2.136-0.395,3.058
				c2.994,3.996,7.124,6.34,11.515,8.542c4.232,2.123,8.782,4.193,10.97,8.65c1.106-1.106,2.213-2.214,3.32-3.32
				c-6.017-3.14-12.656-5.013-19.471-5.024c-2.193-0.003-3.15,3.144-1.143,4.218c3.557,1.904,8.056,4.891,7.476,9.471
				c1.147-0.476,2.296-0.95,3.442-1.426C641.904,284.874,636.514,281.504,630.458,280.458L630.458,280.458z"/>
		</g>
	</g>
	<g>
		<g>
			<path fill="#FCE0DE" d="M662.674,279.235c0.384-0.722,0.057-1.647-0.763-1.873c-1.528-0.421-2.886,0.588-4.014,1.537
				c-1.062,0.894-1.756,1.985-2.206,3.291c-0.251,0.73,0.229,1.511,0.884,1.799c0.747,0.328,1.449-0.016,1.904-0.624
				c0.54-0.723,1.167-1.441,1.829-2.054C661.11,280.568,662.141,280.237,662.674,279.235L662.674,279.235z"/>
		</g>
	</g>
	<g>
		<g>
			<path fill="#E6E6E6" d="M542.892,263.339c2.041,0.29,3.56-2.379,1.497-3.549c-5.385-3.053-12.881-1.793-17.998,1.22
				c-1.152,0.678-3.061,1.772-3.816,2.937c-0.636,0.977-0.109,0.901-1.168,0.501c-0.776-0.294-1.525-0.679-2.301-0.979
				c-3.208-1.242-7.746-2.666-11.139-1.53c-2.145,0.717-1.975,3.42,0,4.194c1.686,0.662,3.6,0.61,5.373,0.971
				c1.883,0.383,3.742,0.955,5.499,1.734c2.946,1.307,4.685,1.378,7.043-1.044C530.656,262.891,536.497,262.429,542.892,263.339
				L542.892,263.339z"/>
		</g>
	</g>
	<g>
		<g>
			<path fill="#E6E6E6" d="M477.488,270.302c1.307-0.279,1.301-2.354,0-2.636c-3.635-0.787-7.727,0.297-11.09,1.701
				c-1.629,0.68-3.186,1.505-4.641,2.508c-0.758,0.522-1.516,1.286-2.332,1.704c-1.055,0.54-2.26,0.411-3.391,0.41
				c-7.355-0.004-16.287-1.452-20.891,5.78c1.001-0.262,2.002-0.524,3.004-0.787c-3.145-1.87-7.656-2.117-10.24,0.841
				c-1.133,1.296-0.076,3.831,1.832,3.147c2.165-0.775,4.047-1.42,6.191-0.197c1.049,0.599,2.381,0.231,3.004-0.787
				c4.037-6.603,14.152-3.205,20.352-4.558c2.951-0.644,5.301-3.442,8.051-4.706C470.641,271.205,474.006,271.046,477.488,270.302
				L477.488,270.302z"/>
		</g>
	</g>
</g>
<g id="Layer_2">
	<path fill="#FFEFAF" d="M402.35,190.453c5.566,13.188,11.082,26.397,16.596,39.609c0.514,1.229,1.381,2.095,2.803,2.134
		c12.758,0.346,25.514,0.785,38.277,0.872c12.76,0.087,25.625-0.855,38.358-0.053c3.163,0.199,3.989-4.459,1.471-5.708
		c5.409-12.131,6.981-25.701,14.417-36.98c1.744-2.646-1.551-4.935-3.906-3.907c-0.949,0.414-1.898,0.828-2.848,1.242
		c-1.168-1.999-4.569-1.588-5.089,0.733c-0.2,0.895-4.737-1.241-5.283-1.334c-1.768-0.302-2.747,0.176-4.399,0.526
		c-5.133,1.088-10.861-0.626-16.162-0.17c-2.281,0.197-4.644,0.937-6.901,1.023c-3.644,0.138-4.841-1.355-7.912-1.758
		c-3.068-0.403-5.566,2.403-8.241,1.363c-3.418-1.329-3.516-2.962-7.585-1.809c-2.307,0.654-5.586,2.527-7.965,2.498
		c-2.361-0.03-2.344-0.821-4.22-1.585c-3.654-1.487-8.583,0.739-12.275,1.072c-0.343,0.031-14.278-0.829-14.193-0.657
		C405.623,184.191,400.957,187.156,402.35,190.453z"/>
	<path fill="#E83D25" d="M442.372,121.947c-1.337,3.358-0.307,6.815,2.952,8.756c0.191,0.114,0.385,0.191,0.578,0.251
		c0.443,0.563,0.925,1.086,1.48,1.521c2.496,1.956,6.332,2.181,9.334,2.855c2.705,0.608,5.614,1.651,8.117,0.041
		c0.893-0.167,1.605-0.724,1.896-1.637c0.067-0.213,0.13-0.432,0.193-0.648c0.773-1.397,1.08-3.053,0.954-4.641
		c0.223-2.059,0.152-4.129-0.393-6.038c1.758-1.88,0.278-5.361-2.365-5.251c-0.044,0.002-0.088,0.005-0.133,0.008
		c-0.002-0.002-0.002-0.004-0.004-0.006c-0.801-0.992-2.135-1.63-3.404-1.657c-0.201-0.004-0.393,0.03-0.577,0.081
		c-1.462-0.423-3.018-0.443-4.57-0.002c-1.802,0.512-3.365,1.542-5.278,1.721c-1.99,0.187-4.021-0.277-5.959-0.666
		c-2.019-0.405-3.799,1.222-3.303,3.302C442.051,120.607,442.212,121.277,442.372,121.947z M456.676,119.297
		c2.164-0.637,4.34-0.015,5.963,1.516c1.662,1.567-0.846,4.068-2.504,2.504c-0.727-0.684-1.566-0.885-2.518-0.604
		C455.426,123.358,454.49,119.941,456.676,119.297z"/>
	<path fill="#FFEFAF" d="M568.885,87.162c0.871,1.711,2.383,3.02,2.253,5.088c-0.134,2.133-1.202,4.649-1.677,6.742
		c-0.432,1.907,2.164,2.526,2.861,0.789c1.064-2.655,2.77-5.696,3.064-8.557c0.08-0.773-0.051-1.471-0.27-2.141
		c0.072-0.041,0.138-0.089,0.205-0.136c1.55-0.319,2.889-1.614,2.932-3.004c6.95,3.389,16.287,6.782,14.697,15.536
		c-1.935,2.816-4.545,5.471-5.989,7.495c-3.43,4.806-5.497,10.218-6.417,16.033c-0.016,0.096-0.012,0.189-0.019,0.285
		c-1.493,3.791-2.392,7.869-2.843,12.205c-0.232,2.217,3.384,2.639,3.846,0.521c0.639-2.933,1.667-5.756,3.004-8.43
		c0.979-0.045,1.914-0.587,2.508-1.841c1.359-2.874,3.193-5.735,5.068-8.639c0.904-0.909,1.842-1.781,2.821-2.603
		c5.361-4.502,10.529-8.371,12.251-15.497c2.701-11.177-4.563-22.05-15.674-23.307c-1.185-2.689-3.647-4.566-7.002-4.638
		c-3.317-0.071-5.797,1.761-7.445,4.281c-2.063,0.318-3.999,1.063-5.289,2.242c-1.178,1.075-1.723,2.524-1.73,3.974
		c-0.08,0.035-0.156,0.063-0.237,0.101C568.496,84.278,568.299,86.011,568.885,87.162z"/>
	<path fill="#E83D25" d="M590.883,144.564c-0.082,2.433-0.904,3.31-2.385,5.029c-0.992,1.154-2.935,2.995-0.82,3.979
		c1.087,0.506,11.463,1.894,11.57,0.944c0.402-3.578-1.809-6.996-3.041-10.201c-1.072-2.789,0.291-5.655-0.9-8.204
		c1.491-0.753,3.803-2.613,5.572-1.759c1.512,0.729,2.079,4.374,2.311,5.904c0.332,2.199-0.123,4.268,0.289,6.539
		c0.457,2.519,1.097,5.065,2.621,7.173c2.748,3.802,8.639,3.392,12.93,4.864c3.049,1.045,8.224,1.332,8.826,5.148
		c0.334,2.113-2.646,7.394-3.193,9.409c-2.988,10.983-5.811,22.589-7.356,33.824c-0.646,4.696-1.331,9.207,0.409,13.757
		c1.949,5.095,5.521,9.563,7.318,14.643c1.521,4.302,3.258,8.527,4.725,12.85c1.451,4.279,2.51,7.959,3.333,12.318
		c3.669-0.186,8.462,1.64,11.202,4.103c2.763-2.405,8.725-1.204,11.83,0.019c3.092,1.218,5.922,4.986,8.177,5.234
		c0.995,0.109,3.901-1.22,5.483-1.141c2.316,0.117,5.295,0.896,7.465,1.664c4.333,1.534,8.42,4.262,11.189,7.854
		c3.707-2.271,8.422-1.136,12.307,0.204c2.93,1.011,5.273,1.808,7.461,3.74c1.346,1.188,1.293,2.373,3.102,2.83
		c3.082-18.067-20.804-16.063-29.753-23.166c-7.67-6.086-9.49-18.721-12.665-27.372c-2.269-6.178-3.396-13.065-8.018-18.068
		c-2.752-2.98-6.043-4.822-7.584-8.774c-1.423-3.653-1.424-7.65-1.359-11.52c0.062-3.749,0.184-7.498,0.326-11.247
		c0.059-0.106,0.123-0.201,0.175-0.32c0.113-0.265,0.225-0.546,0.337-0.817c4.4-10.578,8.145-25.725,3.441-36.634
		c-3.121-7.237-10.861-6.614-18.231-4.197c-2.728-1.667-6.048-1.369-9.399-1.571c-4.146-0.25-9.003,0.269-12.433-2.3
		c-1.769-1.325-3.542-2.652-5.13-4.195c-1.428-1.389-3.968-4.925-2.042-6.789c1.05-1.017,1.983,0.035,2.88-1.349
		c0.568-0.877,0.23-2.963,0.055-3.941c-1.766-9.738-16.342,0.836-20.645,3.534c-2.605,1.634-3.191,2.189-2.779,5.486
		c0.096,0.77,0.242,1.533,0.416,2.292C589.676,137.728,591.002,141.047,590.883,144.564z"/>
	<g>
		<g>
			<g>
				<path fill="#303030" d="M607.123,128.691c-0.302-0.452-1.027-0.037-0.734,0.429c1.947,3.091,3.996,6.203,6.758,8.637
					c1.244,1.096,2.651,2.098,4.249,2.597c0.692,0.216,1.415,0.338,2.141,0.336c0.188,0,1.802-0.29,1.827-0.265
					c-0.037-0.291-0.075-0.581-0.112-0.871c-1.497,2.717-2.823,5.407-2.863,8.568c-0.007,0.583,0.679,0.999,1.185,0.68
					c3.187-2.015,5.86-6.979,9.883-7.142c-0.144-0.529-0.287-1.059-0.431-1.589c-2.837,1.426-5.897,5.249-4.611,8.567
					c0.204,0.527,0.757,0.826,1.29,0.525c5.229-2.95,10.9-6.158,16.979-6.792c8.246-0.861,12.311,5.515,13.725,12.928
					c1.584,8.298-0.779,16.533-2.924,24.501c-1.534,5.704-2.671,11.483-2.863,17.404c-0.173,5.337,0.191,11.774,3.493,16.244
					c1.723,2.332,4.521,3.563,6.342,5.808c1.848,2.279,2.956,5.245,3.931,7.977c3.976,11.152,5.119,24.093,14.133,32.625
					c4.332,4.1,9.428,8.165,15.205,9.903c5.194,1.563,12.291,1.763,16.238,5.912c0.636,0.668,1.594-0.32,1.003-1.004
					c-4.042-4.666-11.59-4.958-17.103-6.709c-3.612-1.148-6.534-3.245-9.52-5.529c-3.51-2.685-7.006-5.723-9.267-9.575
					c-3.263-5.56-4.733-12.099-6.492-18.241c-1.555-5.431-3.027-11.845-6.604-16.377c-1.896-2.402-4.935-3.67-6.646-6.213
					c-1.783-2.65-2.459-6.075-2.758-9.196c-0.605-6.34,0.237-12.882,1.733-19.046c1.817-7.489,4.429-14.892,4.438-22.688
					c0.008-6.144-1.537-14.07-6.641-18.119c-8.055-6.391-19.888,0.478-27.289,4.673c0.43,0.175,0.86,0.35,1.29,0.525
					c-1.003-2.572,1.626-5.527,3.778-6.628c0.749-0.383,0.402-1.628-0.43-1.589c-4.658,0.22-7.129,5.166-10.678,7.487
					c0.395,0.227,0.789,0.453,1.185,0.68c-0.009-2.894,1.202-5.342,2.53-7.843c0.145-0.272,0.13-0.652-0.112-0.871
					c-0.116-0.105-0.231-0.209-0.347-0.314c-0.181-0.163-0.453-0.272-0.697-0.184C615.23,141.136,609.957,132.942,607.123,128.691
					L607.123,128.691z"/>
			</g>
		</g>
		<g>
			<g>
				<path fill="#303030" d="M632.79,157.496c0.475-0.625-0.515-1.277-1.036-0.799c-5.124,4.711-7.044,12.639-8.604,19.142
					c-1.6,6.677-3.08,13.341-4.849,19.979c-1.906,7.154-3.572,14.687-2.146,22.088c1.442,7.49,6.675,13.735,9.831,20.57
					c3.159,6.842,4.677,13.944,5.941,21.33c0.138,0.802,1.47,0.607,1.411-0.191c-0.54-7.498-2.589-14.826-5.701-21.655
					c-3.097-6.796-8.434-13.086-9.822-20.511c-1.498-8.005,0.75-16.102,2.854-23.785C624,181.489,624.943,167.832,632.79,157.496
					L632.79,157.496z"/>
			</g>
		</g>
		<g>
			<g>
				<path fill="#303030" d="M597.782,155.585c1.031-0.001,1.03-1.601,0-1.6c-4.182,0.003-8.091-0.937-11.882-2.682
					c0.123,0.301,0.246,0.603,0.368,0.904c0.595-3.41,0.114-6.874,0.008-10.31c-0.096-3.104-0.53-6.045-2.06-8.785
					c-0.502-0.9-1.883-0.093-1.381,0.808c1.545,2.77,1.77,5.739,1.852,8.84c0.08,3.01,0.561,6.026,0.038,9.021
					c-0.057,0.327,0.027,0.747,0.368,0.903C589.137,154.546,593.319,155.588,597.782,155.585L597.782,155.585z"/>
			</g>
		</g>
		<g>
			<g>
				<path fill="#303030" d="M626.949,164.199c0.781,0.664,1.917-0.463,1.132-1.131c-6.147-5.233-13.72-7.611-21.655-8.396
					c-1.025-0.102-1.016,1.499,0,1.6C613.903,157.011,621.152,159.264,626.949,164.199L626.949,164.199z"/>
			</g>
		</g>
		<g>
			<g>
				<path fill="#303030" d="M603.469,129.835c-0.357,0.166-0.184,0.774,0.202,0.746c2.519-0.187,5.837-1.783,8.013-3.052
					c0.202-0.118,0.345-0.35,0.338-0.587c-0.111-3.429-3.391-5.393-3.805-8.68c-0.057-0.446-0.404-0.809-0.891-0.678
					c-2.934,0.792-5.658,2.199-8.307,3.663c0.354,0.202,0.705,0.405,1.059,0.607c0.137-4.06-3.123-4.969-6.367-3.214
					c-5.011,2.709-7.855,8.632-9.418,13.844c-0.248,0.827,0.954,1.105,1.259,0.348c1.466-3.644,2.97-7.334,5.684-10.253
					c1.65-1.775,7.587-6.202,7.437-0.724c-0.016,0.547,0.604,0.858,1.058,0.607c2.544-1.407,5.151-2.761,7.971-3.521
					c-0.297-0.226-0.593-0.452-0.89-0.678c0.232,1.852,1.096,3.204,2.127,4.727c0.576,0.849,1.441,1.876,1.605,2.914
					c0.146,0.935,0.514,0.122-0.168,0.747c-0.914,0.841-2.853,1.266-3.984,1.764C605.393,128.852,604.451,129.38,603.469,129.835
					L603.469,129.835z"/>
			</g>
		</g>
		<g>
			<g>
				<path fill="#303030" d="M602.516,132.539c-0.132-0.652-1.215-0.502-1.16,0.157c0.804,9.666,3.127,19.345,5.741,28.663
					c0.237,0.846,1.468,0.485,1.302-0.359c-0.939-4.761-2.278-9.431-3.314-14.17C604.049,142.096,603.472,137.286,602.516,132.539
					L602.516,132.539z"/>
			</g>
		</g>
		<g>
			<g>
				<path fill="#303030" d="M590.736,128.617c-0.288-0.576-1.285-0.159-1.045,0.44c1.932,4.832,4.008,9.603,5.59,14.566
					c1.584,4.97,2.668,10.063,3.867,15.134c0.208,0.878,1.482,0.493,1.332-0.367C598.678,148.042,595.434,138.017,590.736,128.617
					L590.736,128.617z"/>
			</g>
		</g>
		<g>
			<g>
				<path fill="#303030" d="M599.814,159.046c0.455,0.008,0.66-0.664,0.238-0.879c-3.808-1.945-8.807-2.543-12.959-3.529
					c-5.148-1.223-10.348-2.366-15.587-3.121c-0.937-0.135-1.366,1.268-0.4,1.453c5.21,0.997,10.419,1.914,15.587,3.118
					C590.885,157.063,595.511,158.972,599.814,159.046L599.814,159.046z"/>
			</g>
		</g>
		<g>
			<g>
				<path fill="#303030" d="M569.814,155.5c-0.518-0.146-0.854,0.623-0.369,0.874c7.371,3.827,16.066,5.98,24.157,7.682
					c3.2,0.673,6.513,1.307,9.796,1.309c1.631,0.001,3.7-0.036,4.955-1.248c0.639-0.618-0.314-1.549-0.968-0.968
					c-1.374,1.22-4.374,0.686-6.026,0.531c-3.31-0.311-6.59-0.972-9.824-1.721C584.14,160.248,577.095,157.564,569.814,155.5
					L569.814,155.5z"/>
			</g>
		</g>
		<g>
			<g>
				<path fill="#303030" d="M571.725,152.429c0.228,0.876,1.544,0.503,1.35-0.373c-0.432-1.941-0.949-3.857-1.571-5.747
					c-0.347-1.055-0.752-2.534-1.892-3.003c-1.377-0.567-3.345,0.67-4.576,1.232c-2.084,0.951-4.113,2.13-5.625,3.878
					c-0.574,0.665,0.287,1.505,0.955,0.955c1.516-1.25,7.691-6.332,9.375-3.615C570.854,147.555,571.191,150.383,571.725,152.429
					L571.725,152.429z"/>
			</g>
		</g>
		<g>
			<g>
				<path fill="#303030" d="M569.289,156.359c0.463,0.441,1.202-0.124,0.883-0.682c-1.242-2.175-1.869-4.203-1.857-6.706
					c0.004-0.686-0.895-0.715-1.117-0.151C566.306,151.087,567.596,154.744,569.289,156.359L569.289,156.359z"/>
			</g>
		</g>
		<g>
			<g>
				<path fill="#303030" d="M577.628,84.406c-0.513-0.481-1.274,0.276-0.772,0.773c3.084,3.056,7.179,3.764,10.906,5.711
					c6.225,3.251,4.323,9.409,1.195,14.332c-1.521,2.395-3.287,4.65-4.643,7.147c-1.454,2.676-2.518,5.639-3.457,8.527
					c-2.102,6.458-3.209,13.183-3.28,19.971c-0.009,0.895,1.337,0.882,1.382,0c0.398-7.921,1.877-15.74,4.734-23.152
					c2.239-5.811,6.59-10.302,8.931-16.004c1.651-4.025,1.214-8.432-2.491-11.094C586.322,87.879,581.115,87.675,577.628,84.406
					L577.628,84.406z"/>
			</g>
		</g>
		<g>
			<g>
				<path fill="#303030" d="M590.388,78.645c-0.582,0.297-0.16,1.313,0.448,1.063c8.867-3.663,16.471,5.749,17.242,13.736
					c0.816,8.455-4.582,16.046-11.209,20.71c-0.775,0.545-0.05,1.824,0.75,1.285c7.793-5.257,13.627-14.32,11.744-24.017
					C607.799,83.368,599.166,74.164,590.388,78.645L590.388,78.645z"/>
			</g>
		</g>
		<g>
			<g>
				<path fill="#303030" d="M578.102,87.114c0.574-0.346,0.065-1.21-0.523-0.896c-2.074,1.11-2.502,3.043-2.435,5.275
					c0.114,3.776,1.009,7.441-2.323,10.2c-0.416,0.344-0.136,0.965,0.294,1.115c0.819,0.286,1.356,0.786,2.199,0.979
					c0.799,0.183,1.112-0.971,0.337-1.224c-0.783-0.255-1.403-0.773-2.182-1.042c0.099,0.372,0.197,0.744,0.295,1.115
					c1.994-1.659,2.877-3.837,2.979-6.408C576.852,93.475,575.172,88.881,578.102,87.114L578.102,87.114z"/>
			</g>
		</g>
		<g>
			<g>
				<path fill="#303030" d="M578.475,107.608c-0.357-0.373-0.967,0.014-0.846,0.493c0.443,1.75,1.979,3.596,3.754,4.117
					c2.09,0.614,4.519-0.467,6.201-1.647c0.679-0.476,0.102-1.438-0.644-1.101c-1.559,0.707-3.388,1.963-5.188,1.403
					C580.155,110.375,579.545,108.721,578.475,107.608L578.475,107.608z"/>
			</g>
		</g>
		<g>
			<g>
				<path fill="#303030" d="M569.139,104.854c0.283,0.521,1.07,0.058,0.793-0.464c-1.057-1.984-0.555-4.347,1.426-5.575
					c0.298-0.186,0.34-0.509,0.211-0.81c-0.458-1.065-1.023-1.939-1.762-2.825c-0.095,0.357-0.189,0.715-0.283,1.073
					c4.799-1.342,0.026-6.82-0.623-9.087c-0.229,0.299-0.457,0.599-0.685,0.898c0.477-0.06,0.953-0.12,1.43-0.18
					c0.498-0.063,1.028-0.616,0.651-1.134c-0.46-0.629-1.035-1.319-1.269-2.08c-0.496-0.638-0.389-1.257,0.322-1.855
					c0.13-1.145,0.669-1.493,1.618-1.043c1.848-0.038,2.84,1.984,3.746,3.326c0.527,0.779,1.583,0.11,1.23-0.719
					c-1.123-2.646-3.953-5.613-7.101-4.016c-3.169,1.607-1.321,5.27,0.269,7.301c0.11-0.42,0.221-0.84,0.332-1.26
					c-0.473,0.089-0.945,0.178-1.418,0.267c-0.373,0.07-0.597,0.527-0.496,0.873c0.299,1.016,0.738,1.815,1.328,2.697
					c0.415,0.619,1.07,1.344,1.251,2.088c0.173,0.714-0.11,2.442-0.929,2.686c-0.486,0.145-0.598,0.709-0.283,1.073
					c0.715,0.829,1.174,1.56,1.648,2.514c0.071-0.27,0.143-0.539,0.213-0.809C568.506,99.516,567.756,102.31,569.139,104.854
					L569.139,104.854z"/>
			</g>
		</g>
		<g>
			<g>
				<path fill="#303030" d="M575.027,80.68c0.482,0.317,1.006-0.397,0.606-0.786c-1.975-1.917,6.981-5.712,8.066-5.889
					c3.399-0.554,6.481,1.01,7.974,4.114c0.348,0.722,1.451,0.199,1.256-0.53c-1.313-4.915-7.234-6.199-11.52-4.624
					C579.745,73.578,571.318,78.233,575.027,80.68L575.027,80.68z"/>
			</g>
		</g>
		<g>
			<g>
				<path fill="#303030" d="M584.787,77.204c0.658,0.087,0.777-0.997,0.154-1.142c-3.475-0.805-7.396,1.575-7.781,5.235
					c-0.08,0.75,1.033,0.806,1.246,0.168C579.335,78.677,581.781,76.808,584.787,77.204L584.787,77.204z"/>
			</g>
		</g>
		<g>
			<g>
				<path fill="#303030" d="M582.757,80.76c0.79-0.033,0.742-1.098,0-1.194c-2.215-0.287-4.544,0.361-6.335,1.673
					c-0.674,0.493-0.084,1.583,0.668,1.144C578.896,81.33,580.678,80.847,582.757,80.76L582.757,80.76z"/>
			</g>
		</g>
		<g>
			<g>
				<path fill="#303030" d="M598.431,83.22c-0.621-0.245-0.978,0.729-0.44,1.045c4.916,2.902,7.889,7.708,7.437,13.524
					c-0.069,0.895,1.274,0.859,1.375,0C607.501,91.789,604.152,85.481,598.431,83.22L598.431,83.22z"/>
			</g>
		</g>
		<g>
			<g>
				<path fill="#303030" d="M593.787,87.576c-0.596-0.417-1.139,0.549-0.564,0.966c8.254,5.999,3.076,17.051-1.847,23.248
					c-4.815,6.061-11.028,11.984-11.497,20.191c-0.043,0.751,1.211,0.926,1.319,0.179c1.536-10.639,10.897-16.632,15.487-25.731
					C599.777,100.299,599.938,91.881,593.787,87.576L593.787,87.576z"/>
			</g>
		</g>
		<g>
			<g>
				<path fill="#303030" d="M651.014,167.326c0.143-0.868-1.148-1.259-1.344-0.37c-2.949,13.485-7.141,26.317-13.23,38.734
					c-0.395,0.803,0.786,1.509,1.208,0.707C644.034,194.253,648.795,180.889,651.014,167.326L651.014,167.326z"/>
			</g>
		</g>
		<g>
			<g>
				<path fill="#303030" d="M630.705,215.7c-0.637-0.573-1.558,0.332-0.945,0.946c7.172,7.205,10.197,18.963,11.777,28.716
					c0.155,0.954,1.561,0.532,1.436-0.396c-0.758-5.566-2.223-11.039-4.281-16.265C636.84,223.998,634.524,219.132,630.705,215.7
					L630.705,215.7z"/>
			</g>
		</g>
		<g>
			<g>
				<path fill="#303030" d="M584.262,93.943c0.738,0.07,0.824-1.05,0.168-1.246c-1.812-0.542-3.867-0.72-5.747-0.555
					c-0.802,0.07-0.798,1.169,0,1.244C580.545,93.559,582.401,93.766,584.262,93.943L584.262,93.943z"/>
			</g>
		</g>
		<g>
			<g>
				<path fill="#303030" d="M582.09,99.107c0.503,0.515,1.209-0.239,0.773-0.773c-0.874-1.075-2.129-1.701-3.508-1.786
					c-0.64-0.039-0.787,1.029-0.152,1.124C580.316,97.837,581.301,98.298,582.09,99.107L582.09,99.107z"/>
			</g>
		</g>
		<g>
			<g>
				<path fill="#303030" d="M582.518,106.301c0.564-0.25,0.151-1.212-0.418-0.994c-0.623,0.238-1.259,0.376-1.914,0.485
					c-0.633,0.106-0.48,1.177,0.151,1.117C581.108,106.837,581.812,106.615,582.518,106.301L582.518,106.301z"/>
			</g>
		</g>
		<g>
			<g>
				<path fill="#303030" d="M552.656,153.444c-0.88-0.177-1.254,1.114-0.373,1.356c3.43,0.944,7.612,2.556,11.213,1.758
					c1.96-0.434,4.7-2.128,4.619-4.481c-0.088-2.559-4.772-2.639-6.484-2.944c-4.046-0.72-8.232-1.104-12.331-0.706
					c-0.899,0.087-0.933,1.407,0,1.425c5.044,0.099,11.079-0.22,15.858,1.716c3.595,1.457-2.27,3.623-4.146,3.554
					C558.23,155.021,555.378,153.992,552.656,153.444L552.656,153.444z"/>
			</g>
		</g>
		<g>
			<g>
				<path fill="#303030" d="M553.346,154.918c0.064-0.634-0.95-0.744-1.094-0.148c-1.818,7.571-2.75,15.444-3.876,23.144
					c-0.95,6.494-1.817,13-2.618,19.514c-1.779,14.487-3.396,29.002-4.82,43.529c-0.084,0.856,1.211,0.82,1.318,0
					c1.892-14.348,3.306-28.752,5.049-43.118c0.844-6.953,1.749-13.898,2.746-20.831
					C551.109,169.655,552.586,162.307,553.346,154.918L553.346,154.918z"/>
			</g>
		</g>
		<g>
			<g>
				<path fill="#303030" d="M549.344,148.547c0.038-0.546-0.799-0.63-0.934-0.126c-1.923,7.193-2.73,14.835-3.943,22.179
					c-1.115,6.745-2.221,13.492-3.327,20.238c-2.323,14.169-4.711,28.332-6.869,42.528c-0.13,0.855,1.161,1.238,1.319,0.364
					c2.594-14.271,4.843-28.606,7.143-42.927c1.111-6.916,2.222-13.832,3.342-20.746
					C547.225,162.953,548.843,155.728,549.344,148.547L549.344,148.547z"/>
			</g>
		</g>
		<g>
			<g>
				<path fill="#303030" d="M534.93,233.994c0.579-0.029,0.572-0.855,0-0.894c-10.818-0.742-21.748-0.506-32.59-0.668
					c-40.273-0.599-80.548-1.277-120.824-1.666c-0.424-0.004-0.783,0.363-0.783,0.784c0,1.647,0,3.295,0,4.942
					c-0.001,0.436,0.359,0.771,0.783,0.784c11.313,0.347,22.627,0.693,33.939,1.04c39.949,1.224,79.897,2.43,119.848,3.597
					c0.936,0.027,0.931-1.42,0-1.45c-11.313-0.36-22.626-0.72-33.939-1.081c-39.947-1.272-79.898-2.459-119.848-3.675
					c0.262,0.261,0.523,0.523,0.784,0.784c0-1.647,0-3.295-0.001-4.942c-0.261,0.261-0.521,0.522-0.783,0.783
					c10.863,0.103,21.728,0.232,32.591,0.373c20.555,0.268,41.108,0.569,61.663,0.854c10.073,0.14,20.146,0.278,30.22,0.39
					C515.617,234.057,525.312,234.47,534.93,233.994L534.93,233.994z"/>
			</g>
		</g>
		<g>
			<g>
				<path fill="#303030" d="M510.153,261.331c-0.179,1.009,1.363,1.438,1.543,0.426c0.462-2.602,0.413-5.194,2.507-7.15
					c1.6-1.495,4.021-2.879,6.144-3.39c4.5-1.082,9.05,0.895,11.989,4.299c0.675,0.781,1.801-0.355,1.131-1.131
					c-3.307-3.829-8.525-5.933-13.545-4.711c-2.432,0.592-5.025,2.094-6.85,3.801C510.761,255.638,510.676,258.389,510.153,261.331
					L510.153,261.331z"/>
			</g>
		</g>
		<g>
			<g>
				<path fill="#303030" d="M409.827,249.942c-0.581-0.198-0.962,0.72-0.417,0.988c4.283,2.102,6.862,7.065,4.496,11.586
					c-2.473,4.723-7.635,5.246-12.213,3.569c-4.789-1.753-6.915-6.734-3.814-11.138c2.87-4.076,8.61-4.056,12.76-2.283
					c0.771,0.33,1.461-0.763,0.676-1.155c-5.008-2.498-12.066-2.046-15.135,3.246c-2.74,4.726-0.998,10.239,3.944,12.454
					c5.569,2.496,12.45,1.808,15.325-4.217C417.881,257.897,415.08,251.738,409.827,249.942L409.827,249.942z"/>
			</g>
		</g>
		<g>
			<g>
				<path fill="#303030" d="M526.746,255.132c0.483-0.529-0.163-1.483-0.799-1.035c-0.998,0.703-1.91,1.545-2.824,2.353
					c0.392,0.05,0.784,0.101,1.176,0.151c-0.516-0.829-1.615-2.466-0.852-3.436c0.289-0.368,1.313-0.729,1.558-0.113
					c0.249,0.628,1.374,0.621,1.289-0.174c-0.187-1.725-2.198-1.97-3.45-1.135c-2.013,1.341-0.823,4.028,0.161,5.615
					c0.267,0.43,0.81,0.474,1.177,0.151C525.053,256.745,525.964,255.988,526.746,255.132L526.746,255.132z"/>
			</g>
		</g>
		<g>
			<g>
				<path fill="#303030" d="M513.217,260.634c-0.244,1.002,1.299,1.425,1.543,0.426c0.295-1.208,1.396-2.065,2.666-1.844
					c1.009,0.176,1.438-1.367,0.426-1.543C515.741,257.305,513.734,258.517,513.217,260.634L513.217,260.634z"/>
			</g>
		</g>
		<g>
			<g>
				<path fill="#303030" d="M519.719,254.144c-0.783,0.018-0.779,1.188,0,1.212c1.238,0.039,1.486,1.98,0.113,2.079
					c-1.114,0.081-2.287-0.803-3.064-1.507c0,0.304,0,0.607,0,0.91c0.691-0.818,1.412-0.782,2.399-0.792
					c0.56-0.006,0.789-0.783,0.288-1.065c-1.189-0.671-2.775-0.021-3.597,0.948c-0.216,0.255-0.272,0.663,0,0.91
					c1.362,1.241,4.005,2.931,5.665,1.213C522.924,256.602,521.647,254.101,519.719,254.144L519.719,254.144z"/>
			</g>
		</g>
		<g>
			<g>
				<path fill="#303030" d="M407.155,265.413c0.2,0.745,1.239,0.413,1.127-0.311c-0.435-2.813-3.422-5.856-6.216-3.559
					c-0.884,0.728-1.723,2.355-0.92,3.457c0.85,1.167,3.627,0.514,4.573-0.189c0.577-0.429,0.265-1.501-0.524-1.245
					c-1.12,0.364-2.021,0.649-3.211,0.343c0.174,0.173,0.347,0.346,0.52,0.52c-0.586-1.433,1.137-2.549,2.407-2.057
					C406.145,262.85,406.833,264.209,407.155,265.413L407.155,265.413z"/>
			</g>
		</g>
		<g>
			<g>
				<path fill="#303030" d="M403.089,256.43c-0.581-0.382-1.282,0.521-0.746,0.967c0.599,0.497-0.009,1.354-0.609,1.502
					c-0.597,0.148-2.276-0.077-2.479-0.729c-0.203-0.648,0.303-1.451,0.763-1.858c0.561-0.497,1.208-0.624,1.924-0.463
					c0.574,0.128,0.953-0.672,0.41-0.971c-1.229-0.677-2.667-0.049-3.495,0.971c-0.662,0.816-1.271,2.621-0.289,3.463
					c0.594,0.509,1.679,0.899,2.451,0.976c0.788,0.078,1.607-0.101,2.181-0.674C404.096,258.717,404.217,257.17,403.089,256.43
					L403.089,256.43z"/>
			</g>
		</g>
		<g>
			<g>
				<path fill="#303030" d="M404.672,253.306c-0.566-0.416-1.299,0.546-0.749,0.972c0.866,0.673,1.456,1.505,1.771,2.561
					c0.123,0.416,0.582,0.591,0.959,0.391c1.471-0.782,2.655-1.857,3.611-3.218c0.23-0.326,0.006-0.892-0.391-0.962
					c-1.141-0.203-2.197-0.574-3.224-1.109c-0.72-0.375-1.34,0.675-0.638,1.09c1.096,0.647,2.26,1.061,3.512,1.283
					c-0.13-0.321-0.261-0.642-0.391-0.962c-0.826,1.176-1.875,2.076-3.141,2.75c0.32,0.13,0.641,0.261,0.961,0.391
					C406.554,255.155,405.793,254.126,404.672,253.306L404.672,253.306z"/>
			</g>
		</g>
		<g>
			<g>
				<path fill="#303030" d="M413.379,256.183c-0.54-0.383-1.203,0.491-0.705,0.913c0.455,0.384,1.391,1.147,1.324,1.826
					c-0.088,0.886-1.404,0.605-1.971,0.448c-0.588-0.163-1.51-0.542-1.644-1.235c-0.124-0.645,0.524-1.243,1.123-0.951
					c0.458,0.223,1.156-0.28,0.782-0.783c-0.875-1.176-2.452-0.442-2.996,0.685c-0.668,1.383,0.375,2.719,1.617,3.28
					c1.224,0.554,3.325,0.906,4.148-0.486C415.898,258.459,414.451,256.943,413.379,256.183L413.379,256.183z"/>
			</g>
		</g>
		<g>
			<g>
				<path fill="#303030" d="M411.979,262.994c0.638,0.092,0.931-0.863,0.272-0.988c-1.336-0.253-2.607-0.689-3.813-1.321
					c-0.311-0.163-0.782-0.039-0.858,0.35c-0.479,2.436,2.624,4.213,4.517,2.659c0.209-0.172,0.221-0.528,0.096-0.746
					c-0.327-0.571-0.241-1.075-0.027-1.665c0.235-0.65-0.695-0.924-1.04-0.438c-0.583,0.82-0.485,1.886,0.005,2.724
					c0.032-0.248,0.064-0.497,0.097-0.746c-0.945,0.79-2.729-0.279-2.519-1.478c-0.287,0.116-0.573,0.233-0.859,0.35
					C409.162,262.35,410.525,262.786,411.979,262.994L411.979,262.994z"/>
			</g>
		</g>
		<g>
			<g>
				<path fill="#303030" d="M532.874,241.444c0.31-0.623-0.551-1.13-0.934-0.546c-1.873,2.861-2.7,6.526-4.993,9.108
					c-0.559,0.628,0.283,1.454,0.914,0.915C530.605,248.576,531.334,244.539,532.874,241.444L532.874,241.444z"/>
			</g>
		</g>
		<g>
			<g>
				<path fill="#303030" d="M514.979,241.501c-0.25-0.791-1.384-0.461-1.23,0.339c0.668,3.465,1.225,7.001,2.727,10.219
					c0.327,0.702,1.527,0.19,1.25-0.527C516.463,248.262,516.025,244.824,514.979,241.501L514.979,241.501z"/>
			</g>
		</g>
		<g>
			<g>
				<path fill="#303030" d="M417.582,240.191c0.285-0.513-0.449-1.133-0.84-0.647c-2.385,2.967-4.109,6.601-5.127,10.259
					c-0.215,0.775,0.907,1.048,1.182,0.326C414.13,246.627,415.768,243.453,417.582,240.191L417.582,240.191z"/>
			</g>
		</g>
		<g>
			<g>
				<path fill="#303030" d="M398.639,238.529c-0.461-0.573-1.414,0.182-1.011,0.78c2.207,3.271,3.688,6.602,5.064,10.289
					c0.284,0.76,1.375,0.467,1.218-0.335C403.143,245.358,401.115,241.61,398.639,238.529L398.639,238.529z"/>
			</g>
		</g>
		<g>
			<g>
				<path fill="#303030" d="M497.704,230.746c-0.57,0.251-0.151,1.229,0.425,1.005c1.475-0.573,1.742-1.514,2.097-3.019
					c0.592-2.51,1.116-5.031,1.772-7.526c1.354-5.143,2.992-10.21,4.923-15.166c2.085-5.351,4.514-10.567,7.261-15.61
					c0.607-1.117,1.134-1.743,0.519-2.91c-0.554-1.05-1.753-1.864-2.731-2.5c-0.398-0.259-0.871,0.015-1.014,0.412
					c-0.316,0.889-0.191,2.005-1.48,2c-0.391-0.001-0.912-0.423-1.086-0.627c-0.474-0.558-0.349-1.324-1.035-1.878
					c-0.988-0.798-2.641-0.759-3.598,0.098c-0.926,0.83-0.143,2.359-0.672,2.923c-1.347,1.43-3.346-2.345-4.461-2.805
					c-1.654-0.681-3.441,0.082-4.832,0.967c-1.209,0.77-2.344,1.884-3.886,1.863c-1.199-0.017-2.262-0.737-3.29-1.252
					c-1.693-0.848-3.308-1.447-5.223-0.976c-1.671,0.411-2.852,1.547-4.316,2.352c-4.896,2.689-8.842-3.816-13.764-2.029
					c-1.11,0.404-1.986,1.189-3.007,1.758c-1.706,0.951-3.053,0.691-4.747-0.199c-1.84-0.967-3.377-1.715-5.467-2.005
					c-2.353-0.326-4.959-0.363-7.254,0.342c-1.893,0.582-3.373,2.455-5.437,2.396c-2.378-0.068-3.863-1.749-5.921-2.544
					c-1.496-0.579-3.012-0.398-4.52,0.059c-1.047,0.317-2.089,1.047-3.152,1.252c-1.037,0.2-1.614-0.178-2.613-0.607
					c-1.266-0.545-2.794-1.575-4.224-1.583c-1.495-0.008-2.742,0.878-3.943,1.545c-1.312,0.729-1.228,0.496-2.094-0.33
					c-0.761-0.726-2.096-0.899-3.021-1.349c-0.383-0.187-0.984-0.139-1.187,0.311c-0.343,0.764-0.679,1.411-0.898,2.22
					c0.567,0.077,1.135,0.154,1.702,0.23c-0.252-2.538-3.696-3.282-5.83-3.022c-0.37,0.045-0.723,0.227-0.82,0.624
					c-1.844,7.512,5.013,15.149,7.362,21.855c2.116,6.037,4.231,12.074,6.347,18.111c0.842,2.402,1.859,6.354,4.66,7.196
					c1.002,0.301,1.42-1.251,0.43-1.561c-1.201-0.376-2.117-2.485-2.623-3.557c-1.037-2.204-1.658-4.739-2.465-7.044
					c-1.759-5.028-3.42-10.104-5.281-15.095c-1.123-3.007-2.77-5.775-4.193-8.643c-1.605-3.23-3.562-7.125-2.598-10.812
					c-0.273,0.208-0.546,0.416-0.819,0.624c0.888-0.095,3.974,0.062,4.099,1.323c0.092,0.933,1.431,1.226,1.701,0.23
					c0.206-0.617,0.447-1.219,0.725-1.806c-0.396,0.104-0.791,0.208-1.186,0.311c1.299,0.632,2.238,1.279,3.35,2.086
					c0.553,0.402,0.759,0.68,1.498,0.729c1.837,0.122,2.787-2.104,4.665-2.338c1.891-0.235,3.837,1.525,5.645,2.043
					c1.386,0.397,2.325-0.137,3.606-0.658c2.33-0.945,4.094-1.36,6.299-0.049c1.356,0.806,2.694,1.563,4.277,1.832
					c1.813,0.308,3.09-0.153,4.608-1.086c2.175-1.336,4.081-1.798,6.679-1.751c2.982,0.054,5.041,0.991,7.643,2.271
					c1.365,0.671,2.852,1.005,4.349,0.563c2.908-0.859,4.12-3.31,7.521-2.117c2.045,0.717,3.826,2.08,5.994,2.456
					c1.652,0.285,3.244,0,4.693-0.832c1.889-1.084,3.257-2.612,5.672-2.279c2.006,0.277,3.554,1.855,5.555,2.19
					c1.529,0.255,2.717-0.236,3.992-1.027c1.285-0.798,2.588-2.196,4.257-2.018c1.197,0.128,1.511,0.942,2.161,1.724
					c0.762,0.915,1.582,1.404,2.809,1.504c0.837,0.068,1.639-0.041,2.033-0.864c0.192-0.402,0.053-0.815,0.111-1.23
					c0.036-0.254-0.088-0.525-0.021-0.784c-0.032-0.281,0.084-0.504,0.348-0.67c0.768,0.58,1.535,1.159,2.303,1.738
					c0.025,0.322,0.197,0.562,0.509,0.668c1.333,0.455,2.392,0.467,3.721,0.011c0.307-0.105,0.483-0.343,0.507-0.667
					c0.048-0.677,0.203-1.326,0.465-1.947c-0.338,0.137-0.676,0.275-1.014,0.412c2.201,1.425,2.24,2.534,1.039,4.804
					c-0.904,1.709-1.771,3.438-2.604,5.184c-1.619,3.398-3.097,6.866-4.434,10.384c-1.432,3.766-2.699,7.594-3.792,11.471
					c-0.568,2.016-1.084,4.048-1.556,6.089C499.57,225.687,499.352,230.021,497.704,230.746L497.704,230.746z"/>
			</g>
		</g>
		<g>
			<g>
				<path fill="#303030" d="M513.419,186.473c0.153,0.579,0.921,0.395,0.976-0.132c0.283-2.719-2.466-4.218-4.85-4.485
					c-1.959-0.22-3.892,0.388-5.847,0.298c-2.484-0.113-3.976-1.521-6.03-2.641c-2.558-1.395-4.721-0.836-7.169,0.487
					c-2.778,1.501-4.964,1.694-8.08,1.085c-1.765-0.345-3.495-0.589-5.298-0.599c-3.982-0.021-7.9,0.825-11.846,1.247
					c-1.947,0.208-3.92,0.352-5.877,0.2c-0.918-0.071-2.127-0.545-3.023-0.438c-0.332,0.039-0.739,0.33-1.039,0.335
					c-1.295,0.025-2.814-0.808-4.161-0.957c-1.792-0.197-3.421,0.115-5.099,0.738c-1.45,0.539-2.438,0.668-3.918-0.031
					c-0.535-0.253-0.963-0.696-1.522-0.935c-1.192-0.509-2.551-0.597-3.815-0.355c-1.985,0.381-3.751,1.413-5.775,1.697
					c-2.129,0.299-4.145-0.098-6.195-0.649c-1.402-0.376-2.547-0.573-4.004-0.355c-2.393,0.357-4.121,0.95-6.252-0.778
					c-0.612-0.496-1.483,0.323-0.885,0.884c2.86,2.677,4.828,1.317,8.285,1.288c1.924-0.016,3.811,0.904,5.724,1.146
					c1.828,0.231,3.649,0.097,5.423-0.403c2.299-0.648,4.279-1.95,6.736-1.072c1.155,0.413,1.977,1.435,3.19,1.708
					c1.546,0.348,2.795-0.531,4.198-0.976c2.378-0.754,4.617-0.331,6.961,0.304c0.8,0.216,1.028,0.15,1.75,0.126
					c1.569-0.051,3.172,0.288,4.77,0.31c3.82,0.052,7.594-0.707,11.369-1.161c1.957-0.235,3.939-0.408,5.912-0.323
					c2.202,0.095,4.286,0.705,6.459,0.971c3.512,0.43,5.355-1.443,8.464-2.499c3.775-1.281,6.249,2.677,9.86,3.084
					C506.271,183.982,512.128,181.61,513.419,186.473L513.419,186.473z"/>
			</g>
		</g>
		<g>
			<g>
				<path fill="#303030" d="M410.104,181.347c0.652,0.084,0.781-1.006,0.154-1.136c-3.535-0.733-7.416,0.875-9.036,4.202
					c-0.372,0.764,0.681,1.393,1.144,0.669C404.08,182.402,406.906,180.933,410.104,181.347L410.104,181.347z"/>
			</g>
		</g>
		<g>
			<g>
				<path fill="#303030" d="M464.01,136.403c-0.579,0.591,0.272,1.388,0.888,0.889c3.376-2.738,3.868-9.215,3.903-13.205
					c0.042-4.876-2.275-9.021-7.396-10.119c-3.222-0.691-5.727,0.725-8.639,1.843c-2.59,0.995-4.465,0.311-7.066,0.081
					c-1.023-0.09-2.121-0.126-3.067,0.357c-3.863,1.976-1.71,9.338-0.848,12.456c0.218,0.788,1.294,0.432,1.187-0.328
					c-0.282-2.015-0.744-4.004-0.866-6.041c-0.06-0.983-0.128-2.103,0.136-3.067c0.615-2.249,2.892-1.887,4.762-1.57
					c2.248,0.381,4.009,0.45,6.181-0.378c2.573-0.982,4.936-2.443,7.805-1.84c5.256,1.104,6.5,5.468,6.206,10.139
					C466.982,128.964,466.496,133.865,464.01,136.403L464.01,136.403z"/>
			</g>
		</g>
		<g>
			<g>
				<path fill="#303030" d="M452.306,116.064c0.085,0.849,1.394,0.88,1.35,0c-0.304-6.122-1.69-12.767-4.69-18.153
					c-0.726-1.302-2.753-0.122-2,1.168c0.534,0.915,1.152,1.547,2.113,1.997c0.762,0.357,1.442-0.509,0.89-1.153
					c-0.493-0.479-0.788-1.057-0.887-1.735c-0.705,0.297-1.411,0.595-2.116,0.892C449.689,104.667,451.676,109.833,452.306,116.064
					L452.306,116.064z"/>
			</g>
		</g>
		<g>
			<g>
				<path fill="#303030" d="M421.332,182.285c0.772,0.338,1.455-0.734,0.679-1.16c-3.944-2.166-7.173-6.095-8.812-10.259
					c-0.723-1.834-1.387-4.174-0.641-6.101c1.029-2.663,4.141-3.088,6.619-3.325c1.117-0.106,1.16-1.801,0-1.775
					c-5.86,0.131-10.052,3.846-8.182,9.886C412.474,174.327,416.631,180.228,421.332,182.285L421.332,182.285z"/>
			</g>
		</g>
		<g>
			<g>
				<path fill="#303030" d="M497.933,168.412c-0.013,0.516,0.839,0.647,0.915,0.124c0.855-5.896-2.881-11.142-7.809-14.068
					c-6.567-3.899-14.797-4.235-22.183-5.218c-4.443-0.592-8.888-1.176-13.331-1.765c-4.449-0.588-9.115-0.839-13.454-2.008
					c-4.024-1.084-8.823-4.206-7.774-9.068c0.85-3.931,4.581-6.362,8.279-7.146c0.824-0.175,0.637-1.524-0.199-1.467
					c-5.756,0.395-11.505,6.059-9.746,12.129c2.154,7.43,11.471,7.995,17.766,8.815c9.611,1.252,19.301,2.24,28.867,3.786
					C487.816,153.906,498.179,158.077,497.933,168.412L497.933,168.412z"/>
			</g>
		</g>
		<g>
			<g>
				<path fill="#303030" d="M479.588,150.072c-0.189,0.77,0.876,1.019,1.157,0.319c3.157-7.853-5.771-12.694-12.065-13.846
					c-4.741-0.867-9.61-0.878-14.314-1.965c-4.828-1.116-8.439-3.387-11.596-7.169c-0.564-0.676-1.442,0.191-1.129,0.871
					c2.971,6.436,11.404,8.193,17.708,8.925C466.442,138.03,482.357,138.795,479.588,150.072L479.588,150.072z"/>
			</g>
		</g>
		<g>
			<g>
				<path fill="#303030" d="M426.476,150.103c0.766-0.443,0.093-1.544-0.685-1.171c-4.406,2.115-10.39,7.636-6.984,12.887
					c2.981,4.595,9.177,6.819,14.108,8.502c7.179,2.45,14.636,4.179,21.917,6.304c8.353,2.437,17.152,5.392,25.902,5.807
					c1.006,0.048,1.219-1.549,0.237-1.756c-7.616-1.605-15.138-3.091-22.634-5.242c-6.517-1.87-13.021-3.732-19.582-5.439
					c-5.054-1.315-10.299-2.865-14.7-5.758c-2.37-1.558-5.101-3.861-4.347-7.03C420.492,153.914,423.737,151.689,426.476,150.103
					L426.476,150.103z"/>
			</g>
		</g>
		<g>
			<g>
				<path fill="#303030" d="M433.878,140.116c0.647-0.314,0.179-1.426-0.491-1.165c-5.085,1.98-11.277,7.946-6.64,13.48
					c1.913,2.283,4.927,3.374,7.696,4.191c4.908,1.449,9.955,2.505,14.977,3.479c9.746,1.89,19.592,3.204,29.387,4.809
					c8.742,1.432,22.457,2.922,22.434,14.576c-0.001,0.924,1.508,1.176,1.652,0.224c1.072-7.07-5.313-12.147-11.353-14.1
					c-8.411-2.719-17.749-3.341-26.456-4.688c-9.122-1.41-18.252-2.913-27.211-5.161c-3.544-0.889-8.832-1.709-10.705-5.328
					C424.699,145.662,430.249,141.877,433.878,140.116L433.878,140.116z"/>
			</g>
		</g>
		<g>
			<g>
				<path fill="#303030" d="M411.248,168.361c0.581-0.373,0.213-1.343-0.479-1.137c-5.706,1.705-10.336,9.49-4.534,13.835
					c0.727,0.544,1.564-0.484,1.176-1.176c-1.258-2.24-2.578-3.615-1.338-6.326C407.117,171.275,409.188,169.682,411.248,168.361
					L411.248,168.361z"/>
			</g>
		</g>
		<g>
			<g>
				<path fill="#303030" d="M511.715,187.927c0.293-0.729-0.884-1.184-1.245-0.525c-3.003,5.467-5.235,11.518-7.243,17.409
					c-2.112,6.192-3.932,12.532-5.049,18.983c-0.154,0.893,1.156,1.289,1.381,0.381c1.531-6.207,3.074-12.391,5.107-18.458
					C506.702,199.643,509.326,193.859,511.715,187.927L511.715,187.927z"/>
			</g>
		</g>
		<g>
			<g>
				<path fill="#303030" d="M505.133,187.938c0.183-0.79-0.947-1.091-1.205-0.333c-3.668,10.802-6.688,22.037-9.457,33.101
					c-0.209,0.836,1.024,1.167,1.283,0.354C499.222,210.195,502.568,199.053,505.133,187.938L505.133,187.938z"/>
			</g>
		</g>
		<g>
			<g>
				<path fill="#303030" d="M492.982,189.254c0.145-0.656-0.809-0.921-1.006-0.278c-3.025,9.842-4.615,20.343-5.193,30.609
					c-0.048,0.851,1.242,0.832,1.313,0C488.959,209.295,490.758,199.323,492.982,189.254L492.982,189.254z"/>
			</g>
		</g>
		<g>
			<g>
				<path fill="#303030" d="M479.539,188.697c0.257-0.558-0.51-1.034-0.836-0.489c-2.66,4.453-2.774,9.936-3.606,14.929
					c-0.505,3.028-1.093,6.045-1.761,9.042c-0.335,1.499-0.693,2.992-1.074,4.48c-0.197,0.773-0.142,2.256-1.479,1.268
					c-0.488-0.361-0.628-1.832-0.724-2.435c-0.11-0.682-1.243-0.514-1.197,0.162c0.096,1.421,0.735,4.876,2.807,4.658
					c2.383-0.252,2.604-5.584,2.979-7.241c0.942-4.165,1.692-8.365,2.265-12.596C477.463,196.412,477.807,192.465,479.539,188.697
					L479.539,188.697z"/>
			</g>
		</g>
		<g>
			<g>
				<path fill="#303030" d="M460.988,192.582c0.013-0.728-1.031-0.69-1.105,0c-0.549,5.062-0.736,10.167-1.108,15.244
					c-0.194,2.656-0.438,5.315-0.96,7.93c-0.249,1.25-0.549,2.494-0.939,3.708c-0.231,0.742-0.502,1.471-0.811,2.185
					c-1.629,0.467-2.55,0.006-2.764-1.382c-0.299-0.83-1.607-0.492-1.338,0.369c0.493,1.577,1.635,3.964,3.732,3.329
					c2.351-0.711,2.898-4.96,3.322-6.885C460.751,209.222,460.855,200.603,460.988,192.582L460.988,192.582z"/>
			</g>
		</g>
		<g>
			<g>
				<path fill="#303030" d="M441.539,197.396c-0.071-0.697-1.158-0.716-1.106,0c0.442,6.097,0.997,12.183,1.479,18.276
					c0.112,1.421,0.22,2.83,0.062,4.251c-0.023,0.542-0.115,1.071-0.277,1.589c-0.506,0.289-1.011,0.577-1.516,0.866
					c-0.305-0.092-0.844-1.202-1.02-1.476c-1.598-2.476-2.728-5.188-3.527-8.018c-0.214-0.754-1.346-0.436-1.17,0.322
					c0.505,2.17,5.465,15.985,8.248,9.554c1.466-3.39,0.495-7.624,0.177-11.15C442.46,206.871,442.023,202.131,441.539,197.396
					L441.539,197.396z"/>
			</g>
		</g>
		<g>
			<g>
				<path fill="#303030" d="M422.5,192.018c-0.18-0.754-1.241-0.415-1.133,0.313c0.801,5.359,1.954,10.681,3.055,15.985
					c1.098,5.287,2.08,10.67,3.58,15.859c0.251,0.87,1.48,0.494,1.332-0.367c-0.921-5.332-2.3-10.608-3.441-15.897
					C424.75,202.619,423.756,197.284,422.5,192.018L422.5,192.018z"/>
			</g>
		</g>
		<g>
			<g>
				<path fill="#303030" d="M412.404,191.185c-0.277-0.715-1.357-0.45-1.169,0.323c2.27,9.287,4.75,18.427,6.647,27.812
					c0.186,0.916,1.502,0.504,1.374-0.379C417.912,209.662,415.803,199.943,412.404,191.185L412.404,191.185z"/>
			</g>
		</g>
		<g>
			<g>
				<path fill="#303030" d="M406.179,187.884c-0.263-0.389-1.049-0.299-0.983,0.266c0.258,2.258,1.26,4.395,1.992,6.539
					c0.779,2.279,1.544,4.564,2.279,6.858c1.523,4.753,2.925,9.543,4.338,14.33c0.273,0.923,1.674,0.537,1.441-0.397
					c-1.207-4.845-2.621-9.63-4.154-14.381c-0.793-2.457-1.612-4.905-2.474-7.339C407.916,191.774,407.362,189.637,406.179,187.884
					L406.179,187.884z"/>
			</g>
		</g>
		<g>
			<g>
				<path fill="#303030" d="M460.976,270.098c0.677,0.009,0.638-0.95,0-1.025c-10.116-1.185-20.466-1.318-30.642-1.622
					c-9.868-0.295-19.742-0.385-29.615-0.296c-20.103,0.18-40.194,1.11-60.21,2.996c-0.855,0.08-0.87,1.417,0,1.35
					c20.035-1.554,40.114-2.592,60.21-2.825c9.872-0.115,19.746-0.039,29.615,0.199
					C440.549,269.121,450.766,269.962,460.976,270.098L460.976,270.098z"/>
			</g>
		</g>
	</g>
</g>
</svg>
