<?xml version="1.0" encoding="utf-8"?>
<!-- Generator: Adobe Illustrator 20.1.0, SVG Export Plug-In . SVG Version: 6.00 Build 0)  -->
<svg version="1.1" xmlns="http://www.w3.org/2000/svg" xmlns:xlink="http://www.w3.org/1999/xlink" x="0px" y="0px"
	 viewBox="0 0 670 416" style="enable-background:new 0 0 670 416;" xml:space="preserve">
<style type="text/css">
	.st0{fill:none;stroke:#F7FAFC;stroke-width:39.9968;stroke-linecap:round;stroke-linejoin:round;}
	.st1{fill:none;stroke:#F2F6F9;stroke-width:39.9968;stroke-linecap:round;stroke-linejoin:round;}
	.st2{fill:#F7FAFC;}
	.st3{fill:#F2F6F9;}
	.st4{fill:#FFFFFF;}
	.st5{fill:#FCE0DE;}
	.st6{fill:#E6E6E6;}
	.st7{fill:#FFEFAF;}
	.st8{fill:#E93A1D;}
	.st9{fill:#303030;}
	.st10{fill:#E83D25;}
	.st11{fill:#B3B3B3;}
	.st12{fill:#666666;}
	.st13{fill:none;stroke:#E93A1D;stroke-width:1.5;stroke-linecap:round;stroke-linejoin:round;}
	.st14{fill:none;stroke:#E93A1D;stroke-width:1.5;stroke-linecap:round;stroke-linejoin:round;stroke-dasharray:2.0259,5.0648;}
	.st15{fill:none;stroke:#E93A1D;stroke-width:1.5;stroke-linecap:round;stroke-linejoin:round;stroke-dasharray:1.8929,4.7321;}
	.st16{fill:#777777;}
	.st17{fill:#172DF8;}
	.st18{fill:none;stroke:#E93A1D;stroke-width:1.5;stroke-linecap:round;stroke-linejoin:round;stroke-dasharray:1.9198,4.7994;}
	.st19{fill:none;stroke:#E93A1D;stroke-width:1.5;stroke-linecap:round;stroke-linejoin:round;stroke-dasharray:1.9197,4.7993;}
</style>
<g id="back">
	<g>
		<g>
			<path class="st2" d="M438.493,414.5249c-4.2607,0-9.2954-1.3242-14.7944-5.3154c-1.7627-1.2803-3.6895-2.8809-5.9097-4.916
				c-0.9961,1.4268-2.1831,2.7295-3.54,3.8672c-3.0698,2.5752-11.5532,8.0439-24.0054,3.209
				c-3.3765-1.3115-6.9185-3.3057-11.147-6.2754c-3.0376-2.1338-6.4683-4.8057-10.3452-8.0605
				c-0.7896,0.8887-1.6475,1.7236-2.5703,2.498c-4.9697,4.1699-11.4224,6.1162-18.1777,5.4844
				c-6.7046-0.6289-14.292-3.6406-25.8154-12.7256c-3.5049,1.3926-7.3638,1.9297-11.3149,1.541
				c-7.1318-0.707-14.8169-4.0566-27.5635-15.4521c-7.1514,2.0615-15.1543,0.0293-20.437-5.8516
				c-0.2524-0.2812-12.5601-13.9746-31.5898-34.7549c-0.6431,4.9639-3.1279,9.5176-6.978,12.748
				c-2.6035,2.1855-12.1021,8.7305-25,1.1992c-1.7144-1.001-3.7085-2.3311-6.2759-4.1875
				c-3.9971-2.8906-9.3374-7.0244-16.3267-12.6396c-1.3032-1.0469-2.6621-2.1445-4.0752-3.291
				c-0.6094,0.7588-1.2817,1.4814-2.0166,2.1621c-7.5132,6.958-18.96,7.0605-26.5791,0.5371
				c-5.4951-0.1699-10.8955-2.5918-14.7075-7.1348c-2.1621-2.5762-3.5635-5.5381-4.228-8.6113
				c-5.8813-8.5283-25.9995-30.9922-44.9492-50.9648l-6.2329-6.5225c-3.7866-3.9639-5.6235-9.0791-5.5366-14.1592
				c-7.772-10.0391-10.3501-15.2812-9.8394-22.5107c0.3857-5.4629,3.0034-10.6074,7.1811-14.1133
				c3.2046-2.6885,7.0386-4.2168,10.9575-4.5879L5.6976,121.107c-3.4092-4.0625-5.0649-9.3135-4.6025-14.5977
				s3.0049-10.167,7.0679-13.5771c4.0801-3.4229,8.4214-4.9492,12.7192-5.2578c-1.6948-4.3906-2.2939-8.2207-2.0532-12.0547
				c0.3896-6.2158,3.1694-11.792,7.8267-15.7002c2.6636-2.2344,5.7534-3.8135,9.0791-4.6797
				c1.1582-3.2041,3.1514-6.1553,5.9492-8.5029c3.9878-3.3457,8.9761-5.0625,14.2261-5.0039
				c1.2017-2.3193,2.8589-4.4062,4.9033-6.1221c4.2412-3.5576,13.0493-7.2178,22.4629-2.2217
				c0.9556-4.4844,3.3423-8.4795,6.8887-11.4561c4.5508-3.8174,13.9854-8.8662,28.4272-3.0352
				c0.8848-1.0566,1.8657-2.04,2.937-2.9395c8.2227-6.9004,20.4273-6.0771,27.6499,1.8652
				c0.5835,0.6416,1.1763,1.2939,1.7627,1.9385c0.8804-1.1484,1.8887-2.207,3.0132-3.1504
				c5.978-5.0176,15.8804-7.0342,25.0757-0.7686c3.8013-2.5928,14.7617-8.2139,26.8335,2.6699
				c0.4248,0.3828,0.875,0.8027,1.3579,1.2666c1.1782-2.2715,2.8149-4.3525,4.897-6.1006
				c4.9854-4.1836,16.3589-8.6162,27.3569,1.3125c0.3159,0.2852,0.6587,0.6016,1.0361,0.957
				c1.2227-2.7432,3.0605-5.2041,5.4102-7.1748c4.6318-3.8867,10.5708-5.6553,16.7227-4.9824
				c0.2666,0.0293,0.5322,0.0625,0.7988,0.0986c6.0708-2.0723,12.877-1.1133,18.1572,2.6924
				c0.312-0.3008,0.6353-0.5938,0.9707-0.877c8.3999-7.1152,20.9731-6.1025,28.1265,2.2676
				c0.1895,0.2217,5.8315,6.8184,15.4766,17.9727c-0.1299-5.7979,2.251-11.6006,6.998-15.6592
				c7.3711-6.3027,18.0137-6.3125,25.3628-0.5205c4.6211-0.3691,10.2437,0.8672,16.1733,5.9668
				c1.478,1.2705,3.2393,2.9531,5.543,5.2949c3.5098,3.5684,8.377,8.7754,14.8599,15.8984
				c0.6636-0.8779,1.4087-1.7119,2.2344-2.4922c7.8945-7.459,20.2983-7.252,27.9414,0.4658
				c0.2007,0.2021,7.394,7.4717,19.083,19.4775c1.0684-1.6436,2.3813-3.1348,3.9116-4.4189
				c3.376-2.834,12.6528-8.6309,25.8525-1.251c2.5161,1.4062,5.3828,3.3477,9.02,6.1094
				c5.6748,4.3086,13.1406,10.5586,22.8247,19.1064c5.1831,4.5752,10.9756,9.7881,17.3579,15.6221
				c0.0747-0.0645,0.1504-0.1289,0.2266-0.1924c2.4961-2.0928,11.6074-8.4326,24.0938-2.1592
				c2.2266,1.1191,4.5767,2.6348,7.3965,4.7715c0.5854,0.4434,1.1943,0.916,1.8276,1.4189
				c5.1743-1.8057,11.7495-1.8311,18.4517,2.29c1.0552,0.6484,2.1538,1.415,3.3701,2.3555
				c6.3994-0.6826,13.0005,1.7344,17.4458,7.0312c1.4062,1.6758,2.4902,3.5137,3.2593,5.4404
				c3.8521,4.7451,14.2197,15.7227,22.0283,23.9902c36.1411,38.2666,43.1636,46.8125,42.4668,58.832
				c-0.0732,1.2676-0.2622,2.5186-0.5591,3.7383c4.9209,7.6953,5.8745,12.2744,5.5356,17.4619
				c-0.3232,4.9463-2.2969,9.4756-5.6157,12.9834c1.9517,7.0186-0.0249,14.8311-5.7148,20.0752
				c-2.7183,2.5059-5.9521,4.1191-9.3345,4.8457c5.8076,9.5117,6.5684,14.3242,6.2422,19.4287
				c-0.3618,5.6729-2.8423,10.7969-7.0029,14.498c7.8584,13.7246,8.9683,21.0361,8.6982,26.9004
				c-0.3247,7.043-3.3477,13.3076-8.5122,17.6416c-2.1567,1.8096-4.8765,3.4727-8.1919,4.4102
				c1.5825,6.8984-0.5552,14.4199-6.2134,19.4443c-1.418,1.2588-2.9648,2.2793-4.5928,3.0654
				c-0.6172,0.6846-1.2842,1.3291-1.9985,1.9287c-8.3481,7.0039-17.9404,6.4512-26.3711,3.4824
				c-0.6621,4.9277-3.1396,9.4463-6.9658,12.6572c-2.7896,2.3398-9.1655,6.3613-18.3633,4.3984
				c-0.812,1.0098-1.7261,1.9463-2.7344,2.792c-3.7085,3.1123-8.2173,4.9805-13.0518,5.4658
				c-6.5684,3.5-14.5933,3.041-20.7202-1.1758c-1.1714,3.0996-3.1304,5.9502-5.8491,8.2314
				c-5.2188,4.3779-13.6753,7.8525-26.0424,2.8428c-0.9902,1.6582-2.2393,3.2002-3.7437,4.5645
				c-5.79,5.249-13.8276,6.4805-20.6636,3.8359c-0.1416,0.125-0.2852,0.249-0.4302,0.3701
				c-6.3828,5.3574-17.1309,7.2607-26.7549-0.5625c-0.0205-0.0166-0.041-0.0342-0.0615-0.0508
				c-0.8726,1.1309-1.8696,2.1729-2.981,3.1045C450.5789,410.8199,445.6195,414.524,438.493,414.5249z"/>
		</g>
	</g>
	<path class="st3" d="M621.2347,207.7027c-12.2769-13.5557-24.3774-26.0703-24.8867-26.5967
		c-5.2344-5.4082-12.7788-7.2246-19.5684-5.4082c-0.4307-0.3896-0.834-0.7539-1.2085-1.0898
		c-1.1289-1.0156-2.0229-1.8057-2.6416-2.3379c-10.8208-9.3125-21.9131-4.916-26.7622-0.8496
		c-0.9702,0.8135-1.8535,1.7109-2.6426,2.6777l-9.8706-8.1143c-6.5312-5.3691-15.6079-5.9814-22.7177-1.8613
		c-12.5625-4.9727-21.019,0.2773-24.3154,3.043c-1.7656,1.4814-3.2451,3.2451-4.3926,5.1992
		c-1.6968-1.2969-3.2612-2.4531-4.7012-3.4775c-3.3594-2.3877-6.0537-4.0645-8.4805-5.2764
		c-6.2612-3.125-11.5889-3.334-15.7603-2.417c-4.4961-2.0244-8.7842-2.4365-12.5791-1.8359
		c-1.5142-0.5625-3.103-0.9443-4.7363-1.127c-4.5405-0.5068-9.0894,0.5537-12.9072,2.9668
		c-2.8394-1.9844-6.1714-3.2158-9.6816-3.5283c-5.2964-0.4775-10.5581,1.1836-14.6304,4.5986
		c-2.0356,1.708-3.7031,3.7344-4.959,5.9902c-6.624-2.624-14.4229-1.6045-20.2339,3.2715
		c-2.7349,2.2949-4.7881,5.1836-6.0439,8.4375l-4.9834-4.666c-3.5977-3.3672-8.144-5.168-12.7573-5.3779l-5.9985-6.7891
		c-5.3506-6.0537-13.5542-8.1035-20.8184-5.8916c-6.2117-7.0034-12.3783-13.9258-18.4599-20.7148
		c4.2007,0.3931,8.4987-0.5391,12.2265-2.7988c1.8086-0.7881,3.5127-1.8418,5.0664-3.1445c1.8047-1.5146,3.3145-3.335,4.4766-5.3516
		c7.002,0.1611,11.9961-3.5547,13.3306-4.6748c2.7241-2.2861,4.7749-5.2607,5.9712-8.5645
		c5.1113,0.4053,10.3286-1.1484,14.46-4.6143c1.7905-1.502,3.2866-3.2939,4.4404-5.2803c1.6147-2.1885,2.7729-4.6895,3.394-7.3486
		c3.5415-6.9375,2.8291-15.6152-2.4932-21.957l-34.4956-41.1094c-3.7847-4.5107-9.1362-6.9307-14.5913-7.1309
		c-2.5776-0.8301-5.0688-1.123-7.4263-1.0244c-5.5063-0.6982-11.2754,0.8789-15.7627,4.834
		c-0.624,0.5498-1.2056,1.1299-1.7446,1.7363l-5.9077-4.001c-7.0195-4.7529-16.0933-4.4902-22.7568,0.2246
		c-1.7612-1.0537-3.3579-1.8828-4.8896-2.5439c-4.9165-2.1211-9.2192-2.4688-12.792-1.9639
		c-5.0229-0.3662-10.186,1.1602-14.3286,4.6475c-1.4712,1.2383-2.7202,2.6455-3.7417,4.1699
		c-3.5435-2.2695-6.5728-4.0518-9.1738-5.4004c-7.2158-3.7393-13.7197-4.9883-19.4419-3.7441
		c-3.6899-0.5737-7.5122-0.1094-11.0029,1.3989c-12.1109-4.564-20.3044-0.1548-24.417,3.2974
		c-0.4116,0.3457-0.8062,0.7041-1.1831,1.0742c-7.7959-4.3408-13.3008-5.7764-17.9346-6.2275
		c-5.2635-0.5132-10.3186,0.3906-14.712,2.5591c-3.6018-1.1782-7.4899-1.3257-11.1855-0.3843
		c-6.6807-1.0049-12.6201,1.3945-16.3784,4.5469c-1.562,1.3105-2.9092,2.8447-4.0088,4.5391
		c-0.2192-0.1357-0.4336-0.2666-0.644-0.3926c-13.0874-7.8486-22.417-2.0557-25.8271,0.8047
		c-2.2119,1.8564-3.9775,4.1621-5.2012,6.7285c-9.1406-1.8828-15.4888,2.3027-17.9922,4.4033
		c-4.0635,3.4092-6.6064,8.293-7.0688,13.5762c-0.4624,5.2842,1.1934,10.5352,4.6025,14.5986l28.7637,34.2793
		c6.0708,7.2354,16.1724,9.0928,24.2607,5.0391c0.2451,0.2012,0.4878,0.4004,0.7275,0.5977
		c8.9722,7.375,17.4473,14.3418,23.9985,19.4336c3.8579,2.999,6.7339,5.1055,9.0503,6.6309
		c5.7832,3.8057,17.0312,8.8965,27.3853,0.2119c0.8301-0.6963,1.5967-1.4541,2.2944-2.2637
		c2.2915,1.916,4.3799,3.6553,6.2305,5.1865c2.834,2.3438,4.9404,4.0576,6.4404,5.2383c1.022,0.8047,1.8135,1.4033,2.4907,1.8838
		c3.4131,2.4209,6.957,3.6396,10.3662,3.957c1.2231,1.0508,2.3481,1.915,3.4443,2.6504c4.2485,2.8516,8.4785,3.9736,12.3618,3.9736
		c4.886,0,9.2075-1.7842,12.339-4.1284c14.4879,15.6489,29.733,32.2539,45.0092,49.1108c2.1646,2.3887,4.3008,4.75,6.4004,7.0752
		c-12.3359-5.6006-20.8999-0.168-24.0518,2.4775c-4.2051,3.5283-6.7749,8.6299-7.1074,14.1084
		c-0.333,5.4785,1.6011,10.8535,5.3481,14.8643c0.1582,0.1699,8.7866,9.4102,21.4717,23.2334
		c-7.3354-0.4229-12.627,3.5547-13.9702,4.6826c-4.2725,3.5879-6.8521,8.7979-7.1152,14.3711s1.8135,11.0029,5.7295,14.9775
		c26.8623,27.2695,58.0415,61.3877,65.7661,73.2832c0.4214,3.7822,1.9253,7.4863,4.5557,10.6211
		c7.0991,8.4619,19.7134,9.5664,28.1743,2.4648c1.479-1.2402,2.769-2.6768,3.8438-4.2568
		c7.0342,5.5693,12.418,9.7451,16.4131,12.7295c2.6572,1.9844,4.7275,3.4609,6.3286,4.5146
		c5.0195,3.3018,9.5225,4.4531,13.3613,4.4531c6.1177,0,10.5498-2.9238,12.7002-4.7285c2.2803-1.9131,4.0879-4.2383,5.3564-6.8418
		c1.4009,1.418,2.8022,2.8389,4.1938,4.251c7.3174,7.4258,19.1123,7.9854,27.1001,1.2832c2.7173-2.2793,4.8335-5.1074,6.2632-8.3057
		l0.146,0.1738c7.0508,8.4033,19.5552,9.5596,28.0259,2.5889c2.3047-1.8965,4.0771-4.2021,5.2969-6.7246
		c1.1001,0.8916,2.1289,1.6768,3.1055,2.3691c8.4746,6.0137,15.6812,6.0967,20.8296,4.6123
		c5.5674,0.9189,11.4795-0.5098,16.1269-4.4102c2.9082-2.4395,5.0449-5.6572,6.1963-9.2227l1.1992,1.123
		c7.8569,7.3545,20.125,7.1738,27.7612-0.4111c1.5156-1.5059,2.7407-3.1953,3.6738-4.999
		c9.7461,1.957,16.3931-2.3848,19.0415-4.6074c1.1157-0.9365,2.1206-1.9678,3.0073-3.0811
		c4.0894-0.4482,7.9297-1.9727,11.165-4.4658c2.4614-0.876,4.7598-2.1846,6.8027-3.8984c0.3154-0.2646,0.6211-0.5381,0.918-0.8203
		c2.7637-0.7871,5.3999-2.1855,7.6997-4.2061c4.3638-3.8311,6.6641-9.1484,6.7969-14.5391
		c6.1035,1.6123,12.8379,0.3008,17.9785-4.0127c3.8926-3.2656,6.4331-7.7129,7.3086-12.7119
		c0.9561-0.5625,1.8794-1.2129,2.7583-1.9512c4.2061-3.5303,6.7754-8.6357,7.105-14.1172s-1.6094-10.8574-5.3618-14.8662
		c-0.5103-0.5449-1.021-1.0908-1.5332-1.6387c-0.1001-0.1123-0.2051-0.2295-0.3154-0.3516
		c1.8105-0.7617,3.5327-1.8018,5.1025-3.1201c4.0737-3.4189,6.6187-8.3232,7.0698-13.623c0.3213-3.7705-0.3018-6.7832-1.4927-9.4541
		c1.686-2.8604,2.6875-6.126,2.8633-9.5117C651.0545,243.7388,647.0735,236.232,621.2347,207.7027z"/>
	<g>
		<g>
			<path class="st4" d="M323.6593,358.2305c0.0959,5.3865,4.1971,9.9648,8.9547,12.0507
				c5.9888,2.6257,12.7106,1.5543,18.6233-0.7156c-0.8155-0.463-1.6309-0.926-2.4464-1.389
				c2.6745,7.3519,6.0165,15.6432,13.1288,19.7768c3.0031,1.7454,6.6186,2.7118,10.0986,2.4476
				c2.982-0.2264,7.1803-1.4206,8.567-4.3642c0.8682-1.8432-0.8799-3.5943-2.7257-2.7257c-1.1776,0.5542-2.081,1.5293-3.3045,2.0388
				c-1.2104,0.504-2.5434,0.6946-3.8465,0.6892c-2.7531-0.0114-5.5034-0.947-7.7575-2.515
				c-5.401-3.7572-7.912-10.5769-10.3248-16.4048c-0.3735-0.9023-1.3527-1.8299-2.4463-1.389
				c-4.7187,1.9024-10.1073,3.1346-15.0841,1.4494c-4.3813-1.4836-7.2274-4.9395-8.1985-9.3874
				C326.499,355.968,323.6264,356.3839,323.6593,358.2305L323.6593,358.2305z"/>
		</g>
	</g>
	<g>
		<g>
			<path class="st4" d="M390.3014,370.5576c4.264,15.5521,28.0214,20.6296,37.3737,6.9346c1.3542-1.983-1.4906-3.723-3.1044-2.3953
				c-5.0075,4.12-10.7722,7.0523-17.4389,5.5217c-6.3475-1.4573-10.462-5.9374-13.232-11.5781
				C392.9025,367.0098,389.7214,368.4424,390.3014,370.5576L390.3014,370.5576z"/>
		</g>
	</g>
	<g>
		<g>
			<path class="st4" d="M427.3076,357.2131c0.6397,7.848,5.5499,15.955,12.5247,19.7513
				c6.7819,3.6912,15.5276,3.3509,21.2388-2.1095c1.871-1.7888-0.8839-4.437-2.8063-2.8063
				c-4.7588,4.0368-12.0591,3.9336-17.242,0.7727c-5.9215-3.6113-8.4019-9.8202-10.6767-16.0194
				C429.789,355.2835,427.1558,355.3504,427.3076,357.2131L427.3076,357.2131z"/>
		</g>
	</g>
	<g>
		<g>
			<path class="st4" d="M576.3439,214.2545c-0.02,0.0835-0.04,0.1669-0.0599,0.2504c0.324-0.324,0.648-0.648,0.972-0.972
				c0.0468-0.0157,0.0936-0.0314,0.1404-0.0471c0.3383,0.3383,0.6766,0.6766,1.015,1.0149
				c-0.483,0.9226-0.2714,1.1082,0.6346,0.5568c0.5247-0.145,1.0555-0.2615,1.5927-0.3496c0.8957-0.1495,1.7941-0.2113,2.7012-0.205
				c2.0158,0.0138,3.9966,0.3932,5.9176,0.9859c3.704,1.1428,7.1298,3.1217,10.2858,5.3436c2.8381,1.9981,6.1235,4.81,6.7214,8.4422
				c0.4181,2.54-0.8275,6.3623-3.7767,6.7486c-2.2542,0.2952-3.218,3.6783-0.5841,4.316
				c5.8525,1.4168,12.5219,3.5646,16.0647,8.8209c1.4344,2.1282,2.1786,4.7159,2.0939,7.2815
				c-0.0934,2.8312-1.3538,4.7626-3.1158,6.8634c-1.4185,1.6912,0.3282,4.1545,2.3857,3.0921
				c6.2916-3.2488,6.0267-12.6073,3.2791-18.0555c-3.6572-7.2516-12.1205-10.4953-19.5394-12.2399c0,1.4125,0,2.825,0,4.2375
				c5.024-0.6912,7.8958-6.001,7.554-10.7342c-0.4424-6.1263-5.8093-10.5084-10.6256-13.5354
				c-5.3573-3.367-11.8145-6.1165-18.2667-5.3333c-1.8862,0.2289-5.664,0.8089-6.3482,3.0066
				c-0.6155,1.977,1.3453,3.0306,2.9429,2.3338c0.4487-0.1957,0.6685-0.7516,0.6893-1.2017
				c0.0039-0.0856,0.0079-0.1712,0.0118-0.2569C579.1005,213.0812,576.7028,212.7558,576.3439,214.2545L576.3439,214.2545z"/>
		</g>
	</g>
	<g>
		<g>
			<path class="st4" d="M605.0974,262.8509c5.2475,1.4854,9.8996,5.2679,11.8469,10.4499
				c2.1476,5.7153,0.6351,11.5391-2.5587,16.5063c-1.1246,1.7491,1.4799,3.7879,2.8958,2.2343
				c10.0908-11.0722,2.959-29.5435-11.3532-32.2039C603.9772,259.4749,603.1341,262.2951,605.0974,262.8509L605.0974,262.8509z"/>
		</g>
	</g>
	<g>
		<g>
			<path class="st4" d="M611.6436,328.1574c9.8052-2.3092,16.5362-13.9902,12.7877-23.5329
				c-0.8442-2.1492-4.1604-1.3634-3.5407,0.9761c2.1082,7.9588-2.1869,16.6791-10.1774,19.1818
				C608.5649,325.4553,609.4448,328.6752,611.6436,328.1574L611.6436,328.1574z"/>
		</g>
	</g>
	<g>
		<g>
			<path class="st4" d="M564.3565,231.7213c-0.0956-0.0392-0.1913-0.0783-0.2869-0.1175c0.4167,0.4167,0.8334,0.8334,1.2501,1.25
				c-0.0907,0.2747-0.1813,0.5494-0.272,0.8241c-0.4286,0.1776-0.8574,0.3551-1.2861,0.5327
				c1.5515-0.0915,4.0532,2.1802,5.1617,3.1414c1.702,1.4758,3.2223,3.2974,3.9336,5.4658
				c1.1446,3.4892-0.1404,7.2295-3.1792,9.2784c-1.6124,1.0872-0.6494,3.7696,1.3605,3.2271
				c7.7205-2.0839,7.62-12.3145,3.6277-17.6453c-2.1405-2.8582-5.8304-6.0457-9.3527-6.9908
				c-3.2355-0.8681-5.2087,3.323-1.9037,4.4694C565.6169,235.9223,566.4233,232.5678,564.3565,231.7213L564.3565,231.7213z"/>
		</g>
	</g>
	<g>
		<g>
			<path class="st4" d="M456.3058,189.082c4.6389-4.5302,10.9037-1.3724,15.943,0.7019c2.1047,0.8664,15.5064,4.7802,11.4778,8.878
				c-1.6162,1.6439,0.4529,4.4141,2.4805,3.2148c2.9902-1.7686,3.3091-5.6631,1.5483-8.4824
				c-2.2169-3.5495-7.0549-4.7403-10.6938-6.18c-6.4471-2.5508-18.3999-8.6074-23.1239,0.0406
				C453.1224,188.7472,455.0607,190.2979,456.3058,189.082L456.3058,189.082z"/>
		</g>
	</g>
	<g>
		<g>
			<path class="st4" d="M523.6965,190.9559c1.438,0.2151,2.7018-0.2348,4.1232-0.4547c1.5992-0.2473,3.2255-0.324,4.8405-0.2211
				c3.3366,0.2126,6.6441,1.2285,9.5405,2.8896c2.8014,1.6067,5.248,3.8218,6.9741,6.5639
				c1.8452,2.9311,3.4585,7.5027,1.0358,10.5927c-1.7036,2.1729,1.1979,5.2839,3.1149,3.1149
				c2.351-2.66,6.1022-3.9101,9.4976-2.5037c3.4926,1.4467,4.9626,4.9449,5.2482,8.4898c0.1641,2.0366,3.3303,2.7966,3.8058,0.5151
				c1.1063-5.3087-2.1697-10.8222-7.061-12.9888c-4.9965-2.2132-11.0414-0.6916-14.6055,3.3728
				c1.0383,1.0383,2.0766,2.0766,3.1149,3.1149c5.9366-7.6324,0.0049-17.643-6.706-22.4879
				c-3.41-2.4618-7.5033-4.0358-11.6704-4.5579c-3.3612-0.4211-9.4236-0.6361-11.8766,2.1969
				C522.4577,189.3025,522.5543,190.7851,523.6965,190.9559L523.6965,190.9559z"/>
		</g>
	</g>
	<g>
		<g>
			<path class="st4" d="M367.0385,343.8424c-0.7191,4.1092,2.6903,8.1067,5.6228,10.583c3.5938,3.0347,7.9943,5.2685,12.6866,5.8929
				c8.483,1.1289,17.9354-5.379,15.6086-14.7579c-0.5876-2.3686-4.7098-1.9418-4.3741,0.592
				c0.7342,5.5412,5.9591,8.6459,11.3329,8.1324c6.5126-0.6223,10.7746-6.5184,13.8324-11.6872
				c1.3347-2.2561-1.9577-4.0348-3.4404-2.011c-2.4214,3.3052-5.0821,7.4883-9.1183,8.9521
				c-2.7309,0.9904-7.7076,0.1553-8.1529-3.3863c-1.458,0.1973-2.916,0.3947-4.3741,0.592c0.7174,2.9517-0.8318,5.8156-3.213,7.541
				c-2.8749,2.0832-6.643,2.0625-9.9365,1.1259c-3.1497-0.8958-6.1998-2.6021-8.65-4.7743
				c-2.4238-2.1488-3.6363-5.0207-5.787-7.3323C368.4886,342.6738,367.197,342.9368,367.0385,343.8424L367.0385,343.8424z"/>
		</g>
	</g>
	<g>
		<g>
			<path class="st4" d="M462.8149,372.2186c2.3151,8.1416,12.8195,8.2076,17.2063,1.9257c-1.131,0-2.2619,0-3.3929,0
				c7.1377,12.2817,25.4094,12.6634,32.367-0.0283c1.2068-2.2015-2.0276-4.0845-3.3594-1.9637
				c-5.9861,9.532-19.7467,9.8354-25.6147,0.0087c-0.794-1.3296-2.573-1.2042-3.3929,0c-3.0533,4.4843-8.5816,2.9863-11.1004-1.0863
				C464.6578,369.6678,462.3442,370.5631,462.8149,372.2186L462.8149,372.2186z"/>
		</g>
	</g>
	<g>
		<g>
			<path class="st4" d="M450.2303,359.0438c3.877,8.2631,15.7913,10.6454,22.3851,4.2724c1.4778-1.4284-0.6695-3.402-2.1987-2.1987
				c-5.4988,4.3272-14.5025,2.7128-17.9873-3.3592C451.6012,356.3151,449.5442,357.5814,450.2303,359.0438L450.2303,359.0438z"/>
		</g>
	</g>
	<g>
		<g>
			<path class="st5" d="M562.7905,369.4562c3.4965,0.3078,7.6812-0.458,10.9665-1.679c1.5507-0.5763,3.0146-1.327,4.3418-2.3156
				c1.2924-0.9627,2.492-2.8882,4.1182-3.0971c1.7388-0.2233,3.4277,0.3698,5.2292-0.0204
				c1.5437-0.3343,3.0381-1.0063,4.3344-1.9026c2.8011-1.9368,4.7728-4.9127,5.2416-8.3019
				c-0.927,0.5263-1.8539,1.0526-2.7809,1.5789c3.3092,1.1216,6.7818-0.3219,8.8702-3.006
				c2.5214-3.2405,2.4276-7.4115,1.8884-11.2796c-0.1521-1.091-1.358-1.6831-2.3163-1.7635c-2.903-0.2437-4.23,2.3279-5.5425,4.4547
				c-1.6409,2.6588-3.6823,5.0478-6.823,5.8086c-0.9962,0.2413-1.8267,1.3072-1.7831,2.3421
				c0.0532,1.2645-0.053,2.4202-0.5309,3.6114c-0.2033,0.5069-0.4446,0.9825-0.7508,1.4365
				c-0.2575,0.3819-1.3518,1.1838-0.3136,1.0864c0.673,0.386,1.3461,0.7721,2.019,1.1581c-0.0229-0.054-0.0457-0.1081-0.0686-0.1621
				c0,0.7763,0,1.5526,0,2.3289c0.0342-0.0549,0.0683-0.1097,0.1025-0.1646c-0.8558,0.3483-1.7115,0.6965-2.5673,1.0448
				c0.043,0.0128,0.0859,0.0255,0.129,0.0382c2.5984,0.7707,3.6863-2.6873,1.7338-4.1124c-0.037-0.027-0.074-0.054-0.111-0.081
				c-0.8753-0.6388-2.0146-0.2334-2.7549,0.3555c-0.577,0.459-0.8638,1.2058-0.8207,1.9329
				c0.0598,1.0079,0.6817,2.0031,1.7167,2.2548c4.8814,1.187,7.1923-7.2833,7.0746-10.7273
				c-0.5944,0.7807-1.1888,1.5614-1.7831,2.342c2.5737-0.6236,4.7924-2.0265,6.611-3.9407c0.83-0.8737,1.5758-1.8551,2.2596-2.8461
				c0.3052-0.4423,1.7136-3.3958,2.2036-3.3563c-0.7721-0.5879-1.5442-1.1757-2.3163-1.7636
				c0.448,3.1353,0.0626,10.0283-4.924,8.6487c-1.5409-0.4263-2.7055,0.7486-2.8616,2.1799
				c-0.3314,3.0385-2.7103,5.6448-5.5802,6.5626c-2.8114,0.8991-5.5297-0.5694-8.1232,1.2719
				c-1.1213,0.796-1.9189,1.9562-2.9785,2.825c-1.2468,1.0222-2.6998,1.7476-4.2117,2.2911
				c-3.0272,1.0883-6.2394,1.1596-9.2921,2.0513C560.7208,367.0298,561.1652,369.3131,562.7905,369.4562L562.7905,369.4562z"/>
		</g>
	</g>
	<g>
		<g>
			<path class="st6" d="M437.6108,345.5743c-1.3513,3.6062,4.8599,7.2932,7.5042,8.3192c4.1094,1.5946,8.5928,1.3575,12.535-0.5681
				c-1.0091-0.2646-2.0181-0.5292-3.0272-0.7938c4.0276,6.5301,12.9349,8.771,19.5034,4.6549
				c-0.9928-0.1281-1.9856-0.2562-2.9784-0.3843c8.8605,10.3428,24.0219,13.4007,36.3991,8.1281
				c2.9136-1.2412,0.4014-5.4974-2.4921-4.2634c-10.4711,4.4659-23.0506,1.1161-30.4313-7.3405
				c-0.6795-0.7786-2.118-0.9498-2.9784-0.3843c-4.2326,2.7817-10.4088,1.7186-13.2015-2.6439
				c-0.672-1.0497-1.9236-1.3559-3.0272-0.7938c-2.8798,1.4669-6.1834,1.4551-9.1756,0.3047
				c-1.4715-0.5658-2.7975-1.3996-3.9424-2.4826c-1.0168-0.962-1.6857-2.3357-3.1406-2.6307
				C438.4451,344.5513,437.8636,344.8997,437.6108,345.5743L437.6108,345.5743z"/>
		</g>
	</g>
	<g>
		<g>
			<path class="st6" d="M486.0856,369.2879c2.0232,5.2917,7.5529,6.8364,12.7365,5.5726
				c4.3479-1.0601,12.8602-4.6223,9.9395-10.4448c-0.8066-1.6081-3.2973-1.5081-4.1314,0
				c-0.8462,1.5299-0.7809,3.2068,0.4082,4.5685c1.1926,1.3656,2.9368,1.4179,4.6051,1.3987
				c2.4305-0.0279,4.7672-0.0209,7.1619,0.4892c0.5701,0.1214,1.1359,0.26,1.6974,0.4158c-0.186-1.9275-0.4817-2.3401-0.8872-1.2378
				c-0.3953,0.6297-0.4615,1.5087-0.4142,2.2219c0.2839,4.2778,4.9061,4.8994,8.2753,4.743
				c4.5565-0.2116,9.0532-1.0692,13.3913-2.4657c-0.8535-0.2256-1.7069-0.4512-2.5604-0.6768
				c5.4053,5.7917,14.9532,4.4771,18.402-2.7347c0.7633-1.5961-0.1043-4.3212-2.3148-4.0339
				c-5.2435,0.6816-11.5865,2.5037-16.7493,0.7907c-2.3713-0.7868-4.5518-2.0261-7.0451-2.4205
				c-2.7538-0.4357-5.0933,0.6885-7.7809,0.774c-2.5115,0.0799-4.4127-1.1791-5.9784-3.0166
				c-1.4282-1.6761-2.9972-2.9337-5.3239-2.9178c-2.671,0.0182-5.335,1.5246-7.7567,2.4879
				c-2.8777,1.1447-5.7586,2.2822-8.632,3.4377c-2.281,0.9174-2.5492,3.4636-0.6448,4.9336
				c2.4707,1.907,5.7443,1.6494,8.4999,0.5475c1.7098-0.6837,3.3062-1.7555,5.1216-2.1382
				c2.0557-0.4334,4.1135,0.0324,6.0766,0.6598c6.3167,2.0185,13.7875,6.6898,20.1848,2.2579
				c2.6664-1.8473,0.3965-5.5317-2.4999-4.2769c-5.9451,2.5757-11.9871-2.0349-17.5909-3.4853
				c-2.9081-0.7527-5.958-0.9102-8.8283,0.0867c-1.8086,0.6281-5.7772,3.6139-7.6926,2.1092
				c-0.397,1.5038-0.7941,3.0077-1.1911,4.5115c2.7304-1.0732,5.4541-2.1637,8.1804-3.2472
				c1.5879-0.6311,5.7539-3.1725,7.3771-2.1903c0.8095,0.4898,1.4164,1.7471,2.1364,2.3983
				c0.8278,0.7485,1.7565,1.4165,2.7567,1.9152c2.1447,1.0692,4.5483,1.5212,6.9279,1.2408
				c2.7164-0.3202,4.8485-1.2023,7.5636-0.2812c2.4232,0.8221,4.6308,2.0311,7.1852,2.4339
				c5.3464,0.843,11.1176-0.6249,16.4164-1.3444c-1.0092-1.3127-2.0183-2.6254-3.0275-3.9381
				c-1.9606,4.1606-6.8392,5.1212-10.0509,1.7192c-0.6155-0.652-1.6996-0.9593-2.5604-0.6768
				c-3.1787,1.0434-6.434,1.8271-9.7643,2.1878c-1.587,0.1719-3.2299,0.3431-4.822,0.2068
				c-0.9862-0.0845-0.3702,0.4054-0.3792-0.3413c-0.007-0.584,0.4194-1.1579,0.3674-1.8213
				c-0.2237-2.8582-3.3076-3.4151-5.5987-3.8056c-1.3643-0.2325-2.7516-0.3976-4.1343-0.4594
				c-0.8742-0.039-1.7472-0.0349-2.6215-0.0013c-0.291,0.0175-0.5819,0.0351-0.8729,0.0527
				c-0.973-0.2168-1.2669,0.2292-0.8819,1.338c-1.3771,0-2.7543,0-4.1314,0c0.5189,0.9612-6.7395,3.857-7.7818,4.0838
				c-2.9066,0.6325-6.4204-0.0399-8.0211-2.7823C487.9994,366.7137,485.4616,367.6557,486.0856,369.2879L486.0856,369.2879z"/>
		</g>
	</g>
	<g>
		<g>
			<path class="st6" d="M408.9779,368.2524c3.9126,5.4541,13.8929,6.6452,17.0246-0.4152c0.8762-1.9754-1.2878-3.7811-3.0062-2.3195
				c-3.4753,2.9559-7.3538,3.8754-10.8159,0.2637C410.618,364.1515,407.6026,366.3352,408.9779,368.2524L408.9779,368.2524z"/>
		</g>
	</g>
	<g>
		<g>
			<path class="st6" d="M607.4706,278.0136c-0.1954,4.007,0.0203,8.0294,0.1019,12.0374c0.0709,3.4885,0.1029,7.694-3.4957,9.4563
				c-1.8027,0.8828-1.0162,3.2499,0.5036,3.8532c3.6469,1.4476,9.9144,4.8098,7.4797,9.7397
				c-1.9299,3.9079-6.5085,7.3448-9.898,9.9351c1.2278,0.9439,2.4557,1.8878,3.6835,2.8318
				c0.7776-2.0374,1.5551-4.0747,2.3327-6.112c0.6877-1.802,1.1387-3.7414,2.8694-4.7782c1.402-0.8398,2.6953-1.1711,3.497-2.7704
				c0.6725-1.3415,0.6124-2.8055-0.197-4.0619c-1.7351-2.6936-5.8245-0.3246-4.3038,2.5157
				c-0.449-0.8387-0.6585-0.5175-1.5519-0.0557c-0.6047,0.3126-1.2087,0.6971-1.7145,1.1606
				c-0.9589,0.8789-1.6213,2.0431-2.1383,3.2179c-1.3679,3.1085-2.4378,6.3717-3.6296,9.5507
				c-0.9897,2.6398,2.4687,3.772,4.191,2.4397c2.7169-2.1017,5.226-4.4352,7.5013-7.0105c2.0995-2.3763,4.2985-4.9841,4.4232-8.3083
				c0.2516-6.7105-5.9739-10.3067-11.4241-12.36c0.1678,1.2844,0.3358,2.5688,0.5036,3.8532
				c3.6862-1.8864,5.1925-5.7996,5.3587-9.7548c0.2113-5.029-0.3207-10.3976-0.9836-15.3795
				C610.3229,276.0818,607.5711,275.9537,607.4706,278.0136L607.4706,278.0136z"/>
		</g>
	</g>
	<g>
		<g>
			<path class="st6" d="M114.3514,75.1397c-10.6384-3.7373-22.458-1.4261-32.8877-5.9882c-2.2054-0.9647-4.3634-2.207-6.1808-3.7923
				c-0.8476-0.7394-1.6596-1.5368-2.3548-2.4224c-1.2986-1.6541-1.1239-2.4888,0.4338-3.7312
				c4.4721-3.567,9.8145-5.1364,15.1005-7.0313c1.9857-0.7118,1.7745-3.8018-0.5151-3.8058
				c-6.5278-0.0114-13.2345,3.2823-18.1683,7.4023c-5.7761,4.8234-1.0608,10.937,3.7458,14.2674
				c11.5287,7.988,27.1781,4.6518,40.1785,7.4519C115.2449,77.8222,115.8293,75.6589,114.3514,75.1397L114.3514,75.1397z"/>
		</g>
	</g>
	<g>
		<g>
			<path class="st6" d="M251.3402,80.4613c10.2743,3.5916,22.1171,3.0672,32.5796,0.3513
				c5.282-1.3711,10.3745-3.8014,14.9448-6.7604c1.9186-1.2423,3.9822-2.5569,4.7492-4.8402
				c0.7203-2.1443-0.3081-4.0021-2.4018-4.6897c-1.8778-0.6167-2.8097,1.7485-1.7635,3.0294
				c-0.127-0.8871-0.2664-0.9593-0.4182-0.2165c-0.1753,0.3806-0.4189,0.7116-0.7306,0.9931
				c-0.7137,0.7347-1.7894,1.2877-2.6475,1.8364c-1.8241,1.1664-3.7173,2.2244-5.6644,3.171
				c-3.8206,1.8573-7.8473,3.3743-11.9449,4.4977c-8.5379,2.3408-17.4378,1.9133-26.1045,0.4584
				C250.5216,78.0538,249.9548,79.977,251.3402,80.4613L251.3402,80.4613z"/>
		</g>
	</g>
	<g>
		<g>
			<path class="st6" d="M263.1232,65.1984c5.5366-0.8598,13.4067-5.6063,13.107-12.0368
				c-0.3718-7.9753-9.5358-8.8666-15.5907-9.9623c-17.0224-3.0805-34.2981-5.6967-51.6334-5.8024
				c-2.004-0.0122-1.9519,2.9256,0,3.0781c14.0443,1.0975,27.9246,3.23,41.7959,5.6496c3.3516,0.5847,6.7052,1.1567,10.0581,1.7343
				c3.105,0.535,6.653,0.709,9.4973,2.1717c8.5814,4.4131-3.394,11.2904-7.8779,12.8324
				C260.9794,63.3788,261.6017,65.4347,263.1232,65.1984L263.1232,65.1984z"/>
		</g>
	</g>
	<g>
		<g>
			<path class="st4" d="M94.2787,62.8757c6.3037,6.4285,14.6491,9.8756,23.246,12.1452c4.3169,1.1397,8.7083,1.876,13.131,2.4612
				c4.4586,0.5899,9.6033,1.7342,14.0655,0.9305c2.1681-0.3905,1.7733-3.4068,0-4.0078c-3.8299-1.298-8.4634-0.9767-12.4715-1.3823
				c-4.4313-0.4484-8.8554-1.0744-13.2168-1.9855c-8.3961-1.7539-16.2753-5.1092-23.3436-9.9897
				C94.5796,60.2812,93.3745,61.9537,94.2787,62.8757L94.2787,62.8757z"/>
		</g>
	</g>
	<g>
		<g>
			<path class="st4" d="M230.9171,79.0951c4.9015,1.0717,10.1756,1.0136,15.1672,0.885c5.1082-0.1317,10.1986-0.587,15.2566-1.3082
				c5.0028-0.7132,9.9636-1.7194,14.8462-3.0228c1.9387-0.5175,4.1247-1.0609,5.2151-2.9278
				c0.8597-1.4719,0.6505-3.1729-0.6403-4.2999c-1.4097-1.2307-3.7724-0.0717-3.2383,1.8851
				c0.4024-0.9185,0.3119-1.045-0.2714-0.3795c-0.3138,0.2335-0.6609,0.3877-1.0414,0.4626
				c-0.8793,0.3284-1.829,0.5253-2.7352,0.7691c-1.981,0.533-3.9749,1.019-5.9797,1.454c-3.953,0.8577-7.9464,1.5367-11.9657,1.9944
				c-3.9247,0.4469-7.8645,0.6966-11.8128,0.795c-4.0925,0.102-8.2168-0.2303-12.2997-0.0052
				C229.3982,75.508,228.7397,78.619,230.9171,79.0951L230.9171,79.0951z"/>
		</g>
	</g>
	<g>
		<g>
			<path class="st4" d="M153.177,55.2585c1.5963-6.8653,11.272-6.122,16.6826-6.4757c6.9471-0.4541,14.0878-0.0639,20.9707-1.1198
				c1.857-0.2849,1.8432-3.4373,0-3.7366c-4.3573-0.7074-8.7912-0.4714-13.1842-0.2907c-4.5453,0.187-9.0877,0.5062-13.6167,0.9321
				c-5.8655,0.5515-15.6092,2.6094-13.7452,10.6907C150.6142,56.6894,152.8447,56.6874,153.177,55.2585L153.177,55.2585z"/>
		</g>
	</g>
	<g>
		<g>
			<path class="st4" d="M182.2029,57.1742c9.6002,1.1624,19.563,2.257,29.2396,2.0325c1.9335-0.0449,2.5546-3.1992,0.4777-3.5296
				c-9.7187-1.5461-19.8867-1.8477-29.7173-1.9873C179.9023,53.6572,180.0393,56.9122,182.2029,57.1742L182.2029,57.1742z"/>
		</g>
	</g>
	<g>
		<g>
			<path class="st6" d="M143.8064,46.0698c-3.5713,0.3286-28.7052,3.8217-23.6561,11.0138c1.1843,1.687,3.6951,2.3672,5.5253,3.0808
				c3.0271,1.1804,6.1559,2.0878,9.3039,2.8823c5.8579,1.4785,11.8,2.672,17.754,3.6897
				c24.5609,4.1978,49.6637,5.3315,74.4947,3.1987c6.1664-0.5296,13.0729-1.0192,18.721-3.7662
				c4.1196-2.0035,6.9927-7.0757,3.2513-10.9002c-1.5285-1.5625-3.8381,0.7834-2.3865,2.3865
				c1.8031,1.9913-0.6004,4.3533-2.3389,5.2389c-2.1221,1.081-4.6075,1.5974-6.9244,2.0752
				c-4.9718,1.0255-10.0612,1.3999-15.1176,1.745c-10.113,0.6902-20.2616,0.8552-30.3919,0.5002
				c-19.8192-0.6945-40.1623-2.9387-59.3445-8.1395c-2.7619-0.7488-5.5009-1.6212-8.142-2.7279
				c-0.1962-0.0822-1.0746-0.3452-1.2784-0.5638c-1.0202-1.0942,0.0672-1.499,0.9015-1.9378
				c1.1571-0.6086,2.4951-1.0006,3.7247-1.4312c5.2835-1.8504,10.7156-3.028,16.2257-3.966
				C145.4613,48.2215,145.1672,45.9446,143.8064,46.0698L143.8064,46.0698z"/>
		</g>
	</g>
	<g>
		<g>
			<path class="st6" d="M176.2603,48.5101c2.9273-1.7092,7.9009-0.8081,11.161-0.7434c3.9184,0.0777,7.8367,0.2,11.7505,0.4086
				c7.9196,0.4221,16.1023,0.7643,23.8946,2.3131c1.5647,0.311,3.3394,0.6089,4.7492,1.4017
				c2.3617,1.3282,0.8476,3.4279-0.9338,4.5596c-2.8247,1.7945-6.4862,1.899-9.7245,2.0112
				c-8.155,0.2826-16.2218-0.5507-24.2291-2.0642c-1.9323-0.3652-2.7813,2.5243-0.8224,2.9832
				c9.4662,2.2179,19.8689,3.245,29.5537,2.0277c3.5871-0.4509,7.4442-1.6119,9.7065-4.6397
				c2.0264-2.7119,1.2749-5.9048-1.5688-7.6374c-3.4637-2.1103-8.2079-2.3434-12.1411-2.7801
				c-5.1678-0.5739-10.356-0.9891-15.5493-1.2415c-5.2175-0.2536-10.4415-0.3762-15.665-0.3122
				c-3.799,0.0465-8.3917-0.5726-11.5542,1.9342C173.8634,47.5427,175.1759,49.1432,176.2603,48.5101L176.2603,48.5101z"/>
		</g>
	</g>
</g>
<g id="Layer_2">
	<g>
		<g>
			<path class="st6" d="M161.9749,52.1715c-3.2782-1.4165-3.2078,3.4494-1.4573,5.0587c3.3762,3.1038,9.3002,3.6897,13.6035,4.3295
				c1.8405,0.2736,2.6958-2.4596,0.7892-2.8627c-1.1661-0.2466-14.3278-3.0649-12.8676-5.0956
				c-0.3323,0.1906-0.6646,0.3812-0.9969,0.5718c0.131-0.0072,0.2619-0.0145,0.3928-0.0217
				C162.3828,54.0992,163.0221,52.624,161.9749,52.1715L161.9749,52.1715z"/>
		</g>
	</g>
	<g>
		<g>
			<path class="st16" d="M4.293,54.6635c9.7835,7.85,25.3479,5.6245,33.663-3.2438c-0.3604-0.0464-0.7209-0.0929-1.0813-0.1393
				c2.9438,4.7582,8.6237,6.4159,13.8012,7.5232c4.0635,0.8691,9.7985,1.3816,12.0646-2.9496
				c0.3685-0.7044-0.6269-1.2823-1.0625-0.621c-2.5858,3.9256-8.0819,2.8853-11.9588,1.9365
				c-4.4033-1.0777-9.1374-2.5114-11.6556-6.584c-0.2261-0.3656-0.7703-0.471-1.0813-0.1393
				c-8.4466,9.0083-21.9206,9.7093-32.1497,3.5181C4.4118,53.7095,3.8906,54.3407,4.293,54.6635L4.293,54.6635z"/>
		</g>
	</g>
	<g>
		<g>
			<path class="st16" d="M292.5813,51.6594c9.5091,11.7419,27.4668,11.6503,37.3834,0.5251
				c-0.3817-0.1581-0.7635-0.3163-1.1453-0.4744c0.6145,5.0257,4.9849,8.3416,9.823,9.0196
				c6.4016,0.8971,12.2776-3.0396,17.1633-6.6549c-0.3091-0.081-0.6181-0.1621-0.9272-0.2431
				c5.9195,9.0941,17.772,6.9154,26.5852,4.3886c0.7894-0.2263,0.4583-1.439-0.3396-1.2317
				c-8.2155,2.1348-19.4915,4.7294-25.0753-3.841c-0.1833-0.2814-0.6211-0.4699-0.9272-0.2431
				c-4.1744,3.0918-8.8979,6.4086-14.2854,6.6004c-4.733,0.1685-10.0551-2.74-10.675-7.7947
				c-0.0638-0.5207-0.7173-0.9557-1.1453-0.4744c-9.6617,10.8661-26.1348,10.3815-35.6681-0.3428
				C292.8773,50.3637,292.1505,51.1274,292.5813,51.6594L292.5813,51.6594z"/>
		</g>
	</g>
	<g>
		<g>
			<path class="st6" d="M298.4987,37.3364c6.4762,4.1959,15.1019,3.9736,21.2528-0.734c0.6027-0.4613,0.0299-1.5019-0.6092-1.0422
				c-5.921,4.2582-13.8422,4.6441-20.0669,0.7896C298.4467,35.9605,297.8842,36.9382,298.4987,37.3364L298.4987,37.3364z"/>
		</g>
	</g>
	<g>
		<g>
			<path class="st6" d="M65.8325,31.9378c0.0686,4.0239,3.7778,6.1169,7.4047,6.5904c6.0368,0.7881,10.9447-3.5039,16.73-4.2637
				c6.4953-0.853,11.2758,4.8314,17.592,4.7226c3.6844-0.0634,7.6119-1.9563,7.9091-5.9895
				c-0.3596,0.149-0.7193,0.2979-1.0789,0.4469c2.8807,2.4456,6.3305,3.9763,10.107,4.3406
				c4.3306,0.4177,7.7694-1.0721,11.6575-2.706c5.2172-2.1924,9.4676,0.0936,14.5674,1.2795
				c3.5739,0.8311,6.7164,0.3244,9.916-1.4292c3.9444-2.1619,7.5301-5.2895,12.3048-3.7399
				c2.0587,0.6682,3.8981,1.8808,5.9707,2.5277c1.9859,0.6198,4.0975,0.8168,6.1693,0.7653
				c4.3993-0.1093,8.6779-1.2897,13.0044-1.9656c2.4108-0.3767,4.8648-0.6076,7.3037-0.3977
				c2.9535,0.2541,5.8011,1.1627,8.7274,1.5922c5.7267,0.8406,11.6006,0.035,17.3286-0.4151
				c6.2495-0.4911,12.5253-0.8552,18.7573-1.5328c0.8167-0.0888,0.8555-1.3483,0-1.3066
				c-10.5301,0.5128-21.1388,2.3652-31.687,2.1815c-4.8873-0.0851-9.5066-1.8582-14.3689-1.9975
				c-4.4271-0.1269-8.7683,0.9869-13.094,1.7606c-5.1456,0.9203-9.7924,1.0311-14.6258-1.1658
				c-3.2591-1.4814-6.1623-2.5404-9.6825-1.2039c-3.4315,1.3028-6.2016,4.0466-9.75,5.0653
				c-4.6693,1.3405-9.0151-1.2658-13.5064-2.1179c-4.9824-0.9453-8.1817,1.6285-12.7432,2.9706
				c-5.3662,1.5788-11.227,0.1914-15.4624-3.399c-0.4283-0.3631-1.0378-0.1165-1.079,0.4469c-0.3652,5.0047-6.9983,5.2793-10.5587,4
				c-4.4493-1.5987-8.4043-4.5266-13.3576-4.0325c-4.6287,0.4617-8.5276,3.2735-13.0166,4.2203
				c-3.9841,0.8403-9.9131-0.4519-10.4839-5.2476C66.717,31.3451,65.8217,31.3067,65.8325,31.9378L65.8325,31.9378z"/>
		</g>
	</g>
	<path class="st7" d="M539.4761,321.3235l1.3599-26.0137l-15.3316-4.8036l6.8104-12.3212c0,0,58.6362,13.0462,61.6411,32.4878
		c-13.9271-3.5756-47.2853-11.7975-47.2853-11.7975L539.4761,321.3235z"/>
	<path class="st7" d="M371.8995,248.9054c16.7692-8.5868,88.049,10.6578,94.9479,11.9681
		c-5.5598,5.6312-1.7114,10.627,9.7931,17.4221c1.52,0.8978,0.5501,3.2296-1.1548,2.7719
		c-18.1136-4.8615-36.6122-11.0732-45.2499-13.105c-5.4858,14.3624-7.8465,22.5435-7.8465,22.5435l0.694-26.4984
		C423.0833,264.0078,379.2288,252.1378,371.8995,248.9054z"/>
	<path class="st8" d="M593.3694,337.0878c-74.7925-16.9707-152.0037-42.0171-231.2012-73.6963l4.8203,12.7881
		c63.8809,32.1709,134.516,57.1079,211.2582,75.5054L593.3694,337.0878z"/>
	<polygon class="st8" points="537.8036,240.1343 505.3102,233.2798 489.0802,239.7145 537.5334,248.3809 	"/>
	<g>
		<g>
			<path class="st9" d="M529.5207,284.17c3.236-9.1326,5.7284-18.5133,7.499-28.0389c0.7802-4.1973,1.8197-8.6775,1.9321-12.9582
				c0.097-3.6939-3.2405-4.2665-6.1611-5.2387c-8.4759-2.8215-17.3829-5.4157-26.4114-4.9832
				c-8.2388,0.3946-15.351,3.7517-21.6119,8.9908c-8.0261,6.7162-15.1359,14.7458-22.2565,22.3911
				c-0.7446,0.7995,0.4538,2.0034,1.2015,1.2015c5.6666-6.0773,11.406-12.1098,17.364-17.9035
				c5.7055-5.5481,11.9945-10.5879,19.9577-12.2797c8.1105-1.7231,16.5491-0.1433,24.4013,2.0722
				c1.887,0.5324,3.7602,1.1119,5.6254,1.7158c2.3732,0.7683,5.8917,1.1133,6.3744,4.0338c0.3275,1.9811-0.558,4.5665-0.8589,6.55
				c-0.328,2.1622-0.6937,4.3185-1.0968,6.468c-1.7577,9.3724-4.2706,18.5741-7.3543,27.5944
				C527.8224,284.6707,529.2119,285.0415,529.5207,284.17L529.5207,284.17z"/>
		</g>
	</g>
	<g>
		<g>
			<path class="st9" d="M467.4558,260.1736c-20.5207-4.2118-40.9326-8.4626-61.6285-11.7348
				c-11.1681-1.7657-25.0598-5.3056-35.6142,0.5086c-5.5158,3.0385-8.8762,9.1984-8.7876,15.4799
				c0.0868,6.1462,4.0937,11.5648,8.1194,15.8611c5.0323,5.3705,10.9858,9.8241,16.9225,14.1346
				c6.712,4.8734,13.2624,9.969,20.0462,14.7422c32.9545,23.1874,70.9671,41.6945,110.924,48.5044
				c18.6871,3.1848,39.5156,5.0333,57.1854-3.2626c7.4168-3.4821,14.1063-8.7334,18.5838-15.6581
				c4.3283-6.6938,5.3473-14.1031,3.6441-21.8198c-5.4506-24.6956-35.7662-30.9102-56.3677-36.8404
				c-2.685-0.7729-5.3689-1.566-8.0079-2.4858c-0.735-0.2562-1.051,0.9095-0.3209,1.1639
				c10.6342,3.7066,21.6401,6.2558,32.1976,10.1918c10.4492,3.8955,21.4886,9.3929,27.4644,19.2684
				c3.1521,5.2092,4.5909,11.3552,4.4049,17.4262c-0.282,9.2081-7.0104,17.4401-14.1431,22.662
				c-15.3154,11.2123-35.1004,11.504-53.2143,9.4977c-38.3171-4.2441-74.9188-20.0641-107.3476-40.4128
				c-13.6949-8.5934-26.7758-18.3246-39.6088-28.1563c-9.9678-7.6367-25.7564-20.8312-15.9942-34.6335
				c7.2629-10.2686,23.6048-7.3721,34.1256-5.6906c17.5356,2.8026,34.9576,5.8432,52.367,9.3676
				c4.9175,0.9955,9.8403,1.9655,14.768,2.909C467.839,261.3236,468.1272,260.3114,467.4558,260.1736L467.4558,260.1736z"/>
		</g>
	</g>
	<g>
		<g>
			<path class="st9" d="M363.7077,253.9858c-0.9866-0.4352-1.9732-0.8705-2.9598-1.3057c-0.8898-0.3925-1.8038-0.9196-2.7653-1.0878
				c-0.6747-0.118-0.9826,0.6666-0.4515,1.0709c0.7794,0.5933,1.8131,0.9149,2.7122,1.3047
				c0.9241,0.4006,1.8482,0.8012,2.7723,1.2018C363.8152,255.5163,364.5161,254.3424,363.7077,253.9858L363.7077,253.9858z"/>
		</g>
	</g>
	<g>
		<g>
			<path class="st9" d="M362.314,256.6566c-1.7047-1.4418-3.6548-2.5349-5.8419-3.0415c-0.7742-0.1793-1.0781,0.9376-0.3271,1.1865
				c1.9707,0.6531,3.8124,1.5043,5.5087,2.7108C362.1541,257.8683,362.7866,257.0562,362.314,256.6566L362.314,256.6566z"/>
		</g>
	</g>
	<g>
		<g>
			<path class="st9" d="M356.1846,251.5752c-0.604-3.0638-1.2212-6.1476-2.0696-9.1563c-0.6187-2.1938-1.4588-4.1547-3.3187-5.5714
				c-1.1848-0.9025-2.6827-1.5064-4.1954-1.2919c-2.2771,0.3228-2.5589,2.8184-3.342,4.6848
				c-2.465,5.8749-4.6548,11.8628-6.5968,17.9305c-0.4209,1.315-1.7228,3.4834-0.7607,4.7828
				c0.533,0.7198,1.7935,1.12,2.5414,1.5002c1.4306,0.7273,2.8853,1.397,4.3574,2.0356c0.3508,0.1522,0.8503,0.0634,0.9425-0.3834
				c1.829-8.8627,4.6384-17.4306,8.0372-25.8081c0.2462-0.6069-0.7942-1.0509-1.0656-0.4492
				c-3.7435,8.2971-6.3711,17.0104-8.209,25.9162c0.3141-0.1278,0.6283-0.2556,0.9425-0.3834
				c-1.8005-0.781-3.9014-1.5067-5.522-2.6396c-1.3419-0.938-0.9358-1.3445-0.4641-2.865c0.2831-0.9124,0.5718-1.8231,0.8663-2.7319
				c1.3744-4.2415,2.8807-8.4376,4.4904-12.5953c0.7993-2.0645,1.5414-4.2011,2.4856-6.2027
				c0.5296-1.1227,0.6213-1.8151,2.0781-1.7795c1.7332,0.0423,3.0655,1.1618,3.9562,2.5515
				c2.2869,3.5679,2.7606,8.689,3.942,12.7054C355.4525,252.4086,356.3005,252.1628,356.1846,251.5752L356.1846,251.5752z"/>
		</g>
	</g>
	<g>
		<g>
			<path class="st9" d="M344.495,264.3703c4.0356-3.7839,8.1661-7.3676,12.6809-10.5772c0.6682-0.475,0.0378-1.5871-0.6506-1.1131
				c-4.6221,3.1826-8.9896,6.7932-12.7554,10.9652C343.3285,264.1343,344.011,264.8241,344.495,264.3703L344.495,264.3703z"/>
		</g>
	</g>
	<g>
		<g>
			<path class="st9" d="M347.088,251.5682c1.4695,0.726,2.9647,1.3981,4.468,2.0512c0.6312,0.2742,1.186-0.6506,0.5471-0.936
				c-1.5384-0.6873-3.0859-1.3554-4.6561-1.9666C346.9572,250.5262,346.6167,251.3353,347.088,251.5682L347.088,251.5682z"/>
		</g>
	</g>
	<g>
		<g>
			<path class="st9" d="M400.223,253.9073c15.2317,2.5077,30.3749,5.4499,45.4278,8.8727c0.7737,0.1759,1.1045-1.0054,0.3287-1.1922
				c-15.0116-3.6136-30.2031-6.504-45.4995-8.6127C399.877,252.8919,399.6033,253.8052,400.223,253.9073L400.223,253.9073z"/>
		</g>
	</g>
	<g>
		<g>
			<path class="st9" d="M537.1517,288.1862c10.7374,2.9099,21.5387,6.5787,31.5012,11.565
				c8.8921,4.4505,18.4699,12.9713,15.0505,24.054c-0.2166,0.7019,0.8513,0.9802,1.0905,0.3006
				c3.5645-10.1249-4.2949-19.1899-12.5491-23.8971c-10.6805-6.0908-22.9886-9.9316-34.875-12.8135
				C536.8573,287.2709,536.6408,288.0478,537.1517,288.1862L537.1517,288.1862z"/>
		</g>
	</g>
	<g>
		<g>
			<path class="st9" d="M551.8068,285.0327c-1.5569,2.0508-2.392,4.995-3.3502,7.3797c-1.0479,2.6078-2.0508,5.2332-3.011,7.8745
				c-2.0269,5.5757-3.8644,11.22-5.509,16.9203c-3.248,11.2585-5.7166,22.7181-7.4153,34.3111
				c-0.1154,0.7876,1.0872,1.1317,1.2092,0.3333c1.7451-11.4198,4.176-22.7342,7.3588-33.8408
				c1.5483-5.4029,3.27-10.7562,5.1619-16.0486c0.9985-2.7931,2.0456-5.5688,3.1351-8.3277
				c1.0512-2.6619,2.6995-5.4648,3.1809-8.2812C552.6489,284.8753,552.0944,284.654,551.8068,285.0327L551.8068,285.0327z"/>
		</g>
	</g>
	<g>
		<g>
			<path class="st9" d="M436.4164,254.8222c-1.5335,1.6364-2.4596,3.8492-3.48,5.8314c-1.1553,2.2444-2.2451,4.5214-3.2743,6.8263
				c-2.0233,4.5314-3.8163,9.166-5.3648,13.8809c-3.1272,9.5218-5.244,19.3385-6.2332,29.312c-0.0818,0.8247,1.1779,0.8,1.2773,0
				c1.2195-9.8151,3.2771-19.5223,6.3583-28.9254c1.5526-4.7381,3.3493-9.3963,5.3923-13.9447
				c0.9734-2.1672,2.0002-4.3109,3.0753-6.4296c1.0134-1.997,2.3731-3.9601,2.9933-6.1176
				C437.2816,254.8348,436.7226,254.4954,436.4164,254.8222L436.4164,254.8222z"/>
		</g>
	</g>
	<g>
		<g>
			<path class="st9" d="M537.5334,247.9238c-2.6812,0.0442-5.308-0.1162-7.9094-0.8269c-0.3488-0.0953-0.6831,0.1186-0.793,0.4502
				c-1.0829,3.2695-2.358,6.4442-3.8785,9.5364c-0.1717,0.3492-0.0469,0.8447,0.382,0.939c2.9583,0.65,5.9116,1.3761,8.8916,1.9183
				c0.7706,0.1402,1.1111-0.9926,0.3287-1.1922c-2.9342-0.7485-5.921-1.3178-8.8805-1.9588c0.1274,0.313,0.2547,0.6259,0.382,0.9389
				c1.6072-3.1728,2.9586-6.4418,4.0178-9.8389c-0.2643,0.1501-0.5286,0.3002-0.793,0.4502
				c2.5615,0.6515,5.7903,1.291,8.3737,0.4815C538.135,248.6711,538.0643,247.9151,537.5334,247.9238L537.5334,247.9238z"/>
		</g>
	</g>
	<g>
		<g>
			<path class="st9" d="M523.9755,246.5436c-2.6611-0.4657-5.3279-0.8798-8.0017-1.2655c-0.2828-0.0408-0.5382,0.0294-0.6964,0.2834
				c-1.0508,1.6879-2.3366,3.3925-3.182,5.1923c-0.37,0.7878-0.6917,1.4308-0.2208,2.2579
				c0.4826,0.8475,1.5703,1.1024,2.4315,1.3471c2.0723,0.5888,4.1625,1.1208,6.243,1.6801c0.2493,0.067,0.626-0.0381,0.7374-0.3001
				c0.9565-2.2499,2.0471-4.4808,2.807-6.8055c0.2024-0.6192-0.7485-1.0233-1.0549-0.4447
				c-1.1172,2.1096-1.9482,4.3934-2.8798,6.5911c0.2458-0.1,0.4916-0.2001,0.7374-0.3001c-1.8042-0.483-3.6082-0.9668-5.4128-1.4481
				c-1.168-0.3115-2.5551-0.2246-2.2815-1.9309c0.11-0.6863,1.0035-1.6585,1.3509-2.2327c0.2858-0.4723,0.9085-1.9093,1.3461-2.2355
				c0.7477-0.5574,1.5842-0.1865,2.4202-0.0647c1.8357,0.2675,3.6722,0.5056,5.5138,0.7292
				C524.428,247.6689,524.5699,246.6476,523.9755,246.5436L523.9755,246.5436z"/>
		</g>
	</g>
	<g>
		<g>
			<path class="st9" d="M510.4757,233.5888c1.9948-4.3648,6.9871-3.9387,10.8933-2.892c1.7349,0.4648,3.4553,0.9889,5.1826,1.4813
				c2.0173,0.5751,7.2625,1.3228,5.6591,4.7562c-0.2955,0.6329,0.5396,1.4522,1.0537,0.813
				c4.1235-5.1258-7.1731-7.1501-9.7792-7.8661c-4.7396-1.3022-11.7826-2.6003-13.9841,3.2968
				C509.2919,233.7387,510.2244,234.1389,510.4757,233.5888L510.4757,233.5888z"/>
		</g>
	</g>
	<g>
		<g>
			<path class="st9" d="M529.7455,232.0721c0.5046-0.731,1.1086-1.8282,1.0123-2.7493c-0.064-0.6115-0.9623-1.0363-1.2939-0.3504
				c-0.1922,0.3976-0.2446,0.8265-0.3668,1.2483c-0.1191,0.4111-0.2641,0.8258-0.4343,1.2186
				C528.3455,232.1711,529.2782,232.7491,529.7455,232.0721L529.7455,232.0721z"/>
		</g>
	</g>
	<g>
		<g>
			<path class="st16" d="M491.6843,245.6644c-0.8278,1.0931-2.7111,3.5434-0.78,4.4453c1.3175,0.6154,3.493,0.5814,4.9312,0.9077
				c1.8376,0.4169,3.6351,0.951,5.4171,1.5615c0.3029,0.1038,0.6589-0.0698,0.8165-0.3323c0.4102-0.683,0.6886-1.2765,0.8852-2.041
				c0.1807-0.7029-0.9062-1.2308-1.2209-0.5147c-0.2803,0.6379-0.5545,1.228-0.9129,1.8259
				c0.2722-0.1107,0.5443-0.2215,0.8165-0.3323c-2.1932-0.7492-4.4167-1.3781-6.6914-1.8286
				c-0.5357-0.1061-2.3835-0.1213-2.7574-0.4631c-0.7104-0.6493,0.2419-2.1023,0.4546-2.8243
				C492.8232,245.4559,492.0209,245.2199,491.6843,245.6644L491.6843,245.6644z"/>
		</g>
	</g>
	<g>
		<g>
			<path class="st16" d="M487.6573,254.9004c-0.8804,1.2287-2.0569,3.0167-0.1839,3.8766c1.3097,0.6013,3.1367,0.43,4.5312,0.7834
				c1.9715,0.4995,3.7985,1.3028,5.5528,2.3233c0.2964,0.1724,0.7689,0.089,0.9268-0.243c0.4118-0.8653,0.8087-1.7262,1.1741-2.6115
				c0.2701-0.6544-0.8039-1.0876-1.1352-0.4786c-0.4309,0.7921-0.8206,1.5925-1.2088,2.4063c0.309-0.081,0.6179-0.162,0.9269-0.243
				c-1.8523-1.0798-3.7924-1.9356-5.875-2.4653c-0.8648-0.22-1.7382-0.3754-2.6221-0.4923
				c-0.3419-0.0477-0.6847-0.0876-1.0285-0.1196c-0.6528,0.1382-0.8307-0.0976-0.5336-0.7075
				c-0.0653-0.3642,0.3286-1.3671,0.4124-1.6336C488.7792,254.7073,487.9774,254.4536,487.6573,254.9004L487.6573,254.9004z"/>
		</g>
	</g>
	<g>
		<g>
			<path class="st16" d="M484.1063,264.8658c0.0149-0.0462,0.0298-0.0924,0.0447-0.1385c-0.2199,0.0894-0.4398,0.1789-0.6597,0.2684
				c-0.426-0.2103-1.0883,1.6632-1.146,1.7927c-0.1848,0.4145-0.0515,0.8921,0.4199,1.0322
				c2.2823,0.6783,4.5763,1.3179,6.8648,1.9748c1.9886,0.5707,3.744,1.5279,5.6641,2.1833
				c0.3031,0.1035,0.5731-0.0783,0.7466-0.3039c0.6365-0.827,0.822-2.0095,1.0063-3.0131c0.1342-0.7312-0.8581-1.0085-1.1131-0.3069
				c-0.5176,1.4241-0.4554,1.8935-1.9834,1.4585c-1.0399-0.2961-2.0556-0.7732-3.0998-1.0866
				c-2.5653-0.77-5.1353-1.5307-7.712-2.2613c0.14,0.3441,0.28,0.6881,0.4199,1.0322c0.4069-0.9444,1.144-1.9864,0.8505-3.0249
				c-0.1014-0.3587-0.465-0.4465-0.7732-0.3145c-0.0483,0.0207-0.0965,0.0414-0.1448,0.062
				c-0.1504,0.0644-0.2077,0.242-0.2224,0.3878c-0.0048,0.0475-0.0096,0.0951-0.0143,0.1426
				C483.2038,265.2561,483.963,265.31,484.1063,264.8658L484.1063,264.8658z"/>
		</g>
	</g>
	<g>
		<g>
			<path class="st16" d="M479.5811,272.8172c-0.5691,1.6031-2.0145,3.8424-0.0464,4.8367c1.6367,0.8269,3.6848,1.2024,5.4286,1.7603
				c2.1133,0.6761,4.2333,1.3313,6.3432,2.0183c0.3208,0.1045,0.6116-0.1242,0.7196-0.4086
				c0.3092-0.8142,0.609-1.6131,0.8631-2.4464c0.1713-0.5617-0.7182-0.9648-0.9692-0.4086c-0.3782,0.8377-0.7002,1.6823-1.022,2.544
				c0.2399-0.1362,0.4797-0.2724,0.7196-0.4086c-2.5636-0.8341-5.1133-1.7102-7.6753-2.549
				c-1.0497-0.3437-2.8567-0.5732-3.644-1.3758c-0.588-0.5993-0.3929-0.6203-0.1407-1.4329c0.188-0.6053,0.373-1.2101,0.5479-1.8195
				C480.9149,272.3976,479.8294,272.118,479.5811,272.8172L479.5811,272.8172z"/>
		</g>
	</g>
	<g>
		<g>
			<path class="st16" d="M437.4746,279.3411c0.4076-0.7116,0.5575-1.4518,0.7641-2.2461c0.0751-0.2885,0.4462-2.5993,0.7155-2.7083
				c0.45-0.1821,2.1339,0.8711,2.5925,1.0649c0.1477,0.0624,2.6818,1.2582,2.6476,1.2823
				c-0.6795,0.4785-0.0918,1.5341,0.6595,1.1283c0.762-0.4116,0.9299-1.2895,0.4269-1.9964
				c-0.4325-0.6079-1.2663-0.8392-1.9126-1.1156c-1.035-0.4427-2.0698-0.886-3.105-1.328
				c-0.9648-0.4119-1.9858-0.8059-2.5616,0.3371c-0.3528,0.7005-0.4506,1.6712-0.6405,2.4301
				c-0.2397,0.9578-0.5572,1.9082-0.5146,2.9005C436.5671,279.57,437.2206,279.7847,437.4746,279.3411L437.4746,279.3411z"/>
		</g>
	</g>
	<g>
		<g>
			<path class="st16" d="M526.9957,301.7461c0.1676-0.9077,0.3829-1.6918,0.7911-2.5298c-0.2543,0.1035-0.5087,0.207-0.763,0.3105
				c0.9014,0.245,1.8029,0.49,2.7043,0.735c1.0798,0.2935,2.5013,0.3701,2.9951,1.3812c0.4769,0.9765-0.0707,2.1278-0.3221,3.1581
				c-0.2627,1.0765-0.5254,2.1531-0.788,3.2296c0.3293-0.134,0.6588-0.268,0.9881-0.402c-1.1124-0.5354-2.1688-0.8745-3.4129-0.7314
				c-0.7889,0.0907-0.7919,1.141,0,1.2305c0.98,0.1107,1.8268,0.2295,2.7339,0.6626c0.3755,0.1793,0.8794,0.0498,0.9882-0.402
				c0.4034-1.6759,0.8168-3.3498,1.2103-5.0281c0.1816-0.775,0.5212-1.7451,0.1716-2.5321
				c-0.3961-0.8915-1.3223-1.0536-2.1813-1.3011c-1.5705-0.4524-3.1522-0.869-4.7278-1.3033
				c-0.2707-0.0746-0.6327,0.0452-0.7631,0.3105c-0.4862,0.9892-0.769,1.9456-0.8328,3.0483
				C525.7477,302.2659,526.869,302.4326,526.9957,301.7461L526.9957,301.7461z"/>
		</g>
	</g>
	<g>
		<g>
			<path class="st16" d="M394.2195,258.0252c-1.2514,0.4514-5.226,1.0412-4.6332,3.1504c0.627,2.2307,4.5531,1.6591,6.1187,1.4392
				c1.5058-0.2115,5.2786-0.3191,5.345-2.5811c0.0716-2.4377-2.8725-2.4597-4.4857-1.9533
				c-0.7119,0.2235-0.4081,1.2097,0.3022,1.0961c0.3745-0.0538,0.7489-0.1077,1.1234-0.1615
				c0.323,0.5451,0.646,1.0902,0.9691,1.6353c-0.0699,0.1395-1.0217,0.237-1.162,0.2672c-1.2081,0.2602-2.4269,0.4977-3.6637,0.5622
				c-0.4225,0.022-0.9853,0.1104-1.3982-0.0009c-0.3947,0.0504-0.6926-0.1252-0.8939-0.5269
				c-0.6781-0.3176-0.749-0.5364-0.2128-0.6565c0.3969-0.5653,2.3179-1.1271,2.9434-1.4347
				C395.0312,258.6346,394.7088,257.8488,394.2195,258.0252L394.2195,258.0252z"/>
		</g>
	</g>
	<g>
		<g>
			<path class="st16" d="M408.304,261.9363c-3.2784-0.2449-6.2776,1.0385-8.6595,3.2375c-0.2911,0.2687-0.2486,0.8631,0.1339,1.0392
				c2.1283,0.9798,4.3045,1.2126,6.6309,1.0366c1.766-0.1336,3.9187-0.2528,5.3286-1.4555c1.9515-1.6647,1.2904-5.0739-1.5712-4.686
				c-0.642,0.087-0.4761,1.1241,0.1511,1.1164c1.0897,1.808,0.9669,2.8511-0.3683,3.1295
				c-0.4275,0.2002-0.8764,0.3251-1.3468,0.3746c-0.8442,0.1678-1.7445,0.2178-2.6023,0.2615
				c-1.9353,0.0986-3.7761-0.0901-5.5541-0.9198c0.0446,0.3464,0.0893,0.6928,0.1339,1.0392
				c2.1788-2.0954,4.745-3.0123,7.7237-3.183C408.9435,262.8899,408.9385,261.9837,408.304,261.9363L408.304,261.9363z"/>
		</g>
	</g>
	<g>
		<g>
			<path class="st16" d="M558.4418,306.4875c-1.7547-0.1675-5.3419,0.3006-6.1725,2.2555
				c-0.8377,1.9716,2.3539,2.2473,3.5657,2.3221c2.0015,0.1236,5.8747-0.1516,7.2411-1.9574
				c0.7294-0.964,0.0872-2.3936-1.1841-2.0059c-0.6075,0.1852-0.3527,1.13,0.2632,0.9549
				c-0.1711,0.2886-0.3422,0.5772-0.5133,0.8658c-0.363,0.1543-0.7259,0.3086-1.0888,0.4629
				c-0.6077,0.2174-1.2063,0.3578-1.8415,0.4595c-1.2318,0.1973-2.4647,0.1771-3.6918-0.0744
				c-0.1732-0.0355-1.204-0.1821-1.2698-0.3342c-0.1707-0.3947,0.6041-0.8413,0.8258-0.9961
				c1.0558-0.7372,2.6221-0.922,3.866-0.9683C559.0844,307.448,559.0648,306.547,558.4418,306.4875L558.4418,306.4875z"/>
		</g>
	</g>
	<g>
		<g>
			<path class="st16" d="M571.9177,309.8112c-1.2661,0.1792-11.2383,2.57-7.6425,5.3249c1.2876,0.9865,4.1304,0.6825,5.5747,0.4431
				c2.3686-0.3926,4.4826-1.4326,6.2201-3.081c0.4208-0.3992-0.1537-1.1907-0.6355-0.8236
				c-2.4019,1.8298-5.1675,2.9543-8.2319,2.7674c-0.8062-0.0491-1.9002,0.0951-1.7775-0.754
				c0.1049-0.7261,0.9991-0.9102,1.589-1.1776c1.6719-0.7577,3.4155-1.2299,5.2089-1.5918
				C572.961,310.7697,572.6299,309.7103,571.9177,309.8112L571.9177,309.8112z"/>
		</g>
	</g>
	<g>
		<g>
			<path class="st16" d="M440.925,277.3281c-1.2878,2.919-2.4543,5.896-3.6279,8.8623c-0.2616,0.6613,0.6518,1.018,1.0922,0.6358
				c-0.5174,0.4489-0.4217,0.0089,0.1354,0.2971c0.4107,0.2125,0.9789,0.2982,1.4189,0.4438
				c1.5919,0.5268,3.169,1.1005,4.7469,1.6673c5.1813,1.8611,10.3499,3.7571,15.5288,5.625
				c13.974,5.0401,28.0251,9.9508,42.3335,13.9653c7.1638,2.0099,14.4272,3.8552,21.8106,4.8508
				c0.2843,0.0383,0.678-0.0176,0.8101-0.3297c1.2778-3.0186,2.5518-6.0394,3.8642-9.0432c0.332-0.7598-0.7802-1.4289-1.1283-0.6595
				c-1.349,2.982-2.6599,5.9814-3.9746,8.9786c0.27-0.1099,0.54-0.2198,0.8101-0.3297
				c-14.4657-1.9767-28.629-6.5959-42.4619-11.1148c-12.6335-4.1271-25.1012-8.7118-37.5852-13.2637
				c-1.6754-0.6109-3.3497-1.2339-5.046-1.7854c-0.6104-0.1985-1.6024-0.7143-2.1866-0.2262
				c0.3641,0.2119,0.7281,0.4239,1.0922,0.6358c1.1934-2.8978,2.4012-5.798,3.4814-8.7401
				C442.2741,277.1566,441.2043,276.695,440.925,277.3281L440.925,277.3281z"/>
		</g>
	</g>
	<g>
		<g>
			<path class="st16" d="M441.8506,279.3749c10.7704,5.6464,22.4588,9.9331,33.9824,13.7514
				c11.8633,3.9309,23.9628,7.1082,36.2456,9.4185c0.6829,0.1284,0.9803-0.908,0.2897-1.0509
				c-12.08-2.5-24.0401-5.5802-35.7677-9.4135c-11.7662-3.8459-23.0065-8.7449-34.4091-13.514
				C441.7286,278.3728,441.4113,279.1446,441.8506,279.3749L441.8506,279.3749z"/>
		</g>
	</g>
	<g>
		<g>
			<path class="st9" d="M345.183,229.7912c-3.6694-4.6133-7.337-9.228-11.0154-13.8341c-0.3295-0.4126-0.9057,0.1712-0.58,0.58
				c3.6721,4.6097,7.355,9.2108,11.0361,13.8134C344.9419,230.7484,345.4965,230.1855,345.183,229.7912L345.183,229.7912z"/>
		</g>
	</g>
	<g>
		<g>
			<path class="st9" d="M342.4453,233.1326c-0.9777-1.5007-1.9504-3.0049-2.9367-4.4999c-0.3326-0.504-1.1467-0.0359-0.8146,0.4761
				c0.9748,1.5028,1.9634,2.9968,2.9469,4.494C341.9685,234.1016,342.7741,233.6373,342.4453,233.1326L342.4453,233.1326z"/>
		</g>
	</g>
	<g>
		<g>
			<path class="st9" d="M525.6421,222.7628c-6.3896-6.6595-12.8326-13.0539-18.5002-20.3739
				c-0.3988-0.5151-1.3077,0.1758-0.911,0.7029c5.483,7.2872,11.5941,14.6186,18.7359,20.3463
				C525.4362,223.8146,526.078,223.2172,525.6421,222.7628L525.6421,222.7628z"/>
		</g>
	</g>
	<g>
		<g>
			<path class="st9" d="M520.44,224.6044c-1.5045-1.9402-3.0128-3.8771-4.528-5.809c-0.403-0.5139-1.1113,0.2083-0.7167,0.7168
				c1.505,1.9395,3.0164,3.8737,4.532,5.8049C520.1284,225.828,520.832,225.1099,520.44,224.6044L520.44,224.6044z"/>
		</g>
	</g>
	<g>
		<g>
			<path class="st9" d="M463.3074,252.5343c-3.4564-3.5448-6.6116-7.3504-9.4463-11.4102
				c-0.3771-0.5401-1.2709-0.0262-0.8904,0.5205c2.8827,4.142,6.0897,7.9991,9.6448,11.5816
				C463.0599,253.674,463.7475,252.9856,463.3074,252.5343L463.3074,252.5343z"/>
		</g>
	</g>
	<g>
		<g>
			<path class="st6" d="M330.2816,258.3549c-5.2162-5.1409-9.8837-10.3132-13.1245-16.9674
				c-3.332-6.8414-4.6446-13.9704-5.0572-21.5145c-0.3636-6.6473-1.5612-12.7256-5.6595-18.1337
				c-3.5782-4.7218-8.6057-8.2451-14.3366-9.7827c-0.7448-0.1998-1.054,0.9319-0.3177,1.1526
				c6.5546,1.9646,12.179,6.2565,15.58,12.2312c3.8569,6.7757,3.0356,14.219,4.082,21.6549
				c1.6879,11.9945,8.1184,25.0325,18.2903,32.0636C330.1624,259.352,330.6382,258.7063,330.2816,258.3549L330.2816,258.3549z"/>
		</g>
	</g>
	<g>
		<g>
			<path class="st6" d="M332.7041,236.922c-8.4315-11.5005-24.1795-1.6912-35.0553-1.89
				c-7.7872-0.1423-14.6127-4.9472-20.2104-9.9425c-5.5374-4.9415-10.1983-10.8692-12.5376-17.9855
				c-0.2365-0.7195-1.3736-0.4152-1.1413,0.3146c2.002,6.2897,5.7938,11.6986,10.4638,16.3091
				c4.7356,4.6751,10.374,9.1305,16.759,11.2479c7.1506,2.3713,14.009,0.2418,21.0401-1.4448
				c6.6494-1.595,15.2987-2.3065,19.9835,3.7993C332.316,237.7343,333.015,237.346,332.7041,236.922L332.7041,236.922z"/>
		</g>
	</g>
	<g>
		<g>
			<path class="st6" d="M280.7505,203.7572c-0.0768-14.7186-4.9175-29.0485-13.6317-40.8991
				c-0.3619-0.4922-1.1949-0.0172-0.8297,0.485c8.5615,11.7744,13.2538,25.8696,13.6353,40.4141
				C279.9383,204.2876,280.7533,204.2906,280.7505,203.7572L280.7505,203.7572z"/>
		</g>
	</g>
	<g>
		<g>
			<path class="st6" d="M327.9854,250.6014c0.4551,0.7164,0.9076,1.4312,1.3935,2.1272c0.4023,0.5762,1.3437,0.0503,0.9562-0.5589
				c-0.4559-0.7168-0.9424-1.4102-1.4289-2.1064C328.5186,249.5085,327.6125,250.0145,327.9854,250.6014L327.9854,250.6014z"/>
		</g>
	</g>
	<g>
		<g>
			<path class="st17" d="M325.967,242.1174c-0.6762-0.6278-1.6952-0.1399-1.9412,0.6815c-0.312,1.0419,0.6956,1.7896,1.4809,2.2271
				c0.5834,0.3251,1.1043-0.5645,0.5234-0.8955c-0.3286-0.1873-0.7273-0.3907-0.9323-0.7244
				c-0.0926-0.1507-0.1374-0.2695-0.0436-0.4286c0.0298-0.0505,0.1815-0.2027,0.2209-0.1682
				C325.7449,243.2216,326.4321,242.5492,325.967,242.1174L325.967,242.1174z"/>
		</g>
	</g>
	<g>
		<g>
			<path class="st17" d="M330.6918,244.2114c-1.7445-0.6003-2.741,2.45-0.9542,3.0297c0.7031,0.2281,0.9806-0.8481,0.3022-1.0961
				c-0.347-0.1269-0.0367-1.0732,0.3794-0.9448C331.0546,245.3962,331.3108,244.4244,330.6918,244.2114L330.6918,244.2114z"/>
		</g>
	</g>
	<g>
		<g>
			<path class="st16" d="M333.8027,244.9008c-1.0273,0.7624-1.0659,2.3236,0.0342,3.0496c0.6741,0.4449,1.2248-0.5922,0.6181-1.0574
				c-0.359-0.2753-0.2652-0.8401,0.0365-1.0995C334.9741,245.3783,334.3237,244.5141,333.8027,244.9008L333.8027,244.9008z"/>
		</g>
	</g>
	<g>
		<g>
			<path class="st16" d="M335.0896,240.0401c-0.9781,0.9207-0.0091,2.5572,1.2507,2.3024c0.7584-0.1534,0.416-1.2356-0.3131-1.1357
				c-0.0182,0.0025-0.2104-0.2718-0.1296-0.3589C336.3977,240.3087,335.6266,239.5346,335.0896,240.0401L335.0896,240.0401z"/>
		</g>
	</g>
	<g>
		<g>
			<path class="st6" d="M327.1455,237.6315c0.006,0.2355,0.0091,0.4706,0.0264,0.7056c0.0537,0.7305,1.0829,0.7318,1.1367,0
				c0.0173-0.235,0.0204-0.4701,0.0264-0.7056C328.3543,236.8661,327.1261,236.8648,327.1455,237.6315L327.1455,237.6315z"/>
		</g>
	</g>
	<g>
		<g>
			<path class="st6" d="M318.9084,230.2345c0.2393,0.231,0.4787,0.4621,0.718,0.6932c0.4618,0.4458,1.1504-0.2423,0.7043-0.7043
				c-0.231-0.2393-0.4621-0.4787-0.6932-0.718C319.176,229.0271,318.43,229.7727,318.9084,230.2345L318.9084,230.2345z"/>
		</g>
	</g>
	<g>
		<g>
			<path class="st16" d="M318.2658,220.3954c0.2314-0.2391,0.4679-0.4738,0.687-0.7242c0.4629-0.5292-0.2411-1.2338-0.7706-0.7706
				c-0.2504,0.219-0.4852,0.4556-0.7242,0.687C316.9287,220.0997,317.7534,220.9248,318.2658,220.3954L318.2658,220.3954z"/>
		</g>
	</g>
	<g>
		<g>
			<path class="st16" d="M309.5612,215.6102c-0.2375,0.8804,0.2388,1.7753,1.1089,2.0527c0.699,0.2228,0.9406-0.8103,0.296-1.0735
				c-0.275-0.1123-0.377-0.4095-0.303-0.6754C310.8603,215.2045,309.7527,214.9,309.5612,215.6102L309.5612,215.6102z"/>
		</g>
	</g>
	<g>
		<g>
			<path class="st16" d="M296.074,224.2327c0.2145,1.8348,0.9733,3.5494,2.4971,4.6537c0.5138,0.3723,1.0767-0.4244,0.6604-0.8558
				c-1.0352-1.0727-1.8716-2.2861-2.0677-3.7979C297.0753,223.55,295.9922,223.5327,296.074,224.2327L296.074,224.2327z"/>
		</g>
	</g>
	<g>
		<g>
			<path class="st17" d="M293.1828,215.1236c-1.1884,0.0939-2.1474,1.1352-2.1048,2.3522c0.0544,1.5532,1.6952,1.8862,2.9678,1.6606
				c3.3005-0.5851,4.1772-4.7765,1.5738-6.7641c-0.5153-0.3934-1.1699,0.4661-0.6923,0.8973
				c1.2632,1.1404,1.4821,3.2433-0.0695,4.258c-0.5415,0.3541-1.5334,0.6542-2.1797,0.3659
				c-0.8794-0.3922-0.3842-1.7754,0.5048-1.8792C293.7395,215.9492,293.7621,215.0778,293.1828,215.1236L293.1828,215.1236z"/>
		</g>
	</g>
	<g>
		<g>
			<path class="st16" d="M297.0519,204.3818c-0.8215,1.9812,1.4891,4.0846,3.3913,3.2678c0.5186-0.2227,0.1489-1.081-0.3838-0.9103
				c-1.2255,0.3926-2.5998-0.8719-2.1826-2.1301C298.0542,204.0741,297.2565,203.8884,297.0519,204.3818L297.0519,204.3818z"/>
		</g>
	</g>
	<g>
		<g>
			<path class="st17" d="M302.5691,216.9361c0.4624,0.4789,0.9277,0.9526,1.4042,1.4176c0.4963,0.4842,1.2242-0.251,0.7582-0.7582
				c-0.4506-0.4904-0.9102-0.9699-1.3752-1.4466C302.855,215.635,302.0712,216.4204,302.5691,216.9361L302.5691,216.9361z"/>
		</g>
	</g>
	<g>
		<g>
			<path class="st16" d="M316.4506,197.9513c0.6937,0,0.6949-1.0781,0-1.0781
				C315.7569,196.8732,315.7557,197.9513,316.4506,197.9513L316.4506,197.9513z"/>
		</g>
	</g>
	<g>
		<g>
			<path class="st16" d="M270.744,207.848c-0.1594,0.9103,0.4558,2.7114,1.6703,2.152c1.0198-0.4697,1.6519-1.5998,1.5032-2.7101
				c-0.0903-0.6739-1.1177-0.7273-1.0957,0c0.024,0.7934-0.4271,1.4239-1.1441,1.7287c0.201,0,0.4019,0,0.6029,0
				c-0.3777-0.229-0.4978-0.5997-0.4431-1.0225C271.9171,207.3789,270.8521,207.2309,270.744,207.848L270.744,207.848z"/>
		</g>
	</g>
	<g>
		<g>
			<path class="st16" d="M258.191,189.9469c-1.189,1.0806-0.8323,3.2899,0.6586,3.9196c1.7242,0.7281,3.7101-1.1966,3.0559-2.9417
				c-0.2196-0.5857-1.0951-0.3653-0.9492,0.2617c0.216,0.9283-0.8286,2.1981-1.8042,1.6208
				c-0.7334-0.434-0.8649-1.5806-0.2651-2.1643C259.3437,190.1985,258.658,189.5225,258.191,189.9469L258.191,189.9469z"/>
		</g>
	</g>
	<g>
		<g>
			<path class="st16" d="M262.5611,177.9052c-1.6335,0.9431-1.6797,3.5357-0.0232,4.4813c0.5242,0.2993,0.9705-0.4786,0.4702-0.8044
				c-0.9714-0.6327-0.9633-2.2528,0.035-2.8522C263.5697,178.4137,263.0952,177.5968,262.5611,177.9052L262.5611,177.9052z"/>
		</g>
	</g>
	<g>
		<g>
			<path class="st17" d="M271.9978,192.2714c0.2352-0.0049,0.4704-0.0098,0.7056-0.0146c0.6295-0.0131,0.6306-0.9654,0-0.9785
				c-0.2352-0.0049-0.4704-0.0098-0.7056-0.0146C271.3493,191.2501,271.3482,192.2849,271.9978,192.2714L271.9978,192.2714z"/>
		</g>
	</g>
	<g>
		<g>
			<path class="st17" d="M286.5371,200.4607c-1.5301,0.8743-1.7974,3.2674-0.3953,4.3966c1.4726,1.1861,3.9245,0.2212,4.2577-1.612
				c0.1301-0.7159-0.9165-1.0311-1.1074-0.3053c-0.2528,0.9609-1.5666,1.6415-2.4331,0.9878
				c-0.8358-0.6305-0.6494-2.071,0.1868-2.5969C287.5933,200.9865,287.1032,200.1372,286.5371,200.4607L286.5371,200.4607z"/>
		</g>
	</g>
	<g>
		<g>
			<path class="st6" d="M282.9178,184.3442c-1.5618,1.7877-0.0123,5.0759,2.4318,4.7711c0.6281-0.0783,0.6449-1.0723,0-1.002
				c-1.4991,0.1636-2.7959-1.8787-1.7689-3.1062C283.9636,184.5495,283.318,183.8862,282.9178,184.3442L282.9178,184.3442z"/>
		</g>
	</g>
	<g>
		<g>
			<path class="st6" d="M280.2381,170.9219c-1.0504,0.6103-1.4456,2.0807-0.7548,3.109c0.7245,1.0784,2.3964,1.2095,3.2757,0.2688
				c0.3844-0.4112-0.1334-1.1841-0.6319-0.819c-0.4863,0.3561-1.2726,0.4353-1.6748-0.0995
				c-0.3645-0.4846-0.1683-1.227,0.3241-1.5385C281.3543,171.4772,280.8349,170.5751,280.2381,170.9219L280.2381,170.9219z"/>
		</g>
	</g>
	<g>
		<g>
			<path class="st16" d="M298.8173,184.6847c-1.6528,0.5305-2.0337,3.0151-0.5833,4.0103c1.7034,1.1689,4.0787-0.9226,3.3508-2.7749
				c-0.2547-0.6482-1.3083-0.3801-1.0622,0.2928c0.3341,0.914-0.8244,2.2775-1.7557,1.5704
				c-0.689-0.523-0.5151-1.9293,0.2825-2.2568C299.5533,185.3197,299.3664,184.5085,298.8173,184.6847L298.8173,184.6847z"/>
		</g>
	</g>
	<g>
		<g>
			<path class="st16" d="M305.4395,198.5404c-1.3913-1.2928-2.7799,1.7964-1.1024,2.0295c0.6581,0.0914,0.9657-0.8372,0.2835-1.0283
				c0.1371,0.0384,0.0171,0.2075,0.1022-0.0276c0.0976-0.2698,0.1131-0.0277-0.0705-0.1864
				C305.1891,199.7916,305.9695,199.0328,305.4395,198.5404L305.4395,198.5404z"/>
		</g>
	</g>
	<g>
		<g>
			<path class="st6" d="M302.453,206.0415c0.2844,1.3127,2.1248,1.9156,3.0712,0.9063c0.4478-0.4776-0.1573-1.3789-0.7349-0.9525
				c-0.3783,0.2793-1.0271,0.2573-1.178-0.2731C303.3986,204.9749,302.2899,205.2885,302.453,206.0415L302.453,206.0415z"/>
		</g>
	</g>
	<g>
		<g>
			<path class="st16" d="M240.0135,183.0315c-1.1034,1.2579,0.3475,2.9151,1.7806,2.8281c1.9658-0.1195,2.2336-2.6866,1.8048-4.1299
				c-0.2245-0.7556-1.2985-0.4341-1.1639,0.3209c0.1292,0.7246,0.24,1.9393-0.4699,2.4241
				c-0.2595,0.1772-0.5299,0.1204-0.7876-0.0462c-0.1356-0.0877-0.4654-0.3558-0.3105-0.5434
				C241.3547,183.2945,240.5312,182.4413,240.0135,183.0315L240.0135,183.0315z"/>
		</g>
	</g>
	<g>
		<g>
			<path class="st6" d="M251.7902,152.1172c-0.4838,3.5837,4.0646,6.6998,7.0962,4.3313c2.6652-2.0821,1.7324-6.8866-1.4713-7.8443
				c-0.6933-0.2072-0.9257,0.7979-0.2913,1.0566c2.0408,0.8322,2.7953,4.05,1.1128,5.6012c-2.1104,1.9458-5.4603-0.5087-5.33-2.9938
				C252.9396,151.6404,251.8767,151.4769,251.7902,152.1172L251.7902,152.1172z"/>
		</g>
	</g>
	<g>
		<g>
			<path class="st16" d="M255.6193,106.1296c-0.2871,0.8292-0.3255,1.7227-0.0984,2.5731c0.1849,0.6923,0.7082,1.8808,1.4394,2.1548
				c0.7241,0.2713,1.6804-0.372,2.135-0.8894c0.5757-0.6553,0.8276-1.4573,0.6369-2.3119c-0.146-0.6546-1.0549-0.4493-1.1049,0.1495
				c-0.0783,0.9374-0.6373,1.6342-1.5854,1.7676c0.2218,0.0586,0.4435,0.1172,0.6653,0.1758
				c-0.907-0.8658-1.2263-2.0821-0.8506-3.2784C257.1059,105.677,255.8872,105.3557,255.6193,106.1296L255.6193,106.1296z"/>
		</g>
	</g>
	<g>
		<g>
			<path class="st17" d="M303.5322,224.74c-0.7831,1.2773-0.7115,3.6177,1.0628,4.0345c1.2865,0.3022,3.378-1.4543,2.0968-2.6747
				c-0.3955-0.3768-0.9745,0.0063-0.8765,0.5102c0.0701,0.3604,0.1049,0.5617-0.2106,0.829c-0.261,0.2211-0.65,0.3531-0.9735,0.1985
				c-0.8791-0.4202-0.6759-1.755-0.2945-2.4272C304.6334,224.6873,303.8456,224.2289,303.5322,224.74L303.5322,224.74z"/>
		</g>
	</g>
	<g>
		<g>
			<path class="st6" d="M315.5827,223.9187c-1.2171,0.7865-1.5063,2.8516-0.1907,3.6981c0.4793,0.3084,1.1259-0.3141,0.7977-0.7977
				c-0.453-0.6674-0.6108-1.4365,0.0711-2.0216C316.7422,224.3845,316.1146,223.575,315.5827,223.9187L315.5827,223.9187z"/>
		</g>
	</g>
	<g>
		<g>
			<path class="st16" d="M319.3004,222.3047c0.2073,0.7146,0.4079,1.4307,0.6824,2.1231c0.2602,0.6563,1.2813,0.4169,1.0848-0.2991
				c-0.1974-0.7192-0.4687-1.4126-0.7332-2.109C320.0942,221.3875,319.1044,221.6289,319.3004,222.3047L319.3004,222.3047z"/>
		</g>
	</g>
	<g>
		<g>
			<path class="st6" d="M322.0954,230.6951c-0.472-0.0075-0.9404-0.0155-1.4112,0.0264c-0.7188,0.0639-0.7202,1.0551,0,1.1191
				c0.4708,0.0419,0.9392,0.0339,1.4112,0.0264C322.8494,231.855,322.8506,230.7072,322.0954,230.6951L322.0954,230.6951z"/>
		</g>
	</g>
	<g>
		<g>
			<path class="st6" d="M316.8813,238.7807c-0.8595,0.8465-0.7546,2.4328,0.3207,3.0689c1.0692,0.6325,2.5493,0.0313,2.8239-1.1882
				c0.1518-0.6739-0.8593-1.1933-1.178-0.4966c-0.1364,0.2982-0.5419,0.631-0.893,0.4456
				c-0.2967-0.1567-0.3306-0.6395-0.1207-0.8766C318.4055,239.0885,317.505,238.1664,316.8813,238.7807L316.8813,238.7807z"/>
		</g>
	</g>
	<g>
		<g>
			<path class="st17" d="M317.265,239.4713c0.7083-0.242,1.4041-0.4962,2.095-0.7841c0.6109-0.2546,0.4007-1.1971-0.2819-1.0227
				c-0.7226,0.1846-1.4284,0.3995-2.1371,0.6316C316.1975,238.5396,316.5217,239.7253,317.265,239.4713L317.265,239.4713z"/>
		</g>
	</g>
	<g>
		<g>
			<path class="st17" d="M324.3447,239.4188c-0.2518,0.4625-0.509,0.9195-0.726,1.3995c-0.3147,0.6964,0.6607,1.3086,1.0473,0.6122
				c0.2561-0.4613,0.4694-0.9413,0.6905-1.4202C325.6672,239.3376,324.7113,238.7454,324.3447,239.4188L324.3447,239.4188z"/>
		</g>
	</g>
	<g>
		<g>
			<path class="st6" d="M322.2987,245.2555c-0.2715,0.8789,0.1279,1.841,1.0612,2.0821c0.632,0.1633,1.092-0.7925,0.4605-1.0924
				c-0.2626-0.1247-0.5723-0.3772-0.4934-0.7063C323.4871,244.8708,322.5014,244.5992,322.2987,245.2555L322.2987,245.2555z"/>
		</g>
	</g>
	<g>
		<g>
			<path class="st17" d="M321.5417,236.9259c0.0061,0.2355,0.0095,0.4706,0.0264,0.7056c0.0485,0.6778,1.006,0.679,1.0547,0
				c0.0168-0.235,0.0202-0.4701,0.0264-0.7056C322.6676,236.2133,321.5232,236.2121,321.5417,236.9259L321.5417,236.9259z"/>
		</g>
	</g>
	<g>
		<g>
			<path class="st17" d="M322.0954,238.2409c0.7842,0,0.7855-1.2188,0-1.2188
				C321.3112,237.0221,321.3099,238.2409,322.0954,238.2409L322.0954,238.2409z"/>
		</g>
	</g>
	<g>
		<g>
			<path class="st16" d="M329.857,242.4188c0.7126,0,0.7137-1.1074,0-1.1074C329.1444,241.3114,329.1433,242.4188,329.857,242.4188
				L329.857,242.4188z"/>
		</g>
	</g>
	<g>
		<g>
			<path class="st6" d="M319.273,234.016c0.7955,0,0.7968-1.2363,0-1.2363C318.4775,232.7797,318.4762,234.016,319.273,234.016
				L319.273,234.016z"/>
		</g>
	</g>
	<g>
		<g>
			<path class="st6" d="M323.1325,237.9629c0.2393-0.2311,0.4787-0.4621,0.718-0.6932c0.451-0.4354-0.2522-1.139-0.6878-0.6878
				c-0.231,0.2393-0.4621,0.4787-0.6931,0.718C322.05,237.7346,322.6977,238.3827,323.1325,237.9629L323.1325,237.9629z"/>
		</g>
	</g>
	<g>
		<g>
			<path class="st17" d="M304.9175,228.429c0.0378,0.2859,0.0858,0.5681,0.1348,0.8523c0.0402-0.1521,0.0804-0.3043,0.1206-0.4564
				c-0.8261,1.0588,0.7787,2.8243,1.569,3.4973c0.3014,0.2566,0.7067,0.2796,1.0076,0c0.7094-0.6591,1.4077-1.32,2.0757-2.0212
				c0.5564-0.5841-0.2595-1.3331-0.8618-0.8618c-0.7652,0.5988-1.494,1.2316-2.2215,1.8754c0.3359,0,0.6718,0,1.0076,0
				c-0.4937-0.4361-0.8896-0.9068-1.2116-1.4832c-0.2674-0.4786-0.3383-0.9594-0.9086-1.1272
				c0.1092,0.1092,0.2184,0.2184,0.3276,0.3276c-0.0871-0.2406-0.1433-0.4666-0.1935-0.7174
				C305.6697,227.846,304.8534,227.9448,304.9175,228.429L304.9175,228.429z"/>
		</g>
	</g>
	<g>
		<g>
			<path class="st16" d="M320.7863,216.4635c-0.0128,0.4702-0.0222,0.9426,0.0264,1.4112c0.0767,0.741,1.0774,0.7425,1.1543,0
				c0.0485-0.4686,0.0392-0.941,0.0264-1.4112C321.9721,215.687,320.8076,215.6857,320.7863,216.4635L320.7863,216.4635z"/>
		</g>
	</g>
	<g>
		<g>
			<path class="st16" d="M308.1057,192.1377c-0.2422,0.4682-0.4722,0.9398-0.6956,1.4173
				c-0.3131,0.6693,0.6463,1.2588,1.0068,0.5885c0.2494-0.4637,0.4901-0.9292,0.7209-1.4025
				C309.4723,192.0551,308.4615,191.4498,308.1057,192.1377L308.1057,192.1377z"/>
		</g>
	</g>
	<g>
		<g>
			<path class="st16" d="M313.8872,208.2394c-1.3306,1.2041-0.7635,3.6948,0.9662,4.2043c0.9418,0.2774,1.7169-0.7753,1.9614-1.5714
				c0.2853-0.929,0.0843-1.9397-0.6154-2.6248c-0.567-0.5552-1.3699,0.2737-0.8618,0.8618c0.5936,0.687,0.3487,1.8067-0.4368,2.2142
				c0.164-0.0215,0.3281-0.0429,0.4921-0.0644c-0.9256-0.1882-1.3401-1.493-0.6482-2.1621
				C315.3095,208.5511,314.4635,207.7179,313.8872,208.2394L313.8872,208.2394z"/>
		</g>
	</g>
	<g>
		<g>
			<path class="st17" d="M295.2826,212.0106c0.2352-0.0039,0.4704-0.0078,0.7056-0.0117c0.6107-0.0101,0.6117-0.9391,0-0.9492
				c-0.2352-0.0039-0.4704-0.0078-0.7056-0.0117C294.6567,211.0275,294.6557,212.021,295.2826,212.0106L295.2826,212.0106z"/>
		</g>
	</g>
	<g>
		<g>
			<path class="st6" d="M192.2993,97.5985c0.5453,1.1656,1.1269,2.3106,1.727,3.4488c0.159,0.3015,0.522,0.3332,0.8006,0.2099
				c1.6052-0.7104,2.7058-2.2863,2.784-4.0446c0.0234-0.5266-0.8642-0.6661-0.938-0.127c-0.1904,1.3908-0.9495,2.5792-2.2969,3.1021
				c0.2203,0.0896,0.4405,0.1793,0.6608,0.2689c-0.5771-1.1484-1.1702-2.2856-1.8015-3.4053
				C192.8874,96.4345,192.0081,96.9761,192.2993,97.5985L192.2993,97.5985z"/>
		</g>
	</g>
	<g>
		<g>
			<path class="st16" d="M225.5434,77.098c-1.3095,1.7561-0.7564,4.5348,1.2126,5.5749c2.0483,1.0821,4.6703-0.1572,5.306-2.3161
				c0.2085-0.708-0.8173-0.948-1.0792-0.2975c-0.5629,1.3982-2.4719,2.2582-3.807,1.3771c-1.2291-0.8111-1.4031-2.5892-0.6205-3.747
				C226.9847,77.0543,225.9844,76.5067,225.5434,77.098L225.5434,77.098z"/>
		</g>
	</g>
	<g>
		<g>
			<path class="st16" d="M268.4698,82.9795c0.2352-0.0195,0.4704-0.0391,0.7056-0.0586c0.67-0.0556,0.6713-0.9872,0-1.043
				c-0.2352-0.0195-0.4704-0.0391-0.7056-0.0586C267.7237,81.7574,267.7224,83.0416,268.4698,82.9795L268.4698,82.9795z"/>
		</g>
	</g>
	<g>
		<g>
			<path class="st6" d="M159.2578,72.0269c-1.4899,1.9822-0.8718,5.2,1.437,6.2897c2.3088,1.0897,5.2198-0.4446,5.7892-2.877
				c0.1288-0.5503-0.6856-0.7773-0.8475-0.2337c-0.5474,1.8374-2.7333,3.1079-4.5608,2.2094
				c-1.8341-0.9017-2.2228-3.3825-1.0893-4.9626C160.3058,72.0074,159.5782,71.6005,159.2578,72.0269L159.2578,72.0269z"/>
		</g>
	</g>
	<g>
		<g>
			<path class="st6" d="M200.391,75.79c-0.5698-0.9088-2.1184-1.0722-2.4959,0.1295c-0.3549,1.1297,1.0868,2.4177,1.9426,2.9156
				c2.9702,1.7279,6.5484-1.0081,5.595-4.3252c-0.2098-0.7302-1.2607-0.4195-1.1244,0.31c0.2755,1.474-0.6174,3.1416-2.2305,3.265
				c-0.6325,0.0484-1.272-0.1557-1.7809-0.524c-0.2889-0.2091-0.5489-0.4656-0.7179-0.7857
				c-0.0338-0.0438-0.0677-0.0876-0.1015-0.1314c-0.1604-0.0567-0.1797-0.152-0.058-0.286
				C199.8349,76.9331,200.7828,76.4151,200.391,75.79L200.391,75.79z"/>
		</g>
	</g>
	<g>
		<g>
			<path class="st6" d="M219.8144,96.7947c-1.1341,1.5719-0.5653,4.0016,1.1858,4.8761c1.8532,0.9256,4.1497-0.3218,4.6284-2.259
				c0.191-0.7733-0.9627-1.0911-1.1922-0.3287c-0.3497,1.1619-1.833,1.9659-2.9613,1.3319
				c-1.0514-0.5907-1.2563-2.065-0.6488-3.0289C221.2354,96.7371,220.2474,96.1945,219.8144,96.7947L219.8144,96.7947z"/>
		</g>
	</g>
	<g>
		<g>
			<path class="st16" d="M212.2807,108.6141c0.481,1.5132,0.9928,3.155,1.8496,4.5103c0.3666,0.5799,1.249,0.2057,1.0977-0.4628
				c-0.3537-1.5625-1.1565-3.086-1.8871-4.4945C213.0398,107.5864,212.0812,107.9864,212.2807,108.6141L212.2807,108.6141z"/>
		</g>
	</g>
	<g>
		<g>
			<path class="st16" d="M244.4794,107.7429c0.3723,0.007,0.6547,0.0146,0.9969-0.1491c0.3772-0.1804,0.3772-0.8163,0-0.9967
				c-0.3401-0.1627-0.6236-0.1562-0.9969-0.1491C243.6463,106.4637,243.6449,107.7271,244.4794,107.7429L244.4794,107.7429z"/>
		</g>
	</g>
	<g>
		<g>
			<path class="st16" d="M229.3794,89.9386c0.934,0.4936,1.9328,1.1899,2.9561,1.4676c0.4991,0.1355,1.0069-0.5758,0.5444-0.9353
				c-0.8454-0.6571-1.9703-1.0428-2.9356-1.4987C229.3017,88.6688,228.735,89.5981,229.3794,89.9386L229.3794,89.9386z"/>
		</g>
	</g>
	<g>
		<g>
			<path class="st16" d="M252.5053,89.1911c0.2386,0.2318,0.4744,0.4668,0.7201,0.6911c0.5746,0.5247,1.3784-0.2785,0.8535-0.8535
				c-0.2243-0.2457-0.4593-0.4815-0.6911-0.7201C252.8273,87.7317,251.9283,88.6303,252.5053,89.1911L252.5053,89.1911z"/>
		</g>
	</g>
	<g>
		<g>
			<path class="st16" d="M251.5354,140.6776c0.4704-0.0049,0.9408-0.0098,1.4112-0.0146c0.5202-0.0054,0.5211-0.8032,0-0.8086
				c-0.4704-0.0049-0.9408-0.0098-1.4112-0.0146C250.9962,139.8341,250.9953,140.6832,251.5354,140.6776L251.5354,140.6776z"/>
		</g>
	</g>
	<g>
		<g>
			<path class="st16" d="M191.4783,115.203c-0.377-0.5986-1.0626-0.6677-1.5147-0.1041c-0.4303,0.5364-0.5696,1.3581-0.3018,1.9966
				c0.2833,0.6755,1.3787,0.4275,1.1357-0.3131c-0.0757-0.2308-0.0547-0.4555,0.0151-0.6864c0.029-0.096,0.0533-0.158,0.0991-0.2461
				c0.0677-0.0926,0.068-0.1038,0.0008-0.0337c0.1695-0.0954,0.0563-0.1233-0.3396-0.0838
				C190.9573,116.2726,191.8439,115.7835,191.4783,115.203L191.4783,115.203z"/>
		</g>
	</g>
	<g>
		<g>
			<path class="st16" d="M170.9978,92.9834c0-0.4695,0.0213-0.9442-0.0322-1.4112c-0.0844-0.7369-1.0638-0.7385-1.1484,0
				c-0.0535,0.467-0.0322,0.9417-0.0322,1.4112C169.7849,93.7639,170.9978,93.7652,170.9978,92.9834L170.9978,92.9834z"/>
		</g>
	</g>
	<path class="st9" d="M523.2543,263.3187c-0.048,0.0156-0.0945,0.0342-0.1423,0.0498c-2.0375-2.1626-7.7858-3.7644-10.6072-3.0291
		c-1.8313,0.4773-3.6732,1.5815-3.322,3.7537c0.0354,0.2197,0.104,0.4272,0.191,0.6279c-0.0665,0.2783,0.1161,0.5425,0.3711,0.6196
		c0.7631,1.0146,2.1711,1.752,3.6844,2.2817c0.6466,1.2036,1.1674,2.4531,1.4911,3.7871c0.119,0.4897,0.8922,0.6274,1.1237,0.1465
		c0.3752-0.7798,0.7507-1.5596,1.126-2.3394c0.0938-0.1948,0.1943-0.3906,0.2949-0.5879c0.2953,0.0508,0.5731,0.0957,0.809,0.1309
		c2.4376,0.3638,6.5045-0.6968,5.6205-4.0474c-0.0028-0.0107-0.0088-0.02-0.0117-0.0308c0.0776-0.1675,0.1531-0.3369,0.222-0.5122
		C524.2979,263.6786,523.723,263.1664,523.2543,263.3187z"/>
	<path class="st9" d="M518.3536,277.3842c0.0665-0.2783-0.1161-0.5425-0.3711-0.6196c-0.7631-1.0146-2.1711-1.752-3.6846-2.2817
		c-0.6465-1.2036-1.1672-2.4531-1.491-3.7871c-0.1189-0.4897-0.8921-0.6274-1.1237-0.1465
		c-0.3754,0.7798-0.7506,1.5596-1.1261,2.3394c-0.0938,0.1948-0.1942,0.3906-0.2949,0.5879
		c-0.295-0.0508-0.5727-0.0956-0.8084-0.1308c-1.8176-0.271-4.5524,0.147-5.4726,1.9767
		c-3.0051,5.9763,15.8085,10.3596,14.5635,2.6895C518.5091,277.7922,518.4407,277.5848,518.3536,277.3842z"/>
</g>
</svg>
