<?xml version="1.0" encoding="utf-8"?>
<!-- Generator: Adobe Illustrator 20.1.0, SVG Export Plug-In . SVG Version: 6.00 Build 0)  -->
<svg version="1.1" xmlns="http://www.w3.org/2000/svg" xmlns:xlink="http://www.w3.org/1999/xlink" x="0px" y="0px"
	 viewBox="0 0 40 66" style="enable-background:new 0 0 40 66;" xml:space="preserve">
<style type="text/css">
	.st0{fill:none;stroke:#F7FAFC;stroke-width:39.9968;stroke-linecap:round;stroke-linejoin:round;}
	.st1{fill:none;stroke:#F2F6F9;stroke-width:39.9968;stroke-linecap:round;stroke-linejoin:round;}
	.st2{fill:#F7FAFC;}
	.st3{fill:#F2F6F9;}
	.st4{fill:#FFFFFF;}
	.st5{fill:#FCE0DE;}
	.st6{fill:#E6E6E6;}
	.st7{fill:#FFEFAF;}
	.st8{fill:#E93A1D;}
	.st9{fill:#303030;}
	.st10{fill:#E83D25;}
	.st11{fill:#B3B3B3;}
	.st12{fill:#666666;}
	.st13{fill:none;stroke:#E93A1D;stroke-width:1.5;stroke-linecap:round;stroke-linejoin:round;}
	.st14{fill:none;stroke:#E93A1D;stroke-width:1.5;stroke-linecap:round;stroke-linejoin:round;stroke-dasharray:2.0259,5.0648;}
	.st15{fill:none;stroke:#E93A1D;stroke-width:1.5;stroke-linecap:round;stroke-linejoin:round;stroke-dasharray:1.8929,4.7321;}
	.st16{fill:#777777;}
	.st17{fill:#172DF8;}
	.st18{fill:none;stroke:#E93A1D;stroke-width:1.5;stroke-linecap:round;stroke-linejoin:round;stroke-dasharray:1.9198,4.7994;}
	.st19{fill:none;stroke:#E93A1D;stroke-width:1.5;stroke-linecap:round;stroke-linejoin:round;stroke-dasharray:1.9197,4.7993;}
</style>
<g id="back">
</g>
<g id="Layer_2">
	<path class="st7" d="M35.1792,42.9555c-2.0187,0.895-3.8018,2.1235-5.3497,3.5903c-0.0948,0.0652-0.1918,0.1272-0.2866,0.1924
		c-0.4283,0.2949-0.8583,0.5881-1.2865,0.8835c-2.7616-0.1438-5.5416,0.335-8.3269,0.2095c-2.2518-0.1013-4.439-0.4209-6.614-0.8931
		c-1.2959-2.4988-4.0303-4.2908-6.762-4.7944c-2.0214-0.3726-2.8135,2.4048-0.8516,3.0886c1.1638,0.406,2.1423,0.9907,3.0375,1.6963
		c-0.0321,0.0303-0.0648,0.0603-0.0947,0.0928c-2.0973-0.2881-5.1713-0.6562-5.9235,1.4026
		c-0.3416,0.9348,0.0276,1.9119,0.7034,2.4802c-0.1702,0.8477,0.1638,1.8298,0.946,2.2407
		c1.1899,0.6245,2.5022,0.5935,3.7439,1.0793c1.2395,0.4846,2.2161,1.2844,3.0853,2.2749c0.6012,0.6853,2.0179,0.9363,2.7804,0.3586
		c0.0104-0.0078,0.0181-0.0171,0.0283-0.0251c0.249,0.0745,0.5031,0.1411,0.7637,0.196c1.864,0.3923,3.6481,0.1345,5.3179-0.5176
		c0.1296,0.0229,0.2603,0.0474,0.3867,0.0664c1.4863,0.2249,3.2418,0.3413,4.5483-0.5627c0.0017-0.0012,0.0029-0.0024,0.0045-0.0037
		c0.8727,0.9194,2.8475,0.9106,3.4459-0.6943c0.9814-2.6323,2.6191-4.854,4.7024-6.5986c1.3071-0.8262,2.6145-1.6519,3.917-2.4851
		C39.1958,44.8889,37.3754,41.9819,35.1792,42.9555z"/>
	<path class="st8" d="M25.8498,6.6989c0.1866,0.0015,0.3733,0.0032,0.5601,0.0046c3.043,0.0254,2.9189-4.3562,0-4.645
		c-1.0149-0.1001-1.9351-0.0918-2.7634,0.0166c-3.1431,0.0159-6.2856,0.0354-9.4277,0.1318c-2.7894,0.0857-2.7693,4.1689,0,4.3188
		c0.2561,0.0137-0.006,1.947-0.4055,4.2749c-0.217,0.3428-0.3721,0.7605-0.4172,1.2729l-0.1755,1.9966
		c-0.4075,2.1672-0.7863,4.0908-0.8474,4.6113c-0.2927,2.4954-0.4436,5.022-0.9539,7.4863c-0.199,1.0413-0.4617,2.0662-0.7878,3.075
		c-0.7112,0.7703-1.0784,1.3916-1.1354,1.8782c-0.8378,0.0786-1.6251,0.6724-1.5924,1.7012c0.006,0.1892,0.012,0.3787,0.0181,0.5681
		c0.0193,0.6091,0.3245,1.2888,0.9014,1.5713c1.5748,0.7712,2.7969,0.4006,3.7537-0.6143c2.4879,2.8647,8.811,1.5454,12.0034,1.5708
		c1.6534,0.0134,2.593-1.532,2.3063-3.0273c-0.8439-4.4009-1.6229-8.8123-2.2939-13.2429
		C24.1164,16.5058,21.1989,6.9809,25.8498,6.6989z"/>
	<g>
		<g>
			<g>
				<path class="st9" d="M11.8969,30.3437c3.8474,0.0375,7.6176-0.2611,11.4529,0.2201c0.6644,0.0833,0.8185-1.0483,0.1589-1.174
					c-3.8681-0.737-7.7136-0.2194-11.6118-0.1066C11.216,29.3029,11.2122,30.337,11.8969,30.3437L11.8969,30.3437z"/>
			</g>
		</g>
		<g>
			<g>
				<path class="st9" d="M19.5492,7.3592C24.1316,7.471,30.0483,7.033,32.8526,2.772c0.3268-0.4966-0.1102-1.1024-0.6456-1.1251
					C24.5693,1.323,16.9269,1.9551,9.2892,1.6313C8.56,1.6004,8.3734,2.4568,8.7495,2.9343
					c1.8321,2.3262,4.5444,3.6459,7.0948,5.0315c-0.1172-0.2881-0.2345-0.5762-0.3517-0.8644
					c-1.8379,6.4641-2.7887,13.0772-4.0938,19.6546c-0.1588,0.8003-0.2287,1.6983-0.4945,2.4674
					c-0.1865,0.5396,0.2475-0.2903,0.0175,0.0538c-0.1289,0.1929-0.4487,0.4528-0.6152,0.5949
					c-2.3556,2.0116-4.6288,4.167-7.614,5.2123c-0.7823,0.2739-0.7078,1.5356,0.2045,1.5109
					c11.3373-0.3066,22.6786,0.1256,34.0159-0.1809c0.7708-0.0208,1.0461-1.0331,0.3902-1.4405
					c-2.3597-1.4658-4.0903-3.5332-5.9675-5.5303c-0.7127-0.7583-0.1896,0.0537-0.4088-0.7708
					c-0.2281-0.8575-0.3962-1.7356-0.5886-2.6015c-1.3582-6.1119-2.065-12.2446-3.0358-18.4222
					c-0.1279-0.8137-1.5361-0.6324-1.4502,0.1963c0.6867,6.624,1.7469,13.1204,3.2107,19.6117
					c0.2829,1.2545,0.384,2.1065,1.1782,3.0811c1.7819,2.1866,3.88,4.2796,6.2817,5.7708c0.1301-0.4802,0.2601-0.9603,0.3902-1.4405
					c-11.3373,0.3091-22.6787-0.1205-34.0159,0.1886c0.0682,0.5036,0.1363,1.0073,0.2045,1.5109
					c2.7422-0.9609,5.0944-2.7575,7.2545-4.6632c1.2337-1.0883,1.8925-1.5885,2.2068-3.1547
					c1.4246-7.0981,2.424-14.2657,4.4058-21.2416c0.09-0.3168-0.0574-0.7045-0.3517-0.8644
					c-2.4405-1.3252-5.0315-2.5652-6.788-4.7891C9.649,2.2892,9.4691,2.7235,9.2892,3.1578
					c7.6381,0.3135,15.2796-0.329,22.9178-0.0155c-0.2152-0.375-0.4304-0.7501-0.6456-1.1251
					c-2.1892,3.3363-8.2891,4.4675-12.0121,4.4221C18.9565,6.432,18.9576,7.3447,19.5492,7.3592L19.5492,7.3592z"/>
			</g>
		</g>
		<g>
			<g>
				<path class="st9" d="M18.6628,35.8756c0.2582,5.6555,0.0247,11.4375,0.0911,17.1156c0.0229,1.956-0.1537,4.0335,0.0689,5.979
					c0.1815,1.5862,0.9227,3.1839,1.4115,4.7055c0.1692,0.5268,1.0482,0.7774,1.3126,0.1716
					c1.6413-3.7612,1.6731-7.0501,1.6326-11.0841c-0.0523-5.2117-0.0634-10.4249-0.1853-15.6355
					c-0.0201-0.858-1.3357-0.8622-1.3359,0c-0.0014,4.7258,0.0539,9.4516,0.0919,14.1773c0.0335,4.174,0.2672,7.9137-1.4434,11.8175
					c0.4375,0.0572,0.8751,0.1144,1.3126,0.1716c-0.4528-1.4169-1.2366-3.3507-1.3541-4.4525
					c-0.221-2.0729-0.0382-4.2662-0.0648-6.3493c-0.0708-5.5558-0.2529-11.0856-0.565-16.6166
					C19.6004,35.2542,18.6342,35.2476,18.6628,35.8756L18.6628,35.8756z"/>
			</g>
		</g>
		<g>
			<g>
				<path class="st9" d="M16.1532,17.1671c-0.1186,1.0583-0.3631,2.0956-0.4514,3.1763c-0.0866,1.0596-0.1543,2.1128-0.1418,3.1763
					c0.0077,0.6529,1.0774,0.8547,1.1855,0.1604c0.1599-1.0271,0.2549-2.0554,0.3215-3.0924
					c0.0737-1.1483-0.0177-2.2861,0.0179-3.4207C17.104,16.5553,16.2183,16.5856,16.1532,17.1671L16.1532,17.1671z"/>
			</g>
		</g>
		<g>
			<g>
				<path class="st9" d="M5.6092,43.1189c4.1833-0.6331,8.1993,2.0086,9.3124,6.0755c0.1666,0.6088,1.0861,0.3527,0.9436-0.2601
					c-1.0748-4.6218-5.8581-7.6551-10.4943-6.6798C4.7967,42.3752,5.0519,43.2032,5.6092,43.1189L5.6092,43.1189z"/>
			</g>
		</g>
		<g>
			<g>
				<path class="st9" d="M4.8192,47.807c2.7563-0.6575,5.4495,0.2848,7.3266,2.376c0.4124,0.4595,1.0402-0.204,0.6671-0.6671
					c-1.9808-2.4577-5.2103-3.3914-8.2289-2.5621C4.0341,47.1049,4.2653,47.9391,4.8192,47.807L4.8192,47.807z"/>
			</g>
		</g>
		<g>
			<g>
				<path class="st9" d="M25.9203,49.3999c2.437-3.3972,6.141-5.5233,10.2356-6.1378c0.6655-0.0999,0.5164-1.2619-0.1604-1.1855
					c-4.6005,0.5192-8.4101,2.9723-10.8442,6.8738C24.8428,49.445,25.5922,49.8573,25.9203,49.3999L25.9203,49.3999z"/>
			</g>
		</g>
	</g>
</g>
</svg>
