<?xml version="1.0" encoding="utf-8"?>
<!-- Generator: Adobe Illustrator 20.1.0, SVG Export Plug-In . SVG Version: 6.00 Build 0)  -->
<svg version="1.1" xmlns="http://www.w3.org/2000/svg" xmlns:xlink="http://www.w3.org/1999/xlink" x="0px" y="0px"
	 viewBox="0 0 198 112" style="enable-background:new 0 0 198 112;" xml:space="preserve">
<style type="text/css">
	.st0{fill:none;stroke:#F7FAFC;stroke-width:39.9968;stroke-linecap:round;stroke-linejoin:round;}
	.st1{fill:none;stroke:#F2F6F9;stroke-width:39.9968;stroke-linecap:round;stroke-linejoin:round;}
	.st2{fill:#F7FAFC;}
	.st3{fill:#F2F6F9;}
	.st4{fill:#FFFFFF;}
	.st5{fill:#FCE0DE;}
	.st6{fill:#E6E6E6;}
	.st7{fill:#FFEFAF;}
	.st8{fill:#E93A1D;}
	.st9{fill:#303030;}
	.st10{fill:#E83D25;}
	.st11{fill:#B3B3B3;}
	.st12{fill:#666666;}
	.st13{fill:none;stroke:#E93A1D;stroke-width:1.5;stroke-linecap:round;stroke-linejoin:round;}
	.st14{fill:none;stroke:#E93A1D;stroke-width:1.5;stroke-linecap:round;stroke-linejoin:round;stroke-dasharray:2.0259,5.0648;}
	.st15{fill:none;stroke:#E93A1D;stroke-width:1.5;stroke-linecap:round;stroke-linejoin:round;stroke-dasharray:1.8929,4.7321;}
	.st16{fill:#777777;}
	.st17{fill:#172DF8;}
	.st18{fill:none;stroke:#E93A1D;stroke-width:1.5;stroke-linecap:round;stroke-linejoin:round;stroke-dasharray:1.9198,4.7994;}
	.st19{fill:none;stroke:#E93A1D;stroke-width:1.5;stroke-linecap:round;stroke-linejoin:round;stroke-dasharray:1.9197,4.7993;}
</style>
<g id="back">
</g>
<g id="Layer_2">
	<rect x="6.2757" y="56.6007" class="st7" width="11.8866" height="18.1442"/>
	<rect x="6.2757" y="84.602" class="st7" width="11.8866" height="3.7941"/>
	<rect x="71.2375" y="54.8317" class="st7" width="12.0354" height="31.1661"/>
	<path class="st7" d="M40.5408,23.9462c0.3574,3.0527,2.1597,5.3833,2.8871,8.1484c0.4283,1.6292-0.0525,3.0698-0.4567,4.5579
		c2.3208,0.031,4.6367,0.1592,6.9517,0.3201c0.4539-1.2239,0.6614-2.7432,0.7046-4.2261c0.0464-1.5911-0.0691-3.106-0.1892-4.0649
		C49.5076,21.2585,56.043,15.227,51.857,7.8688c-2.1096-3.7083-6.6423-5.7771-10.8567-5.7732
		C36.2409,2.1,32.1005,5.9572,27.4947,6.8393c-6.5742,1.259-12.9268,0.415-14.0055,9.1333
		c-0.5028,4.0632,1.8037,9.9561,6.5104,10.2876c3.593,0.2527,5.9739-2.5696,8.2977-4.8481
		c2.9918-2.9336,4.5574-3.3186,8.7567-2.2971C40.5175,19.9575,40.1818,20.8798,40.5408,23.9462z"/>
	<g>
		<g>
			<g>
				<path class="st9" d="M40.1853,23.5996c-0.1438,4.0701-0.2876,8.1403-0.4313,12.2104c-0.0341,0.9654,1.4659,0.9641,1.5,0
					c0.1438-4.0701,0.2876-8.1403,0.4313-12.2104C41.7194,22.6341,40.2193,22.6355,40.1853,23.5996L40.1853,23.5996z"/>
			</g>
		</g>
		<g>
			<g>
				<path class="st9" d="M50.0923,36.4644c1.1138-3.4766,1.4292-7.0477,1.904-10.6462c0.5016-3.8019,1.8143-7.3864,2.412-11.1578
					c0.6595-4.1606-0.2202-8.9636-3.8378-11.5609c-6.2109-4.459-15.9112-0.7009-21.0991,3.686
					c-0.7381,0.6241,0.3275,1.6806,1.0607,1.0607c4.6589-3.9395,13.864-7.6284,19.3812-3.3659
					c4.3785,3.3827,3.2803,9.4745,2.05,14.097c-1.5317,5.7553-1.5016,11.8212-3.3173,17.4884
					C48.3507,36.987,49.7984,37.3816,50.0923,36.4644L50.0923,36.4644z"/>
			</g>
		</g>
		<g>
			<g>
				<path class="st9" d="M24.9733,6.7087c-5.9682-0.8979-12.0114,3.1667-12.7251,9.3397
					c-0.5763,4.9839,1.1332,12.7216,6.0801,15.1292c0.6848,0.3333,1.2728-0.6346,0.6033-1.0321
					c-3.9952-2.3724-5.4754-8.3966-5.4007-12.7272c0.1028-5.9589,5.4622-10.3281,11.3177-9.7889
					C25.369,7.6774,25.4968,6.7874,24.9733,6.7087L24.9733,6.7087z"/>
			</g>
		</g>
		<g>
			<g>
				<path class="st9" d="M28.9986,20.2367c-1.2898-5.1456,5.345-12.8853,10.568-12.5184c3.966,0.2787,7.3171,3.4734,8.4122,7.1828
					c1.2913,4.3741-0.5518,9.0267-3.3444,12.3871c-0.484,0.5824,0.3192,1.4212,0.8452,0.8452
					c3.2304-3.5371,5.0451-8.4318,3.8781-13.2088c-1.0226-4.1859-4.6185-7.7577-8.9301-8.4196
					c-3.706-0.5689-6.7441,1.5918-9.0499,4.3024c-2.1576,2.5364-4.3695,6.2486-3.3623,9.7001
					C28.1992,21.1372,29.1585,20.8746,28.9986,20.2367L28.9986,20.2367z"/>
			</g>
		</g>
		<g>
			<g>
				<path class="st9" d="M29.2516,21.7981c-0.2099-2.9527,1.8835-4.1355,4.1598-5.2371c1.2115-0.5862,4.1889-2.3414,5.4935-1.3491
					c0.5007,0.3808,1.1498-0.4614,0.6746-0.8742c-1.7893-1.5541-4.8492,0.1878-6.5851,1.0468
					c-2.7251,1.3485-5.1688,2.9568-4.7271,6.4136C28.3452,22.4083,29.2975,22.4431,29.2516,21.7981L29.2516,21.7981z"/>
			</g>
		</g>
		<g>
			<g>
				<path class="st9" d="M24.6645,28.6054c1.9963-0.3848,3.7391-0.0926,5.7083,0.2558c0.5641,0.0998,1.0133-0.6993,0.4199-0.996
					c-1.963-0.9816-4.3507-0.9057-6.4226-0.3277C23.6761,27.7311,23.9715,28.7389,24.6645,28.6054L24.6645,28.6054z"/>
			</g>
		</g>
		<g>
			<g>
				<path class="st9" d="M34.1932,29.0213c1.6144-0.0888,3.1659-0.1177,4.7826-0.0265c0.6343,0.0358,0.7541-0.9424,0.1488-1.0992
					c-1.6231-0.4203-3.4632-0.4229-5.0754,0.061C33.4832,28.1266,33.5624,29.056,34.1932,29.0213L34.1932,29.0213z"/>
			</g>
		</g>
		<g>
			<g>
				<path class="st9" d="M25.2162,32.5844c1.8362-0.029,3.682,0.1447,5.519,0.1761c-0.1922-0.2524-0.3845-0.5047-0.5767-0.7571
					c-0.1445,0.4107-0.0613,0.8088,0.2496,1.1944c0.3091-0.4151-0.0332-0.984-0.4552-1.119
					c-0.0503-0.0161-0.1007-0.0322-0.151-0.0483c-0.4695-0.1501-0.9242,0.1783-1.073,0.6092
					c-0.2946,0.8533,0.396,1.5835,1.2564,1.4929c1.0075-0.1061,1.286-1.1115,1.3481-1.9703
					c0.0241-0.3334-0.294-0.5837-0.5981-0.5981c-1.7764-0.0842-3.9198-0.4332-5.6397,0.1281
					C24.6226,31.8468,24.6854,32.5928,25.2162,32.5844L25.2162,32.5844z"/>
			</g>
		</g>
		<g>
			<g>
				<path class="st9" d="M34.524,32.4803c1.2448,0.2867,2.5697,0.261,3.841,0.2914c-0.2031-0.2031-0.4062-0.4062-0.6093-0.6093
					c-0.0387,0.3205-0.1967,1.6744,0.1829,1.1976c0.0837-0.1051,0.1246-0.2211,0.176-0.3442
					c0.1097-0.2623-0.0392-0.5436-0.1959-0.7411c-0.0161-0.0203-0.0323-0.0407-0.0484-0.061c-0.2853-0.3596-0.943-0.3172-1.2347,0
					c-0.6527,0.7099-0.2837,1.8878,0.7608,1.9122c0.9982,0.0233,1.4246-0.9811,1.5561-1.8015
					c0.0638-0.3978-0.1593-0.7539-0.5876-0.7713c-1.2716-0.0516-2.5802-0.1532-3.841,0.0515
					C34.0754,31.6774,34.1068,32.3843,34.524,32.4803L34.524,32.4803z"/>
			</g>
		</g>
		<g>
			<g>
				<path class="st9" d="M19.2779,35.5572c-0.6795-1.0982-0.8468-2.5362-0.1606-3.6942c0.6937-1.1707,0.9813-0.7825,1.8621-1.3849
					c0.7822-0.5349,1.1187-1.2122,1.3098-2.1276c0.4479-2.1454,0.4552-3.6574,2.8209-4.6397
					c1.2655-0.5255,2.55-0.8272,3.7044-1.5935c0.6234-0.4138,0.0871-1.2823-0.5767-0.9866
					c-1.7668,0.7871-3.9336,1.093-5.4647,2.3365c-1.6424,1.3339-1.2069,2.8186-1.8067,4.6
					c-0.5767,1.7126-2.7746,2.1086-3.3542,4.0759c-0.4362,1.4806-0.1323,2.8743,0.8789,4.021
					C18.8684,36.5921,19.5755,36.0381,19.2779,35.5572L19.2779,35.5572z"/>
			</g>
		</g>
	</g>
	<g>
		<g>
			<path class="st9" d="M3.0927,91.73C2.6162,79.1149,2.1071,66.5024,2.454,53.8763c0.0855-3.1135,0.1961-6.2281,0.3761-9.3376
				c0.0853-1.4728,0.158-2.9496,0.2802-4.4197c0.114-1.3725,0.0737-3.0301,1.4768-3.9244c0.8192-0.5221,2.223-0.396,3.145-0.356
				c6.2863,0.273,12.5646,0.6914,18.854,0.9204c12.5745,0.4579,25.158,0.6646,37.7407,0.6036
				c6.4569-0.0313,12.9138-0.1201,19.368-0.3137c1.4895-0.0447,2.9789-0.0965,4.4684-0.1405
				c2.0742-0.0613,3.8589,0.1668,4.2125,2.6162c0.4474,3.0991,0.0816,6.5035,0.0825,9.6348
				c0.004,14.2544,0.0111,28.5088,0.011,42.7632c0.1947-0.1947,0.3895-0.3895,0.5842-0.5842
				c-29.569,1.0289-59.1779,0.9523-88.7434-0.1498c-0.7995-0.0298-0.7981,1.2118,0,1.2422
				c29.5736,1.1264,59.1679,1.1252,88.7434,0.076c0.3154-0.0112,0.5844-0.2586,0.5842-0.5842
				C93.6279,77.832,93.6255,63.7414,93.62,49.6509c-0.0013-3.2596,0.2152-6.6172-0.0414-9.866
				c-0.129-1.6326-0.6225-3.1992-2.2609-3.8252c-1.2772-0.488-2.8138-0.2259-4.1475-0.1914
				c-1.6549,0.0428-3.3099,0.0813-4.965,0.1118c-3.6416,0.0671-7.2831,0.142-10.9251,0.1867
				c-14.2364,0.1748-28.4784,0.0362-42.7085-0.4262c-6.9466-0.2257-13.8931-0.6921-20.8395-0.8651
				c-1.7804-0.0444-3.6927,0.0134-4.7681,1.6722c-1.3003,2.0057-0.852,5.3739-0.9441,7.5998
				C1.3626,59.9251,0.9516,75.8729,2.2606,91.73C2.3041,92.2562,3.1131,92.2715,3.0927,91.73L3.0927,91.73z"/>
		</g>
	</g>
	<g>
		<g>
			<path class="st9" d="M7.2828,45.9619c12.5918,1.0556,25.3668,1.0153,37.9952,1.0221c12.6698,0.0068,25.3436-0.2431,37.9949-0.946
				c0.7032-0.0391,0.7126-1.126,0-1.1016c-12.6614,0.4347-25.3251,0.7778-37.9949,0.7885
				c-12.6722,0.0107-25.3291-0.62-37.9952-0.6889C6.6791,45.0329,6.6971,45.9128,7.2828,45.9619L7.2828,45.9619z"/>
		</g>
	</g>
	<g>
		<g>
			<path class="st9" d="M13.9633,39.2401c-0.2537,0.0369-0.579-0.003-0.7937,0.1562c-0.1637,0.1214-0.2696,0.3713-0.3235,0.5631
				c-0.115,0.4091-0.0556,0.8607,0.1183,1.2431c0.3962,0.8714,1.3917,1.2613,2.2676,0.8561c0.8548-0.3955,1.3489-1.3999,0.95-2.2901
				c-0.39-0.8703-1.4362-1.3384-2.3115-0.9315c-0.4095,0.1904-0.2232,0.9395,0.2381,0.879c0.3623-0.0475,0.7261-0.0114,0.9851,0.276
				c0.2868,0.3183,0.2157,0.7387-0.1061,1.0034c-0.6705,0.5514-1.4679-0.2794-1.124-0.9897
				c-0.0941,0.0723-0.1882,0.1447-0.2822,0.217c0.2046-0.0494,0.4035-0.1113,0.6094-0.1575
				C14.7399,39.9419,14.4931,39.163,13.9633,39.2401L13.9633,39.2401z"/>
		</g>
	</g>
	<g>
		<g>
			<path class="st9" d="M18.8807,39.0284c-1.3868,0.7151-0.996,3.0776,0.5327,3.3381c1.6947,0.2888,2.719-2.1874,1.3267-3.1733
				c-0.497-0.3519-0.9542,0.3828-0.6106,0.7914c0.3142,0.3738,0.0396,1.379-0.5509,1.2248
				c-0.4914-0.1283-0.5712-1.0187-0.1684-1.2755C19.9807,39.5703,19.4811,38.7188,18.8807,39.0284L18.8807,39.0284z"/>
		</g>
	</g>
	<g>
		<g>
			<path class="st9" d="M24.1421,57.3232c4.1412-0.3447,8.4425-0.5656,12.6115-0.4256c4.2401,0.1423,8.3339,1.0768,12.535,1.4463
				c0.9363,0.0824,0.9954-1.2665,0.2095-1.548c-3.9318-1.4082-8.6044-1.657-12.7445-1.7817
				c-4.3949-0.1324-8.5076,0.2355-12.7625,1.1927C23.3759,56.3452,23.497,57.3769,24.1421,57.3232L24.1421,57.3232z"/>
		</g>
	</g>
	<g>
		<g>
			<path class="st9" d="M24.2989,62.3807c3.4187-0.1566,6.8148-0.5511,10.205-1.016c0.993-0.1362,0.7692-1.885-0.2391-1.7667
				c-3.3961,0.3985-6.7829,0.8704-10.1294,1.5742C23.4592,61.3144,23.6062,62.4124,24.2989,62.3807L24.2989,62.3807z"/>
		</g>
	</g>
	<g>
		<g>
			<path class="st9" d="M24.2781,79.0444c3.3156,0.0748,6.69,0.3513,10,0.0791c0.6701-0.0551,0.6713-0.9878,0-1.043
				c-3.31-0.2722-6.6841,0.0043-10,0.0791C23.709,78.1724,23.708,79.0315,24.2781,79.0444L24.2781,79.0444z"/>
		</g>
	</g>
	<g>
		<g>
			<path class="st9" d="M24.9266,83.224c2.0539,1.0791,4.1851,1.5787,6.4781,0.8352c0.6871-0.2228,0.3968-1.1725-0.2928-1.0622
				c-1.8786,0.3004-3.9648,0.2776-5.7269-0.5571C24.8635,82.1927,24.4034,82.9491,24.9266,83.224L24.9266,83.224z"/>
		</g>
	</g>
	<g>
		<g>
			<path class="st9" d="M42.2781,80.1498c2.3315,0.025,4.6699,0.105,7,0c0.7046-0.0318,0.7058-1.0639,0-1.0957
				c-2.33-0.105-4.6685-0.025-7,0C41.5732,79.0617,41.572,80.1423,42.2781,80.1498L42.2781,80.1498z"/>
		</g>
	</g>
	<g>
		<g>
			<path class="st9" d="M42.4719,86.9459c1.3345-0.88,3.1012-1.0791,4.6467-0.7669c0.6759,0.1365,0.9557-0.8341,0.2866-1.0396
				c-1.9545-0.6003-3.7623-0.1421-5.3946,1.0173C41.5382,86.4921,41.9747,87.2737,42.4719,86.9459L42.4719,86.9459z"/>
		</g>
	</g>
	<g>
		<g>
			<path class="st9" d="M55.2781,81.0356c2.631,0.1084,5.3764,0.3608,8,0.0879c0.6695-0.0696,0.6709-0.9732,0-1.043
				c-2.6242-0.2729-5.3679-0.0205-8,0.0879C54.7204,80.1914,54.7195,81.0126,55.2781,81.0356L55.2781,81.0356z"/>
		</g>
	</g>
	<g>
		<g>
			<path class="st9" d="M57.2781,85.1967c1.9999,0.036,4.0018,0.0302,6-0.0674c0.6782-0.0331,0.6794-1.0215,0-1.0547
				c-1.9982-0.0976-4.0001-0.1034-6-0.0674C56.5129,84.021,56.5116,85.1829,57.2781,85.1967L57.2781,85.1967z"/>
		</g>
	</g>
	<g>
		<g>
			<path class="st9" d="M54.7327,57.6316c0.2174,2.7599,0.4634,5.5137,0.7533,8.2671c0.1597,1.5167-0.0465,4.2027,1.0697,5.4469
				c0.8832,0.9844,2.348,0.7805,3.5283,0.7388c2.7384-0.0967,5.4748-0.2416,8.2137-0.3246
				c0.3008-0.0091,0.6181-0.2645,0.5921-0.5921c-0.2329-2.9335-0.473-5.8666-0.7237-8.7987
				c-0.1449-1.6955,0.1836-4.5687-0.8565-6.0738c-0.9074-1.313-2.3948-1.0346-3.7885-0.8864
				c-2.7786,0.2956-5.577,0.5487-8.3379,0.9792c-0.5814,0.0906-0.4482,1.0695,0.1394,1.0301
				c2.1304-0.1427,4.2544-0.4281,6.3766-0.6631c2.2-0.2436,4.6274-1.0445,4.9497,1.9093c0.4531,4.1534,0.6889,8.341,1.0566,12.5034
				c0.1974-0.1974,0.3947-0.3947,0.5921-0.5921c-1.8246,0.0968-3.6503,0.168-5.4758,0.2448c-0.8791,0.037-1.86,0.168-2.7379,0.1152
				c-0.7447,0.1925-1.3983,0.0074-1.961-0.5552c-1.0756-0.2381-1.4847-0.9215-1.2274-2.0501
				c-0.4248-3.6087-0.8578-7.2085-1.3745-10.8053C55.4572,57.0803,54.6972,57.1816,54.7327,57.6316L54.7327,57.6316z"/>
		</g>
	</g>
	<g>
		<g>
			<path class="st9" d="M5.8831,56.6007c-0.0624,5.0718-0.3538,10.2181-0.0972,15.2864c0.1629,3.2175,1.8699,3.5305,4.7427,3.11
				c2.1088-0.3086,5.0947-0.2227,7.0137-1.1844c0.938-0.4701,1.1897-1.1632,1.3575-2.1595
				c0.3858-2.2902-0.0485-5.0008-0.0834-7.3245c-0.0378-2.5157-0.0961-5.0307-0.1455-7.5462
				c-0.0059-0.3019-0.2335-0.4856-0.5165-0.5165c-4.0349-0.4408-8.1025-0.3674-12.0762,0.5053
				c-0.6155,0.1352-0.3411,1.0168,0.2555,0.9266c3.9653-0.5997,7.8261-0.8239,11.8208-0.3989
				c-0.1722-0.1722-0.3443-0.3443-0.5165-0.5165c0.0423,3.3016,0.0826,6.6029,0.1404,9.9043
				c0.0318,1.8171,0.3962,3.6831-0.5175,5.2777c-0.7128,1.244-0.9234,1.0961-2.1819,1.296
				c-0.9641,0.1531-1.9302,0.2954-2.8951,0.4436c-2.0779,0.3192-5.2651,1.2684-5.4042-1.8171
				c-0.0715-1.5851-0.0015-3.19-0.0048-4.777c-0.0075-3.5048-0.0601-7.0059-0.1064-10.5094
				C6.6616,56.0956,5.8893,56.0947,5.8831,56.6007L5.8831,56.6007z"/>
		</g>
	</g>
	<g>
		<g>
			<path class="st9" d="M6.8318,78.725c0.3524,1.1979,0.7338,2.387,1.1101,3.5776c0.0628,0.1987,0.2603,0.3833,0.4831,0.3678
				c1.691-0.1172,3.3821-0.2344,5.0731-0.3517c1.0045-0.0696,2.2121-0.0056,3.1808-0.364c1.318-0.4877,1.8926-1.6832,1.4497-3.0126
				c-1.7155-5.149-8.0649-1.8289-11.6352-2.9769C5.9546,75.792,5.5806,76.64,6.1028,76.8916
				c3.2127,1.5479,7.475-1.4954,10.1699,1.0534c1.493,1.412,1.3358,2.6634-1.0835,3.2514c-1.0408,0.253-2.3115,0.1613-3.3821,0.236
				c-0.8549,0.0596-2.4184,0.5123-3.1319-0.1087c-0.4715-0.4105-0.7365-2.2313-0.9507-2.8448
				C7.5303,77.9228,6.6617,78.1468,6.8318,78.725L6.8318,78.725z"/>
		</g>
	</g>
	<g>
		<g>
			<path class="st9" d="M8.1273,88.3253c3.3412,0.237,6.6893,0.3971,10.035,0.5568c0.2488,0.0119,0.5047-0.2327,0.486-0.486
				c-0.1149-1.5555-0.2116-3.1124-0.3144-4.6688c-0.0127-0.1917-0.1402-0.4365-0.3562-0.4679
				c-3.0112-0.4376-6.0062-0.3577-8.9147,0.598c-0.5849,0.1922-0.3489,1.0762,0.2555,0.9266
				c1.9755-0.4889,3.9474-0.8365,5.9899-0.7964c0.3648,0.0025,0.729,0.0189,1.0926,0.0494
				c0.8878,0.0492,1.2441,0.4647,1.0688,1.2465c0.2914,0.8754,0.1506,2.1881,0.2065,3.1125c0.162-0.162,0.324-0.324,0.486-0.486
				c-3.3426-0.2311-6.6878-0.4623-10.035-0.6161C7.4605,87.2634,7.4706,88.2787,8.1273,88.3253L8.1273,88.3253z"/>
		</g>
	</g>
	<g>
		<g>
			<path class="st9" d="M71.3816,56.5813c0.3222,10.3435,1.0168,20.6786,1.5882,31.0107c0.022,0.3981,0.4347,0.6653,0.7982,0.4581
				c3.4999-1.9954,7.3715-2.5425,11.2767-1.5227c0.299,0.0781,0.6374-0.1498,0.6242-0.4755
				c-0.4373-10.812-1.2027-21.589-2.0513-32.3745c-0.02-0.2536-0.2069-0.4986-0.4867-0.4867
				c-5.7767,0.2463-11.5288,0.8478-17.1997,1.9919c-0.6746,0.1361-0.3817,1.1349,0.2819,1.0227
				c4.0344-0.6826,8.0778-1.2927,12.1535-1.6712c0.9016-0.0837,1.9475-0.3178,2.8571-0.2412
				c1.5128,0.1273,1.2472,0.0475,1.594,1.344c0.5125,1.916,0.3142,4.4004,0.4597,6.3707
				c0.5914,8.0071,1.0491,16.0235,1.4052,24.0444c0.2081-0.1585,0.4162-0.317,0.6242-0.4755
				c-4.1635-1.0825-8.3299-0.5678-12.0744,1.5576c0.2661,0.1527,0.5322,0.3054,0.7982,0.4581
				c-0.5517-10.3367-0.9819-20.6896-1.782-31.0107C72.2062,56.032,71.364,56.0171,71.3816,56.5813L71.3816,56.5813z"/>
		</g>
	</g>
	<circle class="st8" cx="9.4263" cy="40.4191" r="1.701"/>
	<g>
		<g>
			<path class="st9" d="M115.0516,13.621c-0.4419,7.9374-1.2136,16.1219-0.9468,24.0695c0.0633,1.8843,0.6021,3.4489,2.5372,4.0535
				c3.2847,1.0262,7.3224,0.9164,10.7326,1.3073c1.7932,0.2056,6.3233,1.7125,7.714-0.0887
				c0.7064-0.9149,0.4674-2.5751,0.5006-3.5915c0.0645-1.9743,0.1257-3.9487,0.1885-5.923
				c0.2618-8.2262,0.5359-16.452,0.7622-24.6792c0.0074-0.2676-0.2025-0.5565-0.4689-0.6159
				c-7.4359-1.6561-15.0508-1.7618-22.5235-0.2657c-0.4344,0.087-0.6049,0.6341-0.4021,0.9884
				c1.2414,2.169,1.6225,4.2456,1.5155,6.7252c-0.0349,0.8094,1.1234,0.7548,1.2246,0c0.3547-2.6458-0.2629-5.1024-1.5781-7.4045
				c-0.134,0.3295-0.2681,0.659-0.4021,0.9884c4.0677-0.8112,8.1695-1.2025,12.3175-1.0513
				c2.1152,0.0771,4.2214,0.282,6.3107,0.6234c0.7706,0.1259,2.0054,0.0872,2.4904,0.7129c0.4886,0.6304,0.1392,1.9708,0.11,2.754
				c-0.2999,8.0606-0.5403,16.1238-0.8062,24.1856c-0.0583,1.7685,0.6943,5.4067-1.5973,5.909
				c-0.6814,0.1494-2.2244-0.2494-2.9213-0.3275c-0.9738-0.1092-1.9476-0.2183-2.9213-0.3275
				c-1.9475-0.2183-3.8951-0.4366-5.8426-0.655c-2.5176-0.2822-5.1955-0.0247-5.6504-3.3182
				c-0.24-1.7377,0.1036-3.7616,0.1545-5.512c0.0569-1.9533,0.1083-3.9068,0.1611-5.8603c0.1144-4.2322,0.211-8.4636,0.2437-12.6973
				C115.9585,13.0367,115.0837,13.0445,115.0516,13.621L115.0516,13.621z"/>
		</g>
	</g>
	<g>
		<g>
			<path class="st9" d="M163.3141,62.8402c10.8065,0.6244,21.6275,1.6314,32.2525,3.7556c0.4906,0.0981,0.9263-0.2118,0.9494-0.7232
				c0.0792-1.7566,0.1584-3.5133,0.2375-5.2699c0.0435-0.9651-1.4566-0.9629-1.5,0c-0.0792,1.7566-0.1584,3.5133-0.2375,5.2699
				c0.3165-0.2411,0.6329-0.4821,0.9494-0.7232c-10.7551-2.1503-21.7125-3.1772-32.6512-3.8092
				C162.3498,61.2845,162.353,62.7846,163.3141,62.8402L163.3141,62.8402z"/>
		</g>
	</g>
	<g>
		<g>
			<path class="st9" d="M196.2757,57.8705c-11.1871-0.4047-22.3789-0.6678-33.5693-0.9629c-0.9656-0.0255-0.965,1.4746,0,1.5
				c11.1904,0.2951,22.3822,0.5582,33.5693,0.9629C197.2411,59.4054,197.2397,57.9054,196.2757,57.8705L196.2757,57.8705z"/>
		</g>
	</g>
	<g>
		<g>
			<path class="st9" d="M128.8182,50.4958c0.2512-2.569,0.3131-5.2353,0.1827-7.8133c-0.0374-0.7394-1.1326-0.7465-1.1543,0
				c-0.0755,2.5907-0.1331,5.222-0.0948,7.8133C127.7622,51.1941,128.7526,51.1675,128.8182,50.4958L128.8182,50.4958z"/>
		</g>
	</g>
	<g>
		<g>
			<path class="st9" d="M136.4637,16.7286c8.7115,0.1835,17.4633-0.2591,26.1794-0.2762c8.7278-0.0171,17.4565,0.065,26.1818,0.2794
				c-0.212-0.212-0.424-0.424-0.6359-0.6359c0.2828,7.2299,0.0731,14.4638-0.3172,21.6856
				c-0.3605,6.6689-1.2698,13.5-0.9488,20.1777c0.0316,0.6572,0.9303,0.6301,1.002,0c0.7569-6.6617,0.8727-13.4815,1.2431-20.1777
				c0.3997-7.227,0.5984-14.4509,0.2929-21.6856c-0.0148-0.3501-0.2796-0.6269-0.6359-0.6359
				c-8.7252-0.2221-17.454-0.2801-26.1818-0.246c-8.6885,0.0339-17.5159-0.162-26.1794,0.5713
				C135.8667,15.8358,135.8477,16.7156,136.4637,16.7286L136.4637,16.7286z"/>
		</g>
	</g>
	<g>
		<g>
			<path class="st9" d="M160.5118,108.6988c-6.4965,0.6101-13.1387,0.522-19.6566,0.654
				c-7.5018,0.1519-15.0662,0.4128-22.5536-0.1753c-1.0683-0.0839-0.7664,0.1383-0.7671-0.7723
				c-0.0009-1.1191-0.0785-2.2451-0.1139-3.3637c-0.1142-3.6087-0.2206-7.2177-0.3115-10.827
				c-0.2312-9.186-0.3541-18.3737-0.6409-27.5586c-0.121-3.8731-0.2387-7.7505-0.4923-11.6177
				c-0.0606-0.9236,0.194-4.0658-0.9863-4.4936c-0.057,0.4214-0.1141,0.8428-0.1711,1.2641
				c8.8888,0.5636,17.7854,0.3149,26.6837,0.2294c4.2815-0.0411,8.5652-0.0376,12.844,0.1366
				c1.7263,0.0703,4.3845-0.2938,5.9658,0.4301c1.8172,0.8318,1.3215,5.656,1.3842,7.3615
				c0.2935,7.9755,0.3717,15.959,0.3124,23.9394c-0.0298,4.0077-0.0903,8.0155-0.1938,12.0221
				c-0.0544,2.1071-0.1203,4.214-0.1996,6.3204c-0.0534,1.4198,0.5003,5.969-1.2873,6.3171
				c-0.8768,0.1708-0.5004,1.4872,0.3676,1.3334c1.124-0.1992,1.728-0.5744,2.0349-1.6999c0.5618-2.0597,0.2592-4.7139,0.3354-6.844
				c0.1638-4.5734,0.2722-9.1494,0.3217-13.7256c0.1044-9.6659-0.0456-19.3359-0.3949-28.9958
				c-0.1024-2.8323,0.6157-6.7653-2.9154-7.4694c-4.4795-0.8932-9.5779-0.5089-14.1288-0.5114
				c-10.3791-0.0055-20.759,0.488-31.13-0.131c-0.7639-0.0456-0.8186,1.0322-0.1711,1.2641
				c-0.5098-0.1826-0.2671-0.3936-0.2496,0.1149c0.0123,0.3586,0.1012,0.7358,0.1393,1.0944
				c0.1309,1.2319,0.1991,2.4719,0.2705,3.7083c0.2146,3.7125,0.3477,7.43,0.4741,11.1463
				c0.3148,9.2534,0.5947,18.5119,0.7694,27.7691c0.0658,3.484,0.1126,6.969,0.2114,10.4523
				c0.035,1.2316-0.4149,3.4643,0.8624,4.0929c1.7945,0.8831,4.9736,0.4648,6.8896,0.5031
				c4.3175,0.0863,8.639,0.0488,12.9564-0.0229c7.767-0.1289,15.8218,0.1322,23.5408-0.879
				C161.1748,109.6784,161.2052,108.6337,160.5118,108.6988z"/>
		</g>
	</g>
	<g>
		<g>
			<path class="st9" d="M138.1877,103.6696c-2.5477,1.1864-0.8666,5.2851,1.8546,4.3821c1.2257-0.4067,2.1112-1.7057,1.8796-2.9962
				c-0.2659-1.4819-1.6366-2.497-3.1024-2.5126c-0.5698-0.006-0.5695,0.8746,0,0.8848c1.9972,0.0357,3.1882,2.8587,0.9303,3.563
				c-1.5721,0.4904-2.4445-1.739-1.1037-2.5368C139.1566,104.15,138.7099,103.4264,138.1877,103.6696L138.1877,103.6696z"/>
		</g>
	</g>
	<g>
		<g>
			<path class="st9" d="M123.0809,36.3726c-0.5661,1.0137-0.3192,2.3121,0.5407,3.0905c0.9811,0.8881,2.4413,0.6747,3.282-0.2973
				c0.8205-0.9487,0.8552-2.3537-0.1037-3.22c-0.8627-0.7794-2.2393-0.9402-3.1622-0.1902
				c-0.4308,0.3501,0.1191,0.9941,0.5751,0.7454c1.3469-0.7344,3.1369,0.6745,1.9319,2.0386
				c-1.1643,1.318-3.0137-0.279-2.2391-1.685C124.2023,36.3161,123.3811,35.835,123.0809,36.3726L123.0809,36.3726z"/>
		</g>
	</g>
	<g>
		<g>
			<path class="st13" d="M89.7061,29.33c0.218-0.2629,0.4335-0.519,0.647-0.7688"/>
			<path class="st14" d="M93.8467,24.8969c4.9803-4.5312,9.5107-5.3481,17.4958-4.1602"/>
			<path class="st13" d="M113.8352,21.1496c0.3225,0.0581,0.6501,0.1189,0.9834,0.1819"/>
			<g>
				<polygon class="st8" points="93.6058,28.7184 90.0207,29.0156 89.7258,25.4301 88.3298,27.0776 88.6257,30.6616 
					92.2097,30.3657 				"/>
			</g>
		</g>
	</g>
	<g>
		<g>
			<path class="st13" d="M116.4185,105.1723c-0.3289,0.0713-0.6559,0.1384-0.9808,0.2014"/>
			<path class="st15" d="M110.749,106.0033c-6.4022,0.4556-11.9645-0.9092-16.687-4.094"/>
			<path class="st13" d="M92.1602,100.4911c-0.2562-0.2102-0.5096-0.4263-0.7603-0.6482"/>
			<g>
				<polygon class="st8" points="95.3607,99.874 91.7701,100.0954 91.9937,103.6857 90.3753,102.2563 90.1529,98.6669 
					93.7423,98.4445 				"/>
			</g>
		</g>
	</g>
	<rect x="117.5144" y="11.154" class="st8" width="15.19" height="22.2058"/>
	<rect x="119.5397" y="55.7291" class="st7" width="39.4939" height="42.9379"/>
	<path class="st6" d="M138.4697,18.8539l-1,26.645h-6.4531v3.1133h29.497c2.0699,0,3.8311,1.508,4.1499,3.5532l0.4462,2.8623
		h19.5781V18.8539H138.4697z"/>
</g>
</svg>
