<?xml version="1.0" encoding="utf-8"?>
<!-- Generator: Adobe Illustrator 20.1.0, SVG Export Plug-In . SVG Version: 6.00 Build 0)  -->
<svg version="1.1" xmlns="http://www.w3.org/2000/svg" xmlns:xlink="http://www.w3.org/1999/xlink" x="0px" y="0px"
	 viewBox="0 0 750 360" style="enable-background:new 0 0 750 360;" xml:space="preserve">
<style type="text/css">
	.st0{fill:none;stroke:#F7FAFC;stroke-width:39.9968;stroke-linecap:round;stroke-linejoin:round;}
	.st1{fill:none;stroke:#F2F6F9;stroke-width:39.9968;stroke-linecap:round;stroke-linejoin:round;}
	.st2{fill:#F7FAFC;}
	.st3{fill:#F2F6F9;}
	.st4{fill:#FFFFFF;}
	.st5{fill:#FCE0DE;}
	.st6{fill:#E6E6E6;}
	.st7{fill:#FFEFAF;}
	.st8{fill:#E93A1D;}
	.st9{fill:#303030;}
	.st10{fill:#E83D25;}
	.st11{fill:#B3B3B3;}
	.st12{fill:#666666;}
	.st13{fill:none;stroke:#E93A1D;stroke-width:1.5;stroke-linecap:round;stroke-linejoin:round;}
	.st14{fill:none;stroke:#E93A1D;stroke-width:1.5;stroke-linecap:round;stroke-linejoin:round;stroke-dasharray:2.0259,5.0648;}
	.st15{fill:none;stroke:#E93A1D;stroke-width:1.5;stroke-linecap:round;stroke-linejoin:round;stroke-dasharray:1.8929,4.7321;}
	.st16{fill:#777777;}
	.st17{fill:#172DF8;}
	.st18{fill:none;stroke:#E93A1D;stroke-width:1.5;stroke-linecap:round;stroke-linejoin:round;stroke-dasharray:1.9198,4.7994;}
	.st19{fill:none;stroke:#E93A1D;stroke-width:1.5;stroke-linecap:round;stroke-linejoin:round;stroke-dasharray:1.9197,4.7993;}
</style>
<g id="back">
	<g>
		<g>
			<path class="st2" d="M362.2957,357.8857c-4.8457,0-9.6846-1.7534-13.4961-5.2393c-4.2754-3.9092-8.6865-7.9404-13.2061-12.0693
				c-1.0439,4.48-3.4639,8.4526-7.0195,11.436c-7.3887,6.2007-18.0098,6.1733-25.3379,0.3071
				c-4.4297,2.7979-13.6064,6.2847-25.334-1.7349c-1.9463-1.3315-4.1826-3.0601-6.9336-5.3633
				c-0.7598,0.9297-1.6143,1.8047-2.5615,2.6094c-6.668,5.6626-18.0117,7.2075-26.7852-0.7954l-5.1436-4.7212
				c-3.3516-3.0806-6.626-6.0879-9.835-9.0317c-1.1611,3.4629-3.2598,6.5728-6.1055,8.96
				c-8.3887,7.0391-19.2949,6.9761-32.4189-0.1899c-5.1611-2.8179-11.4023-6.9756-19.0254-12.6777
				c-0.9014,1.1938-1.9414,2.292-3.1064,3.27c-4.1436,3.4756-9.3965,5.1284-14.8145,4.647
				c-2.2793-0.2017-4.2988-0.6489-6.333-1.5234c-2.1514-0.1914-4.2754-0.7305-6.2793-1.6108
				c-3.6562-0.0513-7.6143-1.1167-11.6064-3.6938c-3.7158,0.3779-7.8467-0.2476-12.1211-2.479
				c-0.9375-0.4897-2.002-1.105-3.3496-1.9351c-1.9561-1.2061-4.5879-2.9155-8.0449-5.2266
				c-5.7471-3.8413-13.9062-9.437-24.25-16.6318c-0.8623-0.5996-1.7314-1.2046-2.6055-1.8135
				c-0.3594,0.3525-0.7334,0.6934-1.125,1.0234c-8.4414,7.1196-21.0596,6.0498-28.1807-2.3936c0,0-10.2773-12.1851-20.5527-24.3989
				c-5.1455-6.1162-10.29-12.2393-14.1475-16.8477c-1.9502-2.3311-3.5752-4.2788-4.7119-5.6509
				c-2.957-3.5688-7.0059-8.4565-6.2793-16.6851c0.4648-5.2627,2.9932-10.1284,7.0322-13.5332
				c1.3213-1.1143,6.5049-5.0049,13.6992-4.6738c-0.7969-2.8525-0.876-5.1792-0.7588-7.5249
				c0.2959-5.9722,3.0498-11.5649,7.5547-15.3452c1.6328-1.3701,3.4229-2.436,5.2998-3.2017
				c0.5293-0.562,1.0967-1.0991,1.7021-1.6079c1.376-1.1562,2.959-2.1377,4.6807-2.897c1.29-1.0073,2.6885-1.8447,4.1611-2.502
				c7.8018-5.6411,18.627-4.9365,25.6387,1.8691c-0.0107-0.7026,0.0127-1.4282,0.0742-2.1816
				c0.4336-5.3262,2.998-10.2964,7.0908-13.7324c2.6709-2.2422,12.3887-8.9277,25.4043-0.9263
				c0.6523,0.4009,1.3438,0.8516,2.0908,1.3628c0.915-4.1562,3.1602-8.0532,6.6719-11.001
				c1.9434-1.6309,11.7734-8.9155,24.2734-1.3955c1.1475-2.0376,2.6748-3.9072,4.5723-5.4995
				c1.6914-1.4194,9.0859-6.9009,18.9785-3.7363c0.0107-0.0093,0.0225-0.019,0.0342-0.0288
				c6.2129-5.2183,16.6123-7.2397,25.8418,0.0083c0.5225,0.4106,1.2812,1.0327,2.2549,1.8594
				c1.1855,1.0073,2.7305,2.3481,4.6934,4.0732c0.9961-4.8652,3.5459-9.1821,7.375-12.3955
				c8.0391-6.7451,19.9219-6.1313,27.2227,1.4082c0.0723,0.0747,1.4473,1.4941,3.9072,4.022
				c0.9004-3.1709,2.5967-6.1611,5.0869-8.6543c7.6445-7.6567,19.9922-7.8442,27.8672-0.4214l4.9707,4.6851
				c1.083-3.0205,2.9092-5.8213,5.457-8.1108c8.0205-7.2065,20.3076-6.7578,27.7812,1.0137
				c0.5869,0.6108,1.1797,1.2271,1.7686,1.8389c1.1367-1.9067,2.5918-3.6284,4.3213-5.0796
				c7.8467-6.5845,19.4014-6.1768,26.7617,0.9478l3.1914,3.0874c1.1855-1.8276,2.6455-3.4824,4.3564-4.918
				c5.7178-4.7993,15.6748-7.5342,26.4697-0.8174c0.3408,0.2124,0.6875,0.4355,1.0391,0.6699
				c5.9365-4.9116,15.9346-6.9858,24.9961-0.5801c0.8496,0.6006,1.7842,1.3301,2.9414,2.2949
				c1.1934,0.9961,2.6846,2.2949,4.5254,3.9409c1.1123-1.8057,2.5156-3.4399,4.1709-4.8286
				c1.998-1.6772,12.2432-9.2412,25.5889-0.9204c7.6758-4.498,17.6602-3.4331,24.2139,3.0933
				c2.7002,2.689,5.4141,5.3872,8.1387,8.0918c0.9912-1.9814,2.3291-3.8291,4.0127-5.4517
				c7.791-7.5112,20.1465-7.4614,27.877,0.1152c1.7637,1.7285,3.5645,3.4927,5.3994,5.2891c0.792-0.9736,1.6768-1.875,2.6445-2.6875
				c5.0508-4.2344,11.582-5.5972,17.6016-4.1206c4.8809,0.0415,9.7373,1.8623,13.5312,5.4321
				c3.542,3.332,7.1123,6.686,10.7002,10.0522c1.0977-1.7456,2.4678-3.3271,4.0771-4.6772
				c13.4609-11.2935,29.0137-0.3516,34.124,3.2432c3.2383,2.2778,7.0537,5.2188,11.5322,8.8931
				c0.6758-0.7734,1.4131-1.4985,2.21-2.167c4.7773-4.0103,15.0781-9.293,30.3721,0.4004c1.001,0.6343,2.0498,1.3428,3.1504,2.1284
				c5.9824-1.2588,12.4404,0.2393,17.3447,4.5537c6.6689,5.8682,13.709,11.9487,20.7422,17.918
				c7.876-6.7886,19.7793-6.4229,27.2236,1.0693c0.4355,0.4385,10.7969,10.876,21.3047,22.3037
				c8.615,9.3691,21.3541,18.8505,26.6913,30.5072c2.6079,5.6958,3.7147,11.8407,2.5825,18.0514
				c-0.3245,1.7801-6.9899,17.9412-8.9013,16.5763c17.8144,12.7212-7.3186,49.7849-24.2595,37.7106
				c3.1521,19.0093-27.116,27.5873-40.2751,19.2291c-9.8854,5.1776-14.138,3.5922-24.1364,4.619
				c-7.0816,0.7272-11.1614,6.5527-19.0372,7.1803c-8.8129,0.7023-20.9379-5.1721-30.1549-6.4276
				c-9.5097-1.2954-23.7709-5.9638-29.0416-14.9192c-13.0267,5.6225-12.5236,15.4775-28.6246,6.1837
				c-5.2311-3.0195-11.226-6.5934-14.3683-10.9903c-4.2763,12.8118-30.5874,5.5943-40.3326,6.1144
				c-4.1587,12.8621-35.2678,14.4146-43.1519,4.8799c-3.3474,18.7614-28.5163,22.6753-42.2737,13.3705
				C399.3777,355.5106,375.2569,357.8856,362.2957,357.8857z M34.3953,254.4755c-0.0078,0.0063-0.0156,0.0127-0.0225,0.019
				C34.3796,254.4882,34.3875,254.4819,34.3953,254.4755z"/>
		</g>
	</g>
	<g>
		<g>
			<path class="st3" d="M207.7626,333.2831c-5.1723,0.0004-10.8952-1.4488-17.1322-4.3468
				c-2.4235-1.1258-5.0962-2.5221-8.0557-4.2098c-0.634,0.5811-1.3222,1.1288-2.0643,1.6386
				c-6.926,4.7579-17.0094,4.7962-23.9858,0.093l-16.2416-10.9467c-0.9337,1.0939-2.046,2.0933-3.3178,2.967
				c-4.2065,2.8908-13.2592,6.7454-26.6063,0.1035c-3.0566-1.5216-6.7693-3.7259-11.3488-6.7383
				c-0.3408-0.2243-0.6872-0.4536-1.0381-0.6873c-6.8298,1.4972-14.3953-0.2442-19.235-4.9665
				c-1.4587-1.4229-2.5481-2.9981-3.2765-4.6487c-5.1356-5.8094-24.2643-23.6178-40.516-38.1111
				c-6.8389-6.0994-6.5384-15.5286,0.6423-21.3283c-0.6111-1.8112-0.8146-3.5639-0.6716-5.4219
				c0.3299-4.3134,2.8202-8.3683,6.8307-11.1245c3.3223-2.2827,7.3713-3.4791,11.4551-3.5867
				c-0.0788-0.7882-0.0852-1.6124-0.0183-2.4861c0.3234-4.196,2.7561-8.1436,6.6896-10.8461
				c5.2813-3.6272,12.3365-4.4848,18.4424-2.68c0.6203-3.8306,2.9943-7.4702,6.981-10.0448
				c1.6456-1.0632,3.4433-1.8648,5.317-2.4122c3.3663-1.6577,8.8199-3.242,16.0024-1.6829
				c1.1023-1.4646,2.4959-2.7892,4.1534-3.9281c5.2905-3.6344,12.3585-4.4867,18.469-2.6733
				c0.7293-0.7263,1.543-1.4004,2.4345-2.013c6.3854-4.385,15.3885-4.7305,22.1743-1.1693
				c0.8714-0.9645,1.8838-1.8498,3.0246-2.6331c4.3311-2.976,9.9212-4.3603,15.7349-3.8853
				c0.6505,0.0525,1.3047,0.1253,1.9709,0.2228c5.0669-1.7999,10.8925-1.6765,15.8439,0.3451
				c3.0346-1.7395,9.3495-4.3138,17.8487-2.2452c3.9262-1.2522,9.5163-1.8877,16.27,0.4907
				c3.4121-1.2432,7.1578-1.6019,10.7449-1.107c2.9247-0.2097,5.8842,0.1414,8.6238,1.035
				c6.0061-1.3201,12.659-0.1576,17.5463,3.5076l5.6982,4.2729c0.5489-0.4896,1.138-0.9517,1.7647-1.3824
				c7.4858-5.1424,18.5405-4.7197,25.4078,0.9724c0.1704,0.1411,0.339,0.281,0.5095,0.4224
				c6.9022-2.4752,15.2429-1.3779,20.8586,3.263c0.2556,0.212,2.3016,1.9039,5.5956,4.6664
				c3.458-1.6154,7.4492-2.3135,11.5183-1.986c3.6421,0.293,6.7144,1.1243,10.1833,3.1125
				c2.5838,0.5597,5.1393,1.6138,7.5078,3.2585c4.5037,3.1272,11.8767,4.6913,16.7195,7.6967
				c7.3743,4.5765,5.5273,13.5615,10.817,18.2619c4.8665,4.3243,17.1914-2.8222,24.0009-2.1442
				c9.8167,0.9774,28.1314,8.2133,24.5293,20.969c4.0796-1.3385,8.2822-0.5443,11.783,1.9629
				c7.0392,5.0414,4.4528,9.2224,2.4829,15.7513c-3.1734,10.5182,7.4297,21.0608-2.0479,29.4861
				c-1.94,1.7246-17.3096,8.3704-16.5929,1.0172c-1.8422,18.9003-23.2416,9.084-32.5162,2.4089
				c-8.987,16.3491-25.8473,13.9834-34.5243,0.3087c-4.2468,3.5542-3.9062,10.2491-8.4059,13.7602
				c-7.1892,5.6096-22.3984,4.1822-27.2933-3.063c-1.2556,7.3722-5.3477,14.3771-12.4735,17.1884
				c-12.7393,5.0259-13.927-5.0199-23.5497-9.8808c-3.9915,4.6998-3.4724,12.0379-7.7572,17.038
				c-6.4675,7.5473-14.6956,8.5235-21.9936,2.6773c-4.5631-3.6553-3.5456-5.6732-7.3851-2.787
				c-2.6346,1.9812-3.2193,6.3617-6.2428,7.6447c-3.06,1.2984-11.5851-5.5953-11.5847-5.5957
				c-0.7843,0.8114-1.6722,1.5621-2.6553,2.2377c-4.289,2.9467-9.7627,4.3089-15.4646,3.8572
				C209.4989,333.2415,208.6385,333.2831,207.7626,333.2831z"/>
		</g>
	</g>
	<g>
		<g>
			<path class="st4" d="M36.3879,219.1085c0.9318-1.8925,0.3814-4.1509,1.1982-6.1481c0.9817-2.4004,2.923-4.0073,5.08-5.3315
				c1.6627-1.0208,0.6048-3.9208-1.3726-3.2557c-3.3246,1.1183-5.8164,3.6312-7.1763,6.8529
				c-1.0434,2.4719-1.8371,6.4865,0.7101,8.2917C35.3056,219.8567,36.1329,219.6264,36.3879,219.1085L36.3879,219.1085z"/>
		</g>
	</g>
	<g>
		<g>
			<path class="st4" d="M42.4739,254.9903c1.1662-7.7373,8.1323-13.0525,15.9022-12.3346c1.3604,0.1257,2.4209-1.2322,2.4645-2.4645
				c0.1488-4.2079,0.262-9.2067,3.9773-11.98c1.5732-1.1743,3.1678-1.4136,5.0552-1.264c1.9028,0.1508,3.2985,0.1728,4.6201-1.3839
				c1.0312-1.2147,0.4484-3.5028-1.4087-3.4009c-2.2969,0.126-4.5031-0.5459-6.8088-0.0358
				c-2.2302,0.4935-4.3083,1.7525-5.9096,3.3628c-3.8847,3.9064-4.3494,9.4806-4.4545,14.7017
				c0.8215-0.8215,1.643-1.643,2.4645-2.4645c-9.0727-0.4754-20.257,6.6879-19.217,16.8151
				C39.3354,256.2575,42.1663,257.0312,42.4739,254.9903L42.4739,254.9903z"/>
		</g>
	</g>
	<g>
		<g>
			<path class="st4" d="M69.0501,265.6456c0.4865-0.1644,0.3675-3.4895,0.4393-4.1397c0.1691-1.5313,0.4324-3.0592,0.8364-4.5468
				c0.8122-2.9911,2.3217-5.6812,4.9902-7.3662c2.2882-1.4448,5.1031-2.0524,7.6821-1.0673
				c2.3612,0.9019,4.4917,0.9687,5.8992-1.5066c1.2547-2.2067,2.0366-4.5126,3.6286-6.5541
				c1.7299-2.2182,3.8622-4.1406,6.2094-5.6848c2.3073-1.5179,4.8079-2.7113,7.4496-3.5182
				c2.8807-0.8799,5.8566-1.0732,8.7685-1.7543c1.8358-0.4294,1.8889-3.3697,0-3.7667c-6.8959-1.4495-14.9559,2.1343-20.3718,6.2505
				c-2.6061,1.9807-4.8775,4.3204-6.7349,7.0193c-0.9103,1.3226-2.2956,3.2171-2.5725,4.8307
				c-0.1959,1.1413,0.1588,0.5409-0.5014,0.4746c-0.8425-0.0847-1.7663-0.6131-2.6503-0.742
				c-6.9907-1.0196-13.1363,4.0393-15.4188,10.3296c-1.2116,3.3388-1.9385,7.8124-1.5809,11.3726
				c0.28,2.7875,2.5587,5.1357,5.372,3.7967C72.4038,268.1642,71.0603,264.9664,69.0501,265.6456L69.0501,265.6456z"/>
		</g>
	</g>
	<g>
		<g>
			<path class="st4" d="M86.8083,221.6089c0.8836-4.1822,3.7063-7.4532,7.4633-9.4071c1.8926-0.9843,4.0164-1.567,6.1486-1.6646
				c2.0953-0.0959,4.1038,0.0714,5.7905-1.4084c1.4201-1.2459,2.3634-2.9465,3.821-4.1935
				c1.5596-1.3341,3.4052-2.3848,5.3193-3.1192c2.0483-0.7859,4.2491-1.2642,6.4411-1.3546
				c2.203-0.0909,4.3005,0.4616,6.4779,0.4972c2.1506,0.0352,3.088-3.1041,1.1199-4.1346
				c-4.111-2.1524-10.0492-1.4137-14.3064-0.0465c-4.8398,1.5543-8.1006,4.326-11.4588,7.9755
				c-1.4576,1.584-4.6762,0.9406-6.7714,1.4056c-2.3069,0.512-4.6005,1.489-6.5718,2.7936
				c-4.0131,2.6559-7.0981,6.6223-7.948,11.4229C81.82,223.275,86.1849,224.5594,86.8083,221.6089L86.8083,221.6089z"/>
		</g>
	</g>
	<g>
		<g>
			<path class="st4" d="M132.332,245.973c-1.0174-7.2503,9.4782-11.4536,14.9096-13.296c3.6065-1.2234,7.3513-2.076,11.1487-2.403
				c2.1494-0.1851,7.496-1.1069,8.6586,1.4146c0.6707,1.4547,2.7783,1.4898,3.8034,0.4901
				c6.0433-5.8934,16.1326-6.7426,23.29-2.4402c0.8857,0.5324,2.2478,0.4104,2.9598-0.3819
				c6.2689-6.9752,18.1062-7.2119,25.1294-1.2699c2.2572,1.9097,5.4377-1.1339,3.2925-3.2925
				c-8.2852-8.3368-24.1143-7.4995-31.876,1.1083c0.9866-0.1273,1.9732-0.2546,2.9598-0.3819
				c-9.0381-5.4531-21.6107-4.2094-29.1802,3.2334c1.2678,0.1634,2.5356,0.3267,3.8034,0.4901
				c-1.8406-3.9492-6.9339-4.081-10.6793-3.91c-5.3723,0.2453-10.7496,1.2947-15.7738,3.2227
				c-4.5034,1.7282-9.2899,3.983-12.7471,7.4344c-2.8113,2.8066-5.4318,7.5386-2.6545,11.2279
				C130.507,248.7211,132.591,247.8185,132.332,245.973L132.332,245.973z"/>
		</g>
	</g>
	<g>
		<g>
			<path class="st4" d="M160.9374,189.0689c7.4214-5.9315,20.0331-7.831,28.3558-2.6966c0.818,0.5047,1.9641,0.3297,2.6341-0.3399
				c4.4153-4.4124,11.4176-6.9106,17.6279-6.5353c5.3793,0.3251,13.0234,7.6884,17.5458,1.422
				c1.2989-1.7998-1.1325-3.4937-2.7471-2.7471c-3.6489,1.6875-6.5995-1.1151-9.9274-2.3123
				c-2.8541-1.0267-5.9999-1.1126-8.981-0.7361c-6.1104,0.7717-12.2578,3.3733-16.5923,7.8347
				c0.878-0.1133,1.7561-0.2266,2.6341-0.3399c-5.2312-3.1215-11.7441-3.6966-17.6838-2.9429
				c-5.611,0.712-11.9244,2.6415-15.2097,7.5851C157.5829,188.7818,159.7115,190.0486,160.9374,189.0689L160.9374,189.0689z"/>
		</g>
	</g>
	<g>
		<g>
			<path class="st4" d="M108.7376,217.42c-0.0909,0.0476-0.1819,0.0951-0.2728,0.1427c0.6242,0.0805,1.2483,0.1611,1.8725,0.2416
				c-0.0506-0.0443,3.4967-3.1391,3.7909-3.3439c1.2476-0.8687,2.603-1.5811,3.9796-2.2211c3.084-1.434,6.4032-2.6108,9.7188-3.3757
				c3.1522-0.7273,6.9923-1.1884,9.8507,0.6998c2.7579,1.8218,4.0294,5.3145,6.4482,7.537c1.0273,0.944,2.7299,0.829,3.4571-0.4455
				c2.5425-4.4564,6.3013-7.9424,10.899-10.2164c3.4187-1.6909,10.7991-4.5613,13.7956-0.8537
				c0.6359,0.7868,1.9419,0.8083,2.7586,0.3559c1.3121-0.7268,2.5432-1.539,3.7879-2.3731c2.2024-1.476,0.3118-4.5348-2.0425-3.4944
				c-1.3757,0.6079-2.7232,1.2146-4.0432,1.9363c0.9195,0.1187,1.8391,0.2373,2.7586,0.356
				c-4.0526-5.0711-12.3739-2.862-17.3858-0.7432c-6.0313,2.5497-11.2786,6.9726-14.3293,12.8107
				c1.1524-0.1485,2.3047-0.297,3.4571-0.4455c-3.5075-3.1545-5.0008-7.6303-9.8224-9.2515
				c-4.5355-1.525-9.6432-0.3786-14.0341,1.091c-4.397,1.4716-8.8932,3.2501-12.494,6.2434
				c-1.5596,1.2964-6.8806,7.4402-2.0539,8.3168c0.6945,0.1261,1.3645-0.087,1.745-0.7101c0.0525-0.086,0.105-0.172,0.1575-0.2579
				C111.5297,218.1197,109.9862,216.767,108.7376,217.42L108.7376,217.42z"/>
		</g>
	</g>
	<g>
		<g>
			<path class="st4" d="M66.6465,301.3461c-4.9254-2.7971,3.2984-7.5334,5.4795-8.6531c3.9592-2.0324,8.3132-3.3188,12.6992-4.0165
				c1.9478-0.3099,1.5129-3.651-0.4694-3.4682c-6.6396,0.6122-13.2286,2.7327-18.55,6.8647
				c-3.793,2.9452-6.4087,9.3643-0.8233,12.1199C66.8678,305.123,68.5107,302.4047,66.6465,301.3461L66.6465,301.3461z"/>
		</g>
	</g>
	<g>
		<g>
			<path class="st4" d="M279.6009,216.315c3.0813-4.6162,6.6516-9.0513,11.2125-12.2973c2.1421-1.5245,5.0017-3.141,7.7377-2.6668
				c2.5146,0.4359,4.2274,2.3154,6.9291,1.3149c2.028-0.751,2.9141-2.8529,4.7422-3.8177c2.0189-1.0655,4.7538-0.4586,6.912-0.2109
				c2.4865,0.2854,4.9485,0.4594,7.4058-0.139c1.7895-0.4358,5.6304-2.4754,6.8212-0.1102
				c0.9979,1.9819,3.6015,0.4776,3.3128-1.3966c-0.3656-2.3732-2.6373-3.6643-4.8606-3.9062
				c-3.0606-0.333-5.808,1.444-8.8512,1.4273c-5.7788-0.0317-10.9267-2.096-15.5063,2.5567
				c-0.3355,0.3409-0.698,0.9468-1.1375,1.166c-1.0517,0.5246-1.6112-0.0831-2.5463-0.472c-1.3465-0.56-2.7128-0.9074-4.1849-0.8852
				c-3.1003,0.0467-6.1232,1.4198-8.631,3.1596c-5.2011,3.6082-9.7852,8.7003-12.6881,14.3296
				C275.1253,216.5839,278.222,218.3808,279.6009,216.315L279.6009,216.315z"/>
		</g>
	</g>
	<g>
		<g>
			<path class="st4" d="M225.6048,199.6864c4.3619-3.9737,8.5631-8.5281,14.2957-10.4959c2.8768-0.9875,6.0143-1.3623,8.9983-0.6499
				c2.9,0.6923,4.9167,2.6362,7.3291,4.2302c1.8692,1.235,4.1784,2.0333,5.942,0.1547c1.6262-1.7321,2.4639-3.4619,4.6839-4.6302
				c1.9615-1.0322,4.2076-1.4949,6.4189-1.3711c2.4916,0.1395,4.2418,1.2793,6.4316,2.2662c1.9904,0.8971,3.604-1.248,2.2722-2.9448
				c-2.9894-3.8088-9.5941-4.1082-13.866-2.9159c-2.4199,0.6754-4.7012,1.9112-6.5333,3.6378
				c-0.5235,0.4933-1.685,2.5993-2.2683,2.808c-0.4315,0.1543-2.7779-1.9024-3.2363-2.2375
				c-11.6263-8.4985-25.1585,0.237-32.9978,9.6182C221.6113,198.9075,223.8785,201.259,225.6048,199.6864L225.6048,199.6864z"/>
		</g>
	</g>
	<g>
		<g>
			<path class="st5" d="M158.8414,196.8958c-5.6776,0.9805-10.7312,4.1404-14.8513,8.0797
				c1.0758,0.4456,2.1517,0.8913,3.2275,1.3369c-0.5435-4.294,3.6745-7.0941,7.0089-8.879c1.882-1.0074,0.9853-3.9573-1.0709-3.9539
				c-6.3889,0.0107-12.6138,1.7671-18.2541,4.7103c1.0376,1.0376,2.0751,2.0751,3.1127,3.1127
				c2.0509-4.1782,6.3161-6.119,10.2838-8.1093c4.1163-2.0648,7.9878-4.2619,10.7948-8.0082
				c0.6479-0.8647,0.2735-2.1431-0.37-2.8672c-3.1984-3.5986-8.2807-0.1224-11.397,1.7453
				c-4.6456,2.7842-9.0154,6.0244-13.1042,9.5725c1.1534,1.1534,2.3068,2.3068,3.4602,3.4602
				c1.4571-1.4781,2.9141-2.9563,4.3712-4.4344c1.0545-1.0697,2.3444-2.145,2.821-3.6261c0.9563-2.9721-1.661-5.2278-4.4511-5.2126
				c-6.1386,0.0333-10.3946,6.7309-10.6683,12.2109c-0.1279,2.5616,3.602,3.5031,4.8056,1.3016
				c1.4113-2.5815,0.8607-6.032-1.8482-7.5691c-2.6576-1.5079-6.02-0.2457-7.4107,2.3425c1.1675-0.3061,2.3349-0.6122,3.5024-0.9184
				c-3.8574-1.916-8.1061-1.8995-12.0948-0.3354c-2.1123,0.8283-4.0409,1.9915-5.8787,3.3117
				c-1.7178,1.234-3.3288,2.8896-5.2934,3.7164c-1.8677,0.786-4.0859,0.5197-6.0731,0.8403
				c-1.9533,0.3152-3.8198,0.9055-5.6253,1.7113c-3.6634,1.635-6.5789,4.1426-8.9961,7.3143
				c-1.585,2.0799,1.9532,4.827,3.6442,2.8118c2.1509-2.5632,4.8229-4.6519,7.9528-5.889c3.2678-1.2916,6.688-0.7831,9.9661-1.7616
				c6.5948-1.9684,11.9679-11.3444,19.8142-7.2993c1.2092,0.6234,2.8006,0.342,3.5024-0.9184
				c0.2146-0.3854,0.7392-0.613,0.3846,0.0394c1.6019,0.4339,3.2037,0.8677,4.8056,1.3016
				c0.1327-2.7953,1.7637-5.5254,4.3365-6.7548c0.2766-0.1322,2.7562-0.871,0.5281-1.4094
				c-0.237-0.0573-1.7027,1.7673-1.8518,1.9221c-1.2345,1.2814-2.469,2.5627-3.7035,3.8441
				c-2.2018,2.2853,1.1181,5.5442,3.4602,3.4602c2.8796-2.5624,5.8975-4.9331,9.1145-7.0594
				c1.0225-0.6758,7.5851-5.4841,8.5804-4.3726c-0.1233-0.9557-0.2466-1.9115-0.3699-2.8672
				c-5.4503,7.3298-16.6962,7.4246-20.9215,16.2093c-0.9753,2.0276,1.0207,4.2258,3.1127,3.1127
				c5.0092-2.6651,10.3167-4.0065,15.9575-4.3956c-0.357-1.3179-0.7139-2.6359-1.0709-3.9539
				c-4.6054,3.0561-9.6517,6.8658-8.5808,13.0457c0.2519,1.4539,2.2216,1.7502,3.16,0.8343
				c3.7376-3.6481,8.1514-5.9512,12.9876-7.8154C161.4834,199.1276,160.7859,196.56,158.8414,196.8958L158.8414,196.8958z"/>
		</g>
	</g>
	<g>
		<g>
			<path class="st5" d="M128.6395,195.7499c0.4998,0.9392,1.4654,1.25,2.2168,1.946c0.6205,0.5748,1.2085,1.2482,1.715,1.9256
				c0.4263,0.5702,1.0845,0.893,1.7853,0.585c0.6147-0.2702,1.0637-1.0016,0.8278-1.6866
				c-0.4216-1.2242-1.0723-2.2469-2.0674-3.0847c-1.0572-0.8901-2.33-1.8355-3.7632-1.4412
				C128.5864,194.2052,128.2793,195.0733,128.6395,195.7499L128.6395,195.7499z"/>
		</g>
	</g>
	<g>
		<g>
			<path class="st6" d="M240.9346,180.8465c5.995-0.8528,11.4709-0.4197,15.9466,4.1767c2.2114,2.271,3.841,2.2038,6.6028,0.9792
				c1.6476-0.7306,3.3904-1.267,5.1557-1.6259c1.6631-0.3382,3.4566-0.2899,5.0376-0.9102c1.8503-0.7261,2.0103-3.26,0-3.9324
				c-3.1812-1.0642-7.4356,0.2701-10.4437,1.4344c-0.7265,0.2812-1.4287,0.6422-2.1558,0.9176
				c-0.9923,0.3758-0.4995,0.446-1.0951-0.4697c-0.7096-1.0909-2.4984-2.1171-3.5788-2.7532
				c-4.7963-2.8241-11.8241-4.0056-16.872-1.1434C237.5974,178.6163,239.0211,181.1187,240.9346,180.8465L240.9346,180.8465z"/>
		</g>
	</g>
	<g>
		<g>
			<path class="st6" d="M302.2502,187.3742c3.2643,0.6977,6.4198,0.8471,9.5168,2.2702c2.5779,1.1845,4.7807,3.8084,7.5466,4.4118
				c5.8124,1.2681,15.2958-1.9172,19.08,4.2723c0.5841,0.9554,1.8326,1.2994,2.816,0.7384
				c2.0101-1.1467,3.7748-0.5426,5.8048,0.1847c1.7882,0.6407,2.7797-1.7355,1.7179-2.951
				c-2.4225-2.7732-6.6523-2.5414-9.6004-0.788c0.9387,0.2461,1.8774,0.4922,2.816,0.7384
				c-4.3166-6.7806-12.6901-5.4234-19.5852-5.4194c-1.0596,0.0006-2.1904,0.1218-3.1784-0.3843
				c-0.7663-0.3925-1.4759-1.1079-2.187-1.5981c-1.3638-0.9401-2.8233-1.7132-4.3506-2.3509
				c-3.1531-1.3165-6.9881-2.3325-10.3965-1.5948C301.0305,185.1672,301.0258,187.1125,302.2502,187.3742L302.2502,187.3742z"/>
		</g>
	</g>
</g>
<g id="Layer_2">
	<path class="st7" d="M368.0604,109.808c0.0796-0.161-12.9848,0.6448-13.3058,0.6159c-3.4624-0.3123-8.0826-2.3996-11.5083-1.0049
		c-1.7593,0.7162-1.7425,1.4583-3.9562,1.486c-2.2306,0.0279-5.3046-1.7283-7.4674-2.3415c-3.8155-1.0817-3.9059,0.45-7.1103,1.6958
		c-2.5079,0.9749-4.8501-1.6558-7.7266-1.2783c-2.8788,0.378-4.0016,1.778-7.4174,1.6484
		c-2.1169-0.0803-4.3316-0.7746-6.4703-0.9588c-4.969-0.4279-10.3394,1.1794-15.1516,0.1594
		c-1.5498-0.3285-2.4678-0.7771-4.125-0.4938c-0.5111,0.0874-4.7649,2.0894-4.9526,1.2506
		c-0.4872-2.1767-3.6763-2.5612-4.7713-0.6873c-0.8897-0.3882-1.7792-0.7763-2.6689-1.1645
		c-2.2086-0.9638-5.2974,1.1828-3.6625,3.6627c6.9713,10.5745,8.4446,23.2956,13.5158,34.669
		c-2.3604,1.1705-1.5866,5.5375,1.3788,5.3506c11.9379-0.7525,23.9983,0.1313,35.9607,0.0497
		c11.9659-0.0816,23.9247-0.4931,35.8857-0.8173c1.3325-0.0362,2.1463-0.8477,2.6273-2.0004
		c5.1686-12.3855,10.3398-24.7693,15.5588-37.1335C373.9978,109.4253,369.624,106.6461,368.0604,109.808z"/>
	<path class="st10" d="M335.6229,46.4082c0.4651-1.9503-1.2036-3.4754-3.096-3.096c-1.8158,0.364-3.7203,0.7991-5.5866,0.6242
		c-1.7933-0.1681-3.2596-1.1335-4.9484-1.6132c-1.4556-0.4135-2.914-0.3952-4.2847,0.0018
		c-0.1734-0.0474-0.3526-0.0795-0.5405-0.0756c-1.1902,0.025-2.4415,0.624-3.1919,1.5536
		c-0.0014,0.0017-0.0022,0.0036-0.0037,0.0053c-0.0417-0.0021-0.0834-0.0054-0.1253-0.0071c-2.4778-0.103-3.8642,3.16-2.2173,4.9226
		c-0.5102,1.7897-0.5769,3.7304-0.3671,5.661c-0.1185,1.4885,0.1692,3.0407,0.8941,4.3509
		c0.0598,0.2034,0.1181,0.4084,0.1813,0.6081c0.2715,0.8555,0.9401,1.3777,1.7763,1.5344c2.3471,1.5094,5.0741,0.5319,7.6109-0.0382
		c2.8133-0.6322,6.4097-0.8439,8.7507-2.6772c0.5204-0.4074,0.9712-0.8983,1.3871-1.4258c0.1818-0.0569,0.3633-0.1292,0.5418-0.2355
		c3.0559-1.8196,4.0215-5.0606,2.7682-8.2094C335.3218,47.6641,335.4731,47.0363,335.6229,46.4082z M320.8796,49.0094
		c-0.8922-0.2628-1.6797-0.0746-2.3602,0.5669c-1.5547,1.466-3.906-0.8789-2.3479-2.3478c1.5217-1.4347,3.5621-2.0185,5.5908-1.4208
		C323.8109,46.4111,322.9335,49.6146,320.8796,49.0094z"/>
	<path class="st7" d="M215.7046,12.3961c-0.0757-0.036-0.1475-0.0619-0.222-0.0948c-0.0075-1.3585-0.5192-2.7173-1.6224-3.7253
		c-1.2096-1.1053-3.0247-1.8029-4.9593-2.1013c-1.545-2.3622-3.8695-4.0803-6.9801-4.0135
		c-3.1443,0.0675-5.4534,1.8269-6.5641,4.3484c-10.4157,1.1788-17.2262,11.3723-14.6944,21.8504
		c1.6145,6.6808,6.4597,10.3077,11.486,14.5283c0.9178,0.7706,1.7977,1.5884,2.6445,2.44c1.7576,2.7223,3.4774,5.4056,4.7519,8.0994
		c0.5565,1.1761,1.4333,1.6842,2.3513,1.7261c1.2531,2.5067,2.2169,5.1543,2.8163,7.9032c0.4329,1.9861,3.8223,1.5909,3.6054-0.4879
		c-0.424-4.065-1.2661-7.8875-2.6653-11.4418c-0.007-0.0894-0.0027-0.177-0.017-0.2673
		c-0.8625-5.4515-2.8012-10.5251-6.0166-15.0309c-1.3545-1.8981-3.801-4.3869-5.6145-7.0267
		c-1.4905-8.2069,7.2626-11.3881,13.7784-14.5649c0.0396,1.3033,1.2953,2.5179,2.7486,2.8167c0.063,0.044,0.1248,0.09,0.1919,0.1276
		c-0.2045,0.6283-0.3279,1.2826-0.2531,2.0074c0.2771,2.6816,1.8755,5.5327,2.8734,8.0221c0.6533,1.6292,3.0877,1.048,2.6824-0.7395
		c-0.445-1.9621-1.4464-4.3211-1.5717-6.3208c-0.1214-1.939,1.2949-3.1662,2.1118-4.7705
		C217.1151,14.6017,216.9302,12.9778,215.7046,12.3961z"/>
	<path class="st10" d="M197.8027,59.9094c0.1632-0.7123,0.3005-1.4278,0.3907-2.1493c0.3865-3.0905-0.1631-3.6114-2.6058-5.1429
		c-4.0332-2.5286-17.6994-12.4426-19.3534-3.3129c-0.1661,0.917-0.4828,2.8727,0.0505,3.6952
		c0.8412,1.2974,1.7155,0.3109,2.7002,1.2642c1.8053,1.7478-0.5757,5.063-1.915,6.3649c-1.4881,1.4466-3.151,2.6913-4.8088,3.933
		c-3.2154,2.4084-7.7693,1.9215-11.656,2.1566c-3.1412,0.19-6.2548-0.0897-8.8116,1.473c-6.9096-2.266-14.166-2.8505-17.0914,3.9345
		c-4.41,10.2276-0.9,24.4282,3.2253,34.3444c0.1057,0.254,0.2101,0.5179,0.3165,0.7659c0.048,0.1122,0.1094,0.2006,0.1644,0.3004
		c0.1328,3.5149,0.2475,7.0301,0.3057,10.5441c0.0602,3.6275,0.0591,7.3746-1.2755,10.7998
		c-1.4438,3.7044-4.5291,5.4316-7.1098,8.2253c-4.3326,4.6904-5.3892,11.1465-7.5156,16.9386
		c-2.9771,8.1098-4.6836,19.9552-11.8739,25.6611c-8.3901,6.6581-30.7824,4.7795-27.893,21.7177
		c1.6947-0.4282,1.6462-1.5392,2.9067-2.6529c2.051-1.812,4.249-2.5592,6.9951-3.5062c3.6423-1.2561,8.0627-2.3211,11.5372-0.1914
		c2.5974-3.3688,6.4282-5.9255,10.4901-7.3635c2.0351-0.7205,4.8273-1.4508,6.9988-1.5599
		c1.4835-0.0745,4.2078,1.1715,5.1404,1.0689c2.114-0.2327,4.7669-3.7653,7.6663-4.907c2.9109-1.1462,8.5-2.2722,11.0907-0.0179
		c2.5687-2.3087,7.0614-4.0202,10.5013-3.8462c0.7724-4.0854,1.7638-7.5356,3.1255-11.5478
		c1.3742-4.0523,3.0017-8.0129,4.4289-12.0462c1.6852-4.7627,5.0328-8.9514,6.8604-13.7275
		c1.6323-4.2655,0.9899-8.4945,0.3841-12.8971c-1.4494-10.5327-4.095-21.4131-6.8964-31.7101
		c-0.5139-1.8888-3.3067-6.8396-2.994-8.8206c0.5647-3.5778,5.4158-3.8468,8.2745-4.8266c4.0228-1.3797,9.545-0.9955,12.122-4.5601
		c1.4286-1.9761,2.0285-4.3626,2.4572-6.7245c0.3864-2.1288-0.0408-4.068,0.2708-6.1298c0.2168-1.4342,0.7491-4.8514,2.1665-5.5349
		c1.6589-0.8,3.8255,0.9429,5.224,1.6495c-1.1175,2.3893,0.161,5.0759-0.8446,7.6907c-1.1553,3.0042-3.2286,6.2087-2.8505,9.563
		c0.1004,0.8902,9.8278-0.4109,10.8471-0.8851c1.9816-0.9218,0.1609-2.6483-0.7699-3.7297
		c-1.3873-1.6118-2.1581-2.4336-2.2355-4.7149C195.8313,66.1987,197.0749,63.086,197.8027,59.9094z"/>
	<g>
		<g>
			<g>
				<path class="st9" d="M180.7179,54.6148c-2.6568,3.9852-7.6002,11.6669-13.3253,9.5799c-0.228-0.0831-0.4839,0.02-0.6524,0.1724
					c-0.1086,0.0983-0.2172,0.1965-0.3257,0.2948c-0.2271,0.2055-0.2411,0.5611-0.1054,0.8167
					c1.2449,2.3443,2.3803,4.6393,2.3723,7.3524c0.3701-0.2124,0.7402-0.4248,1.1103-0.6371
					c-3.3273-2.1762-5.6432-6.8128-10.0099-7.0194c-0.7802-0.0369-1.1052,1.1308-0.4035,1.4896
					c2.0181,1.0318,4.4833,3.8021,3.5424,6.2136c0.4031-0.164,0.8062-0.328,1.2093-0.492
					c-6.9387-3.9327-18.0321-10.3722-25.5837-4.381c-4.7847,3.7961-6.2326,11.2269-6.2251,16.9868
					c0.0095,7.3091,2.4572,14.25,4.1611,21.2704c1.4027,5.7794,2.1933,11.9125,1.6251,17.856
					c-0.2798,2.9268-0.9138,6.137-2.5859,8.6217c-1.6044,2.384-4.4532,3.5734-6.2303,5.8248
					c-3.3539,4.2491-4.7345,10.2623-6.1923,15.3541c-1.6487,5.7582-3.0277,11.8883-6.0863,17.1008
					c-2.1189,3.6111-5.3973,6.459-8.6878,8.9763c-2.7984,2.1409-5.5377,4.1069-8.9241,5.1831
					c-5.1681,1.6424-12.2448,1.9156-16.0335,6.2903c-0.5547,0.6405,0.3441,1.5675,0.9405,0.9405
					c3.7003-3.89,10.3534-4.0773,15.223-5.5424c5.4165-1.6298,10.1929-5.4405,14.2542-9.2842
					c8.4513-7.9985,9.5228-20.1305,13.2503-30.5852c0.9132-2.5612,1.9527-5.3422,3.6849-7.4786
					c1.7067-2.1049,4.3304-3.2585,5.9452-5.4445c3.0958-4.1908,3.4369-10.2259,3.2745-15.229
					c-0.1802-5.5512-1.2456-10.9689-2.6845-16.3168c-2.0098-7.4695-4.2254-15.19-2.7412-22.9695
					c1.3257-6.9491,5.1363-12.927,12.8672-12.1197c5.699,0.5951,11.0148,3.6025,15.9176,6.3678
					c0.5004,0.2822,1.0178,0.0018,1.2093-0.492c1.2063-3.1109-1.6628-6.6947-4.323-8.0318
					c-0.1345,0.4966-0.269,0.9931-0.4035,1.4896c3.7708,0.1523,6.2774,4.8066,9.265,6.6949
					c0.4738,0.2995,1.1172-0.0904,1.1103-0.6371c-0.0374-2.9636-1.2802-5.4857-2.6841-8.0328
					c-0.0351,0.2722-0.0703,0.5445-0.1054,0.8167c0.0244-0.0227,1.5362,0.248,1.7129,0.2485
					c0.6803,0.0019,1.3578-0.1125,2.0068-0.315c1.4977-0.4673,2.8176-1.4072,3.9829-2.4342
					c2.5892-2.282,4.5107-5.1996,6.3358-8.0974C181.6813,54.58,181.0005,54.191,180.7179,54.6148L180.7179,54.6148z"/>
			</g>
		</g>
		<g>
			<g>
				<path class="st9" d="M156.6548,81.6189c7.3568,9.6898,8.2404,22.4941,11.3632,33.9061
					c1.9711,7.2031,4.0789,14.7936,2.6752,22.2983c-1.302,6.9611-6.3058,12.8577-9.2093,19.2296
					c-2.9172,6.4018-4.838,13.2719-5.3448,20.3014c-0.054,0.7483,1.1948,0.9312,1.3236,0.1791
					c1.1857-6.9242,2.6077-13.582,5.57-19.997c2.9586-6.407,7.8641-12.2618,9.2171-19.2841
					c1.3369-6.9389-0.2248-14.0008-2.0122-20.7077c-1.6583-6.2225-3.0452-12.4706-4.5458-18.7297
					c-1.4617-6.0968-3.2615-13.5291-8.0661-17.9452C157.1379,80.4215,156.2102,81.0333,156.6548,81.6189L156.6548,81.6189z"/>
			</g>
		</g>
		<g>
			<g>
				<path class="st9" d="M189.4748,79.8276c4.1839,0.0033,8.1046-0.9735,11.8958-2.7192c0.3192-0.147,0.3981-0.5404,0.3447-0.847
					c-0.4898-2.8076-0.0391-5.6347,0.0355-8.4572c0.0769-2.9077,0.2874-5.6906,1.7363-8.2878
					c0.4708-0.8439-0.8243-1.6011-1.2952-0.7571c-1.433,2.5687-1.8404,5.3264-1.9304,8.2359
					c-0.0996,3.2211-0.5504,6.4679,0.0074,9.665c0.1149-0.2823,0.2298-0.5647,0.3447-0.847
					c-3.553,1.6359-7.2184,2.5175-11.1388,2.5144C188.5096,78.3269,188.508,79.8269,189.4748,79.8276L189.4748,79.8276z"/>
			</g>
		</g>
		<g>
			<g>
				<path class="st9" d="M162.1304,87.903c5.4346-4.6265,12.2308-6.7388,19.241-7.4326c0.9517-0.0942,0.9615-1.5952,0-1.5
					c-7.44,0.7363-14.5391,2.9663-20.3017,7.8719C160.3336,87.469,161.399,88.5257,162.1304,87.903L162.1304,87.903z"/>
			</g>
		</g>
		<g>
			<g>
				<path class="st9" d="M184.1432,55.6875c-0.9207-0.4267-1.8025-0.9222-2.7381-1.3334c-1.062-0.4668-2.8788-0.8651-3.7367-1.6535
					c-0.6379-0.5863-0.2939,0.1761-0.1563-0.7005c0.1528-0.9733,0.9646-1.9362,1.5042-2.7321
					c0.9676-1.4273,1.7759-2.6953,1.9949-4.4312c-0.2781,0.2119-0.5563,0.4238-0.8344,0.6356
					c2.6432,0.7131,5.087,1.9819,7.4723,3.3013c0.4251,0.2351,1.0059-0.0567,0.9919-0.5692
					c-0.1408-5.1354,5.4244-0.9853,6.9713,0.6786c2.5442,2.7367,3.9538,6.1959,5.3284,9.6121
					c0.286,0.7107,1.4132,0.449,1.1809-0.3256c-1.4659-4.8865-4.1326-10.4391-8.8299-12.9789
					c-3.0413-1.6444-6.0977-0.792-5.969,3.0137c0.3306-0.1897,0.6613-0.3795,0.9919-0.5692
					c-2.4821-1.3729-5.0367-2.6921-7.7872-3.4342c-0.4554-0.1229-0.7817,0.2178-0.8344,0.6356
					c-0.3888,3.082-3.4627,4.9226-3.5669,8.1374c-0.0072,0.2225,0.1267,0.4406,0.3161,0.551
					c2.0405,1.1901,5.1511,2.686,7.5119,2.8613C184.3156,56.4132,184.4782,55.8428,184.1432,55.6875L184.1432,55.6875z"/>
			</g>
		</g>
		<g>
			<g>
				<path class="st9" d="M185.0377,58.2222c-0.8967,4.4496-1.4373,8.9593-2.4079,13.3976
					c-0.9718,4.4433-2.227,8.8218-3.1075,13.2849c-0.1561,0.791,0.9979,1.1296,1.2204,0.3365
					c2.4506-8.7361,4.6289-17.8099,5.3827-26.8717C186.1768,57.7509,185.1609,57.6109,185.0377,58.2222L185.0377,58.2222z"/>
			</g>
		</g>
		<g>
			<g>
				<path class="st9" d="M196.0802,54.5453c-4.404,8.812-7.4455,18.2109-9.1353,27.9125c-0.1405,0.8065,1.0539,1.1677,1.2487,0.3442
					c1.1245-4.7535,2.141-9.5288,3.6261-14.1877c1.4834-4.6535,3.4287-9.126,5.2405-13.6559
					C197.285,54.3961,196.3503,54.0049,196.0802,54.5453L196.0802,54.5453z"/>
			</g>
		</g>
		<g>
			<g>
				<path class="st9" d="M187.5692,83.0724c4.0352-0.0697,8.3725-1.8589,12.3014-2.774c4.8454-1.1285,9.7286-1.989,14.6126-2.923
					c0.9057-0.1732,0.503-1.4882-0.3754-1.3617c-4.9111,0.7075-9.7864,1.7793-14.612,2.9252
					c-3.8933,0.9246-8.58,1.485-12.1499,3.309C186.9507,82.45,187.1425,83.0797,187.5692,83.0724L187.5692,83.0724z"/>
			</g>
		</g>
		<g>
			<g>
				<path class="st9" d="M215.6952,79.7479c-6.8261,1.9348-13.4305,4.4513-20.3641,6.0554
					c-3.0324,0.7016-6.1073,1.322-9.2097,1.6131c-1.5486,0.1453-4.3622,0.6458-5.6498-0.4975
					c-0.6132-0.5445-1.5064,0.3287-0.9073,0.9074c1.1765,1.1366,3.1161,1.171,4.6454,1.1699
					c3.0779-0.0021,6.1828-0.5965,9.1836-1.2275c7.5845-1.5949,15.7372-3.6137,22.6472-7.2015
					C216.4945,80.3315,216.1801,79.6105,215.6952,79.7479L215.6952,79.7479z"/>
			</g>
		</g>
		<g>
			<g>
				<path class="st9" d="M213.9045,76.869c0.4997-1.9178,0.8149-4.5694,1.86-6.2559c1.5782-2.5467,7.3679,2.2175,8.7891,3.3891
					c0.6258,0.5159,1.4336-0.2718,0.8949-0.8949c-1.4173-1.6393-3.3195-2.7443-5.2736-3.6363
					c-1.1541-0.5268-2.9995-1.6863-4.2898-1.1548c-1.0686,0.4401-1.4481,1.8268-1.7735,2.8157
					c-0.5829,1.7717-1.068,3.5684-1.4727,5.3881C212.4563,77.3409,213.6904,77.6908,213.9045,76.869L213.9045,76.869z"/>
			</g>
		</g>
		<g>
			<g>
				<path class="st9" d="M216.1872,80.5531c1.588-1.5143,2.7971-4.9419,1.9607-7.0678c-0.2081-0.5289-1.0503-0.5015-1.0473,0.1417
					c0.0109,2.3468-0.5768,4.2483-1.7416,6.287C215.0599,80.4375,215.753,80.9671,216.1872,80.5531L216.1872,80.5531z"/>
			</g>
		</g>
		<g>
			<g>
				<path class="st9" d="M208.3693,13.0974c-3.2686,3.0647-8.1504,3.2564-11.7226,5.8228
					c-3.4737,2.4957-3.8848,6.6267-2.3361,10.4005c2.194,5.3461,6.2733,9.5569,8.3732,15.0042
					c2.6788,6.9488,4.0638,14.2793,4.4382,21.7054c0.0417,0.8271,1.3038,0.8389,1.2949,0
					c-0.0671-6.3639-1.1054-12.6683-3.0755-18.7229c-0.8809-2.7074-1.8775-5.4853-3.2399-7.9941
					c-1.2712-2.3408-2.9264-4.4556-4.3529-6.7003c-2.9326-4.6152-4.7147-10.388,1.1207-13.4366
					c3.4943-1.8255,7.3337-2.4891,10.2249-5.3538C209.5648,13.3563,208.8501,12.6466,208.3693,13.0974L208.3693,13.0974z"/>
			</g>
		</g>
		<g>
			<g>
				<path class="st9" d="M196.4073,7.6964c-8.2295-4.2011-16.3228,4.4276-17.7894,11.9782
					c-1.7657,9.0907,3.7043,17.5872,11.0097,22.5155c0.7497,0.5058,1.4298-0.6931,0.7038-1.2041
					c-6.213-4.3733-11.2749-11.4895-10.5092-19.4162c0.7233-7.4875,7.8516-16.3115,16.1651-12.8774
					C196.5572,8.9277,196.953,7.9749,196.4073,7.6964L196.4073,7.6964z"/>
			</g>
		</g>
		<g>
			<g>
				<path class="st9" d="M207.9249,15.636c2.7471,1.6569,1.1721,5.9635,1.2746,8.5453c0.0957,2.41,0.9236,4.4516,2.7927,6.0074
					c0.092-0.3486,0.1841-0.6972,0.2761-1.0457c-0.7292,0.2526-1.3111,0.7385-2.045,0.9775
					c-0.727,0.2368-0.4329,1.3183,0.3162,1.147c0.7898-0.1807,1.293-0.6494,2.0614-0.9178
					c0.4029-0.1407,0.6664-0.7226,0.2761-1.0457c-3.124-2.5868-2.2852-6.0227-2.1782-9.5627
					c0.0632-2.0919-0.3384-3.9045-2.283-4.9451C207.8643,14.501,207.3871,15.3117,207.9249,15.636L207.9249,15.636z"/>
			</g>
		</g>
		<g>
			<g>
				<path class="st9" d="M207.5751,34.8496c-1.0028,1.0425-1.5748,2.5938-3.0729,3.0604c-1.6867,0.5253-3.402-0.6531-4.8633-1.3156
					c-0.6988-0.3168-1.2396,0.5857-0.6033,1.0321c1.5775,1.1068,3.854,2.1203,5.8142,1.5445
					c1.6638-0.4887,3.1034-2.2192,3.5185-3.8596C208.482,34.8624,207.9114,34.5,207.5751,34.8496L207.5751,34.8496z"/>
			</g>
		</g>
		<g>
			<g>
				<path class="st9" d="M216.3284,32.2667c1.2959-2.3846,0.5927-5.0038-1.5199-6.6186c0.0663,0.2529,0.1326,0.5058,0.1989,0.7586
					c0.4453-0.8949,0.8761-1.5804,1.5461-2.3572c0.2943-0.3412,0.1902-0.87-0.2655-1.0058
					c-0.7676-0.2287-1.0334-1.8489-0.8708-2.5181c0.1695-0.6977,0.7838-1.3776,1.1722-1.9577
					c0.5538-0.8271,0.966-1.5762,1.2452-2.5289c0.0949-0.3238-0.1146-0.7523-0.4645-0.8181
					c-0.4431-0.0832-0.8862-0.1666-1.3293-0.25c0.1039,0.3937,0.2079,0.7873,0.3118,1.181
					c1.4895-1.9041,3.2215-5.3378,0.2511-6.8447c-2.9509-1.497-5.6034,1.2846-6.657,3.7653
					c-0.3302,0.7775,0.6599,1.4043,1.1535,0.6743c0.8505-1.2579,1.7806-3.154,3.5126-3.1186
					c0.889-0.4209,1.3945-0.0948,1.5166,0.9784c0.6664,0.5612,0.7671,1.141,0.302,1.7394
					c-0.2185,0.7135-0.7578,1.3595-1.1886,1.9496c-0.3544,0.4854,0.1434,1.0046,0.6101,1.0632
					c0.4468,0.056,0.8936,0.1122,1.3403,0.1684c-0.2138-0.2806-0.4275-0.5612-0.6413-0.8418
					c-0.609,2.1253-5.0836,7.2611-0.584,8.5188c-0.0885-0.3353-0.177-0.6705-0.2655-1.0058
					c-0.692,0.8305-1.2228,1.6498-1.6526,2.6485c-0.121,0.2812-0.0812,0.5849,0.1989,0.7586
					c1.8556,1.151,2.3264,3.366,1.3359,5.2263C215.3244,32.3207,216.063,32.755,216.3284,32.2667L216.3284,32.2667z"/>
			</g>
		</g>
		<g>
			<g>
				<path class="st9" d="M210.8071,9.6038c3.4778-2.2933-4.4224-6.6576-5.9836-7.2317c-4.017-1.4772-9.5694-0.2727-10.8001,4.3347
					c-0.1825,0.6833,0.8526,1.1733,1.178,0.4966c1.3992-2.9095,4.2888-4.3761,7.4754-3.8566
					c1.0168,0.1658,9.4135,3.7237,7.5621,5.5207C209.8641,9.2316,210.3554,9.9016,210.8071,9.6038L210.8071,9.6038z"/>
			</g>
		</g>
		<g>
			<g>
				<path class="st9" d="M201.6583,6.3456c2.8174-0.3716,5.1108,1.3809,5.9821,3.9954c0.1991,0.5974,1.2423,0.5454,1.1682-0.1581
					c-0.3615-3.4309-4.0378-5.6623-7.2951-4.9077C200.9288,5.4107,201.0412,6.427,201.6583,6.3456L201.6583,6.3456z"/>
			</g>
		</g>
		<g>
			<g>
				<path class="st9" d="M203.5611,9.6789c1.9493,0.0815,3.6187,0.5347,5.3123,1.5219c0.7061,0.4115,1.2584-0.6103,0.627-1.0726
					c-1.6796-1.2296-3.8631-1.8375-5.9393-1.5685C202.8655,8.6499,202.8198,9.6479,203.5611,9.6789L203.5611,9.6789z"/>
			</g>
		</g>
		<g>
			<g>
				<path class="st9" d="M188.8669,11.9853c-5.3637,2.1197-8.5036,8.0338-7.8481,13.6585c0.0939,0.8057,1.3542,0.8389,1.2891,0
					c-0.4231-5.4529,2.3635-9.9581,6.9722-12.6786C189.7837,12.668,189.4491,11.7553,188.8669,11.9853L188.8669,11.9853z"/>
			</g>
		</g>
		<g>
			<g>
				<path class="st9" d="M193.2206,16.0692c-5.7673,4.0364-5.6156,11.9279-2.7174,17.6745
					c4.3021,8.5301,13.0785,14.1484,14.5191,24.1227c0.1012,0.7009,1.2776,0.5368,1.2373-0.1674
					c-0.4402-7.6948-6.2642-13.248-10.7788-18.9297c-4.6159-5.8092-9.4691-16.1707-1.7308-21.7944
					C194.2881,16.5837,193.7783,15.6788,193.2206,16.0692L193.2206,16.0692z"/>
			</g>
		</g>
		<g>
			<g>
				<path class="st9" d="M139.5697,90.8352c2.0805,12.7151,6.5439,25.2435,12.5313,36.628
					c0.3956,0.7522,1.5026,0.0904,1.1333-0.6624c-5.7103-11.6401-9.6393-23.6702-12.4046-36.313
					C140.6475,89.6547,139.4365,90.0209,139.5697,90.8352L139.5697,90.8352z"/>
			</g>
		</g>
		<g>
			<g>
				<path class="st9" d="M158.6098,136.1852c-3.5806,3.2176-5.7515,7.7795-7.4877,12.189
					c-1.9291,4.8995-3.3032,10.0299-4.0128,15.2483c-0.1183,0.8697,1.1998,1.2648,1.3447,0.3707
					c1.4822-9.1434,4.3178-20.1669,11.0423-26.9214C160.0699,136.4958,159.2072,135.6483,158.6098,136.1852L158.6098,136.1852z"/>
			</g>
		</g>
		<g>
			<g>
				<path class="st9" d="M202.1505,22.038c1.7441-0.1654,3.4846-0.3602,5.2301-0.5222c0.7476-0.0694,0.7517-1.0998,0-1.166
					c-1.7618-0.1551-3.6894,0.0125-5.3882,0.52C201.3774,21.0535,201.4576,22.1037,202.1505,22.038L202.1505,22.038z"/>
			</g>
		</g>
		<g>
			<g>
				<path class="st9" d="M204.1859,26.8795c0.7397-0.7583,1.6635-1.1908,2.7063-1.3459c0.5957-0.0886,0.4575-1.0898-0.1425-1.0531
					c-1.2922,0.0791-2.4691,0.6661-3.2889,1.674C203.0532,26.6556,203.715,27.3622,204.1859,26.8795L204.1859,26.8795z"/>
			</g>
		</g>
		<g>
			<g>
				<path class="st9" d="M203.7849,33.6242c0.6624,0.2945,1.3214,0.5022,2.0451,0.5707c0.5925,0.056,0.7352-0.9481,0.1418-1.0474
					c-0.6145-0.1027-1.211-0.2316-1.7941-0.455C203.6434,32.4877,203.2569,33.3894,203.7849,33.6242L203.7849,33.6242z"/>
			</g>
		</g>
		<g>
			<g>
				<path class="st9" d="M231.7802,77.8209c-2.5514,0.513-5.2254,1.4773-7.8338,1.5734c-1.7592,0.0648-7.2568-1.9663-3.8866-3.3317
					c4.4806-1.8153,10.1386-1.5169,14.8675-1.6092c0.8744-0.0171,0.8423-1.2541,0-1.3359
					c-3.8424-0.3734-7.7677-0.0131-11.5605,0.662c-1.6049,0.2857-5.9962,0.3613-6.079,2.76
					c-0.0762,2.2065,2.493,3.7946,4.3304,4.2015c3.3755,0.7474,7.2962-0.7637,10.5124-1.6487
					C232.9557,78.8651,232.6055,77.6549,231.7802,77.8209L231.7802,77.8209z"/>
			</g>
		</g>
		<g>
			<g>
				<path class="st9" d="M231.1347,79.2021c0.7111,6.927,2.0964,13.8161,3.0881,20.7099
					c0.9349,6.4992,1.7831,13.0109,2.5742,19.5292c1.6347,13.4676,2.9603,26.9724,4.7334,40.423c0.1014,0.769,1.315,0.8026,1.2363,0
					c-1.3346-13.6188-2.8504-27.2266-4.5194-40.8086c-0.7505-6.1073-1.5634-12.2063-2.4541-18.2947
					c-1.0561-7.2189-1.929-14.5993-3.6342-21.6975C232.0249,78.505,231.0737,78.6078,231.1347,79.2021L231.1347,79.2021z"/>
			</g>
		</g>
		<g>
			<g>
				<path class="st9" d="M234.8861,73.2296c0.4696,6.7321,1.9864,13.505,3.065,20.1645c1.05,6.4822,2.0916,12.9657,3.1329,19.4493
					c2.1562,13.4256,4.2644,26.8652,6.6957,40.2442c0.1489,0.8193,1.3593,0.4611,1.2374-0.3411
					c-2.0235-13.3083-4.2616-26.5858-6.4398-39.8696c-1.0371-6.3248-2.0743-12.6495-3.1192-18.973
					c-1.1376-6.8848-1.8945-14.0489-3.6974-20.7926C235.6344,72.6384,234.8504,72.7175,234.8861,73.2296L234.8861,73.2296z"/>
			</g>
		</g>
		<g>
			<g>
				<path class="st9" d="M248.3985,153.336c9.0175,0.4464,18.1063,0.0589,27.132-0.0412
					c9.4439-0.1048,18.8875-0.2344,28.3311-0.3655c19.2698-0.2676,38.5394-0.55,57.8094-0.8007
					c10.1843-0.1325,20.3688-0.2534,30.5535-0.3495c-0.2448-0.2449-0.4897-0.4897-0.7346-0.7346
					c-0.0002,1.5445-0.0003,3.0891-0.0005,4.6336c0.245-0.245,0.4901-0.4901,0.7351-0.7351
					c-37.4526,1.1397-74.9062,2.2522-112.3572,3.4449c-10.606,0.3378-21.212,0.6755-31.818,1.0133
					c-0.8724,0.0278-0.8768,1.385,0,1.3594c37.4533-1.0947,74.9055-2.2245,112.3572-3.3723
					c10.606-0.325,21.212-0.6501,31.818-0.9751c0.3972-0.0122,0.7352-0.3269,0.7351-0.7351
					c-0.0002-1.5445-0.0003-3.0891-0.0005-4.6336c0-0.3943-0.3365-0.7384-0.7346-0.7346
					c-37.7591,0.3646-75.5159,1.0006-113.2725,1.5621c-10.1645,0.1512-20.4104-0.0697-30.5535,0.6261
					C247.8625,152.5348,247.8563,153.3091,248.3985,153.336L248.3985,153.336z"/>
			</g>
		</g>
		<g>
			<g>
				<path class="st9" d="M271.6268,178.9646c-0.4892-2.7583-0.5695-5.3376-2.7363-7.3649
					c-1.7103-1.6001-4.1417-3.0083-6.4211-3.5633c-4.7059-1.1459-9.5995,0.8265-12.6995,4.4163
					c-0.6281,0.7273,0.4284,1.7928,1.0607,1.0607c2.7565-3.192,7.0214-5.0446,11.2401-4.0305
					c1.9895,0.4783,4.2594,1.776,5.7592,3.1776c1.9627,1.8341,1.918,4.2639,2.3506,6.703
					C270.3487,180.3122,271.7945,179.9101,271.6268,178.9646L271.6268,178.9646z"/>
			</g>
		</g>
		<g>
			<g>
				<path class="st9" d="M365.6828,168.2874c-4.9251,1.6841-7.5511,7.4578-5.2712,12.2351
					c2.6954,5.6481,9.1464,6.294,14.3678,3.9535c4.6328-2.0767,6.2671-7.2455,3.698-11.6758
					c-2.877-4.9612-9.4947-5.3839-14.1888-3.0427c-0.7361,0.3671-0.09,1.3916,0.6329,1.0827
					c3.8907-1.6626,9.2719-1.6815,11.9624,2.1398c2.9069,4.1286,0.9136,8.7986-3.5756,10.4426
					c-4.292,1.5718-9.1318,1.0806-11.4491-3.3465c-2.2189-4.239,0.1993-8.892,4.2142-10.8624
					C366.5851,168.9625,366.227,168.1012,365.6828,168.2874L365.6828,168.2874z"/>
			</g>
		</g>
		<g>
			<g>
				<path class="st9" d="M256.0715,173.153c0.7331,0.8024,1.5877,1.5116,2.4035,2.2284c0.344,0.3022,0.8536,0.2607,1.1035-0.1422
					c0.9228-1.4873,2.038-4.0061,0.1511-5.2639c-1.174-0.7826-3.0603-0.5524-3.2343,1.0644
					c-0.0802,0.7455,0.9749,0.7521,1.2085,0.1636c0.2293-0.5778,1.1889-0.2392,1.4603,0.1055
					c0.7162,0.9094-0.3148,2.4442-0.7991,3.2211c0.3679-0.0474,0.7357-0.0948,1.1035-0.1422
					c-0.8575-0.7565-1.7122-1.5465-2.6481-2.2056C256.2243,171.7622,255.618,172.6566,256.0715,173.153L256.0715,173.153z"/>
			</g>
		</g>
		<g>
			<g>
				<path class="st9" d="M268.7548,178.311c-0.4847-1.9844-2.3663-3.1206-4.3448-2.776c-0.9492,0.1653-0.5469,1.6111,0.3987,1.4464
					c1.1905-0.2074,2.223,0.5956,2.4996,1.7283C267.5373,179.647,268.9841,179.2501,268.7548,178.311L268.7548,178.311z"/>
			</g>
		</g>
		<g>
			<g>
				<path class="st9" d="M262.6598,172.2263c-1.8087-0.0401-3.0046,2.3043-1.6917,3.6633c1.5554,1.6101,4.0335,0.0256,5.3105-1.1374
					c0.2549-0.2321,0.2028-0.614,0-0.8531c-0.7698-0.9079-2.2575-1.5181-3.3727-0.8889c-0.4692,0.2648-0.2535,0.9936,0.2706,0.9991
					c0.9258,0.0097,1.601-0.0243,2.249,0.7429c0-0.2844,0-0.5687,0-0.8531c-0.7278,0.6602-1.8279,1.4884-2.8727,1.413
					c-1.2872-0.0929-1.0543-1.9125,0.107-1.9491C263.3901,173.34,263.3931,172.2426,262.6598,172.2263L262.6598,172.2263z"/>
			</g>
		</g>
		<g>
			<g>
				<path class="st9" d="M368.1874,182.7913c0.3023-1.1289,0.9476-2.4033,2.1041-2.8509c1.1908-0.4609,2.806,0.5855,2.2569,1.9278
					c0.1621-0.1622,0.3243-0.3243,0.4864-0.4864c-1.1142,0.2875-1.9597,0.0203-3.0094-0.3212
					c-0.7395-0.2405-1.0336,0.7654-0.4921,1.1673c0.8879,0.659,3.4904,1.2717,4.2881,0.1769
					c0.752-1.0322-0.0344-2.5589-0.8629-3.2403c-2.6196-2.1543-5.4197,0.6995-5.8275,3.3354
					C367.0258,183.179,368.0004,183.4897,368.1874,182.7913L368.1874,182.7913z"/>
			</g>
		</g>
		<g>
			<g>
				<path class="st9" d="M371.9996,174.3696c-1.0572,0.694-0.9437,2.1446-0.1034,2.985c0.5374,0.5375,1.3059,0.7058,2.0446,0.6319
					c0.7239-0.0724,1.7411-0.4376,2.2978-0.9148c0.9211-0.7896,0.3501-2.4813-0.271-3.2465
					c-0.7764-0.9566-2.1241-1.5454-3.2762-0.9104c-0.5089,0.2805-0.1543,1.0307,0.3838,0.9103
					c0.673-0.1507,1.2782-0.0315,1.8046,0.4341c0.4315,0.3816,0.9057,1.1338,0.7156,1.742c-0.191,0.6111-1.7652,0.8213-2.325,0.6828
					c-0.563-0.1393-1.132-0.9424-0.5713-1.4079C373.202,174.8585,372.5451,174.0115,371.9996,174.3696L371.9996,174.3696z"/>
			</g>
		</g>
		<g>
			<g>
				<path class="st9" d="M370.5154,171.4409c-1.0501,0.769-1.7639,1.7332-2.1381,2.9859c0.3-0.122,0.6-0.2441,0.9-0.3661
					c-1.1863-0.6322-2.1696-1.4759-2.9432-2.5784c-0.1224,0.3008-0.2448,0.6016-0.3671,0.9024
					c1.1744-0.2079,2.2657-0.5958,3.2924-1.2026c0.6587-0.3893,0.0766-1.3731-0.5974-1.022
					c-0.9629,0.5016-1.9536,0.85-3.0217,1.0399c-0.3727,0.0662-0.5823,0.5962-0.3671,0.9024
					c0.8965,1.2755,2.007,2.283,3.3856,3.0164c0.3531,0.1878,0.7839,0.0237,0.9-0.3661c0.2948-0.9897,0.8467-1.7699,1.6594-2.4006
					C371.7332,171.9524,371.0474,171.0513,370.5154,171.4409L370.5154,171.4409z"/>
			</g>
		</g>
		<g>
			<g>
				<path class="st9" d="M362.3528,174.1382c-1.0058,0.7129-2.362,2.134-1.5744,3.4655c0.7718,1.3048,2.7416,0.9743,3.8893,0.4556
					c1.1637-0.5259,2.1423-1.7782,1.516-3.0751c-0.5101-1.0562-1.9886-1.7446-2.8093-0.6416
					c-0.3503,0.4708,0.3046,0.9427,0.7336,0.7335c0.5616-0.2738,1.1695,0.2873,1.0526,0.8916
					c-0.1257,0.6497-0.9901,1.0057-1.541,1.1581c-0.5306,0.1469-1.7649,0.4104-1.8466-0.4204
					c-0.0625-0.6356,0.8144-1.3513,1.2403-1.7115C363.4807,174.5986,362.859,173.7794,362.3528,174.1382L362.3528,174.1382z"/>
			</g>
		</g>
		<g>
			<g>
				<path class="st9" d="M363.6648,180.5239c1.3628-0.1948,2.6412-0.6047,3.872-1.219c-0.2684-0.1092-0.5369-0.2184-0.8053-0.3276
					c0.1973,1.1238-1.4755,2.1255-2.3615,1.3856c0.0301,0.2331,0.0601,0.4661,0.0902,0.6992
					c0.4595-0.7854,0.5512-1.7841,0.0048-2.5539c-0.3232-0.4555-1.1956-0.1996-0.9745,0.4109
					c0.1999,0.5522,0.2807,1.0249-0.0267,1.5607c-0.117,0.2039-0.1057,0.5383,0.0902,0.6992
					c1.7743,1.4568,4.6836-0.2094,4.2346-2.4931c-0.0715-0.3639-0.5141-0.4804-0.8053-0.3276
					c-1.1293,0.5926-2.3215,1.0016-3.5741,1.2391C362.7929,179.7142,363.0671,180.6093,363.6648,180.5239L363.6648,180.5239z"/>
			</g>
		</g>
		<g>
			<g>
				<path class="st9" d="M250.3262,160.3202c1.4445,2.902,2.1266,6.6865,4.6993,8.8847c0.5919,0.5057,1.3803-0.2693,0.8577-0.8576
					c-2.1506-2.4205-2.9256-5.8562-4.6817-8.5386C250.8427,159.2605,250.0355,159.7362,250.3262,160.3202L250.3262,160.3202z"/>
			</g>
		</g>
		<g>
			<g>
				<path class="st9" d="M267.1036,160.3737c-0.9814,3.1158-1.3916,6.3381-2.575,9.404c-0.2597,0.673,0.8655,1.1527,1.1727,0.4944
					c1.4079-3.017,1.9299-6.3322,2.5549-9.5807C268.4004,159.9418,267.3371,159.6322,267.1036,160.3737L267.1036,160.3737z"/>
			</g>
		</g>
		<g>
			<g>
				<path class="st9" d="M358.4124,159.1457c1.7012,3.0585,3.2367,6.0342,4.4859,9.316c0.2577,0.677,1.3093,0.4213,1.1074-0.3053
					c-0.953-3.4296-2.5705-6.8357-4.8065-9.6178C358.8336,158.0837,358.1449,158.6648,358.4124,159.1457L358.4124,159.1457z"/>
			</g>
		</g>
		<g>
			<g>
				<path class="st9" d="M376.1718,157.5873c-2.3222,2.8887-4.2223,6.4024-4.9414,10.0623
					c-0.1479,0.7527,0.8753,1.0271,1.1413,0.3146c1.2905-3.4569,2.679-6.5787,4.748-9.6456
					C377.4977,157.7584,376.6037,157.0501,376.1718,157.5873L376.1718,157.5873z"/>
			</g>
		</g>
		<g>
			<g>
				<path class="st9" d="M283.2979,150.2912c-1.545-0.6797-1.7488-4.7436-2.083-6.1896c-0.4421-1.9134-0.9251-3.818-1.4579-5.7083
					c-1.0244-3.635-2.2132-7.2239-3.5548-10.7541c-1.2537-3.2988-2.6389-6.5494-4.1566-9.7355
					c-0.7797-1.6367-1.5929-3.2574-2.4409-4.8598c-1.1262-2.1282-1.0891-3.1679,0.9735-4.5035
					c-0.3167-0.1288-0.6333-0.2576-0.9499-0.3865c0.2459,0.5819,0.391,1.1903,0.4353,1.8253
					c0.0229,0.3032,0.1881,0.5261,0.4757,0.6249c1.2453,0.4278,2.2382,0.4164,3.4879-0.0102
					c0.2919-0.0996,0.4534-0.3249,0.4773-0.6269c0.7194-0.5431,1.4388-1.0863,2.1582-1.6294c0.248,0.1557,0.3566,0.365,0.326,0.6279
					c0.063,0.2423-0.0538,0.4966-0.02,0.7349c0.0553,0.3891-0.076,0.7768,0.1049,1.1536c0.3702,0.7711,1.1211,0.8736,1.9059,0.8096
					c1.1497-0.0936,1.9188-0.553,2.6324-1.4101c0.61-0.7327,0.9042-1.4958,2.0265-1.6159c1.5646-0.1673,2.7856,1.1433,3.9912,1.8918
					c1.1952,0.7421,2.3087,1.2026,3.742,0.9629c1.8763-0.3138,3.3272-1.7936,5.2077-2.0533
					c2.2641-0.3126,3.5469,1.1201,5.3176,2.1364c1.3581,0.7794,2.8516,1.0469,4.3994,0.7793
					c2.0334-0.3516,3.7024-1.6294,5.6199-2.3018c3.1882-1.118,4.3242,1.1793,7.0506,1.9848
					c1.4033,0.4146,2.7964,0.1019,4.0764-0.5275c2.4393-1.1996,4.3698-2.078,7.1655-2.1285
					c2.4347-0.044,4.2223,0.3889,6.2615,1.6415c1.4233,0.8743,2.6198,1.3066,4.32,1.018c1.4843-0.252,2.7387-0.9618,4.0098-1.7171
					c2.0679-1.2288,3.7216-0.8405,5.9049,0.0461c1.2021,0.4882,2.0824,0.9895,3.3814,0.6171
					c1.6946-0.4858,3.5196-2.1363,5.2919-1.9153c1.7609,0.2195,2.6512,2.3066,4.3733,2.1922
					c0.6933-0.0461,0.8864-0.3069,1.405-0.6835c1.0422-0.757,1.9228-1.3633,3.1406-1.956
					c-0.3707-0.0972-0.7414-0.1944-1.1121-0.2916c0.2596,0.5507,0.4861,1.1151,0.6792,1.6932
					c0.2537,0.9334,1.5094,0.6582,1.5956-0.216c0.1167-1.1827,3.0101-1.329,3.8416-1.2403
					c-0.256-0.1949-0.5121-0.3898-0.7681-0.5848c0.9038,3.4557-0.9304,7.1072-2.4346,10.1358
					c-1.335,2.6878-2.8791,5.2834-3.9312,8.1022c-1.7461,4.6783-3.3027,9.438-4.9521,14.1512
					c-0.7562,2.1609-1.3379,4.538-2.311,6.6039c-0.4734,1.005-1.3323,2.9819-2.4591,3.3343
					c-0.9283,0.2903-0.5365,1.7461,0.4034,1.4634c2.6259-0.7897,3.58-4.4939,4.3691-6.7459
					c1.9832-5.6598,3.9664-11.3197,5.9496-16.9795c2.2028-6.2865,8.6307-13.4464,6.9019-20.4888
					c-0.0914-0.3723-0.4215-0.5425-0.7681-0.5848c-2.0008-0.2439-5.2303,0.4535-5.4662,2.8333
					c0.5319-0.072,1.0638-0.144,1.5956-0.216c-0.2059-0.7589-0.5209-1.365-0.8422-2.0818
					c-0.1889-0.4214-0.7528-0.4662-1.1121-0.2916c-0.8671,0.4215-2.1185,0.5839-2.8318,1.2643
					c-0.8116,0.7742-0.7342,0.9931-1.9632,0.3099c-1.1262-0.6261-2.2956-1.457-3.697-1.4491
					c-1.3403,0.0075-2.7724,0.9729-3.9595,1.4835c-0.9364,0.4028-1.4774,0.7572-2.4502,0.5697
					c-0.9965-0.1921-1.9732-0.8766-2.9545-1.1741c-1.414-0.4286-2.8346-0.5973-4.2373-0.055
					c-1.9292,0.7459-3.3214,2.3217-5.5509,2.3852c-1.9348,0.0551-3.3222-1.7015-5.0975-2.2466
					c-2.1512-0.6605-4.5944-0.6259-6.7995-0.3203c-1.9594,0.2716-3.4005,0.9731-5.1259,1.8801
					c-1.5883,0.8349-2.851,1.0784-4.4502,0.1867c-0.9563-0.5332-1.7778-1.27-2.8195-1.6483
					c-4.6136-1.6755-8.3133,4.4231-12.9023,1.9018c-1.3736-0.7546-2.4806-1.8197-4.0466-2.2049
					c-1.7958-0.4417-3.3087,0.1197-4.8961,0.9146c-0.9645,0.483-1.961,1.1585-3.0852,1.174
					c-1.4457,0.0199-2.5087-1.0248-3.6424-1.7466c-1.3042-0.8303-2.9796-1.5448-4.5298-0.9065
					c-1.0457,0.4305-2.9202,3.9699-4.1822,2.6293c-0.4972-0.5282,0.2373-1.9618-0.6309-2.74
					c-0.8963-0.8034-2.4458-0.8397-3.3723-0.0919c-0.6438,0.5196-0.5262,1.2381-0.9705,1.7606
					c-0.1634,0.1922-0.6519,0.587-1.018,0.5883c-1.2084,0.0041-1.0917-1.0418-1.3884-1.8753
					c-0.1328-0.3728-0.5764-0.629-0.9499-0.3865c-0.9178,0.596-2.0421,1.3594-2.5607,2.3432
					c-0.5768,1.0944-0.0837,1.6813,0.4864,2.7282c2.5749,4.728,4.8522,9.6178,6.8067,14.6343
					c1.8101,4.6459,3.3457,9.3965,4.6147,14.2182c0.6156,2.3392,1.1074,4.7027,1.6623,7.0558
					c0.3326,1.4105,0.5833,2.2928,1.9657,2.8303C283.4401,151.4434,283.8328,150.5265,283.2979,150.2912L283.2979,150.2912z"/>
			</g>
		</g>
		<g>
			<g>
				<path class="st9" d="M268.5654,108.7853c1.2104-4.559,6.7002-2.3353,9.9452-2.7015c3.386-0.3821,5.7048-4.0925,9.2442-2.8914
					c2.9146,0.9891,4.6424,2.7454,7.9347,2.3422c2.0375-0.2495,3.9911-0.8212,6.0552-0.9103
					c1.8495-0.0798,3.7079,0.0822,5.5426,0.303c3.5403,0.4262,7.0779,1.1368,10.6583,1.0884
					c1.4982-0.0202,3.001-0.3382,4.4722-0.2903c0.6762,0.022,0.8906,0.0844,1.6405-0.1186
					c2.1974-0.5948,4.2963-0.9916,6.5265-0.2846c1.3152,0.417,2.4865,1.2408,3.9353,0.9149
					c1.1385-0.2561,1.9077-1.2145,2.9905-1.6014c2.3045-0.8234,4.1599,0.397,6.3152,1.0046
					c1.6625,0.4687,3.3707,0.5949,5.0845,0.3781c1.7935-0.2269,3.5619-1.0898,5.3663-1.0746
					c3.2399,0.0274,5.0853,1.3023,7.7667-1.2073c0.5615-0.5255-0.2551-1.2936-0.8286-0.8286
					c-1.9985,1.6202-3.6194,1.0648-5.8621,0.73c-1.3662-0.2039-2.439-0.0201-3.7532,0.3332
					c-1.9226,0.5168-3.812,0.8889-5.809,0.6083c-1.8971-0.2666-3.5523-1.2335-5.4142-1.5906
					c-1.1853-0.2273-2.4586-0.145-3.5764,0.3326c-0.5243,0.224-0.9261,0.6392-1.4274,0.876
					c-1.3875,0.6553-2.3134,0.5342-3.6735,0.0291c-1.573-0.5842-3.1-0.8766-4.7797-0.6917
					c-1.262,0.1389-2.6864,0.9199-3.9016,0.8968c-0.2802-0.0053-0.6627-0.2774-0.9735-0.3144
					c-0.8406-0.0999-1.974,0.3445-2.8341,0.4112c-1.8344,0.1424-3.6851,0.0083-5.5103-0.187
					c-3.6979-0.3957-7.3713-1.1885-11.1055-1.1691c-1.6898,0.0088-3.3122,0.2379-4.9661,0.5612
					c-2.9212,0.5709-4.9705,0.3899-7.575-1.0174c-2.2956-1.2404-4.3232-1.7642-6.7213-0.4564
					c-1.9267,1.0508-3.324,2.3701-5.6533,2.4762c-1.8329,0.0835-3.6446-0.4862-5.4805-0.2799
					c-2.2354,0.2512-4.8132,1.656-4.5476,4.2054C267.7018,109.155,268.4212,109.3282,268.5654,108.7853L268.5654,108.7853z"/>
			</g>
		</g>
		<g>
			<g>
				<path class="st9" d="M365.4232,103.9791c2.9985-0.3883,5.6468,0.9899,7.2544,3.5015c0.4345,0.6789,1.4211,0.0887,1.0726-0.627
					c-1.519-3.1193-5.1574-4.6265-8.4711-3.9391C364.6911,103.0364,364.8126,104.0582,365.4232,103.9791L365.4232,103.9791z"/>
			</g>
		</g>
		<g>
			<g>
				<path class="st9" d="M314.8871,61.845c-2.3314-2.3798-2.7879-6.9749-2.9851-10.1095c-0.2755-4.3789,0.8906-8.4698,5.8181-9.5056
					c2.6898-0.5654,4.9046,0.8047,7.3169,1.7249c2.0363,0.7768,3.6872,0.7119,5.7948,0.3549
					c1.7526-0.2969,3.8872-0.636,4.4638,1.4724c0.2473,0.9043,0.1826,1.9533,0.1272,2.8752
					c-0.1147,1.9093-0.5476,3.7738-0.8128,5.6633c-0.1,0.7124,0.9088,1.0455,1.1131,0.3069
					c0.8083-2.9225,2.8269-9.8241-0.7946-11.6768c-0.8871-0.4539-1.9166-0.4197-2.8759-0.335
					c-2.4387,0.2153-4.197,0.8569-6.6254-0.076c-2.7295-1.0486-5.0778-2.3757-8.098-1.7278
					c-4.8011,1.03-6.9736,4.9149-6.9337,9.4866c0.0326,3.7406,0.4939,9.8121,3.6588,12.3793
					C314.6311,63.1456,315.4295,62.3987,314.8871,61.845L314.8871,61.845z"/>
			</g>
		</g>
		<g>
			<g>
				<path class="st9" d="M325.8593,42.7772c0.5905-5.8419,2.4522-10.6852,5.0066-15.9232
					c-0.6613-0.2788-1.3226-0.5576-1.9838-0.8364c-0.0922,0.636-0.3692,1.1783-0.8312,1.6268
					c-0.5183,0.6043,0.1195,1.416,0.8343,1.0813c0.9-0.4214,1.4802-1.0145,1.9807-1.8718c0.7061-1.2094-1.1945-2.3164-1.8744-1.0956
					c-2.8128,5.0501-4.1126,11.2795-4.3978,17.0188C324.5527,43.602,325.7789,43.5728,325.8593,42.7772L325.8593,42.7772z"/>
			</g>
		</g>
		<g>
			<g>
				<path class="st9" d="M354.8965,104.8585c4.4073-1.9282,8.3051-7.4607,9.6909-11.9384c1.7524-5.6625-2.1769-9.1446-7.671-9.268
					c-1.0877-0.0244-1.0473,1.5642,0,1.6641c2.3238,0.2215,5.2403,0.6205,6.2061,3.1169c0.6991,1.807,0.0759,4.0002-0.6009,5.7198
					c-1.5367,3.9041-4.563,7.5872-8.2609,9.6179C353.5334,104.1701,354.1725,105.1752,354.8965,104.8585L354.8965,104.8585z"/>
			</g>
		</g>
		<g>
			<g>
				<path class="st9" d="M283.084,91.8524c-0.2311-9.6889,9.4837-13.5986,17.5013-14.894
					c8.9695-1.4492,18.0529-2.3758,27.063-3.5496c5.9019-0.7689,14.6363-1.298,16.6553-8.264
					c1.6496-5.6913-3.7397-11.0008-9.137-11.3711c-0.7832-0.0537-0.9583,1.2115-0.1862,1.3754
					c3.467,0.7358,6.9658,3.0143,7.7613,6.6996c0.984,4.5584-3.5146,7.4845-7.2879,8.5014
					c-4.0681,1.0964-8.4426,1.331-12.6126,1.8829c-4.1661,0.5513-8.3327,1.0995-12.4984,1.654
					c-6.9247,0.9217-14.6392,1.2369-20.7961,4.8923c-4.6205,2.7433-8.1222,7.6619-7.3201,13.1891
					C282.2977,92.4591,283.0955,92.3363,283.084,91.8524L283.084,91.8524z"/>
			</g>
		</g>
		<g>
			<g>
				<path class="st9" d="M300.282,74.6595c-2.5961-10.5728,12.3238-11.2901,18.9742-12.0618
					c5.9094-0.6857,13.8159-2.3331,16.6008-8.367c0.2943-0.6377-0.5293-1.4507-1.0583-0.8166
					c-2.958,3.5461-6.3441,5.6755-10.8699,6.7214c-4.4107,1.0193-8.9753,1.0299-13.4201,1.8427
					c-5.9011,1.0791-14.2711,5.618-11.3115,12.9803C299.4609,75.6146,300.4592,75.3811,300.282,74.6595L300.282,74.6595z"/>
			</g>
		</g>
		<g>
			<g>
				<path class="st9" d="M350.075,74.6878c2.5668,1.4872,5.6098,3.5733,6.3434,6.6593c0.7062,2.9707-1.8526,5.1299-4.0752,6.5908
					c-4.1266,2.7123-9.0435,4.1652-13.7813,5.3983c-6.1505,1.6007-12.2486,3.3469-18.3575,5.0997
					c-7.0275,2.0164-14.0796,3.4093-21.2198,4.914c-0.9203,0.1939-0.7211,1.6907,0.2227,1.6459
					c8.2027-0.3897,16.453-3.1597,24.2838-5.4443c6.826-1.9914,13.8163-3.6131,20.5465-5.9095
					c4.6237-1.5777,10.4319-3.6625,13.2266-7.9708c3.1927-4.922-2.4165-10.0984-6.5475-12.0812
					C349.9881,73.2402,349.3572,74.272,350.075,74.6878L350.075,74.6878z"/>
			</g>
		</g>
		<g>
			<g>
				<path class="st9" d="M343.1351,65.3252c3.4022,1.6511,8.6052,5.1997,6.2905,9.672c-1.7558,3.3924-6.7134,4.161-10.0364,4.9948
					c-8.3992,2.1075-16.9576,3.5161-25.5094,4.838c-8.1634,1.2619-16.9181,1.8451-24.8027,4.3947
					c-5.662,1.8309-11.6487,6.5902-10.6428,13.2186c0.1355,0.8927,1.5497,0.6572,1.548-0.2095
					c-0.0219-10.9256,12.8365-12.3224,21.0324-13.6654c9.182-1.5045,18.4128-2.7364,27.5495-4.508
					c4.7073-0.9127,9.4394-1.9029,14.0407-3.2611c2.5959-0.7662,5.4221-1.7887,7.2155-3.929
					c4.3473-5.1884-1.4578-10.7807-6.2247-12.6375C342.968,63.9884,342.5275,65.0303,343.1351,65.3252L343.1351,65.3252z"/>
			</g>
		</g>
		<g>
			<g>
				<path class="st9" d="M364.3511,91.8055c1.9309,1.2375,3.8716,2.7317,4.8514,4.8723c1.1631,2.5409-0.0746,3.8303-1.2543,5.9304
					c-0.3642,0.6484,0.4216,1.6121,1.1023,1.1023c5.4401-4.0741,1.0996-11.3728-4.2502-12.9707
					C364.1507,90.5459,363.806,91.4562,364.3511,91.8055L364.3511,91.8055z"/>
			</g>
		</g>
		<g>
			<g>
				<path class="st9" d="M270.1631,110.1484c2.2396,5.5612,4.6991,10.983,6.6079,16.6781
					c1.9063,5.6876,3.3528,11.4852,4.7888,17.3043c0.2101,0.8512,1.4387,0.4798,1.2939-0.3567
					c-1.0471-6.0485-2.7528-11.9921-4.7324-17.7969c-1.8834-5.5225-3.9761-11.1957-6.7909-16.3209
					C270.9913,109.0387,269.8878,109.4647,270.1631,110.1484L270.1631,110.1484z"/>
			</g>
		</g>
		<g>
			<g>
				<path class="st9" d="M276.333,110.1588c2.4048,10.4203,5.5424,20.8657,8.7929,31.0522
					c0.2433,0.7626,1.3996,0.4516,1.2035-0.3318c-2.5971-10.3723-5.4272-20.9054-8.8663-31.032
					C277.2215,109.136,276.1622,109.4189,276.333,110.1588L276.333,110.1588z"/>
			</g>
		</g>
		<g>
			<g>
				<path class="st9" d="M287.7243,111.392c2.0856,9.4396,3.7717,18.7887,4.5816,28.4358c0.0654,0.7793,1.2754,0.7977,1.2305,0
					c-0.5421-9.6243-2.0321-19.469-4.8685-28.6959C288.4823,110.5284,287.5885,110.7773,287.7243,111.392L287.7243,111.392z"/>
			</g>
		</g>
		<g>
			<g>
				<path class="st9" d="M300.3272,110.8697c1.625,3.5332,1.9466,7.2333,2.4628,11.0416c0.5376,3.9664,1.2395,7.9046,2.1236,11.8086
					c0.3517,1.5533,0.5594,6.5528,2.7927,6.7888c1.9425,0.2052,2.5424-3.0345,2.6322-4.3667
					c0.0427-0.6334-1.0193-0.7914-1.1222-0.1519c-0.0909,0.5655-0.221,1.944-0.679,2.2823
					c-1.2545,0.9266-1.2025-0.4635-1.3876-1.1886c-0.3562-1.395-0.6925-2.795-1.0063-4.2002
					c-0.6271-2.8089-1.178-5.6371-1.651-8.4761c-0.7799-4.6811-0.887-9.8217-3.381-13.9962
					C300.8062,109.9005,300.0869,110.3472,300.3272,110.8697L300.3272,110.8697z"/>
			</g>
		</g>
		<g>
			<g>
				<path class="st9" d="M317.7188,114.5125c0.1249,7.5192,0.2229,15.5995,1.8473,22.9658c0.398,1.8049,0.9117,5.7878,3.115,6.4551
					c1.9668,0.5956,3.0372-1.6422,3.4994-3.1208c0.2525-0.8076-0.9736-1.1236-1.2543-0.3458
					c-0.2006,1.3011-1.0643,1.7329-2.5911,1.2953c-0.2895-0.6695-0.5426-1.3522-0.7594-2.0483
					c-0.3666-1.138-0.6477-2.3039-0.8812-3.4758c-0.4885-2.4514-0.7175-4.9444-0.9-7.4343
					c-0.3488-4.7596-0.5245-9.5458-1.0386-14.2912C318.6857,113.865,317.7074,113.8299,317.7188,114.5125L317.7188,114.5125z"/>
			</g>
		</g>
		<g>
			<g>
				<path class="st9" d="M335.9529,119.026c-0.454,4.439-0.8637,8.8822-1.2647,13.3263c-0.2984,3.3064-1.2085,7.2755,0.1666,10.4535
					c2.6087,6.0291,7.2585-6.9218,7.7318-8.9566c0.1654-0.7109-0.8962-1.0088-1.0961-0.3022
					c-0.7504,2.6526-1.8093,5.1955-3.3069,7.517c-0.1657,0.2569-0.6714,1.2968-0.9561,1.3833
					c-0.4737-0.2706-0.9474-0.5412-1.4211-0.8118c-0.1515-0.4855-0.2381-0.9821-0.2598-1.4898
					c-0.1483-1.3324-0.0479-2.6535,0.0573-3.9859c0.4509-5.7124,0.9719-11.4184,1.3862-17.1338
					C337.0387,118.3544,336.0198,118.3722,335.9529,119.026L335.9529,119.026z"/>
			</g>
		</g>
		<g>
			<g>
				<path class="st9" d="M353.8015,113.9837c-1.1775,4.9369-2.1095,9.9379-3.1801,14.8993
					c-1.0701,4.9588-2.3629,9.9054-3.2261,14.9038c-0.1394,0.8071,1.013,1.1599,1.2487,0.3442
					c1.4059-4.8649,2.3275-9.9118,3.3559-14.8681c1.0319-4.9731,2.1131-9.9619,2.8639-14.9865
					C354.9656,113.5951,353.9701,113.277,353.8015,113.9837L353.8015,113.9837z"/>
			</g>
		</g>
		<g>
			<g>
				<path class="st9" d="M363.2664,113.2024c-3.1852,8.2108-5.1632,17.3219-6.4238,26.0205
					c-0.1201,0.8283,1.1146,1.214,1.2882,0.3551c1.7785-8.7976,4.1041-17.367,6.2317-26.0734
					C364.5396,112.7801,363.5266,112.532,363.2664,113.2024L363.2664,113.2024z"/>
			</g>
		</g>
		<g>
			<g>
				<path class="st9" d="M369.1031,110.1075c-1.1097,1.6435-1.6283,3.6474-2.287,5.5086c-0.8075,2.2817-1.5761,4.5768-2.3192,6.8802
					c-1.4369,4.4546-2.7632,8.9398-3.8941,13.4822c-0.2179,0.8752,1.0948,1.2375,1.3504,0.3723
					c1.3255-4.4872,2.639-8.9786,4.0674-13.4344c0.6895-2.1507,1.4064-4.2923,2.1368-6.4295
					c0.6867-2.0094,1.6259-4.0131,1.8683-6.1295C370.0864,109.8275,369.3488,109.7435,369.1031,110.1075L369.1031,110.1075z"/>
			</g>
		</g>
		<g>
			<g>
				<path class="st9" d="M317.7308,187.183c9.572-0.1268,19.1508-0.9153,28.7263-1.1465c9.253-0.2235,18.5096-0.2949,27.7648-0.1872
					c18.8397,0.2192,37.664,1.1918,56.4469,2.6488c0.816,0.0633,0.802-1.1901,0-1.2656
					c-18.7651-1.768-37.6006-2.6401-56.4469-2.8089c-9.2554-0.0829-18.513,0.0012-27.7648,0.2776
					c-9.5393,0.285-19.2415,0.41-28.7263,1.5209C317.1338,186.292,317.0961,187.1914,317.7308,187.183L317.7308,187.183z"/>
			</g>
		</g>
	</g>
</g>
</svg>
