<?xml version="1.0" encoding="utf-8"?>
<!-- Generator: Adobe Illustrator 20.1.0, SVG Export Plug-In . SVG Version: 6.00 Build 0)  -->
<svg version="1.1" xmlns="http://www.w3.org/2000/svg" xmlns:xlink="http://www.w3.org/1999/xlink" x="0px" y="0px"
	 viewBox="0 0 814 324" style="enable-background:new 0 0 814 324;" xml:space="preserve">
<style type="text/css">
	.st0{fill:none;stroke:#F7FAFC;stroke-width:39.9968;stroke-linecap:round;stroke-linejoin:round;}
	.st1{fill:none;stroke:#F2F6F9;stroke-width:39.9968;stroke-linecap:round;stroke-linejoin:round;}
	.st2{fill:#F7FAFC;}
	.st3{fill:#F2F6F9;}
	.st4{fill:#FFFFFF;}
	.st5{fill:#FCE0DE;}
	.st6{fill:#E6E6E6;}
	.st7{fill:#FFEFAF;}
	.st8{fill:#E93A1D;}
	.st9{fill:#303030;}
	.st10{fill:#E83D25;}
	.st11{fill:#B3B3B3;}
	.st12{fill:#666666;}
	.st13{fill:none;stroke:#E93A1D;stroke-width:1.5;stroke-linecap:round;stroke-linejoin:round;}
	.st14{fill:none;stroke:#E93A1D;stroke-width:1.5;stroke-linecap:round;stroke-linejoin:round;stroke-dasharray:2.0259,5.0648;}
	.st15{fill:none;stroke:#E93A1D;stroke-width:1.5;stroke-linecap:round;stroke-linejoin:round;stroke-dasharray:1.8929,4.7321;}
	.st16{fill:#777777;}
	.st17{fill:#172DF8;}
	.st18{fill:none;stroke:#E93A1D;stroke-width:1.5;stroke-linecap:round;stroke-linejoin:round;stroke-dasharray:1.9198,4.7994;}
	.st19{fill:none;stroke:#E93A1D;stroke-width:1.5;stroke-linecap:round;stroke-linejoin:round;stroke-dasharray:1.9197,4.7993;}
</style>
<g id="back">
	<g>
		<g>
			<path class="st2" d="M175.5775,322.8971c-9.3398,0.001-19.1699-5.4072-27.9736-11.3711
				c-1.1841,2.1758-2.7744,4.1357-4.7124,5.7617c-4.1646,3.4941-10.6982,5.958-17.8628,4.1553
				c-2.0391,0.084-4.082-0.1699-6.0552-0.7168c-3.2695,0.2646-6.8325-0.2734-10.4751-1.9951
				c-3.3267,0.6016-7.3496,0.4404-11.8677-1.4561c-0.834-0.3496-1.7637-0.7852-2.9263-1.3691
				c-1.6099-0.8086-3.7612-1.9521-6.5767-3.4951c-4.6284-2.5361-11.1938-6.2334-19.5142-10.9893
				c-0.0942-0.0537-0.1895-0.1084-0.2837-0.1621c-0.6484,0.7354-1.3589,1.4326-2.1309,2.084
				c-8.4429,7.1221-21.0596,6.0498-28.1807-2.3936c0,0-7.6045-9.0166-15.1978-18.042c-3.8047-4.5225-7.606-9.0469-10.4507-12.4463
				c-1.4453-1.7256-2.647-3.166-3.4849-4.1777c-0.4668-0.5635-0.8315-1.0078-1.0786-1.3125
				c-6.2358-7.6855-7.0815-20.3701,2.2974-28.2939c1.4136-1.1895,4.8618-3.6807,9.7085-4.4766
				c-6.3115-9.1094-8.3999-15.0322-8.0835-21.4131c0.2026-4.0879,1.5679-7.998,3.8652-11.2637
				c0.3115-2.8174,1.2153-5.5117,2.6255-7.916c0.4609-1.6318,1.123-3.1992,1.9653-4.6631c1.2251-3.6514,3.418-6.8887,6.4336-9.4189
				c4.9443-4.1494,11.3691-5.5244,17.2925-4.1816c-1.8125-3.3809-2.7271-6.8428-2.3682-11.2539
				c0.4336-5.3271,2.9976-10.2959,7.0903-13.7324c2.3857-2.002,10.4556-7.5986,21.4839-2.9502
				c0.0117-0.2256,0.0278-0.4502,0.0474-0.6758c0.4629-5.2842,3.0059-10.168,7.0693-13.5771
				c2.0337-1.7061,12.8042-9.6826,26.2036-0.1143c1.1201-1.835,2.5386-3.4941,4.2168-4.9023
				c1.9146-1.6064,11.2153-8.4844,23.1035-1.958c6.1328-4.1641,15.3828-5.4131,23.7358,0.7852
				c0.4673,0.3467,1.147,0.8721,2.0181,1.5723c1.3086,1.0508,3.1182,2.541,5.5317,4.5566c2.4634,2.0586,5.5713,4.6758,9.2905,7.8262
				c1.2285-3.7891,3.4805-7.1504,6.6011-9.7686c7.8228-6.5635,19.3335-6.1797,26.7021,0.8906
				c4.3652,4.1895,8.7773,8.4043,13.2217,12.6318c0.9268-2.4102,2.3364-4.6768,4.229-6.6514
				c7.3765-7.6973,19.4941-8.2529,27.5454-1.2666l4.4136,3.8301c1.0527-2.9297,2.8057-5.6543,5.2422-7.9072
				c7.8354-7.2441,19.9775-7.0615,27.5908,0.417c0.0679,0.0664,0.1396,0.1367,0.2075,0.2041
				c1.1514-1.9766,2.6426-3.7588,4.4258-5.2549c7.7441-6.499,19.1187-6.1943,26.5059,0.7051l0.7114,0.665
				c1.2144-1.9668,2.7441-3.7422,4.5615-5.2666c5.27-4.4229,14.1729-7.1104,23.9736-2.167c0.3096-0.2959,0.6299-0.582,0.9595-0.8594
				c5.8984-4.9473,15.917-7.0879,25.0034-0.7188c0.8369,0.5869,1.7549,1.2969,2.8882,2.2344
				c0.3467,0.2871,0.7197,0.6006,1.1191,0.9404c1.1675-2.0654,2.7036-3.9248,4.5557-5.4785
				c1.8335-1.5391,10.6265-8.0459,22.3706-2.6543c7.7734-5.3037,18.4087-4.502,25.3027,2.3037
				c0.7856,0.7764,1.5767,1.5566,2.3647,2.334c1.0132-2.249,2.4614-4.3467,4.3403-6.1611
				c7.1899-6.9473,18.2788-7.4473,26.0298-1.5166c0.9595-1.3281,2.082-2.542,3.3477-3.6045
				c3.3013-2.7686,7.6309-4.5303,12.2021-4.7051c6.2964-1.3955,13.1055,0.292,18.0767,4.9932
				c0.3706,0.3506,0.7407,0.7002,1.1118,1.0518c1.2026-2.3193,2.8594-4.4023,4.8989-6.1143
				c3.2065-2.6904,12.0527-8.3047,24.916-2.3438c2.0317,0.9414,4.1851,2.1641,6.6147,3.7627
				c1.1675-2.0684,2.7046-3.9307,4.5586-5.4863c3.7329-3.1309,10.7031-6.9453,20.7886-4.2139
				c7.4668-4.0566,16.9575-3.0088,23.374,3.1367c0.0791,0.0762,2.543,2.4336,6.7427,6.4072
				c1.1719-3.3867,3.2456-6.4307,6.0449-8.7803c1.1172-0.9355,9.4863-7.4941,20.1226-3.3916
				c3.4028,0.0479,6.9126,0.9785,10.2095,3.0293c4.4292-0.9219,9.5664-0.4258,14.894,2.5566
				c1.9053-0.3789,3.8701-0.4834,5.8315-0.2949c1.5625,0.1514,2.9844,0.4414,4.3032,0.8623c0.0298,0,0.0586,0,0.0884,0
				c4.7344,0,9.4634,1.6738,13.2407,5.0098c4.3018,3.7998,8.7119,7.665,13.1675,11.543c1.1138-1.792,2.5078-3.4141,4.1436-4.7861
				c7.6313-6.4053,18.813-6.2148,26.2222,0.4434c1.0508,0.9434,2.125,1.9092,3.2207,2.8936
				c6.4565-3.2021,14.2964-2.7227,20.3906,1.5674l19.6743,13.8496c8.3452-5.3799,19.5889-3.8389,26.1387,3.9678l31.2632,37.2578
				c6.457,7.6953,6.2036,18.9863-0.5923,26.3838c-3.228,3.5137-7.457,5.6309-11.8872,6.2666
				c-1.042,4.3369-3.4409,8.2734-6.8652,11.1475c-2.7622,2.3076-7.521,4.7041-13.1035,4.6426
				c-0.6001,0.6562-1.2446,1.2754-1.9302,1.8506c-6.8311,5.7324-15.1641,6.4355-24.8179,2.1133
				c-1.2197,2.5693-2.9858,4.876-5.2109,6.7432c-2.9126,2.4443-6.3647,4.0166-10.0488,4.623
				c-2.0942,0.8174-4.2915,1.2656-6.4946,1.3496c-1.9917,1.2637-5.166,2.8105-9.1758,3.1963
				c-1.8452,1.2236-3.9502,2.1807-6.2109,2.7617c-5.6729,3.1826-12.2637,3.4775-19.6982,0.8818
				c-1.0933,3.835-3.3154,7.3066-6.4023,9.8965c-3.1016,2.6025-6.7632,4.1025-10.5049,4.542
				c-0.7705,0.9346-1.6372,1.8135-2.5991,2.6201c-4.2051,3.5303-10.8672,6.001-18.4141,4.1094
				c-0.6279,4.7871-2.9814,9.3623-6.9717,12.7109c-2.2773,1.9121-9.395,6.8379-19.1372,3.7305
				c-1.2344,3.5156-3.3809,6.6367-6.3008,9.0869c-2.1714,1.8223-4.6172,3.1045-7.1738,3.8604
				c-3.1294,1.5156-7.7236,2.8096-13.2017,1.5283c-1.2485,2.6016-3.0449,4.9258-5.3198,6.835
				c-2.3569,1.9766-10.2183,7.4092-21.2417,3.2275c-1.1572,3.5166-3.2764,6.6816-6.1523,9.0957
				c-1.6655,1.3975-9.0117,6.8594-18.8779,3.9141c-7.791,6.4561-19.2808,6.0879-26.6455-1.0312
				c-1.8027-1.7422-3.6377-3.5156-5.5054-5.3193c-1.2344,1.9912-2.7861,3.7881-4.627,5.332
				c-2.7227,2.2861-12.6685,9.123-26.3047,1.1699c-2.6426-1.541-5.5327-3.6621-9.0786-6.666
				c-7.5308,4.8496-17.645,4.1572-24.4653-2.2129l-12.9751-12.1201c-0.9521,1.3125-2.0684,2.5146-3.3315,3.5742
				c-2.6426,2.2178-12.2905,8.8555-25.5039,1.1699c-2.1309-1.2402-4.5474-2.9141-7.6045-5.2705
				c-1.3447-1.0352-2.8115-2.2021-4.4092-3.5078c-0.2832,0.3164-0.5781,0.625-0.8848,0.9268
				c-7.4375,7.3154-19.2505,7.6855-27.1304,0.8467l-10.252-8.8975c-1.2744,2.7412-3.1387,5.1855-5.52,7.1836
				c-3.0825,2.5859-11.5874,8.0137-23.916,2.5674c-2.5884-1.1436-5.4028-2.7598-8.8569-5.0889
				c-0.2446-0.165-0.4927-0.333-0.7441-0.5059c-1.2637,2.3545-2.9639,4.4688-5.0308,6.2031
				c-7.52,6.3105-18.5073,6.2295-25.9336-0.1904c-1.9443-1.6807-3.9248-3.3926-5.9321-5.127
				c-0.7817,5.1064-3.3203,9.6572-7.2783,12.9785c-5.2388,4.3945-12.1069,5.6621-18.2715,3.9336
				c-0.1157,0.1025-0.2334,0.2031-0.3525,0.3027c-2.6934,2.2607-12.1807,8.7393-25.1348,1.2451
				c-1.1069,1.835-2.5293,3.5205-4.2612,4.9756c-6.5884,5.5342-17.8145,7.0762-26.522-0.6895l-4.8789-4.3799
				c-0.251-0.2256-0.5049-0.4541-0.7554-0.6787c-0.9707,4.2061-3.2852,8.0127-6.6318,10.8213
				C185.2889,321.3941,180.5004,322.8971,175.5775,322.8971z"/>
		</g>
	</g>
	<g>
		<g>
			<path class="st3" d="M538.1781,304.6041c-4.395,0.001-9.0796-1.4541-13.4106-5.0439c-0.7612-0.6318-1.6343-1.4141-2.7466-2.4629
				c-0.2729-0.2568-0.5645-0.5342-0.875-0.832c-0.7964,0.9814-1.6904,1.8926-2.6729,2.7178
				c-4.6821,3.9287-10.6885,5.6924-16.9253,4.9541c-1.2197-0.1436-2.4336-0.3848-3.6504-0.7236
				c-6.1035-0.1797-12.0454-2.5557-16.8301-5.2031c-4.1343-2.2871-8.9814-5.498-14.7158-9.7529
				c-0.3569,0.3457-0.728,0.6797-1.1123,1.002c-7.2715,6.1016-17.8296,6.25-25.2705,0.3584l-6.9775-5.5254
				c-1.1968,2.2744-2.833,4.3203-4.8428,6.0059c-4.499,3.7764-14.1807,8.8057-28.4648,0.0801
				c-2.2324-1.3643-4.791-3.1436-7.7461-5.3906c-7.624,2.6729-16.4385,0.5342-21.9404-6.0234
				c-1.6182-1.9287-2.8101-4.0732-3.5859-6.3193c-5.873-8.209-28.6318-34.0996-48.0283-55.2227
				c-7.3491-8.0039-6.9629-20.4111,0.8696-27.9424c0.1904-0.1826,0.3838-0.3613,0.5796-0.5352
				c-0.2637-1.5977-0.3325-3.1914-0.2285-4.8496c0.3521-5.6143,3.0059-10.8916,7.2808-14.4785
				c4.3984-3.6914,9.9985-5.21,15.3872-4.5186c0.439-5.3193,3.0054-10.2949,7.1011-13.7295
				c4.4746-3.7549,10.1504-5.2285,15.5605-4.4922c-0.3311-6.2725,2.2939-12.5947,7.5815-16.7686
				c0.208-0.1641,0.4185-0.3232,0.6304-0.4775c0.5347-0.5684,1.103-1.1074,1.7041-1.6113
				c2.1919-1.8389,6.7192-4.8008,13.1987-4.8994c1.2212-3.709,3.4375-7,6.4961-9.5664c4.0522-3.3994,9.0894-4.9336,14.0078-4.6455
				c1.1831-2.1611,2.7656-4.1055,4.688-5.7178c5.4131-4.5439,12.5923-5.7578,18.9438-3.7305
				c1.1572-2.0059,2.6631-3.8145,4.4688-5.3291c4.2148-3.5352,9.5464-5.3564,15.1514-5.1826
				c5.1753-3.1221,11.4399-3.6807,16.9976-1.7168c2.6406-2.0771,9.3306-6.1934,18.7012-3.9268
				c4.2388-1.8213,10.52-2.9355,18.2192,0.4053c3.7725-1.6523,7.9243-2.0674,11.8672-1.2979
				c1.0327-0.0703,2.0762-0.0605,3.1206,0.0332c2.4834,0.2207,4.8779,0.9014,7.0713,1.9824
				c6.3198-1.4414,13.1987,0.2197,18.2222,4.9834l16.3989,15.5469c0.2583-0.2412,0.5239-0.4766,0.7964-0.7051
				c8.0542-6.7578,19.9692-6.125,27.2622,1.4521c2.7036,2.8086,5.4263,5.6348,8.1611,8.4707
				c7.2114-2.8164,15.7095-1.2822,21.4907,4.5527c0.0884,0.0889,3.3926,3.4268,8.71,8.8906
				c3.6973-2.0469,7.9409-2.915,12.2808-2.4668c3.3301,0.3447,6.3105,1.3311,9.3057,3.0898
				c3.1836,0.748,6.3921,2.3555,9.3955,5.0645c0.2168,0.1963,0.4805,0.4395,0.7876,0.7305
				c5.1802-1.4521,12.2915-1.2871,20.9033,4.2773c0.4697,0.3037,0.9497,0.625,1.4414,0.9658
				c5.0898-2.8154,12.478-4.0176,22.311,1.292c1.5859,0.8564,3.4697,1.9639,5.7095,3.3564
				c8.4038-5.8984,20.0718-4.4824,26.793,3.5303c1.438,1.7148,2.5396,3.5996,3.311,5.5742
				c4.1772,5.54,17.2554,20.2715,28.2344,32.0615c7.0259,7.5449,7.1646,19.1953,0.3203,26.9053
				c-1.0449,1.1768-2.1997,2.2021-3.437,3.0752c0.9702,2.543,1.4629,5.3066,1.2837,8.4561
				c-0.3149,5.5439-2.9302,10.7666-7.1743,14.3281c-1.7212,1.4443-4.8213,3.5498-9.0913,4.502
				c-1.2686,2.668-3.0933,5.0586-5.3774,6.9746c-1.1572,0.9707-5.0361,3.8857-10.5894,4.5771
				c-0.0513,0.0439-0.1025,0.0879-0.1543,0.1309c-2.6519,2.2256-5.7456,3.7236-9.0493,4.4229
				c-4.2334,1.915-9.0479,2.3779-13.8745,1.3145c-1.6016,1.2871-9.4038,6.9199-19.3345,3.3799
				c-7.542,4.6875-17.4355,3.8613-24.1099-2.3047c-0.7686,0.9316-1.6318,1.8066-2.5903,2.6104
				c-4.0303,3.3818-9.1172,5.084-14.4087,4.8457c-1.5542,0.7461-3.1836,1.2793-4.8423,1.6006
				c-2.4287,1.0303-5.1162,1.6465-7.9468,1.6035c-0.2607,0.2432-0.5278,0.4805-0.8022,0.7109
				c-2.7734,2.3262-6.417,4.0234-10.4092,4.543c-0.1138,0.0996-0.228,0.1982-0.3442,0.2949
				c-3.7891,3.1807-8.4229,4.7354-13.0547,4.6777c-0.7798,0.9375-1.6499,1.8115-2.604,2.6113
				c-3.1724,2.6621-7.0679,4.2539-11.1348,4.6055c-0.085,0.0732-0.1704,0.1455-0.2563,0.2178
				c-5.959,5.001-14.0571,5.9678-20.834,3.0225c-1.0703,1.6504-2.3882,3.1475-3.9229,4.4355
				c-2.5698,2.1572-11.3027,8.1602-23.064,2.2529c-0.438,0.4375-0.897,0.8574-1.3765,1.2598
				C547.8163,302.7164,543.1849,304.6041,538.1781,304.6041z"/>
		</g>
	</g>
	<g>
		<g>
			<path class="st4" d="M597.532,124.4221c0.0206,0.6548-0.0081,0.4111,0.8543,0.5001c0.7678,0.0792,1.5355,0.1999,2.2986,0.3152
				c1.3788,0.2082,2.7574,0.4413,4.1251,0.7128c2.7423,0.5444,5.4505,1.2594,8.1113,2.1173
				c3.8294,1.2348,10.0159,3.2729,10.4194,8.0773c0.1281,1.5252,2.2028,2.8686,3.3967,1.4069
				c2.9015-3.5522,8.5958-2.5826,12.5444-1.7966c2.4388,0.4855,4.8372,1.1823,7.1539,2.087
				c2.4424,0.9538,4.6591,2.3717,7.1378,3.2268c1.629,0.562,2.8475-1.7058,1.657-2.8466
				c-4.2938-4.1147-11.5796-5.9552-17.3057-6.7704c-4.799-0.6832-10.6555-0.8937-14.0013,3.2859
				c1.1323,0.469,2.2645,0.938,3.3967,1.4069c-0.6854-7.2937-8.1459-10.2192-14.2762-12.0278
				c-2.3556-0.695-19.8335-5.5818-18.1054,0.6562C595.3295,126.1845,597.5798,125.9373,597.532,124.4221L597.532,124.4221z"/>
		</g>
	</g>
	<g>
		<g>
			<path class="st4" d="M658.262,155.0426c3.8855-2.242,7.6263-4.8302,12.2739-5.0513c3.9474-0.1877,7.8887,1.4125,9.8114,4.9893
				c0.8073,1.5018,3.2244,1.1585,3.6356-0.4752c0.7123-2.8304,3.691-4.0946,6.4202-3.6233
				c3.1136,0.5376,4.8011,2.7999,7.3307,4.3266c2.4497,1.4785,3.9832-0.0677,5.9491-1.4052c2.348-1.5975,5.5175-1.303,7.7087,0.4322
				c1.7479,1.3842,4.0673-0.7781,2.4969-2.497c-2.1834-2.3901-5.4601-3.3879-8.6312-2.8171
				c-1.8506,0.3331-2.9694,1.2742-4.5402,2.1487c-0.9676,0.5387-0.9266,0.4923-1.9587-0.1904
				c-0.8223-0.544-1.5368-1.2459-2.3727-1.7827c-5.486-3.5225-14.3831-3.0922-16.2389,4.3506
				c1.2119-0.1584,2.4237-0.3168,3.6356-0.4752c-5.7852-10.7062-20.0845-7.1097-27.6411-0.6787
				C654.6016,153.6045,656.577,156.0149,658.262,155.0426L658.262,155.0426z"/>
		</g>
	</g>
	<g>
		<g>
			<path class="st4" d="M695.1569,173.8321c6.7669-3.0212,13.6304-7.0445,21.3536-6.1444
				c5.731,0.6679,11.9907,4.7323,12.619,10.8946c1.2076-0.5002,2.4152-1.0004,3.6229-1.5006
				c-1.2145-1.0471,3.1422-1.1174,3.6508-1.0706c1.7718,0.1628,3.5508,0.4075,5.276,0.8508c3.0656,0.7877,6.3292,2.4535,7.55,5.5818
				c1.1487,2.9436,0.0215,6.3054,1.0968,9.3175c0.8275,2.318,2.499,4.0635,4.9793,4.3533c1.7851,0.2086,1.9704-2.214,0.8241-3.0427
				c-3.7585-2.717-1.5063-8.5384-3.0963-12.4052c-1.5196-3.6956-4.9374-6.1437-8.6099-7.4327
				c-3.5764-1.2553-9.2319-2.5428-12.8609-1.0442c-3.0414,1.256-4.5731,5.5266-1.8112,7.8934
				c1.2383,1.0612,3.8322,0.4939,3.6229-1.5006c-0.7986-7.6071-7.0557-13.099-14.3498-14.6081
				c-8.8108-1.8229-18.3249,2.1913-25.405,7.227C692.0059,172.3485,693.3684,174.6306,695.1569,173.8321L695.1569,173.8321z"/>
		</g>
	</g>
	<g>
		<g>
			<path class="st4" d="M640.0112,156.2637c-0.7662-8.0241-7.9738-12.7771-15.4732-13.6668c-4.638-0.5502-9.3898,0.1162-13.94,1.043
				c-4.0968,0.8344-8.0218,2.1868-10.9672,5.2723c-1.2231,1.2813,0.428,3.7048,1.9787,2.5645
				c5.5391-4.0734,13.4504-5.3452,20.1864-5.2971c6.6702,0.0476,14.0242,3.2188,15.2075,10.4912
				C637.278,158.3582,640.1754,157.9833,640.0112,156.2637L640.0112,156.2637z"/>
		</g>
	</g>
	<g>
		<g>
			<path class="st4" d="M520.2263,113.3743c4.0036-5.8224,13.1995-5.9547,19.4698-5.1692
				c5.6049,0.7021,16.8303,3.3017,16.9512,10.6051c0.0273,1.6533,2.0644,2.5121,3.2542,1.3479
				c4.3881-4.2938,10.5226-6.5625,16.6631-5.8044c5.9615,0.736,10.6411,4.2089,14.4355,8.6659
				c1.2583,1.4781,3.5701-0.4179,2.6381-2.0355c-7.5384-13.0832-26.2965-13.5272-36.4325-3.5219
				c1.0847,0.4493,2.1694,0.8986,3.2542,1.3479c-0.3177-9.3129-11.8406-12.8394-19.4094-13.8616
				c-7.8137-1.0552-18.5509-0.4373-23.1178,7.0851C517.0347,113.5128,519.2688,114.7668,520.2263,113.3743L520.2263,113.3743z"/>
		</g>
	</g>
	<g>
		<g>
			<path class="st4" d="M550.4391,146.1547c1.8738-4.5443,6.1393-7.4017,10.7981-8.5225
				c2.5208-0.6065,15.1782-2.0551,13.5325,3.3212c-0.6051,1.9768,2.5703,3.4156,3.416,1.4401
				c2.0645-4.8224,7.1118-6.8717,12.0535-5.355c1.7933,0.5504,3.0131-2.2047,1.2943-3.0701
				c-6.3753-3.2097-14.3313,0.4685-16.7638,6.9849c1.2015,0.3312,2.403,0.6624,3.6044,0.9937
				c1.5732-8.2663-8.9696-8.827-14.5485-8.1022c-7.0405,0.9148-13.4832,4.7582-16.1437,11.5497
				C547.006,147.1198,549.7504,147.825,550.4391,146.1547L550.4391,146.1547z"/>
		</g>
	</g>
	<g>
		<g>
			<path class="st4" d="M736.9748,205.403c2.6031,1.0932,4.9482,3.1843,6.9655,5.1355c2.3027,2.2273,3.8006,4.7773,3.9142,8.0462
				c0.2188,6.295-3.9249,11.4811-7.4088,16.3171c-1.1453,1.5898,1.489,3.6495,2.7363,2.1112
				c4.6802-5.7723,9.4997-12.6766,8.1342-20.5323c-0.6063-3.4882-2.5742-6.3603-5.2153-8.6493
				c-2.4901-2.1582-5.4032-4.6789-8.7647-5.0985C735.6711,202.525,735.7101,204.8719,736.9748,205.403L736.9748,205.403z"/>
		</g>
	</g>
	<path class="st5" d="M749.9548,166.0289c-3.2788-2.5261-7.1858-4.3472-10.3188-7.0432c-2.4744-2.1293-2.106-5.8662-4.2534-8.3396
		c-1.6458-1.8955-4.3479-3.1479-7.0859-3.4263c-2.0481-1.5767-4.3472-2.6896-6.802-3.3467
		c-0.6926-0.1995-1.3979-0.3594-2.1165-0.4727c-2.2468-1.3196-4.6797-2.2635-7.3108-2.6873
		c-2.626-0.4229-7.6196-1.1316-9.3374,1.448c-0.4985,0.7485-0.2175,1.6562,0.2949,2.2861c0.4316,0.5305,1.0396,0.7543,1.71,0.7046
		c0.5713-0.0422,1.1987-0.3176,1.5508-0.7981c2.2847-0.4019,4.7734-0.0835,7.1169,0.6868
		c-1.1997,0.8766-0.8645,3.2983,0.7407,3.6475c0.96,0.2089,1.9011,0.3186,2.8403,0.3781c-1.0959,1.1934-1.1414,3.3516,0.8857,3.6663
		c0.5447,0.0846,1.1426,0.215,1.7664,0.3528c0.0205,0.2808,0.0789,0.5511,0.1633,0.8134c-0.3499-0.0365-0.7-0.0735-1.0525-0.0991
		c-0.8372-0.0608-1.4888,0.3169-1.9133,0.8839c-5.0254-2.5162-12.6206-2.5988-15.5728,0.6432
		c-1.0247,1.1252-0.363,3.1855,1.2983,3.1342c3.2278-0.1,5.8328-1.5314,9.2185-0.7675c3.0662,0.6917,4.9905,3.0876,7.8286,3.9905
		c0.7603,0.2418,1.4099-0.1665,1.7166-0.7754c2.7161,3.2998,5.4475,6.5881,8.1228,9.9209c0.822,1.0242,1.9756,0.8442,2.7573,0.1506
		c0.3652,0.3044,0.8318,0.494,1.3789,0.4783c2.5437-0.0736,4.9006,0.2317,7.2178,1.353c1.1873,0.5745,2.1936,1.6111,3.4724,1.9785
		c1.7507,0.5029,2.9458,0.1172,3.9399-1.3906c0.522-0.7917,0.385-2.1765-0.3621-2.8062c-0.053-0.0446-0.1077-0.0873-0.1609-0.1316
		C750.4529,171.7025,752.3552,167.8783,749.9548,166.0289z"/>
	<path class="st6" d="M751.1768,166.8327c-2.9214-2.6055-5.7876-5.4824-9.0876-7.6077c-1.7581-1.1323-3.1404,1.2598-2.0544,2.6626
		c1.9128,2.4706,4.3411,4.5425,6.5972,6.6923c1.9019,1.8121,4.676,3.6573,5.0752,6.4271c0.3503,2.4296,3.7598,1.5367,3.9746-0.5378
		C756.0298,171.1076,753.4749,168.8825,751.1768,166.8327z"/>
	<path class="st6" d="M674.6113,140.4386c-1.7671-3.0889-6.3252-5.5597-9.4717-6.9592c-3.2109-1.4282-6.6877-2.1069-10.1367-1.5159
		c-2.7222-2.4528-5.9387-4.281-9.4863-5.2815c-3.3152-0.9351-8.5369-1.8103-11.5662,0.2871
		c-1.0347,0.7166-1.0071,2.4917,0.3694,2.8274c1.6255,0.3962,3.3066,0.1038,4.9683,0.1943c1.5947,0.0872,3.166,0.3542,4.6995,0.7985
		c1.6609,0.4811,3.2278,1.1809,4.7065,2.0768c1.5251,0.9238,2.5857,2.2041,3.9734,3.2439c1.3708,1.027,2.5793,0.3936,4.1633,0.302
		c2.1609-0.1248,4.3594,0.4348,6.3181,1.3221c3.2329,1.4647,5.8633,4.6346,9.2124,5.631
		C674.0518,143.8679,675.459,141.9203,674.6113,140.4386z"/>
</g>
<g id="Layer_2">
	<path class="st7" d="M673.0571,6.9909c-1.0654-0.7563-2.5518-0.1421-3.1938,0.8374c-0.4031,0.2823-0.8062,0.5647-1.2092,0.8469
		c-0.5134,0.1475-0.8962,0.4163-1.1677,0.7487c-0.4624,0.0746-0.9248,0.1493-1.3872,0.224c-0.5303,0.0854-0.9412,0.413-1.2363,0.837
		c-0.2393,0.0577-0.4827,0.1324-0.7283,0.2137c-0.9521-0.7252-2.2124-0.4641-2.9873,0.2913
		c-0.49-0.3625-1.0747-0.4501-1.6328-0.3351c-0.0906-0.1909-0.166-0.3822-0.2605-0.5734c-1.1516-2.3274-5.1523-0.6938-4.241,1.7881
		c1.0601,2.8862,1.9106,5.7797,2.5811,8.7788c0.0356,0.1597,0.0847,0.3066,0.1445,0.4421c-3.571,2.0212-6.8494,4.5747-9.7739,7.6335
		c-0.4553,0.4763-0.6477,0.9976-0.6643,1.5012c-0.9272,0.6832-1.8354,1.4099-2.6411,2.2029
		c-0.1919-2.8293,0.0725-5.6259,0.7217-8.4531c0.3584-1.3035,0.707-2.5049,0.9707-3.509c0.4849-1.8473-2.3582-3.2141-3.2012-1.3495
		c-1.6799,3.7164-2.499,7.5472-2.5515,11.4254c-0.3599,3.0656-0.2336,6.0308,1.0044,8.2415
		c0.0681,0.2717,0.1338,0.5436,0.2087,0.8154c0.6047,2.1912,4.0874,1.8018,4.02-0.5441c-0.1316-4.5565,9.813-9.2567,13.1255-11.2386
		c4.3813-2.6213,8.9199-4.958,13.4878-7.2333c0.5337-0.2657,0.856-0.6364,1.0249-1.0453c2.7925-0.5007,6.5337-1.135,6.4331-4.3721
		C679.8,11.851,675.4404,8.6826,673.0571,6.9909z"/>
	<path class="st7" d="M754.1865,14.5385c-1.2712-0.5065-2.2827,0.3335-2.6963,1.4089c-0.8813,0.0603-1.7612,0.5764-2.2048,1.6479
		c-1.1045,2.6683-2.2097,5.3363-3.3113,8.0059c-0.5486,1.3295-1.4707,2.9561-1.9609,4.5479
		c-8.0591-5.3894-17.3635-8.3387-26.5859-11.124c2.2388-4.6531,5.8005-7.2598,9.49-11.0461
		c1.0828-1.1113-0.2373-3.085-1.6069-2.3995c-6.2805,1.6967-10.5938,8.4869-12.699,14.2235
		c-0.397,1.0813,0.4512,2.2549,1.4565,2.5654c8.2532,2.5498,16.6047,5.3247,24.1343,9.6277
		c3.814,2.1794,7.3794,4.792,10.3977,7.9973c1.7908,1.9017,3.3313,4.718,6.3469,4.0283c5.6714-1.2972,7.6851-10.3236,7.6274-15.0966
		C762.5005,22.8174,760.1123,16.8991,754.1865,14.5385z"/>
	<g>
		<g>
			<g>
				<path class="st9" d="M654.0647,127.6624c-7.9774-6.6927-11.7977-16.8176-13.9006-26.7513
					c-2.1001-9.9204-2.3594-20.3205-0.4156-30.2886c3.7878-19.426,16.3295-35.5582,34.9016-42.8099
					c17.4189-6.8015,37.1658-5.119,52.8642,5.1474c15.6121,10.21,26.4511,27.6805,28.1673,46.3038
					c2.0137,21.8514-7.7877,43.8371-24.5812,57.747c-0.6437,0.5332,0.2765,1.4381,0.9156,0.9156
					c15.5811-12.7355,25.1182-32.4136,25.3055-52.5624c0.1801-19.3793-9.1298-38.1165-24.2328-50.1661
					c-15.0519-12.0088-34.8088-15.9164-53.3254-10.6293c-19.09,5.4509-33.8467,19.8444-39.6295,38.852
					c-3.3331,10.9554-3.7856,22.6788-1.9525,33.9485c1.8541,11.3981,5.9118,23.5039,15.1254,31.0516
					C653.8344,128.853,654.5962,128.1082,654.0647,127.6624L654.0647,127.6624z"/>
			</g>
		</g>
		<g>
			<g>
				<path class="st9" d="M645.1914,42.8753c3.1273-3.2527,5.829-6.865,9.0712-10.0234c3.1779-3.0957,6.627-5.8639,10.45-8.1237
					c3.0781-1.8195,6.2766-3.4823,9.5897-4.8318c3.2645-1.3296,7.0692-2.7356,10.6475-2.1645
					c0.8856,0.1414,1.291-1.1515,0.3795-1.3767c-4.176-1.0314-6.1811-5.1131-8.8297-8.1053
					c-2.494-2.8175-5.7565-5.1528-9.5533-5.7065c-1.6735-0.244-3.4114-0.1583-5.0305,0.3515
					c-1.8461,0.5814-3.1713,1.8505-4.7935,2.8262c-1.899,1.1421-2.8384,0.7362-4.6187-0.6494
					c-0.6092-0.4741-0.8967-0.964-1.6774-1.2342c-0.8232-0.2849-1.7496-0.2673-2.403,0.3987
					c-0.6946,0.708-0.5943,1.5574-0.3091,2.4177c0.2088,0.6299,0.8854,1.4097,0.8969,2.0688
					c0.0244,1.4066-1.3411,2.004-2.2222,2.7606c-2.6663,2.2898-4.7227,5.2495-6.0844,8.4796
					c-2.6168,6.2066-2.6686,13.3707,0.3006,19.4533c0.3562,0.7298,1.3985,0.0914,1.0776-0.6299
					c-2.9393-6.6073-2.5492-14.3188,1.007-20.6225c0.8752-1.5514,1.9288-3.0031,3.1626-4.2897
					c1.1016-1.1488,2.698-1.9526,3.6339-3.2135c0.4858-0.6545,0.605-1.256,0.4958-2.0434c-0.0724-0.522-0.4579-0.9819-0.5247-1.477
					c-0.5361-0.7084-0.2635-1.3268,0.8174-1.8552c0.4023,0.3098,0.7634,0.6599,1.0831,1.0501
					c1.933,1.9755,3.7167,2.0601,6.073,0.5984c1.7647-1.0947,3.1151-2.4028,5.2116-2.88c2.3782-0.5414,4.9178-0.0979,7.0895,0.9571
					c3.4854,1.6932,5.7109,4.7143,8.0563,7.6598c1.8348,2.3043,3.8209,4.3405,6.7614,5.0617
					c0.1265-0.4589,0.2531-0.9178,0.3795-1.3767c-7.0013-1.106-14.7845,3.3858-20.6116,6.7571
					c-7.8571,4.5459-15.4446,11.4559-20.2211,19.2268C644.2343,42.766,644.8419,43.2388,645.1914,42.8753L645.1914,42.8753z"/>
			</g>
		</g>
		<g>
			<g>
				<path class="st9" d="M715.0352,19.0018c1.1795-6.0584,5.4288-11.266,11.3113-13.3134c7.0632-2.4582,14.2272,0.998,20.597,3.8201
					c0.7599,0.3367,1.4362-0.754,0.6653-1.1384c-6.8875-3.4345-14.9934-6.7896-22.6125-3.6419
					c-5.8608,2.4213-10.1308,7.8441-10.8761,14.1497C714.0589,19.3967,714.9352,19.5153,715.0352,19.0018L715.0352,19.0018z"/>
			</g>
		</g>
		<g>
			<g>
				<path class="st9" d="M751.7154,7.9492c0.5128-0.2775,1.0516-0.0087,1.4047,0.3993c0.4789,0.5532,0.4769,1.2099,0.2327,1.8722
					c-0.3652,0.9905-1.2019,1.6672-1.7954,2.5111c-0.3208,0.4561,0.3208,1.1045,0.7776,0.7776
					c1.4353-1.0269,2.9347-3.0504,2.3432-4.9109c-0.4664-1.467-2.1303-2.511-3.5514-1.6561
					C750.4828,7.3298,751.0548,8.3066,751.7154,7.9492L751.7154,7.9492z"/>
			</g>
		</g>
		<g>
			<g>
				<path class="st9" d="M752.8568,14.2184c4.1444,3.7365,9.1253,7.6035,10.0883,13.4698
					c1.0361,6.3117-3.5082,11.4528-7.3257,15.879c-0.4952,0.5742,0.3188,1.4102,0.8411,0.8411
					c4.1706-4.5454,8.7352-10.2143,7.6973-16.8069c-0.9463-6.0105-6.0867-10.68-10.7186-14.1376
					C753.002,13.1376,752.4547,13.8558,752.8568,14.2184L752.8568,14.2184z"/>
			</g>
		</g>
		<g>
			<g>
				<path class="st9" d="M711.7578,20.2791c3.0361,2.0882,6.4283,3.7071,9.6101,5.5657c3.3307,1.9456,6.6219,3.9611,9.8677,6.0453
					c6.3656,4.0874,12.4677,8.5328,18.587,12.9746c0.5229,0.3795,1.2017-0.4898,0.6959-0.9019
					c-5.9005-4.8064-12.1984-9.132-18.6075-13.2279c-6.2585-3.9996-12.879-8.5324-19.8416-11.1947
					C711.6172,19.3672,711.4035,20.0354,711.7578,20.2791L711.7578,20.2791z"/>
			</g>
		</g>
		<g>
			<g>
				<path class="st9" d="M769.1854,50.2787c8.4949,13.7261,11.9755,30.4056,9.3242,46.3664
					c-2.0978,12.6289-7.5631,25.1012-15.6274,35.0567c-4.8613,6.0013-10.8105,11.0262-17.7194,14.5117
					c-0.7239,0.3652-0.0889,1.4299,0.6329,1.0827c12.6934-6.1055,21.8647-17.6412,27.6708-30.237
					c6.0037-13.0247,8.5628-27.3419,6.3068-41.5863c-1.4484-9.1455-4.7752-17.8798-9.7277-25.6969
					C769.7036,49.2363,768.8464,49.7309,769.1854,50.2787L769.1854,50.2787z"/>
			</g>
		</g>
		<g>
			<g>
				<path class="st9" d="M676.0663,108.0684c-4.2334,1.2132-4.3541-8.0132-4.2132-10.2603
					c0.1979-3.1564,0.9215-6.2545,1.6008-9.3337c1.216-5.5115,2.3729-11.0925,0.9993-16.6878
					c-0.161,0.2836-0.3221,0.5673-0.4831,0.8509c5.0319-1.3587,8.1263,3.4475,10.2811,7.1474
					c0.2812,0.4829,1.1688,0.4449,1.2762-0.1668c1.002-5.7052,2.0168-11.4081,3.0187-17.1134
					c0.4866-2.7713,0.9733-5.5426,1.46-8.3139c0.4147-2.3616,0.5847-5.2024,1.8602-7.3068c1.852-3.0558,5.9166-2.0136,7.5282,0.7222
					c1.4645,2.4863,1.2178,5.526,0.8977,8.2775c-0.5665,4.8697-1.4927,9.4973-3.2643,14.0783
					c-0.3537,0.9145,1.1198,1.3124,1.4691,0.405c2.1088-5.4789,3.4395-11.5989,3.5143-17.4924
					c0.0547-4.3067-2.4214-10.1823-7.7479-9.3306c-5.1903,0.83-5.3115,8.317-5.9932,12.2191
					c-1.3674,7.8272-2.7219,15.6566-4.0892,23.4837c0.4254-0.0556,0.8508-0.1112,1.2762-0.1668
					c-2.5072-4.2961-6.1702-9.3171-11.8548-7.7767c-0.3678,0.0997-0.5724,0.4885-0.4832,0.8509
					c1.9349,7.8524-1.4157,15.5669-2.4218,23.2969c-0.4276,3.2854-0.4807,6.7326,0.5608,9.919
					c0.7118,2.1778,2.4885,4.9378,5.1273,3.8564C677.079,108.9424,676.8314,107.8491,676.0663,108.0684L676.0663,108.0684z"/>
			</g>
		</g>
		<g>
			<g>
				<path class="st9" d="M710.8974,71.346c-0.7751-4.76-6.2662-5.9615-10.1906-4.2809c-4.0511,1.7348-6.418,6.3245-6.6407,10.5729
					c-0.0399,0.7607,1.2054,0.9484,1.3466,0.1823c0.5732-3.1095,1.4622-6.2515,4.0166-8.3464
					c3.209-2.6319,9.3539-2.6791,10.5189,2.1339C710.1,72.2347,710.9971,71.9583,710.8974,71.346L710.8974,71.346z"/>
			</g>
		</g>
		<g>
			<g>
				<path class="st9" d="M702.4986,81.9093c1.1915-3.1679,2.9615-6.2773,6.0826-7.8779c3.5786-1.8353,8.6624-1.7406,8.8236,3.228
					c0.0223,0.6885,1.0961,0.8979,1.2488,0.169c0.991-4.7297-3.8985-6.4976-7.7484-5.6774
					c-5.0883,1.0841-7.9455,5.1517-9.3049,9.9106C701.4327,82.2479,702.2912,82.4609,702.4986,81.9093L702.4986,81.9093z"/>
			</g>
		</g>
		<g>
			<g>
				<path class="st9" d="M708.5073,89.3487c1.3446-5.3308,7.2986-14.3731,13.7549-9.538c2.3152,1.7338,2.5505,4.8471,2.4171,7.5173
					c-0.1791,3.5846-0.9845,11.0136-6.224,7.2896c-0.5924-0.421-1.2202,0.4804-0.7527,0.9755
					c1.3508,1.4303,3.1274,2.2381,4.9946,1.2338c2.0783-1.1178,2.6057-3.6181,2.9403-5.7431
					c0.5619-3.5681,1.1006-8.052-1.2664-11.1264c-2.282-2.9638-6.7043-3.406-9.8513-1.6607
					c-3.8325,2.1255-6.1017,6.6498-6.9109,10.8043C707.4957,89.6828,708.3591,89.9364,708.5073,89.3487L708.5073,89.3487z"/>
			</g>
		</g>
		<g>
			<g>
				<path class="st9" d="M718.9395,88.6587c-1.7314,4.3506-2.6857,8.9755-4.4381,13.3279
					c-1.9873,4.9358-4.8686,8.7585-8.3895,12.6882c-0.5494,0.6132,0.2651,1.3832,0.8867,0.8867
					c7.5953-6.0677,11.0623-17.4834,12.9241-26.6318C720.0557,88.276,719.1795,88.0557,718.9395,88.6587L718.9395,88.6587z"/>
			</g>
		</g>
		<g>
			<g>
				<path class="st9" d="M674.2734,110.2001c4.2999-2.2936,10.1681-0.6334,14.6378,0.4042
					c4.8816,1.1332,9.6556,2.7733,14.1874,4.914c0.6953,0.3284,2.6597,0.9644,3.048,1.6901
					c-0.2609,1.7982-1.0116,2.2052-2.2521,1.2207c-0.5284-0.2325-1.0542-0.4704-1.5776-0.7139
					c-2.1121-0.9752-4.1906-2.0224-6.3276-2.9433c-3.803-1.6389-7.6604-2.7882-11.8331-2.3966
					c-0.7714,0.0724-0.7975,1.2645,0,1.2246c6.9625-0.3478,12.8806,3.3445,19.0272,6.0457c1.3198,0.58,3.1324,1.4359,4.3256,0.1718
					c1.2537-1.3282,0.3118-3.1485-0.9166-4.0575c-2.1238-1.5715-5.0255-2.5218-7.4757-3.472
					c-3.0631-1.1879-6.2057-2.1568-9.4057-2.9007c-4.8408-1.1254-11.4145-2.9312-15.9521-0.0674
					C673.2037,109.6702,673.693,110.5097,674.2734,110.2001L674.2734,110.2001z"/>
			</g>
		</g>
		<g>
			<g>
				<path class="st9" d="M697.5233,79.3348c-0.7496,0.6931-1.1681,1.7166-1.049,2.7368c0.0932,0.7982,1.2485,0.8424,1.2773,0
					c0.0232-0.6777,0.2186-1.3286,0.6417-1.8668C698.872,79.5958,698.1202,78.7827,697.5233,79.3348L697.5233,79.3348z"/>
			</g>
		</g>
		<g>
			<g>
				<path class="st9" d="M702.3033,84.9326c-0.0448,0.6072-0.2407,1.1475-0.4796,1.7035c-0.2462,0.5727,0.4183,1.2309,0.9249,0.7136
					c0.6208-0.634,0.8819-1.5396,0.7735-2.4171C703.4272,84.1659,702.3622,84.1335,702.3033,84.9326L702.3033,84.9326z"/>
			</g>
		</g>
		<g>
			<g>
				<path class="st9" d="M710.3467,90.3196c-0.6368,0.9216-0.8345,1.9949-0.6458,3.0901c0.1285,0.7459,1.4371,0.5804,1.3351-0.1807
					c-0.1078-0.8042,0.0128-1.5533,0.4338-2.2529C711.9073,90.2496,710.8168,89.6393,710.3467,90.3196L710.3467,90.3196z"/>
			</g>
		</g>
		<g>
			<g>
				<path class="st9" d="M649.5374,117.3466c-2.6776-7.167-5.3973-13.8455-6.3038-21.5298
					c-0.8973-7.6064-0.4736-15.3674,1.2448-22.8307c3.4971-15.1891,12.4404-29.182,25.8127-37.4698
					c7.6578-4.746,16.2851-7.1674,25.2988-6.789c0.8288,0.0348,0.8099-1.2117,0-1.2773
					c-16.1368-1.3085-31.5155,8.2763-41.0522,20.7148c-9.5793,12.4939-14.0219,28.6031-12.9963,44.2518
					c0.5528,8.4337,2.4236,18.1295,7.2143,25.2596C649.0089,118.0532,649.7171,117.8278,649.5374,117.3466L649.5374,117.3466z"/>
			</g>
		</g>
		<g>
			<g>
				<path class="st9" d="M695.242,29.0491c-0.5248,1.7316-0.9156,3.5101-1.3032,5.2775c-0.1669,0.7609-0.5071,1.6559-0.2274,2.4395
					c0.467,1.3083,3.4448,2.8306,4.7041,3.0131c1.7956,0.2603,1.9805-1.638,2.2116-2.981c0.529-3.0739,1.2377-6.1707,1.5-9.2799
					c0.0638-0.7569-1.1177-0.8887-1.3063-0.1768c-0.4482,1.6918-0.6886,3.4384-0.989,5.1617
					c-0.1791,1.0274-0.3055,4.8804-1.0872,5.4437c-0.518,0.3733-1.2816-0.3254-1.9048-0.6569
					c-1.0064-0.5353-1.533-0.8916-1.5375-2.1178c-0.0068-1.8189,0.9113-3.9695,1.1828-5.7804
					C696.605,28.5913,695.4891,28.2339,695.242,29.0491L695.242,29.0491z"/>
			</g>
		</g>
		<g>
			<g>
				<path class="st9" d="M644.218,84.7809c1.2987,0.586,3.0416,0.4779,4.4982,0.8041c1.1605,0.2599,3.6108,0.5658,3.1039,2.1873
					c-0.4617,1.477-1.4435,2.6265-0.6898,4.1991c0.2765-0.3597,0.553-0.7194,0.8295-1.0791
					c-2.354-0.6071-4.4901-1.6089-6.7653-2.4213c-0.7429-0.2652-1.142,0.8377-0.5192,1.2316
					c2.0449,1.2936,4.5677,2.0141,6.8939,2.6063c0.6538,0.1665,1.1034-0.5123,0.8296-1.0791
					c-0.6199-1.2829,1.1752-2.9843,0.9942-4.4109c-0.2083-1.6417-2.066-1.9949-3.3966-2.3295
					c-1.5941-0.4008-4.6138-1.2645-6.197-0.5601c-0.9106,0.4052-0.8929,1.4742,0.0076,1.8261
					C644.365,85.9734,644.7686,85.0293,644.218,84.7809L644.218,84.7809z"/>
			</g>
		</g>
		<g>
			<g>
				<path class="st9" d="M748.5216,99.7422c-1.0063-0.0556-2.0154,0.0261-3.0193,0.0983c-0.5194,0.0373-1.0945,0.0391-1.5732,0.268
					c-0.5267,0.2517-0.8522,0.6891-0.9554,1.2602c-0.0502,0.2781-0.0052,0.5391-0.0165,0.8183
					c-0.0206,0.5078-0.2105,0.7738-0.4564,1.1883c-1.8492,3.1166,3.6715,2.4875,5.2224,2.4437c0.8976-0.0253,0.8979-1.3652,0-1.3945
					c-1.0867-0.0355-2.172-0.0235-3.259-0.0331c-0.6044-0.0053-0.8127,0.0615-0.5247-0.5282
					c0.1202-0.2462,0.2895-0.4349,0.3706-0.7075c0.097-0.3262,0.0378-0.6409,0.0793-0.9687c0.1083-0.8556,0.319-0.9289,1.113-1.0277
					c1.0524-0.131,2.1138-0.2374,3.1439-0.4963C749.1763,100.5298,749.0355,99.7706,748.5216,99.7422L748.5216,99.7422z"/>
			</g>
		</g>
		<g>
			<g>
				<path class="st9" d="M725.8198,39.5103c-0.3142,1.6914-1.1112,2.9883-2.1498,4.3261c-0.6768,0.8718-1.9236,1.9906-2.2245,3.0802
					c-0.619,2.2409,3.4412,3.0461,4.847,3.687c0.3945,0.1798,0.7419,0.0807,1.0021-0.2628
					c1.2169-1.6066,2.3522-3.2659,3.2521-5.0728c0.3895-0.7821-0.7128-1.4429-1.1788-0.6891
					c-1.0619,1.7176-2.1155,3.4122-3.3382,5.0225c0.334-0.0876,0.6682-0.1752,1.0022-0.2628
					c-0.6552-0.2996-1.3103-0.5992-1.9655-0.8988c-0.2411-0.1102-1.8502-0.6732-1.9655-0.8988
					c-0.3839-0.7518,1.2159-2.1777,1.6553-2.749c1.1856-1.5413,2.2139-3.12,2.249-5.1214
					C727.0168,39.0069,725.9464,38.8285,725.8198,39.5103L725.8198,39.5103z"/>
			</g>
		</g>
		<g>
			<g>
				<path class="st9" d="M744.1061,64.5196c-1.113,0.8183-2.1658,1.6894-3.2173,2.5861c-0.2924,0.2493-0.2631,0.7645,0,1.0181
					c0.9061,0.8731,0.1501,2.5108,1.582,3.1306c0.7308,0.3163,1.5087,0.0714,2.245-0.0992
					c1.2026-0.2787,2.4192-0.5333,3.5997-0.8952c0.8793-0.2696,0.5059-1.5073-0.3738-1.356
					c-0.8721,0.1499-1.7283,0.3708-2.5885,0.5768c-0.6566,0.1572-2.0212,0.7848-2.4728,0.168
					c-0.2522-0.3444-0.1819-1.0343-0.3008-1.4395c-0.1296-0.4417-0.3331-0.7915-0.6727-1.1036c0,0.3394,0,0.6787,0,1.0181
					c0.9892-0.8847,1.955-1.7714,2.8773-2.7253C745.2075,64.9606,744.636,64.13,744.1061,64.5196L744.1061,64.5196z"/>
			</g>
		</g>
		<g>
			<g>
				<path class="st9" d="M651.1042,60.7412c1.2096,1.3046,3.3287,3.2758,5.1498,3.5891c1.6361,0.2815,3.0229-1.8257,4.0449-2.8034
					c0.2594-0.2482,0.2512-0.6922,0-0.9419c-2.1425-2.1303-3.9785-4.4808-5.9882-6.7243c-0.4507-0.5031-1.3066,0.1531-0.9387,0.7243
					c1.6438,2.5512,3.8403,4.8117,5.9849,6.9419c0-0.314,0-0.6279,0-0.9419c-0.4676,0.4478-0.9352,0.8957-1.4029,1.3436
					c-0.8416,0.806-1.1205,1.1546-2.3838,0.6466c-1.3647-0.5488-2.6098-1.6585-3.7244-2.5756
					C651.3317,59.5764,650.6371,60.2373,651.1042,60.7412L651.1042,60.7412z"/>
			</g>
		</g>
		<g>
			<g>
				<path class="st9" d="M736.7513,145.529c0.7075-0.946,1.7562-2.2201,2.8987-2.6555c2.3591-0.8992,3.1612,0.4891,3.6508,2.3522
					c0.5885,2.2396,1.1742,4.4803,1.7841,6.7142c0.2534,0.9278,0.9349,2.4594,0.7789,3.4093
					c-1.3874,2.1844-2.4597,2.4595-3.2166,0.8254c-0.3423-0.6121-0.6296-1.25-0.8618-1.9138
					c-0.8666-2.0947-1.6805-4.2133-2.6056-6.2831c-0.2869-0.6421-1.3961-0.1828-1.1459,0.4831
					c0.8951,2.3826,1.863,4.7712,2.8998,7.0968c0.5343,1.1985,1.218,2.5582,2.53,3.0475c3.1127,1.1608,3.8646-2.8101,3.447-4.9339
					c-0.4937-2.5109-1.2883-4.9915-1.946-7.463c-0.3939-1.4798-0.5381-4.0289-1.9102-5.015
					c-2.4434-1.7563-6.0116,2.0528-7.1633,3.8331C735.5355,145.5762,736.377,146.0295,736.7513,145.529L736.7513,145.529z"/>
			</g>
		</g>
	</g>
	<path class="st8" d="M699.8882,30.4726c0.0535-0.3069,0.0996-0.6108,0.1353-0.9128c0.3335-0.4092,0.4011-1.0405,0.0093-1.4226
		c-0.0422-0.3052-0.1238-0.6069-0.251-0.9052c-0.2295-1.0143-1.7244-1.5769-2.7014-0.7975
		c-1.1362,0.9064-1.3442,2.3408-1.4773,3.7573c-0.0085,0.0532-0.0105,0.1096-0.0151,0.1648
		c-0.0354,0.3896-0.0679,0.7771-0.1147,1.1494c-0.2671,2.1237-0.4373,4.2529-0.5339,6.3909
		c-0.0989,2.1897,2.9321,2.8303,3.9954,1.0823C700.3945,36.5794,701.0928,33.1404,699.8882,30.4726z"/>
	<path class="st8" d="M780.7915,81.4967c-0.4019-6.1244-2.2129-12.0831-4.957-18.1118c-0.4329-0.951-2.1567-0.5092-2.0234,0.5481
		c0.5464,4.3389,1.9382,8.4617,2.8853,12.7195c1.2749,5.7303,0.7576,10.5413-0.7368,16.1646
		c-2.1548,8.1078-4.978,15.697-10.3079,22.1201c-1.1316,0.8138-2.2957,1.6973-3.4856,2.5293
		c4.1416-6.4456,6.5676-14.3048,7.6221-21.4972c1.2861-8.7727,1.1689-19.3922-1.9834-27.7511
		c-4.6343-12.2883-12.158-17.1537-21.2212-25.9119c-1.8066-1.7458-3.8188-3.2039-6.0781-3.8882
		c-1.575-1.5536-3.1667-3.083-4.7847-4.564c-1.4812-1.356-3.4353,0.6699-2.1765,2.1765c3.1001,3.7103,6.4163,7.3164,9.8196,10.821
		c0.0767,0.1526,0.1704,0.3035,0.3032,0.4475c11.8809,12.8738,16.696,30.3025,13.2742,47.5596
		c-2.6936,13.5834-10.0369,24.9138-18.957,35.0467c-0.0823-0.1659-0.1782-0.3278-0.2983-0.4772
		c-1.0669-1.327-2.6311-2.2532-4.3123-2.5289c-1.0918-0.1791-2.0256,0.2755-2.3984,1.3617
		c-0.5955,1.735,0.0977,3.7048,1.4353,4.9001c0.4661,0.4165,1.0491,0.7725,1.6711,1.0071
		c-1.0273,1.0829-2.0635,2.1577-3.1147,3.2163c-0.3569,0.3594-0.4084,0.8367-0.2766,1.2605c-1.8335,0.41-3.635,0.6599-5.5288,0.6912
		c-1.9653,0.1321-2.0066,3.1482,0,3.0913c3.4729-0.192,6.1077,0.5444,9.0271,2.363c0.8047,0.5013,1.7935,0.1313,2.29-0.6003
		c2.0762-3.0613,4.9924-2.8423,7.9104-1.53c0.7588,0.3413,1.324,1.0034,2.2048,1.1389c2.4819,0.3821,6.1765-1.8854,8.2141-3.0562
		c5.6228-3.231,10.2927-7.8547,14.0552-13.1016c9.2849-12.9482,11.8186-29.1462,12.5486-44.7042
		C781.4426,82.275,781.1826,81.7992,780.7915,81.4967z"/>
</g>
</svg>
