<?xml version="1.0" encoding="utf-8"?>
<!-- Generator: Adobe Illustrator 20.1.0, SVG Export Plug-In . SVG Version: 6.00 Build 0)  -->
<svg version="1.1" xmlns="http://www.w3.org/2000/svg" xmlns:xlink="http://www.w3.org/1999/xlink" x="0px" y="0px"
	 viewBox="0 0 168 110" style="enable-background:new 0 0 168 110;" xml:space="preserve">
<style type="text/css">
	.st0{fill:none;stroke:#F7FAFC;stroke-width:39.9968;stroke-linecap:round;stroke-linejoin:round;}
	.st1{fill:none;stroke:#F2F6F9;stroke-width:39.9968;stroke-linecap:round;stroke-linejoin:round;}
	.st2{fill:#F7FAFC;}
	.st3{fill:#F2F6F9;}
	.st4{fill:#FFFFFF;}
	.st5{fill:#FCE0DE;}
	.st6{fill:#E6E6E6;}
	.st7{fill:#FFEFAF;}
	.st8{fill:#E93A1D;}
	.st9{fill:#303030;}
	.st10{fill:#E83D25;}
	.st11{fill:#B3B3B3;}
	.st12{fill:#666666;}
	.st13{fill:none;stroke:#E93A1D;stroke-width:1.5;stroke-linecap:round;stroke-linejoin:round;}
	.st14{fill:none;stroke:#E93A1D;stroke-width:1.5;stroke-linecap:round;stroke-linejoin:round;stroke-dasharray:2.0259,5.0648;}
	.st15{fill:none;stroke:#E93A1D;stroke-width:1.5;stroke-linecap:round;stroke-linejoin:round;stroke-dasharray:1.8929,4.7321;}
	.st16{fill:#777777;}
	.st17{fill:#172DF8;}
	.st18{fill:none;stroke:#E93A1D;stroke-width:1.5;stroke-linecap:round;stroke-linejoin:round;stroke-dasharray:1.9198,4.7994;}
	.st19{fill:none;stroke:#E93A1D;stroke-width:1.5;stroke-linecap:round;stroke-linejoin:round;stroke-dasharray:1.9197,4.7993;}
</style>
<g id="back">
</g>
<g id="Layer_2">
	<rect x="57.9262" y="51.6618" class="st7" width="18.9326" height="14.9638"/>
	<rect x="57.9262" y="87.2114" class="st8" width="21.0221" height="11.5283"/>
	<rect x="57.8279" y="71.266" class="st6" width="20.9211" height="11.3912"/>
	<path class="st7" d="M119.1592,5.3393c-6.5742,1.259-12.9268,0.415-14.0055,9.1333c-0.5028,4.0632,0.4924,10.3336,5.1991,10.6652
		c0-4.9127,3.2572-5.1124,5.581-7.391c0.9056-0.888,5.2199-6.2794,6.6567-6.1938c1.3625,0.0812,2.2709,6.9306,2.4197,8.0235
		c0.2192,1.6094,0.6443,2.9297,1.8702,4.0021c1.7897,1.5657,2.9449,1.8048,2.7122,4.5603c-0.203,2.404-1.3755,3.9861-1.0947,6.4027
		c4.2109-0.3127,8.4598-0.1555,12.6837-0.2419c-0.0284-3.1744-2.6494-4.7899-2.6509-7.8855
		c-0.0009-1.8214,1.8657-3.2271,2.467-4.9202c0.9705-2.7328,0.9197-5.8819,0.5615-8.6939
		c-0.3513-2.7581-0.9439-5.1234-2.7701-7.3494c-2.6792-3.2655-6.587-3.6907-10.4216-3.0889
		C125.1323,2.8694,122.3855,4.7213,119.1592,5.3393z"/>
	<g>
		<g>
			<g>
				<path class="st9" d="M109.1602,22.0996c0.1475,4.0701,0.2951,8.1403,0.4426,12.2104c0.0349,0.9624,1.5351,0.967,1.5,0
					c-0.1475-4.0701-0.2951-8.1403-0.4426-12.2104C110.6253,21.1372,109.1251,21.1326,109.1602,22.0996L109.1602,22.0996z"/>
			</g>
		</g>
		<g>
			<g>
				<path class="st9" d="M126.9035,26.0375c-2.1263-0.578-4.5589-0.6541-6.579,0.3277c-0.5939,0.2886-0.1465,1.0939,0.4199,0.996
					c2.0196-0.3491,3.8172-0.6406,5.8647-0.2558C127.3002,27.2353,127.6008,26.227,126.9035,26.0375L126.9035,26.0375z"/>
			</g>
		</g>
		<g>
			<g>
				<path class="st9" d="M116.9722,26.4567c-1.6561-0.484-3.5337-0.4812-5.2001-0.061c-0.6018,0.1517-0.4902,1.1343,0.1488,1.0992
					c1.6581-0.0912,3.2519-0.0623,4.9073,0.0265C117.4506,27.5547,117.547,26.6247,116.9722,26.4567L116.9722,26.4567z"/>
			</g>
		</g>
		<g>
			<g>
				<path class="st9" d="M126.1599,30.1925c-1.77-0.5637-3.9582-0.2125-5.7836-0.1277c-0.3057,0.0142-0.6208,0.2627-0.5977,0.5977
					c0.0601,0.8701,0.3602,1.8656,1.3727,1.9712c0.8581,0.0895,1.5671-0.635,1.2618-1.4938
					c-0.154-0.4331-0.5953-0.7573-1.073-0.6092c-0.0519,0.0161-0.1038,0.0322-0.1557,0.0483
					c-0.593,0.1838-0.6866,0.826-0.3361,1.2731c-0.0134-0.021-0.0267-0.042-0.0401-0.0629c0.0291-0.2227,0.0583-0.4453,0.0874-0.668
					c0.1436-0.1982,0.1626-0.404,0.0571-0.6175c-0.1921,0.2522-0.3842,0.5044-0.5763,0.7565
					c1.8852-0.0309,3.7787-0.2034,5.6629-0.1757C126.5631,31.0921,126.64,30.3453,126.1599,30.1925L126.1599,30.1925z"/>
			</g>
		</g>
		<g>
			<g>
				<path class="st9" d="M116.4855,30.1046c-1.293-0.2061-2.6346-0.1049-3.938-0.051c-0.4269,0.0176-0.6522,0.373-0.5871,0.7708
					c0.1329,0.8127,0.5795,1.8502,1.5809,1.8029c1.0286-0.0486,1.4475-1.1903,0.7646-1.9134c-0.3047-0.3227-0.9352-0.3532-1.2347,0
					c-0.0172,0.0203-0.0345,0.0407-0.0517,0.061c-0.2395,0.2825-0.2728,0.5921-0.1191,0.9231
					c0.3744,0.8062,0.3042-0.6497,0.2561-1.0354c-0.203,0.203-0.4059,0.4059-0.6089,0.6089c1.303-0.0281,2.6617-0.0031,3.938-0.291
					C116.9032,30.8861,116.9339,30.176,116.4855,30.1046L116.4855,30.1046z"/>
			</g>
		</g>
		<g>
			<g>
				<path class="st9" d="M109.7355,24.8063c-3.2813-3.3882-9.8299-10.1018-3.5468-13.9774c3.0907-1.9064,6.9982-2.0795,9.952-4.2439
					c0.652-0.4778,0.0554-1.569-0.6477-1.108c-3.6928,2.4214-9.3005,2.2477-12.1434,5.9727
					c-3.6462,4.7776,1.702,11.6821,5.8178,14.0929C109.6298,25.8133,110.1059,25.1887,109.7355,24.8063L109.7355,24.8063z"/>
			</g>
		</g>
		<g>
			<g>
				<path class="st9" d="M110.3018,21.9211c-0.2997-1.1942,2.3848-1.635,3.0781-1.9218c0.8276-0.3424,1.6165-0.7683,2.3518-1.2801
					c1.3926-0.9694,2.5173-2.1753,3.3752-3.6358c0.3833-0.6526-0.5625-1.1603-0.9916-0.5796
					c-1.8126,2.4523-4.0105,3.9514-6.9095,4.8509c-1.2302,0.3817-3.0021,1.6453-1.5944,2.9684
					C109.9121,22.6057,110.4034,22.3261,110.3018,21.9211L110.3018,21.9211z"/>
			</g>
		</g>
		<g>
			<g>
				<path class="st9" d="M118.8653,15.2409c-0.8686-1.2973-2.2327-3.4949-0.1544-4.1515c1.6004-0.5056,3.3794,0.7295,4.2837,1.917
					c1.7948,2.3569,0.8557,4.9674,1.2869,7.622c0.2758,1.6982,1.0603,2.482,2.374,3.4407c1.286,0.9385,2.6626,1.663,2.3534,3.4975
					c-0.2354,1.3969-0.567,2.7792-0.8159,4.1742c-0.1298,0.7272,0.9538,1.0508,1.1244,0.31
					c0.5429-2.3577,2.3155-6.5703-0.1417-8.4027c-1.0435-0.7781-2.2263-0.5014-3.0824-1.8648
					c-0.8096-1.2893-0.4508-2.9328-0.467-4.3541c-0.0173-1.5134-0.213-2.9401-0.9349-4.2954
					c-1.2878-2.4176-4.166-4.0953-6.9191-3.1603c-2.9675,1.0078-1.0696,4.2055,0.4628,5.7538
					C118.548,16.0436,119.1244,15.6278,118.8653,15.2409L118.8653,15.2409z"/>
			</g>
		</g>
		<g>
			<g>
				<path class="st9" d="M141.0864,33.4138c-1.0134-1.6983-2.155-3.4275-2.3238-5.449c-0.2041-2.4429,1.3096-3.6679,2.394-5.579
					c1.0846-1.9115,1.5904-4.1275,1.6932-6.3099c0.2113-4.4866-1.3739-9.5827-5.2402-12.1957
					c-5.8327-3.942-18.2121-4.3449-21.2028,3.4044c-0.2479,0.6424,0.8246,1.0993,1.1191,0.4718
					c3.4947-7.4455,17.2842-6.6884,21.6715-0.5127c2.7863,3.9221,3.2559,9.9793,1.0331,14.2547
					c-1.043,2.006-2.6765,3.3527-2.7063,5.7689c-0.0306,2.4795,1.38,4.6766,2.7579,6.6168
					C140.6231,34.3644,141.3993,33.9381,141.0864,33.4138L141.0864,33.4138z"/>
			</g>
		</g>
		<g>
			<g>
				<path class="st9" d="M118.912,14.8858c0.1078-0.5231,0.4791-0.9913,0.9892-1.1788c0.5886-0.2164,0.3611-1.128-0.2632-0.9549
					c-0.9444,0.2619-1.5322,1.046-1.5489,2.0223C118.0812,15.2373,118.815,15.3562,118.912,14.8858L118.912,14.8858z"/>
			</g>
		</g>
		<g>
			<g>
				<path class="st9" d="M120.3653,8.2738c3.5858-3.3026,8.3669-3.3958,12.9109-2.5553c0.6673,0.1234,0.9599-0.8848,0.2835-1.0283
					c-4.9265-1.0451-10.0299-0.6605-13.7993,2.9787C119.3625,8.053,119.9614,8.6458,120.3653,8.2738L120.3653,8.2738z"/>
			</g>
		</g>
	</g>
	<g>
		<g>
			<path class="st9" d="M93.1479,35.8892c16.4805-0.0353,32.954-0.5281,49.4307-0.8255c4.0871-0.0738,8.1744-0.1347,12.262-0.1719
				c2.1046-0.0191,4.27-0.1669,6.3715-0.0374c1.2894,0.0795,2.3615,0.1817,3.113,1.3662c0.5328,0.8398,0.8536,1.8215,1.0112,2.7978
				c0.6074,3.7633,0.1524,7.9415,0.2129,11.758c0.0632,3.9858,0.1419,7.9713,0.1842,11.9574
				c0.0974,9.1769-0.0399,18.3508-0.8596,27.4963c0.25-0.25,0.5-0.5,0.75-0.75c-17.8329,0.431-35.673,0.7379-53.5111,0.8114
				c-6.2038,0.0256-12.4087,0.0222-18.6116-0.0961c-0.9656-0.0184-0.9656,1.4816,0,1.5c21.8925,0.4175,43.8177-0.1032,65.706-0.5713
				c2.1389-0.0457,4.2779-0.0923,6.4167-0.144c0.4325-0.0105,0.713-0.3369,0.75-0.75c0.7912-8.8281,0.9495-17.6836,0.869-26.5426
				c-0.0391-4.3041-0.1256-8.6075-0.1936-12.9111c-0.0614-3.8806,0.3904-8.1135-0.2147-11.9461
				c-0.2984-1.8903-1.395-4.8116-3.4628-5.4515c-1.5315-0.4739-3.9723-0.0195-5.5902-0.0096
				c-2.4512,0.0151-4.9023,0.0396-7.3533,0.0713c-8.8472,0.1144-17.6927,0.3219-26.5384,0.5127
				c-10.2461,0.221-20.493,0.414-30.7418,0.436C92.1828,34.3912,92.181,35.8912,93.1479,35.8892L93.1479,35.8892z"/>
		</g>
	</g>
	<g>
		<g>
			<path class="st9" d="M98.9473,44.749c22.5299,1.0046,45.0897,1.1145,67.6283,0.3272c0.9626-0.0336,0.9671-1.5338,0-1.5
				c-22.5385,0.7873-45.0984,0.6774-67.6283-0.3272C97.9822,43.206,97.9843,44.7061,98.9473,44.749L98.9473,44.749z"/>
		</g>
	</g>
	<g>
		<g>
			<path class="st9" d="M105.6278,37.7401c-0.2537,0.0369-0.579-0.003-0.7937,0.1562c-0.1637,0.1214-0.2696,0.3713-0.3235,0.5631
				c-0.115,0.4091-0.0556,0.8607,0.1183,1.2431c0.3962,0.8714,1.3917,1.2613,2.2676,0.8561c0.8548-0.3955,1.3489-1.3999,0.95-2.2901
				c-0.39-0.8703-1.4362-1.3384-2.3115-0.9315c-0.4095,0.1904-0.2232,0.9395,0.2381,0.879c0.3623-0.0475,0.7261-0.0114,0.9851,0.276
				c0.2868,0.3183,0.2157,0.7387-0.1061,1.0034c-0.6705,0.5514-1.4679-0.2794-1.124-0.9897
				c-0.0941,0.0723-0.1881,0.1447-0.2822,0.217c0.2046-0.0494,0.4035-0.1113,0.6094-0.1575
				C106.4044,38.4419,106.1576,37.663,105.6278,37.7401L105.6278,37.7401z"/>
		</g>
	</g>
	<g>
		<g>
			<path class="st9" d="M110.5452,37.5284c-1.3868,0.7151-0.996,3.0776,0.5327,3.3381c1.6947,0.2888,2.719-2.1874,1.3267-3.1733
				c-0.497-0.3519-0.9542,0.3828-0.6106,0.7914c0.3142,0.3738,0.0396,1.379-0.5509,1.2248
				c-0.4914-0.1283-0.5712-1.0187-0.1684-1.2755C111.6452,38.0703,111.1456,37.2188,110.5452,37.5284L110.5452,37.5284z"/>
		</g>
	</g>
	<circle class="st8" cx="101.0908" cy="38.9191" r="1.701"/>
	<g>
		<g>
			<path class="st9" d="M3.0258,107.4164C2.4332,93.1843,2.2259,78.9105,2.2243,64.6673c-0.0009-7.86,0.0976-15.7161,0.3175-23.573
				c0.0922-3.2933,0.2096-6.5856,0.3447-9.8775c0.0544-1.3255,0.1149-2.6507,0.1871-3.9754
				c0.0283-0.5194,0.0507-1.0402,0.0907-1.5589c0.0422-0.5469,0.0228-1.1948,0.1725-1.7209
				c0.6299-2.214,1.7587-2.3473,3.6261-2.4126c2.8445-0.0994,5.7946,0.3106,8.6386,0.447c3.1421,0.1507,6.285,0.2853,9.4285,0.4043
				c6.1215,0.2317,12.2452,0.4034,18.3701,0.5149c12.2461,0.2229,24.5075,0.2346,36.7519-0.0896
				c2.8137-0.0745,5.6269-0.1813,8.4406-0.2492c2.449-0.0592,3.6448,0.8677,3.7833,3.2383
				c0.0423,0.7244,0.0131,1.4595,0.0133,2.1851c0.0007,2.8705,0.0013,5.741,0.0018,8.6115
				c0.0014,7.4505,0.0024,14.901,0.0034,22.3515c0.0022,16.2154,0.0066,32.4308-0.013,48.6462
				c0.2016-0.2016,0.4032-0.4032,0.6048-0.6049c-29.5758,0.9935-59.1708,0.9753-88.7434-0.1292
				c-0.7995-0.0299-0.7981,1.2118,0,1.2422c29.5663,1.1241,59.175,1.1812,88.7434,0.0967c0.3263-0.012,0.6055-0.2674,0.6049-0.6049
				c-0.0283-15.0969-0.0289-30.1938-0.0322-45.2907c-0.0018-8.1222-0.0036-16.2443-0.0058-24.3665
				c-0.0008-3.1844-0.0017-6.3688-0.0028-9.5531c-0.0009-2.5338,0.329-6.2101-2.8292-6.9136
				c-2.7809-0.6194-6.2363,0.0447-9.0794,0.1005c-3.4758,0.0682-6.9523,0.1249-10.4286,0.1676
				c-6.2908,0.0772-12.5824,0.091-18.8735,0.0414c-12.9132-0.1018-25.824-0.4555-38.7225-1.0816
				c-3.6353-0.1765-10.2378-1.9763-11.3778,2.9463c-0.6191,2.6735-0.3914,5.7918-0.4813,8.5223
				C1.505,39.8669,1.5163,47.5611,1.4552,55.2497c-0.1379,17.3417-0.6235,34.8609,0.7386,52.1667
				C2.2353,107.9436,3.0483,107.9568,3.0258,107.4164L3.0258,107.4164z"/>
		</g>
	</g>
	<g>
		<g>
			<path class="st9" d="M7.216,31.6483c12.5918,1.0556,25.3668,1.0153,37.9952,1.0221c12.6698,0.0068,25.3436-0.2431,37.9949-0.946
				c0.7032-0.0391,0.7126-1.126,0-1.1016c-12.6614,0.4347-25.3251,0.7778-37.9949,0.7885
				c-12.6722,0.0107-25.3291-0.62-37.9952-0.6889C6.6122,30.7192,6.6302,31.5992,7.216,31.6483L7.216,31.6483z"/>
		</g>
	</g>
	<g>
		<g>
			<path class="st9" d="M13.8965,24.9264c-0.2537,0.0369-0.579-0.003-0.7937,0.1562c-0.1637,0.1214-0.2696,0.3713-0.3235,0.5631
				c-0.115,0.4091-0.0556,0.8607,0.1183,1.2431c0.3962,0.8714,1.3917,1.2613,2.2676,0.8561c0.8548-0.3955,1.3489-1.3999,0.95-2.2901
				c-0.39-0.8703-1.4362-1.3384-2.3115-0.9315c-0.4095,0.1904-0.2232,0.9395,0.2381,0.879c0.3623-0.0475,0.7261-0.0114,0.9851,0.276
				c0.2868,0.3183,0.2157,0.7387-0.1061,1.0034c-0.6705,0.5514-1.4679-0.2794-1.124-0.9897
				c-0.0941,0.0723-0.1882,0.1447-0.2822,0.217c0.2046-0.0494,0.4035-0.1113,0.6094-0.1575
				C14.673,25.6282,14.4263,24.8493,13.8965,24.9264L13.8965,24.9264z"/>
		</g>
	</g>
	<g>
		<g>
			<path class="st9" d="M18.8138,24.7147c-1.3868,0.7151-0.996,3.0776,0.5327,3.3381c1.6947,0.2889,2.719-2.1874,1.3267-3.1733
				c-0.497-0.3519-0.9542,0.3828-0.6106,0.7914c0.3142,0.3738,0.0396,1.379-0.5509,1.2248
				c-0.4914-0.1283-0.5712-1.0187-0.1684-1.2755C19.9139,25.2566,19.4142,24.4051,18.8138,24.7147L18.8138,24.7147z"/>
		</g>
	</g>
	<circle class="st8" cx="9.3595" cy="26.1055" r="1.701"/>
	<path class="st8" d="M23.4889,39.36c-3.5465-2.9385-10.8115-2.1804-15.1089-0.9077c-1.7999,0.1797-2.7224,3.5315,0.162,3.9094
		c2.4222,0.3171,4.8666,0.062,7.3019,0.1292c2.2545,0.0623,4.5613,0.7363,6.7659,0.199
		C23.9786,42.3559,24.6503,40.3224,23.4889,39.36z"/>
	<path class="st6" d="M70.6499,37.9338c-7.0775-0.2737-14.3164,0.1702-21.4471,0.0066c-6.7456-0.1548-14.6445-1.3962-21.1675,0.4932
		c-1.5935,0.4617-1.4919,2.6284,0,3.134c6.9773,2.3643,15.8407,1.3127,23.1423,1.4758c6.0476,0.135,15.1455,2.0667,20.4778-1.3972
		C73.3199,40.5649,72.6564,38.0114,70.6499,37.9338z"/>
	<g>
		<g>
			<path class="st16" d="M8.9628,54.211c4.9964,0.4074,10.1361,0.05,15.1475,0.0051c5.0145-0.0449,10.1538,0.2115,15.1475-0.2496
				c0.7624-0.0704,0.7748-1.14,0-1.1953c-5.0014-0.3569-10.134,0.0078-15.1475,0.0681c-5.0126,0.0603-10.1593-0.1885-15.1475,0.3228
				C8.2946,53.2307,8.2827,54.1555,8.9628,54.211L8.9628,54.211z"/>
		</g>
	</g>
	<g>
		<g>
			<path class="st16" d="M8.9628,57.1634c7.1542,0.3396,14.4029,0.214,21.5663,0.2055c0.7842-0.0009,0.7768-1.1758,0-1.2129
				c-7.1242-0.34-14.4477-0.5455-21.5663-0.0356C8.2966,56.1682,8.2871,57.1313,8.9628,57.1634L8.9628,57.1634z"/>
		</g>
	</g>
	<g>
		<g>
			<path class="st16" d="M8.9628,65.7208c5.0959-0.3264,10.1649-0.8045,15.2739-0.9271c5.1114-0.1226,10.2016,0.1709,15.3088,0.2003
				c0.7551,0.0043,0.7094-1.056,0-1.1426c-9.9588-1.2158-20.834-0.8123-30.7253,0.8162C8.2264,64.7655,8.362,65.7593,8.9628,65.7208
				L8.9628,65.7208z"/>
		</g>
	</g>
	<g>
		<g>
			<path class="st16" d="M8.9628,68.1797c7.5104,0.2472,15.1227,0.019,22.6016-0.7129c0.7738-0.0757,0.8019-1.2725,0-1.2305
				c-7.5391,0.3951-15.0532,0.6816-22.6016,0.8242C8.2417,67.0742,8.243,68.156,8.9628,68.1797L8.9628,68.1797z"/>
		</g>
	</g>
	<g>
		<g>
			<path class="st16" d="M8.9628,76.3814c10.7644,1.0194,21.8268,0.846,32.6113,0.2451c0.8452-0.0471,0.857-1.3514,0-1.3242
				c-10.8951,0.3459-21.7209,0.0662-32.6113-0.0576C8.2193,75.2362,8.2472,76.3136,8.9628,76.3814L8.9628,76.3814z"/>
		</g>
	</g>
	<g>
		<g>
			<path class="st16" d="M8.9628,80.2251c4.9865,0.5684,10.1477,0.5415,15.1446,0.1215c0.6958-0.0585,0.7183-1.1215,0-1.1016
				c-5.0557,0.1401-10.0891,0.1113-15.1446,0.1246C8.3991,79.3711,8.429,80.1643,8.9628,80.2251L8.9628,80.2251z"/>
		</g>
	</g>
	<g>
		<g>
			<path class="st16" d="M8.9628,87.7468c7.9394,0.4638,16.1667-0.1807,24.0335-1.2627c0.7036-0.0968,0.5443-1.3117-0.169-1.2488
				c-7.9595,0.7021-15.8951,0.9774-23.8644,1.4392C8.2734,86.7145,8.2723,87.7065,8.9628,87.7468L8.9628,87.7468z"/>
		</g>
	</g>
	<g>
		<g>
			<path class="st16" d="M8.9628,91.7004c2.8321-0.0063,5.6473,0.0922,8.4725,0.2919c0.7987,0.0565,0.7734-1.1476,0-1.2305
				c-2.8127-0.3015-5.6474-0.3743-8.4725-0.2216C8.2224,90.5803,8.2105,91.7021,8.9628,91.7004L8.9628,91.7004z"/>
		</g>
	</g>
	<g>
		<g>
			<path class="st16" d="M8.9628,99.7925c8.6176,0.4292,17.3092,0.5018,25.9367,0.4686c0.7826-0.003,0.7789-1.1851,0-1.2129
				C26.278,98.7405,17.589,98.536,8.9628,98.691C8.2509,98.7038,8.2568,99.7574,8.9628,99.7925L8.9628,99.7925z"/>
		</g>
	</g>
	<g>
		<g>
			<path class="st16" d="M8.9628,102.8352c5.0188,0.4346,10.1159,0.4387,15.1513,0.5039c0.8128,0.0105,0.8086-1.2305,0-1.2598
				c-5.0303-0.1819-10.1196-0.4288-15.1513-0.2402C8.3145,101.8634,8.3301,102.7804,8.9628,102.8352L8.9628,102.8352z"/>
		</g>
	</g>
	<g>
		<g>
			<path class="st17" d="M8.9628,52.1239c5.1307,0.1436,10.274,0.0406,15.4046-0.0645c0.6144-0.0126,0.6155-0.9425,0-0.9551
				c-5.1305-0.1051-10.2739-0.208-15.4046-0.0645C8.2655,51.0594,8.2644,52.1043,8.9628,52.1239L8.9628,52.1239z"/>
		</g>
	</g>
	<g>
		<g>
			<path class="st17" d="M8.9628,62.4348c5.6405-0.0576,11.3186-0.3343,16.9389-0.8144c0.6767-0.0578,0.7002-1.0858,0-1.0723
				c-5.6421,0.1094-11.3204,0.4294-16.9389,0.9609C8.3809,61.564,8.3561,62.441,8.9628,62.4348L8.9628,62.4348z"/>
		</g>
	</g>
	<g>
		<g>
			<path class="st17" d="M8.9628,74.1112c6.3189,0.1943,12.6837,0.1532,19.002-0.053c0.8801-0.0287,0.8853-1.3575,0-1.3711
				c-6.3216-0.0969-12.6868-0.0278-19.002,0.2757C8.2266,72.9982,8.2207,74.0884,8.9628,74.1112L8.9628,74.1112z"/>
		</g>
	</g>
	<g>
		<g>
			<path class="st17" d="M8.9628,85.0748c4.9624,0.1057,9.9373,0.0932,14.9022,0.1646c0.79,0.0114,0.7591-1.1334,0-1.207
				c-4.8948-0.475-10.0097-0.5411-14.9022-0.0006C8.3104,84.104,8.2757,85.0602,8.9628,85.0748L8.9628,85.0748z"/>
		</g>
	</g>
	<g>
		<g>
			<path class="st17" d="M8.9628,97.1231c5.2308-0.2689,10.4371-0.3134,15.673-0.1957c0.8062,0.0181,0.7899-1.1865,0-1.2422
				c-5.2196-0.3682-10.4781-0.2085-15.673,0.4125C8.3257,96.1739,8.2892,97.1577,8.9628,97.1231L8.9628,97.1231z"/>
		</g>
	</g>
	<g>
		<g>
			<path class="st9" d="M56.7175,52.9272c-0.0956,3.728-0.3263,7.6078,0.0049,11.3277c0.1673,1.8787,1.0986,2.6514,2.9237,2.9633
				c3.2029,0.5474,6.5983,0.2605,9.8337,0.2145c1.5747-0.0224,3.1488-0.0554,4.7231-0.0931
				c0.7485-0.0179,2.3279,0.2032,3.0152-0.3545c0.6161-0.4998,0.5334-1.3355,0.5576-2.0243
				c0.0608-1.7312-0.0052-3.4758-0.0109-5.2081c-0.0058-1.7343,0.0299-3.4745-0.0173-5.2081
				c-0.016-0.5877,0.0598-1.3511-0.3286-1.8537c-0.5718-0.74-1.4567-0.6567-2.3178-0.7188
				c-1.5866-0.1143-3.1738-0.2032-4.762-0.2906c-3.8096-0.2097-7.6193-0.4193-11.4289-0.629c-0.7833-0.0431-0.7819,1.1779,0,1.2188
				c4.7615,0.2488,9.5229,0.5334,14.2861,0.7465c0.6347,0.0299,1.2696,0.0535,1.9048,0.071
				c1.3062,0.2076,1.8287,0.8507,1.5675,1.9293c0.2099,0.8383,0.0096,1.9886,0.0137,2.8408
				c0.0061,1.2626,0.0122,2.5251,0.0183,3.7877c0.0046,0.951,0.2935,2.4084,0.0224,3.3143
				c-0.6271,2.0959-5.3702,1.2714-7.2433,1.2714c-2.1748,0-4.3543,0.0685-6.5284,0.0159c-2.0628-0.05-4.1734,0.2534-4.9881-2.3297
				c-0.2633-0.8349-0.0337-2.1388-0.0505-2.9976c-0.0523-2.6684-0.1484-5.3289-0.2988-7.9936
				C57.5817,52.354,56.7324,52.3464,56.7175,52.9272L56.7175,52.9272z"/>
		</g>
	</g>
	<g>
		<g>
			<path class="st9" d="M57.3081,71.1227c-0.4848,3.2507-0.9217,6.5664-1.1149,9.8481c-0.114,1.9366,0.0844,2.6333,2.1265,2.5905
				c3.2971-0.0692,6.6049-0.3566,9.8982-0.5344c3.2643-0.1763,7.2642-1.0178,10.3764,0.1915
				c0.3463,0.1346,0.754-0.2104,0.7366-0.5611c-0.1617-3.2646-0.2725-6.5344-0.4709-9.7969
				c-0.0926-1.5227-0.0581-2.6599-1.6533-3.1841c-2.3504-0.7723-5.5532-0.5314-8.0101-0.6064
				c-3.4343-0.1048-6.8921-0.0573-10.3113,0.3003c-0.7605,0.0796-0.7913,1.2578,0,1.2129
				c4.9224-0.2794,9.8033-0.4614,14.7291-0.1269c1.4936,0.1014,3.4358-0.2899,4.0707,1.4244
				c0.2935,0.7924,0.0949,2.1141,0.1319,2.9391c0.1172,2.6125,0.2372,5.2249,0.3501,7.8375
				c0.2455-0.187,0.4911-0.3741,0.7366-0.5612c-2.2405-0.9291-4.5432-0.6858-6.915-0.5639
				c-2.8282,0.1454-5.6561,0.2958-8.4842,0.4437c-1.2569,0.0657-2.5138,0.1315-3.7707,0.1972
				c-1.901,0.0994-2.3733,0.3034-2.1716-1.6875c0.3109-3.0691,0.6449-6.1387,0.8049-9.2196
				C58.398,70.6703,57.3986,70.516,57.3081,71.1227L57.3081,71.1227z"/>
		</g>
	</g>
	<g>
		<g>
			<path class="st9" d="M56.0001,87.0735c0.3057,3.3049,0.0044,6.3823-0.0914,9.6647c-0.0599,2.0527,0.659,3.0061,2.6744,3.3948
				c6.7666,1.305,13.6007-0.7163,20.3653-0.9717c0.2142-0.0081,0.4399-0.187,0.4216-0.4216
				c-0.3328-4.2585-0.5226-8.5276-0.8941-12.7833c-0.0475-0.5445-0.8915-0.5593-0.8613,0c0.1063,1.9685,0.2586,3.9339,0.4021,5.9
				c0.0718,0.9836,0.146,1.9668,0.2231,2.95c0.0529,0.6743,0.5312,2.4521,0.225,2.95c-0.6905,1.1228-3.4435,0.775-4.7133,0.8847
				c-1.8902,0.1632-3.7748,0.386-5.6651,0.5475c-2.7969,0.239-10.7392,1.4453-11.042-2.4503
				c-0.1288-1.6578,0.3511-3.4791,0.3241-5.167c-0.025-1.5583-0.1803-3.0886-0.4533-4.6215
				C56.8239,86.4379,55.9516,86.5496,56.0001,87.0735L56.0001,87.0735z"/>
		</g>
	</g>
	<g>
		<g>
			<path class="st9" d="M77.2064,85.3563c-6.3996-0.1278-12.8851-0.427-19.2802-0.1231c-0.6594,0.0313-0.6605,0.9938,0,1.0254
				c6.3951,0.3059,12.8806,0.0087,19.2802-0.1171C77.7115,86.1315,77.7123,85.3664,77.2064,85.3563L77.2064,85.3563z"/>
		</g>
	</g>
	<g>
		<g>
			<path class="st9" d="M100.7439,55.9134c1.1833,0.1438,2.4128,0.2817,3.6042,0.3c0.6203,0.0095,0.7321-0.9001,0.1449-1.0704
				c-1.18-0.3421-2.5335-0.3998-3.749-0.2432C100.096,54.9831,100.0901,55.8339,100.7439,55.9134L100.7439,55.9134z"/>
		</g>
	</g>
	<g>
		<g>
			<path class="st9" d="M107.0949,55.8743c0.815,0.1022,1.6575,0.1618,2.4707,0.0317c0.4838-0.0774,0.4841-0.9,0-0.9775
				c-0.8124-0.1299-1.6565-0.0704-2.4707,0.0317C106.5086,55.0338,106.5074,55.8006,107.0949,55.8743L107.0949,55.8743z"/>
		</g>
	</g>
	<g>
		<g>
			<path class="st9" d="M117.3102,55.8626c2.5958-0.1548,5.0646-0.1493,7.6601-0.0381c0.5889,0.0252,0.7239-0.9072,0.1402-1.0359
				c-2.511-0.5533-5.4352-0.4621-7.9155,0.2223C116.7356,55.1376,116.8104,55.8924,117.3102,55.8626L117.3102,55.8626z"/>
		</g>
	</g>
	<g>
		<g>
			<path class="st9" d="M139.3786,56.4338c1.316-0.1275,2.5982-0.0354,3.9049,0.1434c0.5882,0.0805,0.8697-0.7731,0.2539-0.921
				c-1.4148-0.3398-2.8462-0.3129-4.2787-0.1087C138.7601,55.6186,138.8724,56.4828,139.3786,56.4338L139.3786,56.4338z"/>
		</g>
	</g>
	<g>
		<g>
			<path class="st9" d="M149.9987,56.6941c0.8297-0.0825,1.6709-0.1422,2.4788-0.3566c0.543-0.1441,0.4498-1.0376-0.1355-1.0013
				c-0.8374,0.0518-1.6518,0.2528-2.4679,0.4372C149.3684,55.8876,149.4666,56.747,149.9987,56.6941L149.9987,56.6941z"/>
		</g>
	</g>
	<g>
		<g>
			<path class="st9" d="M158.0813,57.024c1.6996,0.0733,3.3961,0.0765,5.0966,0.0527c0.769-0.0108,0.7703-1.1845,0-1.1953
				c-1.7006-0.0238-3.3972-0.0205-5.0966,0.0527C157.3804,55.9644,157.3792,56.9937,158.0813,57.024L158.0813,57.024z"/>
		</g>
	</g>
	<g>
		<g>
			<path class="st9" d="M100.8942,62.1441c0.1613-0.0407,0.2815,0.0392,0.4221,0.1115c0.4591,0.2363,1.0964-0.2707,0.7616-0.7616
				c-0.3371-0.4942-0.9244-0.6681-1.4843-0.4404C99.937,61.3206,100.1685,62.3271,100.8942,62.1441L100.8942,62.1441z"/>
		</g>
	</g>
	<g>
		<g>
			<path class="st9" d="M100.3666,64.2925c-0.4392,0.7604,0.5192,1.628,1.1915,1.004c0.3056-0.2837,0.0786-0.8783-0.3522-0.8502
				c-0.1017,0.0109-0.0888,0.083,0.0388,0.2165C101.3587,64.1444,100.6485,63.8045,100.3666,64.2925L100.3666,64.2925z"/>
		</g>
	</g>
	<g>
		<g>
			<path class="st9" d="M100.4021,68.5007c0.1063,0.0936,0.2125,0.1762,0.3265,0.2601c0.3568,0.2627,0.88-0.2604,0.6173-0.6173
				c-0.0839-0.114-0.1666-0.2202-0.2601-0.3265C100.6733,67.3486,99.9334,68.0881,100.4021,68.5007L100.4021,68.5007z"/>
		</g>
	</g>
	<g>
		<g>
			<path class="st9" d="M100.7439,72.5878c0.0708-0.0039,0.1416-0.0078,0.2124-0.0117c0.7647-0.0422,0.7661-1.1472,0-1.1895
				c-0.0708-0.0039-0.1416-0.0078-0.2124-0.0117C99.9636,71.3319,99.9622,72.631,100.7439,72.5878L100.7439,72.5878z"/>
		</g>
	</g>
	<g>
		<g>
			<path class="st9" d="M100.7439,76.6109c0.7654,0,0.7666-1.1895,0-1.1895C99.9785,75.4215,99.9773,76.6109,100.7439,76.6109
				L100.7439,76.6109z"/>
		</g>
	</g>
	<g>
		<g>
			<path class="st9" d="M100.199,79.8387c-0.0098,0.1992-0.007,0.369,0.0392,0.5641c0.1184,0.4996,0.8928,0.5,1.0114,0
				c0.0463-0.1951,0.0491-0.3649,0.0392-0.5641C101.2543,79.1379,100.2336,79.1367,100.199,79.8387L100.199,79.8387z"/>
		</g>
	</g>
	<g>
		<g>
			<path class="st9" d="M100.7439,85.1552c0.8295,0,0.8308-1.2891,0-1.2891C99.9144,83.8661,99.9131,85.1552,100.7439,85.1552
				L100.7439,85.1552z"/>
		</g>
	</g>
	<g>
		<g>
			<path class="st9" d="M107.3315,61.9658c0.3369-0.1733,0.6779-0.113,1.014,0.0295c0.456,0.1934,1.0291-0.3563,0.5822-0.7546
				c-0.5902-0.5261-1.4265-0.525-2.0694-0.0844C106.3626,61.4961,106.7905,62.2442,107.3315,61.9658L107.3315,61.9658z"/>
		</g>
	</g>
	<g>
		<g>
			<path class="st9" d="M107.0949,65.7366c0.4805,0.0187,0.9393,0.0343,1.4167-0.0338c0.5119-0.073,0.5122-0.9609,0-1.034
				c-0.4774-0.0681-0.9361-0.0525-1.4167-0.0338C106.3865,64.6627,106.3852,65.709,107.0949,65.7366L107.0949,65.7366z"/>
		</g>
	</g>
	<g>
		<g>
			<path class="st9" d="M106.8509,69.6945c0.5076,0.2859,1.0931,0.2768,1.5806-0.0482c0.5518-0.3679,0.0756-1.1746-0.5175-0.8854
				c-0.2315,0.1128-0.4478,0.1137-0.6906,0.0501C106.7003,68.674,106.3654,69.421,106.8509,69.6945L106.8509,69.6945z"/>
		</g>
	</g>
	<g>
		<g>
			<path class="st9" d="M107.367,73.7208c0.0279,0.0039,0.0558,0.0077,0.0837,0.0116c0.6118,0.3382,1.1198-0.5492,0.5442-0.9309
				c-0.3734-0.2476-0.7945-0.246-1.172-0.0116C106.2289,73.1586,106.7484,74.028,107.367,73.7208L107.367,73.7208z"/>
		</g>
	</g>
	<g>
		<g>
			<path class="st9" d="M106.9578,77.1523c0.4085,0.0587,0.7862,0.0882,1.1989,0.0627c0.7195-0.0445,0.7206-1.0742,0-1.1191
				c-0.4127-0.0257-0.7903,0.0036-1.1989,0.062C106.4654,76.2283,106.4654,77.0815,106.9578,77.1523L106.9578,77.1523z"/>
		</g>
	</g>
	<g>
		<g>
			<path class="st9" d="M106.9469,80.9264c0.7976,0.1891,1.6365,0.284,2.4373,0.0732c0.6414-0.1688,0.4378-1.016-0.1464-1.0819
				c-0.7081-0.0799-1.4301-0.0431-2.1429-0.0847C106.4686,79.7965,106.3382,80.7821,106.9469,80.9264L106.9469,80.9264z"/>
		</g>
	</g>
	<g>
		<g>
			<path class="st9" d="M107.2304,85.8154c0.5254-0.1467,1.0367-0.1437,1.5749-0.0869c0.6361,0.067,0.7644-0.9678,0.1503-1.1107
				c-0.7413-0.1725-1.4351-0.052-2.118,0.2659C106.3067,85.1308,106.6847,85.9679,107.2304,85.8154L107.2304,85.8154z"/>
		</g>
	</g>
	<g>
		<g>
			<path class="st8" d="M116.6661,62.5208c5.1588-0.1317,10.3428-0.0483,15.494-0.2363c0.666-0.0243,0.6445-0.9568,0-1.0195
				c-5.0728-0.4934-10.445-0.1794-15.494,0.4414C116.1618,61.7683,116.1276,62.5345,116.6661,62.5208L116.6661,62.5208z"/>
		</g>
	</g>
	<g>
		<g>
			<path class="st8" d="M116.6661,65.7458c3.3159,0.2861,6.6466,0.588,9.9743,0.6858c0.7313,0.0215,0.713-1.068,0-1.125
				c-3.3136-0.2648-6.6519-0.3281-9.9743-0.4046C116.1162,64.8894,116.1329,65.6998,116.6661,65.7458L116.6661,65.7458z"/>
		</g>
	</g>
	<g>
		<g>
			<path class="st8" d="M116.6661,69.5909c4.5544,0.4187,9.2347,0.6373,13.8017,0.3137c0.7376-0.0523,0.7548-1.1476,0-1.1602
				c-4.5979-0.0766-9.2012,0.0153-13.8017-0.0618C116.0728,68.6728,116.0937,69.5383,116.6661,69.5909L116.6661,69.5909z"/>
		</g>
	</g>
	<g>
		<g>
			<path class="st8" d="M116.6661,73.6703c2.5332-0.1035,5.1201-0.0348,7.6416-0.2599c0.7556-0.0675,0.7348-1.0685,0-1.1602
				c-2.4848-0.3099-5.1648-0.0707-7.6416,0.2423C115.938,72.5845,115.8884,73.702,116.6661,73.6703L116.6661,73.6703z"/>
		</g>
	</g>
	<g>
		<g>
			<path class="st8" d="M116.6661,77.3353c2.9489,0.0918,6.1524-0.0953,9.0554-0.6323c0.6574-0.1216,0.4992-1.172-0.1565-1.1567
				c-2.9705,0.0694-6.0866,0.4049-9.0289,0.828C115.9728,76.4552,116.1374,77.3188,116.6661,77.3353L116.6661,77.3353z"/>
		</g>
	</g>
	<g>
		<g>
			<path class="st8" d="M116.5267,81.2038c3.1158,0.7618,6.6995,0.803,9.8424,0.2032c0.6262-0.1195,0.4781-1.1216-0.1495-1.1049
				c-3.2223,0.0859-6.3374,0.0178-9.5535-0.1283C116.0758,80.1469,115.9532,81.0636,116.5267,81.2038L116.5267,81.2038z"/>
		</g>
	</g>
	<g>
		<g>
			<path class="st8" d="M116.6661,85.311c4.5349,0.0232,9.0778-0.266,13.6021-0.5443c0.6904-0.0425,0.7029-1.1028,0-1.084
				c-4.5332,0.1211-9.085,0.234-13.6021,0.6556C116.0539,84.3954,116.0288,85.3077,116.6661,85.311L116.6661,85.311z"/>
		</g>
	</g>
	<g>
		<g>
			<path class="st9" d="M139.2563,62.3114c0.8214,0.1532,1.6311,0.3856,2.474,0.3677c0.5712-0.0122,0.6965-0.8422,0.1355-1.0013
				c-0.8127-0.2305-1.6526-0.2108-2.4873-0.2698C138.8668,61.3718,138.7449,62.2161,139.2563,62.3114L139.2563,62.3114z"/>
		</g>
	</g>
	<g>
		<g>
			<path class="st9" d="M139.2345,66.8336c0.944,0.2263,1.8886,0.2994,2.8458,0.1186c0.5865-0.1108,0.4537-1.0702-0.141-1.0416
				c-0.8129,0.039-1.6164,0.0419-2.4167-0.1222C138.8447,65.6493,138.5513,66.6699,139.2345,66.8336L139.2345,66.8336z"/>
		</g>
	</g>
	<g>
		<g>
			<path class="st9" d="M139.3786,70.6282c0.433,0.0539,0.8078,0.157,1.1892,0.3749c0.6605,0.3773,1.1983-0.5843,0.5885-1.0068
				c-0.5095-0.353-1.1531-0.5637-1.7777-0.4989C138.6463,69.5733,138.6582,70.5386,139.3786,70.6282L139.3786,70.6282z"/>
		</g>
	</g>
	<g>
		<g>
			<path class="st9" d="M139.2447,74.2654c0.685,0.1155,1.3743,0.2269,2.0681,0.2685c0.5703,0.0342,0.7071-0.8981,0.1363-1.0071
				c-0.6834-0.1304-1.3773-0.1946-2.0704-0.2513C138.8188,73.2299,138.6829,74.1707,139.2447,74.2654L139.2447,74.2654z"/>
		</g>
	</g>
	<g>
		<g>
			<path class="st9" d="M139.3786,77.4613c0.6146-0.0472,1.2506-0.0938,1.8351-0.2983c0.5635-0.1971,0.4751-1.0205-0.1417-1.0474
				c-0.6186-0.027-1.2409,0.1083-1.8429,0.2407C138.6182,76.4908,138.7412,77.5103,139.3786,77.4613L139.3786,77.4613z"/>
		</g>
	</g>
	<g>
		<g>
			<path class="st9" d="M139.5048,81.7271c1.0212-0.1457,2.042-0.1283,3.0681-0.0589c0.7011,0.0475,0.667-0.9895,0-1.0723
				c-1.1161-0.1385-2.2272-0.0305-3.3204,0.2158C138.6424,80.9492,138.9175,81.8109,139.5048,81.7271L139.5048,81.7271z"/>
		</g>
	</g>
	<g>
		<g>
			<path class="st9" d="M139.5219,85.6383c0.8649-0.1672,1.7443-0.1862,2.6226-0.1567c0.5861,0.0197,0.7367-0.9309,0.141-1.0416
				c-1.0335-0.192-2.0381-0.1193-3.0502,0.1587C138.5591,84.7844,138.8475,85.7688,139.5219,85.6383L139.5219,85.6383z"/>
		</g>
	</g>
	<g>
		<g>
			<path class="st9" d="M149.9987,62.746c0.5628,0.0518,1.1348,0.0438,1.6989,0.0176c0.7084-0.0329,0.7096-1.0686,0-1.1016
				c-0.5638-0.0262-1.1363-0.0342-1.6989,0.0176C149.3138,61.7426,149.3125,62.6829,149.9987,62.746L149.9987,62.746z"/>
		</g>
	</g>
	<g>
		<g>
			<path class="st9" d="M149.9987,67.0913c0.4659,0.0335,0.9336,0.1064,1.3957,0.0218c0.4361-0.0799,0.4364-0.8015,0-0.8814
				c-0.4621-0.0847-0.9298-0.0117-1.3957,0.0218C149.4603,66.2921,149.4593,67.0525,149.9987,67.0913L149.9987,67.0913z"/>
		</g>
	</g>
	<g>
		<g>
			<path class="st9" d="M149.8725,71.2659c0.3523,0.1326,0.797,0.2214,1.1728,0.178c0.569-0.0657,0.6951-0.7938,0.1355-1.0013
				c-0.3574-0.1325-0.8057-0.1543-1.1822-0.1089C149.4688,70.3975,149.352,71.0699,149.8725,71.2659L149.8725,71.2659z"/>
		</g>
	</g>
	<g>
		<g>
			<path class="st9" d="M149.8554,75.0495c0.4569,0.0812,0.898,0.0939,1.357,0.0311c0.5455-0.0747,0.5458-1.027,0-1.1018
				c-0.459-0.0629-0.9001-0.0502-1.357,0.0311C149.341,74.1014,149.3406,74.958,149.8554,75.0495L149.8554,75.0495z"/>
		</g>
	</g>
	<g>
		<g>
			<path class="st9" d="M149.9987,77.6698c0.5534,0.0706,1.0874,0.0372,1.6353-0.0522c0.5341-0.0871,0.5345-0.992,0-1.0792
				c-0.5477-0.0893-1.0828-0.1227-1.6353-0.0522C149.2396,76.583,149.238,77.5728,149.9987,77.6698L149.9987,77.6698z"/>
		</g>
	</g>
	<g>
		<g>
			<path class="st9" d="M150.1428,82.4589c0.4446-0.1811,0.8776-0.2011,1.3525-0.181c0.6071,0.0258,0.6643-0.83,0.1371-1.0128
				c-0.6562-0.2275-1.2964-0.0938-1.9072,0.2032C149.181,81.7328,149.5706,82.6919,150.1428,82.4589L150.1428,82.4589z"/>
		</g>
	</g>
	<g>
		<g>
			<path class="st9" d="M149.9987,85.492c0.4962,0.016,0.9901,0.0214,1.4865,0.0176c0.7389-0.0057,0.7401-1.1427,0-1.1484
				c-0.4964-0.0038-0.9904,0.0016-1.4865,0.0176C149.2826,84.4017,149.2814,85.4689,149.9987,85.492L149.9987,85.492z"/>
		</g>
	</g>
	<g>
		<g>
			<path class="st9" d="M157.9465,62.6902c1.137,0.1587,2.2531,0.2528,3.3761,0.5149c0.7289,0.1702,1.0369-0.9269,0.31-1.1244
				c-1.1189-0.304-2.3915-0.5217-3.5513-0.3861C157.5735,61.754,157.3273,62.6038,157.9465,62.6902L157.9465,62.6902z"/>
		</g>
	</g>
	<g>
		<g>
			<path class="st9" d="M158.0813,66.9141c0.43,0.0439,0.8418,0.0752,1.2742,0.0586c0.6595-0.0253,0.6606-1.0001,0-1.0254
				c-0.4324-0.0166-0.8442,0.0146-1.2742,0.0586C157.4982,66.0655,157.497,66.8544,158.0813,66.9141L158.0813,66.9141z"/>
		</g>
	</g>
	<g>
		<g>
			<path class="st9" d="M158.223,72.2286c0.6296-0.1145,1.215-0.0351,1.8192,0.1581c0.6222,0.199,1.0307-0.7529,0.447-1.0602
				c-0.8614-0.4535-1.7915-0.4472-2.6771-0.0725C157.2203,71.5045,157.6726,72.3287,158.223,72.2286L158.223,72.2286z"/>
		</g>
	</g>
	<g>
		<g>
			<path class="st9" d="M158.2145,75.4298c0.6038-0.1121,1.1714-0.1155,1.7796-0.161c0.5804-0.0433,0.7074-0.8288,0.1378-1.0186
				c-0.7335-0.2445-1.6273-0.0822-2.3035,0.2639C157.2935,74.7879,157.6869,75.5277,158.2145,75.4298L158.2145,75.4298z"/>
		</g>
	</g>
	<g>
		<g>
			<path class="st9" d="M158.2308,79.4827c0.3978-0.1328,0.7275-0.1743,1.1465-0.1305c0.6564,0.0686,0.7158-0.9091,0.1487-1.0992
				c-0.5814-0.1949-1.2067-0.1249-1.7287,0.2015C157.2766,78.7803,157.6036,79.692,158.2308,79.4827L158.2308,79.4827z"/>
		</g>
	</g>
	<g>
		<g>
			<path class="st9" d="M158.0813,82.9026c0.496,0.0573,0.9877,0.072,1.4865,0.0557c0.7349-0.0241,0.7362-1.1184,0-1.1426
				c-0.4988-0.0164-0.9905-0.0016-1.4865,0.0557C157.4196,81.9478,157.4182,82.8261,158.0813,82.9026L158.0813,82.9026z"/>
		</g>
	</g>
	<g>
		<g>
			<path class="st9" d="M158.0813,86.2887c0.4956,0.0092,0.9909,0.0213,1.4865,0.0176c0.6711-0.0051,0.6722-1.0379,0-1.043
				c-0.4957-0.0038-0.991,0.0083-1.4865,0.0176C157.4329,85.293,157.4318,86.2766,158.0813,86.2887L158.0813,86.2887z"/>
		</g>
	</g>
</g>
</svg>
