<?xml version="1.0" encoding="utf-8"?>
<!-- Generator: Adobe Illustrator 20.1.0, SVG Export Plug-In . SVG Version: 6.00 Build 0)  -->
<svg version="1.1" xmlns="http://www.w3.org/2000/svg" xmlns:xlink="http://www.w3.org/1999/xlink" x="0px" y="0px"
	 viewBox="0 0 190 120" style="enable-background:new 0 0 190 120;" xml:space="preserve">
<style type="text/css">
	.st0{fill:none;stroke:#F7FAFC;stroke-width:39.9968;stroke-linecap:round;stroke-linejoin:round;}
	.st1{fill:none;stroke:#F2F6F9;stroke-width:39.9968;stroke-linecap:round;stroke-linejoin:round;}
	.st2{fill:#F7FAFC;}
	.st3{fill:#F2F6F9;}
	.st4{fill:#FFFFFF;}
	.st5{fill:#FCE0DE;}
	.st6{fill:#E6E6E6;}
	.st7{fill:#FFEFAF;}
	.st8{fill:#E93A1D;}
	.st9{fill:#303030;}
	.st10{fill:#E83D25;}
	.st11{fill:#B3B3B3;}
	.st12{fill:#666666;}
	.st13{fill:none;stroke:#E93A1D;stroke-width:1.5;stroke-linecap:round;stroke-linejoin:round;}
	.st14{fill:none;stroke:#E93A1D;stroke-width:1.5;stroke-linecap:round;stroke-linejoin:round;stroke-dasharray:2.0259,5.0648;}
	.st15{fill:none;stroke:#E93A1D;stroke-width:1.5;stroke-linecap:round;stroke-linejoin:round;stroke-dasharray:1.8929,4.7321;}
	.st16{fill:#777777;}
	.st17{fill:#172DF8;}
	.st18{fill:none;stroke:#E93A1D;stroke-width:1.5;stroke-linecap:round;stroke-linejoin:round;stroke-dasharray:1.9198,4.7994;}
	.st19{fill:none;stroke:#E93A1D;stroke-width:1.5;stroke-linecap:round;stroke-linejoin:round;stroke-dasharray:1.9197,4.7993;}
</style>
<g id="back">
</g>
<g id="Layer_2">
	<path class="st8" d="M46.1461,72.7524H2.2694V83.457h14.6448v19.5464l15.6686,4.6565l4.3179-13.6177
		c0.1997,0.0356,0.4017,0.0598,0.6082,0.0598c2.7206,0,4.9261-3.1926,4.9261-7.1309c0-1.2791-0.2356-2.4763-0.6428-3.5142h4.354
		V72.7524z"/>
	<g>
		<g>
			<path class="st9" d="M186.0792,34.3891c-25.1819-0.0438-50.3647-0.4154-75.5451-0.664
				c-12.8362-0.1267-25.6725-0.2557-38.5091-0.3338c-2.325-0.0142-4.65-0.0263-6.9751-0.0334
				c-2.2288-0.0068-3.9515-0.3821-5.4641,1.5692c-1.9874,2.564-1.6831,5.86-1.7021,8.9023
				c-0.0221,3.5451-0.0647,7.0901-0.1066,10.635c-0.2106,17.8196-0.8985,35.8483,0.6888,53.6233
				c0.0375,0.4195,0.3139,0.7287,0.75,0.75c15.2357,0.7425,30.5342,0.6802,45.7838,0.7966
				c19.2784,0.1472,38.5582,0.2006,57.837,0.1287c7.6307-0.0285,15.2628-0.061,22.8923-0.2101
				c0.2987-0.0058,0.6722-0.2265,0.7232-0.5506c3.8448-24.4337-0.1151-49.2911,0.3771-73.8632c0.0193-0.9656-1.4807-0.9656-1.5,0
				c-0.4892,24.4234,3.4977,49.1805-0.3235,73.4644c0.2411-0.1835,0.4821-0.3671,0.7232-0.5506
				c-34.8669,0.6811-69.7982,0.3408-104.665-0.1768c-7.2816-0.1081-14.5734-0.184-21.8481-0.5385c0.25,0.25,0.5,0.5,0.75,0.75
				c-1.3589-15.2165-0.9431-30.6311-0.7782-45.888c0.0768-7.1119,0.1544-14.2235,0.2083-21.3356
				c0.0138-1.8224,0.3016-4.8012,2.1683-5.7589c0.8455-0.4338,1.9922-0.2514,2.9608-0.2488c2.209,0.006,4.418,0.0169,6.627,0.0298
				c26.36,0.1536,52.7191,0.481,79.0782,0.7342c11.9492,0.1148,23.8992,0.248,35.849,0.2688
				C187.0444,35.8908,187.0459,34.3908,186.0792,34.3891z"/>
		</g>
	</g>
	<path class="st7" d="M49.6607,32.966c0.0156-2.0545-0.1631-4.4951-1.7601-5.9623c0.6188-0.8602,0.7063-2.0659,0.5162-3.0479
		c-0.126-0.6523-0.2936-1.272-0.4822-1.8737c3.1744-3.8109,3.8312-9.8846,1.3363-14.2702c-2.3232-4.0835-6.523-5.813-10.2531-4.7917
		c-0.8898-0.2951-1.9473-0.2564-3.0749,0.2919c-0.7282,0.3542-1.4389,0.7283-2.1527,1.0991
		C29.8362,3.7102,26.1338,4.957,22.4393,7.084c-0.169,0.0974-0.3216,0.209-0.4669,0.3263
		c-10.459-2.1984-15.6189,13.0101-6.2606,18.12c0.6654,0.3633,1.4095,0.3254,2.0402,0.0446c0.301,0.088,0.6192,0.1689,0.9767,0.2336
		c2.2533,0.4076,4.2779-0.7734,5.659-2.4167c0.5962-0.7094,1.0091-2.076,1.3793-3.5913c0.1772-0.0345,0.3499-0.0494,0.5338-0.1168
		c3.9884-1.4592,8.846-1.3278,12.0127,1.1456c-0.0089,0.2079-0.0208,0.4124-0.0374,0.6081
		c-0.1138,1.3282,0.6313,2.4805,1.6888,3.1921c-0.4559,0.689-0.7691,1.5241-0.7458,2.6142c0.0463,2.1591,2.0465,3.218,3.0643,4.4296
		c-0.0519,0.7623,0.0126,1.3968,0.2454,1.9505c-0.0352,0.0509-0.0645,0.0902-0.1021,0.1461
		c-0.3167,0.4698-0.3998,2.2713-0.3885,2.5055c0.2237,4.6604,4.1576,4.4711,2.9468,11.027
		c-0.3872,2.0953,2.5741,2.9708,3.2254,0.8892c0.7386-2.3611,1.2669-4.3811,0.8307-6.834c-0.3707-2.0839-1.425-3.5674-1.1609-5.5011
		C48.8905,35.3219,49.6503,34.3242,49.6607,32.966z"/>
	<g>
		<g>
			<g>
				<path class="st9" d="M37.804,23.5426c-0.3068,5.2977-0.4798,10.6033-0.6837,15.9057
					c-0.1755,4.5634,0.1496,11.3633-5.3058,13.0176c-4.2215,1.2802-8.8346-1.1-11.1039-4.6592
					c-2.6233-4.1144-2.8247-9.2369-2.9325-13.9669c-0.0174-0.7632-1.1531-0.7606-1.1836,0
					c-0.2186,5.45,0.2692,11.4992,3.8073,15.9312c2.4565,3.0772,6.6739,4.912,10.6075,4.2787
					c4.6857-0.7544,6.7118-4.8128,7.1822-9.1677c0.7574-7.0119,0.6126-14.2907,0.7023-21.3393
					C38.9029,22.8368,37.8443,22.8468,37.804,23.5426L37.804,23.5426z"/>
			</g>
		</g>
		<g>
			<g>
				<path class="st9" d="M16.1223,27.2652c3.7472-0.347,7.8669-2.4099,10.461-5.114c0.4356-0.4541-0.1571-1.3214-0.703-0.9111
					c-1.5179,1.141-2.9703,2.3032-4.6961,3.1242c-1.7174,0.817-3.5967,1.1847-5.3104,1.9836
					C15.4394,26.5506,15.6442,27.3095,16.1223,27.2652L16.1223,27.2652z"/>
			</g>
		</g>
		<g>
			<g>
				<path class="st9" d="M45.9671,62.6317c-4.7179-3.6488,0.9926-10.0854,2.4352-13.8718c0.7167-1.8811,0.8764-3.7313,0.1894-5.6384
					c-0.6455-1.792-1.5369-3.2164-0.8587-5.1682c0.5451-1.5686,2.0982-2.794,3.333-3.8247c0.2232-0.1863,0.2115-0.5226,0.0978-0.758
					c-0.7722-1.5999-1.7172-3.2054-2.3477-4.8641c-0.4784-1.2586-1.0061-2.5322-0.2904-3.8813
					c0.2894-0.5455,0.7562-0.9991,1.1017-1.5123c1.3492-2.0039,2.2155-4.3094,2.5671-6.6971
					c0.6452-4.3826-0.4244-9.3616-3.6235-12.5854c-5.5527-5.5955-16.9415-2.1349-21.5927,2.9912
					c-0.5324,0.5868,0.3062,1.4391,0.8742,0.8742c4.3649-4.3405,14.3541-7.8341,19.5904-3.1077
					c3.2538,2.9369,4.1838,8.0502,3.4182,12.19c-0.3771,2.0393-1.1627,3.9787-2.3208,5.6992
					c-0.8368,1.2431-1.9515,2.306-1.8345,3.907c0.1116,1.5284,1.1628,3.0358,1.8107,4.3759
					c0.3993,0.8259,1.3644,2.0474,1.0749,2.9767c-0.2015,0.647-1.7185,1.6235-2.1665,2.2381
					c-0.83,1.1384-1.3994,2.4219-1.2935,3.8593c0.1516,2.0579,1.7019,3.6577,1.712,5.767
					c0.0249,5.2368-9.1151,13.0758-2.4052,17.7157C45.8408,63.5957,46.3605,62.936,45.9671,62.6317L45.9671,62.6317z"/>
			</g>
		</g>
		<g>
			<g>
				<path class="st9" d="M22.387,6.6517c-5.1663-0.7949-10.4737,2.0914-12.2427,7.1341c-1.795,5.1169,0.7948,11.2147,5.6764,13.5033
					c0.686,0.3216,1.2778-0.6361,0.6033-1.0321c-4.0366-2.3698-6.4779-7.1521-5.069-11.7893
					c1.3872-4.5659,6.3087-7.3032,10.9074-6.8952C22.7827,7.6186,22.9104,6.7322,22.387,6.6517L22.387,6.6517z"/>
			</g>
		</g>
		<g>
			<g>
				<path class="st9" d="M26.4123,20.1797c-1.2898-5.1456,5.345-12.8853,10.568-12.5184c3.966,0.2787,7.3171,3.4734,8.4122,7.1828
					c1.2913,4.3741-0.5518,9.0267-3.3444,12.3871c-0.484,0.5824,0.3192,1.4212,0.8452,0.8452
					c3.2304-3.5371,5.0451-8.4318,3.8781-13.2088c-1.0225-4.1859-4.6185-7.7577-8.9301-8.4196
					c-3.706-0.5689-6.7441,1.5918-9.0499,4.3024c-2.1576,2.5364-4.3695,6.2486-3.3623,9.7001
					C25.6129,21.0803,26.5722,20.8177,26.4123,20.1797L26.4123,20.1797z"/>
			</g>
		</g>
		<g>
			<g>
				<path class="st9" d="M26.6653,21.7411c-0.2099-2.9527,1.8835-4.1355,4.1598-5.2371c1.2115-0.5862,4.1889-2.3414,5.4935-1.3491
					c0.5006,0.3808,1.1498-0.4614,0.6746-0.8742c-1.7893-1.5541-4.8492,0.1878-6.5851,1.0468
					c-2.7251,1.3485-5.1688,2.9568-4.7271,6.4136C25.7589,22.3513,26.7112,22.3861,26.6653,21.7411L26.6653,21.7411z"/>
			</g>
		</g>
		<g>
			<g>
				<path class="st9" d="M15.1359,29.8008c-2.8606,2.2246-2.3873,7.1571,0.7565,8.8802c0.6731,0.3689,1.2114-0.589,0.5944-1.0169
					c-2.364-1.6398-2.5955-5.0889-0.5761-7.0885C16.4269,30.0644,15.676,29.3808,15.1359,29.8008L15.1359,29.8008z"/>
			</g>
		</g>
		<g>
			<g>
				<path class="st9" d="M22.489,34.9794c1.5773-0.2871,3.0799-0.1858,4.6651-0.1555c0.5866,0.0112,0.727-0.9025,0.1402-1.0359
					c-1.6498-0.3749-3.4348-0.122-5.0436,0.3269C21.6872,34.2722,21.9289,35.0814,22.489,34.9794L22.489,34.9794z"/>
			</g>
		</g>
		<g>
			<g>
				<path class="st9" d="M26.7168,47.5306c1.5085,0.8865,3.3718,0.7507,4.685-0.4187c0.5786-0.5153-0.2595-1.3208-0.8411-0.8411
					c-0.9301,0.7671-2.236,0.8756-3.2969,0.3238C26.6472,46.2738,26.1119,47.1751,26.7168,47.5306L26.7168,47.5306z"/>
			</g>
		</g>
		<g>
			<g>
				<path class="st9" d="M31.7435,34.8487c1.3012,0.2045,2.6249,0.3551,3.9314,0.5302c0.7323,0.0982,0.7901-1.0102,0.1659-1.2258
					c-1.2573-0.4341-2.7974-0.5462-4.0973-0.248C31.295,34.008,31.2589,34.7726,31.7435,34.8487L31.7435,34.8487z"/>
			</g>
		</g>
		<g>
			<g>
				<path class="st9" d="M21.9354,27.194c1.7757-0.6301,3.5619-0.7852,5.428-0.5666c0.5876,0.0688,0.7209-0.9209,0.1402-1.0359
					c-2.0411-0.4039-4.0399-0.1054-5.9045,0.8046C21.1587,26.611,21.4678,27.3599,21.9354,27.194L21.9354,27.194z"/>
			</g>
		</g>
		<g>
			<g>
				<path class="st9" d="M31.8822,26.9373c1.534-0.5316,2.9572-0.5053,4.4187,0.2504c0.6566,0.3395,1.2047-0.5925,0.5796-0.9916
					c-1.5951-1.0186-3.7274-1.1141-5.3843-0.1744C31.0135,26.2954,31.3351,27.1269,31.8822,26.9373L31.8822,26.9373z"/>
			</g>
		</g>
		<g>
			<g>
				<path class="st9" d="M28.1187,40.6536c0.4694,0.2137,0.9388,0.4274,1.4082,0.6411c0.2381,0.1084,0.4408,0.0788,0.6412-0.0827
					c0.1861-0.1499,0.3575-0.3098,0.5234-0.4819c0.4793-0.4973-0.2225-1.1401-0.7375-0.7375
					c-0.1885,0.1473-0.3656,0.3012-0.5342,0.4711c0.1716-0.0454,0.3432-0.0907,0.5148-0.1361
					c-0.4932-0.1573-0.9864-0.3145-1.4795-0.4718C27.9926,39.7082,27.6634,40.4463,28.1187,40.6536L28.1187,40.6536z"/>
			</g>
		</g>
	</g>
	<g>
		<g>
			<path class="st9" d="M21.828,52.3474c-0.3811,2.9762-0.3569,5.6845-2.4445,8.1009c-1.8366,2.1259-4.4671,3.0574-7.0361,3.9646
				c-3.8817,1.3708-7.3381,3.0807-7.8701,7.5792c-0.0871,0.7368,1.1104,0.8776,1.2833,0.1737
				c1.531-6.2342,7.8898-5.7498,12.3631-8.886c3.4262-2.4021,5.5985-6.8508,4.6078-11.0547
				C22.6024,51.6773,21.8889,51.8716,21.828,52.3474L21.828,52.3474z"/>
		</g>
	</g>
	<g>
		<g>
			<path class="st9" d="M30.2263,54.113c-0.77,3.3601-1.1889,7.9507,2.7632,9.4608c2.3604,0.9019,4.9637-0.1162,7.2169,1.0946
				c2.7127,1.4577,3.2034,4.801,3.2273,7.6145c0.0066,0.7761,1.0796,0.7264,1.1719,0c0.4053-3.1918-0.5947-7.1915-3.596-8.8798
				c-1.7102-0.962-3.505-0.719-5.3934-0.781c-4.8878-0.1606-5.1431-4.3978-4.548-8.2771
				C31.1512,53.8041,30.3546,53.5535,30.2263,54.113L30.2263,54.113z"/>
		</g>
	</g>
	<g>
		<g>
			<path class="st9" d="M2.9128,72.5353c6.8552,1.9577,14.5812,2.2703,21.6711,2.172c7.3232-0.1016,14.5275-1.0895,21.7085-2.4383
				c0.7028-0.132,0.3959-1.1701-0.2928-1.0622c-7.216,1.13-14.5198,2.0559-21.8326,2.1425
				c-7.152,0.0847-14.0419-1.1961-21.1326-1.7117C2.51,71.5995,2.4286,72.3971,2.9128,72.5353L2.9128,72.5353z"/>
		</g>
	</g>
	<g>
		<g>
			<path class="st9" d="M1.8144,72.6271c-0.5923,3.6815-0.7855,7.4561-1.0849,11.1714c-0.021,0.2604,0.2085,0.5475,0.4599,0.604
				c9.3056,2.0933,18.6727,0.429,28.02-0.6709c6.0207-0.7085,12.0323-1.4964,18.0378-2.3229
				c0.374-0.0515,0.5689-0.5286,0.4837-0.8519c-0.7464-2.8296-1.0544-5.6631-1.2255-8.5758c-0.0461-0.7846-1.1905-0.7915-1.2246,0
				c-0.1304,3.0302,0.3447,6.0202,1.1146,8.944c0.1612-0.284,0.3224-0.5679,0.4837-0.8519
				c-6.9135,0.9482-13.8334,1.8833-20.7677,2.6662c-4.9833,0.5626-10.0278,1.3764-15.0423,1.5207
				c-1.3067,0.0376-2.6152,0.0074-3.9181-0.1022c-1.0106-0.085-4.2194-0.0806-4.904-1.0128
				c-0.6377-0.8685,0.0924-3.7641,0.176-4.8696c0.139-1.8373,0.3087-3.68,0.318-5.523C2.7436,72.2381,1.9011,72.0888,1.8144,72.6271
				L1.8144,72.6271z"/>
		</g>
	</g>
	<g>
		<g>
			<path class="st9" d="M2.3459,84.5748c-0.2817,5.3009-0.1753,10.656-0.2021,15.9641c-0.0119,2.3562-0.6786,8.5298,1.9355,9.925
				c1.5819,0.8443,4.2501,0.3657,5.9954,0.4521c2.0625,0.1021,4.1236,0.244,6.1765,0.4698
				c4.7143,0.5186,9.2845,1.6278,13.9256,2.5494c0.7833,0.1555,1.1219-1.0007,0.3333-1.2091
				c-7.0901-1.8743-14.3941-2.9151-21.7193-3.1529c-0.9095-0.0295-2.3699,0.2268-3.2109-0.0743
				c-1.9982-0.7154-1.9162-2.6411-2.0717-4.3475c-0.1975-2.1677-0.1312-4.3539-0.1177-6.5276
				c0.0289-4.6716,0.1965-9.3812,0.016-14.0492C3.38,83.8909,2.3821,83.8937,2.3459,84.5748L2.3459,84.5748z"/>
		</g>
	</g>
	<g>
		<g>
			<path class="st9" d="M10.5306,85.9678c-1.0896,4.0206-1.5004,8.3117-1.5661,12.467c-0.0174,1.1003-0.403,3.0016,0.3166,3.991
				c0.6983,0.9601,2.5001,0.8565,3.5182,1.0422c7.4923,1.3669,14.5366,4.056,21.9118,5.8092
				c0.8206,0.1951,1.1199-0.9657,0.3442-1.2487c-5.7368-2.0929-11.824-3.7453-17.8011-4.9929
				c-1.5148-0.3162-3.0364-0.5979-4.5623-0.8549c-0.8024-0.1352-1.9899-0.067-2.4702-0.8767
				c-0.2493-0.4204-0.0388-2.3824-0.0326-2.8692c0.0525-4.1261,0.6901-8.1256,1.3641-12.1851
				C11.6627,85.5906,10.7129,85.2951,10.5306,85.9678L10.5306,85.9678z"/>
		</g>
	</g>
	<g>
		<g>
			<path class="st9" d="M35.2996,109.3413c0.9553-0.464,1.6609-1.4396,2.395-2.1918c0.4675-0.4791,1.0582-1.4079,1.9138-0.9883
				c0.4247,0.2083,0.7303,0.7594,1.0523,1.0914c0.4676,0.482,1.1574-0.1276,0.8881-0.6852
				c-0.514-1.0641-1.7687-2.1742-3.0318-1.7245c-0.7688,0.2738-1.3123,1.0208-1.8581,1.5872
				c-0.6852,0.7111-1.5596,1.392-1.9686,2.302C34.5071,109.1398,34.8814,109.5444,35.2996,109.3413L35.2996,109.3413z"/>
		</g>
	</g>
	<g>
		<g>
			<path class="st9" d="M30.1396,113.941c2.9709,1.9028,6.8561,2.0202,10.0947,0.7268c1.0344-0.4131,3.2057-1.308,3.5884-2.501
				c0.4466-1.392-1.1924-3.9416-1.8212-5.1875c-0.2878-0.5702-1.2117-0.1736-1.0281,0.4334
				c0.3314,1.0957,1.3283,2.546,1.3937,3.6821c0.0861,1.4955-2.3339,2.3841-3.6193,2.7578
				c-2.7802,0.8083-5.4983,0.3503-8.1115-0.7616C30.0673,112.8489,29.5908,113.5895,30.1396,113.941L30.1396,113.941z"/>
		</g>
	</g>
	<g>
		<g>
			<path class="st9" d="M13.8312,85.8773c1.9614,5.7549,2.7248,11.0548,2.4678,17.1261c-0.0287,0.6788,1.1003,0.8572,1.2085,0.1636
				c0.9073-5.8144-0.0544-12.4363-2.5946-17.7457C14.6251,84.8199,13.6149,85.2429,13.8312,85.8773L13.8312,85.8773z"/>
		</g>
	</g>
	<g>
		<g>
			<path class="st9" d="M41.0027,81.6665c-0.0291,3.5992,2.6327,8.6175-1.6487,10.5515c-6.0228,2.7206-13.1577,0.9146-19.512,1.3208
				c-0.7533,0.0481-0.7692,1.1827,0,1.1836c4.17,0.005,8.3561,0.445,12.5237,0.2152c2.8847-0.1591,6.337-0.5338,8.7418-2.2967
				c3.4786-2.5499,1.2339-7.5063,0.8854-10.9744C41.9305,81.0451,41.008,81.0161,41.0027,81.6665L41.0027,81.6665z"/>
		</g>
	</g>
	<g>
		<g>
			<path class="st9" d="M36.397,93.8123c-2.0977,4.285-3.5262,9.0014-4.433,13.677c-0.1555,0.8016,1.0417,1.152,1.2374,0.3411
				c1.1227-4.6538,2.616-9.0813,4.2451-13.5756C37.6668,93.6471,36.683,93.228,36.397,93.8123L36.397,93.8123z"/>
		</g>
	</g>
	<g>
		<g>
			<path class="st9" d="M43.9802,81.451c0.682,4.4175,0.9751,9.8093,4.0021,13.3433c2.8991,3.3848,7.2757,5.3837,10.6806,8.2093
				c0.5435,0.4511,1.2483-0.2378,0.7789-0.7789c-2.749-3.1694-6.9469-4.6152-9.8857-7.5809
				c-1.84-1.8568-2.7105-4.1213-3.1665-6.6598c-0.4111-2.2885-0.4712-4.7996-1.6651-6.8467
				C44.4767,80.7123,43.9133,81.0175,43.9802,81.451L43.9802,81.451z"/>
		</g>
	</g>
	<g>
		<g>
			<path class="st9" d="M39.8812,92.6334c0.713,2.2892,1.5193,4.9165,3.4248,6.5226c1.2694,1.0699,2.9613,1.7502,4.4426,2.457
				c3.5011,1.6705,7.1175,3.3286,10.8231,4.4972c0.6834,0.2155,0.9122-0.7858,0.2882-1.0453
				c-3.1748-1.32-6.3752-2.5783-9.521-3.9678c-1.5503-0.6848-3.1372-1.3791-4.5831-2.2704
				c-2.2444-1.3837-3.1981-4.0561-4.1231-6.4005C40.4531,91.9713,39.7287,92.1439,39.8812,92.6334L39.8812,92.6334z"/>
		</g>
	</g>
	<g>
		<g>
			<path class="st16" d="M75.4661,52.9829c8.5053,0.5043,17.0555,0.5514,25.572,0.7819c-0.0778-0.5747-0.1556-1.1494-0.2333-1.7241
				c-0.6209,0.1328-0.8091,0.2115-1.3854,0.4646c-0.7011,0.308-0.2998,1.352,0.3697,1.3648
				c0.6369,0.0122,0.8542-0.0188,1.4824-0.1367c0.9985-0.1874,0.7265-1.703-0.2333-1.7241
				c-8.515-0.1876-17.0548-0.5605-25.572-0.4737C74.5285,51.5452,74.5416,52.9281,75.4661,52.9829L75.4661,52.9829z"/>
		</g>
	</g>
	<g>
		<g>
			<path class="st16" d="M75.4661,57.0626c1.6425,0.0778,3.2859-0.096,4.932-0.019c1.8549,0.0868,3.6161,0.4948,5.4422,0.7654
				c0.9107,0.135,1.2771-1.0722,0.3847-1.3956c-3.2181-1.1661-7.6355-1.4679-10.8937-0.3464
				C74.7924,56.2526,74.8826,57.0349,75.4661,57.0626L75.4661,57.0626z"/>
		</g>
	</g>
	<g>
		<g>
			<path class="st16" d="M75.4661,60.3792c6.7205,0.3259,13.3956,1.0428,20.0558,1.9872c0.6339,0.0899,0.9175-0.8734,0.2695-0.9775
				c-6.7272-1.0808-13.5165-1.6346-20.3253-1.8242C74.9403,59.5501,74.9445,60.3539,75.4661,60.3792L75.4661,60.3792z"/>
		</g>
	</g>
	<g>
		<g>
			<path class="st16" d="M75.4661,70.1452c2.1346,0.1368,4.2879,0.1639,6.4258,0.1055c0.7576-0.0207,0.7589-1.157,0-1.1777
				c-2.1378-0.0585-4.2912-0.0313-6.4258,0.1055C74.8447,69.2182,74.8436,70.1053,75.4661,70.1452L75.4661,70.1452z"/>
		</g>
	</g>
	<g>
		<g>
			<path class="st16" d="M75.3376,72.6922c1.7284,0.2818,3.4725,0.4414,5.2187,0.5683c0.7417,0.0539,0.7176-1.0641,0-1.1426
				c-1.692-0.1849-3.388-0.3421-5.0902-0.3753C74.936,71.7323,74.7892,72.6027,75.3376,72.6922L75.3376,72.6922z"/>
		</g>
	</g>
	<g>
		<g>
			<path class="st16" d="M88.109,71.5163c1.5097,0.1584,3.0778,0.2187,4.5898,0.0498c0.6769-0.0756,0.6783-0.9789,0-1.0547
				c-1.512-0.1689-3.08-0.1086-4.5898,0.0498C87.4959,70.6255,87.4947,71.4519,88.109,71.5163L88.109,71.5163z"/>
		</g>
	</g>
	<g>
		<g>
			<path class="st16" d="M87.9914,73.6825c1.8609,0.2749,3.7489,0.4115,5.6233,0.5598c0.6498,0.0514,0.6382-0.9464,0-1.0078
				c-1.8284-0.1758-3.6689-0.37-5.5057-0.421C87.6232,72.8,87.4899,73.6084,87.9914,73.6825L87.9914,73.6825z"/>
		</g>
	</g>
	<g>
		<g>
			<path class="st16" d="M102.5507,70.9612c1.6842-0.2057,3.2236-0.1312,4.874,0.2825c0.5796,0.1453,1.0135-0.7396,0.4244-1.0067
				c-1.7035-0.7724-3.6781-0.8782-5.4199-0.1736C102.0012,70.2366,101.9907,71.0296,102.5507,70.9612L102.5507,70.9612z"/>
		</g>
	</g>
	<g>
		<g>
			<path class="st16" d="M102.6854,73.6982c1.648-0.3294,3.2718-0.4216,4.9426-0.2237c0.6267,0.0742,0.7809-1.0192,0.1503-1.1107
				c-1.8073-0.2622-3.6106-0.1873-5.3624,0.3569C101.7884,72.9157,102.0486,73.8255,102.6854,73.6982L102.6854,73.6982z"/>
		</g>
	</g>
	<g>
		<g>
			<path class="st16" d="M75.4661,81.2252c1.6793,0.0731,3.3691,0.1066,5.0488,0.0352c0.7499-0.0319,0.7512-1.134,0-1.166
				c-1.6797-0.0715-3.3695-0.0379-5.0488,0.0352C74.7615,80.1602,74.7603,81.1945,75.4661,81.2252L75.4661,81.2252z"/>
		</g>
	</g>
	<g>
		<g>
			<path class="st16" d="M75.5806,83.7903c1.6948-0.6953,3.5087-0.7732,5.2652-0.268c0.6317,0.1817,0.9014-0.8018,0.271-0.9831
				c-2.0163-0.58-3.963-0.3874-5.8681,0.4639C74.8086,83.1998,75.128,83.976,75.5806,83.7903L75.5806,83.7903z"/>
		</g>
	</g>
	<g>
		<g>
			<path class="st16" d="M88.25,81.1161c1.623-0.5201,3.2039-0.5011,4.8289-0.0029c0.7241,0.222,0.9839-0.849,0.3069-1.1131
				c-1.7516-0.6832-3.6879-0.6314-5.4177,0.0933C87.3599,80.3482,87.5809,81.3305,88.25,81.1161L88.25,81.1161z"/>
		</g>
	</g>
	<g>
		<g>
			<path class="st16" d="M88.2251,84.1448c2.263-0.3048,4.5186-0.3016,6.794-0.1728c0.6577,0.0372,0.6217-0.9239,0-1.002
				c-2.36-0.2962-4.6986-0.125-7.0261,0.3329C87.4305,83.4136,87.6846,84.2176,88.2251,84.1448L88.2251,84.1448z"/>
		</g>
	</g>
	<g>
		<g>
			<path class="st16" d="M102.5507,81.1022c1.8342,0.1171,3.6676,0.3068,5.5078,0.1377c0.7225-0.0664,0.7239-1.0585,0-1.125
				c-1.8412-0.1692-3.6729,0.0206-5.5078,0.1377C102.0045,80.2874,102.0036,81.0673,102.5507,81.1022L102.5507,81.1022z"/>
		</g>
	</g>
	<g>
		<g>
			<path class="st16" d="M102.5507,84.1898c1.2714-0.0387,2.525-0.0994,3.7866-0.2789c0.5871-0.0835,0.4386-1.0358-0.1386-1.0243
				c-1.2279,0.0243-2.4326,0.1707-3.6479,0.3306C101.9515,83.296,101.9057,84.2094,102.5507,84.1898L102.5507,84.1898z"/>
		</g>
	</g>
	<g>
		<g>
			<path class="st16" d="M76.9721,92.1331c-1.2789-0.2401-2.3504,0.9185-2.1607,2.1957c0.2141,1.4418,1.9255,2.4312,3.2674,2.5706
				c1.4306,0.1486,2.4543-0.9872,2.4253-2.3819c-0.03-1.4459-1.3098-2.8603-2.6213-3.3466
				c-0.6599-0.2447-0.9721,0.6255-0.6185,1.0626c0.5466,0.6757,2.6887,1.9149,1.5985,3.0691
				c-0.462,0.4891-1.4179,0.026-1.8873-0.2634c-0.313-0.193-0.7217-0.4784-0.8013-0.87c-0.0518-0.2548,0.0608-0.872,0.4614-0.8157
				C77.4213,93.4641,77.786,92.286,76.9721,92.1331L76.9721,92.1331z"/>
		</g>
	</g>
	<g>
		<g>
			<path class="st16" d="M91.1109,91.0475c-1.7214-0.2108-3.343,1.1241-3.5843,2.8278c-0.2264,1.5986,0.9691,3.0077,2.4829,3.3793
				c1.5242,0.3742,3.0845-0.3227,3.6571-1.8144c0.5303-1.3813,0.136-3.2579-1.2507-3.9676c-0.5157-0.2639-1.1,0.4013-0.6426,0.8328
				c0.6723,0.6343,1.0573,1.4532,0.8426,2.3891c-0.234,1.0201-1.1484,1.5745-2.1648,1.3753
				c-0.9435-0.1849-1.7801-0.9291-1.7147-1.9482c0.0773-1.2039,1.2019-2.125,2.3746-2.0722
				C91.7697,92.0792,91.7331,91.1237,91.1109,91.0475L91.1109,91.0475z"/>
		</g>
	</g>
	<g>
		<g>
			<path class="st16" d="M104.7216,92.9164c0.3336-0.4004,0.5578-0.8245,0.6973-1.3269c0.0799-0.288-0.0981-0.6147-0.3917-0.6899
				c-1.1724-0.3002-2.4382,0.3055-2.9468,1.4076c-0.5299,1.1483,0.0399,2.4808,1.1549,3.0252
				c1.0417,0.5086,2.2509,0.0789,2.6911-0.9961c0.4173-1.0191,0.0564-2.1447-0.9925-2.5526
				c-0.6538-0.2543-0.954,0.7125-0.4492,1.0656c0.7062,0.4941-0.0072,1.8033-0.8493,1.1205
				c-1.1186-0.907,0.2843-1.9605,1.2428-1.9686c-0.1869-0.1869-0.3739-0.3739-0.5608-0.5608
				c0.0302,0.3819-0.058,0.6372-0.2859,0.9435C103.7359,92.7812,104.4025,93.2994,104.7216,92.9164L104.7216,92.9164z"/>
		</g>
	</g>
	<g>
		<g>
			<path class="st9" d="M125.4287,55.6642c6.3217,3.1652,12.8648,5.9182,19.316,8.8074c0-0.3856,0-0.7712,0-1.1569
				c-4.8073,3.5177-9.7493,6.9088-14.4101,10.6189c-0.5825,0.4636,0.1812,1.4543,0.7988,1.0353
				c4.8819-3.3116,9.5447-6.9897,14.2875-10.4973c0.3548-0.2624,0.51-0.9315,0-1.1569c-6.5166-2.8788-12.9931-5.9161-19.6288-8.5126
				C125.2959,54.6079,124.9531,55.4261,125.4287,55.6642L125.4287,55.6642z"/>
		</g>
	</g>
	<g>
		<g>
			<path class="st9" d="M130.2221,58.7534c-2.8585,3.4139-2.5734,8.8313,0.8931,11.7346c0.5558,0.4655,1.3299-0.2724,0.8079-0.8079
				c-2.7789-2.8512-3.1709-7.0181-0.8728-10.2876C131.3916,58.9069,130.6071,58.2936,130.2221,58.7534L130.2221,58.7534z"/>
		</g>
	</g>
	<g>
		<g>
			<path class="st9" d="M113.5875,65.5642c1.0714,0.0235,2.1414,0.0596,3.2129,0.0322c0.6747-0.0172,0.6758-1.0316,0-1.0488
				c-1.0714-0.0274-2.1415,0.0088-3.2129,0.0322C112.9543,64.5937,112.9532,65.5503,113.5875,65.5642L113.5875,65.5642z"/>
		</g>
	</g>
	<g>
		<g>
			<path class="st9" d="M119.796,65.9452c0.8064-0.3454,1.6461-0.405,2.5109-0.3295c0.6928,0.0605,0.665-0.9824,0-1.0664
				c-1.036-0.1309-2.0626,0.1155-2.9899,0.5763C118.7597,65.4025,119.2486,66.1797,119.796,65.9452L119.796,65.9452z"/>
		</g>
	</g>
	<g>
		<g>
			<path class="st9" d="M125.0621,66.029c0.6142,0.0111,1.2222,0.0103,1.8359-0.0205c0.6141-0.0308,0.6152-0.9242,0-0.9551
				c-0.6137-0.0308-1.2217-0.0316-1.8359-0.0205C124.4213,65.0445,124.4202,66.0174,125.0621,66.029L125.0621,66.029z"/>
		</g>
	</g>
	<g>
		<g>
			<path class="st9" d="M127.7552,50.384c-0.18,2.1017,0.1024,4.3067,0.9943,6.2285c0.2561,0.5518,1.1017,0.1551,0.9585-0.4041
				c-0.4987-1.9481-0.8874-3.8048-0.9392-5.8244C128.7519,49.7234,127.8102,49.7412,127.7552,50.384L127.7552,50.384z"/>
		</g>
	</g>
	<g>
		<g>
			<path class="st9" d="M132.3635,54.2238c-0.7451,1.3302-0.7555,2.9173,0.0869,4.2048c0.3635,0.5556,1.175,0.0742,0.8854-0.5175
				c-0.4863-0.9937-0.5442-2.1515-0.0717-3.1609C133.5442,54.152,132.6969,53.6288,132.3635,54.2238L132.3635,54.2238z"/>
		</g>
	</g>
	<g>
		<g>
			<path class="st9" d="M137.3586,58.0305c-0.1596,0.4573-0.3026,0.9184-0.4446,1.3815c-0.1871,0.6101,0.746,0.8566,0.9492,0.2617
				c0.1566-0.4584,0.3113-0.9158,0.4502-1.3799C138.498,57.6775,137.5666,57.4346,137.3586,58.0305L137.3586,58.0305z"/>
		</g>
	</g>
	<g>
		<g>
			<path class="st9" d="M128.6526,63.9806c0.3484,0.8611,0.5201,1.7397,0.3859,2.6692c-0.1445,1.0005,1.213,1.8117,1.7776,0.7494
				c1.0155-1.9105,0.8453-4.4067-0.7251-5.9831c-0.7385-0.7413-2.1756,0.2729-1.5,1.1574c0.8797,1.1518,1.2556,2.4908,0.5456,3.844
				c0.5925,0.2498,1.1851,0.4996,1.7776,0.7494c0.1781-1.2817,0.0931-2.492-0.4026-3.6988
				C130.0474,62.3384,128.1857,62.8266,128.6526,63.9806L128.6526,63.9806z"/>
		</g>
	</g>
	<g>
		<g>
			<path class="st16" d="M172.0031,72.5352c-1.6877-1.3127-2.2542-3.3712-4.4306-4.0456c-0.4561-0.1413-1.0966,0.2593-1.0295,0.7842
				c0.1559,1.2191,0.2933,2.6913-0.8857,3.4816c-0.8374,0.5613-2.2189,0.4979-3.0205-0.0894
				c-1.4306-1.0482-2.5218-2.5657-4.07-3.5178c-3.9014-2.3996-3.4213-7.8046-2.0211-11.6149
				c1.4007-3.8118,4.1567-7.55,7.8476-9.3953c0.9531-0.4765,1.2396-0.8723,1.6368-0.253c0.2805,0.4373,0.2115,1.3696,0.234,1.8563
				c0.0687,1.4861-0.0193,2.9824-0.1296,4.4643c-0.1417,1.9043-0.3513,3.6414-0.1403,5.5475
				c0.1604,1.4487,0.2378,4.9116,1.8098,5.6914c2.1219,1.0527,2.7399-3.0335,2.617-4.2111
				c-0.083-0.7958-0.3485-1.5554-0.4886-2.3395c-0.293-1.6396-0.1077-3.3003,0.0896-4.9405
				c0.1827-1.519,0.4377-3.0289,0.6324-4.5464c0.2033-1.5849,0.4332-1.9445,2.2066-1.4992
				c3.8968,0.9785,5.1491,6.5731,5.8889,9.9175c0.5855,2.6469,1.0508,5.3947,0.5155,8.0936
				c-0.565,2.8487-3.7116,8.3422-7.4499,6.5485c-0.8178-0.3924-1.5397,0.8062-0.7186,1.2294
				c3.1759,1.6369,6.5578-0.9796,8.1952-3.6248c2.2183-3.5834,1.8777-7.9758,1.0308-11.9146
				c-1.099-5.1108-3.4915-13.0383-10.2536-11.4073c-0.2893,0.0698-0.4462,0.3394-0.4686,0.6155
				c-0.2051,2.5254-0.6801,5.0133-0.9384,7.5319c-0.1176,1.1473-0.2508,2.3308-0.1519,3.4833
				c0.1013,1.1797,0.6153,2.3697,0.5772,3.5579c-0.0142,0.4412-0.7619,2.2227-0.5706,2.2784
				c-0.2831-0.0825-0.4654-1.0636-0.5382-1.3209c-0.3416-1.2067-0.49-2.4872-0.6007-3.7326
				c-0.3383-3.8042,1.2546-7.9538,0.0713-11.67c-1.5015-4.7156-8.8196,3.3463-9.9739,5.0154
				c-3.0434,4.4007-5.5066,12.253-1.4196,16.865c0.4318,0.4872,0.8578,0.672,1.3901,1.0071
				c0.9808,0.6176,1.9276,1.2491,2.7975,2.0693c1.5433,1.4552,1.6323,2.3368,3.9334,2.2872c3.2027-0.069,4.3741-2.561,3.9929-5.464
				c-0.3432,0.2614-0.6863,0.5228-1.0295,0.7842c1.7284,0.5291,2.4713,2.6776,3.9258,3.6918
				C171.7777,74.2463,172.6983,73.0759,172.0031,72.5352z"/>
		</g>
	</g>
	<g>
		<g>
			<path class="st16" d="M158.7081,66.3843c-0.7056-0.5721-0.5341-1.1134,0.5146-1.6238c0.4536-0.1161,0.9136-0.1842,1.3802-0.2043
				c0.5442-0.0577,1.085-0.0793,1.6143-0.2374c0.7917-0.2364,1.5449-0.6855,1.9137-1.4485
				c0.8823-1.8256-0.6953-4.1663-2.3355-4.9443c-3.7621-1.7844-6.1491,4.3912-2.7737,5.0811
				c0.6756,0.1381,1.2349-0.6702,0.6984-1.1997c-0.5324-0.5255-0.8507-1.1535-0.4194-1.8935
				c0.672-1.1529,2.1534-0.6835,2.9039,0.1459c0.5188,0.5733,1.0957,1.7137,0.5073,2.4683
				c-0.2449,0.3141-0.9271,0.4835-1.3132,0.5711c-0.9327,0.2116-1.8668,0.0818-2.7743,0.4411
				c-1.636,0.6478-2.5464,3.6068-0.2294,3.9796C159.1257,67.6375,159.4592,66.5724,158.7081,66.3843L158.7081,66.3843z"/>
		</g>
	</g>
	<g>
		<g>
			<path class="st16" d="M166.0694,60.194c0.2041-0.927-0.0263-1.8622-0.6284-2.5976c-0.5564-0.6796-1.5677-1.281-2.4688-1.0349
				c-0.6752,0.1844-0.645,1.1402,0,1.3391c0.5207,0.1606,0.9494,0.1843,1.3476,0.6091c0.3306,0.3528,0.5589,0.8425,0.4839,1.3353
				C164.6799,60.6589,165.8841,61.0358,166.0694,60.194L166.0694,60.194z"/>
		</g>
	</g>
	<g>
		<g>
			<path class="st16" d="M162.2014,47.9348c0.2414,0.7159,0.3461,1.4496,0.2434,2.2024c-0.0982,0.7201-0.4513,1.3325-0.6466,2.0213
				c-0.1744,0.6151,0.5896,1.0059,1.0332,0.6014c1.3388-1.2206,1.2947-3.6314,0.6638-5.1819
				C163.1788,46.8002,161.9194,47.0984,162.2014,47.9348L162.2014,47.9348z"/>
		</g>
	</g>
	<g>
		<g>
			<path class="st16" d="M160.9493,70.7431c0.1924-0.773,0.6779-1.4021,1.3696-1.8014c0.7165-0.4137,1.3996-0.3754,2.192-0.3142
				c0.6889,0.0532,1.0169-1.0567,0.3638-1.343c-2.2103-0.9689-4.8765,0.8209-5.2531,3.0926
				C159.4798,71.2326,160.7311,71.6201,160.9493,70.7431L160.9493,70.7431z"/>
		</g>
	</g>
	<g>
		<g>
			<path class="st16" d="M163.0648,73.998c1.2447-0.2694,2.4346-1.3224,2.1335-2.7293c-0.2237-1.0454-1.8052-2.3236-2.7172-1.2112
				c-0.3653,0.4456-0.1297,1.0811,0.464,1.1203c0.3643,0.0241,0.7745,0.0797,0.7448,0.5599
				c-0.0291,0.4698-0.6831,1.0457-1.027,1.3072C162.2061,73.3922,162.4541,74.1302,163.0648,73.998L163.0648,73.998z"/>
		</g>
	</g>
	<g>
		<g>
			<path class="st16" d="M160.7409,66.4581c1.5469-0.633,3.2003-0.8537,4.8492-0.5624c0.4172,0.0737,0.8303-0.1081,0.9554-0.5424
				c0.3345-1.1613,0.976-2.3289,1.0806-3.5271c0.0518-0.5936-0.7702-0.8806-1.1553-0.4785
				c-0.8708,0.9092-1.1715,2.3916-1.4231,3.5928c0.2496-0.1901,0.4993-0.3801,0.7489-0.5702
				c-1.9386-0.0648-3.6966,0.3568-5.3943,1.2848C159.9768,65.8875,160.2719,66.65,160.7409,66.4581L160.7409,66.4581z"/>
		</g>
	</g>
	<g>
		<g>
			<path class="st16" d="M160.8553,57.3589c-0.6633-1.0382,0.4113-1.7716,1.3219-2.0085c1.04-0.2706,1.6749,0.1172,2.6549,0.2967
				c0.9106,0.1668,2.168-0.2455,2.0493-1.3613c-0.0575-0.5403-0.647-0.8338-1.0753-0.4454
				c-0.7095,0.6435-1.8111-0.0677-2.6766-0.0413c-0.8881,0.0271-1.8301,0.3-2.5508,0.8231
				c-1.1553,0.8386-1.6308,2.296-0.6713,3.4681C160.3422,58.6213,161.2213,57.9317,160.8553,57.3589L160.8553,57.3589z"/>
		</g>
	</g>
	<g>
		<g>
			<path class="st16" d="M165.0723,52.6905c0.5292-0.2467,0.7653-0.7023,0.9383-1.2411c0.0701-0.2183,0.1003-0.4765,0.2501-0.6588
				c0.1672-0.2034,0.2016-0.1211,0.469-0.0923c0.4902,0.0529,0.765-0.5693,0.5439-0.9478
				c-0.4741-0.8116-1.5244-0.4656-2.0203,0.1282c-0.2532,0.3032-0.3859,0.6438-0.4853,1.0218
				c-0.0795,0.3023-0.1236,0.6979-0.3632,0.9249C163.9244,52.2806,164.5332,52.9419,165.0723,52.6905L165.0723,52.6905z"/>
		</g>
	</g>
	<g>
		<g>
			<path class="st16" d="M158.8303,52.3017c1.3778,1.3261-2.1784,2.5585-2.7269,3.2202c-0.465,0.5609,0.1024,1.2549,0.7527,0.9755
				c1.1353-0.4879,2.6551-1.233,3.2405-2.3879c0.4939-0.9746,0.406-2.119-0.5242-2.7694
				C158.9975,50.9381,158.3359,51.8259,158.8303,52.3017L158.8303,52.3017z"/>
		</g>
	</g>
	<g>
		<g>
			<path class="st16" d="M155.6142,59.1665c0.4599-0.231,0.9221-0.1294,1.3896-0.2875c0.3822-0.1293,0.6405-0.6972,0.2637-0.9989
				c-0.7266-0.5818-1.7625-0.2641-2.3527,0.38C154.4653,58.7506,155.0266,59.4617,155.6142,59.1665L155.6142,59.1665z"/>
		</g>
	</g>
	<g>
		<g>
			<path class="st16" d="M155.6809,61.2744c-0.0259,0.0411-0.0518,0.0822-0.0777,0.1233c-0.1223,0.0506-0.2445,0.1013-0.3668,0.1519
				c-0.2491-0.0108-0.2535-0.311-0.2067,0.0792c0.0181,0.1514,0.0357,0.3036,0.0584,0.4543
				c0.0443,0.2941,0.1065,0.5908,0.2137,0.8689c0.2343,0.6081,0.7991,1.3504,1.5452,1.0979
				c0.3111-0.1053,0.6181-0.477,0.4706-0.8289c-0.1508-0.3598-0.461-0.5528-0.5948-0.9158
				c-0.1483-0.4023-0.2123-0.8313-0.4231-1.2116c-0.1901-0.3428-0.5169-0.6053-0.9251-0.6123
				c-0.3858-0.0066-0.6932,0.2685-0.6892,0.6583C154.6911,61.6905,155.5759,61.8543,155.6809,61.2744L155.6809,61.2744z"/>
		</g>
	</g>
	<g>
		<g>
			<path class="st16" d="M168.9531,69.1312c-0.0494-0.6695,1.072-0.9059,1.5282-1.0919c0.6352-0.259,1.1479-0.5932,1.5199-1.1831
				c0.5685-0.9017-0.9755-1.66-1.3976-0.5892c-0.0973,0.2469-0.5291,0.3843-0.7486,0.4853
				c-0.3657,0.1685-0.7257,0.3204-1.0501,0.5637c-0.6467,0.485-0.9793,1.1387-0.7265,1.9335
				C168.2235,69.7059,168.9917,69.6545,168.9531,69.1312L168.9531,69.1312z"/>
		</g>
	</g>
	<g>
		<g>
			<path class="st16" d="M170.8886,69.918c0.7144,0.543,1.3383,1.4466,0.5864,2.2446c-0.6538,0.6939,0.3446,1.6874,1.0441,1.0441
				c0.6836-0.6287,0.8952-1.6466,0.6656-2.529c-0.1046-0.4019-0.3144-0.8103-0.609-1.1065
				c-0.4403-0.4428-0.8719-0.4737-1.4521-0.5212C170.6093,69.0079,170.5648,69.6719,170.8886,69.918L170.8886,69.918z"/>
		</g>
	</g>
	<g>
		<g>
			<path class="st16" d="M178.7154,55.7918c-0.9382-1.4619-3.2118-0.7429-4.074,0.4562c-0.5124,0.7126-0.693,1.6067-0.5168,2.4644
				c0.0939,0.4571,0.2897,0.8928,0.5188,1.2978c0.1343,0.2374,0.2943,0.4559,0.4396,0.6864
				c0.1249,0.1981,1.1312,1.8431-0.1143,1.585c-0.721-0.1494-1.2308,0.6762-0.7183,1.234c1.2421,1.3516,3.0535-0.2389,2.9713-1.735
				c-0.0552-1.0051-0.6901-1.7625-1.2415-2.5518c-0.5785-0.828-0.642-1.7689,0.1818-2.4283
				c0.7294-0.5838,1.3434-0.2781,2.1815-0.3607C178.6478,56.4099,178.9072,56.0906,178.7154,55.7918L178.7154,55.7918z"/>
		</g>
	</g>
	<g>
		<g>
			<path class="st16" d="M177.3121,58.804c-0.1402,0.0614,0.0712,0.0117,0.1122,0.0079c0.0849-0.0079,0.1691-0.0236,0.2538-0.0333
				c0.1589-0.0181,0.3146-0.0366,0.4744-0.0123c0.3419,0.0519,0.5756,0.269,0.8688,0.4286
				c0.6428,0.3499,1.1878-0.3304,0.9299-0.9299c-0.2622-0.6096-1.0098-0.9191-1.6348-0.9739
				c-0.2961-0.026-0.6074-0.0058-0.8928,0.0829c-0.3508,0.109-0.525,0.3278-0.7719,0.5742
				C176.1845,58.4146,176.774,59.0397,177.3121,58.804L177.3121,58.804z"/>
		</g>
	</g>
	<g>
		<g>
			<path class="st16" d="M173.3675,60.9433c0.0102-0.0275,0.0204-0.055,0.0305-0.0825c0.1087-0.2936-0.0808-0.5727-0.3006-0.7387
				c-1.1679-0.882-3.0586-0.1567-3.4516,1.2088c-0.2272,0.7893,1.0253,1.37,1.3655,0.5757
				c0.1827-0.4266,0.4566-0.6771,0.9335-0.7261C172.428,61.1309,173.1136,61.6296,173.3675,60.9433L173.3675,60.9433z"/>
		</g>
	</g>
	<g>
		<g>
			<path class="st16" d="M170.1335,64.6881c0.6427-0.9913,1.8294-0.1944,2.2772,0.5008c0.4797,0.7448,0.8954,1.5935,0.3804,2.3988
				c-0.305,0.4769,0.2012,1.1248,0.7378,0.9597c2.0405-0.6276,0.6768-3.6286-0.2317-4.6585
				c-1.1181-1.2675-3.5865-1.5973-4.1489,0.3837C168.9772,64.8752,169.8067,65.1922,170.1335,64.6881L170.1335,64.6881z"/>
		</g>
	</g>
	<g>
		<g>
			<path class="st16" d="M175.8705,71.7956c-1.5432-1.2459,1.6205-3.5154,1.8987-4.9056c0.229-1.1444-0.1558-2.313-1.3012-2.7037
				c-0.6718-0.2291-1.1681,0.699-0.6812,1.1703c1.5184,1.4698-1.2453,3.1929-1.6678,4.6605
				c-0.3236,1.1241-0.0475,2.1774,0.9314,2.8414C175.6779,73.2842,176.4716,72.2809,175.8705,71.7956L175.8705,71.7956z"/>
		</g>
	</g>
	<g>
		<g>
			<path class="st16" d="M177.7332,63.9456c0.4407,0.231,0.9355,0.1429,1.3986,0.0034c0.4805-0.1447,1.017-0.325,1.2717-0.7799
				c0.2579-0.4606-0.0823-0.8963-0.549-0.9566c-0.4409-0.057-0.8866,0.233-1.284,0.4051c-0.4003,0.1733-0.7484,0.3025-1.0118,0.6625
				C177.4083,63.4858,177.5183,63.833,177.7332,63.9456L177.7332,63.9456z"/>
		</g>
	</g>
	<g>
		<g>
			<path class="st16" d="M169.767,59.2428c0.656-0.0108,1.3105,0.0423,1.9642,0.0923c0.2683,0.0205,0.6119-0.2241,0.6559-0.4994
				c0.1331-0.8313,0.2828-1.6893,0.6209-2.4661c0.3564-0.819,0.9106-1.1714,1.5604-1.7192
				c0.5464-0.4607-0.0662-1.1581-0.6243-1.0724c-2.0396,0.3134-2.6294,3.2577-2.8689,4.896
				c0.2186-0.1665,0.4373-0.3329,0.6559-0.4994c-0.7273,0.0128-1.39,0.1398-2.0903,0.3359
				C169.1312,58.4532,169.2238,59.2517,169.767,59.2428L169.767,59.2428z"/>
		</g>
	</g>
	<g>
		<g>
			<path class="st16" d="M171.226,56.2325c-0.1223-0.3451-0.1248-0.8241-0.1455-1.197c-0.0258-0.4665,0.0898-0.9391,0.3556-1.3256
				c0.5786-0.8414,1.6422-1.045,2.5642-0.717c0.8618,0.3066,1.2309-1.0616,0.377-1.3673c-1.4471-0.5181-3.1333-0.0563-4.0459,1.2002
				c-0.436,0.6002-0.6587,1.3524-0.6472,2.0934c0.0052,0.3381,0.0314,0.7612,0.1951,1.0637
				c0.1361,0.2516,0.4021,0.4662,0.5878,0.6915C170.7537,57.0221,171.3737,56.6493,171.226,56.2325L171.226,56.2325z"/>
		</g>
	</g>
	<g>
		<g>
			<path class="st16" d="M170.2733,51.1198c0.3681-0.0569,0.783-0.038,1.153-0.0163c0.2128,0.0125,0.4602-0.129,0.5567-0.3193
				c0.2429-0.4789,0.4876-0.9601,0.7027-1.4522c0.3317-0.7588-0.7455-1.4359-1.1384-0.6654
				c-0.2444,0.4792-0.4612,0.9744-0.6777,1.4668c0.1856-0.1064,0.3711-0.2129,0.5567-0.3193
				c-0.5744-0.0019-1.0316,0.137-1.5458,0.3741C169.3124,50.4499,169.752,51.2004,170.2733,51.1198L170.2733,51.1198z"/>
		</g>
	</g>
	<g>
		<g>
			<path class="st16" d="M176.5999,53.5853c0.597-0.8859,0.4807-2.1219-0.1621-2.9518c-0.6746-0.8709-1.7842-1.1929-2.8398-0.9632
				c-0.8748,0.1904-0.5056,1.5459,0.3707,1.3447c0.5369-0.1233,1.1193,0.0586,1.4425,0.5206
				c0.3374,0.4823,0.2349,1.053,0.0574,1.5728C175.2311,53.8037,176.2261,54.1401,176.5999,53.5853L176.5999,53.5853z"/>
		</g>
	</g>
	<rect x="130.4944" y="86.1088" class="st16" width="5.4177" height="5.4177"/>
	<rect x="140.6304" y="86.1088" class="st8" width="5.4177" height="5.4177"/>
	<rect x="150.7664" y="86.1088" class="st7" width="5.4177" height="5.4177"/>
	<rect x="160.9024" y="86.1088" class="st17" width="5.4177" height="5.4177"/>
	<g>
		<g>
			<path class="st9" d="M105.0052,79.3946c-10.711,3.8872-21.272,8.1777-31.6743,12.8285
				c-10.6004,4.7394-21.3502,9.5846-31.4349,15.3587c-0.6849,0.3921-0.0829,1.3849,0.6122,1.0473
				c10.2136-4.9611,20.2214-10.2798,30.5715-14.9722c10.5838-4.7983,21.3134-9.265,32.139-13.4882
				C105.6917,79.9841,105.496,79.2165,105.0052,79.3946L105.0052,79.3946z"/>
		</g>
	</g>
	<g>
		<g>
			<path class="st9" d="M114.3449,34.6613c1.1164-2.8579,2.3954-5.6496,3.5118-8.5075c0.3514-0.8996-1.0985-1.2895-1.4464-0.3988
				c-1.1164,2.8579-2.3954,5.6496-3.5118,8.5075C112.5471,35.1621,113.997,35.552,114.3449,34.6613L114.3449,34.6613z"/>
		</g>
	</g>
	<g>
		<g>
			<path class="st9" d="M82.9421,116.6084c0.9491-2.4242,2.0604-4.7818,3.0095-7.206c0.3521-0.8992-1.0978-1.2891-1.4464-0.3988
				c-0.9491,2.4242-2.0604,4.7818-3.0095,7.206C81.1436,117.1089,82.5935,117.4987,82.9421,116.6084L82.9421,116.6084z"/>
		</g>
	</g>
	<g>
		<g>
			<path class="st9" d="M132.4499,34.4834c-0.9486-2.7046-1.8569-5.4235-2.8208-8.1227c-0.3223-0.9026-1.7722-0.5136-1.4464,0.3988
				c0.9639,2.6993,1.8722,5.4181,2.8208,8.1227C131.3209,35.7871,132.7706,35.3977,132.4499,34.4834L132.4499,34.4834z"/>
		</g>
	</g>
	<g>
		<g>
			<path class="st9" d="M156.5932,116.8435c-0.6279-2.5547-1.4596-5.0536-2.1057-7.6034c-0.237-0.9352-1.684-0.5389-1.4464,0.3988
				c0.6461,2.5499,1.4778,5.0488,2.1057,7.6034C155.3771,118.1792,156.824,117.7824,156.5932,116.8435L156.5932,116.8435z"/>
		</g>
	</g>
	<g>
		<g>
			<path class="st9" d="M88.0601,108.8582c-1.0732,2.3336-2.0396,4.7225-2.9824,7.1113c-0.2512,0.6363,0.8393,1.1029,1.1138,0.4696
				c1.0215-2.3571,2.028-4.7283,2.9181-7.1384C89.3329,108.6962,88.3323,108.2663,88.0601,108.8582L88.0601,108.8582z"/>
		</g>
	</g>
	<g>
		<g>
			<path class="st9" d="M150.1105,108.774c0.3874,3.0874,0.9255,6.1905,1.6252,9.222c0.1547,0.6703,1.3098,0.5422,1.2258-0.1659
				c-0.3669-3.0896-0.8939-6.1933-1.5734-9.229C151.2312,107.9004,150.0182,108.0381,150.1105,108.774L150.1105,108.774z"/>
		</g>
	</g>
	<g>
		<g>
			<path class="st9" d="M116.5016,34.431c0.0114,0.0828,0.0228,0.1657,0.0341,0.2485c0.0667,0.4853,0.8927,0.4752,0.97,0
				c0.6393-3.9326,0.7435-7.9978,1.0313-11.9697c0.0707-0.9752,0.0895-1.9893,0.2144-2.959
				c0.1968-1.5279,0.8924-1.0844,2.1361-1.1539c2.2802-0.1275,4.5607-0.2479,6.8412-0.3687
				c-0.204-0.204-0.4081-0.4081-0.6121-0.6121c0.1667,5.3168-0.1895,10.4663-0.835,15.7401
				c-0.0852,0.6963,1.0831,0.8501,1.2258,0.1659c1.0788-5.1753,1.2902-10.6477,0.8335-15.906
				c-0.0274-0.3157-0.2584-0.6313-0.6121-0.6121c-2.763,0.1496-5.5519,0.1936-8.3072,0.4392
				c-1.0407,0.0928-1.484,0.1164-1.8197,1.156c-0.6617,2.0493-0.393,4.915-0.5503,7.0696c-0.2149,2.9422-0.57,5.9257-0.5338,8.877
				c0.2862-0.1185,0.5724-0.2371,0.8586-0.3557c-0.0517-0.0594-0.1033-0.1188-0.155-0.1782
				C116.9046,33.6478,116.45,34.0554,116.5016,34.431L116.5016,34.431z"/>
		</g>
	</g>
</g>
</svg>
