<?xml version="1.0" encoding="utf-8"?>
<!-- Generator: Adobe Illustrator 20.1.0, SVG Export Plug-In . SVG Version: 6.00 Build 0)  -->
<svg version="1.1" xmlns="http://www.w3.org/2000/svg" xmlns:xlink="http://www.w3.org/1999/xlink" x="0px" y="0px"
	 viewBox="0 0 520 300" style="enable-background:new 0 0 520 300;" xml:space="preserve">
<style type="text/css">
	.st0{fill:none;stroke:#F7FAFC;stroke-width:39.9968;stroke-linecap:round;stroke-linejoin:round;}
	.st1{fill:none;stroke:#F2F6F9;stroke-width:39.9968;stroke-linecap:round;stroke-linejoin:round;}
	.st2{fill:#F7FAFC;}
	.st3{fill:#F2F6F9;}
	.st4{fill:#FFFFFF;}
	.st5{fill:#FCE0DE;}
	.st6{fill:#E6E6E6;}
	.st7{fill:#FFEFAF;}
	.st8{fill:#E93A1D;}
	.st9{fill:#303030;}
	.st10{fill:#E83D25;}
	.st11{fill:#B3B3B3;}
	.st12{fill:#666666;}
	.st13{fill:none;stroke:#E93A1D;stroke-width:1.5;stroke-linecap:round;stroke-linejoin:round;}
	.st14{fill:none;stroke:#E93A1D;stroke-width:1.5;stroke-linecap:round;stroke-linejoin:round;stroke-dasharray:2.0259,5.0648;}
	.st15{fill:none;stroke:#E93A1D;stroke-width:1.5;stroke-linecap:round;stroke-linejoin:round;stroke-dasharray:1.8929,4.7321;}
	.st16{fill:#777777;}
	.st17{fill:#172DF8;}
	.st18{fill:none;stroke:#E93A1D;stroke-width:1.5;stroke-linecap:round;stroke-linejoin:round;stroke-dasharray:1.9198,4.7994;}
	.st19{fill:none;stroke:#E93A1D;stroke-width:1.5;stroke-linecap:round;stroke-linejoin:round;stroke-dasharray:1.9197,4.7993;}
</style>
<g id="back">
	<g>
		<g>
			<path class="st2" d="M112.229,297.7081c-2.6714,0.001-5.6582-0.5469-8.8901-1.9971c-0.8594-0.3848-1.8218-0.8652-3.0288-1.5098
				c-1.6924-0.9043-3.958-2.1826-6.9268-3.9082c-3.8691-2.25-9.0195-5.3125-15.355-9.1309
				c-0.9385,1.2988-2.0498,2.5059-3.3306,3.5859c-8.4424,7.1221-21.0591,6.0498-28.1807-2.3936c0,0-9.3623-11.1006-18.7227-22.2266
				c-4.688-5.5723-9.375-11.1514-12.8896-15.3496c-1.7788-2.126-3.2612-3.9023-4.2983-5.1543
				c-2.7236-3.2871-6.8398-8.2559-6.125-16.4678c0.4604-5.2891,3.0059-10.1787,7.0747-13.5908
				c1.333-1.1172,4.4785-3.3887,8.8901-4.2998c-10.353-14.1533-11.2788-19.8896-10.9878-25.752
				c0.1758-3.5518,1.2222-6.9697,2.9897-9.9512c-0.0229-2.8887,0.5771-5.7695,1.7808-8.4297
				c0.2524-1.5977,0.6948-3.1553,1.3086-4.6387c0.9136-4.8369,3.4087-9.1338,7.2017-12.3164
				c4.6172-3.874,10.5283-5.3311,16.1147-4.4111c-4.042-5.4072-6.4492-9.9541-5.9048-16.6406
				c0.4341-5.3271,2.999-10.2979,7.0928-13.7334c1.937-1.625,7.6157-5.6104,15.5811-4.5781
				c-0.5796-2.2051-0.7832-4.5127-0.5806-6.8262c0.4624-5.2842,3.0054-10.168,7.0684-13.5771
				c1.4248-1.1963,7.0869-5.4346,14.9438-4.6387c0.9302-4.1172,3.166-7.9746,6.6489-10.8975
				c1.2754-1.0703,5.7798-4.4365,12.1533-4.6846c0.9277-1.2549,2.0068-2.4062,3.2227-3.4268
				c6.252-5.2451,16.7007-7.2461,25.9536,0.1094c0.208,0.165,0.4517,0.3633,0.73,0.5928c0.7485-5.5371,3.437-10.4678,7.6953-14.041
				c7.75-6.5049,19.0635-6.1611,26.4004,0.6064c0.8584-3.4395,2.6406-6.6914,5.3413-9.3613
				c7.4536-7.3691,19.2686-7.6963,27.1094-0.9336c1.0312-3.4561,3.0088-6.6738,5.9023-9.2363
				c6.4009-5.6689,15.4463-6.499,22.6108-2.7109c1.2207-2.5117,2.9634-4.7656,5.1392-6.5908
				c6.5825-5.5215,15.7578-6.1172,22.8794-1.9863c1.3311-2.3779,3.0845-4.5049,5.2173-6.2949
				c2.5698-2.1553,11.2871-8.1533,23.3003-2.6504c0.3535-0.3447,0.7217-0.6777,1.1025-0.9971
				c5.9956-5.0312,16.1562-7.1367,25.3423-0.4932c0.8887,0.6426,1.8745,1.4297,3.1025,2.4775
				c1.7578,1.499,4.1191,3.625,7.2202,6.499c1.6958,1.5723,3.6255,3.3799,5.7832,5.418c0.9399-1.293,2.0513-2.4932,3.3315-3.5674
				c2.0918-1.7549,13.2485-9.9863,27.5073,0.3887c2.1772,1.584,4.6982,3.7217,7.9331,6.7275
				c2.5981,2.4131,5.6675,5.4014,9.2617,9.0156c6.1382-2.1572,13.1694-1.2588,18.6826,2.8975
				c8.9395,6.7412,18.2271,13.6729,27.2686,20.3545c0.1909-0.1885,0.3857-0.373,0.5854-0.5547
				c8.1665-7.4355,20.8149-6.8447,28.2515,1.3213c0.4043,0.4443,10.0151,11.0029,19.7759,22.1504
				c5.8188,6.6455,10.4775,12.1172,13.8472,16.2637c6.1553,7.5742,11.0176,13.5576,10.4175,22.5
				c-0.3672,5.4658-2.9771,10.6143-7.1611,14.125c-2.4121,2.0234-4.8696,3.2881-7.2847,4.002
				c7.7285,9.1787,14.3525,17.085,19.8091,23.6465c6.0278,7.2471,10.7051,12.9404,13.9009,16.9229
				c6.3423,7.9014,10.1709,12.6719,9.4761,21.0498c-0.3896,4.7002-2.4331,9.1094-5.7251,12.4385
				c2.5283,7.3184,0.6479,15.7334-5.3818,21.2686c-2.6665,2.4473-5.8247,4.0381-9.1299,4.7793
				c0.0068,0.5537-0.0029,1.0986-0.0273,1.6357c-0.3086,6.8447-3.2598,12.9482-8.3091,17.1855
				c-1.8091,1.5176-6.6895,4.9512-13.7261,4.9512c-0.0034,0-0.0059,0-0.0093,0c-0.9106,1.6758-2.0776,3.249-3.5015,4.6602
				c-7.0601,7-18.0312,7.6562-25.8267,1.9863c-1.1919,2.2275-2.8062,4.2305-4.7793,5.8867
				c-3.5981,3.0205-13.4678,9.0938-27.3389,0.2646c-1.2217-0.7773-2.5317-1.6885-3.9712-2.7646
				c-0.6646,0.8633-1.4082,1.6836-2.2305,2.4502c-7.7842,7.2529-19.8867,7.1416-27.5356-0.2539l-8.7168-8.4287
				c-1.3125,3.0264-3.3057,5.7148-5.8901,7.8828c-3.2983,2.7695-12.4116,8.5029-25.7485,1.9609
				c-3.1309-1.5352-6.5981-3.7393-10.9121-6.9336c-0.124-0.0918-0.2485-0.1846-0.374-0.2783
				c-1.1812,1.8604-2.6528,3.5449-4.3892,5.001c-7.7158,6.4736-19.0435,6.2012-26.4375-0.6416
				c-3.5718-3.3047-7.2358-6.6953-10.9751-10.1533c-0.981,4.707-3.4565,8.8838-7.1572,11.9893
				c-6.7681,5.6787-16.2441,6.1318-23.4185,1.667c-4.2119,2.832-13.6489,6.9307-25.8408-1.4082
				c-0.6914-0.4736-1.4199-0.9971-2.1948-1.5781c-0.9297,1.2939-2.0308,2.4971-3.2993,3.5752
				c-6.6084,5.6172-17.8813,7.1982-26.6426-0.6484l-3.8936-3.5088c-0.9121,4.3682-3.2666,8.3311-6.7207,11.2295
				c-10.2246,8.5801-22.354,5.3477-33.6377-0.8984c-1.1606,3.4551-3.2563,6.5625-6.1011,8.9492
				c-3.5142,2.9492-7.8335,4.585-12.3652,4.7217c-1.8037,0.4805-3.6572,0.7158-5.5102,0.6709
				c-2.6914,0.7529-5.6909,0.9971-8.8433,0.4443C117.0434,297.2081,114.7803,297.7081,112.229,297.7081z"/>
		</g>
	</g>
</g>
<g id="Layer_2">
	<path class="st8" d="M486.9395,75.8796c-0.7792-2.2543-1.8218-4.3759-2.973-6.1846c-3.0113-4.7311-2.1307-6.7922-1.3569-12.3741
		c2.0559-14.8316-9.9754-21.2896-22.7523-22.5596c-6.9498-0.6908-13.4568,0.2437-20.237,1.6079
		c-3.588,0.7219-13.6904,7.6356-16.6685,3.808c-0.3497-0.4495,0.8004-3.4792-0.4467-4.397
		c-5.178-3.8108-7.4907,11.0062-12.0615,10.8512c-0.306-0.0104-0.041-5.2006-0.7503-5.6919
		c-1.4146-0.9797-6.4424,3.2331-7.4149,4.5263c-2.1114,2.8081-2.6012,7.8607-3.6062,11.2055
		c-1.3593,4.522-5.9727,20.9601,4.9805,16.6213c0.3584-0.142,2.0425-5.2262,2.538-5.9902
		c3.458-5.3319,12.1245-10.9739,18.0839-12.7958c4.4991-1.3755,14.0648,0.9484,13.7683,7.1117
		c-0.2827,5.834-7.1069,9.0543-10.8278,12.4623c-4.7413,4.3425-9.6581,8.8484-14.2482,13.3825
		c5.8459-4.0305,12.5975-3.6074,18.9032-6.0761c5.2643-2.061,9.6255-6.6852,13.1415-10.9722
		c3.2448-3.9563,3.3445-7.4845,5.2841-11.8405c3.9242-8.8132,4.1702,4.8925,2.7905,8.6974
		c-1.3625,3.7576-4.5815,8.4748,1.9645,7.0208c7.5981-1.6877,10.8159-11.3406,9.5372-18.1701
		c4.8583-0.6706,4.3855,7.378,3.2575,10.0132c3.6378,2.2591,5.0549-5.7989,8.4263-5.941
		c-1.3838,9.9392-14.7036,17.1456-23.0508,20.1862c-9.8446,3.586-20.2691,4.8709-30.3237,7.6668
		c-4.8763,1.356-16.9709,5.7109-17.8404,11.9885c-1.223,8.8295,9.0798,1.5312,11.6118,0.8575
		c12.352-3.2827,21.2481,0.1966,33.1744,3.038c14.2265,3.3894,38.1248-1.0695,38.5024-19.9027
		C488.3995,81.3226,487.8489,78.5107,486.9395,75.8796z"/>
	<path class="st6" d="M418.4676,219.6653c-2.3318-7.0688-11.2691-10.8786-17.5432-13.3208c-1.4792-0.5759-2.8053-0.6172-3.9454-0.29
		c-1.5895-1.4922-3.5624-2.5613-5.8561-2.9758c-5.4633-0.9871-11.2004,2.2239-12.4352,7.8264
		c-0.5587,2.5354-0.0476,4.9475,0.9607,7.2817c0.453,1.0486,0.9728,1.948,1.5449,2.9353c0.8114,1.4004,0.5482,2.7747,1.015,0.5999
		c-0.4836,2.2537,0.0618,4.168,1.1597,5.6213c-2.1902,4.678-3.2537,9.2766,1.1052,14.4907
		c2.4391,2.9175,5.6685,4.3171,6.3304,8.4209c0.5511,3.4167-0.6481,6.9007-2.1376,9.9174
		c-1.5067,3.0512-5.0491,6.8035-4.9001,10.4159c0.1547,3.752,4.1341,7.6469,5.2837,11.5036
		c1.0189,3.4181,0.4231,6.4178,4.4305,8.0918c5.5892-3.4826,1.2226-11.7978,4.4354-16.2074
		c2.8351,3.9905,9.373,13.4413,10.406,1.7596c0.4039-4.5671-3.3584-8.5258-2.8243-13.0416
		c0.541-4.5747,5.1051-6.2969,6.2565-10.5171c1.1183-4.0991-1.9934-7.1044-1.6717-10.5307
		c0.6575-7.0009,9.0488-11.2965,8.9588-18.5124C419.0252,221.8975,418.8232,220.7435,418.4676,219.6653z M404.5521,229.7836
		c-2.442,2.4487-3.8804,4.9939-4.764,7.7515c-0.9257-1.1016-1.951-2.1187-3.0577-3.0811c-0.3667-0.3186-1.1294-1.3464-1.4449-1.3201
		c0.3693-0.9678,1.5238-2.4492,1.7997-2.8977c1.7866-2.9023,3.2448-5.8809,3.9434-9.0308c1.7126,0.7744,3.354,1.7285,4.4431,3.0715
		C407.4789,226.7524,406.4848,227.8457,404.5521,229.7836z"/>
	<path class="st8" d="M182.2765,48.9382c-0.7068-3.4712-1.0275-6.8506-0.7743-10.3962c0.0816-1.1441-1.4234-1.9475-2.1752-0.9103
		c-3.1627,4.3628-7.103,6.0927-12.2751,5.9867c-0.0555-0.0748-0.1211-0.144-0.2051-0.2009
		c-1.2419-0.8408-2.719-1.3794-4.1165-1.9568c-0.1561-0.0776-0.3223-0.1482-0.506-0.2124c-0.3367-0.1176-0.6384-0.0828-0.8811,0.043
		c-0.1172-0.1422-0.2149-0.26-0.2738-0.3124c-0.1238-0.1098-0.2435-0.1932-0.3636-0.26c0.1292-0.3253,0.1147-0.7084-0.144-1.0621
		c-1.1659-1.5941-2.073-3.2965-2.7373-5.0937c-0.1029-0.5069-0.2251-1.0093-0.3461-1.512c0.2072-0.1059,0.3724-0.3027,0.4211-0.5916
		c0.1553-0.9211-0.1545-2.2699-0.9521-2.884c-0.0441-0.0563-0.0884-0.1124-0.1352-0.1665
		c-0.0281-0.0336-0.0637-0.0528-0.0962-0.0779c0.0078-0.0836,0.0108-0.1668,0.0221-0.2506c0.1949-1.45-1.9122-2.0275-2.4784-0.6642
		c-0.4708,1.1334-2.1858,1.9667-3.0392,2.8884c-0.909,0.9819-1.6275,2.0808-2.2818,3.2443
		c-0.3825,0.6798-0.0332,1.2535,0.5176,1.5193c0.0798,0.1759,0.203,0.3349,0.391,0.4563c1.6492,1.065,3.2737,2.1887,4.956,3.2007
		c0.8346,0.5021,1.7895,0.7941,2.5567,0.3335c0.5295,0.4033,1.0573,0.8008,1.5717,1.1935c0.0723,0.1803,0.215,0.3377,0.452,0.3976
		c0.7697,0.1946,1.2999,1.507,1.9991,1.9626c0.5093,0.3318,0.9871,0.4529,1.518,0.3923c1.0306,0.502,2.0788,0.9847,3.1715,1.2641
		c0.259,0.0663,0.4898,0.0103,0.6768-0.1166c1.6133,0.6141,3.2533,0.7376,4.8478,0.4749c0.0704,0.3303,0.2938,0.6338,0.7092,0.8109
		c1.6717,0.7128,3.3598,1.2772,5.0997,1.7391c-0.0553,1.2028,1.332,1.6861,2.2259,1.0847c0.144,0.1808,0.2836,0.3693,0.4137,0.5748
		C180.7004,50.8723,182.5206,50.137,182.2765,48.9382z"/>
	<g>
		<g>
			<g>
				<path class="st9" d="M155.7384,26.5574c-2.1427,1.3487-4.0113,3.1793-5.7112,5.0436c-0.9742,1.0684-2.5305,2.5464-2.2325,4.1696
					c0.2973,1.6196,2.3755,1.9897,3.6406,2.501c3.1098,1.2566,6.0192,2.8332,8.9982,4.3572
					c0.808,0.4133,1.4839-0.7303,0.7127-1.2193c-1.6937-1.074-3.5006-1.9769-5.3147-2.8297
					c-1.4395-0.6767-3.5699-1.1778-4.866-2.0724c-0.8197-0.0306-1.1795-0.4599-1.0793-1.2879
					c-0.4406-0.8109-0.2382-1.4708,0.6072-1.9796c0.5364-0.6331,1.1073-1.2399,1.6874-1.8332
					c1.3564-1.3871,2.8592-2.6025,4.2569-3.9427C156.9064,27.0146,156.2982,26.205,155.7384,26.5574L155.7384,26.5574z"/>
			</g>
		</g>
		<g>
			<g>
				<path class="st9" d="M155.6358,27.5258c1.6227,1.9803,1.4546,5.5431,2.2303,7.9301c0.771,2.3727,1.8063,4.6652,3.2762,6.6879
					c0.4608,0.634,1.447,0.093,1.0675-0.624c-1.592-3.0079-3.0332-5.9888-3.806-9.325c-0.4569-1.9724-0.4229-4.1425-2.1823-5.4282
					C155.746,26.419,155.3153,27.1346,155.6358,27.5258L155.6358,27.5258z"/>
			</g>
		</g>
		<g>
			<g>
				<path class="st9" d="M161.6011,41.2832c-0.715,0.574-1.0255,1.2989-1.1176,2.1925c-0.0278,0.2694,0.2146,0.5376,0.4605,0.6049
					c2.0257,0.5546,3.9736,1.2875,5.8596,2.2132c0.291,0.1429,0.7435,0.1062,0.8965-0.2351
					c0.5339-1.1908,0.2656-2.4396-0.6404-3.3864c-1.0994-1.1489-2.8054-1.3648-4.3094-1.4701c-0.8639-0.0605-0.8448,1.2554,0,1.3359
					c1.3507,0.1287,4.8074,0.6154,3.8182,2.8591c0.2988-0.0784,0.5977-0.1567,0.8965-0.2351
					c-1.9903-0.9614-4.0498-1.7278-6.1875-2.2914c0.1535,0.2016,0.307,0.4033,0.4605,0.6049
					c0.0265-0.6438,0.2373-1.1103,0.613-1.6138C162.7014,41.3925,161.9868,40.9736,161.6011,41.2832L161.6011,41.2832z"/>
			</g>
		</g>
		<g>
			<g>
				<path class="st9" d="M167.2499,45.2764c4.5759,2.1919,9.4703,4.3206,14.3024,5.866c0.7733,0.2473,1.3061-0.963,0.5599-1.328
					c-4.5576-2.2288-9.564-4.0886-14.3837-5.6732C167.069,43.9244,166.6104,44.9701,167.2499,45.2764L167.2499,45.2764z"/>
			</g>
		</g>
		<g>
			<g>
				<path class="st9" d="M167.4792,45.0462c3.7843-0.4396,7.4122-2.1132,10.3625-4.5061c0.3256-0.2641,1.9798-2.1831,2.2522-2.1598
					c0.8814,0.0751,0.97,3.0342,1.0231,3.4503c0.3493,2.7343,0.4314,5.4857,0.7314,8.2215c0.087,0.7935,1.2384,0.8325,1.2656,0
					c0.0916-2.7974-0.263-5.6366-0.6425-8.4048c-0.2552-1.8619-0.3408-3.7375-2.0078-4.8556
					c-0.2256-0.1513-0.5733-0.0918-0.7576,0.0978c-3.5303,3.631-7.5034,5.7845-12.3741,7.0692
					C166.7478,44.1127,166.8441,45.12,167.4792,45.0462L167.4792,45.0462z"/>
			</g>
		</g>
		<g>
			<g>
				<path class="st9" d="M156.8349,27.5631c0.3137-1.9605,1.4166-3.5927,3.3632-4.2254c1.3822-0.4493,2.9603-0.4486,4.1533-1.377
					c1.3303-1.0354,2.0576-3.2869,0.4247-4.3545c-0.5101-0.3335-1.1017,0.3163-0.8137,0.8137
					c1.7711,3.0585-4.2625,3.2601-5.8199,4.3333c-1.5684,1.0808-2.4145,2.7761-2.4642,4.6534
					C155.6611,28.0537,156.7282,28.23,156.8349,27.5631L156.8349,27.5631z"/>
			</g>
		</g>
		<g>
			<g>
				<path class="st9" d="M180.7464,37.2532c1.2421-1.9955,0.9982-4.4599-0.393-6.3355c-1.5094-2.0349-3.9331-2.9117-6.3801-3.1049
					c-0.8873-0.0701-0.8538,1.2638,0,1.3652c3.6539,0.4341,7.6728,3.4349,5.8624,7.5429
					C179.5676,37.3291,180.3789,37.8436,180.7464,37.2532L180.7464,37.2532z"/>
			</g>
		</g>
		<g>
			<g>
				<path class="st9" d="M181.9077,51.043c3.8231,1.3702,6.4059,4.4806,6.3155,8.6554c-0.02,0.9246,1.3398,0.8957,1.418,0
					c0.3955-4.53-2.9723-9.2189-7.5754-9.8237C181.3626,49.7824,181.3197,50.8322,181.9077,51.043L181.9077,51.043z"/>
			</g>
		</g>
		<g>
			<g>
				<path class="st9" d="M147.2811,34.678c-1.0344-1.2695-2.4915-1.1112-3.9793-0.8512c-1.5564,0.272-3.1084,0.543-4.696,0.4507
					c-0.7747-0.045-1.7949-0.1161-2.4823-0.5634c-1.1973-0.7791-1.6777-2.5464-0.0913-3.2243
					c0.7456-0.3186,0.1996-1.4454-0.535-1.2691c-2.4752,0.5942-2.5539,3.848-0.8214,5.3286c1.0753,0.9189,2.5596,1.1783,3.93,1.2269
					c1.0247,0.0363,2.0754-0.0554,3.0879-0.2213c1.3415-0.2198,3.7168-1.3405,4.9162-0.2059
					C147.0627,35.7774,147.6607,35.1438,147.2811,34.678L147.2811,34.678z"/>
			</g>
		</g>
		<g>
			<g>
				<path class="st9" d="M136.1196,27.3184c-0.4497,0.3906-0.8994,0.7812-1.3491,1.1719c-0.2206,0.1916-0.2392,0.6472,0,0.8345
					c0.8125,0.6361,1.6976,1.1571,2.6951,1.4426c0.1758,0.0503,0.4269,0.006,0.5473-0.1447
					c0.5882-0.7362,1.2486-1.7477,0.7783-2.7137c-0.3684-0.7569-1.2822-1.1924-2.04-0.7246
					c-0.5718,0.3529-0.0657,1.2191,0.5264,0.9006c0.3392-0.1825,0.5862,0.3149,0.5779,0.5854
					c-0.0131,0.4319-0.3747,0.8475-0.6382,1.1569c0.1824-0.0482,0.3649-0.0964,0.5473-0.1447
					c-0.8177-0.3432-1.5712-0.7484-2.2791-1.2845c0.0398,0.3089,0.0796,0.6178,0.1194,0.9267
					c0.4298-0.4105,0.8596-0.821,1.2894-1.2315C137.4095,27.6012,136.647,26.8603,136.1196,27.3184L136.1196,27.3184z"/>
			</g>
		</g>
	</g>
	<g>
		<path class="st8" d="M185.7876,236.4908c-1.046,0.363-2.0736,0.7612-3.0068,1.3411c-1.7784,1.1049-3.9862,3.6145-6.2894,3.2367
			c1.9046,0.3124,3.277,2.0284,4.7515,3.1192c1.428,1.0565,2.9608,3.0453,4.5248,3.7968c1.4719,0.7073,4.4807-0.1504,4.949-1.7755
			c0.5761-1.9995,0.3426-4.025,0.4534-6.0739c0.0793-1.4666,1.0855-5.0837,0.1651-6.2548
			C189.7504,235.26,187.7372,235.8142,185.7876,236.4908z"/>
		<g>
			<g>
				<path class="st9" d="M175.6464,241.391c3.0253,1.8144,6.0328,3.2784,8.4109,5.9764c0.6282,0.7127,1.1802,1.4877,2.1659,1.7068
					c1.2945,0.2877,2.3841-0.8864,3.6881-0.5627c0.4261,0.1058,0.7539-0.1974,0.7942-0.605
					c0.4712-4.7707,1.0821-9.5227,1.5974-14.2877c0.0756-0.6989-1.1312-0.8697-1.2373-0.1674
					c-0.7233,4.7904-1.1862,9.6308-1.6149,14.4552c0.2647-0.2017,0.5294-0.4033,0.7942-0.605
					c-1.0997-0.2614-1.7428,0.4022-2.7591,0.4007c-2.0368-0.0029-3.1613-2.0406-4.5529-3.191
					c-2.0579-1.7013-4.4634-2.9692-6.9299-3.9662C175.5057,240.3439,175.2104,241.1295,175.6464,241.391L175.6464,241.391z"/>
			</g>
		</g>
		<g>
			<g>
				<path class="st9" d="M168.7965,244.1035c5.8735-1.0448,11.6761-3.7275,17.0013-6.349c5.889-2.899,11.1248-5.9622,17.8246-6.3483
					c0.8923-0.0514,0.8539-1.2562,0-1.3594c-5.7512-0.6948-11.3771,2.6448-16.2297,5.2802
					c-6.0804,3.3023-12.4406,5.4005-18.8143,7.9854C168.0925,243.5095,168.2689,244.1973,168.7965,244.1035L168.7965,244.1035z"/>
			</g>
		</g>
		<g>
			<g>
				<path class="st9" d="M174.4505,247.719c-1.6316-3.9802-6.4117-3.3853-9.3655-5.7339c-0.3902-0.3103-1.5931-1.3133-1.4182-1.8993
					c0.5742-0.3374,1.1485-0.6747,1.7227-1.0121c0.2972,0.3311,0.5423,0.6944,0.7355,1.0899
					c0.6037,1.0975,0.8819,2.3481,1.2141,3.5454c0.5041,1.817,1.0424,3.6193,2.3829,5.0026
					c0.4928,0.5085,1.175-0.2313,0.7582-0.7582c-2.1354-2.6996-1.7518-6.4384-3.7833-9.1538
					c-0.9819-1.3125-3.0702-2.2807-4.0416-0.3715c-0.9556,1.8781,0.7555,3.9175,2.2428,4.8509
					c2.8415,1.7834,7.043,1.4732,8.7866,4.7627C173.9021,248.4519,174.633,248.1643,174.4505,247.719L174.4505,247.719z"/>
			</g>
		</g>
		<g>
			<g>
				<path class="st9" d="M207.0523,234.0143c-0.811-1.3173-1.8245-2.4926-2.7655-3.7169c-0.4042-0.526-0.6994-0.6142-0.3502-1.1491
					c0.5198-0.7963,0.1599,0.2412,0.1235,0.4476c-0.0942,0.5339-0.0959,0.9413,0.0185,1.4758c0.1094,0.5114,0.822,0.4411,0.967,0
					c0.1255-0.3819,1.0215-1.8447,1.6575-1.5688c-0.2659,0.2868-0.5318,0.5736-0.7978,0.8605
					c-0.232,0.0381-0.4624,0.0841-0.6912,0.138c-0.6815,0.17-1.2764,0.4508-1.8336,0.8834
					c-1.1197,0.8694-1.824,2.1133-2.4746,3.3455c-0.2743,0.5195,0.4829,0.9664,0.7893,0.4613
					c0.5422-0.8938,1.0995-1.8209,1.8374-2.5693c0.9668-0.9806,1.9033-0.9793,3.0884-1.4136
					c1.0835-0.3971,1.7644-1.3646,1.2012-2.4653c-0.0794-0.1552-0.2566-0.2368-0.4232-0.2428
					c-1.5796-0.056-2.7947,0.8326-3.3204,2.3044c0.3223,0,0.6447,0,0.967,0c-0.2153-1.2006,0.8777-2.7002-0.2057-3.7418
					c-0.6977-0.6707-1.6797-0.4161-2.2205,0.3096c-0.6028,0.8087-0.3755,1.7961,0.0986,2.6057
					c0.9427,1.6099,2.3775,3.2241,3.6855,4.5363C206.7307,234.8431,207.3018,234.4195,207.0523,234.0143L207.0523,234.0143z"/>
			</g>
		</g>
	</g>
	<g>
		<g>
			<path class="st9" d="M385.5131,274.6706c-0.9658-1.2197-2.1394-2.8197-2.1568-4.4511c-0.0196-1.8354,1.4952-3.1242,2.8905-4.0685
				c1.8911-1.2798,4.0077-2.0042,5.3933-3.9054c2.5989-3.566,2.1459-8.6693,0.9817-12.6688
				c-1.3693-4.7036-3.8758-7.8153-7.6689-10.8008c-1.0352-0.8148-2.1586-1.6655-2.9188-2.7589
				c-1.3981-2.0107-0.7768-3.9099,0.2559-5.9358c1.124-2.2054,1.9117-4.3295,1.8698-6.846
				c-0.0926-5.554-3.516-10.6956-8.7027-12.7096c0.0477,0.3651,0.0954,0.7302,0.1432,1.0954
				c2.2216-1.4309,4.4433-2.8617,6.665-4.2926c2.3385-1.5061,4.8339-3.7004,7.4054-4.7496
				c3.7656-1.5364,5.6102,2.7187,7.1824,5.1724c1.4688,2.2922,2.799,4.7285,3.4582,7.3884c0.5661,2.284,0.6182,4.7732-0.1039,7.0296
				c-0.7618,2.3805-2.4704,3.932-4.2184,5.6011c-2.0977,2.0029-3.9922,4.5491-2.4941,7.5009
				c0.7845,1.5457,2.2053,2.6226,3.5145,3.7013c1.6851,1.3884,3.1238,2.9147,4.2043,4.8313
				c2.1764,3.8605,2.8044,8.6392,1.6159,12.9169c-1.2007,4.3214-4.6771,6.9561-6.6194,10.821
				c-1.9978,3.9754-1.0885,8.4585-0.601,12.67c0.3061,2.644,0.5341,5.4529-0.3502,8.0168
				c-0.0331,0.0961-0.4803,1.3983-0.7905,1.6737c-2.3876,2.119-3.9467-0.729-4.071-2.4784c-0.0788-1.1092,0.1601-2.2393,0.2556-3.34
				c0.3942-4.5456-2.2727-6.4871-5.0218-9.5316c-0.5521-0.6114-1.4532,0.2942-0.9032,0.9032
				c1.6021,1.774,3.7066,3.1124,4.4176,5.5237c0.7504,2.5446-0.4962,5.1266,0.1447,7.6647c0.724,2.8671,4.0067,4.9123,6.0999,2.1407
				c3.129-4.1431,1.3805-10.2641,0.9682-14.9213c-0.2543-2.8726-0.1693-5.7276,1.2855-8.2986
				c1.3289-2.3486,3.3771-4.206,4.7386-6.5416c4.338-7.4418,2.3172-17.2603-4.2018-22.7093
				c-2.3316-1.9489-5.3841-4.227-3.2234-7.5789c1.2201-1.8928,3.2646-3.1242,4.6476-4.8887
				c2.7778-3.5439,2.8242-8.4376,1.4078-12.5471c-1.0324-2.9955-2.7591-5.6805-4.5504-8.2699
				c-1.1148-1.6114-2.3676-3.8969-4.5105-4.2202c-2.4741-0.3733-5.0787,2.1303-6.958,3.3401
				c-3.3329,2.1456-6.6657,4.2912-9.9986,6.4369c-0.4606,0.2965-0.3334,0.9102,0.1432,1.0954
				c3.8349,1.49,6.553,4.9031,7.4862,8.8818c0.4571,1.949,0.4767,4.0165-0.0687,5.9504c-0.5149,1.826-1.7399,3.3194-2.2966,5.1167
				c-0.8498,2.7436,0.3953,4.9905,2.4134,6.8079c2.4395,2.1968,5.1231,3.7673,6.808,6.6914
				c2.868,4.9772,5.1705,14.401-0.6726,18.218c-2.2425,1.4649-5.386,2.5652-6.3287,5.3699c-0.8295,2.4678,0.8405,4.8333,2.3667,6.62
				C385.2458,275.8056,385.8823,275.1369,385.5131,274.6706z"/>
		</g>
	</g>
	<g>
		<g>
			<path class="st9" d="M374.8894,210.4531c-4.5999-2.0285-9.6093-3.1821-14.6266-3.4494c-0.7136-0.038-0.6889,1.0256,0,1.0957
				c4.9599,0.5048,9.5444,1.6173,14.2224,3.3122C375.0376,211.6117,375.4346,210.6936,374.8894,210.4531L374.8894,210.4531z"/>
		</g>
	</g>
	<g>
		<g>
			<path class="st9" d="M357.2929,207.41c-0.352,0.7817-0.7022,1.5617-1.0371,2.351c-0.0876,0.2066-0.0939,0.4355,0.078,0.6047
				c1.3109,1.2904,3.86,0.6127,4.3357-1.1828c0.5417-2.0448-1.9019-3.7693-3.7021-2.9123c-0.5172,0.2462-0.144,1.1608,0.3951,0.9371
				c1.0786-0.4478,2.7203,0.4672,2.306,1.7789c-0.3299,1.0446-1.8459,1.3592-2.629,0.6734
				c0.0428,0.1618,0.0855,0.3237,0.1283,0.4855c0.2891-0.8092,0.5606-1.6222,0.8318-2.4375
				C358.1359,207.2988,357.4742,207.0072,357.2929,207.41L357.2929,207.41z"/>
		</g>
	</g>
	<g>
		<g>
			<path class="st9" d="M355.6916,208.4646c-3.3517-0.7287-6.8138-0.5644-10.0311,0.676c-0.6234,0.2403-0.391,1.206,0.2819,1.0227
				c3.2025-0.8724,6.325-1.175,9.6245-0.7779C356.0912,209.4484,356.2036,208.5759,355.6916,208.4646L355.6916,208.4646z"/>
		</g>
	</g>
	<g>
		<g>
			<path class="st9" d="M388.6623,200.9244c-2.5689-0.2689-5.287-0.2142-7.8233-0.6712c-1.9586-0.3529-3.4156-0.9873-3.8759-2.9538
				c-0.1311-0.5601-0.208-1.1174-0.4622-1.6381c-0.7587-1.5545-2.8051-2.6585-4.0201-1.0339
				c-0.3707,0.4957,0.3868,0.9472,0.796,0.6142c2.0737-1.6873,2.6654,3.4275,3.0418,4.1791
				c0.4005,0.7997,0.9102,1.3244,1.774,1.6477c1.2775,0.478,2.8876,0.3611,4.2131,0.4494c2.118,0.1412,4.2353,0.2686,6.3564,0.3499
				C389.2793,201.8914,389.2536,200.9863,388.6623,200.9244L388.6623,200.9244z"/>
		</g>
	</g>
	<g>
		<g>
			<path class="st9" d="M368.6075,193.1374c-0.6437,1.2092-0.0293,2.6555,0.961,3.4828c0.7596,0.6345,2.6213,1.3673,3.432,0.3894
				c0.3813-0.46,0.2944-1.4649,0.1744-1.9985c-0.1685-0.7487-0.5818-1.4492-1.1888-1.923c-1.1771-0.9189-2.937-0.8811-4.0747,0.0687
				c-0.4248,0.3546,0.1313,1.075,0.5929,0.7684c0.88-0.5845,1.9594-0.8187,2.8798-0.1512c0.8973,0.6507,1.1008,1.7921,0.6968,2.7774
				c0.1224-0.1224,0.2448-0.2447,0.3671-0.3671c-1.7289,0.638-3.2827-1.0032-3.0212-2.7015
				C369.4981,193.0192,368.8664,192.651,368.6075,193.1374L368.6075,193.1374z"/>
		</g>
	</g>
	<g>
		<g>
			<path class="st9" d="M368.6583,194.6564c-3.4305-0.698-6.8748-1.403-10.3455-1.871c-0.6175-0.0833-0.9136,0.825-0.2664,0.9662
				c3.4247,0.7467,6.9062,1.259,10.3719,1.775C368.9785,195.6099,369.2375,194.7743,368.6583,194.6564L368.6583,194.6564z"/>
		</g>
	</g>
	<g>
		<g>
			<path class="st9" d="M398.0055,208.2319c1.9957-2.6738,8.8291,1.5026,10.8714,2.5912c3.671,1.9566,7.0452,4.6949,8.4893,8.7273
				c1.4944,4.1729,0.1868,7.7251-2.7831,10.7802c-1.8645,1.918-4.0459,3.7904-4.8242,6.4534
				c-1.763,6.032,4.963,12.6964,0.788,18.1811c-1.8612,2.4451-4.5142,3.9459-5.2158,7.1425c-0.6935,3.1595,0.4189,6.4364,1.4015,9.4
				c0.6431,1.9394,1.2418,3.9157,1.3501,5.9707c0.0523,0.9918-0.0032,2.022-0.2798,2.9788c-0.491,1.6979-1.92,3.6069-3.6974,1.9942
				c-0.6597-0.5986-1.0714-2.175-1.4711-2.9806c-0.5906-1.1901-1.1915-2.375-1.784-3.5642
				c-1.1849-2.3784-2.3684-4.7567-3.5766-7.1234c-0.3514-0.6884-1.3903-0.0811-1.0372,0.6063
				c1.289,2.5091,2.6055,5.003,3.9173,7.5002c1.0909,2.0768,2.0734,5.1659,3.7636,6.8207c1.8363,1.7978,3.7272-0.2067,4.5268-2.0265
				c1.5268-3.4748,0.2688-7.4484-0.8481-10.8365c-0.8197-2.4865-1.7032-5.1222-1.3956-7.7711
				c0.3364-2.8966,2.2867-4.426,4.1705-6.3728c2.3854-2.4653,2.9453-5.1888,2.225-8.4986
				c-0.9207-4.2307-3.5346-8.6714-1.078-12.8698c1.9633-3.3552,5.7587-5.2487,7.0749-9.0555
				c1.1769-3.4038,0.1979-7.2092-1.7484-10.1293c-2.5473-3.822-6.7292-6.0977-10.8462-7.8655
				c-2.3851-1.0242-6.8163-3.5067-8.7316-0.4843C396.9654,208.2758,397.6846,208.6619,398.0055,208.2319L398.0055,208.2319z"/>
		</g>
	</g>
	<g>
		<g>
			<path class="st9" d="M401.1984,220.0509c2.8095,0.7695,7.0775,2.0051,6.9998,5.6842c-0.0605,2.8657-3.2729,4.1573-5.2588,5.5576
				c-2.9183,2.0578-4.6752,5.3634-3.9089,8.9709c0.1113,0.5239,0.9832,0.4156,0.9438-0.1277
				c-0.2899-4.0002,1.3438-6.5137,4.61-8.6433c1.6814-1.0963,3.6727-2.2021,4.4099-4.1987c1.7701-4.7941-3.791-7.5187-7.5667-8.0735
				C400.8947,219.1421,400.6484,219.9003,401.1984,220.0509L401.1984,220.0509z"/>
		</g>
	</g>
	<g>
		<g>
			<path class="st9" d="M213.4598,223.9452c8.6834-7.3547,17.1107-15.0219,25.6132-22.584
				c0.5283-0.4699-0.2483-1.2404-0.7748-0.7748c-8.5204,7.5358-17.1367,14.9841-25.4723,22.7248
				C212.398,223.7086,213.025,224.3134,213.4598,223.9452L213.4598,223.9452z"/>
		</g>
	</g>
	<g>
		<g>
			<path class="st9" d="M164.8278,235.6418c5.5713-3.6886,10.81-7.9064,16.2785-11.7522c4.4949-3.161,9.0521-6.2308,13.6438-9.2491
				c8.1546-5.3603,16.392-10.5898,24.3723-16.2105c0.6634-0.4673,0.0311-1.5691-0.6418-1.0979
				c-8.0821,5.6604-16.4216,10.9316-24.657,16.3627c-10.0361,6.6186-20.4965,13.3011-29.5249,21.2614
				C163.9295,235.2818,164.4137,235.916,164.8278,235.6418L164.8278,235.6418z"/>
		</g>
	</g>
	<g>
		<g>
			<path class="st9" d="M169.3027,236.0963c7.0924-5.6584,14.4779-10.9247,22.1239-15.8086
				c0.5541-0.3539,0.0441-1.2381-0.5175-0.8854c-7.7591,4.8722-15.1866,10.2227-22.2817,16.0186
				C168.1491,235.8115,168.8284,236.4746,169.3027,236.0963L169.3027,236.0963z"/>
		</g>
	</g>
	<g>
		<g>
			<path class="st9" d="M194.73,247.9638c4.6083-4.3743,9.2095-8.7556,13.7899-13.1591c0.4279-0.4113-0.2209-1.0577-0.6505-0.6505
				c-4.6116,4.3708-9.2021,8.7633-13.7858,13.1632C193.6582,247.7258,194.3034,248.3687,194.73,247.9638L194.73,247.9638z"/>
		</g>
	</g>
	<g>
		<g>
			<path class="st9" d="M141.0624,37.8736c5.1785,3.6176,10.5286,6.9566,16.0621,10.0042c0.5849,0.3221,1.1076-0.5703,0.5235-0.8955
				c-5.5139-3.0702-10.8978-6.3569-16.1391-9.8726C141.0326,36.7901,140.6003,37.5507,141.0624,37.8736L141.0624,37.8736z"/>
		</g>
	</g>
	<g>
		<g>
			<path class="st9" d="M142.8697,36.5197c2.8414,1.6872,5.5482,3.5727,8.1105,5.6602c0.492,0.4009,1.2013-0.2815,0.7085-0.7085
				c-2.5728-2.2293-5.3521-4.1404-8.3606-5.7359C142.8126,35.4622,142.365,36.22,142.8697,36.5197L142.8697,36.5197z"/>
		</g>
	</g>
	<g>
		<g>
			<path class="st9" d="M183.2728,35.9416c6.9661,7.3488,14.6335,14.0287,22.6645,20.1866c0.4863,0.3729,1.1496-0.477,0.6604-0.8558
				c-7.9864-6.1849-15.461-12.9165-22.6661-19.9895C183.5025,34.8616,182.8603,35.5064,183.2728,35.9416L183.2728,35.9416z"/>
		</g>
	</g>
	<g>
		<g>
			<path class="st9" d="M382.1887,277.0455c-10.5891-13.6755-22.0917-26.6074-34.4426-38.7151
				c-0.4635-0.4544-1.1728,0.2537-0.7126,0.7126c12.2391,12.2065,23.7699,25.098,34.5378,38.6198
				C381.9232,278.1046,382.527,277.4825,382.1887,277.0455L382.1887,277.0455z"/>
		</g>
	</g>
	<g>
		<g>
			<path class="st9" d="M376.0508,263.2254c-2.952-2.9259-5.6994-6.043-8.2129-9.3536c-0.3576-0.471-1.1665-0.0092-0.8044,0.4702
				c2.5573,3.3863,5.3505,6.5495,8.4124,9.4883C375.8431,264.2115,376.443,263.614,376.0508,263.2254L376.0508,263.2254z"/>
		</g>
	</g>
	<g>
		<g>
			<path class="st9" d="M375.946,236.0234c-2.1815-1.5299-4.3693-3.0502-6.571-4.551c-0.5355-0.365-1.0307,0.4997-0.5057,0.8652
				c2.1862,1.5216,4.3855,3.0232,6.5917,4.5155C375.9768,237.2021,376.4474,236.375,375.946,236.0234L375.946,236.0234z"/>
		</g>
	</g>
	<g>
		<g>
			<path class="st9" d="M344.4433,173.123c14.4625,7.7863,28.5146,16.2666,42.1546,25.4172
				c0.5412,0.3631,1.0404-0.5064,0.5087-0.8702c-13.5502-9.271-27.6848-17.6852-42.2847-25.1946
				C344.3943,172.2555,344.0164,172.8932,344.4433,173.123L344.4433,173.123z"/>
		</g>
	</g>
	<g>
		<g>
			<path class="st9" d="M404.2501,104.3983c-0.6477-6.4872,7.0317-10.979,12.0371-13.4389
				c5.0208-2.4674,10.4539-3.9481,15.885-5.2004c11.3207-2.6103,22.5279-4.7104,32.8759-10.2794
				c8.2509-4.4403,18.5997-11.6368,17.1837-22.3953c-1.3127-9.9735-10.7046-15.7407-19.7004-17.7907
				c-12.937-2.9481-25.9966,0.393-37.8111,5.7928c-0.6781,0.3099-0.0886,1.2922,0.5826,0.9967
				c10.8102-4.7589,22.6696-7.9734,34.5296-5.9524c9.947,1.6949,22.4924,8.4242,21.0619,20.3939
				c-0.6807,5.6962-4.9044,10.0742-9.3352,13.3194c-4.748,3.4775-10.1508,6.2205-15.63,8.334
				c-9.8582,3.8025-20.4141,5.0063-30.5082,7.9856c-5.0252,1.4832-9.968,3.4369-14.3124,6.408
				c-3.9339,2.6904-8.4957,6.5648-7.9424,11.8267C403.2382,105.084,404.3195,105.0942,404.2501,104.3983L404.2501,104.3983z"/>
		</g>
	</g>
	<g>
		<g>
			<path class="st9" d="M404.4287,106.5537c3.3871-0.0681,5.8596-1.9033,8.5339-3.7929c3.2623-2.3051,6.8009-3.9721,10.7596-4.6621
				c4.1049-0.7155,8.3822-0.3571,12.3071,1.0378c3.9879,1.4173,7.5506,3.74,11.675,4.8169
				c13.2337,3.4553,31.6817,0.2827,37.6408-13.5637c2.8304-6.5767,1.849-14.6488-3.1415-19.9303
				c-0.5823-0.6162-1.4546,0.2897-0.9198,0.9198c6.4008,7.5415,5.2299,18.2372-1.6853,25.0387
				c-6.7776,6.6663-17.3583,8.0088-26.4351,7.1494c-9.1016-0.8617-16.3276-7.2783-25.6199-7.1024
				c-3.8516,0.0729-7.6926,0.9969-11.1279,2.7461c-3.9739,2.0236-7.2891,6.3492-11.987,6.5693
				C403.9342,105.8034,403.9283,106.5638,404.4287,106.5537L404.4287,106.5537z"/>
		</g>
	</g>
	<g>
		<g>
			<path class="st9" d="M403.977,103.1193c-4.4358-2.8389,1.7223-10.7832,3.8429-13.2369c2.7766-3.2127,6.0663-5.933,9.2683-8.7029
				c3.7569-3.2498,7.3931-6.6353,10.8711-10.1827c2.6752-2.7287,5.7903-5.5917,7.2538-9.2109
				c1.0635-2.63,1.2843-5.3668-1.6687-6.5542c-2.937-1.181-6.2539-1.232-9.3348-0.679
				c-6.1914,1.1114-13.4824,4.9741-16.8339,10.5254c-0.9092,1.506-0.3039,3.0985-0.5052,4.7441
				c-0.1826,1.4924-1.7726,3.2745-2.8898,1.6248c-0.4756-0.7023-0.5551-1.7615-0.6147-2.5734
				c-0.1888-2.5753,0.0772-6.0935,1.4103-8.3887c0.3209-0.5524-0.5265-1.0459-0.855-0.4998
				c-1.6573,2.7547-3.0514,10.1178-0.3893,12.6443c1.5486,1.4697,3.494,0.2845,4.142-1.4417
				c0.7338-1.9547-0.2769-4.0493,0.8759-5.8779c0.8725-1.3839,2.2018-2.6295,3.4326-3.6874
				c3.3499-2.8794,7.4821-5.0018,11.8138-5.9084c2.2617-0.4734,4.6261-0.6094,6.9078-0.1893
				c1.5791,0.2908,2.1646,0.4983,3.2184,1.8499c1.0566,1.3553,1.11,1.3539,0.6629,2.9862
				c-0.2245,0.8195-0.5729,1.5935-0.9809,2.3361c-2.4862,4.5247-7.0706,8.3078-10.7698,11.8213
				c-3.5729,3.3935-7.3715,6.5201-11.0234,9.8238c-3.509,3.1744-6.8913,6.6898-8.9472,11.0088
				c-1.2872,2.704-2.4834,6.7315,0.5775,8.6843C404.0189,104.4033,404.5507,103.4864,403.977,103.1193L403.977,103.1193z"/>
		</g>
	</g>
	<g>
		<g>
			<path class="st9" d="M404.0549,72.7984c-9.8328,3.8769-5.8375-15.433-4.2293-19.9017c1.3675-3.7997,3.3821-7.5788,6.0367-10.6467
				c2.6499-3.0625,5.9696-4.2303,9.9699-4.3295c0.7984-0.0198,0.8012-1.2291,0-1.2422c-4.4794-0.0732-8.2786,1.4108-11.1685,4.8903
				c-3.3288,4.0078-5.7205,8.8673-7.0758,13.8876c-1.4373,5.3241-3.7961,23.4497,6.9683,18.531
				C405.2184,73.6844,404.7425,72.5272,404.0549,72.7984L404.0549,72.7984z"/>
		</g>
	</g>
	<g>
		<g>
			<path class="st9" d="M414.0086,39.7156c1.7162-1.6129,4.5231-4.5917,7.1862-4.2095c2.5042,0.3594,2.6596,5.0029,2.5876,6.7409
				c-0.096,2.3138-0.7585,4.6081-1.9308,6.6088c-1.1015,1.8796-3.705,4.9559-6.1738,3.0237
				c-0.519-0.4062-1.2633,0.2956-0.7416,0.7416c5.4715,4.6784,9.8181-6.5758,9.9607-10.3741
				c0.0934-2.4885-0.2802-6.2475-2.816-7.5529c-3.0464-1.5681-6.966,2.3019-8.6937,4.4
				C413.0328,39.5244,413.5887,40.1101,414.0086,39.7156L414.0086,39.7156z"/>
		</g>
	</g>
	<g>
		<path class="st7" d="M306.242,69.2036c0.6187-0.7359,1.1311-1.5581,1.534-2.4001c0.3386-0.7077,0.6905-1.3452,0.6695-2.1536
			c-0.0166-0.6388-0.7793-1.5428-0.7622-1.9567c0.0701-1.6827,2.0829-3.6007,2.8706-5.0303
			c0.9181-1.6663,2.0836-3.0369,1.6633-5.0629c-0.9816-4.7314-4.8513-8.8362-9.6334-9.7151
			c-4.8728-0.8956-10.0706-1.5108-14.1216,2.0288c-0.9301,0.8126-1.6176,2.4016-2.772,2.7331
			c-2.0864,0.5978-4.7696-1.8891-6.6884-2.4364c-1.8517-0.5282-3.7409-0.6527-5.6262-0.2103
			c-4.7691,1.119-9.2967,3.014-13.8699,4.7136c-2.9667,1.1026-6.017,0.8502-9.1124,0.4872
			c-1.6976-0.1991-3.8688-0.1715-5.4617-0.8093c-0.9949-0.3984-3.3621-1.4868-3.5674-2.2637
			c0.673,4.0654,3.3714,6.9227,6.3436,9.5964c2.3871,2.1473,4.9832,2.6923,7.8442,3.8612c1.6755,0.6846,3.2583,1.4517,5.1185,1.3719
			c-0.4526,1.319-1.6961,2.7213-2.2611,4.2028c-0.8203,2.1514-1.67,4.4297-1.7534,6.7681c-0.0821,2.3026-0.4369,6.5565,1.662,7.8801
			c2.7679,1.7454,6.8733,0.1297,9.5049-1.0172c2.3325-1.0165,4.6324-2.2525,6.5692-3.9198
			c1.9809-1.7053,2.0449-3.0882,2.6479-5.5326c1.1376-4.6112,2.634-9.2,6.5775-12.1855c1.644-1.2447,3.4313-2.1777,5.3703-1.4608
			c0.8926,0.33,1.8154,0.9495,2.7126,1.2209c1.3322,0.403,3.1746,0.3697,4.3918,1.0734c2.1407,1.2376,4.1731,4.3749,4.2221,6.8352
			c0.0302,1.5168-0.6101,2.5306,0.2567,3.6726c1.2202,1.6076,3.0706,2.0606,4.4809,0.8952
			C305.4844,70.0324,305.8813,69.6327,306.242,69.2036z"/>
		<g>
			<g>
				<g>
					<path class="st9" d="M298.4814,63.1497c-0.2678,4.1079-0.3979,8.2253-0.559,12.3385
						c-0.1308,3.3404,0.4054,7.6505-1.3438,10.6681c-1.9203,3.313-6.4529,3.5177-9.6372,2.0423
						c-3.0902-1.4318-4.962-4.32-5.7645-7.5397c-0.1877-0.7533-1.2611-0.4213-1.1413,0.3146
						c1.0808,6.6418,9.2978,12.4907,15.6485,8.1721c2.6135-1.7773,3.2332-5.0129,3.384-7.9627
						c0.3064-5.9949,0.4704-12.0309,0.5031-18.0333C299.5751,62.4425,298.5266,62.4554,298.4814,63.1497L298.4814,63.1497z"/>
				</g>
			</g>
			<g>
				<g>
					<path class="st9" d="M277.3008,72.6843c-1.86,1.4722-2.3486,4.1881-1.4037,6.3279c0.9345,2.1161,3.0051,2.9285,4.4789,0.8702
						c0.3871-0.5405-0.4887-1.2191-0.9249-0.7136c-1.4423,1.6719-2.5433-0.5639-2.7042-1.9121
						c-0.1712-1.4349,0.2946-2.7897,1.3286-3.7976C278.5938,72.9539,277.8393,72.2581,277.3008,72.6843L277.3008,72.6843z"/>
				</g>
			</g>
			<g>
				<g>
					<path class="st9" d="M282.8036,65.04c1.7483-0.6186,3.5061-0.7703,5.3429-0.5563c0.5877,0.0685,0.7208-0.9206,0.1402-1.0359
						c-2.011-0.3992-3.9822-0.1044-5.8194,0.7943C282.0272,64.4574,282.3359,65.2055,282.8036,65.04L282.8036,65.04z"/>
				</g>
			</g>
			<g>
				<g>
					<path class="st9" d="M293.1068,64.9574c1.5094-0.5207,2.9063-0.4956,4.3443,0.2467c0.6568,0.3391,1.2044-0.592,0.5797-0.9916
						c-1.5717-1.0052-3.6779-1.0995-5.31-0.1707C292.2386,64.3162,292.5593,65.1463,293.1068,64.9574L293.1068,64.9574z"/>
				</g>
			</g>
			<g>
				<g>
					<path class="st9" d="M289.7997,76.567c0.4619,0.2108,0.9239,0.4216,1.3858,0.6325c0.2381,0.1087,0.4407,0.0785,0.6412-0.0827
						c0.1835-0.1475,0.3521-0.3049,0.5153-0.4746c0.4789-0.498-0.2222-1.1394-0.7375-0.7375
						c-0.1858,0.1449-0.3602,0.2963-0.5261,0.4637c0.1716-0.0454,0.3432-0.0907,0.5148-0.1361
						c-0.4857-0.1544-0.9715-0.3088-1.4572-0.4632C289.6735,75.6221,289.3444,76.3592,289.7997,76.567L289.7997,76.567z"/>
				</g>
			</g>
			<g>
				<g>
					<path class="st9" d="M284.4275,71.4664c0.3535-0.661,0.9771-1.1482,1.7579-1.0991c0.7162,0.045,1.1628,0.5518,1.5861,1.0709
						c0.3423,0.4197,1.0316-0.0335,0.8863-0.5159c-0.3352-1.1128-1.4894-1.7934-2.6305-1.7531
						c-1.1665,0.0412-2.1025,0.8605-2.4673,1.9315C283.3867,71.6096,284.1747,71.939,284.4275,71.4664L284.4275,71.4664z"/>
				</g>
			</g>
			<g>
				<g>
					<path class="st9" d="M293.7328,72.0194c0.1367-0.6012,0.8227-0.8539,1.3685-0.6328c0.6516,0.2639,0.8981,0.912,1.2922,1.4337
						c0.4159,0.5506,1.2719,0.2432,1.1299-0.4763c-0.2325-1.1771-1.4213-2.3092-2.6389-2.3645
						c-1.136-0.0517-2.172,0.7291-2.2105,1.8966C292.654,72.478,293.597,72.6162,293.7328,72.0194L293.7328,72.0194z"/>
				</g>
			</g>
			<g>
				<g>
					<path class="st9" d="M288.9204,81.4349c0.5517,0.8583,1.2369,1.6317,1.8925,2.4116c0.3899,0.4638,0.8451,1.1697,1.5547,0.879
						c0.6008-0.2462,0.7831-1.1045,0.9892-1.6354c0.3963-1.0208,0.7963-2.0394,1.1358-3.0808
						c0.1081-0.3316-0.1755-0.5995-0.4783-0.6278c-1.6877-0.1579-3.2406-0.1485-4.8256,0.5338
						c-0.5371,0.2312-0.1543,1.1366,0.3996,0.9478c1.3675-0.4663,2.8484-0.8281,4.2942-0.5074
						c-0.0988-0.2429-0.1976-0.4857-0.2964-0.7286c-0.5446,1.1982-0.9943,2.4325-1.4875,3.652
						c-0.0524,0.1257-0.1048,0.2514-0.1572,0.3771c0.2359-0.0195,0.201-0.1247-0.1048-0.3157
						c-0.1725-0.3026-0.4894-0.5775-0.7148-0.8385c-0.4798-0.5555-0.9499-1.1184-1.4928-1.6139
						C289.2655,80.5564,288.6315,80.9855,288.9204,81.4349L288.9204,81.4349z"/>
				</g>
			</g>
			<g>
				<g>
					<path class="st9" d="M277.6647,72.9071c-0.2135-6.4416,3.8906-15.2044,11.4166-14.7408c0.6818,0.042,0.6504-0.9659,0-1.043
						c-3.7966-0.4497-7.1099,1.6023-9.2588,4.6369c-2.0896,2.9509-4.2157,7.6542-3.0958,11.2738
						C276.8813,73.5336,277.6832,73.4631,277.6647,72.9071L277.6647,72.9071z"/>
				</g>
			</g>
			<g>
				<g>
					<path class="st9" d="M284.5931,46.8567c-2.5312-2.1235-5.8493-3.1021-9.1424-2.8289
						c-3.4479,0.2861-6.2323,2.2015-9.2881,3.6086c-4.3854,2.0194-9.3417,2.7262-14.1155,1.9869
						c-4.7638-0.7377-10.9075-3.0502-10.7557-8.83c0.0177-0.6739-1.0081-0.6672-1.043,0
						c-0.4419,8.4659,10.9956,10.48,17.3294,10.0383c4.2173-0.2941,7.9585-1.6933,11.6765-3.6172
						c5.1338-2.6566,9.8738-2.924,14.8452,0.2819C284.4821,47.7429,284.9509,47.1569,284.5931,46.8567L284.5931,46.8567z"/>
				</g>
			</g>
			<g>
				<g>
					<path class="st9" d="M240.7285,48.781c-1.7586,3.9804,3.5389,7.1221,6.3341,8.8428c4.5502,2.801,9.6444,4.5619,14.9436,5.2004
						c0.5677,0.0684,0.6686-0.8452,0.1332-0.9843c-2.9777-0.7737-3.9584,3.2512-4.5726,5.3472
						c-0.8621,2.942-2.2881,7.0654-0.7779,10.0214c1.2061,2.3609,3.9635,3.5444,6.5155,3.563
						c3.7613,0.0275,6.9454-2.3502,9.7521-4.5777c0.4617-0.3664-0.1541-1.1754-0.6355-0.8236
						c-3.6497,2.667-9.3195,6.482-13.5571,2.6344c-2.2906-2.0797-1.483-5.2738-0.8909-7.9001
						c0.339-1.5037,1.3594-7.9779,3.8999-7.2981c0.0888-0.3221,0.1776-0.6443,0.2664-0.9664
						c-4.0419-0.6234-7.974-1.73-11.6535-3.5387c-2.8884-1.4198-10.6198-5.1625-9.0132-9.2064
						C241.6416,48.6698,240.9149,48.3591,240.7285,48.781L240.7285,48.781z"/>
				</g>
			</g>
			<g>
				<g>
					<path class="st9" d="M286.4346,47.8795c-1.7729-2.484,3.6347-4.6578,4.9419-5.1091c1.5222-0.5255,3.1175-0.836,4.7247-0.9305
						c3.2214-0.1894,6.4919,0.4886,9.3552,1.9805c3.616,1.8842,6.0808,4.7669,6.6598,8.8504
						c0.3296,2.3248,0.7125,4.4039,2.7657,5.7942c0.5829,0.3947,1.1079-0.5362,0.5471-0.936
						c-2.5798-1.8393-1.862-5.2939-2.8347-7.9269c-0.6048-1.6371-1.7146-3.0292-2.9836-4.2069
						c-2.7033-2.5088-6.2392-4.033-9.8771-4.5168c-3.5298-0.4694-7.1976,0.0267-10.4227,1.5579
						c-2.1725,1.0315-5.8113,3.2941-3.5619,5.972C286.0645,48.7841,286.7233,48.2841,286.4346,47.8795L286.4346,47.8795z"/>
				</g>
			</g>
			<g>
				<g>
					<path class="st9" d="M284.7095,42.9221c-2.2773-5.7899,3.3161-9.5172,8.2347-10.5362
						c4.2425-0.8789,8.603-0.6014,12.7378-2.0465c0.5604-0.1959,0.3277-1.0845-0.2477-0.8984
						c-5.5868,1.8073-11.9908,0.6763-17.2657,3.5183c-3.6133,1.9468-6.4498,6.2978-4.2408,10.2923
						C284.156,43.6646,284.8904,43.3819,284.7095,42.9221L284.7095,42.9221z"/>
				</g>
			</g>
			<g>
				<g>
					<path class="st9" d="M291.2643,56.6079c-0.5537-3.0063,1.7473-5.1971,4.5158-5.6646c2.3736-0.4008,4.6584,0.3871,6.7533,1.4439
						c2.9887,1.5077,5.6382,3.484,8.9261,4.3217c0.6038,0.1538,0.8538-0.7555,0.257-0.9323
						c-5.1617-1.5286-9.5328-6.26-15.1999-5.9383c-3.6879,0.2094-6.8767,3.1232-6.0095,6.9783
						C290.6191,57.3139,291.3548,57.0991,291.2643,56.6079L291.2643,56.6079z"/>
				</g>
			</g>
			<g>
				<g>
					<path class="st9" d="M307.3737,60.0276c1.6799,4.2675,0.2338,8.667-3.7347,11.0054c-0.5591,0.3294-0.0588,1.1869,0.5087,0.8702
						c4.4257-2.4697,6.028-7.5892,3.949-12.1803C307.9139,59.3194,307.2091,59.6095,307.3737,60.0276L307.3737,60.0276z"/>
				</g>
			</g>
			<g>
				<g>
					<path class="st9" d="M291.9052,57.8002c-0.7054-2.9211,2.6738-4.1046,4.8255-4.7518c0.6313-0.1899,0.3696-1.1489-0.2726-0.9888
						c-1.6177,0.4033-3.3532,0.884-4.5089,2.1722c-0.9364,1.0437-1.3892,2.4552-0.852,3.7911
						C291.2939,58.5118,292.0351,58.338,291.9052,57.8002L291.9052,57.8002z"/>
				</g>
			</g>
		</g>
		<g>
			<g>
				<path class="st9" d="M298.6093,234.237c-1.6931,9.5669-1.0487,19.4454-2.8027,29.0227
					c-0.6813,3.7203-1.4097,7.6475-0.431,11.3847c0.5517,2.1068,2.5442,4.2421,2.5319,6.3981
					c-0.0181,3.1738-5.7932,2.0775-7.8477,2.0023c-0.8846-0.0324-0.8777,1.325,0,1.3711c3.0222,0.1588,8.6133,1.6746,9.251-2.6805
					c0.2711-1.8512-0.7854-3.4235-1.5695-5.0018c-1.3747-2.7671-1.5602-5.6962-1.2401-8.7276
					c0.5472-5.182,1.6025-10.2093,1.9753-15.4279c0.429-6.0056,1.3015-12.187,1.1227-18.2071
					C299.583,233.829,298.7123,233.6547,298.6093,234.237L298.6093,234.237z"/>
			</g>
		</g>
		<g>
			<g>
				<path class="st9" d="M290.0002,205.7423c-1.5599,4.2057-0.2547,9.021-0.3953,13.387c-0.145,4.5028-1.7483,8.8767-1.5897,13.3932
					c0.0252,0.7185,1.0546,0.7062,1.1074,0c0.3247-4.3408,1.4479-8.5897,1.6604-12.9325c0.105-2.1466-0.0949-4.2849-0.2059-6.4263
					c-0.1285-2.4784,0.0713-4.8463,0.2287-7.3124C290.8372,205.3611,290.1514,205.3348,290.0002,205.7423L290.0002,205.7423z"/>
			</g>
		</g>
		<g>
			<g>
				<path class="st9" d="M287.7552,279.0789c0.9628-1.6021,1.8948-3.2188,1.9444-5.1391c0.0266-1.031-0.19-1.8356,0.0428-2.8932
					c0.2282-1.0367,0.7353-2.0264,1.014-3.055c1.1134-4.1092,1.0867-8.5415,0.7985-12.7548c-0.0397-0.5809-0.9133-0.5947-0.9141,0
					c-0.0051,4.188,0.2818,8.3999-0.8261,12.4952c-0.3479,1.2859-1.0183,2.546-1.16,3.8751
					c-0.0836,0.7847,0.1272,1.553,0.0946,2.3328c-0.0728,1.7419-0.8786,3.2427-1.6873,4.7339
					C286.8159,279.1278,287.4885,279.5228,287.7552,279.0789L287.7552,279.0789z"/>
			</g>
		</g>
		<g>
			<g>
				<path class="st9" d="M280.2207,117.3241c0.8863,8.7892,15.7583,11.2231,17.4597,1.7885
					c0.1178-0.6532-0.8718-0.9395-1.0057-0.2773c-0.4756,2.3521-1.6037,4.0443-3.9543,4.7988
					c-1.5578,0.5001-3.3939,0.6133-4.9811,0.265c-3.5913-0.7879-5.507-3.4295-6.7589-6.678
					C280.8374,116.8503,280.1733,116.8541,280.2207,117.3241L280.2207,117.3241z"/>
			</g>
		</g>
		<g>
			<g>
				<path class="st9" d="M307.2023,119.6994c-2.0235,2.7607-7.2997,5.2847-9.4019,1.062c-0.3307-0.6643-1.271-0.0822-0.9815,0.5737
					c2.2415,5.0796,9.0422,2.4946,11.1373-1.1951C308.2398,119.6405,307.5278,119.2554,307.2023,119.6994L307.2023,119.6994z"/>
			</g>
		</g>
		<g>
			<g>
				<path class="st9" d="M292.55,164.797c4.7398,7.6529,7.3669,16.1737,9.7129,24.799c1.1718,4.3083,2.4214,8.5856,3.664,12.8733
					c1.3508,4.6608,2.3799,9.493,1.2774,14.3183c-1.0537,4.6119-4.2351,8.6002-6.4914,12.6836
					c-2.2051,3.9908-4.1979,8.0968-5.976,12.2952c-1.5809,3.7327-2.8666,7.4941-3.9969,11.3831
					c-1.0728,3.6913-3.1299,6.892-4.3029,10.5045c-0.6285,1.9355-0.6299,3.9189-0.6167,5.9346
					c0.0172,2.6219-0.0931,5.2822,0.1067,7.8983c0.2522,3.3029,1.5974,6.5926,5.0719,7.4781
					c-0.1323-0.233-0.2646-0.4661-0.3969-0.6991c-0.43,2.4587-7.6516,1.8392-9.2472,1.1364
					c-3.6679-1.6154-1.0684-8.8953-2.0694-12.0865c-0.3336-1.0634-1.0387-1.9929-1.3478-3.0588
					c-0.4516-1.5572,0.1685-2.7331,0.8183-4.1616c1.1815-2.597,2.1929-5.2194,2.9934-7.9617
					c1.6078-5.5076,2.7588-11.1212,4.5427-16.5823c1.9568-5.9904,4.5348-11.4933,7.427-17.0749
					c1.8658-3.6006,3.5717-6.7179,2.4338-10.8142c-1.0851-3.9061-3.6156-7.3392-5.9987-10.546
					c-2.4989-3.3627-4.8397-6.6051-6.7973-10.3186c-5.0943-9.664-10.9689-21.1969-10.3273-32.4601
					c0.5104-8.9587,8.8213-15.4414,8.9508-24.5342c0.0512-3.5944-0.9531-7.4021-1.8672-10.8497
					c-1.0327-3.8946-2.3751-7.8688-4.5719-11.2766c-2.1728-3.3705-5.4087-5.215-8.6902-7.3925
					c-4.0583-2.693-8.6288-4.4683-13.3782-5.5158c-6.0205-1.328-12.1149-2.0089-18.0781-3.6584
					c-6.3522-1.757-12.5115-4.1577-18.3614-7.1953c-9.3419-4.8509-19.1042-11.9298-29.6392-6.0494
					c-0.6224,0.3474-0.0647,1.304,0.5589,0.9562c11.1473-6.2155,21.8455,2.9705,31.6821,7.6265
					c10.1542,4.8064,20.6695,6.9975,31.6332,9.0144c5.332,0.9809,10.4841,2.7792,15.0178,5.7882
					c1.9411,1.2883,4.1575,2.4936,5.8824,4.0574c1.6265,1.4747,2.802,3.4117,3.7717,5.3619
					c1.965,3.952,3.1555,8.3057,4.0318,12.6161c0.9118,4.485,1.2104,8.5174-0.5489,12.8654
					c-1.7179,4.2455-4.428,8.0096-6.1212,12.2678c-1.7198,4.325-1.5954,8.696-0.8146,13.2289
					c1.7557,10.1932,6.536,20.5993,11.9001,29.394c3.9715,6.5114,13.9798,14.7865,10.1592,23.222
					c-2.2708,5.0137-5.2236,9.6742-7.1891,14.8326c-2.2023,5.7798-3.8759,11.7011-5.3697,17.6962
					c-0.7682,3.0833-1.5673,6.164-2.6817,9.1437c-0.8323,2.2255-2.8954,4.997-2.7136,7.4926
					c0.1706,2.3403,1.8551,4.1492,1.9275,6.6093c0.0693,2.356-0.4746,4.7596-0.0046,7.0995
					c0.6883,3.4266,3.3677,3.8436,6.4714,3.9034c1.8684,0.036,6.2689,0.0543,6.7112-2.4739
					c0.0521-0.2979-0.0765-0.6174-0.397-0.6991c-5.4378-1.3864-4.3087-9.0452-4.3362-13.2937
					c-0.013-2.0126-0.1233-4.0423,0.3882-6.0091c0.4633-1.7812,1.4349-3.3784,2.2384-5.0179
					c1.7247-3.5193,2.4566-7.3564,3.7205-11.0417c1.4524-4.2346,3.2808-8.3665,5.2368-12.3902
					c1.9255-3.961,4.0812-7.7861,6.3541-11.5563c2.0356-3.3766,3.6424-6.7744,3.8923-10.772
					c0.247-3.95-0.6809-7.8553-1.7737-11.6204c-1.2038-4.1474-2.422-8.2824-3.5547-12.4506
					c-2.4077-8.8596-5.079-17.6263-9.9504-25.4847C293.1377,163.6212,292.1693,164.1824,292.55,164.797L292.55,164.797z"/>
			</g>
		</g>
		<g>
			<g>
				<path class="st9" d="M185.7758,78.4506c2.4057,0.0707,4.9801,0.158,7.3256,0.721c0.6151,0.1477,0.8764-0.7894,0.2617-0.9492
					c-2.4297-0.6316-5.0921-0.6497-7.5873-0.598C185.2438,77.6354,185.244,78.4349,185.7758,78.4506L185.7758,78.4506z"/>
			</g>
		</g>
		<g>
			<g>
				<path class="st9" d="M185.1071,71.3219c3.1421,1.061,6.1168,2.7479,9.0142,4.3398c0.5664,0.3112,1.0331-0.5057,0.5027-0.8601
					c-2.8064-1.8752-6.0652-3.3192-9.3067-4.2425C184.8239,70.4186,184.6282,71.1602,185.1071,71.3219L185.1071,71.3219z"/>
			</g>
		</g>
		<g>
			<g>
				<path class="st9" d="M201.6936,66.0016c-0.2516,3.6488,1.1511,6.832,1.6153,10.3784c0.3341,2.5525,2.0222,3.6994,4.3857,4.4123
					c3.6822,1.1106,7.4019,2.1119,11.0973,3.1806c4.0389,1.168,7.4959,3.0691,11.1575,5.0731
					c2.8109,1.5384,5.5821,2.3262,8.7721,2.5693c4.1703,0.3179,8.1139,0.7669,12.16,1.889
					c3.4407,0.9542,6.8675,2.0265,10.4215,2.4773c3.5331,0.4481,7.0409,0.0454,10.5814,0.0483
					c3.2639,0.0026,7.1833,1.6757,10.3248,0.4063c2.8242-1.1412,4.5084-4.0376,4.2236-7.0309c-0.064-0.6731-1.1132-0.6913-1.0664,0
					c0.1849,2.7333-1.5078,5.4574-4.263,6.1506c-1.9616,0.4935-4.1504-0.3489-6.126-0.549
					c-3.6862-0.3733-7.3621,0.1932-11.0514,0.0787c-4.4043-0.1367-8.5451-1.4769-12.7504-2.6477
					c-3.6152-1.0065-7.141-1.6265-10.8817-1.849c-4.3759-0.2603-7.7992-1.3868-11.6229-3.5294
					c-3.7037-2.0753-7.255-3.482-11.3384-4.6367c-2.042-0.5774-4.0843-1.1527-6.1213-1.7477
					c-1.6299-0.4761-4.0089-0.7532-5.3754-1.7871c-1.9922-1.5072-1.3327-3.5135-1.8766-5.5345
					c-0.6895-2.562-1.525-4.5951-1.3985-7.352C202.5865,65.4412,201.7317,65.449,201.6936,66.0016L201.6936,66.0016z"/>
			</g>
		</g>
		<g>
			<g>
				<path class="st9" d="M190.8942,65.9415c1.1853,1.1067,2.3351,2.1773,3.3566,3.4425c0.955,1.1828,1.7672,2.58,2.9167,3.5856
					c0.4278,0.3742,1.2023-0.1179,0.8374-0.6461c-0.8944-1.2951-1.977-2.5013-2.9618-3.7318
					c-1.0313-1.2885-2.2028-2.4761-3.6235-3.3312C191.0025,65.0094,190.5302,65.6016,190.8942,65.9415L190.8942,65.9415z"/>
			</g>
		</g>
		<g>
			<g>
				<path class="st9" d="M199.8407,78.7062c-0.3652-1.2909-0.317-2.5652,0.2615-3.7857c0.2787-0.5879-0.5524-1.0988-0.8854-0.5175
					c-0.8284,1.4462-0.917,3.145-0.2061,4.6531C199.2327,79.5271,199.9783,79.1929,199.8407,78.7062L199.8407,78.7062z"/>
			</g>
		</g>
		<g>
			<g>
				<path class="st9" d="M362.3682,60.8602c-0.0797,2.0422-0.9969,3.7683-1.2816,5.7566c-0.2872,2.0054-0.1213,3.7012-1.7878,5.2157
					c-2.0988,1.9074-5.1764,2.8794-7.6686,4.1736c-3.232,1.6784-6.5811,3.1244-9.7788,4.8697
					c-3.1339,1.7105-5.8936,3.9243-8.8682,5.878c-6.5184,4.2811-14.1881,4.6152-21.4847,6.7961
					c-3.2923,0.9841-6.3133,2.6728-9.5969,3.6489c-2.0104,0.5976-4.2297,0.8674-6.1833-0.0755
					c-2.1641-1.0445-3.777-3.1967-3.0867-5.6638c0.1742-0.6226-0.7556-0.867-0.9605-0.2648
					c-0.9099,2.6734,0.5585,5.1589,2.8813,6.5616c3.1555,1.9057,6.7704,0.9564,9.9699-0.3306
					c4.1744-1.6792,8.1596-3.174,12.563-4.1502c4.3475-0.9638,8.9088-1.5744,12.945-3.5499
					c4.026-1.9705,7.3591-5.0455,11.2207-7.2872c3.7718-2.1896,7.8004-3.9299,11.6771-5.9216
					c2.6166-1.3443,6.2073-2.3981,7.9948-4.901c0.9065-1.2692,0.9182-2.7528,1.0698-4.2394
					c0.2263-2.2189,1.1083-4.2761,1.1666-6.5164C363.1725,60.3502,362.388,60.3525,362.3682,60.8602L362.3682,60.8602z"/>
			</g>
		</g>
		<g>
			<g>
				<path class="st9" d="M364.0689,67.5199c1.0404,1.3261,0.9984,2.9273,0.5638,4.4645c-0.1479,0.5234,0.5957,0.8327,0.8728,0.368
					c1.0597-1.7771,0.482-3.9809-0.8317-5.4374C364.2967,66.4969,363.7382,67.0984,364.0689,67.5199L364.0689,67.5199z"/>
			</g>
		</g>
		<g>
			<g>
				<path class="st9" d="M367.2739,64.5949c1.5482-1.7219,2.9685-3.7557,3.7051-5.9702c0.1783-0.5361-0.653-0.8899-0.9156-0.386
					c-1.0598,2.0329-2.052,4.0134-3.4199,5.8698C366.3734,64.4751,366.9712,64.9315,367.2739,64.5949L367.2739,64.5949z"/>
			</g>
		</g>
		<g>
			<g>
				<path class="st9" d="M368.9959,67.2693c2.2215-1.0059,4.3069-2.2156,6.2425-3.7015c0.4898-0.376,0.0162-1.223-0.4939-0.8449
					c-1.9502,1.4456-3.9914,2.7484-6.1567,3.8483C368.1179,66.8098,368.5298,67.4803,368.9959,67.2693L368.9959,67.2693z"/>
			</g>
		</g>
		<g>
			<g>
				<path class="st9" d="M369.6354,71.0208c1.6841-0.421,3.3615-1.0622,4.9006-1.8649c0.5079-0.2649,0.153-1.1589-0.3973-0.9424
					c-1.5871,0.6242-3.1725,1.2666-4.7478,1.9203C368.8598,70.3541,369.0431,71.1688,369.6354,71.0208L369.6354,71.0208z"/>
			</g>
		</g>
		<g>
			<g>
				<path class="st9" d="M373.0885,75.2585c-2.6404-1.1142-5.212-2.0218-8.0169-1c-2.8672,1.0445-5.1409,3.2283-7.5721,4.9911
					c-5.9981,4.3491-11.6356,9.6195-18.6009,12.2907c-3.5435,1.3589-7.0061,2.8898-10.4599,4.4601
					c-1.9175,0.8718-3.7772,1.7512-5.8501,2.18c-1.6137,0.3338-3.2113,0.6051-4.7766,1.1349
					c-3.8058,1.288-8.1431,3.2222-10.5428,6.5921c-0.9855,1.384-1.5189,3.014-1.2831,4.719
					c0.136,0.9831,0.5175,1.9244,1.0143,2.7788c0.3315,0.5703,1.0446,1.1958,1.2346,1.8141
					c0.5273,1.7163-0.4117,3.0536-1.3849,4.2274c-3.0484,3.6764-3.3406,8.5855-2.6838,13.1267
					c0.8086,5.5903,2.9397,10.8598,4.6366,16.214c1.476,4.6572,1.9275,9.3746,1.9676,14.2462
					c0.104,12.6141-1.3391,25.738-4.54,37.9527c-0.1569,0.5987,0.7643,0.8527,0.9266,0.2554
					c2.7277-10.0385,3.9592-20.6805,4.4887-31.048c0.2575-5.0421,0.3405-10.1601-0.3243-15.1755
					c-0.5902-4.452-2.2436-8.6224-3.6415-12.864c-1.7104-5.1895-3.5656-10.9995-2.5751-16.5188
					c0.2395-1.3344,0.6614-2.6348,1.3165-3.8253c0.7255-1.3185,1.84-2.1587,2.7241-3.3113c1.458-1.9007,0.1785-3.287-0.9351-5.0296
					c-3.4645-5.4215,1.4908-9.3861,6.0899-11.5878c2.3339-1.1173,4.7387-1.9026,7.2757-2.3946
					c3.4608-0.6711,6.3861-2.0592,9.5899-3.496c3.8398-1.722,7.8972-3.0251,11.6809-4.8529
					c3.3106-1.5993,6.015-4.1663,8.9165-6.3751c3.1342-2.3858,6.319-4.7073,9.4674-7.0735c1.5318-1.1513,3.2221-2.3746,5.1255-2.801
					c2.2652-0.5075,4.433,0.4207,6.4846,1.2685C373.3961,76.3863,373.6318,75.4878,373.0885,75.2585L373.0885,75.2585z"/>
			</g>
		</g>
		<polygon class="st8" points="309.1042,110.4235 310.9527,114.169 315.0861,114.7696 312.0952,117.6851 312.8012,121.8017 
			309.1042,119.8581 305.4072,121.8017 306.1133,117.6851 303.1223,114.7696 307.2557,114.169 		"/>
		<polygon class="st8" points="295.2166,110.6307 297.0651,114.3762 301.1985,114.9768 298.2076,117.8922 298.9136,122.0089 
			295.2166,120.0653 291.5196,122.0089 292.2257,117.8922 289.2347,114.9768 293.3681,114.3762 		"/>
		<polygon class="st8" points="295.4642,158.252 297.3127,161.9975 301.4461,162.5981 298.4551,165.5135 299.1612,169.6302 
			295.4642,167.6866 291.7672,169.6302 292.4733,165.5135 289.4823,162.5981 293.6157,161.9975 		"/>
	</g>
	<g>
		<g>
			<path class="st9" d="M402.8651,40.1779c-5.1081,3.1766-9.9371,6.8519-14.6536,10.5795
				c-0.5728,0.4527,0.2331,1.2389,0.7997,0.7996c4.6958-3.6411,9.5423-7.0658,14.2858-10.6405
				C403.7238,40.5948,403.3452,39.8793,402.8651,40.1779L402.8651,40.1779z"/>
		</g>
	</g>
	<g>
		<g>
			<path class="st9" d="M399.0672,77.0572c-10.0308,5.248-19.7893,11.0492-29.3116,17.1672
				c-0.4772,0.3066-0.037,1.0699,0.4466,0.764c9.5779-6.0609,19.3646-11.7337,29.2761-17.2279
				C399.9382,77.5055,399.5306,76.8148,399.0672,77.0572L399.0672,77.0572z"/>
		</g>
	</g>
	<g>
		<g>
			<path class="st9" d="M394.5512,75.8544c-3.6286,2.1853-7.1985,4.469-10.7615,6.7592c-0.5461,0.351-0.0475,1.2191,0.5116,0.8753
				c3.6082-2.2186,7.2134-4.4462,10.7556-6.7693C395.5924,76.3683,395.1082,75.5189,394.5512,75.8544L394.5512,75.8544z"/>
		</g>
	</g>
	<g>
		<g>
			<path class="st9" d="M391.7283,111.8789c-13.6996,6.8969-27.4044,13.7833-41.0836,20.7207
				c-0.478,0.2424-0.0573,0.9586,0.42,0.7184c13.7001-6.8933,27.3744-13.8375,41.054-20.7713
				C392.563,112.3216,392.172,111.6556,391.7283,111.8789L391.7283,111.8789z"/>
		</g>
	</g>
	<g>
		<g>
			<path class="st9" d="M456.8342,108.0902c-15.5287,5.5068-31.0443,11.0504-46.5625,16.5865
				c-0.5608,0.2001-0.3187,1.101,0.2477,0.8984c15.5152-5.5517,31.033-11.096,46.5376-16.6769
				C457.56,108.7171,457.3448,107.9091,456.8342,108.0902L456.8342,108.0902z"/>
		</g>
	</g>
</g>
</svg>
