<?xml version="1.0" encoding="utf-8"?>
<!-- Generator: Adobe Illustrator 20.1.0, SVG Export Plug-In . SVG Version: 6.00 Build 0)  -->
<svg version="1.1" xmlns="http://www.w3.org/2000/svg" xmlns:xlink="http://www.w3.org/1999/xlink" x="0px" y="0px"
	 viewBox="0 0 294 236" style="enable-background:new 0 0 294 236;" xml:space="preserve">
<style type="text/css">
	.st0{fill:none;stroke:#F7FAFC;stroke-width:39.9968;stroke-linecap:round;stroke-linejoin:round;}
	.st1{fill:none;stroke:#F2F6F9;stroke-width:39.9968;stroke-linecap:round;stroke-linejoin:round;}
	.st2{fill:#F7FAFC;}
	.st3{fill:#F2F6F9;}
	.st4{fill:#FFFFFF;}
	.st5{fill:#FCE0DE;}
	.st6{fill:#E6E6E6;}
	.st7{fill:#FFEFAF;}
	.st8{fill:#E93A1D;}
	.st9{fill:#303030;}
	.st10{fill:#E83D25;}
	.st11{fill:#B3B3B3;}
	.st12{fill:#666666;}
	.st13{fill:none;stroke:#E93A1D;stroke-width:1.5;stroke-linecap:round;stroke-linejoin:round;}
	.st14{fill:none;stroke:#E93A1D;stroke-width:1.5;stroke-linecap:round;stroke-linejoin:round;stroke-dasharray:2.0259,5.0648;}
	.st15{fill:none;stroke:#E93A1D;stroke-width:1.5;stroke-linecap:round;stroke-linejoin:round;stroke-dasharray:1.8929,4.7321;}
	.st16{fill:#777777;}
	.st17{fill:#172DF8;}
	.st18{fill:none;stroke:#E93A1D;stroke-width:1.5;stroke-linecap:round;stroke-linejoin:round;stroke-dasharray:1.9198,4.7994;}
	.st19{fill:none;stroke:#E93A1D;stroke-width:1.5;stroke-linecap:round;stroke-linejoin:round;stroke-dasharray:1.9197,4.7993;}
</style>
<g id="back">
	<g>
		<g>
			<path class="st2" d="M193.9517,234.6641c-5.9028,0-12.5029-2.0908-19.7578-6.2734c-2.3975-1.3818-5.0068-3.0381-7.8535-4.9873
				c-1.1787,2.1416-2.7524,4.0713-4.6641,5.6758c-4.1709,3.5-9.4707,5.1494-14.9189,4.6562
				c-0.6982-0.0635-1.3735-0.1475-2.0337-0.2598c-1.8584,0.1279-3.7246-0.0039-5.5469-0.3916
				c-3.4375,0.3682-6.8091-0.209-9.8428-1.3408c-4.2197,0.9375-9.1479,0.6123-14.2793-2.0186
				c-0.9263-0.4746-1.9756-1.0703-3.3018-1.874c-1.9165-1.1611-4.4922-2.8057-7.8755-5.0293
				c-4.0693-2.6748-9.3755-6.2334-15.834-10.6211c-0.9565,1.3447-2.0957,2.5918-3.4155,3.7051
				c-8.4429,7.1221-21.0591,6.0498-28.1807-2.3936c0,0-11.9746-14.1973-23.9468-28.4287c-5.9937-7.124-11.9868-14.2568-16.48-19.626
				c-2.2686-2.71-4.1587-4.9756-5.481-6.5713c-3.248-3.9209-7.291-8.7998-6.5718-17.0264
				c0.4609-5.2705,2.9917-10.1445,7.0376-13.5527c0.8965-0.7559,3.5811-2.8047,7.4785-3.9277
				C2.3784,103.6514,0.9229,96.3926,1.2666,89.4609c0.1479-2.9795,0.8599-5.8135,2.0791-8.3848
				c-0.3193-1.7451-0.4072-3.54-0.25-5.3389c0.105-1.1992,0.3169-2.3779,0.6294-3.5225c-0.0073-0.6865,0.0166-1.3789,0.0659-2.0889
				c0.0547-0.792,0.1562-1.5771,0.3018-2.3525c-0.002-0.5742,0.0151-1.1387,0.0444-1.6992
				c0.3232-6.168,3.0508-11.7031,7.6802-15.5879c4.6279-3.8828,10.5308-5.3271,16.1069-4.4131
				c-3.8657-5.417-5.8149-9.79-5.314-15.9316c0.4346-5.3271,3.0054-10.3096,7.1001-13.7451
				c2.7295-2.2891,12.667-9.0957,25.9697-0.5879c0.686,0.4385,1.4146,0.9326,2.2017,1.4912
				c0.9526-4.0518,3.1748-7.8428,6.6089-10.7246c2.0708-1.7393,13.0957-9.8955,26.7656,0.2783
				c1.5786,1.1738,3.4453,2.7285,5.875,4.8916c1.1943,1.0635,2.5322,2.2812,4.0234,3.6631
				c0.8394-1.0684,1.8013-2.0664,2.8833-2.9746c2.1328-1.79,13.4717-10.1611,27.311,0.8672
				c1.4888,1.1865,3.3755,2.8291,5.7676,5.0215c0.2773,0.2549,0.5615,0.5156,0.853,0.7852
				c4.6895-2.3447,12.5039-4.0547,21.8325,2.4854c0.9971,0.6992,2.4419,1.7393,4.269,3.0732
				c3.2646,2.3838,8.0132,5.8955,14.1128,10.4385c6.5781,4.8994,14.8052,11.0547,24.5767,18.3877
				c0.6011-0.6562,1.2461-1.2754,1.9331-1.8516c7.6035-6.3799,18.7358-6.2188,26.1494,0.3818
				c3.0488,2.7129,6.2212,5.5088,9.4238,8.3066c6.9263-1.9424,14.6738-0.0762,19.9595,5.5166
				c0.2744,0.29,6.7939,7.1924,13.4077,14.5938c14.0122,15.6787,18.4966,21.5352,17.9551,30.9014
				c-0.2017,3.4883-1.3081,6.8486-3.1548,9.749c0.9468,2.7041,1.2778,5.334,1.1284,8.2148
				c-0.2969,5.7178-2.9663,11.0938-7.3242,14.751c-3.5342,2.9658-7.8511,4.5283-12.2109,4.6689
				c4.5278,7.4287,5.9102,12.5117,5.5938,17.9248c-0.3452,5.8975-2.9917,11.208-7.4531,14.9512
				c-0.7607,0.6377-1.5557,1.21-2.3779,1.7168c-0.4863,5.2432-3.022,10.085-7.0586,13.4717
				c-3.166,2.6562-6.9038,4.2295-10.8345,4.666c-0.042,5.6172-2.4375,11.1826-7.0522,15.1025
				c-6.3848,5.4238-16.9194,7.0518-25.4854,0.2969c-0.6904,4.8711-3.1558,9.334-6.9458,12.5137
				C204.2065,232.8994,199.373,234.6641,193.9517,234.6641z"/>
		</g>
	</g>
</g>
<g id="Layer_2">
	<path class="st7" d="M227.3201,157.5644c-0.3109-1.5161-1.2083-2.7489-3.0267-3.0682c-3.2869-0.5771-1.9975,3.9806-2.1113,6.2747
		c-0.0643,1.2964,0.3269,3.3617-0.7779,4.293c-1.1089,0.9347-2.9569,0.3131-4.2633,0.6142
		c-1.8814,0.4336-2.3314,0.9576-2.5882,2.7261c-0.1659,1.1426,0.1413,1.5085-0.8046,2.0612
		c-1.4033,0.8198-4.0817-0.0795-5.6583,0.2139c-1.771,0.3296-4.1831,1.675-5.783,0.0974c-1.2066-1.1898-0.6733-3.1848-1.6937-4.6511
		c-0.6758-0.9711-1.1492-1.3331-2.3589-1.6283c-2.1994-0.5367-4.4051,1.1517-5.0714-1.8051
		c-0.3447-1.53,0.0389-3.5937,0.4586-5.0591c0.8043-2.8082-0.2282-3.8259-1.5762-6.5959c-1.6476,0.4701-2.3896,7.8739-2.4854,9.2881
		c-0.1244,1.8377,0.4912,3.8284,0.7525,5.67c0.3057,2.1542,0.9298,4.6312,2.4765,6.2531c-0.3242,0.4927-0.3524,1.1709,0.2001,1.7909
		c5.6111,6.2975,13.8224,8.2758,21.8999,6.2338c0.7567-0.1914,1.2211-0.6946,1.4265-1.2914
		c5.2715-2.271,9.4141-6.9641,10.8635-13.2604c0.1968-0.8546-0.1254-1.7476-0.7644-2.2687
		c0.0112-0.0746,0.0115-0.1525,0.0171-0.2288C227.2078,161.6756,227.6985,159.4101,227.3201,157.5644z"/>
	<path class="st7" d="M134.9911,158.3221c-0.4941-0.3845-0.978-0.7814-1.4697-1.1687c-0.3733-0.5107-0.8625-0.8225-1.3726-1.0916
		c-0.7422-0.5918-1.4922-1.1738-2.229-1.7726c-1.9665-1.5981-5.7064,0.5685-3.8701,2.986c0.1379,0.1816,0.2759,0.3289,0.4141,0.4766
		l-0.0288,0.0222c0.0496,0.0396,0.1003,0.0776,0.1499,0.1172c0.5516,0.5574,1.1221,0.9246,1.7905,1.4736
		c0.0884,0.0433,0.1753,0.0896,0.2634,0.1335c0.0167,0.0131,0.0334,0.0261,0.0502,0.0392
		c-2.9061,2.8512-4.5394,8.2657-5.4889,11.9572c-0.1482,0.2318-0.2993,0.4636-0.4487,0.6953
		c-0.6497,0.4281-1.0944,1.0969-1.229,2.0845c-0.2604,1.9099,2.0332,3.9697,3.6517,2.1257c0.1444-0.1646,0.2787-0.3372,0.4202-0.504
		c0.6512-0.0642,1.2654-0.4242,1.6473-1.1908c0.1504-0.3022,0.301-0.6044,0.4515-0.9065c0.1384-0.2778,0.2013-0.5857,0.203-0.8959
		c2.1118-3.0287,3.8396-6.3324,5.2327-9.7411c0.1047-0.2561,0.2104-0.5164,0.3142-0.7786
		C135.2589,162.0399,136.8632,159.7787,134.9911,158.3221z"/>
	<path class="st7" d="M188.1432,67.0494c-0.6069-0.2581-1.2139-0.5162-1.8209-0.7744c-0.2035-0.0864-0.4225-0.1421-0.6467-0.1786
		c-0.9397-0.53-1.6112-1.2489-2.1239-2.0958c-0.0127-0.1689-0.0393-0.343-0.0846-0.5232
		c-2.1554-8.5608-6.11-16.3467-10.2125-24.1125c-0.5015-0.9491-1.3557-1.3206-2.2139-1.2877
		c0.0581-0.422,0.1389-0.8433,0.2448-1.2638c0.3395-1.6869-1.3799-3.2463-2.9908-2.2993c-1.6252,0.9553-3.2081,1.571-5.0469,1.9861
		c-2.1609,0.4877-1.8668,3.9648,0.2136,4.1345c0.015,0.01,0.0256,0.022,0.041,0.0317c0.8567,0.5483,1.7008,1.1093,2.5356,1.6836
		c1.1143,2.3035,1.3654,6.2524,1.6765,7.5326c0.7184,2.9564,1.6865,5.8535,2.842,8.6666c2.1176,5.1545,6.4141,9.9485,7.4258,15.4432
		c0.3243,1.7618,2.8408,2.3097,3.9954,1.0548c0.8052-0.875,1.4827-1.7395,2.1003-2.6812c0.9661-0.0068,1.8516-0.3704,2.4795-1.0356
		C188.8729,71.6009,190.6281,68.1061,188.1432,67.0494z"/>
	<path class="st8" d="M214.9468,71.9342c0.0637-1.5399-1.2056-2.2278-2.3937-2.0837c0.3524-0.5173,0.028-1.0068-0.7513-2.0803
		c-1.3452-1.8525-3.8575-1.098-4.126,1.1174c-0.1459,1.2053-0.4141,2.4282-0.2721,3.6376c0.0323,0.2748,0.1008,0.5358,0.194,0.7828
		c-0.269,0.3406-0.5273,0.7437-0.8093,1.2729c-4.8779,1.2296-9.6476,9.5011-8.0793,14.2802
		c-0.6389,0.9742-1.2546,1.9623-1.8469,2.963c-0.4509,0.1094-0.9058,0.1979-1.3628,0.2756
		c-0.7883-0.1382-1.6007-0.0383-2.5891,0.3152c-1.7455,0.6241-1.6519,3.6929,0.4711,3.4812
		c0.1732-0.0173,0.3407-0.0405,0.512-0.0596c0.5831,0.0537,1.1661,0.1073,1.7493,0.1609c0.663,0.8733,2.1564,1.1128,3.014-0.0815
		c0.4285-0.615,0.874-1.2174,1.3367-1.8071c0.1357-0.1782,0.2178-0.3633,0.2622-0.5491c0.6338-0.8506,1.3188-1.6632,2.0652-2.4469
		c2.4592-0.4774,3.9219-1.8905,4.939-3.7321c3.0532-3.3622,5.6626-8.1333,4.303-10.9182c0.3927-0.5815,0.8464-1.109,1.3777-1.5671
		C214.1761,74.5023,214.8873,73.3729,214.9468,71.9342z"/>
	<path class="st8" d="M126.5963,74.61c-4.5259-3.8832-8.4437-8.0433-11.7706-13.0172c-1.0736-1.605-3.9039-1.1177-3.8314,1.0376
		c0.3043,9.0662-3.1453,15.4365-10.1289,20.6395c-0.151-0.0421-0.3098-0.0663-0.4802-0.0551
		c-2.5193,0.1658-5.0389,0.976-7.4929,1.6526c-0.2876,0.0581-0.5815,0.136-0.892,0.2405c-0.569,0.1917-0.934,0.5496-1.1266,0.9675
		c-0.3027-0.0679-0.5542-0.1235-0.6868-0.1323c-0.278-0.0181-0.5232-0.0051-0.752,0.0302
		c-0.1643-0.5658-0.5795-1.0599-1.2888-1.2628c-3.1965-0.9141-6.1611-2.2395-8.9009-3.9417
		c-0.6604-0.5674-1.3419-1.1089-2.0222-1.6519c0.1659-0.3549,0.1821-0.7871-0.0516-1.2213
		c-0.7454-1.3846-2.5507-2.8572-4.2452-2.8492c-0.1167-0.0293-0.2336-0.0581-0.3517-0.0815
		c-0.0721-0.0156-0.1392-0.0044-0.2084-0.0042c-0.0759-0.1191-0.158-0.2329-0.2295-0.356c-1.2391-2.1285-4.6364-0.719-3.9802,1.678
		c0.5454,1.9928-0.873,4.8723-1.0549,6.979c-0.1936,2.2443-0.0132,4.4471,0.3193,6.6694c0.1941,1.2987,1.251,1.7003,2.2577,1.4844
		c0.2878,0.1514,0.6158,0.2354,0.9911,0.2025c3.2922-0.2885,6.6124-0.4735,9.8938-0.8667c1.6281-0.1949,3.1989-0.7936,3.7427-2.1984
		c1.1204-0.0111,2.2327-0.0281,3.322-0.0376c0.2825,0.1649,0.6348,0.2267,1.0116,0.0614c1.224-0.5366,3.2847,0.6598,4.6847,0.5428
		c1.0198-0.0852,1.7798-0.418,2.4229-1.0471c1.8884-0.3977,3.7803-0.8391,5.5212-1.5967c0.4127-0.1796,0.6616-0.4924,0.7791-0.8544
		c2.7786-0.8507,5.0859-2.381,6.9337-4.3776c0.4349,0.3662,1.0454,0.5388,1.7804,0.345c2.9583-0.7799,5.7849-1.7739,8.5747-2.9576
		c1.1692,1.6558,3.5125,0.8646,4.0791-0.8582c0.3782,0.0914,0.7585,0.1978,1.1438,0.3365
		C126.5,78.8088,128.1594,75.9511,126.5963,74.61z"/>
	<g>
		<g>
			<g>
				<path class="st9" d="M68.5469,72.4919c-1.432,4.2627-2.0178,8.9428-2.3052,13.4182c-0.1376,2.1425-0.5113,5.5667,1.7599,6.8406
					c1.0784,0.6049,2.1969,0.2998,3.3157,0.0058c2.0792-0.5464,4.1216-1.2326,6.2066-1.7669
					c4.4835-1.149,9.0083-1.864,13.5542-2.6946c0.7742-0.1415,0.6068-1.4647-0.1877-1.3869
					c-6.2948,0.6164-12.6046,2.1794-18.6432,4.0203c-0.5205,0.1587-1.5386,0.6804-2.0545,0.6265
					c-1.4324-0.1497-2.4889-1.5298-2.5878-2.8002c-0.1219-1.5658,0.083-3.2015,0.2218-4.7613
					c0.3378-3.795,1.1674-7.4562,1.8331-11.1946C69.7892,72.0732,68.7864,71.7791,68.5469,72.4919L68.5469,72.4919z"/>
			</g>
		</g>
		<g>
			<g>
				<path class="st9" d="M69.0383,73.3356c2.504,0.356,4.0629,2.1021,5.8337,3.7301c1.5941,1.4656,3.2826,2.8244,5.0578,4.0645
					c3.6049,2.5183,7.565,4.6307,11.7807,5.9154c0.7833,0.2387,1.0391-0.8954,0.3287-1.1922
					c-4.6443-1.94-9.0755-4.1249-13.1095-7.1649c-2.8405-2.1405-5.8608-6.4324-9.7628-6.3025
					C68.6506,72.4033,68.4757,73.2557,69.0383,73.3356L69.0383,73.3356z"/>
			</g>
		</g>
		<g>
			<g>
				<path class="st9" d="M91.5454,85.7711c-0.2331,1.4122-0.0262,2.5381,0.7348,3.7642c0.1314,0.2117,0.4524,0.3949,0.7084,0.2883
					c3.3507-1.3949,6.7883-2.4578,10.3402-3.2032c0.3512-0.0737,0.5408-0.4798,0.4577-0.8061
					c-1.3684-5.3668-7.6592-3.0689-10.7814-1.0002c-0.7121,0.4718-0.0542,1.6207,0.6743,1.1535
					c2.3798-1.5261,7.662-4.3669,8.8434,0.1951c0.1526-0.2687,0.3051-0.5374,0.4577-0.8061
					c-3.6068,0.771-7.0791,1.8844-10.4752,3.3204c0.2861,0.075,0.5722,0.15,0.8583,0.225c-0.6006-0.8903-0.9029-1.9304-0.8801-3.004
					C92.4946,85.3738,91.6348,85.2298,91.5454,85.7711L91.5454,85.7711z"/>
			</g>
		</g>
		<g>
			<g>
				<path class="st9" d="M102.8693,84.8311c4.1721-0.9755,8.2858-2.2343,12.4082-3.3987c4.1112-1.1612,8.3315-2.1511,12.3597-3.5749
					c0.8775-0.3101,0.5347-1.6045-0.3863-1.4012c-4.1728,0.9212-8.2761,2.3121-12.3802,3.5004
					c-4.1153,1.1915-8.2741,2.2987-12.3316,3.6766C101.7855,83.8892,102.0852,85.0145,102.8693,84.8311L102.8693,84.8311z"/>
			</g>
		</g>
		<g>
			<g>
				<path class="st9" d="M102.728,84.3817c6.0062-6.0748,9.2704-14.5489,9.6726-22.9989c-0.2084,0.2084-0.4168,0.4168-0.6251,0.6251
					c3.3579-0.245,6.703,4.4195,8.8296,6.6362c2.3955,2.497,4.6283,5.1342,6.9668,7.6822c0.4757,0.5183,1.4352-0.1888,0.9939-0.7669
					c-2.6047-3.4121-5.5948-6.5516-8.6283-9.5826c-2.1525-2.1507-4.7437-5.5857-8.162-5.2192
					c-0.3559,0.0382-0.5982,0.2566-0.6251,0.6251c-0.612,8.372-3.9567,15.7525-9.2054,22.2158
					C101.5051,84.1402,102.2157,84.8998,102.728,84.3817L102.728,84.3817z"/>
			</g>
		</g>
		<g>
			<g>
				<path class="st9" d="M70.2899,72.5692c-1.7381-2.9181-1.9017-6.3727-0.0124-9.2756c1.2138-1.8649,3.0818-3.3202,3.9165-5.4326
					c0.9655-2.4436,0.0991-6.4782-3.0979-6.4137c-0.661,0.0133-0.8196,0.9936-0.1581,1.1682
					c2.8239,0.7452,2.4825,3.9968,1.243,5.9514c-1.1097,1.75-2.744,3.093-3.6903,4.9593c-1.5837,3.1236-1.2181,6.8103,0.7822,9.6374
					C69.7034,73.772,70.6846,73.2319,70.2899,72.5692L70.2899,72.5692z"/>
			</g>
		</g>
		<g>
			<g>
				<path class="st9" d="M112.1368,60.7776c-0.4386-3.4637-2.7308-6.1672-6.0009-7.401c-4.0873-1.542-8.5241-0.2313-12.0413,2.0531
					c-0.7327,0.4759-0.064,1.6431,0.6891,1.1788c5.5794-3.4399,14.6402-3.6043,16.3173,4.3092
					C111.222,61.4889,112.2121,61.3725,112.1368,60.7776L112.1368,60.7776z"/>
			</g>
		</g>
		<g>
			<g>
				<path class="st9" d="M128.0566,77.4363c6.4738-2.4656,13.7702-0.8502,17.891,4.9557c0.52,0.7327,1.7299,0.0586,1.2244-0.7157
					c-4.0416-6.1904-12.9311-8.9641-19.5737-5.3271C127.0214,76.6652,127.4157,77.6804,128.0566,77.4363L128.0566,77.4363z"/>
			</g>
		</g>
		<g>
			<g>
				<path class="st9" d="M65.3783,92.15c-3.5127-0.9024-5.628,2.8657-7.6881,5.0273c-1.6375,1.7182-3.5072,3.4181-5.6223,4.5209
					c-1.7041,0.8885-4.0002,1.4879-5.6252,0.1609c-1.2464-1.0178-1.7991-2.6552-0.8547-4.0723
					c0.4312-0.647-0.5867-1.4548-1.0905-0.8414c-2.7973,3.4052,1.115,7.4676,4.8226,7.1794
					c2.8452-0.2211,5.3312-2.135,7.3783-3.9687c1.201-1.0758,2.2951-2.2409,3.2985-3.5023c1.2397-1.5586,2.7638-4.0056,5.129-3.5884
					C65.717,93.1696,65.9799,92.3046,65.3783,92.15L65.3783,92.15z"/>
			</g>
		</g>
		<g>
			<g>
				<path class="st9" d="M43.2999,93.5348c-0.1842,0.983-0.3683,1.966-0.5525,2.949c-0.0697,0.3721,0.1603,0.7463,0.569,0.7469
					c1.6118,0.0024,3.2249-0.2355,4.7369-0.8048c0.2395-0.0901,0.4072-0.2775,0.413-0.5424
					c0.0318-1.4605-0.1531-3.3822-1.7067-4.0272c-1.1043-0.4585-2.4125-0.1115-2.8335,1.0665
					c-0.2287,0.64,0.7626,0.8889,1.0057,0.2773c0.2863-0.7202,1.393-0.5037,1.8196-0.0645
					c0.6738,0.6937,0.6257,1.8604,0.5898,2.7479c0.1377-0.1808,0.2753-0.3616,0.413-0.5424
					c-1.4627,0.4312-2.9096,0.6959-4.4378,0.7095c0.1897,0.249,0.3793,0.4979,0.569,0.7469c0.157-0.9905,0.314-1.9809,0.4711-2.9714
					C44.4649,93.1417,43.431,92.8352,43.2999,93.5348L43.2999,93.5348z"/>
			</g>
		</g>
	</g>
	<g>
		<g>
			<g>
				<path class="st9" d="M190.9765,149.0493c-1.1635,4.2003-1.6975,8.5964-1.8548,12.946
					c-0.1358,3.756,0.0905,7.6767,2.1864,10.9256c3.8115,5.9084,11.529,10.0891,18.5523,9.5849
					c7.3324-0.5264,13.8296-5.3794,16.6871-12.1479c2.8071-6.649,1.8028-14.4953-0.5175-21.1281
					c-0.3335-0.9534-1.8193-0.571-1.5312,0.4221c1.6858,5.8104,2.8569,12.0883,1.136,18.0391
					c-2.0359,7.0401-8.4477,12.4921-15.7744,13.0642c-6.5722,0.5132-13.8277-3.4286-17.3961-8.9519
					c-4.0494-6.2678-1.7899-15.6881-0.4368-22.4643C192.1634,148.6579,191.1657,148.3662,190.9765,149.0493L190.9765,149.0493z"/>
			</g>
		</g>
		<g>
			<g>
				<path class="st9" d="M191.4368,149.6545c1.1279,1.8842,2.1853,3.7842,3.2465,5.7053c0.3007,0.5443,1.2563,0.1744,1.0281-0.4334
					c-0.7922-2.1104-2.0806-4.1331-3.6351-5.7653C191.7574,148.8261,191.199,149.2572,191.4368,149.6545L191.4368,149.6545z"/>
			</g>
		</g>
		<g>
			<g>
				<path class="st9" d="M193.0979,156.1203c5.0077-1.1423,9.5883-2.8377,14.8078-2.9891
					c4.9087-0.1423,9.6154,0.8538,14.2991,2.2284c0.8154,0.2393,1.1054-0.9543,0.3442-1.2487
					c-9.073-3.5089-21.1203-3.6687-29.7965,1.19C192.2981,155.5556,192.6118,156.2312,193.0979,156.1203L193.0979,156.1203z"/>
			</g>
		</g>
		<g>
			<g>
				<path class="st9" d="M224.5351,148.9049c-1.1893,1.6712-2.1162,3.7175-2.7232,5.6747c-0.195,0.6288,0.7596,1.0427,1.0709,0.4515
					c0.9638-1.83,1.907-3.7757,2.6321-5.7131C225.7421,148.7111,224.8627,148.4444,224.5351,148.9049L224.5351,148.9049z"/>
			</g>
		</g>
		<g>
			<g>
				<path class="st9" d="M197.7703,162.701c-0.6967-1.8786-0.2069-4.0994,1.9481-4.6779c1.9864-0.5332,3.6997,0.9742,3.93,2.9116
					c0.0891,0.7493,1.2157,0.798,1.207,0c-0.0302-2.7621-2.5721-4.853-5.3018-4.2202c-2.7829,0.6452-4.2726,3.9206-2.6989,6.3725
					C197.1456,163.5404,197.9772,163.2587,197.7703,162.701L197.7703,162.701z"/>
			</g>
		</g>
		<g>
			<g>
				<path class="st9" d="M210.3097,161.6699c0.3571-1.7981,1.2803-3.0857,3.0927-3.7046c2.48-0.8469,4.4048,1.1235,3.7692,3.6124
					c-0.2114,0.8279,0.9446,1.099,1.2487,0.3442c1.1259-2.7942-1.0553-5.7801-4.0581-5.615c-2.414,0.1328-5.9389,2.6055-4.996,5.363
					C209.5102,162.0911,210.2089,162.1775,210.3097,161.6699L210.3097,161.6699z"/>
			</g>
		</g>
		<g>
			<g>
				<path class="st9" d="M197.1819,158.772c-0.1241,0.9521,0.6173,1.8442,1.5445,2.0174c0.9672,0.1806,1.8312-0.456,2.1467-1.3515
					c0.3135-0.8899-0.0488-2.2147-1.0612-2.4474c-0.6374-0.1465-1.3282,0.1845-1.6708,0.7284
					c-0.3396,0.539-0.3427,1.23-0.1476,1.8197c0.1009,0.3049,0.3507,0.6394,0.6943,0.6943c0.3404,0.0544,0.6321,0.0634,0.9262-0.137
					c0.9332-0.6361,0.3351-1.9503-0.7459-1.7692c-0.0304,0.0051-0.0607,0.0102-0.0911,0.0153c0.1751,0,0.3501,0,0.5252,0
					c-0.0286-0.0087-0.0573-0.0174-0.0859-0.0261c0.2314,0.2314,0.4628,0.4628,0.6943,0.6943
					c-0.015-0.0725-0.0385-0.1418-0.0705-0.2079c0.0196-0.212-0.004-0.213-0.0708-0.003c0.0809,0.0142-0.5502,0.0732-0.3136-0.0703
					c0.0465-0.0282-0.0482,0.4876-0.0902,0.5431c-0.3673,0.4859-1.0325-0.0124-1.0644-0.5
					C198.2528,158.0358,197.2732,158.0711,197.1819,158.772L197.1819,158.772z"/>
			</g>
		</g>
		<g>
			<g>
				<path class="st9" d="M211.5883,157.9184c-0.4451,0.293-0.467,0.701-0.542,1.1906c-0.0616,0.4023,0.0534,0.6877,0.3774,0.9275
					c1.5184,1.1237,3.6914-0.5849,2.7326-2.3024c-0.4432-0.794-1.4307-1.0958-2.2307-0.6365
					c-0.8342,0.4789-1.2301,1.674-0.3453,2.2994c0.3625,0.2562,0.8931,0.0567,1.1063-0.2901
					c0.0791-0.1287,0.2155-0.3771,0.1704-0.5298c0.0232,0.0785-0.0594,0.0644-0.0343,0.0763
					c0.028,0.0133-0.1526-0.0264-0.1947-0.0216c-0.0877,0.0099-0.2066,0.0855-0.3752-0.0137
					c0.1356,0.2364,0.2712,0.4728,0.4068,0.7092c-0.0269-0.4615,0.0246-0.9991-0.3683-1.3182
					C212.0978,157.852,211.817,157.7678,211.5883,157.9184L211.5883,157.9184z"/>
			</g>
		</g>
		<g>
			<g>
				<path class="st9" d="M202.4278,169.4139c0.1892,1.5598,1.9254,2.5026,3.3898,2.0308c1.5745-0.5073,2.2246-2.3401,1.5748-3.7784
					c-0.2772-0.6136-1.2765-0.1778-1.0816,0.456c0.247,0.8035-0.045,1.8373-0.9031,2.1416
					c-0.9068,0.3215-1.7197-0.3414-2.1609-1.0719C203.0394,168.8489,202.3725,168.9577,202.4278,169.4139L202.4278,169.4139z"/>
			</g>
		</g>
		<g>
			<g>
				<path class="st9" d="M206.812,170.4624c1.8222,1.0935,4.0667,0.8429,5.6672-0.5172c0.467-0.3968-0.1444-1.1903-0.6568-0.8512
					c-1.4229,0.9416-3.0398,1.0544-4.6018,0.3992C206.6543,169.2557,206.3131,170.1631,206.812,170.4624L206.812,170.4624z"/>
			</g>
		</g>
		<g>
			<g>
				<path class="st9" d="M207.097,167.8648c0.7803-0.5109,1.3719-1.2814,1.9899-1.9721c0.4297-0.4803,1.1009-1.0481,0.9905-1.7712
					c-0.2198-1.4388-2.8648-1.5006-3.9294-1.4278c-1.524,0.1042-2.8522,0.5164-2.4828,2.2919
					c0.2914,1.4007,1.3938,2.6114,2.7906,2.9449c0.7553,0.1804,0.9888-0.8466,0.3115-1.13
					c-0.8267-0.3459-1.7376-1.0442-1.8803-2.0014c-0.1646-1.1039,1.407-0.9278,2.2081-0.8633
					c0.2242,0.0181,1.6182,0.1414,1.7419,0.4122c-0.035-0.0767-0.5508,0.6079-0.6127,0.6821
					c-0.5933,0.7115-1.3048,1.417-1.7006,2.2614C206.3606,167.6399,206.7157,168.1144,207.097,167.8648L207.097,167.8648z"/>
			</g>
		</g>
	</g>
	<g>
		<g>
			<g>
				<path class="st9" d="M122.0491,174.5914c2.1715-3.0776,3.4352-7.1764,4.9644-10.6202c1.0146-2.285,2.2973-4.8852,1.6764-7.4508
					c-0.1923-0.7948-1.4262-2.3288-1.1401-2.9048c0.4181-0.8416,1.2232,0.2094,1.8374,0.6431
					c0.6459,0.4561,1.279,0.9297,1.9158,1.3983c2.4853,1.8285,4.9631,3.5198,7.9906,4.282
					c-0.0645-0.4938-0.1291-0.9877-0.1936-1.4815c-1.5386,1.1674-3.0645-0.1563-4.4859,0.689
					c-1.4941,0.8885-2.3616,3.6936-3.1754,5.155c-1.2479,2.2412-2.4958,4.4824-3.7437,6.7235
					c-0.6213,1.1158-1.1975,2.2774-1.8711,3.3622c-0.2466,0.4805-0.5479,0.9251-0.9039,1.3339
					c-2.3522,0.3474-3.2002-0.3614-2.544-2.1265c0.2463-0.7739-0.9459-1.2917-1.3226-0.5576
					c-0.8392,1.6355-0.4904,3.6644,1.3114,4.4868c2.1991,1.0038,3.8246-0.5212,4.8757-2.3085
					c2.111-3.5894,4.0516-7.2911,6.0739-10.9314c0.4494-0.809,0.8239-1.8125,1.4015-2.5227
					c0.8826-1.0852,0.8856-0.954,2.2563-0.9834c1.1688-0.025,1.9723-0.1802,2.946-0.9205c0.5175-0.3934,0.5462-1.296-0.1936-1.4815
					c-3.8291-0.9601-6.6675-3.5617-9.8513-5.7277c-1.322-0.8994-4.5098-2.9578-4.7874,0.0976
					c-0.094,1.0342,0.5688,1.6597,1.1734,2.4079c1.8314,2.2662,0.9879,4.7586-0.0537,7.2186
					c-1.6217,3.8298-4.1015,7.7986-5.0132,11.8581C121.0726,174.7634,121.7449,175.0226,122.0491,174.5914L122.0491,174.5914z"/>
			</g>
		</g>
		<g>
			<g>
				<path class="st9" d="M132.245,155.1933c2.2845-4.5976,4.5524-9.2029,6.8123-13.8127c1.9027-3.8811,3.8784-7.6913,4.272-12.0656
					c0.4077-4.531-0.7142-10.577,3.9572-13.3164c2.6271-1.5406,6.7937-1.274,6.8037,2.6128
					c0.0063,2.4546-1.8421,5.6337-3.7258,7.1537c-3.0913,2.4944-5.8424-1.0642-4.1048-4.1294
					c1.2223-2.156,4.1739-3.962,6.4762-4.7099c2.0462-0.6646,4.0706-0.3218,4.6196,2.1152c0.2599,1.1536-0.6588,3.1681-1.156,4.1604
					c-0.8498,1.696-6.302,7.962-6.7,2.9356c-0.1574-1.9886,2.6402-4.5565,4.0543-5.777c2.5331-2.1863,7.7413-2.7061,7.0732,2.1419
					c-0.3077,2.2326-1.7176,4.29-3.5424,5.581c-2.1797,1.542-4.3622,1.3831-6.861,1.663c-4.5307,0.5075-5.894,5.4915-7.6724,9.017
					c-2.6653,5.2837-5.3402,10.5626-7.9825,15.8578c-0.4828,0.9675,0.9625,1.8224,1.4571,0.8517
					c2.0331-3.9898,4.0448-7.9904,6.0605-11.989c0.9359-1.8566,1.8718-3.7132,2.8077-5.5699
					c1.0031-1.9899,2.0884-5.4198,4.3837-6.2729c1.5498-0.576,3.4216-0.1562,5.039-0.5004
					c1.4162-0.3014,2.7428-0.9288,3.9036-1.7898c2.1221-1.574,3.7194-3.9507,4.1086-6.5919
					c0.3427-2.3256-0.4076-4.5109-2.6833-5.4549c-2.6081-1.0819-5.313,0.1031-7.2955,1.8529
					c-1.9305,1.7038-4.8049,4.4561-4.6392,7.2955c0.1287,2.2054,1.9484,3.6467,4.1114,3.1876
					c4.3208-0.9172,9.8088-9.7036,6.0906-13.4602c-3.8563-3.8962-11.9464,1.4089-13.5306,5.4707
					c-0.7819,2.0047-0.3968,4.6516,1.3787,6.0204c2.0578,1.5863,4.6049,0.5307,6.2379-1.1142
					c3.0641-3.0864,6.4294-11.4033,0.0627-12.998c-2.8739-0.7198-6.0624,0.7928-7.8688,3.0081
					c-2.2714,2.7856-2.2842,6.504-2.3318,9.9134c-0.0325,2.3314-0.1212,4.5869-0.82,6.8328
					c-0.7941,2.5525-2.0594,4.9469-3.2176,7.347c-2.2332,4.6275-4.458,9.2585-6.6665,13.8979
					C130.8118,155.283,131.8822,155.9233,132.245,155.1933L132.245,155.1933z"/>
			</g>
		</g>
		<g>
			<g>
				<path class="st9" d="M82.3282,159.1468c3.7063-2.9141,9.863-7.064,14.7426-4.8439c2.3807,1.0832,4.9159,4.7403,3.3791,7.3921
					c-1.2201,2.1053-5.457,2.3511-6.7698,0.1749c-1.8474-3.0622,0.5049-8.1921,1.9811-10.9429
					c2.3137-4.3114,5.9504-6.0991,10.9276-5.7484c2.4753,0.1744,5.5378,0.8143,7.2566,2.7571
					c2.0558,2.3238,1.9025,6.1937,1.3209,9.0311c-1.1749,5.7316-6.0505,8.4758-9.3912,12.8272
					c-4.0737,5.3063-4.3008,13.7713,2.9876,16.1916c6.0381,2.0051,14.3265-1.275,14.3879-8.3999
					c0.0099-1.1432-1.6396-1.0983-1.7461,0c-0.7476,7.7093-14.2281,10.3202-16.4669,2.2763
					c-1.7595-6.3215,4.2045-10.7745,7.873-14.8454c3.5474-3.9366,5.329-9.5908,3.8931-14.8333
					c-1.4322-5.2289-7.2259-6.7841-12.1002-6.5115c-4.5709,0.2556-7.784,2.2022-9.9643,6.1443
					c-1.744,3.1534-3.5424,7.4583-2.7345,11.1346c0.7899,3.5946,5.1971,4.6978,8.1633,2.8084
					c4.4102-2.8091,0.6628-9.4176-3.1291-10.7287c-5.3434-1.8475-11.3725,2.2185-15.2776,5.4492
					C81.1888,158.8705,81.8596,159.5152,82.3282,159.1468L82.3282,159.1468z"/>
			</g>
		</g>
	</g>
	<g>
		<g>
			<g>
				<path class="st9" d="M166.9277,47.8235c2.6423,6.9353,5.4127,13.8797,8.4248,20.6629c0.2868,0.646,1.4014,0.1839,1.1513-0.4854
					c-2.5986-6.9516-5.4877-13.848-8.4569-20.6494C167.7722,46.7225,166.6803,47.1742,166.9277,47.8235L166.9277,47.8235z"/>
			</g>
		</g>
		<g>
			<g>
				<path class="st9" d="M168.4567,48.4732c0.5612-1.5921,0.7007-3.4016,1.5905-4.8648c0.6472-1.0643,1.9273-2.155,3.2728-2.1042
					c1.684,0.0635,2.3531,1.5346,3.069,2.672c1.8978,3.0153,3.7945,6.0342,5.4613,9.1856c0.9368,1.7712,1.8045,3.582,2.5501,5.4425
					c0.2477,0.6181,0.8672,1.5901,0.8072,2.234c-0.1083,1.1618-1.0528,1.2233-1.9067,1.4908
					c-2.3374,0.7321-4.3629,2.3697-5.442,4.5743c-0.4051,0.8275,0.7162,1.4863,1.2345,0.7216
					c0.8671-1.2794,1.7674-2.3382,3.1073-3.1257c1.0844-0.6374,2.2514-0.6271,3.3281-1.1481
					c0.9797-0.474,1.3526-1.281,1.2896-2.3422c-0.1225-2.0627-1.5269-4.4293-2.4069-6.2628
					c-1.2195-2.5408-2.6208-4.9902-4.085-7.3967c-1.68-2.7611-3.701-8.1481-7.7562-7.4284c-3.699,0.6565-5.147,4.9476-4.9365,8.2408
					C167.6643,48.8386,168.2978,48.9241,168.4567,48.4732L168.4567,48.4732z"/>
			</g>
		</g>
		<g>
			<g>
				<path class="st9" d="M170.858,44.7727c1.3001,3.9824,2.7269,7.9485,4.2796,11.8391c0.26,0.6516,1.3039,0.4038,1.0792-0.2975
					c-1.278-3.9883-2.703-7.9535-4.2344-11.8516C171.7144,43.7805,170.6206,44.0454,170.858,44.7727L170.858,44.7727z"/>
			</g>
		</g>
		<g>
			<g>
				<path class="st9" d="M180.3256,69.0565c-1.5573,2.9197-1.8218,6.0127-1.0345,9.209c0.1699,0.6897,1.2705,0.7178,1.4238,0
					c0.1366-0.6394,0.2245-1.3371,0.5426-1.9169c0.377-0.6871,2.38-2.8466,2.9897-0.869c0.2405,0.7801,1.4902,0.6684,1.4629-0.198
					c-0.0502-1.5918,0.1858-2.9459,0.8336-4.4026c-0.431,0-0.862,0-1.2929,0c1.2817,2.2156,3.7546,2.9357,6.0565,1.8768
					c0.3758-0.1729,0.4518-0.7027,0.2703-1.0307c-1.6006-2.892-3.8409-5.4266-6.751-7.0482
					c-0.8422-0.4693-1.5312,0.7479-0.7482,1.28c2.6083,1.7724,4.6553,3.7514,6.1982,6.5286
					c0.0901-0.3436,0.1802-0.6872,0.2703-1.0307c-1.5725,0.7264-3.1544,0.1302-4.0031-1.3315c-0.2587-0.4456-1.0584-0.5296-1.2929,0
					c-0.7467,1.6862-1.0913,3.3127-1.0302,5.1583c0.4876-0.066,0.9753-0.132,1.4629-0.198c-0.4385-1.4143-1.76-2.1345-3.242-1.8218
					c-2.1133,0.4459-2.7647,2.7915-3.1504,4.6111c0.4746,0,0.9492,0,1.4238,0c-0.7488-2.8792-0.4559-5.6479,0.6066-8.3965
					C181.545,68.8984,180.6131,68.5175,180.3256,69.0565L180.3256,69.0565z"/>
			</g>
		</g>
		<g>
			<g>
				<path class="st9" d="M168.9553,44.3617c-2.8709-1.9411-5.3129-4.0706-7.0539-7.1068c-0.1465,0.3601-0.293,0.7202-0.4395,1.0802
					c3.8576-0.8134,7.8784-1.4245,10.8899-4.1775c-0.4117-0.1705-0.8234-0.3411-1.2351-0.5116
					c-0.0922,2.436-0.2189,4.8734-0.2452,7.3112c-0.0096,0.8934,1.3192,0.8769,1.377,0c0.1603-2.4335,0.2207-4.8743,0.3152-7.3112
					c0.0255-0.657-0.7933-0.9139-1.2351-0.5116c-2.7956,2.5454-6.6973,3.0317-10.2577,3.7825
					c-0.4725,0.0996-0.6635,0.6896-0.4395,1.0802c1.8371,3.2037,4.4546,5.9181,7.9445,7.2641
					C169.1234,45.4723,169.3909,44.6562,168.9553,44.3617L168.9553,44.3617z"/>
			</g>
		</g>
	</g>
	<g>
		<g>
			<g>
				<path class="st9" d="M206.0055,75.5977c-4.3609,0.7712-7.4159,5.2722-8.1819,9.4277c-0.5759,3.1243,0.4757,7.2024,4.3714,7.1065
					c4.2607-0.1049,7.4992-5.6931,8.9723-9.065c1.5775-3.6107,1.1999-8.4898-3.0388-9.95c0.1569,0.2763,0.3138,0.5526,0.4706,0.8289
					c0.4136-2.6076,0.5852-5.2,0.4922-7.8391c-0.2855,0.2175-0.571,0.4349-0.8564,0.6524c1.3876,0.41,4.6574,1.815,2.8173,3.6677
					c-0.5763,0.5803,0.1497,1.3673,0.823,1.0667c1.0171-0.4542,2.0342-0.9085,3.0513-1.3627
					c-0.3331-0.1355-0.6663-0.2711-0.9994-0.4066c0.6022,2.2989-0.6228,4.5269-2.9159,5.2158
					c-0.8431,0.2533-0.4825,1.5804,0.3645,1.3221c3.0039-0.9162,4.6634-3.8546,3.8634-6.8997
					c-0.1213-0.4616-0.6096-0.581-0.9994-0.4066c-1.0167,0.4549-2.0334,0.9098-3.0501,1.3648
					c0.2743,0.3556,0.5487,0.7111,0.823,1.0667c2.7377-2.7605-0.956-5.2074-3.4181-5.933
					c-0.4109-0.1211-0.8721,0.2165-0.8564,0.6524c0.0908,2.5243-0.0442,4.983-0.4386,7.4809
					c-0.0591,0.3744,0.0923,0.704,0.4706,0.8289c4.3329,1.4304,3.1014,6.6586,1.4203,9.6324
					c-1.3955,2.4687-3.7697,6.6186-7.0025,6.6374c-3.7873,0.0221-3.5074-4.5584-2.5891-7.1075
					c1.1091-3.0786,3.3873-6.1432,6.7133-6.868C207.0451,76.551,206.7272,75.47,206.0055,75.5977L206.0055,75.5977z"/>
			</g>
		</g>
		<g>
			<g>
				<path class="st9" d="M197.3609,90.6079c-3.1731,0.1805-5.8248,1.9152-7.2855,4.7484c-0.316,0.6129,0.202,1.1983,0.8404,1.0931
					c1.1716-0.193,2.3432-0.3859,3.5149-0.5789c-0.2801-0.3644-0.5603-0.7288-0.8404-1.0931
					c-0.5801,0.9038-0.6827,1.6485-0.4392,2.6895c0.1024,0.4378,0.707,0.7202,1.0931,0.4447
					c1.1525-0.8223,2.6805-0.7557,3.5832,0.424c0.3825,0.4999,1.1422,0.4729,1.354-0.177c0.5628-1.7274,1.1449-3.449,1.6475-5.1951
					c0.2507-0.871-1.0363-1.1965-1.3391-0.3692c-0.625,1.7077-1.1715,3.4424-1.7371,5.1704c0.4513-0.059,0.9026-0.118,1.354-0.177
					c-1.361-1.7837-3.7375-2.2977-5.6136-0.9614c0.3644,0.1482,0.7288,0.2965,1.0931,0.4447
					c0.0964-0.5142,0.1928-1.0285,0.2892-1.5427c0.3842-0.5987-0.2481-1.1907-0.8404-1.0931
					c-1.1716,0.193-2.3432,0.386-3.5149,0.5789c0.2801,0.3644,0.5602,0.7288,0.8404,1.0931
					c1.2432-2.4114,3.4895-3.9104,6.1663-4.2738C198.2216,91.7393,198.0585,90.5683,197.3609,90.6079L197.3609,90.6079z"/>
			</g>
		</g>
	</g>
</g>
</svg>
