<?xml version="1.0" encoding="utf-8"?>
<!-- Generator: Adobe Illustrator 20.1.0, SVG Export Plug-In . SVG Version: 6.00 Build 0)  -->
<svg version="1.1" xmlns="http://www.w3.org/2000/svg" xmlns:xlink="http://www.w3.org/1999/xlink" x="0px" y="0px"
	 viewBox="0 0 174 105" style="enable-background:new 0 0 174 105;" xml:space="preserve">
<style type="text/css">
	.st0{fill:none;stroke:#F7FAFC;stroke-width:39.9968;stroke-linecap:round;stroke-linejoin:round;}
	.st1{fill:none;stroke:#F2F6F9;stroke-width:39.9968;stroke-linecap:round;stroke-linejoin:round;}
	.st2{fill:#F7FAFC;}
	.st3{fill:#F2F6F9;}
	.st4{fill:#FFFFFF;}
	.st5{fill:#FCE0DE;}
	.st6{fill:#E6E6E6;}
	.st7{fill:#FFEFAF;}
	.st8{fill:#E93A1D;}
	.st9{fill:#303030;}
	.st10{fill:#E83D25;}
	.st11{fill:#B3B3B3;}
	.st12{fill:#666666;}
	.st13{fill:none;stroke:#E93A1D;stroke-width:1.5;stroke-linecap:round;stroke-linejoin:round;}
	.st14{fill:none;stroke:#E93A1D;stroke-width:1.5;stroke-linecap:round;stroke-linejoin:round;stroke-dasharray:2.0259,5.0648;}
	.st15{fill:none;stroke:#E93A1D;stroke-width:1.5;stroke-linecap:round;stroke-linejoin:round;stroke-dasharray:1.8929,4.7321;}
	.st16{fill:#777777;}
	.st17{fill:#172DF8;}
	.st18{fill:none;stroke:#E93A1D;stroke-width:1.5;stroke-linecap:round;stroke-linejoin:round;stroke-dasharray:1.9198,4.7994;}
	.st19{fill:none;stroke:#E93A1D;stroke-width:1.5;stroke-linecap:round;stroke-linejoin:round;stroke-dasharray:1.9197,4.7993;}
</style>
<g id="back">
</g>
<g id="Layer_2">
	<path class="st8" d="M26.1424,64.8132c-0.2572,0.011-0.5239,0.0386-0.788,0.0608c-0.8632-0.345-1.5538-0.896-2.0643-1.6614
		c-0.9233-0.4521-1.0325-0.8777-0.3271-1.2766c0.0865-0.5283,0.9673-1.3604,1.1589-1.9424
		c0.5815-1.7646,0.1516-3.5409-1.3083-4.7027c-2.7587-2.1954-4.0269-0.147-4.5102,2.3502
		c-1.5808,0.0996-3.5762,0.4366-5.0199-0.0994c-1.3974-0.5188-1.1841-1.8008-2.4711-2.5655
		c-1.5131-0.899-3.1442-0.2036-3.814,1.3079c-0.8522,1.9233,0.7889,3.0266,0.8679,4.8032c0.0791,1.781-1.4,2.7441-2.9336,3.1289
		c-1.5149,0.3799-2.069,1.6299-1.8898,2.8188c-0.5443,1.8076,0.5044,3.335,2.4686,3.5916c2.46,0.321,0.9451,3.7839,0.4666,5.0173
		c-0.8457,2.1809,2.3962,3.9351,3.8912,2.2651c0.7605-0.8496,1.3257-1.7891,1.6906-2.7861c0.1145,0.0532,0.2393,0.1108,0.3818,0.177
		c2.4119,1.1169,5.1204-0.1575,6.728,2.5764c1.4279,2.428,4.7751,1.1897,4.9939-1.3525c0.1223-1.4199-0.4263-1.9727-0.8979-3.2441
		c-0.3613-0.9736-0.8677-0.3813-0.3862-1.6033c0.5339-1.3547,2.48-1.4456,3.7612-1.5125c0.2329-0.0176,0.4708-0.0449,0.7146-0.083
		C29.8468,69.6113,29.1336,64.686,26.1424,64.8132z M15.0379,72.1684c-2.5177,0-4.5588-2.041-4.5588-4.5588
		s2.0411-4.5588,4.5588-4.5588c2.5178,0,4.5588,2.041,4.5588,4.5588S17.5557,72.1684,15.0379,72.1684z"/>
	<path class="st7" d="M94.3202,24.0219c0.3574,3.0527,2.1597,5.3833,2.8871,8.1484c0.4283,1.6292-0.0525,6.0698-0.4567,7.5579
		c2.3208,0.031,4.6367,0.1592,6.9517,0.3201c0.4539-1.2239,0.6614-5.7432,0.7046-7.2261c0.0464-1.5911-0.0691-3.106-0.1892-4.0649
		c-0.9307-7.4231,5.6047-13.4546,1.4187-20.8127c-2.1096-3.7083-6.6423-5.7771-10.8567-5.7732
		c-4.7594,0.0044-8.8998,3.8616-13.5056,4.7437c-6.5742,1.259-12.9268,0.415-14.0055,9.1333
		c-0.5028,4.0632,1.8037,9.9561,6.5104,10.2876c3.593,0.2527,5.9739-2.5696,8.2977-4.8481
		c2.9918-2.9336,4.5574-3.3186,8.7567-2.2971C94.2969,20.0331,93.9612,20.9554,94.3202,24.0219z"/>
	<g>
		<g>
			<g>
				<path class="st9" d="M93.9647,23.6752c-0.1734,5.0693-0.2579,10.1412-0.4313,15.2104c-0.033,0.9655,1.467,0.9642,1.5,0
					c0.1734-5.0693,0.2579-10.1412,0.4313-15.2104C95.4977,22.7097,93.9977,22.711,93.9647,23.6752L93.9647,23.6752z"/>
			</g>
		</g>
		<g>
			<g>
				<path class="st9" d="M103.8717,39.54c2.0264-6.3452,1.3889-13.2023,3.0866-19.6348c1.3644-5.1695,2.7685-11.3972-1.4248-15.7138
					C99.662-1.8527,88.675,2.2745,83.2507,6.8612c-0.7381,0.6241,0.3275,1.6806,1.0607,1.0607
					c4.9475-4.1836,16.2612-8.5232,20.9375-1.7148c3.6161,5.2647,0.3099,11.5347-0.5859,17.0822
					c-0.8492,5.2592-0.604,10.7363-2.2378,15.852C102.1309,40.0629,103.5787,40.4575,103.8717,39.54L103.8717,39.54z"/>
			</g>
		</g>
		<g>
			<g>
				<path class="st9" d="M78.7527,6.7843C72.7845,5.8864,66.7413,9.951,66.0276,16.124
					c-0.5763,4.9839,1.1332,12.7216,6.0801,15.1292c0.6848,0.3333,1.2728-0.6346,0.6033-1.0321
					c-3.9952-2.3724-5.4753-8.3966-5.4007-12.7272c0.1028-5.9589,5.4622-10.3281,11.3177-9.7889
					C79.1484,7.753,79.2761,6.8631,78.7527,6.7843L78.7527,6.7843z"/>
			</g>
		</g>
		<g>
			<g>
				<path class="st9" d="M82.778,20.3123C81.4883,15.1668,88.123,7.427,93.346,7.794c3.966,0.2787,7.3171,3.4734,8.4122,7.1828
					c1.2913,4.3741-0.5518,9.0267-3.3444,12.3871c-0.484,0.5824,0.3192,1.4212,0.8452,0.8452
					c3.2304-3.5371,5.0451-8.4318,3.8781-13.2088c-1.0226-4.1859-4.6185-7.7577-8.9301-8.4196
					c-3.706-0.5689-6.7441,1.5918-9.0499,4.3024c-2.1576,2.5364-4.3695,6.2486-3.3623,9.7001
					C81.9786,21.2129,82.9379,20.9503,82.778,20.3123L82.778,20.3123z"/>
			</g>
		</g>
		<g>
			<g>
				<path class="st9" d="M83.031,21.8737c-0.2099-2.9527,1.8835-4.1355,4.1598-5.2371c1.2115-0.5862,4.1889-2.3414,5.4935-1.3491
					c0.5007,0.3808,1.1498-0.4614,0.6746-0.8742c-1.7893-1.5541-4.8492,0.1878-6.5851,1.0468
					c-2.7251,1.3485-5.1688,2.9568-4.7271,6.4136C82.1246,22.4839,83.0769,22.5187,83.031,21.8737L83.031,21.8737z"/>
			</g>
		</g>
		<g>
			<g>
				<path class="st9" d="M77.3466,28.681c1.9963-0.3848,3.7391-0.0926,5.7083,0.2558c0.5641,0.0998,1.0133-0.6993,0.4199-0.996
					c-1.963-0.9816-4.3507-0.9057-6.4226-0.3277C76.3583,27.8067,76.6537,28.8146,77.3466,28.681L77.3466,28.681z"/>
			</g>
		</g>
		<g>
			<g>
				<path class="st9" d="M87.4726,29.097c1.6144-0.0888,3.1659-0.1177,4.7826-0.0265c0.6343,0.0358,0.7541-0.9424,0.1488-1.0992
					c-1.6231-0.4203-3.4632-0.4229-5.0754,0.061C86.7625,28.2022,86.8418,29.1317,87.4726,29.097L87.4726,29.097z"/>
			</g>
		</g>
		<g>
			<g>
				<path class="st9" d="M82.0527,21.2672c-2.3381,1.0718-5.6473,1.2758-6.78,3.9734c-0.2582,0.615-0.2965,1.2479-0.3944,1.8953
					c-0.2272,1.5029-0.507,1.6575-1.7225,2.6781c-0.6186,0.5194-1.1254,0.9008-1.4956,1.6601
					c-1.2886,2.6429,0.008,7.8769,3.7437,5.8754c0.5609-0.3005,0.1776-1.2632-0.4402-1.0442
					c-1.9999,0.7092-2.6367-1.2172-2.4674-2.8773c0.2179-2.1374,1.7126-2.0708,2.8694-3.3857
					c1.1075-1.2589,0.548-3.1428,1.3363-4.5258c1.1467-2.0119,3.9908-2.1747,5.8565-3.3842
					C83.1077,21.7762,82.6327,21.0013,82.0527,21.2672L82.0527,21.2672z"/>
			</g>
		</g>
		<g>
			<g>
				<path class="st9" d="M77.9664,33.0275c1.3057,1.3325,4.0782,1.0388,5.3319-0.247c0.4068-0.4173-0.0034-1.103-0.5615-0.9646
					c-0.7961,0.1974-1.4532,0.6656-2.3031,0.705c-0.7599,0.0352-1.3092-0.3927-2.0207-0.4588
					c-0.1821-0.0169-0.431,0.1195-0.5052,0.2898c-0.0073,0.0168-0.0146,0.0336-0.022,0.0504
					C77.7917,32.6182,77.7922,32.8498,77.9664,33.0275L77.9664,33.0275z"/>
			</g>
		</g>
		<g>
			<g>
				<path class="st9" d="M79.0329,33.8138c0.1333,0.6638,0.8973,0.9952,1.5175,0.8735c0.6818-0.1338,1.2871-0.6993,1.3792-1.3861
					c0.0581-0.4334-0.5367-0.728-0.8729-0.5009c-0.3732,0.2521-0.6759,0.9973-1.1572,0.509
					C79.517,32.9211,78.935,33.3261,79.0329,33.8138L79.0329,33.8138z"/>
			</g>
		</g>
		<g>
			<g>
				<path class="st9" d="M86.3586,33.0275c1.3057,1.3325,4.0782,1.0388,5.3319-0.247c0.4068-0.4173-0.0034-1.103-0.5615-0.9646
					c-0.7961,0.1974-1.4532,0.6656-2.3031,0.705c-0.7599,0.0352-1.3092-0.3927-2.0207-0.4588
					c-0.1821-0.0169-0.431,0.1195-0.5052,0.2898c-0.0073,0.0168-0.0146,0.0336-0.022,0.0504
					C86.184,32.6182,86.1845,32.8498,86.3586,33.0275L86.3586,33.0275z"/>
			</g>
		</g>
		<g>
			<g>
				<path class="st9" d="M87.4252,33.8138c0.1333,0.6638,0.8973,0.9952,1.5175,0.8735c0.6818-0.1338,1.2871-0.6993,1.3792-1.3861
					c0.0581-0.4334-0.5367-0.728-0.8729-0.5009c-0.3732,0.2521-0.6759,0.9973-1.1572,0.509
					C87.9093,32.9211,87.3273,33.3261,87.4252,33.8138L87.4252,33.8138z"/>
			</g>
		</g>
		<g>
			<g>
				<path class="st9" d="M75.4892,39.3625c-0.0533-0.8154-0.3348-1.661-0.4913-2.4652c-0.1297-0.6666-1.1465-0.4904-1.1567,0.1565
					c-0.0131,0.8274,0.1289,1.8983,0.6325,2.5837C74.7621,40.0299,75.5281,39.9566,75.4892,39.3625L75.4892,39.3625z"/>
			</g>
		</g>
	</g>
	<g>
		<g>
			<g>
				<path class="st9" d="M121.91,94.976c-12.3811,0.2875-24.7769,0.2855-37.1604,0.3307
					c-8.5218,0.0311-17.0446,0.0391-25.566-0.0584c-3.2949-0.0377-6.5904-0.0873-9.8837-0.198
					c-1.746-0.0587-4.0607-0.6295-5.7706-0.3462c-0.1338,0.0222-0.3915-0.0532-0.521-0.0987
					c0.4085,0.1435,0.3016,0.6314,0.3797,0.1449c0.0457-0.2851-0.0191-0.6387-0.0224-0.9287
					c-0.022-1.9346,0.0774-3.8748,0.158-5.8071c0.1652-3.9576,0.4637-7.9141,0.5591-11.8741
					c0.1994-8.2712-0.2288-16.5753-0.238-24.8501c-0.0023-2.0371-0.1287-4.0701-0.2231-6.1042
					c-0.0198-0.4257-0.1338-0.987-0.0607-1.4062c0.1127-0.647,0.8798-2.2458,1.5527-2.584
					c0.3242-0.1629,0.9383-0.0676,1.3148-0.0827c1.345-0.0541,2.694-0.0593,4.0398-0.0884
					c17.5393-0.3797,35.0812-0.7508,52.6242-0.898c3.4472-0.0289,6.8949-0.051,10.3422-0.0259
					c1.6754,0.0122,3.9463-0.3258,5.5724,0.1624c2.2398,0.6723,2.7126,4.2743,2.7284,6.3145
					c0.0312,4.0323,0.0719,8.0637,0.1399,12.0956c0.1369,8.1273,0.291,16.2581,0.0423,24.385
					c-0.1294,4.2299-0.3796,8.4529-0.7573,12.6678c-0.0861,0.9612,1.4144,0.9554,1.5,0c0.7912-8.8281,0.9495-17.6836,0.869-26.5426
					c-0.0391-4.304-0.1254-8.6075-0.1936-12.9111c-0.0615-3.8806,0.3822-8.1125-0.2147-11.9461
					c-0.4325-2.7775-1.9654-5.4338-4.8985-5.6211c-2.463-0.1573-4.9493-0.1121-7.4156-0.1138
					c-18.5996-0.013-37.2045,0.444-55.799,0.8364c-3.0769,0.0649-6.2584-0.0941-9.3226,0.2019
					c-2.1615,0.2088-3.4802,1.5153-3.6423,3.6809c-0.1483,1.9824,0.209,4.0994,0.269,6.0914
					c0.0725,2.4069-0.0333,4.8122-0.0261,7.2195c0.0232,7.7373,0.557,15.4568,0.1439,23.193
					c-0.2192,4.1057-0.4597,8.2139-0.5457,12.325c-0.0409,1.9537-0.5367,3.7774,1.7135,4.073
					c2.1447,0.2817,4.3408,0.2976,6.4994,0.3631c8.0424,0.244,16.094,0.2458,24.1393,0.2493
					c15.395,0.0067,30.7932-0.0885,46.1865-0.3232c0.4958-0.0076,0.9918-0.0142,1.4875-0.0257
					C122.8737,96.4537,122.8772,94.9536,121.91,94.976z"/>
			</g>
		</g>
		<g>
			<g>
				<path class="st9" d="M50.2334,50.245c22.5299,1.0046,45.0897,1.1145,67.6283,0.3272c0.9626-0.0336,0.9671-1.5338,0-1.5
					c-22.5385,0.7873-45.0984,0.6774-67.6283-0.3272C49.2683,48.702,49.2704,50.2021,50.2334,50.245L50.2334,50.245z"/>
			</g>
		</g>
		<g>
			<g>
				<path class="st9" d="M56.9139,43.2361c-0.2537,0.0369-0.579-0.003-0.7937,0.1562c-0.1637,0.1214-0.2696,0.3713-0.3235,0.5631
					c-0.115,0.4091-0.0556,0.8607,0.1183,1.2431c0.3962,0.8714,1.3917,1.2613,2.2676,0.8561
					c0.8548-0.3955,1.3489-1.3999,0.95-2.2901c-0.39-0.8703-1.4362-1.3384-2.3115-0.9315c-0.4095,0.1904-0.2232,0.9395,0.2381,0.879
					c0.3623-0.0475,0.7261-0.0114,0.9851,0.276c0.2868,0.3183,0.2157,0.7387-0.1061,1.0034
					c-0.6705,0.5514-1.4679-0.2794-1.124-0.9897c-0.0941,0.0723-0.1882,0.1447-0.2822,0.217
					c0.2046-0.0494,0.4035-0.1113,0.6094-0.1575C57.6905,43.9379,57.4438,43.159,56.9139,43.2361L56.9139,43.2361z"/>
			</g>
		</g>
		<g>
			<g>
				<path class="st9" d="M61.8313,43.0244c-1.3868,0.7151-0.996,3.0776,0.5327,3.3381c1.6947,0.2888,2.719-2.1874,1.3267-3.1733
					c-0.497-0.3519-0.9542,0.3828-0.6106,0.7914c0.3142,0.3738,0.0396,1.379-0.5509,1.2248
					c-0.4914-0.1283-0.5712-1.0187-0.1684-1.2755C62.9314,43.5663,62.4317,42.7148,61.8313,43.0244L61.8313,43.0244z"/>
			</g>
		</g>
		<circle class="st8" cx="52.377" cy="44.4151" r="1.701"/>
		<g>
			<g>
				<path class="st9" d="M52.03,61.4093c1.1833,0.1438,2.4128,0.2817,3.6042,0.3c0.6203,0.0095,0.7321-0.9001,0.1449-1.0704
					c-1.18-0.3421-2.5335-0.3998-3.749-0.2432C51.3822,60.4791,51.3762,61.3299,52.03,61.4093L52.03,61.4093z"/>
			</g>
		</g>
		<g>
			<g>
				<path class="st9" d="M58.3811,61.3703c0.815,0.1022,1.6575,0.1618,2.4707,0.0317c0.4838-0.0774,0.4841-0.9,0-0.9775
					c-0.8124-0.1299-1.6565-0.0704-2.4707,0.0317C57.7948,60.5298,57.7935,61.2966,58.3811,61.3703L58.3811,61.3703z"/>
			</g>
		</g>
		<g>
			<g>
				<path class="st9" d="M68.5964,61.3586c2.5958-0.1548,5.0646-0.1493,7.6601-0.0381c0.5889,0.0252,0.7239-0.9072,0.1402-1.0359
					c-2.511-0.5533-5.4352-0.4621-7.9155,0.2223C68.0218,60.6336,68.0966,61.3884,68.5964,61.3586L68.5964,61.3586z"/>
			</g>
		</g>
		<g>
			<g>
				<path class="st9" d="M90.6648,61.9298c1.316-0.1275,2.5982-0.0354,3.9049,0.1434c0.5882,0.0805,0.8697-0.7731,0.2539-0.921
					c-1.4148-0.3398-2.8462-0.3129-4.2787-0.1087C90.0462,61.1146,90.1585,61.9788,90.6648,61.9298L90.6648,61.9298z"/>
			</g>
		</g>
		<g>
			<g>
				<path class="st9" d="M101.2849,62.1901c0.8297-0.0825,1.6709-0.1422,2.4788-0.3566c0.5431-0.1441,0.4498-1.0375-0.1355-1.0013
					c-0.8374,0.0518-1.6518,0.2528-2.4679,0.4372C100.6545,61.3836,100.7527,62.243,101.2849,62.1901L101.2849,62.1901z"/>
			</g>
		</g>
		<g>
			<g>
				<path class="st9" d="M109.3674,62.52c1.6996,0.0733,3.3961,0.0765,5.0966,0.0527c0.769-0.0108,0.7703-1.1845,0-1.1953
					c-1.7006-0.0238-3.3972-0.0205-5.0966,0.0527C108.6666,61.4604,108.6653,62.4897,109.3674,62.52L109.3674,62.52z"/>
			</g>
		</g>
		<g>
			<g>
				<path class="st9" d="M52.1804,67.6401c0.1613-0.0407,0.2815,0.0392,0.4221,0.1115c0.4591,0.2363,1.0964-0.2707,0.7616-0.7616
					c-0.3371-0.4942-0.9244-0.6681-1.4843-0.4404C51.2232,66.8166,51.4546,67.8231,52.1804,67.6401L52.1804,67.6401z"/>
			</g>
		</g>
		<g>
			<g>
				<path class="st9" d="M51.6528,69.7885c-0.4392,0.7604,0.5192,1.628,1.1915,1.004c0.3056-0.2837,0.0786-0.8783-0.3522-0.8502
					c-0.1017,0.0109-0.0888,0.083,0.0388,0.2165C52.6449,69.6404,51.9346,69.3005,51.6528,69.7885L51.6528,69.7885z"/>
			</g>
		</g>
		<g>
			<g>
				<path class="st9" d="M51.6882,73.9967c0.1063,0.0936,0.2125,0.1762,0.3265,0.2601c0.3568,0.2627,0.88-0.2604,0.6173-0.6173
					c-0.0839-0.114-0.1666-0.2202-0.2601-0.3265C51.9595,72.8446,51.2196,73.5841,51.6882,73.9967L51.6882,73.9967z"/>
			</g>
		</g>
		<g>
			<g>
				<path class="st9" d="M52.03,78.0838c0.0708-0.0039,0.1416-0.0078,0.2124-0.0117c0.7647-0.0422,0.7661-1.1472,0-1.1895
					c-0.0708-0.0039-0.1416-0.0078-0.2124-0.0117C51.2497,76.8279,51.2484,78.1269,52.03,78.0838L52.03,78.0838z"/>
			</g>
		</g>
		<g>
			<g>
				<path class="st9" d="M52.03,82.1069c0.7654,0,0.7666-1.1895,0-1.1895C51.2647,80.9175,51.2634,82.1069,52.03,82.1069
					L52.03,82.1069z"/>
			</g>
		</g>
		<g>
			<g>
				<path class="st9" d="M51.4851,85.3347c-0.0098,0.1992-0.007,0.369,0.0392,0.5641c0.1184,0.4996,0.8928,0.5,1.0114,0
					c0.0463-0.1951,0.0491-0.3649,0.0392-0.5641C52.5404,84.6339,51.5197,84.6327,51.4851,85.3347L51.4851,85.3347z"/>
			</g>
		</g>
		<g>
			<g>
				<path class="st9" d="M52.03,90.6512c0.8294,0,0.8308-1.2891,0-1.2891C51.2006,89.3621,51.1992,90.6512,52.03,90.6512
					L52.03,90.6512z"/>
			</g>
		</g>
		<g>
			<g>
				<path class="st9" d="M58.6176,67.4618c0.3369-0.1733,0.6779-0.113,1.014,0.0295c0.456,0.1934,1.0291-0.3563,0.5822-0.7546
					c-0.5902-0.5261-1.4265-0.525-2.0694-0.0844C57.6487,66.9921,58.0766,67.7402,58.6176,67.4618L58.6176,67.4618z"/>
			</g>
		</g>
		<g>
			<g>
				<path class="st9" d="M58.3811,71.2326c0.4805,0.0187,0.9393,0.0343,1.4167-0.0338c0.5119-0.073,0.5122-0.9609,0-1.034
					c-0.4774-0.0681-0.9361-0.0525-1.4167-0.0338C57.6726,70.1587,57.6714,71.205,58.3811,71.2326L58.3811,71.2326z"/>
			</g>
		</g>
		<g>
			<g>
				<path class="st9" d="M58.1371,75.1905c0.5076,0.2859,1.0931,0.2768,1.5806-0.0482c0.5518-0.3679,0.0756-1.1746-0.5175-0.8854
					c-0.2315,0.1128-0.4478,0.1137-0.6906,0.0501C57.9864,74.17,57.6516,74.917,58.1371,75.1905L58.1371,75.1905z"/>
			</g>
		</g>
		<g>
			<g>
				<path class="st9" d="M58.6531,79.2168c0.0279,0.0039,0.0558,0.0077,0.0837,0.0116c0.6118,0.3382,1.1198-0.5492,0.5442-0.9309
					c-0.3734-0.2476-0.7945-0.246-1.172-0.0116C57.515,78.6546,58.0346,79.524,58.6531,79.2168L58.6531,79.2168z"/>
			</g>
		</g>
		<g>
			<g>
				<path class="st9" d="M58.244,82.6483c0.4085,0.0587,0.7862,0.0882,1.1989,0.0627c0.7195-0.0445,0.7206-1.0742,0-1.1191
					c-0.4127-0.0257-0.7903,0.0036-1.1989,0.062C57.7516,81.7243,57.7515,82.5775,58.244,82.6483L58.244,82.6483z"/>
			</g>
		</g>
		<g>
			<g>
				<path class="st9" d="M58.2331,86.4224c0.7976,0.1891,1.6365,0.284,2.4373,0.0732c0.6414-0.1689,0.4378-1.016-0.1464-1.0819
					c-0.7081-0.0799-1.4301-0.0431-2.1429-0.0847C57.7547,85.2925,57.6243,86.2781,58.2331,86.4224L58.2331,86.4224z"/>
			</g>
		</g>
		<g>
			<g>
				<path class="st9" d="M58.5166,91.3114c0.5254-0.1467,1.0367-0.1437,1.5749-0.0869c0.6361,0.067,0.7644-0.9678,0.1503-1.1107
					c-0.7413-0.1725-1.4351-0.052-2.118,0.2659C57.5929,90.6268,57.9708,91.4639,58.5166,91.3114L58.5166,91.3114z"/>
			</g>
		</g>
		<g>
			<g>
				<path class="st8" d="M67.9523,68.0167c5.1588-0.1317,10.3428-0.0483,15.494-0.2363c0.666-0.0243,0.6445-0.9568,0-1.0195
					c-5.0728-0.4934-10.445-0.1794-15.494,0.4414C67.448,67.2643,67.4138,68.0305,67.9523,68.0167L67.9523,68.0167z"/>
			</g>
		</g>
		<g>
			<g>
				<path class="st8" d="M67.9523,71.2418c3.3159,0.2861,6.6466,0.588,9.9743,0.6858c0.7313,0.0215,0.713-1.068,0-1.125
					c-3.3136-0.2648-6.6519-0.3281-9.9743-0.4046C67.4024,70.3854,67.4191,71.1958,67.9523,71.2418L67.9523,71.2418z"/>
			</g>
		</g>
		<g>
			<g>
				<path class="st8" d="M67.9523,75.0869c4.5544,0.4187,9.2347,0.6373,13.8017,0.3137c0.7376-0.0522,0.7548-1.1476,0-1.1602
					c-4.5979-0.0766-9.2012,0.0153-13.8017-0.0618C67.359,74.1688,67.3798,75.0343,67.9523,75.0869L67.9523,75.0869z"/>
			</g>
		</g>
		<g>
			<g>
				<path class="st8" d="M67.9523,79.1663c2.5332-0.1035,5.1201-0.0348,7.6416-0.2599c0.7556-0.0675,0.7348-1.0685,0-1.1602
					c-2.4848-0.3099-5.1648-0.0707-7.6416,0.2423C67.2242,78.0805,67.1745,79.198,67.9523,79.1663L67.9523,79.1663z"/>
			</g>
		</g>
		<g>
			<g>
				<path class="st8" d="M67.9523,82.8313c2.9489,0.0918,6.1524-0.0953,9.0554-0.6323c0.6574-0.1216,0.4992-1.172-0.1565-1.1567
					c-2.9705,0.0694-6.0866,0.4049-9.0289,0.828C67.259,81.9512,67.4235,82.8148,67.9523,82.8313L67.9523,82.8313z"/>
			</g>
		</g>
		<g>
			<g>
				<path class="st8" d="M67.8129,86.6998c3.1158,0.7618,6.6995,0.803,9.8424,0.2032c0.6262-0.1195,0.4781-1.1216-0.1495-1.1049
					c-3.2223,0.0859-6.3374,0.0178-9.5535-0.1283C67.3619,85.6429,67.2393,86.5596,67.8129,86.6998L67.8129,86.6998z"/>
			</g>
		</g>
		<g>
			<g>
				<path class="st8" d="M67.9523,90.8069c4.5349,0.0232,9.0778-0.266,13.6021-0.5443c0.6904-0.0425,0.7029-1.1028,0-1.084
					c-4.5332,0.1211-9.085,0.234-13.6021,0.6556C67.34,89.8914,67.3149,90.8037,67.9523,90.8069L67.9523,90.8069z"/>
			</g>
		</g>
		<g>
			<g>
				<path class="st9" d="M90.5425,67.8074c0.8214,0.1532,1.6311,0.3856,2.474,0.3677c0.5712-0.0122,0.6965-0.8422,0.1355-1.0013
					c-0.8127-0.2305-1.6526-0.2108-2.4873-0.2698C90.1529,66.8678,90.031,67.7121,90.5425,67.8074L90.5425,67.8074z"/>
			</g>
		</g>
		<g>
			<g>
				<path class="st9" d="M90.5207,72.3296c0.944,0.2263,1.8886,0.2994,2.8458,0.1186c0.5865-0.1108,0.4537-1.0702-0.141-1.0416
					c-0.8129,0.039-1.6164,0.0419-2.4167-0.1222C90.1309,71.1453,89.8375,72.1659,90.5207,72.3296L90.5207,72.3296z"/>
			</g>
		</g>
		<g>
			<g>
				<path class="st9" d="M90.6648,76.1242c0.433,0.0539,0.8077,0.157,1.1892,0.3749c0.6605,0.3773,1.1983-0.5843,0.5885-1.0068
					c-0.5095-0.353-1.1531-0.5637-1.7777-0.4989C89.9325,75.0693,89.9444,76.0346,90.6648,76.1242L90.6648,76.1242z"/>
			</g>
		</g>
		<g>
			<g>
				<path class="st9" d="M90.5308,79.7614c0.6851,0.1155,1.3743,0.2268,2.0681,0.2685c0.5703,0.0342,0.7071-0.8981,0.1363-1.0071
					c-0.6834-0.1304-1.3773-0.1946-2.0704-0.2513C90.1049,78.7259,89.9691,79.6667,90.5308,79.7614L90.5308,79.7614z"/>
			</g>
		</g>
		<g>
			<g>
				<path class="st9" d="M90.6648,82.9573c0.6146-0.0472,1.2506-0.0938,1.8351-0.2983c0.5635-0.1971,0.4751-1.0205-0.1417-1.0474
					c-0.6186-0.027-1.2409,0.1083-1.8429,0.2407C89.9044,81.9868,90.0273,83.0063,90.6648,82.9573L90.6648,82.9573z"/>
			</g>
		</g>
		<g>
			<g>
				<path class="st9" d="M90.7909,87.2231c1.0212-0.1457,2.042-0.1283,3.0681-0.0589c0.7011,0.0475,0.667-0.9895,0-1.0723
					c-1.1161-0.1385-2.2272-0.0305-3.3204,0.2158C89.9286,86.4453,90.2037,87.3069,90.7909,87.2231L90.7909,87.2231z"/>
			</g>
		</g>
		<g>
			<g>
				<path class="st9" d="M90.8081,91.1343c0.8649-0.1672,1.7443-0.1862,2.6226-0.1567c0.5861,0.0197,0.7367-0.9309,0.141-1.0416
					c-1.0335-0.192-2.0381-0.1193-3.0502,0.1587C89.8452,90.2804,90.1336,91.2647,90.8081,91.1343L90.8081,91.1343z"/>
			</g>
		</g>
		<g>
			<g>
				<path class="st9" d="M101.2849,68.242c0.5628,0.0518,1.1348,0.0438,1.6989,0.0176c0.7084-0.0329,0.7096-1.0686,0-1.1016
					c-0.5638-0.0262-1.1363-0.0342-1.6989,0.0176C100.6,67.2386,100.5986,68.1789,101.2849,68.242L101.2849,68.242z"/>
			</g>
		</g>
		<g>
			<g>
				<path class="st9" d="M101.2849,72.5873c0.4659,0.0335,0.9336,0.1064,1.3957,0.0218c0.4361-0.0799,0.4364-0.8015,0-0.8814
					c-0.4621-0.0847-0.9298-0.0117-1.3957,0.0218C100.7464,71.7881,100.7454,72.5485,101.2849,72.5873L101.2849,72.5873z"/>
			</g>
		</g>
		<g>
			<g>
				<path class="st9" d="M101.1587,76.7619c0.3523,0.1326,0.797,0.2214,1.1728,0.178c0.569-0.0657,0.6951-0.7938,0.1355-1.0013
					c-0.3574-0.1325-0.8057-0.1543-1.1822-0.1089C100.755,75.8935,100.6381,76.5659,101.1587,76.7619L101.1587,76.7619z"/>
			</g>
		</g>
		<g>
			<g>
				<path class="st9" d="M101.1416,80.5455c0.4569,0.0812,0.898,0.0939,1.357,0.0311c0.5455-0.0747,0.5458-1.027,0-1.1018
					c-0.459-0.0629-0.9001-0.0502-1.357,0.0311C100.6271,79.5974,100.6268,80.4539,101.1416,80.5455L101.1416,80.5455z"/>
			</g>
		</g>
		<g>
			<g>
				<path class="st9" d="M101.2849,83.1658c0.5534,0.0706,1.0874,0.0372,1.6353-0.0522c0.5341-0.0871,0.5345-0.992,0-1.0792
					c-0.5477-0.0893-1.0828-0.1227-1.6353-0.0522C100.5258,82.079,100.5241,83.0688,101.2849,83.1658L101.2849,83.1658z"/>
			</g>
		</g>
		<g>
			<g>
				<path class="st9" d="M101.4289,87.9549c0.4446-0.1811,0.8776-0.2011,1.3525-0.181c0.607,0.0258,0.6643-0.83,0.1371-1.0128
					c-0.6562-0.2275-1.2964-0.0938-1.9072,0.2032C100.4672,87.2288,100.8568,88.1879,101.4289,87.9549L101.4289,87.9549z"/>
			</g>
		</g>
		<g>
			<g>
				<path class="st9" d="M101.2849,90.988c0.4962,0.016,0.9901,0.0214,1.4865,0.0176c0.7389-0.0057,0.7402-1.1427,0-1.1484
					c-0.4964-0.0038-0.9903,0.0016-1.4865,0.0176C100.5688,89.8977,100.5676,90.9649,101.2849,90.988L101.2849,90.988z"/>
			</g>
		</g>
		<g>
			<g>
				<path class="st9" d="M109.2327,68.1862c1.137,0.1587,2.2531,0.2528,3.3761,0.5149c0.7289,0.1702,1.0369-0.9269,0.31-1.1244
					c-1.1189-0.304-2.3915-0.5217-3.5513-0.3861C108.8596,67.25,108.6135,68.0998,109.2327,68.1862L109.2327,68.1862z"/>
			</g>
		</g>
		<g>
			<g>
				<path class="st9" d="M109.3674,72.4101c0.43,0.0439,0.8418,0.0752,1.2742,0.0586c0.6595-0.0253,0.6606-1.0001,0-1.0254
					c-0.4324-0.0166-0.8442,0.0147-1.2742,0.0586C108.7844,71.5615,108.7832,72.3504,109.3674,72.4101L109.3674,72.4101z"/>
			</g>
		</g>
		<g>
			<g>
				<path class="st9" d="M109.5092,77.7246c0.6296-0.1145,1.215-0.0351,1.8192,0.1581c0.6222,0.199,1.0307-0.7529,0.447-1.0602
					c-0.8614-0.4535-1.7915-0.4472-2.6771-0.0725C108.5064,77.0005,108.9587,77.8247,109.5092,77.7246L109.5092,77.7246z"/>
			</g>
		</g>
		<g>
			<g>
				<path class="st9" d="M109.5006,80.9258c0.6038-0.1121,1.1714-0.1155,1.7796-0.161c0.5804-0.0433,0.7074-0.8288,0.1379-1.0186
					c-0.7335-0.2445-1.6273-0.0822-2.3035,0.2639C108.5797,80.2839,108.9731,81.0237,109.5006,80.9258L109.5006,80.9258z"/>
			</g>
		</g>
		<g>
			<g>
				<path class="st9" d="M109.517,84.9787c0.3978-0.1328,0.7275-0.1743,1.1465-0.1305c0.6564,0.0686,0.7158-0.9091,0.1488-1.0992
					c-0.5814-0.1949-1.2067-0.1249-1.7287,0.2016C108.5628,84.2763,108.8898,85.188,109.517,84.9787L109.517,84.9787z"/>
			</g>
		</g>
		<g>
			<g>
				<path class="st9" d="M109.3674,88.3986c0.496,0.0573,0.9877,0.072,1.4865,0.0557c0.7349-0.0241,0.7362-1.1184,0-1.1426
					c-0.4988-0.0164-0.9905-0.0016-1.4865,0.0557C108.7057,87.4438,108.7043,88.3221,109.3674,88.3986L109.3674,88.3986z"/>
			</g>
		</g>
		<g>
			<g>
				<path class="st9" d="M109.3674,91.7847c0.4956,0.0092,0.9909,0.0213,1.4865,0.0176c0.6711-0.0051,0.6722-1.0379,0-1.043
					c-0.4957-0.0038-0.991,0.0083-1.4865,0.0176C108.7191,90.789,108.718,91.7726,109.3674,91.7847L109.3674,91.7847z"/>
			</g>
		</g>
	</g>
	<g>
		<g>
			<path class="st9" d="M8.1171,60.5502c0.1938-1.4246-1.6569-1.9932-1.3877-3.3741c0.1555-0.7979,1.8101-2.3037,2.8078-2.1113
				c1.1682,0.2253,1.2667,2.1814,1.6206,3.0369c0.1682,0.4067,0.5607,0.616,0.9791,0.3983
				c1.9962-1.0387,3.5846-0.0947,5.5299,0.4038c0.2664,0.0683,0.6368-0.0399,0.7619-0.3101
				c0.5137-1.1095,0.8718-3.4318,1.7893-4.1664c-0.275,0.0355-0.55,0.071-0.825,0.1065c1.0168,0.5036,2.0852,0.957,3.0375,1.5781
				c2.1658,1.4127,0.4822,2.3276-0.0372,3.8998c-0.5917,1.7907,1.1818,3.1484,1.2613,4.9479
				c0.0324,0.7328,0.8921,0.8897,1.2964,0.3511c-0.2481,0.3305,0.6027,0.0597,0.8715,0.0973
				c0.9535,0.1331,1.389,0.0669,1.5724,1.1265c0.1873,1.0819-0.4296,2.6408-0.5652,3.7694
				c0.4368-0.1183,0.8735-0.2366,1.3103-0.3549c-0.7964-1.2253-3.6331-0.6339-4.8492-0.6194
				c-0.3146,0.0038-0.594,0.2175-0.6815,0.5189c-0.3429,1.1805-0.3486,2.3856-1.2867,3.3352
				c-0.3395,0.3436-0.2314,0.859,0.1437,1.1154c0.5853,0.4,1.6563,1.3208,1.9136,1.984c0.0642,0.1656,0.4503-0.626-0.1491,0.0886
				c-0.2131,0.254-0.7574,0.5313-1.0258,0.7123c-0.7519,0.5071-1.5958,1.1889-2.4539,1.5075
				c-0.5357,0.1989-0.5238,0.3087-0.7454,0.1055c-0.3163-0.2901-0.5583-2.2948-0.6549-2.7983c-0.1314-0.685-1.2826-0.7017-1.4009,0
				c-0.0181,0.1073-3.5465-0.3402-4.2613-0.6459c-0.3475-0.1486-0.8353-0.1316-1.0265,0.2691
				c-0.3764,0.7888-1.2276,1.8629-1.3609,2.7207c-0.0793,0.2209-0.1587,0.4419-0.238,0.6628
				c0.4683,0.1739,0.5268,0.1898,0.1756,0.0476c-0.2633-0.0066-0.8149-0.3907-1.0179-0.4963
				c-1.1998-0.6243-2.347-1.3456-3.5119-2.0311c0.0936,0.3571,0.1873,0.7143,0.2809,1.0714
				c0.8625-1.1971,1.5974-2.4821,2.6727-3.5082c0.3056-0.2916,0.2976-0.8187,0-1.1118c-1.0946-1.0782-1.0456-3.5856-2.6178-4.0851
				c-1.1765-0.3737-2.7054,0.5039-3.8714,0.0365c0.1922,0.2524,0.3843,0.5048,0.5765,0.7572
				c0.1272-1.6222,0.2029-3.2471,0.3001-4.8712c-0.4403,0.1824-0.8807,0.3648-1.321,0.5472
				c0.9003,0.9738,3.6579,0.137,4.7661,0.0373c0.4122-0.0371,0.7627-0.3199,0.7638-0.7638
				c0.0036-1.3775,0.8501-2.6571,0.7931-4.1112c-0.0145-0.3695-0.5425-0.5596-0.7316-0.1981
				c-0.6517,1.2461-1.5787,2.8625-1.5892,4.3094c0.2546-0.2546,0.5092-0.5092,0.7638-0.7638
				c-0.5652,0.0482-3.4473,0.641-3.6717,0.396c-0.4822-0.5265-1.2804-0.0833-1.321,0.5472
				c-0.1048,1.6241-0.1881,3.2492-0.323,4.8712c-0.0309,0.3713,0.2717,0.6334,0.5765,0.7572
				c0.9803,0.3983,2.1741-0.1207,3.1808,0.0297c1.0659,0.1593,0.6566,0.259,1.1355,1.424c0.3603,0.8763,0.81,1.5343,1.4786,2.1922
				c0-0.3706,0-0.7412,0-1.1118c-1.171,1.1186-1.9813,2.5174-2.9133,3.8295c-0.2447,0.3445-0.0599,0.8736,0.2809,1.0714
				c1.5193,0.882,3.2673,2.2951,4.9904,2.6919c0.4863,0.112,0.8634,0.2586,1.2788-0.1186c0.3121-0.2834,0.2101-0.6648,0.3475-1.0401
				c0.3881-1.0594,0.9473-2.0142,1.4225-3.032c-0.2824,0.1149-0.5648,0.2299-0.8473,0.3448
				c1.1384,0.4756,5.919,1.6708,6.2403-0.3392c-0.467,0-0.9339,0-1.4009,0c0.2495,1.2436,0.4441,4.0614,2.1668,4.051
				c1.3985-0.0084,3.1087-1.5302,4.1865-2.2753c0.7882-0.5449,1.8047-0.9561,1.5451-2.0429
				c-0.2604-1.0902-1.7917-2.3502-2.6653-2.945c0.0479,0.3718,0.0958,0.7436,0.1437,1.1154
				c1.1447-1.1626,1.2072-2.4453,1.6455-3.9638c-0.2272,0.173-0.4544,0.3459-0.6815,0.5189
				c0.5996-0.0082,1.1988-0.0386,1.7986-0.0407c0.3323-0.0012,0.668,0.0179,0.9999,0.0075
				c0.3285-0.0103,1.0418,0.2636,0.8364-0.0511c0.4053,0.6213,1.2301,0.3225,1.3103-0.3549
				c0.1925-1.6255,1.5209-4.7833-0.3356-5.8583c-0.9842-0.5699-3.3937-0.8492-4.1509,0.1629
				c0.4321,0.117,0.8643,0.2341,1.2964,0.3511c-0.0679-1.4796-0.9625-2.3022-1.2388-3.6121
				c-0.346-1.6401,1.5349-2.2723,1.4832-3.8128c-0.0738-2.1996-3.6362-3.4021-5.21-4.1765
				c-0.3002-0.1477-0.5726-0.0968-0.825,0.1065c-1.0505,0.8456-1.4517,3.2741-1.9916,4.4482
				c0.254-0.1034,0.508-0.2067,0.7619-0.3101c-2.4309-0.6163-4.1906-1.4951-6.5614-0.2536
				c0.3264,0.1328,0.6527,0.2655,0.9791,0.3983c-0.4668-1.1204-0.4293-2.9759-1.5303-3.7333
				c-0.9749-0.6707-2.1814-0.1267-3.1172,0.3489c-1.076,0.5468-2.5089,1.3596-2.6317,2.7031
				c-0.143,1.5634,2.0462,2.1631,2.021,3.3579C7.1738,60.9438,8.0436,61.09,8.1171,60.5502z"/>
		</g>
	</g>
	<g>
		<g>
			<path class="st9" d="M13.9994,62.7692c-2.1686,0.3598-3.5486,1.9736-3.1487,4.2534c0.4044,2.3053,2.5532,3.8097,4.8478,3.6587
				c2.5898-0.1704,4.3155-2.5179,3.9124-5.0455c-0.4222-2.6474-3.2779-3.7185-5.6754-3.0983
				c-0.7057,0.1826-0.5659,1.2925,0.1729,1.2775c1.5882-0.0321,3.6566-0.118,4.1075,1.8465
				c0.4479,1.952-1.0194,3.7155-3.0058,3.6141c-3.1185-0.1592-4.4826-4.9059-0.9926-5.7154
				C14.7399,63.439,14.5103,62.6844,13.9994,62.7692z"/>
		</g>
	</g>
	<g>
		<g>
			<path class="st9" d="M143.0408,54.8984c-1.8451-0.0478-3.6901-0.0956-5.5352-0.1434c-0.9656-0.025-0.9651,1.475,0,1.5
				c1.8451,0.0478,3.6901,0.0956,5.5352,0.1434C144.0064,56.4234,144.0059,54.9234,143.0408,54.8984L143.0408,54.8984z"/>
		</g>
	</g>
	<g>
		<g>
			<path class="st9" d="M160.8219,55.5676c-4.1687-0.539-8.2515-1.1115-12.4452-0.499c-0.9516,0.139-0.547,1.5845,0.3988,1.4464
				c4.0365-0.5895,8.0392,0.0345,12.0465,0.5526C161.7765,57.191,161.7675,55.6898,160.8219,55.5676L160.8219,55.5676z"/>
		</g>
	</g>
	<g>
		<g>
			<path class="st9" d="M137.5778,56.8718c-0.0487,7.91-0.0496,15.8201-0.0496,23.7302c0,0.3474,0.236,0.6142,0.5506,0.7232
				c4.9086,1.7004,10.032,2.1889,15.2003,2.254c5.6636,0.0714,11.3436,0.7469,17.0046,0.5084c0.436-0.0184,0.7079-0.3309,0.75-0.75
				c0.7083-7.0538,0.9603-14.1606,0.9915-21.2481c0.0088-2.0101,0.3102-4.3136-1.476-5.6981
				c-1.4131-1.0953-3.181-0.9819-4.7144-0.2435c-0.8695,0.4187-0.1096,1.7125,0.7571,1.2952
				c1.2449-0.5994,2.8247-0.5383,3.6077,0.7824c0.6035,1.018,0.3306,2.7258,0.3256,3.864
				c-0.0097,2.1868-0.0665,4.3716-0.1249,6.5575c-0.1312,4.9077-0.376,9.8046-0.8665,14.6906c0.25-0.25,0.5-0.5,0.75-0.75
				c-5.3723,0.2263-10.7345-0.4624-16.1068-0.5011c-5.3385-0.0384-10.6216-0.4486-15.6995-2.2077
				c0.1835,0.2411,0.3671,0.4821,0.5506,0.7232c0-7.9101,0.0009-15.8202,0.0496-23.7302
				C139.0837,55.9064,137.5837,55.9053,137.5778,56.8718L137.5778,56.8718z"/>
		</g>
	</g>
	<g>
		<g>
			<path class="st9" d="M144.0376,52.9014c-0.1082,1.1642-0.1619,2.3264-0.1301,3.4958c0.0212,0.7803-0.0696,1.7781,0.2349,2.5157
				c0.5393,1.3062,2.6906,1.2747,3.8494,1.5144c0.3436,0.0711,0.7669-0.1606,0.7377-0.5619
				c-0.0996-1.3676-0.2276-2.733-0.3479-4.0989c-0.0837-0.9511-0.0045-2.0843-0.3155-2.986
				c-0.5378-1.5593-2.7767-1.0495-4.0316-0.8707c-0.6633,0.0945-0.4594,1.0933,0.1519,1.1222
				c0.5919,0.0279,1.629-0.254,2.1685-0.0621c0.9016,0.3206,0.6908,1.446,0.7618,2.2111c0.1448,1.5618,0.2791,3.1249,0.4473,4.6844
				c0.2459-0.1873,0.4918-0.3746,0.7376-0.5619c-0.6457-0.1217-1.3571-0.1835-1.9837-0.3797
				c-1.0555-0.3305-1.1946-0.5639-1.2836-1.6538c-0.1187-1.453-0.1575-2.9113-0.1706-4.3686
				C144.8589,52.3611,144.086,52.3802,144.0376,52.9014L144.0376,52.9014z"/>
		</g>
	</g>
	<g>
		<g>
			<path class="st9" d="M161.2538,53.2463c-0.2346,1.7049-0.5444,4.4037,0.3441,5.9739c0.8178,1.4453,2.5775,0.9991,3.8965,1.5368
				c0.4258,0.1736,0.8532-0.2593,0.8616-0.6563c0.0465-2.189,0.2172-4.703-0.2662-6.8514
				c-0.3461-1.5381-2.0178-1.3646-3.3204-1.2466c-0.831,0.0752-0.8631,1.3133,0,1.3184c0.8008,0.0047,1.6103-0.2499,2.0323,0.6638
				c0.2217,0.48,0.109,1.4107,0.1369,1.9431c0.073,1.3905,0.0849,2.7809,0.0561,4.1728c0.2872-0.2188,0.5744-0.4376,0.8616-0.6563
				c-1.081-0.44-2.7302-0.0122-3.2367-1.3412c-0.5101-1.3385-0.2191-3.2945-0.2552-4.7065
				C162.3489,52.7903,161.344,52.5905,161.2538,53.2463L161.2538,53.2463z"/>
		</g>
	</g>
	<g>
		<g>
			<path class="st8" d="M148.9093,66.3191c1.5357,0.0521,3.0152,0.057,4.5389,0.3299c-0.0927-0.3512-0.1854-0.7024-0.2782-1.0536
				c-0.7068,0.8795-3.9154,3.5617-2.1911,4.7284c0.6422,0.4345,1.3896,0.3051,1.9651,0.9498
				c0.6182,0.6925,1.0334,1.8645,0.5211,2.6532c-0.9077,1.3974-4.2876-0.4758-5.4808-0.9938
				c-0.7505-0.3258-1.322,0.6168-0.6447,1.103c1.6584,1.1904,7.4419,3.4236,7.7331-0.1916
				c0.1024-1.2711-0.5029-2.9073-1.4529-3.7681c-0.2758-0.2499-1.817-0.711-1.8623-0.8091
				c-0.0398-0.0861,2.1007-2.5222,2.3041-2.7802c0.2576-0.3267,0.2433-0.9686-0.2782-1.0536
				c-1.6701-0.2722-3.3349-0.4077-5.0072-0.0983C148.2024,65.4412,148.3652,66.3007,148.9093,66.3191L148.9093,66.3191z"/>
		</g>
	</g>
	<g>
		<g>
			<path class="st8" d="M158.3251,66.6249c0.7546,0.0386,1.5072,0.0606,2.2627,0.0778c-0.214-0.214-0.428-0.428-0.642-0.642
				c-0.0548,3.1868-0.3205,6.4562-0.0941,9.6355c0.0537,0.7536,1.0837,0.7378,1.1602,0c0.3286-3.1715,0.1694-6.4471,0.2179-9.6355
				c0.0053-0.3487-0.2984-0.6396-0.642-0.642c-0.7552-0.0051-1.5076-0.0055-2.2627,0.0108
				C157.5526,65.4463,157.559,66.5857,158.3251,66.6249L158.3251,66.6249z"/>
		</g>
	</g>
	<g>
		<g>
			<path class="st13" d="M15.038,50.3503c-0.0754-0.3264-0.1353-0.6543-0.1803-0.9832"/>
			<path class="st18" d="M15.1951,44.6127c1.9982-7.3469,10.4926-13.4495,19.3007-10.272"/>
			<path class="st13" d="M36.697,35.3312c0.2897,0.157,0.5792,0.3247,0.8683,0.5034"/>
			<g>
				<polygon class="st8" points="33.66,36.2917 37.1901,35.5995 36.4962,32.07 38.2885,33.2741 38.9813,36.8029 35.4523,37.4958 
									"/>
			</g>
		</g>
	</g>
	<g>
		<g>
			<path class="st13" d="M151.659,87.9855c0.0239,0.3328,0.033,0.6658,0.0277,0.9988"/>
			<path class="st19" d="M150.6937,93.6489c-2.8896,7.0088-11.6328,12.2285-20.3232,7.9817"/>
			<path class="st13" d="M128.2799,100.4194c-0.2734-0.1838-0.5463-0.3779-0.8185-0.5825"/>
			<g>
				<polygon class="st8" points="149.5455,91.3017 151.7069,88.426 154.5813,90.589 154.2788,88.4511 151.4046,86.2895 
					149.243,89.1637 				"/>
			</g>
		</g>
	</g>
</g>
</svg>
