<?xml version="1.0" encoding="utf-8"?>
<!-- Generator: Adobe Illustrator 20.1.0, SVG Export Plug-In . SVG Version: 6.00 Build 0)  -->
<svg version="1.1" xmlns="http://www.w3.org/2000/svg" xmlns:xlink="http://www.w3.org/1999/xlink" x="0px" y="0px"
	 viewBox="0 0 210 119" style="enable-background:new 0 0 210 119;" xml:space="preserve">
<style type="text/css">
	.st0{fill:none;stroke:#F7FAFC;stroke-width:39.9968;stroke-linecap:round;stroke-linejoin:round;}
	.st1{fill:none;stroke:#F2F6F9;stroke-width:39.9968;stroke-linecap:round;stroke-linejoin:round;}
	.st2{fill:#F7FAFC;}
	.st3{fill:#F2F6F9;}
	.st4{fill:#FFFFFF;}
	.st5{fill:#FCE0DE;}
	.st6{fill:#E6E6E6;}
	.st7{fill:#FFEFAF;}
	.st8{fill:#E93A1D;}
	.st9{fill:#303030;}
	.st10{fill:#E83D25;}
	.st11{fill:#B3B3B3;}
	.st12{fill:#666666;}
	.st13{fill:none;stroke:#E93A1D;stroke-width:1.5;stroke-linecap:round;stroke-linejoin:round;}
	.st14{fill:none;stroke:#E93A1D;stroke-width:1.5;stroke-linecap:round;stroke-linejoin:round;stroke-dasharray:2.0259,5.0648;}
	.st15{fill:none;stroke:#E93A1D;stroke-width:1.5;stroke-linecap:round;stroke-linejoin:round;stroke-dasharray:1.8929,4.7321;}
	.st16{fill:#777777;}
	.st17{fill:#172DF8;}
	.st18{fill:none;stroke:#E93A1D;stroke-width:1.5;stroke-linecap:round;stroke-linejoin:round;stroke-dasharray:1.9198,4.7994;}
	.st19{fill:none;stroke:#E93A1D;stroke-width:1.5;stroke-linecap:round;stroke-linejoin:round;stroke-dasharray:1.9197,4.7993;}
</style>
<g id="back">
</g>
<g id="Layer_2">
	<g>
		<g>
			<g>
				<path class="st9" d="M103.5333,37.7127c0.2314-3.9561,0.2668-7.8886,0.1741-11.8482c-0.095-4.0584,0.554-8.3261,0.1121-12.3393
					c-0.6745-6.1267-8.5449-5.4894-13.1407-5.382c-2.9732,0.0694-5.9345,0.3329-8.9046,0.4567
					c-4.7161,0.1965-9.4803-0.0639-14.1996-0.1284C56.0642,8.3142,44.5542,8.1314,33.0437,7.9765
					c-5.9355-0.0798-11.8712-0.1478-17.8071-0.186c-2.803-0.018-5.606-0.0295-8.409-0.0325
					C5.0306,7.7561,4.1436,8.0723,3.0834,9.6005c-1.569,2.2614-1.5105,4.8547-1.5211,7.4746
					c-0.01,2.4728-0.0288,4.9455-0.0485,7.4183C1.4028,38.4152,1.2606,52.3369,1.252,66.2594
					c-0.0084,13.5914-0.3336,27.36,0.8903,40.9127c0.0372,0.4117,0.3137,0.7395,0.75,0.75
					c17.8329,0.431,35.673,0.7379,53.5111,0.8114c6.2038,0.0256,12.4087,0.0222,18.6116-0.0961c0.964-0.0184,0.9672-1.5184,0-1.5
					c-21.8925,0.4175-43.8177-0.1033-65.706-0.5713c-2.139-0.0457-4.2779-0.0923-6.4167-0.144c0.25,0.25,0.5,0.5,0.75,0.75
					c-0.969-10.7302-0.8342-21.6016-0.8771-32.3643C2.7105,61.1215,2.8181,47.435,2.9353,33.7493
					c0.045-5.2575,0.097-10.5151,0.1228-15.7727c0.0125-2.5571-0.481-6.4696,1.8157-8.2133
					c1.1173-0.8483,3.1123-0.5041,4.427-0.5005C10.62,9.2664,11.939,9.272,13.2581,9.2789c2.803,0.0148,5.606,0.0368,8.409,0.0639
					c10.881,0.105,21.7611,0.2871,32.6414,0.442c9.3687,0.1334,18.8973,0.7758,28.2543,0.2747
					c3.2845-0.1759,6.5638-0.4384,9.8554-0.4386c2.4234-0.0001,7.2051-0.3698,9.0378,1.6529
					c1.7165,1.8944,0.8062,5.9813,0.7451,8.3472c-0.0491,1.9042-0.0466,3.8083-0.006,5.7126
					c0.0883,4.1383,0.0801,8.2437-0.1618,12.3791C101.9769,38.677,103.4771,38.6737,103.5333,37.7127L103.5333,37.7127z"/>
			</g>
		</g>
		<g>
			<g>
				<path class="st9" d="M7.801,19.1542c29.1344,1.2983,58.484,1.3464,87.6283,0.3272c0.9625-0.0337,0.9671-1.5338,0-1.5
					C66.285,19.0006,36.9353,18.9525,7.801,17.6542C6.8358,17.6112,6.8379,19.1113,7.801,19.1542L7.801,19.1542z"/>
			</g>
		</g>
		<g>
			<g>
				<path class="st9" d="M14.4815,12.1453c-0.2537,0.0369-0.579-0.003-0.7937,0.1562c-0.1637,0.1214-0.2696,0.3713-0.3235,0.5631
					c-0.115,0.4091-0.0556,0.8607,0.1183,1.2431c0.3962,0.8714,1.3917,1.2613,2.2676,0.8561
					c0.8548-0.3955,1.3489-1.3999,0.95-2.2901c-0.39-0.8703-1.4362-1.3384-2.3115-0.9315c-0.4095,0.1904-0.2232,0.9395,0.2381,0.879
					c0.3623-0.0475,0.7261-0.0114,0.9851,0.276c0.2868,0.3183,0.2157,0.7387-0.1061,1.0034
					c-0.6705,0.5514-1.4679-0.2794-1.124-0.9897c-0.0941,0.0723-0.1882,0.1447-0.2822,0.217
					c0.2046-0.0494,0.4035-0.1113,0.6094-0.1575C15.258,12.8471,15.0113,12.0682,14.4815,12.1453L14.4815,12.1453z"/>
			</g>
		</g>
		<g>
			<g>
				<path class="st9" d="M19.3988,11.9336c-1.3868,0.7151-0.996,3.0776,0.5327,3.3381c1.6947,0.2888,2.719-2.1874,1.3267-3.1733
					c-0.497-0.3519-0.9542,0.3828-0.6106,0.7914c0.3142,0.3738,0.0396,1.379-0.5509,1.2248
					c-0.4914-0.1283-0.5712-1.0187-0.1684-1.2755C20.4989,12.4755,19.9992,11.624,19.3988,11.9336L19.3988,11.9336z"/>
			</g>
		</g>
		<circle class="st8" cx="9.9445" cy="13.3243" r="1.701"/>
		<g>
			<g>
				<path class="st9" d="M9.5976,30.3185c1.1833,0.1438,2.4128,0.2817,3.6042,0.3c0.6203,0.0095,0.7321-0.9001,0.1449-1.0704
					c-1.18-0.3421-2.5335-0.3998-3.749-0.2432C8.9497,29.3883,8.9437,30.2391,9.5976,30.3185L9.5976,30.3185z"/>
			</g>
		</g>
		<g>
			<g>
				<path class="st9" d="M15.9486,30.2795c0.815,0.1022,1.6575,0.1618,2.4707,0.0317c0.4838-0.0774,0.4841-0.9,0-0.9775
					c-0.8124-0.1299-1.6565-0.0704-2.4707,0.0317C15.3623,29.439,15.361,30.2058,15.9486,30.2795L15.9486,30.2795z"/>
			</g>
		</g>
		<g>
			<g>
				<path class="st9" d="M26.1639,30.2678c2.5958-0.1548,5.0646-0.1493,7.6601-0.0381c0.5889,0.0252,0.7239-0.9072,0.1402-1.0359
					c-2.511-0.5533-5.4352-0.4621-7.9155,0.2223C25.5893,29.5428,25.6641,30.2976,26.1639,30.2678L26.1639,30.2678z"/>
			</g>
		</g>
		<g>
			<g>
				<path class="st9" d="M48.2323,30.839c1.316-0.1275,2.5982-0.0354,3.9049,0.1434c0.5882,0.0805,0.8697-0.7731,0.2539-0.921
					c-1.4148-0.3398-2.8462-0.3129-4.2787-0.1087C47.6138,30.0238,47.726,30.888,48.2323,30.839L48.2323,30.839z"/>
			</g>
		</g>
		<g>
			<g>
				<path class="st9" d="M58.8524,31.0993c0.8297-0.0825,1.6709-0.1422,2.4788-0.3566c0.5431-0.1441,0.4498-1.0375-0.1355-1.0013
					c-0.8374,0.0518-1.6518,0.2528-2.4679,0.4372C58.2221,30.2928,58.3203,31.1522,58.8524,31.0993L58.8524,31.0993z"/>
			</g>
		</g>
		<g>
			<g>
				<path class="st9" d="M66.9349,31.4292c1.6995,0.0733,3.3961,0.0765,5.0966,0.0527c0.769-0.0108,0.7703-1.1845,0-1.1953
					c-1.7006-0.0238-3.3972-0.0205-5.0966,0.0527C66.2341,30.3696,66.2329,31.3989,66.9349,31.4292L66.9349,31.4292z"/>
			</g>
		</g>
		<g>
			<g>
				<path class="st9" d="M9.7479,36.5493c0.1613-0.0407,0.2815,0.0392,0.4221,0.1115c0.4591,0.2363,1.0964-0.2707,0.7616-0.7616
					c-0.3371-0.4942-0.9244-0.6681-1.4843-0.4404C8.7907,35.7258,9.0221,36.7323,9.7479,36.5493L9.7479,36.5493z"/>
			</g>
		</g>
		<g>
			<g>
				<path class="st9" d="M9.2203,38.6977c-0.4392,0.7604,0.5192,1.628,1.1915,1.004c0.3056-0.2837,0.0786-0.8783-0.3522-0.8502
					c-0.1017,0.0109-0.0888,0.083,0.0388,0.2165C10.2124,38.5496,9.5021,38.2097,9.2203,38.6977L9.2203,38.6977z"/>
			</g>
		</g>
		<g>
			<g>
				<path class="st9" d="M9.2557,42.9059c0.1063,0.0936,0.2125,0.1762,0.3265,0.2601c0.3568,0.2627,0.88-0.2604,0.6173-0.6173
					c-0.0839-0.114-0.1666-0.2202-0.2601-0.3265C9.527,41.7538,8.7871,42.4933,9.2557,42.9059L9.2557,42.9059z"/>
			</g>
		</g>
		<g>
			<g>
				<path class="st9" d="M9.5976,46.993c0.0708-0.0039,0.1416-0.0078,0.2124-0.0117c0.7647-0.0422,0.7661-1.1472,0-1.1895
					c-0.0708-0.0039-0.1416-0.0078-0.2124-0.0117C8.8172,45.7371,8.8159,47.0361,9.5976,46.993L9.5976,46.993z"/>
			</g>
		</g>
		<g>
			<g>
				<path class="st9" d="M9.5976,51.0161c0.7654,0,0.7666-1.1895,0-1.1895C8.8322,49.8267,8.8309,51.0161,9.5976,51.0161
					L9.5976,51.0161z"/>
			</g>
		</g>
		<g>
			<g>
				<path class="st9" d="M9.0526,54.2439c-0.0098,0.1992-0.007,0.369,0.0392,0.5641c0.1184,0.4996,0.8928,0.5,1.0114,0
					c0.0463-0.1951,0.0491-0.3649,0.0392-0.5641C10.108,53.5431,9.0872,53.5419,9.0526,54.2439L9.0526,54.2439z"/>
			</g>
		</g>
		<g>
			<g>
				<path class="st9" d="M9.5976,59.5603c0.8294,0,0.8308-1.2891,0-1.2891C8.7681,58.2713,8.7667,59.5603,9.5976,59.5603
					L9.5976,59.5603z"/>
			</g>
		</g>
		<g>
			<g>
				<path class="st9" d="M16.1852,36.371c0.3369-0.1733,0.6779-0.113,1.014,0.0295c0.456,0.1934,1.0291-0.3563,0.5822-0.7546
					c-0.5902-0.5261-1.4265-0.525-2.0694-0.0844C15.2162,35.9013,15.6441,36.6494,16.1852,36.371L16.1852,36.371z"/>
			</g>
		</g>
		<g>
			<g>
				<path class="st9" d="M15.9486,40.1418c0.4805,0.0187,0.9393,0.0343,1.4167-0.0338c0.5119-0.073,0.5122-0.9609,0-1.034
					c-0.4774-0.0681-0.9361-0.0525-1.4167-0.0338C15.2401,39.0679,15.2389,40.1142,15.9486,40.1418L15.9486,40.1418z"/>
			</g>
		</g>
		<g>
			<g>
				<path class="st9" d="M15.7046,44.0997c0.5076,0.2859,1.0931,0.2768,1.5806-0.0482c0.5518-0.3679,0.0756-1.1746-0.5175-0.8854
					c-0.2315,0.1128-0.4478,0.1137-0.6906,0.0501C15.5539,43.0792,15.2191,43.8262,15.7046,44.0997L15.7046,44.0997z"/>
			</g>
		</g>
		<g>
			<g>
				<path class="st9" d="M16.2206,48.126c0.0279,0.0039,0.0558,0.0077,0.0837,0.0116c0.6118,0.3382,1.1198-0.5492,0.5441-0.9309
					c-0.3734-0.2476-0.7945-0.246-1.172-0.0116C15.0825,47.5638,15.6021,48.4332,16.2206,48.126L16.2206,48.126z"/>
			</g>
		</g>
		<g>
			<g>
				<path class="st9" d="M15.8115,51.5574c0.4085,0.0587,0.7862,0.0882,1.1989,0.0627c0.7195-0.0445,0.7206-1.0742,0-1.1191
					c-0.4127-0.0257-0.7903,0.0036-1.1989,0.062C15.3191,50.6335,15.319,51.4867,15.8115,51.5574L15.8115,51.5574z"/>
			</g>
		</g>
		<g>
			<g>
				<path class="st9" d="M15.8006,55.3316c0.7976,0.1891,1.6365,0.284,2.4373,0.0732c0.6414-0.1688,0.4378-1.016-0.1464-1.0819
					c-0.7081-0.0799-1.4301-0.0431-2.1429-0.0847C15.3222,54.2017,15.1919,55.1873,15.8006,55.3316L15.8006,55.3316z"/>
			</g>
		</g>
		<g>
			<g>
				<path class="st9" d="M16.0841,60.2206c0.5254-0.1467,1.0367-0.1437,1.5749-0.0869c0.6361,0.067,0.7644-0.9678,0.1503-1.1107
					c-0.7414-0.1725-1.4351-0.052-2.118,0.2659C15.1604,59.536,15.5383,60.3731,16.0841,60.2206L16.0841,60.2206z"/>
			</g>
		</g>
		<g>
			<g>
				<path class="st8" d="M25.5198,36.9259c5.1588-0.1317,10.3428-0.0483,15.494-0.2363c0.666-0.0243,0.6446-0.9568,0-1.0195
					c-5.0728-0.4934-10.445-0.1794-15.494,0.4414C25.0155,36.1735,24.9813,36.9397,25.5198,36.9259L25.5198,36.9259z"/>
			</g>
		</g>
		<g>
			<g>
				<path class="st8" d="M25.5198,40.151c3.3159,0.2861,6.6466,0.588,9.9743,0.6858c0.7313,0.0215,0.713-1.068,0-1.125
					c-3.3136-0.2648-6.6519-0.3281-9.9743-0.4046C24.9699,39.2946,24.9866,40.105,25.5198,40.151L25.5198,40.151z"/>
			</g>
		</g>
		<g>
			<g>
				<path class="st8" d="M25.5198,43.9961c4.5544,0.4187,9.2347,0.6373,13.8017,0.3137c0.7376-0.0522,0.7548-1.1476,0-1.1602
					c-4.5979-0.0766-9.2012,0.0153-13.8017-0.0618C24.9265,43.078,24.9473,43.9435,25.5198,43.9961L25.5198,43.9961z"/>
			</g>
		</g>
		<g>
			<g>
				<path class="st8" d="M25.5198,48.0754c2.5332-0.1035,5.1201-0.0348,7.6416-0.2599c0.7556-0.0675,0.7348-1.0685,0-1.1602
					c-2.4848-0.3099-5.1648-0.0707-7.6416,0.2423C24.7917,46.9897,24.742,48.1072,25.5198,48.0754L25.5198,48.0754z"/>
			</g>
		</g>
		<g>
			<g>
				<path class="st8" d="M25.5198,51.7405c2.9489,0.0918,6.1524-0.0953,9.0554-0.6323c0.6574-0.1216,0.4992-1.172-0.1565-1.1567
					c-2.9705,0.0694-6.0866,0.4049-9.0289,0.828C24.8265,50.8604,24.991,51.724,25.5198,51.7405L25.5198,51.7405z"/>
			</g>
		</g>
		<g>
			<g>
				<path class="st8" d="M25.3804,55.609c3.1158,0.7618,6.6995,0.803,9.8424,0.2032c0.6262-0.1195,0.4781-1.1216-0.1495-1.1049
					c-3.2223,0.0859-6.3374,0.0178-9.5535-0.1283C24.9294,54.5521,24.8068,55.4688,25.3804,55.609L25.3804,55.609z"/>
			</g>
		</g>
		<g>
			<g>
				<path class="st8" d="M25.5198,59.7161c4.5349,0.0232,9.0777-0.266,13.6021-0.5443c0.6904-0.0425,0.7029-1.1028,0-1.084
					c-4.5332,0.1211-9.085,0.234-13.6021,0.6556C24.9075,58.8006,24.8824,59.7129,25.5198,59.7161L25.5198,59.7161z"/>
			</g>
		</g>
		<g>
			<g>
				<path class="st9" d="M48.11,36.7166c0.8214,0.1532,1.6311,0.3856,2.474,0.3677c0.5712-0.0122,0.6965-0.8422,0.1355-1.0013
					c-0.8127-0.2305-1.6526-0.2108-2.4873-0.2698C47.7204,35.777,47.5985,36.6213,48.11,36.7166L48.11,36.7166z"/>
			</g>
		</g>
		<g>
			<g>
				<path class="st9" d="M48.0882,41.2388c0.944,0.2263,1.8886,0.2994,2.8458,0.1186c0.5865-0.1108,0.4537-1.0702-0.141-1.0416
					c-0.8129,0.039-1.6164,0.0419-2.4167-0.1222C47.6984,40.0545,47.405,41.075,48.0882,41.2388L48.0882,41.2388z"/>
			</g>
		</g>
		<g>
			<g>
				<path class="st9" d="M48.2323,45.0334c0.433,0.0539,0.8077,0.157,1.1892,0.3749c0.6605,0.3773,1.1983-0.5843,0.5885-1.0068
					c-0.5095-0.353-1.1531-0.5637-1.7777-0.4989C47.5,43.9785,47.5119,44.9438,48.2323,45.0334L48.2323,45.0334z"/>
			</g>
		</g>
		<g>
			<g>
				<path class="st9" d="M48.0983,48.6706c0.685,0.1155,1.3743,0.2269,2.0681,0.2685c0.5703,0.0343,0.7071-0.8981,0.1363-1.0071
					c-0.6834-0.1304-1.3773-0.1946-2.0704-0.2513C47.6724,47.6351,47.5366,48.5759,48.0983,48.6706L48.0983,48.6706z"/>
			</g>
		</g>
		<g>
			<g>
				<path class="st9" d="M48.2323,51.8665c0.6146-0.0472,1.2506-0.0938,1.8351-0.2983c0.5635-0.1971,0.4751-1.0205-0.1417-1.0474
					c-0.6186-0.027-1.2409,0.1083-1.8429,0.2407C47.4719,50.896,47.5948,51.9155,48.2323,51.8665L48.2323,51.8665z"/>
			</g>
		</g>
		<g>
			<g>
				<path class="st9" d="M48.3585,56.1323c1.0212-0.1457,2.042-0.1283,3.0681-0.0589c0.7011,0.0475,0.667-0.9895,0-1.0723
					c-1.1161-0.1385-2.2272-0.0305-3.3204,0.2158C47.4961,55.3544,47.7712,56.2161,48.3585,56.1323L48.3585,56.1323z"/>
			</g>
		</g>
		<g>
			<g>
				<path class="st9" d="M48.3756,60.0435c0.8649-0.1672,1.7443-0.1862,2.6226-0.1567c0.5861,0.0197,0.7367-0.9309,0.141-1.0416
					c-1.0335-0.192-2.0381-0.1193-3.0502,0.1586C47.4128,59.1896,47.7011,60.1739,48.3756,60.0435L48.3756,60.0435z"/>
			</g>
		</g>
		<g>
			<g>
				<path class="st9" d="M58.8524,37.1512c0.5628,0.0518,1.1349,0.0438,1.6989,0.0176c0.7084-0.0329,0.7096-1.0686,0-1.1016
					c-0.5638-0.0262-1.1363-0.0342-1.6989,0.0176C58.1675,36.1478,58.1662,37.0881,58.8524,37.1512L58.8524,37.1512z"/>
			</g>
		</g>
		<g>
			<g>
				<path class="st9" d="M58.8524,41.4965c0.4659,0.0335,0.9336,0.1064,1.3957,0.0218c0.4361-0.0799,0.4364-0.8015,0-0.8814
					c-0.4621-0.0847-0.9298-0.0117-1.3957,0.0218C58.3139,40.6973,58.3129,41.4577,58.8524,41.4965L58.8524,41.4965z"/>
			</g>
		</g>
		<g>
			<g>
				<path class="st9" d="M58.7262,45.6711c0.3523,0.1326,0.797,0.2214,1.1728,0.178c0.569-0.0657,0.6951-0.7938,0.1355-1.0013
					c-0.3574-0.1325-0.8057-0.1543-1.1822-0.1089C58.3225,44.8027,58.2056,45.4751,58.7262,45.6711L58.7262,45.6711z"/>
			</g>
		</g>
		<g>
			<g>
				<path class="st9" d="M58.7091,49.4547c0.4569,0.0812,0.898,0.0939,1.357,0.0311c0.5455-0.0747,0.5458-1.027,0-1.1018
					c-0.459-0.0629-0.9001-0.0502-1.357,0.0311C58.1946,48.5066,58.1943,49.3631,58.7091,49.4547L58.7091,49.4547z"/>
			</g>
		</g>
		<g>
			<g>
				<path class="st9" d="M58.8524,52.075c0.5534,0.0706,1.0874,0.0372,1.6353-0.0522c0.5341-0.0871,0.5345-0.992,0-1.0792
					c-0.5477-0.0893-1.0828-0.1227-1.6353-0.0522C58.0933,50.9882,58.0917,51.978,58.8524,52.075L58.8524,52.075z"/>
			</g>
		</g>
		<g>
			<g>
				<path class="st9" d="M58.9965,56.8641c0.4446-0.1811,0.8776-0.2011,1.3525-0.181c0.607,0.0258,0.6643-0.83,0.1371-1.0128
					c-0.6562-0.2275-1.2964-0.0938-1.9072,0.2032C58.0347,56.138,58.4243,57.0971,58.9965,56.8641L58.9965,56.8641z"/>
			</g>
		</g>
		<g>
			<g>
				<path class="st9" d="M58.8524,59.8972c0.4962,0.016,0.9901,0.0214,1.4865,0.0176c0.7389-0.0057,0.7402-1.1427,0-1.1484
					c-0.4964-0.0038-0.9904,0.0016-1.4865,0.0176C58.1363,58.8069,58.1351,59.8741,58.8524,59.8972L58.8524,59.8972z"/>
			</g>
		</g>
		<g>
			<g>
				<path class="st9" d="M66.8002,37.0954c1.137,0.1587,2.2531,0.2528,3.3761,0.5149c0.7289,0.1702,1.0369-0.9269,0.31-1.1244
					c-1.1189-0.304-2.3915-0.5217-3.5513-0.3861C66.4271,36.1592,66.181,37.009,66.8002,37.0954L66.8002,37.0954z"/>
			</g>
		</g>
		<g>
			<g>
				<path class="st9" d="M66.9349,41.3193c0.43,0.0439,0.8418,0.0752,1.2742,0.0586c0.6595-0.0253,0.6606-1.0001,0-1.0254
					c-0.4324-0.0166-0.8442,0.0146-1.2742,0.0586C66.3519,40.4707,66.3507,41.2596,66.9349,41.3193L66.9349,41.3193z"/>
			</g>
		</g>
		<g>
			<g>
				<path class="st9" d="M67.0767,46.6338c0.6296-0.1145,1.2149-0.0351,1.8192,0.1581c0.6222,0.199,1.0307-0.7529,0.447-1.0602
					c-0.8614-0.4535-1.7915-0.4472-2.6771-0.0725C66.074,45.9097,66.5263,46.7339,67.0767,46.6338L67.0767,46.6338z"/>
			</g>
		</g>
		<g>
			<g>
				<path class="st9" d="M67.0681,49.835c0.6038-0.112,1.1714-0.1155,1.7796-0.161c0.5804-0.0433,0.7074-0.8288,0.1379-1.0186
					c-0.7335-0.2445-1.6273-0.0822-2.3035,0.2639C66.1472,49.1931,66.5406,49.9329,67.0681,49.835L67.0681,49.835z"/>
			</g>
		</g>
		<g>
			<g>
				<path class="st9" d="M67.0845,53.8879c0.3978-0.1328,0.7275-0.1743,1.1465-0.1305c0.6564,0.0686,0.7158-0.9091,0.1488-1.0992
					c-0.5814-0.1949-1.2067-0.1249-1.7287,0.2016C66.1303,53.1855,66.4573,54.0972,67.0845,53.8879L67.0845,53.8879z"/>
			</g>
		</g>
		<g>
			<g>
				<path class="st9" d="M66.9349,57.3078c0.496,0.0573,0.9877,0.072,1.4865,0.0557c0.7349-0.0241,0.7362-1.1184,0-1.1426
					c-0.4988-0.0164-0.9905-0.0016-1.4865,0.0557C66.2732,56.353,66.2718,57.2313,66.9349,57.3078L66.9349,57.3078z"/>
			</g>
		</g>
		<g>
			<g>
				<path class="st9" d="M66.9349,60.6939c0.4956,0.0092,0.9909,0.0213,1.4865,0.0176c0.6711-0.0051,0.6722-1.0379,0-1.043
					c-0.4957-0.0038-0.991,0.0083-1.4865,0.0176C66.2866,59.6982,66.2855,60.6818,66.9349,60.6939L66.9349,60.6939z"/>
			</g>
		</g>
		<g>
			<g>
				<path class="st9" d="M9.7479,63.8187c0.1613-0.0407,0.2815,0.0392,0.4221,0.1115c0.4591,0.2363,1.0964-0.2707,0.7616-0.7616
					c-0.3371-0.4942-0.9244-0.6681-1.4843-0.4404C8.7907,62.9953,9.0221,64.0017,9.7479,63.8187L9.7479,63.8187z"/>
			</g>
		</g>
		<g>
			<g>
				<path class="st9" d="M9.2203,65.9671c-0.4392,0.7604,0.5192,1.628,1.1915,1.004c0.3056-0.2837,0.0786-0.8783-0.3522-0.8502
					c-0.1017,0.0109-0.0888,0.083,0.0388,0.2165C10.2124,65.819,9.5021,65.4791,9.2203,65.9671L9.2203,65.9671z"/>
			</g>
		</g>
		<g>
			<g>
				<path class="st9" d="M9.2557,70.1753c0.1063,0.0936,0.2125,0.1762,0.3265,0.2601c0.3568,0.2627,0.88-0.2604,0.6173-0.6173
					c-0.0839-0.114-0.1666-0.2202-0.2601-0.3265C9.527,69.0233,8.7871,69.7627,9.2557,70.1753L9.2557,70.1753z"/>
			</g>
		</g>
		<g>
			<g>
				<path class="st9" d="M9.5976,74.2624c0.0708-0.0039,0.1416-0.0078,0.2124-0.0117c0.7647-0.0422,0.7661-1.1472,0-1.1895
					c-0.0708-0.0039-0.1416-0.0078-0.2124-0.0117C8.8172,73.0065,8.8159,74.3056,9.5976,74.2624L9.5976,74.2624z"/>
			</g>
		</g>
		<g>
			<g>
				<path class="st9" d="M9.5976,78.2856c0.7654,0,0.7666-1.1895,0-1.1895C8.8322,77.0961,8.8309,78.2856,9.5976,78.2856
					L9.5976,78.2856z"/>
			</g>
		</g>
		<g>
			<g>
				<path class="st9" d="M9.0526,81.5133c-0.0098,0.1992-0.007,0.369,0.0392,0.5641c0.1184,0.4996,0.8928,0.5,1.0114,0
					c0.0463-0.1951,0.0491-0.3649,0.0392-0.5641C10.108,80.8126,9.0872,80.8113,9.0526,81.5133L9.0526,81.5133z"/>
			</g>
		</g>
		<g>
			<g>
				<path class="st9" d="M9.5976,86.8298c0.8294,0,0.8308-1.2891,0-1.2891C8.7681,85.5407,8.7667,86.8298,9.5976,86.8298
					L9.5976,86.8298z"/>
			</g>
		</g>
		<g>
			<g>
				<path class="st9" d="M16.1852,63.6405c0.3369-0.1733,0.6779-0.113,1.014,0.0295c0.456,0.1934,1.0291-0.3563,0.5822-0.7546
					c-0.5902-0.5261-1.4265-0.525-2.0694-0.0844C15.2162,63.1707,15.6441,63.9188,16.1852,63.6405L16.1852,63.6405z"/>
			</g>
		</g>
		<g>
			<g>
				<path class="st9" d="M15.9486,67.4113c0.4805,0.0187,0.9393,0.0343,1.4167-0.0338c0.5119-0.073,0.5122-0.9609,0-1.034
					c-0.4774-0.0681-0.9361-0.0525-1.4167-0.0338C15.2401,66.3373,15.2389,67.3836,15.9486,67.4113L15.9486,67.4113z"/>
			</g>
		</g>
		<g>
			<g>
				<path class="st9" d="M15.7046,71.3691c0.5076,0.2859,1.0931,0.2768,1.5806-0.0482c0.5518-0.3679,0.0756-1.1746-0.5175-0.8854
					c-0.2315,0.1128-0.4478,0.1137-0.6906,0.0501C15.5539,70.3486,15.2191,71.0956,15.7046,71.3691L15.7046,71.3691z"/>
			</g>
		</g>
		<g>
			<g>
				<path class="st9" d="M16.2206,75.3954c0.0279,0.0039,0.0558,0.0077,0.0837,0.0116c0.6118,0.3382,1.1198-0.5492,0.5441-0.9309
					c-0.3734-0.2476-0.7945-0.2459-1.172-0.0116C15.0825,74.8332,15.6021,75.7027,16.2206,75.3954L16.2206,75.3954z"/>
			</g>
		</g>
		<g>
			<g>
				<path class="st9" d="M15.8115,78.8269c0.4085,0.0587,0.7862,0.0882,1.1989,0.0627c0.7195-0.0444,0.7206-1.0742,0-1.1191
					c-0.4127-0.0257-0.7903,0.0036-1.1989,0.062C15.3191,77.9029,15.319,78.7561,15.8115,78.8269L15.8115,78.8269z"/>
			</g>
		</g>
		<g>
			<g>
				<path class="st9" d="M15.8006,82.601c0.7976,0.1891,1.6365,0.284,2.4373,0.0732c0.6414-0.1689,0.4378-1.016-0.1464-1.0819
					c-0.7081-0.0799-1.4301-0.0431-2.1429-0.0847C15.3222,81.4711,15.1919,82.4567,15.8006,82.601L15.8006,82.601z"/>
			</g>
		</g>
		<g>
			<g>
				<path class="st9" d="M16.0841,87.4901c0.5254-0.1467,1.0367-0.1437,1.5749-0.0869c0.6361,0.067,0.7644-0.9678,0.1503-1.1107
					c-0.7414-0.1725-1.4351-0.052-2.118,0.2659C15.1604,86.8054,15.5383,87.6425,16.0841,87.4901L16.0841,87.4901z"/>
			</g>
		</g>
		<g>
			<g>
				<path class="st8" d="M25.5198,64.1954c5.1588-0.1317,10.3428-0.0483,15.494-0.2363c0.666-0.0243,0.6446-0.9568,0-1.0195
					c-5.0728-0.4934-10.445-0.1794-15.494,0.4414C25.0155,63.4429,24.9813,64.2091,25.5198,64.1954L25.5198,64.1954z"/>
			</g>
		</g>
		<g>
			<g>
				<path class="st8" d="M25.5198,67.4204c3.3159,0.2861,6.6466,0.588,9.9743,0.6858c0.7313,0.0215,0.713-1.068,0-1.125
					c-3.3136-0.2648-6.6519-0.3281-9.9743-0.4046C24.9699,66.564,24.9866,67.3744,25.5198,67.4204L25.5198,67.4204z"/>
			</g>
		</g>
		<g>
			<g>
				<path class="st8" d="M25.5198,71.2656c4.5544,0.4187,9.2347,0.6373,13.8017,0.3137c0.7376-0.0523,0.7548-1.1476,0-1.1602
					c-4.5979-0.0766-9.2012,0.0153-13.8017-0.0618C24.9265,70.3474,24.9473,71.2129,25.5198,71.2656L25.5198,71.2656z"/>
			</g>
		</g>
		<g>
			<g>
				<path class="st8" d="M25.5198,75.3449c2.5332-0.1035,5.1201-0.0348,7.6416-0.2599c0.7556-0.0675,0.7348-1.0685,0-1.1602
					c-2.4848-0.3099-5.1648-0.0707-7.6416,0.2423C24.7917,74.2592,24.742,75.3767,25.5198,75.3449L25.5198,75.3449z"/>
			</g>
		</g>
		<g>
			<g>
				<path class="st8" d="M25.5198,79.0099c2.9489,0.0918,6.1524-0.0953,9.0554-0.6323c0.6574-0.1216,0.4992-1.172-0.1565-1.1567
					c-2.9705,0.0694-6.0866,0.4049-9.0289,0.828C24.8265,78.1299,24.991,78.9935,25.5198,79.0099L25.5198,79.0099z"/>
			</g>
		</g>
		<g>
			<g>
				<path class="st8" d="M25.3804,82.8785c3.1158,0.7618,6.6995,0.803,9.8424,0.2032c0.6262-0.1195,0.4781-1.1216-0.1495-1.1049
					c-3.2223,0.0859-6.3374,0.0178-9.5535-0.1283C24.9294,81.8215,24.8068,82.7382,25.3804,82.8785L25.3804,82.8785z"/>
			</g>
		</g>
		<g>
			<g>
				<path class="st8" d="M25.5198,86.9856c4.5349,0.0232,9.0777-0.266,13.6021-0.5443c0.6904-0.0425,0.7029-1.1028,0-1.084
					c-4.5332,0.1211-9.085,0.234-13.6021,0.6556C24.9075,86.0701,24.8824,86.9823,25.5198,86.9856L25.5198,86.9856z"/>
			</g>
		</g>
		<g>
			<g>
				<path class="st9" d="M48.11,63.9861c0.8214,0.1532,1.6311,0.3856,2.474,0.3677c0.5712-0.0122,0.6965-0.8422,0.1355-1.0013
					c-0.8127-0.2305-1.6526-0.2108-2.4873-0.2698C47.7204,63.0464,47.5985,63.8907,48.11,63.9861L48.11,63.9861z"/>
			</g>
		</g>
		<g>
			<g>
				<path class="st9" d="M48.0882,68.5083c0.944,0.2263,1.8886,0.2994,2.8458,0.1186c0.5865-0.1108,0.4537-1.0702-0.141-1.0416
					c-0.8129,0.039-1.6164,0.0419-2.4167-0.1222C47.6984,67.324,47.405,68.3445,48.0882,68.5083L48.0882,68.5083z"/>
			</g>
		</g>
		<g>
			<g>
				<path class="st9" d="M48.2323,72.3028c0.433,0.0539,0.8077,0.157,1.1892,0.3749c0.6605,0.3773,1.1983-0.5843,0.5885-1.0068
					c-0.5095-0.353-1.1531-0.5637-1.7777-0.4989C47.5,71.2479,47.5119,72.2132,48.2323,72.3028L48.2323,72.3028z"/>
			</g>
		</g>
		<g>
			<g>
				<path class="st9" d="M48.0983,75.9401c0.685,0.1155,1.3743,0.2269,2.0681,0.2685c0.5703,0.0343,0.7071-0.8981,0.1363-1.0071
					c-0.6834-0.1304-1.3773-0.1946-2.0704-0.2513C47.6724,74.9045,47.5366,75.8453,48.0983,75.9401L48.0983,75.9401z"/>
			</g>
		</g>
		<g>
			<g>
				<path class="st9" d="M48.2323,79.136c0.6146-0.0472,1.2506-0.0938,1.8351-0.2983c0.5635-0.1971,0.4751-1.0205-0.1417-1.0474
					c-0.6186-0.027-1.2409,0.1083-1.8429,0.2407C47.4719,78.1655,47.5948,79.1849,48.2323,79.136L48.2323,79.136z"/>
			</g>
		</g>
		<g>
			<g>
				<path class="st9" d="M48.3585,83.4018c1.0212-0.1457,2.042-0.1283,3.0681-0.0589c0.7011,0.0474,0.667-0.9895,0-1.0723
					c-1.1161-0.1385-2.2272-0.0305-3.3204,0.2158C47.4961,82.6239,47.7712,83.4856,48.3585,83.4018L48.3585,83.4018z"/>
			</g>
		</g>
		<g>
			<g>
				<path class="st9" d="M48.3756,87.313c0.8649-0.1672,1.7443-0.1862,2.6226-0.1567c0.5861,0.0197,0.7367-0.9309,0.141-1.0416
					c-1.0335-0.192-2.0381-0.1193-3.0502,0.1586C47.4128,86.4591,47.7011,87.4434,48.3756,87.313L48.3756,87.313z"/>
			</g>
		</g>
		<g>
			<g>
				<path class="st9" d="M58.8524,64.4206c0.5628,0.0518,1.1349,0.0438,1.6989,0.0176c0.7084-0.0329,0.7096-1.0686,0-1.1016
					c-0.5638-0.0262-1.1363-0.0342-1.6989,0.0176C58.1675,63.4172,58.1662,64.3575,58.8524,64.4206L58.8524,64.4206z"/>
			</g>
		</g>
		<g>
			<g>
				<path class="st9" d="M58.8524,68.7659c0.4659,0.0335,0.9336,0.1064,1.3957,0.0218c0.4361-0.0799,0.4364-0.8015,0-0.8814
					c-0.4621-0.0847-0.9298-0.0117-1.3957,0.0218C58.3139,67.9667,58.3129,68.7272,58.8524,68.7659L58.8524,68.7659z"/>
			</g>
		</g>
		<g>
			<g>
				<path class="st9" d="M58.7262,72.9405c0.3523,0.1326,0.797,0.2214,1.1728,0.178c0.569-0.0657,0.6951-0.7938,0.1355-1.0013
					c-0.3574-0.1325-0.8057-0.1543-1.1822-0.1089C58.3225,72.0721,58.2056,72.7446,58.7262,72.9405L58.7262,72.9405z"/>
			</g>
		</g>
		<g>
			<g>
				<path class="st9" d="M58.7091,76.7241c0.4569,0.0813,0.898,0.0939,1.357,0.0311c0.5455-0.0747,0.5458-1.027,0-1.1018
					c-0.459-0.0629-0.9001-0.0502-1.357,0.0311C58.1946,75.776,58.1943,76.6326,58.7091,76.7241L58.7091,76.7241z"/>
			</g>
		</g>
		<g>
			<g>
				<path class="st9" d="M58.8524,79.3444c0.5534,0.0706,1.0874,0.0372,1.6353-0.0522c0.5341-0.0871,0.5345-0.992,0-1.0792
					c-0.5477-0.0893-1.0828-0.1227-1.6353-0.0522C58.0933,78.2577,58.0917,79.2474,58.8524,79.3444L58.8524,79.3444z"/>
			</g>
		</g>
		<g>
			<g>
				<path class="st9" d="M58.9965,84.1335c0.4446-0.1811,0.8776-0.2011,1.3525-0.181c0.607,0.0258,0.6643-0.83,0.1371-1.0128
					c-0.6562-0.2275-1.2964-0.0938-1.9072,0.2032C58.0347,83.4074,58.4243,84.3666,58.9965,84.1335L58.9965,84.1335z"/>
			</g>
		</g>
		<g>
			<g>
				<path class="st9" d="M58.8524,87.1666c0.4962,0.016,0.9901,0.0214,1.4865,0.0176c0.7389-0.0057,0.7402-1.1427,0-1.1484
					c-0.4964-0.0038-0.9904,0.0016-1.4865,0.0176C58.1363,86.0764,58.1351,87.1435,58.8524,87.1666L58.8524,87.1666z"/>
			</g>
		</g>
		<g>
			<g>
				<path class="st9" d="M66.8002,64.3648c1.137,0.1587,2.2531,0.2528,3.3761,0.5149c0.7289,0.1702,1.0369-0.9269,0.31-1.1244
					c-1.1189-0.304-2.3915-0.5217-3.5513-0.3861C66.4271,63.4286,66.181,64.2784,66.8002,64.3648L66.8002,64.3648z"/>
			</g>
		</g>
		<g>
			<g>
				<path class="st9" d="M66.9349,68.5887c0.43,0.0439,0.8418,0.0752,1.2742,0.0586c0.6595-0.0253,0.6606-1.0001,0-1.0254
					c-0.4324-0.0166-0.8442,0.0147-1.2742,0.0586C66.3519,67.7401,66.3507,68.529,66.9349,68.5887L66.9349,68.5887z"/>
			</g>
		</g>
		<g>
			<g>
				<path class="st9" d="M67.0767,73.9032c0.6296-0.1145,1.2149-0.0351,1.8192,0.1581c0.6222,0.199,1.0307-0.7529,0.447-1.0602
					c-0.8614-0.4535-1.7915-0.4472-2.6771-0.0725C66.074,73.1791,66.5263,74.0033,67.0767,73.9032L67.0767,73.9032z"/>
			</g>
		</g>
		<g>
			<g>
				<path class="st9" d="M67.0681,77.1045c0.6038-0.1121,1.1714-0.1155,1.7796-0.1609c0.5804-0.0433,0.7074-0.8288,0.1379-1.0186
					c-0.7335-0.2445-1.6273-0.0822-2.3035,0.2639C66.1472,76.4625,66.5406,77.2024,67.0681,77.1045L67.0681,77.1045z"/>
			</g>
		</g>
		<g>
			<g>
				<path class="st9" d="M67.0845,81.1573c0.3978-0.1328,0.7275-0.1743,1.1465-0.1305c0.6564,0.0686,0.7158-0.9091,0.1488-1.0992
					c-0.5814-0.1949-1.2067-0.1249-1.7287,0.2016C66.1303,80.4549,66.4573,81.3666,67.0845,81.1573L67.0845,81.1573z"/>
			</g>
		</g>
		<g>
			<g>
				<path class="st9" d="M66.9349,84.5773c0.496,0.0573,0.9877,0.0721,1.4865,0.0557c0.7349-0.0241,0.7362-1.1184,0-1.1426
					c-0.4988-0.0164-0.9905-0.0016-1.4865,0.0557C66.2732,83.6224,66.2718,84.5007,66.9349,84.5773L66.9349,84.5773z"/>
			</g>
		</g>
		<g>
			<g>
				<path class="st9" d="M66.9349,87.9633c0.4956,0.0092,0.9909,0.0213,1.4865,0.0176c0.6711-0.0051,0.6722-1.0379,0-1.043
					c-0.4957-0.0038-0.991,0.0083-1.4865,0.0176C66.2866,86.9676,66.2855,87.9512,66.9349,87.9633L66.9349,87.9633z"/>
			</g>
		</g>
		<g>
			<g>
				<path class="st9" d="M9.7479,91.0882c0.1613-0.0407,0.2815,0.0392,0.4221,0.1115c0.4591,0.2363,1.0964-0.2707,0.7616-0.7616
					c-0.3371-0.4942-0.9244-0.6681-1.4843-0.4404C8.7907,90.2647,9.0221,91.2712,9.7479,91.0882L9.7479,91.0882z"/>
			</g>
		</g>
		<g>
			<g>
				<path class="st9" d="M9.2203,93.2365c-0.4392,0.7604,0.5192,1.628,1.1915,1.004c0.3056-0.2837,0.0786-0.8783-0.3522-0.8502
					c-0.1017,0.0109-0.0888,0.083,0.0388,0.2165C10.2124,93.0885,9.5021,92.7485,9.2203,93.2365L9.2203,93.2365z"/>
			</g>
		</g>
		<g>
			<g>
				<path class="st9" d="M9.2557,97.4448c0.1063,0.0936,0.2125,0.1762,0.3265,0.2601c0.3568,0.2627,0.88-0.2604,0.6173-0.6173
					c-0.0839-0.114-0.1666-0.2202-0.2601-0.3265C9.527,96.2927,8.7871,97.0322,9.2557,97.4448L9.2557,97.4448z"/>
			</g>
		</g>
		<g>
			<g>
				<path class="st9" d="M16.1852,90.9099c0.3369-0.1733,0.6779-0.113,1.014,0.0295c0.456,0.1934,1.0291-0.3563,0.5822-0.7546
					c-0.5902-0.5261-1.4265-0.525-2.0694-0.0844C15.2162,90.4402,15.6441,91.1882,16.1852,90.9099L16.1852,90.9099z"/>
			</g>
		</g>
		<g>
			<g>
				<path class="st9" d="M15.9486,94.6807c0.4805,0.0187,0.9393,0.0343,1.4167-0.0338c0.5119-0.073,0.5122-0.9609,0-1.034
					c-0.4774-0.0681-0.9361-0.0525-1.4167-0.0338C15.2401,93.6067,15.2389,94.653,15.9486,94.6807L15.9486,94.6807z"/>
			</g>
		</g>
		<g>
			<g>
				<path class="st9" d="M15.7046,98.6386c0.5076,0.2859,1.0931,0.2768,1.5806-0.0482c0.5518-0.3679,0.0756-1.1746-0.5175-0.8854
					c-0.2315,0.1128-0.4478,0.1136-0.6906,0.0501C15.5539,97.618,15.2191,98.3651,15.7046,98.6386L15.7046,98.6386z"/>
			</g>
		</g>
		<g>
			<g>
				<path class="st8" d="M25.5198,91.4648c5.1588-0.1317,10.3428-0.0483,15.494-0.2363c0.666-0.0243,0.6446-0.9568,0-1.0195
					c-5.0728-0.4934-10.445-0.1794-15.494,0.4414C25.0155,90.7124,24.9813,91.4786,25.5198,91.4648L25.5198,91.4648z"/>
			</g>
		</g>
		<g>
			<g>
				<path class="st8" d="M25.5198,94.6899c3.3159,0.2861,6.6466,0.588,9.9743,0.6858c0.7313,0.0215,0.713-1.068,0-1.125
					c-3.3136-0.2648-6.6519-0.3281-9.9743-0.4046C24.9699,93.8334,24.9866,94.6438,25.5198,94.6899L25.5198,94.6899z"/>
			</g>
		</g>
		<g>
			<g>
				<path class="st8" d="M25.5198,98.535c4.5544,0.4187,9.2347,0.6373,13.8017,0.3137c0.7376-0.0523,0.7548-1.1476,0-1.1602
					c-4.5979-0.0766-9.2012,0.0153-13.8017-0.0618C24.9265,97.6169,24.9473,98.4824,25.5198,98.535L25.5198,98.535z"/>
			</g>
		</g>
		<g>
			<g>
				<path class="st9" d="M48.11,91.2555c0.8214,0.1532,1.6311,0.3856,2.474,0.3677c0.5712-0.0122,0.6965-0.8422,0.1355-1.0013
					c-0.8127-0.2305-1.6526-0.2108-2.4873-0.2698C47.7204,90.3159,47.5985,91.1601,48.11,91.2555L48.11,91.2555z"/>
			</g>
		</g>
		<g>
			<g>
				<path class="st9" d="M48.0882,95.7777c0.944,0.2263,1.8886,0.2994,2.8458,0.1186c0.5865-0.1108,0.4537-1.0702-0.141-1.0416
					c-0.8129,0.039-1.6164,0.0419-2.4167-0.1222C47.6984,94.5934,47.405,95.6139,48.0882,95.7777L48.0882,95.7777z"/>
			</g>
		</g>
		<g>
			<g>
				<path class="st9" d="M48.2323,99.5723c0.433,0.0539,0.8077,0.157,1.1892,0.3749c0.6605,0.3773,1.1983-0.5843,0.5885-1.0068
					c-0.5095-0.353-1.1531-0.5637-1.7777-0.4989C47.5,98.5174,47.5119,99.4827,48.2323,99.5723L48.2323,99.5723z"/>
			</g>
		</g>
		<g>
			<g>
				<path class="st9" d="M58.8524,91.6901c0.5628,0.0518,1.1349,0.0438,1.6989,0.0176c0.7084-0.0329,0.7096-1.0686,0-1.1016
					c-0.5638-0.0262-1.1363-0.0342-1.6989,0.0176C58.1675,90.6867,58.1662,91.627,58.8524,91.6901L58.8524,91.6901z"/>
			</g>
		</g>
		<g>
			<g>
				<path class="st9" d="M58.8524,96.0354c0.4659,0.0335,0.9336,0.1064,1.3957,0.0218c0.4361-0.0799,0.4364-0.8015,0-0.8814
					c-0.4621-0.0847-0.9298-0.0117-1.3957,0.0218C58.3139,95.2362,58.3129,95.9966,58.8524,96.0354L58.8524,96.0354z"/>
			</g>
		</g>
		<g>
			<g>
				<path class="st9" d="M58.7262,100.21c0.3523,0.1326,0.797,0.2214,1.1728,0.178c0.569-0.0657,0.6951-0.7938,0.1355-1.0013
					c-0.3574-0.1325-0.8057-0.1543-1.1822-0.1089C58.3225,99.3416,58.2056,100.014,58.7262,100.21L58.7262,100.21z"/>
			</g>
		</g>
		<g>
			<g>
				<path class="st9" d="M66.8002,91.6343c1.137,0.1587,2.2531,0.2528,3.3761,0.5149c0.7289,0.1702,1.0369-0.9269,0.31-1.1244
					c-1.1189-0.304-2.3915-0.5217-3.5513-0.3861C66.4271,90.6981,66.181,91.5479,66.8002,91.6343L66.8002,91.6343z"/>
			</g>
		</g>
		<g>
			<g>
				<path class="st9" d="M66.9349,95.8582c0.43,0.0439,0.8418,0.0752,1.2742,0.0586c0.6595-0.0253,0.6606-1.0001,0-1.0254
					c-0.4324-0.0166-0.8442,0.0146-1.2742,0.0586C66.3519,95.0096,66.3507,95.7985,66.9349,95.8582L66.9349,95.8582z"/>
			</g>
		</g>
		<g>
			<g>
				<path class="st9" d="M67.0767,101.1726c0.6296-0.1145,1.2149-0.0351,1.8192,0.1581c0.6222,0.199,1.0307-0.7529,0.447-1.0602
					c-0.8614-0.4535-1.7915-0.4472-2.6771-0.0725C66.074,100.4485,66.5263,101.2728,67.0767,101.1726L67.0767,101.1726z"/>
			</g>
		</g>
	</g>
	<path class="st6" d="M96.8747,87.2431c-1.495-0.2742-2.7063,0.4038-3.2379,1.8384c-1.1526,3.1108-2.5304,6.2368-3.8636,9.386
		c-0.3392-0.0945-0.6942-0.1819-1.0865-0.252c-3.3324-0.5952-4.7437,4.1104-1.4164,5.1375c0.1533,0.0474,0.3129,0.095,0.4727,0.1426
		c-0.1986,0.5239-0.3964,1.0479-0.5834,1.5735c-0.6628-0.0977-1.3392-0.1497-2.0857-0.1482
		c-2.9116,0.0054-3.6704,4.5239-0.7019,5.1858c0.394,0.0876,0.79,0.1841,1.1849,0.2761c-0.05,0.2056-0.1146,0.4097-0.1615,0.6157
		c-0.5094,2.2427,2.3207,3.3215,3.5984,1.5171c0.2606-0.3679,0.4932-0.7651,0.741-1.1465c1.5547,0.3621,3.1138,0.6948,4.6742,0.9512
		c0.4316,0.1472,0.9105,0.1826,1.3767,0.0916c0.0615-0.012,0.1232-0.0242,0.1847-0.0361c1.6096-0.3149,2.0305-2.2117,1.416-3.4807
		c-0.644-1.3308-2.3953-2.1108-4.4041-2.6245c0.1805-0.4961,0.3292-0.9849,0.4448-1.4646
		c6.2295,1.0076,13.4834,0.6545,16.0293-5.1794C112.846,91.8586,102.5025,88.2753,96.8747,87.2431z M101.3692,99.5629
		c-1.9017,0.4534-3.9684,0.4255-6.0249,0.1602c0.8873-2.3362,1.7162-4.6777,2.5334-6.948c1.4227,0.303,2.8643,0.7136,3.9922,1.4138
		C104.5749,95.8686,105.1475,98.662,101.3692,99.5629z"/>
	<path class="st7" d="M201.2513,14.5378c0.9308-3.9741,0.3185-8.646-3.4336-11.0012c-3.9224-2.4619-9.9266-0.9387-13.9639,0.3677
		c-3.5603,1.1521-6.3708,2.5767-10.1667,2.9067c-2.5165,0.2188-4.9374,0.3748-7.2551,1.5005
		c-7.3407,3.5659-9.5405,14.7661-0.8982,18.1899c0.3289,0.1304,0.6245,0.1643,0.8918,0.1377
		c0.1018,0.0122,0.1975,0.0332,0.3033,0.0396c1.8168,0.1099,3.058-0.9375,4.4052-1.9316c3.0249-2.2322,5.8098-4.146,9.822-3.8994
		c3.7507,0.2305,7.7227,3.2009,10.465,6.719c0.725,2.5205,2.6516,4.6609,1.9388,7.6602c-0.5967,2.5107-2.3501,4.1838-2.5171,6.8669
		c-0.2526,4.0615,2.9301,8.2654-0.5839,11.884c-1.2037,1.2395-0.0028,3.9038,1.8319,3.147
		c4.7133-1.9443,5.6633-5.3074,5.0818-10.218c-0.223-1.8833-0.886-3.3813-0.3411-5.2371c0.3689-1.2561,1.1926-2.1365,1.7441-3.2913
		c1.0278-2.1523,1.2288-4.5542,0.7385-6.8794c-0.6843-3.2461-2.4419-4.7161-1.4125-8.0144
		C198.8507,20.4448,200.5208,17.6569,201.2513,14.5378z"/>
	<path class="st8" d="M163.1945,62.1264c7.8663,12.8389,22.224,16.5051,42.4744,12.626l0,10.7046h-14.6448v19.5464l-15.6686,4.6565
		l-4.3179-13.6177c-0.1997,0.0356-0.4017,0.0598-0.6082,0.0598c-2.7206,0-4.9261-3.1926-4.9261-7.1309
		c0-1.2791,0.967-5.8261,1.3742-6.864c-4.8026-3.1689-8.0925-10.8113-8.7275-19.9571L163.1945,62.1264z"/>
	<g>
		<g>
			<g>
				<path class="st9" d="M169.2438,25.2522c0.0898,7.0509-0.0478,14.3247,0.7023,21.3393c0.4657,4.355,2.4968,8.4162,7.1822,9.1677
					c3.9419,0.6322,8.1404-1.2042,10.6075-4.2787c3.5457-4.4185,4.0254-10.4923,3.8073-15.9312
					c-0.0305-0.7593-1.1662-0.7645-1.1836,0c-0.1054,4.6257-0.3093,9.5527-2.7368,13.6371
					c-2.2241,3.7422-6.9252,6.3149-11.2996,4.9891c-5.2938-1.6045-5.1157-8.0681-5.2872-12.5356
					c-0.2098-5.4631-0.3862-10.9295-0.7023-16.3877C170.2934,24.5576,169.2348,24.5452,169.2438,25.2522L169.2438,25.2522z"/>
			</g>
		</g>
		<g>
			<g>
				<path class="st9" d="M165.4152,27.4749c3.7472-0.347,7.8669-2.4099,10.461-5.114c0.4356-0.4541-0.1571-1.3214-0.703-0.9111
					c-1.5179,1.141-2.9703,2.3032-4.6961,3.1242c-1.7174,0.817-3.5967,1.1847-5.3104,1.9836
					C164.7323,26.7602,164.9371,27.5191,165.4152,27.4749L165.4152,27.4749z"/>
			</g>
		</g>
		<g>
			<g>
				<path class="st9" d="M195.26,62.8414c-4.7179-3.6488,0.9926-10.0854,2.4352-13.8718c0.7167-1.8811,0.8764-3.7313,0.1894-5.6384
					c-0.6455-1.792-1.5369-3.2164-0.8587-5.1682c0.5451-1.5686,2.0982-2.794,3.333-3.8247c0.2232-0.1863,0.2115-0.5226,0.0978-0.758
					c-0.7722-1.5999-1.7172-3.2054-2.3477-4.8641c-0.4784-1.2586-1.006-2.5322-0.2904-3.8812
					c0.2894-0.5455,0.7562-0.9991,1.1017-1.5123c1.3492-2.0039,2.2155-4.3094,2.5671-6.6971
					c0.6452-4.3826-0.4244-9.3616-3.6236-12.5854c-5.5527-5.5955-16.9415-2.1349-21.5927,2.9912
					c-0.5324,0.5868,0.3062,1.4391,0.8742,0.8742c4.3649-4.3405,14.3541-7.8341,19.5904-3.1077
					c3.2538,2.9369,4.1838,8.0502,3.4182,12.19c-0.3771,2.0393-1.1627,3.9787-2.3208,5.6992
					c-0.8368,1.2431-1.9514,2.306-1.8345,3.907c0.1116,1.5284,1.1628,3.0358,1.8107,4.3759
					c0.3993,0.8259,1.3644,2.0474,1.0749,2.9767c-0.2015,0.647-1.7185,1.6235-2.1665,2.2381
					c-0.83,1.1384-1.3994,2.4219-1.2935,3.8593c0.1517,2.0579,1.702,3.6577,1.712,5.767
					c0.0249,5.2368-9.1151,13.0758-2.4052,17.7157C195.1336,63.8054,195.6534,63.1456,195.26,62.8414L195.26,62.8414z"/>
			</g>
		</g>
		<g>
			<g>
				<path class="st9" d="M171.6799,6.8613c-5.1663-0.7949-10.4737,2.0914-12.2427,7.1341
					c-1.795,5.1169,0.7948,11.2147,5.6764,13.5033c0.686,0.3216,1.2778-0.6361,0.6033-1.0321
					c-4.0366-2.3698-6.4779-7.1521-5.069-11.7893c1.3872-4.5659,6.3087-7.3032,10.9074-6.8952
					C172.0756,7.8282,172.2033,6.9419,171.6799,6.8613L171.6799,6.8613z"/>
			</g>
		</g>
		<g>
			<g>
				<path class="st9" d="M175.7052,20.3893c-1.2898-5.1456,5.345-12.8853,10.568-12.5184c3.966,0.2787,7.3171,3.4734,8.4122,7.1828
					c1.2913,4.3741-0.5518,9.0267-3.3443,12.3871c-0.484,0.5824,0.3192,1.4212,0.8452,0.8452
					c3.2304-3.5371,5.0451-8.4318,3.8781-13.2088c-1.0225-4.1859-4.6184-7.7577-8.9301-8.4196
					c-3.706-0.5689-6.7441,1.5918-9.0499,4.3024c-2.1576,2.5364-4.3695,6.2486-3.3623,9.7001
					C174.9058,21.2899,175.8651,21.0273,175.7052,20.3893L175.7052,20.3893z"/>
			</g>
		</g>
		<g>
			<g>
				<path class="st9" d="M175.9582,21.9507c-0.2099-2.9527,1.8835-4.1355,4.1598-5.2371c1.2115-0.5862,4.1889-2.3414,5.4935-1.3491
					c0.5007,0.3808,1.1498-0.4614,0.6746-0.8742c-1.7893-1.5541-4.8492,0.1878-6.5851,1.0468
					c-2.7251,1.3485-5.1688,2.9568-4.7271,6.4136C175.0518,22.561,176.004,22.5957,175.9582,21.9507L175.9582,21.9507z"/>
			</g>
		</g>
		<g>
			<g>
				<path class="st9" d="M192.2271,32.2852c2.0188,1.999,1.788,5.4487-0.5761,7.0885c-0.6162,0.4274-0.0794,1.3863,0.5944,1.0169
					c3.1437-1.7231,3.6171-6.6555,0.7565-8.8802C192.462,31.0906,191.7104,31.7736,192.2271,32.2852L192.2271,32.2852z"/>
			</g>
		</g>
		<g>
			<g>
				<path class="st9" d="M186.5387,28.1057c-1.8642-0.9098-3.8635-1.2085-5.9045-0.8046c-0.5745,0.1137-0.4539,1.1055,0.1402,1.0359
					c1.8657-0.2186,3.6512-0.0639,5.428,0.5666C186.6649,29.0677,186.9838,28.3229,186.5387,28.1057L186.5387,28.1057z"/>
			</g>
		</g>
		<g>
			<g>
				<path class="st9" d="M176.6416,27.7313c-1.6565-0.9395-3.7895-0.844-5.3843,0.1744c-0.6243,0.3987-0.0777,1.3315,0.5796,0.9916
					c1.4593-0.7546,2.8827-0.7827,4.4187-0.2504C176.797,28.8346,177.1293,28.0079,176.6416,27.7313L176.6416,27.7313z"/>
			</g>
		</g>
		<g>
			<g>
				<path class="st9" d="M179.6826,41.5653c-0.4932,0.1573-0.9864,0.3145-1.4796,0.4718c0.1716,0.0454,0.3432,0.0907,0.5148,0.1361
					c-0.1686-0.1698-0.3457-0.3237-0.5342-0.4711c-0.5147-0.4024-1.2171,0.2398-0.7375,0.7375
					c0.1658,0.1721,0.3372,0.332,0.5234,0.4819c0.2026,0.1632,0.4059,0.1899,0.6412,0.0827
					c0.4694-0.2137,0.9388-0.4274,1.4082-0.6411C180.4695,42.1581,180.1502,41.4162,179.6826,41.5653L179.6826,41.5653z"/>
			</g>
		</g>
		<g>
			<g>
				<path class="st9" d="M185.5971,35.9804c-1.1591-0.627-1.838-1.9244-3.0789-2.3869c-1.4012-0.5223-2.8675,0.5289-2.1866,2.0532
					c0.2056,0.4603,0.8698,0.2759,1.0013-0.1309c0.4772-1.476,1.4398-0.2404,2.0644,0.3916
					c0.5443,0.5507,1.1515,0.9922,1.9572,0.9683C185.8136,36.8621,186.0311,36.2151,185.5971,35.9804L185.5971,35.9804z"/>
			</g>
		</g>
		<g>
			<g>
				<path class="st9" d="M176.0595,35.1591c-0.6413-0.7035-1.6102-1.1634-2.4487-1.5958c-0.6026-0.3108-1.2824-0.4115-1.7463-0.3225
					c-1.0595,0.2034-1.4635,1.1153-1.1494,2.1285c0.194,0.6257,1.2247,0.5451,1.1855-0.1604
					c-0.0355-0.6384,0.0137-0.9712,0.7786-0.6709c1.01,0.3965,1.786,1.2466,2.8758,1.4879
					C176.0649,36.1387,176.4137,35.5476,176.0595,35.1591L176.0595,35.1591z"/>
			</g>
		</g>
		<g>
			<g>
				<path class="st9" d="M180.2962,35.073c-0.3589,0.4961-0.0265,1.154,0.4607,1.4179c0.5924,0.3209,1.2836,0.0882,1.6911-0.4062
					c0.3945-0.4786,0.5573-1.1774,0.2333-1.7387c-0.4183-0.7245-1.2773-0.7158-1.8693-0.2326c-0.4048,0.3304-0.343,1.0243,0,1.3673
					c0.4003,0.4003,0.9614,0.3312,1.3672,0c0.0233-0.0191,0.0467-0.0381,0.07-0.0572c-0.1422,0.0829-0.2844,0.1658-0.4266,0.2486
					c-0.0765,0-0.1529,0.0001-0.2294,0.0001c-0.138-0.0804-0.276-0.1608-0.414-0.2413c-0.0824-0.0795-0.0508-0.3181-0.0876-0.2827
					c0.0903-0.0869,0.391,0.1461,0.2215-0.0753C181.0326,34.7064,180.574,34.6891,180.2962,35.073L180.2962,35.073z"/>
			</g>
		</g>
		<g>
			<g>
				<path class="st9" d="M170.6389,35.0273c-0.2229,1.229,1.3759,1.8697,2.2381,1.0867c0.8218-0.7463,0.4193-2.3629-0.7278-2.5227
					c-0.4758-0.0663-0.9565,0.1157-1.0956,0.622c-0.1203,0.438,0.1479,1.0016,0.6221,1.0956
					c0.2121,0.042-0.0425-0.0335-0.0837-0.1525c-0.0503-0.1452,0.2317-0.4597,0.2698-0.3772
					c0.024,0.0519-0.1732-0.1247-0.2201-0.1599C171.3052,34.3672,170.7121,34.6239,170.6389,35.0273L170.6389,35.0273z"/>
			</g>
		</g>
		<g>
			<g>
				<path class="st9" d="M177.9223,49.4869c0.4261,0.6504,1.3729,0.3354,1.9578,0.0815c0.7047-0.306,1.2872-0.7711,1.6631-1.4467
					c0.3588-0.6448-0.4801-1.2943-1.0169-0.7846c-0.4631,0.4397-0.9595,0.8512-1.5649,1.0776
					C178.5834,48.556,177.4855,48.8202,177.9223,49.4869L177.9223,49.4869z"/>
			</g>
		</g>
	</g>
	<g>
		<g>
			<path class="st9" d="M185.2068,54.2251c-0.9906,4.2035,1.182,8.6528,4.6078,11.0547c4.4762,3.1383,10.8308,2.6466,12.3631,8.886
				c0.171,0.6964,1.3714,0.5709,1.2833-0.1737c-0.5319-4.4975-3.9891-6.2088-7.8701-7.5792
				c-2.5663-0.9062-5.2029-1.8379-7.0361-3.9646c-2.0824-2.4158-2.063-5.1219-2.4444-8.1009
				C186.0499,53.8758,185.3369,53.6732,185.2068,54.2251L185.2068,54.2251z"/>
		</g>
	</g>
	<g>
		<g>
			<path class="st9" d="M176.8545,56.2291c0.2881,2.3927,0.672,4.9113-0.9627,6.9214c-1.3006,1.5993-3.1155,2.2466-5.092,2.5396
				c-0.6999,0.1038-0.4492,1.0928,0.1558,1.1509c2.298,0.2209,4.6362-1.0663,6.0528-2.8308
				c1.8972-2.3631,1.4335-5.1598,0.7036-7.8972C177.5894,55.6535,176.7942,55.7282,176.8545,56.2291L176.8545,56.2291z"/>
		</g>
	</g>
	<g>
		<g>
			<path class="st9" d="M204.904,73.6376c-7.8138,0.4973-15.2983,2.432-23.1997,1.4536c-8.2755-1.0247-14.9648-5.3574-17.77-13.4511
				c-0.2298-0.663-1.2748-0.3906-1.0622,0.2928c2.4688,7.9345,8.5298,12.7438,16.6414,14.198
				c4.1228,0.7391,8.3537,0.7458,12.5181,0.4132c4.2855-0.3422,8.8638-0.7703,12.9939-2.0089
				C205.5014,74.3926,205.4363,73.6037,204.904,73.6376L204.904,73.6376z"/>
		</g>
	</g>
	<g>
		<g>
			<path class="st9" d="M205.1973,74.7525c0.0208,2.1486,0.2311,4.3012,0.3949,6.4435c0.0753,0.9852,0.402,2.2466,0.256,3.2217
				c-0.1837,1.2271-0.8979,1.1272-2.0742,1.33c-3.3412,0.5759-6.6521,0.5134-10.0127,0.1794
				c-6.2183-0.618-12.6698-0.7151-18.7796-2.0986c-4.2874-0.9708-8.3927-2.7769-11.246-6.2347
				c-3.6141-4.38-4.7762-10.3173-5.3939-15.8072c-0.1693,0.2223-0.3385,0.4446-0.5077,0.6669
				c1.8871-0.3411,3.6682,0.0029,5.5692-0.0546c0.7919-0.0239,0.7842-1.1783,0-1.2246c-2.0463-0.1207-3.9049-0.4211-5.9369-0.0546
				c-0.2689,0.0485-0.539,0.3883-0.5077,0.6669c1.0527,9.386,4.1104,18.5439,13.6163,22.1497
				c4.8747,1.8491,10.1433,2.1592,15.2904,2.5158c7.1396,0.4947,13.7917,1.6085,20.8831-0.0515
				c0.2469-0.0578,0.481-0.3398,0.4585-0.6022c-0.3194-3.7174-0.5072-7.4834-1.083-11.1714
				C206.0407,74.0948,205.1923,74.2319,205.1973,74.7525L205.1973,74.7525z"/>
		</g>
	</g>
	<g>
		<g>
			<path class="st9" d="M204.5318,86.5748c-0.1743,4.5076-0.0127,9.0539,0.0129,13.5648c0.0123,2.1805,0.0923,4.3767-0.0751,6.5533
				c-0.1378,1.7916-0.0081,4.0532-2.1111,4.8061c-0.841,0.3011-2.3015,0.0447-3.2109,0.0743
				c-7.3253,0.2377-14.6291,1.2785-21.7193,3.1529c-0.7872,0.2081-0.4513,1.3649,0.3333,1.2091
				c4.5201-0.8976,8.9745-1.9823,13.5628-2.5079c2.0361-0.2332,4.0797-0.3823,6.126-0.4896c1.847-0.0969,4.7436,0.416,6.4087-0.4739
				c2.5217-1.3478,1.9427-7.1793,1.9386-9.4636c-0.0098-5.4589,0.0844-10.9741-0.2052-16.4255
				C205.5562,85.8949,204.5583,85.8897,204.5318,86.5748L204.5318,86.5748z"/>
		</g>
	</g>
	<g>
		<g>
			<path class="st9" d="M196.385,88.2497c0.6738,4.0581,1.3116,8.06,1.3641,12.1851c0.0283,2.2266,0.3587,3.2721-2.0473,3.671
				c-1.6786,0.2783-3.352,0.5822-5.0177,0.9298c-5.9767,1.2475-12.0649,2.9001-17.8011,4.9929
				c-0.7744,0.2825-0.4778,1.4441,0.3442,1.2487c7.3753-1.7532,14.4191-4.4423,21.9118-5.8092
				c3.6581-0.6674,3.8679-0.7915,3.8386-4.5549c-0.0336-4.3115-0.4391-8.7731-1.5698-12.9453
				C197.2256,87.2963,196.2753,87.5895,196.385,88.2497L196.385,88.2497z"/>
		</g>
	</g>
	<g>
		<g>
			<path class="st9" d="M173.2479,110.732c-0.383-0.8521-1.1714-1.4747-1.8135-2.1409c-0.588-0.6102-1.1843-1.453-2.0133-1.7482
				c-1.2654-0.4506-2.5172,0.6593-3.0318,1.7245c-0.267,0.5527,0.4166,1.1712,0.888,0.6852
				c0.3221-0.332,0.6276-0.8831,1.0523-1.0914c0.8556-0.4196,1.4463,0.5092,1.9138,0.9883c0.7341,0.7522,1.4398,1.7278,2.395,2.1918
				C173.0562,111.5441,173.4315,111.1405,173.2479,110.732L173.2479,110.732z"/>
		</g>
	</g>
	<g>
		<g>
			<path class="st9" d="M177.3018,115.091c-2.6104,1.1108-5.3323,1.5723-8.1115,0.7616c-0.9578-0.2794-3.5966-1.1643-3.7823-2.3509
				c-0.1546-0.9882,1.2549-3.0908,1.5568-4.089c0.1817-0.6007-0.7374-1.0095-1.0281-0.4334
				c-0.608,1.2046-2.1993,3.7448-1.8532,5.1115c0.3065,1.2105,2.6235,2.1787,3.6205,2.577c3.239,1.294,7.1233,1.1763,10.0947-0.7268
				C178.3468,115.59,177.8716,114.8486,177.3018,115.091L177.3018,115.091z"/>
		</g>
	</g>
	<g>
		<g>
			<path class="st9" d="M193.0255,87.4213c-2.5403,5.3095-3.502,11.9313-2.5946,17.7457c0.1071,0.6864,1.2375,0.5226,1.2085-0.1636
				c-0.2571-6.0734,0.5071-11.3733,2.4678-17.1261C194.321,87.2497,193.3163,86.8134,193.0255,87.4213L193.0255,87.4213z"/>
		</g>
	</g>
	<g>
		<g>
			<path class="st9" d="M165.9453,83.6665c-0.3486,3.4692-2.5936,8.4242,0.8854,10.9744c2.4098,1.7665,5.8508,2.1372,8.7418,2.2967
				c4.1675,0.2298,8.3535-0.2102,12.5237-0.2152c0.7678-0.0009,0.7545-1.1354,0-1.1836c-6.355-0.4062-13.4888,1.4011-19.512-1.3208
				c-4.2814-1.9348-1.6196-6.9525-1.6487-10.5515C166.9303,83.0173,166.0079,83.044,165.9453,83.6665L165.9453,83.6665z"/>
		</g>
	</g>
	<g>
		<g>
			<path class="st9" d="M170.4918,96.2547c1.6292,4.4943,3.1224,8.9218,4.2451,13.5756c0.1953,0.8095,1.3931,0.4618,1.2374-0.3411
				c-0.9067-4.6755-2.3349-9.3912-4.433-13.677C171.2584,95.2343,170.2691,95.6404,170.4918,96.2547L170.4918,96.2547z"/>
		</g>
	</g>
	<g>
		<g>
			<path class="st9" d="M173.5197,64.7079c-2.1919-2.5174-6.0669-2.4424-9.1058-2.082c-0.9469,0.1123-0.9583,1.6136,0,1.5
				c2.6339-0.3124,6.1316-0.5552,8.0452,1.6426C173.0941,66.4979,174.1513,65.4333,173.5197,64.7079L173.5197,64.7079z"/>
		</g>
	</g>
	<g>
		<g>
			<path class="st9" d="M113.1081,51.1556c10.4707,3.4217,18.8681,10.8596,29.2566,14.5295
				c3.6197,1.2787,7.2556,2.3734,10.3561,4.6905c3.2594,2.4358,6.4865,4.9679,9.6006,7.588
				c0.6339,0.5334,1.5419-0.3351,0.9239-0.9239c-2.9137-2.7762-6.166-5.2394-9.3776-7.658
				c-3.0379-2.2877-6.3857-3.4447-9.9611-4.6975c-5.2222-1.8297-10-4.1275-14.739-7.0101
				c-5.0431-3.0676-9.9911-6.0969-15.7792-7.5356C112.7266,49.974,112.4647,50.9453,113.1081,51.1556L113.1081,51.1556z"/>
		</g>
	</g>
	<g>
		<g>
			<path class="st9" d="M157.9992,63.6986c-7.2412-2.32-13.3285-7.2054-20.4521-9.8471c-4.5842-1.7-9.1671-3.4034-13.7468-5.1156
				c-3.9653-1.4824-7.9568-2.9098-11.8999-4.4506c-1.7971-0.7022-3.4752-1.4624-5.4201-1.7596
				c-3.8212-0.584-7.714-0.2333-11.5471-0.7822c-0.7607-0.1089-1.1192,1.0135-0.3271,1.1865
				c3.5868,0.7834,7.2701,0.3624,10.8965,0.766c2.1864,0.2433,4.042,1.0735,6.055,1.8329
				c3.9619,1.4946,7.9344,2.9622,11.9035,4.4373c4.5822,1.703,9.1683,3.3955,13.7543,5.0882
				c7.1065,2.623,13.2355,7.3392,20.5766,9.3955C158.2775,64.586,158.475,63.851,157.9992,63.6986L157.9992,63.6986z"/>
		</g>
	</g>
	<g>
		<g>
			<path class="st9" d="M98.4219,46.6882c-1.1228,1.247-3.6507,0.6503-4.8461,1.9123c-0.1895,0.2001-0.2226,0.5623,0,0.758
				c2.2584,1.9859,6.1901,0.5105,8.6282-0.3748c0.9972-0.3621,2.4741-1.1574,3.4726-0.3728
				c1.5846,1.245-0.6237,2.4853-1.6776,3.1621c-1.4166,0.9098-1.8326,1.8313-1.8311,3.4858
				c0.0006,0.6572,0.8196,0.7975,1.1624,0.3148c1.255-1.7671,3.6959-1.7036,5.5273-2.4761
				c1.5736-0.6637,2.8384-1.5276,4.5411-1.9052c0.7234-0.1604,0.402-1.1991-0.3006-1.0905
				c-2.3337,0.3606-4.1194,1.746-6.3675,2.3723c-1.7937,0.4997-3.3569,0.8939-4.4775,2.4698
				c0.3875,0.1049,0.7749,0.2099,1.1624,0.3148c-0.001-2.9286,3.6737-2.6744,4.2113-5.2342
				c0.2303-1.0965-0.3955-1.949-1.3309-2.4731c-1.5142-0.8484-2.8816-0.297-4.4139,0.2641
				c-1.9725,0.7223-5.6964,2.3329-7.5481,0.7849c0,0.2527,0,0.5054,0,0.758c1.1077-1.2296,3.6036-0.7516,4.6806-2.0778
				C99.3477,46.8702,98.7887,46.2808,98.4219,46.6882L98.4219,46.6882z"/>
		</g>
	</g>
	<g>
		<g>
			<path class="st9" d="M94.6583,45.2652c-0.5866,0.1071-1.3161,0.1165-1.947,0.2117c-0.5913,0.0892-1.4062,0.1103-1.9364,0.4226
				c-1.4387,0.8476,0.8749,2.4298,1.7741,2.4474c0.5362,0.0105,0.8031-0.808,0.2854-1.0537
				c-0.3828-0.1816-0.7191-0.4912-1.1012-0.6639c-0.0569-0.0257-0.134-0.1724-0.1827-0.1687
				c-0.0707,0.1787-0.1415,0.3574-0.2122,0.536c0.0307-0.0101,0.0618-0.0191,0.0931-0.0272
				c0.1156,0.0375,0.5151-0.117,0.6313-0.1406c0.9619-0.1956,2.0482-0.309,2.9185-0.7979
				C95.4165,45.7863,95.1062,45.1834,94.6583,45.2652L94.6583,45.2652z"/>
		</g>
	</g>
	<g>
		<g>
			<path class="st9" d="M97.8469,43.6975c-2.3998-0.558-4.8996-0.4954-7.3384-0.7627c-0.5135-0.0563-0.715,0.5586-0.5371,0.936
				c0.2008,0.426,0.3644,0.8111,0.6544,1.181c0.3429,0.4374,1.147-0.0372,0.9451-0.5501c-0.1669-0.4239-0.3321-0.8462-0.5252-1.2588
				c-0.179,0.312-0.3581,0.624-0.5371,0.936c2.3942,0.2688,4.8205,0.3596,7.2271,0.3415
				C98.198,44.517,98.3173,43.8069,97.8469,43.6975L97.8469,43.6975z"/>
		</g>
	</g>
	<g>
		<g>
			<path class="st9" d="M85.299,112.7713c0.5071-1.1832,0.9471-2.3925,1.3596-3.6116c0.0788-0.2329-0.0911-0.5304-0.3307-0.5824
				c-1.1979-0.2601-2.396-0.5192-3.5942-0.7776c0.1079,0.2652,0.2157,0.5303,0.3236,0.7955
				c0.4926-1.1373,0.9737-2.2791,1.4537-3.4217c-0.2379,0.1351-0.4759,0.2702-0.7138,0.4053
				c1.1708,0.2304,2.3418,0.4596,3.5138,0.6842c0.1929,0.037,0.4473,0.0178,0.5809-0.1536
				c0.7282-0.9338,1.0891-2.2919,1.5408-3.3862c0.1219-0.2954-0.1342-0.6718-0.421-0.7415
				c-1.0314-0.2507-2.0628-0.5015-3.0942-0.7522c0.1416,0.2494,0.2832,0.4987,0.4247,0.7481
				c0.3812-1.1489,0.7582-2.2992,1.1363-3.4491c-0.2486,0.1412-0.4972,0.2823-0.7458,0.4235
				c0.9813,0.2408,1.9626,0.4816,2.9438,0.7223c0.3343,0.082,0.6294-0.1066,0.7418-0.4212
				c0.9518-2.6621,1.9517-5.3016,2.9519-7.9454c0.2944-0.7782,0.7963-3.375,1.4966-3.8813
				c0.3747-0.2709,2.9777,0.5324,3.7708,0.7607c1.7535,0.5048,3.5359,1.0759,5.1974,1.8331
				c3.6171,1.6486,6.0935,4.1694,4.9636,8.457c-1.1576,4.3928-4.6945,5.3714-8.7928,5.2678
				c-1.9698-0.0498-3.7433-0.859-5.6352-1.0149c-0.5456-0.045-1.0592,0.0375-1.4578,0.4154
				c-0.8068,0.7649-1.1592,2.5853-1.5287,3.6086c-0.1301,0.3604,0.148,0.8451,0.5218,0.919c1.9103,0.3778,3.82,0.7606,5.734,1.119
				c-0.1739-0.3063-0.3479-0.6127-0.5218-0.919c-0.2221,1.1155-0.7425,2.1214-0.985,3.2314
				c0.3063-0.1739,0.6127-0.3479,0.919-0.5218c-1.9539-0.4012-3.8946-0.8744-5.8361-1.3314
				c-0.4304-0.1013-0.7587,0.1361-0.919,0.5218c-0.5264,1.267-1.2126,2.5629-1.571,3.8886c0.3063-0.1739,0.6127-0.3479,0.919-0.5218
				c-0.9542-0.2047-1.8706-0.527-2.8167-0.7538c-0.5444-0.1305-1.2811-0.0409-1.7693-0.2043
				c-0.491-0.1643-0.7016,0.6107-0.2134,0.7741c0.4121,0.1379,0.8784,0.6001,1.319,0.7879
				c0.9533,0.4064,2.0741,0.6203,3.0831,0.8368c0.3932,0.0844,0.8087-0.1137,0.919-0.5218c0.3584-1.3257,1.0441-2.6202,1.571-3.8886
				c-0.3063,0.1739-0.6127,0.3479-0.919,0.5218c1.9415,0.457,3.8822,0.9302,5.8361,1.3314c0.3787,0.0778,0.8283-0.1065,0.919-0.5218
				c0.2426-1.1105,0.7627-2.1151,0.985-3.2314c0.0736-0.3698-0.1024-0.8404-0.5218-0.919c-1.914-0.3584-3.8237-0.7412-5.734-1.119
				c0.1739,0.3063,0.3479,0.6127,0.5218,0.919c0.2352-0.6515,0.5949-2.5086,1.1289-2.863c0.4505-0.2989,1.8307,0.4111,2.3771,0.5285
				c0.9185,0.1973,1.8603,0.3125,2.7968,0.3729c3.1565,0.2038,6.6165,0.0438,8.9826-2.3396
				c2.0051-2.0197,2.8672-5.4405,2.2507-8.191c-0.6704-2.9913-3.1508-4.6829-5.7952-5.8894
				c-1.5557-0.7098-3.1989-1.2389-4.8341-1.7318c-1.2114-0.3651-4.0956-1.43-5.3557-0.8612
				c-0.8673,0.3915-1.0075,1.2792-1.3413,2.1643c-1.3227,3.5072-2.5101,7.0645-3.7795,10.5913
				c0.2473-0.1404,0.4946-0.2808,0.7418-0.4212c-0.9807-0.2429-1.9614-0.4857-2.9421-0.7286
				c-0.3302-0.0818-0.6405,0.1053-0.7458,0.4235c-0.3806,1.1492-0.7623,2.2979-1.1398,3.4481
				c-0.1,0.3047,0.1166,0.6742,0.4247,0.7481c1.0323,0.2473,2.0647,0.4946,3.097,0.742c-0.1403-0.2472-0.2807-0.4943-0.421-0.7415
				c-0.1764,0.4315-0.3546,0.8624-0.5364,1.2917c-0.25,0.5903-0.8743,1.5726-0.3035,1.3798
				c-0.7261,0.2453-2.5298-0.4691-3.3245-0.6145c-0.3369-0.0616-0.5871,0.092-0.7139,0.4053
				c-0.4461,1.1026-0.8905,2.2055-1.3243,3.313c-0.1001,0.2556,0.1117,0.6185,0.3782,0.6661
				c1.056,0.1888,2.1443,0.4922,3.2122,0.5723c0.3032,0.0227,0.3851,0.2128,0.2018-0.1718
				c-0.2623-0.5504-0.2516,0.248-0.3581,0.4695c-0.4095,0.8518-0.5955,1.8606-0.9363,2.7481
				C84.4039,112.8824,85.1198,113.1894,85.299,112.7713z"/>
		</g>
	</g>
	<g>
		<g>
			<path class="st9" d="M95.3184,100.4531c1.0121-1.946,1.6994-4.0349,2.1264-6.1788c0.259-1.3003,0.5448-1.7538,1.932-1.6026
				c0.9152,0.0998,1.9958,0.4578,2.8166,0.8495c2.923,1.3949,2.3637,5.398-0.5647,6.3635
				c-1.8975,0.6256-3.9084,0.2751-5.7961-0.1651c-0.9212-0.2148-1.2575,1.0834-0.3863,1.4012
				c2.3988,0.8751,5.7164,0.9441,7.9532-0.4123c2.3638-1.4334,2.981-5.0254,1.2348-7.2077
				c-0.8713-1.0888-2.3281-1.5714-3.6266-1.9097c-0.9726-0.2533-2.6187-0.853-3.5818-0.2966
				c-0.9005,0.5202-1.0705,1.9494-1.2584,2.863c-0.4167,2.0266-1.2384,3.9007-1.8772,5.8621
				C94.0942,100.6218,95.0234,101.0203,95.3184,100.4531L95.3184,100.4531z"/>
		</g>
	</g>
	<g>
		<g>
			<path class="st16" d="M100.8013,50.3908c3.2658,4.0172,8.3432,7.563,13.1876,9.3504c0.8117,0.2995,1.3179-0.9685,0.5824-1.3815
				c-2.1943-1.2321-4.4358-2.3246-6.5309-3.7304c-2.2776-1.5283-4.277-3.3555-6.3981-5.0795
				C101.0458,49.0649,100.3159,49.7938,100.8013,50.3908L100.8013,50.3908z"/>
		</g>
	</g>
	<g>
		<g>
			<path class="st16" d="M82.3168,34.5229c2.6434,3.2485,6.0377,6.1768,9.6757,8.2581c0.7435,0.4254,1.3316-0.6465,0.6595-1.1282
				c-3.4118-2.445-6.5156-5.0141-9.5065-7.9585C82.5964,33.1538,81.8499,33.9492,82.3168,34.5229L82.3168,34.5229z"/>
		</g>
	</g>
	<g>
		<g>
			<path class="st16" d="M104.524,43.1528c3.1467-1.1448,6.2362-2.6789,9.1948-4.2382c0.6118-0.3224,0.1788-1.4189-0.4808-1.1406
				c-3.0861,1.3022-6.2375,2.705-9.1203,4.4149C103.6209,42.4836,103.9456,43.3632,104.524,43.1528L104.524,43.1528z"/>
		</g>
	</g>
	<g>
		<g>
			<path class="st16" d="M79.9172,54.1779c2.1554-0.5378,4.1791-1.6453,6.2429-2.4617c2.0924-0.8278,4.2172-1.5679,6.3242-2.3569
				c0.8112-0.3038,0.4968-1.5767-0.3645-1.3221c-4.0714,1.2034-9.1196,2.7578-12.5434,5.3322
				C79.1938,53.657,79.3983,54.3074,79.9172,54.1779L79.9172,54.1779z"/>
		</g>
	</g>
	<g>
		<g>
			<path class="st16" d="M113.6619,60.8949c-0.6768,5.4269-0.8037,10.9554-1.1279,16.4127
				c-0.3249,5.4684-0.6478,10.9376-0.8328,16.4127c-0.0247,0.7307,1.0684,0.7133,1.125,0
				c0.434-5.4646,0.7309-10.9389,1.0254-16.4127c0.2933-5.4515,0.793-10.9518,0.7303-16.4127
				C114.5749,60.2862,113.7332,60.3237,113.6619,60.8949L113.6619,60.8949z"/>
		</g>
	</g>
	<g>
		<g>
			<path class="st16" d="M78.9463,57.5615c-0.2167,16.0621,0.3428,32.1773,1.1711,48.2164c0.0315,0.6104,0.9757,0.6175,0.9551,0
				C80.5356,89.7076,80.276,73.6321,79.79,57.5615C79.7737,57.0197,78.9536,57.0168,78.9463,57.5615L78.9463,57.5615z"/>
		</g>
	</g>
	<g>
		<g>
			<path class="st16" d="M82.4146,36.5313c-0.0326,4.1894-0.0866,8.3777-0.0469,12.5673c0.006,0.6334,0.9784,0.6344,0.9844,0
				c0.0397-4.1896-0.0143-8.3779-0.0469-12.5673C83.3007,35.9582,82.419,35.9573,82.4146,36.5313L82.4146,36.5313z"/>
		</g>
	</g>
	<g>
		<g>
			<path class="st16" d="M82.2653,54.74c-0.36,12.7038,0.1084,25.5146,0.422,38.2178c0.0178,0.7223,1.129,0.7262,1.125,0
				c-0.0702-12.7086,0.0103-25.529-0.7325-38.2178C83.0493,54.2194,82.2802,54.2123,82.2653,54.74L82.2653,54.74z"/>
		</g>
	</g>
	<g>
		<g>
			<path class="st16" d="M109.1296,61.1532c-0.6344,8.8413-1.9891,17.6873-1.7433,26.5668c0.0179,0.647,1.0055,0.6507,1.0078,0
				c0.0169-4.8502,0.3469-9.685,0.8019-14.512c0.3755-3.9836,0.9747-8.046,0.8067-12.0548
				C109.979,60.5879,109.1697,60.5952,109.1296,61.1532L109.1296,61.1532z"/>
		</g>
	</g>
	<g>
		<g>
			<path class="st16" d="M111.2977,40.3901c-0.0947,0.8544-0.1879,1.6921-0.1908,2.5538c-0.0022,0.6482,0.9012,0.6056,0.9785,0
				c0.109-0.854,0.1266-1.6957,0.1439-2.5538C112.2417,39.7777,111.3622,39.8083,111.2977,40.3901L111.2977,40.3901z"/>
		</g>
	</g>
</g>
</svg>
