<?xml version="1.0" encoding="utf-8"?>
<!-- Generator: Adobe Illustrator 20.1.0, SVG Export Plug-In . SVG Version: 6.00 Build 0)  -->
<svg version="1.1" xmlns="http://www.w3.org/2000/svg" xmlns:xlink="http://www.w3.org/1999/xlink" x="0px" y="0px"
	 viewBox="0 0 640 398" enable-background="new 0 0 640 398" xml:space="preserve">
<g id="back">
	<g>
		<g>
			<path fill="#F7FAFC" d="M380.9692,397.2592c-4.9263,0.001-9.8413-1.8105-13.6772-5.4053
				c-7.1455-6.6963-14.644-13.7197-22.3721-20.9541c-1.2124,3.833-3.4653,7.2266-6.5967,9.8535
				c-6.6792,5.6035-15.9971,6.1211-23.1362,1.8369c-4.146,2.8184-13.5308,6.9854-25.7305-1.1846
				c-1.0347,1.5596-2.3071,2.998-3.8135,4.2627c-6.8813,5.7773-18.4512,7.1455-27.2524-1.4131l-6.3604-6.2256
				c-0.3032-0.2969-0.6128-0.6006-0.915-0.8965c-0.9766,4.1885-3.2861,7.9805-6.6211,10.7783
				c-3.6357,3.0508-11.5176,7.6445-23.4541,4.1455c-3.9102-1.1465-8.1919-3.1514-13.0894-6.1289
				c-2.8384-1.7256-5.9429-3.8096-9.3438-6.2744c-1.062,1.6211-2.3633,3.0947-3.877,4.3652
				c-4.1943,3.5195-9.5254,5.1689-15.0103,4.6641c-1.79-0.167-3.4546-0.5381-5.042-1.0957c-1.9917-0.1006-3.9668-0.498-5.856-1.1865
				c-3.4487,0.1035-7.4116-0.6689-11.7056-3.167c-4.2129,0.4844-8.9756-0.3486-13.8696-3.3613
				c-1.0889-0.6709-2.3516-1.5273-3.9727-2.6973c-2.4766-1.7871-5.8301-4.333-10.2524-7.7852
				c-5.082-3.9658-11.625-9.1699-19.5356-15.5381c-0.9111,1.2324-1.9785,2.3779-3.2007,3.4092
				c-8.4429,7.123-21.0601,6.0498-28.1807-2.3936c0,0-18.1963-21.5742-36.3882-43.1982
				c-9.1035-10.8213-18.2061-21.6553-25.0303-29.8096c-3.4346-4.1035-6.2954-7.5322-8.2969-9.9482
				c-4.666-5.6318-8.3516-10.0801-7.6387-18.3213c0.4575-5.293,3.0034-10.1875,7.0747-13.6016
				c1.8506-1.5518,4.1333-2.832,6.668-3.6543C3.1152,220.3754,0.834,212.6439,1.1899,205.4652
				c0.3052-6.1504,2.9404-11.6797,7.4341-15.6279c1.2251-2.8408,3.1045-5.3867,5.5205-7.4102
				c0.1509-0.127,0.3042-0.251,0.4595-0.373c0.8521-1.0723,1.8184-2.0654,2.8916-2.9658c0.5381-0.4521,1.0972-0.873,1.6743-1.2617
				c0.4565-0.458,0.9365-0.8984,1.438-1.3193c8.1504-6.8408,20.23-6.0996,27.4844,1.6846c0.0459,0.0488,0.623,0.668,1.6777,1.793
				c0.002-0.5928,0.0283-1.2021,0.0796-1.8311c0.4341-5.3271,3.0063-10.3125,7.1011-13.748
				c2.7734-2.3262,12.8726-9.2246,26.4087-0.3281c1.9966,1.3115,4.3447,3.0791,7.3911,5.5615
				c4.4287,3.6084,10.2314,8.6514,17.6836,15.3701c1.1504-1.9736,2.6411-3.7549,4.4253-5.251
				c2.0879-1.7529,13.2036-9.9639,26.9873,0.4365c1.0977,0.8281,2.333,1.8389,3.7915,3.1035c1-1.4365,2.1929-2.7471,3.5571-3.8916
				c1.2319-1.0342,5.4834-4.2158,11.522-4.6514c0.9922-1.417,2.1733-2.7119,3.5229-3.8447
				c4.2153-3.5371,10.3247-5.5938,16.6855-4.3223c-0.2319-1.6172-0.2979-3.1748-0.2188-4.6982
				c0.3325-6.4053,3.1611-12.1523,7.9639-16.1826c3.4712-2.9121,7.6558-4.4502,11.876-4.6543
				c-3.8521-7.5898-2.5342-17.0879,3.8525-23.3389c3.2539-3.1846,7.3223-5.0361,11.5229-5.5547
				c-5.4004-8.2256-4.0298-19.3516,3.5474-25.9951c2.2202-1.9473,4.7534-3.3154,7.4121-4.1152
				c-0.8911-2.4424-1.3799-5.2246-1.1084-8.4629c0.4453-5.3115,3.0054-10.2559,7.0894-13.6816
				c2.2256-1.8662,4.7466-3.1699,7.3838-3.918c-0.0054-0.5586,0.0059-1.1074,0.0322-1.6475
				c0.3335-6.9199,3.3179-13.0801,8.4028-17.3467c1.3594-1.1416,4.4067-3.3291,8.749-4.3623
				c1.0449-3.9609,3.292-7.541,6.4819-10.2178c4.5112-3.7861,11.3159-5.8896,18.3179-3.9316c1.0679-3.668,3.1968-7.0703,6.3428-9.71
				c2.377-1.9941,9.6035-6.9316,19.6997-3.7852c8.1348-6.373,19.9033-5.5098,27.0098,2.1836
				c0.1235,0.1338,3.0303,3.2793,8.1235,8.7686c1.0596-2.2393,2.5557-4.3184,4.4829-6.1045
				c8.0483-7.4619,20.6069-7.043,28.1401,0.9404c3.7031,3.9238,7.5098,7.9541,11.4165,12.0869
				c0.7427-0.8838,1.5625-1.707,2.4536-2.4541c5.6147-4.7129,14.2231-6.4736,21.9873-2.4482
				c4.0186,0.6914,7.855,2.6123,10.9033,5.7334c7.6357,7.8174,15.3638,15.7119,23.1221,23.6201
				c1.0034-1.4453,2.2012-2.7637,3.5728-3.9141c3.2847-2.7578,12.3535-8.4824,25.5654-2.1279
				c3.1323,1.5068,6.5562,3.6768,10.7759,6.8281c6.1797,4.6162,14.2007,11.4658,24.521,20.9424
				c0.9565,0.8779,1.9219,1.7686,2.8989,2.6748c4.4185-3.5771,10.0288-5.2344,15.834-4.6904
				c5.2676,0.5,10.7026,2.0635,21.6836,11.4746c4.2324,0.8281,8.228,3.0244,11.269,6.5381
				c0.1782,0.2051,18.0215,20.8262,35.6123,41.4629c10.3667,12.1621,18.6323,21.9658,24.5669,29.1387
				c12.7949,15.4658,16.2339,19.623,15.5254,28.502c-0.1196,1.5049-0.4102,2.9814-0.8564,4.4033
				c6.853,8.457,5.6851,20.8809-2.6865,27.9053c-2.4829,2.084-5.8032,3.792-9.6494,4.4648l5.8662,6.9912
				c7.0991,8.4609,5.9956,21.0742-2.4648,28.1738c-1.4883,1.249-4.9521,3.707-9.8374,4.4746
				c0.0215,0.8262,0.001,1.6406-0.0503,2.458c-0.3804,6.0439-3.0972,11.4775-7.6504,15.2979
				c-1.3652,1.1455-2.8389,2.0781-4.3804,2.7998c-4.397,2.9678-10.8125,4.7578-17.6743,2.4961
				c-1.2095,2.1221-2.7959,4.0303-4.7173,5.6426c-3.3843,2.8389-12.2046,8.2793-24.7749,1.8027
				c-1.23,2.7539-3.0747,5.2256-5.4194,7.1924c-1.9624,1.6465-7.2129,5.3125-14.5142,4.7656
				c-0.4404,0.4814-0.9087,0.9463-1.4038,1.3916c-3.729,3.3516-8.3818,5.0479-13.0439,5.1221
				c-1.1001,5.4531-3.897,10.2461-8.0977,13.7705c-1.1211,0.9414-3.396,2.5967-6.626,3.7393
				c-0.5488,4.3037-2.4956,8.46-5.8335,11.7334c-3.3726,3.3076-7.6177,5.1777-11.9785,5.6191
				c0.0161,0.7061-0.0049,1.417-0.0645,2.1279c-0.4448,5.3105-2.9912,10.2246-7.0737,13.6504
				c-2.2559,1.8936-6.9346,4.9258-13.5337,4.8613c-0.6592,4.3418-2.7456,8.4912-6.2109,11.6885
				c-6.6611,6.1445-16.4243,6.9277-23.8735,2.4395c-1.2334,4.0049-3.5591,7.543-6.8052,10.2666
				c-3.3516,2.8125-12.6138,8.6191-26.2227,1.8096c-2.2461-1.123-4.6646-2.585-7.4263-4.4951
				c-1.2656,2.1963-2.9155,4.1719-4.9126,5.8467C390.0952,395.7074,385.5273,397.2592,380.9692,397.2592z"/>
		</g>
	</g>
	<g>
		<g>
			<path fill="#F2F6F9" d="M419.9434,376.3754c-4.0439,0-8.1211-1.2324-11.7148-3.7178c-0.8867-0.6143-1.7446-1.2988-2.7007-2.1562
				c-0.9409-0.8438-2.0552-1.9258-3.5063-3.4053c-0.0503-0.0518-0.1011-0.1035-0.1523-0.1553
				c-0.7866,0.9629-1.6675,1.8574-2.6338,2.6689c-4.9277,4.1348-11.2935,5.9678-17.9263,5.1631
				c-2.0308-0.2461-4.187-0.6895-6.6772-1.6328c-5.3286-0.7432-11.147-3.0449-17.4302-6.9043
				c-6.7915-4.1709-15.1421-10.5264-25.5293-19.4287c-1.1699-1.0029-2.3672-2.04-3.5889-3.1074
				c-7.1675,4.2148-16.3647,3.5928-22.9321-1.8789l-22.7568-18.957c-0.8325,1.0508-1.7754,2.0234-2.8184,2.8984
				c-4.3496,3.6494-13.6992,8.583-27.4536,0.6094c-3-1.7393-6.625-4.249-11.0825-7.6729c-0.3735-0.2861-0.7534-0.5801-1.1401-0.8809
				c-7.3887,2.1641-15.689-0.0654-20.9536-6.3418c-1.4546-1.7344-2.5645-3.6426-3.3369-5.6416
				c-4.8911-6.6416-22.0229-26.0996-36.5034-41.8682c-6.6519-7.2441-6.9736-18.1113-1.1377-25.7012
				c-4.1855-6.3789-6.0747-11.4844-5.7129-17.2559c0.3521-5.6113,3.0044-10.8857,7.2778-14.4717
				c2.3545-1.9756,5.0508-3.3262,7.8726-4.0498c-7.937-8.9219-11.54-13.9082-11.0225-22.1182
				c0.3447-5.4619,2.9404-10.6094,7.1323-14.1279c2.8047-2.3535,6.0742-3.8086,9.4502-4.3896
				c-4.6099-6.2305-7.272-9.8701-7.3721-10.0068c-4.7524-6.5039-5.0137-14.9463-1.3052-21.5752
				c1.1646-3.625,3.332-6.8984,6.2656-9.3594c1.9585-1.6436,4.8369-3.4834,8.6104-4.418c0.6914-5.5811,3.3701-10.5596,7.645-14.1465
				c3.5469-2.9766,7.8345-4.5156,12.1426-4.667c1.2266-2.7168,3.0552-5.1523,5.3799-7.1016
				c4.3105-3.6162,9.7261-5.1123,14.9478-4.5654c1.2192-2.9971,3.1567-5.6875,5.6768-7.8027
				c2.2432-1.8818,4.7896-3.2979,7.5288-4.2139c0.5347-0.6279,1.1133-1.2285,1.7368-1.7998
				c2.6485-2.4248,5.7739-4.0039,9.0435-4.749c1.1987-2.2744,2.8345-4.3203,4.8379-6.002c1.9526-1.6387,4.1455-2.9023,6.4941-3.7676
				c0.8218-1.0293,1.75-1.9834,2.7749-2.8428c2.7021-2.2676,5.8711-3.8154,9.2749-4.5723c0.8428-1.0713,1.7959-2.0596,2.8477-2.9424
				c1.6123-1.3525,3.3765-2.4072,5.2241-3.1699c2.1348-1.4131,4.5122-2.3965,6.9976-2.9082
				c5.9297-4.8311,13.9146-5.7334,20.6055-2.8252c1.0552-1.5576,2.3242-2.9736,3.7798-4.1953
				c5.8115-4.876,13.6064-5.8916,20.2256-3.2754c6.3857-3.7979,14.3892-3.7168,20.6846,0.1582
				c4.3242-2.9727,9.5444-4.2607,14.9209-3.6602c0.7051,0.0791,1.4067,0.1865,2.1104,0.3262
				c3.2788,0.0635,6.6997,0.96,10.0156,2.958c3.1309-1.1377,6.5293-1.582,9.9971-1.2705
				c6.9629,0.6211,13.9536,4.0801,23.9688,12.9805c4.2656-1.3887,10.1406-1.7959,17.1128,1.6377
				c2.0952,1.0322,4.3984,2.4316,7.248,4.4053c4.1421,2.8682,9.5205,7.0107,16.4419,12.6641
				c2.624,2.1426,5.4673,4.502,8.5249,7.0732c8.0527-6.1348,19.5059-5.292,26.5679,2.0996l8.7446,9.1514
				c5.02,0.4951,9.8569,2.8789,13.355,7.0488c0.9956,1.1865,1.8296,2.4541,2.5044,3.7783
				c3.8154,4.9531,17.1025,20.1641,25.2788,29.5234c5.3467,6.1211,10.3965,11.9014,14.1646,16.3076
				c7.3887,8.6377,11.459,13.3965,10.7866,22.0908c-0.0347,0.4463-0.084,0.8896-0.1479,1.3291
				c4.8721,7.7393,3.9146,18.0449-2.769,24.7539c-2.0625,2.0703-4.4707,3.5967-7.0415,4.5752
				c9.1436,10.6172,12.6489,16.6514,12.1934,24.665c-0.2231,3.9229-1.5776,7.6836-3.833,10.8213
				c3.6108,7.1016,4.4487,11.9053,4.1992,16.4922c-0.1997,3.6758-1.2393,7.1279-3.0142,10.1455
				c1.436,4.5205,1.209,9.416-0.603,13.7666c-0.6875,4.7666-3.0752,9.1357-6.7378,12.292
				c-0.4199,6.6797-3.3584,12.623-8.3052,16.7734c-0.3188,0.2676-0.6494,0.5264-0.9902,0.7764
				c-1.1543,4.585-3.666,8.6377-7.3022,11.6885c-2.0269,1.7012-4.2988,2.9336-6.6797,3.7061
				c0.0518,0.9414,0.0371,1.8896-0.0459,2.8398c-0.4624,5.2842-3.0049,10.167-7.0679,13.5762
				c-0.6934,0.582-1.417,1.1152-2.1675,1.5986c-1.0103,1.6787-2.2856,3.2344-3.8223,4.6064
				c-0.5464,0.4873-1.1133,0.9404-1.6958,1.3574c-0.5083,0.5332-1.0479,1.04-1.6177,1.5186
				c-2.3882,2.0039-5.1475,3.4004-8.0923,4.1309c-1.0122,1.4326-2.2158,2.7432-3.5947,3.9004
				c-2.6133,2.1934-5.751,3.668-9.0625,4.3193c-0.3887,0.377-0.7925,0.7412-1.2114,1.0928
				c-4.0708,3.415-9.1226,4.9346-14.061,4.6416c-0.6494,0.7217-1.3535,1.4023-2.1099,2.0361
				c-3.5776,3.002-8.0732,4.6416-12.6948,4.6787c-5.8989,4.5166-13.6392,5.2793-20.1401,2.4492
				c-1.0698,1.6484-2.3862,3.1445-3.9189,4.4307c-2.5083,2.1045-10.6343,7.6572-21.8979,2.8652
				c-0.5435,0.5654-1.1206,1.1045-1.7295,1.6162C429.0591,374.7934,424.5229,376.3744,419.9434,376.3754z"/>
		</g>
	</g>
</g>
<g id="Layer_2">
</g>
</svg>
