<?xml version="1.0" encoding="utf-8"?>
<!-- Generator: Adobe Illustrator 20.1.0, SVG Export Plug-In . SVG Version: 6.00 Build 0)  -->
<svg version="1.1" xmlns="http://www.w3.org/2000/svg" xmlns:xlink="http://www.w3.org/1999/xlink" x="0px" y="0px"
	 viewBox="0 0 212 36" enable-background="new 0 0 212 36" xml:space="preserve">
<g id="back">
</g>
<g id="Layer_2">
	<g>
		<path fill="#FFFFFF" d="M1.8178,34.3363c14.4424-0.6181,31.3945,0.5125,45.9997-0.0837
			c15.8611-0.6475,31.7174-0.5065,47.5939-0.666c22.3506-0.2245,44.6964,0.0138,67.0604-0.0245
			c15.9762-0.0274,31.8243,0.0257,47.776,0.421c-0.2409-9.9718-0.4818-22.4436-0.7227-32.4154
			c-19.8545,1.3471-39.4727,0.5449-59.3896,0.4522c-10.9871-0.0512-21.3683-0.9451-32.3005-0.046
			C97.0952,3.6794,76.0373,3.1921,55.2061,3.518C37.8738,3.7892,19.9768,3.2,2.6241,2.8216
			C3.615,12.8507,1.3454,24.1863,1.8178,34.3363z"/>
		<g>
			<path fill="#303030" d="M1.8178,35.0775c12.6886-0.4806,25.3837,0.2148,38.075,0.1495
				c13.5459-0.0698,27.0886-0.6518,40.6396-0.7165c27.6472-0.132,55.2906-0.0708,82.9378-0.1058
				c15.5937-0.0197,31.1879,0.0479,46.7776,0.4297c0.4523,0.0111,0.8622-0.3991,0.8514-0.8514
				c-0.2577-10.8047-0.4585-21.6107-0.7188-32.4154c-0.0106-0.4392-0.3839-0.8866-0.8554-0.8554
				c-27.0549,1.7899-54.1433-0.0414-81.2132,0.0078c-6.5989,0.012-13.1483,0.6678-19.7318,1.022
				c-6.6824,0.3596-13.3731,0.5383-20.0639,0.6376C75.1614,2.5778,61.7957,2.6735,48.4397,2.7239
				C33.1643,2.7815,17.8939,2.2977,2.6241,1.9608C2.1889,1.9512,1.7225,2.364,1.7633,2.8216
				c0.9391,10.516-1.2131,20.9929-0.801,31.5148c0.043,1.0973,1.7535,1.103,1.7109,0C2.2676,23.8139,4.425,13.3386,3.4848,2.8216
				C3.1979,3.1085,2.911,3.3954,2.6241,3.6823c27.0118,0.5934,53.9707,0.7404,80.9884,0.4708
				c6.6961-0.0668,13.3923-0.1887,20.0833-0.4671c6.6338-0.276,13.2484-0.9638,19.8818-1.1802
				c13.116-0.4279,26.3446,0.3234,39.4673,0.4982c15.4972,0.2065,31.0043,0.44,46.4802-0.5812
				c-0.2851-0.2851-0.5703-0.5702-0.8554-0.8554c0.2584,10.8048,0.4656,21.6107,0.7266,32.4154
				c0.2838-0.2838,0.5676-0.5676,0.8514-0.8514c-27.752-0.6712-55.5253-0.4159-83.2833-0.4693
				c-27.5502-0.053-55.0851,0.2227-82.6244,0.8948c-14.1736,0.3459-28.3518-0.568-42.5222,0.038
				C0.8679,33.6357,0.8615,35.1137,1.8178,35.0775z"/>
		</g>
	</g>
</g>
</svg>
