<?xml version="1.0" encoding="utf-8"?>
<!-- Generator: Adobe Illustrator 20.1.0, SVG Export Plug-In . SVG Version: 6.00 Build 0)  -->
<svg version="1.1" xmlns="http://www.w3.org/2000/svg" xmlns:xlink="http://www.w3.org/1999/xlink" x="0px" y="0px"
	 viewBox="0 0 212 36" enable-background="new 0 0 212 36" xml:space="preserve">
<g id="back">
</g>
<g id="Layer_2">
	<g>
		<path fill="#FFFFFF" d="M2.752,34.0608c0.6859,0.4396,75.501-0.0053,111.3179-0.2297c12.4458-0.078,24.8982,0.3438,37.3235-0.3743
			c19.6369-1.1348,35.0921,2.0484,58.8804-0.5986c-0.1958-9.1786-0.3915-21.8571-0.5872-31.0357
			c-24.6842,2.6029-42.3675,0.9748-63.6803,0.278C99.0828,0.5665,50.5581,4.127,1.7397,3.6572
			C1.7397,3.6572,1.5311,33.2783,2.752,34.0608z"/>
		<g>
			<path fill="#303030" d="M2.3779,34.7008c1.2601,0.5511,3.2581,0.2406,4.5833,0.2639c3.9216,0.0689,7.8442,0.0486,11.7657,0.1142
				c12.54,0.2099,25.0921,0.037,37.6333-0.0186c14.0531-0.0623,28.1062-0.1407,42.1592-0.2252
				c17.2784-0.1039,34.6377,0.4814,51.893-0.4173c19.9839-1.0407,39.8966,1.511,59.8615-0.6534
				c0.4791-0.0519,0.9175-0.3731,0.9062-0.9062c-0.2181-10.3448-0.3678-20.6909-0.5859-31.0357
				c-0.0096-0.4525-0.4097-0.9591-0.9076-0.9076c-25.0953,2.5978-50.0712,0.4315-75.203,0.0217
				C106.4535,0.4795,78.429,1.5311,50.4118,2.221C34.1909,2.6205,17.9659,2.8979,1.7397,2.7478
				C1.2455,2.7433,0.8337,3.1682,0.8303,3.6572C0.7934,8.8792,0.81,14.1028,0.8865,19.3244
				c0.0503,3.4314-0.0521,6.9621,0.3448,10.3746c0.1381,1.1872,0.1939,3.805,1.1769,4.7057
				c0.4608,0.4222,1.1505-0.2638,0.6878-0.6878c-0.7086-0.6493-0.1056-4.7332-0.1475-5.6402
				c-0.1578-3.4204-0.2161-6.8458-0.2582-10.2693C2.6324,13.0912,2.6174,8.3737,2.649,3.6572
				C2.3459,3.9603,2.0428,4.2635,1.7397,4.5666c28.7096,0.255,57.4013-0.8605,86.098-1.5251
				c13.9394-0.3228,27.8836-0.5354,41.8269-0.3968c12.5593,0.1248,25.0923,0.7325,37.6414,1.1831
				c14.1634,0.5086,28.2719,0.3641,42.3807-1.0976c-0.3025-0.3025-0.6051-0.6051-0.9076-0.9076
				c0.219,10.3448,0.3696,20.6909,0.5886,31.0357c0.3021-0.3021,0.6041-0.6041,0.9062-0.9062
				c-17.6976,1.9202-35.2327,0.0422-52.9472,0.3748c-10.1716,0.191-20.3003,0.6849-30.4824,0.6265
				c-7.7242-0.0443-15.4464-0.0131-23.1704,0.0337c-26.655,0.1613-53.31,0.2725-79.9652,0.3721
				c-4.9374,0.0185-9.8727,0.0975-14.8108,0.076c-1.5307-0.0067-4.9027,0.3519-5.9488-0.089
				C2.1824,33.0229,1.6089,34.3644,2.3779,34.7008z"/>
		</g>
	</g>
</g>
</svg>
