<?xml version="1.0" encoding="utf-8"?>
<!-- Generator: Adobe Illustrator 20.1.0, SVG Export Plug-In . SVG Version: 6.00 Build 0)  -->
<svg version="1.1" xmlns="http://www.w3.org/2000/svg" xmlns:xlink="http://www.w3.org/1999/xlink" x="0px" y="0px"
	 viewBox="0 0 212 105" enable-background="new 0 0 212 105" xml:space="preserve">
<g id="back">
</g>
<g id="Layer_2">
	<g>
		<path fill="#FFFFFF" d="M2.2438,50.146c0.1932,10.1373-0.5032,17.4498,0.0616,30.4139
			c0.3745,8.5952-0.3987,14.5172-0.1076,21.8051c10.2624,0,32.733-0.1659,36.0807-0.1134
			c12.74,0.1999,26.3279,1.2113,39.1157,0.5678c16.8401-0.8475,33.6921,0.1245,50.6006,0.1245
			c7.3451,0,81.4287,1.5718,81.7231-1.7366c0.6575-7.3902,0.0945-30.2714-0.0274-37.6897
			c-0.2679-16.2981,0.9525-28.9218,0.1667-61.8902c-29.8371,1.6359-58.2241,0.3614-88.1055,0.1751
			C83.3542,1.5631,40.907,4.0161,2.731,1.7116C1.4822,1.6362,1.8611,30.0653,2.2438,50.146z"/>
		<g>
			<path fill="#303030" d="M1.5436,50.146c0.1147,8.1237-0.338,16.2417-0.2206,24.3657c0.0703,4.8699,0.3253,9.7227,0.2114,14.595
				c-0.1034,4.4216-0.321,8.8348-0.1682,13.2583c0.0155,0.4493,0.3685,0.8318,0.8318,0.8317
				c10.6897-0.0006,21.3792-0.0977,32.0688-0.1162c14.2235-0.0247,28.4344,1.23,42.659,0.585
				c22.5083-1.0206,45.124,0.0422,67.6537,0.3083c17.5843,0.2077,35.2217,0.5049,52.7968-0.249
				c2.8548-0.1225,5.7203-0.26,8.5588-0.6018c1.1656-0.1404,3.321-0.1512,4.2144-1.0929c0.6433-0.6782,0.4769-1.7925,0.5229-2.6615
				c0.1207-2.2809,0.1523-4.5672,0.1735-6.8508c0.0545-5.8578-0.0223-11.717-0.1168-17.574
				c-0.3277-20.3096,0.3951-40.596,0.1803-60.9047c-0.0438-4.1377-0.119-8.2749-0.2144-12.4117
				c-0.01-0.4346-0.376-0.8625-0.8378-0.8378C171.0412,2.8649,132.1081,0.624,93.2592,1.0994
				C74.252,1.332,55.2483,1.7663,36.2384,1.7025C27.0182,1.6716,17.79,1.5298,8.579,1.099
				C7.5266,1.0498,6.4743,0.9977,5.4222,0.9417C4.6956,0.903,3.1913,0.5514,2.4861,0.8232C2.0503,0.9912,1.879,1.2346,1.679,1.6375
				c-0.4717,0.9506-0.3857,2.4084-0.4506,3.435C0.2834,20.0248,1.1037,35.1831,1.4089,50.146c0.0219,1.073,1.6888,1.077,1.6699,0
				C2.8395,36.504,2.5211,22.8219,2.8924,9.1799C2.9437,7.2937,2.9652,5.38,3.1899,3.5041c0.0305-0.2547,0.0121-1.0966,0.2275-1.279
				c-0.444,0.376,1.3642,0.5289,1.5555,0.5397C6.1747,2.8326,7.3767,2.8958,8.579,2.9543
				c8.9032,0.4331,17.8105,0.6592,26.7238,0.7268C53.6875,3.8204,72.0731,3.3187,90.4525,2.949
				c18.3193-0.3685,36.6216-0.2966,54.9415-0.0107c21.4926,0.3353,42.9876,0.6888,64.4633-0.473
				c-0.2793-0.2793-0.5585-0.5585-0.8378-0.8378c0.5121,21.6173-0.518,43.2125-0.107,64.8194
				c0.1987,10.4483,0.542,20.9327,0.1659,31.3801c-0.0324,0.9006-0.099,1.7994-0.1361,2.6995
				c-0.0298,0.7229,0.2064,0.2025-0.03,0.3415c-0.4017,0.2361-1.187,0.3238-1.7065,0.4143
				c-2.4364,0.4244-4.9435,0.534-7.4087,0.6674c-17.0904,0.9248-34.2796,0.593-51.3858,0.4129
				c-20.1959-0.2126-40.4226-0.9451-60.6138-0.6837c-8.5574,0.1108-17.0788,0.6371-25.6418,0.4611
				c-8.0448-0.1654-16.0824-0.6455-24.1291-0.7295c-9.6053-0.1002-19.2177,0.07-28.8232,0.106
				c-2.3351,0.0088-4.6703,0.0158-7.0054,0.0167c0.2773,0.2773,0.5545,0.5545,0.8318,0.8318
				c-0.1495-4.2852,0.0478-8.5606,0.154-12.844c0.1242-5.012-0.1607-10.0007-0.2693-15.0093
				C2.7382,66.3892,3.1051,58.2682,2.944,50.146C2.9262,49.2462,1.5309,49.2427,1.5436,50.146z"/>
		</g>
	</g>
</g>
</svg>
