<?xml version="1.0" encoding="utf-8"?>
<!-- Generator: Adobe Illustrator 20.1.0, SVG Export Plug-In . SVG Version: 6.00 Build 0)  -->
<svg version="1.1" xmlns="http://www.w3.org/2000/svg" xmlns:xlink="http://www.w3.org/1999/xlink" x="0px" y="0px"
	 viewBox="0 0 174 39" enable-background="new 0 0 174 39" xml:space="preserve">
<g id="back">
</g>
<g id="Layer_2">
	<g>
		<path fill="#E93A1D" d="M170.7878,11.7321c-0.1514-3.7075-3.0464-6.9565-6.9172-6.9175
			C117.4667,5.2815,71.0629,5.7483,24.6591,6.2151c-3.7952,0.0381-8.4656,0.0464-12.5945,1.0928
			c-4.0083-1.6592-9.8553,0.377-10.1248,6.103c-0.2922,6.209-0.7634,12.3989-1.4148,18.5801
			c-0.3723,3.5327,3.4753,7.1797,6.9172,6.9175c25.9434-1.9761,51.8979-1.4458,77.8901-1.2393
			c26.063,0.2075,52.126,0.4146,78.189,0.6221c3.9485,0.0312,6.6333-3.2061,6.9172-6.9175
			C170.9394,24.8254,171.0556,18.2942,170.7878,11.7321z"/>
		<g>
			<g>
				<path fill="#303030" d="M172.3796,1.0468c-0.9645-0.4883-2.6421-0.2402-3.6697-0.2637
					c-3.1344-0.0719-6.2703-0.051-9.4049-0.1073c-9.9628-0.1788-19.9333-0.0482-29.8972,0.0067
					c-11.3008,0.0622-22.6014,0.1408-33.902,0.2256c-14.003,0.1051-28.0358-0.0157-42.013,0.938
					C37.4977,2.9376,21.5801,0.8579,5.6109,3.013C5.2282,3.0646,4.9376,3.5303,4.9437,3.8894
					C5.1181,14.2343,5.2378,24.5801,5.4122,34.925c0.0075,0.445,0.4138,0.9744,0.9105,0.9105
					c20.0702-2.5832,39.9699-0.4111,60.0842-0.0342c22.6022,0.4236,45.1896-0.8354,67.7686-1.6552
					c12.875-0.4674,25.7563-0.7899,38.6405-0.6447c0.4945,0.0056,0.9083-0.422,0.911-0.911
					c0.0299-5.3041,0.0171-10.6091-0.0436-15.9128c-0.0399-3.4883-0.0038-7.0111-0.2512-10.4925
					c-0.0943-1.3264-0.1389-3.7635-1.083-4.8421c-0.413-0.4719-1.0987,0.2183-0.6878,0.6878
					c0.4108,0.4693-0.0528,4.3126-0.0141,5.3066c0.1375,3.5304,0.185,7.0647,0.2206,10.5974
					c0.0493,4.8849,0.0623,9.7706,0.0368,14.6557c0.3037-0.3037,0.6073-0.6074,0.911-0.911
					c-22.8863-0.2477-45.742,1.0208-68.6054,1.831c-11.154,0.3952-22.3157,0.6765-33.4776,0.5749
					c-10.2296-0.0931-20.423-0.7215-30.6389-1.1755c-11.3047-0.5024-22.5345-0.3427-33.7715,1.1048
					c0.3035,0.3035,0.607,0.607,0.9105,0.9105C7.0577,24.5801,6.9369,14.2343,6.7614,3.8894
					C6.539,4.1815,6.3166,4.4736,6.0941,4.7658C20.292,2.8482,34.3716,4.3904,48.6049,3.9273
					c8.2756-0.2692,16.5199-0.8871,24.8063-1.0055c6.0233-0.086,12.0475-0.1148,18.0713-0.1603
					c21.0975-0.1593,42.195-0.2709,63.2928-0.3701c3.9917-0.0188,7.9809-0.0978,11.9734-0.0784
					c1.1963,0.0058,2.3932,0.0051,3.5893,0.028c0.3723,0.0071,1.6738,0.1699,1.2934-0.0143
					C172.4834,2.7393,173.2355,1.48,172.3796,1.0468z"/>
			</g>
		</g>
	</g>
</g>
</svg>
