<?xml version="1.0" encoding="utf-8"?>
<!-- Generator: Adobe Illustrator 20.1.0, SVG Export Plug-In . SVG Version: 6.00 Build 0)  -->
<svg version="1.1" xmlns="http://www.w3.org/2000/svg" xmlns:xlink="http://www.w3.org/1999/xlink" x="0px" y="0px"
	 viewBox="0 0 174 39" enable-background="new 0 0 174 39" xml:space="preserve">
<g id="back">
</g>
<g id="Layer_2">
	<g>
		<path fill="#FFEFAF" d="M170.7878,11.7321c-0.1514-3.7075-3.0464-6.9565-6.9172-6.9175
			C117.4667,5.2815,71.0629,5.7483,24.6591,6.2151c-3.7952,0.0381-8.4656,0.0464-12.5945,1.0928
			c-4.0083-1.6592-9.8553,0.377-10.1248,6.103c-0.2922,6.209-0.7634,12.3989-1.4148,18.5801
			c-0.3723,3.5327,3.4753,7.1797,6.9172,6.9175c25.9434-1.9761,51.8979-1.4458,77.8901-1.2393
			c26.063,0.2075,52.126,0.4146,78.189,0.6221c3.9485,0.0312,6.6333-3.2061,6.9172-6.9175
			C170.9394,24.8254,171.0556,18.2942,170.7878,11.7321z"/>
		<g>
			<g>
				<path fill="#303030" d="M172.3796,1.0468c-0.9678-0.4855-2.64-0.2309-3.6697-0.2515c-3.1346-0.0625-6.2703-0.0486-9.4049-0.1049
					c-9.9628-0.1788-19.9333-0.0482-29.8972,0.0067c-11.3008,0.0622-22.6014,0.1408-33.902,0.2256
					C81.5028,1.0278,67.47,0.907,53.4928,1.8608C37.4991,2.9521,21.5826,0.8722,5.6148,3.0271
					c-0.3765,0.0508-0.6624,0.509-0.6565,0.8623C5.1328,14.2343,5.2525,24.5801,5.4269,34.925
					c0.0074,0.4378,0.4071,0.9588,0.8958,0.8959c20.0702-2.5832,39.9699-0.4111,60.0842-0.0342
					c22.6022,0.4236,45.1896-0.8354,67.7686-1.6552c12.875-0.4674,25.7563-0.7899,38.6405-0.6447
					c0.4866,0.0055,0.8937-0.4152,0.8964-0.8964c0.0299-5.3041,0.0171-10.6091-0.0436-15.9128
					c-0.0399-3.4886-0.0058-7.0107-0.2512-10.4925c-0.0932-1.323-0.1261-3.7656-1.0684-4.8421
					c-0.413-0.4719-1.0987,0.2183-0.6878,0.6878c0.5229,0.5974-0.02,4.7341,0.0157,5.7111c0.1274,3.4796,0.174,6.9625,0.208,10.4441
					c0.0469,4.8012,0.0593,9.6032,0.0343,14.4045c0.2988-0.2988,0.5976-0.5976,0.8964-0.8964
					c-22.8863-0.2477-45.742,1.0208-68.6054,1.831c-11.154,0.3952-22.3157,0.6765-33.4776,0.5749
					c-10.2296-0.0931-20.423-0.7215-30.6389-1.1755c-11.3047-0.5024-22.5345-0.3427-33.7715,1.1048
					c0.2986,0.2986,0.5972,0.5972,0.8958,0.8958C7.0431,24.5801,6.9223,14.2343,6.7467,3.8894
					C6.5279,4.1768,6.3091,4.4642,6.0903,4.7516c14.1992-1.9177,28.2799-0.3759,42.5147-0.8389
					c8.2756-0.2692,16.5199-0.8871,24.8063-1.0055c6.0233-0.086,12.0475-0.1148,18.0713-0.1603
					c21.0975-0.1593,42.195-0.2709,63.2928-0.3701c3.9917-0.0188,7.9809-0.0978,11.9734-0.0784
					c1.1964,0.0058,2.3932,0.0091,3.5893,0.0364c0.3736,0.0085,1.6717,0.1768,1.2934-0.0081
					C172.4835,2.7432,173.2355,1.4761,172.3796,1.0468z"/>
			</g>
		</g>
	</g>
</g>
</svg>
