<?xml version="1.0" encoding="utf-8"?>
<!-- Generator: Adobe Illustrator 20.1.0, SVG Export Plug-In . SVG Version: 6.00 Build 0)  -->
<svg version="1.1" xmlns="http://www.w3.org/2000/svg" xmlns:xlink="http://www.w3.org/1999/xlink" x="0px" y="0px"
	 viewBox="0 0 582 276" enable-background="new 0 0 582 276" xml:space="preserve">
<g id="site_bg">
</g>
<g id="back">
	<g>
		<g>
			<path fill="#F7FAFC" d="M423.6029,261.8561c-3.6084,0.0005-7.7979-0.8638-12.5068-3.2324
				c-3.3418-1.6802-7.0635-4.1045-11.7139-7.6294c-6.9521-5.2695-15.8662-12.9312-27.2158-23.394
				c-0.0918,0.0786-0.1826,0.1567-0.2754,0.2344c-7.708,6.4678-19.0244,6.2017-26.418-0.624
				c-7.874-7.2671-16.1914-14.9385-24.7881-22.8628c-1.2451,3.562-3.4111,6.7183-6.3613,9.1934
				c-7.5898,6.3706-18.5996,6.1689-25.9434-0.1978c-4.4268,2.7544-13.4062,6.0767-24.8232-1.5771
				c-1.126-0.7554-2.3516-1.6455-3.7256-2.708c-0.9395,1.2686-2.0332,2.4321-3.2666,3.4595
				c-6.3838,5.3188-17.3877,7.3535-26.4668-0.7495l-4.3701-3.9263c-0.9297,4.3218-3.2725,8.2412-6.6973,11.1147
				c-8.2246,6.9023-18.8926,6.9429-31.707,0.123c-1.1689-0.6221-2.3955-1.3145-3.6836-2.0791
				c-1.2012,3.1655-3.1992,6.0078-5.8447,8.2275c-4.1494,3.4814-9.4102,5.1343-14.8408,4.6489
				c-0.2588-0.0229-0.5146-0.0493-0.7676-0.0796c-1.6865,0.2104-3.3936,0.2046-5.0742-0.0151
				c-1.8223,0.3364-3.7607,0.4336-5.7695,0.2183c-5.1396,2.1138-11.7686,2.3823-18.6904-1.6577
				c-1.0283-0.6001-2.21-1.3623-3.7207-2.3975c-2.2656-1.5537-5.3272-3.7632-9.3594-6.7549
				c-2.6494-1.9663-5.7363-4.2852-9.2441-6.9438c-1.1523,2.106-2.7061,4.0386-4.6514,5.6792
				c-8.4414,7.1211-21.0596,6.0493-28.1807-2.3936c0,0-17.7197-21.0093-35.4355-42.0674
				c-8.8652-10.5381-17.7295-21.0884-24.376-29.0288c-3.3447-3.9966-6.1318-7.3364-8.0811-9.6895
				c-4.6182-5.5737-8.2656-9.9766-7.5586-18.209c0.4541-5.2832,2.9883-10.1709,7.0439-13.5864
				c4.4248-3.7271,11.0225-5.8618,17.7588-4.1206c-0.0234-0.6855-0.0166-1.3687,0.0166-2.0542
				c0.3047-6.1299,3.0127-11.6382,7.626-15.5093c2.1748-1.8247,4.626-3.1084,7.1895-3.8643
				c0.1221-0.1069,0.2441-0.2124,0.3691-0.3169c1.5137-1.269,3.2773-2.3267,5.1992-3.1094c1.0684-0.7881,2.207-1.4629,3.3975-2.019
				c5.4053-4.0498,12.3359-4.9966,18.4473-2.9131c-0.7119-2.2705-1.0029-4.6997-0.7734-7.5112
				c0.4346-5.3271,3-10.2979,7.0957-13.7334c2.6348-2.2109,12.2344-8.8267,25.1016-1.0957c0.4814,0.2896,0.9844,0.606,1.5166,0.9541
				c0.8916-4.4229,3.2598-8.4385,6.75-11.3667c1.7266-1.4492,9.7529-7.4253,20.3486-3.3262
				c1.2236-2.7651,3.0713-5.2427,5.4316-7.2231c1.3701-1.1489,6.4971-4.9629,13.6426-4.6968c0.75-0.8984,1.584-1.7363,2.4932-2.5
				c6.2451-5.2402,16.6826-7.2456,25.9307,0.0859c0.5342,0.4233,1.3096,1.0654,2.3047,1.9185
				c0.125,0.1069,0.2529,0.2173,0.3848,0.3311c0.8418-5.3096,3.4883-10.0317,7.6025-13.4839
				c8.1602-6.8477,20.2568-6.0962,27.5068,1.7095c0.1035,0.1113,2.46,2.6475,6.6094,7.0869
				c0.9268-3.1753,2.6553-6.1631,5.1787-8.6426c7.7705-7.6333,20.2236-7.646,28.0059-0.0264l15.5127,15.1851
				c1.124-2.5068,2.7852-4.8188,4.9697-6.7573c8.1006-7.1895,20.4502-6.623,27.8584,1.2744
				c3.9697,4.23,7.9688,8.4839,11.9785,12.7397c1.0605-1.6147,2.3574-3.0815,3.8613-4.3433
				c7.8574-6.5918,19.4258-6.1689,26.7832,0.9736l6.4072,6.2212c1.1377-1.6728,2.5088-3.1934,4.0957-4.5254
				c4.5859-3.8491,11.9287-6.3853,20.2207-3.7124c0.6895-0.7949,1.4443-1.5396,2.2617-2.2251
				c2.959-2.4819,13.6592-9.7534,27.1729,0.9023c1.3652,1.0771,3.1797,2.5864,5.5469,4.6143
				c0.0088,0.0073,0.0166,0.0146,0.0254,0.0215c1.0977-1.748,2.4697-3.3315,4.0811-4.6831
				c5.6914-4.7759,15.4355-7.4561,25.7158-0.6543c1.6387,1.084,3.4746,2.4971,5.7783,4.4473
				c1.7324,1.4658,3.7695,3.2715,6.1475,5.4502c7.624-3.1396,16.707-1.3223,22.5107,5.1582c1.166,1.3022,2.3447,2.6152,3.5322,3.936
				c4.9795,0.3281,9.8438,2.5088,13.4688,6.4902c0.126,0.1382,12.7295,13.9854,25.1347,28.1528
				c7.3721,8.4189,13.2666,15.3413,17.5186,20.5737c8.0986,9.9653,12.6523,16.0327,12.0605,24.8467
				c-0.0303,0.4565-0.0762,0.9111-0.1377,1.3628c2.3467,3.5776,3.9492,7.5674,3.4941,13.0742
				c-0.3525,4.2568-2.0576,8.2686-4.8213,11.4595l9.7236,11.5879c6.7803,8.0801,6.1191,20.0371-1.5107,27.3203
				c-1.3418,1.2817-2.8193,2.3413-4.3848,3.1777c2.6484,6.1162,3.0312,10.2129,2.8643,13.9185
				c-0.2969,6.5679-3.1494,12.4424-8.0322,16.54c-0.7412,0.6221-2.0176,1.5811-3.7578,2.4873
				c0.5938,5.7651-1.3115,11.7373-5.7119,16.1621c-4.6133,4.6392-10.9404,6.543-16.9648,5.7041
				c-0.9785,4.1816-3.2871,7.9658-6.6162,10.7598c-3.5879,3.0102-13.4209,9.0664-27.2236,0.3223
				c-0.8916-0.5649-1.8311-1.2017-2.834-1.9229c-0.7344,0.9951-1.5723,1.9355-2.5117,2.8056
				c-7.8262,7.2471-19.9609,7.0767-27.5781-0.3813l-7.4023-7.2466c-1.3184,3.1221-3.3506,5.8916-6.001,8.1157
				C435.2503,258.7111,430.4837,261.8556,423.6029,261.8561z"/>
		</g>
	</g>
	<g>
		<g>
			<path fill="#F2F6F9" d="M511.8441,272.2809c-5.5254,0.0005-11.6387-1.8936-18.3037-5.6807
				c-1.5029-0.854-3.0947-1.8262-4.7842-2.9233c-0.8867,1.1221-1.8936,2.1606-3.0137,3.1011
				c-7.3965,6.2061-18.1709,6.2422-25.6064,0.0864l-19.1328-15.8349c-0.9453,1.2969-2.0518,2.4858-3.3027,3.5356
				c-4.5371,3.8086-14.3037,8.8652-28.7363-0.0615c-3.373-2.0864-7.4775-5.1138-12.5479-9.2549
				c-5.9346-4.8481-13.3359-11.3467-22.0723-19.3774c-0.0098,0-0.0195,0-0.0283,0c-5.708,0-11.374-2.4297-15.3301-7.144
				c-1.3564-1.6157-2.4131-3.3833-3.1758-5.2344c-4.2871-5.7065-18.5303-21.8975-30.5322-34.9688
				c-7.3643-8.0205-6.959-20.4585,0.9121-27.9819c0.8945-0.855,1.8467-1.6099,2.8457-2.2666
				c0.001-0.0171,0.002-0.0347,0.0029-0.0522c0.3516-5.6143,3.0059-10.8916,7.2812-14.479
				c3.1094-2.6084,6.8164-4.127,10.6201-4.5532c-0.3877-1.7554-0.5205-3.6138-0.3906-5.6797
				c0.3447-5.4614,2.9375-10.6016,7.1299-14.1191c3.1553-2.6475,6.9053-4.1616,10.7373-4.5674
				c-3.9053-7.0034-3.1943-15.6279,1.5947-21.877c1.2285-2.479,2.958-4.7056,5.0957-6.5c1.5957-1.3384,3.834-2.8345,6.6865-3.834
				c-0.0049-0.5884,0.0117-1.1777,0.0449-1.771c0.3379-6.0264,3.0322-11.4502,7.5879-15.2725
				c2.3877-2.0034,5.1162-3.3579,7.9619-4.0742c0.9336-4.3164,3.2793-8.2344,6.6982-11.1021
				c4.3633-3.6597,9.873-5.1592,15.1797-4.5405c1.2207-2.9307,3.1328-5.5601,5.6094-7.6377
				c3.2227-2.7036,7.1045-4.3843,11.2578-4.9238c3.8779-3.2739,8.7051-4.8413,13.5029-4.6929
				c0.7217-0.8511,1.5186-1.645,2.3838-2.3721c2.3525-1.9727,9.9678-7.2529,20.5781-3.6875
				c5.4004-2.0459,12.3262-2.1157,19.6221,2.251c0.8828,0.5283,1.793,1.1279,2.752,1.8164
				c6.3711-0.6611,12.9561,1.7563,17.3877,7.0376c0.8799,1.0488,1.6348,2.1626,2.2646,3.3213
				c5.4394,7.2344,33.8886,40.6836,59.5537,70.3545c3.5039,4.0508,5.2363,9.3379,4.8096,14.6772
				c-0.166,2.0796-0.6543,4.0996-1.4316,5.9941c1.2588,3.1147,1.6719,5.9897,1.4375,9.2642
				c-0.1572,2.2017-0.6777,4.3511-1.5166,6.3618c1.4346,3.8418,1.6553,6.8218,1.4707,9.8608
				c-0.2471,4.0664-1.5771,7.8545-3.833,11.0479c7.5645,10.4912,9.2559,15.5957,8.8203,21.9082
				c-0.2168,3.1519-1.1641,6.1963-2.7188,8.8887c0.4443,2.1958,0.4424,4.0957,0.3096,6.0605
				c-0.3916,5.7896-3.0234,11.0054-7.4121,14.688c-1.0371,0.8706-2.1406,1.6191-3.29,2.2461
				c2.248,3.6313,3.29,7.9136,2.9238,12.2212c-0.4502,5.3027-2.9961,10.2075-7.0732,13.6279
				c-0.5889,0.4946-1.5029,1.1919-2.7041,1.9014c0.0703,1.0454,0.0684,2.0762,0.0098,3.1152
				c-0.3389,6.0532-3.0439,11.4995-7.6162,15.3364c-3.9023,3.2749-9.6631,5.3154-15.6963,4.4648
				c-1.2119,3.0513-3.168,5.7866-5.7305,7.937c-4.4043,3.6963-9.9834,5.4912-15.8193,5.1274
				C514.0511,272.2038,512.9593,272.2809,511.8441,272.2809z M513.0316,37.0407c0.0244,0.0254,0.0488,0.0498,0.0732,0.0752
				c0.1553-3.104-0.4385-6.2739-2.0019-9.2114C512.4818,30.7975,513.1165,33.9328,513.0316,37.0407z"/>
		</g>
	</g>
</g>
<g id="Layer_2">
	<path fill="#E93A1D" d="M487.8203,234.9327c0.5503-0.0032-0.2147,0.2808-0.3168,0.2827c-1.679-2.2279,3.9681-3.4815,3.792-6.6487
		c-0.1218-2.19-2.8813-3.8473-3.5289-6.1474c-3.154-0.4328,4.1239-21.0537,4.9083-24.1078
		c1.5709-6.1172,2.6151-16.1396,6.4319-21.1986c2.1726,1.8168-0.865,12.0819-1.3258,14.8188
		c-0.9409,5.5882-1.8013,11.1924-3.1226,16.687c-1.4576,6.0612-3.7104,10.3464-0.0151,15.2706
		c1.877,2.5012,4.8401,5.8108,1.9841,9.1656C495.2069,234.7234,490.5126,235.1879,487.8203,234.9327z"/>
	<path fill="#FFEFAF" d="M419.5453,175.6186c2.4044-1.3139,5.355-0.6176,7.2727-2.7131c2.3283-2.5441,0.925-5.0059,0.0615-7.9096
		c-1.8559-6.2408-2.5113-16.1224-8.4106-20.3065c-2.3684-1.6798-7.659-0.7154-10.1258,1.091
		c-6.2694,4.591,2.0824,17.5163,3.6283,23.0671C412.626,171.1978,414.6423,179.9784,419.5453,175.6186z"/>
	<path fill="#FFEFAF" d="M439.8513,117.4284c3.6721-1.7785,13.1891-3.6315,15.2357-7.8643
		c1.9792-4.0935-1.8756-7.8963-5.8253-7.8498c-3.452,0.0407-10.2785,4.1365-13.0602,6.2443
		C432.3112,110.9063,435.5438,114.3819,439.8513,117.4284z"/>
	<path fill="#E93A1D" d="M498.0565,104.388c-3.1891,0.0195-5.4529,0.1521-8.5106-0.668c-2.0318-0.5453-4.4931-1.0969-6.3302-2.096
		c-1.4456-0.7861-3.0633-3.5124-5.1158-2.5871c-2.2024,0.9928-3.3002,8.6381-3.7483,10.6744
		c-1.3932,6.3323-2.0156,12.8102-2.9539,19.2021c-2.4444,16.6511-8.9094,32.607-12.6789,48.9225
		c-1.5192,6.5754-3.0533,13.1499-4.3464,19.7744c-0.9813,5.0271,0.1765,11.6252-4.7244,14.2527
		c-2.426,1.3006-11.8195-0.5886-11.0538,4.7821c0.5815,4.0786,6.4505,6.7688,9.6929,8.4438
		c5.0091,2.5877,9.4139,6.1157,14.6119,8.4528c3.4497,1.551,8.0782,3.9992,11.7848,2.6866
		c-1.8377-4.4877-7.9736-3.8134-11.4898-6.0806c-1.7939-1.1567-5.167-4.2408-5.8385-6.316
		c-0.3952-1.2213,0.3885-2.4025,0.112-3.5529c-0.375-1.5599-0.8106-1.3065-1.8266-2.4101c-1.9997-2.172-2.9037-6.3978-0.6444-8.9333
		c2.3687-2.644,6.4739,1.7971,8.5586,0.0554c2.5407-2.1226-4.8388-6.4895-5.4299-8.7639c-2.205-8.4834,5.6003-2.1374,8.101-5.1367
		c-1.8572-2.085-6.2462-3.7154-6.2502-6.2287c-0.0099-6.357,8.2191-0.394,8.3061-4.4867c0.0824-3.8764-5.8803-2.3743-7.0416-4.9236
		c-2.5398-5.5754,6.814-3.6675,8.5659-4.0281c-1.5999-3.4975-5.4169-2.8177-5.2657-6.8173
		c0.2648-7.0033,5.2867-0.2524,6.9402-2.9549c1.3-2.1247-5.3586-3.5472-5.5866-6.3792c-0.3835-4.762,4.5823-3.2598,7.464-2.4264
		c3.0742-4.4616-2.7972-4.6936-4.401-6.777c-0.8956-1.1634-1.0284-2.8401-0.1575-4.2209c2.2321-3.5386,2.6866,0.1353,5.0672,0.0494
		c5.4822-0.1978-2.6205-5.1285-3.0402-6.1323c-2.2792-5.4516,3.4623-4.0901,5.9491-4.0086
		c1.6531-3.5273-3.9897-3.7538-4.1042-6.4936c-0.1037-2.4821,3.5901-4.634,5.7377-3.9026
		c-0.4854-3.6987-4.9817-3.4436-2.8626-8.1164c1.1743-2.5894,2.9749-1.0451,4.1854-2.4262c1.6224-1.8511-0.2757-1.6935-1.1475-3.502
		c-1.5957-3.3104,0.1853-5.9409,3.5424-5.5761c6.7382,0.7325,5.257,7.6033,4.6285,12.3853
		c-0.5854,4.4546-0.4991,9.0232-1.0475,13.5198c-1.2514,10.2599-3.7379,20.1937-6.3012,30.1843
		c-1.7508,6.8238-4.0923,13.492-5.5528,20.4119c-1.1828,5.6044-1.8118,11.3205-3.0044,16.9259
		c-0.7233,3.3997-4.0526,12.4594-1.5961,15.7221c1.0698-1.5854,0.879-3.745,1.2452-5.5635
		c0.826-4.1029,1.9903-8.1905,2.9711-12.2643c1.3991-5.8107,2.4085-11.6605,4.0142-17.4254
		c3.0595-10.9846,4.3424-22.3532,7.4538-33.3404c2.6076-9.2083,4.7622-18.6302,8.0169-27.6122
		c0.8295-2.2892,1.4861-7.9718,3.157-9.7273c1.554-1.6327,5.8803-1.6621,7.9711-1.958c3.6014-0.5097,8.4016-0.6193,11.1521-3.3742
		c3.0726-3.0775,4.4778-8.178,5.9496-12.1709c0.5279-1.4325,0.7457-2.4568,2.2847-2.8445c2.0273-0.5108,4.0549-0.6523,6.0523-1.384
		c1.4124-0.5174,2.7868-1.1861,3.9012-2.2133c0.8636-0.7959,2.9614-2.406,2.9134-3.6441c-2.8929-0.2924-5.8909,2.5491-8.6269,3.2208
		c-2.1986,0.5397-7.0964-0.2016-8.5704-1.8146c-1.9417-2.1247-2.4521-7.4443-3.3928-10.1724
		c-1.377-3.9938,0.8381-8.2854,4.349-10.544c4.3855-2.8213,9.5837-3.0179,13.8602,0.1079c1.9658,1.4368,3.8536,3.4924,4.9585,5.6772
		c0.4933,0.9756,0.7243,2.0273,0.8558,3.1081c0.0166,0.1363,0.6207,2.9678,0.8079,2.6315c0.8123-1.4599,0.8952-2.8337,0.6569-4.4962
		c-0.2376-1.6574-0.3483-4.0808-1.1807-5.5541c-0.7589-1.3433-2.0876-2.7021-3.2984-3.7978
		c-2.0128-1.8215-3.2579-3.0236-5.9329-3.4704c-2.9388-0.4909-5.2414-0.8923-8.1409,0.2616
		c-1.9058,0.7585-3.6819,2.6005-5.8409,1.8953c-1.912-0.6245-3.9643-3.1559-5.9553-4.1779
		c-2.9076-1.4926-6.0668-2.9565-9.3788-3.1673c-1.3677-0.087-5.233,1.6903-5.807,1.415
		c-4.2867-2.0682,2.7069-11.5373-0.9767-14.1169c-3.6765-2.5746-9.4577,2.6066-8.6664,6.4234
		c-0.0452-0.2181,3.721-3.8725,4.2985-3.9134c2.7442-0.1943,2.0373,3.523,1.7373,5.3849
		c-0.5244,3.2546-1.7732,7.3286-3.6597,10.0696c-1.9567,2.8429-4.858,4.5522-5.9125,8.0928
		c1.3429-2.0646,5.1777-4.117,6.9409-1.3194c1.0292,1.6332-0.2084,3.6367,0.0293,5.114c2.0378-1.9217,4.5937-3.7805,7.47-3.9301
		c1.9505-0.1014,4.6326,0.1792,5.8109,1.8166c1.1641,1.6176,1.65,3.9581,1.319,5.9305c-0.8613,5.1326-4.669,8.1921-9.2327,10.0354
		c-4.5665,1.8444-7.8891,5.7767-13.0376,6.1519c-4.0186,0.2929-4.9536-1.8635-7.6952-4.1626c-2.4696-2.071-3.8672-0.7451-3.11,2.895
		c0.6469,3.1097,2.9816,5.3637,5.8924,5.5835c3.2495,0.2454,5.6943-2.4876,8.923-2.4016c2.7183,0.0724,5.7816,1.439,8.7091,1.5531
		c1.3837,0.0535,2.9734,0.321,4.2572-0.1768c1.6244-0.6298,5.9193-7.0238,7.9655-5.6776c2.7361,1.8063-4.0984,11.9807-5.076,13.4306
		c-1.5272,2.2651-3.8816,2.7617-5.1977,4.7499c0.0797-0.1203,2.4341,1.0361,4.5262,2.2139"/>
	<g>
		<g>
			<path fill="#303030" d="M470.9232,212.8016c3.1984-17.9928,5.7618-36.0801,9.2027-54.0362
				c3.4407-17.9544,7.2999-35.8259,11.5756-53.6c0.2001-0.8318-1.0822-1.1868-1.2826-0.3536
				c-4.3115,17.933-8.2118,35.9646-11.6513,54.0853c-3.378,17.7965-6.7813,35.7656-8.7134,53.7868
				C470.0015,213.1759,470.836,213.2922,470.9232,212.8016L470.9232,212.8016z"/>
		</g>
	</g>
	<g>
		<g>
			<path fill="#303030" d="M513.2472,103.2657c-7.1703,38.3536-14.3144,76.6922-22.3691,114.8735
				c-0.1987,0.9418,1.2473,1.3442,1.4464,0.3988c8.0357-38.1697,15.6833-76.4804,21.9905-114.9779
				C514.4285,102.8672,513.3791,102.5599,513.2472,103.2657L513.2472,103.2657z"/>
		</g>
	</g>
	<g>
		<g>
			<path fill="#303030" d="M476.5212,99.3821c-4.5159,18.316-8.4223,36.8029-12.5659,55.2063
				c-4.146,18.4139-8.3069,36.8245-12.4332,55.2428c-0.2032,0.9071,1.1905,1.2946,1.3956,0.3848
				c4.1502-18.4136,8.2659-36.835,12.3965-55.253c4.1292-18.4118,8.5078-36.7976,12.2637-55.2896
				C477.7169,98.9884,476.6915,98.6918,476.5212,99.3821L476.5212,99.3821z"/>
		</g>
	</g>
	<g>
		<g>
			<path fill="#303030" d="M448.357,214.5849c4.1625,2.2344,8.3142,4.4895,12.4787,6.7201
				c3.8479,2.0611,7.4594,3.4094,11.8716,3.4119c4.5935,0.0026,9.2394-0.3055,13.8246-0.5788
				c1.9604-0.1168,4.7341-0.6546,4.6238-3.1386c-0.0414-0.9314-1.4947-0.9365-1.4531,0c0.1116,2.5146-8.5865,1.9594-10.1382,2.0361
				c-3.561,0.176-7.2366,0.601-10.7788,0.049c-3.7377-0.5825-7.0386-2.4409-10.3586-4.1529
				c-3.2295-1.6654-6.4494-3.3495-9.6737-5.0248C448.3062,213.6746,447.9102,214.345,448.357,214.5849L448.357,214.5849z"/>
		</g>
	</g>
	<g>
		<g>
			<path fill="#303030" d="M441.6852,216.7473c6.3913,7.1209,15.0912,11.1457,23.8376,14.6094
				c4.4656,1.7684,8.7411,3.7397,13.6486,3.0281c5.487-0.7956,11.0665-2.5947,16.3941-4.1122
				c0.7736-0.2204,0.45-1.3886-0.3318-1.2035c-4.8663,1.1527-9.6521,2.6973-14.5436,3.738
				c-5.436,1.1566-9.871-0.6275-14.8577-2.5737c-8.576-3.3471-17.155-7.2583-23.5549-14.0786
				C441.9066,215.7594,441.3267,216.3478,441.6852,216.7473L441.6852,216.7473z"/>
		</g>
	</g>
	<g>
		<g>
			<path fill="#303030" d="M477.8372,112.717c1.664,1.1313,3.328,2.2625,4.9921,3.3938c0.5359,0.3643,1.0514-0.5149,0.5087-0.8702
				c-1.6818-1.1009-3.3635-2.2018-5.0453-3.3027C477.8036,111.6177,477.3606,112.3929,477.8372,112.717L477.8372,112.717z"/>
		</g>
	</g>
	<g>
		<g>
			<path fill="#303030" d="M476.0246,124.1628c1.324,0.6275,2.7148,1.1385,4.0743,1.6837c0.7972,0.3197,1.1599-0.9859,0.3567-1.2939
				c-1.315-0.5042-2.6291-1.0542-3.9727-1.4769C475.8513,122.8771,475.4085,123.8708,476.0246,124.1628L476.0246,124.1628z"/>
		</g>
	</g>
	<g>
		<g>
			<path fill="#303030" d="M473.7676,133.9169c0.9213,0.752,1.8426,1.5039,2.7639,2.2559c0.5833,0.4761,1.4177-0.3668,0.8286-0.8286
				c-0.9379-0.7354-1.8757-1.4708-2.8136-2.2062C473.9984,132.7082,473.2139,133.465,473.7676,133.9169L473.7676,133.9169z"/>
		</g>
	</g>
	<g>
		<g>
			<path fill="#303030" d="M471.0099,142.2522c1.1599,1.1138,2.599,1.8979,4.1131,2.415c0.6844,0.2337,0.989-0.8641,0.2991-1.0848
				c-1.3857-0.4434-2.5627-1.1441-3.6954-2.047C471.2295,141.1391,470.5276,141.7891,471.0099,142.2522L471.0099,142.2522z"/>
		</g>
	</g>
	<g>
		<g>
			<path fill="#303030" d="M468.92,155.0927c1.2845,0.7727,2.5772,1.5312,3.8693,2.2911c0.6743,0.3965,1.2912-0.6615,0.6122-1.0473
				c-1.3034-0.7406-2.6059-1.4825-3.9166-2.2101C468.8543,153.7764,468.3019,154.721,468.92,155.0927L468.92,155.0927z"/>
		</g>
	</g>
	<g>
		<g>
			<path fill="#303030" d="M466.0883,165.2069c1.2588,0.8072,2.5859,1.5231,3.8777,2.2766
				c0.6334,0.3694,1.2123-0.6241,0.5737-0.9815c-1.3053-0.7305-2.5961-1.5106-3.9309-2.1855
				C466.0174,164.0175,465.5267,164.8468,466.0883,165.2069L466.0883,165.2069z"/>
		</g>
	</g>
	<g>
		<g>
			<path fill="#303030" d="M464.3846,172.509c0.8971,0.6054,1.8428,1.1478,2.7642,1.7154c0.6432,0.3962,1.2457-0.6349,0.5915-1.0119
				c-0.9374-0.5401-1.8643-1.1136-2.8234-1.6143C464.3114,171.2822,463.8232,172.1302,464.3846,172.509L464.3846,172.509z"/>
		</g>
	</g>
	<g>
		<g>
			<path fill="#303030" d="M461.1763,184.2673c0.9285,0.1901,1.8569,0.3803,2.7854,0.5704
				c0.7742,0.1585,1.1031-1.0342,0.3271-1.1865c-0.9305-0.1826-1.8611-0.3652-2.7916-0.5478
				C460.7397,182.9547,460.4131,184.111,461.1763,184.2673L461.1763,184.2673z"/>
		</g>
	</g>
	<g>
		<g>
			<path fill="#303030" d="M458.7775,192.1039c2.0432,0.9299,4.0865,1.8598,6.1297,2.7897
				c0.6945,0.3161,1.2971-0.7208,0.6003-1.0271c-2.058-0.9046-4.116-1.8092-6.174-2.7138
				C458.6932,190.8713,458.1294,191.809,458.7775,192.1039L458.7775,192.1039z"/>
		</g>
	</g>
	<g>
		<g>
			<path fill="#303030" d="M458.2664,204.2725c1.6678,0.7529,3.3357,1.5059,5.0035,2.2589c0.6709,0.3029,1.253-0.6971,0.5797-0.9917
				c-1.6787-0.7344-3.3574-1.4688-5.036-2.2032C458.183,203.0607,457.6282,203.9844,458.2664,204.2725L458.2664,204.2725z"/>
		</g>
	</g>
	<g>
		<g>
			<path fill="#303030" d="M479.0859,72.7985c3.2301-8.174,6.7101-16.9496,15.8211-19.8273
				c3.6276-1.1458,7.5652-1.2959,11.2503-0.3241c3.7431,0.9872,8.2245,2.973,10.7029,6.0223
				c0.4951,0.6091,1.3517-0.2578,0.8618-0.8618c-2.5739-3.1734-7.0403-5.1545-10.9098-6.2417
				c-3.9731-1.1164-8.2955-0.9914-12.2209,0.2602c-9.577,3.0537-13.1659,12.0215-16.3303,20.7449
				C478.0713,73.094,478.8871,73.3016,479.0859,72.7985L479.0859,72.7985z"/>
		</g>
	</g>
	<g>
		<g>
			<path fill="#303030" d="M514.0477,66.7751c1.0569-5.3903,5.3198-9.8312,10.8309-10.6788
				c5.6412-0.8676,11.546,2.1507,14.1804,7.2109c2.761,5.3033,1.8787,11.5655-1.6082,16.2882
				c-3.356,4.5454-10.136,10.6492-16.1887,7.7688c-0.8652-0.4118-1.6236,0.8832-0.7541,1.2901
				c6.3965,2.994,13.0457-2.1751,17.0292-6.8753c4.3881-5.1776,6.0178-12.1553,3.0425-18.4745
				c-2.7537-5.8487-9.371-9.4372-15.7845-8.4406c-5.9122,0.9188-10.6784,5.7986-11.5895,11.679
				C513.1216,67.0868,513.9381,67.3339,514.0477,66.7751L514.0477,66.7751z"/>
		</g>
	</g>
	<g>
		<g>
			<path fill="#303030" d="M484.203,60.4058c0.1466-6.0574,0.4735-12.2985,3.3127-17.7879c0.6757-1.3064,1.4871-2.703,2.5786-3.7001
				c1.2774-1.1668,1.8694-1.4167,3.4764-0.5777c1.6588,0.8661,1.522,1.2711,1.6405,2.9396
				c0.1107,1.5582,0.1692,3.1702,0.0519,4.7292c-0.1354,1.8003-0.7562,3.4729-1.0541,5.2431
				c-0.1385,0.8232,1.1003,1.1908,1.2713,0.3505c0.8289-4.0727,2.0916-8.7447,0.769-12.9036
				c-0.9934-3.1239-4.1237-3.0293-6.4175-1.3096c-2.8945,2.17-4.4673,6.2278-5.3651,9.6084
				c-1.1576,4.3589-1.3325,8.9219-1.2717,13.4081C483.204,61.0548,484.1873,61.0546,484.203,60.4058L484.203,60.4058z"/>
		</g>
	</g>
	<g>
		<g>
			<path fill="#303030" d="M483.2091,92.7297c2.4165-1.3767,4.0998-3.5954,4.7333-6.3215c0.676-2.9091-0.1414-5.2171-1.6665-7.669
				c-1.3551-2.1785-2.7928-4.2329-5.4772-4.7121c-2.7666-0.4939-5.879,0.1721-8.1704,1.7919
				c-4.294,3.0354-5.4573,9.4258-2.6214,13.8457c2.8162,4.3891,8.8232,5.6765,13.3413,3.3028
				c0.831-0.4366,0.0984-1.6733-0.7334-1.2547c-3.8468,1.9354-8.926,0.9398-11.3466-2.7853
				c-2.3817-3.6653-1.5554-8.9927,1.8854-11.6873c1.7335-1.3576,4.0118-2.0449,6.2167-1.9137
				c2.8961,0.1723,4.2276,1.8131,5.6922,4.122c1.3564,2.1382,2.1368,4.0849,1.6363,6.6168c-0.4815,2.436-1.9121,4.4934-3.945,5.8853
				C482.2797,92.2751,482.6978,93.021,483.2091,92.7297z"/>
		</g>
	</g>
	<g>
		<g>
			<path fill="#303030" d="M482.8569,65.2525c1.1857-1.4578,2.8985-3.5794,4.8573-2.9839c1.458,0.4433,1.4249,1.3571,1.382,2.8946
				c-0.0392,1.4094-0.4911,2.6317-1.2038,3.8281c-0.3864,0.6487,0.4644,1.2107,0.9939,0.7669
				c2.6802-2.2468,5.7074-4.7344,9.4235-4.5902c3.8423,0.1491,5.7916,3.5077,5.3791,7.0317
				c-0.3758,3.2102-2.5535,5.663-5.0883,7.4967c-2.5651,1.8556-6.1646,4.2406-9.3793,4.1131c-0.8588-0.034-0.85,1.28,0,1.3301
				c3.9637,0.2335,8.4805-2.872,11.3909-5.3359c2.8209-2.3881,4.8001-5.7266,4.4054-9.5271
				c-0.3398-3.2721-2.5641-5.8613-5.8801-6.3214c-4.374-0.6069-8.0109,2.2695-11.146,4.908
				c0.3313,0.2556,0.6626,0.5112,0.9939,0.7669c1.2525-2.1652,2.3848-6.6697,0.0571-8.6174
				c-2.2643-1.8946-5.6583,2.174-6.8481,3.7286C481.9058,65.1183,482.5547,65.6241,482.8569,65.2525L482.8569,65.2525z"/>
		</g>
	</g>
	<g>
		<g>
			<path fill="#303030" d="M522.0515,88.7256c-1.9521,5.5206-5.1142,13.1896-11.7578,13.8522
				c-4.7646,0.4752-9.5181-1.174-14.0355,1.0393c-0.7964,0.3902-0.099,1.5746,0.695,1.189c5.3992-2.6224,11.6905,0.8039,17.1-1.8101
				c4.9224-2.3787,7.4861-9.1047,9.004-13.9931C523.2581,88.3559,522.2729,88.0994,522.0515,88.7256L522.0515,88.7256z"/>
		</g>
	</g>
	<g>
		<g>
			<path fill="#303030" d="M484.7552,92.0323c1.8121,1.1869,3.8281,2.2686,5.9725,2.7031c2.2219,0.4502,4.3202-0.5251,6.5423-0.3186
				c-0.1963-0.1963-0.3926-0.3926-0.5889-0.5889c0.2185,2.2418-0.0037,4.7301-1.0831,6.7504
				c-1.2745,2.3855-3.5557,2.7712-6.0294,2.273c-3.776-0.7606-7.5992-2.9778-10.3718-5.6282
				c-0.597-0.5707-1.5067,0.3365-0.9073,0.9074c3.3506,3.1913,8.6006,6.3377,13.3787,6.1941
				c5.2687-0.1583,6.6445-6.1484,6.1908-10.4967c-0.0355-0.34-0.2426-0.5572-0.5889-0.5889
				c-2.0134-0.1845-3.9252,0.6512-5.9221,0.3992c-2.149-0.2712-4.2777-1.3364-6.1846-2.3041
				C484.6989,91.0984,484.3185,91.7463,484.7552,92.0323L484.7552,92.0323z"/>
		</g>
	</g>
	<g>
		<g>
			<path fill="#303030" d="M485.7873,90.7083c5.5195,1.7157,12.1673,2.7097,16.9236-1.4142
				c0.4675-0.4053,1.0977-1.3591,1.6357-1.6368c1.9319-0.4512,2.6986-0.1105,2.3001,1.0218
				c-0.0801,0.6506-0.2929,1.2618-0.6384,1.8334c-0.7676,1.6714-1.7351,3.2482-2.7088,4.8048
				c-2.0756,3.318-4.1361,6.8283-7.9594,8.3012c-0.709,0.2732-0.4401,1.3877,0.3209,1.1639
				c3.6145-1.0631,5.8019-4.2566,7.7444-7.2719c1.4062-2.1829,2.8352-4.3957,3.8936-6.7732
				c0.5278-1.1857,1.1003-2.6501,0.4428-3.9046c-1.4893-2.8415-4.3598,0.0887-5.6848,1.2825
				c-4.4399,4.0006-10.7354,3.163-16.0252,1.706C485.4589,89.6634,485.2233,90.5329,485.7873,90.7083L485.7873,90.7083z"/>
		</g>
	</g>
	<g>
		<g>
			<path fill="#303030" d="M451.2136,100.2937c-3.0042,0.9647-5.9511,2.1298-8.859,3.3519
				c-1.3259,0.5572-2.6407,1.1382-3.9465,1.7409c-1.0636,0.4909-2.625,0.9563-3.4359,1.8825
				c-0.9447,1.079-0.7892,2.1528,0.1516,3.1461c0.7774,0.8207,1.9391,1.4145,2.8527,2.0602
				c0.859,0.6071,1.9623,1.7861,3.0356,1.9486c1.848,0.2798,4.2756-1.5212,5.889-2.2948c2.8511-1.3672,5.9136-2.6738,8.5756-4.3899
				c4.7121-3.0378-2.6137-6.1783-4.9182-7.4228c-0.7227-0.3903-1.3645,0.7014-0.6447,1.1029
				c1.3355,0.745,3.6317,1.4689,4.6997,2.5693c2.4935,2.5692-2.3915,4.1344-3.7997,4.8572
				c-1.4968,0.7683-3.0064,1.5117-4.5251,2.2355c-1.6599,0.7912-4.0808,2.42-5.8692,1.6191
				c-0.6434-0.2881-1.2375-0.879-1.8192-1.2922c-0.5739-0.4077-2.293-1.2217-2.597-1.8727
				c-0.9598-2.0555,3.0909-3.1284,4.3004-3.6907c3.6619-1.7023,7.4009-3.1832,11.1528-4.6699
				C451.9899,100.9638,451.7857,100.11,451.2136,100.2937L451.2136,100.2937z"/>
		</g>
	</g>
	<g>
		<g>
			<path fill="#303030" d="M433.6139,109.1694c-1.7626,1.5386-0.9281,3.7009,0.6574,5.0055
				c0.5854,0.4817,1.2695,0.8096,1.8909,1.2366c1.1622,0.7988,1.1044,1.1272,2.0444,2.0601
				c0.8765,0.8698,1.5391,1.1053,2.7646,0.785c1.7598-0.4599,3.4491-1.6695,5.051-2.5079c1.9826-1.0376,3.9705-2.0656,5.948-3.113
				c2.3226-1.2301,4.7096-2.679,4.8502-5.5524c0.0393-0.803-1.208-0.8005-1.248,0c-0.1267,2.5364-2.7179,3.6649-4.6548,4.7008
				c-2.1137,1.1305-4.2353,2.2464-6.3528,3.3696c-0.8759,0.4646-2.0043,1.3645-2.9648,1.5722
				c-2.5664,0.5549-2.5302-0.4134-3.7641-1.4968c-1.3751-1.2074-6.0579-3.0368-3.6006-5.4384
				C434.644,109.3914,434.0363,108.8007,433.6139,109.1694L433.6139,109.1694z"/>
		</g>
	</g>
	<g>
		<g>
			<path fill="#303030" d="M438.6012,108.8497c2.4588-0.9763,4.9087-1.9752,7.3432-3.0109
				c1.6052-0.6829,3.4447-1.7312,5.2576-1.1469c0.5993,0.1932,0.9199,0.7084,1.6109,0.841c0.7461,0.1432,1.0691-0.9929,0.3162-1.147
				c-1.0615-0.2173-1.6072-1.3086-2.6835-1.4618c-0.7019-0.1-1.3511,0.2617-1.9738,0.5227c-3.4407,1.4421-6.832,3.017-10.207,4.6051
				C437.823,108.2597,438.1396,109.033,438.6012,108.8497L438.6012,108.8497z"/>
		</g>
	</g>
	<g>
		<g>
			<path fill="#303030" d="M405.7282,151.595c1.6988,4.5324,3.2824,9.105,4.7388,13.7211c0.6797,2.1544,1.3273,4.3181,1.9593,6.4869
				c0.4185,1.4361,0.6588,3.587,1.7025,4.7472c1.573,1.7486,4.3046,0.9603,6.2704,0.4653c2.6733-0.6731,5.5353-1.8623,6.6911-4.587
				c1.3398-3.1587-0.9101-7.1868-1.9034-10.1251c-1.4846-4.3916-2.9854-8.7775-4.4974-13.1597
				c-0.8494-2.4617-1.4264-4.7387-4.516-4.3916c-3.5754,0.4016-7.5768,2.5547-10.7302,4.1799
				c-0.6036,0.3111-0.0734,1.1974,0.5294,0.9056c2.8797-1.3941,5.8554-2.8155,8.9465-3.6826
				c2.0229-0.5674,3.4767-0.2087,4.2276,1.8712c0.5616,1.5555,1.0607,3.1377,1.5917,4.7039c1.01,2.9792,2.0307,5.9548,3.0576,8.9282
				c0.9339,2.7041,3.2957,6.8905,2.5077,9.793c-0.8562,3.1537-4.5781,4.1103-7.3492,4.695
				c-0.6135,0.1295-1.5398,0.4137-2.1197,0.3097c-1.6036-0.2877-2.1913-1.247-2.6227-2.6347
				c-0.4311-1.3866-0.8152-2.7883-1.2452-4.1756c-1.9125-6.169-4.0559-12.2614-6.3742-18.2891
				C406.3882,150.825,405.5246,151.0518,405.7282,151.595L405.7282,151.595z"/>
		</g>
	</g>
	<g>
		<g>
			<path fill="#303030" d="M406.0103,148.1308c1.412-3.1208,6.442-3.3186,9.3606-3.9474c1.3344-0.2875,3.2208-0.6095,4.4611,0.2089
				c0.6462,0.4264,1.2231,1.6839,1.6397,2.3879c1.0008,1.6916,1.7748,3.5014,2.436,5.3494
				c1.1025,3.0815,1.8952,6.2621,2.8758,9.3825c0.4578,1.4567,1.0609,2.8609,1.5301,4.3091c0.376,1.1606,0.854,2.2181,0.3359,3.4142
				c-0.4044,0.9335-1.2281,1.8316-1.7807,2.6896c-0.4315,0.6699,0.6118,1.2563,1.0574,0.6181
				c0.9285-1.3301,2.7564-3.0893,2.4956-4.8621c-0.3143-2.1369-1.7829-4.3951-2.4539-6.4955
				c-1.4566-4.5588-2.5525-9.2825-4.7691-13.5571c-0.7737-1.4921-1.7335-3.5037-3.1559-4.5045
				c-1.4766-1.0389-3.365-0.2932-4.9469,0.0619c-3.3629,0.755-8.2906,0.9652-9.8246,4.6332
				C405.0962,148.2382,405.8217,148.5478,406.0103,148.1308L406.0103,148.1308z"/>
		</g>
	</g>
	<g>
		<g>
			<path fill="#303030" d="M409.4246,151.5853c2.3277,5.5181,4.3336,11.1623,5.9573,16.9276
				c0.3819,1.3559,0.4795,3.8709,2.0125,4.5513c1.2805,0.5683,2.6552-0.4491,3.5876-1.2104c0.5844-0.4772-0.249-1.302-0.8286-0.8286
				c-2.8634,2.3381-3.3819-1.9219-3.9199-3.728c-0.5852-1.9643-1.2225-3.9134-1.9015-5.8471
				c-1.2164-3.4638-2.6009-6.855-4.1095-10.2011C410.0216,150.8034,409.2319,151.1284,409.4246,151.5853L409.4246,151.5853z"/>
		</g>
	</g>
	<g>
		<g>
			<path fill="#303030" d="M498.5491,62.5156c3.9967-0.2811,7.6672,2.7606,7.9979,6.7883c0.0713,0.8687,1.434,0.8784,1.3652,0
				c-0.3659-4.6775-4.6551-8.3957-9.3631-7.9309C497.8289,61.4441,497.8082,62.5677,498.5491,62.5156L498.5491,62.5156z"/>
		</g>
	</g>
	<g>
		<g>
			<path fill="#303030" d="M492.0523,60.2374c-0.628-1.9198-2.56-2.986-4.5247-2.6563c-0.7946,0.1334-0.4666,1.3804,0.3364,1.2204
				c1.2922-0.2574,2.6578,0.5043,3.1599,1.7194C491.278,61.1355,492.2713,60.9069,492.0523,60.2374L492.0523,60.2374z"/>
		</g>
	</g>
	<g>
		<g>
			<path fill="#303030" d="M486.8931,78.5316c1.2331-1.8205,2.3757-3.8279,4.1982-5.1341c0.3283-0.2353,2.6906-1.6591,3.0206-1.2141
				c0.1689,0.2279-1.6688,2.6128-1.8082,2.779c-1.2061,1.4379-2.6933,2.6497-4.1755,3.7902
				c-0.2453,0.1888-0.7999,1.0185-0.0972-0.0086c0.3115-0.4554,0.617-0.9101,0.9533-1.3483
				c0.7004-0.9125,1.477-1.7411,2.3061-2.5375c-0.4783-0.4783-0.9567-0.9567-1.435-1.435c-1.3206,1.648-2.5348,3.2818-3.3313,5.2532
				c-0.3176,0.7861,0.8073,1.6728,1.4916,1.1467c1.361-1.0462,2.5671-2.1901,3.6352-3.5364
				c-0.5308-0.4095-1.0616-0.8191-1.5923-1.2286c-0.1955,0.3234-0.3909,0.6468-0.5864,0.9702
				c-0.5078,0.8401,0.5298,1.9602,1.3867,1.3867c1.8399-1.2316,3.2839-2.7887,4.3264-4.7452
				c0.6308-1.1838-0.9725-2.0261-1.747-1.0211c-0.6559,0.8511-1.3459,1.6823-1.9224,2.5894
				c-0.5768,0.9077,0.7577,1.9495,1.4954,1.1538c0.7893-0.8512,1.4651-1.8035,2.1739-2.7221
				c-0.5823-0.3404-1.1646-0.6808-1.747-1.0211c-0.8787,1.6466-2.0496,2.9781-3.6024,4.0161
				c0.4622,0.4622,0.9244,0.9244,1.3867,1.3867c0.1957-0.3233,0.3914-0.6466,0.5871-0.9699
				c0.5796-0.9576-0.8619-2.1481-1.5923-1.2286c-0.9561,1.2036-2.0045,2.2787-3.2264,3.2167
				c0.4972,0.3822,0.9944,0.7645,1.4916,1.1467c0.6575-1.6246,1.7238-2.9994,2.8081-4.358c0.7965-0.998-0.4709-2.3648-1.435-1.435
				c-1.2079,1.1648-6.5253,6.2374-3.1895,7.6119c1.3237,0.5454,2.4218-0.4828,3.3855-1.2551
				c1.5185-1.217,2.9909-2.4929,4.1799-4.0438c1.3191-1.7206,3.3577-6.0214-0.6479-5.4381
				c-3.9056,0.5688-6.1937,4.4008-7.6363,7.6806C485.6665,78.6163,486.4901,79.1266,486.8931,78.5316L486.8931,78.5316z"/>
		</g>
	</g>
	<g>
		<g>
			<path fill="#303030" d="M481.1081,74.7141c0.6105-0.9199,1.0855-1.9493,1.5808-2.9364c0.3502-0.6979,0.9937-2.8555,2.0038-2.5351
				c-0.1927-0.2531-0.3854-0.5062-0.5781-0.7593c0.1184,2.2176-0.8045,4.1955-2.5236,5.5868c0.3771,0,0.7542,0,1.1313,0
				c-0.0034-0.0032,1.4901-2.4666,1.5774-2.6233c0.4987-0.8951-0.8322-1.6698-1.3711-0.8014
				c-0.6555,1.0563-2.6653,3.3417-1.3375,4.556c0.3432,0.3139,0.783,0.2841,1.1313,0c2.0214-1.6491,3.0833-4.1211,2.9672-6.7181
				c-0.0169-0.3783-0.2386-0.6282-0.5781-0.7593c-1.2555-0.4849-2.3667,0.3112-2.9561,1.4009
				c-0.8445,1.5613-1.6054,3.4489-2.0806,5.1534C479.8974,74.9141,480.7607,75.2375,481.1081,74.7141L481.1081,74.7141z"/>
		</g>
	</g>
	<g>
		<g>
			<path fill="#FFFFFF" d="M395.0447,189.5607c3.3091-1.0262,6.7507-0.903,9.9275,0.5461c1.4975,0.6831,2.8861,1.6331,4.0325,2.8157
				c1.1921,1.2299,1.7592,2.8954,2.9447,4.0934c1.057,1.068,2.2473,1.3031,3.7046,1.1946c2.118-0.1577,3.9164,0.0447,5.8291,1.047
				c3.8703,2.0281,6.221,5.9183,8.4565,9.5068c1.3654,2.1918,4.8677,0.1519,3.4674-2.0268
				c-2.4476-3.8078-5.0352-7.7408-8.9503-10.1937c-1.7723-1.1104-3.7874-1.872-5.8671-2.1114
				c-0.9619-0.1107-1.8866-0.0854-2.8464,0.0328c-1.472,0.1813-1.5897-0.3567-2.3969-1.5081
				c-4.1576-5.9309-12.207-8.7179-19.0617-6.1536C392.5919,187.4367,393.2584,190.1147,395.0447,189.5607L395.0447,189.5607z"/>
		</g>
	</g>
	<g>
		<g>
			<path fill="#FFFFFF" d="M488.446,246.2865c4.7953-4.5728,11.7341-6.8443,18.2237-5.0444
				c0.9515,0.2639,2.1033-0.3237,2.329-1.3224c1.788-7.9123,10.0418-11.6195,17.4338-12.4704c2.5843-0.2975,2.705-4.3168,0-4.1406
				c-8.9847,0.5851-19.9858,6.2424-21.1528,16.1077c0.7989-0.6086,1.5977-1.2171,2.3966-1.8257
				c-7.8315-1.1945-15.7185,0.799-21.2743,6.6518C485.12,245.5932,487.097,247.5729,488.446,246.2865L488.446,246.2865z"/>
		</g>
	</g>
	<g>
		<g>
			<path fill="#FFFFFF" d="M438.1638,147.5078c-0.592,1.1774-0.4909,1.962,0.3032,2.3541c0.3273,0.1917,0.6328,0.4146,0.9165,0.6689
				c0.4176,0.3553,0.7909,0.7659,1.1315,1.1936c0.7759,0.9742,1.335,2.0874,1.6886,3.2807
				c0.7071,2.3864,0.4513,4.8918-0.7804,7.0505c-1.1682,2.0474,2.0071,3.9001,3.1571,1.8454
				c2.5164-4.4964,1.9203-10.1729-1.3459-14.1542c-1.2947-1.5782-3.6198-3.6937-5.8282-3.4462
				c-2.0062,0.2248-2.726,2.937-0.7961,3.8651C438.3749,151.0144,439.9281,148.4548,438.1638,147.5078L438.1638,147.5078z"/>
		</g>
	</g>
	<g>
		<g>
			<path fill="#FCE0DE" d="M484.3265,243.2844c3.9415-1.5047,7.9091-2.9697,11.8705-4.4236
				c1.6008-0.5875,3.253-1.1082,4.7976-1.8336c0.4374-0.2054,3.8604-2.6709,3.7692-2.7555
				c1.7427,1.6179,4.3102-0.9236,2.6185-2.6185c-3.2628-3.2689-6.1334,1.2357-8.9256,2.5424
				c-4.9988,2.3393-9.9948,4.7004-15.0152,6.9898C482.2704,241.7194,483.1079,243.7496,484.3265,243.2844L484.3265,243.2844z"/>
		</g>
	</g>
	<g>
		<g>
			<path fill="#FCE0DE" d="M436.9165,206.7679c-0.5175-2.2038-1.458-4.3237-2.2974-6.4022
				c-0.8244-2.0415-2.9168-3.6616-4.7066-4.827c-2.4107-1.5697-4.6985,2.3356-2.2555,3.8586
				c1.4977,0.9337,2.6597,2.1436,4.0298,3.2226c1.611,1.2688,2.3679,2.7982,2.9246,4.7835
				C435.0274,208.8876,437.2681,208.2652,436.9165,206.7679L436.9165,206.7679z"/>
		</g>
	</g>
	<g>
		<g>
			<path fill="#FCE0DE" d="M448.3198,162.2375c0.0104-0.9336,0.0208-1.8671,0.0312-2.8007c0.0176-1.5786-2.4708-1.5812-2.4531,0
				c0.0104,0.9336,0.0208,1.8671,0.0312,2.8007C445.9464,163.7756,448.3026,163.7782,448.3198,162.2375L448.3198,162.2375z"/>
		</g>
	</g>
	<g>
		<g>
			<path fill="#FFFFFF" d="M497.9621,216.6614c4.2781-1.3596,9.0366,1.2009,10.1186,5.5887
				c0.4349,1.7635,3.2122,1.0098,2.7271-0.7518c-1.561-5.6694-7.8764-9.1181-13.4563-7.0517
				C495.9878,214.9516,496.5331,217.1156,497.9621,216.6614L497.9621,216.6614z"/>
		</g>
	</g>
	<g>
		<g>
			<path fill="#FFFFFF" d="M425.8173,189.4886c1.7164-5.9654,9.6195-7.0855,12.6245-1.549c0.4776,0.8799,1.8862,1.117,2.569,0.3311
				c2.8035-3.2274,5.8408-5.7816,9.7218-7.6296c2.0295-0.9664,0.2574-3.9998-1.7665-3.0221
				c-4.1549,2.0069-7.8166,4.9151-10.5243,8.6695c0.9416,0,1.8832,0,2.8248,0c-4.5624-7.4757-15.7278-6.1837-17.7394,2.5688
				C423.1856,190.3433,425.393,190.9635,425.8173,189.4886L425.8173,189.4886z"/>
		</g>
	</g>
</g>
</svg>
