<?xml version="1.0" encoding="utf-8"?>
<!-- Generator: Adobe Illustrator 20.1.0, SVG Export Plug-In . SVG Version: 6.00 Build 0)  -->
<svg version="1.1" xmlns="http://www.w3.org/2000/svg" xmlns:xlink="http://www.w3.org/1999/xlink" x="0px" y="0px"
	 viewBox="0 0 852 289" enable-background="new 0 0 852 289" xml:space="preserve">
<g id="site_bg">
</g>
<g id="back">
	<g>
		<g>
			<path fill="#F7FAFC" d="M697.6324,287.2186c-4.3359,0-9.5166-1.4419-15.2646-5.8101c-1.9863-1.5098-4.4834-3.5991-7.6113-6.3696
				c-1.0127,1.394-2.2031,2.6724-3.5557,3.8076c-5.1445,4.3145-11.8291,5.5991-17.8701,4.0405
				c-3.6211-0.0371-7.5312-1.0791-11.4492-3.6436c-1.0977-0.7183-2.2637-1.5938-3.668-2.7549
				c-1.8633-1.5396-4.3076-3.7163-7.4736-6.6543c-0.0908-0.085-0.1826-0.1704-0.2754-0.2568
				c-0.5254,0.5493-1.084,1.0723-1.6738,1.5679c-2.7354,2.2944-12.7314,9.1226-26.5273,0.6382
				c-2.4238-1.4902-5.2246-3.5303-8.8145-6.4199c-5.6982-4.5869-13.2471-11.2139-23.0791-20.2588
				c-3.5352-3.252-7.3535-6.8071-11.4453-10.6558c-5.8369,4.3848-15.7686,6.6558-25.8184-0.7153
				c-1.6377-1.2017-3.5098-2.7764-5.8906-4.9575c-1.1895-1.0889-2.5205-2.3438-4.0039-3.7734
				c-6.9424,3.106-15.3193,2.0708-21.3516-3.2148c-5.7402-5.0288-11.9619-10.4717-18.4648-16.1523
				c-0.8633,1.0669-1.8359,2.0581-2.9121,2.9614c-2.4834,2.085-11.5586,8.4058-23.9355,2.1392
				c-2.0654-1.0449-4.2529-2.4468-6.8867-4.4106c-1.9844-1.481-4.3027-3.3457-7.002-5.6338
				c-6.7695,4.1987-15.6416,4.063-22.374-0.8799l-9.373-6.8809c-0.9268,1.252-2.0039,2.4014-3.2168,3.4194
				c-2.2598,1.895-10.5156,7.7012-22.0283,2.8252c-1.4971-0.6343-3.127-1.4658-5.127-2.6162
				c-0.1865-0.1074-0.377-0.2178-0.5703-0.3311c-0.6514,0.9668-1.3945,1.8882-2.2314,2.752
				c-7.126,7.3618-18.6641,8.1445-26.7217,1.8149l-0.4668-0.3672c-1.2002,3.7002-3.4072,7.0288-6.3994,9.54
				c-7.9297,6.6523-16.585,5.4258-23.1465,2.7886c-1.1514,4.1333-3.5127,7.8628-6.8096,10.6289
				c-6.9482,5.8291-16.8613,6.2056-24.1885,1.1582c-0.0039,0.0908-0.0088,0.1821-0.0146,0.2729
				c-0.3477,5.9565-3.0156,11.314-7.5107,15.0859c-4.1328,3.4678-9.2852,4.9849-14.2969,4.627
				c-0.667,0.7603-1.3994,1.4785-2.1973,2.1484c-2.5098,2.1074-10.9902,7.9316-22.6748,2.5122
				c-1.2012,2.2759-2.8418,4.3203-4.8545,6.0034c-6.2979,5.2656-17.2002,7.3521-26.2627-0.5151l-4.2119-3.6802
				c-0.9287,4.3242-3.2725,8.2461-6.6982,11.1206c-12.0244,10.0898-26.7119,3.8848-39.6309-4.4966
				c-1.2168,2.499-2.9531,4.7432-5.127,6.5669c-4.1416,3.4766-9.3975,5.1304-14.8096,4.6489
				c-0.667-0.0591-1.3125-0.1392-1.9424-0.2446c-2.0078,0.1548-4.0342,0.0083-6-0.438c-3.1592,0.3584-6.6191-0.0166-10.1807-1.4907
				c-3.7471,0.79-8.4248,0.626-13.709-2.0088c-0.9102-0.4531-1.9385-1.021-3.2354-1.7861
				c-1.8613-1.0977-4.3613-2.6528-7.6436-4.7539c-4.752-3.043-11.2461-7.2998-19.3369-12.6768
				c-0.7773,0.9536-1.6533,1.8491-2.6279,2.6709c-8.4414,7.1216-21.0596,6.0493-28.1807-2.3936c0,0-10.625-12.5977-21.2344-25.209
				c-5.3125-6.3149-10.6211-12.6333-14.5938-17.3794c-2.0088-2.3999-3.6797-4.4028-4.8438-5.8086
				c-0.6309-0.7612-1.124-1.3608-1.457-1.772c-8.332-10.2695-5.0947-22.3335,2.1807-28.4712
				c1.1152-0.9321,4.8223-3.7241,10.1182-4.4897c-4.9131-8.2432-5.4102-12.7012-5.1855-17.2217
				c0.3008-6.0723,2.9883-11.5322,7.5674-15.3745c0.9912-0.8311,2.0391-1.5498,3.1289-2.1577
				c0.916-1.2388,1.9922-2.3906,3.2227-3.4253c1.0947-0.9199,2.3213-1.7295,3.6436-2.4043c0.1025-0.0898,0.207-0.1787,0.3115-0.2666
				c1.374-1.1528,2.8828-2.1045,4.4834-2.8423c7.2822-5.3955,17.2969-5.1982,24.3555,0.4312
				c-0.0352-0.8525-0.0176-1.7393,0.0586-2.667c0.4336-5.3271,2.998-10.2939,7.0928-13.73
				c2.1514-1.8057,9.0254-6.6074,18.5498-3.9653c-0.0752-1.0503-0.0684-2.1118,0.0254-3.1738
				c0.4619-5.2842,3.0049-10.168,7.0674-13.5771c1.3633-1.144,6.6748-5.1426,14.1191-4.7061
				c0.8213-4.3916,3.1113-8.5366,6.8008-11.6328c1.3125-1.1016,6.1006-4.6855,12.8135-4.7227
				c0.8525-1.0889,1.8223-2.0947,2.8984-2.9976c6.0146-5.0415,16.1455-7.1372,25.2266-0.4551
				c0.4609,0.3398,1.1318,0.854,1.9912,1.5386c1.2842,1.0229,3.0596,2.4731,5.4268,4.4346
				c1.4785,1.2246,3.1943,2.6538,5.1387,4.2812c1.1348-4.2241,3.5078-7.9702,6.917-10.8306
				c7.7646-6.5132,19.1738-6.1899,26.5537,0.7515c8.8223,8.2954,17.875,16.7246,26.917,25.0659
				c0.7451-1.3496,1.6592-2.6328,2.7412-3.8184c7.0596-7.7358,18.8926-8.7139,27.126-2.2451l40.7949,32.0479
				c6.7695-5.9893,16.8008-6.7012,24.3672-1.627c1.1953-2.2476,2.8184-4.2686,4.8057-5.9355
				c5.3955-4.5259,12.6191-5.7866,19.042-3.6997c1.2812-3.1851,3.3193-6.0371,5.9688-8.2607
				c3.8271-3.2104,9.7295-5.5723,16.4883-4.5107c1.0332-1.5322,2.2832-2.9272,3.7266-4.1377
				c1.7637-1.479,10.083-7.6494,20.9971-2.8877c1.1738-3.0757,3.125-5.9043,5.8262-8.1704
				c1.3027-1.0933,6.1982-4.7622,13.1562-4.7622c0.1797,0,0.3604,0.0024,0.5439,0.0078c0.5195-0.606,1.0801-1.1865,1.6826-1.7388
				c6.4707-5.9346,15.8291-6.8203,23.1562-2.7856c1.0234-2.9546,2.7568-5.7114,5.1885-8.0005
				c5.9355-5.5864,14.3936-6.8486,21.4707-3.873c1.1465-1.9194,2.6084-3.6519,4.3359-5.1011
				c2.2998-1.9297,5.1025-3.3662,8.1396-4.1143c5.7529-2.4824,12.3877-2.1157,17.835,0.9946
				c1.2236-2.8301,3.0967-5.3662,5.5029-7.3853c3.5215-2.9556,13.2178-8.9775,27.5459-1.5737
				c1.1914-2.4512,2.9062-4.6968,5.1299-6.562c4.9238-4.1328,11.3213-6.021,18.0195-5.3203
				c1.2402,0.1304,2.5117,0.3408,3.8359,0.6597c7.7744-3.6714,17.3379-2.0029,23.3828,4.7012
				c0.1309,0.146,4.3438,4.814,11.4717,12.6196c1.1523-3.5034,3.2627-6.6553,6.1416-9.0718
				c4.1465-3.4805,9.4062-5.1396,14.833-4.6572c2.3818,0.2095,4.5186,0.7544,6.5693,1.6553
				c3.6357,0.2495,7.3643,1.5215,10.8164,4.0889c4.6787-0.8638,10.7188-0.3008,17.4902,4.3662
				c0.2031,0.1401,0.4092,0.2852,0.6182,0.4341c1.4004-0.1533,2.8213-0.1602,4.2373-0.0137
				c3.1562,0.3276,5.7041,1.1289,8.123,2.5776c4.3125,0.5635,8.4619,2.5298,11.7139,5.8628
				c0.2236,0.2295,15.8105,16.1938,37.0508,37.3755c0.8926-1.1709,1.915-2.2466,3.0537-3.2021
				c7.8213-6.5615,19.3291-6.1797,26.6973,0.8892c7.6084,7.2979,16.0156,15.3579,24.6416,23.6226
				c6.7031-2.021,14.2207-0.4302,19.5752,4.6729l5.6689,5.4038c6.3789-0.6445,12.9258,1.7734,17.3467,7.0425l40.501,48.2666
				c5.8203,6.9355,6.1533,16.7188,1.3213,23.9526c-0.3789,5.7051-3.0742,11.0513-7.4131,14.6919
				c-0.3066,0.2568-1.1523,0.9312-2.4297,1.6914c-0.9873,4.5049-3.3965,8.5132-6.9717,11.5132
				c-4.6172,3.874-9.4814,5.1436-14.0723,5.0132c-0.2637,5.5742-2.8447,10.7852-7.1211,14.373
				c-0.7412,0.6221-1.5176,1.1895-2.3223,1.7007c-0.334,0.3223-0.6797,0.6338-1.0371,0.9336
				c-1.5361,1.2891-3.21,2.3071-4.9629,3.0605c-0.8369,1.0586-1.7842,2.0376-2.834,2.918
				c-1.3604,1.1416-2.9707,2.1733-4.7764,2.9858c-0.8047,0.9395-1.6914,1.8184-2.6553,2.6274
				c-0.7988,0.6699-1.6445,1.2725-2.5293,1.8052c-0.3301,0.3125-0.6709,0.6157-1.0225,0.9106
				c-6.0312,5.061-12.6025,5.9419-18.627,4.9736c-0.6201,5.0293-3.1543,9.7207-7.0361,12.9785
				c-3.6182,3.0361-8.1758,4.6787-12.8545,4.6792c-0.0156,0-0.0312,0-0.0469,0c-0.4102,0.4097-0.8418,0.8052-1.2939,1.1846
				c-5.75,4.8252-15.7432,7.5308-26.5498,0.6553c-1.4404-0.9165-2.9814-2.0337-4.709-3.4189
				c-1.2158,2.479-2.9434,4.7026-5.0996,6.5117C708.692,284.0067,704.1031,287.2186,697.6324,287.2186z"/>
		</g>
	</g>
	<g>
		<g>
			<path fill="#F2F6F9" d="M669.9634,271.7479c-2.7578,0-5.5527-0.5454-8.2295-1.6592c-1.6094-0.6699-3.168-1.5215-4.9053-2.6807
				c-1.4004-0.9341-2.9678-2.103-4.8418-3.6133c-6.3008,4.8955-16.3799,6.5923-25.3115-0.4727
				c-0.7041-0.5562-1.498-1.2354-2.5-2.1367c-1.415-1.2729-3.3057-3.043-5.9502-5.5698
				c-4.7334-4.5234-11.3203-10.9419-18.9482-18.373c-3.9941-3.8911-9.168-8.9326-15.041-14.6245
				c-4.1914,2.9565-9.2822,4.2651-14.5186,3.6963c-2.2334-0.2422-4.3633-0.8057-6.4629-1.6846
				c-8.0176-0.6855-15.8711-5.0254-21.9639-8.4673c-0.834,1.0449-1.7725,2.0107-2.8057,2.8779
				c-6.1572,5.1675-14.8115,6.1445-21.9658,2.4839l-2.5098-1.2842c-1.2139,3.0259-3.1611,5.7397-5.708,7.8765
				c-6.9502,5.8301-14.46,5.4971-20.7207,3.5317c-8.4443,6.4814-20.5771,5.2158-27.4844-3.0166
				c-1.2002-1.4302-2.166-2.9785-2.9014-4.5996c-3.4512-4.4751-13.7559-16.1646-22.3516-25.5269
				c-6.9053-7.5205-7.0361-19.0352-0.3047-26.7114c1.4434-1.6455,3.1035-3.002,4.9033-4.0591
				c0.5889-5.1328,3.1396-9.9087,7.0977-13.229c4.6367-3.8896,10.6865-5.4058,16.4473-4.3535
				c0.6465-4.9561,3.1348-9.5273,6.9854-12.7588c5.1318-4.3066,11.9199-5.6567,18.0977-3.9819
				c0.3799-5.3608,2.9072-10.5498,7.416-14.1758c0.7344-0.5903,1.498-1.1211,2.2842-1.5913
				c0.1348-0.1196,0.2715-0.2373,0.4102-0.3535c2.0674-1.7349,6.2832-4.5229,12.2812-4.8496
				c1.1436-4.061,3.4746-7.7275,6.7168-10.4482c1.9912-1.6709,4.2197-2.8906,6.5557-3.6646
				c0.6279-4.9951,3.1221-9.5869,6.9941-12.8345c1.7734-1.4873,3.7373-2.6187,5.7998-3.395
				c-0.1709-1.3276-0.1973-2.7393-0.0918-4.2993c0.3408-5.0308,2.5742-9.748,6.2168-13.1958
				c0.6943-4.21,2.7344-8.2295,6.0908-11.3603c0.7275-0.6787,1.4932-1.2925,2.2881-1.8423c0.0059-0.123,0.0127-0.248,0.0195-0.3735
				c0.333-5.4785,2.9131-10.605,7.1172-14.1333c0.0518-0.0435,0.1045-0.0874,0.1592-0.1313
				c1.0938-3.7827,3.291-7.1899,6.3555-9.7612c1.1709-0.9824,2.9727-2.2661,5.3428-3.292c1.2178-2.4102,2.915-4.5771,5.0059-6.3311
				c1.1924-1.0005,2.4678-1.8389,3.7988-2.5161c2.5781-2.0034,5.5898-3.3311,8.7598-3.8965
				c7.0137-5.4453,16.7656-5.5669,23.8896-0.4575c0.8545-1.0845,1.8213-2.0854,2.8887-2.9814
				c7.2168-6.0552,17.5088-6.1665,24.8076-0.7173c7.4736-3.5215,16.6279-2.1396,22.7314,4.019
				c0.1104,0.1123,3.7314,3.7695,9.7256,9.9116c6.8291-1.23,14.1064,1.1328,18.8857,6.8296
				c0.3838,0.458,0.7451,0.9292,1.0811,1.4102c6.084,7.6865,67.5342,80.6548,108.0664,128.668
				c3.4277,4.061,5.0986,9.3188,4.6436,14.6138c-0.1074,1.2451-0.3301,2.4683-0.6602,3.6558
				c1.5293,4.2974,1.9287,7.7622,1.7773,11.0537c-0.2246,4.8906-1.8809,9.3945-4.7461,13.0566
				c0.2197,1.6787,0.248,3.2725,0.1533,4.8638c-0.3701,6.1714-3.1279,11.7124-7.7646,15.6035
				c-1.8271,1.5332-3.8545,2.6865-5.9824,3.4648c0.1533,1.3286,0.1738,2.6792,0.0547,4.0317
				c-0.4619,5.2837-3.0039,10.1675-7.0674,13.5767c-0.8633,0.7241-1.7734,1.3721-2.7246,1.9414
				c-0.9424,1.4507-2.0889,2.8008-3.4385,4.0093c-0.8232,0.7373-1.6924,1.3945-2.5947,1.9712
				c-0.2812,0.2651-0.5703,0.5225-0.8682,0.7725c-2.7959,2.3462-6.3916,4.0303-10.3496,4.5513
				c-0.709,0.8184-1.4893,1.5859-2.335,2.2959c-3.5996,3.0205-8.666,4.9595-14.0352,4.6704
				c-5.2705,3.4409-11.7461,4.1196-17.4648,2.1421c-4.084,3.2617-9.291,4.8008-14.499,4.271
				c-0.8457-0.0859-1.6797-0.2251-2.499-0.4146c-7.4717,3.98-16.8633,2.8618-23.2061-3.1982l-0.3203-0.3052
				c-0.8027,0.9932-1.7041,1.9136-2.6973,2.7466C679.3345,270.1336,674.7056,271.7479,669.9634,271.7479z M694.7408,44.6653
				c0.0059,0.0059,0.0098,0.0103,0.0156,0.0161c0.2988-1.4102,0.4414-2.8335,0.4395-4.2412
				C695.1939,41.8597,695.0416,43.2772,694.7408,44.6653z M691.9205,29.4525c1.3223,2.0103,2.2393,4.1938,2.7598,6.4409
				C694.1431,33.5428,693.2007,31.3426,691.9205,29.4525z"/>
		</g>
	</g>
</g>
<g id="Layer_2">
	<path fill="#FFEFAF" d="M754.6229,159.5846c-0.2412-1.0767-0.9966-1.5647-1.812-1.6057c-0.3457-0.5881-0.7339-1.1384-1.1479-1.6311
		c-0.0073-0.1528-0.0273-0.3025-0.0317-0.4563c-0.0493-1.6448-1.7627-2.084-2.7871-1.3716
		c-1.5464-0.0691-3.0796,1.1028-2.498,2.9631c0.5601,1.7908,1.2612,3.52,2.0796,5.1938c0.1313,0.7869,0.2915,1.5715,0.4868,2.3528
		c0.2085,0.8335,0.9521,1.4275,1.7671,1.572c1.1284,1.2688,3.7334,1.1843,4.0713-0.8064
		C755.1107,163.6771,755.0936,161.6861,754.6229,159.5846z"/>
	<path fill="#FFEFAF" d="M782.3925,157.2926c-0.3486-2.1084-2.6328-3.134-4.4736-2.0574c-0.7529,0.4402-1.3018,1.1704-2.0312,1.6482
		c-0.9756,0.6389-2.0059,0.9368-3.1499,1.1138c-1.1812,0.1826-1.812,1.6426-1.5444,2.698c-1.4937,0.959-0.5576,3.6143,1.4561,3.1704
		c2.2417-0.4941,4.4141-1.2029,6.4849-2.1997C780.9198,160.8067,782.7645,159.5457,782.3925,157.2926z"/>
	<path fill="#E93A1D" d="M721.7323,173.0792c-1.0239-4.6038-2.1895-9.3384-7.7734-9.1062
		c-3.9316,0.1636-6.9048,2.7612-8.0137,6.2207c-2.5093,0.4941-4.791,2.7009-4.6797,5.4614c0.0894,2.2236,1.7017,3.2117,3.665,3.5869
		c1.2959,0.2478,1.6416,0.3354,2.6309,1.2598c0.7686,0.7178,1.4014,1.3511,2.3784,1.7915c0.7671,0.3459,1.5005,0.2566,2.0737-0.0732
		c0.3877,0.1084,0.8047,0.1863,1.2896,0.1892C717.663,182.4359,722.6923,177.3929,721.7323,173.0792z"/>
	<path fill="#E93A1D" d="M682.9305,136.3123c0.1113-8.3845-14.6963-8.4272-19.5928-5.0984
		c-1.6689,1.1348-2.8579,3.1782-2.7754,5.1006c-0.3105,0.592-0.5874,1.2625-0.8057,1.9753c-0.3652,0.55-0.7114,1.1646-0.7563,1.686
		c-0.0249,0.2932-0.0078,0.5676,0.0273,0.8342c-1.2026,1.2185-1.792,2.8899-1.2681,5.2292
		c0.2661,1.1885,1.6875,2.3984,2.9619,2.2551c0.9468-0.1067,1.8921-0.2251,2.8374-0.3418c0.9497,1.0854,2.147,1.7385,4.0659,1.1123
		c2.229-0.7273,2.8853-2.4324,5.3555-1.8086c1.5845,0.4001,2.627,0.4468,4.0049-0.593c1.3159,0.9697,3.2529,1.0085,4.1914-0.8674
		c0.7905-1.5806,0.6982-3.0225,0.0176-4.0955C682.2123,139.9251,682.9081,138.0103,682.9305,136.3123z"/>
	<path fill="#E93A1D" d="M645.6224,158.7857c-1.0996-0.1531-1.9233-0.0442-2.9326,0.3965
		c-0.6157,0.2688-0.7285,0.8521-1.2749,0.9934c-0.6392,0.1655-1.707-0.1504-2.4365-0.0767
		c-3.6685,0.3716-6.4678,3.0532-8.7607,5.7129c-1.7627,2.0447-0.1182,5.5015,2.7397,4.7056
		c1.4321-0.3989,2.6782-0.4583,3.8545-0.3076c-0.0063,0.6943,0.1431,1.4351,0.4849,2.2183c1.3281,3.0457,5.064,3.1687,7.7329,2.0874
		c1.9082-0.7729,3.5225-2.073,5.5156-2.6638c1.4873-0.4409,3.1958-0.407,4.4766-1.4001
		C661.1937,165.6664,649.5502,159.3324,645.6224,158.7857z"/>
	<path fill="#FFEFAF" d="M671.851,136.4044c-0.7632,0.0613-1.5435,0.0862-2.2939,0.2527c-0.7012,0.1555-1.3774,0.4927-2.0303,0.7842
		c-1.6206,0.7239-0.749,3.2661,0.8774,3.2393c0.6523-0.0107,1.0083,0.0581,1.5918,0.1216c0.1216,0.0146,0.2432,0.0266,0.3652,0.0359
		c0.0156,0.0027,0.0127,0.0022,0.0332,0.0056c0.2842,0.0454,0.5557,0.1138,0.8286,0.2029c1.3613,0.4446,2.7695-0.6274,2.9492-1.9648
		C674.347,137.7794,673.2933,136.2884,671.851,136.4044z"/>
	<path fill="#FFEFAF" d="M645.5316,165.6283c-0.3452-1.0667-1.4111-1.7256-2.5229-1.4321
		c-0.8481,0.2236-1.6963,0.4475-2.5449,0.6714c-0.9824,0.2593-1.6777,1.3994-1.3569,2.3906
		c0.3486,1.0776,1.3154,1.5491,2.3906,1.3574c0.8672-0.1548,1.7344-0.3098,2.6016-0.4646
		C645.1581,167.962,645.851,166.6148,645.5316,165.6283z"/>
	<path fill="#FFEFAF" d="M712.7025,172.2127c-0.7129-0.6543-2.1201-0.8711-2.8032,0c-0.084,0.1069-0.168,0.2136-0.2515,0.3206
		c-0.623,0.7939-0.8325,1.9702,0,2.7344c0.8481,0.7788,1.8813,0.6694,2.7344,0c0.1069-0.0837,0.2134-0.1675,0.3203-0.2512
		C713.5223,174.3734,713.4266,172.8778,712.7025,172.2127z"/>
	<path fill="#E93A1D" d="M61.7455,123.431c-1.3076-2.0078-0.7705,0.0938-0.8325-2.1465c-0.0356-1.2925,0.1582-2.2476-0.1567-3.5488
		c-0.5254-2.1711-3.4009-2.8398-4.9287-1.301c-1.9194,1.9333-4.1841,3.2625-6.2598,4.9795
		c-2.4468,2.0242-4.103,2.4773-7.3179,3.2102c-1.6436,0.3748-2.3013,1.8738-2.0913,3.2646
		c-0.4873,0.1375-0.9746,0.2747-1.4619,0.4121c-1.3247,0.3733-2.6499,0.7466-3.9746,1.1201
		c-3.7378,1.0532-2.1948,6.4014,1.4922,5.8176c-0.3711,0.3164-0.7427,0.6323-1.1172,0.9539
		c-1.8018,1.5471,0.1113,4.7163,2.3184,3.9829c0.5557-0.1846,1.1118-0.3691,1.6675-0.5537c0.106-0.0352,0.2002-0.0808,0.2944-0.1267
		c0.021,2.0281,2.1865,3.8044,4.2603,2.5425c0.2437-0.0588,0.4316-0.1223,0.5845-0.189c0.6929,1.8999,3.0854,2.6399,4.7549,1.1396
		c2.7388-2.4624,4.0547-5.2202,7.7065-6.3215c2.856-0.8613,4.0596-1.7441,4.8555-4.6787
		C62.37,128.9227,63.6258,126.3192,61.7455,123.431z"/>
	<path fill="#E93A1D" d="M59.0951,174.8778c-0.0981-0.1489-0.2178-0.2808-0.3286-0.4199c0.1396-1.0818-0.2949-2.3064-1.3164-2.7708
		c-2.5669-1.1667-5.3047-1.4832-7.9873-0.4575c-1.6558,0.6333-2.2856,2.2959-1.7954,3.6414
		c-0.0122,0.0264-0.0342,0.0474-0.0444,0.0742c-2.1382,5.5845,5.457,7.9131,9.5693,6.6035
		C60.0282,180.6454,60.6049,177.1725,59.0951,174.8778z"/>
	<path fill="#E93A1D" d="M103.2098,172.3709c-0.3555-2.9194-1.1753-6.2515-2.1538-9.0239c-0.8149-2.3083-2.4517-3.8342-4.979-4.0095
		c-5.6841-0.394-9.957,4.2522-14.7842,6.4075c-1.6646,0.7432-1.8994,3.0312-1.168,4.4543c1.2012,2.3342,3.3906,2.6843,5.6509,3.0222
		c0.5337,1.4749,0.873,3.1262,1.792,4.3125c1.312,1.6946,3.3101,2.7542,5.4751,2.5415c1.5469-0.1519,3.0054-0.6768,4.5742-0.8354
		c1.063-0.1077,2.2031-0.2656,3.1416-0.8198C102.9466,177.128,103.496,174.723,103.2098,172.3709z"/>
	<path fill="#E93A1D" d="M130.9174,172.702c-1.2104-3.6602-4.0776-3.813-7.1284-5.125c-2.8745-1.2363-5.7803-2.7598-8.3843,0.0776
		c-2.6626,2.9006-1.231,6.9053-0.0435,10.1128c1.1079,2.9919,3.8628,4.9636,7.0596,3.4856
		c0.7666-0.3542,1.4072-0.8796,1.8931-1.5256c0.793-0.0212,1.5913-0.1157,2.3716-0.2571
		C130.4457,178.7874,132.1854,176.5387,130.9174,172.702z"/>
	<path fill="#FFEFAF" d="M122.0116,171.1495c-2.6646,0-2.6689,4.1406,0,4.1406C124.6757,175.2901,124.68,171.1495,122.0116,171.1495
		z"/>
	<path fill="#FFEFAF" d="M51.4955,128.0274c-0.3481-1.0759-1.5654-1.9773-2.7388-1.5549c-0.6685,0.2402-1.3369,0.4807-2.0054,0.7212
		c-1.0259,0.3691-1.8257,1.4395-1.4595,2.5708c0.3638,1.1235,1.4258,1.7119,2.5708,1.4597l2.0776-0.4578
		C51.0795,130.5155,51.8524,129.1305,51.4955,128.0274z"/>
	<path fill="#FFEFAF" d="M53.4183,174.117c-2.6016,0-2.606,4.043,0,4.043C56.0199,178.16,56.0238,174.117,53.4183,174.117z"/>
	<path fill="#FFEFAF" d="M93.6869,171.044c-0.0278-0.0574-0.0576-0.1135-0.0908-0.1685c-0.0215-0.0339-0.042-0.0671-0.0654-0.1001
		c-0.1602-0.2341-0.3647-0.4387-0.5986-0.5989c-0.0327-0.0232-0.0659-0.0435-0.1001-0.0649
		c-0.0547-0.0337-0.1113-0.0632-0.1689-0.0913c-0.8921-0.47-2.0337-0.3303-2.6743,1.2c-0.0288,0.0688-0.0581,0.1379-0.0869,0.2068
		c-0.355,0.8481-0.0718,1.5029,0.4722,1.895c0.3877,0.553,1.0444,0.8442,1.9067,0.4834c0.0688-0.0288,0.1377-0.0576,0.2065-0.0864
		C94.0174,173.0782,94.1571,171.9366,93.6869,171.044z"/>
	<path fill="#FFEFAF" d="M591.4657,74.0724c-2.3994-1.1526-4.21-0.1401-6.0708,1.5042c-0.4233,0.3743-0.8687,1.0457-1.3682,1.304
		c-0.915,0.4731-0.7954,0.3462-1.5317-0.0706c-1.0498-0.5942-1.8179-1.7246-2.9146-2.3406c-0.105-0.0588-0.2065-0.093-0.3096-0.1394
		c-0.6123-1.585-1.6489-2.9644-3.2822-3.9243c-0.7734-0.4541-1.8589-0.5-2.6279,0c-3.8496,2.5032,0.4097,6.0005,0.8296,9.0596
		c0.478,3.4807-2.896,8.269,1.645,10.3191c1.7559,0.7927,3.3853,0.1323,4.084-1.6616c0.2002-0.5146,0.6392-1.3003,1.0298-2.0994
		c1.0449,1.8743,2.8477,3.896,5.1948,3.5742c2.3911-0.3279,3.3291-2.9739,4.1938-4.8828c1.1196-2.4707,2.5776-5.3342,2.5962-8.0823
		C592.9408,75.6559,592.3802,74.5118,591.4657,74.0724z"/>
	<path fill="#E93A1D" d="M746.6361,170.0682c0.1733-1.3069-0.4731-2.634-1.6216-3.2986c-1.3169-0.7617-2.6768-0.3049-3.9429,0.2463
		c-0.603,0.2622-1.0127,0.5693-1.6191,0.0151c-2.6001-2.3765-6.3794,1.3518-3.8828,3.8831c0.8901,0.9023-0.3105,2.4622-0.835,3.2468
		c-1.0679,1.5969-1.4639,2.9883-0.6396,4.8125c0.5977,1.3228,2.5278,1.6528,3.688,0.967c0.7822-0.4626,1.168-1.1631,1.2544-1.9268
		c0.3418,0.1025,0.7734,0.604,1.1074,0.7742c1.084,0.5527,2.5005,0.6157,3.5542-0.0608c0.9985-0.6411,1.5503-1.7563,1.4888-2.9409
		c-0.0557-1.0759-0.6958-1.8867-0.1089-2.918C745.6376,171.8871,746.4755,171.2794,746.6361,170.0682z"/>
	<path fill="#E93A1D" d="M780.0258,138.299c1.2116-3.1708,0.9639-5.7547,0.2344-9.5119c-0.4794-2.4689,0.1012-7.5144-0.9509-9.6357
		c-0.6915-1.3944-2.879-1.8329-4.2101-2.7781c-2.1395-1.5191-3.2297-2.7491-6.3063-2.1924
		c-1.2895,0.2333-2.5084,0.832-3.7564,0.9918c-1.5825,0.2027-1.9266-0.5523-3.7126,0.4656
		c-2.9395,1.6753-3.7339,3.3467-7.4025,3.4245c-0.8655,0.0183,2.893,3.0212,2.7227,2.6798c0.6381,1.2786-0.005,3.1849-0.0483,4.5322
		c-0.1138,3.5436,0.6083,7.0927,1.1561,10.5766c0.6121,3.893,2.037,8.7431,6.8084,8.7552c3.0051,0.0076,5.5975-1.3317,8.2548-1.1404
		c1.1132,0.0802,1.9525,0.8128,3.0853,0.319c1.2599-0.5492,2.6802-3.4733,3.2628-4.5893
		C779.5087,139.5339,779.7939,138.9057,780.0258,138.299z"/>
	<g>
		<g>
			<path fill="#303030" d="M690.7386,185.0507c-1.5664-13.1454-5.6005-26.6031-12.0295-38.2206
				c-0.5247-0.9481-1.938-0.1099-1.447,0.8458c6.157,11.9843,10.3299,24.1693,12.2795,37.5367
				C689.6397,185.8848,690.8201,185.7336,690.7386,185.0507L690.7386,185.0507z"/>
		</g>
	</g>
	<g>
		<g>
			<path fill="#303030" d="M77.6953,186.1121c-2.2858-8.5243-6.2082-16.9071-10.0856-24.8082
				c-4.045-8.2426-8.6534-16.1909-13.7513-23.8261c-0.5756-0.862-1.9796-0.0493-1.3964,0.8162
				c4.9617,7.3636,9.4682,15.0217,13.449,22.9597c4.1101,8.1958,7.1681,16.7253,10.7108,25.1543
				C76.8901,187.0466,77.8872,186.8276,77.6953,186.1121L77.6953,186.1121z"/>
		</g>
	</g>
	<g>
		<g>
			<path fill="#303030" d="M676.2482,144.6908c-1.7947,2.0643-3.0673,2.2151-3.8179,0.4523c-0.2871-0.4887-0.9326-0.4308-1.2316,0
				c-0.6323,0.9108-1.3823,1.5846-2.3209,2.1578c-0.2092,0.1164-0.4185,0.2329-0.6277,0.3493
				c-1.1321,0.8759-2.007,0.5353-2.6247-1.0218c0.7751-0.3505,0.2236-1.5988-0.5742-1.362
				c-1.1706,0.3475-3.0962,1.1279-4.2775,0.7547c-1.3561,0.2951-1.8154-0.4973-1.3776-2.377
				c0.3608-0.2262,0.7334-0.4309,1.1179-0.6139c0.5434-0.2782,0.4639-1.2769-0.1801-1.3783
				c-3.8051-0.5991-0.0659-3.6234,1.0181-4.9589c1.1205-1.3806,3.3087-5.9161,5.6705-3.5515
				c0.3849,0.3854,0.939,0.2431,1.2305-0.1586c0.5729-0.7894,1.1969-1.4704,1.9932-2.0362c0.3931-0.2793,3.665-2.3948,3.5074-0.0691
				c-0.0411,0.6061,0.705,0.9859,1.1967,0.6867c0.376-0.2637,0.778-0.4781,1.2061-0.6432c1.0959-0.7095,1.9789-0.1459,2.6488,1.6909
				c-0.4468,0.3705-0.2156,1.234,0.3532,1.3377c0.3727,0.0524,0.7405,0.1273,1.1036,0.2248
				c1.0419,0.1511,1.4812,0.9902,1.3179,2.5172c-0.8204,0.2041-0.6989,1.2883,0,1.5452c-0.1193,0.7276-0.2385,1.4553-0.3578,2.1829
				c-0.6233,0.0315-0.9774,0.6526-0.6924,1.2066c-0.1824,2.7244-1.1076,3.5065-2.7755,2.3464
				c-0.8594-0.5784-1.6641,0.8119-0.8103,1.3863c3.2393,2.179,6.697-1.1876,4.9706-4.5421
				c-0.2308,0.4022-0.4616,0.8044-0.6924,1.2066c3.3041-0.1676,3.8661-4.1997,0.7839-5.3318c0,0.5151,0,1.0301,0,1.5452
				c1.3041-0.3247,2.0275-1.5055,1.8204-2.854c-0.3148-2.0484-2.5024-2.6597-4.2424-2.9766
				c0.1177,0.4459,0.2355,0.8918,0.3531,1.3377c1.2791-1.0613,1.1172-2.9417-0.0754-4.0444
				c-1.6833-1.5564-4.0502-0.5268-5.7142,0.4913c0.3989,0.2289,0.7978,0.4578,1.1967,0.6868
				c0.108-1.6543-1.1804-2.7705-2.825-2.6436c-2.3358,0.1801-4.3382,2.1836-5.6193,3.9581
				c0.4102-0.0529,0.8203-0.1057,1.2305-0.1586c-1.1245-1.1202-2.5499-1.2538-4.0045-0.633c-2.249,0.9598-2.848,3.3221-4.47,4.9411
				c-1.2868,1.2844-2.8113,1.825-2.4866,3.9471c0.2255,1.4733,1.3024,2.5893,2.7635,2.8175
				c-0.06-0.4594-0.1201-0.9189-0.1801-1.3783c-1.6451,0.8448-3.9554,2.7786-2.3846,4.817
				c1.5981,2.0738,6.1151,0.7505,8.0792,0.1585c-0.1914-0.454-0.3828-0.908-0.5742-1.362
				c-1.7557,0.8026-1.4557,3.2651,0.1569,4.0786c2.5997,1.3113,6.0849-1.5387,7.4002-3.5571c-0.4105,0-0.8211,0-1.2316,0
				c0.9518,1.5182,2.7641,2.9858,4.6597,2.0996c1.4586-0.6819,1.9897-2.2624,1.2949-3.6534
				C676.9042,143.8108,676.0696,144.1579,676.2482,144.6908L676.2482,144.6908z"/>
		</g>
	</g>
	<g>
		<g>
			<path fill="#303030" d="M686.595,166.1511c2.4147-3.1763,0.3557-7.2999,0.9885-10.9119
				c0.725-4.1387,3.1703-7.7352,3.8362-11.9063c-0.4055,0.053-0.8111,0.106-1.2166,0.159c2.5549,5.492,1.866,11.7858-1.6458,16.6872
				c-0.5184,0.7235,0.6727,1.403,1.189,0.695c3.8513-5.2818,4.3961-12.1736,1.6063-18.0541
				c-0.233-0.4912-1.1317-0.4004-1.2166,0.159c-0.5966,3.9261-2.7148,7.3371-3.5638,11.1849
				c-0.8057,3.6514,1.3718,8.3463-0.8322,11.4874C685.3683,166.1809,686.2182,166.6467,686.595,166.1511L686.595,166.1511z"/>
		</g>
	</g>
	<g>
		<g>
			<path fill="#303030" d="M681.4578,157.3998c-3.3442-0.9135-6.6929-1.808-10.0439-2.6963
				c-0.4645-0.1231-0.9534,0.3187-0.801,0.801c1.3347,4.2242,6.0168,4.1646,9.5754,3.1892c0.8499-0.233,0.4882-1.5596-0.3645-1.3221
				c-2.7729,0.7724-6.7944,1.2355-7.9551-2.2133c-0.267,0.267-0.534,0.534-0.801,0.801c3.3685,0.826,6.7381,1.6456,10.1128,2.4462
				C681.8324,158.5601,682.1074,157.5772,681.4578,157.3998L681.4578,157.3998z"/>
		</g>
	</g>
	<g>
		<g>
			<path fill="#303030" d="M757.8269,194.7117c-3.0836-3.711-4.7683-8.1454-4.4473-13.0125
				c0.357-5.4107,3.2029-9.4174,7.244-12.8129c3.668-3.082,7.1534-5.9254,8.9698-10.5024c1.8322-4.6167,1.9337-9.7093,1.957-14.6069
				c0.0059-1.2313-1.8768-1.2281-1.9102,0c-0.155,5.711-0.259,11.9511-3.5292,16.8837c-3.0209,4.5566-8.33,6.9377-11.5209,11.3653
				c-5.001,6.9393-4.4318,18.0224,2.0435,23.8788C757.4502,196.6435,758.5151,195.54,757.8269,194.7117L757.8269,194.7117z"/>
		</g>
	</g>
	<g>
		<g>
			<path fill="#303030" d="M769.248,143.6445c-3.5703,2.2638-7.7149,0.5612-9.7021-2.9132
				c-1.8458-3.2274-1.4899-7.0162-1.3398-10.5813c0.1946-4.6259-0.2457-10.0297-4.6167-12.6895
				c-0.927-0.5641-1.7267,0.847-0.8429,1.4419c6.7531,4.5458,2.1299,14.3523,4.6441,20.7923
				c1.8978,4.8613,7.6489,8.2675,12.3631,4.8148C770.2622,144.1372,769.8038,143.2921,769.248,143.6445L769.248,143.6445z"/>
		</g>
	</g>
	<g>
		<g>
			<path fill="#303030" d="M772.1322,143.4285c4.1876,2.8571,8.823-0.7451,9.944-4.9838c0.7722-2.9201,0.2815-5.9288-0.2139-8.8505
				c-0.3456-2.0385-0.725-4.0957-0.6132-6.1732c0.0945-1.7541,0.7422-3.3659,0.9059-5.1014
				c0.0804-0.852-1.3781-1.0609-1.5078-0.2041c-0.3197,2.1126-0.9952,4.0477-0.959,6.218c0.0396,2.3708,0.5771,4.6882,0.9514,7.0192
				c0.4124,2.5677,0.6697,5.2755-0.2466,7.7717c-1.1658,3.1763-4.5876,5.3184-7.7551,3.4389
				C772.0768,142.2304,771.605,143.0688,772.1322,143.4285L772.1322,143.4285z"/>
		</g>
	</g>
	<g>
		<g>
			<path fill="#303030" d="M765.8106,142.7921c1.9879,1.1761,4.482,2.1966,6.713,1.0182c1.7707-0.9353,2.6979-2.9893,2.8726-4.9045
				c0.2958-3.2436-1.513-6.1684-2.468-9.1523c-1.2266-3.8322-1.4035-7.7766-0.8273-11.7389
				c0.1433-0.9854-1.3425-1.4348-1.5255-0.4206c-0.811,4.4955-0.4576,9.115,1.0969,13.4162
				c0.8368,2.3153,2.2391,4.7042,2.2365,7.2329c-0.0015,1.4783-0.4474,3.1225-1.6489,4.0641
				c-1.8281,1.4328-4.0951,0.515-5.914-0.431C765.7424,141.5625,765.2198,142.4425,765.8106,142.7921L765.8106,142.7921z"/>
		</g>
	</g>
	<g>
		<g>
			<path fill="#303030" d="M754.4131,118.4322c0.0096-0.8822,4.4241,2.2554,4.7173,2.4791c1.397,1.066,2.8418,2.1098,4.5942,2.4758
				c3.0215,0.631,5.9089-0.8416,7.566-3.3443c0.5165-0.78-0.7325-1.4992-1.2496-0.7305c-2.3554,3.5014-6.2613,3.1746-9.3893,1.0268
				c-2.0075-1.3785-3.8121-3.0014-6.2985-3.383c-0.2383-0.0366-0.498,0.0224-0.6227,0.2534
				c-0.314,0.5819-0.3265,0.5611-0.2667,1.2227C753.518,119.0308,754.4063,119.0535,754.4131,118.4322L754.4131,118.4322z"/>
		</g>
	</g>
	<g>
		<g>
			<path fill="#303030" d="M772.8846,123.0039c2.2908-1.4477,4.6829-2.6634,7.2476-3.5495
				c0.7882-0.2723,0.4313-1.5425-0.3442-1.2487c-2.6349,0.9982-5.144,2.2308-7.4771,3.8166
				C771.7121,122.4294,772.26,123.3986,772.8846,123.0039L772.8846,123.0039z"/>
		</g>
	</g>
	<g>
		<g>
			<path fill="#303030" d="M759.4232,118.0827c0.938-0.786,1.6501-1.8006,2.5896-2.5812c0.6819-0.5666,1.7321-1.223,2.6725-0.9237
				c0.7025,0.2236,1.2927,0.9997,0.8904,1.7362c-0.4595,0.8413,0.8297,1.5947,1.2851,0.7512
				c0.8738-1.6186-0.1992-3.5788-1.9848-3.8961c-2.8601-0.5084-4.5631,2.407-6.1157,4.2508
				C758.3701,117.8832,758.9592,118.4715,759.4232,118.0827L759.4232,118.0827z"/>
		</g>
	</g>
	<g>
		<g>
			<path fill="#303030" d="M767.2191,115.4102c2.5076-0.7207,5.0136-1.4493,7.5325-2.1297
				c-0.2784-0.1133-0.5568-0.2266-0.8351-0.3399c0.9618,2.1836,2.2856,4.1537,3.8451,5.9532
				c0.6603,0.762,1.7434-0.3419,1.1021-1.1021c-1.4713-1.7438-2.6247-3.578-3.67-5.5977c-0.1413-0.2731-0.5402-0.4422-0.8351-0.3399
				c-2.4686,0.8564-4.9534,1.6656-7.4353,2.4824C766.2474,114.5591,766.5249,115.6097,767.2191,115.4102L767.2191,115.4102z"/>
		</g>
	</g>
	<g>
		<g>
			<path fill="#303030" d="M753.2438,175.588c1.0666-1.8813,0.9281-3.8785,1.1886-5.9616c0.353-2.8232,1.9957-5.3792,1.7471-8.2845
				c-0.4675-5.4638-5.6002-6.2633-8.7955-9.6656c-0.5535-0.5893-1.6056,0.0195-1.3645,0.7943
				c0.9956,3.1995-0.3346,6.6381,0.8502,9.7884c1.0611,2.8215,4.2267,3.7739,5.4584,6.4353
				c0.4395,0.9497,1.8467,0.1238,1.4066-0.8221c-1.2768-2.7436-4.6995-3.7202-5.5236-6.7123
				c-0.8195-2.9749,0.3124-6.114-0.617-9.1234c-0.4548,0.2648-0.9097,0.5295-1.3645,0.7943
				c2.9417,3.1457,8.3832,4.0299,8.3984,9.2337c0.0067,2.2927-1.2426,4.3821-1.5275,6.6344
				c-0.2761,2.183,0.3156,4.3273-0.7015,6.3952C752.1237,175.6538,752.9299,176.1416,753.2438,175.588L753.2438,175.588z"/>
		</g>
	</g>
	<g>
		<g>
			<path fill="#303030" d="M765.122,164.7092c1.4118-1.2875,3.3203-1.4142,4.913-2.3743c1.6813-1.0135,2.7629-2.707,4.5375-3.5964
				c3.0924-1.5499,5.5281-2.1634,7.4825-5.2781c-0.4875-0.0637-0.9752-0.1275-1.4627-0.1912
				c0.4684,2.4277,0.6747,4.8578-0.8209,6.968c-1.1799,1.6649-3.1487,2.8303-5.2207,2.8723
				c-3.0443,0.0618-5.5729-1.7782-8.5368-0.2921c-0.7409,0.3715-0.2124,1.6842,0.5734,1.3601
				c2.5567-1.0546,4.7296,0.303,7.2733,0.4715c1.8728,0.1241,3.7267-0.4553,5.2479-1.5407
				c3.4795-2.4826,3.8006-6.3556,3.0272-10.2646c-0.1397-0.7062-1.1221-0.7397-1.4628-0.1912
				c-1.3242,2.1326-2.9599,3.13-5.2079,4.0486c-1.1898,0.4862-2.2932,0.9312-3.2933,1.7773
				c-1.3931,1.1787-2.4557,2.4343-4.1122,3.2691c-1.3254,0.668-2.5586,1.2052-3.5549,2.3444
				C764.1357,164.5136,764.7039,165.0905,765.122,164.7092L765.122,164.7092z"/>
		</g>
	</g>
	<g>
		<g>
			<path fill="#303030" d="M703.9891,172.5327c-4.5708-0.0768-5.3929,6.3648-0.742,7.0148c0.7851,0.1097,1.7927-0.559,2.4339-0.3309
				c0.5253,0.1868,0.6488,1.6106,1.1069,2.2266c1.1729,1.577,3.3708,2.2711,5.1897,1.4777c1.6936-0.7387,2.7998-1.95,4.7062-2.3501
				c1.4384-0.3018,2.9257-0.4152,4.2634-1.076c2.0515-1.0134,3.3151-2.9462,2.5619-5.223c-0.5968-1.804-1.7518-2.8978-1.812-4.9393
				c-0.0443-1.4983,0.2844-2.7074-0.5529-4.0539c-1.0251-1.6485-3.1179-2.6206-5.0347-2.2315
				c-0.6174,0.1253-1.0405,0.4628-1.6127,0.6588c-1.5092,0.517-2.2862,0.109-3.6757-0.1681
				c-1.071-0.2136-2.0858-0.055-2.9904,0.5914c-1.7669,1.2626-2.2991,3.5879-1.2888,5.4685
				c0.2955-0.3845,0.5911-0.7689,0.8867-1.1534c-2.7195-0.8506-5.0176,2.0588-3.8173,4.5474
				c0.4389,0.9099,1.7935,0.1145,1.3559-0.7926c-0.239-1.6765,0.4423-2.4234,2.0439-2.2406
				c0.6798,0.2126,1.1981-0.5736,0.8867-1.1534c-0.6998-1.3026-0.0202-3.308,1.4911-3.7427
				c1.1306-0.3251,2.3358,0.5284,3.438,0.6388c1.96,0.1964,3.2375-1.6545,5.2492-0.9628c3.0474,1.0478,1.6403,4.1421,2.2509,6.4843
				c0.1956,0.75,0.6053,1.4173,0.984,2.0858c1.2005,2.1194,0.8202,4.1809-1.6058,5.0879c-1.7725,0.6628-3.7443,0.5651-5.4839,1.3581
				c-0.8881,0.4048-1.5433,1.1061-2.3857,1.5639c-1.6453,0.8941-3.755,0.2002-4.3478-1.6636
				c-0.3012-0.947-0.0552-2.0543-1.3902-2.1757c-0.45-0.0409-0.7806,0.2572-1.1821,0.3703
				c-0.8354,0.2354-1.6383,0.4401-2.4218-0.0443c-1.7712-1.0952-1.0195-4.211,1.4954-4.2761
				C704.6293,173.5122,704.6316,172.5435,703.9891,172.5327L703.9891,172.5327z"/>
		</g>
	</g>
	<g>
		<g>
			<path fill="#303030" d="M709.6913,175.5414c1.1158-0.0743,2.3409-0.2503,3.1689-1.0801
				c0.6734-0.6749,0.9641-1.8062,0.5493-2.6901c-0.9511-2.0269-4.1973-0.3715-3.0378,1.4318
				c0.4427,0.6886,1.543,0.0547,1.1029-0.6447c-0.1619-0.2573,0.3254-0.5719,0.5682-0.5098
				c0.4091,0.1046,0.4109,0.7258,0.3358,1.0375c-0.2756,1.1429-1.7028,1.3852-2.6873,1.5003
				C709.0957,174.656,709.0672,175.583,709.6913,175.5414L709.6913,175.5414z"/>
		</g>
	</g>
	<g>
		<g>
			<path fill="#303030" d="M736.8345,172.6014c-2.7929,0.8414-5.5284,3.7539-2.9693,6.5665
				c2.0393,2.2412,5.379,0.4631,5.6639-2.2066c-0.4429,0.1199-0.8858,0.2399-1.3287,0.3599
				c1.5929,2.2993,4.8485,4.2569,7.3485,1.9197c2.0354-1.9029,0.7521-4.9602-1.8211-5.3006
				c0.0663,0.4898,0.1326,0.9795,0.1989,1.4693c2.5892-0.5284,4.5101-3.3568,3.4351-5.9515
				c-1.0779-2.6015-4.441-3.2369-6.6519-1.7784c0.3752,0.1527,0.7505,0.3053,1.1258,0.458c-0.9455-2.277-3.6959-3.7503-6.0159-2.356
				c-2.3018,1.3834-2.3271,4.5137-0.7487,6.4118c0.6276,0.7547,1.6993-0.328,1.0772-1.0772
				c-2.5084-3.0212,2.6123-6.4253,4.2093-2.571c0.1768,0.4267,0.6684,0.7593,1.1259,0.458c1.5272-1.0057,3.5789-0.7144,4.323,1.1052
				c0.7154,1.7494-0.4388,3.4759-2.2775,3.8586c-0.9003,0.1873-0.5656,1.3711,0.1989,1.4692
				c0.1466,1.0015,0.2932,2.0031,0.4399,3.0046c-0.733,0.4583-1.4609,0.5066-2.1838,0.1448
				c-1.1583-0.3216-1.8492-1.0022-2.5522-1.9842c-0.4208-0.588-1.2628-0.3623-1.3287,0.3599
				c-0.2668,2.9245-3.8707,1.5837-3.9388-0.312c-0.0601-1.6689,1.5745-2.5923,2.9335-3.0929
				C737.6859,173.3396,737.4543,172.4147,736.8345,172.6014L736.8345,172.6014z"/>
		</g>
	</g>
	<g>
		<g>
			<path fill="#303030" d="M739.1177,171.806c-0.2684-0.7879-1.3459-1.1234-1.9396-0.4544
				c-0.6904,0.778,0.0217,1.8737,0.9313,1.9436c0.8087,0.0622,0.8269-1.276,0-1.2715c-0.1268,0.0007,0.0351,0.168,0.0444,0.1887
				C738.3961,172.7557,739.3096,172.3696,739.1177,171.806L739.1177,171.806z"/>
		</g>
	</g>
	<g>
		<g>
			<path fill="#303030" d="M631.5327,164.6337c-1.8668,0.5398-2.4162,2.5655-1.7357,4.2913
				c1.0117,2.5653,3.7938,2.4372,6.0723,2.4542c1.8055,0.0135,2.3229,0.7997,3.7908,1.8121
				c1.1534,0.7955,2.4727,1.4494,3.8837,1.5985c2.4058,0.2541,4.607-0.9011,5.5359-3.1348
				c-0.2355,0.1793-0.4709,0.3585-0.7064,0.5378c2.7101,0.3134,6.3126,0.4208,7.7828-2.4508
				c1.2251-2.3928-0.4102-4.5091-2.2599-5.9371c-2.3727-1.8317-5.8309-4.8998-8.9755-5.1353
				c-2.2289-0.1669-4.2935,1.332-4.2223,3.6622c0.3806-0.2184,0.7612-0.4368,1.1418-0.6552
				c-1.7597-1.0342-3.9491-2.2076-5.9711-1.1706c-1.472,0.755-2.2632,2.3449-1.6451,3.9091
				c0.3743-0.2878,0.7487-0.5756,1.123-0.8634c-2.098-1.5472-5.2837,0.2465-4.9595,2.8616c0.1176,0.9489,1.6143,0.9817,1.5176,0
				c-0.1456-1.4787,1.4549-2.4352,2.6702-1.5413c0.5178,0.3808,1.3627-0.2591,1.1231-0.8634
				c0.1204-0.5995,0.2408-1.1991,0.3611-1.7986c1.0426-0.6487,2.0397-0.7284,2.9913-0.2391
				c0.7286,0.2375,1.3658,0.6308,2.0233,1.0161c0.4847,0.2841,1.1602-0.0753,1.1418-0.6552
				c-0.1121-3.5313,4.2031-1.7677,5.65-0.8674c1.3755,0.8559,2.6964,1.8261,4.0292,2.7469c1.674,1.1563,3.9828,2.7107,2.7117,5.0081
				c-1.1858,2.143-4.201,1.7374-6.2335,1.5083c-0.3447-0.0388-0.5921,0.2608-0.7064,0.5378
				c-0.8673,2.1029-3.382,2.4299-5.3065,1.7708c-0.9407-0.3222-1.7877-0.9258-2.5718-1.5161
				c-0.5106-0.3844-1.328-1.4038-1.915-1.5797c-0.9053-0.2713-1.8458,0.1744-2.8115,0.2343
				c-1.2508,0.0775-2.7866,0.0635-3.7376-0.9251c-0.9097-0.9455-1.267-3.1747,0.4401-3.7742
				C632.2886,165.2916,632.079,164.4757,631.5327,164.6337L631.5327,164.6337z"/>
		</g>
	</g>
	<g>
		<g>
			<path fill="#303030" d="M639.2762,167.568c1.0333-0.8322,2.2585-1.3969,3.5714-1.6065c0.2981-0.0476,0.5933-0.0859,0.8958-0.0876
				c0.5339-0.0031,0.7285-0.1085,0.7901,0.4809c0.1088,1.0411-1.4849,0.5662-2.1326,0.3741
				c-0.8221-0.2438-1.1747,1.0421-0.3536,1.2826c1.1238,0.3291,2.5043,0.614,3.4269-0.3269
				c0.6206-0.633,0.8489-1.7287,0.1984-2.4251c-0.8206-0.8784-2.4102-0.583-3.4362-0.3379
				c-1.382,0.3301-2.5834,1.0304-3.6437,1.9629C638.1185,167.3013,638.8009,167.9508,639.2762,167.568L639.2762,167.568z"/>
		</g>
	</g>
	<g>
		<g>
			<path fill="#303030" d="M668.4544,137.0118c-1.2079-0.6395-2.6381-0.1375-3.2708,1.0916
				c-0.7599,1.4763,0.2407,3.1454,1.5751,3.8617c2.6232,1.4081,9.8115-0.5997,8.0882-4.5352
				c-0.3453-0.7886-1.5222-0.1078-1.1637,0.6802c0.7736,1.7005-2.5824,2.7485-3.5736,2.9584
				c-1.0558,0.2236-2.1638,0.2788-3.0769-0.4006c-0.4618-0.2609-0.7736-0.6624-0.9354-1.2045
				c-0.0443-1.2772,0.5739-1.8077,1.8543-1.5915C668.5222,138.1526,669.0252,137.314,668.4544,137.0118L668.4544,137.0118z"/>
		</g>
	</g>
	<g>
		<g>
			<path fill="#303030" d="M578.6461,85.607c-0.2449,0.8284-0.4899,1.6568-0.7348,2.4852c-0.7467,0.9243-1.5911,1.1016-2.533,0.5322
				c-1.2396-0.36-2.0707-1.1231-2.0618-2.5695c0.0085-1.3933,1.0808-2.161,1.6828-3.2697c0.894-1.6467,0.1775-3.192-0.7133-4.6796
				c-0.6888-1.1503-1.933-2.4506-1.9206-3.8591c-0.2818-0.8527,0.1996-1.3331,1.4442-1.4412
				c0.9106-1.1696,1.7518-1.2092,2.5236-0.1188c0.4814,0.4571,0.8624,1.0232,1.2695,1.543
				c1.7189,2.1945,5.2753,5.1426,3.1169,8.1051c-0.5427,0.7449,0.6884,1.4413,1.2294,0.7186
				c1.267-1.6924,1.0612-3.7596,0.0547-5.5396c-0.622-1.1001-1.5155-1.9986-2.321-2.9606c-0.9232-1.1025-1.7313-2.4604-2.8781-3.36
				c-3.5853-2.8126-7.0118,0.749-5.5291,4.5803c0.4857,1.2549,1.4349,2.2081,2.0101,3.4017
				c1.3896,2.8836-0.3019,3.2973-1.0748,5.3486c-0.601,1.595-0.1117,3.5359,1.1208,4.7096
				c2.8336,2.6985,7.0333-0.3721,6.2409-3.8817C579.4344,84.7389,578.5484,85.0086,578.6461,85.607L578.6461,85.607z"/>
		</g>
	</g>
	<g>
		<g>
			<path fill="#303030" d="M582.8168,79.9004c1.7646-1.2578,2.6595-3.3386,4.3996-4.5692c2.4252-1.7151,4.2235-0.1942,4.347,2.1291
				c0.0688,1.2945-0.3727,2.4022-1.0057,3.5118c-0.9972,1.748-2.3854,3.3032-2.9811,5.2613
				c-0.3177,1.044-0.2079,2.727-1.4446,3.2355c-2.2253,0.915-3.47-2.2382-3.8987-3.7462c-0.2503-0.8804-1.6062-0.5103-1.373,0.3785
				c0.6848,2.6099,2.913,6.1939,6.1463,4.5515c1.3671-0.6944,1.4399-1.9209,1.7623-3.2855c0.6118-2.5897,2.562-4.421,3.5876-6.8119
				c0.9586-2.2345,0.9167-5.7861-1.5734-7.0317c-3.9405-1.9711-6.1972,3.8782-8.4987,5.6865
				C581.8954,79.5157,582.4103,80.1901,582.8168,79.9004L582.8168,79.9004z"/>
		</g>
	</g>
	<g>
		<g>
			<path fill="#303030" d="M582.5982,76.2754c-0.2285-2.5263-1.0932-4.8489-2.6234-6.8776
				c-0.4458-0.591-1.4558-0.0035-1.0018,0.5855c1.4255,1.8491,2.3126,3.9653,2.5646,6.292
				C581.61,76.9434,582.6601,76.96,582.5982,76.2754L582.5982,76.2754z"/>
		</g>
	</g>
	<g>
		<g>
			<path fill="#303030" d="M583.4524,75.6938c1.014-0.8491,2.028-1.6981,3.0419-2.5472c0.5059-0.4236-0.2307-1.1709-0.7292-0.7292
				c-0.9877,0.8753-1.9754,1.7506-2.9631,2.6259C582.3548,75.4396,583.0039,76.0694,583.4524,75.6938L583.4524,75.6938z"/>
		</g>
	</g>
	<g>
		<g>
			<path fill="#303030" d="M48.9194,134.4718c2.3978,2.6825,1.4364,6.9913-1.7498,8.5391c0.305,0.175,0.6101,0.3501,0.9151,0.5251
				c-0.3335-2.8623-0.6748-5.7235-1.0176-8.5847c-0.0939-0.7836-1.2797-0.8347-1.2632,0c0.0626,3.1585-1.3868,5.9118-4.065,7.6116
				c0.3238,0.1858,0.6475,0.3716,0.9713,0.5574c-0.1912-3.2452,0.7512-6.2034,2.8597-8.6938
				c0.4724-0.5579-0.114-1.411-0.7996-1.0364c-2.8217,1.5419-3.8382,5.6743-7.0125,6.4654
				c-1.3407,0.3341-2.6914-0.2489-2.8072-1.8555c-0.059-0.8195,1.3404-1.8437,1.8832-2.3479
				c0.9791-0.9095,1.9447-1.7633,2.7246-2.8569c0.3986-0.559-0.3948-1.3514-0.9538-0.9538
				c-2.3973,1.7048-5.1215,2.246-7.9777,1.5192c0.1403,0.3449,0.2807,0.6899,0.421,1.0348c2.454-3.627,6.4707-5.5295,10.8276-5.2333
				c-0.1686-0.407-0.3372-0.8141-0.5058-1.2211c-0.316-1.2422,0.0132-2.041,0.9874-2.3964
				c0.4992-0.2726,1.0228-0.4746,1.5706-0.6059c1.2547-0.3407,2.4276-0.3288,3.6966-0.0971
				c0.4035,0.0737,0.9877-0.1906,0.9196-0.7005c-0.3836-2.8691,3.0372-5.0319,5.4411-3.3429
				c0.4372,0.3072,1.1557-0.0975,1.1061-0.6347c-0.1582-1.7129,2.2874-3.5327,3.6926-1.572
				c0.8715,1.216,0.1939,2.9531-0.9023,3.7153c-0.6338,0.4407-0.2584,1.6951,0.5701,1.3522
				c4.4209-1.8293,6.3012,5.1196,1.4783,5.5395c-0.8485,0.0739-0.9897,1.1548-0.1973,1.4577
				c2.1223,0.8111,0.0912,3.3113-1.1365,3.6718c-1.5323,0.4499-3.0748-0.0462-4.556-0.4864
				c-0.92-0.2734-1.3132,1.1628-0.3956,1.4351c2.5256,0.7496,6.3417,1.6004,7.9291-1.2586
				c1.0009-1.8026,0.5299-4.0385-1.4464-4.7931c-0.0658,0.4859-0.1315,0.9718-0.1973,1.4577
				c2.6877-0.2349,5.1009-2.6634,4.401-5.5198c-0.6624-2.7031-3.8389-3.9387-6.2726-2.9307c0.19,0.4507,0.3801,0.9015,0.5701,1.3522
				c2.1329-1.4842,2.9495-5.1415,0.4397-6.7692c-2.3843-1.5463-5.7046,0.6129-5.4471,3.3482
				c0.3687-0.2116,0.7374-0.4232,1.1061-0.6347c-3.4195-2.3933-8.1503,0.8191-7.6101,4.8055
				c0.2979-0.2979,0.5957-0.5957,0.8936-0.8936c-2.7561-0.498-7.6364-0.0073-8.7354,3.2024
				c-0.6713,1.9604,1.4885,3.705,3.1062,2.3096c0.505-0.4356,0.0634-1.1834-0.5058-1.2211
				c-4.865-0.3222-9.3256,1.9209-12.0441,5.9529c-0.2531,0.3754,0.0009,0.9286,0.421,1.0348
				c3.2126,0.812,6.3497,0.2573,9.056-1.6738c-0.318-0.3179-0.6359-0.6359-0.9538-0.9538c-1.3829,1.9459-7.9219,6.3933-3.306,8.894
				c4.7238,2.5591,7.3669-4.7891,10.3879-6.4559c-0.2665-0.3455-0.5331-0.6909-0.7996-1.0364
				c-2.3195,2.7583-3.4403,6.021-3.2175,9.6269c0.0287,0.4639,0.5344,0.8364,0.9713,0.5574
				c3.0442-1.9444,4.7586-5.1053,4.6766-8.7263c-0.4211,0-0.8421,0-1.2632,0c0.3512,2.862,0.7039,5.7238,1.0645,8.5847
				c0.0586,0.4653,0.4689,0.7471,0.9151,0.5251c3.8161-1.8984,4.7008-7.1871,1.8361-10.2896
				C49.1851,133.3011,48.4965,133.9987,48.9194,134.4718L48.9194,134.4718z"/>
		</g>
	</g>
	<g>
		<g>
			<path fill="#303030" d="M87.2865,165.4847c-2.1957-1.4558-5.5493-0.714-6.6014,1.8472
				c-1.2567,3.0593,1.6541,6.1161,4.6939,5.8924c-0.2428-0.2428-0.4855-0.4855-0.7283-0.7283
				c0.2706,4.2726,3.645,9.7555,8.5808,7.6545c0.7493-0.3189,1.4315-0.8317,2.2248-1.0445c0.9413-0.2525,1.8569-0.1039,2.802-0.1149
				c1.1829-0.0137,2.3386-0.0599,3.3216-0.7996c1.731-1.3027,1.753-3.7137,1.22-5.6177c-0.5214-1.8627-1.6621-3.5164-1.6552-5.5174
				c0.0049-1.4336,0.6122-2.8256,0.0391-4.2353c-0.7454-1.8336-2.7102-2.5241-4.5336-2.7334
				c-3.7056-0.4255-10.6478,0.752-10.5131,5.6374c0.0269,0.9746,1.5453,0.9784,1.5176,0c-0.1104-3.8968,6.6085-4.6001,9.4194-4.0633
				c0.748,0.1429,1.7144,0.3909,2.244,0.9993c1.187,1.3636,0.3513,2.8966,0.3248,4.3953c-0.0279,1.5835,0.6159,3.0203,1.1852,4.4631
				c0.9218,2.3362,1.6552,5.3851-1.8225,5.979c-1.6625,0.2839-3.0848-0.2105-4.7084,0.4633
				c-2.1623,0.8974-3.8385,1.9535-5.872-0.0248c-1.4601-1.4204-2.1868-3.4425-2.3179-5.4409
				c-0.0243-0.3698-0.3146-0.7597-0.7283-0.7283c-2.2607,0.1715-4.8328-2.4905-2.9356-4.6644
				c1.0571-1.2113,2.8979-1.3365,4.2012-0.5206C87.3433,167.0198,87.9642,165.934,87.2865,165.4847L87.2865,165.4847z"/>
		</g>
	</g>
	<g>
		<g>
			<path fill="#303030" d="M90.3805,170.4676c-0.6128,0.4671-0.8022,1.211-0.5284,1.9344c0.2587,0.6835,0.9872,1.3004,1.7569,1.0645
				c0.7209-0.2209,1.1261-0.9735,1.153-1.6898c0.031-0.827-0.3992-1.5083-1.1575-1.821c-0.7368-0.3038-1.0922,0.9263-0.3333,1.2091
				c0.3699,0.1379,0.4268,1.0488,0.0262,1.1858c-0.181,0.0619-0.3578-0.1739-0.4284-0.3334
				c-0.122-0.2755-0.0929-0.5429,0.1399-0.7352C91.4576,170.9115,90.85,170.1097,90.3805,170.4676L90.3805,170.4676z"/>
		</g>
	</g>
	<g>
		<g>
			<path fill="#303030" d="M116.954,177.74c-0.1883,1.3679,0.1524,2.7592,1.4719,3.4738c1.545,0.8367,2.2256-0.1908,3.5343-0.517
				c1.2887-0.3213-1.1112-0.2645,0.7621,0.0677c0.1851,0.0328,0.4527,0.261,0.643,0.3312c0.5233,0.1928,1.1081,0.2415,1.66,0.1409
				c1.6003-0.2916,2.3748-1.8855,3.6899-2.6333c1.3104-0.7451,2.317-1.5489,2.71-3.0846c0.3718-1.4529-0.2648-2.8507-0.2893-4.2308
				c-0.0622-3.5081-3.6078-4.6689-6.3626-2.9027c0.4254,0.2441,0.8508,0.4882,1.2762,0.7323
				c-0.0633-1.426-0.6977-2.7625-2.1215-3.2913c-0.6327-0.235-1.3152-0.2392-1.9617-0.0724
				c-0.6527,0.1684-1.1962,0.9066-1.7471,1.0358c-0.5934,0.1391-1.5892-0.4573-2.3201-0.413
				c-0.7989,0.0484-1.5696,0.3032-2.1889,0.8131c-1.0717,0.8824-1.3873,2.2611-0.8992,3.5286
				c0.1918-0.3377,0.3835-0.6755,0.5753-1.0132c-1.5092,0.6166-3.1208,1.7129-3.0201,3.5697
				c0.0819,1.509,1.1999,2.4385,2.6118,2.5613c-0.1375-0.5075-0.2749-1.015-0.4124-1.5226
				c-1.1211,0.5055-1.5069,1.9249-0.8244,2.9866c0.9428,1.4667,2.833,1.0369,4.1396,0.4324
				c0.9484-0.4388,0.1221-1.7968-0.8133-1.3913c-0.5591-0.2056-1.1181-0.4111-1.6771-0.6167
				c0.8131-0.3656,0.3031-1.4596-0.4124-1.5226c0.2821-0.9695,0.5641-1.9389,0.8462-2.9084
				c0.3857-0.1531,0.7432-0.5592,0.5753-1.0132c-1.3501-3.6502,3.2216-1.4836,4.1257-1.6784
				c0.1676-0.0361,0.4616-0.2494,0.5892-0.2577c0.0574-0.0444,0.1148-0.0887,0.1723-0.1331
				c0.7091-0.9884,1.7313-0.6864,3.0665,0.9063c0.0309,0.6081,0.7083,1.1016,1.2762,0.7323
				c0.7282-0.5937,1.5659-0.7959,2.5132-0.6067c1.3078,0.7256,1.6802,1.6203,1.1174,2.684
				c0.1073,0.2918,0.6581,1.8494,0.6369,1.7635c0.6859,2.7767-1.7773,3.2161-3.4556,4.214
				c-1.0549,0.6272,0.5123,2.7186-2.5123,1.8539c-0.5025-0.1437-0.7104-0.6721-1.179-0.7828
				c-1.0993-0.2596-4.9699,2.2882-4.6567-1.0816C118.1533,177.2505,117.0433,177.0914,116.954,177.74L116.954,177.74z"/>
		</g>
	</g>
	<g>
		<g>
			<path fill="#303030" d="M120.415,173.1638c-0.2527,0.7346,0.0839,1.5265,0.7336,1.94c0.8369,0.5328,1.881,0.276,2.6916-0.1713
				c0.7299-0.4028,1.4834-1.1049,1.3739-2.0198c-0.1035-0.8654-0.888-1.4482-1.7319-1.2325
				c-0.833,0.2128-0.4796,1.4634,0.3536,1.2826c0.2892-0.0628-0.2538,0.6499-0.2822,0.6752
				c-0.187,0.1665-0.4329,0.3068-0.658,0.4103c-0.5006,0.2302-1.7342,0.3121-1.4691-0.6057
				C121.6153,172.7883,120.6328,172.531,120.415,173.1638L120.415,173.1638z"/>
		</g>
	</g>
	<g>
		<g>
			<path fill="#303030" d="M46.8088,174.8092c-3.2427,1.0127-1.5109,5.3259,1.6151,3.9328
				c-0.335-0.1923-0.6701-0.3845-1.0051-0.5768c0.1538,1.9174,1.3074,3.5904,3.3123,3.9061
				c1.1189,0.1762,1.9823-0.2187,2.9334-0.7126c0.4392-0.2281,0.492-0.5046,1.0196-0.5501c0.239-0.0206,1.1425,0.4436,1.3643,0.4899
				c3.8411,0.8017,7.1952-3.8349,3.8231-6.6427c0.0392,0.3034,0.0783,0.6068,0.1175,0.9102
				c0.8737-1.5083,0.6141-3.3602-0.846-4.4365c-0.8473-0.6245-1.9116-0.7893-2.9321-0.6899
				c-0.5435,0.0529-1.0634,0.3445-1.5811,0.3918c-0.7235,0.066-1.2231-0.3837-1.914-0.5524
				c-1.8738-0.4574-3.0145,0.1309-4.3928,1.3198c-1.4297,1.2333-3.2003,1.7372-2.5303,4.0187
				c0.2725,0.928,1.7048,0.539,1.4521-0.4003c-0.1904-0.7077,1.3613-1.6917,1.9074-2.199c1.7299-1.6073,1.9165-1.3039,3.9745-0.8031
				c0.4153,0.101,0.7212,0.2788,1.1499,0.2667c0.3565-0.0128,0.6927-0.1022,1.0086-0.2682c1.772-0.8189,2.9076,0.0459,3.4067,2.5943
				c-0.1528,0.2661-0.1371,0.6999,0.1174,0.9102c1.4996,1.2387,0.9689,3.473-0.8868,4.0957
				c-1.2213,0.4098-2.137-0.5031-3.2387-0.5581c-0.4059-0.0203-0.6501,0.0188-1.0029,0.1534
				c-0.3105,0.1185-0.8252,0.654-1.0787,0.7853c-1.5963,0.8267-3.5865-0.03-3.8474-2.0292
				c-0.0667-0.5115-0.513-0.8197-1.0051-0.5768c-0.217-0.5761-0.4341-1.1523-0.6511-1.7284
				C47.7508,175.6275,47.4861,174.5977,46.8088,174.8092L46.8088,174.8092z"/>
		</g>
	</g>
	<g>
		<g>
			<path fill="#303030" d="M50.9734,175.3546c0.2595,1.1202,1.3543,2.1277,2.558,1.9768c0.5721-0.0718,1.0789-0.4826,1.0762-1.0954
				c-0.0026-0.5821-0.434-1.0372-1.0107-1.0511c-0.7827-0.0189-0.7624,1.2708,0,1.2012c-0.0433,0.004-0.1179-0.1241-0.0937-0.1238
				c-0.089-0.0011-0.2051,0.08-0.3139,0.0782c-0.2102-0.0036-0.4262-0.0865-0.6062-0.1905
				c-0.3949-0.2282-0.6363-0.5967-0.7451-1.0336C51.6983,174.5556,50.8433,174.793,50.9734,175.3546L50.9734,175.3546z"/>
		</g>
	</g>
	<g>
		<g>
			<path fill="#FFFFFF" d="M612.5922,189.6781c12.0728-3.9302,27.1124-1.5432,34.9477,9.3565
				c0.7193,1.0006,2.3162,1.5217,3.2639,0.4206c5.5722-6.474,14.3275,2.9625,19.2974,5.501c2.8897,1.476,5.96,2.0208,9.1402,2.4731
				c2.8152,0.4004,6.5452,0.603,8.6658,2.7761c1.1512,1.1797,1.4844,2.856,2.3592,4.2153c1.0228,1.5894,2.5272,2.5903,4.379,2.9332
				c3.7188,0.6885,7.8784-1.1437,11.4971-1.8688c7.524-1.5077,17.4491-1.5489,21.3798,6.4292
				c1.3823,2.8057,5.572,0.346,4.1959-2.4526c-2.7325-5.5574-8.5528-8.6768-14.5188-9.4699
				c-3.8164-0.5073-7.6533-0.0809-11.416,0.6371c-1.863,0.3556-3.7079,0.7999-5.5514,1.2439
				c-1.6345,0.3937-4.4505,1.5885-5.8324,0.132c-0.9223-0.9721-1.2179-2.6586-1.9832-3.778
				c-0.7289-1.0661-1.6661-1.9631-2.7379-2.6794c-2.2347-1.4937-4.9312-2.0497-7.5474-2.4333
				c-2.8441-0.417-5.8022-0.5945-8.511-1.6308c-3.2886-1.258-6.0031-3.6649-8.9688-5.5016
				c-5.3035-3.2844-12.8434-4.6084-17.1111,0.9551c1.088-0.1402,2.1759-0.2804,3.2639-0.4206
				c-9.9005-10.193-25.7394-15.3092-39.235-9.2656C610.1965,187.8651,611.1708,190.1408,612.5922,189.6781L612.5922,189.6781z"/>
		</g>
	</g>
	<g>
		<g>
			<path fill="#FFFFFF" d="M681.5505,191.8298c2.0983-4.3227,7.7792-0.2879,10.3984,1.1422
				c3.7877,2.0681,7.0599,1.9519,11.2436,1.8095c2.5575-0.087,4.3795,0.4867,6.4119,2.019c1.542,1.1626,2.9507,2.5025,4.692,3.377
				c4.065,2.0414,8.814,1.0358,13.1616,1.7707c4.6135,0.7798,9.1115,2.25,13.8193,2.4172
				c4.5828,0.1628,9.0987-0.9519,13.5206-2.0119c6.7737-1.6238,16.8784-3.7973,21.8569,2.8502
				c1.9013,2.5388,6.2324,0.05,4.3038-2.5157c-3.8973-5.185-10.0469-7.11-16.3716-6.9467
				c-7.9241,0.2046-15.3579,3.9594-23.3098,3.7402c-4.2634-0.1175-8.3694-1.4408-12.5548-2.1202
				c-1.869-0.3034-3.7408-0.5112-5.6354-0.5283c-2.2711-0.0205-4.631,0.2615-6.7529-0.7267
				c-3.0216-1.4072-5.1177-4.2006-8.4002-5.1799c-3.9117-1.1671-7.8976,0.7825-11.774-0.1414
				c-3.516-0.838-6.1671-3.7039-9.8627-4.1248c-2.972-0.3384-6.2342,0.629-7.4857,3.5687
				C678.0325,192.0592,680.6431,193.6993,681.5505,191.8298L681.5505,191.8298z"/>
		</g>
	</g>
	<g>
		<g>
			<path fill="#FFFFFF" d="M750.9174,224.0382c5.2836-3.3201,11.5695-3.8916,17.051-0.6237
				c2.3716,1.4139,4.5504-2.3217,2.1608-3.6967c-6.6838-3.846-15.3868-3.4997-21.4366,1.4369
				C747.0711,222.4778,749.1708,225.1357,750.9174,224.0382L750.9174,224.0382z"/>
		</g>
	</g>
	<g>
		<g>
			<path fill="#FFFFFF" d="M770.8206,188.2939c3.2296-3.7338,8.0735-5.3947,12.8704-4.047
				c2.5507,0.7166,3.6548-3.3074,1.0924-3.9626c-6.3459-1.6226-12.8309,0.6391-16.7971,5.8226
				C766.7476,187.7257,769.485,189.8381,770.8206,188.2939L770.8206,188.2939z"/>
		</g>
	</g>
	<g>
		<g>
			<path fill="#FFFFFF" d="M636.1512,219.2003c3.4254-5.0999,9.9503-7.5177,15.9202-6.0674
				c6.2425,1.5166,11.1437,6.5085,13.6104,12.3056c0.605,1.4219,2.5359,1.268,3.491,0.4499
				c5.4181-4.6409,12.828-1.6022,18.4772,0.8917c2.7756,1.2254,5.1907-2.8845,2.3974-4.1015
				c-7.525-3.2784-17.2486-6.6525-24.0181,0.0663c1.1637,0.1499,2.3274,0.2999,3.4911,0.4499
				c-3.5932-6.9796-9.7144-12.932-17.7526-14.1204c-7.1138-1.0518-14.9344,1.9939-18.5039,8.4383
				C632.2119,219.4121,634.9587,220.9759,636.1512,219.2003L636.1512,219.2003z"/>
		</g>
	</g>
	<g>
		<g>
			<path fill="#FFFFFF" d="M41.8825,193.9519c0.4797,0.7794,2.2359,1.3152,3.0551,1.8623c1.1228,0.7499,2.1718,1.5737,3.1542,2.5001
				c1.8278,1.7236,3.3182,3.6761,4.5285,5.8752c0.6358,1.1552,2.1298,1.4335,3.2391,0.8493
				c2.9334-1.5448,6.4121-1.7039,9.4767-0.4019c1.6369,0.6955,2.9988,1.7879,4.1063,3.1668c1.0296,1.282,1.826,2.5162,3.5572,2.8516
				c1.8575,0.3599,3.4561-0.7073,5.1909-1.1608c1.703-0.4453,3.4891-0.5366,5.2345-0.3143c1.7512,0.2231,3.479,0.7675,5.0343,1.6021
				c0.8016,0.4301,3.8782,2.3763,3.8312,2.9031c0.6026-0.7915,1.2052-1.583,1.8078-2.3745
				c-0.1004,0.0192-0.2009,0.0384-0.3013,0.0576c0.794,0.2099,1.5879,0.4197,2.3819,0.6296
				c-0.0791-0.0798-0.1581-0.1596-0.2372-0.2394c0.1268,0.9826,0.2536,1.9651,0.3804,2.9477
				c0.0398-0.0647,0.0795-0.1294,0.1193-0.1942c1.6738-2.7236-2.3621-4.8719-4.1824-2.4447
				c-0.0459,0.0612-0.0917,0.1223-0.1376,0.1835c-0.6857,0.9143-0.2545,2.1758,0.3803,2.9477
				c0.5724,0.6959,1.3558,1.0356,2.2512,0.949c0.9979-0.0965,2.1828-0.6893,2.3744-1.8078c0.7337-4.2831-4.949-7.4782-8.334-8.8355
				c-4.1561-1.6665-9.0134-1.8926-13.2485-0.3638c-0.3271,0.1181-1.0492,0.5957-1.3773,0.5545
				c-0.2607-0.0328-0.362-0.2941-0.6744-0.635c-0.7446-0.8127-1.3271-1.6468-2.1722-2.3767
				c-1.5569-1.3446-3.3677-2.3344-5.3153-2.9884c-4.1363-1.3889-8.7849-0.9713-12.5358,1.2553
				c1.0797,0.2831,2.1594,0.5662,3.2391,0.8493c-2.6808-4.3322-6.3282-8.1602-10.924-10.4692
				c-1.8606-0.9348-4.2425-1.7676-6.0682-0.2756c-1.3731,1.1222-1.6701,3.1201-0.7212,4.5847
				C40.159,197.4357,43.0181,195.7969,41.8825,193.9519L41.8825,193.9519z"/>
		</g>
	</g>
	<g>
		<g>
			<path fill="#FFFFFF" d="M68.7455,192.8376c3.1633-2.8777,7.6248-4.158,11.8208-3.1815c4.0914,0.9521,6.6726,4.428,10.8859,1.7729
				c3.8636-2.4348,9.2163-2.5865,13.6868-2.5119c4.5767,0.0764,9.3488,1.4726,11.5137,5.8331
				c1.3805,2.7805,5.561,0.3378,4.1689-2.4368c-2.1716-4.3287-6.5974-6.9443-11.2759-7.7399
				c-3.0407-0.5171-6.1129-0.3746-9.166-0.0595c-2.6639,0.2749-5.4513,0.491-7.9778,1.433
				c-1.1578,0.4317-2.1077,1.0874-3.1533,1.7122c-1.6368,0.9781-2.555,0.1961-4.1242-0.5559
				c-1.9364-0.928-4.0207-1.4353-6.1617-1.5578c-4.7076-0.2695-9.3434,1.5148-12.6259,4.8836
				C64.7984,192.0081,67.1284,194.3087,68.7455,192.8376L68.7455,192.8376z"/>
		</g>
	</g>
	<g>
		<g>
			<path fill="#FFFFFF" d="M107.382,202.7463c3.4892-2.3427,7.0196-4.2914,11.1023-5.4072
				c3.8699-1.0577,7.9031-1.1466,11.5212-3.0349c3.5629-1.8595,6.33-4.6326,10.5449-4.9504
				c4.0446-0.305,8.0336,0.8263,11.8843,1.9151c2.9654,0.8385,4.2376-3.7907,1.271-4.6105
				c-4.2458-1.1733-8.7093-2.3556-13.1553-1.9929c-4.3476,0.3547-7.5726,2.3286-11.0953,4.7104
				c-3.9621,2.679-8.4613,2.8-12.8757,4.2969c-4.1003,1.3904-8.0265,3.503-11.2992,6.3496
				C103.8052,201.3054,105.7441,203.8461,107.382,202.7463L107.382,202.7463z"/>
		</g>
	</g>
	<g>
		<g>
			<path fill="#FCE0DE" d="M102.7275,181.5988c-7.3132-1.1726-14.2357,1.7325-21.5523,1.378
				c-1.9973-0.0968-2.4095,3.0102-0.4715,3.4835c3.5796,0.8743,7.0473,0.8323,10.5417-0.4433
				c3.7931-1.3847,7.0692-2.4647,11.1954-2.3005C103.6301,183.7638,103.9431,181.7937,102.7275,181.5988L102.7275,181.5988z"/>
		</g>
	</g>
	<g>
		<g>
			<path fill="#FCE0DE" d="M117.663,187.5634c0.9254,0.3307,1.3401,1.9218,1.9512,2.6348c0.7838,0.9145,1.7093,1.4321,2.9293,1.5161
				c2.92,0.201,6.2519-2.6134,8.4713-4.2066c1.1297-0.8109,0.8217-2.7583-0.7453-2.7515
				c-3.6389,0.0158-7.2783,0.0488-10.9172,0.0413c-1.6812-0.0035-2.0014,2.4467-0.3942,2.9126
				c1.2712,0.3685,2.2012,0.9774,3.1418,1.9006c1.3725,1.347,3.3753-0.6869,2.0992-2.0992
				c-1.2254-1.3562-2.6992-2.1771-4.4526-2.6611c-0.1314,0.9709-0.2628,1.9417-0.3942,2.9126
				c3.6388-0.0392,7.2783-0.0379,10.9172-0.0537c-0.2484-0.9172-0.4968-1.8344-0.7453-2.7515
				c-1.7852,0.9989-5.8405,4.7951-7.9145,3.2449c-1.3123-0.9809-1.577-2.3258-3.3486-2.8089
				C116.847,185.0082,116.3148,187.0816,117.663,187.5634L117.663,187.5634z"/>
		</g>
	</g>
	<g>
		<g>
			<path fill="#FCE0DE" d="M66.4726,185.6882c-1.52,1.3164-3.4001,2.1494-5.3967,2.4168c0.3876,0.6754,0.7752,1.3508,1.1627,2.0262
				c0.3964-0.8733,0.902-1.3624,1.7805-1.7442c1.6223-0.7051,0.2236-3.1612-1.4037-2.4015c-1.2211,0.57-2.1775,1.5433-2.7022,2.7865
				c-0.4735,1.122,0.2978,2.1752,1.5207,1.9781c2.5364-0.4088,4.8055-1.6747,6.6076-3.4929
				C69.0583,186.2312,67.542,184.762,66.4726,185.6882L66.4726,185.6882z"/>
		</g>
	</g>
	<g>
		<g>
			<path fill="#FCE0DE" d="M44.4457,190.2568c2.9691,0.6945,5.5094,2.1623,7.5647,4.4171c1.1236,1.2327,2.9919-0.625,1.8341-1.8341
				c-2.3829-2.4882-5.3946-4.1701-8.784-4.813C43.6159,187.753,42.9817,189.9144,44.4457,190.2568L44.4457,190.2568z"/>
		</g>
	</g>
	<g>
		<g>
			<path fill="#FCE0DE" d="M696.1038,189.6513c4.7107-0.0923,10.3517-0.6768,14.726,1.4425c3.0552,1.4802,4.5594,5.248,8.474,4.8601
				c2.8384-0.2812,2.9431-4.6735,0-4.5156c-1.5783,0.0847-2.8875-1.7834-4.1755-2.554c-1.5782-0.9443-3.2311-1.2087-5.0245-1.3903
				c-4.7742-0.4833-9.5365-0.9416-14.3074-0.1139C694.5004,187.605,694.8204,189.6765,696.1038,189.6513L696.1038,189.6513z"/>
		</g>
	</g>
	<g>
		<g>
			<path fill="#FCE0DE" d="M736.7348,197.3974c4.1978,0.4982,8.1725,1.1878,12.4249,0.955c2.6906-0.1473,2.5795-4.45,0-4.125
				c-4.0772,0.5137-8.3101,1.2091-12.4249,0.9513C735.2848,195.0878,735.3512,197.2332,736.7348,197.3974L736.7348,197.3974z"/>
		</g>
	</g>
	<g>
		<g>
			<path fill="#FCE0DE" d="M630.2023,184.1681c3.0464-0.9762,6.5612,1.3363,9.1721,2.7816c2.0009,1.1076,5.0822,2.2165,6.5073,4.074
				c1.2258,1.5977,1.9235,3.1117,4.2855,2.9261c1.2969-0.1019,2.4819-0.7404,3.7911-0.8543
				c1.4354-0.1249,2.8884,0.1421,4.2078,0.7138c2.6088,1.1305,4.9349-2.6198,2.2791-3.8991
				c-2.5457-1.2263-5.2307-1.8132-8.0556-1.4708c-0.5244,0.0635-1.6942,0.5762-2.1833,0.4527
				c0.3511,0.0886-0.2286-0.4141-0.5353-0.7922c-0.7914-0.9759-1.7618-1.6999-2.8958-2.2424
				c-2.7433-1.3125-5.7881-1.9343-8.6182-3.0336c-2.8065-1.0901-5.6639-2.2831-8.6234-1.0816
				C628.0765,182.3339,628.6223,184.6744,630.2023,184.1681L630.2023,184.1681z"/>
		</g>
	</g>
</g>
</svg>
