<svg xmlns="http://www.w3.org/2000/svg" viewBox="0 0 547 267"><defs><style>.cls-1{fill:#f7fafc;}.cls-2{fill:#f2f6f9;}.cls-3{fill:#ffefaf;}.cls-4{fill:#e93a1d;}.cls-5{fill:#303030;}.cls-6{fill:#fff;}.cls-7{fill:#fce0de;}</style></defs><title>DN_Service-Google-img-3</title><g id="back"><path class="cls-1" d="M214.6724,264.3774a20.0924,20.0924,0,0,1-13.2334-5.0928l-4.4053-3.7988q-5.5283-4.7754-10.7422-9.2666a20.0007,20.0007,0,0,1-5.9209,8.4316c-14.0654,11.8018-31.5449.74-44.3408-7.4a19.9871,19.9871,0,0,1-4.2314,4.9277A20.3578,20.3578,0,0,1,117.0132,256.8a20.1285,20.1285,0,0,1-4.917.1768,19.8033,19.8033,0,0,1-6.9941.2832c-4.3779,1.6963-10.1885,2.0645-17.5264-1.2061-1.4844-.6621-3.4619-1.5967-6.0449-2.8574-2.1943-1.0713-4.8662-2.3984-7.9912-3.97a20.0089,20.0089,0,0,1-33.1377,3.8662s-8.38-9.9355-16.7588-19.8955c-4.1973-4.9883-8.3936-9.9834-11.54-13.7422-1.5957-1.9062-2.9248-3.499-3.8545-4.6211-2.4941-3.0117-6.67-8.0518-5.957-16.2588a19.944,19.944,0,0,1,22.0908-18.1143,21.7258,21.7258,0,0,1-.4795-6.2363,20.954,20.954,0,0,1,7.4014-14.9863,19.9849,19.9849,0,0,1,3.8965-2.5645,20.0288,20.0288,0,0,1,2.7217-2.77c.1182-.0986.2373-.1963.3574-.291a20.1012,20.1012,0,0,1,1.3467-1.5674,20.6076,20.6076,0,0,1,4.1582-4.76,19.9916,19.9916,0,0,1,16.22-4.3945c-3.791-4.9863-6.4434-9.584-5.8779-16.5166a20.0811,20.0811,0,0,1,7.09-13.7256,20.4054,20.4054,0,0,1,21.0371-3.1221c.0127-.3359.0332-.6738.0635-1.0107A19.9959,19.9959,0,0,1,89.3853,94.94,20.5536,20.5536,0,0,1,106.36,90.6147a19.999,19.999,0,0,1,6.2178-9.3047A21.0613,21.0613,0,0,1,123.79,76.6655a19.984,19.984,0,0,1,24.125-7.2217c-.0049-.5635.0088-1.126.0381-1.6895A21.8092,21.8092,0,0,1,155.73,51.9906a19.9759,19.9759,0,0,1,15.9277-4.4414,20.0038,20.0038,0,0,1,27.0342-20.6621,20.0026,20.0026,0,0,1,30.6-13.8691,19.9967,19.9967,0,0,1,31.7852-4.9219l46.6221,46.1865q.334-.3062.6836-.5986c5.6084-4.7051,15.3535-7.458,25.89-1.0723a60.2325,60.2325,0,0,1,7.8818,5.9219c2.6953,2.3164,5.918,5.3,9.7432,9.0225a20.3289,20.3289,0,0,1,21.6191.81c.7676.5059,1.5947,1.1064,2.6016,1.89,1.3223,1.03,3.0771,2.4717,5.3633,4.4063q1.2217,1.0342,2.667,2.2734a19.9843,19.9843,0,0,1,3.7793-4.2187c1.9482-1.6318,12.0625-9.1348,25.0234-1.1416a20.029,20.029,0,0,1,19.5186-.665A20.01,20.01,0,0,1,452.15,57.26q.5288-.5142,1.0967-.9912a20.0187,20.0187,0,0,1,30.59,6.0713c4.5234,5.9932,23.6377,28.3047,40.6416,47.7158a19.9965,19.9965,0,0,1,2.4385,22.89q1.0283,1.251,1.9814,2.4229c11.63,14.3105,16.3066,21.0352,15.7021,30.0488a20.4736,20.4736,0,0,1-7.2139,14.252,20.1079,20.1079,0,0,1-7.6406,4.1074c.2344.29.46.5713.6768.8408,5.2715,6.5684,9.0811,11.3145,8.3965,19.6a20.0481,20.0481,0,0,1-7.0752,13.6855,20.488,20.488,0,0,1-9.1475,4.3379,20.0185,20.0185,0,0,1-27.2061,7.6455,21.8291,21.8291,0,0,1-5.6377,7.2158,21.3273,21.3273,0,0,1-19.8115,3.98q-.5215.6094-1.1,1.1855a20.0006,20.0006,0,0,1-26.4082,1.5986,19.9922,19.9922,0,0,1-4.6992,5.74c-3.5752,3.001-13.3809,9.0469-27.127.3691a79.7784,79.7784,0,0,1-7.2148-5.2637,20.3833,20.3833,0,0,1-1.66,1.7617,20,20,0,0,1-27.4668-.0537l-5.5674-5.28a21.2374,21.2374,0,0,1-6.0605,8.3193c-3.2129,2.6953-12.0889,8.31-25.0059,2.2021a65.693,65.693,0,0,1-9.97-6.1094,21.4566,21.4566,0,0,1-4.7725,5.6523,20,20,0,0,1-26.0693-.3086q-4.1235-3.6313-8.4336-7.4229a20.972,20.972,0,0,1-7.1855,12.3613,19.999,19.999,0,0,1-19.3467,3.6c-2.9395,2.4238-13.0391,9.082-26.623.1445-1.3193-.8682-2.7773-1.9238-4.46-3.2314a19.9813,19.9813,0,0,1-3.2344,3.4014A20.4065,20.4065,0,0,1,214.6724,264.3774ZM484.3765,63.4584a19.98,19.98,0,0,1,1.6729,9.5381A17.2328,17.2328,0,0,0,484.3765,63.4584Z"/><path class="cls-2" d="M402.6919,233.9633a20.7,20.7,0,0,1-12.9707-4.7354c-.7041-.5566-1.499-1.2363-2.501-2.1387-1.416-1.2734-3.3076-3.0449-5.9531-5.5732-2.5566-2.4443-5.6533-5.4395-9.1621-8.8486q-.6064.6035-1.2676,1.16a22.0953,22.0953,0,0,1-16.9814,4.9648c-5.6133-.6631-11.7187-2.6953-23.7559-13.7559a50.0325,50.0325,0,0,1-5.1748-2.4795,158.5467,158.5467,0,0,1-19.4658-13.291q-3.2974-2.543-6.9668-5.5078a19.9972,19.9972,0,0,1-23.3672-.0957l-1.5869-1.1523a20.0156,20.0156,0,0,1-5.5518,7.501c-3.6631,3.0752-10.91,7.084-21.374,3.4307a20.012,20.012,0,0,1-30.6895-9.4912c-5.7139-7.9492-27.5156-32.7451-46.0752-52.957a19.9986,19.9986,0,0,1,.6416-27.7188c.0645-.0635.1279-.127.1924-.1885a20.9521,20.9521,0,0,1-.6445-6.7383,20.5777,20.5777,0,0,1,7.2568-14.4209A19.9639,19.9639,0,0,1,188.3423,77.33a20.3309,20.3309,0,0,1-.2686-5.0039A20.0237,20.0237,0,0,1,213.853,54.4008a19.9985,19.9985,0,0,1,35.23-10.9844l29.5029,35.1592a30.2,30.2,0,0,1,9.7715,3.7188,96.6278,96.6278,0,0,1,11.0674,7.7715q.873.6885,1.79,1.4268a20,20,0,0,1,26.0127,1.4863q3.5,3.3691,7.0449,6.7715l.0391-.0332a20,20,0,0,1,25.8418.1113l11.3115,9.6592q.5669-.5566,1.18-1.0713c3.5117-2.9463,12.7578-8.6094,26.1211-1.5527a19.9839,19.9839,0,0,1,16.9287,3.9512A20.8793,20.8793,0,0,1,428.69,107.851a20.6616,20.6616,0,0,1,11.9912-2.7744,35.7641,35.7641,0,0,1,17.3242-5.6191A20.0413,20.0413,0,0,1,470.5347,97.41a20.0255,20.0255,0,0,1,23.8105,9.0977c1.8008,2.0654,5.5244,6.0381,8.3711,9.0752,18.21,19.43,24.3447,25.9746,23.7012,36.7148a20.4443,20.4443,0,0,1-1.4424,6.4,20.0646,20.0646,0,0,1-2.3359,13.7471,20.0527,20.0527,0,0,1-1.8535,9.6045,19.9952,19.9952,0,0,1-6.0225,10.4463c-.0117.2344-.0254.4707-.043.7109a20.2849,20.2849,0,0,1-7.1455,14.0244,19.5323,19.5323,0,0,1-3.4717,2.3008,20.6311,20.6311,0,0,1-4.6836,5.6426,19.9863,19.9863,0,0,1-16.9082,4.2656q-.3618.334-.74.6523a19.91,19.91,0,0,1-13.5918,4.665,20,20,0,0,1-22.7969.2813,20.0145,20.0145,0,0,1-3.1367,3.31c-5.5615,4.6641-15.1514,7.34-25.3984.8652-.2266-.1436-.457-.293-.6934-.4492-.18.1621-.3613.3213-.5469.4766A20.2807,20.2807,0,0,1,402.6919,233.9633ZM496.937,116.53l.0254.0225a16.8158,16.8158,0,0,0-1.86-8.5723A19.9417,19.9417,0,0,1,496.937,116.53Z"/></g><g id="Layer_2" data-name="Layer 2"><path class="cls-3" d="M350.0365,94.7329c3.8244-3.2276-.1877-6.1592-3.4871-6.8551-3.8575-.8137-8.9966-1.06-7.71-6.5861.863-3.7081,3.66-4.2724,3.1362-8.4051-.5853-4.6195-4.7763-9.0344-9.8961-6.391a12.7805,12.7805,0,0,0-5.0368,6.1788c-.3954,1.4583.3869,2.9541.0179,4.1785-.8854,2.9375-5.816,4.5165-5.2661,7.8115.5951,3.5655,6.2136,4.0992,8.8086,4.6877,4.8156,1.0922,3.9759,2.9594,7.11,5.489C340.7212,97.2687,347.3973,96.1853,350.0365,94.7329Z"/><path class="cls-3" d="M332.1642,55.2488c7.7009,3.0235,7-5.8073,8.2537-10.4718.8363-3.1125,3.0746-5.2373,5.4635-7.1973a13.0985,13.0985,0,0,0,3.1436-3.3717c4.1471-5.45,8.4275-5.0553,14.77-3.9535a6.6535,6.6535,0,0,0,7.5147-8.7966c-.9924-2.7716-5.9507-8.7595-9.2732-8.4549-2.8855.2645-6.13,5.3521-8.833,6.7147-6.87,3.4637-7.9883,1.1457-14.3069-.4586-3.8-.9648-6.1483.5393-7.6226,4.0566-.8029,1.9154-.5134,3.0634-.8217,5.0316-.3335,2.1292-1.0408,2.8243-1.7455,4.7762C325.7356,41.3535,332.3043,47.1189,332.1642,55.2488Z"/><path class="cls-3" d="M395.7016,56.0413a3.6506,3.6506,0,0,1,4.07-.8352c3.9594,1.6015,2.1693,6.1029,2.7188,9.2309.4463,2.54,1.11,3.2744.9271,5.9484-.1774,2.5958-1.1563,3.704.4823,6.16,5.3156,7.9685,10.7155-.08,15.8254-.2974,1.3062,2.6056,5.44,4.6586,7.7808,2.4023,1.2815,1.6071,1.2162,3.792,2.3342,5.4623,2.1668,3.2369,5.2158,2.7243,7.5684,3.9453,2.1012,1.0906,3.0105,4.6261,5.9582,4.64-.108,3.1326.1944,15.4787-2.1213,17.358-1.8879,1.5321-8.3875.8194-10.0079-.4342-5.0051-3.8722-1.6369-13.0271-6.63-16.9169-4.0826-3.18-7.8061-5.9829-11.4908-.7776-2.0793,2.9375-2.36,5.18-6.55,5.7179-2.5518.3276-3.8641-.7617-6.2538-1.0008-6.1848-.6187-7.6033,6.2612-12.7352,7.2614-2.712.5285-6.3589-1.82-7.8917-3.8258-2.8018-3.6669.2977-4.963,2.5178-8.438,3.387-5.3016,1.3229-9.3532,1.3932-15.1278.0332-2.732-.7465-6.8853.2335-9.4046,1.1326-2.9113,10.2134-6.9652,6.3966-10.288C391.42,54.8024,393.6779,56.8361,395.7016,56.0413Z"/><path class="cls-4" d="M348.9419,85.5841c-.4554-.81,13.41-13.731,14.8621-14.6795.3232.8568,1.4684,1.6144,1.799,2.5493,2.1021-2.9954,3.2506-6.8882,4.9571-10.0465a27.2339,27.2339,0,0,0-12.4584-.449,6.5639,6.5639,0,0,0,1.414,4.3514c-3.2935,2.2218-6.4828,4.6823-9.8143,6.8154-.6848.4385-8.2268,5.5583-8.3821,5.4855C344.0231,80.88,346.6146,81.4453,348.9419,85.5841Z"/><path class="cls-4" d="M363.0382,33.2889q-.2007.1115-.3974.2308c.8364,1.3059,4.3933,5.41,6.7061,9.463a12.0813,12.0813,0,0,0-1.6989.955c.2714.3667,4.0609,3.0075,4.2094,2.8228.8839-1.129.941-3.73,1.3207-5.1412a4.4605,4.4605,0,0,0-1.891.525c-1.1272-4.2946-4.29-11.0253-3.8156-11.1728A46.5171,46.5171,0,0,1,363.0382,33.2889Z"/><path class="cls-4" d="M386.0476,82.323c-1.1237-3.586-1.1219-7.2078-2.7863-10.7055-.7321-1.5384-.8676-1.26-2.2525-.88a29.0774,29.0774,0,0,0,.645-5.818c.8117.0118,1.661.7893,2.4361,1.1249.7989.3459,1.7481.4645,2.5012.8537-.2771.7752-1.2405,1.1449-1.772,1.6949,1.06,1.8656,2.1562,3.6738,3.1186,5.623.846,1.7134,2.4918,4.2285,2.46,6.17C388.9279,80.8632,387.7354,81.7752,386.0476,82.323Z"/><path class="cls-4" d="M391.4815,64.16c-1.17-2.3488-4.5579-2.7681-5.929-4.6691.59-.5621,6.48-3.4813,7.09-3.0541,1.0548.7378-.25,1.7625,1.6516,1.7582,1.4472-.0032,2.98-.4444,4.4883-.4349,2.9209.0184,5.8528.0868,8.7689.192a29.9954,29.9954,0,0,1,9.3742,1.5071,47.4429,47.4429,0,0,0-1.6721,6.4917c-3.4494-.8768-6.8829-2.0562-10.4107-2.6647a76.4839,76.4839,0,0,0-12.4526-1.4228c-.0812.2182.2329,2.7729-.125,2.68A4.744,4.744,0,0,0,391.4815,64.16Z"/><path class="cls-4" d="M387.0345,47.3513a12.8449,12.8449,0,0,1-.7444,1.6058c-.7474,1.3006-1.7715,2.2337-1.7516,3.8113.5137-.0917,6.3628-1.408,6.3593-1.2969a1.582,1.582,0,0,0-.5927-1.26c1.4662-1.6794,4.0423-2.93,6.0109-3.88,1.849-.8918,4.0618-1.277,5.9937-2.1334a11.74,11.74,0,0,0-1.4463-2.654c-.5963-.8711-1.0109-2.3535-1.9119-2.9612a62.7481,62.7481,0,0,0-5.3713,4.2671c-1.4266,1.2514-3.6853,3.26-4.3131,5.0346-.2033-.1429-1.6767-1.8919-1.5759-2.1049C387.4546,46.28,387.2494,46.8172,387.0345,47.3513Z"/><path class="cls-4" d="M375.8973,52.1786c-2.007-.89-3.3974,4.6024-2.935,5.9442,1.0947,3.1767,4.7482,3.56,6.706.884,1.4321-1.9576,1.5645-5.6137-.7984-6.9C377.88,51.567,376.007,51.3263,375.8973,52.1786Z"/><path class="cls-3" d="M411.3391,28.7321c-4.9331-1.4538-13.1758,2.1587-15.3477,6.661-2.8461,5.9.6741,10.0508,5.8113,12.711,3.06,1.5846,7.1081,1.1736,8.6012,4.0266.8117,1.5511.4945,5.0083,1.2378,6.9175.453,1.1634,1.7081,5.0221,2.4946,5.8027,2.354,2.3366,3.9679-.4159,6.8077-.1254,3.7133.38,3.0618,2.4645,4.5069,5.7876,1.4178,3.26,5.82,7.1186,9.8728,6.0287,2.1175-.5695,3.1541-2.27,5.4015-2.699,1.871-.3573,3.0286.7737,4.41-.66,1.4268-1.4806.7258-7.0115.9921-8.9308,1.0822-7.7989,1.4385-15.6322,2.81-23.4183.8-4.5442,1.0321-9.202,1.8058-13.6.219-1.2448,2.8759-16.1657,2.6184-16.0226-3.821,2.1233-10.2682,1.7837-14.6874,2.3366-6.2673.784-12.5067,1.2864-18.7615,2.0473-3.4171.4157-6.7942,1.6445-10.2852,1.3778-3.7461-.2863-7.1-2.4952-10.762-2.6838,1.7169,4.1882,2.8311,8.7313,7.6266,10.4154C408.4991,25.4083,415.5422,25.2525,411.3391,28.7321Z"/><path class="cls-5" d="M443.5958,109.4813a874.1665,874.1665,0,0,1,10.5025-97.7483c.1287-.7807-1.053-1.1271-1.2035-.3318-3.0354,16.0417-5.0554,32.3279-6.8369,48.55-1.8,16.3945-3.5806,33.0185-3.54,49.53a.5394.5394,0,0,0,1.0781,0Z"/><path class="cls-5" d="M311.9483,88.324C320.4534,62.8,325.1849,35.8478,327.9956,9.1468l-.6987.5323c10.3162,1.7055,21.3545-.1709,31.5535-1.9185,2.8082-.4812,5.91-1.5732,8.7557-1.6752-.4165.0149.3064.1264.7374.2686,1.0551.3479,2.127.6516,3.1892.977q11.951,3.661,23.9019,7.322,4.7612,1.46,9.5214,2.9224a11.5312,11.5312,0,0,0,4.3136.6634c14.945-.4236,29.6926-3.5095,44.3858-6.0953.7647-.1346.4285-1.2605-.3178-1.1526-13.6656,1.9761-27.208,5.29-41.0322,5.8874-2.3508.1016-4.1293.3822-6.0751-.21l-8.3285-2.5369q-12.0324-3.665-24.061-7.3426c-1.8815-.5742-4.0165-1.5928-5.9787-1.8248-1.4852-.1756-3.3113.5485-4.767.8287-5.5867,1.0752-11.214,1.9753-16.8707,2.5891-6.1253.6646-12.5123,1.2016-18.634.2332a.5641.5641,0,0,0-.6987.5323c-2.6413,26.8871-8.605,52.9582-15.83,78.9326a.46.46,0,0,0,.8871.2446Z"/><path class="cls-5" d="M368.4753,5.4878c-2.055-.0506-1.83,2.7478-1.9119,4.1528q-.3734,6.44-1.1255,12.8533A219.32,219.32,0,0,1,360.77,48.205a.4926.4926,0,0,0,.9492.2617,202.8138,202.8138,0,0,0,4.1061-21.098q.6744-4.8,1.13-9.6271c.13-1.3869.0856-11.3055,1.5194-11.4628a.3958.3958,0,0,0,0-.791Z"/><path class="cls-5" d="M405.14,32.3777Q399.079,65.1129,394.6643,98.156c-.0771.5768.9377.72,1.0243.1386q4.9015-32.8878,10.2367-65.7c.0828-.51-.6892-.7357-.7854-.2165Z"/><path class="cls-5" d="M341.3016,49.382a71.8557,71.8557,0,0,0,9.7756-.0362c2.9081-.2148,5.8957-.9553,8.8149-.8074,3.0972.1569,6.2,1.385,9.1608,2.24,3.0121.8693,6.0232,1.7415,9.046,2.5729a.4369.4369,0,0,0,.2321-.8419c-3.005-.894-6.0217-1.747-9.0377-2.603a54.52,54.52,0,0,0-8.515-2.1758c-3.0593-.3477-6.1685.3956-9.2136.6448a90.9706,90.9706,0,0,1-10.2631.216c-.5118-.016-.5046.76,0,.791Z"/><path class="cls-5" d="M401.3315,58.9407a56.8552,56.8552,0,0,0,18.1552-1.4814c.5455-.1345.3145-.9743-.2321-.8419a58.6548,58.6548,0,0,1-17.9232,1.5264c-.5131-.0352-.5077.757,0,.7969Z"/><path class="cls-5" d="M373.126,86.7677c4.6308.3232,9.2612.6487,13.8936.9465,4.3217.2779,8.8.2833,12.9915,1.4761,3.7987,1.0811,7.2891,3.009,11.1058,4.0505a37.0473,37.0473,0,0,0,12.0071,1.1928c.5684-.0339.5755-.9165,0-.8906a37.64,37.64,0,0,1-13.5217-1.75c-3.72-1.2253-7.1813-3.1371-11.0363-3.9518A78.2671,78.2671,0,0,0,387.02,86.7567c-4.63-.2757-9.2619-.5238-13.8936-.7742-.5066-.0274-.5007.75,0,.7852Z"/><path class="cls-6" d="M281.3734,95.04c4.3009-1.9062,9.5706.4894,13.0738,2.9674a24.765,24.765,0,0,1,8.0689,9.8667,1.7186,1.7186,0,0,0,2.3433.6144c5.3612-3.8069,13.3958-2.1352,16.4988,3.7554a1.8668,1.8668,0,0,0,2.5088.6578,11.7794,11.7794,0,0,1,8.2184-.9676c2.9445.7013,4.7606,2.3234,6.8884,4.3261a1.9068,1.9068,0,0,0,2.9816-2.3006c-3.8431-6.6136-13.7518-7.6342-19.9395-4.2245l2.5088.6578c-4.1787-7.2792-14.4911-9.8293-21.3944-4.8622l2.3433.6144C301.44,97.644,289.9485,87.33,280.1353,92.9213c-1.4031.7995-.172,2.7432,1.2381,2.1182Z"/><path class="cls-6" d="M412.094,131.7355a21.9557,21.9557,0,0,1,9.69-6.91,9.8266,9.8266,0,0,1,5.2152-.4915c1.668.3956,2.2721,1.9256,3.753,2.4194,1.5345.5117,2.42-.5377,3.3576-1.5513a10.5625,10.5625,0,0,1,4.4951-2.7783c3.3257-1.1438,9.99-3.4237,12.0607.5023a1.93,1.93,0,0,0,3.3127,0c2.688-5.7857,8.06-7.8006,14.0868-7.9175a1.6249,1.6249,0,0,0,.43-3.1766c-7.0217-2.1684-14.91,2.8449-17.8295,9.1578h3.3127c-2.4459-4.6186-7.7767-4.2766-12.1812-3.3092a30.738,30.738,0,0,0-5.9848,1.8122,13.3441,13.3441,0,0,0-2.82,1.6624,10.68,10.68,0,0,0-1.0473.9c-.0122.0124-.94,1.2965-.9776,1.311l1.39.1818c-.7821-.4008-1.3549-1.3047-2.1526-1.7623a8.564,8.564,0,0,0-2.929-.9764,13.4373,13.4373,0,0,0-6.408.6931,22.63,22.63,0,0,0-11.1051,8.4348c-.9644,1.366,1.2422,3.0867,2.3313,1.7988Z"/><path class="cls-6" d="M331.0173,131.1647c2.4016-.3982,4.585-1.383,7.0564-1.5911a22.9412,22.9412,0,0,1,7.2212.5323,22.2149,22.2149,0,0,1,12.1267,7.5369,1.8627,1.8627,0,0,0,2.597,0,13.7056,13.7056,0,0,1,11.7432-3.4315c4.08.8153,6.9016,3.3971,9.3155,6.6405a1.7124,1.7124,0,0,0,2.9547-1.7271c-4.5845-10.41-18.9672-11.0843-26.61-4.079h2.597a25.4222,25.4222,0,0,0-14.4634-8.5347c-4.9319-.9866-11.8054-1.0708-15.9517,2.2249-1.2666,1.0067.167,2.6355,1.4138,2.4287Z"/><path class="cls-6" d="M363.4237,115.26c7.4628-6.1057,17.1794-.33,23.86,3.9428a1.7724,1.7724,0,0,0,2.58-1.0495,7.07,7.07,0,0,1,12.8187-2.0679,1.8181,1.8181,0,0,0,2.4652.6464,18.978,18.978,0,0,1,7.0981-3.3791c2.6636-.62,5.1626-.3127,7.8484-.2386,1.9134.0528,2.0964-2.6055.432-3.192-5.61-1.9768-12.6264.2954-17.1972,3.6981l2.4652.6464a10.6409,10.6409,0,0,0-19.317,2.9531l2.58-1.0495c-8.0158-4.9671-19.2247-10.5183-27.3895-2.6668-1.175,1.13.5434,2.7494,1.7567,1.7567Z"/><path class="cls-7" d="M327.4661,103.3467a23.7032,23.7032,0,0,1,4.99,1.4632c1.4442.6764,2.6037,1.8257,4.0276,2.4965,2.432,1.1456,6.1822-2.31,7.3509,1.0613a1.98,1.98,0,0,0,2.8652,1.1656c3.3043-1.8115,6.3459-1.3635,9.66.1269,1.7415.7832,3.939-1.409,2.2248-2.8835-3.8181-3.2842-9.6818-3.1872-13.8534-.6117l2.6685.7a5.7938,5.7938,0,0,0-7.8814-2.7118c-2.297,1.1147-3.7849-.7571-5.8881-1.6872a14.2457,14.2457,0,0,0-5.8647-1.3288,1.13,1.13,0,0,0-.2991,2.21Z"/><path class="cls-7" d="M378.3418,109.82a13.8077,13.8077,0,0,1,6.0362.5415c1.398.4772,2.5509,1.2763,4.0247.6732,1.38-.5646,2.0967-1.8023,3.7311-1.9047,1.7454-.1094,3.5982.7763,5.2064,1.3254,1.6886.5766,2.83-2.0894,1.2221-2.8987-2.8061-1.4119-6.5658-2.5868-9.5333-.9478-.531.2933-1.1535,1.1013-1.6843,1.2942-.8922.3241-2.5253-.6128-3.4235-.7883a14.1318,14.1318,0,0,0-5.924.1578c-1.399.3136-1.1261,2.7046.3448,2.5474Z"/></g></svg>