<svg xmlns="http://www.w3.org/2000/svg" viewBox="0 0 270 324"><defs><style>.cls-1{fill:#f7fafc;}.cls-2{fill:#777;}.cls-3{fill:#e93a1d;}.cls-4{fill:#303030;}.cls-5{fill:#ffefaf;}</style></defs><title>DN_Service-Google-img-2</title><g id="back"><path class="cls-1" d="M165.165,322.0653q-.9565,0-1.9219-.0879c-.4844-.0449-.959-.1-1.4248-.168a20.044,20.044,0,0,1-5.1738-.1973,20.7579,20.7579,0,0,1-9.6367-.8232,20.9028,20.9028,0,0,1-15.7158-2.5264c-1.0166-.5859-2.1836-1.3291-3.6719-2.3389-2.2256-1.5088-5.23-3.6533-9.1875-6.5566q-4.7168-3.4614-11.2881-8.4033a20.012,20.012,0,0,1-32.5254,2.7451s-16.7783-19.8926-33.5518-39.8311c-8.3945-9.9785-16.7891-19.9688-23.082-27.4883-3.168-3.7852-5.8076-6.9492-7.6543-9.1777-4.3525-5.2539-8.1123-9.791-7.3955-18.0312A20.0015,20.0015,0,0,1,9.958,195.6317a20.3324,20.3324,0,0,1,7.0186-3.8369C3.2949,173.2362,1.9257,166.0185,2.2509,159.4735a21.9429,21.9429,0,0,1,4.6436-12.5967,19.9991,19.9991,0,0,1,3.502-8.31,20.7047,20.7047,0,0,1,2.9727-5.1094,21.4776,21.4776,0,0,1,5.1885-6.3984,20.0064,20.0064,0,0,1,20.5439-3.1455,19.6473,19.6473,0,0,1-.39-6.0479A20.1209,20.1209,0,0,1,45.81,104.1249a20.3556,20.3556,0,0,1,18.9863-3.8525,20.0032,20.0032,0,0,1,7.12-16.3135c2.05-1.7207,12.9688-9.8047,26.5156.1074.4473.3271.918.6855,1.4189,1.08a19.9465,19.9465,0,0,1,3.9463-4.4629,20.1548,20.1548,0,0,1,22.082-2.4951,20.1335,20.1335,0,0,1,24.334.7539c.3457.2715.8477.6807,1.49,1.2266.6709.5693,1.58,1.3574,2.7,2.3418A20.0063,20.0063,0,0,1,185.498,94.9872c5.5273,7.3154,21.64,23.9678,32.6953,35.3945,34.4336,35.5889,42.5361,44.4658,41.8857,56.9854a21.0765,21.0765,0,0,1-4.1348,11.4717c9.0762,12.4287,11.6836,19.084,11.2617,26.3125a20.9458,20.9458,0,0,1-5.752,13.3613A20.0021,20.0021,0,0,1,256.19,262.3a20.4863,20.4863,0,0,1-6.0254,3.5205,19.9832,19.9832,0,0,1-30.0273,25.293,19.998,19.998,0,0,1-6.9434,12.4941c-7.4844,6.2793-16.9473,6.9648-28.1875,2.0654a20.1466,20.1466,0,0,1-19.8418,16.3926Z"/></g><g id="Layer_2" data-name="Layer 2"><path class="cls-2" d="M93.9111,82.1952q-1.0112-.7125-2.057-1.3782c-1.3013-.824-3.77-2.7554-5.4341-2.5906-2.6648.264-1.2786,1.7221-2.0023,3.9731-1.5857,4.9324-8.047,8.0583-11.018,11.87-6.5375,8.3878-.7709,24.66-3.64,34.8546,5.6381-2.6026,11.677-5.4819,17.5149-1.7356,2.1952,1.4087,2.9775,4.3548,5.3571,3.22,1.3187-.6291,3.6413-6.9875,3.8095-8.363.7208-5.8948-6.7571-9.8705-4.2512-15.5914.7913-1.8065,4.0947-4.8871,5.5288-6.0695,2.7489-2.2664,3.6389-.7658,5.3041-1.28,6.0438-1.8663,2.2628-8.0495-1.2914-10.8462C99.1385,86.2185,96.6077,84.0951,93.9111,82.1952Z"/><path class="cls-3" d="M116.8913,214.7615c-2.5138,1.4964-5.1023,5.8437-7.7144,8.08-2.1561,1.8458-5.0982,3.6187-6.1768,6.1526,7.3973,2.6252,14.1875-.4669,20.345-4.3285,2.3356-1.4647,7.5392-2.2559,8.9607-4.393,1.9357-2.91-.7562-6.907-3.4937-7.5284C125.4907,211.99,119.5484,213.7026,116.8913,214.7615Z"/><path class="cls-3" d="M83.1463,209.6264a8.1073,8.1073,0,0,0,4.3082-11.663c-2.5-4.6763-10.0534-6.1991-13.9473-9.1424-4.0065-3.0284-8.7229-4.8228-8.3514,2.4644C65.42,196.4695,70.02,198.2795,72.6,202.2c1.33,2.02.541,4.9808,1.8353,6.601C75.7137,210.401,79.2171,210.743,83.1463,209.6264Z"/><path class="cls-3" d="M175.1954,194.5035c-.0452-5.4124-1.952-10.2294-3.6148-15.2345-1.7222-5.1839-1.2265-10.4327-1.5127-15.8973-.2955-5.6417-.87-11.6821,1.5521-16.9339,3.0033-6.5118,6.93-13.16,13.8369-15.9159,6.2551-2.496,9.1459-2.722,5.8019-9.7511-.9543-2.0059-1.3327-5.6324-3.5925-6.3781-4.0455-1.3351-11.1023,5.4364-14.4086,6.9264-4.35,1.96-8.39,3.7105-12.8465,1.5029-1.8481-.9154-1.9473-2.937-4.3059-1.6192-2.2287,1.2452-3.0061,7.1813-3.9873,9.52-2.7167,6.4768-6.898,13.9013-7.8073,20.9218-2.7319-3.6413-3.9642-15.4249-3.8858-20.3737.0434-2.7385,1.5444-6.1367,1.2811-8.77-.3173-3.1725.1056-2.284-3.3439-3.1963a19.6606,19.6606,0,0,0-12.1833.2832c-6.4958,2.3273-14.0017,2.7516-19.3306,6.7286-3.0627,2.2857-6.8072,4.1684-9.676,6.4261,2.3048-.04,26.4762-5.4857,20.053,4.3864,1.7787,1.1048,2.4765,2.8872,3.9973,4.0073,2.8331,2.0867,5.3453,2.3,6.8738,5.7056,1.333,2.97,3.7082,8.7811,3.9054,12.0169.1862,3.0549-2.3532,10.1289-6.027,10.442-7.4839.6378-3.8633-7.8509-4.1042-12.0677-.14-2.4439-.3349-5.61-1.6645-7.7508-.22-.3536-4.7455-4.7492-4.9834-2.98-.5541,4.1213-.2833,8.3332-.8715,12.444-.3053,2.1315-1.3469,7.2363-.4048,9.323,1.0522,2.3307,8.91,5.603,11.9614,5.7469,1.986-5.2007,6.4845-7.3175,11.6717-8.3,5.9869-1.1343,12.1257,1.9426,15.8266,6.4658,3.9556,4.8344,9.8214,9.0688,13.0169,14.4837,2.3479,3.9787,5.4848,6.47,8.7156,9.7174Q175.2047,195.4337,175.1954,194.5035Z"/><path class="cls-4" d="M127.1287,128.6685c-2.3286,3.4364-6.1116,5.4356-8.7721,8.5726l.8687.1119c-2.26-3.7927-3.2049-7.379-8.161-7.9065a23.5492,23.5492,0,0,0-9.4315,1.2136,21.0847,21.0847,0,0,1-2.5193.8937c-1.5788.27-1.546-.0175-.2192-.7194q2.4083-1.2742,4.8609-2.4613a151.1278,151.1278,0,0,1,20.508-8.1306c2.9484-.9271,6.8317-2.8158,9.9057-2.0117,2.26.5912,4.2905,1.896,6.5726,2.3879a.5894.5894,0,0,0,.3131-1.1357c-2.4937-.92-4.9577-2.3806-7.6124-2.768-2.7636-.4033-6.0606,1.1826-8.6623,1.9869a153.8427,153.8427,0,0,0-22.0831,8.7577,34.0944,34.0944,0,0,0-5.6515,2.9091c-.4514.3452-.9571.596-1.0375,1.2365-.3511,2.7962,3.7225,1.0562,4.6912.7118,3.6686-1.3044,8.3828-2.5389,12.2191-1.267,2.9507.9783,3.8725,4.4568,5.3519,6.8615a.5577.5577,0,0,0,.8687.1119c2.6666-3.2355,6.5712-5.2684,8.7842-8.8905.3118-.51-.4654-.95-.7943-.4643Z"/><path class="cls-4" d="M97.3184,133.7205c3.6972,2.5522,7.6185,4.8,11.4233,7.1879,3.703,2.324,7.5451,4.8372,10.0594,8.5033,2.6872,3.9181,3.0293,7.7841,1.7093,12.2274-.6247,2.1029-.711,4.5542.9494,6.225,3.0091,3.0279,7.3285.6864,8.7469-2.6323a28.5485,28.5485,0,0,0,2.36-8.68c.1907-2.4327-.8732-4.4587-2.2623-6.3934a65.2149,65.2149,0,0,0-7.0609-7.8674c-2.8813-2.8812-6.4812-6.1162-7.5171-10.1736a.4134.4134,0,0,0-.7967.22,15.9129,15.9129,0,0,0,4.1,6.8087c1.8718,2.0832,3.71,4.2013,5.6379,6.2326a38.439,38.439,0,0,1,5.66,6.9373c1.6,2.7679,1.0568,5.4591.2132,8.4036-.726,2.5341-1.4658,6.0649-4.2179,7.1135-3.4286,1.3063-5.651-1.9518-4.972-5.0781.6571-3.0254,1.5856-5.2836.8557-8.44a17.0852,17.0852,0,0,0-4.0212-7.4431,39.9089,39.9089,0,0,0-8.9-6.8939c-3.808-2.3723-7.5906-4.8563-11.5178-7.0262a.4457.4457,0,0,0-.45.769Z"/><path class="cls-5" d="M169.6968,100.1285c1.8115-8.2472-2.3385-12.7055-9.5787-15.8607-5.0513-2.2013-12.9955-4.3686-9.6381-11.9724,3.4049-7.7113,12.6946-1.6364,16.75,1.7485,4.7114,3.932,8.46,7.42,8.6148,13.8745C175.9487,92.2269,175.2124,97.6545,169.6968,100.1285Z"/><path class="cls-4" d="M143.8633,91.56c-2.9058,7.3342-6.9256,18.5029,1.015,24.3112,7.32,5.3546,18.7815-2.3394,22.1212-9.2131l-1.0512.2756c2.8919,1.2641,6.455.6421,6.7871-3.0589.2952-3.29-2.5194-4.5037-5.1894-3.0979-.827.4354-.0976,1.6682.73,1.25,1.7186-.8687,3.2556-.1876,2.9219,1.8963-.3768,2.3525-2.6263,2.4883-4.4745,1.6839a.7827.7827,0,0,0-1.0512.2756c-3.121,6.45-14.8075,14.4366-21.094,7.74-5.6263-5.9934-1.843-15.1271.3752-21.7618.2348-.7022-.8283-.9623-1.09-.3006Z"/><path class="cls-4" d="M143.6722,89.9431a7.0544,7.0544,0,0,1,3.1353.1137,13.3975,13.3975,0,0,1,2.6846,1.3886.7123.7123,0,0,0,.966-.966c-.6393-1.2812-2.31-1.9222-3.652-2.132-1.1025-.1724-2.9227-.4016-3.7354.5625-.3569.4234-.0322,1.2692.6014,1.0332Z"/><path class="cls-4" d="M154.9965,93.8452a5.6327,5.6327,0,0,1,3.5193.13c.9862.3862,1.7731,1.0971,2.7342,1.51a.7508.7508,0,0,0,.9053-1.1733c-1.6334-2.0226-5.4037-3.2541-7.7255-1.8116a.7388.7388,0,0,0,.5666,1.344Z"/><path class="cls-4" d="M149.498,80.58a10.398,10.398,0,0,0-1.8842,2.4656,8.345,8.345,0,0,0-1.2461,2.84c-.1078.6671.8341,1.2178,1.1888.5012a40.9827,40.9827,0,0,1,2.9216-5.0509c.4194-.6143-.4738-1.2-.98-.7562Z"/><path class="cls-4" d="M157.5205,114.8308a21.1136,21.1136,0,0,0-1.0491,10.4508c.0984.6281,1.1.4665,1.0934-.148a35.42,35.42,0,0,1,.95-10.0287.5161.5161,0,0,0-.9944-.2741Z"/><path class="cls-4" d="M147.2021,96.9012c-.4308.3977-1.2262,1.0847-1.3513,1.694-.128.6235.41.9226.8732,1.1617,1.17.6041,2.81,1.7631,4.1848,1.33a.6152.6152,0,0,0-.1628-1.2027,4.3655,4.3655,0,0,1-2.0021-.5519c-.3447-.1566-1.6149-.5338-1.77-.8835v.62c.2844-.5474.7521-.99,1.0614-1.5247a.5326.5326,0,0,0-.8328-.6426Z"/><path class="cls-4" d="M152.436,107.7117a4.5069,4.5069,0,0,1-4.3793.1362.6919.6919,0,0,0-.6979,1.194,4.755,4.755,0,0,0,5.7625-.4422c.4759-.4564-.1284-1.1808-.6852-.8881Z"/><path class="cls-4" d="M169.969,100.5684c-.07-3.9842.4928-8.7269-2.1766-12.0584-2.3506-2.9337-6.1612-3.8164-9.6238-4.6934-3.24-.82-8.0761-1.8709-9.4163-5.3767-1.5449-4.0415,3.6164-7.6656,4.8175-11.2024l-.7713.438c7.3569,1.3,14.8059,3.9512,19.97,9.5924,2.6891,2.9378,5.2209,6.8359,4.8547,10.9749-.4008,4.53-3.0909,8.7615-5.96,12.1515-.5665.6694.3968,1.6436.97.97,2.8762-3.3852,5.4389-7.3969,6.203-11.8436.7468-4.3458-1.0538-8.0931-3.6495-11.4895-5.3128-6.9517-13.6849-10.1477-22.0543-11.5646a.6468.6468,0,0,0-.7713.438c-1.1626,3.5059-4.985,5.9666-5.1181,9.8538-.1052,3.0721,2.3349,5.1575,4.9012,6.3475,3.0515,1.415,6.3911,1.7955,9.55,2.8623,3.1,1.0467,5.8251,2.8884,6.6859,6.219.7063,2.7328.3578,5.6.6577,8.3818.0627.5817.9424.613.9316,0Z"/><path class="cls-4" d="M159.4845,98.3389c-1.3015-1.4081-3.9206-2.2921-5.7436-1.4965-.5537.2417-.1951.9737.2765,1.0209a17.7064,17.7064,0,0,1,2.5521.1623,9.0853,9.0853,0,0,1,2.3469,1.05.4708.4708,0,0,0,.568-.7362Z"/><path class="cls-4" d="M149.1005,94.7032c-.8948-1.7433-3.7244-2.5776-5.227-1.0939-.4321.4266.0043,1.2808.6185,1.0626a3.5654,3.5654,0,0,1,1.9689-.3336,2.8743,2.8743,0,0,1,1.7055,1.0856c.4406.55,1.2268-.15.9341-.7207Z"/><path class="cls-4" d="M147.4944,117.0752a36.431,36.431,0,0,0-1.8322,7.3929c-.087.6653.8972.6968,1.0992.1488a35.778,35.778,0,0,0,1.7558-7.26.5308.5308,0,0,0-1.0227-.2819Z"/><path class="cls-4" d="M96.3586,132.493c-2.6751-2.4388-5.624-4.591-8.4981-6.7871-2.8071-2.1449-4.6292-2.0341-7.9231-.8449q-11.5759,4.1789-23.1333,8.41c-2.3592.8576-5.9926,1.4887-7.3584,3.8657a10.1123,10.1123,0,0,0-.8773,3.9146q-.3759,3.1786-.74,6.3586l-2.8466,24.4563c-1.08,9.2822-2.3944,18.5715-3.2129,27.88-.0695.79,1.283.9852,1.3984.1893,2.62-18.0734,4.2656-36.3416,6.377-54.4822.2806-2.4106.1063-5.6272,1.4949-7.6392,1.3749-1.9921,4.4119-2.4733,6.6229-3.2775l12.954-4.7116,6.477-2.3558c2.2368-.8136,5.1316-2.4793,7.4906-1.8695,2.0519.53,3.8161,2.3994,5.4757,3.6683,1.8439,1.41,3.69,2.82,5.646,4.0721a.5413.5413,0,0,0,.6532-.8466Z"/><path class="cls-4" d="M83.7846,126.3056c-1.7618,10.0094-2.7735,20.19-4.1691,30.2579-1.362,9.8251-2.9245,19.6269-4.2044,29.4625-.0908.6981,1.1164.8661,1.2373.1674,1.736-10.0324,3.0585-20.1512,4.4422-30.2373,1.3438-9.7955,2.9487-19.655,3.678-29.5173.0412-.5568-.8858-.6915-.9841-.1332Z"/><path class="cls-4" d="M115.1386,148.7589c-.2206,6.2525-.7315,12.4046-1.27,18.6331a.6709.6709,0,0,0,1.3121.1776,88.9427,88.9427,0,0,0,1.2525-18.8107.6479.6479,0,0,0-1.2949,0Z"/><path class="cls-4" d="M125.0129,174.12a100.9916,100.9916,0,0,0-14.0562-7.6581c-3.529-1.6318-7.3332-2.3869-10.758-.13-3.5542,2.3426-6.5741,5.941-9.3222,9.1466a84.5346,84.5346,0,0,0-8.388,11.5932.6831.6831,0,0,0,1.1788.6891c4.3868-7,9.557-13.7779,15.8839-19.1561,4.4348-3.77,8.8228-1.9679,13.408.4412a125.5318,125.5318,0,0,0,11.7015,5.9091c.5065.2015.7553-.5621.3522-.8353Z"/><path class="cls-4" d="M121.4917,186.717a92.0056,92.0056,0,0,0-10.7325-2.3333c-2.0349-.3276-3.0819-.01-4.3948,1.5845a214.9167,214.9167,0,0,0-13.1353,17.4245c-.4132.6228.5484,1.38,1.0445.8059,3.7-4.283,6.9447-9.0251,10.3639-13.5347.7993-1.0541,1.5945-2.1114,2.3978-3.1625,1.5673-2.0507,3.5543-1.6839,5.7938-1.2481,2.8277.55,5.6587,1.1709,8.5231,1.4938.6014.0678.69-.8715.1394-1.03Z"/><path class="cls-4" d="M87.03,189.5207a70.1763,70.1763,0,0,1,9.6873-14.8475c.4527-.53-.31-1.3029-.7706-.7706a62.7852,62.7852,0,0,0-9.7616,15.1242c-.257.5649.5657,1.0649.8449.4939Z"/><path class="cls-4" d="M82.9209,189.5438c-.3664.2513,2.5542,2.446,2.9215,2.7688a23.8885,23.8885,0,0,1,2.6637,2.7248,27.13,27.13,0,0,1,4.222,7.28c.27.6759,1.361.4137,1.1187-.3084a23.8114,23.8114,0,0,0-4.95-8.4383c-1-1.1052-4.3032-4.9248-6.114-4.3186a.5222.5222,0,0,0-.3748.4922.71.71,0,0,0,.41.6968.4845.4845,0,0,0,.58-.0749l.0869-.0906c.3527-.3676-.113-1.0412-.5645-.7316Z"/><path class="cls-4" d="M70.3083,185.6472a19.1622,19.1622,0,0,0,7.4453,7.028c1.5776.8405,3.375,1.2053,4.9334,2.0437,1.9185,1.0321,2.9051,3.0421,3.6166,5.004.73,2.0131,1.801,4.7617.7223,6.7959-1.0671,2.0124-3.6573,3.22-5.8379,3.43-1.9181.1847-4.8164-.4128-5.74-2.3714-2.0944-4.4429,2.8356-3.2455,4.0151-1.9518a15.3417,15.3417,0,0,1,1.7864,2.9651c.3193.5682,1.3279.1834,1.0817-.456-.8516-2.2112-2.3278-4.7683-4.9392-5.0364a3.2149,3.2149,0,0,0-3.7331,2.547c-.7629,5.3613,7.0034,6.3326,10.4417,4.8944,2.1749-.91,4.3244-2.7412,4.66-5.1957.3711-2.7175-1.0491-6.3484-2.41-8.6658-1.4523-2.4729-3.4619-3.1751-6.0086-4.1583a22.1148,22.1148,0,0,1-9.3753-7.38c-.2955-.38-.8974.1076-.658.5077Z"/><path class="cls-4" d="M69.2182,185.5586a2.4675,2.4675,0,0,0-3.7074.4212c-1.3734,1.6837-.8541,4.5808-.39,6.5026,1.1835,4.9027,4.5668,9.1977,9.5439,10.5349a.6334.6334,0,0,0,.3365-1.22,11.6182,11.6182,0,0,1-7.0994-5.613,15.402,15.402,0,0,1-1.6137-4.0234c-.2635-1.0651-1.3961-7.8818,2.419-5.9395.4081.2078.881-.3226.5112-.6626Z"/><path class="cls-4" d="M69.0769,189.2343a62.9292,62.9292,0,0,0,8.6724,14.6939c.4549.5932,1.48.03,1.0271-.6a152.4733,152.4733,0,0,1-8.8641-14.4458c-.2466-.4378-1.0311-.14-.8353.3522Z"/><path class="cls-4" d="M127.1277,169.8075c-6.228,12.0282-9.8332,26.2907-11.1666,39.7172-.0659.6632,1.0808.8266,1.174.1589a154.1907,154.1907,0,0,1,3.999-20.1482,197.6024,197.6024,0,0,1,6.9628-19.3192c.22-.5593-.6952-.9379-.9692-.4086Z"/><path class="cls-4" d="M116.2365,216.1064c-4.5925,3.9122-8.9381,8.1391-13.3469,12.2559a.6131.6131,0,0,0,.2672,1.0122,18.6911,18.6911,0,0,0,15.0164-.6847c2.4326-1.1939,3.971-2.8923,5.9025-4.693,1.3007-1.2127,3.15-.9829,4.7158-1.593a6.3673,6.3673,0,0,0,2.7218-1.9211c2.96-3.7613-.1368-7.4809-4.2009-7.8391-3.8154-.3363-12.6055-.9564-12.3241,4.9023.041.8545,1.3635.8633,1.3359,0-.1249-3.9086,4.7406-3.5527,7.3489-3.6109,1.7438-.0389,3.785-.2861,5.4482.3635,4.21,1.6441,1.7878,6.273-1.4789,7.14-1.5379.4084-2.8235.0883-4.0653,1.19-1.3708,1.2158-2.3517,2.6262-3.9037,3.6906a17.6,17.6,0,0,1-16.1946,1.8875l.2672,1.0122c4.3911-4.13,8.8887-8.1889,13.0871-12.5157.3833-.395-.1877-.945-.5966-.5966Z"/><path class="cls-4" d="M116.3427,210.3621a44.7205,44.7205,0,0,0,15.65,2.4818.6411.6411,0,0,0,.5616-.3221c3.0611-6.4138,6.3908-12.7667,9.1146-19.3324,2.1664-5.2223,3.5865-11.3138,1.2488-16.7274-.2716-.6291-1.3054-.1805-1.1031.465,2.7889,8.9-1.7623,16.8746-5.5142,24.7359l-2.7522,5.7666c-.41.8587-.7808,1.8459-1.27,2.6615-.7907,1.3178-1.0559,1.4708-2.6011,1.4094a78.164,78.164,0,0,1-13.091-2.02.4574.4574,0,0,0-.243.8814Z"/><path class="cls-4" d="M143.9653,177.93a31.2471,31.2471,0,0,1-.79,8.7588.5894.5894,0,0,0,1.1357.3131,23.7052,23.7052,0,0,0,.7382-9.0719c-.0785-.6744-1.1162-.7123-1.084,0Z"/><path class="cls-4" d="M128.1716,170.7906c2.2135-3.0233,6.1706-3.9822,9.6849-4.5862A13.3557,13.3557,0,0,1,150.01,169.648c5.86,5.3134,11.4594,10.9482,17.1807,16.4111.6519.6225,1.645-.368.99-.99q-5.5613-5.2847-11.1227-10.5695c-3.1514-2.9942-6.3653-6.9664-10.4145-8.77-3.5243-1.57-7.537-1.1124-11.1584-.1472-3.0891.8234-6.25,1.972-8.0216,4.7946-.2862.4561.4032.8308.7083.414Z"/><path class="cls-4" d="M166.4234,185.672a13.719,13.719,0,0,0,9.2249,11.3013.6292.6292,0,0,0,.7692-.7692c-4.6572-14.3491-6.0153-29.9968-5.5364-45.0382.1172-3.6829.6353-7.5008,2.5619-10.7145,1.9394-3.2351,5.142-5.303,8.4051-7.0242,3.4987-1.8455,7.4123-3.0865,10.7856-5.1416,1.5584-.9495,1.4409-1.3728.5916-2.9563-2.0231-3.7717-3.4415-7.8305-5.4784-11.597a.6377.6377,0,0,0-.5616-.3221c-3.9241.3036-6.8334,2.6439-9.956,4.8083a23.5853,23.5853,0,0,1-14.4549,4.2322c-.8514-.0295-.8526,1.3029,0,1.3242a25.4737,25.4737,0,0,0,11.8748-2.5112c3.4968-1.71,6.8971-5.7859,10.8631-6.3042,1.5634-.2043,1.7367.5726,2.297,1.7374.5119,1.064.9854,2.146,1.4617,3.2263.4814,1.0919.9527,2.1885,1.453,3.272.4177.9046,1.4907,2.2426,1.58,3.184.1012,1.0684.4949-.17.099.5068a2.8029,2.8029,0,0,1-.5912.355c-.4394.2568-.9022.4759-1.3595.6987-1.23.5994-2.488,1.1414-3.7459,1.6788-5.6543,2.4159-12.1151,5.3991-14.9736,11.1922-1.701,3.4473-2.1119,7.3652-2.165,11.16-.0649,4.6389.1449,9.3082.3816,13.94a118.89,118.89,0,0,0,5.2625,30.6253l.7692-.7692c-4.9455-1.9537-7.3319-5.2891-8.4443-10.4023-.16-.7336-1.2382-.4144-1.1131.3069Z"/><path class="cls-4" d="M158.48,120.1054c2.7953,2.2522,2.9054,5.7488,2.0168,8.99-.3362,1.2265-.891,3.6138-2.4644,3.2562-.4527-.1029-1.0067-.9057-1.5023-1.0828a1.7459,1.7459,0,0,0-2.2744.8262c-.6143,1.2059.2051,2.4667.9144,3.38,2.05,2.64-1.377,5.7869-2.8978,8.09-1.4675,2.2228-2.8724,4.4876-4.185,6.8055-2.59,4.573-5.3027,9.68-6.6171,14.7974-.1373.5347.6779.93.9264.3905,2.6147-5.6719,4.8112-11.3285,8.0328-16.721,1.6-2.6783,3.3148-5.2868,5.0967-7.8472,1.155-1.66,2.6235-3.2254,1.4661-5.24-.1769-.3078-.5771-.588-.7143-.9086-.373-.8718-.3678-2.1946.6261-1.6985.6153.3071.9365,1.02,1.6774,1.1624,1.489.2857,1.98-1.2092,2.3923-2.3274,1.5923-4.3174,2.5714-9.78-1.7267-12.8678-.5778-.4152-1.3271.5425-.7669.9939Z"/><path class="cls-4" d="M157.5523,119.7776c.7545,1.248-1.1187,4.4011-1.5789,5.482q-.8709,2.0452-1.7877,4.0706c-1.2831,2.8394-2.6139,5.6569-3.878,8.5049-2.3488,5.2916-4.55,10.7134-5.5552,16.44-.1108.6316.8266.9139.9775.2695a105.1206,105.1206,0,0,1,7.2338-19.77c1.2551-2.7426,2.5179-5.4853,3.6711-8.2728.7558-1.8268,2.92-5.2368,1.6207-7.1354-.2925-.4275-.9779-.0432-.7033.4111Z"/><path class="cls-4" d="M144.0146,118.8177c-6.2712,9.3746-.2359,22.4174.9556,32.4.0772.6471,1.06.6887,1.043,0-.1267-5.2422-1.8094-10.3109-2.7611-15.4333-1.0618-5.7144-.9719-11.1887,1.5366-16.5147a.4486.4486,0,0,0-.7741-.4525Z"/><path class="cls-4" d="M144.104,118.6655a23.5858,23.5858,0,0,0-8.2414,5.2963c-2.156,2.3021-1.7865,4.8716-.8993,7.6905a.6169.6169,0,0,0,.8948.364,5.9887,5.9887,0,0,1,3.5675-.8428l-.5323-.9275c-.783,1.6917-2.624,2.6939-3.2554,4.4561-.6212,1.7339.5441,3.2008,1.33,4.6584a37.6784,37.6784,0,0,1,4.2427,17.4907.5716.5716,0,0,0,1.1426,0,34.7667,34.7667,0,0,0-2.4344-14.0672q-.5014-1.2786-1.0924-2.5184a22.9035,22.9035,0,0,1-1.77-3.2828c-.771-2.8129,1.888-3.9031,2.9019-6.1145a.6255.6255,0,0,0-.5323-.9275,7.0863,7.0863,0,0,0-4.1823,1.0237l.8948.364c-.564-1.7694-1.2254-3.6774-.2418-5.479a9.2019,9.2019,0,0,1,2.5612-2.5577,45.5183,45.5183,0,0,1,5.9785-3.8391c.4133-.2313.13-.9751-.3319-.7871Z"/><path class="cls-4" d="M188.2218,115.2309c3.2113-6.3346,11.2945-8.4729,16.9537-11.9471,5.2727-3.237,10.5155-10.2443,6.8888-16.47l-.2242.855c3.1711-2.4353,3.0656,5.0955,5.5733,2.9593.65-.5536.9345-1.7878,1.33-2.5322.82-1.5456,1.7383-3.1659,3.3669-3.9625l-.8289-.3372c.6533,1.5512-2.6839,4.3413-.8263,5.6192,1.5836,1.0894,3.5416-2.1108,5.128-2.02l-.5522-.5522c-.2486,2.1242-3.1814,2.625-3.1516,4.92a.5615.5615,0,0,0,.5518.5518c.7687.0154,2.98-1.1525,2.4071.2583-.3488.8594-1.7766,1.4108-2.2916,2.28a.5586.5586,0,0,0,.3311.814,10.5319,10.5319,0,0,1,1.8078.1369c2.318,1.2574.4183.995.1024,1.36-.5335.6168-2.347,1.07-3.1028,1.4651-.7492.3916-1.4865.8058-2.2151,1.2344-3.3251,1.956-6.5124,4.181-9.6238,6.4586-3.1384,2.2974-6.2554,4.6421-9.3214,7.0354-2.9625,2.3124-5.7437,5.1528-9.4607,6.1891a.5864.5864,0,0,0,.3115,1.13c4.2724-1.1842,7.5145-4.59,10.9547-7.2011,3.9725-3.0148,7.9131-6.09,12.0129-8.932,1.9766-1.37,3.979-2.7123,6.0573-3.9241,1.0992-.6409,2.22-1.25,3.3717-1.7913a13.2839,13.2839,0,0,0,2.6627-1.1848A1.3008,1.3008,0,0,0,226.84,95.75c-.766-1.3727-2.3718-.9009-3.6679-1.1512l.3311.814c.6454-1.09,3.7663-2.5657,2.9529-4.2823-.7256-1.5313-2.9278.1028-4.0253.0814l.5518.5518c-.0263-1.9417,2.9051-2.8272,3.1524-4.92.0365-.3085-.2831-.5364-.5522-.5522a3.1843,3.1843,0,0,0-1.7943.527c-.6065.3431-1.8906,1.694-2.2738,1.0349-.385-.6622.6049-1.51.8692-2.1962a2.6288,2.6288,0,0,0-.0146-2.1607.5768.5768,0,0,0-.8289-.3372,7.3663,7.3663,0,0,0-2.838,2.6169,21.8344,21.8344,0,0,0-1.3168,2.2652q-.2715.5266-.5374,1.0561-.2269.9083-.44.061c-.4341-.2972-.6889-1.4518-1.0326-1.8719a3.5151,3.5151,0,0,0-1.3-1.0554,2.679,2.679,0,0,0-2.8666.3588.6419.6419,0,0,0-.2242.855c4.56,7.8049-4.8,14.1653-10.5795,17.2354-4.7183,2.5065-10.5091,5.0243-13.0236,10.06-.2785.5578.5561,1.0507.84.4909Z"/><path class="cls-4" d="M85.98,80.5992a86.4914,86.4914,0,0,0-10.2214,8.6455c-2.633,2.6324-6.2388,5.7115-6.9641,9.562-.8327,4.4207,1.4544,9.3158,1.9008,13.7032a48.8839,48.8839,0,0,1-1.2082,16.15.6451.6451,0,0,0,1.243.3427,46.2129,46.2129,0,0,0,1.4955-13.21c-.1448-4.45-1.2737-8.5134-2.0691-12.8517-1.0444-5.6961,2.7392-9.13,6.4376-12.861a109.718,109.718,0,0,1,9.8758-8.846c.3566-.2816-.1189-.9063-.49-.635Z"/><path class="cls-4" d="M85.7821,81.3629c-.4631-.14-1.6467-1.5523-1.29-1.9216.2074-.2148,1.8917.1651,2.133.2029a20.2738,20.2738,0,0,1,2.9583.702,24.75,24.75,0,0,1,6.0412,2.9308,39.5708,39.5708,0,0,1,10,9.5548,6.9609,6.9609,0,0,1,1.086,1.8358,1.7675,1.7675,0,0,1,.1349,1.7143q.3281,1.5527-1.3236,1.4562c-1.3624.4156-1.4365.312-2.3113-.6554-.3974-.4395-.7342-.9336-1.0994-1.3993A56.1216,56.1216,0,0,0,97.92,91.0024a49.7151,49.7151,0,0,0-10.2674-8.1448.5952.5952,0,0,0-.6,1.0271,64.5944,64.5944,0,0,1,9.686,7.7073,53.6058,53.6058,0,0,1,3.91,4.3647c.86,1.0736,1.763,2.6528,3.0344,3.344a3.08,3.08,0,0,0,4.4795-1.9455c.8735-2.6238-1.2348-5.0395-2.7882-6.891-4.2581-5.0755-9.6687-9.7539-16.1878-11.532-1.5716-.4287-5.5576-1.7467-6.52.2208-.9809,2.0053,1.4742,3.0457,2.98,3.2228.5943.07.6727-.8513.1371-1.0128Z"/><path class="cls-4" d="M99.1781,98.6322c-2.0084,1.7026-3.9776,3.4529-5.9941,5.1456-1.4539,1.22-1.8182.8858-3.2936.0391a24.7454,24.7454,0,0,0-2.251-1.3267,11.3785,11.3785,0,0,0-8.9752-.2336c-.5725.2438-.1534,1.1107.4109.9746a12.523,12.523,0,0,1,7.0542-.0477,13.6164,13.6164,0,0,1,3.646,2.0105c.4781.3263.8112.7657,1.4374.8341,1.1422.1246,1.9361-.834,2.7085-1.513q2.9639-2.605,5.9115-5.2282c.4476-.4009-.2049-1.0359-.6546-.6546Z"/><path class="cls-4" d="M92.3934,131.92a77.7533,77.7533,0,0,0,3.6932-8.2453c.68-1.9384.204-3.304-1.1264-4.8323A12.5841,12.5841,0,0,0,83.39,114.7547a.5385.5385,0,0,0,.1425,1.0531c3.75-.2365,7.4128.5229,10.1788,3.2677,1.4035,1.3928,1.8844,2.11,1.2456,4.5391a19.6694,19.6694,0,0,1-1.14,2.6016c-.77,1.7766-1.547,3.5511-2.2479,5.3562-.1841.4743.6005.8053.8246.3477Z"/><path class="cls-4" d="M90.5645,105.3231a78.2906,78.2906,0,0,1,5.7427,13.5652.4809.4809,0,0,0,.9266-.2555,56.3552,56.3552,0,0,0-5.8649-13.78.4662.4662,0,0,0-.8044.47Z"/><path class="cls-4" d="M64.3275,195.4623a58.3961,58.3961,0,0,0-8.4343,1.4547c-3.18.6351-6.3632,1.26-9.5383,1.9207a90.0393,90.0393,0,0,0-17.2369,4.9931c-.6815.292-.1881,1.4889.51,1.21a101.9459,101.9459,0,0,1,17.0811-4.9177c5.802-1.2125,12.1565-1.7888,17.7342-3.8036.4357-.1574.4067-.8832-.116-.8575Z"/><path class="cls-4" d="M28.71,204.1059a331.8444,331.8444,0,0,0-3.7142,39.0853c-.2715,6.53-.3914,13.0666-.4462,19.6019-.0573,6.8372-.34,13.76.0163,20.5891a.5189.5189,0,0,0,1.0371,0c.3384-6.51.0716-13.0886.1433-19.6084.0719-6.5359.2031-13.071.4281-19.6035a383.7367,383.7367,0,0,1,3.2587-39.8651c.0654-.4686-.6458-.6793-.7232-.1994Z"/><path class="cls-4" d="M24.1969,286.7643c22.6607-.97,45.3153-1.6415,67.9974-1.85q40.318-.371,80.6384.5972,19.448.4911,38.88,1.4523c.8652.0431.8575-1.2883,0-1.3418-24.5179-1.5293-49.1272-1.8942-73.6863-2.1144-26.347-.2363-52.7053-.1189-79.0442.6116-11.6006.3217-23.2228.6639-34.7849,1.702-.5949.0534-.6146.97,0,.9434Z"/><path class="cls-4" d="M144.3124,186.3082a7.707,7.707,0,0,1,2.2728-.3783q2.1215-.4,4.2482-.7719c1.6638-.2889,3.8781-.2634,5.4-1.055a.5859.5859,0,0,0-.1386-1.06c-1.8788-.3015-4.2637.5438-6.0955.88-1.8009.33-4.7523.4172-6.202,1.7185-.3591.3223.1064.9215.5148.6672Z"/><path class="cls-4" d="M155.4926,183.602c-1.3982,31.3644-2.7861,62.7511-3.9444,94.1247-.0244.66.9753.6494,1.02,0,2.1295-31.288,3.35-62.7688,3.8214-94.1247a.4485.4485,0,0,0-.8965,0Z"/><path class="cls-4" d="M155.7383,183.9486c10.0666,6.6059,20.233,12.9669,29.9726,20.067,9.939,7.2455,19.4958,14.9646,28.8419,22.9559.5053.4321,1.2411-.2855.7375-.7375a351.9551,351.9551,0,0,0-28.2537-22.622c-9.9317-7.2178-20.1473-14.3956-30.8931-20.3566a.4017.4017,0,0,0-.4052.6931Z"/><path class="cls-4" d="M215.2747,226.2127c-.9817,10.01-1.8008,20.0357-2.6669,30.056-.8629,9.9836-2.1483,20.0413-2.5042,30.056-.0242.6824.9467.6358,1.0313,0,1.3215-9.9358,1.7413-20.0668,2.5615-30.056.8224-10.0164,1.6923-20.0305,2.3987-30.056.0374-.5309-.7695-.5181-.82,0Z"/><path class="cls-4" d="M186.5526,229.1882c-.0743,2.9058-.1868,5.8029-.5016,8.6946-.2581,2.3711-1.0188,4.993-.7476,7.4005.439,3.8976,3.96,4.516,7.2674,4.35a.6.6,0,0,0,.5945-.5945,112.76,112.76,0,0,1-.576-12.5156c.033-3.2367-.6-4.6375-3.13-6.7069a.5247.5247,0,0,0-.7416.7416c1.2024,1.3747,2.476,2.2053,2.6979,4.2142.1654,1.4973-.0463,3.1311-.0238,4.644.0479,3.2163.2572,6.4232.584,9.6227l.5945-.5945c-1.927.0984-4.4218.2226-5.6074-1.6457-1.115-1.7571-.3341-4.5-.0813-6.3615a70.9873,70.9873,0,0,0,.6784-11.2489.5042.5042,0,0,0-1.0078,0Z"/><path class="cls-4" d="M197.9534,237.8525q-.4416,4.4541-.8619,8.91c-.1889,2.0283-1.1863,5.4107-.1793,7.3226.6524,1.2388,2.16,1.5928,3.3824,2.0212,1.1439.4009,4.1025,2.177,5.2836,1.1393.9636-.8466.4629-3.5034.4848-4.538q.0921-4.3661.1688-8.7325c.0286-1.5639.6762-4.3106-.561-5.6-1.1722-1.2215-4.2029-1.2855-5.7436-1.6-.667-.1363-.9558.8677-.2835,1.0283,2.0068.4795,4.8591.3534,5.535,2.776.3731,1.3374-.0761,3.4536-.1068,4.8514q-.0641,2.9108-.1232,5.8216c-.0184.9516.3182,4.5541-.37,4.9507-.772.4449-4.0379-1.1662-4.9119-1.5016-2.4881-.955-1.9142-3.337-1.7374-5.4638q.4732-5.6914.9147-11.385c.0444-.5752-.8348-.5629-.8906,0Z"/><path class="cls-4" d="M199.5133,243.1847a4.7092,4.7092,0,0,1,2.4469-.3041c.5218.0778.7429-.7232.22-.7967a5.5118,5.5118,0,0,0-2.88.3267c-.4716.19-.27.9644.2134.7741Z"/><path class="cls-4" d="M55.2073,255.9991c.695-4.6592.37-9.5134.8444-14.2161a57.1355,57.1355,0,0,1,3.1231-14.4254c2.9616-7.8694,8.3735-14.6137,16.158-18.0549.5582-.2468.1555-1.2238-.42-.996-7.5622,2.994-12.9734,9.6253-16.1121,16.9623a52.6276,52.6276,0,0,0-3.5771,13.7189c-.7268,5.414-1.4356,11.4478-.868,16.8958.0459.44.7734.64.8517.1153Z"/><path class="cls-4" d="M87.0473,207.1682a51.3632,51.3632,0,0,1,13.3778,2.5906c4.1586,1.4884,9.7562,3.7786,12.027,7.7706.3339.587,1.1457.0719.8854-.5175-1.7666-4-7.2073-6.1912-11.0046-7.7089a38.318,38.318,0,0,0-15.2856-2.9023.384.384,0,0,0,0,.7676Z"/><path class="cls-4" d="M114.7154,230.5784a63.1058,63.1058,0,0,1,2.2758,9.8279,55.6145,55.6145,0,0,1,.5242,5.7988c.063,1.6417.6226,4.5455-1.082,5.57-1.229.7388-3.5435.6388-4.9524.7516-1.6856.135-3.3764.1763-5.0663.2188-3.5462.0892-7.0884.1986-10.63.4034q-10.5181.6082-20.9787,1.959c-6.7957.8877-13.8531,1.6936-20.4791,3.4854-.6856.1854-.5755,1.3822.1737,1.2833,8.0907-1.0685,16.0778-2.801,24.1969-3.7695,7.9539-.9487,15.94-1.5509,23.9416-1.8947a101.4835,101.4835,0,0,0,10.8232-.7429c1.854-.28,4.467-.3425,5.08-2.4667a15.2666,15.2666,0,0,0,.06-4.3393c-.0576-1.8354-.211-3.6676-.447-5.4884A54.7657,54.7657,0,0,0,115.58,230.34c-.1863-.54-1.0382-.3173-.8645.2383Z"/><path class="cls-4" d="M72.834,254.7545c-1.2724-.9269-.6153-6.1264-.5249-7.5455a42.7,42.7,0,0,1,1.0792-7.1707,43.62,43.62,0,0,1,5.529-13.1226c5.4164-8.598,13.7366-15.1429,23.8464-16.934.5882-.1042.4571-1.09-.1417-1.0474-10.8542.7638-20.52,9.9861-25.6419,18.9913a45.2188,45.2188,0,0,0-5.375,15.453,42.25,42.25,0,0,0-.4918,7.5317c.0412,1.5032-.2786,3.9478,1.3956,4.6152.4771.19.68-.5126.3251-.7711Z"/><path class="cls-4" d="M34.364,214.208a53.2172,53.2172,0,0,1-.05,9.7368c-.1372,1.2726-.8482,3.182.5728,3.9845a4.6821,4.6821,0,0,0,2.7284.0939c1.49-.1635,2.9779-.344,4.4667-.516q5.2111-.602,10.4223-1.2036a.5711.5711,0,0,0,.5541-.5541c.1664-3.6884.34-7.3766.49-11.0657.0692-1.6941.4412-4.1748-1.5646-4.935-1.9956-.7563-5.182.5555-7.1172.93-3.8216.74-7.653,1.4428-11.462,2.2454-.728.1534-.4142,1.2378.3053,1.1074,2.5541-.4629,5.0973-.9849,7.6434-1.4894,2.4337-.4823,5.162-1.4329,7.6369-1.5133,4.6385-.1507,3.4,3.9339,3.2726,7.0223q-.159,3.8488-.3127,7.6979l.5541-.5541c-4.9617.5721-9.9215,1.19-14.889,1.7106-1.6868.1766-2.048.5147-2.2926-1.9926a19.3347,19.3347,0,0,1,.2859-2.9123,43.3706,43.3706,0,0,0-.1954-7.7931c-.0751-.656-1.1-.6826-1.0488,0Z"/><path class="cls-4" d="M40.4448,226.0587a14.1216,14.1216,0,0,0,.6366-4.1138c.0182-1.74-.7968-3.6961,1.5107-4.4818a24.569,24.569,0,0,1,4.6457-.5624c1.4554-.1762,2.9129-.3349,4.362-.5569.5759-.0882.4466-1.0774-.1386-1.0243-2.2576.2049-4.5074.5262-6.7574.8024-1.2241.15-3.0888-.0023-4.17.5878-.8906.4862-.8488,1.0786-.8152,2.0175a36.3846,36.3846,0,0,1-.0706,7.1119.4135.4135,0,0,0,.7967.22Z"/><path class="cls-4" d="M33.98,214.4627c2.2919.5008,3.0017,3.4657,5.5333,3.5567.6955.025.6535-.973,0-1.0547-1.1923-.1491-2.02-1.3218-2.8222-2.1006a4.1485,4.1485,0,0,0-2.5818-1.3568.4885.4885,0,0,0-.1293.9553Z"/><path class="cls-4" d="M66.95,278.0611c.0774-2.4835.1508-4.9683.2929-7.4491a24.8074,24.8074,0,0,1,.1863-2.789c.4238-2.3978,1.9316-2.7313,3.9964-2.7769q7.1286-.1573,14.2263-.902,3.2552-.3415,6.4962-.8021c2.0686-.2935,4.8294-1.3384,6.86-1.0363,2.7869.4146,1.2736,5.15,1.0585,6.9085l-.9179,7.5035.7487-.57c-5.5228-1.5772-11.0983-.5772-16.7225-.34-5.6042.2365-11.5316-1.4293-16.924.6473a.4721.4721,0,0,0,.2508.91c5.54-1.3821,11.066-.02,16.6733-.2562,5.5049-.2323,10.99-1.3657,16.4081.18a.601.601,0,0,0,.7487-.57l1.1443-9.3794c.2-1.6356,1.1073-4.3627-.4346-5.643-1.1813-.981-3.0034-.466-4.3445-.238-3.6673.6234-7.3465,1.1564-11.0453,1.557q-4.89.53-9.8037.79-2.4556.1313-4.9142.1938a8.107,8.107,0,0,0-2.9693.2385c-1.6038.7216-1.5332,2.5291-1.6457,4.0511-.24,3.2525-.3482,6.5128-.289,9.7735a.46.46,0,0,0,.92,0Z"/><path class="cls-4" d="M72.38,276.6574c.0059-2.2446-.1932-4.52-.1-6.76.1474-3.5336,5.5714-3.4434,8.1956-3.8853,5.3265-.8968,10.6682-1.7311,15.9706-2.7621.6308-.1227.3509-1.0393-.2617-.9492-6.96,1.0233-13.908,2.2642-20.8246,3.5469-1.7287.3206-3.3343.6932-3.9047,2.5634-.7435,2.4379-.0689,5.7492.0807,8.2465a.4221.4221,0,0,0,.8438,0Z"/><path class="cls-4" d="M66.7992,266.9176a10.9681,10.9681,0,0,0,4.481,1.6342c.6641.0917.9808-.8673.2866-1.04a22.0414,22.0414,0,0,1-4.2146-1.5407.5483.5483,0,0,0-.553.9461Z"/><path class="cls-4" d="M131.94,217.8358c4.0947-.2418,8.1905-.6263,12.283-.9148a.4221.4221,0,0,0,0-.8437,48.9231,48.9231,0,0,0-12.4147.786.4973.4973,0,0,0,.1316.9725Z"/><path class="cls-4" d="M143.4792,216.3122a66.5927,66.5927,0,0,0,.1013-15.7784.5762.5762,0,0,0-.7195-.5481c-2.1435.6683-4.2858,1.3758-6.3973,2.1394-.6852.2478-.41,1.3288.3053,1.1074,2.1451-.6639,4.281-1.3914,6.3942-2.1507l-.7195-.5481a103.1729,103.1729,0,0,1,.1664,15.6608c-.0246.4886.7993.6162.869.1176Z"/><path class="cls-4" d="M134.3953,207.0775a43.005,43.005,0,0,1,9.4962-1.3714.4749.4749,0,0,0,0-.9492,20.8631,20.8631,0,0,0-9.7314,1.4674c-.5129.2085-.3312,1.0026.2352.8532Z"/><path class="cls-4" d="M105.9206,92.1983c8.5826,1.79,14.83-7.1265,11.33-14.79l-.7232.9408a7.3812,7.3812,0,0,0,9.2892-4.237,6.2412,6.2412,0,0,0,.41-2.9045c-.16-1.7743-1.3613-3.7827.0856-5.36,1.5346-1.6728,4.6816-1.5543,6.6678-2.4165,4.1068-1.7828,5.1241-6.5018,4.3992-10.5453-.5249-2.928-2.2936-11.3752-7.0415-8.9655-.7055.3581-.087,1.38.6151,1.0524,3.0846-1.4416,4.3172,4.5643,4.8212,6.4841a12.0483,12.0483,0,0,1,.1748,6.8088c-1.4837,4.5583-5.4976,3.99-9.0553,5.6788-2.3553,1.1181-2.8438,3.13-2.3322,5.5527.517,2.4485.5408,4.43-1.4056,6.2819a5.8557,5.8557,0,0,1-6.2875,1.335c-.5783-.2259-.928.493-.7232.9408,3.2591,7.1287-2.6968,13.9286-10.0779,13.0617-.615-.0722-.75.9559-.1464,1.0819Z"/><path class="cls-4" d="M89.717,76.7556a6.7074,6.7074,0,0,1-3.299-7.9007c.6578-2.3067,4.1736-7.7591,7.1446-4.793l.4679-.8038c-4.828-1.15-5.3807-6.5838-4.1-10.5906,1.206-3.7742,4.0562-10.4165,9.128-8.4963a.5459.5459,0,0,0,.6673-.6673c-2.1569-6.5078,3.8876-11.9209,10.184-9.4823.5225.2024.8933-.6694.3838-.91a8.5012,8.5012,0,0,0-11.614,10.681l.6673-.6673c-5.7183-2.0472-9.08,4.8741-10.4493,9.2577-1.4024,4.4895-.5979,10.7182,4.8776,11.8028.4414.0874.8446-.4549.4679-.8038-3.0132-2.7906-6.8539.7908-8.1606,3.6066-1.7982,3.8749-.7743,8.5356,3.2,10.5109.4935.2452.9293-.4874.4347-.7437Z"/><path class="cls-4" d="M139.8238,54.3474c4.519,1.6789,10.1723,2.2714,14.2751-.7869a10.1976,10.1976,0,0,0,3.4039-4.4218,8.2183,8.2183,0,0,0,.5849-2.7708c.0288-.9949-.6791-2.2651-.5781-3.1364l1.023-1.728a5.4513,5.4513,0,0,1,1.2812.5121c.5116.2442.9774.5765,1.4879.8233a10.7852,10.7852,0,0,0,3.1434.9768,9.7887,9.7887,0,0,0,6.126-.9952,4.0634,4.0634,0,0,0,2.3973-3.6906,2.8005,2.8005,0,0,0-2.9617-2.6245c-.4981.0263-.884.6944-.4433,1.07a11.5831,11.5831,0,0,0,15.58-.4728c.5335-.5262-.2764-1.3306-.82-.82a10.49,10.49,0,0,1-13.8731.4065l-.4433,1.07q2.005,3.6077-.9152,4.3767a9.1061,9.1061,0,0,1-5.0868.3325c-1.6989-.3679-2.9668-1.4471-4.5648-1.9926-1.8427-.629-3.567.0865-3.343,2.2507.1892,1.8275,1.0633,3.1608.54,5.1251a8.8787,8.8787,0,0,1-3.72,5.0561c-3.8669,2.4982-8.6878,1.7423-12.8269.4735-.6253-.1917-.8614.7451-.2664.9662Z"/><path class="cls-4" d="M98.7841,25.6887c-2.1618-2.5184-1.1463-6.1556,1.1315-8.2219,2.0777-1.8848,5.0065-2.5734,7.6842-3.0853.6773-.1295.3855-1.1427-.2835-1.0283-3.5225.6024-7.5077,1.7351-9.5589,4.9353a6.6829,6.6829,0,0,0,.3348,8.0921c.4189.4746,1.0992-.2175.6919-.6919Z"/><path class="cls-4" d="M111.5771,16.9882c-1.6467-6.3788,3.9348-10.7766,8.4423-14.1087.5808-.4293.0323-1.4133-.5767-.9866-5.0334,3.5268-10.8794,8.4994-8.9166,15.385a.5454.5454,0,0,0,1.0509-.29Z"/><path class="cls-4" d="M139.67,18.68c3.8874,3.7254,9.7639,6.5929,15.1513,4.4464,4.2449-1.6913,7.1653-6.1662,6.0334-10.7257l-.8913.6852c2.56,1.93,4.022,5.0468,6.9522,6.52a10.2062,10.2062,0,0,0,7.8515.3672c5.43-1.8995,8.0591-7.7459,7.4979-13.2042-.0707-.6875-1.135-.7148-1.0957,0,.3044,5.5431-2.4406,11.4649-8.41,12.4469a8.5016,8.5016,0,0,1-7.7014-2.5569,39.8778,39.8778,0,0,0-4.4824-4.6206c-.448-.3361-1.0087.217-.8913.6852,1.1033,4.3964-2.2445,8.6732-6.4816,9.6841-4.7331,1.1293-9.3952-1.3812-12.7913-4.469-.4974-.4522-1.2318.2719-.7416.7416Z"/></g></svg>