<svg xmlns="http://www.w3.org/2000/svg" viewBox="0 0 515 232"><defs><style>.cls-1{fill:#f7fafc;}.cls-2{fill:#f2f6f9;}.cls-3{fill:#e93a1d;}.cls-4{fill:#ffefaf;}.cls-5{fill:#303030;}.cls-6{fill:#fff;}.cls-7{fill:#fce0de;}</style></defs><title>DN_Service-Google-img-1</title><g id="back"><path class="cls-1" d="M509.0608,145.1452c-21.8369-25.2178-46.14-53.7705-51.0781-60.2949A19.9973,19.9973,0,0,0,423.966,83.2c-.08-.0566-.1611-.1138-.24-.17-4.9189-3.4712-8.7744-6.1543-11.46-7.9741-1.6152-1.0942-2.8662-1.9175-3.8252-2.5161-11.37-7.1025-20.2979-2.2983-23.8047.291a20.0042,20.0042,0,0,0-22.3018,2.3105c-.1992.1675-.3955.3379-.5869.5107-1.8213-1.5918-3.457-2.9458-4.9521-4.1021a42.5212,42.5212,0,0,0-7.4639-4.7974c-8.2842-4.0112-17.1514-3.1113-23.7256,2.4048a19.9946,19.9946,0,0,0-5.6777,7.8047l-24.52-20.9844a19.9408,19.9408,0,0,0-7.6768-4.0845L259.0608,18.9914a20,20,0,0,0-27.1768-2.7847c-1.7764-2.103-2.7627-3.2778-2.82-3.3457A19.9979,19.9979,0,0,0,200.89,10.3962a20.737,20.737,0,0,0-4.4707,5.23q-3.7236-3.7229-7.2891-7.291A20.0028,20.0028,0,0,0,168.26,3.63a20.6793,20.6793,0,0,0-15.3926-.1,20.08,20.08,0,0,0-11.292-.9526A20.0241,20.0241,0,0,0,126.8083,4.77,19.9819,19.9819,0,0,0,95.3957,19.2483a20.451,20.451,0,0,0-21.6885,2.84A20.0686,20.0686,0,0,0,66.6164,35.81a20.8869,20.8869,0,0,0-.0244,3.1777,19.9989,19.9989,0,0,0-24.1348.9526,20.037,20.037,0,0,0-3.5459,2.3848q-.6709.5625-1.2881,1.1807a18.56,18.56,0,0,0-2.4473,1.7178,19.9747,19.9747,0,0,0-3.61,3.9668,20.1545,20.1545,0,0,0-2.582,1.8418A21.8661,21.8661,0,0,0,22.6321,74.363,20.2491,20.2491,0,0,0,8.9377,78.969c-.0264.0215-.0518.0435-.0781.0654C-.53,86.9568.261,99.58,6.4494,107.2063c.1787.22.4424.541.78.9482.5781.6992,1.4092,1.6943,2.4072,2.8872,1.9521,2.332,4.5605,5.437,7.1709,8.54,5.2051,6.1875,10.418,12.3682,10.418,12.3682a20.0007,20.0007,0,0,0,27.9893,2.5532c2.9023,1.5161,5.7764,3.0122,8.5557,4.4541,7.6826,3.9844,13.7451,7.0806,18.0205,9.2026,2.6123,1.2969,4.6123,2.2578,6.1123,2.9385,1.1016.5,1.9873.8721,2.7852,1.1719a20.805,20.805,0,0,0,10.4414,1.2275,20.5988,20.5988,0,0,0,11.93,2.6982,20.1159,20.1159,0,0,0,6.7373.624,20.1173,20.1173,0,0,0,3.8467.3716,20.3607,20.3607,0,0,0,12.9824-4.6992,19.99,19.99,0,0,0,5.2773-6.8823c12.0479,7.3462,26.6445,14.04,38.7236,3.9058a20,20,0,0,0,5.8525-8.25q4.2378,3.4827,8.6924,7.1514l3.0928,2.5454c13.5859,11.168,25.4141,1.7974,26.7168.6914l.021-.02,40.7183,45.9654c1.9385,2.8125,3.1709,4.8022,3.9531,6.1831a20.0017,20.0017,0,0,0,21.9531,20.2056,20.0676,20.0676,0,0,0,13.5137.8315,20.0446,20.0446,0,0,0,16.4688,1.8833,20.427,20.427,0,0,0,26.7949-6.8267c1.8086,1.5747,3.3223,2.84,4.5811,3.8315a38.7994,38.7994,0,0,0,3.8486,2.7246,21.11,21.11,0,0,0,11.0742,3.2363,20.6186,20.6186,0,0,0,11.3174-3.4385q.3735.15.7451.29a24.9283,24.9283,0,0,0,16.582.8252c.04,0,.08,0,.1211,0a20.0012,20.0012,0,0,0,19.46-15.4l12.53,10.7231a19.9962,19.9962,0,0,0,25.8574.1255,20.9832,20.9832,0,0,0,1.5723-1.46,37.1562,37.1562,0,0,0,3.9053,1.8081c12.2949,4.8091,20.752-.6514,23.8164-3.2227a20.3018,20.3018,0,0,0,3.293-3.5117A19.9474,19.9474,0,0,0,499.716,211.73a21.2558,21.2558,0,0,0,7.4922-15.0439c.3438-6.0679-1.3359-11.4429-6.9424-19.4751a20.0012,20.0012,0,0,0,8.7949-32.0654Z"/><path class="cls-2" d="M470.8489,141.9314a20.0076,20.0076,0,0,0-1.5977-9.415c-.22-7.5674-4.4873-12.3848-8.9844-17.4609-2.5723-2.9043-6.084-6.7339-9.8027-10.7881-6.3252-6.8975-17.5264-19.1123-21.5859-24.3862a20.0225,20.0225,0,0,0-20.9209-13.1284,19.9328,19.9328,0,0,0-15.0889,4.5527,20.2264,20.2264,0,0,0-6.6416,10.7983c-.5537-.3394-1.1074-.6792-1.6562-1.0171a20.0049,20.0049,0,0,0-22.6807,1.19c-6.7764-4.9951-17.4229-12.7061-28.19-12.7593-5.2295-3.4453-8.6982-4.2051-12.2871-4.5283A21.2294,21.2294,0,0,0,305.74,69.8449a19.98,19.98,0,0,0-2.6006,2.6294c-24.9258-26.1-43.6875-46.436-43.9414-46.7114a20.0028,20.0028,0,0,0-19.8818-5.7651,20.002,20.002,0,0,0-11.7012,4.645,21.2649,21.2649,0,0,0-7.5732,15.1523,22.8739,22.8739,0,0,0,.5571,6.7812,19.9865,19.9865,0,0,0-26.5356,7.3809,20.3374,20.3374,0,0,0-4.09,10.99c-.0244.3833-.0391.76-.0459,1.1333a20.0088,20.0088,0,0,0-3.35,29.9731c6.4277,7,14.2012,15.8027,17.0508,19.4243a20.003,20.003,0,0,0,30.8486,6.5752q.3457-.29.6768-.5952a24.35,24.35,0,0,0,5.1436.4585,19.95,19.95,0,0,0,15.5557-4.4961,20.4591,20.4591,0,0,0,7.1714-13.8676q5.0757,5.6167,10.9263,11.9965a20,20,0,0,0-10.0928,32.16L275.386,161.446a20.6317,20.6317,0,0,0-3.7588,2.5151,19.9984,19.9984,0,0,0-2.1572,28.5327c8.9629,10.1831,19.6367,22.59,22.7246,26.5566A19.9968,19.9968,0,0,0,326.1037,220.6c6.8457,2.479,15.0449,3.61,22.6768-2.7935a19.9749,19.9749,0,0,0,3.2256-3.4287,126.8553,126.8553,0,0,0,11.8877,6.8994q8.4185,4.1506,15.4873,3.7959a20.6913,20.6913,0,0,0,2.5654.395A20.0968,20.0968,0,0,0,396.8,220.8274a20.5412,20.5412,0,0,0,2.4072-2.3862,47.3125,47.3125,0,0,0,7.874,3.9771c12.4854,4.7529,20.9189-.6821,23.9678-3.2383l.0176-.0156a19.9825,19.9825,0,0,0,6.9785-3.7954,20.8505,20.8505,0,0,0,6.8994-11.0859,20.29,20.29,0,0,0,14.3477-4.6279,20.0812,20.0812,0,0,0,7.0908-13.7388c.6611-8.187-2.0215-12.0625-13.083-25.4556a19.5378,19.5378,0,0,0,10.459-4.6694A20.0024,20.0024,0,0,0,470.8489,141.9314Z"/></g><g id="Layer_2" data-name="Layer 2"><path class="cls-3" d="M288.5739,40.2037c.5977.5331,1.181,1.0292,1.7492,1.4693,2.1007-3.9245,2.3782-5.8766,5.6452-9.1048,8.1473-8.0506,15.8923-10.5894,27.3578-9.8527a27.6319,27.6319,0,0,1,15.0283,6.4475c2.808-2.1043,5.3666-6.449,7.9131-9.0867,2.5092-2.599,5.5306-4.3933,2.9643-7.8881-2.1962-2.9908-8.7394-4.5645-12.0818-5.8362-9.0886-3.4579-19.0909-5.93-28.834-4.1452-14.9723,2.7441-28.7851,13.8981-34.9142,27.6683C279,30.3554,284.1766,36.2816,288.5739,40.2037Z"/><path class="cls-4" d="M276.2066,71.2176a3.7457,3.7457,0,0,0,2.8658.2936c3.0979-.9292,6.984-7.1894,8.41-9.9039,2.1462-4.0848,1.5321-9.3292,1.76-14.0406.3292-6.8089.1825-7.4308-5.3163-11.4461-3.2229-2.3534-6.5152-5.858-10.4672-6.5385-4.1216,9.34-5.3285,19.2052-4.6963,29.3117.2622,4.1917,1.0361,6.3447,4.05,9.4391A14.0918,14.0918,0,0,0,276.2066,71.2176Z"/><path class="cls-5" d="M337.5474,27.9135c-9.2823-7.1955-23.3592-8.5355-33.769-3.0855-9.8989,5.1825-15.8973,15.8754-15.9941,26.9455-.0855,9.7772,4.2809,19.184,12.5307,24.6092,7.3631,4.8421,16.7263,6.1875,25.3,4.56,9.8733-1.8737,18.5566-7.9553,22.502-17.3432.3593-.855-1.1431-1.4972-1.51-.6366-6.6817,15.67-27.0926,20.8807-41.8785,13.9669-18.5264-8.6629-20.1713-35.1543-4.7128-47.7365,10.3984-8.4636,25.9988-7.7712,36.6616-.1528.6562.4688,1.5148-.6273.87-1.1273Z"/><path class="cls-5" d="M338.5449,100.5751c9.2756-1.5294,15.4868-9.8183,19.9881-17.3957,5.6282-9.4745,9.6664-19.8065,9.7945-30.96.0384-3.3411.7185-10.3219-3.7952-10.9494a83.0247,83.0247,0,0,0-9.5161-.2491c-3.6171-.0753-7.2278-.0575-10.8438-.19q-9.857-.36-19.716-.67c-1.622-.0487-4.34-.6645-5.6191.7542a3.6966,3.6966,0,0,0-.67,2.39c-.1566,1.966-.0462,3.9879-.0668,5.9624q-.031,2.9812-.0614,5.9624a27.9193,27.9193,0,0,0-.0023,4.89c.3357,1.92,1.4533,2.6111,3.3137,2.8343,3.6564.4387,7.5.2553,11.1825.3737l11.5046.37c.9766.0314.976-1.4878,0-1.5176l-15.8188-.4821-3.8349-.1169c-1.8546-.0565-2.7328.2563-3.9736-1.2416a2.7039,2.7039,0,0,1-.9272-2.6255l.0172-1.9875.0386-4.4718q.0172-1.9875.0337-3.9749c.0078-.9911-.3813-3.0762.0295-3.9749,1.3176-2.8823,6.6959-1.695,9.29-1.64q8.1327.1712,16.2657.3208c5.4219.0965,10.8427.4259,16.2657.577.9813.0273,2.6092-.2018,3.555.1751,1.5959.636,1.5624,2.8444,1.6994,4.1927a45.7621,45.7621,0,0,1,.0891,7.9232c-.7008,9.6626-4.4978,18.6244-9.3946,26.8678-4.3772,7.3686-10.228,15.6771-19.2811,17.21-1.0812.1831-.62,1.8212.4533,1.6442Z"/><path class="cls-5" d="M338.5533,29.771c4.3621-4.9795,8.6414-10.0314,12.9509-15.0565a.7534.7534,0,0,0,0-1.0532C337.9516,2.7484,320.6481-2.2924,303.68,3.0271a53.9648,53.9648,0,0,0-33.9479,32.0737c-3.3854,9.053-4.5331,18.6527-1.6553,28.01.3218,1.0463,1.9746.5968,1.6442-.4533-4.8181-15.31,1.2911-32.6058,12.034-43.9379C292.8881,6.9767,309.0463.3039,325.2573,2.9187c9.3231,1.5038,17.8734,5.9375,25.1937,11.7959V13.6613c-4.2964,5.04-8.6239,10.055-12.8672,15.14-.5586.6694.3829,1.6391.97.97Z"/><path class="cls-5" d="M273.5814,30.3132c3.0411.666,5.5679,3.3566,7.8927,5.3074,2.2785,1.9119,4.4048,4.02,6.7236,5.8782a.73.73,0,0,0,1.0317-1.0317,72.6759,72.6759,0,0,0-8.4526-7.4561c-2.1357-1.7043-4.2239-3.6176-7.0264-3.9466-.7116-.0836-.8631,1.0968-.169,1.2488Z"/><path class="cls-5" d="M277.6495,73.2956c2.0492-1.8952,4.0148-3.8814,5.9829-5.86a52.5885,52.5885,0,0,0,5.4744-5.7674c.4029-.5535-.4082-1.3829-.962-.962a52.5777,52.5777,0,0,0-5.6552,5.5866c-1.9388,2.0089-3.8854,4.0157-5.7391,6.1039a.6361.6361,0,0,0,.8991.8991Z"/><path class="cls-5" d="M335.2613,76.6928c1.7758-.4334,4.1371,2.3348,5.3589,3.3859q2.0264,1.7431,4.0555,3.483c2.5818,2.2173,5.1437,4.4614,7.79,6.6017.6781.5484,1.6514-.3735.9778-.9778-3.6169-3.245-7.384-6.3281-11.0952-9.4644-1.7784-1.5029-4.8313-5.3242-7.4935-3.9922-.5487.2746-.1583,1.1017.4063.9639Z"/><path class="cls-6" d="M256.5929,59.0012c1.06.745,2.3091.6449,3.5309.9768a11.097,11.097,0,0,1,4.07,2.1184,9.8194,9.8194,0,0,1,3.8186,7.6653A2.0552,2.0552,0,0,0,269.4882,71.7a14.3341,14.3341,0,0,1,9.754,9.2224c.5569,1.78.7357,3.5872,2.8334,4.1563,2.4165.6556,4.8.7589,4.992,3.8675a1.9705,1.9705,0,0,0,3.8518.5213c.7747-2.6392-.7072-5.2141-2.8458-6.7383a9.2507,9.2507,0,0,0-3.6-1.553q-.61-.0875-1.2223-.1509l.3693.1446a12.1621,12.1621,0,0,1-.7138-2.3443,17.9232,17.9232,0,0,0-12.35-11.0017l1.4038,1.4038a15.213,15.213,0,0,0-5.5106-9.695c-2.19-1.7564-7.1749-4.5541-9.8571-2.501a1.1615,1.1615,0,0,0,0,1.97Z"/><path class="cls-6" d="M303.3676,91.57c5.1032-2.0115,9.0313,2.3189,11.2613,6.3882a1.9691,1.9691,0,0,0,2.6617.6979,7.36,7.36,0,0,1,10.0017,2.0311,2.16,2.16,0,0,0,3.3319.4294c2.3256-1.962,6.1832.1474,8.0306,1.811a22.9127,22.9127,0,0,1,4.7866,7.0623c.996,1.9918,4.1455.5964,3.5555-1.499-2.0173-7.1649-11.86-17.0087-19.3729-10.3745l3.3319.4294c-3.4035-4.9718-10.5139-6.7859-15.6291-3.2492l2.6617.6979c-3.694-5.0131-9.0848-10.0018-15.68-6.9376-1.3957.6484-.3951,3.0865,1.06,2.5132Z"/><path class="cls-6" d="M276.4318,93.1072c.9316-1.334,3.7889-1.0121,5.13-.8292a15.7017,15.7017,0,0,1,4.91,1.5815c2.6733,1.3413,7.0461,3.907,5.6358,7.46-.6089,1.5338,1.16,2.9341,2.5609,2.5609,2.9557-.7875,6.3614-1.579,9.2812-.2447,2.1733.9932,3.9166,3.6462,2.8743,6.0424-1.0023,2.3043,2.0707,4.2719,3.4539,2.0189,2.2112-3.6017.627-8.0691-2.4841-10.6053-4.0113-3.27-9.6129-2.55-14.2322-1.2262l2.5609,2.5609c2.2076-5.88-3.8157-10.2021-8.4828-12.2531-3.8006-1.67-11.4237-3.3048-13.8387,1.3965a1.5246,1.5246,0,0,0,2.6309,1.5378Z"/><path class="cls-6" d="M253.0171,36.59q-1.0729.7351-.2294.8688a3.7172,3.7172,0,0,1,.8877.4087,11.0788,11.0788,0,0,1,1.109.68,12.9378,12.9378,0,0,1,2.7875,2.6535c1.557,1.9892,1.9548,4.136,2.7354,6.45a1.7979,1.7979,0,0,0,3.5142-.4756c.2465-4.174-2.9526-8.6064-6.1776-10.9529-1.3991-1.018-3.35-2.27-5.1664-2.1211a2.34,2.34,0,0,0-2.3455,2.8788c.3316,1.6878,2.8117,1.1979,2.885-.39Z"/><path class="cls-7" d="M252.6353,41.3021c.4131.9956,2.853,2.5827,2.5227,3.5955a1.9518,1.9518,0,0,0,.8774,2.156,18.6112,18.6112,0,0,1,3.3443,2.7538c.9861,1.1,1.5312,2.4211,2.4,3.5871a1.9008,1.9008,0,0,0,3.4556-1.4568c-.5208-3.7388-4.37-7.1322-7.7288-8.3735l1.4016,1.8409c-.3415-2.7324-2.3943-5.8531-5.5307-5.41a1.0627,1.0627,0,0,0-.7421,1.307Z"/></g></svg>