<svg xmlns="http://www.w3.org/2000/svg" viewBox="0 0 324 196"><defs><style>.cls-1{fill:#f7fafc;}.cls-2{fill:#ffefaf;}.cls-3{fill:#e93a1d;}.cls-4{fill:#303030;}</style></defs><title>DN_Service-Google-img-5</title><g id="back"><path class="cls-1" d="M253.7464,192.859a24.2083,24.2083,0,0,1-13.002-4.1133,84.5255,84.5255,0,0,1-7.27-5.2891c-.291-.23-.5869-.4668-.8906-.7109a20.0242,20.0242,0,0,1-28.3643,2.707l-3.9551-3.2178q-5.5078-4.4868-10.6719-8.6836a20.0088,20.0088,0,0,1-5.82,8.165c-12.73,10.6846-28.2861,2.752-40.8887-5.3057a19.9809,19.9809,0,0,1-4.9092,6.1338,20.3359,20.3359,0,0,1-14.9668,4.6016,19.7155,19.7155,0,0,1-3.2666.2285,19.8974,19.8974,0,0,1-6.4082.75,20.2229,20.2229,0,0,1-16.7568.1553c-.8311-.3457-1.7568-.7754-2.9141-1.3516-1.6-.7969-3.7373-1.9229-6.5352-3.4414-3.3125-1.8-7.623-4.1924-12.8652-7.1406a20.0147,20.0147,0,0,1-32.0264,1.9414s-8.7578-10.3838-17.5146-20.792c-4.3857-5.2139-8.7715-10.4336-12.06-14.3613-1.666-1.9912-3.0537-3.6543-4.0254-4.8262-2.6836-3.2393-6.7383-8.1348-6.0205-16.3486a19.9982,19.9982,0,0,1,6.9922-13.5137,20.4191,20.4191,0,0,1,11.4131-4.6992C17.7747,97.75,17.2561,93.85,17.4573,89.8A21.1778,21.1778,0,0,1,24.93,74.6491a19.953,19.953,0,0,1,5.6611-3.3447q.6973-.7134,1.4678-1.36a20.8345,20.8345,0,0,1,6.79-3.6729,19.8361,19.8361,0,0,1,5.5205-2.3652A20.0015,20.0015,0,0,1,66.345,66.5114q3.07,2.6074,6.1387,5.1914c.0088-.1377.02-.2764.03-.415A20.067,20.067,0,0,1,79.6077,57.566c2.49-2.0908,11.5918-8.4111,23.8936-1.7676q.498.27,1.0313.5781a20.0044,20.0044,0,0,1,6.8926-12.1572c1.9785-1.66,12.5146-9.4854,25.6621-.4775,1.3291.9111,2.8711,2.0928,4.8525,3.72,1.31,1.0752,2.8359,2.3662,4.5986,3.8906a20.18,20.18,0,0,1,26.19-4.9619,29.4983,29.4983,0,0,1,3.2578,2.1807c1.2783.9678,2.8066,2.2324,4.8105,3.9785,3.0273,2.6387,7.0654,6.3154,12.3232,11.2207,4.4238-1.7158,10.87-2.4385,18.4814,2.0459.8027.4736,1.9688,1.1787,3.4424,2.085,2.001,1.2295,4.6211,2.8574,7.708,4.7881a20.782,20.782,0,0,1,6.5439-10.0186,19.9986,19.9986,0,0,1,23.78-1.4277q.1816.1187.3643.2383a20.0126,20.0126,0,0,1,30.2188-1.3262c.3467.3662,8.5771,9.0811,16.93,18.4268,17.623,19.7188,21.9854,25.9355,21.4414,35.3389a20.4227,20.4227,0,0,1-7.2178,14.418,21.4451,21.4451,0,0,1-1.7314,1.3105c3.2852,5.1748,4.4609,9.4307,4.2041,14.3652a20.7479,20.7479,0,0,1-7.34,14.7793,20.0031,20.0031,0,0,1-17.8369,4.0479,21.7538,21.7538,0,0,1,.4971,6.166,20.8083,20.8083,0,0,1-7.3379,14.6836,19.997,19.997,0,0,1-18.0068,4.0059c-.1533.1377-.31.2725-.4687.4063A20.68,20.68,0,0,1,253.7464,192.859ZM35.4612,138.9635c-.0352.03-.07.0605-.1064.09C35.3909,139.0231,35.4261,138.9938,35.4612,138.9635Z"/></g><g id="Layer_2" data-name="Layer 2"><path class="cls-2" d="M251.6153,146.0909c.4362-7.12-.5338-8-6.3405-9.5487,1.183-3.6117,9.3295-12.2567,6.3989-15.0061,3.6443,2.3773,6.4207,9.7,7.1946,14.0026-6.1339.0713-2.1474,4.9753-2.3032,8.6582C255.886,144.2765,255.0519,144.3677,251.6153,146.0909Z"/><path class="cls-2" d="M280.3592,143.3534c-2.2929-2.4771-.5612-2.4486.6593-3.9828.7964-1.0011,2.5819-.7157,3.1248-2.3032.4525-1.3233-.7067-2.0366-.6033-2.7375.48-3.2547-1.4005-2.6393,3.47-3.3968a66.835,66.835,0,0,1,14.2664-.7436c-.2815,4.778-5.0389,12.6171-10.6676,11.36-2.5161-.5621-2.3991-2.1128-5.6853-1.4788A7.0347,7.0347,0,0,0,280.3592,143.3534Z"/><path class="cls-2" d="M176.79,73.547A78.0338,78.0338,0,0,1,186.9186,58.036c1.6988-2.0058,9.4567-6.7624,5.9183-8.7467-.5505-2.0534-1.9417-1.428-2.9405-3.0971-1.3591-2.2712-1.493-4.7329-2.2341-7.2588-2.0975.0423-3.81,3.1626-5.3483,3.1752-4.1589.0341-2.9776-3.9292-3.6988-6.442-.8813-3.0709-2.291-2.4892-3.6841-4.9968-1.4435-2.5984.568-8.6455-2.2487-9.9865-1.89-.9-9.8193,3.9642-11.089,5.0367-2.7171,2.2953-5.1117,5.8976-4.7751,9.5.1273,1.3627,2.6909,3.0291,1.6855,4.4684-3.1332,4.4851-5.5533-5.9211-5.8948-6.77-1.4149-3.5168.2136-1.46-2.5889-2.59-4.1231-1.6634-2.8077-.18-4.7128-4.6982-3.3492-7.9428-6.7239-1.2419-12.3408-3.6191-1.766-.7474-2.6511-4.6885-4.9846-4.9482-3.8635-.43-3.8243,4.4-4.673,7.4729-.6024,2.1807-1.1586,7.3437-3.9828,7.9886-5.3851,1.23-2.8251-6.7788-4.5536-8.7412-1.7334-1.968-5.6985-.178-7.7888-2.1472-1.7283-1.6282-.72-3.9631-2.7286-5.1308-2.7251-1.5845-7.9408,3.3416-10.0912,1.7787-1.7549-1.2754-.2266-5.1146-.0137-6.8179-6.2611-1.5777-12.367,5.6989-19.5994,4.11-3.7163-.8164-7.878-2.27-10.4638-5.0931-1.711-1.868-2.2157-4.6131-4.008-6.2464-1.53,6.0075,2.9951,11.6164,2.1335,17.7015-3.9833-.4225-6.1024-9.8609-10.9136-2.6743-.9315,1.3913-2.2,6.8847-.9109,8.68.7623,1.0615,8.5529,2.6473,10.4143,3.2822,3.3481,1.1422,7.4349,1.127,11.1506,2.0457,15.5013,3.833,31.2964,7.4044,46.9136,10.6083,7.3878,1.5156,14.7288,3.6619,22.2109,5.1292,6.5971,1.2938,11.8067,1.8554,15.636,7.6442C160.5961,62.523,167.4288,78.0863,176.79,73.547Z"/><path class="cls-3" d="M215.799,116.58a21.9885,21.9885,0,0,0,1.7806-3.7343c2.8027-7.6049,3.0815-19.0252-1.4973-26.0715-2.3119-3.5569-10.2577-9.4493-14.5961-8.7438,1.0237-2.4849,2.359-5.6607-1.3476-6.8438-.3692-5.1095,3.5251-10.5924,4.9445-15.4554,1.247-4.2722,2.8047-8.8842,3.1195-13.1488-.0686.93-6.3923,6.4962-7.2486,7.5894-3.8161,4.8722-7.3425,9.9743-10.9351,15.0111-3.5159,4.9293-6.98,9.9252-10.7872,14.6371-1.1554,1.43-3.9746,6.086-5.6577,6.4336-3.5646.7362-1.8256-2.9732-3.1669-5.6389-1.2579-2.497-4.0692-5.93-5.7413-8.6643-3.8751-6.3375-7.1048-13.0081-14.11-15.25-7.8384-2.5084-15.8308-4.8733-23.73-7.1011-10.6076-2.9918-21.969-2.9454-32.8707-6.1647C86.9274,41.359,80.45,39.2918,73.2137,38.302c-8.6326-1.1808-17.3379-3.84-25.7232-5.9063-2.0222-.4984-8.1012-3.4284-9.6547-.6188-1.68,3.0386,8.4657,13.24,10.5577,15.2957,1.3014,1.2787,4.6088,3.0522,4.4943,5.22-.04.7655-4.2035,6.3737-4.7606,7.5-2.1567,4.3587-4.181,8.4864-5.9654,12.9886-1.3864,3.498-3.5756,5.2837-5.9207,8.5462-3.2732,4.5536-3.9041,9.3677-4.1,14.8048-.61,16.9664,21.8984,25.3871,34.7979,29.8843,20.3464,7.0935,41.7448,12.0322,63.3356,12.8073,9.3867.337,17.523,4.4869,27.1646,4.0549a62.2371,62.2371,0,0,0,27.98-8.4387C195.67,128.5154,209.3983,127.2338,215.799,116.58Z"/><path class="cls-4" d="M39.2143,24.9084c26.2771,10.2159,54.1046,17.07,81.9136,21.5141,11.324,1.81,24.1192,3.0181,33.1813,10.8126,4.3518,3.7431,6.9795,8.89,10.7288,13.157,2.6336,2.9969,7.2131,7.1248,11.53,5.14,2.4282-1.1164,3.9458-3.661,5.4739-5.7328l7.6664-10.3938q3.5383-4.7971,7.0762-9.5946c2.089-2.834,6.061-10.0431,10.4573-7.6639l-.1978-.7543Q189.6867,64.1478,172.3385,86.91h.9008a4.7516,4.7516,0,0,1-.0907-5.6068.5379.5379,0,0,0-.3172-.78c-7.3361-2.8712-9.0469-12.0158-13.4893-17.7177-5.3781-6.9029-14.7692-8.0844-22.7486-9.9562Q103.853,45.1695,71.1,37.5437,52.4209,33.18,33.7367,28.8394l.45.7928a2.7581,2.7581,0,0,1,4.0113-1.41c.7238.3986,1.3715-.708.6477-1.108a4.0941,4.0941,0,0,0-5.902,2.1749.6486.6486,0,0,0,.45.7928q32.9966,7.6857,65.9977,15.3514,16.501,3.8322,33.0025,7.6624c8.9679,2.0731,20.7057,2.98,26.54,11.0422,4.3011,5.944,6.1333,14.5043,13.615,17.4087l-.3172-.78a5.7168,5.7168,0,0,0,.1066,6.6692.5312.5312,0,0,0,.9008,0q17.335-22.7763,34.7565-45.4872a.5546.5546,0,0,0-.1978-.7543c-4.67-2.531-8.4566,3.2887-10.7942,6.4559q-6.49,8.7928-12.9748,17.589c-1.9849,2.691-3.8717,6.0245-6.4018,8.2392-3.5844,3.1376-7.7641.2315-10.5337-2.5213-4.0314-4.0071-6.5635-9.25-10.6169-13.243-7.9573-7.8389-19.5582-9.9213-30.1567-11.589-13.57-2.1352-27.0441-4.6624-40.3894-7.939C70.1711,34.3175,54.766,29.4046,39.4261,24.14c-.4915-.1687-.6811.586-.2118.7684Z"/><path class="cls-4" d="M34.8206,39.8489a13.2228,13.2228,0,0,0,5.5193,5.96c2.5637,1.633,6.1928,3.0064,7.277,6.1024l1.11-.3059c-1.7846-4.9438-8.1314,6.3407-8.6882,8.27-1.7152,5.9417-2.1033,12.1841-5.4564,17.5534-2.8491,4.5622-7.4136,8.34-8.0877,13.98-.7235,6.0532,3.2387,10.41,6.8915,14.6892,3.6443,4.2692,6.8792,8.4117,11.7267,11.4246,10.13,6.2965,22.84,7.7584,34.18,10.7258,14.51,3.7967,28.9928,8.0019,43.8928,9.9966,7.0079.9382,14.1068,1.45,21.1571,1.9779a146.1155,146.1155,0,0,0,21.32.3441,56.714,56.714,0,0,0,18.7354-4.1831c6.5175-2.8406,12.5231-6.5615,19.1824-9.1152,4.4107-1.6914,8.4529-3.8141,11.0851-7.87a26.987,26.987,0,0,0,3.6372-9.5717c2.6869-13.8944-3.2419-36.76-21.804-30.9112l.3474,1.26c2.64-.8826,6.0939-2.1491,6.6729-5.2639.4281-2.3027-.9434-4.7435-3.3918-4.8412l.63.827L206.4633,54.2a77.1379,77.1379,0,0,0,2.4873-7.4194,3.9,3.9,0,0,0-.7066-3.778c-.5534-.6351-1.4744.2922-.9239.9239,1.4733,1.6908-.5708,5.4019-1.1658,7.1432l-2.2189,6.4933L199.4976,70.55a.66.66,0,0,0,.63.827c2.7757.1109,2.4216,3.7763,1.0521,5.1631a11.4918,11.4918,0,0,1-4.6806,2.3754c-.7919.2647-.46,1.5144.3474,1.26,15.9475-5.0253,21.8175,13.1687,20.7084,25.7117-.6371,7.2056-3.2565,14.654-9.983,18.2386a73.9957,73.9957,0,0,1-7.55,3.1024,82.6992,82.6992,0,0,0-7.7845,3.7238c-5.7553,3.0228-11.4108,5.83-17.8387,7.1112-12.4512,2.4818-25.4015,1.261-37.9358.1427a248.1793,248.1793,0,0,1-39.2253-6.6386c-12.347-3.1276-24.7532-6.1267-37.065-9.3782a53.4988,53.4988,0,0,1-13.8954-5.3643c-4.5375-2.7056-7.7459-6.3625-11.0469-10.3965-4.34-5.3034-9.8195-10.6492-6.6655-18.0741,2.26-5.32,6.9921-9.0592,9.1315-14.5064,1.8866-4.8036,1.8115-10.373,3.9707-15.02a30.1664,30.1664,0,0,1,2.4-4.0259c.34-.5043,2.9882-4.439,3.55-2.8907.25.6895,1.3569.3969,1.11-.3059-2.0825-5.92-10.3693-6.3014-12.8993-12.1806-.2438-.5665-1.2494-.1519-1.0067.4244Z"/><path class="cls-4" d="M75.0043,68.2339c16.8868-.2995,34.678-1.2376,50.0345,7.0819a61.7967,61.7967,0,0,1,9.451,6.7784c2.29,1.8606,4.6914,3.3257,7.7351,3.23,2.096-.0656,4.1763-.7612,6.272-.2719a13.2021,13.2021,0,0,1,4.4763,2.4123c2.2641,1.6157,4.3909,3.2351,7.2728,3.3077.7819.02.7694-1.1579,0-1.207-3.5511-.2269-5.9239-3.0531-8.8562-4.6941-2.9724-1.6635-5.4611-1.01-8.7179-.8552-4.6824.2225-7.5128-3.2409-10.9136-5.87a46.1688,46.1688,0,0,0-9.0542-5.4314c-14.8627-6.7963-31.754-6.3833-47.7-5.2784-.5061.0351-.5181.8061,0,.7969Z"/><path class="cls-4" d="M90.1844,62.0889a52.588,52.588,0,0,1,26.01,5.7917c.6422.3238,1.2061-.6184.5678-.9714a47.6573,47.6573,0,0,0-26.5776-5.6641c-.5355.04-.5475.8658,0,.8438Z"/><path class="cls-4" d="M155.191,115.3923A79.8038,79.8038,0,0,1,167.1629,96.6l-1.0414-.4314a46.8854,46.8854,0,0,0,2.798,11.0527.6241.6241,0,0,0,1.1911,0q.9323-2.2938,1.8646-4.5877c.3423-.8452,1.2852-4.5477,2.0413-4.9986,2.2109-1.3185,2.4217,1.5433,4.16,2.0763.7141.219.9932-.8616.3053-1.1074-1.7292-.618-1.946-4.6144-4.5916-2.7715-1.0937.7618-1.5256,2.58-1.99,3.7194q-1.4967,3.6679-2.98,7.3411h1.1911a45.59,45.59,0,0,1-2.769-10.7244c-.0606-.4636-.6563-.8805-1.0414-.4314a73.2947,73.2947,0,0,0-11.9874,19.2845c-.21.4975.651.8642.8782.37Z"/><path class="cls-4" d="M193.7175,94.5889a6.663,6.663,0,0,1-4.3473-4.4834l-.1383.5232a2.8474,2.8474,0,0,1,4.4028-.0735c.4179.5524,1.3659.0205.9461-.553-1.36-1.8578-4.5078-2.2263-6.0048-.2766-.7128.9283.5669,2.5668,1.1758,3.3036a7.7443,7.7443,0,0,0,3.72,2.4525c.572.1763.81-.7082.2461-.8927Z"/><path class="cls-4" d="M206.033,42.2786c.1648-3.8526-3.0068-6.3182-6.3731-7.4606-5.0906-1.7276-10.56-.1468-15.3936-2.9783-.6494-.38-1.1551.56-.5767.9866,3.1413,2.3166,7.2223,2.1791,10.9421,2.3767,4.1685.2214,10.4129,1.8138,10.2938,7.0756a.5541.5541,0,0,0,1.1074,0Z"/><path class="cls-4" d="M60.7736,25.5949c.1646-7.7176.1273-15.4343-.0165-23.152l-.9366.3879A77.5158,77.5158,0,0,0,79.228,17.3062l-.2056-.784c-.9269,2.1008-3.9929,1.716-5.074,3.7209-1.1869,2.2011,1.2021,5.9769,1.9575,7.9945.5711,1.5253,2.2689,4.1783.6958,5.3571A6.1415,6.1415,0,0,1,71.59,34.25c-3.3565-1.2765-3.0461-6.63-3.3114-9.5348-.03-.3327-.3524-.7115-.7337-.5589a16.37,16.37,0,0,1-7.2228.8612c-.7427-.0352-.7406,1.1187,0,1.1543a16.8646,16.8646,0,0,0,7.5309-.8977l-.7337-.5589c.2853,3.1456.0362,7.9621,2.9423,10.0439,2.6124,1.8714,6.529.6969,8.67-1.3312a.574.574,0,0,0,.1506-.57q-1.009-2.69-2.0215-5.3789c-.7241-1.9259-2.2377-4.35-1.5283-6.3094.6043-1.6691,1.6168-1.5291,3.0126-2.338a3.5358,3.5358,0,0,0,1.6662-1.7314.5853.5853,0,0,0-.2056-.784A76.7265,76.7265,0,0,1,60.5964,2.055a.5545.5545,0,0,0-.9366.3879c.16,7.7162.1985,15.4344.2114,23.152a.4514.4514,0,0,0,.9023,0Z"/><path class="cls-4" d="M129.3776,47.3455c3.0059-6.1036,5.25-12.554,8.098-18.7313h-.953a160.4772,160.4772,0,0,1,7.2683,18.6285.4926.4926,0,0,0,.9492-.2617,99.21,99.21,0,0,0-7.2646-18.9238.5549.5549,0,0,0-.953,0c-2.8414,6.1877-5.2624,12.5636-7.9444,18.821-.2288.5337.5312,1.0117.7994.4673Z"/><path class="cls-4" d="M164.3971,67.6767a4.9191,4.9191,0,0,0,2.7137-4.0148c.1994-2.1738-.8507-2.948-2.0156-4.5153-1.6431-2.2106.6743-3.5828,2.2007-4.7952q2.23-1.7713,4.554-3.42c2.9333-2.08,5.9712-3.9967,9.09-5.7849l-.859-.4929a66.3386,66.3386,0,0,1-.39,10.542c-.2237,1.8522-.5283,3.7012-.9256,5.5244-.2618,1.2012-.4336,2.9986-2.2977,3.0318a6.6292,6.6292,0,0,1-1.4308-.4619c-3.8776-.919-5.53,5.8769-5.868,8.7522-.0707.6021.87.6878,1.03.1394.66-2.2553,1.6857-8.0952,4.8029-7.6626,1.739.2413,2.9445,1.0035,4.0783-.8659,1.3178-2.1727,1.4081-5.5215,1.717-7.9811a66.6794,66.6794,0,0,0,.4254-11.0183.577.577,0,0,0-.859-.4929,101.35,101.35,0,0,0-15.9417,11.1082c-1.2651,1.0986-2.001,2.1658-.9641,3.71.7657,1.14,2.04,1.6245,2.52,3.0224a4.2105,4.2105,0,0,1-2.0093,4.9418c-.48.2667-.0554.9837.4288.7336Z"/><path class="cls-4" d="M193.5213,51.6269a48.5313,48.5313,0,0,1-4.0156-11.9435c-.1012-.53-.8071-.5186-1.0645-.1391A48.456,48.456,0,0,0,181.71,53.113c-.18.627.714.8289.9492.2617a71.0723,71.0723,0,0,1,6.7881-13.2425l-1.0645-.1391A38.8339,38.8339,0,0,0,192.7118,52.1c.3013.5314,1.067.0645.81-.4732Z"/><path class="cls-4" d="M183.1791,41.2283c-5.0745-.2987-4.0527-6.353-1.7327-9.0627.232-.271.1955-.8235-.2355-.8921A168.6994,168.6994,0,0,0,162.5261,29.26a.58.58,0,0,0-.5555.7292,34.9083,34.9083,0,0,0,7.0136,11.9055c.4962.555,1.31-.2635.8162-.8162a33.5913,33.5913,0,0,1-6.7188-11.3956l-.5555.7292a146.5317,146.5317,0,0,1,18.401,1.8912l-.2355-.8921c-1.7883,2.0352-3.1316,4.6671-2.1976,7.4177a5.124,5.124,0,0,0,4.6851,3.5483c.74.0382.735-1.1052,0-1.1484Z"/><path class="cls-4" d="M170.2269,49.2966c.3847-2.8435.8065-5.69,1.0441-8.55.037-.4457-.5117-.551-.7919-.328-6.17,4.91-12.9589,8.6977-19.9015,12.37-.6119.3236-.0744,1.1785.5323.9107,7.2371-3.1951,13.8177-7.7763,20.0252-12.6245l-.7753-.4513c-.4423,2.8367-.7063,5.701-1.0018,8.5558-.0508.4909.8021.6119.869.1176Z"/><path class="cls-4" d="M142.5979,42.5556c2.3.4779,4.5307,1.2108,6.84,1.65a.531.531,0,0,0,.6449-.3662,30.7462,30.7462,0,0,1,2.9992-9.1587l-.7487.0965a38.8,38.8,0,0,0,10.7413,8.0706c.6.3039,1.13-.5922.5294-.9056a41.4476,41.4476,0,0,1-10.5965-7.8391.481.481,0,0,0-.7487.0965A29.5836,29.5836,0,0,0,149.072,43.56l.6449-.3662c-2.3165-.4079-4.5778-1.0552-6.9024-1.424-.5068-.08-.7375.6771-.2165.7854Z"/><path class="cls-4" d="M94.25,39.0928a68.3356,68.3356,0,0,1,6.2585-11.2567l-.8066.1039c1.486,1.9021,3.009,3.7749,4.522,5.6555a.552.552,0,0,0,.67.0864q3.1642-2.2133,6.3085-4.4541l-.7886-.3208c.8773,2.3985,1.8145,4.7795,2.67,7.1849.001.0028.55-.0993-.1922-.0677a7.9378,7.9378,0,0,0-2.0637.9325q-1.7337.7735-3.4608,1.5607a.5125.5125,0,0,0-.2319.57c.3441,1.806,1.0555,4.5248,3.0668,5.0844a.49.49,0,0,0,.26-.9436c-1.6762-.6012-1.6409-2.6051-2.255-3.9465-.243-.5307.2136-.4325-.2873.0872a2.9431,2.9431,0,0,1,.8937-.4106,44.909,44.909,0,0,0,5.044-2.3536.4687.4687,0,0,0,.2154-.5292c-.8844-2.4806-1.7365-4.9733-2.6233-7.4537a.5427.5427,0,0,0-.7886-.3208c-1.3963.9741-2.7979,1.9407-4.191,2.9195a5.9806,5.9806,0,0,1-1.2588.8894c-.868.2853-.5676.2355-1.3454-.7-1.1563-1.39-2.2766-2.8093-3.4368-4.1964a.5189.5189,0,0,0-.8066.1039,62.4523,62.4523,0,0,0-6.18,11.4342c-.1865.4606.6038.798.8086.3409Z"/><path class="cls-4" d="M131.2172,39.0786a20.17,20.17,0,0,0-5.1049-1.8551l.4231.7452a21.6691,21.6691,0,0,0,1.2964-4.8567.5806.5806,0,0,0-.55-.7223,120.7071,120.7071,0,0,0-14.3006.6878.6169.6169,0,0,0-.5263.9171,62.98,62.98,0,0,0,4.597,6.3962c1.4159,1.7131,3.2292,4.2136,5.2844,5.1625a.41.41,0,0,0,.5885-.2394c.7222-1.8205,1.3108-2.6268,3.179-1.9819.9711.3352,1.9433.6674,2.9188.99.6412.2119.9056-.7852.2773-1.0057q-2.4924-.8747-5.0059-1.6883a.5111.5111,0,0,0-.5707.2322,23.8822,23.8822,0,0,0-1.571,3.2409l.5885-.2394c-1.8118-.8159-3.5915-3.8167-4.8215-5.3379a67.7035,67.7035,0,0,1-4.4118-6.1441l-.5263.9171a120.7848,120.7848,0,0,1,14.3006-.7655l-.55-.7223a21.6684,21.6684,0,0,1-1.3642,4.838.61.61,0,0,0,.4231.7452c1.72.4269,3.3753,1.0017,5.0455,1.5918.53.1874.8721-.6408.3815-.905Z"/><path class="cls-4" d="M84.7048,37.1911c.1191-2.2493.1724-4.5011.2224-6.7529.0193-.8707-.3611-5.9024.5994-6.1652.5169-.1414,4.3907,4.1234,4.8093,4.5143,1.6069,1.5009,3.201,3.0168,4.8313,4.4923.551.4987,1.362-.2995.82-.82-1.9241-1.85-3.8969-3.6518-5.85-5.4718-1.5273-1.4234-3.12-3.4366-4.9564-4.4365a.5562.5562,0,0,0-.5679,0c-1.3106.9794-.7211,3.5529-.76,4.9931-.0859,3.2148-.1989,6.4307-.1861,9.6469a.5189.5189,0,0,0,1.0371,0Z"/><path class="cls-4" d="M91.8533,27.8761A58.2185,58.2185,0,0,1,94.62,18.318c1.1612-2.95,2.9331-5.7087,3.5273-8.8515a.5321.5321,0,0,0-.77-.5919c-3.3833,1.462-6.8561,2.7191-10.3614,3.8553-2.6859.8706-5.5808,1.4068-8.117,2.67-.4972.2476-.1454,1.1187.3838.91,3.0364-1.1959,6.2733-1.8695,9.3669-2.915,3.1429-1.0622,6.2072-2.3128,9.2567-3.6152l-.77-.5919c-.6053,3.1279-2.4212,5.8877-3.567,8.8405a45.848,45.848,0,0,0-2.5581,9.6156c-.0839.5427.7262.7914.8419.2321Z"/><path class="cls-4" d="M75.9624,26.7534a21.9672,21.9672,0,0,1,3.4022-4.2641.5415.5415,0,0,0,.0842-.6522A8.5129,8.5129,0,0,0,77.1351,19.58c-.4808-.2985-1.0535.4126-.6142.796A13.6206,13.6206,0,0,1,78.5192,22.38l.0842-.6522a16.5106,16.5106,0,0,0-3.4354,4.561.46.46,0,0,0,.7943.4643Z"/><path class="cls-4" d="M78.95,32.027c1.49-1.993,3.1455-3.782,4.819-5.6149a.4221.4221,0,0,0-.5966-.5966,27.48,27.48,0,0,0-4.9155,5.8064c-.2889.4411.3914.8088.6931.4052Z"/><path class="cls-4" d="M121.0029,32.2134c2.6159-5.9992,5.0654-12.07,7.6151-18.0976l-.9451-.1235c1.7831,5.62,3.5842,11.3318,5.7859,16.8021.2341.5816,1.1482.37.9662-.2664-1.6208-5.6687-3.7106-11.2816-5.7549-16.8106a.5225.5225,0,0,0-.9972,0c-2.5134,6.0427-5.1281,12.0444-7.575,18.1145-.2078.5156.6808.8955.905.3815Z"/><path class="cls-4" d="M93.8485,19.0433c5.3105-.3613,10.6124-.9059,15.9115-1.4036l-.5194-.9051c-2.616,4.1681-5.2445,8.3286-7.8322,12.5143-.4.6474.6113,1.2323,1.0169.5944,2.6408-4.1527,5.2413-8.3311,7.854-12.5016a.6054.6054,0,0,0-.5194-.9051c-5.3048.5027-10.621.96-15.9115,1.5988-.6272.0757-.6592,1.0527,0,1.0078Z"/><path class="cls-4" d="M107.0463,21.6359c2.0722.16,3.922,1.1046,5.9649,1.3552,1.9176.2352,3.8013-.4394,5.6613.2609l-.2821-.6934c-.5523,1.2906-2.359,3.9581-1.5989,5.4237.6874,1.3254,3.1935,1.8322,4.4925,2.3383.48.1869.8174-.6108.3522-.8353-1.0009-.4831-3.8988-1.1836-3.96-2.6161-.0479-1.1158,1.159-2.9068,1.5773-3.9468a.4807.4807,0,0,0-.33-.5807c-2.1073-.8068-4.2406-.0113-6.4224-.41-1.8619-.34-3.54-1.0485-5.4547-1.0868-.5144-.01-.5017.7523,0,.791Z"/><path class="cls-4" d="M48.9281,26.8964l2.29-1.9868a.4777.4777,0,0,0,0-.6654,21.104,21.104,0,0,1-4.03-6.3041l-.4846.6362a65.0554,65.0554,0,0,0,13.1727-2.118.4926.4926,0,0,0-.2617-.9492,130.207,130.207,0,0,1-12.911,2.0621c-.2882.024-.6175.3077-.4846.6362a20.6525,20.6525,0,0,0,2.4721,4.5465c.277.377,1.3142,1.2661,1.3181,1.5987.009.7706-1.152,1.4365-1.6943,1.9307-.4155.3786.1949.9761.6132.6132Z"/><path class="cls-4" d="M60.7844,31.1774a41.9954,41.9954,0,0,1,2.4192-5.2608c.235-.4692-.4066-1.0659-.7776-.6a13.8074,13.8074,0,0,0-2.4721,5.6318.431.431,0,0,0,.8306.229Z"/><path class="cls-4" d="M139.5518,33.796A53.5458,53.5458,0,0,0,149.6144,31.43c.61-.188,4.8456-2.0929,5.2777-1.811.7519.4906-.0751,5.0272-.1479,5.6817-.0651.5849.95.7284,1.0359.14.2429-1.6592,1.0081-4.797.2234-6.2773-.3527-.6652-.6468-.6814-1.3984-.5857A21.0037,21.0037,0,0,0,151.1,29.8256q-1.7647.5881-3.5516,1.1084c-2.6787.7813-5.43,1.2912-8.1024,2.0793-.4124.1216-.3573.8308.1059.7826Z"/><path class="cls-4" d="M151.0378,29.5475c-1.2233-.8655-3.1828-1.3051-4.2526-2.2329-1.4748-1.2789.22-3.2.7947-4.6658a.53.53,0,0,0-.1368-.5174c-1.1957-1.3422-4.4322-.4727-6.0442-.4274-3.2143.09-6.4331.1518-9.6445.3175a.5629.5629,0,0,0,0,1.125c3.5371-.0589,7.0743-.2374,10.609-.3794a10.3848,10.3848,0,0,1,2.4111-.0954,1.0162,1.0162,0,0,1,1.2431.6967l-.3462.7095c-.0688,1.0654-.6732,2.2024-.7684,3.3329a.5421.5421,0,0,0,.3929.5161,35.2515,35.2515,0,0,1,5.3013,2.3745.4369.4369,0,0,0,.4406-.7539Z"/><path class="cls-4" d="M160.0817,40.0823a18.5849,18.5849,0,0,0,2.217-2.8937.4619.4619,0,0,0-.7224-.5574,18.5723,18.5723,0,0,0-2.1618,2.9363c-.249.4058.3392.8761.6672.5148Z"/><path class="cls-4" d="M162.197,35.9623c-1.4455-1.2732-2.9186-2.5112-4.3926-3.7512l-.1108.86c4.0743-1.9551,7.1472-5.9722,10.5641-8.8627q1.353-1.1445,2.745-2.2422a11.2089,11.2089,0,0,1,1.9942-1.528c.9845-.4393.44-.6534.8329.3274a23.4781,23.4781,0,0,1,.7757,4.3883c.2614,1.4606.5172,2.9226.8322,4.3727.1059.4875.95.39.8862-.12-.2119-1.682-.4941-3.3532-.7685-5.026-.2165-1.3194-.1488-3.7447-.8095-4.89-.78-1.3525-1.5162-.647-2.6792.2284q-3.5982,2.7086-6.9481,5.7265c-2.57,2.3108-4.8758,5.0713-7.9776,6.68a.55.55,0,0,0-.1108.86c1.5485,1.2193,3.0941,2.4374,4.67,3.6212.3711.2789.8447-.3379.497-.6442Z"/><path class="cls-4" d="M253.3107,144.5756a17.8943,17.8943,0,0,0-1.8243-8.0486.5386.5386,0,0,0-.6-.2443c-2.2377.5479-4.4663,1.1317-6.6972,1.7066l.66.8581a113.9481,113.9481,0,0,0,7.5248-19.4658l-1.0817.1414q4.5531,7.751,8.8962,15.6213l.3535-.869-6.1446,1.4054a.5892.5892,0,0,0-.41.7224c.9631,2.3552,1.8165,4.7453,2.6666,7.1429l.5244-.6884c-1.4667.1846-2.9341.363-4.4007.5477-.7183.09-.7214,1.2335,0,1.1367,1.4672-.1968,2.9336-.4,4.4007-.5968a.5526.5526,0,0,0,.5244-.6884c-.729-2.4371-1.6235-4.811-2.5828-7.166l-.41.7224,6.1469-1.3972a.5977.5977,0,0,0,.3535-.869q-4.3408-7.8717-8.8958-15.6216a.5988.5988,0,0,0-1.0817.1414,118.3414,118.3414,0,0,1-7.3922,19.1908.5918.5918,0,0,0,.66.8581c1.4826-.3976,4.72-1.876,6.099-1.3965,1.5737.5473,1.9143,5.5872,1.9388,6.8563a.387.387,0,0,0,.7734,0Z"/><path class="cls-4" d="M278.6547,139.8228c2.4381-1.138,4.8306-2.3671,7.2809-3.48a.55.55,0,0,0,.11-.8527l-4.2765-5.1308-.3856.931a133.8714,133.8714,0,0,0,21.466-.7443l-.4433-.7726a50.168,50.168,0,0,1-9.172,12.4655h.7907q-2.3247-2.07-4.6494-4.1392a.5912.5912,0,0,0-.7-.09l-3.2864,2.1705c-.5515.3642-5.056,3.72-5.2226.8171a.5394.5394,0,0,0-1.0781,0c-.2316,2.2709,2.1959,2.7767,3.9076,2.0788,1.847-.7531,3.2273-2.4511,5.034-3.2485,1.2667-.5591,1.5425-.0189,2.5325.852l2.6718,2.35a.57.57,0,0,0,.7907,0,51.41,51.41,0,0,0,9.268-12.7379c.1613-.3126-.03-.8148-.4433-.7726a148.6907,148.6907,0,0,1-21.466.68.552.552,0,0,0-.3856.931l4.28,5.1273.11-.8527a58.3464,58.3464,0,0,0-7.1351,3.73.3988.3988,0,0,0,.4022.6881Z"/><path class="cls-4" d="M224.8163,94.1425a91.4021,91.4021,0,0,0,11.0773-.599l-.4024-.7012q-.517,1.0633-1.0337,2.1268a.4885.4885,0,0,0,.4147.7227c1.5433.1953,3.0888.3631,4.6353.53.4518.0489.5622-.7308.1083-.8-1.58-.2407-3.1594-.4792-4.7436-.6911l.4147.7227q.5049-1.07,1.009-2.1412a.4716.4716,0,0,0-.4024-.7012,92.6189,92.6189,0,0,0-11.1895.7024c-.4858.0724-.3436.8138.1122.8287Z"/><path class="cls-4" d="M50.1839,85.1638c-1.8274,1.3892-3.6548,2.7775-5.4584,4.1975-.936.7369-2.3642,1.56-2.02,2.974.3035,1.2465,1.997,2.11,2.9237,2.7866,2.2506,1.6439,4.4813,3.33,6.8089,4.8645.4891.3224,1.105-.4495.6355-.8236-2.4624-1.9623-5.0678-3.738-7.6054-5.6-2.3393-1.7166-.489-2.9625,1.0943-4.2649,1.3893-1.1428,2.7606-2.3074,4.1361-3.4667.3642-.3069-.1294-.96-.5148-.6672Z"/><path class="cls-4" d="M93.8444,112.0275q1.6731,2.1961,3.3257,4.4065a4.646,4.646,0,0,0,2.18,2.0241c2.2034.642,3.9214-1.8089,4.7707-3.4588.292-.5674-.5476-1.0667-.86-.5027a8.88,8.88,0,0,1-1.5395,2.139,2.68,2.68,0,0,1-2.4367.7046c-.4405-.1522-.8729-.8692-1.15-1.2146-1.2238-1.525-2.4226-3.069-3.6226-4.6128-.2928-.3767-.96.1305-.6672.5148Z"/><path class="cls-4" d="M78.5,82.76c.825,2.3433,1.7062,4.6678,2.5762,6.9948a.5894.5894,0,0,0,.7171.4071c2.7511-1.121,5.5208-2.2043,8.2389-3.4038.5712-.252.1618-1.2409-.4289-1.0174-2.7315,1.0334-5.4194,2.1855-8.12,3.2969l.7171.4071c-.8792-2.3267-1.7484-4.6589-2.6721-6.9684-.2491-.6227-1.26-.3745-1.0283.2835Z"/><path class="cls-4" d="M121.12,101.4758c1.6234.296,3.2465.5861,4.8622.9208a.4934.4934,0,0,0,.5956-.3382c.3562-1.4048.6907-2.8153,1.0165-4.2274.1429-.6195-.8028-.884-.9549-.2632-.3448,1.4079-.6811,2.8182-.9953,4.2333l.5956-.3382c-1.6381-.2335-3.268-.5113-4.9-.7837-.5179-.0865-.7452.7008-.22.7967Z"/><path class="cls-4" d="M63.9942,59.8055a14.52,14.52,0,0,1-4.428-7.4886l-.2865.7042a12.6305,12.6305,0,0,1,6.1191-1.2758c.7755.0228.76-1.14,0-1.1953A12.8305,12.8305,0,0,0,58.65,51.9442a.6326.6326,0,0,0-.2865.7042,14.0785,14.0785,0,0,0,4.9137,7.8738c.4968.4,1.2073-.2676.7168-.7168Z"/><path class="cls-4" d="M138.0306,117.1562l3.2541,5.5819a.5826.5826,0,0,0,.9026.1163,15.72,15.72,0,0,0,3.9809-5.4932c.2847-.6542-.672-1.2307-.9714-.5678a15.5787,15.5787,0,0,1-3.8222,5.2482l.9026.1163-3.26-5.5784a.5717.5717,0,0,0-.9866.5767Z"/><path class="cls-4" d="M189.337,118.0732c2.375-1.1553,5.1937,3.3871,7.5334.6514,1.8456-2.1579-.64-5.6267,1.298-7.705.4671-.5009-.2733-1.248-.7541-.7541-2.02,2.0753-.2352,4.764-1.0764,7.1264-.7847,2.2036-3.2846.4073-4.6238-.1417a3.1194,3.1194,0,0,0-2.8651-.0118c-.5522.2984-.0664,1.1044.488.8348Z"/><path class="cls-4" d="M136.0416,67.5489c-.4386,2.1083-.8173,4.2238-1.1891,6.3447a.6151.6151,0,0,0,.5855.7686,74.3028,74.3028,0,0,0,12.3413-1.7008c.7143-.1678.4028-1.207-.2991-1.0848a116.1175,116.1175,0,0,1-12.0422,1.5712l.5855.7686c.3487-2.1769.6873-4.3522.9676-6.5391.0691-.5388-.8393-.6585-.95-.1285Z"/></g></svg>