<svg xmlns="http://www.w3.org/2000/svg" viewBox="0 0 212 186"><defs><style>.cls-1{fill:#f7fafc;}.cls-2{fill:#ffefaf;}.cls-3{fill:#303030;}.cls-4{fill:#e93a1d;}.cls-5{fill:#172df8;}</style></defs><title>DN_Service-Google-img-4</title><g id="back"><path class="cls-1" d="M130.3016,184.1493a20.388,20.388,0,0,1-6.6055-1.1123,20.4582,20.4582,0,0,1-13.8242-1.4961c-.8691-.4-1.8457-.8975-3.0713-1.5674-1.7285-.9434-4.043-2.2783-7.0762-4.08-2.7129-1.61-6.04-3.62-9.9512-6.01a20.01,20.01,0,0,1-32.6719,2.999s-10.8457-12.8584-21.6748-25.7314c-5.4229-6.4453-10.8408-12.8945-14.8955-17.7393-2.05-2.4492-3.7549-4.4932-4.9434-5.9277-.6426-.7754-1.1445-1.3867-1.4844-1.8057C5.7645,111.4,9,99.3309,16.2772,93.1942a20.8743,20.8743,0,0,1,8.999-4.3516C15.7186,75.5165,14.8485,69.9178,15.1317,64.2089a21.6055,21.6055,0,0,1,4.51-12.1875A20.0092,20.0092,0,0,1,23.2928,43.57a20.5469,20.5469,0,0,1,2.8857-4.8838,21.0671,21.0671,0,0,1,5.1406-6.37,19.999,19.999,0,0,1,23.31-1.7295,20.9677,20.9677,0,0,1-.0176-3.7461,20.0857,20.0857,0,0,1,7.0938-13.7266c2.4326-2.041,11.3164-8.2295,23.3867-2.041,1.3779.7061,2.9355,1.623,4.8994,2.8867,2.47,1.5869,5.6348,3.7559,9.6328,6.6A19.9138,19.9138,0,0,1,105.01,13.451a20.3413,20.3413,0,0,1,21.6924-2.7646c.9336.4121,1.96.9248,3.23,1.6123,1.6865.9131,3.8652,2.168,6.8574,3.9482.0742.0439.1494.0889.2236.1328a20.02,20.02,0,0,1,30.9141-.3281l32.6592,38.9209a19.9982,19.9982,0,0,1-2.4678,28.1768,20.4,20.4,0,0,1-5.6572,3.4111l11.9727,14.27a19.9989,19.9989,0,0,1-2.5166,28.2178,20.3793,20.3793,0,0,1-13.501,4.6055,19.9966,19.9966,0,0,1-4.7383,24.8262c-7.292,6.1191-15.5332,6.1787-23.6748,3.5146-.0029.2988-.0117.6-.0273.8994a20.0946,20.0946,0,0,1-15.8574,18.5547,19.9672,19.9672,0,0,1-7.7705,1.7646A20.088,20.088,0,0,1,130.3016,184.1493Z"/></g><g id="Layer_2" data-name="Layer 2"><path class="cls-2" d="M43.9,107.7034c-.3576.0008-.982-.14-2.1269-.185-3.3526-.1311-13.29-2.9848-15.1867-6-2.03-3.2337-.049-14.0909-.049-18.0193.0009-5.1818-2.2487-14.6027.8052-18.6992,3.2913-4.4149,11.3806-6.4232,16.4413-7.6718.7521,12.2166.5635,24.5558.6265,36.8051.0173,3.3589.8662,7.7206.3069,10.9976C44.3232,107.2407,44.5439,107.7019,43.9,107.7034Z"/><path class="cls-2" d="M76.3372,54.873a4.0055,4.0055,0,0,1,2.0868.14c3.4048,1.2032,2.2077,4.795,2.2076,7.9627q0,10.6462-.0038,21.2923-.0026,15.3254-.0043,30.653c0,5.2116-.3078,10.4028-.53,15.5486-2.5649.4457-6.4947,1.9721-9.0761,1.1035-9.9838-3.3593-7.6341-19.3323-7.8046-27.0221-.27-12.1555-.394-24.3138-.4566-36.472-.0266-5.1761,3.6224-5.99,7.4475-9.3283C71.736,57.4128,74.0123,55.2984,76.3372,54.873Z"/><path class="cls-2" d="M120.6148,139.6929c-2.7746-3.1282-4.54-4.33-8.56-4.1237-3.429.176-6.9769,2.29-8.763-1.3235-1.2452-2.5191.0838-7.5918.0844-10.3793q.0039-18.2605.0069-36.5211.0019-10.5205.0035-21.0411c-.0009-3.1028-.4012-5.3316,1.1367-7.8972,1.6658-2.7788,5.3557-5.0811,7.69-7.3193,4.2043-4.032,3.5365-2.9328,8.8562-2.2154.7111.0959.1694,41.5286.1875,45.0609.0388,7.5553-.0427,15.1113-.14,22.6658-.0566,4.3761-.154,8.752-.1994,13.1282C120.8854,132.7907,121.9012,136.8752,120.6148,139.6929Z"/><path class="cls-2" d="M191.7787,156.9523a14.7959,14.7959,0,0,1-2.31.47c-5.2673.7506-12.6582.4031-13.249-6.3619-.7714-8.8352.9274-18.2654.9295-27.1917.0036-17.1856.0129-68.3708.0129-76.7778,0-8.3536.22-16.7077.4007-25.0589.1062-4.9175.6325-5.6573,4.6-8.646a123.7692,123.7692,0,0,1,10.7922-7.0988c-2.0575,1.2367.5337,19.3664.6452,21.81,1.0005,21.93,1.3172,43.8854,1.43,65.8362.08,15.5456-.2349,31.0962-.5391,46.638-.0727,3.713-.0734,7.4378-.3095,11.143C193.966,155.0873,193.8556,156.2927,191.7787,156.9523Z"/><path class="cls-2" d="M157.47,114.9211c0,6.548-.01,12.86-1.2147,19.2351-.8359,4.4225.0531,9.9475.8387,14.312-.4178-.4692-5.1234-3.9558-6.862-4.1661-3.1964-.3867-5.7984,2.6106-9.2,1.9718a82.7657,82.7657,0,0,0,.0007-12.36c-1.0005-21.93-1.3172-43.8852-1.43-65.8359-.0292-5.6858-2.9167-25.41,2.5242-27.8835,1.9732,2.2212,4.0119,4.2115,7.0156,3.9781,3.0167-.2344,5.0052-3.8447,8.2021-3.6552-1.3853,5.9589.1353,14.1387.1341,20.3561q-.0021,11.362-.004,22.7239Q157.4717,99.2592,157.47,114.9211Z"/><path class="cls-3" d="M9.1612,107.543c.4387-4.4724.2781-9.0309.2722-13.52q-.0038-2.8972-.0077-5.7944c-.0016-1.3484-.3518-2.6166,1.2422-2.7743a6.235,6.235,0,0,1,2.9844.8992c3.7983,2.1583,4.4576,7.817.3289,10.038-3.3465,1.8-7.7285.7628-11.338.9534a.9352.9352,0,0,0,0,1.8691c4.3436.4,10.7747.93,14.105-2.57a7.6625,7.6625,0,0,0-.8183-10.9,9.1012,9.1012,0,0,0-5.9846-2.0929c-1.9365.0419-2.27.7964-2.2931,2.6462-.0858,7.0127-.36,14.2662.3546,21.2462a.5775.5775,0,0,0,1.1543,0Z"/><path class="cls-3" d="M2.2108,103.3691c1.9416.0282,3.883-.0487,5.8249-.0095a29.8286,29.8286,0,0,0,5.1876.0264c.78-.1215.6368-1.2351,0-1.4408-3.2928-1.0632-7.8374-.6-11.2228-.13-.9036.1255-.6521,1.5412.21,1.5538Z"/><path class="cls-3" d="M5.0111,67.21A143.9428,143.9428,0,0,0,6.0474,51.31l-1.05.6023c1.93,1.0211,3.3722,3.8631,4.812,5.5086a50.9691,50.9691,0,0,0,5.216,5.1207l.1457-1.1306c-1.1076.7653-3.6517,1.8336-3.6637,3.4587a3.22,3.22,0,0,0,.5588,1.4884,18.7655,18.7655,0,0,1,1.8313,4.5392l.4853-.8547c-1.4511.597-2.4142,1.7758-3.1344.1638-.7616-1.7045-1.4116-3.4621-2.0426-5.2181a.71.71,0,0,0-1.0329-.42c-1.2225.88-2.48,1.6858-3.7638,2.4724a.6831.6831,0,0,0,.6891,1.1788,39.8441,39.8441,0,0,0,3.7844-2.437l-1.0329-.42c.4914,1.3612,1.0033,2.7134,1.5574,4.05.3242.7824.614,2.15,1.23,2.7255,1.1673,1.09,2.9029-.2545,4.1152-.7555a.7171.7171,0,0,0,.4853-.8547,16.3329,16.3329,0,0,0-1.3166-3.7762c-.5319-1.0511-1.1014-1.3337-.0383-2.6975a9.5621,9.5621,0,0,1,2.0152-1.4.7282.7282,0,0,0,.1457-1.1306,50.6317,50.6317,0,0,1-5.7944-5.7563c-1.4194-1.6718-2.5485-4.01-4.5475-5.06a.7056.7056,0,0,0-1.05.6023c-.11,5.2628-.54,10.4891-.8151,15.7416-.0346.66,1.0826.8322,1.174.1589Z"/><path class="cls-4" d="M27.0431,103.9167c5.283,1.6878,10.8024,2.9413,15.9871,4.8985.5617.212-.37-.5313-.1364-.0965.2121.3943.3776.8217.5644,1.2283l2.14,4.6578L49,122.0064a.7231.7231,0,0,0,.6344.3639l9.333.02a9.853,9.853,0,0,0,1.663.0035c.62-.11.7139.2071.183-.156a21.657,21.657,0,0,1,2.614,2.5878c2.4546,2.43,4.8837,4.8891,7.3654,7.2916,1.4811,1.4338,3.1579.4969,5.0914.11l4.9528-.9923a9.0084,9.0084,0,0,1,1.4879-.2981c-.6375.0118-.2869-.0474.2733.4448a64.7661,64.7661,0,0,0,8.0874,6.019c1.2246.7652,2.5525.4111,4.0008.346l10.7024-.4813,10.1528-.4566a15.0693,15.0693,0,0,1,2.1222-.0954c-.3845-.0393-.5715-.384-.2526.0051.3773.46.853.8676,1.27,1.2918l7.6579,7.7892c1.1289,1.1482,1.7313,2.28,3.3577,2.2059,6.6887-.304,13.3811-.9111,20.06-1.3884a12.9344,12.9344,0,0,1,2.4114-.1723c.2892.0379-.5542-.2046.05.0767a15.495,15.495,0,0,1,1.6436,1.0423q4.5453,2.8825,9.0823,5.7783a5.0921,5.0921,0,0,0,1.7954.9384c1.4916.2518,3.4423-.23,4.9454-.3278,1.7942-.1162,3.5921-.203,5.3844-.3443.8834-.07.1652-.1429.6087.0561a20.8233,20.8233,0,0,1,2.3069,1.44,18.738,18.738,0,0,0,3.6046,2.209,15.4527,15.4527,0,0,0,3.4772.2386c3.3251.216,6.6509.4227,9.9758.64.87.0568.8662-1.2969,0-1.3535-3.6039-.2355-7.2072-.4818-10.811-.7186-.6836-.0449-1.4111-.0233-2.0871-.1372-.4765-.08.0867.2289-.6851-.3425a27.7259,27.7259,0,0,0-5.0868-3.164,5.1107,5.1107,0,0,0-2.574-.1572q-3.4278.2276-6.856.4493a19.2332,19.2332,0,0,1-1.98.1264c-.5428-.0225.2729.2552-.4293-.1677-1.584-.9539-3.12-1.9981-4.6775-2.9951q-2.7947-1.79-5.5877-3.5819a6.0983,6.0983,0,0,0-2.0671-1.1323,15.6012,15.6012,0,0,0-3.2964.2154q-3.1773.21-6.354.4282-6.0836.4109-12.167.8253c-.4324.03-.8656.0537-1.2975.0886-.3706.03.446.5094.0271-.0534a38.7079,38.7079,0,0,0-3.5819-3.6448l-4.8561-4.9414a13.8231,13.8231,0,0,0-2.4408-2.4837,3.7233,3.7233,0,0,0-2.0241-.1488l-5.1271.23-13.7361.6149-4.6207.2068a5.3371,5.3371,0,0,1-1.04.0466c.3438.0591.0526.0121-.3594-.3577-1.5353-1.378-3.3823-2.5181-5.0365-3.7494-1.0124-.7536-2.4467-2.3434-3.6625-2.7251-.9807-.3079-2.4145.2848-3.3852.48l-6.3534,1.275a3.5388,3.5388,0,0,0-.8488.17c-.4385.2346-.065-.3018.4284.2043-.3377-.3465-.6886-.6813-1.0325-1.0215l-4.2855-4.24L62.76,122.0914a3.13,3.13,0,0,0-1.727-1.17c-1.6917-.3592-3.8541-.0069-5.5785-.01l-3.3031-.0059a7.8475,7.8475,0,0,0-2.2754-.0041c-.47.1863.3129.064.37.3149-.0326-.1427-.17-.2688-.19-.413a9.3723,9.3723,0,0,0-.9561-2.0789l-2.842-6.18c-.6279-1.3653-1.1421-3.3091-2.07-4.501a2.5118,2.5118,0,0,0-1.6207-.8891c-3.9941-1.1817-7.9854-2.3731-11.9863-3.5314q-1.6008-.4635-3.2062-.91a.6246.6246,0,0,0-.3318,1.2035Z"/><path class="cls-3" d="M192.6748,5.8087c-4.29,2.8252-8.543,5.7072-12.81,8.5676-2.1287,1.4271-4.3072,2.8007-6.3949,4.2872-1.0119.7205-1.06,1.2187-1.3945,2.4665L169.62,30.2838l-1.057,3.9391a6.1565,6.1565,0,0,1-.2862,1.0664c-.1953.4.4967-.3912.017-.0824a61.459,61.459,0,0,1-6.1313,3.0237q-4.5174,2.2268-9.0416,4.44c-1.1742.5741-2.4007,1.0908-3.5419,1.7274a4.509,4.509,0,0,1-.7491.3606c.5528-.1777.633.1545-.0423-.3587A78.1488,78.1488,0,0,0,141.33,39.95a.7054.7054,0,0,0-.8257.1065q-2.48,1.9836-4.959,3.9671c-1.706,1.365-3.6568,3.6018-5.6465,4.5251.7059-.3276-.2655-.2181-.9166-.2821q-2.34-.23-4.68-.4546l-4.2885-.4113a12.586,12.586,0,0,0-3.0684-.2943c-1.0745.2032-1.9413,1.3814-2.7381,2.113q-3.402,3.1232-6.8036,6.2467a48.5623,48.5623,0,0,0-4.83,4.4364c-.2664.3243.7856.0821.3611-.1265a7.0876,7.0876,0,0,0-1.0624-.3205l-4.4692-1.3483C95.65,57.5788,94.055,56.72,92.2685,57.2c-.7411.1992-1.5064.3829-2.2339.6295-.3979.1348-1.0323.172-.6641.224a12.364,12.364,0,0,1-2.4772-.99c-2.8364-1.1332-5.663-2.2954-8.521-3.3735-1.3612-.5135-1.793-.9206-2.96-.1341-2.1757,1.4659-4.23,3.156-6.329,4.7293a74.93,74.93,0,0,0-6.3225,4.74,2.65,2.65,0,0,1-.6089.4565c-.02.0086.69.0265.1489-.1171a25.4584,25.4584,0,0,1-2.5129-.962c-2.8987-1.116-5.7932-2.2423-8.6942-3.3523-1.44-.5511-3.9167-2.1221-5.5054-1.9715-1.537.1457-3.53,1.54-4.9258,2.15q-7.5761,3.311-15.1409,6.648c-.7923.3479-.1072,1.5094.68,1.1637q6.5353-2.87,13.0718-5.7375c2.0878-.9189,4.3705-1.6932,6.3626-2.808.7742-.4332-.1383-.1712.2125-.0389q1.44.5432,2.8788,1.09,4.2793,1.62,8.5637,3.2254c1.2954.4844,3.5364,1.8827,4.9474,1.8623,1.2471-.018,2.9162-1.9123,3.8509-2.6189q3.7578-2.8406,7.5149-5.6824A21.4708,21.4708,0,0,0,76.0627,54.46a2.1477,2.1477,0,0,1,.5214-.3968c-.4546.2123-.4069-.0961.2.2629,2.3156,1.3691,5.2016,2.1458,7.6928,3.1425,1.43.5722,3.4465,1.862,5.0129,1.8459,1.1331-.0117,2.3746-.7547,3.49-.9738.8241-.1618-.0109-.1432.4588-.0756a9.3289,9.3289,0,0,1,1.3319.41c2.3971.737,5.2392,2.1687,7.7373,2.379,1.1705.0986,1.8881-.9918,2.7429-1.7725,3.8843-3.5475,7.6241-7.6764,11.8416-10.8188.4793-.3571-.4237.0531-.2046.035a7.4494,7.4494,0,0,1,1.251.1229l4.68.46q2.5537.2509,5.1077.4985a9.1626,9.1626,0,0,0,2.3994.23,4.1343,4.1343,0,0,0,1.51-1.0213q1.777-1.4312,3.554-2.8624,3.04-2.45,6.0772-4.904l-.8257.1065q3.4664,2.04,6.9386,4.0708c1.5246.889,1.7647.73,3.2949-.0386,5.4879-2.7568,10.997-5.4712,16.5024-8.1927,1.2617-.6237,1.8384-.7079,2.2142-2.0519.8185-2.9271,1.5711-5.8744,2.3563-8.8106l1.1625-4.3468c.1137-.4252.8921-2.328.2746-1.6422,1.1675-1.2965,3.3361-2.2406,4.7756-3.2073,5.027-3.3762,10.0734-6.7254,15.0725-10.1429.5831-.3986.0408-1.3512-.5589-.9562Z"/><path class="cls-5" d="M9.7,9.6726c4.9653,2.2566,11.1338.21,16.3959-.3691a141.4672,141.4672,0,0,1,19.58-.8183c6.093.1756,12.1781.5116,18.2725.666,6.0867.1542,12.5591.9768,18.5723-.0994,2.3992-.4294,2.136-4.0027,0-4.5954-5.8726-1.63-12.5138-1.3538-18.5723-1.7618-6.369-.4289-12.7475-.8182-19.13-.9908a168.0506,168.0506,0,0,0-18.7227.6851c-5.3378.4517-12.5844.1345-16.8643,3.6486A2.3241,2.3241,0,0,0,9.7,9.6726Z"/><path class="cls-3" d="M8.3075,18.3671q28.5443-1.1973,57.1-1.8209c9.5029-.2054,19.007-.3035,28.5109-.4486,9.388-.1433,19.1186.1661,28.4392-1.0556.9331-.1223,1.0049-1.5039,0-1.5117-9.4539-.0739-18.9751.7306-28.4392.8722-9.5038.1421-19.0079.2346-28.5109.4319q-28.56.593-57.1,2.2378c-.8268.0474-.8369,1.33,0,1.2949Z"/><path class="cls-3" d="M8.3136,23.0977c17.8533,4.1418,36.6746,1.4552,54.7373.493,19.2295-1.0243,38.4341-1.0026,57.6816-.9954a.8062.8062,0,0,0,0-1.6113c-18.8717-.4988-37.8389-.0753-56.6882.9023-18.5453.9618-36.9237,2.9854-55.3958-.0034-.7825-.1266-1.14,1.0281-.3349,1.2148Z"/><path class="cls-3" d="M7.9018,31.6735c5.19.55,10.4252.5833,15.6207,1.169,5.3064.5982,10.6259,1.4246,15.9817,1.2712,4.907-.1406,9.5988-1.4811,14.4259-2.2168,5.7422-.8752,11.3622-.67,17.1351-.4681.7293.0255.9239-1.182.176-1.3006a56.9712,56.9712,0,0,0-15.5955.0445c-5.2522.6389-10.37,2.2137-15.672,2.4359-10.7195.4491-21.3326-2.7919-32.072-1.9429a.5042.5042,0,0,0,0,1.0078Z"/></g></svg>