<?xml version="1.0" encoding="utf-8"?>
<!-- Generator: Adobe Illustrator 20.1.0, SVG Export Plug-In . SVG Version: 6.00 Build 0)  -->
<svg version="1.1" xmlns="http://www.w3.org/2000/svg" xmlns:xlink="http://www.w3.org/1999/xlink" x="0px" y="0px"
	 viewBox="0 0 545 214" enable-background="new 0 0 545 214" xml:space="preserve">
<g id="site_bg">
</g>
<g id="back">
	<g>
		<g>
			<path fill="#F7FAFC" d="M185.947,204.8844c-5.6191,0-11.874-1.9106-18.7266-5.7324c-2.4727-1.3794-5.1846-3.061-8.168-5.0659
				c-1.1973,2.2798-2.8359,4.3311-4.8506,6.021c-4.1592,3.4912-9.4502,5.1421-14.8779,4.6523
				c-1.916-0.1729-3.668-0.5298-5.415-1.1792c-2.5703-0.1519-5.1113-0.7969-7.4707-1.9268c-4.04-0.1318-8.4346-1.5034-12.8369-4.77
				c-0.0674-0.0503-0.1357-0.1016-0.2041-0.1528c-2.8066,0.189-6.0039-0.1978-9.5098-1.626
				c-0.8242-0.3354-1.7412-0.7524-2.8867-1.312c-1.5791-0.772-3.6885-1.8623-6.4473-3.334
				c-2.5508-1.3604-5.7021-3.0713-9.4219-5.1157c-1.1484,2.0767-2.6885,3.9819-4.6104,5.603
				c-8.4414,7.1211-21.0596,6.0493-28.1807-2.3936c0,0-9.1699-10.8716-18.3369-21.769c-4.5918-5.4575-9.1826-10.9219-12.624-15.0347
				c-1.7432-2.0825-3.1953-3.8232-4.2119-5.0493c-2.709-3.2705-6.8027-8.2124-6.0918-16.418
				c0.458-5.2871,2.999-10.1763,7.0625-13.5894c1.2148-1.0205,4.001-3.0483,7.9307-4.0684
				c-2.1133-2.5288-4.0684-4.9141-5.8604-7.1528C6.0017,87.7292,1.5857,79.1242,2.0349,70.0592
				c0.1631-3.29,1.0234-6.4009,2.5039-9.1729c-0.4053-4.6499,0.8174-9.3857,3.5898-13.3003
				c0.8535-2.1992,2.0811-4.2441,3.627-6.0273c1.2227-2.0967,2.8076-3.9834,4.7197-5.5879
				c6.5635-5.5063,15.708-6.1167,22.8262-2.019c-0.1475-1.2788-0.1699-2.6226-0.0527-4.0596
				c0.4346-5.3271,3.002-10.3013,7.0967-13.7368c2.6719-2.2437,12.4131-8.9409,25.4551-0.8901
				c0.9639,0.5957,2.0146,1.2998,3.2021,2.148c0.9746-3.9873,3.1816-7.7105,6.5674-10.5518
				c2.0605-1.728,13.0205-9.8423,26.6182,0.1768c1.54,1.1348,3.3564,2.6323,5.7168,4.7134c1.6416,1.4482,3.5635,3.1948,5.792,5.2651
				c0.7979-0.9873,1.7021-1.9121,2.7109-2.7588c2.1338-1.7935,13.4922-10.1763,27.3613,0.9058
				c0.8047,0.6431,1.7246,1.418,2.7764,2.3408c6.0068-3.2266,14.2617-3.7651,21.8037,1.7295
				c0.4531,0.3306,1.1133,0.8315,1.959,1.4985c1.2393,0.9775,3.0352,2.4307,5.3047,4.2925
				c1.4512,1.1904,3.1357,2.5801,5.0459,4.1631c1.127-4.2363,3.501-7.9941,6.918-10.8608
				c7.8936-6.6226,19.5254-6.1646,26.8721,1.0562c0.1201,0.1182,4.5273,4.4473,11.7998,11.52
				c0.9355-2.5898,2.4229-5.0254,4.4609-7.1235c7.4639-7.6846,19.6562-8.1235,27.6514-0.9985l48.2744,43.0181
				c7.4131-7.3159,19.2021-7.7183,27.0967-0.9194c9.8076,8.4463,20.0771,17.1831,29.9062,25.4438
				c8.0771-4.0161,18.1426-2.1577,24.2002,5.0537c0.457,0.5435,0.8799,1.104,1.2686,1.6792
				c3.0596,3.8579,18.9014,22.6128,33.1582,39.3486c3.4561,4.0566,5.1494,9.3257,4.7051,14.6362
				c-0.4443,5.311-2.9902,10.2246-7.0732,13.6509c-0.3145,0.2642-0.7373,0.5977-1.2607,0.9653l0.7568,0.9019
				c6.7393,8.0312,6.1318,19.9028-1.3906,27.2046c-7.5215,7.3037-19.4072,7.5547-27.2334,0.5811l-9.8203-8.7505
				c-1.2812,2.8193-3.1807,5.3301-5.6172,7.375c-3.1328,2.6279-11.7725,8.1284-24.3242,2.4297
				c-2.6973-1.2251-5.6416-2.9619-9.2656-5.4663c-4.1816-2.8887-9.2969-6.8267-15.5371-11.9624
				c-0.7695,0.9131-1.6191,1.7627-2.541,2.5366c-7.4678,6.2666-18.3652,6.2368-25.7998-0.0752
				c-2.6406-2.2427-5.3652-4.5547-8.1533-6.9214c-0.8809,4.8384-3.3633,9.1455-7.1504,12.3237
				c-5.2959,4.4438-12.2627,5.6924-18.4834,3.8735c-0.0859,0.0747-0.1729,0.1489-0.2607,0.2227
				c-2.8438,2.3857-13.2021,9.4248-27.2363-0.0586c-1.0293,1.5586-2.2969,2.9976-3.7969,4.2632
				c-6.6777,5.6357-18.0176,7.146-26.7695-0.8677l-5.043-4.6475c-0.9443,4.2803-3.2773,8.1597-6.6738,11.0093
				C196.1218,203.133,191.3259,204.8844,185.947,204.8844z M397.7888,113.633c0.0078,0.0068,0.0156,0.0132,0.0244,0.02
				c1.5596-5.6309,0.5254-11.6064-2.3037-15.9771C398.5457,102.5402,399.2625,108.3498,397.7888,113.633z"/>
		</g>
	</g>
	<g>
		<g>
			<path fill="#F2F6F9" d="M151.8533,210.2873c-4.4951,0-8.9902-1.5093-12.6777-4.5322l-15.7969-12.9492
				c-1.0352,1.5352-2.2861,2.9326-3.7305,4.1445c-4.5371,3.8076-14.3037,8.8633-28.7354-0.062
				c-3.373-2.0864-7.4775-5.1143-12.5479-9.2554c-5.9346-4.8481-13.3369-11.3467-22.0732-19.3774c-0.0088,0-0.0186,0-0.0273,0
				c-5.709,0-11.377-2.4312-15.332-7.1465c-1.3545-1.6147-2.4111-3.3813-3.1738-5.2314
				c-4.2861-5.7065-18.5303-21.8975-30.5322-34.9688c-7.3643-8.0205-6.959-20.4585,0.9121-27.9819
				c0.7822-0.748,1.6104-1.4199,2.4736-2.0161c0.0078-0.2334,0.0195-0.4678,0.0342-0.7041
				c0.3525-5.6152,3.0059-10.8931,7.2822-14.481c3.3203-2.7861,7.3232-4.3296,11.4004-4.626
				c-0.1992-1.374-0.25-2.8247-0.1514-4.3999c0.3457-5.4619,2.9385-10.6001,7.1318-14.1172
				c6.9121-5.7974,16.6875-6.1626,23.9404-1.3237c1.0547-4.0796,3.4014-7.8574,6.9521-10.6665
				c2.9492-2.3325,6.3564-3.7031,9.8398-4.1509c6.5371-2.4346,13.0059-0.8457,17.4346,1.0269
				c0.9355-1.2393,2.0117-2.3774,3.2129-3.3848c7.8545-6.5937,19.4268-6.1728,26.7861,0.9717
				c17.7979,17.2812,36.5293,35.2412,53.5996,51.3872c6.5176-2.3306,13.9521-1.1558,19.4707,3.4077
				c5.2939,0.3184,10.4502,2.729,14.127,7.1138c0.2383,0.2842,0.4668,0.5728,0.6865,0.8657
				c0.9951,1.1338,3.4365,3.8193,5.6221,6.2241c5.249,5.7754,12.4375,13.6851,18.4248,20.6245
				c10.6191,12.3081,15.6963,18.6436,15.0576,28.0801c-0.1582,2.3423-0.7266,4.6265-1.6533,6.749
				c-0.0107,0.3647-0.0312,0.7295-0.0625,1.0942c-0.4502,5.3032-2.9961,10.2075-7.0723,13.6284
				c-1.0576,0.8867-4.625,3.582-9.8193,4.4468c-1.252,3.4932-3.4023,6.6289-6.2627,9.0288
				c-5.0859,4.2681-12.9375,6.4038-20.6416,3.1304c-1.1348,1.8999-2.5879,3.6162-4.3154,5.0659
				c-3.0107,2.5259-6.5732,4.1479-10.3877,4.7778c-7.2275,2.7427-14.8799,1.043-21.2432-1.7705
				c-1.2705,2.5449-3.0576,4.8193-5.2979,6.6992C160.9929,208.7258,156.4236,210.2868,151.8533,210.2873z M216.2957,108.3727
				l0.0166,0.0171c-0.1807-2.5854-0.8682-5.1499-2.0811-7.5366C215.4285,103.2365,216.1111,105.7941,216.2957,108.3727z"/>
		</g>
	</g>
</g>
<g id="Layer_2">
	<path fill="#FFEFAF" d="M495.277,74.6245c1.7382-1.4462,9.8129-1.9501,13.5291-4.4676
		c5.1421-3.4834,10.1849-8.4121,11.1871-14.8533c0.9814-6.3076-1.3315-16.808-7.23-20.3169
		c-5.1223-3.0471-15.378-2.1767-21.0521-1.2516c-13.812,2.2517-21.2613,12.5922-15.606,26.2966
		C479.5475,68.3733,487.4516,69.9396,495.277,74.6245z"/>
	<path fill="#E93A1D" d="M493.4398,38.5309c0.1332,0.3298,0.634,0.6533,1.5552,0.9136c2.3839,0.6736,5.0071-0.3002,7.4915,0.5902
		c2.8496,1.0213,5.2025,2.7601,7.6363,4.1964c2.4331,1.4359,11.3495,5.4696,6.231-1.277
		c-3.5161-4.6345-7.9146-5.9458-13.4172-5.7105c-2.4137,0.1032-5.5506-0.6508-7.8625-0.0286
		C493.8446,37.5461,493.2437,38.0453,493.4398,38.5309z"/>
	<g>
		<g>
			<path fill="#303030" d="M480.4012,41.5733c-6.1018,4.1925-8.1643,12.2103-6.1727,19.1652
				c2.3145,8.0826,10.1122,13.0357,18.1311,14.0861c8.4048,1.101,17.3366-1.9844,22.9533-8.4205
				c5.2998-6.073,6.6442-14.7137,2.7578-21.9043c-5.6846-10.5176-17.8344-8.9237-27.6613-6.4267
				c-1.0954,0.2783-0.6308,1.9781,0.4673,1.695c7.962-2.0523,18.003-4.1897,24.0836,3.0141
				c4.8564,5.7534,4.9305,14.2441,0.9082,20.4308c-8.2743,12.7265-31.0618,14.8625-39.037,0.5584
				c-3.8392-6.8858-2.5355-16.5974,4.1198-21.257C481.5205,42.1158,480.9827,41.1738,480.4012,41.5733L480.4012,41.5733z"/>
		</g>
	</g>
	<g>
		<g>
			<path fill="#303030" d="M490.6325,81.0377c-2.0134,6.1452-3.312,12.4507-3.9167,18.8877c-0.081,0.8622,1.2699,0.8589,1.3477,0
				c0.5725-6.3223,1.8506-12.5085,3.8064-18.5466C492.125,80.5909,490.8888,80.2555,490.6325,81.0377L490.6325,81.0377z"/>
		</g>
	</g>
	<g>
		<g>
			<path fill="#303030" d="M512.8633,79.3395c1.0784,2.9171,2.1567,5.8343,3.235,8.7514c0.3184,0.8613,1.7126,0.4818,1.3843-0.3816
				c-1.1066-2.9093-2.2132-5.8187-3.3198-8.728C513.8583,78.1804,512.5609,78.5212,512.8633,79.3395L512.8633,79.3395z"/>
		</g>
	</g>
	<g>
		<g>
			<path fill="#303030" d="M529.434,65.4244c2.1746,1.8311,4.3491,3.6623,6.5237,5.4934c0.69,0.581,1.6912-0.4197,0.9944-0.9944
				c-2.1953-1.8104-4.3906-3.6208-6.5859-5.4312C529.7182,63.9579,528.7818,64.8753,529.434,65.4244L529.434,65.4244z"/>
		</g>
	</g>
	<g>
		<g>
			<path fill="#303030" d="M535.5329,46.9469c2.5508-0.3575,5.1016-0.715,7.6523-1.0726c0.9167-0.1285,0.5293-1.5279-0.3848-1.3956
				c-2.5477,0.3688-5.0953,0.7376-7.6429,1.1065C534.2599,45.7152,534.6442,47.0714,535.5329,46.9469L535.5329,46.9469z"/>
		</g>
	</g>
	<g>
		<g>
			<path fill="#303030" d="M521.6555,28.3097c3.6515-2.9039,7.3016-5.8096,10.9619-8.7024
				c0.7566-0.5979-0.3149-1.6721-1.0648-1.0648c-3.6227,2.9337-7.2557,5.8544-10.8873,8.777
				C519.9616,27.8858,520.9582,28.8643,521.6555,28.3097L521.6555,28.3097z"/>
		</g>
	</g>
	<g>
		<g>
			<path fill="#303030" d="M501.0412,24.5328c0.7251-5.5234,2.1844-10.8909,4.3559-16.0209
				c0.3926-0.9274-0.8859-1.478-1.2798-0.5395c-2.2325,5.3194-3.6907,10.8401-4.4238,16.5604
				C499.5835,25.3918,500.9299,25.3809,501.0412,24.5328L501.0412,24.5328z"/>
		</g>
	</g>
	<g>
		<g>
			<path fill="#303030" d="M476.31,13.7324c2.6508,3.2982,4.5895,6.9783,5.8321,11.0234c0.2631,0.8566,1.6213,0.4851,1.3447-0.3707
				c-1.3694-4.2376-3.4835-8.0758-6.3233-11.5062C476.6653,12.2771,475.8297,13.1349,476.31,13.7324L476.31,13.7324z"/>
		</g>
	</g>
	<g>
		<g>
			<path fill="#303030" d="M448.6555,30.6759c3.2755,2.1892,6.5509,4.3783,9.8263,6.5675c0.7693,0.5141,1.4943-0.7322,0.7245-1.2396
				c-3.2883-2.1672-6.5765-4.3345-9.8648-6.5017C448.6081,29.0187,447.9316,30.1921,448.6555,30.6759L448.6555,30.6759z"/>
		</g>
	</g>
	<g>
		<g>
			<path fill="#303030" d="M453.5568,65.4364c2.5498-0.7251,5.0996-1.4502,7.6495-2.1753c0.9091-0.2585,0.5195-1.6873-0.391-1.4182
				c-2.5425,0.7515-5.0851,1.5029-7.6277,2.2544C452.3327,64.35,452.6937,65.6818,453.5568,65.4364L453.5568,65.4364z"/>
		</g>
	</g>
	<g>
		<g>
			<path fill="#303030" d="M461.5576,87.2902c2.196-2.1739,4.3919-4.3478,6.5879-6.5216c0.6682-0.6614-0.37-1.7001-1.0316-1.0317
				c-2.1739,2.196-4.3477,4.3919-6.5216,6.5879C459.9734,86.9501,460.9322,87.9094,461.5576,87.2902L461.5576,87.2902z"/>
		</g>
	</g>
	<g>
		<g>
			<path fill="#FFFFFF" d="M208.8435,140.937c3.5999-0.0654,6.8026,1.5684,8.3941,4.8968c1.4021,2.9322,2.2231,5.1799,5.7061,5.9753
				c3.052,0.697,5.4,1.6216,7.0889,4.4512c1.4412,2.4147,1.9133,5.4859,0.7566,8.1113c-1.0707,2.4302,2.5291,4.5424,3.5888,2.0977
				c2.8041-6.4688-0.008-14.5571-6.5795-17.5117c-1.6235-0.7299-4.2504-0.5279-5.5595-1.701
				c-1.3762-1.2332-1.7652-3.893-2.9656-5.4004c-2.4565-3.0849-6.4855-4.9039-10.4299-4.4505
				C206.6469,137.6582,206.514,140.9793,208.8435,140.937L208.8435,140.937z"/>
		</g>
	</g>
	<g>
		<g>
			<path fill="#FFFFFF" d="M201.4374,159.9762c4.0682-1.1301,8.2147,0.8137,10.0636,4.5773
				c1.055,2.1476,4.3319,0.2569,3.2245-1.8848c-2.6423-5.1102-8.6984-7.6589-14.202-6.0072
				C198.4107,157.2956,199.2964,160.5709,201.4374,159.9762L201.4374,159.9762z"/>
		</g>
	</g>
	<g>
		<g>
			<path fill="#FFFFFF" d="M362.4535,131.4985c5.52-1.2825,11.3234-0.8245,16.5054,1.533c2.3958,1.09,4.6355,2.5426,6.5609,4.339
				c1.834,1.7112,3.0976,4.164,5.1458,5.6044c2.2025,1.5488,4.5735,0.8668,7.0705,0.9916c2.6166,0.1308,5.1188,1.1361,7.2372,2.6535
				c4.2635,3.0539,7.0867,8.4304,6.2823,13.7217c-0.3824,2.5149,3.4767,3.584,3.842,1.0592
				c0.8358-5.7763-1.1035-11.407-5.1844-15.5888c-1.9791-2.0281-4.3915-3.6274-7.0481-4.6169
				c-2.9295-1.0911-5.4638-0.7224-8.4753-0.8668c-2.1053-0.101-2.8759-1.6609-4.1051-3.1085
				c-0.9403-1.1073-1.9777-2.1267-3.0955-3.0541c-2.2865-1.897-4.8394-3.4033-7.5959-4.5091
				c-5.6704-2.2749-12.0386-2.6995-17.8959-0.9005C359.947,129.294,360.668,131.9134,362.4535,131.4985L362.4535,131.4985z"/>
		</g>
	</g>
	<g>
		<g>
			<path fill="#FFFFFF" d="M339.1305,150.3582c3.1339-1.2737,6.3534-0.8039,8.8262,1.5562c2.069,1.9747,3.6975,3.1356,6.5224,3.7936
				c6.409,1.4928,12.3633,3.9159,17.7595,7.7317c2.486,1.7579,4.6577,3.9425,7.7434,4.571c2.6933,0.5486,5.5172,0.3681,8.2433,0.72
				c5.3875,0.6955,10.3704,2.3943,13.6331,6.9396c1.4798,2.0615,4.6946,0.29,3.4539-2.0189
				c-2.6359-4.9051-8.2857-7.3406-13.4948-8.3676c-2.8563-0.5632-5.7531-0.7585-8.6557-0.8824
				c-2.3844-0.1018-3.9568-0.5799-5.8996-1.9836c-1.3877-1.0027-2.7083-2.076-4.1438-3.0142
				c-2.7616-1.805-5.7039-3.2826-8.7716-4.4921c-3.4332-1.3537-6.9756-1.8375-10.4729-2.888
				c-2.9044-0.8724-4.5788-3.6813-7.4739-4.7362c-2.8149-1.0257-5.6851-0.7777-8.4073,0.3722
				C336.4702,148.3026,337.5768,150.9897,339.1305,150.3582L339.1305,150.3582z"/>
		</g>
	</g>
	<g>
		<g>
			<path fill="#FFFFFF" d="M377.3211,153.3892c4.8841-0.7476,9.6331,1.55,11.9757,5.9084c1.0834,2.0157,4.2195,0.2001,3.0761-1.7981
				c-3.144-5.4945-9.6504-8.5384-15.866-7.0634C374.5483,150.9009,375.4213,153.68,377.3211,153.3892L377.3211,153.3892z"/>
		</g>
	</g>
	<g>
		<g>
			<path fill="#FFFFFF" d="M171.2964,154.0362c3.3762,2.8971,5.3186,6.8157,5.3486,11.2831c0.0138,2.0553,3.2768,2.0477,3.1875,0
				c-0.227-5.2065-2.4272-10.0123-6.4258-13.3934C171.951,150.695,169.833,152.7804,171.2964,154.0362L171.2964,154.0362z"/>
		</g>
	</g>
	<g>
		<g>
			<path fill="#FFFFFF" d="M218.5613,124.7118c2.2088,1.1728,3.7096,3.6056,3.3497,6.1599
				c-0.3425,2.4312,3.0618,2.9254,3.3454,0.4528c0.4377-3.8168-1.6732-7.6297-5.1021-9.338
				C218.3484,121.0868,216.7557,123.753,218.5613,124.7118L218.5613,124.7118z"/>
		</g>
	</g>
</g>
</svg>
